<svg id="Layer_1" data-name="Layer 1" xmlns="http://www.w3.org/2000/svg" xmlns:xlink="http://www.w3.org/1999/xlink" width="93" height="24" viewBox="0 0 93 24"><defs><linearGradient id="linear-gradient" x1="12" y1="0.69" x2="12" y2="23.25" gradientUnits="userSpaceOnUse"><stop offset="0" stop-color="#ebe9ec"/><stop offset="0.28" stop-color="#e5e6e9"/><stop offset="1" stop-color="#dadfe2"/></linearGradient><linearGradient id="linear-gradient-2" x1="35" y1="0.69" x2="35" y2="23.25" xlink:href="#linear-gradient"/><linearGradient id="linear-gradient-3" x1="58" y1="0.69" x2="58" y2="23.25" xlink:href="#linear-gradient"/><linearGradient id="linear-gradient-4" x1="81" y1="0.69" x2="81" y2="23.25" xlink:href="#linear-gradient"/></defs><title>toggle-groups-independent-none</title><rect x="0.5" y="0.5" width="23" height="23" fill="url(#linear-gradient)"/><path d="M23,1V23H1V1H23m1-1H0V24H24V0Z" fill="#a8abae"/><rect x="23.5" y="0.5" width="23" height="23" fill="url(#linear-gradient-2)"/><path d="M46,1V23H24V1H46m1-1H23V24H47V0Z" fill="#a8abae"/><rect x="46.5" y="0.5" width="23" height="23" fill="url(#linear-gradient-3)"/><path d="M69,1V23H47V1H69m1-1H46V24H70V0Z" fill="#a8abae"/><rect x="69.5" y="0.5" width="23" height="23" fill="url(#linear-gradient-4)"/><path d="M92,1V23H70V1H92m1-1H69V24H93V0Z" fill="#a8abae"/><path d="M8.64,16.8V7h3.57a4.45,4.45,0,0,1,2.52.6,1.93,1.93,0,0,1,.88,1.69,2,2,0,0,1-.54,1.39,2.82,2.82,0,0,1-1.37.83v0a2.71,2.71,0,0,1,1.67.77A2.16,2.16,0,0,1,16,13.87,2.61,2.61,0,0,1,15,16a4,4,0,0,1-2.63.79Zm2.21-8.17v2.32h1a1.62,1.62,0,0,0,1.08-.33,1.13,1.13,0,0,0,.39-.91q0-1.08-1.61-1.08Zm0,4v2.58H12a1.84,1.84,0,0,0,1.2-.36,1.19,1.19,0,0,0,.43-1,1.11,1.11,0,0,0-.43-.92,1.89,1.89,0,0,0-1.19-.33Z" fill="#696e73"/><path d="M37.53,7l-3.76,9H32.25L36,7Z" fill="#696e73"/><path d="M61.81,11.76q0,3.79-3.53,3.79t-3.42-3.7V7h1.9v4.88q0,2,1.59,2t1.56-2V7h1.89Z" fill="#696e73"/><rect x="52" y="17.4" width="12" height="1" fill="#696e73"/><path d="M78.42,15.65V13.78a3.6,3.6,0,0,0,1.11.64,3.56,3.56,0,0,0,1.21.21,2.68,2.68,0,0,0,.62-.06,1.46,1.46,0,0,0,.45-.18.78.78,0,0,0,.27-.27.67.67,0,0,0,.09-.34.73.73,0,0,0-.14-.44,1.51,1.51,0,0,0-.38-.36,4,4,0,0,0-.58-.32l-.72-.31a3.68,3.68,0,0,1-1.47-1,2.19,2.19,0,0,1-.48-1.43,2.28,2.28,0,0,1,.26-1.13A2.24,2.24,0,0,1,79.37,8a3.22,3.22,0,0,1,1.05-.45,5.4,5.4,0,0,1,1.27-.14,7.61,7.61,0,0,1,1.16.08,4.57,4.57,0,0,1,.93.24V9.51a2.83,2.83,0,0,0-.46-.26,3.64,3.64,0,0,0-.51-.18A3.91,3.91,0,0,0,82.29,9a3.71,3.71,0,0,0-.5,0A2.58,2.58,0,0,0,81.2,9a1.5,1.5,0,0,0-.45.17.86.86,0,0,0-.28.27.63.63,0,0,0-.1.35.67.67,0,0,0,.11.38,1.28,1.28,0,0,0,.32.32,3.36,3.36,0,0,0,.5.29l.66.3a7.38,7.38,0,0,1,.91.45,3.22,3.22,0,0,1,.69.54,2.09,2.09,0,0,1,.44.68,2.73,2.73,0,0,1-.11,2.07,2.16,2.16,0,0,1-.72.77A3.14,3.14,0,0,1,82.1,16a6.15,6.15,0,0,1-1.28.13A7.12,7.12,0,0,1,79.5,16,4,4,0,0,1,78.42,15.65Z" fill="#696e73"/><rect x="75" y="11" width="12" height="1" fill="#696e73"/></svg>