<svg id="Layer_1" data-name="Layer 1" xmlns="http://www.w3.org/2000/svg" width="136" height="22" viewBox="0 0 136 22"><title>trees-list-item-parent-normal</title><path d="M0,0V22H136V0Z" fill="#f7f7f7"/><g id="_Group_" data-name="&lt;Group&gt;"><path d="M28.37,8.49H25.09v2.91h3v.88h-3V16h-1V7.6h4.27Z" fill="#2b3033"/><path d="M33,11a1.18,1.18,0,0,0-.73-.19,1.23,1.23,0,0,0-1,.58,2.68,2.68,0,0,0-.41,1.58V16h-1V10h1v1.24h0a2.1,2.1,0,0,1,.63-1,1.43,1.43,0,0,1,.94-.35A1.57,1.57,0,0,1,33,10Z" fill="#2b3033"/><path d="M38.86,16h-1v-.95h0A2,2,0,0,1,36,16.14q-2.14,0-2.14-2.55V10h1v3.43q0,1.9,1.45,1.9a1.47,1.47,0,0,0,1.16-.52,2,2,0,0,0,.45-1.36V10h1Z" fill="#2b3033"/><path d="M41.29,8.48a.61.61,0,0,1-.44-.18.59.59,0,0,1-.18-.45.62.62,0,0,1,.62-.63.62.62,0,0,1,.45.18.63.63,0,0,1,0,.89A.62.62,0,0,1,41.29,8.48ZM41.76,16h-1V10h1Z" fill="#2b3033"/><path d="M46.48,15.94a1.85,1.85,0,0,1-.9.19Q44,16.13,44,14.37V10.82H43V10h1V8.54l1-.31V10h1.51v.82H45V14.2a1.4,1.4,0,0,0,.21.86.82.82,0,0,0,.68.26,1,1,0,0,0,.63-.2Z" fill="#2b3033"/></g><polygon points="3 10 11 10 7 14 3 10" fill="#777b80"/></svg>