<svg id="Layer_1" data-name="Layer 1" xmlns="http://www.w3.org/2000/svg" xmlns:xlink="http://www.w3.org/1999/xlink" width="982.29" height="594.13" viewBox="0 0 982.29 594.13"><defs><linearGradient id="linear-gradient" x1="917.55" y1="557.2" x2="917.55" y2="579.1" gradientUnits="userSpaceOnUse"><stop offset="0" stop-color="#ebe9ec"/><stop offset="0.28" stop-color="#e5e6e9"/><stop offset="1" stop-color="#dadfe2"/></linearGradient><linearGradient id="linear-gradient-2" x1="826.55" y1="557.2" x2="826.55" y2="579.1" xlink:href="#linear-gradient"/></defs><title>yes</title><g id="dialog_2" data-name="dialog 2"><path d="M4,23.92V547.1H980.29V24H953L7.26,23.92Z" style="fill:#ebebeb"/><path d="M5,11V516.81H981.29V11H5Z" style="fill:#ebebeb"/><path d="M4,590.13H978.29v-44H4Z" style="fill:#e0e0e0"/><path d="M0,0V594.13H982.29V0H0ZM978.29,590.13H4V29H978.29V590.13Z" style="fill:#4c5358"/><path d="M4,546.13H978.29v-1H4Z" style="fill:#a8abae"/><polygon points="970.67 11.52 969.15 10 965.6 13.55 962.05 10 960.53 11.52 964.08 15.07 960.53 18.62 962.05 20.14 965.6 16.59 969.15 20.14 970.67 18.62 967.12 15.07 970.67 11.52" style="fill:#fff"/></g><rect x="878.55" y="557.13" width="78" height="22" style="fill:url(#linear-gradient)"/><path d="M877.55,556.13v24h80v-24Zm79,23h-78v-22h78Z" style="fill:#a8abae"/><text transform="translate(900.03 572.78)" style="font-size:12px;fill:#4d5359;font-family:SegoeUI, Segoe UI">Cancel</text><rect x="787.55" y="557.13" width="78" height="22" style="fill:url(#linear-gradient-2)"/><path d="M786.55,556.13v24h80v-24Zm79,23h-78v-22h78Z" style="fill:#a8abae"/><text transform="translate(811.27 572.78)" style="font-size:12px;fill:#4d5359;font-family:SegoeUI, Segoe UI">Apply</text><rect x="24.5" y="50.19" width="933.26" height="475.1" style="fill:#f7f7f7"/><path d="M957.26,50.69v474.1H25V50.69H957.26m1-1H24v476.1H958.26V49.69Z" style="fill:#a9acaf"/><rect x="25.01" y="70.79" width="919.2" height="26" style="fill:#647a8c"/><rect x="25.01" y="200.07" width="919.2" height="26" style="fill:#647a8c"/><rect x="25" y="122.79" width="919.21" height="26" style="fill:#e0e0e0"/><rect x="25" y="174.79" width="919.22" height="26" style="fill:#e0e0e0"/><rect x="24.97" y="252.79" width="919.24" height="26" style="fill:#e0e0e0"/><rect x="25" y="304.79" width="919.21" height="26" style="fill:#e0e0e0"/><rect x="24.97" y="383.8" width="919.24" height="26" style="fill:#e0e0e0"/><rect x="25" y="437.87" width="919.21" height="26" style="fill:#e0e0e0"/><rect x="25" y="492.03" width="919.21" height="26" style="fill:#e0e0e0"/><rect x="944.24" y="70.78" width="13" height="453.96" style="fill:#fff"/><rect x="947.21" y="88.91" width="7" height="162.75" style="fill:#777b80"/><polygon points="945.21 524.74 945.21 72.03 956.22 72.03 956.22 524.74 957.22 524.74 957.22 70.78 944.22 70.78 944.22 524.74 945.21 524.74" style="fill:#e1e4e6"/><polygon points="954.53 513.5 947.53 513.5 951.03 519.74 954.53 513.5" style="fill:#777b80"/><polygon points="954.53 83.26 947.53 83.26 951.03 77.03 954.53 83.26" style="fill:#777b80"/><rect x="24.5" y="50.19" width="933.26" height="20.09" style="fill:#e0e0e0"/><path d="M957.26,50.69V69.77H25V50.69H957.26m1-1H24V70.77H958.26V49.69Z" style="fill:#a9acaf"/><text transform="translate(13.17 17.18)" style="font-size:12px;fill:#fff;font-family:SegoeUI, Segoe UI">Ha<tspan x="14.63" y="0" style="letter-spacing:-0.01318359375em">r</tspan><tspan x="18.64" y="0">dwa</tspan><tspan x="40.48" y="0" style="letter-spacing:-0.01318359375em">r</tspan><tspan x="44.5" y="0">e Configuration - myAppInstaller</tspan></text><text transform="translate(13.17 17.18)" style="font-size:12px;fill:#fff;font-family:SegoeUI, Segoe UI">Ha<tspan x="14.63" y="0" style="letter-spacing:-0.01318359375em">r</tspan><tspan x="18.64" y="0">dwa</tspan><tspan x="40.48" y="0" style="letter-spacing:-0.01318359375em">r</tspan><tspan x="44.5" y="0">e Configuration - myAppInstaller</tspan></text><text transform="translate(13.17 17.18)" style="font-size:12px;fill:#fff;font-family:SegoeUI, Segoe UI">Ha<tspan x="14.63" y="0" style="letter-spacing:-0.01318359375em">r</tspan><tspan x="18.64" y="0">dwa</tspan><tspan x="40.48" y="0" style="letter-spacing:-0.01318359375em">r</tspan><tspan x="44.5" y="0">e Configuration - myAppInstaller</tspan></text><text transform="translate(674.91 87.93)" style="font-size:12px;fill:#fff;font-family:SegoeUI, Segoe UI">cDAQ1 (cDAQ-9174)</text><text transform="translate(396.62 89.03)" style="font-size:12px;fill:#fff;font-family:SegoeUI, Segoe UI">Com<tspan x="24.8" y="0" style="letter-spacing:-0.01318359375em">p</tspan><tspan x="31.69" y="0">act</tspan><tspan x="47.41" y="0" style="letter-spacing:-0.01611328125em">D</tspan><tspan x="55.63" y="0">AQ Chassis</tspan></text><text transform="translate(260.73 89.03)" style="font-size:12px;fill:#fff;font-family:SegoeUI, Segoe UI">cDAQ1</text><text transform="translate(674.91 140.22)" style="font-size:12px;fill:#424242;font-family:SegoeUI, Segoe UI">c<tspan x="5.54" y="0" style="letter-spacing:-0.01611328125em">D</tspan><tspan x="13.76" y="0">AQ1 : Slot 3 : NI-9219</tspan></text><text transform="translate(674.91 191.72)" style="font-size:12px;fill:#424242;font-family:SegoeUI, Segoe UI">c<tspan x="5.54" y="0" style="letter-spacing:-0.01611328125em">D</tspan><tspan x="13.76" y="0">AQ1 : Slot 4 : NI-9236</tspan></text><text transform="translate(674.91 113.92)" style="font-size:12px;fill:#424242;font-family:SegoeUI, Segoe UI">c<tspan x="5.54" y="0" style="letter-spacing:-0.01611328125em">D</tspan><tspan x="13.76" y="0">AQ1 : Slot 1 : NI-9260</tspan></text><text transform="translate(674.91 165.69)" style="font-size:12px;fill:#424242;font-family:SegoeUI, Segoe UI">c<tspan x="5.54" y="0" style="letter-spacing:-0.01611328125em">D</tspan><tspan x="13.76" y="0">AQ1 : Slot 2 : NI-9219</tspan></text><text transform="translate(674.91 218.19)" style="font-size:12px;fill:#fff;font-family:SegoeUI, Segoe UI">cDAQ2 (cDAQ-9174)</text><text transform="translate(674.91 269.84)" style="font-size:12px;fill:#424242;font-family:SegoeUI, Segoe UI">c<tspan x="5.54" y="0" style="letter-spacing:-0.01611328125em">D</tspan><tspan x="13.76" y="0">AQ2 : Slot 2 : NI-9219</tspan></text><text transform="translate(674.91 296.08)" style="font-size:12px;fill:#424242;font-family:SegoeUI, Segoe UI">c<tspan x="5.54" y="0" style="letter-spacing:-0.01611328125em">D</tspan><tspan x="13.76" y="0">AQ2 : Slot 3 : NI-9219</tspan></text><text transform="translate(674.91 322.32)" style="font-size:12px;fill:#424242;font-family:SegoeUI, Segoe UI">c<tspan x="5.54" y="0" style="letter-spacing:-0.01611328125em">D</tspan><tspan x="13.76" y="0">AQ2 : Slot 4 : NI-9236</tspan></text><text transform="translate(674.91 243.6)" style="font-size:12px;fill:#424242;font-family:SegoeUI, Segoe UI">c<tspan x="5.54" y="0" style="letter-spacing:-0.01611328125em">D</tspan><tspan x="13.76" y="0">AQ2 : Slot 1 : NI-9260</tspan></text><text transform="translate(62.22 89.03)" style="font-size:12px;fill:#fff;font-family:SegoeUI, Segoe UI">c<tspan x="5.54" y="0" style="letter-spacing:-0.01611328125em">D</tspan><tspan x="13.76" y="0">AQ-9174</tspan></text><text transform="translate(396.62 140.22)" style="font-size:12px;fill:#4d5359;font-family:SegoeUI, Segoe UI">C Series Universal Analog Input Module</text><text transform="translate(260.73 140.22)" style="font-size:12px;fill:#4d5359;font-family:SegoeUI, Segoe UI">AIM</text><text transform="translate(62.22 140.23)" style="font-size:12px;fill:#4d5359;font-family:SegoeUI, Segoe UI">Slot 2 : <tspan x="39.31" y="0" style="fill:#424242">NI-9219</tspan></text><text transform="translate(396.62 113.92)" style="font-size:12px;fill:#4d5359;font-family:SegoeUI, Segoe UI">C Series Voltage Output Module</text><text transform="translate(260.73 113.92)" style="font-size:12px;fill:#4d5359;font-family:SegoeUI, Segoe UI">VoltageOut1</text><text transform="translate(62.22 113.92)" style="font-size:12px;fill:#4d5359;font-family:SegoeUI, Segoe UI">Slot 1 : <tspan x="39.31" y="0" style="fill:#424242">NI-9260</tspan></text><text transform="translate(396.62 166.53)" style="font-size:12px;fill:#4d5359;font-family:SegoeUI, Segoe UI">C Series Universal Analog Input Module</text><text transform="translate(260.73 166.53)" style="font-size:12px;fill:#4d5359;font-family:SegoeUI, Segoe UI">AIM2</text><text transform="translate(62.22 166.53)" style="font-size:12px;fill:#4d5359;font-family:SegoeUI, Segoe UI">Slot 3 : <tspan x="39.31" y="0" style="fill:#424242">NI-9219</tspan></text><text transform="translate(396.62 192.83)" style="font-size:12px;fill:#424242;font-family:SegoeUI, Segoe UI">C Series <tspan x="45.1" y="0" style="letter-spacing:-0.0322265625em">S</tspan><tspan x="51.09" y="0">train/Bridge Input Module</tspan></text><text transform="translate(260.73 192.83)" style="font-size:12px;fill:#4d5359;font-family:SegoeUI, Segoe UI">Bridge</text><text transform="translate(62.22 192.84)" style="font-size:12px;fill:#424242;font-family:SegoeUI, Segoe UI">Slot 4 : NI-9236</text><text transform="translate(396.62 269.84)" style="font-size:12px;fill:#4d5359;font-family:SegoeUI, Segoe UI">C Series Universal Analog Input Module</text><text transform="translate(260.73 269.84)" style="font-size:12px;fill:#4d5359;font-family:SegoeUI, Segoe UI">AIM3</text><text transform="translate(62.22 269.84)" style="font-size:12px;fill:#4d5359;font-family:SegoeUI, Segoe UI">Slot 2 : <tspan x="39.31" y="0" style="fill:#424242">NI-9219</tspan></text><text transform="translate(396.62 243.6)" style="font-size:12px;fill:#4d5359;font-family:SegoeUI, Segoe UI">C Series Voltage Output Module</text><text transform="translate(260.73 243.6)" style="font-size:12px;fill:#4d5359;font-family:SegoeUI, Segoe UI">VoltageOut2</text><text transform="translate(62.22 243.6)" style="font-size:12px;fill:#4d5359;font-family:SegoeUI, Segoe UI">Slot 1 : <tspan x="39.31" y="0" style="fill:#424242">NI-9260</tspan></text><text transform="translate(396.62 296.08)" style="font-size:12px;fill:#4d5359;font-family:SegoeUI, Segoe UI">C Series Universal Analog Input Module</text><text transform="translate(260.73 296.08)" style="font-size:12px;fill:#4d5359;font-family:SegoeUI, Segoe UI">AIM4</text><text transform="translate(62.22 296.08)" style="font-size:12px;fill:#4d5359;font-family:SegoeUI, Segoe UI">Slot 3 : <tspan x="39.31" y="0" style="fill:#424242">NI-9219</tspan></text><text transform="translate(396.62 322.32)" style="font-size:12px;fill:#424242;font-family:SegoeUI, Segoe UI">C Series <tspan x="45.1" y="0" style="letter-spacing:-0.0322265625em">S</tspan><tspan x="51.09" y="0">train/Bridge Input Module</tspan></text><text transform="translate(260.73 322.32)" style="font-size:12px;fill:#4d5359;font-family:SegoeUI, Segoe UI">Strain1</text><text transform="translate(62.22 322.32)" style="font-size:12px;fill:#424242;font-family:SegoeUI, Segoe UI">Slot 4 : NI-9236</text><text transform="translate(62.22 401.46)" style="font-size:12px;fill:#424242;font-family:SegoeUI, Segoe UI">Slot 2 : NI <tspan x="54.77" y="0" style="letter-spacing:-0.02978515625em">P</tspan><tspan x="61.13" y="0">XIe-2515</tspan></text><text transform="translate(62.22 375.22)" style="font-size:12px;fill:#424242;font-family:SegoeUI, Segoe UI">Slot 1 : NI <tspan x="54.77" y="0" style="letter-spacing:-0.02978515625em">P</tspan><tspan x="61.13" y="0">XIe-8880</tspan></text><text transform="translate(62.22 428.7)" style="font-size:12px;fill:#424242;font-family:SegoeUI, Segoe UI">Slot 3 : NI <tspan x="54.77" y="0" style="letter-spacing:-0.02978515625em">P</tspan><tspan x="61.13" y="0">XIe-4112</tspan></text><text transform="translate(62.22 454.94)" style="font-size:12px;fill:#424242;font-family:SegoeUI, Segoe UI">Slot 4 : NI <tspan x="54.77" y="0" style="letter-spacing:-0.02978515625em">P</tspan><tspan x="61.13" y="0">XIe-4113</tspan></text><text transform="translate(62.22 482.92)" style="font-size:12px;fill:#424242;font-family:SegoeUI, Segoe UI">Slot 5 : NI <tspan x="54.77" y="0" style="letter-spacing:-0.02978515625em">P</tspan><tspan x="61.13" y="0">XIe-4113</tspan></text><text transform="translate(62.22 510.15)" style="font-size:12px;fill:#424242;font-family:SegoeUI, Segoe UI">Slot 6 : NI <tspan x="54.77" y="0" style="letter-spacing:-0.02978515625em">P</tspan><tspan x="61.13" y="0">XIe-2515</tspan></text><text transform="translate(62.22 218.19)" style="font-size:12px;fill:#fff;font-family:SegoeUI, Segoe UI">c<tspan x="5.54" y="0" style="letter-spacing:-0.01611328125em">D</tspan><tspan x="13.76" y="0">AQ-9174</tspan></text><text transform="translate(396.62 218.19)" style="font-size:12px;fill:#fff;font-family:SegoeUI, Segoe UI">Com<tspan x="24.8" y="0" style="letter-spacing:-0.01318359375em">p</tspan><tspan x="31.69" y="0">act</tspan><tspan x="47.41" y="0" style="letter-spacing:-0.01611328125em">D</tspan><tspan x="55.63" y="0">AQ Chassis</tspan></text><rect x="24.97" y="330.79" width="919.24" height="26" style="fill:#647a8c"/><text transform="translate(62.22 348.94)" style="font-size:12px;fill:#fff;font-family:SegoeUI, Segoe UI">NI <tspan x="15.46" y="0" style="letter-spacing:-0.02978515625em">P</tspan><tspan x="21.82" y="0">XIe-1062Q</tspan></text><path d="M918.41,210.94h9l-4.5,5.69Z" style="fill:#fff;opacity:0.8"/><path d="M918.41,82.18h9l-4.5,5.7Z" style="fill:#fff;opacity:0.8"/><path d="M918.41,106.94h9l-4.5,5.69Z" style="fill:#4d5359;opacity:0.8"/><path d="M918.41,132.94h9l-4.5,5.69Z" style="fill:#4d5359;opacity:0.8"/><path d="M918.41,158.94h9l-4.5,5.69Z" style="fill:#4d5359;opacity:0.8"/><path d="M918.41,184.94h9l-4.5,5.69Z" style="fill:#4d5359;opacity:0.8"/><path d="M918.41,236.94h9l-4.5,5.69Z" style="fill:#4d5359;opacity:0.8"/><path d="M918.41,366.94h9l-4.5,5.69Z" style="fill:#4d5359;opacity:0.8"/><path d="M918.41,393.94h9l-4.5,5.69Z" style="fill:#4d5359;opacity:0.8"/><path d="M918.41,420.94h9l-4.5,5.69Z" style="fill:#4d5359;opacity:0.8"/><path d="M918.41,447.93h9l-4.5,5.7Z" style="fill:#4d5359;opacity:0.8"/><path d="M918.41,474.93h9l-4.5,5.69Z" style="fill:#4d5359;opacity:0.8"/><path d="M918.41,501.93h9l-4.5,5.69Z" style="fill:#4d5359;opacity:0.8"/><path d="M918.41,262.94h9l-4.5,5.69Z" style="fill:#4d5359;opacity:0.8"/><path d="M918.41,288.94h9l-4.5,5.69Z" style="fill:#4d5359;opacity:0.8"/><path d="M918.41,314.94h9l-4.5,5.69Z" style="fill:#4d5359;opacity:0.8"/><rect x="25" y="382.78" width="919.23" height="1" style="fill:#c7ccd0"/><rect x="25" y="356.29" width="919.23" height="1" style="fill:#c7ccd0"/><rect x="25" y="330.29" width="919.23" height="1" style="fill:#c7ccd0"/><rect x="25" y="304.29" width="919.23" height="1" style="fill:#c7ccd0"/><rect x="25" y="278.29" width="919.23" height="1" style="fill:#c7ccd0"/><rect x="25" y="252.29" width="919.23" height="1" style="fill:#c7ccd0"/><rect x="25" y="225.57" width="919.23" height="1" style="fill:#c7ccd0"/><rect x="25" y="200.29" width="919.23" height="1" style="fill:#c7ccd0"/><rect x="25" y="174.29" width="919.23" height="1" style="fill:#c7ccd0"/><rect x="25" y="148.29" width="919.23" height="1" style="fill:#c7ccd0"/><rect x="25" y="122.29" width="919.23" height="1" style="fill:#c7ccd0"/><rect x="25" y="96.29" width="919.23" height="1" style="fill:#a9acaf"/><rect x="25" y="409.78" width="919.23" height="1" style="fill:#c7ccd0"/><rect x="25" y="436.87" width="919.23" height="1" style="fill:#c7ccd0"/><rect x="25" y="463.87" width="919.23" height="1" style="fill:#c7ccd0"/><rect x="25" y="491.03" width="919.23" height="1" style="fill:#c7ccd0"/><rect x="25" y="518.03" width="919.23" height="1" style="fill:#c7ccd0"/><text transform="translate(674.91 65.31)" style="font-size:10px;fill:#4d5359;font-family:SegoeUI-Bold, Segoe UI;font-weight:700">DISCOVERED HARDWARE</text><text transform="translate(396.62 65.31)" style="font-size:10px;fill:#4d5359;font-family:SegoeUI-Bold, Segoe UI;font-weight:700">LABEL</text><text transform="translate(260.73 65.31)" style="font-size:10px;fill:#4d5359;font-family:SegoeUI-Bold, Segoe UI;font-weight:700">DEVICE NAME</text><text transform="translate(30.04 65.31)" style="font-size:10px;fill:#4d5359;font-family:SegoeUI-Bold, Segoe UI;font-weight:700">ITEM</text><text transform="translate(260.73 218.19)" style="font-size:12px;fill:#fff;font-family:SegoeUI, Segoe UI">cDAQ2</text><text transform="translate(260.73 348.19)" style="font-size:12px;fill:#fff;font-family:SegoeUI, Segoe UI">PXIChassis1</text><text transform="translate(260.73 428.7)" style="font-size:12px;fill:#4d5359;font-family:SegoeUI, Segoe UI">Power 1</text><text transform="translate(260.73 401.46)" style="font-size:12px;fill:#4d5359;font-family:SegoeUI, Segoe UI">Switch</text><text transform="translate(260.73 454.94)" style="font-size:12px;fill:#4d5359;font-family:SegoeUI, Segoe UI">Power 2</text><text transform="translate(260.73 482.92)" style="font-size:12px;fill:#4d5359;font-family:SegoeUI, Segoe UI">Power 3</text><text transform="translate(260.73 375.22)" style="font-size:12px;fill:#4d5359;font-family:SegoeUI, Segoe UI">PXIController</text><text transform="translate(260.73 510.15)" style="font-size:12px;fill:#4d5359;font-family:SegoeUI, Segoe UI">Switch</text><text transform="translate(396.84 428.7)" style="font-size:12px;fill:#4d5359;font-family:SegoeUI, Segoe UI">PXI Programmable Power Supply</text><text transform="translate(396.84 401.46)" style="font-size:12px;fill:#424242;font-family:SegoeUI, Segoe UI"><tspan style="letter-spacing:-0.02978515625em">P</tspan><tspan x="6.36" y="0">XI Signal Inse</tspan><tspan x="76.71" y="0" style="letter-spacing:0.02880859375em">r</tspan><tspan x="81.23" y="0">tion </tspan><tspan x="105.31" y="0" style="letter-spacing:-0.01318359375em">S</tspan><tspan x="111.53" y="0">wi</tspan><tspan x="123.11" y="0" style="letter-spacing:-0.01318359375em">t</tspan><tspan x="127.01" y="0">ch Module</tspan></text><text transform="translate(396.84 454.94)" style="font-size:12px;fill:#4d5359;font-family:SegoeUI, Segoe UI">PXI Programmable Power Supply</text><text transform="translate(396.84 482.92)" style="font-size:12px;fill:#4d5359;font-family:SegoeUI, Segoe UI">PXI Programmable Power Supply</text><text transform="translate(396.84 375.22)" style="font-size:12px;fill:#4d5359;font-family:SegoeUI, Segoe UI">PXI Controller</text><text transform="translate(396.84 510.15)" style="font-size:12px;fill:#424242;font-family:SegoeUI, Segoe UI"><tspan style="letter-spacing:-0.02978515625em">P</tspan><tspan x="6.36" y="0">XI Signal Inse</tspan><tspan x="76.71" y="0" style="letter-spacing:0.02880859375em">r</tspan><tspan x="81.23" y="0">tion </tspan><tspan x="105.31" y="0" style="letter-spacing:-0.01318359375em">S</tspan><tspan x="111.53" y="0">wi</tspan><tspan x="123.11" y="0" style="letter-spacing:-0.01318359375em">t</tspan><tspan x="127.01" y="0">ch Module</tspan></text><text transform="translate(675.14 428.7)" style="font-size:12px;fill:#424242;font-family:SegoeUI, Segoe UI"><tspan style="letter-spacing:-0.02978515625em">P</tspan><tspan x="6.36" y="0">XI1 : Slot 3 : NI </tspan><tspan x="87.05" y="0" style="letter-spacing:-0.02978515625em">P</tspan><tspan x="93.41" y="0">XIe-4112</tspan></text><text transform="translate(675.14 401.46)" style="font-size:12px;fill:#424242;font-family:SegoeUI, Segoe UI"><tspan style="letter-spacing:-0.02978515625em">P</tspan><tspan x="6.36" y="0">XI1 : Slot 2 : NI </tspan><tspan x="87.05" y="0" style="letter-spacing:-0.02978515625em">P</tspan><tspan x="93.41" y="0">XIe-2515</tspan></text><text transform="translate(675.14 454.94)" style="font-size:12px;fill:#424242;font-family:SegoeUI, Segoe UI"><tspan style="letter-spacing:-0.02978515625em">P</tspan><tspan x="6.36" y="0">XI1 : Slot 4 : NI </tspan><tspan x="87.05" y="0" style="letter-spacing:-0.02978515625em">P</tspan><tspan x="93.41" y="0">XIe-4113</tspan></text><text transform="translate(675.14 482.92)" style="font-size:12px;fill:#424242;font-family:SegoeUI, Segoe UI"><tspan style="letter-spacing:-0.02978515625em">P</tspan><tspan x="6.36" y="0">XI1 : Slot 5 : NI </tspan><tspan x="87.05" y="0" style="letter-spacing:-0.02978515625em">P</tspan><tspan x="93.41" y="0">XIe-2515</tspan></text><text transform="translate(675.14 375.22)" style="font-size:12px;fill:#424242;font-family:SegoeUI, Segoe UI"><tspan style="letter-spacing:-0.02978515625em">P</tspan><tspan x="6.36" y="0">XI1 : Slot 1 : NI </tspan><tspan x="87.05" y="0" style="letter-spacing:-0.02978515625em">P</tspan><tspan x="93.41" y="0">XIe-8880</tspan></text><text transform="translate(675.14 510.15)" style="font-size:12px;fill:#424242;font-family:SegoeUI, Segoe UI"><tspan style="letter-spacing:-0.02978515625em">P</tspan><tspan x="6.36" y="0">XI1 : Slot 6 : NI </tspan><tspan x="87.05" y="0" style="letter-spacing:-0.02978515625em">P</tspan><tspan x="93.41" y="0">XIe-2725</tspan></text><path d="M918.41,340.94h9l-4.5,5.69Z" style="fill:#fff;opacity:0.8"/><text transform="translate(674.91 348.19)" style="font-size:12px;fill:#fff;font-family:SegoeUI, Segoe UI">PXIChassis1 (PXIe-1062Q)</text><text transform="translate(396.62 348.19)" style="font-size:12px;fill:#fff;font-family:SegoeUI, Segoe UI">PXI Chassis</text><rect x="250.23" y="52.23" width="1" height="16" style="fill:#82878c"/><rect x="250.23" y="75.79" width="1" height="16" style="fill:#c7ccd0"/><rect x="386.34" y="75.79" width="1" height="16" style="fill:#c7ccd0"/><rect x="386.34" y="101.79" width="1" height="16" style="fill:#c7ccd0"/><rect x="386.34" y="127.79" width="1" height="16" style="fill:#c7ccd0"/><rect x="386.34" y="153.79" width="1" height="16" style="fill:#c7ccd0"/><rect x="386.34" y="179.79" width="1" height="16" style="fill:#c7ccd0"/><rect x="386.34" y="205.79" width="1" height="16" style="fill:#c7ccd0"/><rect x="386.34" y="231.79" width="1" height="16" style="fill:#c7ccd0"/><rect x="386.34" y="257.79" width="1" height="16" style="fill:#c7ccd0"/><rect x="386.34" y="283.79" width="1" height="16" style="fill:#c7ccd0"/><rect x="386.34" y="309.79" width="1" height="16" style="fill:#c7ccd0"/><rect x="664.64" y="75.79" width="1" height="16" style="fill:#c7ccd0"/><rect x="664.64" y="101.79" width="1" height="16" style="fill:#c7ccd0"/><rect x="664.64" y="127.79" width="1" height="16" style="fill:#c7ccd0"/><rect x="664.64" y="153.79" width="1" height="16" style="fill:#c7ccd0"/><rect x="664.64" y="179.79" width="1" height="16" style="fill:#c7ccd0"/><rect x="664.64" y="205.79" width="1" height="16" style="fill:#c7ccd0"/><rect x="664.64" y="231.79" width="1" height="16" style="fill:#c7ccd0"/><rect x="664.64" y="257.79" width="1" height="16" style="fill:#c7ccd0"/><rect x="664.64" y="283.79" width="1" height="16" style="fill:#c7ccd0"/><rect x="664.64" y="309.79" width="1" height="16" style="fill:#c7ccd0"/><rect x="250.23" y="101.79" width="1" height="16" style="fill:#c7ccd0"/><rect x="250.23" y="127.79" width="1" height="16" style="fill:#c7ccd0"/><rect x="250.23" y="153.79" width="1" height="16" style="fill:#c7ccd0"/><rect x="250.23" y="179.79" width="1" height="16" style="fill:#c7ccd0"/><rect x="250.23" y="205.79" width="1" height="16" style="fill:#c7ccd0"/><rect x="250.23" y="231.79" width="1" height="16" style="fill:#c7ccd0"/><rect x="250.23" y="257.79" width="1" height="16" style="fill:#c7ccd0"/><rect x="250.23" y="283.79" width="1" height="16" style="fill:#c7ccd0"/><rect x="250.23" y="309.79" width="1" height="16" style="fill:#c7ccd0"/><rect x="386.34" y="52.23" width="1" height="16" style="fill:#82878c"/><rect x="664.64" y="52.23" width="1" height="16" style="fill:#82878c"/><rect x="250.23" y="335.79" width="1" height="16" style="fill:#c7ccd0"/><rect x="250.23" y="361.91" width="1" height="16" style="fill:#c7ccd0"/><rect x="250.23" y="388.8" width="1" height="16" style="fill:#c7ccd0"/><rect x="250.23" y="415.83" width="1" height="16" style="fill:#c7ccd0"/><rect x="250.23" y="442.87" width="1" height="16" style="fill:#c7ccd0"/><rect x="250.23" y="469.95" width="1" height="16" style="fill:#c7ccd0"/><rect x="250.23" y="497.11" width="1" height="16" style="fill:#c7ccd0"/><rect x="386.34" y="361.91" width="1" height="16" style="fill:#c7ccd0"/><rect x="386.34" y="388.8" width="1" height="16" style="fill:#c7ccd0"/><rect x="386.34" y="415.83" width="1" height="16" style="fill:#c7ccd0"/><rect x="386.34" y="442.87" width="1" height="16" style="fill:#c7ccd0"/><rect x="386.34" y="469.95" width="1" height="16" style="fill:#c7ccd0"/><rect x="386.34" y="497.11" width="1" height="16" style="fill:#c7ccd0"/><rect x="664.64" y="361.91" width="1" height="16" style="fill:#c7ccd0"/><rect x="664.64" y="388.8" width="1" height="16" style="fill:#c7ccd0"/><rect x="664.64" y="415.83" width="1" height="16" style="fill:#c7ccd0"/><rect x="664.64" y="442.87" width="1" height="16" style="fill:#c7ccd0"/><rect x="664.64" y="469.95" width="1" height="16" style="fill:#c7ccd0"/><rect x="664.64" y="497.11" width="1" height="16" style="fill:#c7ccd0"/><rect x="386.34" y="335.79" width="1" height="16" style="fill:#c7ccd0"/><rect x="664.64" y="335.79" width="1" height="16" style="fill:#c7ccd0"/><path d="M34.2,78.79v10h16v-10Zm3,9h-1v-1h1Zm0-2h-1v-1h1Zm12,2h-1v-7h-1v7h-1v-7h-1v7h-1v-7h-1v7h-1v-7h-1v7h-1v-4h-5v-4h14Zm-9-5h-4v-2h4Z" style="fill:#fff"/><path d="M34.2,209v10h16V209Zm3,9h-1v-1h1Zm0-2h-1v-1h1Zm12,2h-1v-7h-1v7h-1v-7h-1v7h-1v-7h-1v7h-1v-7h-1v7h-1v-4h-5v-4h14Zm-9-5h-4v-2h4Z" style="fill:#fff"/><path d="M47.88,337.87h-15v12h1v1h2v-1h10v1h2v-1h1v-12Zm0,10h-10v-1h-3v1h-1v-9h14Zm-9-2h-4v-6h4Zm2,0h-1v-6h1Zm2,0h-1v-6h1Zm2,0h-1v-6h1Zm2,0h-1v-6h1Z" style="fill:#fff"/></svg>