<svg id="Layer_1" data-name="Layer 1" xmlns="http://www.w3.org/2000/svg" xmlns:xlink="http://www.w3.org/1999/xlink" width="858" height="81" viewBox="0 0 858 81"><defs><linearGradient id="linear-gradient" x1="429" y1="-26.75" x2="429" y2="30.05" gradientUnits="userSpaceOnUse"><stop offset="0" stop-color="#e9ebec"/><stop offset="0.65" stop-color="#e0e4e6"/><stop offset="1" stop-color="#d9dee1"/></linearGradient><linearGradient id="linear-gradient-2" x1="-413.57" y1="285.56" x2="-413.57" y2="256.52" gradientTransform="translate(-394.07 287) rotate(180)" xlink:href="#linear-gradient"/><linearGradient id="linear-gradient-3" x1="39" y1="0.5" x2="858" y2="0.5" xlink:href="#linear-gradient"/></defs><title>nofications-document-warning</title><rect x="41" y="59" width="817" height="22" fill="#4d5359"/><rect y="59" width="40" height="22" fill="#ff8900"/><rect x="40" y="59" width="1" height="22" fill="#fff"/><rect x="17.97" y="75" width="4" height="3" fill="#fff"/><polygon points="20.97 74 21.97 63 17.97 63 18.97 74 20.97 74" fill="#fff"/><path d="M51.42,67H49.19v6.89h-.9V67H46.07v-.82h5.34Z" fill="#fff"/><path d="M57.07,73.84h-.88V70.67q0-1.72-1.28-1.72a1.39,1.39,0,0,0-1.08.5,1.85,1.85,0,0,0-.44,1.28v3.12h-.88V65.7h.88v3.56h0a2,2,0,0,1,1.8-1q1.86,0,1.86,2.24Z" fill="#fff"/><path d="M63.15,71.31H59.27a2.05,2.05,0,0,0,.49,1.42,1.7,1.7,0,0,0,1.3.5,2.7,2.7,0,0,0,1.71-.61v.83a3.19,3.19,0,0,1-1.92.53A2.33,2.33,0,0,1,59,73.22a3.07,3.07,0,0,1-.67-2.11A3,3,0,0,1,59.08,69a2.33,2.33,0,0,1,1.81-.81,2.07,2.07,0,0,1,1.67.7,2.91,2.91,0,0,1,.59,1.94Zm-.9-.75a1.79,1.79,0,0,0-.37-1.19,1.26,1.26,0,0,0-1-.42,1.42,1.42,0,0,0-1.06.45,2,2,0,0,0-.54,1.17Z" fill="#fff"/><path d="M70.21,66.47a1.17,1.17,0,0,0-.59-.14q-.92,0-.92,1.17v.85H70v.75H68.71v4.75h-.87V69.09h-.94v-.75h.94v-.89a1.85,1.85,0,0,1,.5-1.37,1.69,1.69,0,0,1,1.25-.5,1.73,1.73,0,0,1,.64.1Z" fill="#fff"/><path d="M71.39,66.94a.56.56,0,0,1-.4-.16.54.54,0,0,1-.17-.41.56.56,0,0,1,.57-.57.57.57,0,0,1,.41.16.58.58,0,0,1,0,.81A.57.57,0,0,1,71.39,66.94Zm.43,6.9h-.88v-5.5h.88Z" fill="#fff"/><path d="M76.47,69.23a1.08,1.08,0,0,0-.67-.18,1.12,1.12,0,0,0-.94.53A2.45,2.45,0,0,0,74.48,71v2.8H73.6v-5.5h.88v1.13h0a1.93,1.93,0,0,1,.58-.91,1.31,1.31,0,0,1,.86-.33,1.44,1.44,0,0,1,.53.08Z" fill="#fff"/><path d="M77.17,73.64V72.7a2.61,2.61,0,0,0,1.58.53q1.16,0,1.16-.77a.67.67,0,0,0-.1-.37,1,1,0,0,0-.27-.27,2.1,2.1,0,0,0-.4-.21l-.49-.2a6.26,6.26,0,0,1-.64-.29,1.93,1.93,0,0,1-.46-.33,1.25,1.25,0,0,1-.28-.42,1.5,1.5,0,0,1-.09-.55,1.31,1.31,0,0,1,.18-.68,1.57,1.57,0,0,1,.47-.5,2.19,2.19,0,0,1,.67-.3,3,3,0,0,1,.78-.1,3.17,3.17,0,0,1,1.28.25v.89a2.49,2.49,0,0,0-1.4-.4,1.61,1.61,0,0,0-.45.06,1.1,1.1,0,0,0-.34.16.73.73,0,0,0-.22.24.65.65,0,0,0-.08.31.76.76,0,0,0,.08.36.79.79,0,0,0,.23.26,1.75,1.75,0,0,0,.37.2l.49.2a7.11,7.11,0,0,1,.66.29,2.26,2.26,0,0,1,.49.33,1.3,1.3,0,0,1,.31.43,1.38,1.38,0,0,1,.11.57,1.35,1.35,0,0,1-.18.71,1.52,1.52,0,0,1-.48.5,2.22,2.22,0,0,1-.69.29,3.42,3.42,0,0,1-.82.1A3.13,3.13,0,0,1,77.17,73.64Z" fill="#fff"/><path d="M84.72,73.79a1.69,1.69,0,0,1-.82.17q-1.45,0-1.45-1.61V69.09h-.95v-.75h.95V67l.88-.28v1.63h1.39v.75H83.34v3.1a1.28,1.28,0,0,0,.19.79.75.75,0,0,0,.62.24.92.92,0,0,0,.57-.18Z" fill="#fff"/><path d="M93.14,71.66a2.24,2.24,0,0,1-.2.95,2.1,2.1,0,0,1-.55.73,2.54,2.54,0,0,1-.86.47,3.46,3.46,0,0,1-1.1.17,3.2,3.2,0,0,1-1.75-.42v-.95a2.8,2.8,0,0,0,1.78.61,2.41,2.41,0,0,0,.73-.1,1.62,1.62,0,0,0,.56-.29,1.32,1.32,0,0,0,.36-.47,1.45,1.45,0,0,0,.13-.62q0-1.51-2.15-1.51h-.64v-.75h.61q1.9,0,1.9-1.42t-1.45-1.31A2.47,2.47,0,0,0,89,67.3v-.85A3.35,3.35,0,0,1,90.73,66a2.69,2.69,0,0,1,.88.13,2,2,0,0,1,.67.38,1.67,1.67,0,0,1,.43.58,1.8,1.8,0,0,1,.15.75,1.88,1.88,0,0,1-1.54,2v0A2.47,2.47,0,0,1,92,70a1.92,1.92,0,0,1,.58.38A1.7,1.7,0,0,1,93,71,1.76,1.76,0,0,1,93.14,71.66Z" fill="#fff"/><path d="M98.1,68.16a1.57,1.57,0,0,0-.11-.62,1.19,1.19,0,0,0-.75-.7,1.74,1.74,0,0,0-.56-.09,1.87,1.87,0,0,0-.5.07,2.5,2.5,0,0,0-.48.19,2.91,2.91,0,0,0-.45.3,3.17,3.17,0,0,0-.41.38v-.95a2.66,2.66,0,0,1,.83-.55A2.93,2.93,0,0,1,96.79,66a2.72,2.72,0,0,1,.88.14,2,2,0,0,1,.7.4,1.85,1.85,0,0,1,.46.65,2.18,2.18,0,0,1,.17.89,3,3,0,0,1-.11.83,2.53,2.53,0,0,1-.32.7,3.39,3.39,0,0,1-.53.63,7.67,7.67,0,0,1-.76.61l-.89.66a4,4,0,0,0-.56.51,1.51,1.51,0,0,0-.29.48,1.69,1.69,0,0,0-.08.55h3.83v.79H94.54v-.38a3.15,3.15,0,0,1,.11-.87,2.24,2.24,0,0,1,.35-.71,3.94,3.94,0,0,1,.65-.68q.4-.34,1-.76a6.21,6.21,0,0,0,.7-.57,3,3,0,0,0,.45-.55,2,2,0,0,0,.24-.56A2.41,2.41,0,0,0,98.1,68.16Z" fill="#fff"/><path d="M104.69,73h0v3.33h-.88v-8h.88v1h0a2.08,2.08,0,0,1,1.9-1.1,2,2,0,0,1,1.66.74,3.06,3.06,0,0,1,.6,2,3.4,3.4,0,0,1-.67,2.21,2.23,2.23,0,0,1-1.84.83A1.84,1.84,0,0,1,104.69,73Zm0-2.22v.77a1.63,1.63,0,0,0,.44,1.16,1.58,1.58,0,0,0,2.38-.14,2.81,2.81,0,0,0,.45-1.7,2.21,2.21,0,0,0-.42-1.44,1.4,1.4,0,0,0-1.15-.52,1.56,1.56,0,0,0-1.24.53A2,2,0,0,0,104.67,70.83Z" fill="#fff"/><path d="M111.13,73.84h-.88V65.7h.88Z" fill="#fff"/><path d="M115.21,74a2.55,2.55,0,0,1-1.95-.77,2.85,2.85,0,0,1-.73-2A3,3,0,0,1,113.3,69a2.72,2.72,0,0,1,2-.78,2.47,2.47,0,0,1,1.92.76,3,3,0,0,1,.69,2.1,3,3,0,0,1-.74,2.11A2.61,2.61,0,0,1,115.21,74Zm.06-5a1.67,1.67,0,0,0-1.34.58,2.37,2.37,0,0,0-.49,1.59,2.24,2.24,0,0,0,.5,1.54,1.7,1.7,0,0,0,1.34.56,1.61,1.61,0,0,0,1.31-.55,2.4,2.4,0,0,0,.46-1.57,2.45,2.45,0,0,0-.46-1.59A1.61,1.61,0,0,0,115.28,69Z" fill="#fff"/><path d="M121.91,73.79a1.69,1.69,0,0,1-.82.17q-1.45,0-1.45-1.61V69.09h-.95v-.75h.95V67l.88-.28v1.63h1.39v.75h-1.39v3.1a1.28,1.28,0,0,0,.19.79.75.75,0,0,0,.62.24.92.92,0,0,0,.57-.18Z" fill="#fff"/><path d="M122.75,73.64V72.7a2.6,2.6,0,0,0,1.58.53q1.16,0,1.16-.77a.68.68,0,0,0-.1-.37,1,1,0,0,0-.27-.27,2.13,2.13,0,0,0-.4-.21l-.49-.2a6.34,6.34,0,0,1-.64-.29,1.91,1.91,0,0,1-.46-.33,1.24,1.24,0,0,1-.28-.42,1.5,1.5,0,0,1-.09-.55,1.31,1.31,0,0,1,.18-.68,1.58,1.58,0,0,1,.47-.5,2.2,2.2,0,0,1,.67-.3,3,3,0,0,1,.78-.1,3.17,3.17,0,0,1,1.28.25v.89a2.5,2.5,0,0,0-1.4-.4,1.62,1.62,0,0,0-.45.06,1.1,1.1,0,0,0-.34.16.73.73,0,0,0-.22.24.64.64,0,0,0-.08.31.75.75,0,0,0,.08.36.8.8,0,0,0,.23.26,1.8,1.8,0,0,0,.37.2l.49.2q.36.14.66.29a2.29,2.29,0,0,1,.49.33,1.33,1.33,0,0,1,.31.43,1.38,1.38,0,0,1,.11.57,1.35,1.35,0,0,1-.18.71,1.54,1.54,0,0,1-.48.5,2.22,2.22,0,0,1-.69.29,3.42,3.42,0,0,1-.82.1A3.13,3.13,0,0,1,122.75,73.64Z" fill="#fff"/><path d="M134.71,73.84h-.88V73h0a1.84,1.84,0,0,1-1.69,1,1.81,1.81,0,0,1-1.29-.43,1.5,1.5,0,0,1-.46-1.16q0-1.54,1.82-1.79l1.65-.23q0-1.4-1.13-1.4a2.71,2.71,0,0,0-1.79.68v-.9a3.41,3.41,0,0,1,1.87-.52q1.94,0,1.94,2.05Zm-.88-2.78-1.33.18a2.15,2.15,0,0,0-.92.3.87.87,0,0,0-.31.77.84.84,0,0,0,.29.66,1.11,1.11,0,0,0,.77.25,1.41,1.41,0,0,0,1.08-.46,1.64,1.64,0,0,0,.43-1.16Z" fill="#fff"/><path d="M139.23,69.23a1.08,1.08,0,0,0-.67-.18,1.12,1.12,0,0,0-.94.53,2.45,2.45,0,0,0-.38,1.45v2.8h-.88v-5.5h.88v1.13h0a1.92,1.92,0,0,1,.57-.91,1.31,1.31,0,0,1,.87-.33,1.45,1.45,0,0,1,.53.08Z" fill="#fff"/><path d="M144.46,71.31h-3.88a2.06,2.06,0,0,0,.49,1.42,1.7,1.7,0,0,0,1.3.5,2.7,2.7,0,0,0,1.71-.61v.83a3.19,3.19,0,0,1-1.92.53,2.33,2.33,0,0,1-1.83-.75,3.07,3.07,0,0,1-.67-2.11A3,3,0,0,1,140.4,69a2.33,2.33,0,0,1,1.81-.81,2.07,2.07,0,0,1,1.67.7,2.91,2.91,0,0,1,.59,1.94Zm-.9-.75a1.8,1.8,0,0,0-.37-1.19,1.25,1.25,0,0,0-1-.42,1.42,1.42,0,0,0-1.06.45,2,2,0,0,0-.54,1.17Z" fill="#fff"/><path d="M153.5,73.84h-.88v-.93h0A2,2,0,0,1,150.71,74a2.06,2.06,0,0,1-1.66-.74,3,3,0,0,1-.62-2,3.3,3.3,0,0,1,.69-2.19,2.27,2.27,0,0,1,1.83-.82,1.76,1.76,0,0,1,1.65.89h0V65.7h.88Zm-.88-2.49v-.81a1.57,1.57,0,0,0-.44-1.13,1.48,1.48,0,0,0-1.12-.46,1.52,1.52,0,0,0-1.27.59,2.59,2.59,0,0,0-.46,1.63,2.32,2.32,0,0,0,.44,1.5,1.45,1.45,0,0,0,1.19.55,1.5,1.5,0,0,0,1.2-.53A2,2,0,0,0,152.62,71.35Z" fill="#fff"/><path d="M155.74,66.94a.56.56,0,0,1-.4-.16.54.54,0,0,1-.17-.41.56.56,0,0,1,.57-.57.57.57,0,0,1,.41.16.58.58,0,0,1,0,.81A.57.57,0,0,1,155.74,66.94Zm.43,6.9h-.88v-5.5h.88Z" fill="#fff"/><path d="M157.62,73.64V72.7a2.61,2.61,0,0,0,1.58.53q1.16,0,1.16-.77a.67.67,0,0,0-.1-.37,1,1,0,0,0-.27-.27,2.1,2.1,0,0,0-.4-.21l-.49-.2a6.26,6.26,0,0,1-.64-.29,1.93,1.93,0,0,1-.46-.33,1.25,1.25,0,0,1-.28-.42,1.5,1.5,0,0,1-.09-.55,1.31,1.31,0,0,1,.18-.68,1.57,1.57,0,0,1,.47-.5,2.19,2.19,0,0,1,.67-.3,3,3,0,0,1,.78-.1,3.17,3.17,0,0,1,1.28.25v.89a2.49,2.49,0,0,0-1.4-.4,1.61,1.61,0,0,0-.45.06,1.1,1.1,0,0,0-.34.16.73.73,0,0,0-.22.24.65.65,0,0,0-.08.31.76.76,0,0,0,.08.36.79.79,0,0,0,.23.26,1.75,1.75,0,0,0,.37.2l.49.2a7.11,7.11,0,0,1,.66.29,2.26,2.26,0,0,1,.49.33,1.3,1.3,0,0,1,.31.43,1.38,1.38,0,0,1,.11.57,1.35,1.35,0,0,1-.18.71,1.52,1.52,0,0,1-.48.5,2.22,2.22,0,0,1-.69.29,3.42,3.42,0,0,1-.82.1A3.13,3.13,0,0,1,157.62,73.64Z" fill="#fff"/><path d="M163.52,73h0v3.33h-.88v-8h.88v1h0a2.08,2.08,0,0,1,1.9-1.1,2,2,0,0,1,1.66.74,3.06,3.06,0,0,1,.6,2,3.4,3.4,0,0,1-.67,2.21,2.23,2.23,0,0,1-1.84.83A1.84,1.84,0,0,1,163.52,73Zm0-2.22v.77a1.63,1.63,0,0,0,.44,1.16,1.58,1.58,0,0,0,2.38-.14,2.81,2.81,0,0,0,.45-1.7,2.21,2.21,0,0,0-.42-1.44A1.4,1.4,0,0,0,165.2,69a1.56,1.56,0,0,0-1.24.53A2,2,0,0,0,163.5,70.83Z" fill="#fff"/><path d="M170,73.84h-.88V65.7H170Z" fill="#fff"/><path d="M175.69,73.84h-.88V73h0a1.84,1.84,0,0,1-1.69,1,1.81,1.81,0,0,1-1.29-.43,1.5,1.5,0,0,1-.46-1.16q0-1.54,1.82-1.79l1.65-.23q0-1.4-1.13-1.4a2.71,2.71,0,0,0-1.79.68v-.9a3.41,3.41,0,0,1,1.87-.52q1.94,0,1.94,2.05Zm-.88-2.78-1.33.18a2.15,2.15,0,0,0-.92.3.87.87,0,0,0-.31.77.84.84,0,0,0,.29.66,1.11,1.11,0,0,0,.77.25,1.41,1.41,0,0,0,1.08-.46,1.64,1.64,0,0,0,.43-1.16Z" fill="#fff"/><path d="M181.72,68.34l-2.53,6.38q-.68,1.71-1.9,1.71a2,2,0,0,1-.58-.07v-.79a1.64,1.64,0,0,0,.52.1,1.08,1.08,0,0,0,1-.79l.44-1-2.15-5.49h1L179,72.57c0,.05.06.19.11.42h0c0-.09.05-.22.11-.41l1.56-4.24Z" fill="#fff"/><path d="M187,71.31h-3.88a2.06,2.06,0,0,0,.49,1.42,1.7,1.7,0,0,0,1.3.5,2.7,2.7,0,0,0,1.71-.61v.83a3.19,3.19,0,0,1-1.92.53,2.33,2.33,0,0,1-1.83-.75,3.07,3.07,0,0,1-.67-2.11A3,3,0,0,1,183,69a2.33,2.33,0,0,1,1.81-.81,2.07,2.07,0,0,1,1.67.7,2.91,2.91,0,0,1,.59,1.94Zm-.9-.75a1.8,1.8,0,0,0-.37-1.19,1.25,1.25,0,0,0-1-.42,1.42,1.42,0,0,0-1.06.45,2,2,0,0,0-.54,1.17Z" fill="#fff"/><path d="M193.06,73.84h-.88v-.93h0A2,2,0,0,1,190.27,74a2.06,2.06,0,0,1-1.66-.74,3,3,0,0,1-.62-2,3.29,3.29,0,0,1,.69-2.19,2.27,2.27,0,0,1,1.83-.82,1.76,1.76,0,0,1,1.65.89h0V65.7h.88Zm-.88-2.49v-.81a1.58,1.58,0,0,0-.44-1.13,1.48,1.48,0,0,0-1.12-.46,1.52,1.52,0,0,0-1.27.59,2.59,2.59,0,0,0-.46,1.63,2.32,2.32,0,0,0,.44,1.5,1.45,1.45,0,0,0,1.19.55,1.51,1.51,0,0,0,1.2-.53A2,2,0,0,0,192.18,71.35Z" fill="#fff"/><path d="M200.16,74a2.55,2.55,0,0,1-1.95-.77,2.86,2.86,0,0,1-.73-2,3,3,0,0,1,.76-2.16,2.72,2.72,0,0,1,2-.78,2.47,2.47,0,0,1,1.92.76,3,3,0,0,1,.69,2.1,3,3,0,0,1-.74,2.11A2.6,2.6,0,0,1,200.16,74Zm.06-5a1.68,1.68,0,0,0-1.34.58,2.38,2.38,0,0,0-.49,1.59,2.24,2.24,0,0,0,.5,1.54,1.7,1.7,0,0,0,1.34.56,1.61,1.61,0,0,0,1.31-.55A2.4,2.4,0,0,0,202,71.1a2.45,2.45,0,0,0-.46-1.59A1.61,1.61,0,0,0,200.22,69Z" fill="#fff"/><path d="M208.87,73.84H208V70.7Q208,69,206.71,69a1.39,1.39,0,0,0-1.09.5,1.84,1.84,0,0,0-.43,1.25v3.14h-.88v-5.5h.88v.91h0a2,2,0,0,1,1.8-1,1.68,1.68,0,0,1,1.38.58,2.6,2.6,0,0,1,.48,1.68Z" fill="#fff"/><path d="M216.09,73.79a1.69,1.69,0,0,1-.82.17q-1.44,0-1.44-1.61V69.09h-.95v-.75h.95V67l.88-.28v1.63h1.39v.75h-1.39v3.1a1.29,1.29,0,0,0,.19.79.75.75,0,0,0,.62.24.92.92,0,0,0,.58-.18Z" fill="#fff"/><path d="M221.83,73.84H221V70.67Q221,69,219.68,69a1.39,1.39,0,0,0-1.08.5,1.85,1.85,0,0,0-.44,1.28v3.12h-.88V65.7h.88v3.56h0a2,2,0,0,1,1.8-1q1.86,0,1.86,2.24Z" fill="#fff"/><path d="M227.92,71.31H224a2.05,2.05,0,0,0,.49,1.42,1.7,1.7,0,0,0,1.3.5,2.7,2.7,0,0,0,1.71-.61v.83a3.19,3.19,0,0,1-1.92.53,2.33,2.33,0,0,1-1.83-.75,3.07,3.07,0,0,1-.67-2.11,3,3,0,0,1,.73-2.09,2.33,2.33,0,0,1,1.81-.81,2.07,2.07,0,0,1,1.67.7,2.91,2.91,0,0,1,.59,1.94Zm-.9-.75a1.79,1.79,0,0,0-.37-1.19,1.26,1.26,0,0,0-1-.42,1.42,1.42,0,0,0-1.06.45,2,2,0,0,0-.54,1.17Z" fill="#fff"/><path d="M237,73.4q0,3-2.9,3a3.89,3.89,0,0,1-1.78-.39v-.88a3.66,3.66,0,0,0,1.77.52q2,0,2-2.16v-.6h0a2.22,2.22,0,0,1-3.54.32,2.92,2.92,0,0,1-.63-2,3.43,3.43,0,0,1,.67-2.23,2.25,2.25,0,0,1,1.84-.83,1.8,1.8,0,0,1,1.65.89h0v-.76H237Zm-.88-2v-.81a1.57,1.57,0,0,0-.44-1.12,1.46,1.46,0,0,0-1.1-.47,1.53,1.53,0,0,0-1.28.59,2.65,2.65,0,0,0-.46,1.66,2.27,2.27,0,0,0,.44,1.47,1.43,1.43,0,0,0,1.17.55,1.53,1.53,0,0,0,1.21-.53A2,2,0,0,0,236.07,71.35Z" fill="#fff"/><path d="M241.61,69.23a1.08,1.08,0,0,0-.67-.18,1.12,1.12,0,0,0-.94.53,2.45,2.45,0,0,0-.38,1.45v2.8h-.88v-5.5h.88v1.13h0a1.92,1.92,0,0,1,.57-.91,1.31,1.31,0,0,1,.87-.33,1.45,1.45,0,0,1,.53.08Z" fill="#fff"/><path d="M246.5,73.84h-.88V73h0a1.84,1.84,0,0,1-1.69,1,1.81,1.81,0,0,1-1.29-.43,1.5,1.5,0,0,1-.46-1.16q0-1.54,1.82-1.79l1.65-.23q0-1.4-1.13-1.4a2.71,2.71,0,0,0-1.79.68v-.9a3.41,3.41,0,0,1,1.87-.52q1.94,0,1.94,2.05Zm-.88-2.78-1.33.18a2.15,2.15,0,0,0-.92.3.87.87,0,0,0-.31.77.84.84,0,0,0,.29.66,1.11,1.11,0,0,0,.77.25,1.41,1.41,0,0,0,1.08-.46,1.64,1.64,0,0,0,.43-1.16Z" fill="#fff"/><path d="M249.06,73h0v3.33h-.88v-8H249v1h0a2.08,2.08,0,0,1,1.9-1.1,2,2,0,0,1,1.66.74,3.06,3.06,0,0,1,.6,2,3.4,3.4,0,0,1-.67,2.21,2.23,2.23,0,0,1-1.84.83A1.84,1.84,0,0,1,249.06,73Zm0-2.22v.77a1.63,1.63,0,0,0,.44,1.16,1.58,1.58,0,0,0,2.38-.14,2.81,2.81,0,0,0,.45-1.7,2.21,2.21,0,0,0-.42-1.44,1.4,1.4,0,0,0-1.15-.52,1.56,1.56,0,0,0-1.24.53A2,2,0,0,0,249,70.83Z" fill="#fff"/><path d="M259.19,73.84h-.88V70.67Q258.31,69,257,69a1.39,1.39,0,0,0-1.08.5,1.85,1.85,0,0,0-.44,1.28v3.12h-.88V65.7h.88v3.56h0a2,2,0,0,1,1.8-1q1.86,0,1.86,2.24Z" fill="#fff"/><path d="M261.16,74a.57.57,0,0,1-.42-.18.58.58,0,0,1-.17-.42.59.59,0,0,1,.17-.43.56.56,0,0,1,.42-.18.58.58,0,0,1,.43.18.59.59,0,0,1,.18.43.58.58,0,0,1-.18.42A.59.59,0,0,1,261.16,74Z" fill="#fff"/><path d="M270.92,67H268.7v6.89h-.9V67h-2.22v-.82h5.34Z" fill="#fff"/><path d="M273.18,74a2.55,2.55,0,0,1-1.95-.77,2.85,2.85,0,0,1-.73-2,3,3,0,0,1,.76-2.16,2.72,2.72,0,0,1,2-.78,2.47,2.47,0,0,1,1.92.76,3,3,0,0,1,.69,2.1,3,3,0,0,1-.74,2.11A2.61,2.61,0,0,1,273.18,74Zm.06-5a1.67,1.67,0,0,0-1.34.58,2.37,2.37,0,0,0-.49,1.59,2.24,2.24,0,0,0,.5,1.54,1.7,1.7,0,0,0,1.34.56,1.61,1.61,0,0,0,1.31-.55A2.4,2.4,0,0,0,275,71.1a2.45,2.45,0,0,0-.46-1.59A1.61,1.61,0,0,0,273.24,69Z" fill="#fff"/><path d="M285,73.84h-.88v-.93h0A2,2,0,0,1,282.24,74a2.06,2.06,0,0,1-1.66-.74,3,3,0,0,1-.62-2,3.3,3.3,0,0,1,.69-2.19,2.27,2.27,0,0,1,1.83-.82,1.76,1.76,0,0,1,1.65.89h0V65.7H285Zm-.88-2.49v-.81a1.57,1.57,0,0,0-.44-1.13,1.48,1.48,0,0,0-1.12-.46,1.52,1.52,0,0,0-1.27.59,2.59,2.59,0,0,0-.46,1.63,2.32,2.32,0,0,0,.44,1.5,1.45,1.45,0,0,0,1.19.55,1.5,1.5,0,0,0,1.2-.53A2,2,0,0,0,284.15,71.35Z" fill="#fff"/><path d="M287.27,66.94a.56.56,0,0,1-.4-.16.54.54,0,0,1-.17-.41.56.56,0,0,1,.57-.57.57.57,0,0,1,.41.16.58.58,0,0,1,0,.81A.57.57,0,0,1,287.27,66.94Zm.43,6.9h-.88v-5.5h.88Z" fill="#fff"/><path d="M289.15,73.64V72.7a2.61,2.61,0,0,0,1.58.53q1.16,0,1.16-.77a.67.67,0,0,0-.1-.37,1,1,0,0,0-.27-.27,2.1,2.1,0,0,0-.4-.21l-.49-.2a6.26,6.26,0,0,1-.64-.29,1.93,1.93,0,0,1-.46-.33,1.25,1.25,0,0,1-.28-.42,1.5,1.5,0,0,1-.09-.55,1.31,1.31,0,0,1,.18-.68,1.57,1.57,0,0,1,.47-.5,2.19,2.19,0,0,1,.67-.3,3,3,0,0,1,.78-.1,3.17,3.17,0,0,1,1.28.25v.89a2.49,2.49,0,0,0-1.4-.4,1.61,1.61,0,0,0-.45.06,1.1,1.1,0,0,0-.34.16.73.73,0,0,0-.22.24.65.65,0,0,0-.08.31.76.76,0,0,0,.08.36.79.79,0,0,0,.23.26,1.75,1.75,0,0,0,.37.2l.49.2a7.11,7.11,0,0,1,.66.29,2.26,2.26,0,0,1,.49.33,1.3,1.3,0,0,1,.31.43,1.38,1.38,0,0,1,.11.57,1.35,1.35,0,0,1-.18.71,1.52,1.52,0,0,1-.48.5,2.22,2.22,0,0,1-.69.29,3.42,3.42,0,0,1-.82.1A3.13,3.13,0,0,1,289.15,73.64Z" fill="#fff"/><path d="M295,73h0v3.33h-.88v-8H295v1h0a2.08,2.08,0,0,1,1.9-1.1,2,2,0,0,1,1.66.74,3.06,3.06,0,0,1,.6,2,3.4,3.4,0,0,1-.67,2.21,2.23,2.23,0,0,1-1.84.83A1.84,1.84,0,0,1,295,73Zm0-2.22v.77a1.63,1.63,0,0,0,.44,1.16,1.58,1.58,0,0,0,2.38-.14,2.81,2.81,0,0,0,.45-1.7,2.21,2.21,0,0,0-.42-1.44,1.4,1.4,0,0,0-1.15-.52,1.56,1.56,0,0,0-1.24.53A2,2,0,0,0,295,70.83Z" fill="#fff"/><path d="M301.49,73.84h-.88V65.7h.88Z" fill="#fff"/><path d="M307.21,73.84h-.88V73h0a1.84,1.84,0,0,1-1.69,1,1.81,1.81,0,0,1-1.29-.43,1.5,1.5,0,0,1-.46-1.16q0-1.54,1.82-1.79l1.65-.23q0-1.4-1.13-1.4a2.71,2.71,0,0,0-1.79.68v-.9a3.41,3.41,0,0,1,1.87-.52q1.94,0,1.94,2.05Zm-.88-2.78-1.33.18a2.15,2.15,0,0,0-.92.3.87.87,0,0,0-.31.77.84.84,0,0,0,.29.66,1.11,1.11,0,0,0,.77.25,1.41,1.41,0,0,0,1.08-.46,1.64,1.64,0,0,0,.43-1.16Z" fill="#fff"/><path d="M313.25,68.34l-2.53,6.38q-.68,1.71-1.9,1.71a2,2,0,0,1-.58-.07v-.79a1.64,1.64,0,0,0,.52.1,1.08,1.08,0,0,0,1-.79l.44-1-2.15-5.49h1l1.49,4.23c0,.05.06.19.11.42h0c0-.09.05-.22.11-.41l1.56-4.24Z" fill="#fff"/><path d="M325,73.84h-.88V70.68a2.38,2.38,0,0,0-.28-1.32,1.07,1.07,0,0,0-.95-.41,1.17,1.17,0,0,0-1,.52,2,2,0,0,0-.4,1.24v3.14h-.88V70.57q0-1.62-1.25-1.62a1.16,1.16,0,0,0-1,.49,2,2,0,0,0-.38,1.26v3.14h-.88v-5.5h.88v.87h0a1.87,1.87,0,0,1,1.71-1,1.59,1.59,0,0,1,1.56,1.14,2,2,0,0,1,1.83-1.14q1.81,0,1.82,2.24Z" fill="#fff"/><path d="M329,74A2.55,2.55,0,0,1,327,73.2a2.85,2.85,0,0,1-.73-2,3,3,0,0,1,.76-2.16,2.72,2.72,0,0,1,2-.78A2.47,2.47,0,0,1,331,69a3,3,0,0,1,.69,2.1,3,3,0,0,1-.74,2.11A2.61,2.61,0,0,1,329,74Zm.06-5a1.67,1.67,0,0,0-1.34.58,2.37,2.37,0,0,0-.49,1.59,2.24,2.24,0,0,0,.5,1.54,1.7,1.7,0,0,0,1.34.56,1.61,1.61,0,0,0,1.31-.55,2.4,2.4,0,0,0,.46-1.57,2.45,2.45,0,0,0-.46-1.59A1.61,1.61,0,0,0,329,69Z" fill="#fff"/><path d="M336,69.23a1.08,1.08,0,0,0-.67-.18,1.12,1.12,0,0,0-.94.53A2.45,2.45,0,0,0,334,71v2.8h-.88v-5.5H334v1.13h0a1.92,1.92,0,0,1,.57-.91,1.31,1.31,0,0,1,.87-.33,1.45,1.45,0,0,1,.53.08Z" fill="#fff"/><path d="M341.23,71.31h-3.88a2.06,2.06,0,0,0,.49,1.42,1.7,1.7,0,0,0,1.3.5,2.7,2.7,0,0,0,1.71-.61v.83a3.19,3.19,0,0,1-1.92.53,2.33,2.33,0,0,1-1.83-.75,3.07,3.07,0,0,1-.67-2.11,3,3,0,0,1,.73-2.09,2.33,2.33,0,0,1,1.81-.81,2.07,2.07,0,0,1,1.67.7,2.91,2.91,0,0,1,.59,1.94Zm-.9-.75a1.8,1.8,0,0,0-.37-1.19,1.25,1.25,0,0,0-1-.42,1.42,1.42,0,0,0-1.06.45,2,2,0,0,0-.54,1.17Z" fill="#fff"/><path d="M346.48,73h0v3.33h-.88v-8h.88v1h0a2.08,2.08,0,0,1,1.9-1.1,2,2,0,0,1,1.66.74,3.06,3.06,0,0,1,.6,2,3.41,3.41,0,0,1-.67,2.21,2.24,2.24,0,0,1-1.84.83A1.84,1.84,0,0,1,346.48,73Zm0-2.22v.77a1.63,1.63,0,0,0,.44,1.16,1.58,1.58,0,0,0,2.38-.14,2.81,2.81,0,0,0,.45-1.7,2.22,2.22,0,0,0-.42-1.44,1.4,1.4,0,0,0-1.15-.52,1.56,1.56,0,0,0-1.24.53A2,2,0,0,0,346.46,70.83Z" fill="#fff"/><path d="M352.92,73.84H352V65.7h.88Z" fill="#fff"/><path d="M357,74a2.55,2.55,0,0,1-1.95-.77,2.86,2.86,0,0,1-.73-2,3,3,0,0,1,.76-2.16,2.72,2.72,0,0,1,2-.78,2.47,2.47,0,0,1,1.92.76,3,3,0,0,1,.69,2.1,3,3,0,0,1-.74,2.11A2.6,2.6,0,0,1,357,74Zm.06-5a1.68,1.68,0,0,0-1.34.58,2.38,2.38,0,0,0-.49,1.59,2.24,2.24,0,0,0,.5,1.54,1.7,1.7,0,0,0,1.34.56,1.61,1.61,0,0,0,1.31-.55,2.4,2.4,0,0,0,.46-1.57,2.45,2.45,0,0,0-.46-1.59A1.61,1.61,0,0,0,357.07,69Z" fill="#fff"/><path d="M363.7,73.79a1.69,1.69,0,0,1-.82.17q-1.44,0-1.44-1.61V69.09h-.95v-.75h.95V67l.88-.28v1.63h1.39v.75h-1.39v3.1a1.29,1.29,0,0,0,.19.79.75.75,0,0,0,.62.24.92.92,0,0,0,.58-.18Z" fill="#fff"/><path d="M364.54,73.64V72.7a2.61,2.61,0,0,0,1.58.53q1.16,0,1.16-.77a.67.67,0,0,0-.1-.37,1,1,0,0,0-.27-.27,2.1,2.1,0,0,0-.4-.21l-.49-.2a6.26,6.26,0,0,1-.64-.29,1.93,1.93,0,0,1-.46-.33,1.25,1.25,0,0,1-.28-.42,1.5,1.5,0,0,1-.09-.55,1.31,1.31,0,0,1,.18-.68,1.57,1.57,0,0,1,.47-.5,2.19,2.19,0,0,1,.67-.3,3,3,0,0,1,.78-.1,3.17,3.17,0,0,1,1.28.25v.89a2.49,2.49,0,0,0-1.4-.4,1.61,1.61,0,0,0-.45.06,1.1,1.1,0,0,0-.34.16.73.73,0,0,0-.22.24.65.65,0,0,0-.08.31.76.76,0,0,0,.08.36.79.79,0,0,0,.23.26,1.75,1.75,0,0,0,.37.2l.49.2a7.11,7.11,0,0,1,.66.29,2.26,2.26,0,0,1,.49.33,1.3,1.3,0,0,1,.31.43,1.38,1.38,0,0,1,.11.57,1.35,1.35,0,0,1-.18.71,1.52,1.52,0,0,1-.48.5,2.22,2.22,0,0,1-.69.29,3.42,3.42,0,0,1-.82.1A3.13,3.13,0,0,1,364.54,73.64Z" fill="#fff"/><path d="M370.35,72.62l-.86,2.64h-.63l.63-2.64Z" fill="#fff"/><path d="M377.81,69.23a1.08,1.08,0,0,0-.67-.18,1.12,1.12,0,0,0-.94.53,2.45,2.45,0,0,0-.38,1.45v2.8h-.88v-5.5h.88v1.13h0a1.93,1.93,0,0,1,.58-.91,1.31,1.31,0,0,1,.86-.33,1.44,1.44,0,0,1,.53.08Z" fill="#fff"/><path d="M379.22,66.94a.56.56,0,0,1-.4-.16.54.54,0,0,1-.17-.41.56.56,0,0,1,.57-.57.57.57,0,0,1,.41.16.58.58,0,0,1,0,.81A.57.57,0,0,1,379.22,66.94Zm.43,6.9h-.88v-5.5h.88Z" fill="#fff"/><path d="M386.13,73.4q0,3-2.9,3a3.9,3.9,0,0,1-1.78-.39v-.88a3.67,3.67,0,0,0,1.77.52q2,0,2-2.16v-.6h0a2.22,2.22,0,0,1-3.54.32,2.93,2.93,0,0,1-.63-2,3.43,3.43,0,0,1,.67-2.23,2.26,2.26,0,0,1,1.85-.83,1.79,1.79,0,0,1,1.65.89h0v-.76h.88Zm-.88-2v-.81a1.57,1.57,0,0,0-.44-1.12,1.46,1.46,0,0,0-1.1-.47,1.53,1.53,0,0,0-1.28.59,2.65,2.65,0,0,0-.46,1.66,2.27,2.27,0,0,0,.44,1.47,1.43,1.43,0,0,0,1.17.55,1.53,1.53,0,0,0,1.21-.53A2,2,0,0,0,385.25,71.35Z" fill="#fff"/><path d="M392.47,73.84h-.88V70.67q0-1.72-1.28-1.72a1.39,1.39,0,0,0-1.08.5,1.85,1.85,0,0,0-.44,1.28v3.12h-.88V65.7h.88v3.56h0a2,2,0,0,1,1.8-1q1.86,0,1.86,2.24Z" fill="#fff"/><path d="M396.69,73.79a1.69,1.69,0,0,1-.82.17q-1.45,0-1.45-1.61V69.09h-.95v-.75h.95V67l.88-.28v1.63h1.39v.75H395.3v3.1a1.28,1.28,0,0,0,.19.79.75.75,0,0,0,.62.24.92.92,0,0,0,.57-.18Z" fill="#fff"/><path d="M400.07,71.12h-2.93v-.69h2.93Z" fill="#fff"/><path d="M405.4,73.59a2.87,2.87,0,0,1-1.5.38,2.49,2.49,0,0,1-1.9-.77,2.77,2.77,0,0,1-.72-2,3.05,3.05,0,0,1,.78-2.18,2.73,2.73,0,0,1,2.08-.82,2.9,2.9,0,0,1,1.28.27v.9A2.24,2.24,0,0,0,404.1,69a1.77,1.77,0,0,0-1.38.6,2.29,2.29,0,0,0-.54,1.59,2.18,2.18,0,0,0,.51,1.53,1.75,1.75,0,0,0,1.36.56,2.21,2.21,0,0,0,1.35-.48Z" fill="#fff"/><path d="M407.62,73.84h-.88V65.7h.88Z" fill="#fff"/><path d="M409.85,66.94a.56.56,0,0,1-.4-.16.55.55,0,0,1-.17-.41.56.56,0,0,1,.57-.57.57.57,0,0,1,.41.16.58.58,0,0,1,0,.81A.57.57,0,0,1,409.85,66.94Zm.43,6.9h-.88v-5.5h.88Z" fill="#fff"/><path d="M415.81,73.59a2.87,2.87,0,0,1-1.5.38,2.49,2.49,0,0,1-1.9-.77,2.77,2.77,0,0,1-.72-2,3.05,3.05,0,0,1,.78-2.18,2.73,2.73,0,0,1,2.08-.82,2.9,2.9,0,0,1,1.28.27v.9a2.24,2.24,0,0,0-1.31-.43,1.77,1.77,0,0,0-1.38.6,2.29,2.29,0,0,0-.54,1.59,2.18,2.18,0,0,0,.51,1.53,1.75,1.75,0,0,0,1.36.56,2.21,2.21,0,0,0,1.35-.48Z" fill="#fff"/><path d="M421.71,73.84h-1.24L418,71.2h0v2.64h-.88V65.7H418v5.16h0l2.31-2.52h1.15L419,71Z" fill="#fff"/><path d="M429.56,73.84h-.88V73h0A1.84,1.84,0,0,1,427,74a1.81,1.81,0,0,1-1.29-.43,1.51,1.51,0,0,1-.46-1.16q0-1.54,1.82-1.79l1.65-.23q0-1.4-1.13-1.4a2.71,2.71,0,0,0-1.79.68v-.9a3.41,3.41,0,0,1,1.87-.52q1.94,0,1.94,2.05Zm-.88-2.78-1.33.18a2.15,2.15,0,0,0-.92.3.88.88,0,0,0-.31.77.84.84,0,0,0,.29.66,1.11,1.11,0,0,0,.77.25,1.41,1.41,0,0,0,1.08-.46,1.64,1.64,0,0,0,.43-1.16Z" fill="#fff"/><path d="M435.14,73h0v3.33h-.88v-8h.88v1h0a2.08,2.08,0,0,1,1.9-1.1,2,2,0,0,1,1.66.74,3.06,3.06,0,0,1,.6,2,3.4,3.4,0,0,1-.67,2.21,2.23,2.23,0,0,1-1.84.83A1.84,1.84,0,0,1,435.14,73Zm0-2.22v.77a1.63,1.63,0,0,0,.44,1.16,1.58,1.58,0,0,0,2.38-.14,2.81,2.81,0,0,0,.45-1.7,2.21,2.21,0,0,0-.42-1.44,1.4,1.4,0,0,0-1.15-.52,1.56,1.56,0,0,0-1.24.53A2,2,0,0,0,435.12,70.83Z" fill="#fff"/><path d="M441.58,73.84h-.88V65.7h.88Z" fill="#fff"/><path d="M445.67,74a2.55,2.55,0,0,1-1.95-.77,2.85,2.85,0,0,1-.73-2,3,3,0,0,1,.76-2.16,2.72,2.72,0,0,1,2-.78,2.47,2.47,0,0,1,1.92.76,3,3,0,0,1,.69,2.1,3,3,0,0,1-.74,2.11A2.61,2.61,0,0,1,445.67,74Zm.06-5a1.67,1.67,0,0,0-1.34.58,2.37,2.37,0,0,0-.49,1.59,2.24,2.24,0,0,0,.5,1.54,1.7,1.7,0,0,0,1.34.56,1.61,1.61,0,0,0,1.31-.55,2.4,2.4,0,0,0,.46-1.57,2.45,2.45,0,0,0-.46-1.59A1.61,1.61,0,0,0,445.73,69Z" fill="#fff"/><path d="M452.36,73.79a1.69,1.69,0,0,1-.82.17q-1.45,0-1.45-1.61V69.09h-.95v-.75h.95V67l.88-.28v1.63h1.39v.75H451v3.1a1.28,1.28,0,0,0,.19.79.75.75,0,0,0,.62.24.92.92,0,0,0,.57-.18Z" fill="#fff"/><path d="M460.3,73.59a2.86,2.86,0,0,1-1.5.38,2.49,2.49,0,0,1-1.9-.77,2.77,2.77,0,0,1-.72-2A3.05,3.05,0,0,1,457,69a2.73,2.73,0,0,1,2.08-.82,2.9,2.9,0,0,1,1.28.27v.9A2.24,2.24,0,0,0,459,69a1.77,1.77,0,0,0-1.38.6,2.29,2.29,0,0,0-.54,1.59,2.18,2.18,0,0,0,.51,1.53,1.75,1.75,0,0,0,1.36.56,2.21,2.21,0,0,0,1.35-.48Z" fill="#fff"/><path d="M465.57,73.84h-.88V73h0A1.84,1.84,0,0,1,463,74a1.81,1.81,0,0,1-1.29-.43,1.51,1.51,0,0,1-.46-1.16q0-1.54,1.82-1.79l1.65-.23q0-1.4-1.13-1.4a2.71,2.71,0,0,0-1.79.68v-.9a3.41,3.41,0,0,1,1.87-.52q1.94,0,1.94,2.05Zm-.88-2.78-1.33.18a2.15,2.15,0,0,0-.92.3.88.88,0,0,0-.31.77.84.84,0,0,0,.29.66,1.11,1.11,0,0,0,.77.25,1.41,1.41,0,0,0,1.08-.46,1.64,1.64,0,0,0,.43-1.16Z" fill="#fff"/><path d="M470.1,69.23a1.08,1.08,0,0,0-.67-.18,1.12,1.12,0,0,0-.94.53,2.45,2.45,0,0,0-.38,1.45v2.8h-.88v-5.5h.88v1.13h0a1.93,1.93,0,0,1,.58-.91,1.31,1.31,0,0,1,.86-.33,1.44,1.44,0,0,1,.53.08Z" fill="#fff"/><path d="M475.6,73.84h-.88v-.93h0A2,2,0,0,1,472.81,74a2.06,2.06,0,0,1-1.66-.74,3,3,0,0,1-.62-2,3.29,3.29,0,0,1,.69-2.19,2.27,2.27,0,0,1,1.83-.82,1.76,1.76,0,0,1,1.65.89h0V65.7h.88Zm-.88-2.49v-.81a1.58,1.58,0,0,0-.44-1.13,1.48,1.48,0,0,0-1.12-.46,1.52,1.52,0,0,0-1.27.59,2.59,2.59,0,0,0-.46,1.63,2.32,2.32,0,0,0,.44,1.5,1.45,1.45,0,0,0,1.19.55,1.51,1.51,0,0,0,1.2-.53A2,2,0,0,0,474.72,71.35Z" fill="#fff"/><path d="M484.34,73.84h-.88V73h0a1.84,1.84,0,0,1-1.69,1,1.81,1.81,0,0,1-1.29-.43,1.51,1.51,0,0,1-.46-1.16q0-1.54,1.82-1.79l1.65-.23q0-1.4-1.13-1.4a2.71,2.71,0,0,0-1.79.68v-.9a3.41,3.41,0,0,1,1.87-.52q1.94,0,1.94,2.05Zm-.88-2.78-1.33.18a2.15,2.15,0,0,0-.92.3.88.88,0,0,0-.31.77.84.84,0,0,0,.29.66,1.11,1.11,0,0,0,.77.25,1.41,1.41,0,0,0,1.08-.46,1.64,1.64,0,0,0,.43-1.16Z" fill="#fff"/><path d="M490.56,73.84h-.88V70.7q0-1.75-1.28-1.75a1.39,1.39,0,0,0-1.09.5,1.84,1.84,0,0,0-.43,1.25v3.14H486v-5.5h.88v.91h0a2,2,0,0,1,1.8-1,1.68,1.68,0,0,1,1.38.58,2.6,2.6,0,0,1,.48,1.68Z" fill="#fff"/><path d="M496.92,73.84H496v-.93h0A2,2,0,0,1,494.12,74a2.06,2.06,0,0,1-1.66-.74,3,3,0,0,1-.62-2,3.29,3.29,0,0,1,.69-2.19,2.27,2.27,0,0,1,1.83-.82,1.76,1.76,0,0,1,1.65.89h0V65.7h.88ZM496,71.35v-.81a1.58,1.58,0,0,0-.44-1.13,1.48,1.48,0,0,0-1.12-.46,1.52,1.52,0,0,0-1.27.59,2.59,2.59,0,0,0-.46,1.63,2.32,2.32,0,0,0,.44,1.5,1.45,1.45,0,0,0,1.19.55,1.51,1.51,0,0,0,1.2-.53A2,2,0,0,0,496,71.35Z" fill="#fff"/><path d="M501.38,73.64V72.7a2.61,2.61,0,0,0,1.58.53q1.16,0,1.16-.77a.67.67,0,0,0-.1-.37,1,1,0,0,0-.27-.27,2.1,2.1,0,0,0-.4-.21l-.49-.2a6.26,6.26,0,0,1-.64-.29,1.93,1.93,0,0,1-.46-.33,1.25,1.25,0,0,1-.28-.42,1.5,1.5,0,0,1-.09-.55,1.31,1.31,0,0,1,.18-.68,1.57,1.57,0,0,1,.47-.5,2.19,2.19,0,0,1,.67-.3,3,3,0,0,1,.78-.1,3.17,3.17,0,0,1,1.28.25v.89a2.49,2.49,0,0,0-1.4-.4,1.61,1.61,0,0,0-.45.06,1.1,1.1,0,0,0-.34.16.73.73,0,0,0-.22.24.65.65,0,0,0-.08.31.76.76,0,0,0,.08.36.79.79,0,0,0,.23.26,1.75,1.75,0,0,0,.37.2l.49.2a7.11,7.11,0,0,1,.66.29,2.26,2.26,0,0,1,.49.33,1.3,1.3,0,0,1,.31.43,1.38,1.38,0,0,1,.11.57,1.35,1.35,0,0,1-.18.71,1.52,1.52,0,0,1-.48.5,2.22,2.22,0,0,1-.69.29,3.42,3.42,0,0,1-.82.1A3.13,3.13,0,0,1,501.38,73.64Z" fill="#fff"/><path d="M510.8,71.31h-3.88a2.05,2.05,0,0,0,.49,1.42,1.7,1.7,0,0,0,1.3.5,2.7,2.7,0,0,0,1.71-.61v.83a3.19,3.19,0,0,1-1.92.53,2.33,2.33,0,0,1-1.83-.75,3.07,3.07,0,0,1-.67-2.11,3,3,0,0,1,.73-2.09,2.33,2.33,0,0,1,1.81-.81,2.07,2.07,0,0,1,1.67.7,2.91,2.91,0,0,1,.59,1.94Zm-.9-.75a1.79,1.79,0,0,0-.37-1.19,1.26,1.26,0,0,0-1-.42,1.42,1.42,0,0,0-1.06.45,2,2,0,0,0-.54,1.17Z" fill="#fff"/><path d="M513,73.84h-.88V65.7H513Z" fill="#fff"/><path d="M519.22,71.31h-3.88a2.06,2.06,0,0,0,.49,1.42,1.7,1.7,0,0,0,1.3.5,2.7,2.7,0,0,0,1.71-.61v.83a3.19,3.19,0,0,1-1.92.53,2.33,2.33,0,0,1-1.83-.75,3.07,3.07,0,0,1-.67-2.11,3,3,0,0,1,.73-2.09,2.33,2.33,0,0,1,1.81-.81,2.07,2.07,0,0,1,1.67.7,2.91,2.91,0,0,1,.59,1.94Zm-.9-.75a1.8,1.8,0,0,0-.37-1.19,1.25,1.25,0,0,0-1-.42,1.42,1.42,0,0,0-1.06.45,2,2,0,0,0-.54,1.17Z" fill="#fff"/><path d="M524.3,73.59a2.87,2.87,0,0,1-1.5.38,2.49,2.49,0,0,1-1.9-.77,2.77,2.77,0,0,1-.72-2A3.05,3.05,0,0,1,521,69a2.73,2.73,0,0,1,2.08-.82,2.9,2.9,0,0,1,1.28.27v.9A2.24,2.24,0,0,0,523,69a1.77,1.77,0,0,0-1.38.6,2.29,2.29,0,0,0-.54,1.59,2.18,2.18,0,0,0,.51,1.53,1.75,1.75,0,0,0,1.36.56,2.21,2.21,0,0,0,1.35-.48Z" fill="#fff"/><path d="M528.18,73.79a1.69,1.69,0,0,1-.82.17q-1.45,0-1.45-1.61V69.09H525v-.75h.95V67l.88-.28v1.63h1.39v.75h-1.39v3.1A1.28,1.28,0,0,0,527,73a.75.75,0,0,0,.62.24.92.92,0,0,0,.57-.18Z" fill="#fff"/><path d="M532.13,73.53V72.46a2.05,2.05,0,0,0,.44.29,3.57,3.57,0,0,0,.54.22,4.34,4.34,0,0,0,.57.14,3.17,3.17,0,0,0,.53,0,2.06,2.06,0,0,0,1.24-.31,1.16,1.16,0,0,0,.27-1.43,1.55,1.55,0,0,0-.38-.42,3.74,3.74,0,0,0-.57-.37l-.71-.37q-.4-.2-.75-.41a3.25,3.25,0,0,1-.61-.46,1.94,1.94,0,0,1-.41-.57,2,2,0,0,1,.08-1.67,2,2,0,0,1,.61-.64,2.72,2.72,0,0,1,.86-.38,3.89,3.89,0,0,1,1-.12,3.75,3.75,0,0,1,1.66.27v1a3,3,0,0,0-1.75-.47,2.9,2.9,0,0,0-.59.06,1.68,1.68,0,0,0-.53.2,1.17,1.17,0,0,0-.38.36,1,1,0,0,0-.14.54,1.11,1.11,0,0,0,.11.51,1.28,1.28,0,0,0,.33.39,3.24,3.24,0,0,0,.52.34l.71.37q.41.21.78.43a3.6,3.6,0,0,1,.65.5,2.22,2.22,0,0,1,.44.61,1.71,1.71,0,0,1,.16.76,1.93,1.93,0,0,1-.22,1,1.83,1.83,0,0,1-.6.64,2.64,2.64,0,0,1-.87.36,4.73,4.73,0,0,1-1,.11l-.45,0-.55-.09a4.6,4.6,0,0,1-.53-.14A1.63,1.63,0,0,1,532.13,73.53Z" fill="#fff"/><path d="M542.78,73.84h-.88V70.67q0-1.72-1.28-1.72a1.39,1.39,0,0,0-1.08.5,1.85,1.85,0,0,0-.44,1.28v3.12h-.88V65.7h.88v3.56h0a2,2,0,0,1,1.8-1q1.86,0,1.86,2.24Z" fill="#fff"/><path d="M546.74,74a2.55,2.55,0,0,1-1.95-.77,2.85,2.85,0,0,1-.73-2,3,3,0,0,1,.76-2.16,2.72,2.72,0,0,1,2-.78,2.47,2.47,0,0,1,1.92.76,3,3,0,0,1,.69,2.1,3,3,0,0,1-.74,2.11A2.61,2.61,0,0,1,546.74,74Zm.06-5a1.67,1.67,0,0,0-1.34.58,2.37,2.37,0,0,0-.49,1.59,2.24,2.24,0,0,0,.5,1.54,1.7,1.7,0,0,0,1.34.56,1.61,1.61,0,0,0,1.31-.55,2.4,2.4,0,0,0,.46-1.57,2.45,2.45,0,0,0-.46-1.59A1.61,1.61,0,0,0,546.8,69Z" fill="#fff"/><path d="M557.81,68.34l-1.65,5.5h-.91l-1.13-3.94a2.52,2.52,0,0,1-.09-.51h0a2.42,2.42,0,0,1-.11.5l-1.23,3.95h-.88l-1.67-5.5H551l1.14,4.14a2.57,2.57,0,0,1,.08.49h0a2.32,2.32,0,0,1,.1-.5l1.27-4.12h.81l1.14,4.15a3,3,0,0,1,.08.49h0a2.34,2.34,0,0,1,.09-.49l1.12-4.15Z" fill="#fff"/><path d="M562.75,73h0v3.33h-.88v-8h.88v1h0a2.08,2.08,0,0,1,1.9-1.1,2,2,0,0,1,1.66.74,3.06,3.06,0,0,1,.6,2,3.41,3.41,0,0,1-.67,2.21,2.24,2.24,0,0,1-1.84.83A1.84,1.84,0,0,1,562.75,73Zm0-2.22v.77a1.63,1.63,0,0,0,.44,1.16,1.58,1.58,0,0,0,2.38-.14,2.81,2.81,0,0,0,.45-1.7,2.22,2.22,0,0,0-.42-1.44,1.4,1.4,0,0,0-1.15-.52,1.56,1.56,0,0,0-1.24.53A2,2,0,0,0,562.73,70.83Z" fill="#fff"/><path d="M569.19,73.84h-.88V65.7h.88Z" fill="#fff"/><path d="M573.28,74a2.55,2.55,0,0,1-1.95-.77,2.86,2.86,0,0,1-.73-2,3,3,0,0,1,.76-2.16,2.72,2.72,0,0,1,2-.78,2.47,2.47,0,0,1,1.92.76,3,3,0,0,1,.69,2.1,3,3,0,0,1-.74,2.11A2.6,2.6,0,0,1,573.28,74Zm.06-5a1.68,1.68,0,0,0-1.34.58,2.38,2.38,0,0,0-.49,1.59,2.24,2.24,0,0,0,.5,1.54,1.7,1.7,0,0,0,1.34.56,1.61,1.61,0,0,0,1.31-.55,2.4,2.4,0,0,0,.46-1.57,2.45,2.45,0,0,0-.46-1.59A1.61,1.61,0,0,0,573.34,69Z" fill="#fff"/><path d="M580,73.79a1.69,1.69,0,0,1-.82.17q-1.44,0-1.44-1.61V69.09h-.95v-.75h.95V67l.88-.28v1.63H580v.75h-1.39v3.1a1.29,1.29,0,0,0,.19.79.75.75,0,0,0,.62.24A.92.92,0,0,0,580,73Z" fill="#fff"/><path d="M581.46,74a.57.57,0,0,1-.42-.18.58.58,0,0,1-.17-.42.59.59,0,0,1,.17-.43.56.56,0,0,1,.42-.18.58.58,0,0,1,.43.18.59.59,0,0,1,.18.43.58.58,0,0,1-.18.42A.59.59,0,0,1,581.46,74Z" fill="#fff"/><path d="M842.56,64l4.59,4.59L851.74,64l1.41,1.41L848.56,70l4.54,4.54-1.41,1.41-4.54-4.54-4.54,4.54-1.41-1.41L845.74,70l-4.59-4.59Z" fill="#fff"/><g id="toolbar-2" data-name="toolbar"><rect x="1" y="29" width="856" height="30" fill="#fff"/><rect x="2.32" y="28.95" width="854" height="28" fill="#f7f7f7"/><path d="M857,29H0V59H858V29Zm0,29H1V30H857Z" fill="#8e9295"/><rect x="855" y="29" width="3" height="1" fill="#8e9295"/><polygon points="24 41.99 24 48 25 48 25 40.99 28 37.99 27.09 37 24.07 40 17 40 17 41 23.06 41 16 48.01 16 37 14 37 14 40 12 40 12 41 14 41 14 51 24 51 24 53 25 53 25 51 28 51 28 49 17 49 24 41.99" fill="#696e74"/></g><rect y="0.02" width="353" height="0.97" fill="#afb2b5"/><polygon points="858 31 0 30.97 0 0 858 0 858 31" fill="url(#linear-gradient)"/><rect x="1" y="1.02" width="36" height="1" fill="#fff"/><rect x="0.5" y="0.5" width="38" height="30" fill="url(#linear-gradient-2)"/><path d="M38,1V30H1V1H38m1-1H0V31H39V0Z" fill="#8e9295"/><polygon points="177 31 39.05 31 39 0 177 0 177 31" fill="#f7f7f7"/><rect x="39" y="1" width="137" height="1" fill="#dde2e6"/><rect x="39" width="819" height="1" fill="url(#linear-gradient-3)"/><polygon points="858 0 39 0 39 1 858 1 858 0 858 0" fill="#8e9295"/><path d="M72.38,20.43a5.62,5.62,0,0,1-2.81.71A3.84,3.84,0,0,1,66.66,20a4.26,4.26,0,0,1-1.11-3.07,4.37,4.37,0,0,1,1.23-3.2,4.2,4.2,0,0,1,3.13-1.25,5.32,5.32,0,0,1,2.3.45V14a4.42,4.42,0,0,0-2.41-.64,3,3,0,0,0-2.31,1,3.56,3.56,0,0,0-.9,2.52,3.56,3.56,0,0,0,.84,2.5,2.94,2.94,0,0,0,2.27.91,3.51,3.51,0,0,0,1.71-.39V17.51H69.56v-.89h2.82Z" fill="#2b3033"/><path d="M77.33,16a1.18,1.18,0,0,0-.73-.19,1.23,1.23,0,0,0-1,.58,2.68,2.68,0,0,0-.41,1.58V21h-1V15h1v1.24h0a2.1,2.1,0,0,1,.63-1,1.43,1.43,0,0,1,.94-.35,1.57,1.57,0,0,1,.57.08Z" fill="#2b3033"/><path d="M82.67,21h-1v-.94h0a2,2,0,0,1-1.85,1.08,2,2,0,0,1-1.4-.47,1.64,1.64,0,0,1-.51-1.26q0-1.68,2-2l1.8-.25q0-1.53-1.24-1.53a3,3,0,0,0-2,.74v-1a3.72,3.72,0,0,1,2-.56q2.12,0,2.12,2.24Zm-1-3-1.45.2a2.35,2.35,0,0,0-1,.33,1,1,0,0,0-.34.84.92.92,0,0,0,.31.72,1.21,1.21,0,0,0,.83.28,1.54,1.54,0,0,0,1.18-.5,1.79,1.79,0,0,0,.47-1.27Z" fill="#2b3033"/><path d="M85.47,20.13h0v3.63h-1V15h1v1.05h0a2.27,2.27,0,0,1,2.07-1.2,2.2,2.2,0,0,1,1.81.81A3.34,3.34,0,0,1,90,17.82a3.72,3.72,0,0,1-.73,2.41,2.44,2.44,0,0,1-2,.91A2,2,0,0,1,85.47,20.13Zm0-2.42v.84a1.78,1.78,0,0,0,.48,1.26,1.72,1.72,0,0,0,2.6-.15,3.06,3.06,0,0,0,.5-1.86,2.42,2.42,0,0,0-.46-1.57,1.53,1.53,0,0,0-1.25-.57,1.7,1.7,0,0,0-1.35.58A2.14,2.14,0,0,0,85.44,17.71Z" fill="#2b3033"/><path d="M96.52,21h-1V17.54q0-1.87-1.39-1.87a1.52,1.52,0,0,0-1.18.54,2,2,0,0,0-.48,1.39V21h-1V12.12h1V16h0a2.18,2.18,0,0,1,2-1.14q2,0,2,2.44Z" fill="#2b3033"/><path d="M169.75,6H171V7.24h-.62v.62h-.62V9.12h.63v.62H171V11h-1.25v-.62h-.62V9.74h-1.25v.62h-.62V11H166V9.74h.63V9.12h.63V7.87h-.62V7.24H166V6h1.25v.62h.63v.62h1.25V6.62h.63Z" fill="#696e73"/><path d="M18.94,6,9,15.75h3l7-7,7,7h3Z" fill="#696e72"/><path d="M13,16.75v8h5v-4h2v4h5v-8l-6-6Z" fill="#696e72"/><path d="M15,6.75H12v4.06l3-3Z" fill="#696e72"/><rect x="176" y="0.99" width="1" height="30" fill="#afb2b5"/><rect x="176" y="30" width="682" height="1" fill="#afb2b5"/><path d="M52,7.92c-4.12,0-7,1.07-7,2,0,.46.67,1,1.81,1.33l.41.13.47.12A18.75,18.75,0,0,0,52,12a18.77,18.77,0,0,0,4.31-.46l.47-.12.41-.13C58.33,10.91,59,10.42,59,10c0-1-2.88-2-7-2m7,10.75-.06,0a3.14,3.14,0,0,1-.42.3l0,0a5,5,0,0,1-.58.28h0l-.13.05-.2.07-.36.13-.13,0-.08,0-.74.18-.17,0-.85.15-.17,0-.83.1-.13,0-.94.07H53l-1,0-1,0h-.21l-.93-.07-.13,0-.82-.1-.17,0-.85-.15-.17,0c-.26-.06-.5-.12-.74-.19l-.07,0-.13,0-.36-.12-.21-.07-.13-.05h0a5,5,0,0,1-.59-.28l0,0a3,3,0,0,1-.42-.3l-.06,0V20c0,.46.66.95,1.81,1.33l.41.13.47.12a20.45,20.45,0,0,0,8.62,0l.47-.12.41-.13C58.33,20.91,59,20.42,59,20Zm0-3.34-.06,0a3.14,3.14,0,0,1-.42.3l0,0a5.19,5.19,0,0,1-.58.28h0l-.13.05-.2.07-.36.13-.13,0-.08,0-.74.18-.17,0-.85.15-.17,0-.83.1H54.1l-.94.07H53l-1,0-1,0h-.21l-.93-.07h-.13l-.82-.1-.17,0-.85-.15-.17,0L47,16.31l-.07,0-.13,0-.36-.12-.21-.07L46.12,16h0a5.16,5.16,0,0,1-.59-.28l0,0a3,3,0,0,1-.42-.3l-.06,0v1.28c0,.46.66.95,1.81,1.33l.41.13.47.12a18.74,18.74,0,0,0,4.31.46,18.77,18.77,0,0,0,4.31-.46l.47-.12.41-.13c1.14-.38,1.81-.87,1.81-1.33ZM59,12l-.06,0a3.14,3.14,0,0,1-.42.3l0,0a5.19,5.19,0,0,1-.58.28h0l-.13.05-.2.07-.36.13-.13,0L57,13l-.74.18-.17,0-.85.15-.17,0-.83.1-.13,0-.94.07H53l-1,0-1,0h-.21l-.93-.07-.13,0-.82-.1-.17,0-.85-.15-.17,0L47,13l-.07,0-.13,0-.36-.12-.21-.07-.13-.05h0a5.16,5.16,0,0,1-.59-.28l0,0a3,3,0,0,1-.42-.3L45,12v1.28c0,.46.66.95,1.81,1.33l.41.13.47.12a18.74,18.74,0,0,0,4.31.46,18.77,18.77,0,0,0,4.31-.46l.47-.12.41-.13c1.14-.38,1.81-.87,1.81-1.33Z" fill="#696e73"/></svg>