<svg id="Layer_1" data-name="Layer 1" xmlns="http://www.w3.org/2000/svg" xmlns:xlink="http://www.w3.org/1999/xlink" width="62" height="70" viewBox="0 0 62 70"><defs><linearGradient id="linear-gradient" x1="5914" y1="4340.03" x2="5982.19" y2="4340.03" gradientTransform="translate(4371 -5913) rotate(90)" gradientUnits="userSpaceOnUse"><stop offset="0" stop-color="#e7e9ea"/><stop offset="0.12" stop-color="#e5e8e9"/><stop offset="1" stop-color="#dadfe2"/></linearGradient></defs><title>button-large-icon-button</title><rect width="62" height="70" fill="#a8abae"/><rect x="1" y="1" width="59.94" height="68.19" fill="url(#linear-gradient)"/><path d="M16,6V37H47V6ZM46,36H17V7H46Z" fill="#a8abae"/><rect x="30.73" y="0.17" width="1" height="42.19" transform="translate(-5.89 28.31) rotate(-45)" fill="#a8abae"/><rect x="10.13" y="20.77" width="42.19" height="1" transform="translate(-5.89 28.31) rotate(-45)" fill="#a8abae"/><path d="M11.14,51H6.78V42.6h1v7.51h3.38Z" fill="#4d5359"/><path d="M14.81,51.14a2.78,2.78,0,0,1-2.12-.84,3.11,3.11,0,0,1-.79-2.23,3.24,3.24,0,0,1,.83-2.36,3,3,0,0,1,2.23-.85,2.69,2.69,0,0,1,2.09.83A3.28,3.28,0,0,1,17.79,48a3.22,3.22,0,0,1-.81,2.3A2.84,2.84,0,0,1,14.81,51.14Zm.07-5.47a1.83,1.83,0,0,0-1.46.63A2.59,2.59,0,0,0,12.87,48a2.45,2.45,0,0,0,.54,1.68,1.85,1.85,0,0,0,1.46.62,1.76,1.76,0,0,0,1.43-.6,2.62,2.62,0,0,0,.5-1.72,2.66,2.66,0,0,0-.5-1.73A1.75,1.75,0,0,0,14.88,45.67Z" fill="#4d5359"/><path d="M22.46,46a1.18,1.18,0,0,0-.73-.19,1.23,1.23,0,0,0-1,.58,2.68,2.68,0,0,0-.41,1.58V51h-1V45h1v1.24h0a2.1,2.1,0,0,1,.63-1,1.43,1.43,0,0,1,.94-.35,1.57,1.57,0,0,1,.57.08Z" fill="#4d5359"/><path d="M28.17,48.24H23.93a2.24,2.24,0,0,0,.54,1.55,1.86,1.86,0,0,0,1.42.54,3,3,0,0,0,1.86-.67v.9a3.48,3.48,0,0,1-2.09.57,2.54,2.54,0,0,1-2-.82,3.35,3.35,0,0,1-.73-2.3,3.28,3.28,0,0,1,.79-2.28,2.55,2.55,0,0,1,2-.88,2.26,2.26,0,0,1,1.82.76,3.18,3.18,0,0,1,.64,2.12Zm-1-.81a2,2,0,0,0-.4-1.29,1.37,1.37,0,0,0-1.1-.46,1.55,1.55,0,0,0-1.15.49,2.21,2.21,0,0,0-.59,1.27Z" fill="#4d5359"/><path d="M38.14,51h-1V47.55a2.6,2.6,0,0,0-.31-1.44,1.17,1.17,0,0,0-1-.45,1.28,1.28,0,0,0-1,.56,2.15,2.15,0,0,0-.43,1.35V51h-1V47.44q0-1.77-1.37-1.77a1.26,1.26,0,0,0-1,.53,2.19,2.19,0,0,0-.41,1.38V51h-1V45h1v.95h0a2,2,0,0,1,1.86-1.09,1.73,1.73,0,0,1,1.7,1.24,2.14,2.14,0,0,1,2-1.24q2,0,2,2.44Z" fill="#4d5359"/><path d="M41.07,51h-1V42.6h1Z" fill="#4d5359"/><path d="M44.13,50.13h0v3.63h-1V45h1v1.05h0a2.27,2.27,0,0,1,2.07-1.2,2.2,2.2,0,0,1,1.81.81,3.34,3.34,0,0,1,.65,2.16,3.72,3.72,0,0,1-.73,2.41,2.44,2.44,0,0,1-2,.91A2,2,0,0,1,44.13,50.13Zm0-2.42v.84a1.78,1.78,0,0,0,.48,1.26,1.72,1.72,0,0,0,2.6-.15,3.06,3.06,0,0,0,.5-1.86,2.42,2.42,0,0,0-.46-1.57A1.53,1.53,0,0,0,46,45.67a1.7,1.7,0,0,0-1.35.58A2.14,2.14,0,0,0,44.11,47.71Z" fill="#4d5359"/><path d="M49.84,50.78v-1a2.84,2.84,0,0,0,1.73.58q1.27,0,1.27-.84a.73.73,0,0,0-.11-.41,1.08,1.08,0,0,0-.29-.3,2.26,2.26,0,0,0-.43-.23l-.54-.21a6.9,6.9,0,0,1-.7-.32,2.12,2.12,0,0,1-.5-.36,1.35,1.35,0,0,1-.3-.46,1.63,1.63,0,0,1-.1-.6,1.43,1.43,0,0,1,.19-.75,1.71,1.71,0,0,1,.52-.54A2.4,2.4,0,0,1,51.3,45a3.26,3.26,0,0,1,.85-.11,3.44,3.44,0,0,1,1.39.27v1A2.72,2.72,0,0,0,52,45.67a1.78,1.78,0,0,0-.49.06,1.19,1.19,0,0,0-.37.17.8.8,0,0,0-.24.27.7.7,0,0,0-.08.34.82.82,0,0,0,.08.39.86.86,0,0,0,.25.28,1.9,1.9,0,0,0,.4.22l.53.22a7.42,7.42,0,0,1,.71.31,2.45,2.45,0,0,1,.54.36,1.42,1.42,0,0,1,.34.47,1.5,1.5,0,0,1,.12.63,1.48,1.48,0,0,1-.2.77,1.68,1.68,0,0,1-.52.54,2.4,2.4,0,0,1-.76.32,3.73,3.73,0,0,1-.9.11A3.4,3.4,0,0,1,49.84,50.78Z" fill="#4d5359"/><path d="M17.73,63H16.56l-1.41-2.36a5.13,5.13,0,0,0-.37-.56,2.14,2.14,0,0,0-.37-.38,1.29,1.29,0,0,0-.41-.21,1.69,1.69,0,0,0-.5-.07h-.81V63h-1V54.6h2.51a3.57,3.57,0,0,1,1,.14,2.27,2.27,0,0,1,.81.42,2,2,0,0,1,.54.7,2.32,2.32,0,0,1,.19,1,2.36,2.36,0,0,1-.13.81,2.1,2.1,0,0,1-.37.65,2.27,2.27,0,0,1-.59.49,3,3,0,0,1-.77.31v0a1.77,1.77,0,0,1,.37.21,2,2,0,0,1,.3.28,3.76,3.76,0,0,1,.28.37l.31.48Zm-5-7.51v3H14a2,2,0,0,0,.68-.11,1.58,1.58,0,0,0,.54-.32,1.45,1.45,0,0,0,.36-.51,1.71,1.71,0,0,0,.13-.68,1.32,1.32,0,0,0-.44-1.05A1.88,1.88,0,0,0,14,55.49Z" fill="#4d5359"/><path d="M23.24,60.24H19a2.24,2.24,0,0,0,.54,1.55,1.86,1.86,0,0,0,1.42.54,3,3,0,0,0,1.86-.67v.9a3.48,3.48,0,0,1-2.09.57,2.54,2.54,0,0,1-2-.82A3.35,3.35,0,0,1,18,60a3.28,3.28,0,0,1,.79-2.28,2.55,2.55,0,0,1,2-.88,2.26,2.26,0,0,1,1.82.76,3.18,3.18,0,0,1,.64,2.12Zm-1-.81a2,2,0,0,0-.4-1.29,1.37,1.37,0,0,0-1.1-.46,1.55,1.55,0,0,0-1.15.49A2.21,2.21,0,0,0,19,59.43Z" fill="#4d5359"/><path d="M33.21,63h-1V59.55a2.6,2.6,0,0,0-.31-1.44,1.17,1.17,0,0,0-1-.45,1.28,1.28,0,0,0-1,.56,2.15,2.15,0,0,0-.43,1.35V63h-1V59.44q0-1.77-1.37-1.77a1.26,1.26,0,0,0-1,.53,2.19,2.19,0,0,0-.41,1.38V63h-1V57h1v.95h0a2,2,0,0,1,1.86-1.09,1.73,1.73,0,0,1,1.7,1.24,2.14,2.14,0,0,1,2-1.24q2,0,2,2.44Z" fill="#4d5359"/><path d="M36.14,63h-1V54.6h1Z" fill="#4d5359"/><path d="M39.21,62.13h0v3.63h-1V57h1v1.05h0a2.27,2.27,0,0,1,2.07-1.2,2.2,2.2,0,0,1,1.81.81,3.34,3.34,0,0,1,.65,2.16A3.72,3.72,0,0,1,43,62.23a2.44,2.44,0,0,1-2,.91A2,2,0,0,1,39.21,62.13Zm0-2.42v.84a1.78,1.78,0,0,0,.48,1.26,1.72,1.72,0,0,0,2.6-.15,3.06,3.06,0,0,0,.5-1.86,2.42,2.42,0,0,0-.46-1.57A1.53,1.53,0,0,0,41,57.67a1.7,1.7,0,0,0-1.35.58A2.14,2.14,0,0,0,39.18,59.71Z" fill="#4d5359"/><path d="M44.92,62.78v-1a2.84,2.84,0,0,0,1.73.58q1.27,0,1.27-.84a.73.73,0,0,0-.11-.41,1.08,1.08,0,0,0-.29-.3,2.26,2.26,0,0,0-.43-.23l-.54-.21a6.9,6.9,0,0,1-.7-.32,2.12,2.12,0,0,1-.5-.36,1.35,1.35,0,0,1-.3-.46,1.63,1.63,0,0,1-.1-.6,1.43,1.43,0,0,1,.19-.75,1.71,1.71,0,0,1,.52-.54,2.4,2.4,0,0,1,.74-.33,3.26,3.26,0,0,1,.85-.11,3.44,3.44,0,0,1,1.39.27v1a2.72,2.72,0,0,0-1.52-.43,1.78,1.78,0,0,0-.49.06,1.19,1.19,0,0,0-.37.17.8.8,0,0,0-.24.27.7.7,0,0,0-.08.34.82.82,0,0,0,.08.39.86.86,0,0,0,.25.28,1.9,1.9,0,0,0,.4.22l.53.22a7.42,7.42,0,0,1,.71.31,2.45,2.45,0,0,1,.54.36,1.42,1.42,0,0,1,.34.47,1.5,1.5,0,0,1,.12.63,1.48,1.48,0,0,1-.2.77,1.68,1.68,0,0,1-.52.54,2.4,2.4,0,0,1-.76.32,3.73,3.73,0,0,1-.9.11A3.4,3.4,0,0,1,44.92,62.78Z" fill="#4d5359"/></svg>