<svg id="Layer_1" data-name="Layer 1" xmlns="http://www.w3.org/2000/svg" width="89.15" height="22.01" viewBox="0 0 89.15 22.01"><title>split-button-small-mouse-down-main-with-icon</title><rect x="0.65" y="0.99" width="65.15" height="20" fill="#4384b7"/><path d="M66.15,22H0V0H66.15Z" fill="#4384b7"/><path d="M72.8,7.65h9l-4.5,6Z" fill="#4d5359" opacity="0.8"/><path d="M30.93,15H29.76l-1.41-2.36a5.13,5.13,0,0,0-.37-.56,2.14,2.14,0,0,0-.37-.38,1.29,1.29,0,0,0-.41-.21,1.69,1.69,0,0,0-.5-.07h-.81V15h-1V6.6h2.51a3.57,3.57,0,0,1,1,.14,2.27,2.27,0,0,1,.81.42,2,2,0,0,1,.54.7,2.32,2.32,0,0,1,.19,1,2.36,2.36,0,0,1-.13.81,2.1,2.1,0,0,1-.37.65,2.27,2.27,0,0,1-.59.49,3,3,0,0,1-.77.31v0a1.77,1.77,0,0,1,.37.21,2,2,0,0,1,.3.28A3.76,3.76,0,0,1,29,12l.31.48Zm-5-7.51v3h1.34a2,2,0,0,0,.68-.11,1.58,1.58,0,0,0,.54-.32,1.45,1.45,0,0,0,.36-.51,1.71,1.71,0,0,0,.13-.68,1.32,1.32,0,0,0-.44-1.05,1.88,1.88,0,0,0-1.26-.38Z" fill="#fff"/><path d="M36.44,12.24H32.2a2.24,2.24,0,0,0,.54,1.55,1.86,1.86,0,0,0,1.42.54A3,3,0,0,0,36,13.66v.9a3.48,3.48,0,0,1-2.09.57,2.54,2.54,0,0,1-2-.82,3.35,3.35,0,0,1-.73-2.3A3.28,3.28,0,0,1,32,9.74a2.55,2.55,0,0,1,2-.88,2.26,2.26,0,0,1,1.82.76,3.18,3.18,0,0,1,.64,2.12Zm-1-.81a2,2,0,0,0-.4-1.29A1.37,1.37,0,0,0,34,9.67a1.55,1.55,0,0,0-1.15.49,2.21,2.21,0,0,0-.59,1.27Z" fill="#fff"/><path d="M42,14.72a3.12,3.12,0,0,1-1.64.42,2.72,2.72,0,0,1-2.07-.83,3,3,0,0,1-.79-2.17,3.33,3.33,0,0,1,.85-2.38,3,3,0,0,1,2.27-.9A3.16,3.16,0,0,1,42,9.15v1a2.44,2.44,0,0,0-1.43-.47,1.93,1.93,0,0,0-1.51.66,2.5,2.5,0,0,0-.59,1.73A2.38,2.38,0,0,0,39,13.72a1.91,1.91,0,0,0,1.49.61A2.41,2.41,0,0,0,42,13.81Z" fill="#fff"/><path d="M45.94,15.14a2.78,2.78,0,0,1-2.12-.84A3.11,3.11,0,0,1,43,12.07a3.24,3.24,0,0,1,.83-2.36,3,3,0,0,1,2.23-.85,2.69,2.69,0,0,1,2.09.83A3.28,3.28,0,0,1,48.93,12a3.22,3.22,0,0,1-.81,2.3A2.84,2.84,0,0,1,45.94,15.14ZM46,9.67a1.83,1.83,0,0,0-1.46.63A2.59,2.59,0,0,0,44,12a2.45,2.45,0,0,0,.54,1.68,1.85,1.85,0,0,0,1.46.62,1.76,1.76,0,0,0,1.43-.6,2.62,2.62,0,0,0,.5-1.72,2.66,2.66,0,0,0-.5-1.73A1.75,1.75,0,0,0,46,9.67Z" fill="#fff"/><path d="M53.6,10a1.18,1.18,0,0,0-.73-.19,1.23,1.23,0,0,0-1,.58,2.68,2.68,0,0,0-.41,1.58V15h-1V9h1v1.24h0a2.1,2.1,0,0,1,.63-1A1.43,1.43,0,0,1,53,8.89,1.57,1.57,0,0,1,53.6,9Z" fill="#fff"/><path d="M59.6,15h-1V14h0a2.22,2.22,0,0,1-2.06,1.16,2.24,2.24,0,0,1-1.81-.81,3.31,3.31,0,0,1-.68-2.19,3.6,3.6,0,0,1,.75-2.38,2.47,2.47,0,0,1,2-.9,1.92,1.92,0,0,1,1.8,1h0V6.12h1Zm-1-2.71V11.4a1.72,1.72,0,0,0-.48-1.23,1.61,1.61,0,0,0-1.22-.5,1.66,1.66,0,0,0-1.38.64,2.82,2.82,0,0,0-.5,1.78,2.54,2.54,0,0,0,.48,1.64,1.58,1.58,0,0,0,1.3.6,1.64,1.64,0,0,0,1.3-.58A2.16,2.16,0,0,0,58.64,12.29Z" fill="#fff"/><path d="M66.15,0V22h23V0Zm22,21h-21V1h21Z" fill="#4384b7"/><path d="M4.65,3V19h16V3Zm7.43,7.89L5.65,17.34V4.45ZM6.31,4H19.08l-6.38,6.4Zm6.38,7.63L19,18H6.34Zm.61-.74,6.35-6.37V17.26Z" fill="#fff"/></svg>