<svg id="Layer_1" data-name="Layer 1" xmlns="http://www.w3.org/2000/svg" xmlns:xlink="http://www.w3.org/1999/xlink" width="126" height="22" viewBox="0 0 126 22"><defs><linearGradient id="linear-gradient" x1="63" y1="0.5" x2="63" y2="21.5" gradientUnits="userSpaceOnUse"><stop offset="0" stop-color="#ebe9ec"/><stop offset="0.28" stop-color="#e5e6e9"/><stop offset="1" stop-color="#dadfe2"/></linearGradient></defs><title>split-button-normal</title><rect x="0.5" y="0.5" width="125" height="21" fill="url(#linear-gradient)"/><path d="M125,1V21H1V1H125m1-1H0V22H126V0Z" fill="#a9acaf"/><path d="M111,8h9l-4.5,6Z" fill="#696e73" opacity="0.8"/><path d="M17.82,14.85a4.93,4.93,0,0,1-2.32.49,3.74,3.74,0,0,1-2.87-1.15,4.26,4.26,0,0,1-1.08-3A4.46,4.46,0,0,1,12.76,7.9a4.12,4.12,0,0,1,3.08-1.24,4.93,4.93,0,0,1,2,.35v1a4,4,0,0,0-2-.5,3.06,3.06,0,0,0-2.35,1,3.64,3.64,0,0,0-.9,2.58,3.47,3.47,0,0,0,.84,2.45,2.86,2.86,0,0,0,2.21.91,4.14,4.14,0,0,0,2.19-.56Z" fill="#2b3033"/><path d="M22.53,10.17a1.18,1.18,0,0,0-.73-.19,1.23,1.23,0,0,0-1,.58,2.68,2.68,0,0,0-.41,1.58V15.2h-1v-6h1v1.24h0a2.1,2.1,0,0,1,.63-1A1.43,1.43,0,0,1,22,9.1a1.57,1.57,0,0,1,.57.08Z" fill="#2b3033"/><path d="M28.24,12.44H24A2.24,2.24,0,0,0,24.54,14a1.86,1.86,0,0,0,1.42.54,3,3,0,0,0,1.86-.67v.9a3.48,3.48,0,0,1-2.09.57,2.54,2.54,0,0,1-2-.82,3.35,3.35,0,0,1-.73-2.3,3.28,3.28,0,0,1,.79-2.28,2.55,2.55,0,0,1,2-.88,2.26,2.26,0,0,1,1.82.76,3.18,3.18,0,0,1,.64,2.12Zm-1-.81a2,2,0,0,0-.4-1.29,1.37,1.37,0,0,0-1.1-.46,1.55,1.55,0,0,0-1.15.49A2.21,2.21,0,0,0,24,11.63Z" fill="#2b3033"/><path d="M34,15.2H33v-.94h0a2,2,0,0,1-1.85,1.08,2,2,0,0,1-1.4-.47,1.64,1.64,0,0,1-.51-1.26q0-1.68,2-2L33,11.4q0-1.53-1.24-1.53a3,3,0,0,0-2,.74v-1a3.72,3.72,0,0,1,2-.56Q34,9.06,34,11.3Zm-1-3-1.45.2a2.35,2.35,0,0,0-1,.33,1,1,0,0,0-.34.84.92.92,0,0,0,.31.72,1.21,1.21,0,0,0,.83.28,1.54,1.54,0,0,0,1.18-.5A1.79,1.79,0,0,0,33,12.76Z" fill="#2b3033"/><path d="M38.58,15.14a1.85,1.85,0,0,1-.9.19q-1.58,0-1.58-1.76V10h-1V9.2h1V7.74l1-.31V9.2h1.51V10H37.07V13.4a1.4,1.4,0,0,0,.21.86.82.82,0,0,0,.68.26,1,1,0,0,0,.63-.2Z" fill="#2b3033"/><path d="M44.59,12.44H40.36A2.24,2.24,0,0,0,40.9,14a1.86,1.86,0,0,0,1.42.54,3,3,0,0,0,1.86-.67v.9a3.48,3.48,0,0,1-2.09.57,2.54,2.54,0,0,1-2-.82,3.35,3.35,0,0,1-.73-2.3,3.28,3.28,0,0,1,.79-2.28,2.55,2.55,0,0,1,2-.88,2.26,2.26,0,0,1,1.82.76,3.18,3.18,0,0,1,.64,2.12Zm-1-.81a2,2,0,0,0-.4-1.29,1.37,1.37,0,0,0-1.1-.46,1.55,1.55,0,0,0-1.15.49,2.21,2.21,0,0,0-.59,1.27Z" fill="#2b3033"/><path d="M53.63,15.2h-1v-.94h0a2,2,0,0,1-1.85,1.08,2,2,0,0,1-1.4-.47,1.64,1.64,0,0,1-.51-1.26q0-1.68,2-2l1.8-.25q0-1.53-1.24-1.53a3,3,0,0,0-2,.74v-1a3.72,3.72,0,0,1,2-.56q2.12,0,2.12,2.24Zm-1-3-1.45.2a2.35,2.35,0,0,0-1,.33,1,1,0,0,0-.34.84.92.92,0,0,0,.31.72,1.21,1.21,0,0,0,.83.28A1.54,1.54,0,0,0,52.2,14a1.79,1.79,0,0,0,.47-1.27Z" fill="#2b3033"/><path d="M56.4,15.2h-1V6.32h1Z" fill="#2b3033"/><path d="M59.31,15.2h-1V6.32h1Z" fill="#2b3033"/><rect x="105" y="1" width="1" height="20" fill="#a9acaf"/></svg>