<svg id="Layer_1" data-name="Layer 1" xmlns="http://www.w3.org/2000/svg" xmlns:xlink="http://www.w3.org/1999/xlink" width="104.5" height="42" viewBox="0 0 104.5 42"><defs><linearGradient id="linear-gradient" x1="52" y1="7.66" x2="52" y2="31.24" gradientUnits="userSpaceOnUse"><stop offset="0" stop-color="#ebe9ec"/><stop offset="0.28" stop-color="#e5e6e9"/><stop offset="1" stop-color="#dadfe2"/></linearGradient><linearGradient id="linear-gradient-2" y1="19.5" x2="15" y2="19.5" gradientUnits="userSpaceOnUse"><stop offset="0" stop-color="#eef0ef"/><stop offset="0.11" stop-color="#eef0ef" stop-opacity="0.98"/><stop offset="0.24" stop-color="#eef0ef" stop-opacity="0.92"/><stop offset="0.38" stop-color="#eef0ef" stop-opacity="0.83"/><stop offset="0.52" stop-color="#eef0ef" stop-opacity="0.69"/><stop offset="0.66" stop-color="#eef0ef" stop-opacity="0.52"/><stop offset="0.81" stop-color="#eef0ef" stop-opacity="0.31"/><stop offset="0.96" stop-color="#eef0ef" stop-opacity="0.06"/><stop offset="1" stop-color="#eef0ef" stop-opacity="0"/></linearGradient><linearGradient id="linear-gradient-3" x1="3301.5" y1="-2157.51" x2="3322" y2="-2157.51" gradientTransform="translate(-3217.5 2180.01)" xlink:href="#linear-gradient-2"/><linearGradient id="linear-gradient-4" x1="50" y1="9.04" x2="50" y2="28.96" xlink:href="#linear-gradient"/></defs><title>split-button-small-normal</title><rect x="2" y="7" width="100" height="24" fill="url(#linear-gradient)"/><path d="M1,6V32H103V6ZM102,31H2V7H102Z" fill="#a8abae"/><rect width="15" height="39" fill="url(#linear-gradient-2)"/><rect x="84" y="3" width="20.5" height="39" transform="translate(188.5 45) rotate(180)" fill="url(#linear-gradient-3)"/><rect x="17" y="8.99" width="66" height="20" fill="url(#linear-gradient-4)"/><path d="M68,16h9l-4.5,6Z" fill="#4d5359" opacity="0.8"/><path d="M28.13,23H27l-1.41-2.36a5.13,5.13,0,0,0-.37-.56,2.14,2.14,0,0,0-.37-.38,1.29,1.29,0,0,0-.41-.21,1.69,1.69,0,0,0-.5-.07h-.81V23h-1V14.6h2.51a3.57,3.57,0,0,1,1,.14,2.27,2.27,0,0,1,.81.42,2,2,0,0,1,.54.7,2.32,2.32,0,0,1,.19,1,2.36,2.36,0,0,1-.13.81,2.1,2.1,0,0,1-.37.65,2.27,2.27,0,0,1-.59.49,3,3,0,0,1-.77.31v0a1.77,1.77,0,0,1,.37.21,2,2,0,0,1,.3.28,3.76,3.76,0,0,1,.28.37l.31.48Zm-5-7.51v3h1.34a2,2,0,0,0,.68-.11,1.58,1.58,0,0,0,.54-.32,1.45,1.45,0,0,0,.36-.51,1.71,1.71,0,0,0,.13-.68,1.32,1.32,0,0,0-.44-1.05,1.88,1.88,0,0,0-1.26-.38Z" fill="#4d5359"/><path d="M33.64,20.24H29.41a2.24,2.24,0,0,0,.54,1.55,1.86,1.86,0,0,0,1.42.54,3,3,0,0,0,1.86-.67v.9a3.48,3.48,0,0,1-2.09.57,2.54,2.54,0,0,1-2-.82,3.35,3.35,0,0,1-.73-2.3,3.28,3.28,0,0,1,.79-2.28,2.55,2.55,0,0,1,2-.88,2.26,2.26,0,0,1,1.82.76,3.18,3.18,0,0,1,.64,2.12Zm-1-.81a2,2,0,0,0-.4-1.29,1.37,1.37,0,0,0-1.1-.46,1.55,1.55,0,0,0-1.15.49,2.21,2.21,0,0,0-.59,1.27Z" fill="#4d5359"/><path d="M39.19,22.72a3.12,3.12,0,0,1-1.64.42,2.72,2.72,0,0,1-2.07-.83,3,3,0,0,1-.79-2.17,3.33,3.33,0,0,1,.85-2.38,3,3,0,0,1,2.27-.9,3.16,3.16,0,0,1,1.39.29v1a2.44,2.44,0,0,0-1.43-.47,1.93,1.93,0,0,0-1.51.66,2.5,2.5,0,0,0-.59,1.73,2.38,2.38,0,0,0,.55,1.66,1.91,1.91,0,0,0,1.49.61,2.41,2.41,0,0,0,1.48-.52Z" fill="#4d5359"/><path d="M43.15,23.14A2.78,2.78,0,0,1,41,22.3a3.11,3.11,0,0,1-.79-2.23,3.24,3.24,0,0,1,.83-2.36,3,3,0,0,1,2.23-.85,2.69,2.69,0,0,1,2.09.83A3.28,3.28,0,0,1,46.13,20a3.22,3.22,0,0,1-.81,2.3A2.84,2.84,0,0,1,43.15,23.14Zm.07-5.47a1.83,1.83,0,0,0-1.46.63A2.59,2.59,0,0,0,41.21,20a2.45,2.45,0,0,0,.54,1.68,1.85,1.85,0,0,0,1.46.62,1.76,1.76,0,0,0,1.43-.6,2.62,2.62,0,0,0,.5-1.72,2.66,2.66,0,0,0-.5-1.73A1.75,1.75,0,0,0,43.22,17.67Z" fill="#4d5359"/><path d="M50.8,18a1.18,1.18,0,0,0-.73-.19,1.23,1.23,0,0,0-1,.58,2.68,2.68,0,0,0-.41,1.58V23h-1V17h1v1.24h0a2.1,2.1,0,0,1,.63-1,1.43,1.43,0,0,1,.94-.35,1.57,1.57,0,0,1,.57.08Z" fill="#4d5359"/><path d="M56.8,23h-1V22h0a2.22,2.22,0,0,1-2.06,1.16,2.24,2.24,0,0,1-1.81-.81,3.31,3.31,0,0,1-.68-2.19A3.6,3.6,0,0,1,52,17.76a2.47,2.47,0,0,1,2-.9,1.92,1.92,0,0,1,1.8,1h0V14.12h1Zm-1-2.71V19.4a1.72,1.72,0,0,0-.48-1.23,1.61,1.61,0,0,0-1.22-.5,1.66,1.66,0,0,0-1.38.64,2.82,2.82,0,0,0-.5,1.78,2.54,2.54,0,0,0,.48,1.64,1.58,1.58,0,0,0,1.3.6,1.64,1.64,0,0,0,1.3-.58A2.16,2.16,0,0,0,55.84,20.29Z" fill="#4d5359"/></svg>