<svg id="Layer_1" data-name="Layer 1" xmlns="http://www.w3.org/2000/svg" width="131.38" height="183.2" viewBox="0 0 131.38 183.2"><title>split-button-visual-spec</title><rect x="8" y="162.19" width="64.14" height="20" fill="#fff"/><path d="M7,161.2v22H73.14v-22Zm65.15,21H8v-20H72.14Z" fill="#4384b7"/><path d="M79.14,169.2h9l-4.5,6Z" fill="#4d5359" opacity="0.8"/><path d="M36.27,176.2H35.1l-1.41-2.36a5.13,5.13,0,0,0-.37-.56,2.14,2.14,0,0,0-.37-.38,1.29,1.29,0,0,0-.41-.21,1.69,1.69,0,0,0-.5-.07h-.81v3.57h-1v-8.4h2.51a3.57,3.57,0,0,1,1,.14,2.27,2.27,0,0,1,.81.42,2,2,0,0,1,.54.7,2.32,2.32,0,0,1,.19,1,2.36,2.36,0,0,1-.13.81,2.1,2.1,0,0,1-.37.65,2.27,2.27,0,0,1-.59.49,3,3,0,0,1-.77.31v0a1.77,1.77,0,0,1,.37.21,2,2,0,0,1,.3.28,3.76,3.76,0,0,1,.28.37l.31.48Zm-5-7.51v3h1.34a2,2,0,0,0,.68-.11,1.58,1.58,0,0,0,.54-.32,1.45,1.45,0,0,0,.36-.51,1.71,1.71,0,0,0,.13-.68,1.32,1.32,0,0,0-.44-1.05,1.88,1.88,0,0,0-1.26-.38Z" fill="#4d5359"/><path d="M41.79,173.44H37.55a2.24,2.24,0,0,0,.54,1.55,1.86,1.86,0,0,0,1.42.54,3,3,0,0,0,1.86-.67v.9a3.48,3.48,0,0,1-2.09.57,2.54,2.54,0,0,1-2-.82,3.35,3.35,0,0,1-.73-2.3,3.28,3.28,0,0,1,.79-2.28,2.55,2.55,0,0,1,2-.88,2.26,2.26,0,0,1,1.82.76,3.18,3.18,0,0,1,.64,2.12Zm-1-.81a2,2,0,0,0-.4-1.29,1.37,1.37,0,0,0-1.1-.46,1.55,1.55,0,0,0-1.15.49,2.21,2.21,0,0,0-.59,1.27Z" fill="#4d5359"/><path d="M47.33,175.93a3.12,3.12,0,0,1-1.64.42,2.72,2.72,0,0,1-2.07-.83,3,3,0,0,1-.79-2.17,3.33,3.33,0,0,1,.85-2.38,3,3,0,0,1,2.27-.9,3.16,3.16,0,0,1,1.39.29v1a2.44,2.44,0,0,0-1.43-.47,1.93,1.93,0,0,0-1.51.66,2.5,2.5,0,0,0-.59,1.73,2.38,2.38,0,0,0,.55,1.66,1.91,1.91,0,0,0,1.49.61,2.41,2.41,0,0,0,1.48-.52Z" fill="#4d5359"/><path d="M51.29,176.34a2.78,2.78,0,0,1-2.12-.84,3.11,3.11,0,0,1-.79-2.23,3.24,3.24,0,0,1,.83-2.36,3,3,0,0,1,2.23-.85,2.69,2.69,0,0,1,2.09.83,3.28,3.28,0,0,1,.75,2.29,3.22,3.22,0,0,1-.81,2.3A2.84,2.84,0,0,1,51.29,176.34Zm.07-5.47a1.83,1.83,0,0,0-1.46.63,2.59,2.59,0,0,0-.54,1.74,2.45,2.45,0,0,0,.54,1.68,1.85,1.85,0,0,0,1.46.62,1.76,1.76,0,0,0,1.43-.6,2.62,2.62,0,0,0,.5-1.72,2.66,2.66,0,0,0-.5-1.73A1.75,1.75,0,0,0,51.36,170.87Z" fill="#4d5359"/><path d="M58.94,171.17a1.18,1.18,0,0,0-.73-.19,1.23,1.23,0,0,0-1,.58,2.68,2.68,0,0,0-.41,1.58v3.06h-1v-6h1v1.24h0a2.1,2.1,0,0,1,.63-1,1.43,1.43,0,0,1,.94-.35,1.57,1.57,0,0,1,.57.08Z" fill="#4d5359"/><path d="M64.95,176.2H64v-1h0a2.22,2.22,0,0,1-2.06,1.16,2.24,2.24,0,0,1-1.81-.81,3.31,3.31,0,0,1-.68-2.19,3.6,3.6,0,0,1,.75-2.38,2.47,2.47,0,0,1,2-.9,1.92,1.92,0,0,1,1.8,1h0v-3.71h1Zm-1-2.71v-.88a1.72,1.72,0,0,0-.48-1.23,1.61,1.61,0,0,0-1.22-.5,1.66,1.66,0,0,0-1.38.64,2.82,2.82,0,0,0-.5,1.78,2.54,2.54,0,0,0,.48,1.64,1.58,1.58,0,0,0,1.3.6,1.64,1.64,0,0,0,1.3-.58A2.16,2.16,0,0,0,64,173.49Z" fill="#4d5359"/><path d="M72.14,161.2v22h23v-22Zm22,21h-21v-20h21Z" fill="#4384b7"/><path d="M10,164.2v16H26v-16Zm7.43,7.89L11,178.54V165.65Zm-5.77-6.89H24.42L18,171.6ZM18,172.83l6.35,6.37H11.69Zm.61-.74L25,165.73v12.73Z" fill="#a8abae"/><path d="M109,164.2v16h16v-16Zm7.43,7.89L110,178.54V165.65Zm-5.77-6.89h12.77L117,171.6Zm6.38,7.63,6.35,6.37h-12.7Zm.61-.74,6.35-6.37v12.73Z" fill="#a8abae"/><rect x="11" y="19.19" width="45" height="20" fill="#fff"/><path d="M10,18.2v22H57v-22Zm46,21H11v-20H56Z" fill="#4384b7"/><path d="M63,26.2h9l-4.5,6Z" fill="#4d5359" opacity="0.8"/><path d="M96,26.2h9l-4.5,6Z" fill="#4d5359" opacity="0.8"/><path d="M22.12,33.2H21l-1.41-2.36a5.13,5.13,0,0,0-.37-.56,2.14,2.14,0,0,0-.37-.38,1.29,1.29,0,0,0-.41-.21,1.69,1.69,0,0,0-.5-.07h-.81V33.2h-1V24.8h2.51a3.57,3.57,0,0,1,1,.14,2.27,2.27,0,0,1,.81.42,2,2,0,0,1,.54.7,2.32,2.32,0,0,1,.19,1,2.36,2.36,0,0,1-.13.81,2.1,2.1,0,0,1-.37.65,2.27,2.27,0,0,1-.59.49,3,3,0,0,1-.77.31v0a1.77,1.77,0,0,1,.37.21,2,2,0,0,1,.3.28,3.76,3.76,0,0,1,.28.37l.31.48Zm-5-7.51v3h1.34a2,2,0,0,0,.68-.11,1.58,1.58,0,0,0,.54-.32A1.45,1.45,0,0,0,20,27.8a1.71,1.71,0,0,0,.13-.68,1.32,1.32,0,0,0-.44-1.05,1.88,1.88,0,0,0-1.26-.38Z" fill="#4d5359"/><path d="M27.64,30.44H23.4A2.24,2.24,0,0,0,23.94,32a1.86,1.86,0,0,0,1.42.54,3,3,0,0,0,1.86-.67v.9a3.48,3.48,0,0,1-2.09.57,2.54,2.54,0,0,1-2-.82,3.35,3.35,0,0,1-.73-2.3,3.28,3.28,0,0,1,.79-2.28,2.55,2.55,0,0,1,2-.88,2.26,2.26,0,0,1,1.82.76,3.18,3.18,0,0,1,.64,2.12Zm-1-.81a2,2,0,0,0-.4-1.29,1.37,1.37,0,0,0-1.1-.46,1.55,1.55,0,0,0-1.15.49,2.21,2.21,0,0,0-.59,1.27Z" fill="#4d5359"/><path d="M33.18,32.93a3.12,3.12,0,0,1-1.64.42,2.72,2.72,0,0,1-2.07-.83,3,3,0,0,1-.79-2.17A3.33,3.33,0,0,1,29.53,28a3,3,0,0,1,2.27-.9,3.16,3.16,0,0,1,1.39.29v1a2.44,2.44,0,0,0-1.43-.47,1.93,1.93,0,0,0-1.51.66,2.5,2.5,0,0,0-.59,1.73,2.38,2.38,0,0,0,.55,1.66,1.91,1.91,0,0,0,1.49.61A2.41,2.41,0,0,0,33.18,32Z" fill="#4d5359"/><path d="M37.14,33.34A2.78,2.78,0,0,1,35,32.5a3.11,3.11,0,0,1-.79-2.23,3.24,3.24,0,0,1,.83-2.36,3,3,0,0,1,2.23-.85,2.69,2.69,0,0,1,2.09.83,3.28,3.28,0,0,1,.75,2.29,3.22,3.22,0,0,1-.81,2.3A2.84,2.84,0,0,1,37.14,33.34Zm.07-5.47a1.83,1.83,0,0,0-1.46.63,2.59,2.59,0,0,0-.54,1.74,2.45,2.45,0,0,0,.54,1.68,1.85,1.85,0,0,0,1.46.62,1.76,1.76,0,0,0,1.43-.6,2.62,2.62,0,0,0,.5-1.72,2.66,2.66,0,0,0-.5-1.73A1.75,1.75,0,0,0,37.21,27.87Z" fill="#4d5359"/><path d="M44.79,28.17a1.18,1.18,0,0,0-.73-.19,1.23,1.23,0,0,0-1,.58,2.68,2.68,0,0,0-.41,1.58V33.2h-1v-6h1v1.24h0a2.1,2.1,0,0,1,.63-1,1.43,1.43,0,0,1,.94-.35,1.57,1.57,0,0,1,.57.08Z" fill="#4d5359"/><path d="M50.8,33.2h-1v-1h0a2.22,2.22,0,0,1-2.06,1.16,2.24,2.24,0,0,1-1.81-.81,3.31,3.31,0,0,1-.68-2.19A3.6,3.6,0,0,1,46,28a2.47,2.47,0,0,1,2-.9,1.92,1.92,0,0,1,1.8,1h0V24.32h1Zm-1-2.71V29.6a1.72,1.72,0,0,0-.48-1.23,1.61,1.61,0,0,0-1.22-.5,1.66,1.66,0,0,0-1.38.64,2.82,2.82,0,0,0-.5,1.78,2.54,2.54,0,0,0,.48,1.64,1.58,1.58,0,0,0,1.3.6,1.64,1.64,0,0,0,1.3-.58A2.16,2.16,0,0,0,49.84,30.49Z" fill="#4d5359"/><path d="M56,18.2v22H78v-22Zm21,21H57v-20H77Z" fill="#4384b7"/><path d="M55.68,7.63a2.83,2.83,0,0,1-.21,1.11,2.43,2.43,0,0,1-.6.86,2.69,2.69,0,0,1-.94.55,3.68,3.68,0,0,1-1.22.19A3.38,3.38,0,0,1,51,10V9a3.2,3.2,0,0,0,1.75.55,2.37,2.37,0,0,0,.82-.13A1.83,1.83,0,0,0,54.16,9a1.61,1.61,0,0,0,.4-.58,2,2,0,0,0,.14-.74,1.59,1.59,0,0,0-.55-1.29,2.42,2.42,0,0,0-1.6-.47h-.73l-.37,0-.33,0,.29-4.21h3.88v.87H52.24l-.17,2.47.4,0h.38a3.77,3.77,0,0,1,1.2.18,2.53,2.53,0,0,1,.89.5,2.1,2.1,0,0,1,.56.8A2.8,2.8,0,0,1,55.68,7.63Z" fill="#7f3f96"/><rect x="55" y="11.2" width="1" height="20" fill="#7f3f96"/><rect x="51" y="11.2" width="1" height="20" fill="#7f3f96"/><rect x="51" y="11.2" width="5" height="1" fill="#7f3f96"/><path d="M15.68,7.63a2.83,2.83,0,0,1-.21,1.11,2.43,2.43,0,0,1-.6.86,2.69,2.69,0,0,1-.94.55,3.68,3.68,0,0,1-1.22.19A3.38,3.38,0,0,1,11,10V9a3.2,3.2,0,0,0,1.75.55,2.37,2.37,0,0,0,.82-.13A1.83,1.83,0,0,0,14.16,9a1.61,1.61,0,0,0,.4-.58,2,2,0,0,0,.14-.74,1.59,1.59,0,0,0-.55-1.29,2.42,2.42,0,0,0-1.6-.47h-.73l-.37,0-.33,0,.29-4.21h3.88v.87H12.24l-.17,2.47.4,0h.38a3.77,3.77,0,0,1,1.2.18,2.53,2.53,0,0,1,.89.5,2.1,2.1,0,0,1,.56.8A2.8,2.8,0,0,1,15.68,7.63Z" fill="#7f3f96"/><rect x="15" y="11.2" width="1" height="20" fill="#7f3f96"/><rect x="11" y="11.2" width="1" height="20" fill="#7f3f96"/><rect x="11" y="11.2" width="5" height="1" fill="#7f3f96"/><path d="M4.52,170a1.74,1.74,0,0,0-.12-.67,1.3,1.3,0,0,0-.82-.76,1.92,1.92,0,0,0-.61-.09,2,2,0,0,0-.55.08,2.68,2.68,0,0,0-.52.21,3.23,3.23,0,0,0-.49.32,3.56,3.56,0,0,0-.44.42v-1a2.87,2.87,0,0,1,.91-.6,3.19,3.19,0,0,1,1.22-.21,3,3,0,0,1,1,.15,2.19,2.19,0,0,1,.76.44,2,2,0,0,1,.51.71,2.39,2.39,0,0,1,.18,1,3.32,3.32,0,0,1-.11.9,2.79,2.79,0,0,1-.35.76,3.68,3.68,0,0,1-.58.69,8.26,8.26,0,0,1-.83.67q-.59.42-1,.72a4.31,4.31,0,0,0-.61.56,1.62,1.62,0,0,0-.32.52,1.82,1.82,0,0,0-.09.6H5.82v.86H.64v-.42a3.47,3.47,0,0,1,.12-.95,2.46,2.46,0,0,1,.39-.78,4.32,4.32,0,0,1,.71-.74q.44-.37,1.07-.83a6.76,6.76,0,0,0,.76-.63,3.26,3.26,0,0,0,.5-.6,2.15,2.15,0,0,0,.27-.61A2.61,2.61,0,0,0,4.52,170Z" fill="#7f3f96"/><path d="M29,140.8v5.55h1.08v.88H29v2H28v-2H24.08v-.83q.55-.62,1.11-1.33t1.08-1.43q.51-.73.95-1.45A13.25,13.25,0,0,0,28,140.8Zm-3.81,5.55H28v-4.11q-.44.77-.83,1.37t-.75,1.1q-.35.49-.68.89Z" fill="#7f3f96"/><rect x="29" y="150.2" width="1" height="20" fill="#7f3f96"/><rect x="26" y="150.2" width="1" height="20" fill="#7f3f96"/><rect x="26" y="150.2" width="4" height="1" fill="#7f3f96"/><path d="M61.68,7.63a2.83,2.83,0,0,1-.21,1.11,2.43,2.43,0,0,1-.6.86,2.69,2.69,0,0,1-.94.55,3.68,3.68,0,0,1-1.22.19A3.38,3.38,0,0,1,57,10V9a3.2,3.2,0,0,0,1.75.55,2.37,2.37,0,0,0,.82-.13A1.83,1.83,0,0,0,60.16,9a1.61,1.61,0,0,0,.4-.58,2,2,0,0,0,.14-.74,1.59,1.59,0,0,0-.55-1.29,2.42,2.42,0,0,0-1.6-.47h-.73l-.37,0-.33,0,.29-4.21h3.88v.87H58.24l-.17,2.47.4,0h.38a3.77,3.77,0,0,1,1.2.18,2.53,2.53,0,0,1,.89.5,2.1,2.1,0,0,1,.56.8A2.8,2.8,0,0,1,61.68,7.63Z" fill="#7f3f96"/><rect x="61" y="11.2" width="1" height="20" fill="#7f3f96"/><rect x="57" y="11.2" width="1" height="20" fill="#7f3f96"/><rect x="57" y="11.2" width="5" height="1" fill="#7f3f96"/><path d="M76.68,7.63a2.83,2.83,0,0,1-.21,1.11,2.43,2.43,0,0,1-.6.86,2.69,2.69,0,0,1-.94.55,3.68,3.68,0,0,1-1.22.19A3.38,3.38,0,0,1,72,10V9a3.2,3.2,0,0,0,1.75.55,2.37,2.37,0,0,0,.82-.13A1.83,1.83,0,0,0,75.16,9a1.61,1.61,0,0,0,.4-.58,2,2,0,0,0,.14-.74,1.59,1.59,0,0,0-.55-1.29,2.42,2.42,0,0,0-1.6-.47h-.73l-.37,0-.33,0,.29-4.21h3.88v.87H73.24l-.17,2.47.4,0h.38a3.77,3.77,0,0,1,1.2.18,2.53,2.53,0,0,1,.89.5,2.1,2.1,0,0,1,.56.8A2.8,2.8,0,0,1,76.68,7.63Z" fill="#7f3f96"/><path d="M97.88,17.5a8.37,8.37,0,0,1-.23,2.05A4.58,4.58,0,0,1,97,21.07a3,3,0,0,1-1.07.95,3.11,3.11,0,0,1-1.44.33A3.45,3.45,0,0,1,93,22.05v-.92a3,3,0,0,0,1.49.39,2.16,2.16,0,0,0,1-.23,2.11,2.11,0,0,0,.76-.68,3.35,3.35,0,0,0,.47-1.1A6.24,6.24,0,0,0,96.91,18h0A1.92,1.92,0,0,1,95,19.08a2.52,2.52,0,0,1-1-.19,2.27,2.27,0,0,1-.78-.54,2.47,2.47,0,0,1-.51-.83,3,3,0,0,1-.18-1.06,3.09,3.09,0,0,1,.2-1.14,2.65,2.65,0,0,1,.56-.89,2.52,2.52,0,0,1,.86-.58,2.8,2.8,0,0,1,1.08-.21,2.39,2.39,0,0,1,1.12.25,2.25,2.25,0,0,1,.82.74,3.68,3.68,0,0,1,.51,1.2A6.87,6.87,0,0,1,97.88,17.5Zm-1-.86a2.93,2.93,0,0,0-.13-.88,2.14,2.14,0,0,0-.35-.68,1.56,1.56,0,0,0-.53-.44,1.47,1.47,0,0,0-.67-.16,1.52,1.52,0,0,0-.64.14A1.55,1.55,0,0,0,94,15a1.85,1.85,0,0,0-.35.59,2.15,2.15,0,0,0-.13.75,2.46,2.46,0,0,0,.12.8,1.66,1.66,0,0,0,.34.59,1.48,1.48,0,0,0,.54.37,1.81,1.81,0,0,0,.69.13,1.59,1.59,0,0,0,.63-.13,1.67,1.67,0,0,0,.52-.34,1.57,1.57,0,0,0,.35-.5A1.55,1.55,0,0,0,96.85,16.63Z" fill="#7f3f96"/><path d="M103.82,16.2l-2,3,2,3h-1.12l-1.18-1.95-.26-.46h0l-.28.46-1.2,1.95H98.62l2-2.94-2-3.06h1.12L101,18.25l.25.47h0l1.5-2.52Z" fill="#7f3f96"/><path d="M110,19.53a3.11,3.11,0,0,1-.2,1.13,2.72,2.72,0,0,1-.55.89,2.46,2.46,0,0,1-.84.58,2.65,2.65,0,0,1-1.05.21,2.33,2.33,0,0,1-2-1,3.64,3.64,0,0,1-.53-1.21,6.56,6.56,0,0,1-.18-1.61,7.57,7.57,0,0,1,.24-2,4.83,4.83,0,0,1,.69-1.53,3.19,3.19,0,0,1,1.08-1,2.9,2.9,0,0,1,1.41-.35,3.4,3.4,0,0,1,1.39.24v.91a3,3,0,0,0-1.37-.33,2,2,0,0,0-1,.25,2.33,2.33,0,0,0-.77.71,3.47,3.47,0,0,0-.5,1.11,5.63,5.63,0,0,0-.17,1.45h0a2,2,0,0,1,1.92-1,2.52,2.52,0,0,1,1,.19,2.14,2.14,0,0,1,.76.53,2.39,2.39,0,0,1,.48.82A3.11,3.11,0,0,1,110,19.53Zm-1,.12a2.61,2.61,0,0,0-.11-.79,1.72,1.72,0,0,0-.32-.6,1.38,1.38,0,0,0-.51-.38,1.73,1.73,0,0,0-.69-.13,1.62,1.62,0,0,0-.66.13,1.65,1.65,0,0,0-.53.37,1.71,1.71,0,0,0-.47,1.19,2.61,2.61,0,0,0,.12.81,2.1,2.1,0,0,0,.35.66,1.64,1.64,0,0,0,.53.44,1.45,1.45,0,0,0,.68.16,1.56,1.56,0,0,0,.66-.14,1.48,1.48,0,0,0,.51-.38,1.78,1.78,0,0,0,.33-.59A2.33,2.33,0,0,0,109,19.66Z" fill="#7f3f96"/><path d="M104.24,161.2h-1v-7.26a2.22,2.22,0,0,1-.33.25,5.3,5.3,0,0,1-.48.28q-.27.14-.56.26a4.09,4.09,0,0,1-.58.19v-1a5.59,5.59,0,0,0,.67-.24q.35-.15.7-.33t.65-.39a5.14,5.14,0,0,0,.53-.4h.36Z" fill="#7f3f96"/><path d="M112.46,158.53a3.11,3.11,0,0,1-.2,1.13,2.72,2.72,0,0,1-.55.89,2.46,2.46,0,0,1-.84.58,2.65,2.65,0,0,1-1.05.21,2.33,2.33,0,0,1-2-1,3.64,3.64,0,0,1-.53-1.21,6.56,6.56,0,0,1-.18-1.61,7.57,7.57,0,0,1,.24-2,4.83,4.83,0,0,1,.69-1.53,3.19,3.19,0,0,1,1.08-1,2.9,2.9,0,0,1,1.41-.35,3.4,3.4,0,0,1,1.39.24v.91a3,3,0,0,0-1.37-.33,2,2,0,0,0-1,.25,2.33,2.33,0,0,0-.77.71,3.47,3.47,0,0,0-.5,1.11,5.63,5.63,0,0,0-.17,1.45h0a2,2,0,0,1,1.92-1,2.52,2.52,0,0,1,1,.19,2.14,2.14,0,0,1,.76.53,2.39,2.39,0,0,1,.48.82A3.11,3.11,0,0,1,112.46,158.53Zm-1,.12a2.61,2.61,0,0,0-.11-.79,1.72,1.72,0,0,0-.32-.6,1.38,1.38,0,0,0-.51-.38,1.73,1.73,0,0,0-.69-.13,1.62,1.62,0,0,0-.66.13,1.65,1.65,0,0,0-.53.37,1.71,1.71,0,0,0-.47,1.19,2.61,2.61,0,0,0,.12.81,2.1,2.1,0,0,0,.35.66,1.64,1.64,0,0,0,.53.44,1.45,1.45,0,0,0,.68.16,1.56,1.56,0,0,0,.66-.14A1.48,1.48,0,0,0,111,160a1.78,1.78,0,0,0,.33-.59A2.33,2.33,0,0,0,111.47,158.66Z" fill="#7f3f96"/><path d="M118.29,155.2l-2,3,2,3h-1.12L116,159.26l-.26-.46h0l-.28.46-1.2,1.95h-1.11l2-2.94-2-3.06h1.12l1.16,2.05.25.47h0l1.5-2.52Z" fill="#7f3f96"/><path d="M122.69,161.2h-1v-7.26a2.22,2.22,0,0,1-.33.25,5.3,5.3,0,0,1-.48.28q-.27.14-.56.26a4.09,4.09,0,0,1-.58.19v-1a5.59,5.59,0,0,0,.67-.24q.35-.15.7-.33t.65-.39a5.14,5.14,0,0,0,.53-.4h.36Z" fill="#7f3f96"/><path d="M130.9,158.53a3.11,3.11,0,0,1-.2,1.13,2.72,2.72,0,0,1-.55.89,2.46,2.46,0,0,1-.84.58,2.65,2.65,0,0,1-1.05.21,2.33,2.33,0,0,1-2-1,3.64,3.64,0,0,1-.53-1.21,6.56,6.56,0,0,1-.18-1.61,7.57,7.57,0,0,1,.24-2,4.83,4.83,0,0,1,.69-1.53,3.19,3.19,0,0,1,1.08-1,2.9,2.9,0,0,1,1.41-.35,3.4,3.4,0,0,1,1.39.24v.91a3,3,0,0,0-1.37-.33,2,2,0,0,0-1,.25,2.33,2.33,0,0,0-.77.71,3.47,3.47,0,0,0-.5,1.11,5.63,5.63,0,0,0-.17,1.45h0a2,2,0,0,1,1.92-1,2.52,2.52,0,0,1,1,.19,2.14,2.14,0,0,1,.76.53,2.39,2.39,0,0,1,.48.82A3.11,3.11,0,0,1,130.9,158.53Zm-1,.12a2.61,2.61,0,0,0-.11-.79,1.72,1.72,0,0,0-.32-.6,1.38,1.38,0,0,0-.51-.38,1.73,1.73,0,0,0-.69-.13,1.62,1.62,0,0,0-.66.13,1.65,1.65,0,0,0-.53.37,1.71,1.71,0,0,0-.47,1.19,2.61,2.61,0,0,0,.12.81,2.1,2.1,0,0,0,.35.66,1.64,1.64,0,0,0,.53.44,1.45,1.45,0,0,0,.68.16,1.56,1.56,0,0,0,.66-.14,1.48,1.48,0,0,0,.51-.38,1.78,1.78,0,0,0,.33-.59A2.33,2.33,0,0,0,129.92,158.66Z" fill="#7f3f96"/><rect x="76" y="11.2" width="1" height="20" fill="#7f3f96"/><rect x="72" y="11.2" width="1" height="20" fill="#7f3f96"/><rect x="72" y="11.2" width="5" height="1" fill="#7f3f96"/><path d="M9.65,66.87V65.43a2.22,2.22,0,0,0,.46.32,3.55,3.55,0,0,0,.57.24,4.46,4.46,0,0,0,.6.15,3.19,3.19,0,0,0,.55.05,2.35,2.35,0,0,0,1.31-.29,1,1,0,0,0,.43-.85.93.93,0,0,0-.14-.52,1.51,1.51,0,0,0-.4-.4,4.22,4.22,0,0,0-.61-.35l-.75-.35q-.43-.23-.8-.46a3.43,3.43,0,0,1-.64-.52,2.17,2.17,0,0,1-.43-.64A2.09,2.09,0,0,1,9.64,61a1.93,1.93,0,0,1,.27-1,2.25,2.25,0,0,1,.7-.72,3.22,3.22,0,0,1,1-.42,4.72,4.72,0,0,1,1.14-.14,4.59,4.59,0,0,1,1.92.3v1.38a3.07,3.07,0,0,0-1.84-.52,3.3,3.3,0,0,0-.62.06,1.84,1.84,0,0,0-.55.19,1.19,1.19,0,0,0-.4.35.85.85,0,0,0-.15.51,1,1,0,0,0,.12.49,1.25,1.25,0,0,0,.34.38,3.5,3.5,0,0,0,.55.33l.75.35q.44.23.83.48a3.91,3.91,0,0,1,.69.56,2.45,2.45,0,0,1,.47.68A2,2,0,0,1,15,65a2,2,0,0,1-1,1.79,3.09,3.09,0,0,1-1,.4,5.67,5.67,0,0,1-1.2.12l-.52,0-.63-.09a5.79,5.79,0,0,1-.61-.15A1.93,1.93,0,0,1,9.65,66.87Z" fill="#72be44"/><path d="M17.1,59.94a.82.82,0,0,1-.57-.22.71.71,0,0,1-.24-.55.73.73,0,0,1,.24-.56.81.81,0,0,1,.57-.22.83.83,0,0,1,.59.22.73.73,0,0,1,.24.56.72.72,0,0,1-.24.54A.82.82,0,0,1,17.1,59.94Zm.67,7.26H16.42v-6h1.36Z" fill="#72be44"/><path d="M24,61.77l-3.24,4.37H24V67.2H18.84v-.51l3.31-4.43h-3V61.2H24Z" fill="#72be44"/><path d="M30.2,64.57H26.11a1.73,1.73,0,0,0,.51,1.28,1.91,1.91,0,0,0,1.34.45,3,3,0,0,0,1.76-.57v1.1a4,4,0,0,1-2.17.52,2.68,2.68,0,0,1-2.08-.82,3.27,3.27,0,0,1-.75-2.3,3.2,3.2,0,0,1,.83-2.28,2.71,2.71,0,0,1,2.06-.88,2.36,2.36,0,0,1,1.9.79A3.28,3.28,0,0,1,30.2,64Zm-1.31-1a1.75,1.75,0,0,0-.35-1.14,1.16,1.16,0,0,0-.94-.41,1.32,1.32,0,0,0-1,.43,2,2,0,0,0-.5,1.12Z" fill="#72be44"/><path d="M42.87,61.2l-1.77,6H39.67l-1.09-4.07a2.58,2.58,0,0,1-.08-.53h0a2.4,2.4,0,0,1-.11.52L37.19,67.2H35.79L34,61.2h1.41l1.09,4.32a2.56,2.56,0,0,1,.07.52h0a2.78,2.78,0,0,1,.09-.53l1.21-4.31h1.28l1.08,4.34a3,3,0,0,1,.08.52h0a2.73,2.73,0,0,1,.09-.52l1.07-4.34Z" fill="#72be44"/><path d="M44.56,59.94a.82.82,0,0,1-.57-.22.71.71,0,0,1-.24-.55.73.73,0,0,1,.24-.56.81.81,0,0,1,.57-.22.83.83,0,0,1,.59.22.73.73,0,0,1,.24.56.72.72,0,0,1-.24.54A.82.82,0,0,1,44.56,59.94Zm.67,7.26H43.87v-6h1.36Z" fill="#72be44"/><path d="M50.17,67.14a2.36,2.36,0,0,1-1,.2q-1.75,0-1.75-1.68V62.27h-1V61.2h1V59.81l1.36-.39V61.2h1.44v1.07H48.74v3a1.18,1.18,0,0,0,.19.76.8.8,0,0,0,.64.23.93.93,0,0,0,.6-.2Z" fill="#72be44"/><path d="M56.68,67.2H55.32V63.92q0-1.78-1.19-1.78a1.24,1.24,0,0,0-1,.52A2.05,2.05,0,0,0,52.71,64V67.2H51.35V58.32h1.37V62.2h0a2.15,2.15,0,0,1,1.95-1.14q2,0,2,2.44Z" fill="#72be44"/><path d="M67.17,60H64.76V67.2H63.36V60H61V58.8h6.22Z" fill="#72be44"/><path d="M72.16,64.57H68.07a1.73,1.73,0,0,0,.51,1.28,1.91,1.91,0,0,0,1.34.45,3,3,0,0,0,1.76-.57v1.1a4,4,0,0,1-2.17.52,2.68,2.68,0,0,1-2.08-.82,3.27,3.27,0,0,1-.75-2.3,3.2,3.2,0,0,1,.83-2.28,2.71,2.71,0,0,1,2.06-.88,2.36,2.36,0,0,1,1.9.79,3.28,3.28,0,0,1,.67,2.2Zm-1.31-1a1.75,1.75,0,0,0-.35-1.14,1.16,1.16,0,0,0-.94-.41,1.32,1.32,0,0,0-1,.43,2,2,0,0,0-.5,1.12Z" fill="#72be44"/><path d="M78.47,61.2l-2,3,2,3H76.87l-1.05-1.86-.23-.43h0l-.25.43L74.24,67.2H72.67l2-2.94L72.78,61.2h1.58l1,2,.23.45h0L77,61.2Z" fill="#72be44"/><path d="M82.63,67.14a2.36,2.36,0,0,1-1,.2q-1.75,0-1.75-1.68V62.27h-1V61.2h1V59.81l1.36-.39V61.2h1.44v1.07H81.2v3a1.18,1.18,0,0,0,.19.76.8.8,0,0,0,.64.23.93.93,0,0,0,.6-.2Z" fill="#72be44"/><rect x="6" y="92.19" width="99.99" height="20" fill="#fff"/><path d="M5,91.2v22H107v-22Zm101,21H6v-20H106Z" fill="#4384b7"/><path d="M113,99.2h9l-4.5,6Z" fill="#4d5359" opacity="0.8"/><path d="M15.46,106.2H11.1V97.8h1v7.51h3.38Z" fill="#4d5359"/><path d="M19.13,106.34A2.78,2.78,0,0,1,17,105.5a3.11,3.11,0,0,1-.79-2.23,3.24,3.24,0,0,1,.83-2.36,3,3,0,0,1,2.23-.85,2.69,2.69,0,0,1,2.09.83,3.28,3.28,0,0,1,.75,2.29,3.22,3.22,0,0,1-.81,2.3A2.84,2.84,0,0,1,19.13,106.34Zm.07-5.47a1.83,1.83,0,0,0-1.46.63,2.59,2.59,0,0,0-.54,1.74,2.45,2.45,0,0,0,.54,1.68,1.85,1.85,0,0,0,1.46.62,1.76,1.76,0,0,0,1.43-.6,2.62,2.62,0,0,0,.5-1.72,2.66,2.66,0,0,0-.5-1.73A1.75,1.75,0,0,0,19.2,100.87Z" fill="#4d5359"/><path d="M28.63,106.2h-1v-3.42q0-1.91-1.39-1.91a1.51,1.51,0,0,0-1.19.54,2,2,0,0,0-.47,1.37v3.42h-1v-6h1v1h0a2.17,2.17,0,0,1,2-1.14,1.84,1.84,0,0,1,1.51.64,2.83,2.83,0,0,1,.52,1.84Z" fill="#4d5359"/><path d="M35.56,105.72q0,3.3-3.16,3.3a4.25,4.25,0,0,1-1.95-.42v-1a4,4,0,0,0,1.93.56q2.21,0,2.21-2.36v-.66h0a2.43,2.43,0,0,1-3.86.35,3.2,3.2,0,0,1-.68-2.15,3.74,3.74,0,0,1,.74-2.43,2.46,2.46,0,0,1,2-.9,2,2,0,0,1,1.8,1h0v-.83h1Zm-1-2.23v-.88a1.72,1.72,0,0,0-.48-1.22,1.59,1.59,0,0,0-1.2-.51,1.67,1.67,0,0,0-1.39.65,2.89,2.89,0,0,0-.5,1.81,2.48,2.48,0,0,0,.48,1.6,1.56,1.56,0,0,0,1.28.6A1.67,1.67,0,0,0,34.1,105,2.14,2.14,0,0,0,34.6,103.49Z" fill="#4d5359"/><path d="M41.91,106.2h-1V97.8h1Z" fill="#4d5359"/><path d="M49,106.2H48v-3.42q0-1.91-1.39-1.91a1.51,1.51,0,0,0-1.19.54,2,2,0,0,0-.47,1.37v3.42H44v-6h1v1h0a2.17,2.17,0,0,1,2-1.14,1.84,1.84,0,0,1,1.51.64,2.83,2.83,0,0,1,.52,1.84Z" fill="#4d5359"/><path d="M53.75,98.16a1.28,1.28,0,0,0-.64-.16q-1,0-1,1.27v.93h1.41V101H52.1v5.18h-1V101h-1v-.82h1v-1a2,2,0,0,1,.54-1.49A1.84,1.84,0,0,1,53,97.19a1.88,1.88,0,0,1,.7.11Z" fill="#4d5359"/><path d="M57,106.34a2.78,2.78,0,0,1-2.12-.84,3.11,3.11,0,0,1-.79-2.23,3.24,3.24,0,0,1,.83-2.36,3,3,0,0,1,2.23-.85,2.69,2.69,0,0,1,2.09.83,3.28,3.28,0,0,1,.75,2.29,3.22,3.22,0,0,1-.81,2.3A2.84,2.84,0,0,1,57,106.34Zm.07-5.47a1.83,1.83,0,0,0-1.46.63,2.59,2.59,0,0,0-.54,1.74,2.45,2.45,0,0,0,.54,1.68,1.85,1.85,0,0,0,1.46.62,1.76,1.76,0,0,0,1.43-.6,2.62,2.62,0,0,0,.5-1.72,2.66,2.66,0,0,0-.5-1.73A1.75,1.75,0,0,0,57.12,100.87Z" fill="#4d5359"/><path d="M64.7,101.17A1.18,1.18,0,0,0,64,101a1.23,1.23,0,0,0-1,.58,2.68,2.68,0,0,0-.41,1.58v3.06h-1v-6h1v1.24h0a2.1,2.1,0,0,1,.63-1,1.43,1.43,0,0,1,.94-.35,1.57,1.57,0,0,1,.57.08Z" fill="#4d5359"/><path d="M74.24,106.2h-1v-3.45a2.6,2.6,0,0,0-.31-1.44,1.17,1.17,0,0,0-1-.45,1.28,1.28,0,0,0-1,.56,2.15,2.15,0,0,0-.43,1.35v3.42h-1v-3.56q0-1.77-1.37-1.77a1.26,1.26,0,0,0-1,.53,2.19,2.19,0,0,0-.41,1.38v3.42h-1v-6h1v.95h0a2,2,0,0,1,1.86-1.09,1.73,1.73,0,0,1,1.7,1.24,2.14,2.14,0,0,1,2-1.24q2,0,2,2.44Z" fill="#4d5359"/><path d="M80.35,106.2h-1v-.94h0a2,2,0,0,1-1.85,1.08,2,2,0,0,1-1.4-.47,1.64,1.64,0,0,1-.51-1.26q0-1.68,2-2l1.8-.25q0-1.53-1.24-1.53a3,3,0,0,0-2,.74v-1a3.72,3.72,0,0,1,2-.56q2.12,0,2.12,2.24Zm-1-3-1.45.2a2.35,2.35,0,0,0-1,.33,1,1,0,0,0-.34.84.92.92,0,0,0,.31.72,1.21,1.21,0,0,0,.83.28,1.54,1.54,0,0,0,1.18-.5,1.79,1.79,0,0,0,.47-1.27Z" fill="#4d5359"/><path d="M84.94,106.14a1.85,1.85,0,0,1-.9.19q-1.58,0-1.58-1.76V101h-1v-.82h1V98.74l1-.31v1.78h1.51V101H83.43v3.38a1.4,1.4,0,0,0,.21.86.82.82,0,0,0,.68.26,1,1,0,0,0,.63-.2Z" fill="#4d5359"/><path d="M86.72,98.68a.61.61,0,0,1-.44-.18.59.59,0,0,1-.18-.45.62.62,0,0,1,.62-.63.62.62,0,0,1,.45.18.63.63,0,0,1,0,.89A.62.62,0,0,1,86.72,98.68Zm.47,7.52h-1v-6h1Z" fill="#4d5359"/><path d="M91.64,106.34a2.78,2.78,0,0,1-2.12-.84,3.11,3.11,0,0,1-.79-2.23,3.24,3.24,0,0,1,.83-2.36,3,3,0,0,1,2.23-.85,2.69,2.69,0,0,1,2.09.83,3.28,3.28,0,0,1,.75,2.29,3.22,3.22,0,0,1-.81,2.3A2.84,2.84,0,0,1,91.64,106.34Zm.07-5.47a1.83,1.83,0,0,0-1.46.63,2.59,2.59,0,0,0-.54,1.74,2.45,2.45,0,0,0,.54,1.68,1.85,1.85,0,0,0,1.46.62,1.76,1.76,0,0,0,1.43-.6,2.62,2.62,0,0,0,.5-1.72,2.66,2.66,0,0,0-.5-1.73A1.75,1.75,0,0,0,91.71,100.87Z" fill="#4d5359"/><path d="M101.14,106.2h-1v-3.42q0-1.91-1.39-1.91a1.51,1.51,0,0,0-1.19.54,2,2,0,0,0-.47,1.37v3.42h-1v-6h1v1h0a2.17,2.17,0,0,1,2-1.14,1.84,1.84,0,0,1,1.51.64,2.83,2.83,0,0,1,.52,1.84Z" fill="#4d5359"/><path d="M106,91.2v22h22v-22Zm21,21H107v-20h20Z" fill="#4384b7"/><path d="M105.68,80.63a2.83,2.83,0,0,1-.21,1.11,2.43,2.43,0,0,1-.6.86,2.69,2.69,0,0,1-.94.55,3.68,3.68,0,0,1-1.22.19A3.38,3.38,0,0,1,101,83V82a3.2,3.2,0,0,0,1.75.55,2.37,2.37,0,0,0,.82-.13,1.83,1.83,0,0,0,.62-.37,1.61,1.61,0,0,0,.4-.58,2,2,0,0,0,.14-.74,1.59,1.59,0,0,0-.55-1.29,2.42,2.42,0,0,0-1.6-.47h-.73l-.37,0-.33,0,.29-4.21h3.88v.87h-3.05l-.17,2.47.4,0h.38a3.77,3.77,0,0,1,1.2.18,2.53,2.53,0,0,1,.89.5,2.1,2.1,0,0,1,.56.8A2.8,2.8,0,0,1,105.68,80.63Z" fill="#7f3f96"/><rect x="105" y="84.2" width="1" height="20" fill="#7f3f96"/><rect x="101" y="84.2" width="1" height="20" fill="#7f3f96"/><rect x="101" y="84.2" width="5" height="1" fill="#7f3f96"/><path d="M10.68,80.63a2.83,2.83,0,0,1-.21,1.11,2.43,2.43,0,0,1-.6.86,2.69,2.69,0,0,1-.94.55,3.68,3.68,0,0,1-1.22.19A3.38,3.38,0,0,1,6,83V82a3.2,3.2,0,0,0,1.75.55,2.37,2.37,0,0,0,.82-.13A1.83,1.83,0,0,0,9.16,82a1.61,1.61,0,0,0,.4-.58,2,2,0,0,0,.14-.74,1.59,1.59,0,0,0-.55-1.29,2.42,2.42,0,0,0-1.6-.47H6.81l-.37,0-.33,0,.29-4.21h3.88v.87H7.24l-.17,2.47.4,0h.38a3.77,3.77,0,0,1,1.2.18,2.53,2.53,0,0,1,.89.5,2.1,2.1,0,0,1,.56.8A2.8,2.8,0,0,1,10.68,80.63Z" fill="#7f3f96"/><rect x="10" y="84.2" width="1" height="20" fill="#7f3f96"/><rect x="6" y="84.2" width="1" height="20" fill="#7f3f96"/><rect x="6" y="84.2" width="5" height="1" fill="#7f3f96"/><path d="M111.68,80.63a2.83,2.83,0,0,1-.21,1.11,2.43,2.43,0,0,1-.6.86,2.69,2.69,0,0,1-.94.55,3.68,3.68,0,0,1-1.22.19A3.38,3.38,0,0,1,107,83V82a3.2,3.2,0,0,0,1.75.55,2.37,2.37,0,0,0,.82-.13,1.83,1.83,0,0,0,.62-.37,1.61,1.61,0,0,0,.4-.58,2,2,0,0,0,.14-.74,1.59,1.59,0,0,0-.55-1.29,2.42,2.42,0,0,0-1.6-.47h-.73l-.37,0-.33,0,.29-4.21h3.88v.87h-3.05l-.17,2.47.4,0h.38a3.77,3.77,0,0,1,1.2.18,2.53,2.53,0,0,1,.89.5,2.1,2.1,0,0,1,.56.8A2.8,2.8,0,0,1,111.68,80.63Z" fill="#7f3f96"/><rect x="111" y="84.2" width="1" height="20" fill="#7f3f96"/><rect x="107" y="84.2" width="1" height="20" fill="#7f3f96"/><rect x="107" y="84.2" width="5" height="1" fill="#7f3f96"/><path d="M126.68,80.63a2.83,2.83,0,0,1-.21,1.11,2.43,2.43,0,0,1-.6.86,2.69,2.69,0,0,1-.94.55,3.68,3.68,0,0,1-1.22.19A3.38,3.38,0,0,1,122,83V82a3.2,3.2,0,0,0,1.75.55,2.37,2.37,0,0,0,.82-.13,1.83,1.83,0,0,0,.62-.37,1.61,1.61,0,0,0,.4-.58,2,2,0,0,0,.14-.74,1.59,1.59,0,0,0-.55-1.29,2.42,2.42,0,0,0-1.6-.47h-.73l-.37,0-.33,0,.29-4.21h3.88v.87h-3.05l-.17,2.47.4,0h.38a3.77,3.77,0,0,1,1.2.18,2.53,2.53,0,0,1,.89.5,2.1,2.1,0,0,1,.56.8A2.8,2.8,0,0,1,126.68,80.63Z" fill="#7f3f96"/><rect x="126" y="84.2" width="1" height="20" fill="#7f3f96"/><rect x="122" y="84.2" width="1" height="20" fill="#7f3f96"/><rect x="122" y="84.2" width="5" height="1" fill="#7f3f96"/><polygon points="14 164.2 14 162.2 8 162.2 8 162.2 8 182.2 8 182.2 14 182.2 14 180.2 10 180.2 10 164.2 14 164.2" fill="#7f3f96"/></svg>