<svg id="Layer_1" data-name="Layer 1" xmlns="http://www.w3.org/2000/svg" width="24" height="27" viewBox="0 0 24 27"><title>toggle-button-normal</title><rect width="24" height="27" fill="#e0e0e0"/><path d="M17,11.5a5.5,5.5,0,1,0-11,0V14a7.75,7.75,0,0,1,2,4h3V15.15L9,12l1.2-1,1.3,3,1.37-3L14,12l-2,3.37V18h3a7.75,7.75,0,0,1,2-4Z" fill="#696e73"/><polygon points="10 21 10 21 10 22 13 22 13 21 13 21 10 21" fill="#696e73"/><polygon points="9 19 9 20 10 20 13 20 14 20 14 19 9 19" fill="#696e73"/></svg>