<svg id="Layer_1" data-name="Layer 1" xmlns="http://www.w3.org/2000/svg" width="92" height="164" viewBox="0 0 92 164"><title>toolbar-dropdown-button-active</title><rect width="35" height="27" fill="#4386b9"/><path d="M25,17h7l-3.5,5Z" fill="#fff"/><rect x="4" y="7" width="2" height="14" fill="#fff"/><rect x="8" y="18" width="8" height="2" fill="#fff"/><rect x="8" y="8" width="10" height="2" fill="#fff"/><rect x="8" y="13" width="5" height="2" fill="#fff"/><rect x="0.5" y="27.5" width="91" height="136" fill="#fff"/><path d="M91,28V163H1V28H91m1-1H0V164H92V27Z" fill="#4386b9"/><path d="M33.07,37.49H30.65V45h-1V37.49H27.24V36.6h5.83Z" fill="#2b3033"/><path d="M35.54,45.14a2.78,2.78,0,0,1-2.12-.84,3.11,3.11,0,0,1-.79-2.23,3.24,3.24,0,0,1,.83-2.36,3,3,0,0,1,2.23-.85,2.69,2.69,0,0,1,2.09.83A3.28,3.28,0,0,1,38.52,42a3.22,3.22,0,0,1-.81,2.3A2.84,2.84,0,0,1,35.54,45.14Zm.07-5.47a1.83,1.83,0,0,0-1.46.63A2.59,2.59,0,0,0,33.6,42a2.45,2.45,0,0,0,.54,1.68,1.85,1.85,0,0,0,1.46.62,1.76,1.76,0,0,0,1.43-.6,2.62,2.62,0,0,0,.5-1.72,2.66,2.66,0,0,0-.5-1.73A1.75,1.75,0,0,0,35.61,39.67Z" fill="#2b3033"/><path d="M41,44.13h0v3.63h-1V39h1v1.05h0a2.27,2.27,0,0,1,2.07-1.2,2.2,2.2,0,0,1,1.81.81,3.34,3.34,0,0,1,.65,2.16,3.72,3.72,0,0,1-.73,2.41,2.44,2.44,0,0,1-2,.91A2,2,0,0,1,41,44.13Zm0-2.42v.84a1.78,1.78,0,0,0,.48,1.26,1.72,1.72,0,0,0,2.6-.15,3.06,3.06,0,0,0,.5-1.86,2.42,2.42,0,0,0-.46-1.57,1.53,1.53,0,0,0-1.25-.57,1.7,1.7,0,0,0-1.35.58A2.14,2.14,0,0,0,41,41.71Z" fill="#2b3033"/><path d="M28.11,67V58.6H30.5a2.61,2.61,0,0,1,1.73.53,1.72,1.72,0,0,1,.64,1.39,2,2,0,0,1-.39,1.24,2.09,2.09,0,0,1-1.07.75v0a2.14,2.14,0,0,1,1.36.64,2,2,0,0,1,.51,1.41,2.2,2.2,0,0,1-.77,1.75,2.88,2.88,0,0,1-2,.67Zm1-7.51V62.2h1a1.91,1.91,0,0,0,1.27-.39,1.36,1.36,0,0,0,.46-1.1q0-1.22-1.61-1.22Zm0,3.6v3h1.34a2,2,0,0,0,1.34-.41,1.4,1.4,0,0,0,.48-1.12q0-1.49-2-1.49Z" fill="#2b3033"/><path d="M37.36,67.14a2.78,2.78,0,0,1-2.12-.84,3.11,3.11,0,0,1-.79-2.23,3.24,3.24,0,0,1,.83-2.36,3,3,0,0,1,2.23-.85,2.69,2.69,0,0,1,2.09.83A3.28,3.28,0,0,1,40.35,64a3.22,3.22,0,0,1-.81,2.3A2.84,2.84,0,0,1,37.36,67.14Zm.07-5.47A1.83,1.83,0,0,0,36,62.3,2.59,2.59,0,0,0,35.43,64,2.45,2.45,0,0,0,36,65.72a1.85,1.85,0,0,0,1.46.62,1.76,1.76,0,0,0,1.43-.6,2.62,2.62,0,0,0,.5-1.72,2.66,2.66,0,0,0-.5-1.73A1.75,1.75,0,0,0,37.43,61.67Z" fill="#2b3033"/><path d="M44.67,66.94a1.85,1.85,0,0,1-.9.19q-1.58,0-1.58-1.76V61.82h-1V61h1V59.54l1-.31V61h1.51v.82H43.16V65.2a1.4,1.4,0,0,0,.21.86.82.82,0,0,0,.68.26,1,1,0,0,0,.63-.2Z" fill="#2b3033"/><path d="M48.74,66.94a1.85,1.85,0,0,1-.9.19q-1.58,0-1.58-1.76V61.82h-1V61h1V59.54l1-.31V61h1.51v.82H47.22V65.2a1.4,1.4,0,0,0,.21.86.82.82,0,0,0,.68.26,1,1,0,0,0,.63-.2Z" fill="#2b3033"/><path d="M52.43,67.14a2.78,2.78,0,0,1-2.12-.84,3.11,3.11,0,0,1-.79-2.23,3.24,3.24,0,0,1,.83-2.36,3,3,0,0,1,2.23-.85,2.69,2.69,0,0,1,2.09.83A3.28,3.28,0,0,1,55.42,64a3.22,3.22,0,0,1-.81,2.3A2.84,2.84,0,0,1,52.43,67.14Zm.07-5.47A1.83,1.83,0,0,0,51,62.3,2.59,2.59,0,0,0,50.5,64,2.45,2.45,0,0,0,51,65.72a1.85,1.85,0,0,0,1.46.62,1.76,1.76,0,0,0,1.43-.6,2.62,2.62,0,0,0,.5-1.72,2.66,2.66,0,0,0-.5-1.73A1.75,1.75,0,0,0,52.5,61.67Z" fill="#2b3033"/><path d="M65.48,67h-1V63.55a2.6,2.6,0,0,0-.31-1.44,1.17,1.17,0,0,0-1-.45,1.28,1.28,0,0,0-1,.56,2.15,2.15,0,0,0-.43,1.35V67h-1V63.44q0-1.77-1.37-1.77a1.26,1.26,0,0,0-1,.53,2.19,2.19,0,0,0-.41,1.38V67H57V61h1v.95h0a2,2,0,0,1,1.86-1.09,1.73,1.73,0,0,1,1.7,1.24,2.14,2.14,0,0,1,2-1.24q2,0,2,2.44Z" fill="#2b3033"/><path d="M32.46,89H28.11V80.6h1v7.51h3.38Z" fill="#2b3033"/><path d="M38.45,86.24H34.21a2.24,2.24,0,0,0,.54,1.55,1.86,1.86,0,0,0,1.42.54A3,3,0,0,0,38,87.66v.9a3.48,3.48,0,0,1-2.09.57,2.54,2.54,0,0,1-2-.82,3.35,3.35,0,0,1-.73-2.3A3.28,3.28,0,0,1,34,83.74a2.55,2.55,0,0,1,2-.88,2.26,2.26,0,0,1,1.82.76,3.18,3.18,0,0,1,.64,2.12Zm-1-.81a2,2,0,0,0-.4-1.29,1.37,1.37,0,0,0-1.1-.46,1.55,1.55,0,0,0-1.15.49,2.21,2.21,0,0,0-.59,1.27Z" fill="#2b3033"/><path d="M42.87,81a1.28,1.28,0,0,0-.64-.16q-1,0-1,1.27V83h1.41v.82H41.22V89h-1V83.82h-1V83h1V82a2,2,0,0,1,.54-1.49A1.84,1.84,0,0,1,42.17,80a1.88,1.88,0,0,1,.7.11Z" fill="#2b3033"/><path d="M46.66,88.94a1.85,1.85,0,0,1-.9.19q-1.58,0-1.58-1.76V83.82h-1V83h1V81.54l1-.31V83h1.51v.82H45.14V87.2a1.4,1.4,0,0,0,.21.86.82.82,0,0,0,.68.26,1,1,0,0,0,.63-.2Z" fill="#2b3033"/><path d="M34.13,111H33l-1.41-2.36a5.13,5.13,0,0,0-.37-.56,2.14,2.14,0,0,0-.37-.38,1.29,1.29,0,0,0-.41-.21,1.69,1.69,0,0,0-.5-.07h-.81V111h-1v-8.4h2.51a3.57,3.57,0,0,1,1,.14,2.27,2.27,0,0,1,.81.42,2,2,0,0,1,.54.7,2.32,2.32,0,0,1,.19,1,2.36,2.36,0,0,1-.13.81,2.1,2.1,0,0,1-.37.65,2.27,2.27,0,0,1-.59.49,3,3,0,0,1-.77.31v0a1.77,1.77,0,0,1,.37.21,2,2,0,0,1,.3.28,3.76,3.76,0,0,1,.28.37l.31.48Zm-5-7.51v3h1.34a2,2,0,0,0,.68-.11,1.58,1.58,0,0,0,.54-.32,1.45,1.45,0,0,0,.36-.51,1.71,1.71,0,0,0,.13-.68,1.32,1.32,0,0,0-.44-1.05,1.88,1.88,0,0,0-1.26-.38Z" fill="#2b3033"/><path d="M35.65,103.48a.61.61,0,0,1-.44-.18.59.59,0,0,1-.18-.45.62.62,0,0,1,.62-.63.62.62,0,0,1,.45.18.63.63,0,0,1,0,.89A.62.62,0,0,1,35.65,103.48Zm.47,7.52h-1v-6h1Z" fill="#2b3033"/><path d="M43.18,110.52q0,3.3-3.16,3.3a4.25,4.25,0,0,1-1.95-.42v-1A4,4,0,0,0,40,113q2.21,0,2.21-2.36V110h0a2.43,2.43,0,0,1-3.86.35,3.2,3.2,0,0,1-.68-2.15,3.74,3.74,0,0,1,.74-2.43,2.46,2.46,0,0,1,2-.9,2,2,0,0,1,1.8,1h0V105h1Zm-1-2.23v-.88a1.72,1.72,0,0,0-.48-1.22,1.59,1.59,0,0,0-1.2-.51,1.67,1.67,0,0,0-1.39.65,2.89,2.89,0,0,0-.5,1.81,2.48,2.48,0,0,0,.48,1.6,1.56,1.56,0,0,0,1.28.6,1.67,1.67,0,0,0,1.32-.57A2.14,2.14,0,0,0,42.22,108.29Z" fill="#2b3033"/><path d="M50.11,111h-1v-3.46q0-1.87-1.39-1.87a1.52,1.52,0,0,0-1.18.54,2,2,0,0,0-.48,1.39V111h-1v-8.88h1V106h0a2.18,2.18,0,0,1,2-1.14q2,0,2,2.44Z" fill="#2b3033"/><path d="M54.7,110.94a1.85,1.85,0,0,1-.9.19q-1.58,0-1.58-1.76v-3.55h-1V105h1v-1.46l1-.31V105H54.7v.82H53.19v3.38a1.4,1.4,0,0,0,.21.86.82.82,0,0,0,.68.26,1,1,0,0,0,.63-.2Z" fill="#2b3033"/><path d="M34.42,133h-1v-3.83H29.09V133h-1v-8.4h1v3.69h4.35V124.6h1Z" fill="#2b3033"/><path d="M39,133.14a2.78,2.78,0,0,1-2.12-.84,3.11,3.11,0,0,1-.79-2.23,3.24,3.24,0,0,1,.83-2.36,3,3,0,0,1,2.23-.85,2.69,2.69,0,0,1,2.09.83A3.28,3.28,0,0,1,42,130a3.22,3.22,0,0,1-.81,2.3A2.84,2.84,0,0,1,39,133.14Zm.07-5.47a1.83,1.83,0,0,0-1.46.63,2.59,2.59,0,0,0-.54,1.74,2.45,2.45,0,0,0,.54,1.68,1.85,1.85,0,0,0,1.46.62,1.76,1.76,0,0,0,1.43-.6A2.62,2.62,0,0,0,41,130a2.66,2.66,0,0,0-.5-1.73A1.75,1.75,0,0,0,39.07,127.67Z" fill="#2b3033"/><path d="M46.66,128a1.18,1.18,0,0,0-.73-.19,1.23,1.23,0,0,0-1,.58,2.68,2.68,0,0,0-.41,1.58V133h-1v-6h1v1.24h0a2.1,2.1,0,0,1,.63-1,1.43,1.43,0,0,1,.94-.35,1.57,1.57,0,0,1,.57.08Z" fill="#2b3033"/><path d="M48.19,125.48a.61.61,0,0,1-.44-.18.59.59,0,0,1-.18-.45.62.62,0,0,1,.62-.63.62.62,0,0,1,.45.18.63.63,0,0,1,0,.89A.62.62,0,0,1,48.19,125.48Zm.47,7.52h-1v-6h1Z" fill="#2b3033"/><path d="M54.79,127.28l-3.55,4.9h3.52V133H49.83v-.3l3.55-4.88H50.16V127h4.63Z" fill="#2b3033"/><path d="M58.54,133.14a2.78,2.78,0,0,1-2.12-.84,3.11,3.11,0,0,1-.79-2.23,3.24,3.24,0,0,1,.83-2.36,3,3,0,0,1,2.23-.85,2.69,2.69,0,0,1,2.09.83,3.28,3.28,0,0,1,.75,2.29,3.22,3.22,0,0,1-.81,2.3A2.84,2.84,0,0,1,58.54,133.14Zm.07-5.47a1.83,1.83,0,0,0-1.46.63,2.59,2.59,0,0,0-.54,1.74,2.45,2.45,0,0,0,.54,1.68,1.85,1.85,0,0,0,1.46.62,1.76,1.76,0,0,0,1.43-.6,2.62,2.62,0,0,0,.5-1.72,2.66,2.66,0,0,0-.5-1.73A1.75,1.75,0,0,0,58.61,127.67Z" fill="#2b3033"/><path d="M68,133h-1v-3.42q0-1.91-1.39-1.91a1.51,1.51,0,0,0-1.19.54,2,2,0,0,0-.47,1.37V133h-1v-6h1v1h0a2.17,2.17,0,0,1,2-1.14,1.84,1.84,0,0,1,1.51.64,2.83,2.83,0,0,1,.52,1.84Z" fill="#2b3033"/><path d="M72.64,132.94a1.85,1.85,0,0,1-.9.19q-1.58,0-1.58-1.76v-3.55h-1V127h1v-1.46l1-.31V127h1.51v.82H71.13v3.38a1.4,1.4,0,0,0,.21.86.82.82,0,0,0,.68.26,1,1,0,0,0,.63-.2Z" fill="#2b3033"/><path d="M78.21,133h-1v-.94h0a2,2,0,0,1-1.85,1.08,2,2,0,0,1-1.4-.47,1.64,1.64,0,0,1-.51-1.26q0-1.68,2-2l1.8-.25q0-1.53-1.24-1.53a3,3,0,0,0-2,.74v-1a3.72,3.72,0,0,1,2-.56q2.12,0,2.12,2.24Zm-1-3-1.45.2a2.35,2.35,0,0,0-1,.33,1,1,0,0,0-.34.84.92.92,0,0,0,.31.72,1.21,1.21,0,0,0,.83.28,1.54,1.54,0,0,0,1.18-.5,1.79,1.79,0,0,0,.47-1.27Z" fill="#2b3033"/><path d="M81,133H80v-8.88h1Z" fill="#2b3033"/><path d="M34.35,146.6,31.24,155H30.16l-3-8.4h1.1l2.33,6.66a4,4,0,0,1,.17.74h0a3.65,3.65,0,0,1,.19-.76l2.37-6.65Z" fill="#2b3033"/><path d="M39.5,152.24H35.26a2.24,2.24,0,0,0,.54,1.55,1.86,1.86,0,0,0,1.42.54,3,3,0,0,0,1.86-.67v.9a3.48,3.48,0,0,1-2.09.57,2.54,2.54,0,0,1-2-.82,3.35,3.35,0,0,1-.73-2.3,3.28,3.28,0,0,1,.79-2.28,2.55,2.55,0,0,1,2-.88,2.26,2.26,0,0,1,1.82.76,3.18,3.18,0,0,1,.64,2.12Zm-1-.81a2,2,0,0,0-.4-1.29,1.37,1.37,0,0,0-1.1-.46,1.55,1.55,0,0,0-1.15.49,2.21,2.21,0,0,0-.59,1.27Z" fill="#2b3033"/><path d="M44.08,150a1.18,1.18,0,0,0-.73-.19,1.23,1.23,0,0,0-1,.58,2.68,2.68,0,0,0-.41,1.58V155h-1v-6h1v1.24h0a2.1,2.1,0,0,1,.63-1,1.43,1.43,0,0,1,.94-.35,1.57,1.57,0,0,1,.57.08Z" fill="#2b3033"/><path d="M48.25,154.94a1.85,1.85,0,0,1-.9.19q-1.58,0-1.58-1.76v-3.55h-1V149h1v-1.46l1-.31V149h1.51v.82H46.74v3.38a1.4,1.4,0,0,0,.21.86.82.82,0,0,0,.68.26,1,1,0,0,0,.63-.2Z" fill="#2b3033"/><path d="M50,147.48a.61.61,0,0,1-.44-.18.59.59,0,0,1-.18-.45.62.62,0,0,1,.62-.63.62.62,0,0,1,.45.18.63.63,0,0,1,0,.89A.62.62,0,0,1,50,147.48Zm.47,7.52h-1v-6h1Z" fill="#2b3033"/><path d="M56.53,154.72a3.12,3.12,0,0,1-1.64.42,2.72,2.72,0,0,1-2.07-.83,3,3,0,0,1-.79-2.17,3.33,3.33,0,0,1,.85-2.38,3,3,0,0,1,2.27-.9,3.16,3.16,0,0,1,1.39.29v1a2.44,2.44,0,0,0-1.43-.47,1.93,1.93,0,0,0-1.51.66,2.5,2.5,0,0,0-.59,1.73,2.38,2.38,0,0,0,.55,1.66,1.91,1.91,0,0,0,1.49.61,2.41,2.41,0,0,0,1.48-.52Z" fill="#2b3033"/><path d="M62.28,155h-1v-.94h0a2,2,0,0,1-1.85,1.08,2,2,0,0,1-1.4-.47,1.64,1.64,0,0,1-.51-1.26q0-1.68,2-2l1.8-.25q0-1.53-1.24-1.53a3,3,0,0,0-2,.74v-1a3.72,3.72,0,0,1,2-.56q2.12,0,2.12,2.24Zm-1-3-1.45.2a2.35,2.35,0,0,0-1,.33,1,1,0,0,0-.34.84.92.92,0,0,0,.31.72,1.21,1.21,0,0,0,.83.28,1.54,1.54,0,0,0,1.18-.5,1.79,1.79,0,0,0,.47-1.27Z" fill="#2b3033"/><path d="M65,155h-1v-8.88h1Z" fill="#2b3033"/><polygon points="20 150.03 16 150.03 16 144 13 144 13 150.03 11 150.03 11 146 8 146 8 150.03 4 150.03 4 152 8 152 8 156 11 156 11 152 13 152 13 158 16 158 16 152 20 152 20 150.03" fill="#696e75"/><polygon points="19 128 19 125 13 125 13 121 11 121 11 125 5 125 5 128 11 128 11 130 7 130 7 133 11 133 11 137 13 137 13 133 17 133 17 130 13 130 13 128 19 128" fill="#696e75"/><rect x="4" y="103" width="13" height="3" fill="#696e75"/><rect x="10" y="108" width="7" height="3" fill="#696e75"/><rect x="18" y="99" width="2" height="16" fill="#696e75"/><rect x="4" y="77" width="2" height="16" fill="#696e75"/><rect x="7" y="86" width="7" height="3" fill="#696e75"/><rect x="7" y="81" width="13" height="3" fill="#696e75"/><rect x="13" y="55" width="3" height="13" fill="#696e75"/><rect x="8" y="61" width="3" height="7" fill="#696e75"/><rect x="4" y="69" width="16" height="2" fill="#696e75"/><rect x="4" y="33" width="16" height="2" fill="#696e75"/><rect x="8" y="36" width="2.95" height="13" fill="#696e75"/><rect x="13" y="36" width="3" height="7" fill="#696e75"/></svg>