<svg id="Layer_1" data-name="Layer 1" xmlns="http://www.w3.org/2000/svg" width="90.27" height="47.06" viewBox="0 0 90.27 47.06"><title>checkboxes-visual-spec</title><path d="M52.46,22.2H48.1V13.8h1v7.51h3.38Z" fill="#575757"/><path d="M56.13,22.34A2.78,2.78,0,0,1,54,21.5a3.11,3.11,0,0,1-.79-2.23A3.24,3.24,0,0,1,54,16.91a3,3,0,0,1,2.23-.85,2.69,2.69,0,0,1,2.09.83,3.28,3.28,0,0,1,.75,2.29,3.22,3.22,0,0,1-.81,2.3A2.84,2.84,0,0,1,56.13,22.34Zm.07-5.47a1.83,1.83,0,0,0-1.46.63,2.59,2.59,0,0,0-.54,1.74,2.45,2.45,0,0,0,.54,1.68,1.85,1.85,0,0,0,1.46.62,1.76,1.76,0,0,0,1.43-.6,2.62,2.62,0,0,0,.5-1.72,2.66,2.66,0,0,0-.5-1.73A1.75,1.75,0,0,0,56.2,16.87Z" fill="#575757"/><path d="M63.78,17.17a1.18,1.18,0,0,0-.73-.19,1.23,1.23,0,0,0-1,.58,2.68,2.68,0,0,0-.41,1.58V22.2h-1v-6h1v1.24h0a2.1,2.1,0,0,1,.63-1,1.43,1.43,0,0,1,.94-.35,1.57,1.57,0,0,1,.57.08Z" fill="#575757"/><path d="M69.49,19.44H65.25A2.24,2.24,0,0,0,65.79,21a1.86,1.86,0,0,0,1.42.54,3,3,0,0,0,1.86-.67v.9a3.48,3.48,0,0,1-2.09.57,2.54,2.54,0,0,1-2-.82,3.35,3.35,0,0,1-.73-2.3A3.28,3.28,0,0,1,65,16.94a2.55,2.55,0,0,1,2-.88,2.26,2.26,0,0,1,1.82.76,3.18,3.18,0,0,1,.64,2.12Zm-1-.81a2,2,0,0,0-.4-1.29,1.37,1.37,0,0,0-1.1-.46,1.55,1.55,0,0,0-1.15.49,2.21,2.21,0,0,0-.59,1.27Z" fill="#575757"/><path d="M79.46,22.2h-1V18.76a2.6,2.6,0,0,0-.31-1.44,1.17,1.17,0,0,0-1-.45,1.28,1.28,0,0,0-1,.56,2.15,2.15,0,0,0-.43,1.35V22.2h-1V18.64q0-1.77-1.37-1.77a1.26,1.26,0,0,0-1,.53,2.19,2.19,0,0,0-.41,1.38V22.2h-1v-6h1v.95h0a2,2,0,0,1,1.86-1.09,1.73,1.73,0,0,1,1.7,1.24,2.14,2.14,0,0,1,2-1.24q2,0,2,2.44Z" fill="#575757"/><path d="M81.77,14.68a.61.61,0,0,1-.44-.18.59.59,0,0,1-.18-.45.62.62,0,0,1,.62-.63.62.62,0,0,1,.45.18.63.63,0,0,1,0,.89A.62.62,0,0,1,81.77,14.68Zm.47,7.52h-1v-6h1Z" fill="#575757"/><path d="M85.17,21.33h0V25h-1V16.2h1v1.05h0a2.27,2.27,0,0,1,2.07-1.2,2.2,2.2,0,0,1,1.81.81A3.34,3.34,0,0,1,89.7,19,3.72,3.72,0,0,1,89,21.44a2.44,2.44,0,0,1-2,.91A2,2,0,0,1,85.17,21.33Zm0-2.42v.84A1.78,1.78,0,0,0,85.63,21a1.72,1.72,0,0,0,2.6-.15,3.06,3.06,0,0,0,.5-1.86,2.42,2.42,0,0,0-.46-1.57A1.53,1.53,0,0,0,87,16.87a1.7,1.7,0,0,0-1.35.58A2.14,2.14,0,0,0,85.14,18.92Z" fill="#575757"/><path d="M50.59,43.2h-1V34.8h1Z" fill="#575757"/><path d="M53.65,42.33h0V46h-1V37.2h1v1.05h0a2.27,2.27,0,0,1,2.07-1.2,2.2,2.2,0,0,1,1.81.81A3.34,3.34,0,0,1,58.19,40a3.72,3.72,0,0,1-.73,2.41,2.44,2.44,0,0,1-2,.91A2,2,0,0,1,53.65,42.33Zm0-2.42v.84A1.78,1.78,0,0,0,54.11,42a1.72,1.72,0,0,0,2.6-.15A3.06,3.06,0,0,0,57.2,40a2.42,2.42,0,0,0-.46-1.57,1.53,1.53,0,0,0-1.25-.57,1.7,1.7,0,0,0-1.35.58A2.14,2.14,0,0,0,53.63,39.92Z" fill="#575757"/><path d="M59.36,43V42a2.84,2.84,0,0,0,1.73.58q1.27,0,1.27-.84a.73.73,0,0,0-.11-.41A1.08,1.08,0,0,0,62,41a2.26,2.26,0,0,0-.43-.23L61,40.54a6.9,6.9,0,0,1-.7-.32,2.12,2.12,0,0,1-.5-.36,1.35,1.35,0,0,1-.3-.46,1.63,1.63,0,0,1-.1-.6,1.43,1.43,0,0,1,.19-.75,1.71,1.71,0,0,1,.52-.54,2.4,2.4,0,0,1,.74-.33,3.26,3.26,0,0,1,.85-.11,3.44,3.44,0,0,1,1.39.27v1a2.72,2.72,0,0,0-1.52-.43,1.78,1.78,0,0,0-.49.06,1.19,1.19,0,0,0-.37.17.8.8,0,0,0-.24.27.7.7,0,0,0-.08.34.82.82,0,0,0,.08.39.86.86,0,0,0,.25.28,1.9,1.9,0,0,0,.4.22l.53.22a7.42,7.42,0,0,1,.71.31,2.45,2.45,0,0,1,.54.36,1.42,1.42,0,0,1,.34.47,1.5,1.5,0,0,1,.12.63,1.48,1.48,0,0,1-.2.77,1.68,1.68,0,0,1-.52.54,2.4,2.4,0,0,1-.76.32,3.73,3.73,0,0,1-.9.11A3.4,3.4,0,0,1,59.36,43Z" fill="#575757"/><path d="M69.66,43.2h-1v-.95h0a2,2,0,0,1-1.85,1.09q-2.14,0-2.14-2.55V37.2h1v3.43q0,1.9,1.45,1.9A1.47,1.47,0,0,0,68.25,42a2,2,0,0,0,.45-1.36V37.2h1Z" fill="#575757"/><path d="M80.12,43.2h-1V39.76a2.6,2.6,0,0,0-.31-1.44,1.17,1.17,0,0,0-1-.45,1.28,1.28,0,0,0-1,.56,2.15,2.15,0,0,0-.43,1.35V43.2h-1V39.64q0-1.77-1.37-1.77a1.26,1.26,0,0,0-1,.53,2.19,2.19,0,0,0-.41,1.38V43.2h-1v-6h1v.95h0a2,2,0,0,1,1.86-1.09,1.73,1.73,0,0,1,1.7,1.24,2.14,2.14,0,0,1,2-1.24q2,0,2,2.44Z" fill="#575757"/><rect x="31" y="13.2" width="10" height="10" fill="#fff"/><path d="M30,12.2v12H42v-12Zm11,11H31v-10H41Z" fill="#575757"/><rect x="31" y="35.2" width="10" height="10" fill="#fff"/><path d="M30,34.2v12H42v-12Zm11,11H31v-10H41Z" fill="#575757"/><path d="M4.24,33.2h-1V25.94A2.22,2.22,0,0,1,3,26.2a5.3,5.3,0,0,1-.48.28q-.27.14-.56.26a4.09,4.09,0,0,1-.58.19V26A5.59,5.59,0,0,0,2,25.73q.35-.15.7-.33T3.35,25a5.14,5.14,0,0,0,.53-.4h.36Z" fill="#7f3f96"/><path d="M12.45,29a8.25,8.25,0,0,1-.19,1.87,4.36,4.36,0,0,1-.55,1.37,2.48,2.48,0,0,1-.88.85,2.42,2.42,0,0,1-1.19.29,2.26,2.26,0,0,1-1.13-.28,2.36,2.36,0,0,1-.83-.81,4.11,4.11,0,0,1-.52-1.31A8.1,8.1,0,0,1,7,29.17a9.17,9.17,0,0,1,.18-1.95,4.45,4.45,0,0,1,.54-1.42,2.41,2.41,0,0,1,.89-.86,2.49,2.49,0,0,1,1.22-.29Q12.45,24.66,12.45,29Zm-1,.09q0-3.59-1.71-3.59T8,29.12q0,3.4,1.76,3.4T11.46,29.06Z" fill="#7f3f96"/><path d="M23.24,10.2h-1V2.94A2.22,2.22,0,0,1,22,3.2a5.3,5.3,0,0,1-.48.28q-.27.14-.56.26a4.09,4.09,0,0,1-.58.19V3A5.59,5.59,0,0,0,21,2.73q.35-.15.7-.33T22.35,2a5.14,5.14,0,0,0,.53-.4h.36Z" fill="#7f3f96"/><path d="M30,4a1.74,1.74,0,0,0-.12-.67,1.3,1.3,0,0,0-.82-.76,1.92,1.92,0,0,0-.61-.09,2,2,0,0,0-.55.08,2.68,2.68,0,0,0-.52.21,3.23,3.23,0,0,0-.49.32,3.56,3.56,0,0,0-.44.42v-1a2.87,2.87,0,0,1,.91-.6,3.19,3.19,0,0,1,1.22-.21,3,3,0,0,1,1,.15,2.19,2.19,0,0,1,.76.44,2,2,0,0,1,.51.71,2.39,2.39,0,0,1,.18,1,3.32,3.32,0,0,1-.11.9,2.79,2.79,0,0,1-.35.76,3.68,3.68,0,0,1-.58.69,8.26,8.26,0,0,1-.83.67q-.59.42-1,.72a4.31,4.31,0,0,0-.61.56,1.62,1.62,0,0,0-.32.52,1.82,1.82,0,0,0-.09.6h4.18v.86H26.11V9.79a3.47,3.47,0,0,1,.12-.95,2.46,2.46,0,0,1,.39-.78,4.32,4.32,0,0,1,.71-.74q.44-.37,1.07-.83a6.76,6.76,0,0,0,.76-.63,3.26,3.26,0,0,0,.5-.6,2.15,2.15,0,0,0,.27-.61A2.61,2.61,0,0,0,30,4Z" fill="#7f3f96"/><path d="M37.29,4.2l-2,3,2,3H36.14L35,8.26,34.7,7.8h0l-.28.46L33.2,10.2H32.09l2-2.94-2-3.06H33.3l1.16,2.05.25.47h0l1.5-2.52Z" fill="#7f3f96"/><path d="M41.69,10.2h-1V2.94a2.22,2.22,0,0,1-.33.25,5.3,5.3,0,0,1-.48.28q-.27.14-.56.26a4.09,4.09,0,0,1-.58.19V3a5.59,5.59,0,0,0,.67-.24q.35-.15.7-.33T40.8,2a5.14,5.14,0,0,0,.53-.4h.36Z" fill="#7f3f96"/><path d="M48.44,4a1.74,1.74,0,0,0-.12-.67,1.3,1.3,0,0,0-.82-.76,1.92,1.92,0,0,0-.61-.09,2,2,0,0,0-.55.08,2.68,2.68,0,0,0-.52.21,3.23,3.23,0,0,0-.49.32,3.56,3.56,0,0,0-.44.42v-1a2.87,2.87,0,0,1,.91-.6A3.19,3.19,0,0,1,47,1.66a3,3,0,0,1,1,.15,2.19,2.19,0,0,1,.76.44,2,2,0,0,1,.51.71,2.39,2.39,0,0,1,.18,1,3.32,3.32,0,0,1-.11.9,2.79,2.79,0,0,1-.35.76,3.68,3.68,0,0,1-.58.69,8.26,8.26,0,0,1-.83.67q-.59.42-1,.72a4.31,4.31,0,0,0-.61.56,1.62,1.62,0,0,0-.32.52,1.82,1.82,0,0,0-.09.6h4.18v.86H44.55V9.79a3.47,3.47,0,0,1,.12-.95,2.46,2.46,0,0,1,.39-.78,4.32,4.32,0,0,1,.71-.74q.44-.37,1.07-.83a6.76,6.76,0,0,0,.76-.63,3.26,3.26,0,0,0,.5-.6,2.15,2.15,0,0,0,.27-.61A2.61,2.61,0,0,0,48.44,4Z" fill="#7f3f96"/><rect x="14" y="24.2" width="26" height="1" fill="#7f3f96"/><rect x="14" y="33.2" width="26" height="1" fill="#7f3f96"/><rect x="14" y="24.2" width="1" height="10" fill="#7f3f96"/></svg>