<svg id="Layer_1" data-name="Layer 1" xmlns="http://www.w3.org/2000/svg" width="60" height="24" viewBox="0 0 60 24"><title>combo-box-hover-dropdown</title><rect x="0.5" y="0.5" width="34" height="23" fill="#fff"/><path d="M34,1V23H1V1H34m1-1H0V24H35V0Z" fill="#a9acaf"/><rect x="35.5" y="0.5" width="24" height="23" fill="#fff"/><path d="M59,1V23H36V1H59m1-1H35V24H60V0Z" fill="#4386b9"/><path d="M14.89,11.3a8.37,8.37,0,0,1-.23,2.05A4.58,4.58,0,0,1,14,14.87a3,3,0,0,1-1.07.95,3.11,3.11,0,0,1-1.44.33A3.45,3.45,0,0,1,10,15.85v-.92a3,3,0,0,0,1.49.39,2.16,2.16,0,0,0,1-.23,2.11,2.11,0,0,0,.76-.68,3.35,3.35,0,0,0,.47-1.1,6.24,6.24,0,0,0,.16-1.51h0A1.92,1.92,0,0,1,12,12.88a2.52,2.52,0,0,1-1-.19,2.27,2.27,0,0,1-.78-.54,2.47,2.47,0,0,1-.51-.83,3,3,0,0,1-.18-1.06,3.09,3.09,0,0,1,.2-1.14,2.65,2.65,0,0,1,.56-.89,2.52,2.52,0,0,1,.86-.58,2.8,2.8,0,0,1,1.08-.21,2.39,2.39,0,0,1,1.12.25,2.25,2.25,0,0,1,.82.74,3.68,3.68,0,0,1,.51,1.2A6.87,6.87,0,0,1,14.89,11.3Zm-1-.86a2.93,2.93,0,0,0-.13-.88,2.14,2.14,0,0,0-.35-.68,1.56,1.56,0,0,0-.53-.44,1.47,1.47,0,0,0-.67-.16,1.52,1.52,0,0,0-.64.14A1.55,1.55,0,0,0,11,8.8a1.85,1.85,0,0,0-.35.59,2.15,2.15,0,0,0-.13.75,2.46,2.46,0,0,0,.12.8,1.66,1.66,0,0,0,.34.59,1.48,1.48,0,0,0,.54.37,1.81,1.81,0,0,0,.69.13,1.59,1.59,0,0,0,.63-.13,1.67,1.67,0,0,0,.52-.34,1.57,1.57,0,0,0,.35-.5A1.55,1.55,0,0,0,13.85,10.43Z" fill="#4d5359"/><path d="M43,9h9l-4.5,6Z" fill="#2b3033"/></svg>