<?xml version="1.0" encoding="UTF-8"?>
<svg width="126px" height="30px" viewBox="0 0 126 30" version="1.1" xmlns="http://www.w3.org/2000/svg" xmlns:xlink="http://www.w3.org/1999/xlink">
    <!-- Generator: Sketch 48.2 (47327) - http://www.bohemiancoding.com/sketch -->
    <title>ni-logo</title>
    <desc>Created with Sketch.</desc>
    <defs>
        <polygon id="path-1" points="0 0 26.394675 0 26.394675 19.5370078 0 19.5370078"></polygon>
        <polygon id="path-3" points="0.721375207 0.205725 8.93115 0.205725 8.93115 18.75 0.721375207 18.75"></polygon>
        <polygon id="path-5" points="0 30 124.83525 30 124.83525 0 0 0"></polygon>
    </defs>
    <g id="Page-1" stroke="none" stroke-width="1" fill="none" fill-rule="evenodd">
        <g id="ni-logo">
            <g id="Page-1">
                <path d="M18.048,4.053225 C18.126,2.572725 19.4115,1.287225 20.736,0.936975 C24.009,0.001725 25.80075,0.156975 31.68375,0.118725 C28.1385,3.273975 25.3335,8.260725 25.95675,13.131225 C24.67125,12.078975 23.814,10.598475 22.72275,9.429225 C23.15175,8.611725 23.541,7.832475 23.775,6.936225 C24.16425,5.455725 25.2555,5.105475 26.58,5.144475 C26.697,5.144475 26.502,4.014225 26.15175,3.936975 C25.1385,3.663225 24.28125,3.975225 23.11275,3.507975 C22.76175,3.390975 22.3335,3.585975 22.0215,3.741975 C21.048,4.209225 20.46375,5.260725 19.3725,5.611725 L18.048,4.053225 Z" id="Fill-1" fill="#FEFEFE"></path>
                <g id="Group-5">
                    <mask id="mask-2" fill="white">
                        <use xlink:href="#path-1"></use>
                    </mask>
                    <g id="Clip-4"></g>
                    <path d="M0.048675,3.0795 C2.074425,1.716 4.022175,0.78075 6.398925,0.3135 C9.398925,-0.2325 12.671175,-0.27075 14.891925,1.911 C19.139175,6.0015 22.566675,10.287 26.306925,14.92275 C26.423925,15.1185 26.423925,15.624 26.306925,15.702 C23.657925,17.2215 21.047925,18.42975 18.242925,19.48125 C17.774925,19.6365 17.229675,19.44225 16.917675,19.209 C12.671175,15.35175 9.788175,10.71525 5.697675,6.70275 C4.139175,5.18325 2.269425,4.053 0.164925,3.42975 C-0.029325,3.3525 -0.029325,3.1575 0.048675,3.0795" id="Fill-3" fill="#FEFEFE" mask="url(#mask-2)"></path>
                </g>
                <g id="Group-8" transform="translate(6.000000, 11.250000)">
                    <mask id="mask-4" fill="white">
                        <use xlink:href="#path-3"></use>
                    </mask>
                    <g id="Clip-7"></g>
                    <path d="M8.85315,10.646475 C5.81415,12.828225 3.20415,15.516975 1.2564,18.750225 C0.5154,15.594975 0.47715,12.243975 1.56765,9.204975 C2.6199,6.204975 2.85315,3.322725 2.97015,0.205725 C4.91865,2.465475 7.1004,4.920225 8.93115,7.140975 L8.85315,10.646475 Z" id="Fill-6" fill="#FEFEFE" mask="url(#mask-4)"></path>
                </g>
                <path d="M41.73525,10.092375 L39.7875,10.092375 C38.307,8.338875 36.35925,6.001125 35.42325,4.404375 L35.385,4.404375 L35.385,10.092375 L33.08625,10.092375 L33.08625,0.352125 L35.19,0.352125 C36.5925,2.105625 38.69625,4.637625 39.3975,5.923125 L39.43725,5.923125 L39.43725,0.352125 L41.73525,0.352125 L41.73525,10.092375 Z" id="Fill-9" fill="#FEFEFE"></path>
                <path d="M47.890875,6.235125 C47.578875,5.065875 47.306625,4.131375 46.955625,2.767875 L46.917375,2.767875 C46.527375,4.131375 46.215375,5.065875 45.826125,6.235125 L47.890875,6.235125 Z M48.553125,0.352125 L52.254375,10.092375 L49.138125,10.092375 L48.358875,7.793625 L45.358875,7.793625 L44.422875,10.092375 L42.124875,10.092375 L46.098375,0.352125 L48.553125,0.352125 Z" id="Fill-11" fill="#FEFEFE"></path>
                <polygon id="Fill-13" fill="#FEFEFE" points="53.189175 10.092375 53.189175 2.183625 50.345175 2.183625 50.345175 0.352125 58.916175 0.352125 58.916175 2.183625 56.111175 2.183625 56.111175 10.092375"></polygon>
                <mask id="mask-6" fill="white">
                    <use xlink:href="#path-5"></use>
                </mask>
                <g id="Clip-16"></g>
                <polygon id="Fill-15" fill="#FEFEFE" mask="url(#mask-6)" points="59.8515 10.09275 62.7735 10.09275 62.7735 0.3525 59.8515 0.3525"></polygon>
                <path d="M70.097925,5.105325 C70.097925,3.390825 69.590925,2.222325 68.344425,2.222325 C67.097925,2.222325 66.551925,3.390825 66.551925,5.105325 C66.551925,6.936075 67.019925,8.222325 68.344425,8.222325 C69.629925,8.222325 70.097925,6.936075 70.097925,5.105325 M63.513675,5.105325 C63.513675,2.378325 65.539425,0.196575 68.344425,0.196575 C71.149425,0.196575 73.175925,2.378325 73.175925,5.105325 C73.175925,8.027325 71.344425,10.248075 68.344425,10.248075 C65.345175,10.248075 63.513675,8.027325 63.513675,5.105325" id="Fill-17" fill="#FEFEFE" mask="url(#mask-6)"></path>
                <path d="M82.5648,10.092375 L80.57805,10.092375 C79.13655,8.338875 77.1498,6.001125 76.2138,4.404375 L76.17555,4.404375 L76.17555,10.092375 L73.8768,10.092375 L73.8768,0.352125 L76.01955,0.352125 C77.42205,2.105625 79.52655,4.637625 80.22705,5.923125 L80.22705,0.352125 L82.5648,0.352125 L82.5648,10.092375 Z" id="Fill-18" fill="#FEFEFE" mask="url(#mask-6)"></path>
                <path d="M88.5648,6.235125 C88.2138,5.065875 87.9408,4.131375 87.59055,2.767875 C87.2013,4.131375 86.8893,5.065875 86.50005,6.235125 L88.5648,6.235125 Z M89.18805,0.352125 L92.8893,10.092375 L89.7723,10.092375 L89.03205,7.793625 L85.99305,7.793625 L85.05855,10.092375 L82.7988,10.092375 L86.7333,0.352125 L89.18805,0.352125 Z" id="Fill-19" fill="#FEFEFE" mask="url(#mask-6)"></path>
                <polygon id="Fill-20" fill="#FEFEFE" mask="url(#mask-6)" points="93.551175 0.352275 96.512175 0.352275 96.512175 8.261025 100.057425 8.261025 100.057425 10.092525 93.551175 10.092525"></polygon>
                <polygon id="Fill-21" fill="#FEFEFE" mask="url(#mask-6)" points="28.68375 22.83225 31.64475 22.83225 31.64475 13.092 28.68375 13.092"></polygon>
                <path d="M41.5404,22.832175 L39.59265,22.832175 C38.11215,21.077925 36.1644,18.740925 35.2284,17.143425 L35.19015,17.143425 L35.19015,22.832175 L32.8914,22.832175 L32.8914,13.091925 L34.99515,13.091925 C36.39765,14.845425 38.5014,17.378175 39.2034,18.701925 L39.24165,18.701925 L39.24165,13.091925 L41.5404,13.091925 L41.5404,22.832175 Z" id="Fill-22" fill="#FEFEFE" mask="url(#mask-6)"></path>
                <path d="M47.734875,15.118275 C47.345625,14.883525 46.838625,14.768025 46.293375,14.768025 C45.748125,14.768025 45.436875,15.040275 45.436875,15.351525 C45.436875,15.897525 46.254375,16.364025 47.189625,17.222025 C48.436125,18.390525 48.748125,19.130775 48.748125,20.143275 C48.748125,21.001275 48.046875,23.026275 45.124875,23.026275 C43.994625,23.026275 42.865125,22.754025 42.085875,22.130775 L42.982125,20.494275 C43.371375,20.844525 43.955625,21.195525 44.617875,21.195525 C45.202875,21.195525 45.865125,20.883525 45.865125,20.182275 C45.865125,19.403025 44.890875,18.819525 44.150625,18.155775 C43.137375,17.260275 42.514875,16.754025 42.514875,15.547275 C42.514875,13.988025 44.111625,12.936525 45.943125,12.936525 C47.189625,12.936525 48.163875,13.403775 48.475125,13.598775 L47.734875,15.118275 Z" id="Fill-23" fill="#FEFEFE" mask="url(#mask-6)"></path>
                <polygon id="Fill-24" fill="#FEFEFE" mask="url(#mask-6)" points="51.669825 22.832175 51.669825 14.922675 48.825825 14.922675 48.825825 13.091925 57.396825 13.091925 57.396825 14.922675 54.591825 14.922675 54.591825 22.832175"></polygon>
                <path d="M61.2927,17.339025 L62.11095,17.339025 C62.8902,17.339025 63.27945,16.637775 63.27945,16.130775 C63.27945,15.157275 62.6952,14.922525 62.03295,14.922525 L61.2927,14.922525 L61.2927,17.339025 Z M58.33245,13.091775 L62.6952,13.091775 C64.95495,13.091775 66.20145,14.105025 66.20145,15.701775 C66.20145,17.183025 65.46195,18.079275 64.5657,18.508275 L66.70845,22.676025 L63.59145,23.026275 L62.03295,19.169775 L61.2927,19.169775 L61.2927,22.832025 L58.33245,22.832025 L58.33245,13.091775 Z" id="Fill-25" fill="#FEFEFE" mask="url(#mask-6)"></path>
                <path d="M70.01955,13.092075 L70.01955,18.195075 C70.01955,19.949325 70.29255,20.961825 71.53905,20.961825 C72.5133,20.961825 73.05855,19.986825 73.05855,18.156075 L73.05855,13.092075 L75.5913,13.092075 L75.5913,18.974325 C75.5913,21.896325 73.60455,23.026575 71.3838,23.026575 C68.8908,23.026575 67.09755,21.974325 67.09755,19.053075 L67.09755,13.092075 L70.01955,13.092075 Z" id="Fill-26" fill="#FEFEFE" mask="url(#mask-6)"></path>
                <path d="M88.68165,22.832175 L85.75965,22.832175 L85.75965,16.013925 L85.72065,16.013925 C84.9804,18.584925 84.20115,20.728425 83.4219,22.832175 L81.5904,22.832175 C80.7729,20.728425 79.99365,18.584925 79.21365,16.013925 L79.21365,22.832175 L76.87665,22.832175 L76.87665,13.091925 L80.85015,13.091925 C81.51315,14.961675 82.2144,16.832175 82.83765,19.091925 L82.8759,19.091925 C83.4999,16.832175 84.16215,14.961675 84.7854,13.091925 L88.68165,13.091925 L88.68165,22.832175 Z" id="Fill-27" fill="#FEFEFE" mask="url(#mask-6)"></path>
                <polygon id="Fill-28" fill="#FEFEFE" mask="url(#mask-6)" points="95.84985 14.92275 92.88885 14.92275 92.88885 16.8315 95.77185 16.8315 95.77185 18.663 92.88885 18.663 92.88885 21.0405 96.43485 21.0405 96.43485 22.83225 89.92785 22.83225 89.92785 13.092 95.84985 13.092"></polygon>
                <path d="M105.629175,22.832175 L103.680675,22.832175 C102.239175,21.077925 100.252425,18.740925 99.317175,17.143425 L99.278175,17.143425 L99.278175,22.832175 L96.980175,22.832175 L96.980175,13.091925 L99.122175,13.091925 C100.525425,14.845425 102.629175,17.378175 103.290675,18.701925 L103.330425,18.701925 L103.330425,13.091925 L105.629175,13.091925 L105.629175,22.832175 Z" id="Fill-29" fill="#FEFEFE" mask="url(#mask-6)"></path>
                <polygon id="Fill-30" fill="#FEFEFE" mask="url(#mask-6)" points="108.97965 22.832175 108.97965 14.922675 106.17465 14.922675 106.17465 13.091925 114.7059 13.091925 114.7059 14.922675 111.90165 14.922675 111.90165 22.832175"></polygon>
                <path d="M120.472425,15.118275 C120.082425,14.883525 119.576175,14.768025 119.030925,14.768025 C118.446675,14.768025 118.174425,15.040275 118.174425,15.351525 C118.174425,15.897525 118.991925,16.364025 119.927175,17.222025 C121.173675,18.390525 121.485675,19.130775 121.485675,20.143275 C121.485675,21.001275 120.783675,23.026275 117.862425,23.026275 C116.732925,23.026275 115.602675,22.754025 114.823425,22.130775 L115.679925,20.494275 C116.108925,20.844525 116.654925,21.195525 117.355425,21.195525 C117.940425,21.195525 118.601925,20.883525 118.601925,20.182275 C118.601925,19.403025 117.628425,18.819525 116.888175,18.155775 C115.874925,17.260275 115.252425,16.754025 115.252425,15.547275 C115.252425,13.988025 116.849175,12.936525 118.680675,12.936525 C119.927175,12.936525 120.862425,13.403775 121.212675,13.598775 L120.472425,15.118275 Z" id="Fill-31" fill="#FEFEFE" mask="url(#mask-6)"></path>
                <path d="M124.835475,14.7678 L124.602225,14.7678 L124.602225,13.63755 L124.563225,13.63755 L123.978225,14.7678 L123.822975,14.7678 L123.277725,13.63755 L123.238725,13.63755 L123.238725,14.7678 L123.043725,14.7678 L123.043725,13.24755 L123.355725,13.24755 L123.939975,14.3778 L124.563225,13.24755 L124.835475,13.24755 L124.835475,14.7678 Z M122.031225,14.7678 L122.031225,13.40355 L121.485975,13.40355 L121.485975,13.24755 L122.809725,13.24755 L122.809725,13.40355 L122.303475,13.40355 L122.303475,14.7678 L122.031225,14.7678 Z" id="Fill-32" fill="#FEFEFE" mask="url(#mask-6)"></path>
            </g>
        </g>
    </g>
</svg>