<svg id="Layer_1" data-name="Layer 1" xmlns="http://www.w3.org/2000/svg" width="191" height="25" viewBox="0 0 191 25"><title>radio-button-unselected-hover</title><path d="M28.25,11.8q0,3.54-3.19,3.54T22,11.94V6.8h1v5.07q0,2.58,2.18,2.58t2.1-2.5V6.8h1Z" fill="#2b3033"/><path d="M29.85,15V14a2.84,2.84,0,0,0,1.73.58q1.27,0,1.27-.84a.73.73,0,0,0-.11-.41,1.08,1.08,0,0,0-.29-.3,2.26,2.26,0,0,0-.43-.23l-.54-.21a6.9,6.9,0,0,1-.7-.32,2.12,2.12,0,0,1-.5-.36,1.35,1.35,0,0,1-.3-.46,1.63,1.63,0,0,1-.1-.6,1.43,1.43,0,0,1,.19-.75,1.71,1.71,0,0,1,.52-.54,2.4,2.4,0,0,1,.74-.33,3.26,3.26,0,0,1,.85-.11,3.44,3.44,0,0,1,1.39.27v1A2.72,2.72,0,0,0,32,9.87a1.78,1.78,0,0,0-.49.06,1.19,1.19,0,0,0-.37.17.8.8,0,0,0-.24.27.7.7,0,0,0-.08.34.82.82,0,0,0,.08.39.86.86,0,0,0,.25.28,1.9,1.9,0,0,0,.4.22l.53.22a7.42,7.42,0,0,1,.71.31,2.45,2.45,0,0,1,.54.36,1.42,1.42,0,0,1,.34.47,1.5,1.5,0,0,1,.12.63,1.48,1.48,0,0,1-.2.77,1.68,1.68,0,0,1-.52.54,2.4,2.4,0,0,1-.76.32,3.73,3.73,0,0,1-.9.11A3.4,3.4,0,0,1,29.85,15Z" fill="#2b3033"/><path d="M40.13,12.44H35.89A2.24,2.24,0,0,0,36.43,14a1.86,1.86,0,0,0,1.42.54,3,3,0,0,0,1.86-.67v.9a3.48,3.48,0,0,1-2.09.57,2.54,2.54,0,0,1-2-.82,3.35,3.35,0,0,1-.73-2.3,3.28,3.28,0,0,1,.79-2.28,2.55,2.55,0,0,1,2-.88,2.26,2.26,0,0,1,1.82.76,3.18,3.18,0,0,1,.64,2.12Zm-1-.81a2,2,0,0,0-.4-1.29,1.37,1.37,0,0,0-1.1-.46,1.55,1.55,0,0,0-1.15.49,2.21,2.21,0,0,0-.59,1.27Z" fill="#2b3033"/><path d="M50.72,14.85a4.93,4.93,0,0,1-2.32.49,3.74,3.74,0,0,1-2.87-1.15,4.26,4.26,0,0,1-1.08-3A4.46,4.46,0,0,1,45.66,7.9a4.12,4.12,0,0,1,3.08-1.24,4.93,4.93,0,0,1,2,.35v1a4,4,0,0,0-2-.5,3.06,3.06,0,0,0-2.35,1,3.64,3.64,0,0,0-.9,2.58,3.47,3.47,0,0,0,.84,2.45,2.86,2.86,0,0,0,2.21.91,4.14,4.14,0,0,0,2.19-.56Z" fill="#2b3033"/><path d="M55.08,15.14a1.85,1.85,0,0,1-.9.19q-1.58,0-1.58-1.76V10h-1V9.2h1V7.74l1-.31V9.2h1.51V10H53.57V13.4a1.4,1.4,0,0,0,.21.86.82.82,0,0,0,.68.26,1,1,0,0,0,.63-.2Z" fill="#2b3033"/><path d="M59.5,10.17a1.18,1.18,0,0,0-.73-.19,1.23,1.23,0,0,0-1,.58,2.68,2.68,0,0,0-.41,1.58V15.2h-1v-6h1v1.24h0a2.1,2.1,0,0,1,.63-1,1.43,1.43,0,0,1,.94-.35,1.57,1.57,0,0,1,.57.08Z" fill="#2b3033"/><path d="M61.5,15.2h-1V6.32h1Z" fill="#2b3033"/><path d="M69.51,15.14a1.85,1.85,0,0,1-.9.19Q67,15.33,67,13.57V10H66V9.2h1V7.74l1-.31V9.2h1.51V10H68V13.4a1.4,1.4,0,0,0,.21.86.82.82,0,0,0,.68.26,1,1,0,0,0,.63-.2Z" fill="#2b3033"/><path d="M73.21,15.34a2.78,2.78,0,0,1-2.12-.84,3.11,3.11,0,0,1-.79-2.23,3.24,3.24,0,0,1,.83-2.36,3,3,0,0,1,2.23-.85,2.69,2.69,0,0,1,2.09.83,3.28,3.28,0,0,1,.75,2.29,3.22,3.22,0,0,1-.81,2.3A2.84,2.84,0,0,1,73.21,15.34Zm.07-5.47a1.83,1.83,0,0,0-1.46.63,2.59,2.59,0,0,0-.54,1.74,2.45,2.45,0,0,0,.54,1.68,1.85,1.85,0,0,0,1.46.62,1.76,1.76,0,0,0,1.43-.6,2.62,2.62,0,0,0,.5-1.72,2.66,2.66,0,0,0-.5-1.73A1.75,1.75,0,0,0,73.28,9.87Z" fill="#2b3033"/><path d="M82,14.33h0v.87H81V6.32h1v3.94h0a2.27,2.27,0,0,1,2.07-1.2,2.2,2.2,0,0,1,1.81.81A3.33,3.33,0,0,1,86.54,12a3.72,3.72,0,0,1-.73,2.41,2.44,2.44,0,0,1-2,.91A2,2,0,0,1,82,14.33Zm0-2.42v.84A1.78,1.78,0,0,0,82.47,14a1.72,1.72,0,0,0,2.6-.15,3.06,3.06,0,0,0,.5-1.86,2.42,2.42,0,0,0-.46-1.57,1.53,1.53,0,0,0-1.25-.57,1.7,1.7,0,0,0-1.35.58A2.14,2.14,0,0,0,82,11.91Z" fill="#2b3033"/><path d="M91.21,10.17a1.18,1.18,0,0,0-.73-.19,1.23,1.23,0,0,0-1,.58A2.68,2.68,0,0,0,89,12.14V15.2h-1v-6h1v1.24h0a2.1,2.1,0,0,1,.63-1,1.43,1.43,0,0,1,.94-.35,1.57,1.57,0,0,1,.57.08Z" fill="#2b3033"/><path d="M96.54,15.2h-1v-.94h0a2,2,0,0,1-1.85,1.08,2,2,0,0,1-1.4-.47,1.64,1.64,0,0,1-.51-1.26q0-1.68,2-2l1.8-.25q0-1.53-1.24-1.53a3,3,0,0,0-2,.74v-1a3.72,3.72,0,0,1,2-.56q2.12,0,2.12,2.24Zm-1-3-1.45.2a2.35,2.35,0,0,0-1,.33,1,1,0,0,0-.34.84.92.92,0,0,0,.31.72,1.21,1.21,0,0,0,.83.28,1.54,1.54,0,0,0,1.18-.5,1.79,1.79,0,0,0,.47-1.27Z" fill="#2b3033"/><path d="M103.34,15.2h-1V11.78q0-1.91-1.39-1.91a1.51,1.51,0,0,0-1.19.54,2,2,0,0,0-.47,1.37V15.2h-1v-6h1v1h0a2.17,2.17,0,0,1,2-1.14,1.84,1.84,0,0,1,1.51.64,2.83,2.83,0,0,1,.52,1.84Z" fill="#2b3033"/><path d="M109.24,14.93a3.12,3.12,0,0,1-1.64.42,2.72,2.72,0,0,1-2.07-.83,3,3,0,0,1-.79-2.17,3.33,3.33,0,0,1,.85-2.38,3,3,0,0,1,2.27-.9,3.16,3.16,0,0,1,1.39.29v1a2.44,2.44,0,0,0-1.43-.47,1.93,1.93,0,0,0-1.51.66,2.5,2.5,0,0,0-.59,1.73,2.38,2.38,0,0,0,.55,1.66,1.91,1.91,0,0,0,1.49.61,2.41,2.41,0,0,0,1.48-.52Z" fill="#2b3033"/><path d="M115.67,15.2h-1V11.74q0-1.87-1.39-1.87a1.52,1.52,0,0,0-1.18.54,2,2,0,0,0-.48,1.39v3.4h-1V6.32h1V10.2h0a2.18,2.18,0,0,1,2-1.14q2,0,2,2.44Z" fill="#2b3033"/><path d="M123.73,7.16a1.28,1.28,0,0,0-.64-.16q-1,0-1,1.27V9.2h1.41V10h-1.41V15.2h-1V10h-1V9.2h1v-1a2,2,0,0,1,.54-1.49A1.84,1.84,0,0,1,123,6.19a1.88,1.88,0,0,1,.7.11Z" fill="#2b3033"/><path d="M127.65,10.17a1.18,1.18,0,0,0-.73-.19,1.23,1.23,0,0,0-1,.58,2.68,2.68,0,0,0-.41,1.58V15.2h-1v-6h1v1.24h0a2.1,2.1,0,0,1,.63-1,1.43,1.43,0,0,1,.94-.35,1.57,1.57,0,0,1,.57.08Z" fill="#2b3033"/><path d="M131,15.34a2.78,2.78,0,0,1-2.12-.84,3.11,3.11,0,0,1-.79-2.23A3.24,3.24,0,0,1,129,9.91a3,3,0,0,1,2.23-.85,2.69,2.69,0,0,1,2.09.83,3.28,3.28,0,0,1,.75,2.29,3.22,3.22,0,0,1-.81,2.3A2.84,2.84,0,0,1,131,15.34Zm.07-5.47a1.83,1.83,0,0,0-1.46.63,2.59,2.59,0,0,0-.54,1.74,2.45,2.45,0,0,0,.54,1.68,1.85,1.85,0,0,0,1.46.62,1.76,1.76,0,0,0,1.43-.6,2.62,2.62,0,0,0,.5-1.72,2.66,2.66,0,0,0-.5-1.73A1.75,1.75,0,0,0,131.11,9.87Z" fill="#2b3033"/><path d="M144.09,15.2h-1V11.76a2.6,2.6,0,0,0-.31-1.44,1.17,1.17,0,0,0-1-.45,1.28,1.28,0,0,0-1,.56,2.15,2.15,0,0,0-.43,1.35V15.2h-1V11.64q0-1.77-1.37-1.77a1.26,1.26,0,0,0-1,.53,2.19,2.19,0,0,0-.41,1.38V15.2h-1v-6h1v.95h0a2,2,0,0,1,1.86-1.09,1.73,1.73,0,0,1,1.7,1.24,2.14,2.14,0,0,1,2-1.24q2,0,2,2.44Z" fill="#2b3033"/><path d="M153.49,15.2h-1v-.94h0a2,2,0,0,1-1.85,1.08,2,2,0,0,1-1.4-.47,1.64,1.64,0,0,1-.51-1.26q0-1.68,2-2l1.8-.25q0-1.53-1.24-1.53a3,3,0,0,0-2,.74v-1a3.72,3.72,0,0,1,2-.56q2.12,0,2.12,2.24Zm-1-3-1.45.2a2.35,2.35,0,0,0-1,.33,1,1,0,0,0-.34.84.92.92,0,0,0,.31.72,1.21,1.21,0,0,0,.83.28,1.54,1.54,0,0,0,1.18-.5,1.79,1.79,0,0,0,.47-1.27Z" fill="#2b3033"/><path d="M166.14,9.2l-1.8,6h-1l-1.24-4.29a2.8,2.8,0,0,1-.09-.56h0a2.63,2.63,0,0,1-.12.54l-1.34,4.31h-1l-1.82-6h1L160,13.71a2.72,2.72,0,0,1,.08.54h0a2.52,2.52,0,0,1,.11-.55l1.38-4.5h.88l1.24,4.52a3.23,3.23,0,0,1,.09.54h0a2.49,2.49,0,0,1,.1-.54l1.22-4.52Z" fill="#2b3033"/><path d="M167.75,7.68a.61.61,0,0,1-.44-.18.59.59,0,0,1-.18-.45.62.62,0,0,1,.62-.63.62.62,0,0,1,.45.18.63.63,0,0,1,0,.89A.62.62,0,0,1,167.75,7.68Zm.47,7.52h-1v-6h1Z" fill="#2b3033"/><path d="M173.29,10.17a1.18,1.18,0,0,0-.73-.19,1.23,1.23,0,0,0-1,.58,2.68,2.68,0,0,0-.41,1.58V15.2h-1v-6h1v1.24h0a2.1,2.1,0,0,1,.63-1,1.43,1.43,0,0,1,.94-.35,1.57,1.57,0,0,1,.57.08Z" fill="#2b3033"/><path d="M179,12.44h-4.24A2.24,2.24,0,0,0,175.3,14a1.86,1.86,0,0,0,1.42.54,3,3,0,0,0,1.86-.67v.9a3.48,3.48,0,0,1-2.09.57,2.54,2.54,0,0,1-2-.82,3.35,3.35,0,0,1-.73-2.3,3.28,3.28,0,0,1,.79-2.28,2.55,2.55,0,0,1,2-.88,2.26,2.26,0,0,1,1.82.76,3.18,3.18,0,0,1,.64,2.12Zm-1-.81a2,2,0,0,0-.4-1.29,1.37,1.37,0,0,0-1.1-.46,1.55,1.55,0,0,0-1.15.49,2.21,2.21,0,0,0-.59,1.27Z" fill="#2b3033"/><circle cx="11" cy="11" r="6" fill="#4386b9"/><circle cx="11" cy="11" r="4.91" fill="#fff"/></svg>