<svg id="Layer_1" data-name="Layer 1" xmlns="http://www.w3.org/2000/svg" width="144" height="40" viewBox="0 0 144 40"><title>hyperlink-URL-do</title><rect width="144" height="40" fill="#eef0ef"/><path d="M6.93,22.2H6V13.32h1Z" fill="#065fa3"/><path d="M11.39,22.34a2.78,2.78,0,0,1-2.12-.84,3.11,3.11,0,0,1-.79-2.23,3.24,3.24,0,0,1,.83-2.36,3,3,0,0,1,2.23-.85,2.69,2.69,0,0,1,2.09.83,3.28,3.28,0,0,1,.75,2.29,3.22,3.22,0,0,1-.81,2.3A2.84,2.84,0,0,1,11.39,22.34Zm.07-5.47A1.83,1.83,0,0,0,10,17.5a2.59,2.59,0,0,0-.54,1.74A2.45,2.45,0,0,0,10,20.92a1.85,1.85,0,0,0,1.46.62,1.76,1.76,0,0,0,1.43-.6,2.62,2.62,0,0,0,.5-1.72,2.66,2.66,0,0,0-.5-1.73A1.75,1.75,0,0,0,11.46,16.87Z" fill="#065fa3"/><path d="M20,21.93a3.12,3.12,0,0,1-1.64.42,2.72,2.72,0,0,1-2.07-.83,3,3,0,0,1-.79-2.17A3.33,3.33,0,0,1,16.35,17a3,3,0,0,1,2.27-.9,3.16,3.16,0,0,1,1.39.29v1a2.44,2.44,0,0,0-1.43-.47,1.93,1.93,0,0,0-1.51.66,2.5,2.5,0,0,0-.59,1.73A2.38,2.38,0,0,0,17,20.92a1.91,1.91,0,0,0,1.49.61A2.41,2.41,0,0,0,20,21Z" fill="#065fa3"/><path d="M25.75,22.2h-1v-.94h0a2,2,0,0,1-1.85,1.08,2,2,0,0,1-1.4-.47A1.64,1.64,0,0,1,21,20.61q0-1.68,2-2l1.8-.25q0-1.53-1.24-1.53a3,3,0,0,0-2,.74v-1a3.72,3.72,0,0,1,2-.56q2.12,0,2.12,2.24Zm-1-3-1.45.2a2.35,2.35,0,0,0-1,.33,1,1,0,0,0-.34.84.92.92,0,0,0,.31.72,1.21,1.21,0,0,0,.83.28,1.54,1.54,0,0,0,1.18-.5,1.79,1.79,0,0,0,.47-1.27Z" fill="#065fa3"/><path d="M28.52,22.2h-1V13.32h1Z" fill="#065fa3"/><path d="M35.45,22.2h-1V18.74q0-1.87-1.39-1.87a1.52,1.52,0,0,0-1.18.54,2,2,0,0,0-.48,1.39v3.4h-1V13.32h1V17.2h0a2.18,2.18,0,0,1,2-1.14q2,0,2,2.44Z" fill="#065fa3"/><path d="M39.76,22.34a2.78,2.78,0,0,1-2.12-.84,3.11,3.11,0,0,1-.79-2.23,3.24,3.24,0,0,1,.83-2.36,3,3,0,0,1,2.23-.85,2.69,2.69,0,0,1,2.09.83,3.28,3.28,0,0,1,.75,2.29,3.22,3.22,0,0,1-.81,2.3A2.84,2.84,0,0,1,39.76,22.34Zm.07-5.47a1.83,1.83,0,0,0-1.46.63,2.59,2.59,0,0,0-.54,1.74,2.45,2.45,0,0,0,.54,1.68,1.85,1.85,0,0,0,1.46.62,1.76,1.76,0,0,0,1.43-.6,2.62,2.62,0,0,0,.5-1.72,2.66,2.66,0,0,0-.5-1.73A1.75,1.75,0,0,0,39.83,16.87Z" fill="#065fa3"/><path d="M43.92,22V21a2.84,2.84,0,0,0,1.73.58q1.27,0,1.27-.84a.73.73,0,0,0-.11-.41,1.08,1.08,0,0,0-.29-.3,2.26,2.26,0,0,0-.43-.23l-.54-.21a6.9,6.9,0,0,1-.7-.32,2.12,2.12,0,0,1-.5-.36,1.35,1.35,0,0,1-.3-.46,1.63,1.63,0,0,1-.1-.6,1.43,1.43,0,0,1,.19-.75,1.71,1.71,0,0,1,.52-.54,2.4,2.4,0,0,1,.74-.33,3.26,3.26,0,0,1,.85-.11,3.44,3.44,0,0,1,1.39.27v1a2.72,2.72,0,0,0-1.52-.43,1.78,1.78,0,0,0-.49.06,1.19,1.19,0,0,0-.37.17.8.8,0,0,0-.24.27.7.7,0,0,0-.08.34.82.82,0,0,0,.08.39.86.86,0,0,0,.25.28,1.9,1.9,0,0,0,.4.22l.53.22a7.42,7.42,0,0,1,.71.31,2.45,2.45,0,0,1,.54.36,1.42,1.42,0,0,1,.34.47,1.5,1.5,0,0,1,.12.63,1.48,1.48,0,0,1-.2.77,1.68,1.68,0,0,1-.52.54,2.4,2.4,0,0,1-.76.32,3.73,3.73,0,0,1-.9.11A3.4,3.4,0,0,1,43.92,22Z" fill="#065fa3"/><path d="M52.16,22.14a1.85,1.85,0,0,1-.9.19q-1.58,0-1.58-1.76V17h-1V16.2h1V14.74l1-.31V16.2h1.51V17H50.65V20.4a1.4,1.4,0,0,0,.21.86.82.82,0,0,0,.68.26,1,1,0,0,0,.63-.2Z" fill="#065fa3"/><path d="M53.78,17.37a.62.62,0,0,1-.46-.19.64.64,0,0,1-.19-.46.62.62,0,0,1,.19-.46.63.63,0,0,1,.46-.19.65.65,0,0,1,.47.19.61.61,0,0,1,.19.46.63.63,0,0,1-.19.46A.64.64,0,0,1,53.78,17.37Zm0,5a.62.62,0,0,1-.46-.19.64.64,0,0,1-.19-.46.65.65,0,0,1,.19-.47.62.62,0,0,1,.46-.2.63.63,0,0,1,.47.2.64.64,0,0,1,.19.47.63.63,0,0,1-.19.46A.64.64,0,0,1,53.78,22.33Z" fill="#065fa3"/><path d="M55.6,19.86a2.24,2.24,0,0,1,.11-.67,2.43,2.43,0,0,1,.3-.63A2.5,2.5,0,0,1,56.5,18a2.32,2.32,0,0,1,.66-.38,2.49,2.49,0,0,1-.87-.78A1.85,1.85,0,0,1,56,15.8a2,2,0,0,1,.67-1.54,2.29,2.29,0,0,1,.75-.45,2.8,2.8,0,0,1,1.88,0,2.33,2.33,0,0,1,.75.45,2,2,0,0,1,.49.68,2.05,2.05,0,0,1,.18.85,1.85,1.85,0,0,1-.32,1.06,2.52,2.52,0,0,1-.86.78,2.3,2.3,0,0,1,.65.38,2.53,2.53,0,0,1,.48.53,2.43,2.43,0,0,1,.3.63,2.24,2.24,0,0,1,.11.67,2.5,2.5,0,0,1-.2,1,2.25,2.25,0,0,1-.56.78,2.58,2.58,0,0,1-.86.51,3.22,3.22,0,0,1-1.1.18,3.18,3.18,0,0,1-1.1-.18,2.62,2.62,0,0,1-.86-.51,2.27,2.27,0,0,1-.57-.78A2.46,2.46,0,0,1,55.6,19.86Zm1-.08a2,2,0,0,0,.12.71,1.53,1.53,0,0,0,.34.54,1.48,1.48,0,0,0,.53.34,1.93,1.93,0,0,0,.69.12,1.83,1.83,0,0,0,.68-.12,1.58,1.58,0,0,0,.54-.35,1.55,1.55,0,0,0,.35-.54,1.89,1.89,0,0,0,.13-.7,1.8,1.8,0,0,0-.12-.66,1.65,1.65,0,0,0-.34-.54,1.61,1.61,0,0,0-.53-.37,1.73,1.73,0,0,0-.7-.13,1.75,1.75,0,0,0-.67.13,1.61,1.61,0,0,0-.53.35,1.63,1.63,0,0,0-.35.54A1.79,1.79,0,0,0,56.64,19.78Zm.3-3.9a1.39,1.39,0,0,0,.85,1.3,1.38,1.38,0,0,0,1.08,0,1.4,1.4,0,0,0,.44-.3,1.46,1.46,0,0,0,.3-.45,1.35,1.35,0,0,0,.11-.55,1.44,1.44,0,0,0-.11-.56,1.38,1.38,0,0,0-1.29-.85,1.4,1.4,0,0,0-.57.11,1.37,1.37,0,0,0-.44.3,1.32,1.32,0,0,0-.28.45A1.51,1.51,0,0,0,56.94,15.88Z" fill="#065fa3"/><path d="M67.52,18a8.25,8.25,0,0,1-.19,1.87,4.36,4.36,0,0,1-.55,1.37,2.48,2.48,0,0,1-.88.85,2.42,2.42,0,0,1-1.19.29,2.26,2.26,0,0,1-1.13-.28,2.36,2.36,0,0,1-.83-.81,4.11,4.11,0,0,1-.52-1.31A8.1,8.1,0,0,1,62,18.17a9.17,9.17,0,0,1,.18-1.95,4.45,4.45,0,0,1,.54-1.42,2.41,2.41,0,0,1,.89-.86,2.49,2.49,0,0,1,1.22-.29Q67.52,13.66,67.52,18Zm-1,.09q0-3.59-1.71-3.59T63,18.12q0,3.4,1.76,3.4T66.54,18.06Z" fill="#065fa3"/><path d="M68.54,19.86a2.24,2.24,0,0,1,.11-.67,2.43,2.43,0,0,1,.3-.63,2.5,2.5,0,0,1,.49-.53,2.32,2.32,0,0,1,.66-.38,2.49,2.49,0,0,1-.87-.78,1.85,1.85,0,0,1-.32-1.06,2,2,0,0,1,.67-1.54,2.29,2.29,0,0,1,.75-.45,2.8,2.8,0,0,1,1.88,0,2.33,2.33,0,0,1,.75.45,2,2,0,0,1,.49.68,2.05,2.05,0,0,1,.18.85,1.85,1.85,0,0,1-.32,1.06,2.52,2.52,0,0,1-.86.78,2.3,2.3,0,0,1,.65.38,2.53,2.53,0,0,1,.48.53,2.43,2.43,0,0,1,.3.63,2.24,2.24,0,0,1,.11.67,2.5,2.5,0,0,1-.2,1,2.25,2.25,0,0,1-.56.78,2.58,2.58,0,0,1-.86.51,3.22,3.22,0,0,1-1.1.18,3.18,3.18,0,0,1-1.1-.18,2.62,2.62,0,0,1-.86-.51,2.27,2.27,0,0,1-.57-.78A2.46,2.46,0,0,1,68.54,19.86Zm1-.08a2,2,0,0,0,.12.71A1.53,1.53,0,0,0,70,21a1.48,1.48,0,0,0,.53.34,1.93,1.93,0,0,0,.69.12,1.83,1.83,0,0,0,.68-.12,1.58,1.58,0,0,0,.54-.35,1.55,1.55,0,0,0,.35-.54,1.89,1.89,0,0,0,.13-.7,1.8,1.8,0,0,0-.12-.66,1.65,1.65,0,0,0-.34-.54,1.61,1.61,0,0,0-.53-.37,1.73,1.73,0,0,0-.7-.13,1.75,1.75,0,0,0-.67.13,1.61,1.61,0,0,0-.53.35,1.63,1.63,0,0,0-.35.54A1.79,1.79,0,0,0,69.58,19.78Zm.3-3.9a1.39,1.39,0,0,0,.85,1.3,1.38,1.38,0,0,0,1.08,0,1.4,1.4,0,0,0,.44-.3,1.46,1.46,0,0,0,.3-.45,1.35,1.35,0,0,0,.11-.55,1.44,1.44,0,0,0-.11-.56,1.38,1.38,0,0,0-1.29-.85,1.4,1.4,0,0,0-.57.11,1.37,1.37,0,0,0-.44.3,1.32,1.32,0,0,0-.28.45A1.51,1.51,0,0,0,69.88,15.88Z" fill="#065fa3"/><path d="M80.46,18a8.25,8.25,0,0,1-.19,1.87,4.36,4.36,0,0,1-.55,1.37,2.48,2.48,0,0,1-.88.85,2.42,2.42,0,0,1-1.19.29,2.26,2.26,0,0,1-1.13-.28,2.36,2.36,0,0,1-.83-.81,4.11,4.11,0,0,1-.52-1.31A8.1,8.1,0,0,1,75,18.17a9.17,9.17,0,0,1,.18-1.95,4.45,4.45,0,0,1,.54-1.42,2.41,2.41,0,0,1,.89-.86,2.49,2.49,0,0,1,1.22-.29Q80.46,13.66,80.46,18Zm-1,.09q0-3.59-1.71-3.59T76,18.12q0,3.4,1.76,3.4T79.47,18.06Z" fill="#065fa3"/><path d="M85.71,13.8l-4,9.8h-.9l4-9.8Z" fill="#065fa3"/><path d="M87.09,14.68a.61.61,0,0,1-.44-.18.59.59,0,0,1-.18-.45.62.62,0,0,1,.62-.63.62.62,0,0,1,.45.18.63.63,0,0,1,0,.89A.62.62,0,0,1,87.09,14.68Zm.47,7.52h-1v-6h1Z" fill="#065fa3"/><path d="M94.48,22.2h-1V18.78q0-1.91-1.39-1.91a1.51,1.51,0,0,0-1.19.54,2,2,0,0,0-.47,1.37V22.2h-1v-6h1v1h0a2.17,2.17,0,0,1,2-1.14A1.84,1.84,0,0,1,94,16.7a2.83,2.83,0,0,1,.52,1.84Z" fill="#065fa3"/><path d="M101.42,22.2h-1v-1h0a2.22,2.22,0,0,1-2.06,1.16,2.24,2.24,0,0,1-1.81-.81,3.31,3.31,0,0,1-.68-2.19A3.6,3.6,0,0,1,96.63,17a2.47,2.47,0,0,1,2-.9,1.92,1.92,0,0,1,1.8,1h0V13.32h1Zm-1-2.71V18.6a1.72,1.72,0,0,0-.48-1.23,1.61,1.61,0,0,0-1.22-.5,1.66,1.66,0,0,0-1.38.64,2.82,2.82,0,0,0-.5,1.78,2.54,2.54,0,0,0,.48,1.64,1.58,1.58,0,0,0,1.3.6A1.64,1.64,0,0,0,100,21,2.16,2.16,0,0,0,100.46,19.49Z" fill="#065fa3"/><path d="M108.18,19.44h-4.24a2.24,2.24,0,0,0,.54,1.55,1.86,1.86,0,0,0,1.42.54,3,3,0,0,0,1.86-.67v.9a3.48,3.48,0,0,1-2.09.57,2.54,2.54,0,0,1-2-.82,3.35,3.35,0,0,1-.73-2.3,3.28,3.28,0,0,1,.79-2.28,2.55,2.55,0,0,1,2-.88,2.26,2.26,0,0,1,1.82.76,3.18,3.18,0,0,1,.64,2.12Zm-1-.81a2,2,0,0,0-.4-1.29,1.37,1.37,0,0,0-1.1-.46,1.55,1.55,0,0,0-1.15.49,2.21,2.21,0,0,0-.59,1.27Z" fill="#065fa3"/><path d="M114,16.2l-2,3,2,3h-1.12l-1.18-1.95-.26-.46h0l-.28.46-1.2,1.95h-1.11l2-2.94-2-3.06H110l1.16,2.05.25.47h0L113,16.2Z" fill="#065fa3"/><path d="M115.48,22.33a.62.62,0,0,1-.46-.19.64.64,0,0,1-.19-.46.65.65,0,0,1,.19-.47.62.62,0,0,1,.46-.2.63.63,0,0,1,.47.2.64.64,0,0,1,.19.47.63.63,0,0,1-.19.46A.64.64,0,0,1,115.48,22.33Z" fill="#065fa3"/><path d="M122.73,22.2h-1V18.74q0-1.87-1.39-1.87a1.52,1.52,0,0,0-1.18.54,2,2,0,0,0-.48,1.39v3.4h-1V13.32h1V17.2h0a2.18,2.18,0,0,1,2-1.14q2,0,2,2.44Z" fill="#065fa3"/><path d="M127.32,22.14a1.85,1.85,0,0,1-.9.19q-1.58,0-1.58-1.76V17h-1V16.2h1V14.74l1-.31V16.2h1.51V17h-1.51V20.4a1.4,1.4,0,0,0,.21.86.82.82,0,0,0,.68.26,1,1,0,0,0,.63-.2Z" fill="#065fa3"/><path d="M137.12,22.2h-1V18.76a2.6,2.6,0,0,0-.31-1.44,1.17,1.17,0,0,0-1-.45,1.28,1.28,0,0,0-1,.56,2.15,2.15,0,0,0-.43,1.35V22.2h-1V18.64q0-1.77-1.37-1.77a1.26,1.26,0,0,0-1,.53,2.19,2.19,0,0,0-.41,1.38V22.2h-1v-6h1v.95h0a2,2,0,0,1,1.86-1.09,1.73,1.73,0,0,1,1.7,1.24,2.14,2.14,0,0,1,2-1.24q2,0,2,2.44Z" fill="#065fa3"/><path d="M139.9,22.2h-1V13.32h1Z" fill="#065fa3"/></svg>