<svg id="Layer_1" data-name="Layer 1" xmlns="http://www.w3.org/2000/svg" xmlns:xlink="http://www.w3.org/1999/xlink" width="215" height="24" viewBox="0 0 215 24"><defs><linearGradient id="linear-gradient" x1="0.5" y1="18.5" x2="12.5" y2="18.5" gradientUnits="userSpaceOnUse"><stop offset="0" stop-color="#ebe9ec"/><stop offset="0.28" stop-color="#e5e6e9"/><stop offset="1" stop-color="#dadfe2"/></linearGradient><linearGradient id="linear-gradient-2" y1="5.5" y2="5.5" xlink:href="#linear-gradient"/></defs><title>timestamp-hover-button</title><rect x="191.5" y="0.5" width="23" height="23" fill="#fff"/><path d="M214,1V23H192V1h22m1-1H191V24h24V0Z" fill="#4386b9"/><rect x="16" y="1" width="172" height="22" fill="#fff"/><path d="M44.2,16h-1V8.74a2.22,2.22,0,0,1-.33.25,5.3,5.3,0,0,1-.48.28q-.27.14-.56.26a4.09,4.09,0,0,1-.58.19v-1A5.59,5.59,0,0,0,42,8.53q.35-.15.7-.33t.65-.39a5.14,5.14,0,0,0,.53-.4h.36Z" fill="#2b3033"/><path d="M51,9.8a1.74,1.74,0,0,0-.12-.67A1.3,1.3,0,0,0,50,8.37a1.92,1.92,0,0,0-.61-.09,2,2,0,0,0-.55.08,2.68,2.68,0,0,0-.52.21,3.23,3.23,0,0,0-.49.32,3.56,3.56,0,0,0-.44.42v-1a2.87,2.87,0,0,1,.91-.6,3.19,3.19,0,0,1,1.22-.21,3,3,0,0,1,1,.15,2.19,2.19,0,0,1,.76.44,2,2,0,0,1,.51.71,2.39,2.39,0,0,1,.18,1,3.32,3.32,0,0,1-.11.9,2.79,2.79,0,0,1-.35.76,3.68,3.68,0,0,1-.58.69,8.26,8.26,0,0,1-.83.67q-.59.42-1,.72a4.31,4.31,0,0,0-.61.56,1.62,1.62,0,0,0-.32.52,1.82,1.82,0,0,0-.09.6h4.18V16H47.07v-.42a3.47,3.47,0,0,1,.12-.95,2.46,2.46,0,0,1,.39-.78,4.32,4.32,0,0,1,.71-.74q.44-.37,1.07-.83a6.76,6.76,0,0,0,.76-.63,3.26,3.26,0,0,0,.5-.6,2.15,2.15,0,0,0,.27-.61A2.61,2.61,0,0,0,51,9.8Z" fill="#2b3033"/><path d="M57.66,7.6l-4,9.8h-.9l4-9.8Z" fill="#2b3033"/><path d="M63.16,13.62a2.45,2.45,0,0,1-.21,1,2.28,2.28,0,0,1-.6.8,2.79,2.79,0,0,1-.93.51,3.78,3.78,0,0,1-1.2.18,3.49,3.49,0,0,1-1.91-.46v-1a3.06,3.06,0,0,0,1.95.67,2.64,2.64,0,0,0,.79-.11,1.78,1.78,0,0,0,.61-.32,1.43,1.43,0,0,0,.39-.51,1.59,1.59,0,0,0,.14-.67q0-1.65-2.34-1.65h-.7v-.81h.66q2.07,0,2.07-1.55T60.29,8.27a2.69,2.69,0,0,0-1.67.6V7.94a3.65,3.65,0,0,1,1.91-.48,2.94,2.94,0,0,1,1,.15,2.19,2.19,0,0,1,.73.41,1.82,1.82,0,0,1,.47.63,2,2,0,0,1,.17.81,2.05,2.05,0,0,1-1.68,2.13v0a2.65,2.65,0,0,1,.79.21,2.11,2.11,0,0,1,.63.42,1.87,1.87,0,0,1,.41.61A1.94,1.94,0,0,1,63.16,13.62Z" fill="#2b3033"/><path d="M68.28,16h-1V8.74A2.22,2.22,0,0,1,67,9a5.3,5.3,0,0,1-.48.28q-.27.14-.56.26a4.09,4.09,0,0,1-.58.19v-1A5.59,5.59,0,0,0,66,8.53q.35-.15.7-.33t.65-.39a5.14,5.14,0,0,0,.53-.4h.36Z" fill="#2b3033"/><path d="M75.27,7.6l-4,9.8h-.9l4-9.8Z" fill="#2b3033"/><path d="M79.43,16h-1V8.74a2.22,2.22,0,0,1-.33.25,5.3,5.3,0,0,1-.48.28q-.27.14-.56.26a4.09,4.09,0,0,1-.58.19v-1a5.59,5.59,0,0,0,.67-.24q.35-.15.7-.33t.65-.39a5.14,5.14,0,0,0,.53-.4h.36Z" fill="#2b3033"/><path d="M87.54,11.3a8.37,8.37,0,0,1-.23,2.05,4.58,4.58,0,0,1-.67,1.52,3,3,0,0,1-1.07.95,3.11,3.11,0,0,1-1.44.33,3.45,3.45,0,0,1-1.46-.29v-.92a3,3,0,0,0,1.49.39,2.16,2.16,0,0,0,1-.23,2.11,2.11,0,0,0,.76-.68,3.35,3.35,0,0,0,.47-1.1,6.24,6.24,0,0,0,.16-1.51h0a1.92,1.92,0,0,1-1.87,1.08,2.52,2.52,0,0,1-1-.19,2.27,2.27,0,0,1-.78-.54,2.47,2.47,0,0,1-.51-.83,3,3,0,0,1-.18-1.06,3.09,3.09,0,0,1,.2-1.14A2.65,2.65,0,0,1,83,8.24a2.52,2.52,0,0,1,.86-.58,2.8,2.8,0,0,1,1.08-.21A2.39,2.39,0,0,1,86,7.71a2.25,2.25,0,0,1,.82.74,3.68,3.68,0,0,1,.51,1.2A6.87,6.87,0,0,1,87.54,11.3Zm-1-.86a2.93,2.93,0,0,0-.13-.88A2.14,2.14,0,0,0,86,8.87a1.56,1.56,0,0,0-.53-.44,1.47,1.47,0,0,0-.67-.16,1.52,1.52,0,0,0-.64.14,1.55,1.55,0,0,0-.52.39,1.85,1.85,0,0,0-.35.59,2.15,2.15,0,0,0-.13.75,2.46,2.46,0,0,0,.12.8,1.66,1.66,0,0,0,.34.59,1.48,1.48,0,0,0,.54.37,1.81,1.81,0,0,0,.69.13,1.59,1.59,0,0,0,.63-.13,1.67,1.67,0,0,0,.52-.34,1.57,1.57,0,0,0,.35-.5A1.55,1.55,0,0,0,86.5,10.43Z" fill="#2b3033"/><path d="M94.1,11.76a8.25,8.25,0,0,1-.19,1.87A4.36,4.36,0,0,1,93.36,15a2.48,2.48,0,0,1-.88.85,2.42,2.42,0,0,1-1.19.29,2.26,2.26,0,0,1-1.13-.28,2.36,2.36,0,0,1-.83-.81,4.11,4.11,0,0,1-.52-1.31A8.1,8.1,0,0,1,88.63,12,9.17,9.17,0,0,1,88.81,10a4.45,4.45,0,0,1,.54-1.42,2.41,2.41,0,0,1,.89-.86,2.49,2.49,0,0,1,1.22-.29Q94.1,7.46,94.1,11.76Zm-1,.09q0-3.59-1.71-3.59t-1.8,3.65q0,3.4,1.76,3.4T93.12,11.86Z" fill="#2b3033"/><path d="M100.18,13.62a2.45,2.45,0,0,1-.21,1,2.28,2.28,0,0,1-.6.8,2.79,2.79,0,0,1-.93.51,3.78,3.78,0,0,1-1.2.18,3.49,3.49,0,0,1-1.91-.46v-1a3.06,3.06,0,0,0,1.95.67,2.64,2.64,0,0,0,.79-.11,1.78,1.78,0,0,0,.61-.32,1.43,1.43,0,0,0,.39-.51,1.59,1.59,0,0,0,.14-.67q0-1.65-2.34-1.65h-.7v-.81h.66q2.07,0,2.07-1.55T97.3,8.27a2.69,2.69,0,0,0-1.67.6V7.94a3.65,3.65,0,0,1,1.91-.48,2.94,2.94,0,0,1,1,.15,2.19,2.19,0,0,1,.73.41,1.82,1.82,0,0,1,.47.63,2,2,0,0,1,.17.81,2.05,2.05,0,0,1-1.68,2.13v0a2.65,2.65,0,0,1,.79.21,2.11,2.11,0,0,1,.63.42,1.87,1.87,0,0,1,.41.61A1.94,1.94,0,0,1,100.18,13.62Z" fill="#2b3033"/><path d="M110.34,13.33a3.11,3.11,0,0,1-.2,1.13,2.72,2.72,0,0,1-.55.89,2.46,2.46,0,0,1-.84.58,2.65,2.65,0,0,1-1.05.21,2.33,2.33,0,0,1-2-1,3.64,3.64,0,0,1-.53-1.21A6.56,6.56,0,0,1,105,12.3a7.57,7.57,0,0,1,.24-2,4.83,4.83,0,0,1,.69-1.53,3.19,3.19,0,0,1,1.08-1,2.9,2.9,0,0,1,1.41-.35,3.4,3.4,0,0,1,1.39.24v.91a3,3,0,0,0-1.37-.33,2,2,0,0,0-1,.25,2.33,2.33,0,0,0-.77.71,3.47,3.47,0,0,0-.5,1.11,5.63,5.63,0,0,0-.17,1.45h0a2,2,0,0,1,1.92-1,2.52,2.52,0,0,1,1,.19,2.14,2.14,0,0,1,.76.53,2.39,2.39,0,0,1,.48.82A3.11,3.11,0,0,1,110.34,13.33Zm-1,.12a2.61,2.61,0,0,0-.11-.79,1.72,1.72,0,0,0-.32-.6,1.38,1.38,0,0,0-.51-.38,1.73,1.73,0,0,0-.69-.13,1.62,1.62,0,0,0-.66.13,1.65,1.65,0,0,0-.53.37,1.71,1.71,0,0,0-.47,1.19,2.61,2.61,0,0,0,.12.81,2.1,2.1,0,0,0,.35.66,1.64,1.64,0,0,0,.53.44,1.45,1.45,0,0,0,.68.16,1.56,1.56,0,0,0,.66-.14,1.48,1.48,0,0,0,.51-.38,1.78,1.78,0,0,0,.33-.59A2.33,2.33,0,0,0,109.35,13.46Z" fill="#2b3033"/><path d="M112.12,11.17a.62.62,0,0,1-.46-.19.64.64,0,0,1-.19-.46.62.62,0,0,1,.19-.46.63.63,0,0,1,.46-.19.65.65,0,0,1,.47.19.61.61,0,0,1,.19.46.63.63,0,0,1-.19.46A.64.64,0,0,1,112.12,11.17Zm0,5a.62.62,0,0,1-.46-.19.64.64,0,0,1-.19-.46.65.65,0,0,1,.19-.47.62.62,0,0,1,.46-.2.63.63,0,0,1,.47.2.64.64,0,0,1,.19.47.63.63,0,0,1-.19.46A.64.64,0,0,1,112.12,16.13Z" fill="#2b3033"/><path d="M119.39,11.76a8.25,8.25,0,0,1-.19,1.87,4.36,4.36,0,0,1-.55,1.37,2.48,2.48,0,0,1-.88.85,2.42,2.42,0,0,1-1.19.29,2.26,2.26,0,0,1-1.13-.28,2.36,2.36,0,0,1-.83-.81,4.11,4.11,0,0,1-.52-1.31,8.1,8.1,0,0,1-.18-1.78,9.17,9.17,0,0,1,.18-1.95,4.45,4.45,0,0,1,.54-1.42,2.41,2.41,0,0,1,.89-.86,2.49,2.49,0,0,1,1.22-.29Q119.39,7.46,119.39,11.76Zm-1,.09q0-3.59-1.71-3.59t-1.8,3.65q0,3.4,1.76,3.4T118.41,11.86Z" fill="#2b3033"/><path d="M125.86,11.76a8.25,8.25,0,0,1-.19,1.87,4.36,4.36,0,0,1-.55,1.37,2.48,2.48,0,0,1-.88.85,2.42,2.42,0,0,1-1.19.29,2.26,2.26,0,0,1-1.13-.28,2.36,2.36,0,0,1-.83-.81,4.11,4.11,0,0,1-.52-1.31,8.1,8.1,0,0,1-.18-1.78,9.17,9.17,0,0,1,.18-1.95,4.45,4.45,0,0,1,.54-1.42,2.41,2.41,0,0,1,.89-.86,2.49,2.49,0,0,1,1.22-.29Q125.86,7.46,125.86,11.76Zm-1,.09q0-3.59-1.71-3.59t-1.8,3.65q0,3.4,1.76,3.4T124.88,11.86Z" fill="#2b3033"/><path d="M127.66,11.17a.62.62,0,0,1-.46-.19.64.64,0,0,1-.19-.46.62.62,0,0,1,.19-.46.63.63,0,0,1,.46-.19.65.65,0,0,1,.47.19.61.61,0,0,1,.19.46.63.63,0,0,1-.19.46A.64.64,0,0,1,127.66,11.17Zm0,5a.62.62,0,0,1-.46-.19.64.64,0,0,1-.19-.46.65.65,0,0,1,.19-.47.62.62,0,0,1,.46-.2.63.63,0,0,1,.47.2.64.64,0,0,1,.19.47.63.63,0,0,1-.19.46A.64.64,0,0,1,127.66,16.13Z" fill="#2b3033"/><path d="M134.93,11.76a8.25,8.25,0,0,1-.19,1.87,4.36,4.36,0,0,1-.55,1.37,2.48,2.48,0,0,1-.88.85,2.42,2.42,0,0,1-1.19.29,2.26,2.26,0,0,1-1.13-.28,2.36,2.36,0,0,1-.83-.81,4.11,4.11,0,0,1-.52-1.31,8.1,8.1,0,0,1-.18-1.78,9.17,9.17,0,0,1,.18-1.95,4.45,4.45,0,0,1,.54-1.42,2.41,2.41,0,0,1,.89-.86,2.49,2.49,0,0,1,1.22-.29Q134.93,7.46,134.93,11.76Zm-1,.09q0-3.59-1.71-3.59t-1.8,3.65q0,3.4,1.76,3.4T133.95,11.86Z" fill="#2b3033"/><path d="M141.4,11.76a8.25,8.25,0,0,1-.19,1.87,4.36,4.36,0,0,1-.55,1.37,2.48,2.48,0,0,1-.88.85,2.42,2.42,0,0,1-1.19.29,2.26,2.26,0,0,1-1.13-.28,2.36,2.36,0,0,1-.83-.81,4.11,4.11,0,0,1-.52-1.31,8.1,8.1,0,0,1-.18-1.78,9.17,9.17,0,0,1,.18-1.95,4.45,4.45,0,0,1,.54-1.42,2.41,2.41,0,0,1,.89-.86,2.49,2.49,0,0,1,1.22-.29Q141.4,7.46,141.4,11.76Zm-1,.09q0-3.59-1.71-3.59t-1.8,3.65q0,3.4,1.76,3.4T140.42,11.86Z" fill="#2b3033"/><path d="M143.2,16.13a.62.62,0,0,1-.46-.19.64.64,0,0,1-.19-.46.65.65,0,0,1,.19-.47.62.62,0,0,1,.46-.2.63.63,0,0,1,.47.2.64.64,0,0,1,.19.47.63.63,0,0,1-.19.46A.64.64,0,0,1,143.2,16.13Z" fill="#2b3033"/><path d="M150.47,11.76a8.25,8.25,0,0,1-.19,1.87,4.36,4.36,0,0,1-.55,1.37,2.48,2.48,0,0,1-.88.85,2.42,2.42,0,0,1-1.19.29,2.26,2.26,0,0,1-1.13-.28,2.36,2.36,0,0,1-.83-.81,4.11,4.11,0,0,1-.52-1.31A8.1,8.1,0,0,1,145,12a9.17,9.17,0,0,1,.18-1.95,4.45,4.45,0,0,1,.54-1.42,2.41,2.41,0,0,1,.89-.86,2.49,2.49,0,0,1,1.22-.29Q150.47,7.46,150.47,11.76Zm-1,.09q0-3.59-1.71-3.59T146,11.92q0,3.4,1.76,3.4T149.49,11.86Z" fill="#2b3033"/><path d="M156.94,11.76a8.25,8.25,0,0,1-.19,1.87A4.36,4.36,0,0,1,156.2,15a2.48,2.48,0,0,1-.88.85,2.42,2.42,0,0,1-1.19.29,2.26,2.26,0,0,1-1.13-.28,2.36,2.36,0,0,1-.83-.81,4.11,4.11,0,0,1-.52-1.31,8.1,8.1,0,0,1-.18-1.78,9.17,9.17,0,0,1,.18-1.95,4.45,4.45,0,0,1,.54-1.42,2.41,2.41,0,0,1,.89-.86,2.49,2.49,0,0,1,1.22-.29Q156.94,7.46,156.94,11.76Zm-1,.09q0-3.59-1.71-3.59t-1.8,3.65q0,3.4,1.76,3.4T156,11.86Z" fill="#2b3033"/><path d="M163.41,11.76a8.25,8.25,0,0,1-.19,1.87,4.36,4.36,0,0,1-.55,1.37,2.48,2.48,0,0,1-.88.85,2.42,2.42,0,0,1-1.19.29,2.26,2.26,0,0,1-1.13-.28,2.36,2.36,0,0,1-.83-.81,4.11,4.11,0,0,1-.52-1.31,8.1,8.1,0,0,1-.18-1.78,9.17,9.17,0,0,1,.18-1.95,4.45,4.45,0,0,1,.54-1.42,2.41,2.41,0,0,1,.89-.86,2.49,2.49,0,0,1,1.22-.29Q163.41,7.46,163.41,11.76Zm-1,.09q0-3.59-1.71-3.59t-1.8,3.65q0,3.4,1.76,3.4T162.43,11.86Z" fill="#2b3033"/><path d="M169.28,12.83V16h-1V7.6h2.31a3,3,0,0,1,2.09.66,2.34,2.34,0,0,1,.74,1.85,2.55,2.55,0,0,1-.82,2,3.15,3.15,0,0,1-2.22.76Zm0-4.34v3.45h1a2.31,2.31,0,0,0,1.56-.47,1.65,1.65,0,0,0,.54-1.32q0-1.66-2-1.66Z" fill="#2b3033"/><path d="M183.58,16h-1V10.36q0-.67.08-1.63h0a5.23,5.23,0,0,1-.25.81L179.54,16h-.48l-2.87-6.41a5,5,0,0,1-.25-.86h0q0,.5,0,1.65V16H175V7.6h1.3l2.58,5.86a7.5,7.5,0,0,1,.39,1h0q.25-.69.4-1l2.63-5.84h1.23Z" fill="#2b3033"/><path d="M15,0V24H189V0ZM188,23H16V1H188Z" fill="#9ba0a4"/><path d="M196,6V19h14V6Zm13,12H197V8h12Z" fill="#2b3033"/><rect x="198" y="9" width="2" height="2" fill="#2b3033"/><rect x="202" y="9" width="2" height="2" fill="#2b3033"/><rect x="206" y="9" width="2" height="2" fill="#2b3033"/><rect x="198" y="12" width="2" height="2" fill="#2b3033"/><rect x="202" y="12" width="2" height="2" fill="#2b3033"/><rect x="206" y="12" width="2" height="2" fill="#2b3033"/><rect x="198" y="15" width="2" height="2" fill="#2b3033"/><rect x="202" y="15" width="2" height="2" fill="#2b3033"/><rect x="206" y="15" width="2" height="2" fill="#2b3033"/><rect x="198" y="4" width="1" height="3" fill="#2b3033"/><rect x="201" y="4" width="1" height="3" fill="#2b3033"/><rect x="204" y="4" width="1" height="3" fill="#2b3033"/><rect x="207" y="4" width="1" height="3" fill="#2b3033"/><rect x="0.5" y="13.5" width="12" height="10" fill="url(#linear-gradient)"/><path d="M12,14v9H1V14H12m1-1H0V24H13V13Z" fill="#a8abae"/><rect x="0.5" y="0.5" width="12" height="10" fill="url(#linear-gradient-2)"/><path d="M12,1v9H1V1H12m1-1H0V11H13V0Z" fill="#a8abae"/><polygon points="2.94 16 10 16 6.47 20.74 2.94 16" fill="#2b3033"/><polygon points="10 8 2.94 8 6.47 3.26 10 8" fill="#2b3033"/></svg>