<svg id="Layer_1" data-name="Layer 1" xmlns="http://www.w3.org/2000/svg" xmlns:xlink="http://www.w3.org/1999/xlink" width="160" height="160" viewBox="0 0 160 160"><defs><clipPath id="clip-path"><rect x="5" y="5" width="150" height="150" fill="none"/></clipPath><symbol id="New_Symbol" data-name="New Symbol" viewBox="0 0 47 80"><path d="M34.85,3l4.24,4.24V72.76L34.85,77H12.33L8.09,72.76V7.24L12.33,3H34.85m1.24-3h-25l-6,6V74l6,6h25l6-6V6l-6-6Z" fill="#0099e1"/><polygon points="5.27 9.89 3.18 12.78 3.18 23.31 5.27 25.73 5.27 9.89" fill="#0099e1"/><polygon points="41.97 25.73 44.06 22.86 44.06 12.32 41.97 9.89 41.97 25.73" fill="#0099e1"/><polygon points="5.27 53.01 3.18 55.89 3.18 66.43 5.27 68.85 5.27 53.01" fill="#0099e1"/><polygon points="41.97 68.85 44.06 65.97 44.06 55.44 41.97 53.01 41.97 68.85" fill="#0099e1"/><path d="M14.86,35h17L35,27.1a23.86,23.86,0,0,0-11-3c-6,0-12,3-12,3Z" fill="#0099e1"/><path d="M31,54.1H17l-5,10a23.86,23.86,0,0,0,11,3c6,0,12-3,12-3Z" fill="#0099e1"/><polygon points="12 35.1 14 40.1 14 50.1 12 55.1 12 35.1" fill="#0099e1"/><polygon points="36 55.1 34 50.1 34 40.1 36 35.1 36 55.1" fill="#0099e1"/><path d="M5,26.1v4H1l-1-1v-2a4.38,4.38,0,0,1,3-1Z" fill="#0099e1"/><path d="M42,26.1v4h4l1-1v-2a4.38,4.38,0,0,0-3-1Z" fill="#0099e1"/></symbol></defs><title>design-tenets-unobtrusive</title><g clip-path="url(#clip-path)"><use width="47" height="80" transform="translate(65.03 54.55) scale(0.63)" xlink:href="#New_Symbol"/><path d="M48.31,14.69,52,18.34v35L49.32,56l-1,1h-8L36.7,53.34v-35l1-1,2.65-2.65h8m1.66-4H38.7l-6,6V55l6,6H50l6-6V16.69l-6-6Z" fill="#565658"/><polygon points="32.82 16.91 31.5 18.72 31.5 25.35 32.82 26.87 32.82 16.91" fill="#565658"/><polygon points="55.9 26.87 57.21 25.06 57.21 18.43 55.9 16.91 55.9 26.87" fill="#565658"/><polygon points="32.82 44.03 31.5 45.84 31.5 52.47 32.82 53.99 32.82 44.03" fill="#565658"/><polygon points="55.9 53.99 57.21 52.18 57.21 45.55 55.9 44.03 55.9 53.99" fill="#565658"/><path d="M38.85,32.69H49.54l2-5a15,15,0,0,0-6.92-1.89A19.52,19.52,0,0,0,37,27.73Z" fill="#565658"/><path d="M49,44.71H40.19L37,51A15,15,0,0,0,44,52.89,19.52,19.52,0,0,0,51.51,51Z" fill="#565658"/><polygon points="37.05 32.76 38.3 35.91 38.3 42.2 37.05 45.34 37.05 32.76" fill="#565658"/><polygon points="52.14 45.34 50.88 42.2 50.88 35.91 52.14 32.76 52.14 45.34" fill="#565658"/><path d="M32.64,27.1v2.52H30.13L29.5,29V27.73a2.75,2.75,0,0,1,1.89-.63Z" fill="#565658"/><path d="M55.92,27.1v2.52h2.52l.63-.63V27.73a2.75,2.75,0,0,0-1.89-.63Z" fill="#565658"/><path d="M48.31,80.55l1,1L52,84.2v35l-1,1-2.65,2.65h-8L38.53,121,36.7,119.2v-35l3.66-3.66h8m1.66-4H38.7l-6,6v38.31l6,6H50l6-6V82.55l-6-6Z" fill="#565658"/><polygon points="32.82 82.77 31.5 84.58 31.5 91.21 32.82 92.73 32.82 82.77" fill="#565658"/><polygon points="55.9 92.73 57.21 90.92 57.21 84.29 55.9 82.77 55.9 92.73" fill="#565658"/><polygon points="32.82 109.89 31.5 111.7 31.5 118.33 32.82 119.85 32.82 109.89" fill="#565658"/><polygon points="55.9 119.85 57.21 118.04 57.21 111.41 55.9 109.89 55.9 119.85" fill="#565658"/><path d="M38.85,98.55H49.54l2-5a15,15,0,0,0-6.92-1.89A19.52,19.52,0,0,0,37,93.59Z" fill="#565658"/><path d="M49,110.57H40.19L37,116.86A15,15,0,0,0,44,118.75a19.52,19.52,0,0,0,7.55-1.89Z" fill="#565658"/><polygon points="37.05 98.62 38.3 101.77 38.3 108.06 37.05 111.2 37.05 98.62" fill="#565658"/><polygon points="52.14 111.2 50.88 108.06 50.88 101.77 52.14 98.62 52.14 111.2" fill="#565658"/><path d="M32.64,93v2.52H30.13l-.63-.63V93.59A2.75,2.75,0,0,1,31.39,93Z" fill="#565658"/><path d="M55.92,93v2.52h2.52l.63-.63V93.59A2.75,2.75,0,0,0,57.17,93Z" fill="#565658"/><path d="M118.75,13.36,122.41,17V52l-1,1-2.65,2.65h-8L109,53.85,107.14,52V17l1-1,2.65-2.65h8m1.66-4H109.14l-6,6V53.68l6,6h11.27l6-6V15.36l-6-6Z" fill="#565658"/><polygon points="103.26 15.58 101.94 17.4 101.94 24.02 103.26 25.55 103.26 15.58" fill="#565658"/><polygon points="126.34 25.55 127.65 23.73 127.65 17.11 126.34 15.58 126.34 25.55" fill="#565658"/><polygon points="103.26 42.7 101.94 44.51 101.94 51.14 103.26 52.66 103.26 42.7" fill="#565658"/><polygon points="126.34 52.66 127.65 50.85 127.65 44.23 126.34 42.7 126.34 52.66" fill="#565658"/><path d="M109.29,31.37H120l2-5A15,15,0,0,0,115,24.52a19.52,19.52,0,0,0-7.55,1.89Z" fill="#565658"/><path d="M119.44,43.39h-8.81l-3.14,6.29a15,15,0,0,0,6.92,1.89A19.52,19.52,0,0,0,122,49.68Z" fill="#565658"/><polygon points="107.49 31.44 108.75 34.58 108.75 40.87 107.49 44.02 107.49 31.44" fill="#565658"/><polygon points="122.58 44.02 121.32 40.87 121.32 34.58 122.58 31.44 122.58 44.02" fill="#565658"/><path d="M103.08,25.78v2.52h-2.52l-.63-.63V26.41a2.75,2.75,0,0,1,1.89-.63Z" fill="#565658"/><path d="M126.36,25.78v2.52h2.52l.63-.63V26.41a2.75,2.75,0,0,0-1.89-.63Z" fill="#565658"/><path d="M118.75,69.59l2.65,2.65,1,1v35l-2.65,2.65-1,1h-8l-3.66-3.66v-35L109,71.42l1.83-1.83h8m1.66-4H109.14l-6,6v38.31l6,6h11.27l6-6V71.59l-6-6Z" fill="#565658"/><polygon points="103.26 71.82 101.94 73.63 101.94 80.26 103.26 81.78 103.26 71.82" fill="#565658"/><polygon points="126.34 81.78 127.65 79.97 127.65 73.34 126.34 71.82 126.34 81.78" fill="#565658"/><polygon points="103.26 98.94 101.94 100.75 101.94 107.37 103.26 108.9 103.26 98.94" fill="#565658"/><polygon points="126.34 108.9 127.65 107.09 127.65 100.46 126.34 98.94 126.34 108.9" fill="#565658"/><path d="M109.29,87.6H120l2-5A15,15,0,0,0,115,80.75a19.52,19.52,0,0,0-7.55,1.89Z" fill="#565658"/><path d="M119.44,99.62h-8.81l-3.14,6.29a15,15,0,0,0,6.92,1.89,19.52,19.52,0,0,0,7.55-1.89Z" fill="#565658"/><polygon points="107.49 87.67 108.75 90.81 108.75 97.1 107.49 100.25 107.49 87.67" fill="#565658"/><polygon points="122.58 100.25 121.32 97.1 121.32 90.81 122.58 87.67 122.58 100.25" fill="#565658"/><path d="M103.08,82v2.52h-2.52l-.63-.63V82.64a2.75,2.75,0,0,1,1.89-.63Z" fill="#565658"/><path d="M126.36,82v2.52h2.52l.63-.63V82.64a2.75,2.75,0,0,0-1.89-.63Z" fill="#565658"/><rect x="96.8" y="22.4" width="1.26" height="8.75" fill="#565658"/><rect x="96.8" y="40.78" width="1.26" height="8.75" fill="#565658"/><rect x="96.8" y="59.15" width="1.26" height="8.75" fill="#565658"/><rect x="96.8" y="3.88" width="1.26" height="8.75" fill="#565658"/><rect x="96.8" y="77.53" width="1.26" height="8.75" fill="#565658"/><rect x="96.8" y="95.91" width="1.26" height="8.75" fill="#565658"/><rect x="96.8" y="114.28" width="1.26" height="8.75" fill="#565658"/><rect x="96.8" y="132.88" width="1.26" height="8.75" fill="#565658"/><rect x="96.8" y="151.25" width="1.26" height="8.75" fill="#565658"/><path d="M153.72,50.82l3.66,3.66v35l-2.65,2.65-1,1h-8l-3.66-3.66v-35l1-1,2.65-2.65h8m1.66-4H144.11l-6,6V91.13l6,6h11.27l6-6V52.82l-6-6Z" fill="#565658"/><polygon points="138.22 53.04 136.91 54.85 136.91 61.48 138.22 63 138.22 53.04" fill="#565658"/><polygon points="138.22 80.16 136.91 81.97 136.91 88.6 138.22 90.12 138.22 80.16" fill="#565658"/><path d="M144.25,68.82h10.69l2-5A15,15,0,0,0,150,62a19.52,19.52,0,0,0-7.55,1.89Z" fill="#565658"/><path d="M154.4,80.84H145.6l-3.14,6.29A15,15,0,0,0,149.37,89a19.52,19.52,0,0,0,7.55-1.89Z" fill="#565658"/><polygon points="142.45 68.89 143.71 72.04 143.71 78.33 142.45 81.47 142.45 68.89" fill="#565658"/><polygon points="157.55 81.47 156.29 78.33 156.29 72.04 157.55 68.89 157.55 81.47" fill="#565658"/><path d="M138.05,63.23v2.52h-2.52l-.63-.63V63.86a2.75,2.75,0,0,1,1.89-.63Z" fill="#565658"/><path d="M153.72-16.37l3.66,3.66v35l-3.66,3.66h-8l-2.65-2.65-1-1v-35l2.65-2.65,1-1h8m1.66-4H144.11l-6,6V23.95l6,6h11.27l6-6V-14.37l-6-6Z" fill="#565658"/><polygon points="138.22 12.97 136.91 14.79 136.91 21.41 138.22 22.94 138.22 12.97" fill="#565658"/><path d="M144.25,1.64h10.69l2-5A15,15,0,0,0,150-5.21a19.52,19.52,0,0,0-7.55,1.89Z" fill="#565658"/><path d="M154.4,13.66H145.6l-3.14,6.29a15,15,0,0,0,6.92,1.89,19.52,19.52,0,0,0,7.55-1.89Z" fill="#565658"/><polygon points="142.45 1.71 143.71 4.86 143.71 11.14 142.45 14.29 142.45 1.71" fill="#565658"/><polygon points="157.55 14.29 156.29 11.14 156.29 4.86 157.55 1.71 157.55 14.29" fill="#565658"/><rect x="131.76" y="22.4" width="1.26" height="8.75" fill="#565658"/><rect x="131.76" y="40.78" width="1.26" height="8.75" fill="#565658"/><rect x="131.76" y="59.15" width="1.26" height="8.75" fill="#565658"/><rect x="131.76" y="77.53" width="1.26" height="8.75" fill="#565658"/><rect x="131.76" y="95.91" width="1.26" height="8.75" fill="#565658"/><rect x="131.76" y="114.28" width="1.26" height="8.75" fill="#565658"/><path d="M118.75,124.69l2.65,2.65,1,1v35L119.76,166l-1,1h-8l-3.66-3.66v-35l1.83-1.83,1.83-1.83h8m1.66-4H109.14l-6,6V165l6,6h11.27l6-6V126.69l-6-6Z" fill="#565658"/><polygon points="103.26 126.91 101.94 128.72 101.94 135.35 103.26 136.87 103.26 126.91" fill="#565658"/><polygon points="126.34 136.87 127.65 135.06 127.65 128.43 126.34 126.91 126.34 136.87" fill="#565658"/><polygon points="103.26 154.03 101.94 155.84 101.94 162.47 103.26 163.99 103.26 154.03" fill="#565658"/><polygon points="126.34 163.99 127.65 162.18 127.65 155.55 126.34 154.03 126.34 163.99" fill="#565658"/><path d="M109.29,142.69H120l2-5a15,15,0,0,0-6.92-1.89,19.52,19.52,0,0,0-7.55,1.89Z" fill="#565658"/><path d="M119.44,154.71h-8.81L107.49,161a15,15,0,0,0,6.92,1.89A19.52,19.52,0,0,0,122,161Z" fill="#565658"/><polygon points="107.49 142.76 108.75 145.91 108.75 152.2 107.49 155.34 107.49 142.76" fill="#565658"/><polygon points="122.58 155.34 121.32 152.2 121.32 145.91 122.58 142.76 122.58 155.34" fill="#565658"/><path d="M103.08,137.1v2.52h-2.52l-.63-.63v-1.26a2.75,2.75,0,0,1,1.89-.63Z" fill="#565658"/><path d="M126.36,137.1v2.52h2.52l.63-.63v-1.26a2.75,2.75,0,0,0-1.89-.63Z" fill="#565658"/><rect x="96.8" y="151" width="1.26" height="8.75" fill="#565658"/><path d="M153.72,118l1,1,2.65,2.65v35l-2.65,2.65-1,1h-8l-1-1-2.65-2.65v-35l3.66-3.66h8m1.66-4H144.11l-6,6v38.31l6,6h11.27l6-6V120l-6-6Z" fill="#565658"/><polygon points="138.22 120.22 136.91 122.03 136.91 128.66 138.22 130.19 138.22 120.22" fill="#565658"/><polygon points="138.22 147.34 136.91 149.15 136.91 155.78 138.22 157.3 138.22 147.34" fill="#565658"/><path d="M144.25,136h10.69l2-5a15,15,0,0,0-6.92-1.89,19.52,19.52,0,0,0-7.55,1.89Z" fill="#565658"/><path d="M154.4,148H145.6l-3.14,6.29a15,15,0,0,0,6.92,1.89,19.52,19.52,0,0,0,7.55-1.89Z" fill="#565658"/><polygon points="142.45 136.08 143.71 139.22 143.71 145.51 142.45 148.66 142.45 136.08" fill="#565658"/><polygon points="157.55 148.66 156.29 145.51 156.29 139.22 157.55 136.08 157.55 148.66" fill="#565658"/><path d="M138.05,130.42v2.52h-2.52l-.63-.63V131a2.75,2.75,0,0,1,1.89-.63Z" fill="#565658"/><rect x="131.76" y="151" width="1.26" height="8.75" fill="#565658"/><rect x="60.95" y="22.4" width="1.26" height="8.75" fill="#565658"/><rect x="60.95" y="40.78" width="1.26" height="8.75" fill="#565658"/><rect x="60.95" y="59.15" width="1.26" height="8.75" fill="#565658"/><rect x="60.95" y="77.53" width="1.26" height="8.75" fill="#565658"/><rect x="60.95" y="95.91" width="1.26" height="8.75" fill="#565658"/><rect x="60.95" y="114.28" width="1.26" height="8.75" fill="#565658"/><path d="M12.72,25l3.66,3.66v35l-2.65,2.65-1,1h-8L1.11,63.66v-35l1-1L4.76,25h8m1.66-4H3.11l-6,6V65.31l6,6H14.38l6-6V27l-6-6Z" fill="#565658"/><polygon points="20.3 37.19 21.62 35.37 21.62 28.75 20.3 27.22 20.3 37.19" fill="#565658"/><polygon points="20.3 64.3 21.62 62.49 21.62 55.87 20.3 54.34 20.3 64.3" fill="#565658"/><path d="M3.25,43H13.94l2-5A15,15,0,0,0,9,36.16,19.52,19.52,0,0,0,1.45,38Z" fill="#565658"/><path d="M13.4,55H4.6L1.45,61.32A15,15,0,0,0,8.37,63.2a19.52,19.52,0,0,0,7.55-1.89Z" fill="#565658"/><polygon points="1.45 43.08 2.71 46.22 2.71 52.51 1.45 55.66 1.45 43.08" fill="#565658"/><polygon points="16.55 55.66 15.29 52.51 15.29 46.22 16.55 43.08 16.55 55.66" fill="#565658"/><path d="M20.32,37.42v2.52h2.52l.63-.63V38a2.75,2.75,0,0,0-1.89-.63Z" fill="#565658"/><rect x="25.35" y="22.4" width="1.26" height="8.75" fill="#565658"/><rect x="25.35" y="40.78" width="1.26" height="8.75" fill="#565658"/><rect x="25.35" y="59.15" width="1.26" height="8.75" fill="#565658"/><rect x="60.95" y="4.62" width="1.26" height="8.75" fill="#565658"/><rect x="25.35" y="4.62" width="1.26" height="8.75" fill="#565658"/><rect x="25.35" y="77.53" width="1.26" height="8.75" fill="#565658"/><rect x="25.35" y="95.91" width="1.26" height="8.75" fill="#565658"/><rect x="25.35" y="114.28" width="1.26" height="8.75" fill="#565658"/><path d="M48.31,136l1,1L52,139.66v35l-1,1-2.65,2.65h-8l-1.83-1.83-1.83-1.83v-35L40.36,136h8M50,132H38.7l-6,6v38.31l6,6H50l6-6V138l-6-6Z" fill="#565658"/><polygon points="32.82 138.22 31.5 140.03 31.5 146.66 32.82 148.19 32.82 138.22" fill="#565658"/><polygon points="55.9 148.19 57.21 146.37 57.21 139.75 55.9 138.22 55.9 148.19" fill="#565658"/><path d="M38.85,154H49.54l2-5a15,15,0,0,0-6.92-1.89A19.52,19.52,0,0,0,37,149Z" fill="#565658"/><polygon points="37.05 154.08 38.3 157.22 38.3 163.51 37.05 166.66 37.05 154.08" fill="#565658"/><polygon points="52.14 166.66 50.88 163.51 50.88 157.22 52.14 154.08 52.14 166.66" fill="#565658"/><path d="M32.64,148.42v2.52H30.13l-.63-.63V149a2.75,2.75,0,0,1,1.89-.63Z" fill="#565658"/><path d="M55.92,148.42v2.52h2.52l.63-.63V149a2.75,2.75,0,0,0-1.89-.63Z" fill="#565658"/><rect x="60.95" y="132.99" width="1.26" height="8.75" fill="#565658"/><rect x="60.95" y="151.36" width="1.26" height="8.75" fill="#565658"/><path d="M12.72,103l1,1,2.65,2.65v35l-1,1-2.65,2.65h-8l-1.83-1.83-1.83-1.83v-35L4.76,103h8m1.66-4H3.11l-6,6v38.31l6,6H14.38l6-6V105l-6-6Z" fill="#565658"/><polygon points="20.3 115.19 21.62 113.37 21.62 106.75 20.3 105.22 20.3 115.19" fill="#565658"/><polygon points="20.3 142.3 21.62 140.49 21.62 133.87 20.3 132.34 20.3 142.3" fill="#565658"/><path d="M3.25,121H13.94l2-5A15,15,0,0,0,9,114.16,19.52,19.52,0,0,0,1.45,116Z" fill="#565658"/><path d="M13.4,133H4.6l-3.14,6.29a15,15,0,0,0,6.92,1.89,19.52,19.52,0,0,0,7.55-1.89Z" fill="#565658"/><polygon points="1.45 121.08 2.71 124.22 2.71 130.51 1.45 133.66 1.45 121.08" fill="#565658"/><polygon points="16.55 133.66 15.29 130.51 15.29 124.22 16.55 121.08 16.55 133.66" fill="#565658"/><path d="M20.32,115.42v2.52h2.52l.63-.63V116a2.75,2.75,0,0,0-1.89-.63Z" fill="#565658"/><rect x="25.35" y="132.99" width="1.26" height="8.75" fill="#565658"/><rect x="25.35" y="151.36" width="1.26" height="8.75" fill="#565658"/></g></svg>