<svg id="Layer_1" data-name="Layer 1" xmlns="http://www.w3.org/2000/svg" width="160" height="160" viewBox="0 0 160 160"><title>home-tools</title><polygon points="44.26 113.08 22.49 113.08 22.49 117.05 42.74 117.05 44.26 113.08" fill="#565658"/><polygon points="101.81 117.05 100.29 113.08 59.13 113.08 57.61 117.05 101.81 117.05" fill="#565658"/><polygon points="115.16 113.08 116.68 117.05 137.51 117.05 137.51 113.08 115.16 113.08" fill="#565658"/><circle cx="22.49" cy="115.07" r="4.96" fill="#0099e1"/><circle cx="137.51" cy="115.07" r="4.96" fill="#0099e1"/><rect x="76.03" y="106.14" width="7.93" height="17.85" fill="#0099e1"/><rect x="76.03" y="5" width="7.93" height="25.78" rx="2" ry="2" fill="#565658"/><path d="M50.09,49.62H64a0,0,0,0,1,0,0v96.16a3,3,0,0,1-3,3H53.09a3,3,0,0,1-3-3V49.62a0,0,0,0,1,0,0Z" transform="translate(39.34 -13.85) rotate(21)" fill="none" stroke="#565658" stroke-miterlimit="10" stroke-width="4"/><line x1="35.44" y1="155" x2="39.34" y2="144.82" fill="none" stroke="#565658" stroke-miterlimit="10" stroke-width="2"/><path d="M98.45,49.62h7.88a3,3,0,0,1,3,3v96.16a0,0,0,0,1,0,0H95.45a0,0,0,0,1,0,0V52.62a3,3,0,0,1,3-3Z" transform="translate(233.54 155.12) rotate(159)" fill="none" stroke="#565658" stroke-miterlimit="10" stroke-width="4"/><line x1="123.99" y1="155" x2="120.08" y2="144.82" fill="none" stroke="#565658" stroke-miterlimit="10" stroke-width="1.98"/><path d="M80,24.83A17.85,17.85,0,1,0,97.85,42.68,17.85,17.85,0,0,0,80,24.83Zm0,23.8a5.95,5.95,0,1,1,5.95-5.95A5.95,5.95,0,0,1,80,48.63Z" fill="#0099e1"/></svg>