<svg id="Layer_1" data-name="Layer 1" xmlns="http://www.w3.org/2000/svg" width="160" height="160" viewBox="0 0 160 160"><title>home-guidelines</title><path d="M135,15V145H24V15H135m6-6H18V151H141V9Z" fill="#565658"/><path d="M120,115.1v2H80v-2h40m1-1H79v4h42v-4Z" fill="#565658"/><path d="M120,95v2H80V95h40m1-1H79v4h42V94Z" fill="#565658"/><path d="M120,75v2H38V75h82m1-1H37v4h84V74Z" fill="#565658"/><path d="M72,55v2H38V55H72m1-1H37v4H73V54Z" fill="#565658"/><path d="M72,35v2H38V35H72m1-1H37v4H73V34Z" fill="#565658"/><path d="M72,45v2H38V45H72m1-1H37v4H73V44Z" fill="#565658"/><rect x="85" y="34" width="36" height="10" fill="#0099e1"/><rect x="85" y="48" width="36" height="10" fill="#0099e1"/><rect x="37" y="94" width="36" height="10" fill="#0099e1"/><rect x="37" y="108" width="36" height="10" fill="#0099e1"/><polygon points="25 2 25 6 144.1 5.9 144 150 148 150 148 2 25 2" fill="#565658"/></svg>