<svg id="Layer_1" data-name="Layer 1" xmlns="http://www.w3.org/2000/svg" width="246.5" height="189.5" viewBox="0 0 246.5 189.5"><title>Dont</title><rect width="246.5" height="189.5" style="fill:#f7f7f7"/><path d="M56.87,30.5c-.8,0-1.37.63-1.37,1.7v6.52c0,1.07.57,1.71,1.37,1.71a2.11,2.11,0,0,0,1-.28l6.59-3.45c1.3-.68,1.3-1.79,0-2.48l-6.59-3.45a2.21,2.21,0,0,0-1-.27M57.5,36V35h1V34h1v1h1v1h-1v1h-1V36Z" style="fill:#696e73"/><path d="M56.87,52.5c-.8,0-1.37.63-1.37,1.7v6.52c0,1.07.57,1.71,1.37,1.71a2.11,2.11,0,0,0,1-.28l6.59-3.45c1.3-.68,1.3-1.79,0-2.48l-6.59-3.45a2.21,2.21,0,0,0-1-.27M57.5,58V57h1V56h1v1h1v1h-1v1h-1V58Z" style="fill:#696e73"/><path d="M56.87,74.5c-.8,0-1.37.63-1.37,1.7v6.52c0,1.07.57,1.71,1.37,1.71a2.11,2.11,0,0,0,1-.28l6.59-3.45c1.3-.68,1.3-1.79,0-2.48l-6.59-3.45a2.21,2.21,0,0,0-1-.27M57.5,80V79h1V78h1v1h1v1h-1v1h-1V80Z" style="fill:#696e73"/><path d="M56.87,96.5c-.8,0-1.37.63-1.37,1.7v6.52c0,1.07.57,1.71,1.37,1.71a2.11,2.11,0,0,0,1-.28l6.59-3.45c1.3-.68,1.3-1.79,0-2.48l-6.59-3.45a2.21,2.21,0,0,0-1-.27m.63,5.5v-1h1v-1h1v1h1v1h-1v1h-1v-1Z" style="fill:#696e73"/><path d="M56.87,118.5c-.8,0-1.37.63-1.37,1.7v6.52c0,1.07.57,1.71,1.37,1.71a2.11,2.11,0,0,0,1-.28l6.59-3.45c1.3-.68,1.3-1.79,0-2.48l-6.59-3.45a2.21,2.21,0,0,0-1-.27m.63,5.5v-1h1v-1h1v1h1v1h-1v1h-1v-1Z" style="fill:#696e73"/><path d="M56.87,140.5c-.8,0-1.37.63-1.37,1.7v6.52c0,1.07.57,1.71,1.37,1.71a2.11,2.11,0,0,0,1-.28l6.59-3.45c1.3-.68,1.3-1.79,0-2.48l-6.59-3.45a2.21,2.21,0,0,0-1-.27m.63,5.5v-1h1v-1h1v1h1v1h-1v1h-1v-1Z" style="fill:#696e73"/><path d="M56.87,162.5c-.8,0-1.37.63-1.37,1.7v6.52c0,1.07.57,1.71,1.37,1.71a2.11,2.11,0,0,0,1-.28l6.59-3.45c1.3-.68,1.3-1.79,0-2.48l-6.59-3.45a2.21,2.21,0,0,0-1-.27m.63,5.5v-1h1v-1h1v1h1v1h-1v1h-1v-1Z" style="fill:#696e73"/><path d="M39.5,14.5h4v4h-4Zm6,0h4v4h-4Zm-6-6h4v4h-4Zm6,0h4v4h-4Zm-8,12h14V6.5h-14Z" style="fill:#696e73"/><polygon points="20.5 13.5 28.5 13.5 24.5 17.5 20.5 13.5" style="fill:#696e73"/><text transform="translate(57.38 18.4)" style="font-size:12px;fill:#2b3033;font-family:SegoeUI, Segoe UI">Application.gcomp</text><text transform="translate(74.38 40.4)" style="font-size:12px;fill:#2b3033;font-family:SegoeUI, Segoe UI">This<tspan x="21.08" y="0" style="letter-spacing:-0.0029296875em">w</tspan><tspan x="29.71" y="0">ouldbealongname</tspan><tspan x="126.25" y="0" style="letter-spacing:-0.01806640625em">o</tspan><tspan x="133.06" y="0" style="letter-spacing:-0.06298828125em">f</tspan><tspan x="136.06" y="0">...</tspan></text><text transform="translate(74.38 62.4)" style="font-size:12px;fill:#2b3033;font-family:SegoeUI, Segoe UI">This<tspan x="21.08" y="0" style="letter-spacing:-0.0029296875em">w</tspan><tspan x="29.71" y="0">ouldbealongname</tspan><tspan x="126.25" y="0" style="letter-spacing:-0.01806640625em">o</tspan><tspan x="133.06" y="0" style="letter-spacing:-0.06298828125em">f</tspan><tspan x="136.06" y="0">...</tspan></text><text transform="translate(74.38 84.4)" style="font-size:12px;fill:#2b3033;font-family:SegoeUI, Segoe UI">This<tspan x="21.08" y="0" style="letter-spacing:-0.0029296875em">w</tspan><tspan x="29.71" y="0">ouldbealongname</tspan><tspan x="126.25" y="0" style="letter-spacing:-0.01806640625em">o</tspan><tspan x="133.06" y="0" style="letter-spacing:-0.06298828125em">f</tspan><tspan x="136.06" y="0">...</tspan></text><text transform="translate(74.38 106.4)" style="font-size:12px;fill:#2b3033;font-family:SegoeUI, Segoe UI">This<tspan x="21.08" y="0" style="letter-spacing:-0.0029296875em">w</tspan><tspan x="29.71" y="0">ouldbealongname</tspan><tspan x="126.25" y="0" style="letter-spacing:-0.01806640625em">o</tspan><tspan x="133.06" y="0" style="letter-spacing:-0.06298828125em">f</tspan><tspan x="136.06" y="0">...</tspan></text><text transform="translate(74.38 128.4)" style="font-size:12px;fill:#2b3033;font-family:SegoeUI, Segoe UI">This<tspan x="21.08" y="0" style="letter-spacing:-0.0029296875em">w</tspan><tspan x="29.71" y="0">ouldbealongname</tspan><tspan x="126.25" y="0" style="letter-spacing:-0.01806640625em">o</tspan><tspan x="133.06" y="0" style="letter-spacing:-0.06298828125em">f</tspan><tspan x="136.06" y="0">...</tspan></text><text transform="translate(74.38 150.4)" style="font-size:12px;fill:#2b3033;font-family:SegoeUI, Segoe UI">This<tspan x="21.08" y="0" style="letter-spacing:-0.0029296875em">w</tspan><tspan x="29.71" y="0">ouldbealongname</tspan><tspan x="126.25" y="0" style="letter-spacing:-0.01806640625em">o</tspan><tspan x="133.06" y="0" style="letter-spacing:-0.06298828125em">f</tspan><tspan x="136.06" y="0">...</tspan></text><text transform="translate(74.38 172.4)" style="font-size:12px;fill:#2b3033;font-family:SegoeUI, Segoe UI">This<tspan x="21.08" y="0" style="letter-spacing:-0.0029296875em">w</tspan><tspan x="29.71" y="0">ouldbealongname</tspan><tspan x="126.25" y="0" style="letter-spacing:-0.01806640625em">o</tspan><tspan x="133.06" y="0" style="letter-spacing:-0.06298828125em">f</tspan><tspan x="136.06" y="0">...</tspan></text></svg>