<svg id="Layer_1" data-name="Layer 1" xmlns="http://www.w3.org/2000/svg" width="140.11" height="30.5" viewBox="0 0 140.11 30.5"><title>yes1</title><path d="M139,5l-3.42-1.77-2.76-1.43A2,2,0,0,0,131,.5H2.49a2,2,0,0,0-2,2V28a2,2,0,0,0,2,2H131a2,2,0,0,0,2-2V7.89l2.57-1.23Z" style="fill:#fff;stroke:#000;stroke-miterlimit:10"/><polygon points="136.03 5.07 134.22 6.14 132.4 7.22 132.37 5.11 132.35 3 134.19 4.03 136.03 5.07" style="fill:#9c27b0"/><path d="M121.91,2.51h9a0,0,0,0,1,0,0V26.4a2,2,0,0,1-2,2h-7a0,0,0,0,1,0,0V2.51A0,0,0,0,1,121.91,2.51Z" style="fill:#9c27b0"/><rect x="24.41" y="3.01" width="95.94" height="24.88" style="fill:#9c27b0"/><path d="M119.85,3.51V27.4H24.91V3.51h94.94m1-1H23.91V28.4h96.94V2.51Z" style="fill:#9c27b0"/><rect x="2" y="2.51" width="20.82" height="25.88" style="fill:#9c27b0"/><text transform="translate(24.82 25.96)" style="font-size:10px;fill:#fff;font-family:SegoeUI, Segoe UI">F<tspan x="4.88" y="0" style="letter-spacing:-0.0048828125em">P</tspan><tspan x="10.43" y="0">GA FIFO </tspan><tspan x="49.19" y="0" style="letter-spacing:-0.01318359375em">r</tspan><tspan x="52.53" y="0">eader</tspan></text><polygon points="106.84 11.98 115.85 11.98 111.35 18.93 106.84 11.98" style="fill:#fff"/><text transform="translate(25.82 12.8)" style="font-size:12px;fill:#fff;font-family:SegoeUI, Segoe UI">This::...::Name</text><path d="M6,17.69l1.29-.64L15,20.87l2.58-1.27,1.29.63v1.91L15,24.05,6,19.6ZM6,8.77,9.83,6.86l9,4.46v1.91L15,15.14,6,10.68Zm0,4.46,1.29-.64L15,16.41l2.58-1.27,1.29.64v1.91L15,19.6,6,15.14Z" style="fill:#fff;opacity:0.7000000000000001"/></svg>