<svg id="Layer_1" data-name="Layer 1" xmlns="http://www.w3.org/2000/svg" width="128" height="128" viewBox="0 0 128 128"><title>security-icon</title><path d="M126,2V114.36H114.36V126H95.09V114.36H32.91V126H13.64V114.36H2V2H126m2-2H0V116.36H11.64V128H34.91V116.36H93.09V128h23.27V116.36H128V0Z" fill="#065fa3"/><path d="M34.91,64V52.36h6.63A23.21,23.21,0,0,1,58.18,35.72V29.09H69.82v6.63A23.21,23.21,0,0,1,86.46,52.36h6.63V64H86.46A23.18,23.18,0,0,1,69.82,80.64v6.63H58.18V80.64A23.18,23.18,0,0,1,41.54,64Z" fill="none" stroke="#065fa3" stroke-miterlimit="10" stroke-width="2"/><path d="M52.36,58.18A11.64,11.64,0,1,1,64,69.82,11.67,11.67,0,0,1,52.36,58.18" fill="none" stroke="#065fa3" stroke-miterlimit="10" stroke-width="2"/><path d="M107.79,20.21v6.88h-5.06V42.73h5.06V73.64h-4.42V89.27h4.42v7H20.21V20.21h87.58m2-2H18.21V98.27h91.58v-11h-4.42V75.64h4.42V40.73h-5.06V29.09h5.06V18.21Z" fill="#065fa3"/></svg>