<svg id="Layer_1" data-name="Layer 1" xmlns="http://www.w3.org/2000/svg" width="128" height="128" viewBox="0 0 128 128"><title>web-app-hosting</title><path d="M7.93,93.32l-.26,0A7.16,7.16,0,0,1,7.67,79L8,79h7.75l-.64-2.67A23.27,23.27,0,0,1,37.72,47.7,23,23,0,0,1,48,50.09l1.94,1,1-1.94a30.42,30.42,0,0,1,57.34,9.33l.26,1.8,1.81.07A17.37,17.37,0,0,1,126.9,75.68a18.38,18.38,0,0,1-4.22,13.49,17.32,17.32,0,0,1-5,4.15ZM50.29,54m.56.34a30,30,0,0,0-3.19-2,21.07,21.07,0,0,0-31,18.57,20.65,20.65,0,0,0,1.05,6.55,21,21,0,0,0,1.59,3.67H8.17a5,5,0,1,0,0,10H116.71l.5-.29a15,15,0,0,0,3.77-3l.09-.1a15.21,15.21,0,0,0-10.24-25.19c-.39,0-.79-.05-1.18-.05a15.31,15.31,0,0,0-6.59,1.5,15.1,15.1,0,0,0-4.79,3.61,13.36,13.36,0,0,0-.94,1.17l-2-1a18.46,18.46,0,0,1,1.3-1.65,17.24,17.24,0,0,1,7.93-5.08l1.79-.54-.27-1.85a28.24,28.24,0,0,0-53.62-7.78l-.68,1.47" fill="#065fa3"/><path d="M71.42,59.71A16.15,16.15,0,0,0,69,54.77a15.4,15.4,0,0,1,7.86,4.94ZM69,84.73a15.49,15.49,0,0,0,7.86-5h-5.4A16.33,16.33,0,0,1,69,84.73Zm14.29-15A18.25,18.25,0,1,1,65,51.5,18.24,18.24,0,0,1,83.25,69.75Zm-.91,0A17.34,17.34,0,1,0,65,87.08,17.33,17.33,0,0,0,82.34,69.75Zm-3.81.91h1.94A15.35,15.35,0,0,1,78.15,78H72a30.92,30.92,0,0,0,.6-3.43l-2,1c-.14.85-.3,1.68-.5,2.44H65.69l-3.64,1.82h7.46c-1.19,3.39-2.9,5.48-4.5,5.48s-3.08-1.83-4.25-4.83l-1.62.81a14.33,14.33,0,0,0,1.92,3.49,15.49,15.49,0,0,1-7.86-5h.91a2.63,2.63,0,0,1,0-.49V78H51.87a15.35,15.35,0,0,1-2.32-7.3h4.51V68.83H49.55a15.31,15.31,0,0,1,2.32-7.29h2.19V60.19a2.52,2.52,0,0,1,0-.48H53.2a15.4,15.4,0,0,1,7.86-4.94,14.4,14.4,0,0,0-1.92,3.48l1.62.81c1.18-3,2.76-4.82,4.25-4.82s3.31,2.08,4.5,5.47H62.06l3.64,1.83h4.36c.2.76.36,1.58.5,2.43l2,1a31.14,31.14,0,0,0-.6-3.42h6.2a15.31,15.31,0,0,1,2.32,7.29H78.53a2.7,2.7,0,0,1,0,1.83Zm-2.21-.06a.94.94,0,0,0,0-1.69l-19-9.54a1,1,0,0,0-.48-.12.94.94,0,0,0-.94.94v19.1a.94.94,0,0,0,.94.95l.43-.1ZM63.18,65.19H61.36v3.64H57.71v1.83h3.65v3.65h1.82V70.66h3.65V68.83H63.18Z" fill="#065fa3"/></svg>