<svg id="Layer_1" data-name="Layer 1" xmlns="http://www.w3.org/2000/svg" width="77" height="21" viewBox="0 0 77 21"><title>tipstooltip</title><rect x="0.5" y="0.5" width="76" height="20" fill="#fff"/><path d="M76,1V20H1V1H76m1-1H0V21H77V0Z" fill="#4d5359"/><path d="M12.07,7.49H9.64V15h-1V7.49H6.24V6.6h5.83Z" fill="#2b3033"/><path d="M14.53,15.14a2.78,2.78,0,0,1-2.12-.84,3.11,3.11,0,0,1-.79-2.23,3.24,3.24,0,0,1,.83-2.36,3,3,0,0,1,2.23-.85,2.69,2.69,0,0,1,2.09.83A3.28,3.28,0,0,1,17.52,12a3.22,3.22,0,0,1-.81,2.3A2.84,2.84,0,0,1,14.53,15.14Zm.07-5.47a1.83,1.83,0,0,0-1.46.63A2.59,2.59,0,0,0,12.6,12a2.45,2.45,0,0,0,.54,1.68,1.85,1.85,0,0,0,1.46.62,1.76,1.76,0,0,0,1.43-.6,2.62,2.62,0,0,0,.5-1.72,2.66,2.66,0,0,0-.5-1.73A1.75,1.75,0,0,0,14.6,9.67Z" fill="#2b3033"/><path d="M21.56,15.14a2.78,2.78,0,0,1-2.12-.84,3.11,3.11,0,0,1-.79-2.23,3.24,3.24,0,0,1,.83-2.36,3,3,0,0,1,2.23-.85,2.69,2.69,0,0,1,2.09.83A3.28,3.28,0,0,1,24.55,12a3.22,3.22,0,0,1-.81,2.3A2.84,2.84,0,0,1,21.56,15.14Zm.07-5.47a1.83,1.83,0,0,0-1.46.63A2.59,2.59,0,0,0,19.63,12a2.45,2.45,0,0,0,.54,1.68,1.85,1.85,0,0,0,1.46.62,1.76,1.76,0,0,0,1.43-.6,2.62,2.62,0,0,0,.5-1.72,2.66,2.66,0,0,0-.5-1.73A1.75,1.75,0,0,0,21.63,9.67Z" fill="#2b3033"/><path d="M27,15h-1V6.12h1Z" fill="#2b3033"/><path d="M37.38,7.49H35V15H34V7.49H31.55V6.6h5.83Z" fill="#2b3033"/><path d="M39.06,7.48a.61.61,0,0,1-.44-.18.59.59,0,0,1-.18-.45.62.62,0,0,1,.62-.63.62.62,0,0,1,.45.18.63.63,0,0,1,0,.89A.62.62,0,0,1,39.06,7.48ZM39.53,15h-1V9h1Z" fill="#2b3033"/><path d="M42.46,14.13h0v3.63h-1V9h1v1.05h0a2.27,2.27,0,0,1,2.07-1.2,2.2,2.2,0,0,1,1.81.81A3.34,3.34,0,0,1,47,11.82a3.72,3.72,0,0,1-.73,2.41,2.44,2.44,0,0,1-2,.91A2,2,0,0,1,42.46,14.13Zm0-2.42v.84a1.78,1.78,0,0,0,.48,1.26,1.72,1.72,0,0,0,2.6-.15,3.06,3.06,0,0,0,.5-1.86,2.42,2.42,0,0,0-.46-1.57,1.53,1.53,0,0,0-1.25-.57,1.7,1.7,0,0,0-1.35.58A2.14,2.14,0,0,0,42.43,11.71Z" fill="#2b3033"/><path d="M54.6,14.94a1.85,1.85,0,0,1-.9.19q-1.58,0-1.58-1.76V9.82h-1V9h1V7.54l1-.31V9H54.6v.82H53.09V13.2a1.4,1.4,0,0,0,.21.86.82.82,0,0,0,.68.26,1,1,0,0,0,.63-.2Z" fill="#2b3033"/><path d="M60.61,12.24H56.37a2.24,2.24,0,0,0,.54,1.55,1.86,1.86,0,0,0,1.42.54,3,3,0,0,0,1.86-.67v.9a3.48,3.48,0,0,1-2.09.57,2.54,2.54,0,0,1-2-.82,3.35,3.35,0,0,1-.73-2.3,3.28,3.28,0,0,1,.79-2.28,2.55,2.55,0,0,1,2-.88A2.26,2.26,0,0,1,60,9.62a3.18,3.18,0,0,1,.64,2.12Zm-1-.81a2,2,0,0,0-.4-1.29,1.37,1.37,0,0,0-1.1-.46,1.55,1.55,0,0,0-1.15.49,2.21,2.21,0,0,0-.59,1.27Z" fill="#2b3033"/><path d="M66.45,9l-2,3,2,3H65.29l-1.18-1.95-.26-.46h0l-.28.46L62.35,15H61.24l2-2.94L61.33,9h1.12l1.16,2.05.25.47h0L65.38,9Z" fill="#2b3033"/><path d="M70.35,14.94a1.85,1.85,0,0,1-.9.19q-1.58,0-1.58-1.76V9.82h-1V9h1V7.54l1-.31V9h1.51v.82H68.84V13.2a1.4,1.4,0,0,0,.21.86.82.82,0,0,0,.68.26,1,1,0,0,0,.63-.2Z" fill="#2b3033"/></svg>