<svg id="Layer_1" data-name="Layer 1" xmlns="http://www.w3.org/2000/svg" width="124" height="60" viewBox="0 0 124 60"><title>tipsinfotip-minimum</title><rect x="0.5" y="0.5" width="123" height="59" fill="#fff"/><path d="M123,1V59H1V1H123m1-1H0V60H124V0Z" fill="#4d5359"/><path d="M13.85,20H12V11.6h1.89Z" fill="#2b3033"/><path d="M21.38,20H19.53V16.67q0-1.39-1-1.39a1,1,0,0,0-.79.37,1.41,1.41,0,0,0-.31.94V20H15.58V14h1.85v.95h0a2.12,2.12,0,0,1,1.93-1.1q2,0,2,2.47Z" fill="#2b3033"/><path d="M26.76,12.54a1.87,1.87,0,0,0-.69-.14q-.89,0-.89,1V14h1.37v1.37H25.18V20H23.33V15.37h-1V14h1v-.74A2.16,2.16,0,0,1,24,11.6,2.55,2.55,0,0,1,25.82,11a3.19,3.19,0,0,1,.94.12Z" fill="#2b3033"/><path d="M30.3,20.15a3.23,3.23,0,0,1-2.36-.84A3,3,0,0,1,27.08,17,3,3,0,0,1,28,14.69a3.37,3.37,0,0,1,2.41-.84,3.19,3.19,0,0,1,2.34.84,3,3,0,0,1,.85,2.22,3.17,3.17,0,0,1-.88,2.36A3.26,3.26,0,0,1,30.3,20.15Zm0-4.87a1.23,1.23,0,0,0-1,.45A2,2,0,0,0,29,17q0,1.73,1.39,1.73T31.69,17Q31.69,15.27,30.35,15.27Z" fill="#2b3033"/><path d="M44.17,13.14h-2.4V20h-1.9V13.14H37.49V11.6h6.68Z" fill="#2b3033"/><path d="M46.06,13.05a1.08,1.08,0,0,1-.77-.28.9.9,0,0,1-.3-.68.86.86,0,0,1,.3-.68,1.25,1.25,0,0,1,1.54,0,.87.87,0,0,1,.3.68.89.89,0,0,1-.3.69A1.1,1.1,0,0,1,46.06,13.05ZM47,20H45.12V14H47Z" fill="#2b3033"/><path d="M50.4,19.3h0v3.46H48.53V14h1.85v.9h0a2.36,2.36,0,0,1,3.73-.25,3.41,3.41,0,0,1,.64,2.18A3.69,3.69,0,0,1,54,19.24a2.42,2.42,0,0,1-2,.91A1.87,1.87,0,0,1,50.4,19.3Zm-.05-2.46v.48a1.53,1.53,0,0,0,.33,1,1.07,1.07,0,0,0,.86.39,1.14,1.14,0,0,0,1-.49,2.36,2.36,0,0,0,.35-1.39q0-1.58-1.23-1.58a1.16,1.16,0,0,0-.93.43A1.72,1.72,0,0,0,50.35,16.84Z" fill="#2b3033"/><path d="M16.46,44H12.1V35.6h1v7.51h3.38Z" fill="#2b3033"/><path d="M20.13,44.14A2.78,2.78,0,0,1,18,43.3a3.11,3.11,0,0,1-.79-2.23A3.24,3.24,0,0,1,18,38.71a3,3,0,0,1,2.23-.85,2.69,2.69,0,0,1,2.09.83A3.28,3.28,0,0,1,23.12,41a3.22,3.22,0,0,1-.81,2.3A2.84,2.84,0,0,1,20.13,44.14Zm.07-5.47a1.83,1.83,0,0,0-1.46.63A2.59,2.59,0,0,0,18.2,41a2.45,2.45,0,0,0,.54,1.68,1.85,1.85,0,0,0,1.46.62,1.76,1.76,0,0,0,1.43-.6,2.62,2.62,0,0,0,.5-1.72,2.66,2.66,0,0,0-.5-1.73A1.75,1.75,0,0,0,20.2,38.67Z" fill="#2b3033"/><path d="M27.78,39a1.18,1.18,0,0,0-.73-.19,1.23,1.23,0,0,0-1,.58,2.68,2.68,0,0,0-.41,1.58V44h-1V38h1v1.24h0a2.1,2.1,0,0,1,.63-1,1.43,1.43,0,0,1,.94-.35,1.57,1.57,0,0,1,.57.08Z" fill="#2b3033"/><path d="M33.49,41.24H29.25a2.24,2.24,0,0,0,.54,1.55,1.86,1.86,0,0,0,1.42.54,3,3,0,0,0,1.86-.67v.9a3.48,3.48,0,0,1-2.09.57,2.54,2.54,0,0,1-2-.82,3.35,3.35,0,0,1-.73-2.3A3.28,3.28,0,0,1,29,38.74a2.55,2.55,0,0,1,2-.88,2.26,2.26,0,0,1,1.82.76,3.18,3.18,0,0,1,.64,2.12Zm-1-.81a2,2,0,0,0-.4-1.29,1.37,1.37,0,0,0-1.1-.46,1.55,1.55,0,0,0-1.15.49,2.21,2.21,0,0,0-.59,1.27Z" fill="#2b3033"/><path d="M43.46,44h-1V40.55a2.6,2.6,0,0,0-.31-1.44,1.17,1.17,0,0,0-1-.45,1.28,1.28,0,0,0-1,.56,2.15,2.15,0,0,0-.43,1.35V44h-1V40.44q0-1.77-1.37-1.77a1.26,1.26,0,0,0-1,.53,2.19,2.19,0,0,0-.41,1.38V44h-1V38h1v.95h0a2,2,0,0,1,1.86-1.09,1.73,1.73,0,0,1,1.7,1.24,2.14,2.14,0,0,1,2-1.24q2,0,2,2.44Z" fill="#2b3033"/><path d="M49.06,36.48a.61.61,0,0,1-.44-.18.59.59,0,0,1-.18-.45.62.62,0,0,1,.62-.63.62.62,0,0,1,.45.18.63.63,0,0,1,0,.89A.62.62,0,0,1,49.06,36.48ZM49.53,44h-1V38h1Z" fill="#2b3033"/><path d="M52.46,43.13h0v3.63h-1V38h1v1.05h0a2.27,2.27,0,0,1,2.07-1.2,2.2,2.2,0,0,1,1.81.81A3.34,3.34,0,0,1,57,40.82a3.72,3.72,0,0,1-.73,2.41,2.44,2.44,0,0,1-2,.91A2,2,0,0,1,52.46,43.13Zm0-2.42v.84a1.78,1.78,0,0,0,.48,1.26,1.72,1.72,0,0,0,2.6-.15,3.06,3.06,0,0,0,.5-1.86,2.42,2.42,0,0,0-.46-1.57,1.53,1.53,0,0,0-1.25-.57,1.7,1.7,0,0,0-1.35.58A2.14,2.14,0,0,0,52.43,40.71Z" fill="#2b3033"/><path d="M58.16,43.78v-1a2.84,2.84,0,0,0,1.73.58q1.27,0,1.27-.84a.73.73,0,0,0-.11-.41,1.08,1.08,0,0,0-.29-.3,2.26,2.26,0,0,0-.43-.23l-.54-.21a6.9,6.9,0,0,1-.7-.32,2.12,2.12,0,0,1-.5-.36,1.35,1.35,0,0,1-.3-.46,1.63,1.63,0,0,1-.1-.6,1.43,1.43,0,0,1,.19-.75,1.71,1.71,0,0,1,.52-.54,2.4,2.4,0,0,1,.74-.33,3.26,3.26,0,0,1,.85-.11,3.44,3.44,0,0,1,1.39.27v1a2.72,2.72,0,0,0-1.52-.43,1.78,1.78,0,0,0-.49.06,1.19,1.19,0,0,0-.37.17.8.8,0,0,0-.24.27.7.7,0,0,0-.08.34.82.82,0,0,0,.08.39.86.86,0,0,0,.25.28,1.9,1.9,0,0,0,.4.22l.53.22a7.42,7.42,0,0,1,.71.31,2.45,2.45,0,0,1,.54.36,1.42,1.42,0,0,1,.34.47,1.5,1.5,0,0,1,.12.63,1.48,1.48,0,0,1-.2.77,1.68,1.68,0,0,1-.52.54,2.4,2.4,0,0,1-.76.32,3.73,3.73,0,0,1-.9.11A3.4,3.4,0,0,1,58.16,43.78Z" fill="#2b3033"/><path d="M68.47,44h-1v-.95h0a2,2,0,0,1-1.85,1.09q-2.14,0-2.14-2.55V38h1v3.43q0,1.9,1.45,1.9a1.47,1.47,0,0,0,1.16-.52,2,2,0,0,0,.45-1.36V38h1Z" fill="#2b3033"/><path d="M78.93,44H78V40.55a2.6,2.6,0,0,0-.31-1.44,1.17,1.17,0,0,0-1-.45,1.28,1.28,0,0,0-1,.56,2.15,2.15,0,0,0-.43,1.35V44h-1V40.44q0-1.77-1.37-1.77a1.26,1.26,0,0,0-1,.53,2.19,2.19,0,0,0-.41,1.38V44h-1V38h1v.95h0a2,2,0,0,1,1.86-1.09A1.73,1.73,0,0,1,75,39.1a2.14,2.14,0,0,1,2-1.24q2,0,2,2.44Z" fill="#2b3033"/><path d="M89.15,44h-1V43h0a2.22,2.22,0,0,1-2.06,1.16,2.24,2.24,0,0,1-1.81-.81,3.31,3.31,0,0,1-.68-2.19,3.6,3.6,0,0,1,.75-2.38,2.47,2.47,0,0,1,2-.9,1.92,1.92,0,0,1,1.8,1h0V35.12h1Zm-1-2.71V40.4a1.72,1.72,0,0,0-.48-1.23,1.61,1.61,0,0,0-1.22-.5,1.66,1.66,0,0,0-1.38.64,2.82,2.82,0,0,0-.5,1.78,2.54,2.54,0,0,0,.48,1.64,1.58,1.58,0,0,0,1.3.6,1.64,1.64,0,0,0,1.3-.58A2.16,2.16,0,0,0,88.19,41.29Z" fill="#2b3033"/><path d="M93.61,44.14a2.78,2.78,0,0,1-2.12-.84,3.11,3.11,0,0,1-.79-2.23,3.24,3.24,0,0,1,.83-2.36,3,3,0,0,1,2.23-.85,2.69,2.69,0,0,1,2.09.83A3.28,3.28,0,0,1,96.59,41a3.22,3.22,0,0,1-.81,2.3A2.84,2.84,0,0,1,93.61,44.14Zm.07-5.47a1.83,1.83,0,0,0-1.46.63A2.59,2.59,0,0,0,91.67,41a2.45,2.45,0,0,0,.54,1.68,1.85,1.85,0,0,0,1.46.62,1.76,1.76,0,0,0,1.43-.6,2.62,2.62,0,0,0,.5-1.72,2.66,2.66,0,0,0-.5-1.73A1.75,1.75,0,0,0,93.68,38.67Z" fill="#2b3033"/><path d="M99.09,44h-1V35.12h1Z" fill="#2b3033"/><path d="M103.54,44.14a2.78,2.78,0,0,1-2.12-.84,3.11,3.11,0,0,1-.79-2.23,3.24,3.24,0,0,1,.83-2.36,3,3,0,0,1,2.23-.85,2.69,2.69,0,0,1,2.09.83,3.28,3.28,0,0,1,.75,2.29,3.22,3.22,0,0,1-.81,2.3A2.84,2.84,0,0,1,103.54,44.14Zm.07-5.47a1.83,1.83,0,0,0-1.46.63,2.59,2.59,0,0,0-.54,1.74,2.45,2.45,0,0,0,.54,1.68,1.85,1.85,0,0,0,1.46.62,1.76,1.76,0,0,0,1.43-.6,2.62,2.62,0,0,0,.5-1.72,2.66,2.66,0,0,0-.5-1.73A1.75,1.75,0,0,0,103.61,38.67Z" fill="#2b3033"/><path d="M111.2,39a1.18,1.18,0,0,0-.73-.19,1.23,1.23,0,0,0-1,.58,2.68,2.68,0,0,0-.41,1.58V44h-1V38h1v1.24h0a2.1,2.1,0,0,1,.63-1,1.43,1.43,0,0,1,.94-.35,1.57,1.57,0,0,1,.57.08Z" fill="#2b3033"/><path d="M111.58,44.13a.62.62,0,0,1-.46-.19.64.64,0,0,1-.19-.46.65.65,0,0,1,.19-.47.62.62,0,0,1,.46-.2.63.63,0,0,1,.47.2.64.64,0,0,1,.19.47.63.63,0,0,1-.19.46A.64.64,0,0,1,111.58,44.13Z" fill="#2b3033"/></svg>