<svg id="Layer_1" data-name="Layer 1" xmlns="http://www.w3.org/2000/svg" xmlns:xlink="http://www.w3.org/1999/xlink" width="281" height="282" viewBox="0 0 281 282"><defs><clipPath id="clip-path"><path d="M-129,280.93a8.62,8.62,0,0,0,4.84-1.76,39.16,39.16,0,0,0,4.84-4.24,40.67,40.67,0,0,1,4.84-4.24,8.67,8.67,0,0,1,4.84-1.76,8.62,8.62,0,0,1,4.84,1.76,39.16,39.16,0,0,1,4.84,4.24,40.67,40.67,0,0,0,4.84,4.24,8.67,8.67,0,0,0,4.84,1.76,8.65,8.65,0,0,0,4.84-1.76,39.9,39.9,0,0,0,4.84-4.24,39.9,39.9,0,0,1,4.84-4.24,8.65,8.65,0,0,1,4.84-1.76,8.65,8.65,0,0,1,4.84,1.76,39.9,39.9,0,0,1,4.84,4.24,39.9,39.9,0,0,0,4.84,4.24,8.65,8.65,0,0,0,4.84,1.76,8.65,8.65,0,0,0,4.84-1.76,39.9,39.9,0,0,0,4.84-4.24A39.9,39.9,0,0,1-37,270.69a8.65,8.65,0,0,1,4.84-1.76,8.65,8.65,0,0,1,4.84,1.76,39.9,39.9,0,0,1,4.84,4.24,39.9,39.9,0,0,0,4.84,4.24,8.62,8.62,0,0,0,4.84,1.76A8.67,8.67,0,0,0-8,279.17a40.67,40.67,0,0,0,4.84-4.24,39.16,39.16,0,0,1,4.84-4.24,8.62,8.62,0,0,1,4.84-1.76,8.67,8.67,0,0,1,4.84,1.76,40.67,40.67,0,0,1,4.84,4.24A39.16,39.16,0,0,0,21,279.17a8.62,8.62,0,0,0,4.84,1.76,8.67,8.67,0,0,0,4.84-1.76,40.67,40.67,0,0,0,4.84-4.24,39.16,39.16,0,0,1,4.84-4.24,8.62,8.62,0,0,1,4.84-1.76,8.67,8.67,0,0,1,4.84,1.76,40.67,40.67,0,0,1,4.84,4.24,39.84,39.84,0,0,0,4.83,4.24,8.67,8.67,0,0,0,4.84,1.76,8.62,8.62,0,0,0,4.84-1.76,39.16,39.16,0,0,0,4.84-4.24,40.67,40.67,0,0,1,4.84-4.24,7.54,7.54,0,0,1,9.68,0,39.16,39.16,0,0,1,4.84,4.24,40.67,40.67,0,0,0,4.84,4.24,7.53,7.53,0,0,0,9.68,0,39.16,39.16,0,0,0,4.84-4.24,40.67,40.67,0,0,1,4.84-4.24,7.54,7.54,0,0,1,9.68,0,39.9,39.9,0,0,1,4.84,4.24,39.9,39.9,0,0,0,4.84,4.24,7.53,7.53,0,0,0,9.68,0,39.16,39.16,0,0,0,4.84-4.24,40.67,40.67,0,0,1,4.84-4.24,7.54,7.54,0,0,1,9.68,0,39.16,39.16,0,0,1,4.84,4.24,40.67,40.67,0,0,0,4.84,4.24,7.55,7.55,0,0,0,9.68,0,39.28,39.28,0,0,0,4.84-4.25,40.67,40.67,0,0,1,4.84-4.24,8.66,8.66,0,0,1,4.84-1.75A8.55,8.55,0,0,1,205,270.7a39.16,39.16,0,0,1,4.84,4.24,40.67,40.67,0,0,0,4.84,4.24,7.55,7.55,0,0,0,9.68,0,40.91,40.91,0,0,0,4.84-4.25A40.67,40.67,0,0,1,234,270.7a7.57,7.57,0,0,1,9.68,0,40.13,40.13,0,0,1,4.84,4.25,39.9,39.9,0,0,0,4.84,4.24,7.53,7.53,0,0,0,9.68,0,39.9,39.9,0,0,0,4.84-4.24,39.9,39.9,0,0,1,4.84-4.24,7.57,7.57,0,0,1,9.68,0,40.91,40.91,0,0,1,4.84,4.25,39.16,39.16,0,0,0,4.84,4.24,7.53,7.53,0,0,0,9.68,0,40.67,40.67,0,0,0,4.84-4.24,39.9,39.9,0,0,1,4.84-4.24,7.57,7.57,0,0,1,9.68,0A41.72,41.72,0,0,1,326,275a39.16,39.16,0,0,0,4.84,4.24,7.53,7.53,0,0,0,9.68,0,40.67,40.67,0,0,0,4.84-4.24,39.16,39.16,0,0,1,4.84-4.24,7.57,7.57,0,0,1,9.68,0,41.72,41.72,0,0,1,4.84,4.25,39.84,39.84,0,0,0,4.83,4.24,7.54,7.54,0,0,0,9.68,0A39.16,39.16,0,0,0,384,275a40,40,0,0,1,4.85-4.24,7.55,7.55,0,0,1,9.67,0,39.28,39.28,0,0,1,4.84,4.25,40.67,40.67,0,0,0,4.84,4.24,7.54,7.54,0,0,0,9.68,0,39.16,39.16,0,0,0,4.84-4.24,40.67,40.67,0,0,1,4.84-4.24,7.57,7.57,0,0,1,9.68,0A39.28,39.28,0,0,1,442.1,275a39.9,39.9,0,0,0,4.84,4.24,8.65,8.65,0,0,0,4.84,1.76L452-32.93a8.62,8.62,0,0,0-4.84,1.76,39.16,39.16,0,0,0-4.84,4.24,40.67,40.67,0,0,1-4.84,4.24,8.67,8.67,0,0,1-4.84,1.76,8.62,8.62,0,0,1-4.84-1.76A39.16,39.16,0,0,1,423-26.93a40.67,40.67,0,0,0-4.84-4.24,8.67,8.67,0,0,0-4.84-1.76,8.65,8.65,0,0,0-4.84,1.76,39.9,39.9,0,0,0-4.84,4.24,39.9,39.9,0,0,1-4.84,4.24,8.65,8.65,0,0,1-4.84,1.76,8.65,8.65,0,0,1-4.84-1.76,39.9,39.9,0,0,1-4.84-4.24,39.9,39.9,0,0,0-4.84-4.24,8.65,8.65,0,0,0-4.84-1.76,8.65,8.65,0,0,0-4.84,1.76,39.9,39.9,0,0,0-4.84,4.24A39.9,39.9,0,0,1,360-22.69a8.65,8.65,0,0,1-4.84,1.76,8.65,8.65,0,0,1-4.84-1.76,39.9,39.9,0,0,1-4.84-4.24,39.9,39.9,0,0,0-4.84-4.24,8.62,8.62,0,0,0-4.84-1.76A8.67,8.67,0,0,0,331-31.17a40.67,40.67,0,0,0-4.84,4.24,39.16,39.16,0,0,1-4.84,4.24,8.62,8.62,0,0,1-4.84,1.76,8.67,8.67,0,0,1-4.84-1.76,40.67,40.67,0,0,1-4.84-4.24A39.16,39.16,0,0,0,302-31.17a8.62,8.62,0,0,0-4.84-1.76,8.67,8.67,0,0,0-4.84,1.76,40.67,40.67,0,0,0-4.84,4.24,39.16,39.16,0,0,1-4.84,4.24,8.62,8.62,0,0,1-4.84,1.76,8.67,8.67,0,0,1-4.84-1.76,40.67,40.67,0,0,1-4.84-4.24,39.84,39.84,0,0,0-4.83-4.24,8.67,8.67,0,0,0-4.84-1.76,8.62,8.62,0,0,0-4.84,1.76,39.16,39.16,0,0,0-4.84,4.24,40.67,40.67,0,0,1-4.84,4.24A8.67,8.67,0,0,1,239-20.93a8.62,8.62,0,0,1-4.84-1.76,39.16,39.16,0,0,1-4.84-4.24,40.67,40.67,0,0,0-4.84-4.24,8.67,8.67,0,0,0-4.84-1.76,8.62,8.62,0,0,0-4.84,1.76A39.16,39.16,0,0,0,210-26.93a40.67,40.67,0,0,1-4.84,4.24,8.67,8.67,0,0,1-4.84,1.76,8.62,8.62,0,0,1-4.84-1.76,39.9,39.9,0,0,1-4.84-4.24,39.9,39.9,0,0,0-4.84-4.24A8.65,8.65,0,0,0,181-32.93a8.62,8.62,0,0,0-4.84,1.76,39.16,39.16,0,0,0-4.84,4.24,40.67,40.67,0,0,1-4.84,4.24,8.67,8.67,0,0,1-4.84,1.76,8.62,8.62,0,0,1-4.84-1.76,39.16,39.16,0,0,1-4.84-4.24,40.67,40.67,0,0,0-4.84-4.24,8.65,8.65,0,0,0-4.84-1.76,8.6,8.6,0,0,0-4.84,1.75,39.28,39.28,0,0,0-4.84,4.25,40.67,40.67,0,0,1-4.84,4.24,8.66,8.66,0,0,1-4.84,1.75A8.55,8.55,0,0,1,118-22.7a39.16,39.16,0,0,1-4.84-4.24,40.67,40.67,0,0,0-4.84-4.24,8.65,8.65,0,0,0-4.84-1.76,8.63,8.63,0,0,0-4.84,1.75,40.91,40.91,0,0,0-4.84,4.25A40.67,40.67,0,0,1,89-22.7a8.66,8.66,0,0,1-4.84,1.75,8.6,8.6,0,0,1-4.84-1.75,40.13,40.13,0,0,1-4.84-4.25,39.9,39.9,0,0,0-4.84-4.24,8.65,8.65,0,0,0-4.84-1.76A8.57,8.57,0,0,0,60-31.19a39.9,39.9,0,0,0-4.84,4.24,39.9,39.9,0,0,1-4.84,4.24A8.63,8.63,0,0,1,45.45-21a8.63,8.63,0,0,1-4.84-1.75A40.91,40.91,0,0,1,35.77-27a39.16,39.16,0,0,0-4.84-4.24A8.62,8.62,0,0,0,26.09-33a8.6,8.6,0,0,0-4.84,1.76A40.67,40.67,0,0,0,16.41-27a39.9,39.9,0,0,1-4.84,4.24A8.63,8.63,0,0,1,6.73-21a8.63,8.63,0,0,1-4.84-1.75A41.72,41.72,0,0,1-3-27a39.16,39.16,0,0,0-4.84-4.24A8.62,8.62,0,0,0-12.63-33a8.67,8.67,0,0,0-4.84,1.76A40.67,40.67,0,0,0-22.31-27a39.16,39.16,0,0,1-4.84,4.24A8.6,8.6,0,0,1-32-21a8.66,8.66,0,0,1-4.84-1.75A41.72,41.72,0,0,1-41.67-27a39.84,39.84,0,0,0-4.83-4.24A8.67,8.67,0,0,0-51.34-33a8.62,8.62,0,0,0-4.84,1.76A39.16,39.16,0,0,0-61-27a40,40,0,0,1-4.85,4.24A8.53,8.53,0,0,1-70.71-21a8.6,8.6,0,0,1-4.83-1.75A39.28,39.28,0,0,1-80.38-27a40.67,40.67,0,0,0-4.84-4.24A8.67,8.67,0,0,0-90.06-33a8.65,8.65,0,0,0-4.84,1.76A39.16,39.16,0,0,0-99.74-27a40.67,40.67,0,0,1-4.84,4.24A8.58,8.58,0,0,1-109.42-21a8.6,8.6,0,0,1-4.84-1.75A39.28,39.28,0,0,1-119.1-27a39.9,39.9,0,0,0-4.84-4.24A8.65,8.65,0,0,0-128.78-33Z" fill="none"/></clipPath><clipPath id="clip-path-2"><rect y="50" width="52" height="240" fill="none"/></clipPath><symbol id="cursor" data-name="cursor" viewBox="0 0 12 20.32"><polygon points="12 11.66 12 10.65 10.88 10.65 10.88 9.83 9.89 9.83 9.88 9.82 9.88 8.84 8.9 8.84 8.89 8.83 8.89 7.85 7.91 7.85 7.91 7.84 7.91 6.86 6.93 6.86 6.92 6.86 6.92 5.88 5.94 5.88 5.93 5.87 5.93 4.88 4.95 4.88 4.94 4.88 4.94 3.9 3.96 3.9 3.95 3.89 3.95 2.9 2.97 2.9 2.96 2.9 2.96 1.92 1.98 1.92 1.97 1.91 1.97 0.93 1 0.93 1 0 0 0 0 17.31 1 17.31 1 16.51 1.98 16.51 1.98 15.53 1.98 15.52 2.96 15.52 2.96 14.54 2.97 14.53 3.95 14.53 3.95 13.59 4.93 13.59 4.93 15.5 5.93 15.5 5.93 17.41 6.93 17.41 6.93 17.39 6.93 17.39 6.93 19.32 7.92 19.32 7.92 20.32 9.85 20.32 9.85 19.32 10.85 19.32 10.85 17.39 9.87 17.39 9.87 15.47 8.89 15.47 8.89 13.54 7.94 13.54 7.94 11.66 12 11.66" fill="#fff"/><polygon points="12 10.65 12 11.66 7.94 11.66 7.94 13.54 7.89 13.56 6.94 13.56 6.94 10.65 6.95 10.65 7.94 10.65 9.89 10.65 9.89 9.83 10.88 9.83 10.88 10.65 12 10.65" fill="#221f1f"/><polygon points="10.85 17.39 10.85 19.32 9.85 19.32 9.85 19.32 9.85 17.39 9.87 17.39 10.85 17.39" fill="#221f1f"/><rect x="8.9" y="8.84" width="0.98" height="0.98" fill="#221f1f"/><polygon points="9.87 15.47 9.87 17.39 9.85 17.39 8.87 17.39 8.87 15.47 8.89 15.47 9.87 15.47" fill="#221f1f"/><polygon points="9.85 19.32 9.85 20.32 7.92 20.32 7.92 19.32 7.93 19.32 9.85 19.32 9.85 19.32" fill="#221f1f"/><rect x="7.91" y="7.85" width="0.98" height="0.98" fill="#221f1f"/><polygon points="8.89 13.54 8.89 15.47 8.87 15.47 7.89 15.47 7.89 13.56 7.94 13.54 8.89 13.54" fill="#221f1f"/><polygon points="7.93 17.39 7.93 19.32 7.92 19.32 6.93 19.32 6.93 17.39 7.93 17.39" fill="#221f1f"/><rect x="6.93" y="6.86" width="0.98" height="0.98" fill="#221f1f"/><polygon points="6.93 17.39 6.93 17.41 5.93 17.41 5.93 15.5 5.93 15.48 6.93 15.48 6.93 17.39" fill="#221f1f"/><rect x="5.94" y="5.88" width="0.98" height="0.98" fill="#221f1f"/><polygon points="5.93 13.57 5.93 15.48 5.93 15.5 4.93 15.5 4.93 13.59 4.93 13.57 5.93 13.57" fill="#221f1f"/><rect x="4.95" y="4.88" width="0.98" height="0.98" fill="#221f1f"/><rect x="3.96" y="3.89" width="0.98" height="0.98" fill="#221f1f"/><polygon points="4.93 13.57 4.93 13.59 3.95 13.59 3.94 13.55 3.94 11.66 4.93 11.66 4.93 13.57" fill="#221f1f"/><rect x="2.97" y="2.91" width="0.98" height="0.98" fill="#221f1f"/><polygon points="3.95 13.59 3.95 14.53 2.97 14.53 2.97 13.55 3.94 13.55 3.95 13.59" fill="#221f1f"/><rect x="1.98" y="14.54" width="0.98" height="0.98" fill="#221f1f"/><rect x="1.98" y="1.92" width="0.98" height="0.98" fill="#221f1f"/><polygon points="1.98 15.53 1.98 16.51 1 16.51 1 17.31 0 17.31 0 0 1 0 1 0.93 1.97 0.93 1.97 1.91 1 1.91 1 15.53 1.98 15.53" fill="#221f1f"/></symbol></defs><title>tips-placement-dont</title><g clip-path="url(#clip-path)"><rect x="57.5" y="0.5" width="223" height="219" fill="#fff"/><path d="M280,1V219H58V1H280m1-1H57V220H281V0Z" fill="#4384b7"/><rect x="58" y="197" width="222" height="22" fill="#82878c"/><path d="M67.27,17h-1v-.94h0a2,2,0,0,1-1.85,1.08,2,2,0,0,1-1.4-.47,1.64,1.64,0,0,1-.51-1.26q0-1.68,2-2l1.8-.25q0-1.53-1.24-1.53a3,3,0,0,0-2,.74v-1a3.72,3.72,0,0,1,2-.56q2.12,0,2.12,2.24Zm-1-3-1.45.2a2.35,2.35,0,0,0-1,.33,1,1,0,0,0-.34.84.92.92,0,0,0,.31.72,1.21,1.21,0,0,0,.83.28,1.54,1.54,0,0,0,1.18-.5,1.79,1.79,0,0,0,.47-1.27Z" fill="#4d5359"/><path d="M74.2,17h-1V16h0a2.22,2.22,0,0,1-2.06,1.16,2.24,2.24,0,0,1-1.81-.81,3.31,3.31,0,0,1-.68-2.19,3.6,3.6,0,0,1,.75-2.38,2.47,2.47,0,0,1,2-.9,1.92,1.92,0,0,1,1.8,1h0V8.12h1Zm-1-2.71V13.4a1.72,1.72,0,0,0-.48-1.23,1.61,1.61,0,0,0-1.22-.5,1.66,1.66,0,0,0-1.38.64,2.82,2.82,0,0,0-.5,1.78,2.54,2.54,0,0,0,.48,1.64,1.58,1.58,0,0,0,1.3.6,1.64,1.64,0,0,0,1.3-.58A2.16,2.16,0,0,0,73.24,14.29Z" fill="#4d5359"/><path d="M81.27,17h-1V16h0a2.22,2.22,0,0,1-2.06,1.16,2.24,2.24,0,0,1-1.81-.81,3.31,3.31,0,0,1-.68-2.19,3.6,3.6,0,0,1,.75-2.38,2.47,2.47,0,0,1,2-.9,1.92,1.92,0,0,1,1.8,1h0V8.12h1Zm-1-2.71V13.4a1.72,1.72,0,0,0-.48-1.23,1.61,1.61,0,0,0-1.22-.5,1.66,1.66,0,0,0-1.38.64,2.82,2.82,0,0,0-.5,1.78,2.54,2.54,0,0,0,.48,1.64,1.58,1.58,0,0,0,1.3.6,1.64,1.64,0,0,0,1.3-.58A2.16,2.16,0,0,0,80.3,14.29Z" fill="#4d5359"/><path d="M68.5,36.21a3.08,3.08,0,0,1-.22,1.16,2.83,2.83,0,0,1-.6.93,2.79,2.79,0,0,1-.92.62,3.16,3.16,0,0,1-2.43,0,2.56,2.56,0,0,1-.95-.76,3.58,3.58,0,0,1-.59-1.23,6.07,6.07,0,0,1-.21-1.65,6.78,6.78,0,0,1,.27-2,4.51,4.51,0,0,1,.76-1.51,3.42,3.42,0,0,1,1.2-1,3.56,3.56,0,0,1,1.58-.34,4,4,0,0,1,1.51.23v1.55a2.77,2.77,0,0,0-1.39-.36,2,2,0,0,0-.85.18,1.88,1.88,0,0,0-.65.52,2.49,2.49,0,0,0-.43.81,3.59,3.59,0,0,0-.17,1.05h0a2,2,0,0,1,1.76-.83,2.3,2.3,0,0,1,.94.19,2,2,0,0,1,.72.53,2.43,2.43,0,0,1,.46.82A3.28,3.28,0,0,1,68.5,36.21Zm-1.81.12q0-1.35-1.11-1.35a1.09,1.09,0,0,0-.46.09,1,1,0,0,0-.35.26,1.2,1.2,0,0,0-.23.4,1.58,1.58,0,0,0-.08.51,2,2,0,0,0,.08.58,1.54,1.54,0,0,0,.23.47,1.15,1.15,0,0,0,.35.32.9.9,0,0,0,.46.12,1,1,0,0,0,.45-.1,1,1,0,0,0,.35-.29,1.32,1.32,0,0,0,.22-.45A2,2,0,0,0,66.69,36.32Z" fill="#4d5359"/><path d="M82.75,39H80.88V34q0-.81.07-1.8h0a8.85,8.85,0,0,1-.26,1.11l-2,5.71H77.12l-2-5.65a11,11,0,0,1-.26-1.17H74.8q.08,1.24.08,2.18V39H73.17V30.6h2.77l1.72,5a7,7,0,0,1,.3,1.2h0a12.1,12.1,0,0,1,.33-1.21l1.72-5h2.7Z" fill="#4d5359"/><path d="M89.47,39H87.72v-.86h0a2,2,0,0,1-1.79,1,1.87,1.87,0,0,1-1.37-.5,1.77,1.77,0,0,1-.5-1.32q0-1.75,2.07-2l1.63-.22q0-1-1.07-1a3.64,3.64,0,0,0-2,.64V33.36A4.59,4.59,0,0,1,85.68,33a5.56,5.56,0,0,1,1.22-.15,2.27,2.27,0,0,1,2.57,2.56Zm-1.74-2.44v-.4l-1.09.14q-.9.12-.9.81a.67.67,0,0,0,.22.52.84.84,0,0,0,.59.2,1.1,1.1,0,0,0,.85-.36A1.3,1.3,0,0,0,87.73,36.56Z" fill="#4d5359"/><path d="M94.56,38.93a2.74,2.74,0,0,1-1.24.22q-2,0-2-2V34.37h-1V33h1V31.71l1.85-.53V33h1.35v1.37H93.21v2.43q0,.94.74.94a1.25,1.25,0,0,0,.6-.17Z" fill="#4d5359"/><path d="M100.1,38.78a3.66,3.66,0,0,1-1.81.36,3.06,3.06,0,0,1-2.24-.84,2.89,2.89,0,0,1-.86-2.16,3.19,3.19,0,0,1,.92-2.41,3.39,3.39,0,0,1,2.45-.88,3.15,3.15,0,0,1,1.54.28v1.57a2.11,2.11,0,0,0-1.29-.43,1.71,1.71,0,0,0-1.26.47A1.74,1.74,0,0,0,97.08,36a1.71,1.71,0,0,0,.45,1.25,1.64,1.64,0,0,0,1.22.45,2.44,2.44,0,0,0,1.35-.43Z" fill="#4d5359"/><path d="M107.08,39h-1.85V35.59q0-1.32-1-1.32a1,1,0,0,0-.8.37,1.42,1.42,0,0,0-.3.94V39h-1.85V30.12h1.85v3.77h0a2.1,2.1,0,0,1,1.85-1q2,0,2,2.46Z" fill="#4d5359"/><path d="M113.93,36.53H110q.09,1.31,1.65,1.31a3.21,3.21,0,0,0,1.74-.47V38.7a4.57,4.57,0,0,1-2.16.45,2.79,2.79,0,0,1-3.06-3.05,3.21,3.21,0,0,1,.87-2.37,2.89,2.89,0,0,1,2.13-.87,2.62,2.62,0,0,1,2,.78,3,3,0,0,1,.72,2.12Zm-1.72-1.14q0-1.29-1-1.29a1,1,0,0,0-.77.37,1.68,1.68,0,0,0-.4.92Z" fill="#4d5359"/><path d="M114.64,38.84v-1.5a3.94,3.94,0,0,0,.91.41,3,3,0,0,0,.86.13,1.84,1.84,0,0,0,.78-.13.44.44,0,0,0,.28-.41.38.38,0,0,0-.13-.29,1.2,1.2,0,0,0-.33-.21,3.76,3.76,0,0,0-.44-.16l-.46-.16a4.44,4.44,0,0,1-.63-.29,1.82,1.82,0,0,1-.46-.36,1.42,1.42,0,0,1-.28-.47,1.89,1.89,0,0,1-.1-.64,1.64,1.64,0,0,1,.22-.87,1.79,1.79,0,0,1,.59-.59,2.68,2.68,0,0,1,.84-.34,4.37,4.37,0,0,1,1-.11,5.45,5.45,0,0,1,.81.06,6,6,0,0,1,.81.18v1.43a2.92,2.92,0,0,0-.75-.31,3.18,3.18,0,0,0-.79-.1,1.75,1.75,0,0,0-.34,0,1.13,1.13,0,0,0-.28.09.52.52,0,0,0-.19.16.36.36,0,0,0-.07.22.41.41,0,0,0,.11.28.92.92,0,0,0,.28.2,2.72,2.72,0,0,0,.38.15l.41.14a5.37,5.37,0,0,1,.67.28,2.14,2.14,0,0,1,.51.36,1.4,1.4,0,0,1,.33.48,1.92,1.92,0,0,1-.12,1.57,1.85,1.85,0,0,1-.62.62,2.79,2.79,0,0,1-.88.35,4.9,4.9,0,0,1-1,.11A5.36,5.36,0,0,1,114.64,38.84Z" fill="#4d5359"/><path d="M62.71,212.66V211.5a2.25,2.25,0,0,0,.48.32,3.87,3.87,0,0,0,.59.24,4.66,4.66,0,0,0,.62.15,3.45,3.45,0,0,0,.57.05,2.25,2.25,0,0,0,1.36-.34,1.26,1.26,0,0,0,.3-1.56,1.68,1.68,0,0,0-.41-.46,4.1,4.1,0,0,0-.62-.4l-.78-.4q-.44-.22-.82-.45a3.55,3.55,0,0,1-.66-.5,2.1,2.1,0,0,1-.44-.62A2.13,2.13,0,0,1,63,205.7a2.16,2.16,0,0,1,.66-.7,3,3,0,0,1,.93-.41,4.28,4.28,0,0,1,1.07-.13,4.1,4.1,0,0,1,1.81.3v1.11a3.28,3.28,0,0,0-1.91-.52,3.14,3.14,0,0,0-.64.07,1.82,1.82,0,0,0-.57.22,1.27,1.27,0,0,0-.41.39,1,1,0,0,0-.16.59,1.21,1.21,0,0,0,.12.56,1.36,1.36,0,0,0,.35.43,3.53,3.53,0,0,0,.57.38l.78.4q.45.22.86.47a3.91,3.91,0,0,1,.71.54,2.42,2.42,0,0,1,.48.66,1.86,1.86,0,0,1,.18.83,2.11,2.11,0,0,1-.24,1.05,2,2,0,0,1-.66.7,2.87,2.87,0,0,1-1,.39,5.21,5.21,0,0,1-1.14.12l-.49,0-.6-.09a4.88,4.88,0,0,1-.58-.15A1.8,1.8,0,0,1,62.71,212.66Z" fill="#fff"/><path d="M74.33,213h-1v-3.46q0-1.87-1.39-1.87a1.52,1.52,0,0,0-1.18.54,2,2,0,0,0-.48,1.39V213h-1v-8.88h1V208h0a2.18,2.18,0,0,1,2-1.14q2,0,2,2.44Z" fill="#fff"/><path d="M78.65,213.14a2.78,2.78,0,0,1-2.12-.84,3.11,3.11,0,0,1-.79-2.23,3.24,3.24,0,0,1,.83-2.36,3,3,0,0,1,2.23-.85,2.69,2.69,0,0,1,2.09.83,3.28,3.28,0,0,1,.75,2.29,3.22,3.22,0,0,1-.81,2.3A2.84,2.84,0,0,1,78.65,213.14Zm.07-5.47a1.83,1.83,0,0,0-1.46.63,2.59,2.59,0,0,0-.54,1.74,2.45,2.45,0,0,0,.54,1.68,1.85,1.85,0,0,0,1.46.62,1.76,1.76,0,0,0,1.43-.6,2.62,2.62,0,0,0,.5-1.72,2.66,2.66,0,0,0-.5-1.73A1.75,1.75,0,0,0,78.72,207.67Z" fill="#fff"/><path d="M90.73,207l-1.8,6h-1l-1.24-4.29a2.8,2.8,0,0,1-.09-.56h0a2.63,2.63,0,0,1-.12.54L85.12,213h-1l-1.82-6h1l1.24,4.51a2.72,2.72,0,0,1,.08.54h0a2.52,2.52,0,0,1,.11-.55l1.38-4.5h.88l1.24,4.52a3.23,3.23,0,0,1,.09.54h0a2.49,2.49,0,0,1,.1-.54L89.78,207Z" fill="#fff"/><path d="M99.42,213h-1v-.94h0a2,2,0,0,1-1.85,1.08,2,2,0,0,1-1.4-.47,1.64,1.64,0,0,1-.51-1.26q0-1.68,2-2l1.8-.25q0-1.53-1.24-1.53a3,3,0,0,0-2,.74v-1a3.72,3.72,0,0,1,2-.56q2.12,0,2.12,2.24Zm-1-3-1.45.2a2.35,2.35,0,0,0-1,.33,1,1,0,0,0-.34.84.92.92,0,0,0,.31.72,1.21,1.21,0,0,0,.83.28,1.54,1.54,0,0,0,1.18-.5,1.79,1.79,0,0,0,.47-1.27Z" fill="#fff"/><path d="M106.36,213h-1v-1h0a2.22,2.22,0,0,1-2.06,1.16,2.24,2.24,0,0,1-1.81-.81,3.31,3.31,0,0,1-.68-2.19,3.6,3.6,0,0,1,.75-2.38,2.47,2.47,0,0,1,2-.9,1.92,1.92,0,0,1,1.8,1h0v-3.71h1Zm-1-2.71v-.88a1.72,1.72,0,0,0-.48-1.23,1.61,1.61,0,0,0-1.22-.5,1.66,1.66,0,0,0-1.38.64,2.82,2.82,0,0,0-.5,1.78,2.54,2.54,0,0,0,.48,1.64,1.58,1.58,0,0,0,1.3.6,1.64,1.64,0,0,0,1.3-.58A2.16,2.16,0,0,0,105.39,210.29Z" fill="#fff"/><path d="M113.42,213h-1v-1h0a2.22,2.22,0,0,1-2.06,1.16,2.24,2.24,0,0,1-1.81-.81,3.31,3.31,0,0,1-.68-2.19,3.6,3.6,0,0,1,.75-2.38,2.47,2.47,0,0,1,2-.9,1.92,1.92,0,0,1,1.8,1h0v-3.71h1Zm-1-2.71v-.88a1.72,1.72,0,0,0-.48-1.23,1.61,1.61,0,0,0-1.22-.5,1.66,1.66,0,0,0-1.38.64,2.82,2.82,0,0,0-.5,1.78,2.54,2.54,0,0,0,.48,1.64,1.58,1.58,0,0,0,1.3.6,1.64,1.64,0,0,0,1.3-.58A2.16,2.16,0,0,0,112.46,210.29Z" fill="#fff"/><path d="M115.86,205.48a.61.61,0,0,1-.44-.18.59.59,0,0,1-.18-.45.62.62,0,0,1,.62-.63.62.62,0,0,1,.45.18.63.63,0,0,1,0,.89A.62.62,0,0,1,115.86,205.48Zm.47,7.52h-1v-6h1Z" fill="#fff"/><path d="M121.06,212.94a1.85,1.85,0,0,1-.9.19q-1.58,0-1.58-1.76v-3.55h-1V207h1v-1.46l1-.31V207h1.51v.82h-1.51v3.38a1.4,1.4,0,0,0,.21.86.82.82,0,0,0,.68.26,1,1,0,0,0,.63-.2Z" fill="#fff"/><path d="M122.83,205.48a.61.61,0,0,1-.44-.18.59.59,0,0,1-.18-.45.62.62,0,0,1,.62-.63.62.62,0,0,1,.45.18.63.63,0,0,1,0,.89A.62.62,0,0,1,122.83,205.48Zm.47,7.52h-1v-6h1Z" fill="#fff"/><path d="M127.75,213.14a2.78,2.78,0,0,1-2.12-.84,3.11,3.11,0,0,1-.79-2.23,3.24,3.24,0,0,1,.83-2.36,3,3,0,0,1,2.23-.85,2.69,2.69,0,0,1,2.09.83,3.28,3.28,0,0,1,.75,2.29,3.22,3.22,0,0,1-.81,2.3A2.84,2.84,0,0,1,127.75,213.14Zm.07-5.47a1.83,1.83,0,0,0-1.46.63,2.59,2.59,0,0,0-.54,1.74,2.45,2.45,0,0,0,.54,1.68,1.85,1.85,0,0,0,1.46.62,1.76,1.76,0,0,0,1.43-.6,2.62,2.62,0,0,0,.5-1.72,2.66,2.66,0,0,0-.5-1.73A1.75,1.75,0,0,0,127.82,207.67Z" fill="#fff"/><path d="M137.26,213h-1v-3.42q0-1.91-1.39-1.91a1.51,1.51,0,0,0-1.19.54,2,2,0,0,0-.47,1.37V213h-1v-6h1v1h0a2.17,2.17,0,0,1,2-1.14,1.84,1.84,0,0,1,1.51.64,2.83,2.83,0,0,1,.52,1.84Z" fill="#fff"/><path d="M143.36,213h-1v-.94h0a2,2,0,0,1-1.85,1.08,2,2,0,0,1-1.4-.47,1.64,1.64,0,0,1-.51-1.26q0-1.68,2-2l1.8-.25q0-1.53-1.24-1.53a3,3,0,0,0-2,.74v-1a3.72,3.72,0,0,1,2-.56q2.12,0,2.12,2.24Zm-1-3-1.45.2a2.35,2.35,0,0,0-1,.33,1,1,0,0,0-.34.84.92.92,0,0,0,.31.72,1.21,1.21,0,0,0,.83.28,1.54,1.54,0,0,0,1.18-.5,1.79,1.79,0,0,0,.47-1.27Z" fill="#fff"/><path d="M146.13,213h-1v-8.88h1Z" fill="#fff"/><path d="M151,212.78v-1a2.84,2.84,0,0,0,1.73.58q1.27,0,1.27-.84a.73.73,0,0,0-.11-.41,1.08,1.08,0,0,0-.29-.3,2.26,2.26,0,0,0-.43-.23l-.54-.21a6.9,6.9,0,0,1-.7-.32,2.12,2.12,0,0,1-.5-.36,1.35,1.35,0,0,1-.3-.46,1.63,1.63,0,0,1-.1-.6,1.43,1.43,0,0,1,.19-.75,1.71,1.71,0,0,1,.52-.54,2.4,2.4,0,0,1,.74-.33,3.26,3.26,0,0,1,.85-.11,3.44,3.44,0,0,1,1.39.27v1a2.72,2.72,0,0,0-1.52-.43,1.78,1.78,0,0,0-.49.06,1.19,1.19,0,0,0-.37.17.8.8,0,0,0-.24.27.7.7,0,0,0-.08.34.82.82,0,0,0,.08.39.86.86,0,0,0,.25.28,1.9,1.9,0,0,0,.4.22l.53.22a7.42,7.42,0,0,1,.71.31,2.45,2.45,0,0,1,.54.36,1.42,1.42,0,0,1,.34.47,1.5,1.5,0,0,1,.12.63,1.48,1.48,0,0,1-.2.77,1.68,1.68,0,0,1-.52.54,2.4,2.4,0,0,1-.76.32,3.73,3.73,0,0,1-.9.11A3.4,3.4,0,0,1,151,212.78Z" fill="#fff"/><path d="M161.28,210.24H157a2.24,2.24,0,0,0,.54,1.55,1.86,1.86,0,0,0,1.42.54,3,3,0,0,0,1.86-.67v.9a3.48,3.48,0,0,1-2.09.57,2.54,2.54,0,0,1-2-.82A3.35,3.35,0,0,1,156,210a3.28,3.28,0,0,1,.79-2.28,2.55,2.55,0,0,1,2-.88,2.26,2.26,0,0,1,1.82.76,3.18,3.18,0,0,1,.64,2.12Zm-1-.81a2,2,0,0,0-.4-1.29,1.37,1.37,0,0,0-1.1-.46,1.55,1.55,0,0,0-1.15.49,2.21,2.21,0,0,0-.59,1.27Z" fill="#fff"/><path d="M167,213h-1v-.94h0a2,2,0,0,1-1.85,1.08,2,2,0,0,1-1.4-.47,1.64,1.64,0,0,1-.51-1.26q0-1.68,2-2l1.8-.25q0-1.53-1.24-1.53a3,3,0,0,0-2,.74v-1a3.72,3.72,0,0,1,2-.56q2.12,0,2.12,2.24Zm-1-3-1.45.2a2.35,2.35,0,0,0-1,.33,1,1,0,0,0-.34.84.92.92,0,0,0,.31.72,1.21,1.21,0,0,0,.83.28,1.54,1.54,0,0,0,1.18-.5,1.79,1.79,0,0,0,.47-1.27Z" fill="#fff"/><path d="M172,208a1.18,1.18,0,0,0-.73-.19,1.23,1.23,0,0,0-1,.58,2.68,2.68,0,0,0-.41,1.58V213h-1v-6h1v1.24h0a2.1,2.1,0,0,1,.63-1,1.43,1.43,0,0,1,.94-.35,1.57,1.57,0,0,1,.57.08Z" fill="#fff"/><path d="M176.94,212.72a3.12,3.12,0,0,1-1.64.42,2.72,2.72,0,0,1-2.07-.83,3,3,0,0,1-.79-2.17,3.33,3.33,0,0,1,.85-2.38,3,3,0,0,1,2.27-.9,3.16,3.16,0,0,1,1.39.29v1a2.44,2.44,0,0,0-1.43-.47,1.93,1.93,0,0,0-1.51.66,2.5,2.5,0,0,0-.59,1.73,2.38,2.38,0,0,0,.55,1.66,1.91,1.91,0,0,0,1.49.61,2.41,2.41,0,0,0,1.48-.52Z" fill="#fff"/><path d="M183.38,213h-1v-3.46q0-1.87-1.39-1.87a1.52,1.52,0,0,0-1.18.54,2,2,0,0,0-.48,1.39V213h-1v-8.88h1V208h0a2.18,2.18,0,0,1,2-1.14q2,0,2,2.44Z" fill="#fff"/><path d="M191.6,208a1.18,1.18,0,0,0-.73-.19,1.23,1.23,0,0,0-1,.58,2.68,2.68,0,0,0-.41,1.58V213h-1v-6h1v1.24h0a2.1,2.1,0,0,1,.63-1,1.43,1.43,0,0,1,.94-.35,1.57,1.57,0,0,1,.57.08Z" fill="#fff"/><path d="M197.31,210.24h-4.24a2.24,2.24,0,0,0,.54,1.55,1.86,1.86,0,0,0,1.42.54,3,3,0,0,0,1.86-.67v.9a3.48,3.48,0,0,1-2.09.57,2.54,2.54,0,0,1-2-.82,3.35,3.35,0,0,1-.73-2.3,3.28,3.28,0,0,1,.79-2.28,2.55,2.55,0,0,1,2-.88,2.26,2.26,0,0,1,1.82.76,3.18,3.18,0,0,1,.64,2.12Zm-1-.81a2,2,0,0,0-.4-1.29,1.37,1.37,0,0,0-1.1-.46,1.55,1.55,0,0,0-1.15.49,2.21,2.21,0,0,0-.59,1.27Z" fill="#fff"/><path d="M198.4,212.78v-1a2.84,2.84,0,0,0,1.73.58q1.27,0,1.27-.84a.73.73,0,0,0-.11-.41,1.08,1.08,0,0,0-.29-.3,2.26,2.26,0,0,0-.43-.23l-.54-.21a6.9,6.9,0,0,1-.7-.32,2.12,2.12,0,0,1-.5-.36,1.35,1.35,0,0,1-.3-.46,1.63,1.63,0,0,1-.1-.6,1.43,1.43,0,0,1,.19-.75,1.71,1.71,0,0,1,.52-.54,2.4,2.4,0,0,1,.74-.33,3.26,3.26,0,0,1,.85-.11,3.44,3.44,0,0,1,1.39.27v1a2.72,2.72,0,0,0-1.52-.43,1.78,1.78,0,0,0-.49.06,1.19,1.19,0,0,0-.37.17.8.8,0,0,0-.24.27.7.7,0,0,0-.08.34.82.82,0,0,0,.08.39.86.86,0,0,0,.25.28,1.9,1.9,0,0,0,.4.22l.53.22a7.42,7.42,0,0,1,.71.31,2.45,2.45,0,0,1,.54.36,1.42,1.42,0,0,1,.34.47,1.5,1.5,0,0,1,.12.63,1.48,1.48,0,0,1-.2.77,1.68,1.68,0,0,1-.52.54,2.4,2.4,0,0,1-.76.32,3.73,3.73,0,0,1-.9.11A3.4,3.4,0,0,1,198.4,212.78Z" fill="#fff"/><path d="M208.71,213h-1v-.95h0a2,2,0,0,1-1.85,1.09q-2.14,0-2.14-2.55V207h1v3.43q0,1.9,1.45,1.9a1.47,1.47,0,0,0,1.16-.52,2,2,0,0,0,.45-1.36V207h1Z" fill="#fff"/><path d="M211.61,213h-1v-8.88h1Z" fill="#fff"/><path d="M216.34,212.94a1.85,1.85,0,0,1-.9.19q-1.58,0-1.58-1.76v-3.55h-1V207h1v-1.46l1-.31V207h1.51v.82h-1.51v3.38a1.4,1.4,0,0,0,.21.86.82.82,0,0,0,.68.26,1,1,0,0,0,.63-.2Z" fill="#fff"/><path d="M217.26,212.78v-1a2.84,2.84,0,0,0,1.73.58q1.27,0,1.27-.84a.73.73,0,0,0-.11-.41,1.08,1.08,0,0,0-.29-.3,2.26,2.26,0,0,0-.43-.23l-.54-.21a6.9,6.9,0,0,1-.7-.32,2.12,2.12,0,0,1-.5-.36,1.35,1.35,0,0,1-.3-.46,1.63,1.63,0,0,1-.1-.6,1.43,1.43,0,0,1,.19-.75,1.71,1.71,0,0,1,.52-.54,2.4,2.4,0,0,1,.74-.33,3.26,3.26,0,0,1,.85-.11,3.44,3.44,0,0,1,1.39.27v1a2.72,2.72,0,0,0-1.52-.43,1.78,1.78,0,0,0-.49.06,1.19,1.19,0,0,0-.37.17.8.8,0,0,0-.24.27.7.7,0,0,0-.08.34.82.82,0,0,0,.08.39.86.86,0,0,0,.25.28,1.9,1.9,0,0,0,.4.22l.53.22a7.42,7.42,0,0,1,.71.31,2.45,2.45,0,0,1,.54.36,1.42,1.42,0,0,1,.34.47,1.5,1.5,0,0,1,.12.63,1.48,1.48,0,0,1-.2.77,1.68,1.68,0,0,1-.52.54,2.4,2.4,0,0,1-.76.32,3.73,3.73,0,0,1-.9.11A3.4,3.4,0,0,1,217.26,212.78Z" fill="#fff"/><path d="M62,214.39v-.7H221.74v.7Z" fill="#fff"/><path d="M90.61,83H89.52l-.89-2.36H85.06L84.22,83h-1.1l3.22-8.4h1Zm-2.3-3.24L87,76.18a3.43,3.43,0,0,1-.13-.56h0a3.14,3.14,0,0,1-.13.56l-1.31,3.58Z" fill="#4d5359"/><path d="M96.83,83h-1V82h0a2.22,2.22,0,0,1-2.06,1.16A2.24,2.24,0,0,1,92,82.33a3.31,3.31,0,0,1-.68-2.19,3.6,3.6,0,0,1,.75-2.38,2.47,2.47,0,0,1,2-.9,1.92,1.92,0,0,1,1.8,1h0V74.12h1Zm-1-2.71V79.4a1.72,1.72,0,0,0-.48-1.23,1.61,1.61,0,0,0-1.22-.5,1.66,1.66,0,0,0-1.38.64,2.82,2.82,0,0,0-.5,1.78,2.54,2.54,0,0,0,.48,1.64,1.58,1.58,0,0,0,1.3.6,1.64,1.64,0,0,0,1.3-.58A2.16,2.16,0,0,0,95.87,80.29Z" fill="#4d5359"/><path d="M103.9,83h-1V82h0a2.22,2.22,0,0,1-2.06,1.16A2.24,2.24,0,0,1,99,82.33a3.31,3.31,0,0,1-.68-2.19,3.6,3.6,0,0,1,.75-2.38,2.47,2.47,0,0,1,2-.9,1.92,1.92,0,0,1,1.8,1h0V74.12h1Zm-1-2.71V79.4a1.72,1.72,0,0,0-.48-1.23,1.61,1.61,0,0,0-1.22-.5,1.66,1.66,0,0,0-1.38.64,2.82,2.82,0,0,0-.5,1.78,2.54,2.54,0,0,0,.48,1.64,1.58,1.58,0,0,0,1.3.6,1.64,1.64,0,0,0,1.3-.58A2.16,2.16,0,0,0,102.94,80.29Z" fill="#4d5359"/><path d="M115.58,83h-1V79.17h-4.35V83h-1V74.6h1v3.69h4.35V74.6h1Z" fill="#4d5359"/><path d="M122.47,80.24h-4.24a2.24,2.24,0,0,0,.54,1.55,1.86,1.86,0,0,0,1.42.54,3,3,0,0,0,1.86-.67v.9a3.48,3.48,0,0,1-2.09.57,2.54,2.54,0,0,1-2-.82,3.35,3.35,0,0,1-.73-2.3,3.28,3.28,0,0,1,.79-2.28,2.55,2.55,0,0,1,2-.88,2.26,2.26,0,0,1,1.82.76,3.18,3.18,0,0,1,.64,2.12Zm-1-.81a2,2,0,0,0-.4-1.29,1.37,1.37,0,0,0-1.1-.46,1.55,1.55,0,0,0-1.15.49,2.21,2.21,0,0,0-.59,1.27Z" fill="#4d5359"/><path d="M128.22,83h-1v-.94h0a2,2,0,0,1-1.85,1.08,2,2,0,0,1-1.4-.47,1.64,1.64,0,0,1-.51-1.26q0-1.68,2-2l1.8-.25q0-1.53-1.24-1.53a3,3,0,0,0-2,.74v-1a3.72,3.72,0,0,1,2-.56q2.12,0,2.12,2.24Zm-1-3-1.45.2a2.35,2.35,0,0,0-1,.33,1,1,0,0,0-.34.84.92.92,0,0,0,.31.72,1.21,1.21,0,0,0,.83.28,1.54,1.54,0,0,0,1.18-.5,1.79,1.79,0,0,0,.47-1.27Z" fill="#4d5359"/><path d="M135.15,83h-1V82h0a2.22,2.22,0,0,1-2.06,1.16,2.24,2.24,0,0,1-1.81-.81,3.31,3.31,0,0,1-.68-2.19,3.6,3.6,0,0,1,.75-2.38,2.47,2.47,0,0,1,2-.9,1.92,1.92,0,0,1,1.8,1h0V74.12h1Zm-1-2.71V79.4a1.72,1.72,0,0,0-.48-1.23,1.61,1.61,0,0,0-1.22-.5,1.66,1.66,0,0,0-1.38.64,2.82,2.82,0,0,0-.5,1.78,2.54,2.54,0,0,0,.48,1.64,1.58,1.58,0,0,0,1.3.6,1.64,1.64,0,0,0,1.3-.58A2.16,2.16,0,0,0,134.19,80.29Z" fill="#4d5359"/><path d="M141.92,80.24h-4.24a2.24,2.24,0,0,0,.54,1.55,1.86,1.86,0,0,0,1.42.54,3,3,0,0,0,1.86-.67v.9a3.48,3.48,0,0,1-2.09.57,2.54,2.54,0,0,1-2-.82,3.35,3.35,0,0,1-.73-2.3,3.28,3.28,0,0,1,.79-2.28,2.55,2.55,0,0,1,2-.88,2.26,2.26,0,0,1,1.82.76,3.18,3.18,0,0,1,.64,2.12Zm-1-.81a2,2,0,0,0-.4-1.29,1.37,1.37,0,0,0-1.1-.46,1.55,1.55,0,0,0-1.15.49,2.21,2.21,0,0,0-.59,1.27Z" fill="#4d5359"/><path d="M146.5,78a1.18,1.18,0,0,0-.73-.19,1.23,1.23,0,0,0-1,.58,2.68,2.68,0,0,0-.41,1.58V83h-1V77h1v1.24h0a2.1,2.1,0,0,1,.63-1,1.43,1.43,0,0,1,.94-.35,1.57,1.57,0,0,1,.57.08Z" fill="#4d5359"/><path d="M85.09,146h-1v-8.4h1Z" fill="#4d5359"/><path d="M88.28,142.82V146h-1v-8.4H89.6a3,3,0,0,1,2.09.66,2.34,2.34,0,0,1,.74,1.85,2.55,2.55,0,0,1-.82,2,3.15,3.15,0,0,1-2.22.76Zm0-4.34v3.45h1a2.31,2.31,0,0,0,1.56-.47,1.65,1.65,0,0,0,.54-1.32q0-1.66-2-1.66Z" fill="#4d5359"/><path d="M103.81,146h-1.09l-.89-2.36H98.26L97.43,146h-1.1l3.22-8.4h1Zm-2.3-3.24-1.32-3.58a3.43,3.43,0,0,1-.13-.56h0a3.14,3.14,0,0,1-.13.56l-1.31,3.58Z" fill="#4d5359"/><path d="M110,146h-1v-1h0a2.22,2.22,0,0,1-2.06,1.16,2.24,2.24,0,0,1-1.81-.81,3.31,3.31,0,0,1-.68-2.19,3.6,3.6,0,0,1,.75-2.38,2.47,2.47,0,0,1,2-.9,1.92,1.92,0,0,1,1.8,1h0v-3.71h1Zm-1-2.71v-.88a1.72,1.72,0,0,0-.48-1.23,1.61,1.61,0,0,0-1.22-.5,1.66,1.66,0,0,0-1.38.64,2.82,2.82,0,0,0-.5,1.78,2.54,2.54,0,0,0,.48,1.64,1.58,1.58,0,0,0,1.3.6,1.64,1.64,0,0,0,1.3-.58A2.16,2.16,0,0,0,109.07,143.29Z" fill="#4d5359"/><path d="M117.1,146h-1v-1h0a2.22,2.22,0,0,1-2.06,1.16,2.24,2.24,0,0,1-1.81-.81,3.31,3.31,0,0,1-.68-2.19,3.6,3.6,0,0,1,.75-2.38,2.47,2.47,0,0,1,2-.9,1.92,1.92,0,0,1,1.8,1h0v-3.71h1Zm-1-2.71v-.88a1.72,1.72,0,0,0-.48-1.23,1.61,1.61,0,0,0-1.22-.5,1.66,1.66,0,0,0-1.38.64,2.82,2.82,0,0,0-.5,1.78,2.54,2.54,0,0,0,.48,1.64,1.58,1.58,0,0,0,1.3.6,1.64,1.64,0,0,0,1.3-.58A2.16,2.16,0,0,0,116.14,143.29Z" fill="#4d5359"/><path d="M122.18,141a1.18,1.18,0,0,0-.73-.19,1.23,1.23,0,0,0-1,.58,2.68,2.68,0,0,0-.41,1.58V146h-1v-6h1v1.24h0a2.1,2.1,0,0,1,.63-1,1.43,1.43,0,0,1,.94-.35,1.57,1.57,0,0,1,.57.08Z" fill="#4d5359"/><path d="M127.88,143.24h-4.24a2.24,2.24,0,0,0,.54,1.55,1.86,1.86,0,0,0,1.42.54,3,3,0,0,0,1.86-.67v.9a3.48,3.48,0,0,1-2.09.57,2.54,2.54,0,0,1-2-.82,3.35,3.35,0,0,1-.73-2.3,3.28,3.28,0,0,1,.79-2.28,2.55,2.55,0,0,1,2-.88,2.26,2.26,0,0,1,1.82.76,3.18,3.18,0,0,1,.64,2.12Zm-1-.81a2,2,0,0,0-.4-1.29,1.37,1.37,0,0,0-1.1-.46,1.55,1.55,0,0,0-1.15.49,2.21,2.21,0,0,0-.59,1.27Z" fill="#4d5359"/><path d="M129,145.78v-1a2.84,2.84,0,0,0,1.73.58q1.27,0,1.27-.84a.73.73,0,0,0-.11-.41,1.08,1.08,0,0,0-.29-.3,2.26,2.26,0,0,0-.43-.23l-.54-.21a6.9,6.9,0,0,1-.7-.32,2.12,2.12,0,0,1-.5-.36,1.35,1.35,0,0,1-.3-.46,1.63,1.63,0,0,1-.1-.6,1.43,1.43,0,0,1,.19-.75,1.71,1.71,0,0,1,.52-.54,2.4,2.4,0,0,1,.74-.33,3.26,3.26,0,0,1,.85-.11,3.44,3.44,0,0,1,1.39.27v1a2.72,2.72,0,0,0-1.52-.43,1.78,1.78,0,0,0-.49.06,1.19,1.19,0,0,0-.37.17.8.8,0,0,0-.24.27.7.7,0,0,0-.08.34.82.82,0,0,0,.08.39.86.86,0,0,0,.25.28,1.9,1.9,0,0,0,.4.22l.53.22a7.42,7.42,0,0,1,.71.31,2.45,2.45,0,0,1,.54.36,1.42,1.42,0,0,1,.34.47,1.5,1.5,0,0,1,.12.63,1.48,1.48,0,0,1-.2.77,1.68,1.68,0,0,1-.52.54,2.4,2.4,0,0,1-.76.32,3.73,3.73,0,0,1-.9.11A3.4,3.4,0,0,1,129,145.78Z" fill="#4d5359"/><path d="M134.06,145.78v-1a2.84,2.84,0,0,0,1.73.58q1.27,0,1.27-.84a.73.73,0,0,0-.11-.41,1.08,1.08,0,0,0-.29-.3,2.26,2.26,0,0,0-.43-.23l-.54-.21a6.9,6.9,0,0,1-.7-.32,2.12,2.12,0,0,1-.5-.36,1.35,1.35,0,0,1-.3-.46,1.63,1.63,0,0,1-.1-.6,1.43,1.43,0,0,1,.19-.75,1.71,1.71,0,0,1,.52-.54,2.4,2.4,0,0,1,.74-.33,3.26,3.26,0,0,1,.85-.11,3.44,3.44,0,0,1,1.39.27v1a2.72,2.72,0,0,0-1.52-.43,1.78,1.78,0,0,0-.49.06,1.19,1.19,0,0,0-.37.17.8.8,0,0,0-.24.27.7.7,0,0,0-.08.34.82.82,0,0,0,.08.39.86.86,0,0,0,.25.28,1.9,1.9,0,0,0,.4.22l.53.22a7.42,7.42,0,0,1,.71.31,2.45,2.45,0,0,1,.54.36,1.42,1.42,0,0,1,.34.47,1.5,1.5,0,0,1,.12.63,1.48,1.48,0,0,1-.2.77,1.68,1.68,0,0,1-.52.54,2.4,2.4,0,0,1-.76.32,3.73,3.73,0,0,1-.9.11A3.4,3.4,0,0,1,134.06,145.78Z" fill="#4d5359"/><path d="M145.59,145.94a1.85,1.85,0,0,1-.9.19q-1.58,0-1.58-1.76v-3.55h-1V140h1v-1.46l1-.31V140h1.51v.82h-1.51v3.38a1.4,1.4,0,0,0,.21.86.82.82,0,0,0,.68.26,1,1,0,0,0,.63-.2Z" fill="#4d5359"/><path d="M149.29,146.14a2.78,2.78,0,0,1-2.12-.84,3.11,3.11,0,0,1-.79-2.23,3.24,3.24,0,0,1,.83-2.36,3,3,0,0,1,2.23-.85,2.69,2.69,0,0,1,2.09.83,3.28,3.28,0,0,1,.75,2.29,3.22,3.22,0,0,1-.81,2.3A2.84,2.84,0,0,1,149.29,146.14Zm.07-5.47a1.83,1.83,0,0,0-1.46.63,2.59,2.59,0,0,0-.54,1.74,2.45,2.45,0,0,0,.54,1.68,1.85,1.85,0,0,0,1.46.62,1.76,1.76,0,0,0,1.43-.6,2.62,2.62,0,0,0,.5-1.72,2.66,2.66,0,0,0-.5-1.73A1.75,1.75,0,0,0,149.36,140.67Z" fill="#4d5359"/><path d="M156.83,145.66V144.5a2.25,2.25,0,0,0,.48.32,3.87,3.87,0,0,0,.59.24,4.66,4.66,0,0,0,.62.15,3.45,3.45,0,0,0,.57.05,2.25,2.25,0,0,0,1.36-.34,1.26,1.26,0,0,0,.3-1.56,1.68,1.68,0,0,0-.41-.46,4.1,4.1,0,0,0-.62-.4l-.78-.4q-.44-.22-.82-.45a3.55,3.55,0,0,1-.66-.5,2.1,2.1,0,0,1-.44-.62,2.13,2.13,0,0,1,.09-1.82,2.16,2.16,0,0,1,.66-.7,3,3,0,0,1,.93-.41,4.28,4.28,0,0,1,1.07-.13,4.1,4.1,0,0,1,1.81.3v1.11a3.28,3.28,0,0,0-1.91-.52,3.14,3.14,0,0,0-.64.07,1.82,1.82,0,0,0-.57.22,1.27,1.27,0,0,0-.41.39,1,1,0,0,0-.16.59,1.21,1.21,0,0,0,.12.56,1.36,1.36,0,0,0,.35.43,3.53,3.53,0,0,0,.57.38l.78.4q.45.22.86.47a3.91,3.91,0,0,1,.71.54,2.42,2.42,0,0,1,.48.66,1.86,1.86,0,0,1,.18.83,2.11,2.11,0,0,1-.24,1.05,2,2,0,0,1-.66.7,2.87,2.87,0,0,1-1,.39,5.21,5.21,0,0,1-1.14.12l-.49,0-.6-.09a4.88,4.88,0,0,1-.58-.15A1.8,1.8,0,0,1,156.83,145.66Z" fill="#4d5359"/><path d="M165.87,145.94a1.85,1.85,0,0,1-.9.19q-1.58,0-1.58-1.76v-3.55h-1V140h1v-1.46l1-.31V140h1.51v.82h-1.51v3.38a1.4,1.4,0,0,0,.21.86.82.82,0,0,0,.68.26,1,1,0,0,0,.63-.2Z" fill="#4d5359"/><path d="M170.28,141a1.18,1.18,0,0,0-.73-.19,1.23,1.23,0,0,0-1,.58,2.68,2.68,0,0,0-.41,1.58V146h-1v-6h1v1.24h0a2.1,2.1,0,0,1,.63-1,1.43,1.43,0,0,1,.94-.35,1.57,1.57,0,0,1,.57.08Z" fill="#4d5359"/><path d="M171.82,138.48a.61.61,0,0,1-.44-.18.59.59,0,0,1-.18-.45.62.62,0,0,1,.62-.63.62.62,0,0,1,.45.18.63.63,0,0,1,0,.89A.62.62,0,0,1,171.82,138.48Zm.47,7.52h-1v-6h1Z" fill="#4d5359"/><path d="M179.21,146h-1v-3.42q0-1.91-1.39-1.91a1.51,1.51,0,0,0-1.19.54,2,2,0,0,0-.47,1.37V146h-1v-6h1v1h0a2.17,2.17,0,0,1,2-1.14,1.84,1.84,0,0,1,1.51.64,2.83,2.83,0,0,1,.52,1.84Z" fill="#4d5359"/><path d="M186.14,145.52q0,3.3-3.16,3.3a4.25,4.25,0,0,1-1.95-.42v-1A4,4,0,0,0,183,148q2.21,0,2.21-2.36V145h0a2.43,2.43,0,0,1-3.86.35,3.2,3.2,0,0,1-.68-2.15,3.74,3.74,0,0,1,.74-2.43,2.46,2.46,0,0,1,2-.9,2,2,0,0,1,1.8,1h0V140h1Zm-1-2.23v-.88a1.72,1.72,0,0,0-.48-1.22,1.59,1.59,0,0,0-1.2-.51,1.67,1.67,0,0,0-1.39.65,2.89,2.89,0,0,0-.5,1.81,2.48,2.48,0,0,0,.48,1.6,1.56,1.56,0,0,0,1.28.6,1.67,1.67,0,0,0,1.32-.57A2.14,2.14,0,0,0,185.18,143.29Z" fill="#4d5359"/><path d="M83.71,166.66V165.5a2.25,2.25,0,0,0,.48.32,3.87,3.87,0,0,0,.59.24,4.66,4.66,0,0,0,.62.15,3.45,3.45,0,0,0,.57.05,2.25,2.25,0,0,0,1.36-.34,1.26,1.26,0,0,0,.3-1.56,1.68,1.68,0,0,0-.41-.46,4.1,4.1,0,0,0-.62-.4l-.78-.4q-.44-.22-.82-.45a3.55,3.55,0,0,1-.66-.5,2.1,2.1,0,0,1-.44-.62A2.13,2.13,0,0,1,84,159.7a2.16,2.16,0,0,1,.66-.7,3,3,0,0,1,.93-.41,4.28,4.28,0,0,1,1.07-.13,4.1,4.1,0,0,1,1.81.3v1.11a3.28,3.28,0,0,0-1.91-.52,3.14,3.14,0,0,0-.64.07,1.82,1.82,0,0,0-.57.22,1.27,1.27,0,0,0-.41.39,1,1,0,0,0-.16.59,1.21,1.21,0,0,0,.12.56,1.36,1.36,0,0,0,.35.43,3.53,3.53,0,0,0,.57.38l.78.4q.45.22.86.47a3.91,3.91,0,0,1,.71.54,2.42,2.42,0,0,1,.48.66,1.86,1.86,0,0,1,.18.83,2.11,2.11,0,0,1-.24,1.05,2,2,0,0,1-.66.7,2.87,2.87,0,0,1-1,.39,5.21,5.21,0,0,1-1.14.12l-.49,0-.6-.09a4.88,4.88,0,0,1-.58-.15A1.8,1.8,0,0,1,83.71,166.66Z" fill="#4d5359"/><path d="M92.74,166.94a1.85,1.85,0,0,1-.9.19q-1.58,0-1.58-1.76v-3.55h-1V161h1v-1.46l1-.31V161h1.51v.82H91.23v3.38a1.4,1.4,0,0,0,.21.86.82.82,0,0,0,.68.26,1,1,0,0,0,.63-.2Z" fill="#4d5359"/><path d="M97.16,162a1.18,1.18,0,0,0-.73-.19,1.23,1.23,0,0,0-1,.58,2.68,2.68,0,0,0-.41,1.58V167H94v-6h1v1.24h0a2.1,2.1,0,0,1,.63-1,1.43,1.43,0,0,1,.94-.35,1.57,1.57,0,0,1,.57.08Z" fill="#4d5359"/><path d="M98.69,159.48a.61.61,0,0,1-.44-.18.59.59,0,0,1-.18-.45.62.62,0,0,1,.62-.63.62.62,0,0,1,.45.18.63.63,0,0,1,0,.89A.62.62,0,0,1,98.69,159.48Zm.47,7.52h-1v-6h1Z" fill="#4d5359"/><path d="M106.09,167h-1v-3.42q0-1.91-1.39-1.91a1.51,1.51,0,0,0-1.19.54,2,2,0,0,0-.47,1.37V167h-1v-6h1v1h0a2.17,2.17,0,0,1,2-1.14,1.84,1.84,0,0,1,1.51.64,2.83,2.83,0,0,1,.52,1.84Z" fill="#4d5359"/><path d="M113,166.52q0,3.3-3.16,3.3a4.25,4.25,0,0,1-1.95-.42v-1a4,4,0,0,0,1.93.56q2.21,0,2.21-2.36V166h0a2.43,2.43,0,0,1-3.86.35,3.2,3.2,0,0,1-.68-2.15,3.74,3.74,0,0,1,.74-2.43,2.46,2.46,0,0,1,2-.9,2,2,0,0,1,1.8,1h0V161h1Zm-1-2.23v-.88a1.72,1.72,0,0,0-.48-1.22,1.59,1.59,0,0,0-1.2-.51,1.67,1.67,0,0,0-1.39.65,2.89,2.89,0,0,0-.5,1.81,2.48,2.48,0,0,0,.48,1.6,1.56,1.56,0,0,0,1.28.6,1.67,1.67,0,0,0,1.32-.57A2.14,2.14,0,0,0,112.06,164.29Z" fill="#4d5359"/><path d="M121,166.94a1.85,1.85,0,0,1-.9.19q-1.58,0-1.58-1.76v-3.55h-1V161h1v-1.46l1-.31V161H121v.82h-1.51v3.38a1.4,1.4,0,0,0,.21.86.82.82,0,0,0,.68.26,1,1,0,0,0,.63-.2Z" fill="#4d5359"/><path d="M124.73,167.14a2.78,2.78,0,0,1-2.12-.84,3.11,3.11,0,0,1-.79-2.23,3.24,3.24,0,0,1,.83-2.36,3,3,0,0,1,2.23-.85,2.69,2.69,0,0,1,2.09.83,3.28,3.28,0,0,1,.75,2.29,3.22,3.22,0,0,1-.81,2.3A2.84,2.84,0,0,1,124.73,167.14Zm.07-5.47a1.83,1.83,0,0,0-1.46.63,2.59,2.59,0,0,0-.54,1.74,2.45,2.45,0,0,0,.54,1.68,1.85,1.85,0,0,0,1.46.62,1.76,1.76,0,0,0,1.43-.6,2.62,2.62,0,0,0,.5-1.72,2.66,2.66,0,0,0-.5-1.73A1.75,1.75,0,0,0,124.8,161.67Z" fill="#4d5359"/><path d="M133.65,167h-1v-8.4h1Z" fill="#4d5359"/><path d="M136.85,163.82V167h-1v-8.4h2.31a3,3,0,0,1,2.09.66,2.34,2.34,0,0,1,.74,1.85,2.55,2.55,0,0,1-.82,2,3.15,3.15,0,0,1-2.22.76Zm0-4.34v3.45h1a2.31,2.31,0,0,0,1.56-.47,1.65,1.65,0,0,0,.54-1.32q0-1.66-2-1.66Z" fill="#4d5359"/><path d="M152.38,167h-1.09l-.89-2.36h-3.56L146,167h-1.1l3.22-8.4h1Zm-2.3-3.24-1.32-3.58a3.43,3.43,0,0,1-.13-.56h0a3.14,3.14,0,0,1-.13.56l-1.31,3.58Z" fill="#4d5359"/><path d="M158.6,167h-1v-1h0a2.22,2.22,0,0,1-2.06,1.16,2.24,2.24,0,0,1-1.81-.81,3.31,3.31,0,0,1-.68-2.19,3.6,3.6,0,0,1,.75-2.38,2.47,2.47,0,0,1,2-.9,1.92,1.92,0,0,1,1.8,1h0v-3.71h1Zm-1-2.71v-.88a1.72,1.72,0,0,0-.48-1.23,1.61,1.61,0,0,0-1.22-.5,1.66,1.66,0,0,0-1.38.64,2.82,2.82,0,0,0-.5,1.78,2.54,2.54,0,0,0,.48,1.64,1.58,1.58,0,0,0,1.3.6,1.64,1.64,0,0,0,1.3-.58A2.16,2.16,0,0,0,157.64,164.29Z" fill="#4d5359"/><path d="M165.67,167h-1v-1h0a2.22,2.22,0,0,1-2.06,1.16,2.24,2.24,0,0,1-1.81-.81,3.31,3.31,0,0,1-.68-2.19,3.6,3.6,0,0,1,.75-2.38,2.47,2.47,0,0,1,2-.9,1.92,1.92,0,0,1,1.8,1h0v-3.71h1Zm-1-2.71v-.88a1.72,1.72,0,0,0-.48-1.23,1.61,1.61,0,0,0-1.22-.5,1.66,1.66,0,0,0-1.38.64,2.82,2.82,0,0,0-.5,1.78,2.54,2.54,0,0,0,.48,1.64,1.58,1.58,0,0,0,1.3.6,1.64,1.64,0,0,0,1.3-.58A2.16,2.16,0,0,0,164.71,164.29Z" fill="#4d5359"/><path d="M170.74,162a1.18,1.18,0,0,0-.73-.19,1.23,1.23,0,0,0-1,.58,2.68,2.68,0,0,0-.41,1.58V167h-1v-6h1v1.24h0a2.1,2.1,0,0,1,.63-1,1.43,1.43,0,0,1,.94-.35,1.57,1.57,0,0,1,.57.08Z" fill="#4d5359"/><path d="M176.45,164.24h-4.24a2.24,2.24,0,0,0,.54,1.55,1.86,1.86,0,0,0,1.42.54,3,3,0,0,0,1.86-.67v.9a3.48,3.48,0,0,1-2.09.57,2.54,2.54,0,0,1-2-.82,3.35,3.35,0,0,1-.73-2.3,3.28,3.28,0,0,1,.79-2.28,2.55,2.55,0,0,1,2-.88,2.26,2.26,0,0,1,1.82.76,3.18,3.18,0,0,1,.64,2.12Zm-1-.81a2,2,0,0,0-.4-1.29,1.37,1.37,0,0,0-1.1-.46,1.55,1.55,0,0,0-1.15.49,2.21,2.21,0,0,0-.59,1.27Z" fill="#4d5359"/><path d="M177.54,166.78v-1a2.84,2.84,0,0,0,1.73.58q1.27,0,1.27-.84a.73.73,0,0,0-.11-.41,1.08,1.08,0,0,0-.29-.3,2.26,2.26,0,0,0-.43-.23l-.54-.21a6.9,6.9,0,0,1-.7-.32,2.12,2.12,0,0,1-.5-.36,1.35,1.35,0,0,1-.3-.46,1.63,1.63,0,0,1-.1-.6,1.43,1.43,0,0,1,.19-.75,1.71,1.71,0,0,1,.52-.54A2.4,2.4,0,0,1,179,161a3.26,3.26,0,0,1,.85-.11,3.44,3.44,0,0,1,1.39.27v1a2.72,2.72,0,0,0-1.52-.43,1.78,1.78,0,0,0-.49.06,1.19,1.19,0,0,0-.37.17.8.8,0,0,0-.24.27.7.7,0,0,0-.08.34.82.82,0,0,0,.08.39.86.86,0,0,0,.25.28,1.9,1.9,0,0,0,.4.22l.53.22a7.42,7.42,0,0,1,.71.31,2.45,2.45,0,0,1,.54.36,1.42,1.42,0,0,1,.34.47,1.5,1.5,0,0,1,.12.63,1.48,1.48,0,0,1-.2.77,1.68,1.68,0,0,1-.52.54,2.4,2.4,0,0,1-.76.32,3.73,3.73,0,0,1-.9.11A3.4,3.4,0,0,1,177.54,166.78Z" fill="#4d5359"/><path d="M182.63,166.78v-1a2.84,2.84,0,0,0,1.73.58q1.27,0,1.27-.84a.73.73,0,0,0-.11-.41,1.08,1.08,0,0,0-.29-.3,2.26,2.26,0,0,0-.43-.23l-.54-.21a6.9,6.9,0,0,1-.7-.32,2.12,2.12,0,0,1-.5-.36,1.35,1.35,0,0,1-.3-.46,1.63,1.63,0,0,1-.1-.6,1.43,1.43,0,0,1,.19-.75,1.71,1.71,0,0,1,.52-.54,2.4,2.4,0,0,1,.74-.33,3.26,3.26,0,0,1,.85-.11,3.44,3.44,0,0,1,1.39.27v1a2.72,2.72,0,0,0-1.52-.43,1.78,1.78,0,0,0-.49.06,1.19,1.19,0,0,0-.37.17.8.8,0,0,0-.24.27.7.7,0,0,0-.08.34.82.82,0,0,0,.08.39.86.86,0,0,0,.25.28,1.9,1.9,0,0,0,.4.22l.53.22a7.42,7.42,0,0,1,.71.31,2.45,2.45,0,0,1,.54.36,1.42,1.42,0,0,1,.34.47,1.5,1.5,0,0,1,.12.63,1.48,1.48,0,0,1-.2.77,1.68,1.68,0,0,1-.52.54,2.4,2.4,0,0,1-.76.32,3.73,3.73,0,0,1-.9.11A3.4,3.4,0,0,1,182.63,166.78Z" fill="#4d5359"/><path d="M85.09,188h-1v-8.4h1Z" fill="#4d5359"/><path d="M92.15,188h-1v-3.42q0-1.91-1.39-1.91a1.51,1.51,0,0,0-1.19.54,2,2,0,0,0-.47,1.37V188h-1v-6h1v1h0a2.17,2.17,0,0,1,2-1.14,1.84,1.84,0,0,1,1.51.64,2.83,2.83,0,0,1,.52,1.84Z" fill="#4d5359"/><path d="M98,187.72a3.12,3.12,0,0,1-1.64.42,2.72,2.72,0,0,1-2.07-.83,3,3,0,0,1-.79-2.17,3.33,3.33,0,0,1,.85-2.38,3,3,0,0,1,2.27-.9,3.16,3.16,0,0,1,1.39.29v1a2.44,2.44,0,0,0-1.43-.47,1.93,1.93,0,0,0-1.51.66,2.5,2.5,0,0,0-.59,1.73,2.38,2.38,0,0,0,.55,1.66,1.91,1.91,0,0,0,1.49.61,2.41,2.41,0,0,0,1.48-.52Z" fill="#4d5359"/><path d="M102.63,183a1.18,1.18,0,0,0-.73-.19,1.23,1.23,0,0,0-1,.58,2.68,2.68,0,0,0-.41,1.58V188h-1v-6h1v1.24h0a2.1,2.1,0,0,1,.63-1,1.43,1.43,0,0,1,.94-.35,1.57,1.57,0,0,1,.57.08Z" fill="#4d5359"/><path d="M108.34,185.24H104.1a2.24,2.24,0,0,0,.54,1.55,1.86,1.86,0,0,0,1.42.54,3,3,0,0,0,1.86-.67v.9a3.48,3.48,0,0,1-2.09.57,2.54,2.54,0,0,1-2-.82,3.35,3.35,0,0,1-.73-2.3,3.28,3.28,0,0,1,.79-2.28,2.55,2.55,0,0,1,2-.88,2.26,2.26,0,0,1,1.82.76,3.18,3.18,0,0,1,.64,2.12Zm-1-.81a2,2,0,0,0-.4-1.29,1.37,1.37,0,0,0-1.1-.46,1.55,1.55,0,0,0-1.15.49,2.21,2.21,0,0,0-.59,1.27Z" fill="#4d5359"/><path d="M118.31,188h-1v-3.45a2.6,2.6,0,0,0-.31-1.44,1.17,1.17,0,0,0-1-.45,1.28,1.28,0,0,0-1,.56,2.15,2.15,0,0,0-.43,1.35V188h-1v-3.56q0-1.77-1.37-1.77a1.26,1.26,0,0,0-1,.53,2.19,2.19,0,0,0-.41,1.38V188h-1v-6h1v.95h0a2,2,0,0,1,1.86-1.09,1.73,1.73,0,0,1,1.7,1.24,2.14,2.14,0,0,1,2-1.24q2,0,2,2.44Z" fill="#4d5359"/><path d="M124.95,185.24h-4.24a2.24,2.24,0,0,0,.54,1.55,1.86,1.86,0,0,0,1.42.54,3,3,0,0,0,1.86-.67v.9a3.48,3.48,0,0,1-2.09.57,2.54,2.54,0,0,1-2-.82,3.35,3.35,0,0,1-.73-2.3,3.28,3.28,0,0,1,.79-2.28,2.55,2.55,0,0,1,2-.88,2.26,2.26,0,0,1,1.82.76,3.18,3.18,0,0,1,.64,2.12Zm-1-.81a2,2,0,0,0-.4-1.29,1.37,1.37,0,0,0-1.1-.46,1.55,1.55,0,0,0-1.15.49,2.21,2.21,0,0,0-.59,1.27Z" fill="#4d5359"/><path d="M131.38,188h-1v-3.42q0-1.91-1.39-1.91a1.51,1.51,0,0,0-1.19.54,2,2,0,0,0-.47,1.37V188h-1v-6h1v1h0a2.17,2.17,0,0,1,2-1.14,1.84,1.84,0,0,1,1.51.64,2.83,2.83,0,0,1,.52,1.84Z" fill="#4d5359"/><path d="M136,187.94a1.85,1.85,0,0,1-.9.19q-1.58,0-1.58-1.76v-3.55h-1V182h1v-1.46l1-.31V182H136v.82h-1.51v3.38a1.4,1.4,0,0,0,.21.86.82.82,0,0,0,.68.26,1,1,0,0,0,.63-.2Z" fill="#4d5359"/><rect x="82" y="6" width="1" height="14" fill="#4d5359"/><rect x="58" y="46" width="222" height="1" fill="#e9ebec"/><path d="M90.61,62H89.52l-.89-2.36H85.06L84.22,62h-1.1l3.22-8.4h1Zm-2.3-3.24L87,55.18a3.43,3.43,0,0,1-.13-.56h0a3.14,3.14,0,0,1-.13.56l-1.31,3.58Z" fill="#4d5359"/><path d="M96.83,62h-1V61h0a2.22,2.22,0,0,1-2.06,1.16A2.24,2.24,0,0,1,92,61.33a3.31,3.31,0,0,1-.68-2.19,3.6,3.6,0,0,1,.75-2.38,2.47,2.47,0,0,1,2-.9,1.92,1.92,0,0,1,1.8,1h0V53.12h1Zm-1-2.71V58.4a1.72,1.72,0,0,0-.48-1.23,1.61,1.61,0,0,0-1.22-.5,1.66,1.66,0,0,0-1.38.64,2.82,2.82,0,0,0-.5,1.78,2.54,2.54,0,0,0,.48,1.64,1.58,1.58,0,0,0,1.3.6,1.64,1.64,0,0,0,1.3-.58A2.16,2.16,0,0,0,95.87,59.29Z" fill="#4d5359"/><path d="M103.9,62h-1V61h0a2.22,2.22,0,0,1-2.06,1.16A2.24,2.24,0,0,1,99,61.33a3.31,3.31,0,0,1-.68-2.19,3.6,3.6,0,0,1,.75-2.38,2.47,2.47,0,0,1,2-.9,1.92,1.92,0,0,1,1.8,1h0V53.12h1Zm-1-2.71V58.4a1.72,1.72,0,0,0-.48-1.23,1.61,1.61,0,0,0-1.22-.5,1.66,1.66,0,0,0-1.38.64,2.82,2.82,0,0,0-.5,1.78,2.54,2.54,0,0,0,.48,1.64,1.58,1.58,0,0,0,1.3.6,1.64,1.64,0,0,0,1.3-.58A2.16,2.16,0,0,0,102.94,59.29Z" fill="#4d5359"/><path d="M278,48V68H60V48H278m1-1H59V69H279V47Z" fill="#4384b7"/><path d="M280,1V23H58.35V1H280m1-1H57.35V24H281V0Z" fill="#4384b7"/><path d="M263.17,56.21c0-.13-.06-.26-.08-.39A4.91,4.91,0,0,1,263,55a5,5,0,0,1,6-4.89c.11,0,.21.07.32.1a5,5,0,0,1,.64.21l.17.09A5,5,0,0,1,273,55a4.37,4.37,0,0,1-.07.74,4.94,4.94,0,0,1-.14.63l0,.08a5,5,0,0,1-.17.52c-1.18,3.45-4.6,8-4.6,8S264,59.84,263.17,56.21ZM271,55a3,3,0,1,0-3,3A3,3,0,0,0,271,55Zm-1,0a2,2,0,1,0-2,2A2,2,0,0,0,270,55Z" fill="#696e73"/><g opacity="0.92"><rect x="0.5" y="0.5" width="51" height="524" fill="#ebebeb"/><path d="M51,1V524H1V1H51m1-1H0V525H52V0Z" fill="#8e9295"/></g><path d="M24,29l1,2H44v1H8V31h2l1-2Zm21,5H7V68H45V34m1,2V69H6V33H46Z" fill="#8d9194"/><path d="M45,68H7V34H45Z" fill="#f3f4f5"/><rect x="7" y="34" width="38" height="34" fill="#8d9194" opacity="0.5"/><polygon points="26.01 38.93 28.63 47 37.12 47 30.25 52.5 32.88 60.82 26.01 55.96 19.15 61.02 21.77 52.47 14.9 47 23.39 47 26.01 38.93" opacity="0.7"/><rect width="57" height="24" fill="#4384b7"/><path d="M31.5,13.39a5.5,5.5,0,1,0-8.69-1.21L17,18l2.12,2.12,5.81-5.81A5.5,5.5,0,0,0,31.5,13.39ZM25.13,12a3.5,3.5,0,1,1,4.95,0A3.5,3.5,0,0,1,25.13,12Z" fill="#fff"/><path d="M24,29l1,2H44v1H8V31h2l1-2Zm21,5H7V68H45V34m1,2V69H6V33H46Z" fill="#8d9194"/><path d="M45,68H7V34H45Z" fill="#f3f4f5"/><path d="M24,164l1,2H44v1H8v-1h2l1-2Zm21,5H7v34H45V169m1,2v33H6V168H46Z" fill="#8d9194"/><path d="M45,203H7V169H45Z" fill="#f3f4f5"/><path d="M24,74l1,2H44v1H8V76h2l1-2Zm21,5H7v34H45V79m1,2v33H6V78H46Z" fill="#8d9194"/><path d="M45,113H7V79H45Z" fill="#f3f4f5"/><path d="M24,119l1,2H44v1H8v-1h2l1-2Zm21,5H7v34H45V124m1,2v33H6V123H46Z" fill="#8d9194"/><path d="M45,158H7V124H45Z" fill="#f3f4f5"/><path d="M24,209l1,2H44v1H8v-1h2l1-2Zm21,5H7v34H45V214m1,2v33H6V213H46Z" fill="#8d9194"/><path d="M45,248H7V214H45Z" fill="#f3f4f5"/><path d="M24,254l1,2H44v1H8v-1h2l1-2Zm21,5H7v34H45V259m1,2v33H6V258H46Z" fill="#8d9194"/><path d="M45,293H7V259H45Z" fill="#f3f4f5"/><path d="M23,87l-.88-2H34.5A1.39,1.39,0,0,1,36,86.28V95h3V86.14A2.36,2.36,0,0,0,36.47,84H22.15L23,82l-4,2.47L23,87m0,17,1,2H17.52A1.46,1.46,0,0,1,16,104.63V86.38A1.4,1.4,0,0,1,17.47,85H18V84H15.51A2.41,2.41,0,0,0,13,86.31V104.7A2.42,2.42,0,0,0,15.51,107H24l-1,2,4-2.47Zm7-5,3,3.7v1.62L30.29,108h6.49L34,104.33v-1.62L37,99H30.29M27,110l4-5.68v-1.62L27,97H40l-4,5.68v1.62L40,110Zm6.45-5,1.35,2H32.14Z" fill-rule="evenodd" opacity="0.7"/><path d="M14,128h7v7H14v-7" fill="#429242"/><path d="M30,128v7H23v-7Z" fill="#d539d2"/><path d="M39,128v7H32v-7Z" fill="#77381a"/><path d="M21,137v7H14l0-7Z" fill="#437fea"/><path d="M30,137v7H23l0-7Z" fill="#4e4e9c"/><path d="M39,137v7H32v-7Z" fill="#f59433"/><path d="M21,146v7H14v-7Z" fill="#b83b64"/><path d="M23,146h7v7H23v-7" fill="#7f7f00"/><path d="M32,146h7v7H32v-7" fill="#149999"/><path d="M26,185H12V171H26Zm-2-8H20v-4H18v4H14v2h4v4h2v-4h4Zm17,23H27V186H41Zm-4-6v-2H31v2Zm-11,6H12V186H26Zm-2.76-9.83-1.41-1.41L19,191.59l-2.83-2.83-1.41,1.41L17.59,193l-2.83,2.83,1.41,1.41L19,194.41l2.83,2.83,1.41-1.41L20.41,193ZM41,185H27V171H41Zm-2-6v-2H29v2Zm-4-6H33v2h2Zm0,8H33v2h2Z" fill-rule="evenodd" opacity="0.7"/><path d="M34,232.42v2H23v-7h1v5c1.58-.16,4.44-1.24,4-7h1C28.35,233.13,34,232.42,34,232.42Zm8-2.27v3a8.36,8.36,0,0,1-1-2.69c-.43-2-.43-3.35-.88-3.49s-.74,1.35-1.12,2.49c-.09.27-.19.61-.29,1-.36,1.25-1.21,3.05-2.25,3.4a8.49,8.49,0,0,1-12,4.51L20,245l-1.66-1.12,4.5-6.66a8.54,8.54,0,0,1-2.19-3.15.58.58,0,0,1-.37.16h0c-.64,0-1.68-1.11-2.24-3.73-.43-2-.43-3.35-.88-3.49s-.74,1.35-1.12,2.49c-.09.27-.19.61-.29,1,0,0-.85,3.73-2.16,3.75-1.11,0-1.64-3.06-1.8-3.73s-.5-3.34-.95-3.48-.74,1.35-1.12,2.49c-.09.27-.19.61-.29,1s-.24.75-.39,1.13v-3.37c.46-1.39,1.09-2.95,1.86-2.71.62.19,1.19,1.52,1.72,4,.34,1.57.58,3.29,1,3.32s1-2.18,1.39-3.52c.11-.4.22-.76.32-1.05.46-1.39,1.09-3,1.87-2.73.62.19,1.19,1.52,1.72,4,.44,2.05.87,3.12,1.3,3.21A8.51,8.51,0,1,1,36.92,232,8.91,8.91,0,0,0,38,229.31c.11-.4.22-.76.32-1.05.46-1.39,1.09-3,1.87-2.73.62.19,1.09,1.58,1.62,4C41.83,229.73,42,230,42,230.16Zm-6,.77a7.5,7.5,0,1,0-12.38,5.68l1.38.94h0a7.5,7.5,0,0,0,11-6.63Z" opacity="0.7"/><path d="M39,37l2,1V45l-2,1ZM12,53H10.67c-.37,0-.67.22-.67.5s.3.5.67.5H12Zm.09,0H12v1h.09a1.51,1.51,0,0,1,0-1m1.25,0H12.09a1.5,1.5,0,0,0,0,1h1.25c.37,0,.67-.22.67-.5s-.3-.5-.67-.5M12,58H10.67c-.37,0-.67.22-.67.5s.3.5.67.5H12Zm.09,0H12v1h.09a1.51,1.51,0,0,1,0-1m1.25,0H12.09a1.5,1.5,0,0,0,0,1h1.25c.37,0,.67-.22.67-.5s-.3-.5-.67-.5M12,63H10.67c-.37,0-.67.22-.67.5s.3.5.67.5H12Zm.09,0H12v1h.09a1.51,1.51,0,0,1,0-1m1.25,0H12.09a1.5,1.5,0,0,0,0,1h1.25c.37,0,.67-.22.67-.5s-.3-.5-.67-.5M12,48H10.67c-.37,0-.67.22-.67.5s.3.5.67.5H12Zm.09,0H12v1h.09a1.51,1.51,0,0,1,0-1m1.25,0H12.09a1.5,1.5,0,0,0,0,1h1.25c.37,0,.67-.22.67-.5s-.3-.5-.67-.5M12,43H10.67c-.37,0-.67.22-.67.5s.3.5.67.5H12Zm.09,0H12v1h.09a1.51,1.51,0,0,1,0-1m1.25,0H12.09a1.5,1.5,0,0,0,0,1h1.25c.37,0,.67-.22.67-.5s-.3-.5-.67-.5M12,38H10.67c-.37,0-.67.22-.67.5s.3.5.67.5H12Zm.09,0H12v1h.09a1.51,1.51,0,0,1,0-1m1.25,0H12.09a1.5,1.5,0,0,0,0,1h1.25c.37,0,.67-.22.67-.5s-.3-.5-.67-.5M39,56l2-1V48l-2-1Zm0,10,2-1V58l-2-1ZM34,47H22v1H34ZM12,36v2h.09a1.5,1.5,0,1,1,0,1H12v4h.09a1.5,1.5,0,1,1,0,1H12v4h.09a1.5,1.5,0,1,1,0,1H12v4h.09a1.5,1.5,0,1,1,0,1H12v4h.09a1.5,1.5,0,1,1,0,1H12v4h.09a1.5,1.5,0,1,1,0,1H12v2h5V36ZM34,50H22v1H34Zm4-12V64a2,2,0,0,1-2,2H18V36H36A2,2,0,0,1,38,38Zm-3,7H21v8H35Z" opacity="0.7"/><path d="M30.88,282.44,34,279.68V291H9V261H25a1,1,0,0,1,1,1v6h7a1.56,1.56,0,0,0-.11.16,1.44,1.44,0,0,0-.11.37,1.67,1.67,0,0,0-1.38,1,1.42,1.42,0,0,0-.13.55l-6.39,5.64L17.78,288ZM27,261.63V267h5.36Zm11.07,3.78c.62-.55,2,0,3.44,1.63s1.81,3.07,1.19,3.62L40.08,273l-4.63-5.25ZM24,283.49l5.66-2.66-2.81.48.12-2.78-.91.47.3-1.93L23,282.37Zm6.32-1.91-10.19,4.32,5.55-9.57,6-5.3,4.63,5.25Zm8.17-7.36L33.88,269c-.34-.38.42-1,.75-.66l4.63,5.25c.33.38-.43,1-.75.66M37,275.55l-4.63-5.25c-.34-.38.42-1,.75-.66l4.63,5.25c.34.38-.43,1-.75.66" opacity="0.7"/><path d="M90.61,104H89.52l-.89-2.36H85.06L84.22,104h-1.1l3.22-8.4h1Zm-2.3-3.24L87,97.18a3.43,3.43,0,0,1-.13-.56h0a3.14,3.14,0,0,1-.13.56l-1.31,3.58Z" fill="#4d5359"/><path d="M96.83,104h-1v-1h0a2.22,2.22,0,0,1-2.06,1.16,2.24,2.24,0,0,1-1.81-.81,3.31,3.31,0,0,1-.68-2.19,3.6,3.6,0,0,1,.75-2.38,2.47,2.47,0,0,1,2-.9,1.92,1.92,0,0,1,1.8,1h0V95.12h1Zm-1-2.71v-.88a1.72,1.72,0,0,0-.48-1.23,1.61,1.61,0,0,0-1.22-.5,1.66,1.66,0,0,0-1.38.64,2.82,2.82,0,0,0-.5,1.78,2.54,2.54,0,0,0,.48,1.64,1.58,1.58,0,0,0,1.3.6,1.64,1.64,0,0,0,1.3-.58A2.16,2.16,0,0,0,95.87,101.29Z" fill="#4d5359"/><path d="M103.9,104h-1v-1h0a2.22,2.22,0,0,1-2.06,1.16,2.24,2.24,0,0,1-1.81-.81,3.31,3.31,0,0,1-.68-2.19,3.6,3.6,0,0,1,.75-2.38,2.47,2.47,0,0,1,2-.9,1.92,1.92,0,0,1,1.8,1h0V95.12h1Zm-1-2.71v-.88a1.72,1.72,0,0,0-.48-1.23,1.61,1.61,0,0,0-1.22-.5,1.66,1.66,0,0,0-1.38.64,2.82,2.82,0,0,0-.5,1.78,2.54,2.54,0,0,0,.48,1.64,1.58,1.58,0,0,0,1.3.6,1.64,1.64,0,0,0,1.3-.58A2.16,2.16,0,0,0,102.94,101.29Z" fill="#4d5359"/><path d="M110.25,100.82V104h-1V95.6h2.31a3,3,0,0,1,2.09.66,2.34,2.34,0,0,1,.74,1.85,2.55,2.55,0,0,1-.82,2,3.15,3.15,0,0,1-2.22.76Zm0-4.34v3.45h1a2.31,2.31,0,0,0,1.56-.47,1.65,1.65,0,0,0,.54-1.32q0-1.66-2-1.66Z" fill="#4d5359"/><path d="M117.92,104.14a2.78,2.78,0,0,1-2.12-.84,3.11,3.11,0,0,1-.79-2.23,3.24,3.24,0,0,1,.83-2.36,3,3,0,0,1,2.23-.85,2.69,2.69,0,0,1,2.09.83,3.28,3.28,0,0,1,.75,2.29,3.22,3.22,0,0,1-.81,2.3A2.84,2.84,0,0,1,117.92,104.14Zm.07-5.47a1.83,1.83,0,0,0-1.46.63A2.59,2.59,0,0,0,116,101a2.45,2.45,0,0,0,.54,1.68,1.85,1.85,0,0,0,1.46.62,1.76,1.76,0,0,0,1.43-.6,2.62,2.62,0,0,0,.5-1.72,2.66,2.66,0,0,0-.5-1.73A1.75,1.75,0,0,0,118,98.67Z" fill="#4d5359"/><path d="M123.4,104h-1V95.12h1Z" fill="#4d5359"/><path d="M130.12,98l-2.76,7q-.74,1.86-2.07,1.86a2.2,2.2,0,0,1-.63-.08v-.86a1.78,1.78,0,0,0,.57.11,1.18,1.18,0,0,0,1.09-.87l.48-1.14-2.34-6h1.07l1.62,4.62q0,.09.12.46h0q0-.14.12-.45L129.13,98Z" fill="#4d5359"/><path d="M136.13,104h-1v-3.42q0-1.91-1.39-1.91a1.51,1.51,0,0,0-1.19.54,2,2,0,0,0-.47,1.37V104h-1V98h1v1h0a2.17,2.17,0,0,1,2-1.14,1.84,1.84,0,0,1,1.51.64,2.83,2.83,0,0,1,.52,1.84Z" fill="#4d5359"/><path d="M140.45,104.14a2.78,2.78,0,0,1-2.12-.84,3.11,3.11,0,0,1-.79-2.23,3.24,3.24,0,0,1,.83-2.36,3,3,0,0,1,2.23-.85,2.69,2.69,0,0,1,2.09.83,3.28,3.28,0,0,1,.75,2.29,3.22,3.22,0,0,1-.81,2.3A2.84,2.84,0,0,1,140.45,104.14Zm.07-5.47a1.83,1.83,0,0,0-1.46.63,2.59,2.59,0,0,0-.54,1.74,2.45,2.45,0,0,0,.54,1.68,1.85,1.85,0,0,0,1.46.62,1.76,1.76,0,0,0,1.43-.6,2.62,2.62,0,0,0,.5-1.72,2.66,2.66,0,0,0-.5-1.73A1.75,1.75,0,0,0,140.52,98.67Z" fill="#4d5359"/><path d="M153.49,104h-1v-3.45a2.6,2.6,0,0,0-.31-1.44,1.17,1.17,0,0,0-1-.45,1.28,1.28,0,0,0-1,.56,2.15,2.15,0,0,0-.43,1.35V104h-1v-3.56q0-1.77-1.37-1.77a1.26,1.26,0,0,0-1,.53,2.19,2.19,0,0,0-.41,1.38V104h-1V98h1v.95h0a2,2,0,0,1,1.86-1.09,1.73,1.73,0,0,1,1.7,1.24,2.14,2.14,0,0,1,2-1.24q2,0,2,2.44Z" fill="#4d5359"/><path d="M155.8,96.48a.61.61,0,0,1-.44-.18.59.59,0,0,1-.18-.45.62.62,0,0,1,.62-.63.62.62,0,0,1,.45.18.63.63,0,0,1,0,.89A.62.62,0,0,1,155.8,96.48Zm.47,7.52h-1V98h1Z" fill="#4d5359"/><path d="M162.51,104h-1v-.94h0a2,2,0,0,1-1.85,1.08,2,2,0,0,1-1.4-.47,1.64,1.64,0,0,1-.51-1.26q0-1.68,2-2l1.8-.25q0-1.53-1.24-1.53a3,3,0,0,0-2,.74v-1a3.72,3.72,0,0,1,2-.56q2.12,0,2.12,2.24Zm-1-3-1.45.2a2.35,2.35,0,0,0-1,.33,1,1,0,0,0-.34.84.92.92,0,0,0,.31.72,1.21,1.21,0,0,0,.83.28,1.54,1.54,0,0,0,1.18-.5,1.79,1.79,0,0,0,.47-1.27Z" fill="#4d5359"/><path d="M165.28,104h-1V95.12h1Z" fill="#4d5359"/><path d="M90.61,125H89.52l-.89-2.36H85.06L84.22,125h-1.1l3.22-8.4h1Zm-2.3-3.24L87,118.18a3.43,3.43,0,0,1-.13-.56h0a3.14,3.14,0,0,1-.13.56l-1.31,3.58Z" fill="#4d5359"/><path d="M96.83,125h-1v-1h0a2.22,2.22,0,0,1-2.06,1.16,2.24,2.24,0,0,1-1.81-.81,3.31,3.31,0,0,1-.68-2.19,3.6,3.6,0,0,1,.75-2.38,2.47,2.47,0,0,1,2-.9,1.92,1.92,0,0,1,1.8,1h0v-3.71h1Zm-1-2.71v-.88a1.72,1.72,0,0,0-.48-1.23,1.61,1.61,0,0,0-1.22-.5,1.66,1.66,0,0,0-1.38.64,2.82,2.82,0,0,0-.5,1.78,2.54,2.54,0,0,0,.48,1.64,1.58,1.58,0,0,0,1.3.6,1.64,1.64,0,0,0,1.3-.58A2.16,2.16,0,0,0,95.87,122.29Z" fill="#4d5359"/><path d="M103.9,125h-1v-1h0a2.22,2.22,0,0,1-2.06,1.16,2.24,2.24,0,0,1-1.81-.81,3.31,3.31,0,0,1-.68-2.19,3.6,3.6,0,0,1,.75-2.38,2.47,2.47,0,0,1,2-.9,1.92,1.92,0,0,1,1.8,1h0v-3.71h1Zm-1-2.71v-.88a1.72,1.72,0,0,0-.48-1.23,1.61,1.61,0,0,0-1.22-.5,1.66,1.66,0,0,0-1.38.64,2.82,2.82,0,0,0-.5,1.78,2.54,2.54,0,0,0,.48,1.64,1.58,1.58,0,0,0,1.3.6,1.64,1.64,0,0,0,1.3-.58A2.16,2.16,0,0,0,102.94,122.29Z" fill="#4d5359"/><path d="M115.77,125h-1.09l-.89-2.36h-3.56l-.84,2.36h-1.1l3.22-8.4h1Zm-2.3-3.24-1.32-3.58a3.43,3.43,0,0,1-.13-.56h0a3.14,3.14,0,0,1-.13.56l-1.31,3.58Z" fill="#4d5359"/><path d="M120,120a1.18,1.18,0,0,0-.73-.19,1.23,1.23,0,0,0-1,.58,2.68,2.68,0,0,0-.41,1.58V125h-1v-6h1v1.24h0a2.1,2.1,0,0,1,.63-1,1.43,1.43,0,0,1,.94-.35,1.57,1.57,0,0,1,.57.08Z" fill="#4d5359"/><path d="M124.17,120a1.18,1.18,0,0,0-.73-.19,1.23,1.23,0,0,0-1,.58,2.68,2.68,0,0,0-.41,1.58V125h-1v-6h1v1.24h0a2.1,2.1,0,0,1,.63-1,1.43,1.43,0,0,1,.94-.35,1.57,1.57,0,0,1,.57.08Z" fill="#4d5359"/><path d="M129.51,125h-1v-.94h0a2,2,0,0,1-1.85,1.08,2,2,0,0,1-1.4-.47,1.64,1.64,0,0,1-.51-1.26q0-1.68,2-2l1.8-.25q0-1.53-1.24-1.53a3,3,0,0,0-2,.74v-1a3.72,3.72,0,0,1,2-.56q2.12,0,2.12,2.24Zm-1-3-1.45.2a2.35,2.35,0,0,0-1,.33,1,1,0,0,0-.34.84.92.92,0,0,0,.31.72,1.21,1.21,0,0,0,.83.28,1.54,1.54,0,0,0,1.18-.5,1.79,1.79,0,0,0,.47-1.27Z" fill="#4d5359"/><path d="M136.1,119l-2.76,7q-.74,1.86-2.07,1.86a2.2,2.2,0,0,1-.63-.08v-.86a1.78,1.78,0,0,0,.57.11,1.18,1.18,0,0,0,1.09-.87l.48-1.14-2.34-6h1.07l1.62,4.62q0,.09.12.46h0q0-.14.12-.45L135.1,119Z" fill="#4d5359"/><path d="M145,125h-4.45v-8.4h4.27v.89h-3.28v2.79h3v.88h-3v2.94H145Z" fill="#4d5359"/><path d="M147.45,125h-1v-8.88h1Z" fill="#4d5359"/><path d="M154.21,122.24H150a2.24,2.24,0,0,0,.54,1.55,1.86,1.86,0,0,0,1.42.54,3,3,0,0,0,1.86-.67v.9a3.48,3.48,0,0,1-2.09.57,2.54,2.54,0,0,1-2-.82A3.35,3.35,0,0,1,149,122a3.28,3.28,0,0,1,.79-2.28,2.55,2.55,0,0,1,2-.88,2.26,2.26,0,0,1,1.82.76,3.18,3.18,0,0,1,.64,2.12Zm-1-.81a2,2,0,0,0-.4-1.29,1.37,1.37,0,0,0-1.1-.46,1.55,1.55,0,0,0-1.15.49,2.21,2.21,0,0,0-.59,1.27Z" fill="#4d5359"/><path d="M164.19,125h-1v-3.45a2.6,2.6,0,0,0-.31-1.44,1.17,1.17,0,0,0-1-.45,1.28,1.28,0,0,0-1,.56,2.15,2.15,0,0,0-.43,1.35V125h-1v-3.56q0-1.77-1.37-1.77a1.26,1.26,0,0,0-1,.53,2.19,2.19,0,0,0-.41,1.38V125h-1v-6h1v.95h0a2,2,0,0,1,1.86-1.09,1.73,1.73,0,0,1,1.7,1.24,2.14,2.14,0,0,1,2-1.24q2,0,2,2.44Z" fill="#4d5359"/><path d="M170.83,122.24h-4.24a2.24,2.24,0,0,0,.54,1.55,1.86,1.86,0,0,0,1.42.54,3,3,0,0,0,1.86-.67v.9a3.48,3.48,0,0,1-2.09.57,2.54,2.54,0,0,1-2-.82,3.35,3.35,0,0,1-.73-2.3,3.28,3.28,0,0,1,.79-2.28,2.55,2.55,0,0,1,2-.88,2.26,2.26,0,0,1,1.82.76,3.18,3.18,0,0,1,.64,2.12Zm-1-.81a2,2,0,0,0-.4-1.29,1.37,1.37,0,0,0-1.1-.46,1.55,1.55,0,0,0-1.15.49,2.21,2.21,0,0,0-.59,1.27Z" fill="#4d5359"/><path d="M177.26,125h-1v-3.42q0-1.91-1.39-1.91a1.51,1.51,0,0,0-1.19.54,2,2,0,0,0-.47,1.37V125h-1v-6h1v1h0a2.17,2.17,0,0,1,2-1.14,1.84,1.84,0,0,1,1.51.64,2.83,2.83,0,0,1,.52,1.84Z" fill="#4d5359"/><path d="M181.85,124.94a1.85,1.85,0,0,1-.9.19q-1.58,0-1.58-1.76v-3.55h-1V119h1v-1.46l1-.31V119h1.51v.82h-1.51v3.38a1.4,1.4,0,0,0,.21.86.82.82,0,0,0,.68.26,1,1,0,0,0,.63-.2Z" fill="#4d5359"/><path d="M182.77,124.78v-1a2.84,2.84,0,0,0,1.73.58q1.27,0,1.27-.84a.73.73,0,0,0-.11-.41,1.08,1.08,0,0,0-.29-.3,2.26,2.26,0,0,0-.43-.23l-.54-.21a6.9,6.9,0,0,1-.7-.32,2.12,2.12,0,0,1-.5-.36,1.35,1.35,0,0,1-.3-.46,1.63,1.63,0,0,1-.1-.6,1.43,1.43,0,0,1,.19-.75,1.71,1.71,0,0,1,.52-.54,2.4,2.4,0,0,1,.74-.33,3.26,3.26,0,0,1,.85-.11,3.44,3.44,0,0,1,1.39.27v1a2.72,2.72,0,0,0-1.52-.43,1.78,1.78,0,0,0-.49.06,1.19,1.19,0,0,0-.37.17.8.8,0,0,0-.24.27.7.7,0,0,0-.08.34.82.82,0,0,0,.08.39.86.86,0,0,0,.25.28,1.9,1.9,0,0,0,.4.22l.53.22a7.42,7.42,0,0,1,.71.31,2.45,2.45,0,0,1,.54.36,1.42,1.42,0,0,1,.34.47,1.5,1.5,0,0,1,.12.63,1.48,1.48,0,0,1-.2.77,1.68,1.68,0,0,1-.52.54,2.4,2.4,0,0,1-.76.32,3.73,3.73,0,0,1-.9.11A3.4,3.4,0,0,1,182.77,124.78Z" fill="#4d5359"/><path d="M78,184a1.81,1.81,0,0,1-1,1.6l-12.35,6.18A1.8,1.8,0,0,1,62,190.19V177.83a1.82,1.82,0,0,1,2.65-1.62L77,182.37A1.8,1.8,0,0,1,78,184" fill="#7f754c"/><path d="M63.77,191.46a1.23,1.23,0,0,1-1.23-1.23V177.75a1.23,1.23,0,0,1,1.87-1.06l12.39,6.2a1.23,1.23,0,0,1,0,2.19l-12.47,6.24a1.23,1.23,0,0,1-.58.15" fill="#fffff3"/><path d="M76.93,184a.62.62,0,0,1-.36.57L64,190.87l-.28.07a.62.62,0,0,1-.62-.63V177.69a.62.62,0,0,1,.94-.54l12.59,6.3a.62.62,0,0,1,.34.55" fill="#ffffcd"/><path d="M69.68,185.17H67.93v-.46h.55v-1.38h-.55v-.43h.24a.64.64,0,0,0,.19-.05.33.33,0,0,0,.14-.11.36.36,0,0,0,.05-.18h.58v2.17h.54ZM67.2,183.6h-.8v-.8H66v.8h-.8v.4H66v.8h.4V184h.8Z" opacity="0.7"/><path d="M78,121a1.81,1.81,0,0,1-1,1.6l-12.35,6.18A1.8,1.8,0,0,1,62,127.19V114.83a1.82,1.82,0,0,1,2.65-1.62L77,119.37A1.8,1.8,0,0,1,78,121" fill="#7f754c"/><path d="M63.77,128.46a1.23,1.23,0,0,1-1.23-1.23V114.75a1.23,1.23,0,0,1,1.87-1.06l12.39,6.2a1.23,1.23,0,0,1,0,2.19l-12.47,6.24a1.23,1.23,0,0,1-.58.15" fill="#fffff3"/><path d="M76.93,121a.62.62,0,0,1-.36.57L64,127.87l-.28.07a.62.62,0,0,1-.62-.63V114.69a.62.62,0,0,1,.94-.54l12.59,6.3a.62.62,0,0,1,.34.55" fill="#ffffcd"/><g opacity="0.7"><path d="M68.88,123H65.6v-.73L67,120.83l-1.36-1.49v-.74h3.19v.76H66.87l1.25,1.37v.22l-1.27,1.3h2Z"/></g><path d="M63.6,138H76.4a1.6,1.6,0,0,1,1.6,1.6v4.8a1.6,1.6,0,0,1-1.6,1.6H63.6a1.6,1.6,0,0,1-1.6-1.6v-4.8a1.6,1.6,0,0,1,1.6-1.6" fill="#7f754c"/><path d="M63.6,138.4H76.4a1.2,1.2,0,0,1,1.2,1.2v4.8a1.2,1.2,0,0,1-1.2,1.2H63.6a1.2,1.2,0,0,1-1.2-1.2v-4.8a1.2,1.2,0,0,1,1.2-1.2" fill="#fffff3"/><path d="M63.6,138.8H76.4a.8.8,0,0,1,.8.8v4.8a.8.8,0,0,1-.8.8H63.6a.8.8,0,0,1-.8-.8v-4.8a.8.8,0,0,1,.8-.8" fill="#ffffcd"/><path d="M74.44,142.54h1.23l-.16-1.93-1.07,1.93M72,143.68l.34-.35a.69.69,0,0,0,.62.38,1,1,0,0,0,.68-.32,5.39,5.39,0,0,0,.77-1.12l1.07-1.91-.47,0a1.12,1.12,0,0,0-.8.27,1,1,0,0,0-.28.77l-.49.25a1.71,1.71,0,0,1,.26-.8,1.38,1.38,0,0,1,.55-.5,2.78,2.78,0,0,1,.93-.19l.37,0,.5-.1,0,.86.15,1.78a2.51,2.51,0,0,0,.14.82.32.32,0,0,0,.32.2H77l0,.16-1.14.2-.1-1.27H74.33a3.42,3.42,0,0,1-.74,1,1.32,1.32,0,0,1-.83.28A1.11,1.11,0,0,1,72,143.68ZM70.06,142h1.32l-.52-.8,1.6,1-1.6,1,.52-.8H70.06V142m-4.48,2H63.2v-.72h.67v-2.63H63.2v-.72h2.38v.72h-.67v2.63h.67Zm4.22-2.79a1.55,1.55,0,0,1-.1.53,1.19,1.19,0,0,1-.27.44,1.67,1.67,0,0,1-.54.36,2,2,0,0,1-.74.12h-.65V144h-1v-4.07h1.73a2.72,2.72,0,0,1,.65.07,1.54,1.54,0,0,1,.47.2,1.08,1.08,0,0,1,.38.41A1.3,1.3,0,0,1,69.8,141.21Zm-1.09,0a.48.48,0,0,0-.09-.3.51.51,0,0,0-.22-.17,1,1,0,0,0-.32-.07h-.6v1.22h.3a2.45,2.45,0,0,0,.44,0,.62.62,0,0,0,.29-.13.5.5,0,0,0,.15-.21A.84.84,0,0,0,68.72,141.24Z" opacity="0.7"/><path d="M63.6,159H76.4a1.6,1.6,0,0,1,1.6,1.6v4.8a1.6,1.6,0,0,1-1.6,1.6H63.6a1.6,1.6,0,0,1-1.6-1.6v-4.8a1.6,1.6,0,0,1,1.6-1.6" fill="#7f754c"/><path d="M63.6,159.4H76.4a1.2,1.2,0,0,1,1.2,1.2v4.8a1.2,1.2,0,0,1-1.2,1.2H63.6a1.2,1.2,0,0,1-1.2-1.2v-4.8a1.2,1.2,0,0,1,1.2-1.2" fill="#fffff3"/><path d="M63.6,159.8H76.4a.8.8,0,0,1,.8.8v4.8a.8.8,0,0,1-.8.8H63.6a.8.8,0,0,1-.8-.8v-4.8a.8.8,0,0,1,.8-.8" fill="#ffffcd"/><path d="M67.86,163.07h1.32l-.52-.8,1.6,1-1.6,1,.52-.8H67.86v-.4m-2.12.54H67l-.16-1.93Zm-2.48,1.15.34-.35a.69.69,0,0,0,.62.38,1,1,0,0,0,.68-.32,5.38,5.38,0,0,0,.77-1.12l1.07-1.91-.47,0a1.12,1.12,0,0,0-.8.27,1,1,0,0,0-.28.77l-.49.25a1.7,1.7,0,0,1,.27-.8,1.37,1.37,0,0,1,.55-.5,2.79,2.79,0,0,1,.93-.19l.37,0,.5-.1,0,.86.15,1.78a2.51,2.51,0,0,0,.14.82.32.32,0,0,0,.32.2h.29l0,.16-1.14.2L67,163.8H65.63a3.42,3.42,0,0,1-.74,1,1.33,1.33,0,0,1-.83.28A1.12,1.12,0,0,1,63.26,164.76Zm9.32.32H70.2v-.72h.67v-2.63H70.2V161h2.38v.72h-.67v2.63h.67Zm4.22-2.79a1.55,1.55,0,0,1-.1.53,1.19,1.19,0,0,1-.27.44,1.67,1.67,0,0,1-.54.36,2,2,0,0,1-.74.12h-.65v1.33h-1V161h1.73a2.73,2.73,0,0,1,.65.07,1.54,1.54,0,0,1,.47.2,1.08,1.08,0,0,1,.38.41A1.3,1.3,0,0,1,76.8,162.28Zm-1.09,0a.48.48,0,0,0-.09-.3.5.5,0,0,0-.22-.17,1,1,0,0,0-.32-.07h-.6V163h.3a2.45,2.45,0,0,0,.44,0,.63.63,0,0,0,.29-.13.5.5,0,0,0,.15-.21A.84.84,0,0,0,75.71,162.31Z" fill-rule="evenodd" opacity="0.7"/><path d="M78,58a1.81,1.81,0,0,1-1,1.6L64.67,65.78A1.8,1.8,0,0,1,62,64.19V51.83a1.82,1.82,0,0,1,2.65-1.62L77,56.37A1.8,1.8,0,0,1,78,58" fill="#7f754c"/><path d="M63.77,65.46a1.23,1.23,0,0,1-1.23-1.23V51.75a1.23,1.23,0,0,1,1.87-1.06l12.39,6.2a1.23,1.23,0,0,1,0,2.19L64.35,65.32a1.23,1.23,0,0,1-.58.15" fill="#fffff3"/><path d="M76.93,58a.62.62,0,0,1-.36.57L64,64.87l-.28.07a.62.62,0,0,1-.62-.63V51.69a.62.62,0,0,1,.94-.54l12.59,6.3a.62.62,0,0,1,.34.55" fill="#ffffcd"/><polygon points="69.6 57.6 68 57.6 68 56 67.2 56 67.2 57.6 65.6 57.6 65.6 58.4 67.2 58.4 67.2 60 68 60 68 58.4 69.6 58.4 69.6 57.6" opacity="0.7"/><path d="M76.4,71.4a1.18,1.18,0,0,1,1.2,1.18V85.4a1.2,1.2,0,0,1-1.2,1.2H63.63a1.23,1.23,0,0,1-1.23-1.2V72.58a1.21,1.21,0,0,1,1.23-1.18H76.4" fill="#eaeaea"/><path d="M76.4,71.4a1.18,1.18,0,0,1,1.2,1.18V85.4a1.2,1.2,0,0,1-1.2,1.2H63.63a1.23,1.23,0,0,1-1.23-1.2V72.58a1.21,1.21,0,0,1,1.23-1.18H76.4m0-.4H63.63A1.62,1.62,0,0,0,62,72.58V85.4A1.63,1.63,0,0,0,63.63,87H76.4A1.6,1.6,0,0,0,78,85.4V72.58A1.59,1.59,0,0,0,76.4,71Z" fill="#727272"/><path d="M77.2,85.42a.78.78,0,0,1-.8.78H63.6a.78.78,0,0,1-.8-.78V72.6a.8.8,0,0,1,.8-.8H76.4a.8.8,0,0,1,.8.8Z" fill="#eaeaea"/><path d="M74.16,73.2a.28.28,0,0,1,.05.17.5.5,0,0,1,0,.17.3.3,0,0,1-.09.12.37.37,0,0,1-.17.08l-.26,0H73.5V73h.35a.58.58,0,0,1,.19,0A.3.3,0,0,1,74.16,73.2Zm3-.6v3.2H62.8V72.6a.8.8,0,0,1,.8-.8H76.4A.8.8,0,0,1,77.2,72.6Zm-9.43,0h-.62v.88h-.91V72.6h-.62V75h.62V73.94h.91V75h.62Zm2.49,0H68.14v.46h.75V75h.62V73.06h.75Zm2.25,0H70.39v.46h.75V75h.62V73.06h.75Zm2.35.76a.77.77,0,0,0-.08-.36.64.64,0,0,0-.22-.24.91.91,0,0,0-.28-.12,1.61,1.61,0,0,0-.39,0h-1V75h.62v-.78h.39a1.16,1.16,0,0,0,.44-.07,1,1,0,0,0,.32-.21.7.7,0,0,0,.16-.26A.91.91,0,0,0,74.86,73.36Z" fill="#62af35"/><path d="M74.4,85H72.8V83.4Zm-2,.4h2v.4H66V83.4h6.4Zm-.8-1.2H66.8V85h4.8ZM73.2,79H70.8V76.6H69.2V79H66.8v1.6h2.4V83h1.6V80.6h2.4Z" fill="#4d4d4d"/><path d="M78,106.4a1.6,1.6,0,0,1-1.6,1.6H63.6a1.6,1.6,0,0,1-1.6-1.6V93.6A1.6,1.6,0,0,1,63.6,92H76.4A1.6,1.6,0,0,1,78,93.6Z" fill="#727373"/><path d="M77.6,106.4a1.2,1.2,0,0,1-1.2,1.2H63.6a1.2,1.2,0,0,1-1.2-1.2V93.6a1.2,1.2,0,0,1,1.2-1.2H76.4a1.2,1.2,0,0,1,1.2,1.2Z" fill="#fff"/><path d="M77.2,106.4a.8.8,0,0,1-.8.8H63.6a.8.8,0,0,1-.8-.8V93.6a.8.8,0,0,1,.8-.8H76.4a.8.8,0,0,1,.8.8Z" fill="#eff7ec"/><path d="M77.2,93.6V96H62.8V93.6a.8.8,0,0,1,.8-.8H76.4A.8.8,0,0,1,77.2,93.6Zm-9.77,2h.7l.34-1.49a.82.82,0,0,0,0-.11,1,1,0,0,0,0-.1.45.45,0,0,0-.24-.42,1.62,1.62,0,0,0-.76-.13,3.43,3.43,0,0,0-.51,0l-.38.07-.1.52h.06l.32-.1a1.44,1.44,0,0,1,.38-.06,1,1,0,0,1,.38.06.2.2,0,0,1,.13.19.25.25,0,0,1,0,.06v0l-.68.07a2,2,0,0,0-.54.15.84.84,0,0,0-.37.29.77.77,0,0,0-.12.44.51.51,0,0,0,.17.4.65.65,0,0,0,.45.15,1.16,1.16,0,0,0,.27,0l.21-.07.17-.1.16-.1Zm.13-.57a1.08,1.08,0,0,1-.22.12.6.6,0,0,1-.22,0,.51.51,0,0,1-.24,0,.17.17,0,0,1-.08-.16.32.32,0,0,1,.06-.21.4.4,0,0,1,.18-.12,1.38,1.38,0,0,1,.28-.06l.35,0Zm1.63.85.14-1.05H68.9l-.34,1.05Zm.37-1.78H69l-.13.55h.55Zm.29,1.49h.81l.65-.67.35.67h.76l-.63-1.09,1.12-1.1h-.81l-.63.67-.35-.67h-.76L71,94.48Zm3.73-.92.14-1.05h-.44l-.34,1.05ZM74,92.91H73.4l-.13.55h.55Z" fill="#58997f"/><path d="M75.2,101.59a1.17,1.17,0,0,1-.63,1l-8,4a1.17,1.17,0,0,1-1.74-1v-8a1.19,1.19,0,0,1,1.72-1.06l8,4a1.17,1.17,0,0,1,.65,1.05m-4.4-.39H69.2V99.6h-.8v1.6H66.8v.8h1.6v1.6h.8V102h1.6Z" opacity="0.7"/><rect x="59.5" y="69.5" width="197" height="91.15" fill="#fff"/><path d="M256,70v90.15H60V70H256m1-1H59v92.15H257V69Z" fill="#4d5359"/><path d="M78.35,89H76.29l-.6-1.87h-3L72.11,89H70.06l3.06-8.4h2.24Zm-3.09-3.32-.9-2.82a3.68,3.68,0,0,1-.14-.76h0a3.2,3.2,0,0,1-.15.73l-.91,2.85Z" fill="#2b3033"/><path d="M85.09,89H83.24v-.83h0a2.08,2.08,0,0,1-1.86,1,2.27,2.27,0,0,1-1.81-.79,3.29,3.29,0,0,1-.69-2.22,3.58,3.58,0,0,1,.76-2.38,2.47,2.47,0,0,1,2-.9,1.68,1.68,0,0,1,1.62.83h0V80.12h1.85Zm-1.82-2.92v-.45a1.42,1.42,0,0,0-.34-1,1.2,1.2,0,0,0-1.85.1,2.24,2.24,0,0,0-.35,1.33,1.94,1.94,0,0,0,.33,1.22,1.18,1.18,0,0,0,1.84,0A1.88,1.88,0,0,0,83.27,86.08Z" fill="#2b3033"/><path d="M92.52,89H90.67v-.83h0a2.08,2.08,0,0,1-1.86,1A2.27,2.27,0,0,1,87,88.35a3.29,3.29,0,0,1-.69-2.22A3.58,3.58,0,0,1,87,83.75a2.47,2.47,0,0,1,2-.9,1.68,1.68,0,0,1,1.62.83h0V80.12h1.85ZM90.7,86.08v-.45a1.42,1.42,0,0,0-.34-1,1.2,1.2,0,0,0-1.85.1,2.24,2.24,0,0,0-.35,1.33,1.94,1.94,0,0,0,.33,1.22,1.18,1.18,0,0,0,1.84,0A1.88,1.88,0,0,0,90.7,86.08Z" fill="#2b3033"/><path d="M76.82,112.65a4.93,4.93,0,0,1-2.32.49A3.74,3.74,0,0,1,71.63,112a4.26,4.26,0,0,1-1.08-3,4.46,4.46,0,0,1,1.21-3.26,4.12,4.12,0,0,1,3.08-1.24,4.93,4.93,0,0,1,2,.35v1a4,4,0,0,0-2-.5,3.06,3.06,0,0,0-2.35,1,3.64,3.64,0,0,0-.9,2.58,3.46,3.46,0,0,0,.84,2.45,2.86,2.86,0,0,0,2.21.91,4.14,4.14,0,0,0,2.19-.56Z" fill="#2b3033"/><path d="M80.91,113.14a2.79,2.79,0,0,1-2.12-.84,3.11,3.11,0,0,1-.79-2.23,3.24,3.24,0,0,1,.83-2.36,3,3,0,0,1,2.23-.85,2.69,2.69,0,0,1,2.09.83A3.28,3.28,0,0,1,83.9,110a3.22,3.22,0,0,1-.81,2.3A2.84,2.84,0,0,1,80.91,113.14Zm.07-5.47a1.83,1.83,0,0,0-1.46.63A2.59,2.59,0,0,0,79,110a2.45,2.45,0,0,0,.54,1.68,1.85,1.85,0,0,0,1.46.62,1.75,1.75,0,0,0,1.43-.6,2.62,2.62,0,0,0,.5-1.72,2.66,2.66,0,0,0-.5-1.73A1.75,1.75,0,0,0,81,107.67Z" fill="#2b3033"/><path d="M94,113H93v-3.45a2.6,2.6,0,0,0-.31-1.44,1.16,1.16,0,0,0-1-.45,1.28,1.28,0,0,0-1,.56,2.15,2.15,0,0,0-.43,1.35V113h-1v-3.56q0-1.77-1.37-1.77a1.26,1.26,0,0,0-1,.53,2.19,2.19,0,0,0-.41,1.38V113h-1v-6h1v.95h0a2,2,0,0,1,1.86-1.09A1.73,1.73,0,0,1,90,108.1a2.14,2.14,0,0,1,2-1.24q2,0,2,2.44Z" fill="#2b3033"/><path d="M96.75,112.13h0v3.63h-1V107h1v1.05h0a2.27,2.27,0,0,1,2.07-1.2,2.2,2.2,0,0,1,1.81.81,3.34,3.34,0,0,1,.65,2.16,3.72,3.72,0,0,1-.73,2.41,2.44,2.44,0,0,1-2,.91A2,2,0,0,1,96.75,112.13Zm0-2.42v.84a1.78,1.78,0,0,0,.48,1.26,1.72,1.72,0,0,0,2.6-.15,3.06,3.06,0,0,0,.5-1.86,2.42,2.42,0,0,0-.46-1.57,1.53,1.53,0,0,0-1.25-.57,1.7,1.7,0,0,0-1.35.58A2.14,2.14,0,0,0,96.73,109.71Z" fill="#2b3033"/><path d="M107.68,113h-1v-.95h0a2,2,0,0,1-1.85,1.09q-2.14,0-2.14-2.55V107h1v3.43q0,1.9,1.45,1.9a1.47,1.47,0,0,0,1.16-.52,2,2,0,0,0,.46-1.36V107h1Z" fill="#2b3033"/><path d="M112.4,112.94a1.85,1.85,0,0,1-.9.19q-1.58,0-1.58-1.76v-3.55h-1V107h1v-1.46l1-.31V107h1.51v.82h-1.51v3.38a1.4,1.4,0,0,0,.21.86.82.82,0,0,0,.68.26,1,1,0,0,0,.63-.2Z" fill="#2b3033"/><path d="M118.41,110.24h-4.24a2.24,2.24,0,0,0,.54,1.55,1.86,1.86,0,0,0,1.42.54,3,3,0,0,0,1.86-.67v.9a3.48,3.48,0,0,1-2.09.57,2.54,2.54,0,0,1-2-.82,3.35,3.35,0,0,1-.73-2.3,3.28,3.28,0,0,1,.79-2.28,2.55,2.55,0,0,1,2-.88,2.26,2.26,0,0,1,1.82.76,3.18,3.18,0,0,1,.64,2.12Zm-1-.81a2,2,0,0,0-.4-1.29,1.37,1.37,0,0,0-1.1-.46,1.55,1.55,0,0,0-1.15.49,2.21,2.21,0,0,0-.59,1.27Z" fill="#2b3033"/><path d="M119.5,112.78v-1a2.84,2.84,0,0,0,1.73.58q1.27,0,1.27-.84a.73.73,0,0,0-.11-.41,1.08,1.08,0,0,0-.29-.3,2.26,2.26,0,0,0-.43-.23l-.54-.21a6.93,6.93,0,0,1-.7-.32,2.12,2.12,0,0,1-.5-.36,1.35,1.35,0,0,1-.3-.46,1.63,1.63,0,0,1-.1-.6,1.43,1.43,0,0,1,.19-.75,1.71,1.71,0,0,1,.52-.54A2.4,2.4,0,0,1,121,107a3.27,3.27,0,0,1,.85-.11,3.44,3.44,0,0,1,1.39.27v1a2.72,2.72,0,0,0-1.52-.43,1.78,1.78,0,0,0-.49.06,1.2,1.2,0,0,0-.37.17.8.8,0,0,0-.24.27.7.7,0,0,0-.08.34.82.82,0,0,0,.08.39.87.87,0,0,0,.25.28,1.9,1.9,0,0,0,.4.22l.53.22a7.42,7.42,0,0,1,.71.31,2.45,2.45,0,0,1,.54.36,1.42,1.42,0,0,1,.34.47,1.5,1.5,0,0,1,.12.63,1.48,1.48,0,0,1-.2.77,1.68,1.68,0,0,1-.52.54,2.4,2.4,0,0,1-.76.32,3.73,3.73,0,0,1-.9.11A3.4,3.4,0,0,1,119.5,112.78Z" fill="#2b3033"/><path d="M131,112.94a1.85,1.85,0,0,1-.9.19q-1.58,0-1.58-1.76v-3.55h-1V107h1v-1.46l1-.31V107H131v.82h-1.51v3.38a1.4,1.4,0,0,0,.21.86.82.82,0,0,0,.68.26,1,1,0,0,0,.63-.2Z" fill="#2b3033"/><path d="M137.29,113h-1v-3.46q0-1.87-1.39-1.87a1.52,1.52,0,0,0-1.18.54,2,2,0,0,0-.48,1.39V113h-1v-8.88h1V108h0a2.18,2.18,0,0,1,2-1.14q2,0,2,2.44Z" fill="#2b3033"/><path d="M143.92,110.24h-4.24a2.24,2.24,0,0,0,.54,1.55,1.86,1.86,0,0,0,1.42.54,3,3,0,0,0,1.86-.67v.9a3.48,3.48,0,0,1-2.09.57,2.54,2.54,0,0,1-2-.82,3.35,3.35,0,0,1-.73-2.3,3.28,3.28,0,0,1,.79-2.28,2.55,2.55,0,0,1,2-.88,2.26,2.26,0,0,1,1.82.76,3.18,3.18,0,0,1,.64,2.12Zm-1-.81a2,2,0,0,0-.4-1.29,1.37,1.37,0,0,0-1.1-.46,1.55,1.55,0,0,0-1.15.49,2.21,2.21,0,0,0-.59,1.27Z" fill="#2b3033"/><path d="M148.3,112.78v-1a2.84,2.84,0,0,0,1.73.58q1.27,0,1.27-.84a.73.73,0,0,0-.11-.41,1.08,1.08,0,0,0-.29-.3,2.26,2.26,0,0,0-.43-.23l-.54-.21a6.93,6.93,0,0,1-.7-.32,2.12,2.12,0,0,1-.5-.36,1.35,1.35,0,0,1-.3-.46,1.63,1.63,0,0,1-.1-.6,1.43,1.43,0,0,1,.19-.75,1.71,1.71,0,0,1,.52-.54,2.4,2.4,0,0,1,.73-.33,3.27,3.27,0,0,1,.85-.11,3.44,3.44,0,0,1,1.39.27v1a2.72,2.72,0,0,0-1.52-.43,1.78,1.78,0,0,0-.49.06,1.2,1.2,0,0,0-.37.17.8.8,0,0,0-.24.27.7.7,0,0,0-.08.34.82.82,0,0,0,.08.39.87.87,0,0,0,.25.28,1.9,1.9,0,0,0,.4.22l.53.22a7.42,7.42,0,0,1,.71.31,2.45,2.45,0,0,1,.54.36,1.42,1.42,0,0,1,.34.47,1.5,1.5,0,0,1,.12.63,1.48,1.48,0,0,1-.2.77,1.68,1.68,0,0,1-.52.54,2.4,2.4,0,0,1-.76.32,3.73,3.73,0,0,1-.9.11A3.4,3.4,0,0,1,148.3,112.78Z" fill="#2b3033"/><path d="M158.61,113h-1v-.95h0a2,2,0,0,1-1.85,1.09q-2.14,0-2.14-2.55V107h1v3.43q0,1.9,1.45,1.9a1.47,1.47,0,0,0,1.16-.52,2,2,0,0,0,.46-1.36V107h1Z" fill="#2b3033"/><path d="M169.06,113h-1v-3.45a2.6,2.6,0,0,0-.31-1.44,1.16,1.16,0,0,0-1-.45,1.28,1.28,0,0,0-1,.56,2.15,2.15,0,0,0-.43,1.35V113h-1v-3.56q0-1.77-1.37-1.77a1.26,1.26,0,0,0-1,.53,2.19,2.19,0,0,0-.41,1.38V113h-1v-6h1v.95h0a2,2,0,0,1,1.86-1.09,1.73,1.73,0,0,1,1.7,1.24,2.14,2.14,0,0,1,2-1.24q2,0,2,2.44Z" fill="#2b3033"/><path d="M176.68,113.14a2.79,2.79,0,0,1-2.12-.84,3.11,3.11,0,0,1-.79-2.23,3.24,3.24,0,0,1,.83-2.36,3,3,0,0,1,2.23-.85,2.69,2.69,0,0,1,2.09.83,3.28,3.28,0,0,1,.75,2.29,3.22,3.22,0,0,1-.81,2.3A2.84,2.84,0,0,1,176.68,113.14Zm.07-5.47a1.83,1.83,0,0,0-1.46.63,2.59,2.59,0,0,0-.54,1.74,2.45,2.45,0,0,0,.54,1.68,1.85,1.85,0,0,0,1.46.62,1.75,1.75,0,0,0,1.43-.6,2.62,2.62,0,0,0,.5-1.72,2.66,2.66,0,0,0-.5-1.73A1.75,1.75,0,0,0,176.75,107.67Z" fill="#2b3033"/><path d="M183.95,105a1.28,1.28,0,0,0-.64-.16q-1,0-1,1.27V107h1.41v.82H182.3V113h-1v-5.18h-1V107h1v-1a2,2,0,0,1,.54-1.49,1.84,1.84,0,0,1,1.36-.55,1.88,1.88,0,0,1,.7.11Z" fill="#2b3033"/><path d="M190.81,112.94a1.85,1.85,0,0,1-.9.19q-1.58,0-1.58-1.76v-3.55h-1V107h1v-1.46l1-.31V107h1.51v.82H189.3v3.38a1.4,1.4,0,0,0,.21.86.82.82,0,0,0,.68.26,1,1,0,0,0,.63-.2Z" fill="#2b3033"/><path d="M197.07,113h-1v-3.46q0-1.87-1.39-1.87a1.52,1.52,0,0,0-1.18.54,2,2,0,0,0-.48,1.39V113h-1v-8.88h1V108h0a2.18,2.18,0,0,1,2-1.14q2,0,2,2.44Z" fill="#2b3033"/><path d="M203.71,110.24h-4.24a2.24,2.24,0,0,0,.54,1.55,1.86,1.86,0,0,0,1.42.54,3,3,0,0,0,1.86-.67v.9a3.48,3.48,0,0,1-2.09.57,2.54,2.54,0,0,1-2-.82,3.35,3.35,0,0,1-.73-2.3,3.28,3.28,0,0,1,.79-2.28,2.55,2.55,0,0,1,2-.88,2.26,2.26,0,0,1,1.82.76,3.18,3.18,0,0,1,.64,2.12Zm-1-.81a2,2,0,0,0-.4-1.29,1.37,1.37,0,0,0-1.1-.46,1.55,1.55,0,0,0-1.15.49,2.21,2.21,0,0,0-.59,1.27Z" fill="#2b3033"/><path d="M208.94,105.48a.61.61,0,0,1-.44-.18.59.59,0,0,1-.18-.45.62.62,0,0,1,.62-.63.62.62,0,0,1,.45.18.62.62,0,0,1,0,.89A.61.61,0,0,1,208.94,105.48Zm.47,7.52h-1v-6h1Z" fill="#2b3033"/><path d="M216.33,113h-1v-3.42q0-1.91-1.39-1.91a1.51,1.51,0,0,0-1.19.54,2,2,0,0,0-.47,1.37V113h-1v-6h1v1h0a2.17,2.17,0,0,1,2-1.14,1.84,1.84,0,0,1,1.51.64,2.83,2.83,0,0,1,.52,1.84Z" fill="#2b3033"/><path d="M219.13,112.13h0v3.63h-1V107h1v1.05h0a2.27,2.27,0,0,1,2.07-1.2,2.2,2.2,0,0,1,1.81.81,3.34,3.34,0,0,1,.65,2.16,3.72,3.72,0,0,1-.73,2.41,2.44,2.44,0,0,1-2,.91A2,2,0,0,1,219.13,112.13Zm0-2.42v.84a1.78,1.78,0,0,0,.48,1.26,1.72,1.72,0,0,0,2.6-.15,3.06,3.06,0,0,0,.5-1.86,2.42,2.42,0,0,0-.46-1.57,1.53,1.53,0,0,0-1.25-.57,1.7,1.7,0,0,0-1.35.58A2.14,2.14,0,0,0,219.1,109.71Z" fill="#2b3033"/><path d="M230,113h-1v-.95h0a2,2,0,0,1-1.85,1.09q-2.14,0-2.14-2.55V107h1v3.43q0,1.9,1.45,1.9a1.47,1.47,0,0,0,1.16-.52,2,2,0,0,0,.46-1.36V107h1Z" fill="#2b3033"/><path d="M234.77,112.94a1.85,1.85,0,0,1-.9.19q-1.58,0-1.58-1.76v-3.55h-1V107h1v-1.46l1-.31V107h1.51v.82h-1.51v3.38a1.4,1.4,0,0,0,.21.86.82.82,0,0,0,.68.26,1,1,0,0,0,.63-.2Z" fill="#2b3033"/><path d="M235.69,112.78v-1a2.84,2.84,0,0,0,1.73.58q1.27,0,1.27-.84a.73.73,0,0,0-.11-.41,1.08,1.08,0,0,0-.29-.3,2.26,2.26,0,0,0-.43-.23l-.54-.21a6.93,6.93,0,0,1-.7-.32,2.12,2.12,0,0,1-.5-.36,1.35,1.35,0,0,1-.3-.46,1.63,1.63,0,0,1-.1-.6,1.43,1.43,0,0,1,.19-.75,1.71,1.71,0,0,1,.52-.54,2.4,2.4,0,0,1,.73-.33,3.27,3.27,0,0,1,.85-.11,3.44,3.44,0,0,1,1.39.27v1a2.72,2.72,0,0,0-1.52-.43,1.78,1.78,0,0,0-.49.06,1.2,1.2,0,0,0-.37.17.8.8,0,0,0-.24.27.7.7,0,0,0-.08.34.82.82,0,0,0,.08.39.87.87,0,0,0,.25.28,1.9,1.9,0,0,0,.4.22l.53.22a7.42,7.42,0,0,1,.71.31,2.45,2.45,0,0,1,.54.36,1.42,1.42,0,0,1,.34.47,1.5,1.5,0,0,1,.12.63,1.48,1.48,0,0,1-.2.77,1.68,1.68,0,0,1-.52.54,2.4,2.4,0,0,1-.76.32,3.73,3.73,0,0,1-.9.11A3.4,3.4,0,0,1,235.69,112.78Z" fill="#2b3033"/><path d="M241.48,113.13a.62.62,0,0,1-.46-.19.64.64,0,0,1-.19-.46A.65.65,0,0,1,241,112a.62.62,0,0,1,.46-.2.63.63,0,0,1,.47.2.64.64,0,0,1,.19.47.63.63,0,0,1-.19.46A.64.64,0,0,1,241.48,113.13Z" fill="#2b3033"/><rect x="60" y="131.21" width="196" height="29" fill="#ebebeb"/><path d="M72.09,147v3.18h-1v-8.4h2.31a3,3,0,0,1,2.09.66,2.34,2.34,0,0,1,.74,1.85,2.55,2.55,0,0,1-.82,2,3.14,3.14,0,0,1-2.22.76Zm0-4.34v3.45h1a2.3,2.3,0,0,0,1.55-.47,1.65,1.65,0,0,0,.54-1.32q0-1.66-2-1.66Z" fill="#2b3033"/><path d="M80.82,145.19a1.18,1.18,0,0,0-.73-.19,1.23,1.23,0,0,0-1,.58,2.68,2.68,0,0,0-.41,1.58v3.06h-1v-6h1v1.24h0a2.1,2.1,0,0,1,.63-1,1.43,1.43,0,0,1,.94-.35,1.57,1.57,0,0,1,.57.08Z" fill="#2b3033"/><path d="M86.53,147.45H82.29a2.24,2.24,0,0,0,.54,1.55,1.86,1.86,0,0,0,1.42.54,3,3,0,0,0,1.86-.67v.9a3.48,3.48,0,0,1-2.09.57,2.54,2.54,0,0,1-2-.82,3.35,3.35,0,0,1-.73-2.3,3.28,3.28,0,0,1,.79-2.28,2.55,2.55,0,0,1,2-.88,2.26,2.26,0,0,1,1.82.76,3.18,3.18,0,0,1,.64,2.12Zm-1-.81a2,2,0,0,0-.4-1.29,1.37,1.37,0,0,0-1.1-.46,1.55,1.55,0,0,0-1.15.49,2.21,2.21,0,0,0-.59,1.27Z" fill="#2b3033"/><path d="M87.62,150v-1a2.84,2.84,0,0,0,1.73.58q1.27,0,1.27-.84a.73.73,0,0,0-.11-.41,1.08,1.08,0,0,0-.29-.3,2.26,2.26,0,0,0-.43-.23l-.54-.21a6.93,6.93,0,0,1-.7-.32,2.12,2.12,0,0,1-.5-.36,1.35,1.35,0,0,1-.3-.46,1.63,1.63,0,0,1-.1-.6,1.43,1.43,0,0,1,.19-.75,1.71,1.71,0,0,1,.52-.54,2.4,2.4,0,0,1,.73-.33,3.27,3.27,0,0,1,.85-.11,3.44,3.44,0,0,1,1.39.27v1a2.72,2.72,0,0,0-1.52-.43,1.78,1.78,0,0,0-.49.06,1.2,1.2,0,0,0-.37.17.8.8,0,0,0-.24.27.7.7,0,0,0-.08.34.82.82,0,0,0,.08.39.87.87,0,0,0,.25.28,1.9,1.9,0,0,0,.4.22l.53.22a7.42,7.42,0,0,1,.71.31,2.45,2.45,0,0,1,.54.36,1.42,1.42,0,0,1,.34.47,1.5,1.5,0,0,1,.12.63,1.48,1.48,0,0,1-.2.77,1.68,1.68,0,0,1-.52.54,2.4,2.4,0,0,1-.76.32,3.73,3.73,0,0,1-.9.11A3.4,3.4,0,0,1,87.62,150Z" fill="#2b3033"/><path d="M92.71,150v-1a2.84,2.84,0,0,0,1.73.58q1.27,0,1.27-.84a.73.73,0,0,0-.11-.41,1.08,1.08,0,0,0-.29-.3,2.26,2.26,0,0,0-.43-.23l-.54-.21a6.93,6.93,0,0,1-.7-.32,2.12,2.12,0,0,1-.5-.36,1.35,1.35,0,0,1-.3-.46,1.63,1.63,0,0,1-.1-.6,1.43,1.43,0,0,1,.19-.75,1.71,1.71,0,0,1,.52-.54,2.4,2.4,0,0,1,.73-.33,3.27,3.27,0,0,1,.85-.11,3.44,3.44,0,0,1,1.39.27v1a2.72,2.72,0,0,0-1.52-.43,1.78,1.78,0,0,0-.49.06,1.2,1.2,0,0,0-.37.17.8.8,0,0,0-.24.27.7.7,0,0,0-.08.34.82.82,0,0,0,.08.39.87.87,0,0,0,.25.28,1.9,1.9,0,0,0,.4.22l.53.22a7.42,7.42,0,0,1,.71.31,2.45,2.45,0,0,1,.54.36,1.42,1.42,0,0,1,.34.47,1.5,1.5,0,0,1,.12.63,1.48,1.48,0,0,1-.2.77,1.68,1.68,0,0,1-.52.54,2.4,2.4,0,0,1-.76.32,3.73,3.73,0,0,1-.9.11A3.4,3.4,0,0,1,92.71,150Z" fill="#2b3033"/><path d="M105.85,142.7h-3.28v2.91h3v.88h-3v3.72h-1v-8.4h4.27Z" fill="#2b3033"/><path d="M110.58,150.21h-1V143a2.24,2.24,0,0,1-.33.25,5.3,5.3,0,0,1-.48.28q-.27.14-.56.26a4.08,4.08,0,0,1-.58.19v-1a5.58,5.58,0,0,0,.67-.24q.35-.15.7-.33c.23-.12.45-.25.65-.39a5.14,5.14,0,0,0,.53-.4h.36Z" fill="#2b3033"/><path d="M120,142.17a1.28,1.28,0,0,0-.64-.16q-1,0-1,1.27v.93h1.41V145h-1.41v5.18h-1V145h-1v-.82h1v-1a2,2,0,0,1,.54-1.49,1.84,1.84,0,0,1,1.36-.55,1.88,1.88,0,0,1,.7.11Z" fill="#2b3033"/><path d="M123.33,150.35a2.79,2.79,0,0,1-2.12-.84,3.11,3.11,0,0,1-.79-2.23,3.24,3.24,0,0,1,.83-2.36,3,3,0,0,1,2.23-.85,2.69,2.69,0,0,1,2.09.83,3.28,3.28,0,0,1,.75,2.29,3.22,3.22,0,0,1-.81,2.3A2.84,2.84,0,0,1,123.33,150.35Zm.07-5.47a1.83,1.83,0,0,0-1.46.63,2.59,2.59,0,0,0-.54,1.74,2.45,2.45,0,0,0,.54,1.68,1.85,1.85,0,0,0,1.46.62,1.75,1.75,0,0,0,1.43-.6,2.62,2.62,0,0,0,.5-1.72,2.66,2.66,0,0,0-.5-1.73A1.75,1.75,0,0,0,123.4,144.88Z" fill="#2b3033"/><path d="M131,145.19a1.18,1.18,0,0,0-.73-.19,1.23,1.23,0,0,0-1,.58,2.68,2.68,0,0,0-.41,1.58v3.06h-1v-6h1v1.24h0a2.1,2.1,0,0,1,.63-1,1.43,1.43,0,0,1,.94-.35,1.57,1.57,0,0,1,.57.08Z" fill="#2b3033"/><path d="M143.83,150.21h-1v-3.45a2.6,2.6,0,0,0-.31-1.44,1.16,1.16,0,0,0-1-.45,1.28,1.28,0,0,0-1,.56,2.15,2.15,0,0,0-.43,1.35v3.42h-1v-3.56q0-1.77-1.37-1.77a1.26,1.26,0,0,0-1,.53,2.19,2.19,0,0,0-.41,1.38v3.42h-1v-6h1v.95h0a2,2,0,0,1,1.86-1.09,1.73,1.73,0,0,1,1.7,1.24,2.14,2.14,0,0,1,2-1.24q2,0,2,2.44Z" fill="#2b3033"/><path d="M148.16,150.35a2.79,2.79,0,0,1-2.12-.84,3.11,3.11,0,0,1-.79-2.23,3.24,3.24,0,0,1,.83-2.36,3,3,0,0,1,2.23-.85,2.69,2.69,0,0,1,2.09.83,3.28,3.28,0,0,1,.75,2.29,3.22,3.22,0,0,1-.81,2.3A2.84,2.84,0,0,1,148.16,150.35Zm.07-5.47a1.83,1.83,0,0,0-1.46.63,2.59,2.59,0,0,0-.54,1.74,2.45,2.45,0,0,0,.54,1.68,1.85,1.85,0,0,0,1.46.62,1.75,1.75,0,0,0,1.43-.6,2.62,2.62,0,0,0,.5-1.72,2.66,2.66,0,0,0-.5-1.73A1.75,1.75,0,0,0,148.23,144.88Z" fill="#2b3033"/><path d="M155.81,145.19a1.18,1.18,0,0,0-.73-.19,1.23,1.23,0,0,0-1,.58,2.68,2.68,0,0,0-.41,1.58v3.06h-1v-6h1v1.24h0a2.1,2.1,0,0,1,.63-1,1.43,1.43,0,0,1,.94-.35,1.57,1.57,0,0,1,.57.08Z" fill="#2b3033"/><path d="M161.52,147.45h-4.24a2.24,2.24,0,0,0,.54,1.55,1.86,1.86,0,0,0,1.42.54,3,3,0,0,0,1.86-.67v.9a3.48,3.48,0,0,1-2.09.57,2.54,2.54,0,0,1-2-.82,3.35,3.35,0,0,1-.73-2.3,3.28,3.28,0,0,1,.79-2.28,2.55,2.55,0,0,1,2-.88,2.26,2.26,0,0,1,1.82.76,3.18,3.18,0,0,1,.64,2.12Zm-1-.81a2,2,0,0,0-.4-1.29,1.37,1.37,0,0,0-1.1-.46,1.55,1.55,0,0,0-1.15.49,2.21,2.21,0,0,0-.59,1.27Z" fill="#2b3033"/><path d="M171.24,150.21h-1v-3.46q0-1.87-1.39-1.87a1.52,1.52,0,0,0-1.18.54,2,2,0,0,0-.48,1.39v3.4h-1v-8.88h1v3.88h0a2.18,2.18,0,0,1,2-1.14q2,0,2,2.44Z" fill="#2b3033"/><path d="M177.87,147.45h-4.24a2.24,2.24,0,0,0,.54,1.55,1.86,1.86,0,0,0,1.42.54,3,3,0,0,0,1.86-.67v.9a3.48,3.48,0,0,1-2.09.57,2.54,2.54,0,0,1-2-.82,3.35,3.35,0,0,1-.73-2.3,3.28,3.28,0,0,1,.79-2.28,2.55,2.55,0,0,1,2-.88,2.26,2.26,0,0,1,1.82.76,3.18,3.18,0,0,1,.64,2.12Zm-1-.81a2,2,0,0,0-.4-1.29,1.37,1.37,0,0,0-1.1-.46,1.55,1.55,0,0,0-1.15.49,2.21,2.21,0,0,0-.59,1.27Z" fill="#2b3033"/><path d="M180.29,150.21h-1v-8.88h1Z" fill="#2b3033"/><path d="M183.21,149.35h0V153h-1v-8.76h1v1.05h0a2.27,2.27,0,0,1,2.07-1.2,2.2,2.2,0,0,1,1.81.81,3.34,3.34,0,0,1,.65,2.16,3.72,3.72,0,0,1-.73,2.41,2.44,2.44,0,0,1-2,.91A2,2,0,0,1,183.21,149.35Zm0-2.42v.84a1.78,1.78,0,0,0,.48,1.26,1.72,1.72,0,0,0,2.6-.15,3.06,3.06,0,0,0,.5-1.86,2.42,2.42,0,0,0-.46-1.57,1.53,1.53,0,0,0-1.25-.57,1.7,1.7,0,0,0-1.35.58A2.14,2.14,0,0,0,183.19,146.93Z" fill="#2b3033"/><use width="12" height="20.32" transform="translate(96 60)" xlink:href="#cursor"/></g><g clip-path="url(#clip-path-2)"><path d="M427,271.24c-2,0-2.64,2.25-4.26,3.82a39.16,39.16,0,0,1-4.84,4.24,7.54,7.54,0,0,1-9.68,0,40.67,40.67,0,0,1-4.84-4.24,39.28,39.28,0,0,0-4.84-4.25,7.55,7.55,0,0,0-9.67,0,40,40,0,0,0-4.85,4.24,39.16,39.16,0,0,1-4.84,4.24,7.54,7.54,0,0,1-9.68,0,39.84,39.84,0,0,1-4.83-4.24,41.72,41.72,0,0,0-4.84-4.25,7.57,7.57,0,0,0-9.68,0,39.16,39.16,0,0,0-4.84,4.24,40.67,40.67,0,0,1-4.84,4.24,7.54,7.54,0,0,1-9.68,0A39.16,39.16,0,0,1,326,275a41.72,41.72,0,0,0-4.84-4.25,7.57,7.57,0,0,0-9.68,0,39.9,39.9,0,0,0-4.84,4.24,40.67,40.67,0,0,1-4.84,4.24,7.53,7.53,0,0,1-9.68,0,39.16,39.16,0,0,1-4.84-4.24,40.91,40.91,0,0,0-4.84-4.25,7.57,7.57,0,0,0-9.68,0,39.9,39.9,0,0,0-4.84,4.24,39.9,39.9,0,0,1-4.84,4.24,7.53,7.53,0,0,1-9.68,0,39.9,39.9,0,0,1-4.84-4.24,40.13,40.13,0,0,0-4.84-4.25,7.57,7.57,0,0,0-9.68,0,40.67,40.67,0,0,0-4.84,4.24,40.91,40.91,0,0,1-4.84,4.25,7.55,7.55,0,0,1-9.68,0,40.67,40.67,0,0,1-4.84-4.24,39.16,39.16,0,0,0-4.84-4.24,8.55,8.55,0,0,0-4.84-1.76,8.66,8.66,0,0,0-4.84,1.75,40.67,40.67,0,0,0-4.84,4.24,39.28,39.28,0,0,1-4.84,4.25,7.55,7.55,0,0,1-9.68,0,40.67,40.67,0,0,1-4.84-4.24,39.16,39.16,0,0,0-4.84-4.24,7.54,7.54,0,0,0-9.68,0,40.67,40.67,0,0,0-4.84,4.24,39.16,39.16,0,0,1-4.84,4.24,7.53,7.53,0,0,1-9.68,0,39.9,39.9,0,0,1-4.84-4.24,39.9,39.9,0,0,0-4.84-4.24,7.54,7.54,0,0,0-9.68,0A40.67,40.67,0,0,0,113,275a39.16,39.16,0,0,1-4.84,4.24,7.53,7.53,0,0,1-9.68,0A40.67,40.67,0,0,1,93.63,275a39.16,39.16,0,0,0-4.84-4.24,7.54,7.54,0,0,0-9.68,0A40.67,40.67,0,0,0,74.27,275a39.16,39.16,0,0,1-4.84,4.24A8.62,8.62,0,0,1,64.59,281a8.67,8.67,0,0,1-4.84-1.76A39.84,39.84,0,0,1,54.92,275a40.67,40.67,0,0,0-4.84-4.24A8.67,8.67,0,0,0,45.24,269a8.62,8.62,0,0,0-4.84,1.76A39.16,39.16,0,0,0,35.56,275a40.67,40.67,0,0,1-4.84,4.24A8.67,8.67,0,0,1,25.88,281,8.62,8.62,0,0,1,21,279.24,39.16,39.16,0,0,1,16.2,275a40.67,40.67,0,0,0-4.84-4.24A8.67,8.67,0,0,0,6.52,269a8.62,8.62,0,0,0-4.84,1.76A39.16,39.16,0,0,0-3.16,275,40.67,40.67,0,0,1-8,279.24,8.67,8.67,0,0,1-12.84,281a8.62,8.62,0,0,1-4.84-1.76A39.9,39.9,0,0,1-22.52,275a39.9,39.9,0,0,0-4.84-4.24A8.65,8.65,0,0,0-32.2,269,8.65,8.65,0,0,0-37,270.76,39.9,39.9,0,0,0-41.88,275a39.9,39.9,0,0,1-4.84,4.24A8.65,8.65,0,0,1-51.56,281a8.65,8.65,0,0,1-4.84-1.76A39.9,39.9,0,0,1-61.24,275a39.9,39.9,0,0,0-4.84-4.24A8.65,8.65,0,0,0-70.92,269a8.65,8.65,0,0,0-4.84,1.76A39.9,39.9,0,0,0-80.6,275a39.9,39.9,0,0,1-4.84,4.24A8.65,8.65,0,0,1-90.28,281a8.67,8.67,0,0,1-4.84-1.76A40.67,40.67,0,0,1-100,275a39.16,39.16,0,0,0-4.84-4.24,8.62,8.62,0,0,0-4.84-1.76,8.67,8.67,0,0,0-4.84,1.76,40.67,40.67,0,0,0-4.84,4.24c-1.61,1.57-2.88,4.24-4.84,4.24" fill="none" stroke="#adaead" stroke-miterlimit="10"/></g></svg>