<svg id="Layer_1" data-name="Layer 1" xmlns="http://www.w3.org/2000/svg" xmlns:xlink="http://www.w3.org/1999/xlink" width="499" height="107" viewBox="0 0 499 107"><defs><clipPath id="clip-path"><path d="M556,.57V121H-25L-24.8.5A8.65,8.65,0,0,1-20,2.26,39.9,39.9,0,0,1-15.12,6.5a39.28,39.28,0,0,0,4.84,4.25A8.6,8.6,0,0,0-5.44,12.5,8.58,8.58,0,0,0-.6,10.75,40.67,40.67,0,0,0,4.24,6.51,39.16,39.16,0,0,1,9.08,2.27,8.65,8.65,0,0,1,13.92.51a8.67,8.67,0,0,1,4.84,1.76A40.67,40.67,0,0,1,23.6,6.51a39.28,39.28,0,0,0,4.84,4.25,8.6,8.6,0,0,0,4.83,1.75,8.53,8.53,0,0,0,4.84-1.75A40,40,0,0,0,43,6.52,39.16,39.16,0,0,1,47.8,2.28,8.62,8.62,0,0,1,52.64.52a8.67,8.67,0,0,1,4.84,1.76,39.84,39.84,0,0,1,4.83,4.24,41.72,41.72,0,0,0,4.84,4.25A8.66,8.66,0,0,0,72,12.52a8.6,8.6,0,0,0,4.84-1.75,39.16,39.16,0,0,0,4.84-4.24,40.67,40.67,0,0,1,4.84-4.24,7.54,7.54,0,0,1,9.68,0A39.16,39.16,0,0,1,101,6.53a41.72,41.72,0,0,0,4.84,4.25,7.57,7.57,0,0,0,9.68,0,39.9,39.9,0,0,0,4.84-4.24,40.67,40.67,0,0,1,4.84-4.24,7.54,7.54,0,0,1,9.68,0,39.16,39.16,0,0,1,4.84,4.24,40.91,40.91,0,0,0,4.84,4.25,7.57,7.57,0,0,0,9.68,0,39.9,39.9,0,0,0,4.84-4.24A39.9,39.9,0,0,1,164,2.31a7.54,7.54,0,0,1,9.68,0,39.9,39.9,0,0,1,4.84,4.24,40.13,40.13,0,0,0,4.84,4.25,8.6,8.6,0,0,0,4.84,1.75A8.66,8.66,0,0,0,193,10.8a40.67,40.67,0,0,0,4.84-4.24,40.91,40.91,0,0,1,4.84-4.25,7.55,7.55,0,0,1,9.68,0,40.67,40.67,0,0,1,4.84,4.24A39.16,39.16,0,0,0,222,10.8a8.55,8.55,0,0,0,4.84,1.76,8.66,8.66,0,0,0,4.84-1.75,40.67,40.67,0,0,0,4.84-4.24,39.28,39.28,0,0,1,4.84-4.25,7.55,7.55,0,0,1,9.68,0,40.67,40.67,0,0,1,4.84,4.24,39.16,39.16,0,0,0,4.84,4.24,8.62,8.62,0,0,0,4.84,1.76,8.67,8.67,0,0,0,4.84-1.76,40.67,40.67,0,0,0,4.84-4.24,39.16,39.16,0,0,1,4.84-4.24,7.53,7.53,0,0,1,9.68,0,39.9,39.9,0,0,1,4.84,4.24,39.9,39.9,0,0,0,4.84,4.24,8.62,8.62,0,0,0,4.84,1.76,8.67,8.67,0,0,0,4.84-1.76A40.67,40.67,0,0,0,314,6.57a39.16,39.16,0,0,1,4.84-4.24,7.54,7.54,0,0,1,9.68,0,40.67,40.67,0,0,1,4.84,4.24,39.16,39.16,0,0,0,4.84,4.24A8.62,8.62,0,0,0,343,12.57a8.67,8.67,0,0,0,4.84-1.76,40.67,40.67,0,0,0,4.84-4.24,39.16,39.16,0,0,1,4.84-4.24,7.53,7.53,0,0,1,9.68,0,39.84,39.84,0,0,1,4.83,4.24,40.67,40.67,0,0,0,4.84,4.24,8.67,8.67,0,0,0,4.84,1.76,8.62,8.62,0,0,0,4.84-1.76,39.16,39.16,0,0,0,4.84-4.24,40.67,40.67,0,0,1,4.84-4.24,7.54,7.54,0,0,1,9.68,0,39.16,39.16,0,0,1,4.84,4.24,40.67,40.67,0,0,0,4.84,4.24,8.67,8.67,0,0,0,4.84,1.76,8.62,8.62,0,0,0,4.84-1.76,39.16,39.16,0,0,0,4.84-4.24A40.67,40.67,0,0,1,435,2.33a7.53,7.53,0,0,1,9.68,0,39.9,39.9,0,0,1,4.84,4.24,39.9,39.9,0,0,0,4.84,4.24,7.54,7.54,0,0,0,9.68,0,39.9,39.9,0,0,0,4.84-4.24,39.9,39.9,0,0,1,4.84-4.24,7.54,7.54,0,0,1,9.68,0,39.9,39.9,0,0,1,4.84,4.24,39.9,39.9,0,0,0,4.84,4.24,7.53,7.53,0,0,0,9.68,0,39.9,39.9,0,0,0,4.84-4.24,39.9,39.9,0,0,1,4.84-4.24,7.54,7.54,0,0,1,9.68,0,40.67,40.67,0,0,1,4.84,4.24,39.16,39.16,0,0,0,4.84,4.24,8.62,8.62,0,0,0,4.84,1.76,8.67,8.67,0,0,0,4.84-1.76,40.67,40.67,0,0,0,4.84-4.24,39.16,39.16,0,0,1,4.84-4.24A8.62,8.62,0,0,1,556,.57Z" fill="none"/></clipPath><linearGradient id="linear-gradient" x1="197" y1="50.05" x2="197" y2="71.97" gradientUnits="userSpaceOnUse"><stop offset="0" stop-color="#ebe9ec"/><stop offset="0.28" stop-color="#e5e6e9"/><stop offset="1" stop-color="#dadfe2"/></linearGradient><clipPath id="clip-path-2"><rect y="-36.5" width="351" height="123" fill="none"/></clipPath><symbol id="cursor" data-name="cursor" viewBox="0 0 12 20.32"><polygon points="12 11.66 12 10.65 10.88 10.65 10.88 9.83 9.89 9.83 9.88 9.82 9.88 8.84 8.9 8.84 8.89 8.83 8.89 7.85 7.91 7.85 7.91 7.84 7.91 6.86 6.93 6.86 6.92 6.86 6.92 5.88 5.94 5.88 5.93 5.87 5.93 4.88 4.95 4.88 4.94 4.88 4.94 3.9 3.96 3.9 3.95 3.89 3.95 2.9 2.97 2.9 2.96 2.9 2.96 1.92 1.98 1.92 1.97 1.91 1.97 0.93 1 0.93 1 0 0 0 0 17.31 1 17.31 1 16.51 1.98 16.51 1.98 15.53 1.98 15.52 2.96 15.52 2.96 14.54 2.97 14.53 3.95 14.53 3.95 13.59 4.93 13.59 4.93 15.5 5.93 15.5 5.93 17.41 6.93 17.41 6.93 17.39 6.93 17.39 6.93 19.32 7.92 19.32 7.92 20.32 9.85 20.32 9.85 19.32 10.85 19.32 10.85 17.39 9.87 17.39 9.87 15.47 8.89 15.47 8.89 13.54 7.94 13.54 7.94 11.66 12 11.66" fill="#fff"/><polygon points="12 10.65 12 11.66 7.94 11.66 7.94 13.54 7.89 13.56 6.94 13.56 6.94 10.65 6.95 10.65 7.94 10.65 9.89 10.65 9.89 9.83 10.88 9.83 10.88 10.65 12 10.65" fill="#221f1f"/><polygon points="10.85 17.39 10.85 19.32 9.85 19.32 9.85 19.32 9.85 17.39 9.87 17.39 10.85 17.39" fill="#221f1f"/><rect x="8.9" y="8.84" width="0.98" height="0.98" fill="#221f1f"/><polygon points="9.87 15.47 9.87 17.39 9.85 17.39 8.87 17.39 8.87 15.47 8.89 15.47 9.87 15.47" fill="#221f1f"/><polygon points="9.85 19.32 9.85 20.32 7.92 20.32 7.92 19.32 7.93 19.32 9.85 19.32 9.85 19.32" fill="#221f1f"/><rect x="7.91" y="7.85" width="0.98" height="0.98" fill="#221f1f"/><polygon points="8.89 13.54 8.89 15.47 8.87 15.47 7.89 15.47 7.89 13.56 7.94 13.54 8.89 13.54" fill="#221f1f"/><polygon points="7.93 17.39 7.93 19.32 7.92 19.32 6.93 19.32 6.93 17.39 7.93 17.39" fill="#221f1f"/><rect x="6.93" y="6.86" width="0.98" height="0.98" fill="#221f1f"/><polygon points="6.93 17.39 6.93 17.41 5.93 17.41 5.93 15.5 5.93 15.48 6.93 15.48 6.93 17.39" fill="#221f1f"/><rect x="5.94" y="5.88" width="0.98" height="0.98" fill="#221f1f"/><polygon points="5.93 13.57 5.93 15.48 5.93 15.5 4.93 15.5 4.93 13.59 4.93 13.57 5.93 13.57" fill="#221f1f"/><rect x="4.95" y="4.88" width="0.98" height="0.98" fill="#221f1f"/><rect x="3.96" y="3.89" width="0.98" height="0.98" fill="#221f1f"/><polygon points="4.93 13.57 4.93 13.59 3.95 13.59 3.94 13.55 3.94 11.66 4.93 11.66 4.93 13.57" fill="#221f1f"/><rect x="2.97" y="2.91" width="0.98" height="0.98" fill="#221f1f"/><polygon points="3.95 13.59 3.95 14.53 2.97 14.53 2.97 13.55 3.94 13.55 3.95 13.59" fill="#221f1f"/><rect x="1.98" y="14.54" width="0.98" height="0.98" fill="#221f1f"/><rect x="1.98" y="1.92" width="0.98" height="0.98" fill="#221f1f"/><polygon points="1.98 15.53 1.98 16.51 1 16.51 1 17.31 0 17.31 0 0 1 0 1 0.93 1.97 0.93 1.97 1.91 1 1.91 1 15.53 1.98 15.53" fill="#221f1f"/></symbol></defs><title>tips-control-dont</title><g clip-path="url(#clip-path)"><polygon points="4 -184.08 4 39.96 348.99 39.96 348.99 -184 4 -184.08" fill="#eef0ef"/><rect x="5" y="-197" width="345" height="222" fill="#eef0ef"/><rect x="4" y="39" width="343" height="44" fill="#e1e3e4"/><path d="M0-208V87H351V-208ZM347,83H4V-179H347Z" fill="#4c5358"/><rect x="4" y="38" width="343" height="1" fill="#a8abae"/><rect x="248" y="50" width="78" height="22" fill="#fff"/><rect x="158" y="49.99" width="78" height="22.01" fill="url(#linear-gradient)"/><path d="M157,49V73h80V49Zm79,23H158V50h78Z" fill="#a8abae"/><path d="M193.49,65.14A3.69,3.69,0,0,1,190.62,64a4.37,4.37,0,0,1-1.08-3.06,4.63,4.63,0,0,1,1.1-3.23,3.83,3.83,0,0,1,3-1.21,3.61,3.61,0,0,1,2.8,1.17,4.38,4.38,0,0,1,1.06,3.06,4.64,4.64,0,0,1-1.09,3.25A3.76,3.76,0,0,1,193.49,65.14Zm.07-7.79a2.71,2.71,0,0,0-2.15,1,4.25,4.25,0,0,0,0,5,2.63,2.63,0,0,0,2.1.95,2.76,2.76,0,0,0,2.18-.9,3.69,3.69,0,0,0,.8-2.53,3.85,3.85,0,0,0-.77-2.57A2.65,2.65,0,0,0,193.56,57.35Z" fill="#4d5359"/><path d="M205,65h-1.37l-3.25-3.84a2.34,2.34,0,0,1-.22-.29h0V65h-1V56.6h1v3.95h0a2.32,2.32,0,0,1,.22-.29l3.14-3.66h1.22l-3.6,4Z" fill="#4d5359"/><path d="M247,49V73h80V49Zm79,23H248V50h78Z" fill="#4384b7"/><path d="M276.3,64.65a4.93,4.93,0,0,1-2.32.49A3.74,3.74,0,0,1,271.11,64,4.26,4.26,0,0,1,270,61a4.46,4.46,0,0,1,1.21-3.26,4.12,4.12,0,0,1,3.08-1.24,4.93,4.93,0,0,1,2,.35v1a4,4,0,0,0-2-.5,3.06,3.06,0,0,0-2.35,1,3.64,3.64,0,0,0-.9,2.58,3.47,3.47,0,0,0,.84,2.45,2.86,2.86,0,0,0,2.21.91,4.14,4.14,0,0,0,2.19-.56Z" fill="#4d5359"/><path d="M282.17,65h-1v-.94h0a2,2,0,0,1-1.85,1.08,2,2,0,0,1-1.4-.47,1.64,1.64,0,0,1-.51-1.26q0-1.68,2-2l1.8-.25q0-1.53-1.24-1.53a3,3,0,0,0-2,.74v-1a3.72,3.72,0,0,1,2-.56q2.12,0,2.12,2.24Zm-1-3-1.45.2a2.35,2.35,0,0,0-1,.33,1,1,0,0,0-.34.84.92.92,0,0,0,.31.72,1.21,1.21,0,0,0,.83.28,1.54,1.54,0,0,0,1.18-.5,1.79,1.79,0,0,0,.47-1.27Z" fill="#4d5359"/><path d="M289,65h-1V61.58q0-1.91-1.39-1.91a1.51,1.51,0,0,0-1.19.54,2,2,0,0,0-.47,1.37V65h-1V59h1v1h0a2.17,2.17,0,0,1,2-1.14,1.84,1.84,0,0,1,1.51.64,2.83,2.83,0,0,1,.52,1.84Z" fill="#4d5359"/><path d="M294.87,64.72a3.12,3.12,0,0,1-1.64.42,2.72,2.72,0,0,1-2.07-.83,3,3,0,0,1-.79-2.17,3.33,3.33,0,0,1,.85-2.38,3,3,0,0,1,2.27-.9,3.16,3.16,0,0,1,1.39.29v1a2.44,2.44,0,0,0-1.43-.47,1.93,1.93,0,0,0-1.51.66,2.5,2.5,0,0,0-.59,1.73,2.38,2.38,0,0,0,.55,1.66,1.91,1.91,0,0,0,1.49.61,2.41,2.41,0,0,0,1.48-.52Z" fill="#4d5359"/><path d="M301.14,62.24H296.9a2.24,2.24,0,0,0,.54,1.55,1.86,1.86,0,0,0,1.42.54,3,3,0,0,0,1.86-.67v.9a3.48,3.48,0,0,1-2.09.57,2.54,2.54,0,0,1-2-.82,3.35,3.35,0,0,1-.73-2.3,3.28,3.28,0,0,1,.79-2.28,2.55,2.55,0,0,1,2-.88,2.26,2.26,0,0,1,1.82.76,3.18,3.18,0,0,1,.64,2.12Zm-1-.81a2,2,0,0,0-.4-1.29,1.37,1.37,0,0,0-1.1-.46,1.55,1.55,0,0,0-1.15.49,2.21,2.21,0,0,0-.59,1.27Z" fill="#4d5359"/><path d="M303.55,65h-1V56.12h1Z" fill="#4d5359"/></g><rect x="261.5" y="86.5" width="237" height="20" fill="#fff"/><path d="M498,87v19H262V87H498m1-1H261v21H499V86Z" fill="#4d5359"/><path d="M268.1,101V92.6h2.32q4.44,0,4.44,4.1a4.13,4.13,0,0,1-1.23,3.13,4.58,4.58,0,0,1-3.3,1.18Zm1-7.51v6.62h1.25a3.56,3.56,0,0,0,2.57-.88,3.32,3.32,0,0,0,.92-2.51q0-3.23-3.43-3.23Z" fill="#2b3033"/><path d="M276.88,93.48a.61.61,0,0,1-.44-.18.59.59,0,0,1-.18-.45.62.62,0,0,1,.62-.63.62.62,0,0,1,.45.18.63.63,0,0,1,0,.89A.62.62,0,0,1,276.88,93.48Zm.47,7.52h-1V95h1Z" fill="#2b3033"/><path d="M278.93,100.78v-1a2.84,2.84,0,0,0,1.73.58q1.27,0,1.27-.84a.73.73,0,0,0-.11-.41,1.08,1.08,0,0,0-.29-.3,2.26,2.26,0,0,0-.43-.23l-.54-.21a6.9,6.9,0,0,1-.7-.32,2.12,2.12,0,0,1-.5-.36,1.35,1.35,0,0,1-.3-.46,1.63,1.63,0,0,1-.1-.6,1.43,1.43,0,0,1,.19-.75,1.71,1.71,0,0,1,.52-.54,2.4,2.4,0,0,1,.74-.33,3.26,3.26,0,0,1,.85-.11,3.44,3.44,0,0,1,1.39.27v1a2.72,2.72,0,0,0-1.52-.43,1.78,1.78,0,0,0-.49.06,1.19,1.19,0,0,0-.37.17.8.8,0,0,0-.24.27.7.7,0,0,0-.08.34.82.82,0,0,0,.08.39.86.86,0,0,0,.25.28,1.9,1.9,0,0,0,.4.22l.53.22a7.42,7.42,0,0,1,.71.31,2.45,2.45,0,0,1,.54.36,1.42,1.42,0,0,1,.34.47,1.5,1.5,0,0,1,.12.63,1.48,1.48,0,0,1-.2.77,1.68,1.68,0,0,1-.52.54,2.4,2.4,0,0,1-.76.32,3.73,3.73,0,0,1-.9.11A3.4,3.4,0,0,1,278.93,100.78Z" fill="#2b3033"/><path d="M292.9,101h-1V97.55a2.6,2.6,0,0,0-.31-1.44,1.17,1.17,0,0,0-1-.45,1.28,1.28,0,0,0-1,.56,2.15,2.15,0,0,0-.43,1.35V101h-1V97.44q0-1.77-1.37-1.77a1.26,1.26,0,0,0-1,.53,2.19,2.19,0,0,0-.41,1.38V101h-1V95h1v.95h0a2,2,0,0,1,1.86-1.09,1.73,1.73,0,0,1,1.7,1.24,2.14,2.14,0,0,1,2-1.24q2,0,2,2.44Z" fill="#2b3033"/><path d="M295.21,93.48a.61.61,0,0,1-.44-.18.59.59,0,0,1-.18-.45.62.62,0,0,1,.62-.63.62.62,0,0,1,.45.18.63.63,0,0,1,0,.89A.62.62,0,0,1,295.21,93.48Zm.47,7.52h-1V95h1Z" fill="#2b3033"/><path d="M297.26,100.78v-1a2.84,2.84,0,0,0,1.73.58q1.27,0,1.27-.84a.73.73,0,0,0-.11-.41,1.08,1.08,0,0,0-.29-.3,2.26,2.26,0,0,0-.43-.23l-.54-.21a6.9,6.9,0,0,1-.7-.32,2.12,2.12,0,0,1-.5-.36,1.35,1.35,0,0,1-.3-.46,1.63,1.63,0,0,1-.1-.6,1.43,1.43,0,0,1,.19-.75,1.71,1.71,0,0,1,.52-.54,2.4,2.4,0,0,1,.74-.33,3.26,3.26,0,0,1,.85-.11,3.44,3.44,0,0,1,1.39.27v1a2.72,2.72,0,0,0-1.52-.43,1.78,1.78,0,0,0-.49.06,1.19,1.19,0,0,0-.37.17.8.8,0,0,0-.24.27.7.7,0,0,0-.08.34.82.82,0,0,0,.08.39.86.86,0,0,0,.25.28,1.9,1.9,0,0,0,.4.22l.53.22a7.42,7.42,0,0,1,.71.31,2.45,2.45,0,0,1,.54.36,1.42,1.42,0,0,1,.34.47,1.5,1.5,0,0,1,.12.63,1.48,1.48,0,0,1-.2.77,1.68,1.68,0,0,1-.52.54,2.4,2.4,0,0,1-.76.32,3.73,3.73,0,0,1-.9.11A3.4,3.4,0,0,1,297.26,100.78Z" fill="#2b3033"/><path d="M302.36,100.78v-1a2.84,2.84,0,0,0,1.73.58q1.27,0,1.27-.84a.73.73,0,0,0-.11-.41,1.08,1.08,0,0,0-.29-.3,2.26,2.26,0,0,0-.43-.23l-.54-.21a6.9,6.9,0,0,1-.7-.32,2.12,2.12,0,0,1-.5-.36,1.35,1.35,0,0,1-.3-.46,1.63,1.63,0,0,1-.1-.6,1.43,1.43,0,0,1,.19-.75,1.71,1.71,0,0,1,.52-.54,2.4,2.4,0,0,1,.74-.33,3.26,3.26,0,0,1,.85-.11,3.44,3.44,0,0,1,1.39.27v1a2.72,2.72,0,0,0-1.52-.43,1.78,1.78,0,0,0-.49.06,1.19,1.19,0,0,0-.37.17.8.8,0,0,0-.24.27.7.7,0,0,0-.08.34.82.82,0,0,0,.08.39.86.86,0,0,0,.25.28,1.9,1.9,0,0,0,.4.22l.53.22a7.42,7.42,0,0,1,.71.31,2.45,2.45,0,0,1,.54.36,1.42,1.42,0,0,1,.34.47,1.5,1.5,0,0,1,.12.63,1.48,1.48,0,0,1-.2.77,1.68,1.68,0,0,1-.52.54,2.4,2.4,0,0,1-.76.32,3.73,3.73,0,0,1-.9.11A3.4,3.4,0,0,1,302.36,100.78Z" fill="#2b3033"/><path d="M312.63,98.24H308.4a2.24,2.24,0,0,0,.54,1.55,1.86,1.86,0,0,0,1.42.54,3,3,0,0,0,1.86-.67v.9a3.48,3.48,0,0,1-2.09.57,2.54,2.54,0,0,1-2-.82,3.35,3.35,0,0,1-.73-2.3,3.28,3.28,0,0,1,.79-2.28,2.55,2.55,0,0,1,2-.88,2.26,2.26,0,0,1,1.82.76,3.18,3.18,0,0,1,.64,2.12Zm-1-.81a2,2,0,0,0-.4-1.29,1.37,1.37,0,0,0-1.1-.46,1.55,1.55,0,0,0-1.15.49,2.21,2.21,0,0,0-.59,1.27Z" fill="#2b3033"/><path d="M313.72,100.78v-1a2.84,2.84,0,0,0,1.73.58q1.27,0,1.27-.84a.73.73,0,0,0-.11-.41,1.08,1.08,0,0,0-.29-.3,2.26,2.26,0,0,0-.43-.23l-.54-.21a6.9,6.9,0,0,1-.7-.32,2.12,2.12,0,0,1-.5-.36,1.35,1.35,0,0,1-.3-.46,1.63,1.63,0,0,1-.1-.6,1.43,1.43,0,0,1,.19-.75,1.71,1.71,0,0,1,.52-.54,2.4,2.4,0,0,1,.74-.33,3.26,3.26,0,0,1,.85-.11,3.44,3.44,0,0,1,1.39.27v1a2.72,2.72,0,0,0-1.52-.43,1.78,1.78,0,0,0-.49.06,1.19,1.19,0,0,0-.37.17.8.8,0,0,0-.24.27.7.7,0,0,0-.08.34.82.82,0,0,0,.08.39.86.86,0,0,0,.25.28,1.9,1.9,0,0,0,.4.22l.53.22a7.42,7.42,0,0,1,.71.31,2.45,2.45,0,0,1,.54.36,1.42,1.42,0,0,1,.34.47,1.5,1.5,0,0,1,.12.63,1.48,1.48,0,0,1-.2.77,1.68,1.68,0,0,1-.52.54,2.4,2.4,0,0,1-.76.32,3.73,3.73,0,0,1-.9.11A3.4,3.4,0,0,1,313.72,100.78Z" fill="#2b3033"/><path d="M327.59,101h-1v-1h0a2.22,2.22,0,0,1-2.06,1.16,2.24,2.24,0,0,1-1.81-.81,3.31,3.31,0,0,1-.68-2.19,3.6,3.6,0,0,1,.75-2.38,2.47,2.47,0,0,1,2-.9,1.92,1.92,0,0,1,1.8,1h0V92.12h1Zm-1-2.71V97.4a1.72,1.72,0,0,0-.48-1.23,1.61,1.61,0,0,0-1.22-.5,1.66,1.66,0,0,0-1.38.64,2.82,2.82,0,0,0-.5,1.78,2.54,2.54,0,0,0,.48,1.64,1.58,1.58,0,0,0,1.3.6,1.64,1.64,0,0,0,1.3-.58A2.16,2.16,0,0,0,326.63,98.29Z" fill="#2b3033"/><path d="M330,93.48a.61.61,0,0,1-.44-.18.59.59,0,0,1-.18-.45.62.62,0,0,1,.62-.63.62.62,0,0,1,.45.18.63.63,0,0,1,0,.89A.62.62,0,0,1,330,93.48Zm.47,7.52h-1V95h1Z" fill="#2b3033"/><path d="M336.73,101h-1v-.94h0a2,2,0,0,1-1.85,1.08,2,2,0,0,1-1.4-.47,1.64,1.64,0,0,1-.51-1.26q0-1.68,2-2l1.8-.25q0-1.53-1.24-1.53a3,3,0,0,0-2,.74v-1a3.72,3.72,0,0,1,2-.56q2.12,0,2.12,2.24Zm-1-3-1.45.2a2.35,2.35,0,0,0-1,.33,1,1,0,0,0-.34.84.92.92,0,0,0,.31.72,1.21,1.21,0,0,0,.83.28,1.54,1.54,0,0,0,1.18-.5,1.79,1.79,0,0,0,.47-1.27Z" fill="#2b3033"/><path d="M339.5,101h-1V92.12h1Z" fill="#2b3033"/><path d="M344,101.14a2.78,2.78,0,0,1-2.12-.84,3.11,3.11,0,0,1-.79-2.23,3.24,3.24,0,0,1,.83-2.36,3,3,0,0,1,2.23-.85,2.69,2.69,0,0,1,2.09.83,3.28,3.28,0,0,1,.75,2.29,3.22,3.22,0,0,1-.81,2.3A2.84,2.84,0,0,1,344,101.14Zm.07-5.47a1.83,1.83,0,0,0-1.46.63A2.59,2.59,0,0,0,342,98a2.45,2.45,0,0,0,.54,1.68,1.85,1.85,0,0,0,1.46.62,1.76,1.76,0,0,0,1.43-.6A2.62,2.62,0,0,0,346,98a2.66,2.66,0,0,0-.5-1.73A1.75,1.75,0,0,0,344,95.67Z" fill="#2b3033"/><path d="M353.6,100.52q0,3.3-3.16,3.3a4.25,4.25,0,0,1-1.95-.42v-1a4,4,0,0,0,1.93.56q2.21,0,2.21-2.36V100h0a2.43,2.43,0,0,1-3.86.35,3.2,3.2,0,0,1-.68-2.15,3.74,3.74,0,0,1,.74-2.43,2.46,2.46,0,0,1,2-.9,2,2,0,0,1,1.8,1h0V95h1Zm-1-2.23V97.4a1.72,1.72,0,0,0-.48-1.22,1.59,1.59,0,0,0-1.2-.51,1.67,1.67,0,0,0-1.39.65,2.89,2.89,0,0,0-.5,1.81,2.48,2.48,0,0,0,.48,1.6,1.56,1.56,0,0,0,1.28.6,1.67,1.67,0,0,0,1.32-.57A2.14,2.14,0,0,0,352.64,98.29Z" fill="#2b3033"/><path d="M366.39,95l-1.8,6h-1l-1.24-4.29a2.8,2.8,0,0,1-.09-.56h0a2.63,2.63,0,0,1-.12.54L360.78,101h-1L358,95h1l1.24,4.51a2.72,2.72,0,0,1,.08.54h0a2.52,2.52,0,0,1,.11-.55l1.38-4.5h.88L364,99.52a3.23,3.23,0,0,1,.09.54h0a2.49,2.49,0,0,1,.1-.54L365.44,95Z" fill="#2b3033"/><path d="M368,93.48a.61.61,0,0,1-.44-.18.59.59,0,0,1-.18-.45.62.62,0,0,1,.62-.63.62.62,0,0,1,.45.18.63.63,0,0,1,0,.89A.62.62,0,0,1,368,93.48Zm.47,7.52h-1V95h1Z" fill="#2b3033"/><path d="M373.2,100.94a1.85,1.85,0,0,1-.9.19q-1.58,0-1.58-1.76V95.82h-1V95h1V93.54l1-.31V95h1.51v.82h-1.51V99.2a1.4,1.4,0,0,0,.21.86.82.82,0,0,0,.68.26,1,1,0,0,0,.63-.2Z" fill="#2b3033"/><path d="M379.46,101h-1V97.54q0-1.87-1.39-1.87a1.52,1.52,0,0,0-1.18.54,2,2,0,0,0-.48,1.39V101h-1V92.12h1V96h0a2.18,2.18,0,0,1,2-1.14q2,0,2,2.44Z" fill="#2b3033"/><path d="M383.78,101.14a2.78,2.78,0,0,1-2.12-.84,3.11,3.11,0,0,1-.79-2.23,3.24,3.24,0,0,1,.83-2.36,3,3,0,0,1,2.23-.85,2.69,2.69,0,0,1,2.09.83,3.28,3.28,0,0,1,.75,2.29,3.22,3.22,0,0,1-.81,2.3A2.84,2.84,0,0,1,383.78,101.14Zm.07-5.47a1.83,1.83,0,0,0-1.46.63,2.59,2.59,0,0,0-.54,1.74,2.45,2.45,0,0,0,.54,1.68,1.85,1.85,0,0,0,1.46.62,1.76,1.76,0,0,0,1.43-.6,2.62,2.62,0,0,0,.5-1.72,2.66,2.66,0,0,0-.5-1.73A1.75,1.75,0,0,0,383.85,95.67Z" fill="#2b3033"/><path d="M393.15,101h-1v-.95h0a2,2,0,0,1-1.85,1.09q-2.14,0-2.14-2.55V95h1v3.43q0,1.9,1.45,1.9a1.47,1.47,0,0,0,1.16-.52,2,2,0,0,0,.45-1.36V95h1Z" fill="#2b3033"/><path d="M397.88,100.94a1.85,1.85,0,0,1-.9.19q-1.58,0-1.58-1.76V95.82h-1V95h1V93.54l1-.31V95h1.51v.82h-1.51V99.2a1.4,1.4,0,0,0,.21.86.82.82,0,0,0,.68.26,1,1,0,0,0,.63-.2Z" fill="#2b3033"/><path d="M406.74,101h-1v-.94h0a2,2,0,0,1-1.85,1.08,2,2,0,0,1-1.4-.47,1.64,1.64,0,0,1-.51-1.26q0-1.68,2-2l1.8-.25q0-1.53-1.24-1.53a3,3,0,0,0-2,.74v-1a3.72,3.72,0,0,1,2-.56q2.12,0,2.12,2.24Zm-1-3-1.45.2a2.35,2.35,0,0,0-1,.33,1,1,0,0,0-.34.84.92.92,0,0,0,.31.72,1.21,1.21,0,0,0,.83.28,1.54,1.54,0,0,0,1.18-.5,1.79,1.79,0,0,0,.47-1.27Z" fill="#2b3033"/><path d="M409.54,100.13h0v3.63h-1V95h1v1.05h0a2.27,2.27,0,0,1,2.07-1.2,2.2,2.2,0,0,1,1.81.81,3.34,3.34,0,0,1,.65,2.16,3.72,3.72,0,0,1-.73,2.41,2.44,2.44,0,0,1-2,.91A2,2,0,0,1,409.54,100.13Zm0-2.42v.84a1.78,1.78,0,0,0,.48,1.26,1.72,1.72,0,0,0,2.6-.15,3.06,3.06,0,0,0,.5-1.86,2.42,2.42,0,0,0-.46-1.57,1.53,1.53,0,0,0-1.25-.57,1.7,1.7,0,0,0-1.35.58A2.14,2.14,0,0,0,409.51,97.71Z" fill="#2b3033"/><path d="M416.59,100.13h0v3.63h-1V95h1v1.05h0a2.27,2.27,0,0,1,2.07-1.2,2.2,2.2,0,0,1,1.81.81,3.34,3.34,0,0,1,.65,2.16,3.72,3.72,0,0,1-.73,2.41,2.44,2.44,0,0,1-2,.91A2,2,0,0,1,416.59,100.13Zm0-2.42v.84a1.78,1.78,0,0,0,.48,1.26,1.72,1.72,0,0,0,2.6-.15,3.06,3.06,0,0,0,.5-1.86,2.42,2.42,0,0,0-.46-1.57,1.53,1.53,0,0,0-1.25-.57,1.7,1.7,0,0,0-1.35.58A2.14,2.14,0,0,0,416.57,97.71Z" fill="#2b3033"/><path d="M423.62,101h-1V92.12h1Z" fill="#2b3033"/><path d="M430.34,95l-2.76,7q-.74,1.86-2.07,1.86a2.2,2.2,0,0,1-.63-.08v-.86a1.78,1.78,0,0,0,.57.11,1.18,1.18,0,0,0,1.09-.87L427,101l-2.34-6h1.07l1.62,4.62q0,.09.12.46h0q0-.14.12-.45L429.35,95Z" fill="#2b3033"/><path d="M431.87,93.48a.61.61,0,0,1-.44-.18.59.59,0,0,1-.18-.45.62.62,0,0,1,.62-.63.62.62,0,0,1,.45.18.63.63,0,0,1,0,.89A.62.62,0,0,1,431.87,93.48Zm.47,7.52h-1V95h1Z" fill="#2b3033"/><path d="M439.26,101h-1V97.58q0-1.91-1.39-1.91a1.51,1.51,0,0,0-1.19.54,2,2,0,0,0-.47,1.37V101h-1V95h1v1h0a2.17,2.17,0,0,1,2-1.14,1.84,1.84,0,0,1,1.51.64,2.83,2.83,0,0,1,.52,1.84Z" fill="#2b3033"/><path d="M446.19,100.52q0,3.3-3.16,3.3a4.25,4.25,0,0,1-1.95-.42v-1A4,4,0,0,0,443,103q2.21,0,2.21-2.36V100h0a2.43,2.43,0,0,1-3.86.35,3.2,3.2,0,0,1-.68-2.15,3.74,3.74,0,0,1,.74-2.43,2.46,2.46,0,0,1,2-.9,2,2,0,0,1,1.8,1h0V95h1Zm-1-2.23V97.4a1.72,1.72,0,0,0-.48-1.22,1.59,1.59,0,0,0-1.2-.51,1.67,1.67,0,0,0-1.39.65,2.89,2.89,0,0,0-.5,1.81,2.48,2.48,0,0,0,.48,1.6,1.56,1.56,0,0,0,1.28.6,1.67,1.67,0,0,0,1.32-.57A2.14,2.14,0,0,0,445.23,98.29Z" fill="#2b3033"/><path d="M455.51,100.72a3.12,3.12,0,0,1-1.64.42,2.72,2.72,0,0,1-2.07-.83,3,3,0,0,1-.79-2.17,3.33,3.33,0,0,1,.85-2.38,3,3,0,0,1,2.27-.9,3.16,3.16,0,0,1,1.39.29v1a2.44,2.44,0,0,0-1.43-.47,1.93,1.93,0,0,0-1.51.66,2.5,2.5,0,0,0-.59,1.73,2.38,2.38,0,0,0,.55,1.66,1.91,1.91,0,0,0,1.49.61,2.41,2.41,0,0,0,1.48-.52Z" fill="#2b3033"/><path d="M461.95,101h-1V97.54q0-1.87-1.39-1.87a1.52,1.52,0,0,0-1.18.54,2,2,0,0,0-.48,1.39V101h-1V92.12h1V96h0a2.18,2.18,0,0,1,2-1.14q2,0,2,2.44Z" fill="#2b3033"/><path d="M468.05,101h-1v-.94h0a2,2,0,0,1-1.85,1.08,2,2,0,0,1-1.4-.47,1.64,1.64,0,0,1-.51-1.26q0-1.68,2-2l1.8-.25q0-1.53-1.24-1.53a3,3,0,0,0-2,.74v-1a3.72,3.72,0,0,1,2-.56q2.12,0,2.12,2.24Zm-1-3-1.45.2a2.35,2.35,0,0,0-1,.33,1,1,0,0,0-.34.84.92.92,0,0,0,.31.72,1.21,1.21,0,0,0,.83.28,1.54,1.54,0,0,0,1.18-.5,1.79,1.79,0,0,0,.47-1.27Z" fill="#2b3033"/><path d="M474.84,101h-1V97.58q0-1.91-1.39-1.91a1.51,1.51,0,0,0-1.19.54,2,2,0,0,0-.47,1.37V101h-1V95h1v1h0a2.17,2.17,0,0,1,2-1.14,1.84,1.84,0,0,1,1.51.64,2.83,2.83,0,0,1,.52,1.84Z" fill="#2b3033"/><path d="M481.78,100.52q0,3.3-3.16,3.3a4.25,4.25,0,0,1-1.95-.42v-1a4,4,0,0,0,1.93.56q2.21,0,2.21-2.36V100h0a2.43,2.43,0,0,1-3.86.35,3.2,3.2,0,0,1-.68-2.15,3.74,3.74,0,0,1,.74-2.43,2.46,2.46,0,0,1,2-.9,2,2,0,0,1,1.8,1h0V95h1Zm-1-2.23V97.4a1.72,1.72,0,0,0-.48-1.22,1.59,1.59,0,0,0-1.2-.51,1.67,1.67,0,0,0-1.39.65,2.89,2.89,0,0,0-.5,1.81,2.48,2.48,0,0,0,.48,1.6,1.56,1.56,0,0,0,1.28.6,1.67,1.67,0,0,0,1.32-.57A2.14,2.14,0,0,0,480.81,98.29Z" fill="#2b3033"/><path d="M488.54,98.24h-4.24a2.24,2.24,0,0,0,.54,1.55,1.86,1.86,0,0,0,1.42.54,3,3,0,0,0,1.86-.67v.9a3.48,3.48,0,0,1-2.09.57,2.54,2.54,0,0,1-2-.82,3.35,3.35,0,0,1-.73-2.3,3.28,3.28,0,0,1,.79-2.28,2.55,2.55,0,0,1,2-.88,2.26,2.26,0,0,1,1.82.76,3.18,3.18,0,0,1,.64,2.12Zm-1-.81a2,2,0,0,0-.4-1.29,1.37,1.37,0,0,0-1.1-.46,1.55,1.55,0,0,0-1.15.49,2.21,2.21,0,0,0-.59,1.27Z" fill="#2b3033"/><path d="M489.63,100.78v-1a2.84,2.84,0,0,0,1.73.58q1.27,0,1.27-.84a.73.73,0,0,0-.11-.41,1.08,1.08,0,0,0-.29-.3,2.26,2.26,0,0,0-.43-.23l-.54-.21a6.9,6.9,0,0,1-.7-.32,2.12,2.12,0,0,1-.5-.36,1.35,1.35,0,0,1-.3-.46,1.63,1.63,0,0,1-.1-.6,1.43,1.43,0,0,1,.19-.75,1.71,1.71,0,0,1,.52-.54,2.4,2.4,0,0,1,.74-.33,3.26,3.26,0,0,1,.85-.11,3.44,3.44,0,0,1,1.39.27v1a2.72,2.72,0,0,0-1.52-.43,1.78,1.78,0,0,0-.49.06,1.19,1.19,0,0,0-.37.17.8.8,0,0,0-.24.27.7.7,0,0,0-.08.34.82.82,0,0,0,.08.39.86.86,0,0,0,.25.28,1.9,1.9,0,0,0,.4.22l.53.22a7.42,7.42,0,0,1,.71.31,2.45,2.45,0,0,1,.54.36,1.42,1.42,0,0,1,.34.47,1.5,1.5,0,0,1,.12.63,1.48,1.48,0,0,1-.2.77,1.68,1.68,0,0,1-.52.54,2.4,2.4,0,0,1-.76.32,3.73,3.73,0,0,1-.9.11A3.4,3.4,0,0,1,489.63,100.78Z" fill="#2b3033"/><use width="12" height="20.32" transform="translate(260.59 66.21)" xlink:href="#cursor"/><g clip-path="url(#clip-path-2)"><path d="M0,10.33c2,0,2.64-2.25,4.26-3.82A39.16,39.16,0,0,1,9.08,2.27,8.65,8.65,0,0,1,13.92.51a8.67,8.67,0,0,1,4.84,1.76A40.67,40.67,0,0,1,23.6,6.51a39.28,39.28,0,0,0,4.84,4.25,8.6,8.6,0,0,0,4.83,1.75,8.53,8.53,0,0,0,4.84-1.75A40,40,0,0,0,43,6.52,39.16,39.16,0,0,1,47.8,2.28,8.62,8.62,0,0,1,52.64.52a8.67,8.67,0,0,1,4.84,1.76,39.84,39.84,0,0,1,4.83,4.24,41.72,41.72,0,0,0,4.84,4.25A8.66,8.66,0,0,0,72,12.52a8.6,8.6,0,0,0,4.84-1.75,39.16,39.16,0,0,0,4.84-4.24,40.67,40.67,0,0,1,4.84-4.24,7.54,7.54,0,0,1,9.68,0A39.16,39.16,0,0,1,101,6.53a41.72,41.72,0,0,0,4.84,4.25,7.57,7.57,0,0,0,9.68,0,39.9,39.9,0,0,0,4.84-4.24,40.67,40.67,0,0,1,4.84-4.24,7.54,7.54,0,0,1,9.68,0,39.16,39.16,0,0,1,4.84,4.24,40.91,40.91,0,0,0,4.84,4.25,7.57,7.57,0,0,0,9.68,0,39.9,39.9,0,0,0,4.84-4.24A39.9,39.9,0,0,1,164,2.31a7.54,7.54,0,0,1,9.68,0,39.9,39.9,0,0,1,4.84,4.24,40.13,40.13,0,0,0,4.84,4.25,8.6,8.6,0,0,0,4.84,1.75A8.66,8.66,0,0,0,193,10.8a40.67,40.67,0,0,0,4.84-4.24,40.91,40.91,0,0,1,4.84-4.25,7.55,7.55,0,0,1,9.68,0,40.67,40.67,0,0,1,4.84,4.24A39.16,39.16,0,0,0,222,10.8a8.55,8.55,0,0,0,4.84,1.76,8.66,8.66,0,0,0,4.84-1.75,40.67,40.67,0,0,0,4.84-4.24,39.28,39.28,0,0,1,4.84-4.25,7.55,7.55,0,0,1,9.68,0,40.67,40.67,0,0,1,4.84,4.24,39.16,39.16,0,0,0,4.84,4.24,8.62,8.62,0,0,0,4.84,1.76,8.67,8.67,0,0,0,4.84-1.76,40.67,40.67,0,0,0,4.84-4.24,39.16,39.16,0,0,1,4.84-4.24,7.53,7.53,0,0,1,9.68,0,39.9,39.9,0,0,1,4.84,4.24,39.9,39.9,0,0,0,4.84,4.24,8.62,8.62,0,0,0,4.84,1.76,8.67,8.67,0,0,0,4.84-1.76A40.67,40.67,0,0,0,314,6.57a39.16,39.16,0,0,1,4.84-4.24,7.54,7.54,0,0,1,9.68,0,40.67,40.67,0,0,1,4.84,4.24,39.16,39.16,0,0,0,4.84,4.24A8.62,8.62,0,0,0,343,12.57a8.67,8.67,0,0,0,4.84-1.76,40.67,40.67,0,0,0,4.84-4.24,39.16,39.16,0,0,1,4.84-4.24,7.53,7.53,0,0,1,9.68,0,39.84,39.84,0,0,1,4.83,4.24,40.67,40.67,0,0,0,4.84,4.24,8.67,8.67,0,0,0,4.84,1.76,8.62,8.62,0,0,0,4.84-1.76,39.16,39.16,0,0,0,4.84-4.24,40.67,40.67,0,0,1,4.84-4.24,7.54,7.54,0,0,1,9.68,0,39.16,39.16,0,0,1,4.84,4.24,40.67,40.67,0,0,0,4.84,4.24,8.67,8.67,0,0,0,4.84,1.76,8.62,8.62,0,0,0,4.84-1.76,39.16,39.16,0,0,0,4.84-4.24A40.67,40.67,0,0,1,435,2.33a7.53,7.53,0,0,1,9.68,0,39.9,39.9,0,0,1,4.84,4.24,39.9,39.9,0,0,0,4.84,4.24,7.54,7.54,0,0,0,9.68,0,39.9,39.9,0,0,0,4.84-4.24,39.9,39.9,0,0,1,4.84-4.24,7.54,7.54,0,0,1,9.68,0,39.9,39.9,0,0,1,4.84,4.24,39.9,39.9,0,0,0,4.84,4.24,7.53,7.53,0,0,0,9.68,0,39.9,39.9,0,0,0,4.84-4.24,39.9,39.9,0,0,1,4.84-4.24,7.54,7.54,0,0,1,9.68,0,40.67,40.67,0,0,1,4.84,4.24,39.16,39.16,0,0,0,4.84,4.24,8.62,8.62,0,0,0,4.84,1.76,8.67,8.67,0,0,0,4.84-1.76,40.67,40.67,0,0,0,4.84-4.24c1.61-1.57,2.88-4.24,4.84-4.24" fill="none" stroke="#adaead" stroke-miterlimit="10"/></g></svg>