<svg id="Layer_1" data-name="Layer 1" xmlns="http://www.w3.org/2000/svg" xmlns:xlink="http://www.w3.org/1999/xlink" width="461.94" height="463.74" viewBox="0 0 461.94 463.74"><defs><style>.cls-1{fill:#ebebeb;}.cls-2{fill:#e0e0e0;}.cls-3{fill:#4c5358;}.cls-4{fill:#a8abae;}.cls-5,.cls-9{fill:#fff;}.cls-6{fill:#9e9e9e;}.cls-7{opacity:0.5;fill:#2b3033;font-family:SegoeUI-Semilight, Segoe UI;font-weight:300;}.cls-11,.cls-15,.cls-7,.cls-9{font-size:12px;}.cls-8{letter-spacing:-0.01em;}.cls-11,.cls-15,.cls-9{font-family:SegoeUI, Segoe UI;}.cls-10{fill:url(#linear-gradient);}.cls-11{fill:#4d5359;}.cls-12{fill:url(#linear-gradient-2);}.cls-13{fill:#777b80;}.cls-14{fill:#e1e4e6;}.cls-16{letter-spacing:-0.03em;}.cls-17{letter-spacing:-0.09em;}.cls-18{fill:#696e73;}.cls-19{letter-spacing:-0.01em;}.cls-20{fill:#757575;}.cls-21{fill:none;stroke:#2b3033;stroke-miterlimit:10;}</style><linearGradient id="linear-gradient" x1="397.93" y1="426.79" x2="397.93" y2="448.71" gradientUnits="userSpaceOnUse"><stop offset="0" stop-color="#ebe9ec"/><stop offset="0.28" stop-color="#e5e6e9"/><stop offset="1" stop-color="#dadfe2"/></linearGradient><linearGradient id="linear-gradient-2" x1="307.93" y1="426.79" x2="307.93" y2="448.71" xlink:href="#linear-gradient"/></defs><title>FTV-wrong-use</title><g id="dialog-2" data-name="dialog"><path class="cls-1" d="M4,23.92V416.7H459.93V24H432.68L7.26,23.92Z"/><path class="cls-1" d="M5,11V393.48H460.94V11H5Z"/><path class="cls-2" d="M4,459.74H457.94v-44H4Z"/><path class="cls-3" d="M0,0V463.74H461.94V0H0ZM457.94,459.74H4V29H457.94V459.74Z"/><path class="cls-4" d="M4,415.74H457.94v-1H4Z"/><polygon class="cls-5" points="451.08 9.97 449.56 8.45 446.01 12 442.46 8.45 440.94 9.97 444.49 13.52 440.94 17.07 442.46 18.59 446.01 15.04 449.56 18.59 451.08 17.07 447.53 13.52 451.08 9.97"/></g><rect class="cls-5" x="25.03" y="49.16" width="363.93" height="23.46"/><path class="cls-6" d="M388.47,49.66V72.12H25.53V49.66H388.47m1-1H24.53V73.12H389.47V48.66Z"/><path class="cls-6" d="M40.18,53.23A5,5,0,0,0,35,58.14a4.79,4.79,0,0,0,1.16,3.08l-6.22,6,.74.71,6.22-5.95a5.22,5.22,0,0,0,3.24,1.13,4.92,4.92,0,1,0,0-9.83Zm0,8.83a3.92,3.92,0,1,1,4.1-3.92A4,4,0,0,1,40.18,62.06Z"/><text class="cls-7" transform="translate(55.04 65.66) scale(1.05 1)">Sea<tspan class="cls-8" x="18.35" y="0">r</tspan><tspan x="22.25" y="0">ch</tspan></text><text class="cls-9" transform="translate(15.66 18.71)">Select Color</text><rect class="cls-10" x="358.93" y="426.73" width="78" height="22.01"/><path class="cls-4" d="M357.93,425.74v24h80v-24Zm79,23h-78v-22h78Z"/><text class="cls-11" transform="translate(380.41 441.74)">Cancel</text><rect class="cls-12" x="268.93" y="426.73" width="78" height="22.01"/><path class="cls-4" d="M267.93,425.74v24h80v-24Zm79,23h-78v-22h78Z"/><text class="cls-11" transform="translate(299.93 441.74)">OK</text><rect class="cls-5" x="25.54" y="84.28" width="411.89" height="275.46"/><path class="cls-6" d="M436.93,84.78V359.24H26V84.78H436.93m1-1H25V360.24H437.93V83.78Z"/><polygon class="cls-13" points="433.87 93.24 426.87 93.24 430.37 88.24 433.87 93.24"/><rect class="cls-13" x="426.87" y="101.24" width="7" height="77.98"/><polygon class="cls-13" points="426.59 351.3 433.59 351.3 430.09 356.3 426.59 351.3"/><path class="cls-14" d="M423.49,85.13V359.2h13V85.13Zm1,273.14V85.74h11V358.27Z"/><text class="cls-15" transform="translate(46.95 107.55)"><tspan class="cls-16">R</tspan><tspan x="6.84" y="0">ed</tspan></text><text class="cls-15" transform="translate(46.95 129.45)"><tspan class="cls-17">Y</tspan><tspan x="5.58" y="0">ellow</tspan></text><text class="cls-15" transform="translate(46.95 151.34)">Blue</text><text class="cls-15" transform="translate(46.95 173.23)">Purple</text><path class="cls-18" d="M401.47,68.3h-2v-2h2Zm12-2h-11v2h11Zm0-3h-10v1h10Zm-10-2h10v-1h-10Zm10-4h-10v1h10Zm-11-2h11v-2h-11Zm-3,0h2v-2h-2Z"/><path class="cls-18" d="M423.66,63.89h2v2h-2Zm14,0h-11v2h11Zm-14-2h2v-2h-2Zm14-2h-11v2h11Zm-14-2h2v-2h-2Zm14-2h-11v2h11Z"/><text class="cls-15" transform="translate(347.33 384.12)">0 i<tspan class="cls-19" x="12.66" y="0">t</tspan><tspan x="16.63" y="0">ems selec</tspan><tspan class="cls-19" x="67.72" y="0">t</tspan><tspan x="71.69" y="0">ed</tspan></text><path class="cls-4" d="M24.53,370.74v24h80v-24Zm79,23h-78v-22h78Z"/><text class="cls-11" transform="translate(41.21 386.74)">Select all</text><path class="cls-4" d="M114.53,370.74v24h80v-24Zm79,23h-78v-22h78Z"/><text class="cls-11" transform="translate(133.49 386.74)">Clear all</text><path class="cls-20" d="M42.05,98.84v9H33v-9h9m1-1H32v11h11v-11Z"/><path class="cls-20" d="M42.05,120.7v9H33v-9h9m1-1H32v11h11v-11Z"/><path class="cls-20" d="M42.05,142.56v9H33v-9h9m1-1H32v11h11v-11Z"/><path class="cls-20" d="M42.05,164.42v9H33v-9h9m1-1H32v11h11v-11Z"/><line class="cls-21" x1="55.04" y1="53.3" x2="55.04" y2="68.3"/></svg>