<svg id="Layer_1" data-name="Layer 1" xmlns="http://www.w3.org/2000/svg" xmlns:xlink="http://www.w3.org/1999/xlink" width="755.35" height="463.74" viewBox="0 0 755.35 463.74"><defs><style>.cls-1{fill:#ebebeb;}.cls-2{fill:#e0e0e0;}.cls-3{fill:#4c5358;}.cls-4{fill:#a8abae;}.cls-5,.cls-9{fill:#fff;}.cls-6{fill:#9e9e9e;}.cls-7{opacity:0.45;font-family:SegoeUI-Semilight, Segoe UI;font-weight:300;}.cls-11,.cls-14,.cls-7,.cls-9{font-size:12px;}.cls-8{letter-spacing:-0.01em;}.cls-11,.cls-14,.cls-23,.cls-9{font-family:SegoeUI, Segoe UI;}.cls-10{fill:url(#linear-gradient);}.cls-11{fill:#4d5359;}.cls-12{fill:url(#linear-gradient-2);}.cls-13{fill:#696e73;}.cls-15{letter-spacing:-0.01em;}.cls-16,.cls-23{font-size:11px;}.cls-16,.cls-20,.cls-23,.cls-25{fill:#ec008c;}.cls-16{font-family:Roboto-Regular, Roboto;}.cls-17{letter-spacing:-0.01em;}.cls-18{letter-spacing:-0.01em;}.cls-19{letter-spacing:0em;}.cls-21{letter-spacing:-0.01em;}.cls-22{fill:none;stroke:#ec008c;stroke-miterlimit:10;}.cls-24{letter-spacing:-0.01em;}.cls-25{opacity:0.25;}</style><linearGradient id="linear-gradient" x1="529.81" y1="426.79" x2="529.81" y2="448.71" gradientUnits="userSpaceOnUse"><stop offset="0" stop-color="#ebe9ec"/><stop offset="0.28" stop-color="#e5e6e9"/><stop offset="1" stop-color="#dadfe2"/></linearGradient><linearGradient id="linear-gradient-2" x1="439.81" y1="426.79" x2="439.81" y2="448.71" xlink:href="#linear-gradient"/></defs><title>FTV-dialog-parts</title><g id="n_spacing-2" data-name="n spacing"><g id="dialog-3" data-name="dialog"><path class="cls-1" d="M135.87,23.92V416.7H591.81V24H564.55l-425.41-.08Z"/><path class="cls-1" d="M136.87,11V393.48H592.81V11H136.87Z"/><path class="cls-2" d="M135.87,459.74H589.81v-44H135.87Z"/><path class="cls-3" d="M131.87,0V463.74H593.81V0H131.87ZM589.81,459.74H135.87V29H589.81V459.74Z"/><path class="cls-4" d="M135.87,415.74H589.81v-1H135.87Z"/><polygon class="cls-5" points="582.96 9.97 581.44 8.45 577.89 12 574.34 8.45 572.82 9.97 576.37 13.52 572.82 17.07 574.34 18.59 577.89 15.04 581.44 18.59 582.96 17.07 579.41 13.52 582.96 9.97"/></g><rect class="cls-5" x="156.91" y="49.16" width="363.93" height="23.46"/><path class="cls-6" d="M520.34,49.66V72.12H157.41V49.66H520.34m1-1H156.41V73.12H521.34V48.66Z"/><path class="cls-6" d="M172.06,53.23a5,5,0,0,0-5.14,4.91,4.74,4.74,0,0,0,1.16,3.08l-6.23,6,.74.71,6.22-5.95a5.23,5.23,0,0,0,3.25,1.13,4.92,4.92,0,1,0,0-9.83Zm0,8.83a3.92,3.92,0,1,1,4.09-3.92A4,4,0,0,1,172.06,62.06Z"/><text class="cls-7" transform="translate(186.91 65.66) scale(1.05 1)">Sea<tspan class="cls-8" x="18.35" y="0">r</tspan><tspan x="22.25" y="0">ch</tspan></text><text class="cls-9" transform="translate(147.53 18.71)">Title Capitalization</text><rect class="cls-10" x="490.81" y="426.73" width="78" height="22.01"/><path class="cls-4" d="M489.81,425.74v24h80v-24Zm79,23h-78v-22h78Z"/><text class="cls-11" transform="translate(512.28 441.74)">Cancel</text><rect class="cls-12" x="400.81" y="426.73" width="78" height="22.01"/><path class="cls-4" d="M399.81,425.74v24h80v-24Zm79,23h-78v-22h78Z"/><text class="cls-11" transform="translate(431.81 441.74)">OK</text><path class="cls-13" d="M533.34,68.3h-2v-2h2Zm12-2h-11v2h11Zm0-3h-10v1h10Zm-10-2h10v-1h-10Zm10-4h-10v1h10Zm-11-2h11v-2h-11Zm-3,0h2v-2h-2Z"/><path class="cls-13" d="M555.54,63.89h2v2h-2Zm14,0h-11v2h11Zm-14-2h2v-2h-2Zm14-2h-11v2h11Zm-14-2h2v-2h-2Zm14-2h-11v2h11Z"/><text class="cls-14" transform="translate(479.2 384.12)">11 i<tspan class="cls-15" x="19.13" y="0">t</tspan><tspan x="23.1" y="0">ems selec</tspan><tspan class="cls-15" x="74.19" y="0">t</tspan><tspan x="78.16" y="0">ed</tspan></text><path class="cls-4" d="M156.41,370.74v24h80v-24Zm79,23h-78v-22h78Z"/><text class="cls-11" transform="translate(173.09 386.74)">Select all</text><path class="cls-4" d="M246.41,370.74v24h80v-24Zm79,23h-78v-22h78Z"/><text class="cls-11" transform="translate(265.36 386.74)">Clear all</text><text class="cls-16" transform="translate(57.83 64.27)">Sea<tspan class="cls-17" x="18.34" y="0">r</tspan><tspan x="21.96" y="0">ch b</tspan><tspan class="cls-18" x="42.67" y="0">o</tspan><tspan class="cls-19" x="48.83" y="0">x</tspan></text><rect class="cls-20" x="117.46" y="60.32" width="41.02" height="1"/><text class="cls-16" transform="translate(618.16 64.41)">Expand/Collapse all but<tspan class="cls-21" x="115.69" y="0">t</tspan><tspan x="119.17" y="0">ons</tspan></text><rect class="cls-20" x="577.89" y="60.39" width="35.6" height="1"/><text class="cls-16" transform="translate(623.71 17.05)">Close</text><rect class="cls-20" x="583.9" y="13.02" width="35.6" height="1"/><text class="cls-16" transform="translate(618.16 384.75)">Selection count indica<tspan class="cls-21" x="107.77" y="0">t</tspan><tspan x="111.26" y="0">or</tspan></text><rect class="cls-20" x="577.89" y="380.73" width="35.6" height="1"/><line class="cls-22" x1="117.46" y1="14.35" x2="136.87" y2="14.35"/><line class="cls-22" x1="117.46" y1="169.27" x2="201.12" y2="169.27"/><line class="cls-22" x1="117.46" y1="436.99" x2="159.86" y2="436.99"/><text class="cls-23" transform="translate(59 17.05)">Dialog title</text><text class="cls-23" transform="translate(49.64 173.01)">Con<tspan class="cls-15" x="19.48" y="0">t</tspan><tspan x="23.12" y="0">ent a</tspan><tspan class="cls-24" x="47.44" y="0">r</tspan><tspan x="51.12" y="0">ea</tspan></text><rect class="cls-20" x="117.46" y="382.38" width="46.54" height="1"/><text class="cls-23" transform="translate(0 386.61)">Select/Clear all but<tspan class="cls-15" x="91.13" y="0">t</tspan><tspan x="94.77" y="0">ons</tspan></text><text class="cls-23" transform="translate(80.63 440.49)">Foo<tspan class="cls-15" x="18.26" y="0">t</tspan><tspan x="21.9" y="0">er</tspan></text><text class="cls-23" transform="translate(610.47 441.74)">Commit but<tspan class="cls-15" x="58.03" y="0">t</tspan><tspan x="61.67" y="0">ons</tspan></text><rect class="cls-20" x="565.47" y="437.24" width="43" height="1"/><rect class="cls-25" x="155.87" y="84.39" width="413.98" height="275.24"/></g></svg>