<svg id="Layer_1" data-name="Layer 1" xmlns="http://www.w3.org/2000/svg" width="52" height="14.06" viewBox="0 0 52 14.06"><title>hyperlink-normal</title><path d="M7.42,10.2h-1V6.37H2.09V10.2h-1V1.8h1V5.48H6.43V1.8h1Z" fill="#065fa3"/><path d="M14.27,4.2l-2.76,7Q10.77,13,9.43,13a2.2,2.2,0,0,1-.63-.08v-.86a1.78,1.78,0,0,0,.57.11,1.18,1.18,0,0,0,1.09-.87l.48-1.14L8.6,4.2H9.67l1.62,4.62q0,.09.12.46h0q0-.14.12-.45L13.27,4.2Z" fill="#065fa3"/><path d="M16.28,9.33h0V13h-1V4.2h1V5.26h0a2.27,2.27,0,0,1,2.07-1.2,2.2,2.2,0,0,1,1.81.81A3.34,3.34,0,0,1,20.82,7a3.72,3.72,0,0,1-.73,2.41,2.44,2.44,0,0,1-2,.91A2,2,0,0,1,16.28,9.33Zm0-2.42v.84A1.78,1.78,0,0,0,16.74,9a1.72,1.72,0,0,0,2.6-.15A3.06,3.06,0,0,0,19.83,7a2.42,2.42,0,0,0-.46-1.57,1.53,1.53,0,0,0-1.25-.57,1.7,1.7,0,0,0-1.35.58A2.14,2.14,0,0,0,16.26,6.91Z" fill="#065fa3"/><path d="M27.18,7.44H22.94A2.24,2.24,0,0,0,23.48,9a1.86,1.86,0,0,0,1.42.54,3,3,0,0,0,1.86-.67v.9a3.48,3.48,0,0,1-2.09.57,2.54,2.54,0,0,1-2-.82,3.35,3.35,0,0,1-.73-2.3,3.28,3.28,0,0,1,.79-2.28,2.55,2.55,0,0,1,2-.88,2.26,2.26,0,0,1,1.82.76,3.18,3.18,0,0,1,.64,2.12Zm-1-.81a2,2,0,0,0-.4-1.29,1.37,1.37,0,0,0-1.1-.46,1.55,1.55,0,0,0-1.15.49A2.21,2.21,0,0,0,23,6.63Z" fill="#065fa3"/><path d="M31.76,5.17A1.18,1.18,0,0,0,31,5a1.23,1.23,0,0,0-1,.58,2.68,2.68,0,0,0-.41,1.58V10.2h-1v-6h1V5.44h0a2.1,2.1,0,0,1,.63-1,1.43,1.43,0,0,1,.94-.35,1.57,1.57,0,0,1,.57.08Z" fill="#065fa3"/><path d="M33.76,10.2h-1V1.32h1Z" fill="#065fa3"/><path d="M36.2,2.68a.61.61,0,0,1-.44-.18.59.59,0,0,1-.18-.45.62.62,0,0,1,.62-.63.62.62,0,0,1,.45.18.6.6,0,0,1,.18.45.59.59,0,0,1-.18.44A.62.62,0,0,1,36.2,2.68Zm.47,7.52h-1v-6h1Z" fill="#065fa3"/><path d="M43.59,10.2h-1V6.78q0-1.91-1.39-1.91A1.51,1.51,0,0,0,40,5.41a2,2,0,0,0-.47,1.37V10.2h-1v-6h1v1h0a2.17,2.17,0,0,1,2-1.14,1.84,1.84,0,0,1,1.51.64,2.83,2.83,0,0,1,.52,1.84Z" fill="#065fa3"/><path d="M50.38,10.2H49L46.39,7.32h0V10.2h-1V1.32h1V6.95h0L48.91,4.2h1.26L47.38,7.1Z" fill="#065fa3"/></svg>