<svg id="Layer_1" data-name="Layer 1" xmlns="http://www.w3.org/2000/svg" width="52" height="16" viewBox="0 0 52 16"><title>hyperlink-hover</title><path d="M7.42,10h-1V6.21H2.09V10h-1V1.64h1V5.33H6.43V1.64h1Z" fill="#065fa3"/><path d="M14.27,4l-2.76,7q-.74,1.86-2.07,1.86a2.2,2.2,0,0,1-.63-.08v-.86a1.78,1.78,0,0,0,.57.11,1.18,1.18,0,0,0,1.09-.87L10.95,10,8.6,4H9.67l1.62,4.62q0,.09.12.46h0q0-.14.12-.45L13.27,4Z" fill="#065fa3"/><path d="M16.28,9.18h0V12.8h-1V4h1V5.1h0a2.27,2.27,0,0,1,2.07-1.2,2.2,2.2,0,0,1,1.81.81,3.34,3.34,0,0,1,.65,2.16,3.72,3.72,0,0,1-.73,2.41,2.44,2.44,0,0,1-2,.91A2,2,0,0,1,16.28,9.18Zm0-2.42v.84a1.78,1.78,0,0,0,.48,1.26,1.72,1.72,0,0,0,2.6-.15,3.06,3.06,0,0,0,.5-1.86,2.42,2.42,0,0,0-.46-1.57,1.53,1.53,0,0,0-1.25-.57,1.7,1.7,0,0,0-1.35.58A2.14,2.14,0,0,0,16.26,6.76Z" fill="#065fa3"/><path d="M27.18,7.28H22.94a2.24,2.24,0,0,0,.54,1.55,1.86,1.86,0,0,0,1.42.54,3,3,0,0,0,1.86-.67v.9a3.48,3.48,0,0,1-2.09.57,2.54,2.54,0,0,1-2-.82,3.35,3.35,0,0,1-.73-2.3,3.28,3.28,0,0,1,.79-2.28,2.55,2.55,0,0,1,2-.88,2.26,2.26,0,0,1,1.82.76,3.18,3.18,0,0,1,.64,2.12Zm-1-.81a2,2,0,0,0-.4-1.29,1.37,1.37,0,0,0-1.1-.46,1.55,1.55,0,0,0-1.15.49A2.21,2.21,0,0,0,23,6.47Z" fill="#065fa3"/><path d="M31.76,5A1.18,1.18,0,0,0,31,4.82a1.23,1.23,0,0,0-1,.58A2.68,2.68,0,0,0,29.59,7V10h-1V4h1V5.28h0a2.1,2.1,0,0,1,.63-1,1.43,1.43,0,0,1,.94-.35,1.57,1.57,0,0,1,.57.08Z" fill="#065fa3"/><path d="M33.76,10h-1V1.16h1Z" fill="#065fa3"/><path d="M36.2,2.52a.61.61,0,0,1-.44-.18.59.59,0,0,1-.18-.45.62.62,0,0,1,.62-.63.62.62,0,0,1,.45.18.6.6,0,0,1,.18.45.59.59,0,0,1-.18.44A.62.62,0,0,1,36.2,2.52ZM36.67,10h-1V4h1Z" fill="#065fa3"/><path d="M43.59,10h-1V6.62q0-1.91-1.39-1.91A1.51,1.51,0,0,0,40,5.25a2,2,0,0,0-.47,1.37V10h-1V4h1V5h0a2.17,2.17,0,0,1,2-1.14,1.84,1.84,0,0,1,1.51.64,2.83,2.83,0,0,1,.52,1.84Z" fill="#065fa3"/><path d="M50.38,10H49L46.39,7.16h0V10h-1V1.16h1V6.79h0L48.91,4h1.26L47.38,6.94Z" fill="#065fa3"/><path d="M0,11.44v-.7H50.4v.7Z" fill="#065fa3"/></svg>