<svg id="Layer_1" data-name="Layer 1" xmlns="http://www.w3.org/2000/svg" width="230" height="65" viewBox="0 0 230 65"><title>hyperlink-visual-specs</title><path d="M9.46,15.2H5.1V6.8h1v7.51H9.46Z" fill="#065fa3"/><path d="M15.44,12.44H11.21A2.24,2.24,0,0,0,11.75,14a1.86,1.86,0,0,0,1.42.54A3,3,0,0,0,15,13.87v.9a3.48,3.48,0,0,1-2.09.57,2.54,2.54,0,0,1-2-.82,3.35,3.35,0,0,1-.73-2.3A3.28,3.28,0,0,1,11,9.94a2.55,2.55,0,0,1,2-.88,2.26,2.26,0,0,1,1.82.76,3.18,3.18,0,0,1,.64,2.12Zm-1-.81a2,2,0,0,0-.4-1.29A1.37,1.37,0,0,0,13,9.87a1.55,1.55,0,0,0-1.15.49,2.21,2.21,0,0,0-.59,1.27Z" fill="#065fa3"/><path d="M21.19,15.2h-1v-.94h0a2,2,0,0,1-1.85,1.08,2,2,0,0,1-1.4-.47,1.64,1.64,0,0,1-.51-1.26q0-1.68,2-2l1.8-.25q0-1.53-1.24-1.53a3,3,0,0,0-2,.74v-1a3.72,3.72,0,0,1,2-.56q2.12,0,2.12,2.24Zm-1-3-1.45.2a2.35,2.35,0,0,0-1,.33,1,1,0,0,0-.34.84.92.92,0,0,0,.31.72,1.21,1.21,0,0,0,.83.28,1.54,1.54,0,0,0,1.18-.5,1.79,1.79,0,0,0,.47-1.27Z" fill="#065fa3"/><path d="M26.13,10.17A1.18,1.18,0,0,0,25.4,10a1.23,1.23,0,0,0-1,.58A2.68,2.68,0,0,0,24,12.14V15.2H23v-6h1v1.24h0a2.1,2.1,0,0,1,.63-1,1.43,1.43,0,0,1,.94-.35,1.57,1.57,0,0,1,.57.08Z" fill="#065fa3"/><path d="M32.13,15.2h-1V11.78q0-1.91-1.39-1.91a1.51,1.51,0,0,0-1.19.54,2,2,0,0,0-.47,1.37V15.2h-1v-6h1v1h0a2.17,2.17,0,0,1,2-1.14,1.84,1.84,0,0,1,1.51.64,2.83,2.83,0,0,1,.52,1.84Z" fill="#065fa3"/><path d="M45.75,15.2h-1V11.76a2.6,2.6,0,0,0-.31-1.44,1.17,1.17,0,0,0-1-.45,1.28,1.28,0,0,0-1,.56A2.15,2.15,0,0,0,42,11.78V15.2H41V11.64q0-1.77-1.37-1.77a1.26,1.26,0,0,0-1,.53,2.19,2.19,0,0,0-.41,1.38V15.2h-1v-6h1v.95h0a2,2,0,0,1,1.86-1.09,1.73,1.73,0,0,1,1.7,1.24,2.14,2.14,0,0,1,2-1.24q2,0,2,2.44Z" fill="#065fa3"/><path d="M50.07,15.34a2.78,2.78,0,0,1-2.12-.84,3.11,3.11,0,0,1-.79-2.23A3.24,3.24,0,0,1,48,9.91a3,3,0,0,1,2.23-.85,2.69,2.69,0,0,1,2.09.83,3.28,3.28,0,0,1,.75,2.29,3.22,3.22,0,0,1-.81,2.3A2.84,2.84,0,0,1,50.07,15.34Zm.07-5.47a1.83,1.83,0,0,0-1.46.63,2.59,2.59,0,0,0-.54,1.74,2.45,2.45,0,0,0,.54,1.68,1.85,1.85,0,0,0,1.46.62,1.76,1.76,0,0,0,1.43-.6,2.62,2.62,0,0,0,.5-1.72,2.66,2.66,0,0,0-.5-1.73A1.75,1.75,0,0,0,50.14,9.87Z" fill="#065fa3"/><path d="M57.72,10.17A1.18,1.18,0,0,0,57,10a1.23,1.23,0,0,0-1,.58,2.68,2.68,0,0,0-.41,1.58V15.2h-1v-6h1v1.24h0a2.1,2.1,0,0,1,.63-1,1.43,1.43,0,0,1,.94-.35,1.57,1.57,0,0,1,.57.08Z" fill="#065fa3"/><path d="M63.43,12.44H59.2A2.24,2.24,0,0,0,59.73,14a1.86,1.86,0,0,0,1.42.54A3,3,0,0,0,63,13.87v.9a3.48,3.48,0,0,1-2.09.57,2.54,2.54,0,0,1-2-.82,3.35,3.35,0,0,1-.73-2.3A3.28,3.28,0,0,1,59,9.94a2.55,2.55,0,0,1,2-.88,2.26,2.26,0,0,1,1.82.76,3.18,3.18,0,0,1,.64,2.12Zm-1-.81a2,2,0,0,0-.4-1.29,1.37,1.37,0,0,0-1.1-.46,1.55,1.55,0,0,0-1.15.49,2.21,2.21,0,0,0-.59,1.27Z" fill="#065fa3"/><g id="link_select"><path d="M105.92,10.11h-3v2.66h2.78v.81h-2.78V17H102V9.3h3.91Z" fill="#ec008c"/><path d="M109.56,17.13a2.55,2.55,0,0,1-1.95-.77,2.86,2.86,0,0,1-.73-2,3,3,0,0,1,.76-2.16,2.72,2.72,0,0,1,2-.78,2.47,2.47,0,0,1,1.92.76,3,3,0,0,1,.69,2.1,3,3,0,0,1-.74,2.11A2.61,2.61,0,0,1,109.56,17.13Zm.06-5a1.68,1.68,0,0,0-1.34.58,2.37,2.37,0,0,0-.49,1.59,2.24,2.24,0,0,0,.5,1.54,1.7,1.7,0,0,0,1.34.56,1.61,1.61,0,0,0,1.31-.55,2.4,2.4,0,0,0,.46-1.57,2.44,2.44,0,0,0-.46-1.59A1.6,1.6,0,0,0,109.63,12.11Z" fill="#ec008c"/><path d="M118.27,17h-.88V13.86q0-1.75-1.28-1.75a1.39,1.39,0,0,0-1.09.5,1.84,1.84,0,0,0-.43,1.25V17h-.88V11.5h.88v.91h0a2,2,0,0,1,1.8-1,1.68,1.68,0,0,1,1.38.58,2.59,2.59,0,0,1,.48,1.68Z" fill="#ec008c"/><path d="M122.48,16.95a1.7,1.7,0,0,1-.82.17q-1.44,0-1.44-1.61V12.25h-.95V11.5h.95V10.16l.88-.28V11.5h1.39v.75H121.1v3.1a1.29,1.29,0,0,0,.19.79.75.75,0,0,0,.62.24.93.93,0,0,0,.57-.18Z" fill="#ec008c"/><path d="M124,12.57a.57.57,0,0,1-.42-.18.58.58,0,0,1-.18-.42.56.56,0,0,1,.18-.42.57.57,0,0,1,.42-.17.59.59,0,0,1,.43.17.56.56,0,0,1,.18.42.61.61,0,0,1-.61.6Zm0,4.54a.57.57,0,0,1-.42-.18.6.6,0,0,1,0-.85.56.56,0,0,1,.42-.18.58.58,0,0,1,.43.18.6.6,0,0,1-.43,1Z" fill="#ec008c"/><path d="M130.08,17h-.9V9.3h.9Z" fill="#ec008c"/><path d="M136.68,17h-.88v-.93h0a2,2,0,0,1-1.89,1.06,2.05,2.05,0,0,1-1.66-.74,3,3,0,0,1-.62-2,3.3,3.3,0,0,1,.69-2.19,2.27,2.27,0,0,1,1.83-.82,1.76,1.76,0,0,1,1.65.89h0V8.86h.88Zm-.88-2.49V13.7a1.58,1.58,0,0,0-.44-1.13,1.48,1.48,0,0,0-1.12-.46,1.52,1.52,0,0,0-1.27.59,2.59,2.59,0,0,0-.46,1.63,2.33,2.33,0,0,0,.44,1.5,1.45,1.45,0,0,0,1.19.55,1.5,1.5,0,0,0,1.2-.53A2,2,0,0,0,135.8,14.51Z" fill="#ec008c"/><path d="M142.88,14.47H139a2.05,2.05,0,0,0,.49,1.42,1.7,1.7,0,0,0,1.3.5,2.71,2.71,0,0,0,1.71-.61v.83a3.2,3.2,0,0,1-1.92.53,2.33,2.33,0,0,1-1.83-.75,3.07,3.07,0,0,1-.67-2.11,3,3,0,0,1,.73-2.09,2.33,2.33,0,0,1,1.81-.81,2.06,2.06,0,0,1,1.67.7,2.91,2.91,0,0,1,.59,1.94Zm-.9-.75a1.8,1.8,0,0,0-.37-1.19,1.26,1.26,0,0,0-1-.42,1.42,1.42,0,0,0-1.06.45,2,2,0,0,0-.54,1.17Z" fill="#ec008c"/><path d="M148.24,10.11h-3v2.66H148v.81h-2.78V17h-.9V9.3h3.91Z" fill="#ec008c"/><path d="M151.89,17.13a2.55,2.55,0,0,1-1.95-.77,2.85,2.85,0,0,1-.73-2,3,3,0,0,1,.76-2.16,2.72,2.72,0,0,1,2-.78,2.47,2.47,0,0,1,1.92.76,3,3,0,0,1,.69,2.1,3,3,0,0,1-.74,2.11A2.6,2.6,0,0,1,151.89,17.13Zm.06-5a1.68,1.68,0,0,0-1.34.58,2.38,2.38,0,0,0-.49,1.59,2.24,2.24,0,0,0,.5,1.54,1.7,1.7,0,0,0,1.34.56,1.61,1.61,0,0,0,1.31-.55,2.39,2.39,0,0,0,.46-1.57,2.44,2.44,0,0,0-.46-1.59A1.6,1.6,0,0,0,152,12.11Z" fill="#ec008c"/><path d="M160.6,17h-.88V13.86q0-1.75-1.28-1.75a1.39,1.39,0,0,0-1.09.5,1.85,1.85,0,0,0-.43,1.25V17H156V11.5h.88v.91h0a2,2,0,0,1,1.8-1,1.68,1.68,0,0,1,1.38.58,2.59,2.59,0,0,1,.48,1.68Z" fill="#ec008c"/><path d="M164.81,16.95a1.7,1.7,0,0,1-.82.17q-1.44,0-1.45-1.61V12.25h-.95V11.5h.95V10.16l.88-.28V11.5h1.39v.75h-1.39v3.1a1.29,1.29,0,0,0,.19.79.75.75,0,0,0,.62.24.93.93,0,0,0,.57-.18Z" fill="#ec008c"/><path d="M101.65,29.89V28.83a2.05,2.05,0,0,0,.44.29,3.57,3.57,0,0,0,.54.22,4.34,4.34,0,0,0,.57.14,3.16,3.16,0,0,0,.53,0,2.06,2.06,0,0,0,1.24-.31,1.16,1.16,0,0,0,.27-1.43,1.55,1.55,0,0,0-.38-.42,3.74,3.74,0,0,0-.57-.37l-.71-.37c-.27-.14-.52-.27-.75-.41a3.28,3.28,0,0,1-.61-.46,1.92,1.92,0,0,1-.41-.57,1.94,1.94,0,0,1,.08-1.67,2,2,0,0,1,.61-.64,2.76,2.76,0,0,1,.86-.37,3.89,3.89,0,0,1,1-.12,3.74,3.74,0,0,1,1.66.27v1a3,3,0,0,0-1.75-.47,2.89,2.89,0,0,0-.59.06,1.67,1.67,0,0,0-.53.2,1.17,1.17,0,0,0-.38.36,1,1,0,0,0-.15.54,1.11,1.11,0,0,0,.11.51,1.25,1.25,0,0,0,.33.39,3.26,3.26,0,0,0,.52.34l.71.37q.41.2.78.43a3.64,3.64,0,0,1,.65.5,2.26,2.26,0,0,1,.44.61,1.7,1.7,0,0,1,.16.76,1.93,1.93,0,0,1-.22,1,1.83,1.83,0,0,1-.6.64,2.65,2.65,0,0,1-.87.36,4.79,4.79,0,0,1-1,.11l-.45,0-.55-.09a4.55,4.55,0,0,1-.53-.14A1.63,1.63,0,0,1,101.65,29.89Z" fill="#ec008c"/><path d="M108.19,23.3a.56.56,0,0,1-.4-.16.55.55,0,0,1-.17-.41.56.56,0,0,1,.57-.57.57.57,0,0,1,.41.16.58.58,0,0,1,0,.81A.57.57,0,0,1,108.19,23.3Zm.43,6.9h-.88V24.7h.88Z" fill="#ec008c"/><path d="M114.23,25,111,29.45h3.22v.75h-4.52v-.27l3.25-4.47H110V24.7h4.24Z" fill="#ec008c"/><path d="M119.79,27.67h-3.88a2.06,2.06,0,0,0,.49,1.42,1.71,1.71,0,0,0,1.3.5,2.7,2.7,0,0,0,1.71-.61v.83a3.19,3.19,0,0,1-1.92.53,2.33,2.33,0,0,1-1.83-.75,3.07,3.07,0,0,1-.67-2.11,3,3,0,0,1,.73-2.09,2.33,2.33,0,0,1,1.81-.81,2.07,2.07,0,0,1,1.67.7,2.91,2.91,0,0,1,.59,1.94Zm-.9-.75a1.79,1.79,0,0,0-.37-1.19,1.25,1.25,0,0,0-1-.42,1.42,1.42,0,0,0-1.06.45,2,2,0,0,0-.54,1.17Z" fill="#ec008c"/><path d="M121.43,25.77a.56.56,0,0,1-.42-.18.58.58,0,0,1-.18-.42.56.56,0,0,1,.18-.42.58.58,0,0,1,.42-.17.59.59,0,0,1,.43.17.56.56,0,0,1,.18.42.61.61,0,0,1-.61.6Zm0,4.54a.57.57,0,0,1-.42-.18.58.58,0,0,1-.18-.42.59.59,0,0,1,.18-.43.56.56,0,0,1,.42-.18.58.58,0,0,1,.43.18.58.58,0,0,1,.18.43.58.58,0,0,1-.18.42A.58.58,0,0,1,121.43,30.32Z" fill="#ec008c"/><path d="M127.54,30.2h-.9V22.5h.9Z" fill="#ec008c"/><path d="M134.14,30.2h-.88v-.93h0a2,2,0,0,1-1.89,1.06,2.05,2.05,0,0,1-1.66-.74,3,3,0,0,1-.62-2,3.3,3.3,0,0,1,.69-2.19,2.27,2.27,0,0,1,1.83-.82,1.76,1.76,0,0,1,1.65.89h0V22.06h.88Zm-.88-2.49V26.9a1.57,1.57,0,0,0-.44-1.13,1.48,1.48,0,0,0-1.12-.46,1.52,1.52,0,0,0-1.27.59,2.59,2.59,0,0,0-.46,1.63,2.33,2.33,0,0,0,.44,1.5,1.45,1.45,0,0,0,1.19.55,1.5,1.5,0,0,0,1.2-.53A2,2,0,0,0,133.26,27.71Z" fill="#ec008c"/><path d="M140.35,27.67h-3.88a2.05,2.05,0,0,0,.49,1.42,1.7,1.7,0,0,0,1.3.5A2.71,2.71,0,0,0,140,29v.83a3.2,3.2,0,0,1-1.92.53,2.33,2.33,0,0,1-1.83-.75,3.07,3.07,0,0,1-.67-2.11,3,3,0,0,1,.73-2.09,2.33,2.33,0,0,1,1.81-.81,2.06,2.06,0,0,1,1.67.7,2.91,2.91,0,0,1,.59,1.94Zm-.9-.75a1.8,1.8,0,0,0-.37-1.19,1.26,1.26,0,0,0-1-.42,1.42,1.42,0,0,0-1.06.45,2,2,0,0,0-.54,1.17Z" fill="#ec008c"/><path d="M145.71,23.31h-3V26h2.78v.81H142.7V30.2h-.9V22.5h3.91Z" fill="#ec008c"/><path d="M149.35,30.33a2.55,2.55,0,0,1-1.95-.77,2.85,2.85,0,0,1-.73-2,3,3,0,0,1,.76-2.16,2.72,2.72,0,0,1,2-.78,2.46,2.46,0,0,1,1.92.76,3,3,0,0,1,.69,2.1,3,3,0,0,1-.74,2.11A2.6,2.6,0,0,1,149.35,30.33Zm.06-5a1.68,1.68,0,0,0-1.34.58,2.38,2.38,0,0,0-.49,1.59,2.24,2.24,0,0,0,.5,1.54,1.7,1.7,0,0,0,1.34.56,1.61,1.61,0,0,0,1.31-.55,2.39,2.39,0,0,0,.46-1.57,2.44,2.44,0,0,0-.46-1.59A1.6,1.6,0,0,0,149.42,25.31Z" fill="#ec008c"/><path d="M158.06,30.2h-.88V27.06q0-1.75-1.28-1.75a1.39,1.39,0,0,0-1.09.5,1.85,1.85,0,0,0-.43,1.25V30.2h-.88V24.7h.88v.91h0a2,2,0,0,1,1.8-1,1.68,1.68,0,0,1,1.38.58,2.59,2.59,0,0,1,.48,1.68Z" fill="#ec008c"/><path d="M162.27,30.15a1.7,1.7,0,0,1-.82.17q-1.44,0-1.45-1.61V25.45h-.95V24.7H160V23.36l.88-.28V24.7h1.39v.75h-1.39v3.1a1.28,1.28,0,0,0,.19.79.75.75,0,0,0,.62.24.93.93,0,0,0,.57-.18Z" fill="#ec008c"/><path d="M163.21,29.89V28.83a2.05,2.05,0,0,0,.44.29,3.61,3.61,0,0,0,.54.22,4.34,4.34,0,0,0,.57.14,3.16,3.16,0,0,0,.53,0,2.06,2.06,0,0,0,1.24-.31,1,1,0,0,0,.41-.89,1.05,1.05,0,0,0-.14-.54,1.56,1.56,0,0,0-.38-.42,3.78,3.78,0,0,0-.57-.37l-.71-.37c-.27-.14-.52-.27-.75-.41a3.27,3.27,0,0,1-.61-.46,1.94,1.94,0,0,1-.41-.57,1.78,1.78,0,0,1-.15-.75,1.76,1.76,0,0,1,.23-.92,2,2,0,0,1,.61-.64,2.77,2.77,0,0,1,.86-.37,3.89,3.89,0,0,1,1-.12,3.74,3.74,0,0,1,1.66.27v1a3,3,0,0,0-1.75-.47,2.88,2.88,0,0,0-.59.06,1.68,1.68,0,0,0-.53.2,1.16,1.16,0,0,0-.37.36,1,1,0,0,0-.15.54,1.1,1.1,0,0,0,.11.51,1.25,1.25,0,0,0,.32.39,3.35,3.35,0,0,0,.52.34l.71.37q.41.2.78.43a3.57,3.57,0,0,1,.65.5,2.26,2.26,0,0,1,.44.61,1.7,1.7,0,0,1,.16.76,1.93,1.93,0,0,1-.22,1,1.83,1.83,0,0,1-.6.64,2.66,2.66,0,0,1-.87.36,4.8,4.8,0,0,1-1,.11l-.45,0-.55-.09a4.45,4.45,0,0,1-.53-.14A1.64,1.64,0,0,1,163.21,29.89Z" fill="#ec008c"/><path d="M169.75,23.3a.56.56,0,0,1-.4-.16.55.55,0,0,1-.17-.41.56.56,0,0,1,.57-.57.57.57,0,0,1,.41.16.57.57,0,0,1,0,.81A.57.57,0,0,1,169.75,23.3Zm.43,6.9h-.88V24.7h.88Z" fill="#ec008c"/><path d="M175.79,25l-3.25,4.5h3.22v.75h-4.52v-.27l3.25-4.47h-2.95V24.7h4.24Z" fill="#ec008c"/><path d="M181.35,27.67h-3.88a2.05,2.05,0,0,0,.49,1.42,1.7,1.7,0,0,0,1.3.5A2.71,2.71,0,0,0,181,29v.83a3.2,3.2,0,0,1-1.92.53,2.33,2.33,0,0,1-1.83-.75,3.07,3.07,0,0,1-.67-2.11,3,3,0,0,1,.73-2.09,2.33,2.33,0,0,1,1.81-.81,2.06,2.06,0,0,1,1.67.7,2.91,2.91,0,0,1,.59,1.94Zm-.9-.75a1.8,1.8,0,0,0-.37-1.19,1.26,1.26,0,0,0-1-.42,1.42,1.42,0,0,0-1.06.45,2,2,0,0,0-.54,1.17Z" fill="#ec008c"/><path d="M111.14,35.7,109,43.4h-1.06l-1.58-5.63a3.58,3.58,0,0,1-.12-.78h0a4,4,0,0,1-.14.77l-1.59,5.64h-1l-2.26-7.7h1l1.64,5.91a3.83,3.83,0,0,1,.13.77h0a4.57,4.57,0,0,1,.17-.77l1.7-5.91h.86l1.63,6a4.29,4.29,0,0,1,.13.72h0a4.28,4.28,0,0,1,.15-.74l1.57-5.93Z" fill="#ec008c"/><path d="M116.32,40.87h-3.88a2.06,2.06,0,0,0,.49,1.42,1.71,1.71,0,0,0,1.3.5,2.7,2.7,0,0,0,1.71-.61V43a3.19,3.19,0,0,1-1.92.53,2.33,2.33,0,0,1-1.83-.75,3.07,3.07,0,0,1-.67-2.11,3,3,0,0,1,.73-2.09,2.33,2.33,0,0,1,1.81-.81,2.07,2.07,0,0,1,1.67.7,2.91,2.91,0,0,1,.59,1.94Zm-.9-.75a1.79,1.79,0,0,0-.37-1.19,1.25,1.25,0,0,0-1-.42A1.42,1.42,0,0,0,113,39a2,2,0,0,0-.54,1.17Z" fill="#ec008c"/><path d="M118.11,36.5a.56.56,0,0,1-.4-.16.55.55,0,0,1-.17-.41.56.56,0,0,1,.57-.58.57.57,0,0,1,.41.16.58.58,0,0,1,0,.81A.57.57,0,0,1,118.11,36.5Zm.43,6.9h-.88V37.9h.88Z" fill="#ec008c"/><path d="M125,43q0,3-2.9,3a3.9,3.9,0,0,1-1.78-.39v-.88a3.66,3.66,0,0,0,1.77.52q2,0,2-2.16v-.6h0a2.22,2.22,0,0,1-3.54.32,2.93,2.93,0,0,1-.63-2,3.43,3.43,0,0,1,.67-2.23,2.25,2.25,0,0,1,1.85-.83,1.79,1.79,0,0,1,1.65.89h0V37.9H125Zm-.88-2V40.1a1.57,1.57,0,0,0-.44-1.12,1.45,1.45,0,0,0-1.1-.47,1.53,1.53,0,0,0-1.28.59,2.64,2.64,0,0,0-.46,1.66,2.27,2.27,0,0,0,.44,1.47,1.43,1.43,0,0,0,1.17.55,1.53,1.53,0,0,0,1.21-.53A2,2,0,0,0,124.13,40.91Z" fill="#ec008c"/><path d="M131.36,43.4h-.88V40.23q0-1.72-1.28-1.72a1.4,1.4,0,0,0-1.09.5,1.85,1.85,0,0,0-.44,1.28V43.4h-.88V35.26h.88v3.56h0a2,2,0,0,1,1.8-1q1.86,0,1.86,2.24Z" fill="#ec008c"/><path d="M135.57,43.35a1.7,1.7,0,0,1-.82.17q-1.44,0-1.45-1.61V38.65h-.95V37.9h.95V36.56l.88-.28V37.9h1.39v.75h-1.39v3.1a1.28,1.28,0,0,0,.19.79.75.75,0,0,0,.62.24.93.93,0,0,0,.57-.18Z" fill="#ec008c"/><path d="M137.06,39a.57.57,0,0,1-.42-.18.58.58,0,0,1-.17-.42.57.57,0,0,1,.17-.42.58.58,0,0,1,.42-.17.59.59,0,0,1,.43.17.56.56,0,0,1,.18.42.57.57,0,0,1-.18.42A.58.58,0,0,1,137.06,39Zm0,4.54a.58.58,0,0,1-.42-.18.59.59,0,0,1-.17-.42.6.6,0,0,1,.17-.43.57.57,0,0,1,.42-.18.6.6,0,0,1,.43,1A.59.59,0,0,1,137.06,43.52Z" fill="#ec008c"/><path d="M143.17,43.4h-.9V35.7h.9Z" fill="#ec008c"/><path d="M149.77,43.4h-.88v-.93h0A2,2,0,0,1,147,43.53a2.05,2.05,0,0,1-1.66-.74,3,3,0,0,1-.62-2,3.3,3.3,0,0,1,.69-2.19,2.27,2.27,0,0,1,1.83-.82,1.76,1.76,0,0,1,1.65.89h0V35.26h.88Zm-.88-2.49V40.1a1.57,1.57,0,0,0-.44-1.13,1.48,1.48,0,0,0-1.12-.46,1.52,1.52,0,0,0-1.27.59,2.59,2.59,0,0,0-.46,1.63,2.33,2.33,0,0,0,.44,1.5,1.45,1.45,0,0,0,1.19.55,1.5,1.5,0,0,0,1.2-.53A2,2,0,0,0,148.89,40.91Z" fill="#ec008c"/><path d="M156,40.87h-3.88a2.07,2.07,0,0,0,.49,1.42,1.71,1.71,0,0,0,1.3.5,2.7,2.7,0,0,0,1.71-.61V43a3.19,3.19,0,0,1-1.92.53,2.33,2.33,0,0,1-1.83-.75,3.06,3.06,0,0,1-.67-2.11,3,3,0,0,1,.73-2.09,2.34,2.34,0,0,1,1.81-.81,2.07,2.07,0,0,1,1.67.7,2.91,2.91,0,0,1,.59,1.94Zm-.9-.75a1.79,1.79,0,0,0-.37-1.19,1.25,1.25,0,0,0-1-.42,1.42,1.42,0,0,0-1.06.45,2,2,0,0,0-.54,1.17Z" fill="#ec008c"/><path d="M161.33,36.51h-3v2.66h2.78V40h-2.78V43.4h-.9V35.7h3.91Z" fill="#ec008c"/><path d="M165,43.53a2.55,2.55,0,0,1-1.95-.77,2.85,2.85,0,0,1-.73-2,3,3,0,0,1,.76-2.16,2.72,2.72,0,0,1,2-.78,2.46,2.46,0,0,1,1.92.76,3,3,0,0,1,.69,2.1,3,3,0,0,1-.74,2.11A2.6,2.6,0,0,1,165,43.53Zm.06-5a1.68,1.68,0,0,0-1.34.58,2.38,2.38,0,0,0-.49,1.59,2.24,2.24,0,0,0,.5,1.54,1.7,1.7,0,0,0,1.34.56,1.61,1.61,0,0,0,1.31-.55,2.39,2.39,0,0,0,.46-1.57,2.44,2.44,0,0,0-.46-1.59A1.6,1.6,0,0,0,165,38.51Z" fill="#ec008c"/><path d="M173.69,43.4h-.88V40.26q0-1.75-1.28-1.75a1.39,1.39,0,0,0-1.09.5,1.85,1.85,0,0,0-.43,1.25V43.4h-.88V37.9H170v.91h0a2,2,0,0,1,1.8-1,1.68,1.68,0,0,1,1.38.58,2.59,2.59,0,0,1,.48,1.68Z" fill="#ec008c"/><path d="M177.9,43.35a1.7,1.7,0,0,1-.82.17q-1.44,0-1.45-1.61V38.65h-.95V37.9h.95V36.56l.88-.28V37.9h1.39v.75h-1.39v3.1a1.28,1.28,0,0,0,.19.79.75.75,0,0,0,.62.24.93.93,0,0,0,.57-.18Z" fill="#ec008c"/><path d="M188.32,35.7l-2.18,7.7h-1.06l-1.58-5.63a3.47,3.47,0,0,1-.12-.78h0a3.94,3.94,0,0,1-.14.77l-1.59,5.64h-1l-2.26-7.7h1L181,41.61a3.83,3.83,0,0,1,.13.77h0a4.47,4.47,0,0,1,.17-.77L183,35.7h.86l1.63,6a4.1,4.1,0,0,1,.13.72h0a4.3,4.3,0,0,1,.15-.74l1.57-5.93Z" fill="#ec008c"/><path d="M193.51,40.87h-3.88a2.07,2.07,0,0,0,.49,1.42,1.71,1.71,0,0,0,1.3.5,2.7,2.7,0,0,0,1.71-.61V43a3.19,3.19,0,0,1-1.92.53,2.33,2.33,0,0,1-1.83-.75,3.06,3.06,0,0,1-.67-2.11,3,3,0,0,1,.73-2.09,2.34,2.34,0,0,1,1.81-.81,2.07,2.07,0,0,1,1.67.7,2.91,2.91,0,0,1,.59,1.94Zm-.9-.75a1.79,1.79,0,0,0-.37-1.19,1.25,1.25,0,0,0-1-.42,1.42,1.42,0,0,0-1.06.45,2,2,0,0,0-.54,1.17Z" fill="#ec008c"/><path d="M195.29,36.5a.56.56,0,0,1-.4-.16.55.55,0,0,1-.17-.41.56.56,0,0,1,.57-.58.57.57,0,0,1,.41.16.57.57,0,0,1,0,.81A.57.57,0,0,1,195.29,36.5Zm.43,6.9h-.88V37.9h.88Z" fill="#ec008c"/><path d="M202.2,43q0,3-2.9,3a3.9,3.9,0,0,1-1.78-.39v-.88a3.66,3.66,0,0,0,1.77.52q2,0,2-2.16v-.6h0a2.22,2.22,0,0,1-3.54.32,2.92,2.92,0,0,1-.63-2,3.43,3.43,0,0,1,.67-2.23,2.25,2.25,0,0,1,1.85-.83,1.79,1.79,0,0,1,1.65.89h0V37.9h.88Zm-.88-2V40.1a1.57,1.57,0,0,0-.44-1.12,1.45,1.45,0,0,0-1.1-.47,1.53,1.53,0,0,0-1.28.59,2.64,2.64,0,0,0-.46,1.66,2.28,2.28,0,0,0,.44,1.47,1.43,1.43,0,0,0,1.17.55,1.53,1.53,0,0,0,1.21-.53A2,2,0,0,0,201.32,40.91Z" fill="#ec008c"/><path d="M208.54,43.4h-.88V40.23q0-1.72-1.28-1.72a1.4,1.4,0,0,0-1.09.5,1.85,1.85,0,0,0-.44,1.28V43.4H204V35.26h.88v3.56h0a2,2,0,0,1,1.8-1q1.86,0,1.86,2.24Z" fill="#ec008c"/><path d="M212.76,43.35a1.71,1.71,0,0,1-.82.17q-1.44,0-1.45-1.61V38.65h-.95V37.9h.95V36.56l.88-.28V37.9h1.39v.75h-1.39v3.1a1.29,1.29,0,0,0,.19.79.75.75,0,0,0,.62.24.93.93,0,0,0,.58-.18Z" fill="#ec008c"/><path d="M107.25,56.28a4.52,4.52,0,0,1-2.13.45,3.43,3.43,0,0,1-2.63-1.06,3.9,3.9,0,0,1-1-2.78,4.09,4.09,0,0,1,1.11-3,3.77,3.77,0,0,1,2.82-1.14,4.51,4.51,0,0,1,1.82.32v1a3.69,3.69,0,0,0-1.83-.46,2.81,2.81,0,0,0-2.15.89,3.34,3.34,0,0,0-.82,2.37,3.18,3.18,0,0,0,.77,2.24,2.62,2.62,0,0,0,2,.84,3.79,3.79,0,0,0,2-.52Z" fill="#ec008c"/><path d="M111,56.73a2.55,2.55,0,0,1-1.95-.77,2.85,2.85,0,0,1-.73-2,3,3,0,0,1,.76-2.16,2.72,2.72,0,0,1,2-.78,2.46,2.46,0,0,1,1.92.76,3,3,0,0,1,.69,2.1,3,3,0,0,1-.74,2.11A2.61,2.61,0,0,1,111,56.73Zm.06-5a1.68,1.68,0,0,0-1.34.58,2.37,2.37,0,0,0-.49,1.59,2.24,2.24,0,0,0,.5,1.54,1.7,1.7,0,0,0,1.34.56,1.61,1.61,0,0,0,1.31-.55,2.4,2.4,0,0,0,.46-1.57,2.44,2.44,0,0,0-.46-1.59A1.61,1.61,0,0,0,111.07,51.71Z" fill="#ec008c"/><path d="M116,56.6h-.88V48.46H116Z" fill="#ec008c"/><path d="M120.11,56.73a2.55,2.55,0,0,1-1.95-.77,2.85,2.85,0,0,1-.73-2,3,3,0,0,1,.76-2.16,2.72,2.72,0,0,1,2-.78,2.46,2.46,0,0,1,1.92.76,3,3,0,0,1,.69,2.1,3,3,0,0,1-.74,2.11A2.6,2.6,0,0,1,120.11,56.73Zm.06-5a1.68,1.68,0,0,0-1.34.58,2.37,2.37,0,0,0-.49,1.59,2.24,2.24,0,0,0,.5,1.54,1.7,1.7,0,0,0,1.34.56,1.61,1.61,0,0,0,1.31-.55,2.39,2.39,0,0,0,.46-1.57,2.44,2.44,0,0,0-.46-1.59A1.6,1.6,0,0,0,120.18,51.71Z" fill="#ec008c"/><path d="M127.13,52a1.08,1.08,0,0,0-.67-.18,1.12,1.12,0,0,0-.94.53,2.45,2.45,0,0,0-.38,1.45v2.8h-.88V51.1h.88v1.13h0a1.92,1.92,0,0,1,.57-.9,1.31,1.31,0,0,1,.87-.33,1.44,1.44,0,0,1,.53.08Z" fill="#ec008c"/><path d="M128.83,52.17a.57.57,0,0,1-.42-.18.58.58,0,0,1-.17-.42.57.57,0,0,1,.17-.42.58.58,0,0,1,.42-.17.59.59,0,0,1,.43.17.56.56,0,0,1,.18.42.57.57,0,0,1-.18.42A.58.58,0,0,1,128.83,52.17Zm0,4.54a.58.58,0,0,1-.42-.18.59.59,0,0,1-.17-.42.6.6,0,0,1,.17-.43.57.57,0,0,1,.42-.18.6.6,0,0,1,.43,1A.59.59,0,0,1,128.83,56.72Z" fill="#ec008c"/><path d="M140.25,56.6h-1.11l-4-6.14a2.6,2.6,0,0,1-.25-.48h0a7.82,7.82,0,0,1,0,1.06V56.6H134V48.9h1.17l3.86,6c.16.25.27.42.31.52h0a7.9,7.9,0,0,1-.05-1.13V48.9h.9Z" fill="#ec008c"/><path d="M143.17,56.6h-.9V48.9h.9Z" fill="#ec008c"/><path d="M145.19,56.6V48.9h2.19a2.39,2.39,0,0,1,1.58.49,1.58,1.58,0,0,1,.59,1.27,1.87,1.87,0,0,1-.35,1.14,1.91,1.91,0,0,1-1,.69v0a2,2,0,0,1,1.25.59,1.8,1.8,0,0,1,.47,1.29,2,2,0,0,1-.71,1.6,2.64,2.64,0,0,1-1.79.61Zm.9-6.89V52.2H147a1.76,1.76,0,0,0,1.17-.36,1.24,1.24,0,0,0,.42-1q0-1.12-1.48-1.12Zm0,3.3v2.77h1.22a1.83,1.83,0,0,0,1.23-.38,1.29,1.29,0,0,0,.44-1Q149,53,147.13,53Z" fill="#ec008c"/><path d="M152.26,56.6h-.88V48.46h.88Z" fill="#ec008c"/><path d="M158.49,56.6h-.88v-.87h0a1.81,1.81,0,0,1-1.7,1q-2,0-2-2.34V51.1h.88v3.15q0,1.74,1.33,1.74a1.35,1.35,0,0,0,1.06-.48,1.82,1.82,0,0,0,.42-1.24V51.1h.88Z" fill="#ec008c"/><path d="M164.69,54.07h-3.88a2.05,2.05,0,0,0,.49,1.42,1.7,1.7,0,0,0,1.3.5,2.71,2.71,0,0,0,1.71-.61v.83a3.2,3.2,0,0,1-1.92.53,2.33,2.33,0,0,1-1.83-.75,3.07,3.07,0,0,1-.67-2.11,3,3,0,0,1,.73-2.09,2.33,2.33,0,0,1,1.81-.81,2.06,2.06,0,0,1,1.67.7,2.91,2.91,0,0,1,.59,1.94Zm-.9-.75a1.8,1.8,0,0,0-.37-1.19,1.26,1.26,0,0,0-1-.42,1.42,1.42,0,0,0-1.06.45,2,2,0,0,0-.54,1.17Z" fill="#ec008c"/><path d="M166.14,56.6V48.9h2.19a2.39,2.39,0,0,1,1.58.49,1.58,1.58,0,0,1,.59,1.27,1.87,1.87,0,0,1-.35,1.14,1.91,1.91,0,0,1-1,.69v0a2,2,0,0,1,1.25.59,1.8,1.8,0,0,1,.47,1.29,2,2,0,0,1-.71,1.6,2.64,2.64,0,0,1-1.79.61Zm.9-6.89V52.2H168a1.76,1.76,0,0,0,1.17-.36,1.24,1.24,0,0,0,.42-1q0-1.12-1.48-1.12Zm0,3.3v2.77h1.22a1.83,1.83,0,0,0,1.23-.38,1.29,1.29,0,0,0,.44-1q0-1.36-1.86-1.36Z" fill="#ec008c"/><path d="M175.2,52a1.08,1.08,0,0,0-.67-.18,1.12,1.12,0,0,0-.94.53,2.46,2.46,0,0,0-.38,1.45v2.8h-.88V51.1h.88v1.13h0a1.92,1.92,0,0,1,.58-.9,1.31,1.31,0,0,1,.86-.33,1.45,1.45,0,0,1,.53.08Z" fill="#ec008c"/><path d="M180.6,56.6h-.88v-.87h0a1.81,1.81,0,0,1-1.7,1q-2,0-2-2.34V51.1h.88v3.15q0,1.74,1.33,1.74a1.35,1.35,0,0,0,1.06-.48,1.82,1.82,0,0,0,.42-1.24V51.1h.88Z" fill="#ec008c"/><path d="M182,56.4v-.95a2.6,2.6,0,0,0,1.58.53q1.16,0,1.16-.77a.67.67,0,0,0-.1-.37,1,1,0,0,0-.27-.27,2,2,0,0,0-.4-.21l-.49-.2a6.36,6.36,0,0,1-.64-.29,1.93,1.93,0,0,1-.46-.33,1.23,1.23,0,0,1-.28-.42,1.49,1.49,0,0,1-.09-.55,1.32,1.32,0,0,1,.18-.68,1.6,1.6,0,0,1,.47-.5,2.22,2.22,0,0,1,.68-.3,3,3,0,0,1,.78-.1,3.14,3.14,0,0,1,1.28.25v.89a2.49,2.49,0,0,0-1.4-.4,1.61,1.61,0,0,0-.45.06,1.08,1.08,0,0,0-.34.16.73.73,0,0,0-.22.24.64.64,0,0,0-.08.31.75.75,0,0,0,.08.36.8.8,0,0,0,.23.26,1.83,1.83,0,0,0,.37.2l.49.2a6.8,6.8,0,0,1,.65.29,2.24,2.24,0,0,1,.49.33,1.29,1.29,0,0,1,.31.43,1.37,1.37,0,0,1,.11.58,1.34,1.34,0,0,1-.18.71,1.52,1.52,0,0,1-.48.5,2.18,2.18,0,0,1-.69.3,3.41,3.41,0,0,1-.82.1A3.12,3.12,0,0,1,182,56.4Z" fill="#ec008c"/><path d="M191.61,56.6h-.88V53.43q0-1.72-1.28-1.72a1.39,1.39,0,0,0-1.08.5,1.84,1.84,0,0,0-.44,1.28V56.6H187V48.46h.88V52h0a2,2,0,0,1,1.8-1q1.86,0,1.86,2.24Z" fill="#ec008c"/><rect x="69" y="11" width="27" height="1" fill="#ec008c"/></g></svg>