<svg id="Layer_1" data-name="Layer 1" xmlns="http://www.w3.org/2000/svg" xmlns:xlink="http://www.w3.org/1999/xlink" width="300" height="488" viewBox="0 0 300 488"><defs><clipPath id="clip-path"><path d="M-129,487.43V-3H452l-.22,490.5a8.65,8.65,0,0,1-4.84-1.76,39.9,39.9,0,0,1-4.84-4.24,39.28,39.28,0,0,0-4.84-4.25,7.57,7.57,0,0,0-9.68,0,40.67,40.67,0,0,0-4.84,4.24,39.16,39.16,0,0,1-4.84,4.24,7.54,7.54,0,0,1-9.68,0,40.67,40.67,0,0,1-4.84-4.24,39.28,39.28,0,0,0-4.84-4.25,7.55,7.55,0,0,0-9.67,0,40,40,0,0,0-4.85,4.24,39.16,39.16,0,0,1-4.84,4.24,7.54,7.54,0,0,1-9.68,0,39.84,39.84,0,0,1-4.83-4.24,41.72,41.72,0,0,0-4.84-4.25,7.57,7.57,0,0,0-9.68,0,39.16,39.16,0,0,0-4.84,4.24,40.67,40.67,0,0,1-4.84,4.24,7.54,7.54,0,0,1-9.68,0,39.16,39.16,0,0,1-4.84-4.24,41.72,41.72,0,0,0-4.84-4.25,7.57,7.57,0,0,0-9.68,0,39.9,39.9,0,0,0-4.84,4.24,40.67,40.67,0,0,1-4.84,4.24,7.53,7.53,0,0,1-9.68,0,39.16,39.16,0,0,1-4.84-4.24,40.91,40.91,0,0,0-4.84-4.25,7.57,7.57,0,0,0-9.68,0,39.9,39.9,0,0,0-4.84,4.24,39.9,39.9,0,0,1-4.84,4.24,7.53,7.53,0,0,1-9.68,0,39.9,39.9,0,0,1-4.84-4.24,40.13,40.13,0,0,0-4.84-4.25,7.57,7.57,0,0,0-9.68,0,40.67,40.67,0,0,0-4.84,4.24,40.91,40.91,0,0,1-4.84,4.25,7.55,7.55,0,0,1-9.68,0,40.67,40.67,0,0,1-4.84-4.24A39.16,39.16,0,0,0,205,477.2a8.55,8.55,0,0,0-4.84-1.76,8.66,8.66,0,0,0-4.84,1.75,40.67,40.67,0,0,0-4.84,4.24,39.28,39.28,0,0,1-4.84,4.25,7.55,7.55,0,0,1-9.68,0,40.67,40.67,0,0,1-4.84-4.24,39.16,39.16,0,0,0-4.84-4.24,7.54,7.54,0,0,0-9.68,0,40.67,40.67,0,0,0-4.84,4.24,39.16,39.16,0,0,1-4.84,4.24,7.53,7.53,0,0,1-9.68,0,39.9,39.9,0,0,1-4.84-4.24,39.9,39.9,0,0,0-4.84-4.24,7.54,7.54,0,0,0-9.68,0,40.67,40.67,0,0,0-4.84,4.24,39.16,39.16,0,0,1-4.84,4.24,7.53,7.53,0,0,1-9.68,0,40.67,40.67,0,0,1-4.84-4.24,39.16,39.16,0,0,0-4.84-4.24,7.54,7.54,0,0,0-9.68,0,40.67,40.67,0,0,0-4.84,4.24,39.16,39.16,0,0,1-4.84,4.24,8.62,8.62,0,0,1-4.84,1.76,8.67,8.67,0,0,1-4.84-1.76,39.84,39.84,0,0,1-4.83-4.24,40.67,40.67,0,0,0-4.84-4.24,8.67,8.67,0,0,0-4.84-1.76,8.62,8.62,0,0,0-4.84,1.76,39.16,39.16,0,0,0-4.84,4.24,40.67,40.67,0,0,1-4.84,4.24,8.67,8.67,0,0,1-4.84,1.76A8.62,8.62,0,0,1,21,485.67a39.16,39.16,0,0,1-4.84-4.24,40.67,40.67,0,0,0-4.84-4.24,8.67,8.67,0,0,0-4.84-1.76,8.62,8.62,0,0,0-4.84,1.76,39.16,39.16,0,0,0-4.84,4.24A40.67,40.67,0,0,1-8,485.67a8.67,8.67,0,0,1-4.84,1.76,8.62,8.62,0,0,1-4.84-1.76,39.9,39.9,0,0,1-4.84-4.24,39.9,39.9,0,0,0-4.84-4.24,8.65,8.65,0,0,0-4.84-1.76A8.65,8.65,0,0,0-37,477.19a39.9,39.9,0,0,0-4.84,4.24,39.9,39.9,0,0,1-4.84,4.24,8.65,8.65,0,0,1-4.84,1.76,8.65,8.65,0,0,1-4.84-1.76,39.9,39.9,0,0,1-4.84-4.24,39.9,39.9,0,0,0-4.84-4.24,8.65,8.65,0,0,0-4.84-1.76,8.65,8.65,0,0,0-4.84,1.76,39.9,39.9,0,0,0-4.84,4.24,39.9,39.9,0,0,1-4.84,4.24,8.65,8.65,0,0,1-4.84,1.76,8.67,8.67,0,0,1-4.84-1.76,40.67,40.67,0,0,1-4.84-4.24,39.16,39.16,0,0,0-4.84-4.24,8.62,8.62,0,0,0-4.84-1.76,8.67,8.67,0,0,0-4.84,1.76,40.67,40.67,0,0,0-4.84,4.24,39.16,39.16,0,0,1-4.84,4.24A8.62,8.62,0,0,1-129,487.43Z" fill="none"/></clipPath><linearGradient id="linear-gradient" x1="150" y1="0.5" x2="150" y2="29.5" gradientUnits="userSpaceOnUse"><stop offset="0" stop-color="#e9ebec"/><stop offset="0.35" stop-color="#e2e5e7"/><stop offset="1" stop-color="#d9dee1"/></linearGradient><linearGradient id="linear-gradient-2" x1="263.5" y1="138.5" x2="275.5" y2="138.5" gradientUnits="userSpaceOnUse"><stop offset="0" stop-color="#ebe9ec"/><stop offset="0.28" stop-color="#e5e6e9"/><stop offset="1" stop-color="#dadfe2"/></linearGradient><linearGradient id="linear-gradient-3" y1="125.5" y2="125.5" xlink:href="#linear-gradient-2"/><linearGradient id="linear-gradient-4" y1="172.5" y2="172.5" xlink:href="#linear-gradient-2"/><linearGradient id="linear-gradient-5" y1="159.5" y2="159.5" xlink:href="#linear-gradient-2"/><linearGradient id="linear-gradient-6" x1="213.5" y1="204.57" x2="213.5" y2="227.47" xlink:href="#linear-gradient-2"/><linearGradient id="linear-gradient-7" x1="213.5" y1="238.57" x2="213.5" y2="261.47" xlink:href="#linear-gradient-2"/><linearGradient id="linear-gradient-8" x1="85" y1="339.5" x2="85" y2="360.5" xlink:href="#linear-gradient-2"/><linearGradient id="linear-gradient-9" x1="85" y1="371.67" x2="85" y2="392.27" xlink:href="#linear-gradient-2"/><linearGradient id="linear-gradient-10" x1="215" y1="371.67" x2="215" y2="392.27" xlink:href="#linear-gradient-2"/></defs><title>capitalization-configuration-pane-dont</title><g clip-path="url(#clip-path)"><rect x="0.5" y="0.5" width="299" height="562" fill="#d9dee1"/><path d="M299,1V562H1V1H299m1-1H0V563H300V0Z" fill="#82878c"/><rect x="0.5" y="0.5" width="299" height="29" fill="url(#linear-gradient)"/><path d="M299,1V29H1V1H299m1-1H0V30H300V0Z" fill="#82878c"/><rect x="1" y="1" width="88" height="29" fill="#4386b9"/><path d="M35.2,20.2h-1V11.8h1Z" fill="#fff"/><path d="M40.06,20.14a1.85,1.85,0,0,1-.9.19q-1.58,0-1.58-1.76V15h-1V14.2h1V12.74l1-.31V14.2h1.51V15H38.55V18.4a1.4,1.4,0,0,0,.21.86.82.82,0,0,0,.68.26,1,1,0,0,0,.63-.2Z" fill="#fff"/><path d="M46.07,17.44H41.84A2.24,2.24,0,0,0,42.37,19a1.86,1.86,0,0,0,1.42.54,3,3,0,0,0,1.86-.67v.9a3.48,3.48,0,0,1-2.09.57,2.54,2.54,0,0,1-2-.82,3.35,3.35,0,0,1-.73-2.3,3.28,3.28,0,0,1,.79-2.28,2.55,2.55,0,0,1,2-.88,2.26,2.26,0,0,1,1.82.76,3.18,3.18,0,0,1,.64,2.12Zm-1-.81a2,2,0,0,0-.4-1.29,1.37,1.37,0,0,0-1.1-.46,1.55,1.55,0,0,0-1.15.49,2.21,2.21,0,0,0-.59,1.27Z" fill="#fff"/><path d="M56,20.2h-1V16.76a2.6,2.6,0,0,0-.31-1.44,1.17,1.17,0,0,0-1-.45,1.28,1.28,0,0,0-1,.56,2.15,2.15,0,0,0-.43,1.35V20.2h-1V16.64q0-1.77-1.37-1.77a1.26,1.26,0,0,0-1,.53,2.19,2.19,0,0,0-.41,1.38V20.2h-1v-6h1v.95h0a2,2,0,0,1,1.86-1.09,1.73,1.73,0,0,1,1.7,1.24,2.14,2.14,0,0,1,2-1.24q2,0,2,2.44Z" fill="#fff"/><path d="M122.94,17V20.2h-1V11.8h2.31a3,3,0,0,1,2.09.66,2.34,2.34,0,0,1,.74,1.85,2.55,2.55,0,0,1-.82,2A3.15,3.15,0,0,1,124,17Zm0-4.34v3.45h1a2.31,2.31,0,0,0,1.56-.47,1.65,1.65,0,0,0,.54-1.32q0-1.66-2-1.66Z" fill="#696e73"/><path d="M132.45,20.2h-1v-.94h0a2,2,0,0,1-1.85,1.08,2,2,0,0,1-1.4-.47,1.64,1.64,0,0,1-.51-1.26q0-1.68,2-2l1.8-.25q0-1.53-1.24-1.53a3,3,0,0,0-2,.74v-1a3.72,3.72,0,0,1,2-.56q2.12,0,2.12,2.24Zm-1-3-1.45.2a2.35,2.35,0,0,0-1,.33,1,1,0,0,0-.34.84.92.92,0,0,0,.31.72,1.21,1.21,0,0,0,.83.28A1.54,1.54,0,0,0,131,19a1.79,1.79,0,0,0,.47-1.27Z" fill="#696e73"/><path d="M139.25,20.2h-1V16.78q0-1.91-1.39-1.91a1.51,1.51,0,0,0-1.19.54,2,2,0,0,0-.47,1.37V20.2h-1v-6h1v1h0a2.17,2.17,0,0,1,2-1.14,1.84,1.84,0,0,1,1.51.64,2.83,2.83,0,0,1,.52,1.84Z" fill="#696e73"/><path d="M145.88,17.44h-4.24a2.24,2.24,0,0,0,.54,1.55,1.86,1.86,0,0,0,1.42.54,3,3,0,0,0,1.86-.67v.9a3.48,3.48,0,0,1-2.09.57,2.54,2.54,0,0,1-2-.82,3.35,3.35,0,0,1-.73-2.3,3.28,3.28,0,0,1,.79-2.28,2.55,2.55,0,0,1,2-.88,2.26,2.26,0,0,1,1.82.76,3.18,3.18,0,0,1,.64,2.12Zm-1-.81a2,2,0,0,0-.4-1.29,1.37,1.37,0,0,0-1.1-.46,1.55,1.55,0,0,0-1.15.49,2.21,2.21,0,0,0-.59,1.27Z" fill="#696e73"/><path d="M148.29,20.2h-1V11.32h1Z" fill="#696e73"/><path d="M62.66,58.17H61.57l-.89-2.36H57.12l-.84,2.36h-1.1l3.22-8.4h1Zm-2.3-3.24L59,51.35a3.43,3.43,0,0,1-.13-.56h0a3.14,3.14,0,0,1-.13.56l-1.31,3.58Z" fill="#2b3033"/><path d="M68.89,58.17h-1v-1h0a2.22,2.22,0,0,1-2.06,1.16A2.24,2.24,0,0,1,64,57.5a3.31,3.31,0,0,1-.68-2.19,3.6,3.6,0,0,1,.75-2.38,2.47,2.47,0,0,1,2-.9,1.92,1.92,0,0,1,1.8,1h0V49.29h1Zm-1-2.71v-.88a1.72,1.72,0,0,0-.48-1.23,1.61,1.61,0,0,0-1.22-.5,1.66,1.66,0,0,0-1.38.64,2.82,2.82,0,0,0-.5,1.78,2.54,2.54,0,0,0,.48,1.64,1.58,1.58,0,0,0,1.3.6,1.64,1.64,0,0,0,1.3-.58A2.16,2.16,0,0,0,67.93,55.46Z" fill="#2b3033"/><path d="M76,58.17H75v-1h0a2.22,2.22,0,0,1-2.06,1.16,2.24,2.24,0,0,1-1.81-.81,3.31,3.31,0,0,1-.68-2.19,3.6,3.6,0,0,1,.75-2.38,2.47,2.47,0,0,1,2-.9A1.92,1.92,0,0,1,75,53h0V49.29h1Zm-1-2.71v-.88a1.72,1.72,0,0,0-.48-1.23,1.61,1.61,0,0,0-1.22-.5,1.66,1.66,0,0,0-1.38.64,2.82,2.82,0,0,0-.5,1.78,2.54,2.54,0,0,0,.48,1.64,1.58,1.58,0,0,0,1.3.6,1.64,1.64,0,0,0,1.3-.58A2.16,2.16,0,0,0,75,55.46Z" fill="#2b3033"/><path d="M30.07,96.69H27.64v7.51h-1V96.69H24.24V95.8h5.83Z" fill="#2b3033"/><path d="M34.85,101.44H30.61a2.24,2.24,0,0,0,.54,1.55,1.86,1.86,0,0,0,1.42.54,3,3,0,0,0,1.86-.67v.9a3.48,3.48,0,0,1-2.09.57,2.54,2.54,0,0,1-2-.82,3.35,3.35,0,0,1-.73-2.3,3.28,3.28,0,0,1,.79-2.28,2.55,2.55,0,0,1,2-.88,2.26,2.26,0,0,1,1.82.76,3.18,3.18,0,0,1,.64,2.12Zm-1-.81a2,2,0,0,0-.4-1.29,1.37,1.37,0,0,0-1.1-.46,1.55,1.55,0,0,0-1.15.49,2.21,2.21,0,0,0-.59,1.27Z" fill="#2b3033"/><path d="M39.43,99.17A1.18,1.18,0,0,0,38.7,99a1.23,1.23,0,0,0-1,.58,2.68,2.68,0,0,0-.41,1.58v3.06h-1v-6h1v1.24h0a2.1,2.1,0,0,1,.63-1,1.43,1.43,0,0,1,.94-.35,1.57,1.57,0,0,1,.57.08Z" fill="#2b3033"/><path d="M49,104.2H48v-3.45a2.6,2.6,0,0,0-.31-1.44,1.17,1.17,0,0,0-1-.45,1.28,1.28,0,0,0-1,.56,2.15,2.15,0,0,0-.43,1.35v3.42h-1v-3.56q0-1.77-1.37-1.77a1.26,1.26,0,0,0-1,.53,2.19,2.19,0,0,0-.41,1.38v3.42h-1v-6h1v.95h0a2,2,0,0,1,1.86-1.09A1.73,1.73,0,0,1,45,99.3a2.14,2.14,0,0,1,2-1.24q2,0,2,2.44Z" fill="#2b3033"/><path d="M51.28,96.68a.61.61,0,0,1-.44-.18.59.59,0,0,1-.18-.45.62.62,0,0,1,.62-.63.62.62,0,0,1,.45.18.63.63,0,0,1,0,.89A.62.62,0,0,1,51.28,96.68Zm.47,7.52h-1v-6h1Z" fill="#2b3033"/><path d="M58.67,104.2h-1v-3.42q0-1.91-1.39-1.91a1.51,1.51,0,0,0-1.19.54,2,2,0,0,0-.47,1.37v3.42h-1v-6h1v1h0a2.17,2.17,0,0,1,2-1.14,1.84,1.84,0,0,1,1.51.64,2.83,2.83,0,0,1,.52,1.84Z" fill="#2b3033"/><path d="M64.78,104.2h-1v-.94h0a2,2,0,0,1-1.85,1.08,2,2,0,0,1-1.4-.47,1.64,1.64,0,0,1-.51-1.26q0-1.68,2-2l1.8-.25q0-1.53-1.24-1.53a3,3,0,0,0-2,.74v-1a3.72,3.72,0,0,1,2-.56q2.12,0,2.12,2.24Zm-1-3-1.45.2a2.35,2.35,0,0,0-1,.33,1,1,0,0,0-.34.84.92.92,0,0,0,.31.72,1.21,1.21,0,0,0,.83.28,1.54,1.54,0,0,0,1.18-.5,1.79,1.79,0,0,0,.47-1.27Z" fill="#2b3033"/><path d="M67.55,104.2h-1V95.32h1Z" fill="#2b3033"/><path d="M69.13,104v-1a2.84,2.84,0,0,0,1.73.58q1.27,0,1.27-.84a.73.73,0,0,0-.11-.41,1.08,1.08,0,0,0-.29-.3,2.26,2.26,0,0,0-.43-.23l-.54-.21a6.9,6.9,0,0,1-.7-.32,2.12,2.12,0,0,1-.5-.36,1.35,1.35,0,0,1-.3-.46,1.63,1.63,0,0,1-.1-.6,1.43,1.43,0,0,1,.19-.75,1.71,1.71,0,0,1,.52-.54,2.4,2.4,0,0,1,.74-.33,3.26,3.26,0,0,1,.85-.11,3.44,3.44,0,0,1,1.39.27v1a2.72,2.72,0,0,0-1.52-.43,1.78,1.78,0,0,0-.49.06,1.19,1.19,0,0,0-.37.17.8.8,0,0,0-.24.27.7.7,0,0,0-.08.34.82.82,0,0,0,.08.39.86.86,0,0,0,.25.28,1.9,1.9,0,0,0,.4.22l.53.22a7.42,7.42,0,0,1,.71.31,2.45,2.45,0,0,1,.54.36A1.42,1.42,0,0,1,73,102a1.5,1.5,0,0,1,.12.63,1.48,1.48,0,0,1-.2.77,1.68,1.68,0,0,1-.52.54,2.4,2.4,0,0,1-.76.32,3.73,3.73,0,0,1-.9.11A3.4,3.4,0,0,1,69.13,104Z" fill="#2b3033"/><path d="M32.88,221.2H31.67l-4.32-6.7a2.8,2.8,0,0,1-.27-.53h0a8.65,8.65,0,0,1,0,1.15v6.07h-1v-8.4h1.28l4.21,6.59q.26.41.34.56h0a8.89,8.89,0,0,1-.06-1.24V212.8h1Z" fill="#2b3033"/><path d="M39.8,221.2h-1v-.95h0A2,2,0,0,1,37,221.34q-2.14,0-2.14-2.55V215.2h1v3.43q0,1.9,1.45,1.9a1.47,1.47,0,0,0,1.16-.52,2,2,0,0,0,.45-1.36V215.2h1Z" fill="#2b3033"/><path d="M50.26,221.2h-1v-3.45a2.6,2.6,0,0,0-.31-1.44,1.17,1.17,0,0,0-1-.45,1.28,1.28,0,0,0-1,.56,2.15,2.15,0,0,0-.43,1.35v3.42h-1v-3.56q0-1.77-1.37-1.77a1.26,1.26,0,0,0-1,.53,2.19,2.19,0,0,0-.41,1.38v3.42h-1v-6h1v.95h0a2,2,0,0,1,1.86-1.09,1.73,1.73,0,0,1,1.7,1.24,2.14,2.14,0,0,1,2-1.24q2,0,2,2.44Z" fill="#2b3033"/><path d="M56.9,218.44H52.66A2.24,2.24,0,0,0,53.2,220a1.86,1.86,0,0,0,1.42.54,3,3,0,0,0,1.86-.67v.9a3.48,3.48,0,0,1-2.09.57,2.54,2.54,0,0,1-2-.82,3.35,3.35,0,0,1-.73-2.3,3.28,3.28,0,0,1,.79-2.28,2.55,2.55,0,0,1,2-.88,2.26,2.26,0,0,1,1.82.76,3.18,3.18,0,0,1,.64,2.12Zm-1-.81a2,2,0,0,0-.4-1.29,1.37,1.37,0,0,0-1.1-.46,1.55,1.55,0,0,0-1.15.49,2.21,2.21,0,0,0-.59,1.27Z" fill="#2b3033"/><path d="M61.48,216.17a1.18,1.18,0,0,0-.73-.19,1.23,1.23,0,0,0-1,.58,2.68,2.68,0,0,0-.41,1.58v3.06h-1v-6h1v1.24h0a2.1,2.1,0,0,1,.63-1,1.43,1.43,0,0,1,.94-.35,1.57,1.57,0,0,1,.57.08Z" fill="#2b3033"/><path d="M63,213.68a.61.61,0,0,1-.44-.18.59.59,0,0,1-.18-.45.62.62,0,0,1,.62-.63.62.62,0,0,1,.45.18.63.63,0,0,1,0,.89A.62.62,0,0,1,63,213.68Zm.47,7.52h-1v-6h1Z" fill="#2b3033"/><path d="M69.52,220.93a3.12,3.12,0,0,1-1.64.42,2.72,2.72,0,0,1-2.07-.83,3,3,0,0,1-.79-2.17,3.33,3.33,0,0,1,.85-2.38,3,3,0,0,1,2.27-.9,3.16,3.16,0,0,1,1.39.29v1a2.44,2.44,0,0,0-1.43-.47,1.93,1.93,0,0,0-1.51.66,2.5,2.5,0,0,0-.59,1.73,2.38,2.38,0,0,0,.55,1.66,1.91,1.91,0,0,0,1.49.61,2.41,2.41,0,0,0,1.48-.52Z" fill="#2b3033"/><path d="M79.36,213.69H76.93v7.51h-1v-7.51H73.53v-.89h5.83Z" fill="#2b3033"/><path d="M84.66,215.2l-2.76,7Q81.16,224,79.83,224a2.2,2.2,0,0,1-.63-.08v-.86a1.78,1.78,0,0,0,.57.11,1.18,1.18,0,0,0,1.09-.87l.48-1.14-2.34-6h1.07l1.62,4.62q0,.09.12.46h0q0-.14.12-.45l1.71-4.63Z" fill="#2b3033"/><path d="M86.68,220.33h0V224h-1V215.2h1v1.05h0a2.27,2.27,0,0,1,2.07-1.2,2.2,2.2,0,0,1,1.81.81,3.34,3.34,0,0,1,.65,2.16,3.72,3.72,0,0,1-.73,2.41,2.44,2.44,0,0,1-2,.91A2,2,0,0,1,86.68,220.33Zm0-2.42v.84a1.78,1.78,0,0,0,.48,1.26,1.72,1.72,0,0,0,2.6-.15,3.06,3.06,0,0,0,.5-1.86,2.42,2.42,0,0,0-.46-1.57,1.53,1.53,0,0,0-1.25-.57,1.7,1.7,0,0,0-1.35.58A2.14,2.14,0,0,0,86.65,217.91Z" fill="#2b3033"/><path d="M97.57,218.44H93.33a2.24,2.24,0,0,0,.54,1.55,1.86,1.86,0,0,0,1.42.54,3,3,0,0,0,1.86-.67v.9a3.48,3.48,0,0,1-2.09.57,2.54,2.54,0,0,1-2-.82,3.35,3.35,0,0,1-.73-2.3,3.28,3.28,0,0,1,.79-2.28,2.55,2.55,0,0,1,2-.88,2.26,2.26,0,0,1,1.82.76,3.18,3.18,0,0,1,.64,2.12Zm-1-.81a2,2,0,0,0-.4-1.29,1.37,1.37,0,0,0-1.1-.46,1.55,1.55,0,0,0-1.15.49,2.21,2.21,0,0,0-.59,1.27Z" fill="#2b3033"/><path d="M27.09,252v3.18h-1v-8.4h2.31a3,3,0,0,1,2.09.66,2.34,2.34,0,0,1,.74,1.85,2.55,2.55,0,0,1-.82,2,3.15,3.15,0,0,1-2.22.76Zm0-4.34v3.45h1a2.31,2.31,0,0,0,1.56-.47,1.65,1.65,0,0,0,.54-1.32q0-1.66-2-1.66Z" fill="#2b3033"/><path d="M35.82,250.17a1.18,1.18,0,0,0-.73-.19,1.23,1.23,0,0,0-1,.58,2.68,2.68,0,0,0-.41,1.58v3.06h-1v-6h1v1.24h0a2.1,2.1,0,0,1,.63-1,1.43,1.43,0,0,1,.94-.35,1.57,1.57,0,0,1,.57.08Z" fill="#2b3033"/><path d="M41.53,252.44H37.29a2.24,2.24,0,0,0,.54,1.55,1.86,1.86,0,0,0,1.42.54,3,3,0,0,0,1.86-.67v.9a3.48,3.48,0,0,1-2.09.57,2.54,2.54,0,0,1-2-.82,3.35,3.35,0,0,1-.73-2.3,3.28,3.28,0,0,1,.79-2.28,2.55,2.55,0,0,1,2-.88,2.26,2.26,0,0,1,1.82.76,3.18,3.18,0,0,1,.64,2.12Zm-1-.81a2,2,0,0,0-.4-1.29,1.37,1.37,0,0,0-1.1-.46,1.55,1.55,0,0,0-1.15.49,2.21,2.21,0,0,0-.59,1.27Z" fill="#2b3033"/><path d="M47.07,254.93a3.12,3.12,0,0,1-1.64.42,2.72,2.72,0,0,1-2.07-.83,3,3,0,0,1-.79-2.17,3.33,3.33,0,0,1,.85-2.38,3,3,0,0,1,2.27-.9,3.16,3.16,0,0,1,1.39.29v1a2.44,2.44,0,0,0-1.43-.47,1.93,1.93,0,0,0-1.51.66,2.5,2.5,0,0,0-.59,1.73,2.38,2.38,0,0,0,.55,1.66,1.91,1.91,0,0,0,1.49.61,2.41,2.41,0,0,0,1.48-.52Z" fill="#2b3033"/><path d="M49,247.68a.61.61,0,0,1-.44-.18.59.59,0,0,1-.18-.45.62.62,0,0,1,.62-.63.62.62,0,0,1,.45.18.63.63,0,0,1,0,.89A.62.62,0,0,1,49,247.68Zm.47,7.52h-1v-6h1Z" fill="#2b3033"/><path d="M51.07,255v-1a2.84,2.84,0,0,0,1.73.58q1.27,0,1.27-.84a.73.73,0,0,0-.11-.41,1.08,1.08,0,0,0-.29-.3,2.26,2.26,0,0,0-.43-.23l-.54-.21a6.9,6.9,0,0,1-.7-.32,2.12,2.12,0,0,1-.5-.36,1.35,1.35,0,0,1-.3-.46,1.63,1.63,0,0,1-.1-.6,1.43,1.43,0,0,1,.19-.75,1.71,1.71,0,0,1,.52-.54,2.4,2.4,0,0,1,.74-.33,3.26,3.26,0,0,1,.85-.11,3.44,3.44,0,0,1,1.39.27v1a2.72,2.72,0,0,0-1.52-.43,1.78,1.78,0,0,0-.49.06,1.19,1.19,0,0,0-.37.17.8.8,0,0,0-.24.27.7.7,0,0,0-.08.34.82.82,0,0,0,.08.39.86.86,0,0,0,.25.28,1.9,1.9,0,0,0,.4.22l.53.22a7.42,7.42,0,0,1,.71.31,2.45,2.45,0,0,1,.54.36,1.42,1.42,0,0,1,.34.47,1.5,1.5,0,0,1,.12.63,1.48,1.48,0,0,1-.2.77,1.68,1.68,0,0,1-.52.54,2.4,2.4,0,0,1-.76.32,3.73,3.73,0,0,1-.9.11A3.4,3.4,0,0,1,51.07,255Z" fill="#2b3033"/><path d="M57,247.68a.61.61,0,0,1-.44-.18.59.59,0,0,1-.18-.45.62.62,0,0,1,.62-.63.62.62,0,0,1,.45.18.63.63,0,0,1,0,.89A.62.62,0,0,1,57,247.68Zm.47,7.52h-1v-6h1Z" fill="#2b3033"/><path d="M61.94,255.34a2.78,2.78,0,0,1-2.12-.84,3.11,3.11,0,0,1-.79-2.23,3.24,3.24,0,0,1,.83-2.36,3,3,0,0,1,2.23-.85,2.69,2.69,0,0,1,2.09.83,3.28,3.28,0,0,1,.75,2.29,3.22,3.22,0,0,1-.81,2.3A2.84,2.84,0,0,1,61.94,255.34Zm.07-5.47a1.83,1.83,0,0,0-1.46.63,2.59,2.59,0,0,0-.54,1.74,2.45,2.45,0,0,0,.54,1.68,1.85,1.85,0,0,0,1.46.62,1.76,1.76,0,0,0,1.43-.6,2.62,2.62,0,0,0,.5-1.72,2.66,2.66,0,0,0-.5-1.73A1.75,1.75,0,0,0,62,249.87Z" fill="#2b3033"/><path d="M71.44,255.2h-1v-3.42q0-1.91-1.39-1.91a1.51,1.51,0,0,0-1.19.54,2,2,0,0,0-.47,1.37v3.42h-1v-6h1v1h0a2.17,2.17,0,0,1,2-1.14,1.84,1.84,0,0,1,1.51.64,2.83,2.83,0,0,1,.52,1.84Z" fill="#2b3033"/><path d="M32,325.84a5.54,5.54,0,0,1-2.4.45,4,4,0,0,1-3-1.14,4.16,4.16,0,0,1-1.11-3,4.44,4.44,0,0,1,1.25-3.27,4.36,4.36,0,0,1,3.23-1.25,6,6,0,0,1,2.07.31v1.82a3.68,3.68,0,0,0-1.92-.5,2.55,2.55,0,0,0-1.91.74,2.76,2.76,0,0,0-.73,2,2.71,2.71,0,0,0,.69,1.94,2.42,2.42,0,0,0,1.85.72,3.94,3.94,0,0,0,2-.54Z" fill="#2b3033"/><path d="M36.13,326.29a3.23,3.23,0,0,1-2.36-.84,3.48,3.48,0,0,1,0-4.61,3.37,3.37,0,0,1,2.41-.84,3.19,3.19,0,0,1,2.34.84,3,3,0,0,1,.85,2.22,3.17,3.17,0,0,1-.88,2.36A3.26,3.26,0,0,1,36.13,326.29Zm0-4.87a1.23,1.23,0,0,0-1,.45,2,2,0,0,0-.36,1.28q0,1.73,1.39,1.73t1.33-1.78Q37.52,321.41,36.17,321.41Z" fill="#2b3033"/><path d="M46.4,326.14H44.55V322.8q0-1.39-1-1.39a1,1,0,0,0-.79.37,1.41,1.41,0,0,0-.31.94v3.42H40.6v-6h1.85v.95h0a2.12,2.12,0,0,1,1.93-1.1q2,0,2,2.47Z" fill="#2b3033"/><path d="M47.47,326v-1.5a3.94,3.94,0,0,0,.91.41,3,3,0,0,0,.86.13,1.84,1.84,0,0,0,.78-.13.44.44,0,0,0,.28-.41.38.38,0,0,0-.13-.29,1.2,1.2,0,0,0-.33-.21,3.76,3.76,0,0,0-.44-.16l-.46-.16a4.44,4.44,0,0,1-.63-.29,1.82,1.82,0,0,1-.46-.36,1.42,1.42,0,0,1-.28-.47,1.89,1.89,0,0,1-.1-.64,1.64,1.64,0,0,1,.22-.87,1.79,1.79,0,0,1,.59-.59,2.68,2.68,0,0,1,.84-.34,4.37,4.37,0,0,1,1-.11,5.45,5.45,0,0,1,.81.06,6,6,0,0,1,.81.18v1.43a2.92,2.92,0,0,0-.75-.31,3.18,3.18,0,0,0-.79-.1,1.75,1.75,0,0,0-.34,0,1.13,1.13,0,0,0-.28.09.52.52,0,0,0-.19.16.36.36,0,0,0-.07.22.41.41,0,0,0,.11.28.92.92,0,0,0,.28.2,2.72,2.72,0,0,0,.38.15l.41.14a5.37,5.37,0,0,1,.67.28,2.14,2.14,0,0,1,.51.36,1.4,1.4,0,0,1,.33.48,1.92,1.92,0,0,1-.12,1.57,1.85,1.85,0,0,1-.62.62,2.79,2.79,0,0,1-.88.35,4.9,4.9,0,0,1-1,.11A5.36,5.36,0,0,1,47.47,326Z" fill="#2b3033"/><path d="M56.77,326.07a2.74,2.74,0,0,1-1.24.22q-2,0-2-2V321.5h-1v-1.37h1v-1.29l1.85-.53v1.82h1.35v1.37H55.42v2.43q0,.94.74.94a1.25,1.25,0,0,0,.6-.17Z" fill="#2b3033"/><path d="M62.8,326.14H61.05v-.86h0a2,2,0,0,1-1.79,1,1.87,1.87,0,0,1-1.37-.5,1.77,1.77,0,0,1-.5-1.32q0-1.75,2.07-2l1.63-.22q0-1-1.07-1a3.64,3.64,0,0,0-2,.64V320.5a4.59,4.59,0,0,1,1.06-.35,5.56,5.56,0,0,1,1.22-.15,2.27,2.27,0,0,1,2.57,2.56Zm-1.74-2.44v-.4l-1.09.14q-.9.12-.9.81a.67.67,0,0,0,.22.52.84.84,0,0,0,.59.2,1.1,1.1,0,0,0,.85-.36A1.3,1.3,0,0,0,61.06,323.7Z" fill="#2b3033"/><path d="M70.06,326.14H68.22V322.8q0-1.39-1-1.39a1,1,0,0,0-.79.37,1.41,1.41,0,0,0-.31.94v3.42H64.27v-6h1.85v.95h0a2.12,2.12,0,0,1,1.93-1.1q2,0,2,2.47Z" fill="#2b3033"/><path d="M75.16,326.07a2.74,2.74,0,0,1-1.24.22q-2,0-2-2V321.5H71v-1.37h1v-1.29l1.85-.53v1.82h1.35v1.37H73.81v2.43q0,.94.74.94a1.25,1.25,0,0,0,.6-.17Z" fill="#2b3033"/><path d="M75.81,326v-1.5a3.94,3.94,0,0,0,.91.41,3,3,0,0,0,.86.13,1.84,1.84,0,0,0,.78-.13.44.44,0,0,0,.28-.41.38.38,0,0,0-.13-.29,1.2,1.2,0,0,0-.33-.21,3.76,3.76,0,0,0-.44-.16l-.46-.16a4.44,4.44,0,0,1-.63-.29,1.82,1.82,0,0,1-.46-.36,1.42,1.42,0,0,1-.28-.47,1.89,1.89,0,0,1-.1-.64A1.64,1.64,0,0,1,76,321a1.79,1.79,0,0,1,.59-.59,2.68,2.68,0,0,1,.84-.34,4.37,4.37,0,0,1,1-.11,5.45,5.45,0,0,1,.81.06,6,6,0,0,1,.81.18v1.43a2.92,2.92,0,0,0-.75-.31,3.18,3.18,0,0,0-.79-.1,1.75,1.75,0,0,0-.34,0,1.13,1.13,0,0,0-.28.09.52.52,0,0,0-.19.16.36.36,0,0,0-.07.22.41.41,0,0,0,.11.28.92.92,0,0,0,.28.2,2.72,2.72,0,0,0,.38.15l.41.14a5.37,5.37,0,0,1,.67.28,2.14,2.14,0,0,1,.51.36,1.4,1.4,0,0,1,.33.48,1.92,1.92,0,0,1-.12,1.57,1.85,1.85,0,0,1-.62.62,2.79,2.79,0,0,1-.88.35,4.9,4.9,0,0,1-1,.11A5.36,5.36,0,0,1,75.81,326Z" fill="#2b3033"/><path d="M198.54,20.2V11.8h2.32q4.44,0,4.44,4.1A4.13,4.13,0,0,1,204.06,19a4.58,4.58,0,0,1-3.3,1.18Zm1-7.51v6.62h1.25a3.56,3.56,0,0,0,2.57-.88,3.32,3.32,0,0,0,.92-2.51q0-3.23-3.43-3.23Z" fill="#696e73"/><path d="M209.33,20.34a2.78,2.78,0,0,1-2.12-.84,3.11,3.11,0,0,1-.79-2.23,3.24,3.24,0,0,1,.83-2.36,3,3,0,0,1,2.23-.85,2.69,2.69,0,0,1,2.09.83,3.28,3.28,0,0,1,.75,2.29,3.22,3.22,0,0,1-.81,2.3A2.84,2.84,0,0,1,209.33,20.34Zm.07-5.47a1.83,1.83,0,0,0-1.46.63,2.59,2.59,0,0,0-.54,1.74,2.45,2.45,0,0,0,.54,1.68,1.85,1.85,0,0,0,1.46.62,1.76,1.76,0,0,0,1.43-.6,2.62,2.62,0,0,0,.5-1.72,2.66,2.66,0,0,0-.5-1.73A1.75,1.75,0,0,0,209.4,14.87Z" fill="#696e73"/><path d="M217.94,19.93a3.12,3.12,0,0,1-1.64.42,2.72,2.72,0,0,1-2.07-.83,3,3,0,0,1-.79-2.17,3.33,3.33,0,0,1,.85-2.38,3,3,0,0,1,2.27-.9,3.16,3.16,0,0,1,1.39.29v1a2.44,2.44,0,0,0-1.43-.47,1.93,1.93,0,0,0-1.51.66,2.5,2.5,0,0,0-.59,1.73,2.38,2.38,0,0,0,.55,1.66,1.91,1.91,0,0,0,1.49.61,2.41,2.41,0,0,0,1.48-.52Z" fill="#696e73"/><path d="M224.25,20.2h-1v-.95h0a2,2,0,0,1-1.85,1.09q-2.14,0-2.14-2.55V14.2h1v3.43q0,1.9,1.45,1.9a1.47,1.47,0,0,0,1.16-.52,2,2,0,0,0,.45-1.36V14.2h1Z" fill="#696e73"/><path d="M234.71,20.2h-1V16.76a2.6,2.6,0,0,0-.31-1.44,1.17,1.17,0,0,0-1-.45,1.28,1.28,0,0,0-1,.56,2.15,2.15,0,0,0-.43,1.35V20.2h-1V16.64q0-1.77-1.37-1.77a1.26,1.26,0,0,0-1,.53,2.19,2.19,0,0,0-.41,1.38V20.2h-1v-6h1v.95h0A2,2,0,0,1,229,14.06a1.73,1.73,0,0,1,1.7,1.24,2.14,2.14,0,0,1,2-1.24q2,0,2,2.44Z" fill="#696e73"/><path d="M241.34,17.44h-4.24a2.24,2.24,0,0,0,.54,1.55,1.86,1.86,0,0,0,1.42.54,3,3,0,0,0,1.86-.67v.9a3.48,3.48,0,0,1-2.09.57,2.54,2.54,0,0,1-2-.82,3.35,3.35,0,0,1-.73-2.3,3.28,3.28,0,0,1,.79-2.28,2.55,2.55,0,0,1,2-.88,2.26,2.26,0,0,1,1.82.76,3.18,3.18,0,0,1,.64,2.12Zm-1-.81a2,2,0,0,0-.4-1.29,1.37,1.37,0,0,0-1.1-.46,1.55,1.55,0,0,0-1.15.49,2.21,2.21,0,0,0-.59,1.27Z" fill="#696e73"/><path d="M247.78,20.2h-1V16.78q0-1.91-1.39-1.91a1.51,1.51,0,0,0-1.19.54,2,2,0,0,0-.47,1.37V20.2h-1v-6h1v1h0a2.17,2.17,0,0,1,2-1.14,1.84,1.84,0,0,1,1.51.64,2.83,2.83,0,0,1,.52,1.84Z" fill="#696e73"/><path d="M252.37,20.14a1.85,1.85,0,0,1-.9.19q-1.58,0-1.58-1.76V15h-1V14.2h1V12.74l1-.31V14.2h1.51V15h-1.51V18.4a1.4,1.4,0,0,0,.21.86.82.82,0,0,0,.68.26,1,1,0,0,0,.63-.2Z" fill="#696e73"/><rect x="89" y="1" width="1" height="29" fill="#a9acaf"/><rect x="179" y="1" width="1" height="29" fill="#a9acaf"/><rect x="269" y="1" width="1" height="29" fill="#a9acaf"/><rect x="194" y="-75" width="1" height="209" transform="translate(224 -165) rotate(90)" fill="#a9acaf"/><rect x="149.5" y="-68.5" width="1" height="298" transform="translate(230.5 -69.5) rotate(90)" fill="#a9acaf"/><rect x="140.5" y="-58.5" width="1" height="280" transform="translate(222.5 -59.5) rotate(90)" fill="#fff"/><polygon points="288 15.5 285 18 285 16.33 286 15.5 285 14.67 285 13 288 15.5" fill="#696e73"/><polygon points="281 14.67 282 15.5 281 16.33 281 18 284 15.5 281 13 281 14.67" fill="#696e73"/><path d="M9.9,75A4.92,4.92,0,0,1,5,70.08V39.94A5,5,0,0,1,9.94,35a4.88,4.88,0,0,1,2.25.54l30.08,15a4.9,4.9,0,0,1,.08,8.75L12.24,74.4A4.89,4.89,0,0,1,9.9,75Zm0-39A4,4,0,0,0,6,39.94V70.08a3.9,3.9,0,0,0,5.78,3.44L41.9,58.44a3.9,3.9,0,0,0-.07-7l-30.09-15A3.9,3.9,0,0,0,9.94,36Z" fill="#82763d"/><path d="M9.94,36A4,4,0,0,0,6,39.94V70.08a3.9,3.9,0,0,0,5.78,3.44L41.9,58.44a3.9,3.9,0,0,0-.07-7l-30.09-15A3.9,3.9,0,0,0,9.94,36Z" fill="#fffff3"/><path d="M9.94,37A3,3,0,0,0,7,39.94V70.08a2.9,2.9,0,0,0,4.3,2.56l30.15-15.1a2.9,2.9,0,0,0-.06-5.17L11.29,37.33A2.92,2.92,0,0,0,9.94,37Z" fill="#ffffcd"/><path d="M9.94,37A3,3,0,0,0,7,39.94V70.08a2.9,2.9,0,0,0,4.3,2.56l30.15-15.1a2.9,2.9,0,0,0-.06-5.17L11.29,37.33A2.92,2.92,0,0,0,9.94,37Z" fill="#ffffcd"/><rect x="18" y="50" width="2" height="10" fill="#4c4c3d"/><rect x="18" y="50" width="2" height="10" transform="translate(74 36) rotate(90)" fill="#4c4c3d"/><path d="M10,96h9l-4.5,6Z" fill="#2b3033"/><path d="M31.35,423.8l-3.11,8.4H27.15l-3-8.4h1.1l2.33,6.66a4,4,0,0,1,.17.74h0a3.65,3.65,0,0,1,.19-.76l2.37-6.65Z" fill="#2b3033"/><path d="M32.92,424.68a.61.61,0,0,1-.44-.18.59.59,0,0,1-.18-.45.62.62,0,0,1,.62-.63.62.62,0,0,1,.45.18.63.63,0,0,1,0,.89A.62.62,0,0,1,32.92,424.68Zm.47,7.52h-1v-6h1Z" fill="#2b3033"/><path d="M35,432v-1a2.84,2.84,0,0,0,1.73.58q1.27,0,1.27-.84a.73.73,0,0,0-.11-.41,1.08,1.08,0,0,0-.29-.3,2.26,2.26,0,0,0-.43-.23l-.54-.21a6.9,6.9,0,0,1-.7-.32,2.12,2.12,0,0,1-.5-.36,1.35,1.35,0,0,1-.3-.46,1.63,1.63,0,0,1-.1-.6,1.43,1.43,0,0,1,.19-.75,1.71,1.71,0,0,1,.52-.54,2.4,2.4,0,0,1,.74-.33,3.26,3.26,0,0,1,.85-.11,3.44,3.44,0,0,1,1.39.27v1a2.72,2.72,0,0,0-1.52-.43,1.78,1.78,0,0,0-.49.06,1.19,1.19,0,0,0-.37.17.8.8,0,0,0-.24.27.7.7,0,0,0-.08.34.82.82,0,0,0,.08.39.86.86,0,0,0,.25.28,1.9,1.9,0,0,0,.4.22l.53.22a7.42,7.42,0,0,1,.71.31,2.45,2.45,0,0,1,.54.36,1.42,1.42,0,0,1,.34.47,1.5,1.5,0,0,1,.12.63,1.48,1.48,0,0,1-.2.77,1.68,1.68,0,0,1-.52.54,2.4,2.4,0,0,1-.76.32,3.73,3.73,0,0,1-.9.11A3.4,3.4,0,0,1,35,432Z" fill="#2b3033"/><path d="M45.28,432.2h-1v-.95h0a2,2,0,0,1-1.85,1.09q-2.14,0-2.14-2.55V426.2h1v3.43q0,1.9,1.45,1.9a1.47,1.47,0,0,0,1.16-.52,2,2,0,0,0,.45-1.36V426.2h1Z" fill="#2b3033"/><path d="M51.51,432.2h-1v-.94h0a2,2,0,0,1-1.85,1.08,2,2,0,0,1-1.4-.47,1.64,1.64,0,0,1-.51-1.26q0-1.68,2-2l1.8-.25q0-1.53-1.24-1.53a3,3,0,0,0-2,.74v-1a3.72,3.72,0,0,1,2-.56q2.12,0,2.12,2.24Zm-1-3-1.45.2a2.35,2.35,0,0,0-1,.33,1,1,0,0,0-.34.84.92.92,0,0,0,.31.72,1.21,1.21,0,0,0,.83.28,1.54,1.54,0,0,0,1.18-.5,1.79,1.79,0,0,0,.47-1.27Z" fill="#2b3033"/><path d="M54.28,432.2h-1v-8.88h1Z" fill="#2b3033"/><path d="M59.25,431.86V430.7a2.25,2.25,0,0,0,.48.32,3.87,3.87,0,0,0,.59.24,4.66,4.66,0,0,0,.62.15,3.45,3.45,0,0,0,.57.05,2.25,2.25,0,0,0,1.36-.34,1.26,1.26,0,0,0,.3-1.56,1.68,1.68,0,0,0-.41-.46,4.1,4.1,0,0,0-.62-.4l-.78-.4q-.44-.22-.82-.45a3.55,3.55,0,0,1-.66-.5,2.1,2.1,0,0,1-.44-.62,2.13,2.13,0,0,1,.09-1.82,2.16,2.16,0,0,1,.66-.7,3,3,0,0,1,.93-.41,4.28,4.28,0,0,1,1.07-.13A4.1,4.1,0,0,1,64,424v1.11a3.28,3.28,0,0,0-1.91-.52,3.14,3.14,0,0,0-.64.07,1.82,1.82,0,0,0-.57.22,1.27,1.27,0,0,0-.41.39,1,1,0,0,0-.16.59,1.21,1.21,0,0,0,.12.56,1.36,1.36,0,0,0,.35.43,3.53,3.53,0,0,0,.57.38l.78.4q.45.22.86.47a3.91,3.91,0,0,1,.71.54,2.42,2.42,0,0,1,.48.66,1.86,1.86,0,0,1,.18.83,2.11,2.11,0,0,1-.24,1.05,2,2,0,0,1-.66.7,2.87,2.87,0,0,1-1,.39,5.21,5.21,0,0,1-1.14.12l-.49,0-.6-.09a4.88,4.88,0,0,1-.58-.15A1.8,1.8,0,0,1,59.25,431.86Z" fill="#2b3033"/><path d="M68.29,432.14a1.85,1.85,0,0,1-.9.19q-1.58,0-1.58-1.76V427h-1v-.82h1v-1.46l1-.31v1.78h1.51V427H66.77v3.38a1.4,1.4,0,0,0,.21.86.82.82,0,0,0,.68.26,1,1,0,0,0,.63-.2Z" fill="#2b3033"/><path d="M74.34,426.2l-2.76,7Q70.85,435,69.51,435a2.2,2.2,0,0,1-.63-.08v-.86a1.78,1.78,0,0,0,.57.11,1.18,1.18,0,0,0,1.09-.87l.48-1.14-2.34-6h1.07l1.62,4.62q0,.09.12.46h0q0-.14.12-.45l1.71-4.63Z" fill="#2b3033"/><path d="M76.34,432.2h-1v-8.88h1Z" fill="#2b3033"/><path d="M83.1,429.44H78.87a2.24,2.24,0,0,0,.54,1.55,1.86,1.86,0,0,0,1.42.54,3,3,0,0,0,1.86-.67v.9a3.48,3.48,0,0,1-2.09.57,2.54,2.54,0,0,1-2-.82,3.35,3.35,0,0,1-.73-2.3,3.28,3.28,0,0,1,.79-2.28,2.55,2.55,0,0,1,2-.88,2.26,2.26,0,0,1,1.82.76,3.18,3.18,0,0,1,.64,2.12Zm-1-.81a2,2,0,0,0-.4-1.29,1.37,1.37,0,0,0-1.1-.46,1.55,1.55,0,0,0-1.15.49,2.21,2.21,0,0,0-.59,1.27Z" fill="#2b3033"/><rect x="140.5" y="268.5" width="1" height="280" transform="translate(549.5 267.5) rotate(90)" fill="#a9acaf"/><rect x="140.5" y="269.5" width="1" height="280" transform="translate(550.5 268.5) rotate(90)" fill="#fff"/><path d="M10,424h9l-4.5,6Z" fill="#2b3033"/><path d="M77.72,129.05a1.08,1.08,0,0,1-.77-.28.9.9,0,0,1-.3-.68.86.86,0,0,1,.3-.68,1.25,1.25,0,0,1,1.54,0,.87.87,0,0,1,.3.68.89.89,0,0,1-.3.69A1.1,1.1,0,0,1,77.72,129.05Zm.91,6.95H76.78v-6h1.85Z" fill="#2b3033"/><path d="M86,136H84.14v-3.33q0-1.39-1-1.39a1,1,0,0,0-.79.37,1.41,1.41,0,0,0-.31.94V136H80.19v-6H82V131h0a2.12,2.12,0,0,1,1.93-1.1q2,0,2,2.47Z" fill="#2b3033"/><path d="M89.32,135.3h0v3.46H87.45V130H89.3v.9h0a2.36,2.36,0,0,1,3.73-.25,3.41,3.41,0,0,1,.64,2.18,3.69,3.69,0,0,1-.74,2.41,2.42,2.42,0,0,1-2,.91A1.87,1.87,0,0,1,89.32,135.3Zm-.05-2.46v.48a1.53,1.53,0,0,0,.33,1,1.07,1.07,0,0,0,.86.39,1.14,1.14,0,0,0,1-.49,2.36,2.36,0,0,0,.35-1.39q0-1.58-1.23-1.58a1.16,1.16,0,0,0-.93.43A1.72,1.72,0,0,0,89.27,132.84Z" fill="#2b3033"/><path d="M100.59,136H98.75v-.91h0a2.09,2.09,0,0,1-1.83,1.06q-2.09,0-2.09-2.53V130h1.85v3.46q0,1.27,1,1.27a1,1,0,0,0,.8-.35,1.41,1.41,0,0,0,.3-.95V130h1.85Z" fill="#2b3033"/><path d="M105.78,135.93a2.74,2.74,0,0,1-1.24.22q-2,0-2-2v-2.75h-1V130h1v-1.29l1.85-.53V130h1.35v1.37h-1.35v2.43q0,.94.74.94a1.25,1.25,0,0,0,.6-.17Z" fill="#2b3033"/><path d="M112.76,136.15q-3,0-3-4.21a5.73,5.73,0,0,1,.81-3.33,2.7,2.7,0,0,1,2.35-1.15q2.93,0,2.93,4.28A5.64,5.64,0,0,1,115,135,2.63,2.63,0,0,1,112.76,136.15Zm.08-7.28q-1.2,0-1.2,3,0,2.84,1.18,2.84T114,131.8Q114,128.87,112.84,128.87Z" fill="#2b3033"/><rect x="263.5" y="133.5" width="12" height="10" fill="url(#linear-gradient-2)"/><path d="M275,134v9H264v-9h11m1-1H263v11h13V133Z" fill="#a8abae"/><rect x="167.5" y="120.5" width="93" height="23" fill="#fff"/><path d="M260,121v22H168V121h92m1-1H167v24h94V120Z" fill="#a8abae"/><rect x="263.5" y="120.5" width="12" height="10" fill="url(#linear-gradient-3)"/><path d="M275,121v9H264v-9h11m1-1H263v11h13V120Z" fill="#a8abae"/><path d="M255.2,131.76a8.26,8.26,0,0,1-.19,1.87,4.36,4.36,0,0,1-.55,1.37,2.48,2.48,0,0,1-.88.85,2.43,2.43,0,0,1-1.19.29,2.26,2.26,0,0,1-1.13-.28,2.37,2.37,0,0,1-.84-.81,4.11,4.11,0,0,1-.52-1.31,8.1,8.1,0,0,1-.18-1.78,9.16,9.16,0,0,1,.19-1.95,4.45,4.45,0,0,1,.54-1.42,2.41,2.41,0,0,1,.89-.86,2.49,2.49,0,0,1,1.21-.29Q255.2,127.46,255.2,131.76Zm-1,.09q0-3.59-1.71-3.59t-1.8,3.65q0,3.4,1.76,3.4T254.21,131.86Z" fill="#2b3033"/><polygon points="265.94 136 273 136 269.47 140.74 265.94 136" fill="#2b3033"/><polygon points="273 128 265.94 128 269.47 123.26 273 128" fill="#2b3033"/><rect x="282" y="81" width="17" height="481" fill="#fff"/><rect x="26" y="126" width="28" height="12" fill="#f59332"/><path d="M47.72,134.84H44V129h.8v5.12h2.88v.72m-6.08-1.78a1.33,1.33,0,0,0-.11-.58.86.86,0,0,0-.38-.37L40.7,132l-.65,0H38.84v2.24h1l.83-.05a1.3,1.3,0,0,0,.53-.2l.32-.36Zm-.48-2.68-.07-.36-.23-.23-.45-.13-.65,0h-.92v1.68h1l.58,0,.4-.15a.65.65,0,0,0,.26-.3ZM42.44,133a1.73,1.73,0,0,1-.17.78,1.57,1.57,0,0,1-.44.55,2,2,0,0,1-.72.37,3.74,3.74,0,0,1-1,.11H38V129h1.74l1,0,.61.19a1.08,1.08,0,0,1,.47.43,1.26,1.26,0,0,1,.15.63,1.15,1.15,0,0,1-.21.7,1.49,1.49,0,0,1-.56.46v0a1.58,1.58,0,0,1,.92.53A1.53,1.53,0,0,1,42.44,133Zm-6.32-1.11a2.64,2.64,0,0,0-.23-1.17,1.74,1.74,0,0,0-.7-.75,2.26,2.26,0,0,0-.72-.28l-.91-.08h-.71v4.56h.71l1-.08a2.1,2.1,0,0,0,.75-.31,1.76,1.76,0,0,0,.64-.74A2.75,2.75,0,0,0,36.12,131.91Zm.8,0a3,3,0,0,1-.34,1.44,2.58,2.58,0,0,1-.91,1,2.84,2.84,0,0,1-.88.36,6,6,0,0,1-1.28.11H32V129h1.44a5.79,5.79,0,0,1,1.34.12,2.93,2.93,0,0,1,.84.34,2.61,2.61,0,0,1,.92,1A3.09,3.09,0,0,1,36.92,131.93Z" fill="#fff"/><path d="M77.72,281.05a1.08,1.08,0,0,1-.77-.28.9.9,0,0,1-.3-.68.86.86,0,0,1,.3-.68,1.25,1.25,0,0,1,1.54,0,.87.87,0,0,1,.3.68.89.89,0,0,1-.3.69A1.1,1.1,0,0,1,77.72,281.05Zm.91,6.95H76.78v-6h1.85Z" fill="#2b3033"/><path d="M86,288H84.14v-3.33q0-1.39-1-1.39a1,1,0,0,0-.79.37,1.41,1.41,0,0,0-.31.94V288H80.19v-6H82V283h0a2.12,2.12,0,0,1,1.93-1.1q2,0,2,2.47Z" fill="#2b3033"/><path d="M89.32,287.3h0v3.46H87.45V282H89.3v.9h0a2.36,2.36,0,0,1,3.73-.25,3.41,3.41,0,0,1,.64,2.18,3.69,3.69,0,0,1-.74,2.41,2.42,2.42,0,0,1-2,.91A1.87,1.87,0,0,1,89.32,287.3Zm-.05-2.46v.48a1.53,1.53,0,0,0,.33,1,1.07,1.07,0,0,0,.86.39,1.14,1.14,0,0,0,1-.49,2.36,2.36,0,0,0,.35-1.39q0-1.58-1.23-1.58a1.16,1.16,0,0,0-.93.43A1.72,1.72,0,0,0,89.27,284.84Z" fill="#2b3033"/><path d="M100.59,288H98.75v-.91h0a2.09,2.09,0,0,1-1.83,1.06q-2.09,0-2.09-2.53V282h1.85v3.46q0,1.27,1,1.27a1,1,0,0,0,.8-.35,1.41,1.41,0,0,0,.3-.95V282h1.85Z" fill="#2b3033"/><path d="M105.78,287.93a2.74,2.74,0,0,1-1.24.22q-2,0-2-2v-2.75h-1V282h1v-1.29l1.85-.53V282h1.35v1.37h-1.35v2.43q0,.94.74.94a1.25,1.25,0,0,0,.6-.17Z" fill="#2b3033"/><path d="M112.76,288.15q-3,0-3-4.21a5.73,5.73,0,0,1,.81-3.33,2.7,2.7,0,0,1,2.35-1.15q2.93,0,2.93,4.28A5.64,5.64,0,0,1,115,287,2.63,2.63,0,0,1,112.76,288.15Zm.08-7.28q-1.2,0-1.2,3,0,2.84,1.18,2.84T114,283.8Q114,280.87,112.84,280.87Z" fill="#2b3033"/><rect x="26" y="278" width="28" height="12" fill="#f59332"/><path d="M47.72,286.84H44V281h.8v5.12h2.88v.72m-6.08-1.78a1.33,1.33,0,0,0-.11-.58.86.86,0,0,0-.38-.37L40.7,284l-.65,0H38.84v2.24h1l.83-.05a1.3,1.3,0,0,0,.53-.2l.32-.36Zm-.48-2.68-.07-.36-.23-.23-.45-.13-.65,0h-.92v1.68h1l.58,0,.4-.15a.65.65,0,0,0,.26-.3ZM42.44,285a1.73,1.73,0,0,1-.17.78,1.57,1.57,0,0,1-.44.55,2,2,0,0,1-.72.37,3.74,3.74,0,0,1-1,.11H38V281h1.74l1,0,.61.19a1.08,1.08,0,0,1,.47.43,1.26,1.26,0,0,1,.15.63,1.15,1.15,0,0,1-.21.7,1.49,1.49,0,0,1-.56.46v0a1.58,1.58,0,0,1,.92.53A1.53,1.53,0,0,1,42.44,285Zm-6.32-1.11a2.64,2.64,0,0,0-.23-1.17,1.74,1.74,0,0,0-.7-.75,2.26,2.26,0,0,0-.72-.28l-.91-.08h-.71v4.56h.71l1-.08a2.1,2.1,0,0,0,.75-.31,1.76,1.76,0,0,0,.64-.74A2.75,2.75,0,0,0,36.12,283.91Zm.8,0a3,3,0,0,1-.34,1.44,2.58,2.58,0,0,1-.91,1,2.84,2.84,0,0,1-.88.36,6,6,0,0,1-1.28.11H32V281h1.44a5.79,5.79,0,0,1,1.34.12,2.93,2.93,0,0,1,.84.34,2.61,2.61,0,0,1,.92,1A3.09,3.09,0,0,1,36.92,283.93Z" fill="#fff"/><path d="M77.72,163.05a1.08,1.08,0,0,1-.77-.28.9.9,0,0,1-.3-.68.86.86,0,0,1,.3-.68,1.25,1.25,0,0,1,1.54,0,.87.87,0,0,1,.3.68.89.89,0,0,1-.3.69A1.1,1.1,0,0,1,77.72,163.05Zm.91,6.95H76.78v-6h1.85Z" fill="#2b3033"/><path d="M86,170H84.14v-3.33q0-1.39-1-1.39a1,1,0,0,0-.79.37,1.41,1.41,0,0,0-.31.94V170H80.19v-6H82V165h0a2.12,2.12,0,0,1,1.93-1.1q2,0,2,2.47Z" fill="#2b3033"/><path d="M89.32,169.3h0v3.46H87.45V164H89.3v.9h0a2.36,2.36,0,0,1,3.73-.25,3.41,3.41,0,0,1,.64,2.18,3.69,3.69,0,0,1-.74,2.41,2.42,2.42,0,0,1-2,.91A1.87,1.87,0,0,1,89.32,169.3Zm-.05-2.46v.48a1.53,1.53,0,0,0,.33,1,1.07,1.07,0,0,0,.86.39,1.14,1.14,0,0,0,1-.49,2.36,2.36,0,0,0,.35-1.39q0-1.58-1.23-1.58a1.16,1.16,0,0,0-.93.43A1.72,1.72,0,0,0,89.27,166.84Z" fill="#2b3033"/><path d="M100.59,170H98.75v-.91h0a2.09,2.09,0,0,1-1.83,1.06q-2.09,0-2.09-2.53V164h1.85v3.46q0,1.27,1,1.27a1,1,0,0,0,.8-.35,1.41,1.41,0,0,0,.3-.95V164h1.85Z" fill="#2b3033"/><path d="M105.78,169.93a2.74,2.74,0,0,1-1.24.22q-2,0-2-2v-2.75h-1V164h1v-1.29l1.85-.53V164h1.35v1.37h-1.35v2.43q0,.94.74.94a1.25,1.25,0,0,0,.6-.17Z" fill="#2b3033"/><path d="M112.76,170.15q-3,0-3-4.21a5.73,5.73,0,0,1,.81-3.33,2.7,2.7,0,0,1,2.35-1.15q2.93,0,2.93,4.28A5.64,5.64,0,0,1,115,169,2.63,2.63,0,0,1,112.76,170.15Zm.08-7.28q-1.2,0-1.2,3,0,2.84,1.18,2.84T114,165.8Q114,162.87,112.84,162.87Z" fill="#2b3033"/><rect x="263.5" y="167.5" width="12" height="10" fill="url(#linear-gradient-4)"/><path d="M275,168v9H264v-9h11m1-1H263v11h13V167Z" fill="#a8abae"/><rect x="167.5" y="154.5" width="93" height="23" fill="#fff"/><path d="M260,155v22H168V155h92m1-1H167v24h94V154Z" fill="#a8abae"/><rect x="263.5" y="154.5" width="12" height="10" fill="url(#linear-gradient-5)"/><path d="M275,155v9H264v-9h11m1-1H263v11h13V154Z" fill="#a8abae"/><path d="M255.2,165.76a8.26,8.26,0,0,1-.19,1.87,4.36,4.36,0,0,1-.55,1.37,2.48,2.48,0,0,1-.88.85,2.43,2.43,0,0,1-1.19.29,2.26,2.26,0,0,1-1.13-.28,2.37,2.37,0,0,1-.84-.81,4.11,4.11,0,0,1-.52-1.31,8.1,8.1,0,0,1-.18-1.78,9.16,9.16,0,0,1,.19-1.95,4.45,4.45,0,0,1,.54-1.42,2.41,2.41,0,0,1,.89-.86,2.49,2.49,0,0,1,1.21-.29Q255.2,161.46,255.2,165.76Zm-1,.09q0-3.59-1.71-3.59t-1.8,3.65q0,3.4,1.76,3.4T254.21,165.86Z" fill="#2b3033"/><polygon points="265.94 170 273 170 269.47 174.74 265.94 170" fill="#2b3033"/><polygon points="273 162 265.94 162 269.47 157.26 273 162" fill="#2b3033"/><rect x="26" y="160" width="28" height="12" fill="#f59332"/><path d="M47.72,168.84H44V163h.8v5.12h2.88v.72m-6.08-1.78a1.33,1.33,0,0,0-.11-.58.86.86,0,0,0-.38-.37L40.7,166l-.65,0H38.84v2.24h1l.83-.05a1.3,1.3,0,0,0,.53-.2l.32-.36Zm-.48-2.68-.07-.36-.23-.23-.45-.13-.65,0h-.92v1.68h1l.58,0,.4-.15a.65.65,0,0,0,.26-.3ZM42.44,167a1.73,1.73,0,0,1-.17.78,1.57,1.57,0,0,1-.44.55,2,2,0,0,1-.72.37,3.74,3.74,0,0,1-1,.11H38V163h1.74l1,0,.61.19a1.08,1.08,0,0,1,.47.43,1.26,1.26,0,0,1,.15.63,1.15,1.15,0,0,1-.21.7,1.49,1.49,0,0,1-.56.46v0a1.58,1.58,0,0,1,.92.53A1.53,1.53,0,0,1,42.44,167Zm-6.32-1.11a2.64,2.64,0,0,0-.23-1.17,1.74,1.74,0,0,0-.7-.75,2.26,2.26,0,0,0-.72-.28l-.91-.08h-.71v4.56h.71l1-.08a2.1,2.1,0,0,0,.75-.31,1.76,1.76,0,0,0,.64-.74A2.75,2.75,0,0,0,36.12,165.91Zm.8,0a3,3,0,0,1-.34,1.44,2.58,2.58,0,0,1-.91,1,2.84,2.84,0,0,1-.88.36,6,6,0,0,1-1.28.11H32V163h1.44a5.79,5.79,0,0,1,1.34.12,2.93,2.93,0,0,1,.84.34,2.61,2.61,0,0,1,.92,1A3.09,3.09,0,0,1,36.92,165.93Z" fill="#fff"/><rect x="25" y="188" width="251" height="1" fill="#a0a0a0"/><rect x="25" y="302" width="251" height="1" fill="#a0a0a0"/><rect x="151.5" y="204.5" width="124" height="23" fill="url(#linear-gradient-6)"/><path d="M275,205v22H152V205H275m1-1H151v24H276V204Z" fill="#a8abae"/><path d="M259,213h9l-4.5,6Z" fill="#2b3033"/><path d="M180.38,213.38h-3.28v2.91h3v.88h-3v3.72h-1v-8.4h4.27Z" fill="#2b3033"/><path d="M182.8,220.89h-1V212h1Z" fill="#2b3033"/><path d="M187.25,221a2.78,2.78,0,0,1-2.12-.84,3.11,3.11,0,0,1-.79-2.23,3.24,3.24,0,0,1,.83-2.36,3,3,0,0,1,2.23-.85,2.69,2.69,0,0,1,2.09.83,3.28,3.28,0,0,1,.75,2.29,3.22,3.22,0,0,1-.81,2.3A2.84,2.84,0,0,1,187.25,221Zm.07-5.47a1.83,1.83,0,0,0-1.46.63,2.59,2.59,0,0,0-.54,1.74,2.45,2.45,0,0,0,.54,1.68,1.85,1.85,0,0,0,1.46.62,1.76,1.76,0,0,0,1.43-.6,2.62,2.62,0,0,0,.5-1.72,2.66,2.66,0,0,0-.5-1.73A1.75,1.75,0,0,0,187.32,215.56Z" fill="#2b3033"/><path d="M195.91,220.89h-1V220h0a2,2,0,0,1-1.85,1.08,2,2,0,0,1-1.4-.47,1.64,1.64,0,0,1-.51-1.26q0-1.68,2-2l1.8-.25q0-1.53-1.24-1.53a3,3,0,0,0-2,.74v-1a3.72,3.72,0,0,1,2-.56q2.12,0,2.12,2.24Zm-1-3-1.45.2a2.35,2.35,0,0,0-1,.33,1,1,0,0,0-.34.84.92.92,0,0,0,.31.72,1.21,1.21,0,0,0,.83.28,1.54,1.54,0,0,0,1.18-.5,1.79,1.79,0,0,0,.47-1.27Z" fill="#2b3033"/><path d="M200.51,220.83a1.85,1.85,0,0,1-.9.19q-1.58,0-1.58-1.76v-3.55h-1v-.82h1v-1.46l1-.31v1.78h1.51v.82H199v3.38a1.4,1.4,0,0,0,.21.86.82.82,0,0,0,.68.26,1,1,0,0,0,.63-.2Z" fill="#2b3033"/><path d="M202.28,213.37a.61.61,0,0,1-.44-.18.59.59,0,0,1-.18-.45.62.62,0,0,1,.62-.63.62.62,0,0,1,.45.18.63.63,0,0,1,0,.89A.62.62,0,0,1,202.28,213.37Zm.47,7.52h-1v-6h1Z" fill="#2b3033"/><path d="M209.68,220.89h-1v-3.42q0-1.91-1.39-1.91a1.51,1.51,0,0,0-1.19.54,2,2,0,0,0-.47,1.37v3.42h-1v-6h1v1h0a2.17,2.17,0,0,1,2-1.14,1.84,1.84,0,0,1,1.51.64,2.83,2.83,0,0,1,.52,1.84Z" fill="#2b3033"/><path d="M216.61,220.41q0,3.3-3.16,3.3a4.25,4.25,0,0,1-1.95-.42v-1a4,4,0,0,0,1.93.56q2.21,0,2.21-2.36v-.66h0a2.43,2.43,0,0,1-3.86.35,3.2,3.2,0,0,1-.68-2.15,3.74,3.74,0,0,1,.74-2.43,2.46,2.46,0,0,1,2-.9,2,2,0,0,1,1.8,1h0v-.83h1Zm-1-2.23v-.88a1.72,1.72,0,0,0-.48-1.22,1.59,1.59,0,0,0-1.2-.51,1.67,1.67,0,0,0-1.39.65,2.89,2.89,0,0,0-.5,1.81,2.48,2.48,0,0,0,.48,1.6,1.56,1.56,0,0,0,1.28.6,1.67,1.67,0,0,0,1.32-.57A2.14,2.14,0,0,0,215.65,218.18Z" fill="#2b3033"/><path d="M221.63,217.93h-3.2v-.76h3.2Z" fill="#2b3033"/><path d="M224.47,217.71v3.18h-1v-8.4h2.31a3,3,0,0,1,2.09.66,2.34,2.34,0,0,1,.74,1.85,2.55,2.55,0,0,1-.82,2,3.15,3.15,0,0,1-2.22.76Zm0-4.34v3.45h1a2.31,2.31,0,0,0,1.56-.47,1.65,1.65,0,0,0,.54-1.32q0-1.66-2-1.66Z" fill="#2b3033"/><path d="M232.14,221a2.78,2.78,0,0,1-2.12-.84,3.11,3.11,0,0,1-.79-2.23,3.24,3.24,0,0,1,.83-2.36,3,3,0,0,1,2.23-.85,2.69,2.69,0,0,1,2.09.83,3.28,3.28,0,0,1,.75,2.29,3.22,3.22,0,0,1-.81,2.3A2.84,2.84,0,0,1,232.14,221Zm.07-5.47a1.83,1.83,0,0,0-1.46.63,2.59,2.59,0,0,0-.54,1.74,2.45,2.45,0,0,0,.54,1.68,1.85,1.85,0,0,0,1.46.62,1.76,1.76,0,0,0,1.43-.6,2.62,2.62,0,0,0,.5-1.72,2.66,2.66,0,0,0-.5-1.73A1.75,1.75,0,0,0,232.21,215.56Z" fill="#2b3033"/><path d="M237.15,213.37a.61.61,0,0,1-.44-.18.59.59,0,0,1-.18-.45.62.62,0,0,1,.62-.63.62.62,0,0,1,.45.18.63.63,0,0,1,0,.89A.62.62,0,0,1,237.15,213.37Zm.47,7.52h-1v-6h1Z" fill="#2b3033"/><path d="M244.55,220.89h-1v-3.42q0-1.91-1.39-1.91a1.51,1.51,0,0,0-1.19.54,2,2,0,0,0-.47,1.37v3.42h-1v-6h1v1h0a2.17,2.17,0,0,1,2-1.14,1.84,1.84,0,0,1,1.51.64,2.83,2.83,0,0,1,.52,1.84Z" fill="#2b3033"/><path d="M249.14,220.83a1.85,1.85,0,0,1-.9.19q-1.58,0-1.58-1.76v-3.55h-1v-.82h1v-1.46l1-.31v1.78h1.51v.82h-1.51v3.38a1.4,1.4,0,0,0,.21.86.82.82,0,0,0,.68.26,1,1,0,0,0,.63-.2Z" fill="#2b3033"/><rect x="155.5" y="208.5" width="15" height="15" fill="#f59433"/><path d="M170,209v14H156V209h14m1-1H155v16h16V208Z" fill="#a9acaf"/><rect x="151.5" y="238.5" width="124" height="23" fill="url(#linear-gradient-7)"/><path d="M275,239v22H152V239H275m1-1H151v24H276V238Z" fill="#a8abae"/><path d="M259,247h9l-4.5,6Z" fill="#2b3033"/><path d="M162.11,254.89v-8.4h2.32q4.44,0,4.44,4.1a4.13,4.13,0,0,1-1.23,3.13,4.58,4.58,0,0,1-3.3,1.18Zm1-7.51V254h1.25a3.56,3.56,0,0,0,2.57-.88,3.32,3.32,0,0,0,.92-2.51q0-3.23-3.43-3.23Z" fill="#2b3033"/><path d="M172.9,255a2.78,2.78,0,0,1-2.12-.84A3.11,3.11,0,0,1,170,252a3.24,3.24,0,0,1,.83-2.36,3,3,0,0,1,2.23-.85,2.69,2.69,0,0,1,2.09.83,3.28,3.28,0,0,1,.75,2.29,3.22,3.22,0,0,1-.81,2.3A2.84,2.84,0,0,1,172.9,255Zm.07-5.47a1.83,1.83,0,0,0-1.46.63,2.59,2.59,0,0,0-.54,1.74,2.45,2.45,0,0,0,.54,1.68,1.85,1.85,0,0,0,1.46.62,1.76,1.76,0,0,0,1.43-.6,2.62,2.62,0,0,0,.5-1.72,2.66,2.66,0,0,0-.5-1.73A1.75,1.75,0,0,0,173,249.56Z" fill="#2b3033"/><path d="M182.28,254.89h-1v-.95h0a2,2,0,0,1-1.85,1.09q-2.14,0-2.14-2.55v-3.59h1v3.43q0,1.9,1.45,1.9a1.47,1.47,0,0,0,1.16-.52,2,2,0,0,0,.45-1.36v-3.46h1Z" fill="#2b3033"/><path d="M185.2,254h0v.87h-1V246h1v3.94h0a2.27,2.27,0,0,1,2.07-1.2,2.2,2.2,0,0,1,1.81.81,3.33,3.33,0,0,1,.65,2.16,3.72,3.72,0,0,1-.73,2.41,2.44,2.44,0,0,1-2,.91A2,2,0,0,1,185.2,254Zm0-2.42v.84a1.78,1.78,0,0,0,.48,1.26,1.72,1.72,0,0,0,2.6-.15,3.06,3.06,0,0,0,.5-1.86,2.42,2.42,0,0,0-.46-1.57,1.53,1.53,0,0,0-1.25-.57,1.7,1.7,0,0,0-1.35.58A2.14,2.14,0,0,0,185.18,251.6Z" fill="#2b3033"/><path d="M192.23,254.89h-1V246h1Z" fill="#2b3033"/><path d="M199,252.13h-4.24a2.24,2.24,0,0,0,.54,1.55,1.86,1.86,0,0,0,1.42.54,3,3,0,0,0,1.86-.67v.9a3.48,3.48,0,0,1-2.09.57,2.54,2.54,0,0,1-2-.82,3.35,3.35,0,0,1-.73-2.3,3.28,3.28,0,0,1,.79-2.28,2.55,2.55,0,0,1,2-.88,2.26,2.26,0,0,1,1.82.76,3.18,3.18,0,0,1,.64,2.12Zm-1-.81a2,2,0,0,0-.4-1.29,1.37,1.37,0,0,0-1.1-.46,1.55,1.55,0,0,0-1.15.49,2.21,2.21,0,0,0-.59,1.27Z" fill="#2b3033"/><rect x="25.5" y="339.5" width="119" height="21" fill="url(#linear-gradient-8)"/><path d="M144,340v20H26V340H144m1-1H25v22H145V339Z" fill="#a9acaf"/><path d="M130,347h9l-4.5,6Z" fill="#696e73" opacity="0.8"/><path d="M42.82,353.85a4.93,4.93,0,0,1-2.32.49,3.74,3.74,0,0,1-2.87-1.15,4.26,4.26,0,0,1-1.08-3,4.46,4.46,0,0,1,1.21-3.26,4.12,4.12,0,0,1,3.08-1.24,4.93,4.93,0,0,1,2,.35v1a4,4,0,0,0-2-.5,3.06,3.06,0,0,0-2.35,1,3.64,3.64,0,0,0-.9,2.58,3.47,3.47,0,0,0,.84,2.45,2.86,2.86,0,0,0,2.21.91,4.14,4.14,0,0,0,2.19-.56Z" fill="#2b3033"/><path d="M47.53,349.17a1.18,1.18,0,0,0-.73-.19,1.23,1.23,0,0,0-1,.58,2.68,2.68,0,0,0-.41,1.58v3.06h-1v-6h1v1.24h0a2.1,2.1,0,0,1,.63-1,1.43,1.43,0,0,1,.94-.35,1.57,1.57,0,0,1,.57.08Z" fill="#2b3033"/><path d="M53.24,351.44H49a2.24,2.24,0,0,0,.54,1.55,1.86,1.86,0,0,0,1.42.54,3,3,0,0,0,1.86-.67v.9a3.48,3.48,0,0,1-2.09.57,2.54,2.54,0,0,1-2-.82,3.35,3.35,0,0,1-.73-2.3,3.28,3.28,0,0,1,.79-2.28,2.55,2.55,0,0,1,2-.88,2.26,2.26,0,0,1,1.82.76,3.18,3.18,0,0,1,.64,2.12Zm-1-.81a2,2,0,0,0-.4-1.29,1.37,1.37,0,0,0-1.1-.46,1.55,1.55,0,0,0-1.15.49,2.21,2.21,0,0,0-.59,1.27Z" fill="#2b3033"/><path d="M59,354.2H58v-.94h0a2,2,0,0,1-1.85,1.08,2,2,0,0,1-1.4-.47,1.64,1.64,0,0,1-.51-1.26q0-1.68,2-2l1.8-.25q0-1.53-1.24-1.53a3,3,0,0,0-2,.74v-1a3.72,3.72,0,0,1,2-.56q2.12,0,2.12,2.24Zm-1-3-1.45.2a2.35,2.35,0,0,0-1,.33,1,1,0,0,0-.34.84.92.92,0,0,0,.31.72,1.21,1.21,0,0,0,.83.28,1.54,1.54,0,0,0,1.18-.5,1.79,1.79,0,0,0,.47-1.27Z" fill="#2b3033"/><path d="M63.58,354.14a1.85,1.85,0,0,1-.9.19q-1.58,0-1.58-1.76V349h-1v-.82h1v-1.46l1-.31v1.78h1.51V349H62.07v3.38a1.4,1.4,0,0,0,.21.86.82.82,0,0,0,.68.26,1,1,0,0,0,.63-.2Z" fill="#2b3033"/><path d="M69.59,351.44H65.36A2.24,2.24,0,0,0,65.9,353a1.86,1.86,0,0,0,1.42.54,3,3,0,0,0,1.86-.67v.9a3.48,3.48,0,0,1-2.09.57,2.54,2.54,0,0,1-2-.82,3.35,3.35,0,0,1-.73-2.3,3.28,3.28,0,0,1,.79-2.28,2.55,2.55,0,0,1,2-.88,2.26,2.26,0,0,1,1.82.76,3.18,3.18,0,0,1,.64,2.12Zm-1-.81a2,2,0,0,0-.4-1.29,1.37,1.37,0,0,0-1.1-.46,1.55,1.55,0,0,0-1.15.49,2.21,2.21,0,0,0-.59,1.27Z" fill="#2b3033"/><path d="M81,354.2H79.88L79,351.85H75.42l-.84,2.36h-1.1l3.22-8.4h1ZM78.66,351l-1.32-3.58a3.43,3.43,0,0,1-.13-.56h0a3.14,3.14,0,0,1-.13.56L75.75,351Z" fill="#2b3033"/><path d="M83,354.2h-1v-8.88h1Z" fill="#2b3033"/><path d="M85.94,354.2H85v-8.88h1Z" fill="#2b3033"/><rect x="124" y="340" width="1" height="20" fill="#a9acaf"/><rect x="25.5" y="371.5" width="119" height="21" fill="url(#linear-gradient-9)"/><path d="M144,372v20H26V372H144m1-1H25v22H145V371Z" fill="#a8abae"/><path d="M72.62,386.07v-8.4h2.32q4.44,0,4.44,4.1a4.13,4.13,0,0,1-1.23,3.13,4.58,4.58,0,0,1-3.3,1.18Zm1-7.51v6.62h1.25a3.56,3.56,0,0,0,2.57-.88,3.32,3.32,0,0,0,.92-2.51q0-3.23-3.43-3.23Z" fill="#4d5359"/><path d="M83.42,386.21a2.78,2.78,0,0,1-2.12-.84,3.11,3.11,0,0,1-.79-2.23,3.24,3.24,0,0,1,.83-2.36,3,3,0,0,1,2.23-.85,2.69,2.69,0,0,1,2.09.83,3.28,3.28,0,0,1,.75,2.29,3.22,3.22,0,0,1-.81,2.3A2.84,2.84,0,0,1,83.42,386.21Zm.07-5.47a1.83,1.83,0,0,0-1.46.63,2.59,2.59,0,0,0-.54,1.74,2.45,2.45,0,0,0,.54,1.68,1.85,1.85,0,0,0,1.46.62,1.76,1.76,0,0,0,1.43-.6,2.62,2.62,0,0,0,.5-1.72,2.66,2.66,0,0,0-.5-1.73A1.75,1.75,0,0,0,83.49,380.73Z" fill="#4d5359"/><path d="M92,385.79a3.12,3.12,0,0,1-1.64.42,2.72,2.72,0,0,1-2.07-.83,3,3,0,0,1-.79-2.17,3.33,3.33,0,0,1,.85-2.38,3,3,0,0,1,2.27-.9,3.16,3.16,0,0,1,1.39.29v1a2.44,2.44,0,0,0-1.43-.47,1.93,1.93,0,0,0-1.51.66,2.5,2.5,0,0,0-.59,1.73,2.38,2.38,0,0,0,.55,1.66,1.91,1.91,0,0,0,1.49.61,2.41,2.41,0,0,0,1.48-.52Z" fill="#4d5359"/><path d="M98.46,386.07H97.12l-2.65-2.88h0v2.88h-1v-8.88h1v5.63h0L97,380.07h1.26L95.46,383Z" fill="#4d5359"/><rect x="155.5" y="371.5" width="119" height="21" fill="url(#linear-gradient-10)"/><path d="M274,372v20H156V372H274m1-1H155v22H275V371Z" fill="#a8abae"/><path d="M201.93,382.67q0,3.54-3.19,3.54t-3.06-3.4v-5.14h1v5.07q0,2.58,2.18,2.58t2.1-2.5v-5.16h1Z" fill="#4d5359"/><path d="M208.88,386.07h-1v-3.42q0-1.91-1.39-1.91a1.51,1.51,0,0,0-1.19.54,2,2,0,0,0-.47,1.37v3.42h-1v-6h1v1h0a2.17,2.17,0,0,1,2-1.14,1.84,1.84,0,0,1,1.51.64,2.83,2.83,0,0,1,.52,1.84Z" fill="#4d5359"/><path d="M215.81,386.07h-1v-1h0a2.22,2.22,0,0,1-2.06,1.16,2.24,2.24,0,0,1-1.81-.81,3.31,3.31,0,0,1-.68-2.19,3.6,3.6,0,0,1,.75-2.38,2.47,2.47,0,0,1,2-.9,1.92,1.92,0,0,1,1.8,1h0v-3.71h1Zm-1-2.71v-.88a1.72,1.72,0,0,0-.48-1.23,1.61,1.61,0,0,0-1.22-.5,1.66,1.66,0,0,0-1.38.64,2.82,2.82,0,0,0-.5,1.78,2.54,2.54,0,0,0,.48,1.64,1.58,1.58,0,0,0,1.3.6,1.64,1.64,0,0,0,1.3-.58A2.16,2.16,0,0,0,214.85,383.35Z" fill="#4d5359"/><path d="M220.26,386.21a2.78,2.78,0,0,1-2.12-.84,3.11,3.11,0,0,1-.79-2.23,3.24,3.24,0,0,1,.83-2.36,3,3,0,0,1,2.23-.85,2.69,2.69,0,0,1,2.09.83,3.28,3.28,0,0,1,.75,2.29,3.22,3.22,0,0,1-.81,2.3A2.84,2.84,0,0,1,220.26,386.21Zm.07-5.47a1.83,1.83,0,0,0-1.46.63,2.59,2.59,0,0,0-.54,1.74,2.45,2.45,0,0,0,.54,1.68,1.85,1.85,0,0,0,1.46.62,1.76,1.76,0,0,0,1.43-.6,2.62,2.62,0,0,0,.5-1.72,2.66,2.66,0,0,0-.5-1.73A1.75,1.75,0,0,0,220.33,380.73Z" fill="#4d5359"/><path d="M228.87,385.79a3.12,3.12,0,0,1-1.64.42,2.72,2.72,0,0,1-2.07-.83,3,3,0,0,1-.79-2.17,3.33,3.33,0,0,1,.85-2.38,3,3,0,0,1,2.27-.9,3.16,3.16,0,0,1,1.39.29v1a2.44,2.44,0,0,0-1.43-.47,1.93,1.93,0,0,0-1.51.66,2.5,2.5,0,0,0-.59,1.73,2.38,2.38,0,0,0,.55,1.66,1.91,1.91,0,0,0,1.49.61,2.41,2.41,0,0,0,1.48-.52Z" fill="#4d5359"/><path d="M235.31,386.07H234l-2.65-2.88h0v2.88h-1v-8.88h1v5.63h0l2.52-2.75h1.26L232.31,383Z" fill="#4d5359"/><path d="M42.21,460.8v-1.16a2.25,2.25,0,0,0,.48.32,3.87,3.87,0,0,0,.59.24,4.66,4.66,0,0,0,.62.15,3.45,3.45,0,0,0,.57.05,2.25,2.25,0,0,0,1.36-.34,1.26,1.26,0,0,0,.3-1.56,1.68,1.68,0,0,0-.41-.46,4.1,4.1,0,0,0-.62-.4l-.78-.4q-.44-.22-.82-.45a3.55,3.55,0,0,1-.66-.5,2.1,2.1,0,0,1-.44-.62,2.13,2.13,0,0,1,.09-1.82,2.16,2.16,0,0,1,.66-.7,3,3,0,0,1,.93-.41,4.28,4.28,0,0,1,1.07-.13,4.1,4.1,0,0,1,1.81.3V454a3.28,3.28,0,0,0-1.91-.52,3.14,3.14,0,0,0-.64.07,1.82,1.82,0,0,0-.57.22,1.27,1.27,0,0,0-.41.39,1,1,0,0,0-.16.59,1.21,1.21,0,0,0,.12.56,1.36,1.36,0,0,0,.35.43,3.53,3.53,0,0,0,.57.38l.78.4q.45.22.86.47a3.91,3.91,0,0,1,.71.54,2.42,2.42,0,0,1,.48.66,1.86,1.86,0,0,1,.18.83,2.11,2.11,0,0,1-.24,1.05,2,2,0,0,1-.66.7,2.87,2.87,0,0,1-1,.39,5.21,5.21,0,0,1-1.14.12l-.49,0-.6-.09a4.88,4.88,0,0,1-.58-.15A1.8,1.8,0,0,1,42.21,460.8Z"/><path d="M53.83,461.14h-1v-3.46q0-1.87-1.39-1.87a1.52,1.52,0,0,0-1.18.54,2,2,0,0,0-.48,1.39v3.4h-1v-8.88h1v3.88h0a2.18,2.18,0,0,1,2-1.14q2,0,2,2.44Z"/><path d="M58.15,461.28a2.78,2.78,0,0,1-2.12-.84,3.11,3.11,0,0,1-.79-2.23,3.24,3.24,0,0,1,.83-2.36,3,3,0,0,1,2.23-.85,2.69,2.69,0,0,1,2.09.83,3.28,3.28,0,0,1,.75,2.29,3.22,3.22,0,0,1-.81,2.3A2.84,2.84,0,0,1,58.15,461.28Zm.07-5.47a1.83,1.83,0,0,0-1.46.63,2.59,2.59,0,0,0-.54,1.74,2.45,2.45,0,0,0,.54,1.68,1.85,1.85,0,0,0,1.46.62,1.76,1.76,0,0,0,1.43-.6,2.62,2.62,0,0,0,.5-1.72,2.66,2.66,0,0,0-.5-1.73A1.75,1.75,0,0,0,58.22,455.81Z"/><path d="M70.23,455.14l-1.8,6h-1l-1.24-4.29a2.8,2.8,0,0,1-.09-.56h0a2.63,2.63,0,0,1-.12.54l-1.34,4.31h-1l-1.82-6h1l1.24,4.51a2.72,2.72,0,0,1,.08.54h0a2.52,2.52,0,0,1,.11-.55l1.38-4.5h.88l1.24,4.52a3.23,3.23,0,0,1,.09.54h0a2.49,2.49,0,0,1,.1-.54l1.22-4.52Z"/><path d="M79.12,461.14H74.76v-8.4h1v7.51h3.38Z"/><path d="M84.57,461.14h-1v-.94h0a2,2,0,0,1-1.85,1.08,2,2,0,0,1-1.4-.47,1.64,1.64,0,0,1-.51-1.26q0-1.68,2-2l1.8-.25q0-1.53-1.24-1.53a3,3,0,0,0-2,.74v-1a3.72,3.72,0,0,1,2-.56q2.12,0,2.12,2.24Zm-1-3-1.45.2a2.35,2.35,0,0,0-1,.33,1,1,0,0,0-.34.84.92.92,0,0,0,.31.72,1.21,1.21,0,0,0,.83.28,1.54,1.54,0,0,0,1.18-.5,1.79,1.79,0,0,0,.47-1.27Z"/><path d="M87.37,460.27h0v.87h-1v-8.88h1v3.94h0a2.27,2.27,0,0,1,2.07-1.2,2.2,2.2,0,0,1,1.81.81A3.33,3.33,0,0,1,91.9,458a3.72,3.72,0,0,1-.73,2.41,2.44,2.44,0,0,1-2,.91A2,2,0,0,1,87.37,460.27Zm0-2.42v.84a1.78,1.78,0,0,0,.48,1.26,1.72,1.72,0,0,0,2.6-.15,3.06,3.06,0,0,0,.5-1.86,2.42,2.42,0,0,0-.46-1.57,1.53,1.53,0,0,0-1.25-.57,1.7,1.7,0,0,0-1.35.58A2.14,2.14,0,0,0,87.34,457.85Z"/><path d="M98.26,458.38H94a2.24,2.24,0,0,0,.54,1.55,1.86,1.86,0,0,0,1.42.54,3,3,0,0,0,1.86-.67v.9a3.48,3.48,0,0,1-2.09.57,2.54,2.54,0,0,1-2-.82,3.35,3.35,0,0,1-.73-2.3,3.28,3.28,0,0,1,.79-2.28,2.55,2.55,0,0,1,2-.88,2.26,2.26,0,0,1,1.82.76,3.18,3.18,0,0,1,.64,2.12Zm-1-.81a2,2,0,0,0-.4-1.29,1.37,1.37,0,0,0-1.1-.46,1.55,1.55,0,0,0-1.15.49,2.21,2.21,0,0,0-.59,1.27Z"/><path d="M100.67,461.14h-1v-8.88h1Z"/><rect x="24.5" y="451.5" width="11" height="11" fill="#fff"/><path d="M35,452v10H25V452H35m1-1H24v12H36V451Z" fill="#a8abae"/></g><path d="M427,477.67c-2,0-2.64,2.25-4.26,3.82a39.16,39.16,0,0,1-4.84,4.24,7.54,7.54,0,0,1-9.68,0,40.67,40.67,0,0,1-4.84-4.24,39.28,39.28,0,0,0-4.84-4.25,7.55,7.55,0,0,0-9.67,0,40,40,0,0,0-4.85,4.24,39.16,39.16,0,0,1-4.84,4.24,7.54,7.54,0,0,1-9.68,0,39.84,39.84,0,0,1-4.83-4.24,41.72,41.72,0,0,0-4.84-4.25,7.57,7.57,0,0,0-9.68,0,39.16,39.16,0,0,0-4.84,4.24,40.67,40.67,0,0,1-4.84,4.24,7.54,7.54,0,0,1-9.68,0,39.16,39.16,0,0,1-4.84-4.24,41.72,41.72,0,0,0-4.84-4.25,7.57,7.57,0,0,0-9.68,0,39.9,39.9,0,0,0-4.84,4.24,40.67,40.67,0,0,1-4.84,4.24,7.53,7.53,0,0,1-9.68,0,39.16,39.16,0,0,1-4.84-4.24,40.91,40.91,0,0,0-4.84-4.25,7.57,7.57,0,0,0-9.68,0,39.9,39.9,0,0,0-4.84,4.24,39.9,39.9,0,0,1-4.84,4.24,7.53,7.53,0,0,1-9.68,0,39.9,39.9,0,0,1-4.84-4.24,40.13,40.13,0,0,0-4.84-4.25,7.57,7.57,0,0,0-9.68,0,40.67,40.67,0,0,0-4.84,4.24,40.91,40.91,0,0,1-4.84,4.25,7.55,7.55,0,0,1-9.68,0,40.67,40.67,0,0,1-4.84-4.24A39.16,39.16,0,0,0,205,477.2a8.55,8.55,0,0,0-4.84-1.76,8.66,8.66,0,0,0-4.84,1.75,40.67,40.67,0,0,0-4.84,4.24,39.28,39.28,0,0,1-4.84,4.25,7.55,7.55,0,0,1-9.68,0,40.67,40.67,0,0,1-4.84-4.24,39.16,39.16,0,0,0-4.84-4.24,7.54,7.54,0,0,0-9.68,0,40.67,40.67,0,0,0-4.84,4.24,39.16,39.16,0,0,1-4.84,4.24,7.53,7.53,0,0,1-9.68,0,39.9,39.9,0,0,1-4.84-4.24,39.9,39.9,0,0,0-4.84-4.24,7.54,7.54,0,0,0-9.68,0,40.67,40.67,0,0,0-4.84,4.24,39.16,39.16,0,0,1-4.84,4.24,7.53,7.53,0,0,1-9.68,0,40.67,40.67,0,0,1-4.84-4.24,39.16,39.16,0,0,0-4.84-4.24,7.54,7.54,0,0,0-9.68,0,40.67,40.67,0,0,0-4.84,4.24,39.16,39.16,0,0,1-4.84,4.24,8.62,8.62,0,0,1-4.84,1.76,8.67,8.67,0,0,1-4.84-1.76,39.84,39.84,0,0,1-4.83-4.24,40.67,40.67,0,0,0-4.84-4.24,8.67,8.67,0,0,0-4.84-1.76,8.62,8.62,0,0,0-4.84,1.76,39.16,39.16,0,0,0-4.84,4.24,40.67,40.67,0,0,1-4.84,4.24,8.67,8.67,0,0,1-4.84,1.76A8.62,8.62,0,0,1,21,485.67a39.16,39.16,0,0,1-4.84-4.24,40.67,40.67,0,0,0-4.84-4.24,8.67,8.67,0,0,0-4.84-1.76,8.62,8.62,0,0,0-4.84,1.76,39.16,39.16,0,0,0-4.84,4.24A40.67,40.67,0,0,1-8,485.67a8.67,8.67,0,0,1-4.84,1.76,8.62,8.62,0,0,1-4.84-1.76,39.9,39.9,0,0,1-4.84-4.24,39.9,39.9,0,0,0-4.84-4.24,8.65,8.65,0,0,0-4.84-1.76A8.65,8.65,0,0,0-37,477.19a39.9,39.9,0,0,0-4.84,4.24,39.9,39.9,0,0,1-4.84,4.24,8.65,8.65,0,0,1-4.84,1.76,8.65,8.65,0,0,1-4.84-1.76,39.9,39.9,0,0,1-4.84-4.24,39.9,39.9,0,0,0-4.84-4.24,8.65,8.65,0,0,0-4.84-1.76,8.65,8.65,0,0,0-4.84,1.76,39.9,39.9,0,0,0-4.84,4.24,39.9,39.9,0,0,1-4.84,4.24,8.65,8.65,0,0,1-4.84,1.76,8.67,8.67,0,0,1-4.84-1.76,40.67,40.67,0,0,1-4.84-4.24,39.16,39.16,0,0,0-4.84-4.24,8.62,8.62,0,0,0-4.84-1.76,8.67,8.67,0,0,0-4.84,1.76,40.67,40.67,0,0,0-4.84,4.24c-1.61,1.57-2.88,4.24-4.84,4.24" fill="none" stroke="#adaead" stroke-miterlimit="10"/></svg>