<svg id="Layer_1" data-name="Layer 1" xmlns="http://www.w3.org/2000/svg" width="341.04" height="240.2" viewBox="0 0 341.04 240.2"><defs><style>.cls-1,.cls-10{font-size:12px;font-family:SegoeUI, Segoe UI;}.cls-1,.cls-5{fill:#ec008c;}.cls-2{letter-spacing:-0.01em;}.cls-3{letter-spacing:-0.09em;}.cls-4{letter-spacing:-0.01em;}.cls-6{fill:#eef0ef;}.cls-7{fill:#fff;}.cls-8{fill:#999ea3;}.cls-9{fill:#4386b9;}.cls-10{fill:#4d5359;}.cls-11{letter-spacing:-0.01em;}.cls-12{letter-spacing:-0.1em;}.cls-13{letter-spacing:0.03em;}.cls-14{letter-spacing:-0.01em;}.cls-15{letter-spacing:0em;}</style></defs><title>Artboard 6</title><text class="cls-1" transform="translate(0 235.8)">1<tspan class="cls-2" x="6.47" y="0">p</tspan><tspan x="13.38" y="0">x: NiGrayNeutral68</tspan></text><text class="cls-1" transform="translate(275.22 52.43)">NI<tspan class="cls-3" x="12.17" y="0">T</tspan><tspan x="17.42" y="0">rueWhi</tspan><tspan class="cls-4" x="55.57" y="0">t</tspan><tspan x="59.54" y="0">e</tspan></text><rect class="cls-5" x="115.2" y="231.8" width="18" height="1"/><polygon class="cls-6" points="107.76 19.64 107.76 19.64 108.76 19.64 108.76 19.64 107.76 19.64"/><rect class="cls-7" x="134.63" y="18.3" width="129" height="214"/><path class="cls-8" d="M263.13,18.8v213h-128V18.8h128m1-1h-130v215h130V17.8Z"/><rect class="cls-9" x="134.13" y="178.8" width="128" height="20"/><text class="cls-10" transform="translate(144.04 33.2)">Edi<tspan class="cls-11" x="16.04" y="0">t</tspan><tspan x="20.02" y="0">or</tspan><tspan x="0" y="20">VI </tspan><tspan class="cls-12" x="0" y="40">T</tspan><tspan x="5.05" y="40">ext code</tspan><tspan x="0" y="60">Object sho</tspan><tspan class="cls-13" x="57.09" y="60">r</tspan><tspan class="cls-14" x="61.61" y="60">t</tspan><tspan x="65.52" y="60">cuts</tspan><tspan x="0" y="80">F</tspan><tspan class="cls-15" x="5.86" y="80">P</tspan><tspan x="12.52" y="80">GA compiler</tspan><tspan x="0" y="100">MathScript</tspan><tspan x="0" y="120">CEIP</tspan><tspan x="0" y="140">Er</tspan><tspan class="cls-14" x="10.24" y="140">r</tspan><tspan x="14.26" y="140">or </tspan><tspan class="cls-14" x="28.75" y="140">r</tspan><tspan x="32.76" y="140">epo</tspan><tspan class="cls-13" x="53.12" y="140">r</tspan><tspan x="57.64" y="140">ting</tspan><tspan class="cls-7"><tspan x="0" y="160">About</tspan></tspan></text><rect class="cls-5" x="183.39" y="18.81" width="22" height="1"/><rect class="cls-5" x="183.39" y="37.81" width="22" height="1"/><rect class="cls-5" x="193.87" y="18.81" width="1.05" height="20"/><text class="cls-1" transform="translate(198.39 31.97)">20</text><text class="cls-1" transform="translate(132.63 10.2)">10</text><polygon class="cls-5" points="144.13 30.97 144.13 13.97 136.13 13.97 136.13 30.97 135.13 30.97 135.13 13.97 135.13 12.97 136.13 12.97 144.13 12.97 145.13 12.97 145.13 13.97 145.13 30.97 144.13 30.97"/><rect class="cls-5" x="255.13" y="49.39" width="18" height="1"/><text class="cls-1" transform="translate(53.74 194)">NI<tspan class="cls-3" x="12.17" y="0">T</tspan><tspan x="17.42" y="0">rueWhi</tspan><tspan class="cls-4" x="55.57" y="0">t</tspan><tspan x="59.54" y="0">e</tspan></text><text class="cls-1" transform="translate(275.22 190.32)">NI<tspan class="cls-3" x="12.17" y="0">Blue</tspan></text><rect class="cls-5" x="255.13" y="187.28" width="18" height="1"/><rect class="cls-5" x="126.13" y="190.96" width="18" height="1"/></svg>