<svg id="Layer_1" data-name="Layer 1" xmlns="http://www.w3.org/2000/svg" xmlns:xlink="http://www.w3.org/1999/xlink" width="707" height="602" viewBox="0 0 707 602"><defs><style>.cls-1{fill:#eef0ef;}.cls-2{fill:#e1e3e4;}.cls-3{fill:#4c5358;}.cls-4{fill:#a8abae;}.cls-10,.cls-13,.cls-5{font-size:12px;}.cls-5,.cls-7{fill:#fff;}.cls-10,.cls-5{font-family:SegoeUI, Segoe UI;}.cls-6{letter-spacing:-0.01em;}.cls-8{fill:url(#linear-gradient);}.cls-9{stroke:#a8abae;stroke-miterlimit:10;fill:url(#linear-gradient-2);}.cls-10,.cls-13{fill:#4d5359;}.cls-11{fill:url(#linear-gradient-3);}.cls-12{letter-spacing:-0.03em;}.cls-13{font-family:SegoeUI-Bold, Segoe UI;font-weight:700;}.cls-14{letter-spacing:0.02em;}.cls-15{letter-spacing:0em;}.cls-16{fill:#999ea3;}.cls-17{fill:#4386b9;}.cls-18{letter-spacing:-0.01em;}.cls-19{letter-spacing:-0.1em;}.cls-20{letter-spacing:0.03em;}.cls-21{letter-spacing:0em;}.cls-22{letter-spacing:0.04em;}.cls-23{letter-spacing:-0.01em;}.cls-24{letter-spacing:-0.03em;}.cls-25{letter-spacing:0em;}.cls-26{letter-spacing:-0.02em;}.cls-27{letter-spacing:0.02em;}.cls-28{fill:#0071bc;text-decoration:underline;}.cls-29{letter-spacing:-0.05em;}</style><linearGradient id="linear-gradient" x1="647" y1="564.4" x2="647" y2="587.4" gradientUnits="userSpaceOnUse"><stop offset="0" stop-color="#ebe9ec"/><stop offset="0.28" stop-color="#e5e6e9"/><stop offset="1" stop-color="#dadfe2"/></linearGradient><linearGradient id="linear-gradient-2" x1="565" y1="563.9" x2="565" y2="587.9" xlink:href="#linear-gradient"/><linearGradient id="linear-gradient-3" x1="88.5" y1="564.4" x2="88.5" y2="587.4" xlink:href="#linear-gradient"/></defs><title>Artboard 1</title><rect class="cls-1" x="4" y="29" width="699" height="524"/><rect class="cls-2" x="4" y="554" width="699" height="44"/><path class="cls-3" d="M0,0V602H707V0ZM703,598H4V29l699,0Z"/><rect class="cls-4" x="4" y="553" width="699" height="1"/><text class="cls-5" transform="translate(15 18)">P<tspan class="cls-6" x="6.72" y="0">r</tspan><tspan x="10.73" y="0">efe</tspan><tspan class="cls-6" x="27.04" y="0">r</tspan><tspan x="31.05" y="0">ences</tspan></text><polygon class="cls-7" points="696.14 10.38 694.62 8.86 691.07 12.41 687.52 8.86 686 10.38 689.55 13.93 686 17.48 687.52 19 691.07 15.45 694.62 19 696.14 17.48 692.59 13.93 696.14 10.38"/><rect class="cls-8" x="611.5" y="564.5" width="71" height="23"/><path class="cls-4" d="M682,565v22H612V565h70m1-1H611v24h72V564Z"/><rect class="cls-9" x="529" y="564" width="72" height="24"/><text class="cls-10" transform="translate(629.47 580)">Cancel</text><text class="cls-10" transform="translate(557 580)">OK</text><rect class="cls-11" x="24.5" y="564.5" width="128" height="23"/><path class="cls-4" d="M152,565v22H25V565H152m1-1H24v24H153V564Z"/><text class="cls-10" transform="translate(33.79 580)"><tspan class="cls-12">R</tspan><tspan x="6.84" y="0">eset all p</tspan><tspan class="cls-6" x="54.1" y="0">r</tspan><tspan x="58.11" y="0">efe</tspan><tspan class="cls-6" x="74.42" y="0">r</tspan><tspan x="78.43" y="0">ences</tspan></text><text class="cls-13" transform="translate(174 58)">Next Generation LabVI<tspan class="cls-14" x="128.41" y="0">E</tspan><tspan x="135.04" y="0">W Featu</tspan><tspan class="cls-15" x="181.53" y="0">r</tspan><tspan x="186.26" y="0">es</tspan></text><rect class="cls-7" x="24.5" y="49.5" width="129" height="482"/><path class="cls-16" d="M153,50V531H25V50H153m1-1H24V532H154V49Z"/><rect class="cls-17" x="25" y="210" width="128" height="20"/><text class="cls-10" transform="translate(34 64.2)">Edi<tspan class="cls-18" x="16.04" y="0">t</tspan><tspan x="20.02" y="0">or</tspan><tspan x="0" y="20">VI </tspan><tspan class="cls-19" x="0" y="40">T</tspan><tspan x="5.05" y="40">ext code</tspan><tspan x="0" y="60">Object sho</tspan><tspan class="cls-20" x="57.09" y="60">r</tspan><tspan class="cls-6" x="61.61" y="60">t</tspan><tspan x="65.52" y="60">cuts</tspan><tspan x="0" y="80">F</tspan><tspan class="cls-21" x="5.86" y="80">P</tspan><tspan x="12.52" y="80">GA compiler</tspan><tspan x="0" y="100">MathScript</tspan><tspan x="0" y="120">CEIP</tspan><tspan x="0" y="140">Er</tspan><tspan class="cls-6" x="10.24" y="140">r</tspan><tspan x="14.26" y="140">or </tspan><tspan class="cls-6" x="28.75" y="140">r</tspan><tspan x="32.76" y="140">epo</tspan><tspan class="cls-20" x="53.12" y="140">r</tspan><tspan x="57.64" y="140">ting</tspan><tspan class="cls-7"><tspan x="0" y="160">About</tspan></tspan></text><text class="cls-10" transform="translate(174 78)">1.0.0</text><text class="cls-10" transform="translate(174 97)">Build number 4.8.1.36547<tspan x="0" y="19">©1986-2016 National Instruments. All Rights </tspan><tspan class="cls-12" x="240.47" y="19">R</tspan><tspan x="247.32" y="19">ese</tspan><tspan class="cls-22" x="264.96" y="19">r</tspan><tspan class="cls-23" x="269.61" y="19">v</tspan><tspan x="275.29" y="19">ed.</tspan><tspan class="cls-24" x="0" y="38">P</tspan><tspan x="6.33" y="38">a</tspan><tspan class="cls-18" x="12.44" y="38">t</tspan><tspan x="16.41" y="38">ent info</tspan><tspan class="cls-25" x="57.32" y="38">r</tspan><tspan x="61.46" y="38">mation</tspan><tspan x="0" y="57">This s</tspan><tspan class="cls-26" x="29.46" y="57">o</tspan><tspan class="cls-27" x="36.27" y="57">f</tspan><tspan x="40.24" y="57">twa</tspan><tspan class="cls-6" x="59.09" y="57">r</tspan><tspan x="63.1" y="57">e is co</tspan><tspan class="cls-23" x="96.52" y="57">v</tspan><tspan x="102.2" y="57">e</tspan><tspan class="cls-6" x="108.47" y="57">r</tspan><tspan x="112.49" y="57">ed by one or mo</tspan><tspan class="cls-6" x="200.51" y="57">r</tspan><tspan x="204.52" y="57">e </tspan><tspan class="cls-26" x="214.08" y="57">o</tspan><tspan x="220.9" y="57">f the </tspan><tspan class="cls-6" x="248.36" y="57">p</tspan><tspan x="255.26" y="57">a</tspan><tspan class="cls-18" x="261.36" y="57">t</tspan><tspan x="265.34" y="57">ents found he</tspan><tspan class="cls-6" x="338.64" y="57">r</tspan><tspan x="342.65" y="57">e: </tspan><tspan class="cls-28"><tspan x="0" y="76">http://ww</tspan><tspan class="cls-29" x="51.28" y="76">w</tspan><tspan x="59.35" y="76">.ni.com/legal/</tspan><tspan class="cls-6" x="131.77" y="76">p</tspan><tspan x="138.67" y="76">a</tspan><tspan class="cls-18" x="144.77" y="76">t</tspan><tspan x="148.75" y="76">ents</tspan></tspan></text></svg>