<svg id="Layer_1" data-name="Layer 1" xmlns="http://www.w3.org/2000/svg" xmlns:xlink="http://www.w3.org/1999/xlink" width="488.5" height="553" viewBox="0 0 488.5 553"><defs><style>.cls-1{fill:none;}.cls-2{fill:#4c5358;}.cls-12,.cls-13,.cls-3{font-size:12px;font-family:SegoeUI, Segoe UI;}.cls-3,.cls-7{fill:#fff;}.cls-4{letter-spacing:-0.03em;}.cls-5{letter-spacing:-0.01em;}.cls-6{letter-spacing:0.03em;}.cls-8{fill:#e0e0e0;}.cls-9{fill:#a8abae;}.cls-10{fill:url(#linear-gradient);}.cls-11{stroke:#a8abae;stroke-miterlimit:10;fill:url(#linear-gradient-2);}.cls-11,.cls-13{opacity:0.5;}.cls-12,.cls-13,.cls-18{fill:#4d5359;}.cls-14{fill:#ebebeb;}.cls-15{clip-path:url(#clip-path);}.cls-16{fill:url(#linear-gradient-3);}.cls-17{clip-path:url(#clip-path-2);}.cls-19{fill:#999ea3;}.cls-20{clip-path:url(#clip-path-3);}.cls-21{fill:#777b80;}.cls-22{clip-path:url(#clip-path-4);}</style><linearGradient id="linear-gradient" x1="427.5" y1="515.4" x2="427.5" y2="538.4" gradientUnits="userSpaceOnUse"><stop offset="0" stop-color="#ebe9ec"/><stop offset="0.28" stop-color="#e5e6e9"/><stop offset="1" stop-color="#dadfe2"/></linearGradient><linearGradient id="linear-gradient-2" x1="345.5" y1="514.9" x2="345.5" y2="538.9" xlink:href="#linear-gradient"/><clipPath id="clip-path"><rect class="cls-1" x="25.5" y="60.99" width="148" height="22"/></clipPath><linearGradient id="linear-gradient-3" x1="943.63" y1="2388.41" x2="944.59" y2="2388.41" gradientTransform="matrix(0, 22.9, 22.9, 0, -54595.76, -21548.39)" xlink:href="#linear-gradient"/><clipPath id="clip-path-2"><rect class="cls-1" x="153.5" y="69" width="9" height="6"/></clipPath><clipPath id="clip-path-3"><rect class="cls-1" x="447" y="97" width="15" height="386"/></clipPath><clipPath id="clip-path-4"><rect class="cls-1" x="29" y="473" width="396" height="11"/></clipPath></defs><title>Artboard 2</title><path class="cls-2" d="M0,0V553H488.5V0ZM484.5,549H4V29l480.5,0Z"/><text class="cls-3" transform="translate(15 18)">Select <tspan class="cls-4" x="34.73" y="0">S</tspan><tspan x="40.72" y="0">ta</tspan><tspan class="cls-5" x="50.89" y="0">t</tspan><tspan x="54.86" y="0">e Expo</tspan><tspan class="cls-6" x="90.09" y="0">r</tspan><tspan x="94.61" y="0">t</tspan></text><polygon class="cls-7" points="477.64 10.38 476.12 8.86 472.57 12.41 469.02 8.86 467.5 10.38 471.05 13.93 467.5 17.48 469.02 19 472.57 15.45 476.12 19 477.64 17.48 474.09 13.93 477.64 10.38"/><rect class="cls-8" x="4" y="505" width="480.5" height="44"/><rect class="cls-9" x="4" y="504" width="480.5" height="1"/><rect class="cls-10" x="392" y="515.5" width="71" height="23"/><path class="cls-9" d="M462.5,516v22h-70V516h70m1-1h-72v24h72V515Z"/><rect class="cls-11" x="309.5" y="515" width="72" height="24"/><text class="cls-12" transform="translate(409.97 531)">Cancel</text><text class="cls-13" transform="translate(337.5 531)">OK</text><rect class="cls-14" x="4" y="29" width="481" height="475"/><rect class="cls-7" x="25" y="96" width="438" height="387"/><text class="cls-12" transform="translate(24.5 55)"><tspan class="cls-4">S</tspan><tspan x="5.99" y="0">ta</tspan><tspan class="cls-5" x="16.16" y="0">t</tspan><tspan x="20.13" y="0">e</tspan></text><g class="cls-15"><rect class="cls-16" x="25.5" y="60.99" width="148" height="22"/></g><path class="cls-9" d="M24.5,84h150V60H24.5Zm149-1H25.5V61h148Z"/><text class="cls-12" transform="translate(35.5 76.2)">California</text><g class="cls-17"><polygon class="cls-18" points="153.5 69 162.5 69 158 75 153.5 69"/></g><text class="cls-12" transform="translate(32.87 112)">Almonds</text><text class="cls-12" transform="translate(184.87 112)">4,534</text><text class="cls-12" transform="translate(332.87 112)">5,145</text><text class="cls-12" transform="translate(32.87 131.65)">Apples</text><text class="cls-12" transform="translate(184.87 131.65)">1,345</text><text class="cls-12" transform="translate(332.87 131.65)">4,567</text><text class="cls-12" transform="translate(32.87 151.29)">Wine</text><text class="cls-12" transform="translate(184.88 151.29)">1,534</text><text class="cls-12" transform="translate(332.88 151.29)">3,786</text><text class="cls-12" transform="translate(32.87 170.94)">Dairy Products</text><text class="cls-12" transform="translate(184.87 170.94)">1,534</text><text class="cls-12" transform="translate(332.87 170.94)">3,222</text><text class="cls-12" transform="translate(32.87 190.59)">Walnuts</text><text class="cls-12" transform="translate(184.87 190.59)">890</text><text class="cls-12" transform="translate(332.87 190.59)">2,222</text><text class="cls-12" transform="translate(32.87 210.24)">Pistachios</text><text class="cls-12" transform="translate(184.88 210.24)">800</text><text class="cls-12" transform="translate(332.88 210.24)">2,122</text><text class="cls-12" transform="translate(32.87 229.88)">Table Grapes</text><text class="cls-12" transform="translate(184.87 229.88)">750</text><text class="cls-12" transform="translate(332.87 229.88)">1,456</text><text class="cls-12" transform="translate(32.87 249.53)">Hay</text><text class="cls-12" transform="translate(184.87 249.53)">744</text><text class="cls-12" transform="translate(332.87 249.53)">1,432</text><text class="cls-12" transform="translate(32.87 269.18)">Cotton</text><text class="cls-12" transform="translate(184.88 269.18)">735</text><text class="cls-12" transform="translate(332.88 269.18)">1,422</text><text class="cls-12" transform="translate(32.87 288.82)">Raisins</text><text class="cls-12" transform="translate(184.87 288.82)">678</text><text class="cls-12" transform="translate(332.87 288.82)">777</text><text class="cls-12" transform="translate(32.87 308.47)">Beef</text><text class="cls-12" transform="translate(184.87 308.47)">654</text><text class="cls-12" transform="translate(332.87 308.47)">678</text><text class="cls-12" transform="translate(32.87 328.12)">Lettuce</text><text class="cls-12" transform="translate(184.88 328.12)">642</text><text class="cls-12" transform="translate(332.88 328.12)">654</text><text class="cls-12" transform="translate(32.87 347.76)">Lemons</text><text class="cls-12" transform="translate(184.87 347.76)">543</text><text class="cls-12" transform="translate(332.87 347.76)">555</text><text class="cls-12" transform="translate(32.87 367.41)">Dried Plums</text><text class="cls-12" transform="translate(184.87 367.41)">542</text><text class="cls-12" transform="translate(332.87 367.41)">543</text><text class="cls-12" transform="translate(32.87 387.06)">Cherries</text><text class="cls-12" transform="translate(184.88 387.06)">521</text><text class="cls-12" transform="translate(332.88 387.06)">444</text><text class="cls-12" transform="translate(32.87 406.71)">Carrots</text><text class="cls-12" transform="translate(184.87 406.71)">444</text><text class="cls-12" transform="translate(332.87 406.71)">467</text><text class="cls-12" transform="translate(32.87 426.35)">Plums</text><text class="cls-12" transform="translate(184.87 426.35)">422</text><text class="cls-12" transform="translate(332.87 426.35)">455</text><text class="cls-12" transform="translate(32.87 446)">Garlic</text><text class="cls-12" transform="translate(184.88 446)">223</text><text class="cls-12" transform="translate(332.88 446)">333</text><text class="cls-12" transform="translate(32.87 465.35)">Blueberries</text><text class="cls-12" transform="translate(184.87 465.35)">222</text><text class="cls-12" transform="translate(332.87 465.35)">321</text><rect class="cls-19" x="24.5" y="95" width="1" height="389"/><rect class="cls-19" x="462.5" y="95" width="1" height="389.5"/><rect class="cls-19" x="25" y="95" width="438" height="1"/><g class="cls-20"><rect class="cls-7" x="447" y="97" width="15" height="386"/><polygon class="cls-21" points="459 107.64 450 107.64 454.5 101.84 459 107.64"/><polygon class="cls-21" points="450 472.36 459 472.36 454.5 478.16 450 472.36"/><rect class="cls-21" x="451" y="113.45" width="7" height="190.55"/><path class="cls-7" d="M448,98h13V482H448Zm14-1H447V483h15Z"/></g><g class="cls-22"><text class="cls-12" transform="translate(32.87 485)">Pears</text><text class="cls-12" transform="translate(184.87 485)">221</text><text class="cls-12" transform="translate(332.87 485)">222</text></g><rect class="cls-19" x="24.5" y="483.5" width="439" height="1"/></svg>