<svg id="Layer_1" data-name="Layer 1" xmlns="http://www.w3.org/2000/svg" xmlns:xlink="http://www.w3.org/1999/xlink" width="88" height="24" viewBox="0 0 88 24"><defs><linearGradient id="linear-gradient" x1="44" y1="0.57" x2="44" y2="23.47" gradientUnits="userSpaceOnUse"><stop offset="0" stop-color="#ebe9ec"/><stop offset="0.28" stop-color="#e5e6e9"/><stop offset="1" stop-color="#dadfe2"/></linearGradient></defs><title>dropdowns-normal</title><rect x="0.5" y="0.5" width="87" height="23" fill="url(#linear-gradient)"/><path d="M87,1V23H1V1H87m1-1H0V24H88V0Z" fill="#a8abae"/><path d="M71,9h9l-4.5,6Z" fill="#2b3033"/><path d="M16.58,13.51a2.45,2.45,0,0,1-.21,1,2.28,2.28,0,0,1-.6.8,2.79,2.79,0,0,1-.93.51,3.78,3.78,0,0,1-1.2.18,3.49,3.49,0,0,1-1.91-.46v-1a3.06,3.06,0,0,0,1.95.67,2.64,2.64,0,0,0,.79-.11,1.78,1.78,0,0,0,.61-.32,1.43,1.43,0,0,0,.39-.51,1.59,1.59,0,0,0,.14-.67Q15.6,12,13.26,12h-.7v-.81h.66q2.07,0,2.07-1.55T13.71,8.16a2.69,2.69,0,0,0-1.67.6V7.83A3.65,3.65,0,0,1,14,7.35a2.94,2.94,0,0,1,1,.15,2.19,2.19,0,0,1,.73.41,1.82,1.82,0,0,1,.47.63,2,2,0,0,1,.17.81,2.05,2.05,0,0,1-1.68,2.13v0a2.65,2.65,0,0,1,.79.21,2.11,2.11,0,0,1,.63.42,1.87,1.87,0,0,1,.41.61A1.94,1.94,0,0,1,16.58,13.51Z" fill="#2b3033"/><path d="M22,9.69A1.74,1.74,0,0,0,21.87,9a1.3,1.3,0,0,0-.82-.76,1.92,1.92,0,0,0-.61-.09,2,2,0,0,0-.55.08,2.68,2.68,0,0,0-.52.21,3.23,3.23,0,0,0-.49.32,3.56,3.56,0,0,0-.44.42v-1a2.87,2.87,0,0,1,.91-.6,3.19,3.19,0,0,1,1.22-.21,3,3,0,0,1,1,.15,2.19,2.19,0,0,1,.76.44,2,2,0,0,1,.51.71,2.39,2.39,0,0,1,.18,1,3.32,3.32,0,0,1-.11.9,2.79,2.79,0,0,1-.35.76,3.68,3.68,0,0,1-.58.69,8.26,8.26,0,0,1-.83.67q-.59.42-1,.72a4.31,4.31,0,0,0-.61.56,1.62,1.62,0,0,0-.32.52,1.82,1.82,0,0,0-.09.6h4.18v.86H18.11v-.42a3.47,3.47,0,0,1,.12-.95,2.46,2.46,0,0,1,.39-.78,4.32,4.32,0,0,1,.71-.74q.44-.37,1.07-.83a6.76,6.76,0,0,0,.76-.63,3.26,3.26,0,0,0,.5-.6,2.15,2.15,0,0,0,.27-.61A2.61,2.61,0,0,0,22,9.69Z" fill="#2b3033"/><path d="M29.18,15h0v.87h-1V7h1v3.94h0a2.27,2.27,0,0,1,2.07-1.2,2.2,2.2,0,0,1,1.81.81,3.33,3.33,0,0,1,.65,2.16A3.72,3.72,0,0,1,33,15.13,2.44,2.44,0,0,1,31,16,2,2,0,0,1,29.18,15Zm0-2.42v.84a1.78,1.78,0,0,0,.48,1.26,1.72,1.72,0,0,0,2.6-.15,3.06,3.06,0,0,0,.5-1.86,2.42,2.42,0,0,0-.46-1.57A1.53,1.53,0,0,0,31,10.56a1.7,1.7,0,0,0-1.35.58A2.14,2.14,0,0,0,29.16,12.6Z" fill="#2b3033"/><path d="M35.75,8.37a.61.61,0,0,1-.44-.18.59.59,0,0,1-.18-.45.62.62,0,0,1,.62-.63.62.62,0,0,1,.45.18.63.63,0,0,1,0,.89A.62.62,0,0,1,35.75,8.37Zm.47,7.52h-1v-6h1Z" fill="#2b3033"/><path d="M40.94,15.83A1.85,1.85,0,0,1,40,16q-1.58,0-1.58-1.76V10.71h-1V9.89h1V8.43l1-.31V9.89h1.51v.82H39.43v3.38a1.4,1.4,0,0,0,.21.86.82.82,0,0,0,.68.26,1,1,0,0,0,.63-.2Z" fill="#2b3033"/><path d="M41.86,15.67v-1a2.84,2.84,0,0,0,1.73.58q1.27,0,1.27-.84a.73.73,0,0,0-.11-.41,1.08,1.08,0,0,0-.29-.3,2.26,2.26,0,0,0-.43-.23l-.54-.21a6.9,6.9,0,0,1-.7-.32,2.12,2.12,0,0,1-.5-.36,1.35,1.35,0,0,1-.3-.46,1.63,1.63,0,0,1-.1-.6,1.43,1.43,0,0,1,.19-.75,1.71,1.71,0,0,1,.52-.54,2.4,2.4,0,0,1,.74-.33,3.26,3.26,0,0,1,.85-.11,3.44,3.44,0,0,1,1.39.27v1A2.72,2.72,0,0,0,44,10.56a1.78,1.78,0,0,0-.49.06,1.19,1.19,0,0,0-.37.17.8.8,0,0,0-.24.27.7.7,0,0,0-.08.34.82.82,0,0,0,.08.39.86.86,0,0,0,.25.28,1.9,1.9,0,0,0,.4.22l.53.22a7.42,7.42,0,0,1,.71.31,2.45,2.45,0,0,1,.54.36,1.42,1.42,0,0,1,.34.47,1.5,1.5,0,0,1,.12.63,1.48,1.48,0,0,1-.2.77,1.68,1.68,0,0,1-.52.54,2.4,2.4,0,0,1-.76.32,3.73,3.73,0,0,1-.9.11A3.4,3.4,0,0,1,41.86,15.67Z" fill="#2b3033"/></svg>