<svg id="Layer_1" data-name="Layer 1" xmlns="http://www.w3.org/2000/svg" width="88" height="113" viewBox="0 0 88 113"><title>dropdowns-active</title><rect x="0.5" y="0.5" width="87" height="23" fill="#4384b7"/><path d="M87,1V23H1V1H87m1-1H0V24H88V0Z" fill="#2a5273"/><path d="M71,9h9l-4.5,6Z" fill="#fff"/><path d="M16.58,13.51a2.45,2.45,0,0,1-.21,1,2.28,2.28,0,0,1-.6.8,2.79,2.79,0,0,1-.93.51,3.78,3.78,0,0,1-1.2.18,3.49,3.49,0,0,1-1.91-.46v-1a3.06,3.06,0,0,0,1.95.67,2.64,2.64,0,0,0,.79-.11,1.78,1.78,0,0,0,.61-.32,1.43,1.43,0,0,0,.39-.51,1.59,1.59,0,0,0,.14-.67Q15.6,12,13.26,12h-.7v-.81h.66q2.07,0,2.07-1.55T13.71,8.16a2.69,2.69,0,0,0-1.67.6V7.83A3.65,3.65,0,0,1,14,7.35a2.94,2.94,0,0,1,1,.15,2.19,2.19,0,0,1,.73.41,1.82,1.82,0,0,1,.47.63,2,2,0,0,1,.17.81,2.05,2.05,0,0,1-1.68,2.13v0a2.65,2.65,0,0,1,.79.21,2.11,2.11,0,0,1,.63.42,1.87,1.87,0,0,1,.41.61A1.94,1.94,0,0,1,16.58,13.51Z" fill="#fff"/><path d="M22,9.69A1.74,1.74,0,0,0,21.87,9a1.3,1.3,0,0,0-.82-.76,1.92,1.92,0,0,0-.61-.09,2,2,0,0,0-.55.08,2.68,2.68,0,0,0-.52.21,3.23,3.23,0,0,0-.49.32,3.56,3.56,0,0,0-.44.42v-1a2.87,2.87,0,0,1,.91-.6,3.19,3.19,0,0,1,1.22-.21,3,3,0,0,1,1,.15,2.19,2.19,0,0,1,.76.44,2,2,0,0,1,.51.71,2.39,2.39,0,0,1,.18,1,3.32,3.32,0,0,1-.11.9,2.79,2.79,0,0,1-.35.76,3.68,3.68,0,0,1-.58.69,8.26,8.26,0,0,1-.83.67q-.59.42-1,.72a4.31,4.31,0,0,0-.61.56,1.62,1.62,0,0,0-.32.52,1.82,1.82,0,0,0-.09.6h4.18v.86H18.11v-.42a3.47,3.47,0,0,1,.12-.95,2.46,2.46,0,0,1,.39-.78,4.32,4.32,0,0,1,.71-.74q.44-.37,1.07-.83a6.76,6.76,0,0,0,.76-.63,3.26,3.26,0,0,0,.5-.6,2.15,2.15,0,0,0,.27-.61A2.61,2.61,0,0,0,22,9.69Z" fill="#fff"/><path d="M29.18,15h0v.87h-1V7h1v3.94h0a2.27,2.27,0,0,1,2.07-1.2,2.2,2.2,0,0,1,1.81.81,3.33,3.33,0,0,1,.65,2.16A3.72,3.72,0,0,1,33,15.13,2.44,2.44,0,0,1,31,16,2,2,0,0,1,29.18,15Zm0-2.42v.84a1.78,1.78,0,0,0,.48,1.26,1.72,1.72,0,0,0,2.6-.15,3.06,3.06,0,0,0,.5-1.86,2.42,2.42,0,0,0-.46-1.57A1.53,1.53,0,0,0,31,10.56a1.7,1.7,0,0,0-1.35.58A2.14,2.14,0,0,0,29.16,12.6Z" fill="#fff"/><path d="M35.74,8.37a.61.61,0,0,1-.44-.18.59.59,0,0,1-.18-.45.62.62,0,0,1,.62-.63.62.62,0,0,1,.45.18.63.63,0,0,1,0,.89A.62.62,0,0,1,35.74,8.37Zm.47,7.52h-1v-6h1Z" fill="#fff"/><path d="M40.94,15.83A1.85,1.85,0,0,1,40,16q-1.58,0-1.58-1.76V10.71h-1V9.89h1V8.43l1-.31V9.89h1.51v.82H39.43v3.38a1.4,1.4,0,0,0,.21.86.82.82,0,0,0,.68.26,1,1,0,0,0,.63-.2Z" fill="#fff"/><path d="M41.86,15.67v-1a2.84,2.84,0,0,0,1.73.58q1.27,0,1.27-.84a.73.73,0,0,0-.11-.41,1.08,1.08,0,0,0-.29-.3,2.26,2.26,0,0,0-.43-.23l-.54-.21a6.9,6.9,0,0,1-.7-.32,2.12,2.12,0,0,1-.5-.36,1.35,1.35,0,0,1-.3-.46,1.63,1.63,0,0,1-.1-.6,1.43,1.43,0,0,1,.19-.75,1.71,1.71,0,0,1,.52-.54,2.4,2.4,0,0,1,.74-.33,3.26,3.26,0,0,1,.85-.11,3.44,3.44,0,0,1,1.39.27v1A2.72,2.72,0,0,0,44,10.56a1.78,1.78,0,0,0-.49.06,1.19,1.19,0,0,0-.37.17.8.8,0,0,0-.24.27.7.7,0,0,0-.08.34.82.82,0,0,0,.08.39.86.86,0,0,0,.25.28,1.9,1.9,0,0,0,.4.22l.53.22a7.42,7.42,0,0,1,.71.31,2.45,2.45,0,0,1,.54.36,1.42,1.42,0,0,1,.34.47,1.5,1.5,0,0,1,.12.63,1.48,1.48,0,0,1-.2.77,1.68,1.68,0,0,1-.52.54,2.4,2.4,0,0,1-.76.32,3.73,3.73,0,0,1-.9.11A3.4,3.4,0,0,1,41.86,15.67Z" fill="#fff"/><rect x="0.5" y="24.5" width="87" height="88" fill="#fff"/><path d="M87,25v87H1V25H87m1-1H0v89H88V24Z" fill="#065fa3"/><rect x="1" y="70" width="86" height="21" fill="#b3cde2"/><path d="M9.53,40.66A2.24,2.24,0,0,1,9.64,40a2.43,2.43,0,0,1,.3-.63,2.5,2.5,0,0,1,.49-.53,2.32,2.32,0,0,1,.66-.38,2.49,2.49,0,0,1-.87-.78,1.85,1.85,0,0,1-.32-1.06,2,2,0,0,1,.67-1.54,2.29,2.29,0,0,1,.75-.45,2.8,2.8,0,0,1,1.88,0,2.33,2.33,0,0,1,.75.45,2,2,0,0,1,.49.68,2.05,2.05,0,0,1,.18.85,1.85,1.85,0,0,1-.32,1.06,2.52,2.52,0,0,1-.86.78,2.3,2.3,0,0,1,.65.38,2.53,2.53,0,0,1,.48.53,2.43,2.43,0,0,1,.3.63,2.24,2.24,0,0,1,.11.67,2.5,2.5,0,0,1-.2,1,2.25,2.25,0,0,1-.56.78,2.58,2.58,0,0,1-.86.51,3.22,3.22,0,0,1-1.1.18,3.18,3.18,0,0,1-1.1-.18,2.62,2.62,0,0,1-.86-.51,2.27,2.27,0,0,1-.57-.78A2.46,2.46,0,0,1,9.53,40.66Zm1-.08a2,2,0,0,0,.12.71,1.53,1.53,0,0,0,.34.54,1.48,1.48,0,0,0,.53.34,1.93,1.93,0,0,0,.69.12,1.83,1.83,0,0,0,.68-.12,1.58,1.58,0,0,0,.54-.35,1.55,1.55,0,0,0,.35-.54,1.89,1.89,0,0,0,.13-.7,1.8,1.8,0,0,0-.12-.66,1.65,1.65,0,0,0-.34-.54A1.61,1.61,0,0,0,13,39a1.73,1.73,0,0,0-.7-.13,1.75,1.75,0,0,0-.67.13,1.61,1.61,0,0,0-.53.35,1.63,1.63,0,0,0-.35.54A1.79,1.79,0,0,0,10.57,40.57Zm.3-3.9a1.39,1.39,0,0,0,.85,1.3,1.38,1.38,0,0,0,1.08,0,1.4,1.4,0,0,0,.44-.3,1.46,1.46,0,0,0,.3-.45,1.35,1.35,0,0,0,.11-.55,1.44,1.44,0,0,0-.11-.56,1.38,1.38,0,0,0-1.29-.85,1.4,1.4,0,0,0-.57.11,1.37,1.37,0,0,0-.44.3,1.32,1.32,0,0,0-.28.45A1.51,1.51,0,0,0,10.87,36.68Z" fill="#2b3033"/><path d="M20.72,42.13h0V43h-1V34.12h1v3.94h0a2.27,2.27,0,0,1,2.07-1.2,2.2,2.2,0,0,1,1.81.81,3.33,3.33,0,0,1,.65,2.16,3.72,3.72,0,0,1-.73,2.41,2.44,2.44,0,0,1-2,.91A2,2,0,0,1,20.72,42.13Zm0-2.42v.84a1.78,1.78,0,0,0,.48,1.26,1.72,1.72,0,0,0,2.6-.15,3.06,3.06,0,0,0,.5-1.86,2.42,2.42,0,0,0-.46-1.57,1.53,1.53,0,0,0-1.25-.57,1.7,1.7,0,0,0-1.35.58A2.14,2.14,0,0,0,20.69,39.71Z" fill="#2b3033"/><path d="M27.28,35.48a.61.61,0,0,1-.44-.18.59.59,0,0,1-.18-.45.62.62,0,0,1,.62-.63.62.62,0,0,1,.45.18.63.63,0,0,1,0,.89A.62.62,0,0,1,27.28,35.48ZM27.75,43h-1V37h1Z" fill="#2b3033"/><path d="M32.48,42.94a1.85,1.85,0,0,1-.9.19Q30,43.13,30,41.37V37.82H29V37h1V35.54l1-.31V37h1.51v.82H31V41.2a1.4,1.4,0,0,0,.21.86.82.82,0,0,0,.68.26,1,1,0,0,0,.63-.2Z" fill="#2b3033"/><path d="M33.4,42.78v-1a2.84,2.84,0,0,0,1.73.58q1.27,0,1.27-.84a.73.73,0,0,0-.11-.41,1.08,1.08,0,0,0-.29-.3,2.26,2.26,0,0,0-.43-.23L35,40.34a6.9,6.9,0,0,1-.7-.32,2.12,2.12,0,0,1-.5-.36,1.35,1.35,0,0,1-.3-.46,1.63,1.63,0,0,1-.1-.6,1.43,1.43,0,0,1,.19-.75,1.71,1.71,0,0,1,.52-.54,2.4,2.4,0,0,1,.74-.33,3.26,3.26,0,0,1,.85-.11,3.44,3.44,0,0,1,1.39.27v1a2.72,2.72,0,0,0-1.52-.43,1.78,1.78,0,0,0-.49.06,1.19,1.19,0,0,0-.37.17.8.8,0,0,0-.24.27.7.7,0,0,0-.08.34.82.82,0,0,0,.08.39.86.86,0,0,0,.25.28,1.9,1.9,0,0,0,.4.22l.53.22a7.42,7.42,0,0,1,.71.31,2.45,2.45,0,0,1,.54.36,1.42,1.42,0,0,1,.34.47,1.5,1.5,0,0,1,.12.63,1.48,1.48,0,0,1-.2.77,1.68,1.68,0,0,1-.52.54,2.4,2.4,0,0,1-.76.32,3.73,3.73,0,0,1-.9.11A3.4,3.4,0,0,1,33.4,42.78Z" fill="#2b3033"/><path d="M13.25,64h-1V56.74A2.22,2.22,0,0,1,12,57a5.3,5.3,0,0,1-.48.28q-.27.14-.56.26a4.09,4.09,0,0,1-.58.19v-1a5.59,5.59,0,0,0,.67-.24q.35-.15.7-.33t.65-.39a5.14,5.14,0,0,0,.53-.4h.36Z" fill="#2b3033"/><path d="M21.46,61.33a3.11,3.11,0,0,1-.2,1.13,2.72,2.72,0,0,1-.55.89,2.46,2.46,0,0,1-.84.58,2.65,2.65,0,0,1-1.05.21,2.33,2.33,0,0,1-2-1,3.64,3.64,0,0,1-.53-1.21,6.56,6.56,0,0,1-.18-1.61,7.57,7.57,0,0,1,.24-2,4.83,4.83,0,0,1,.69-1.53,3.19,3.19,0,0,1,1.08-1,2.9,2.9,0,0,1,1.41-.35,3.4,3.4,0,0,1,1.39.24v.91a3,3,0,0,0-1.37-.33,2,2,0,0,0-1,.25,2.33,2.33,0,0,0-.77.71,3.47,3.47,0,0,0-.5,1.11,5.63,5.63,0,0,0-.17,1.45h0a2,2,0,0,1,1.92-1,2.52,2.52,0,0,1,1,.19,2.14,2.14,0,0,1,.76.53,2.39,2.39,0,0,1,.48.82A3.11,3.11,0,0,1,21.46,61.33Zm-1,.12a2.61,2.61,0,0,0-.11-.79,1.72,1.72,0,0,0-.32-.6,1.38,1.38,0,0,0-.51-.38,1.73,1.73,0,0,0-.69-.13,1.62,1.62,0,0,0-.66.13,1.65,1.65,0,0,0-.53.37,1.71,1.71,0,0,0-.47,1.19,2.61,2.61,0,0,0,.12.81,2.1,2.1,0,0,0,.35.66,1.64,1.64,0,0,0,.53.44,1.45,1.45,0,0,0,.68.16,1.56,1.56,0,0,0,.66-.14A1.48,1.48,0,0,0,20,62.8a1.78,1.78,0,0,0,.33-.59A2.33,2.33,0,0,0,20.48,61.46Z" fill="#2b3033"/><path d="M27.19,63.13h0V64h-1V55.12h1v3.94h0a2.27,2.27,0,0,1,2.07-1.2,2.2,2.2,0,0,1,1.81.81,3.33,3.33,0,0,1,.65,2.16A3.72,3.72,0,0,1,31,63.24a2.44,2.44,0,0,1-2,.91A2,2,0,0,1,27.19,63.13Zm0-2.42v.84a1.78,1.78,0,0,0,.48,1.26,1.72,1.72,0,0,0,2.6-.15,3.06,3.06,0,0,0,.5-1.86,2.42,2.42,0,0,0-.46-1.57A1.53,1.53,0,0,0,29,58.67a1.7,1.7,0,0,0-1.35.58A2.14,2.14,0,0,0,27.16,60.71Z" fill="#2b3033"/><path d="M33.75,56.48a.61.61,0,0,1-.44-.18.59.59,0,0,1-.18-.45.62.62,0,0,1,.62-.63.62.62,0,0,1,.45.18.63.63,0,0,1,0,.89A.62.62,0,0,1,33.75,56.48ZM34.22,64h-1V58h1Z" fill="#2b3033"/><path d="M38.94,63.94a1.85,1.85,0,0,1-.9.19q-1.58,0-1.58-1.76V58.82h-1V58h1V56.54l1-.31V58h1.51v.82H37.43V62.2a1.4,1.4,0,0,0,.21.86.82.82,0,0,0,.68.26,1,1,0,0,0,.63-.2Z" fill="#2b3033"/><path d="M39.86,63.78v-1a2.84,2.84,0,0,0,1.73.58q1.27,0,1.27-.84a.73.73,0,0,0-.11-.41,1.08,1.08,0,0,0-.29-.3,2.26,2.26,0,0,0-.43-.23l-.54-.21a6.9,6.9,0,0,1-.7-.32,2.12,2.12,0,0,1-.5-.36,1.35,1.35,0,0,1-.3-.46,1.63,1.63,0,0,1-.1-.6,1.43,1.43,0,0,1,.19-.75,1.71,1.71,0,0,1,.52-.54,2.4,2.4,0,0,1,.74-.33,3.26,3.26,0,0,1,.85-.11,3.44,3.44,0,0,1,1.39.27v1A2.72,2.72,0,0,0,42,58.67a1.78,1.78,0,0,0-.49.06,1.19,1.19,0,0,0-.37.17.8.8,0,0,0-.24.27.7.7,0,0,0-.08.34.82.82,0,0,0,.08.39.86.86,0,0,0,.25.28,1.9,1.9,0,0,0,.4.22l.53.22a7.42,7.42,0,0,1,.71.31,2.45,2.45,0,0,1,.54.36,1.42,1.42,0,0,1,.34.47,1.5,1.5,0,0,1,.12.63,1.48,1.48,0,0,1-.2.77,1.68,1.68,0,0,1-.52.54,2.4,2.4,0,0,1-.76.32,3.73,3.73,0,0,1-.9.11A3.4,3.4,0,0,1,39.86,63.78Z" fill="#2b3033"/><path d="M14.59,82.62a2.45,2.45,0,0,1-.21,1,2.28,2.28,0,0,1-.6.8,2.79,2.79,0,0,1-.93.51,3.78,3.78,0,0,1-1.2.18,3.49,3.49,0,0,1-1.91-.46v-1a3.06,3.06,0,0,0,1.95.67,2.64,2.64,0,0,0,.79-.11,1.78,1.78,0,0,0,.61-.32,1.43,1.43,0,0,0,.39-.51,1.59,1.59,0,0,0,.14-.67q0-1.65-2.34-1.65h-.7v-.81h.66q2.07,0,2.07-1.55t-1.58-1.43a2.69,2.69,0,0,0-1.67.6v-.93A3.65,3.65,0,0,1,12,76.46a2.94,2.94,0,0,1,1,.15,2.19,2.19,0,0,1,.73.41,1.82,1.82,0,0,1,.47.63,2,2,0,0,1,.17.81,2.05,2.05,0,0,1-1.68,2.13v0a2.65,2.65,0,0,1,.79.21,2.11,2.11,0,0,1,.63.42,1.87,1.87,0,0,1,.41.61A1.94,1.94,0,0,1,14.59,82.62Z" fill="#2b3033"/><path d="M20,78.8a1.74,1.74,0,0,0-.12-.67,1.3,1.3,0,0,0-.82-.76,1.92,1.92,0,0,0-.61-.09,2,2,0,0,0-.55.08,2.68,2.68,0,0,0-.52.21,3.23,3.23,0,0,0-.49.32,3.56,3.56,0,0,0-.44.42v-1a2.87,2.87,0,0,1,.91-.6,3.19,3.19,0,0,1,1.22-.21,3,3,0,0,1,1,.15,2.19,2.19,0,0,1,.76.44,2,2,0,0,1,.51.71,2.39,2.39,0,0,1,.18,1,3.32,3.32,0,0,1-.11.9,2.79,2.79,0,0,1-.35.76,3.68,3.68,0,0,1-.58.69,8.26,8.26,0,0,1-.83.67q-.59.42-1,.72a4.31,4.31,0,0,0-.61.56,1.62,1.62,0,0,0-.32.52,1.82,1.82,0,0,0-.09.6H21.3V85H16.11v-.42a3.47,3.47,0,0,1,.12-.95,2.46,2.46,0,0,1,.39-.78,4.32,4.32,0,0,1,.71-.74q.44-.37,1.07-.83a6.76,6.76,0,0,0,.76-.63,3.26,3.26,0,0,0,.5-.6,2.15,2.15,0,0,0,.27-.61A2.61,2.61,0,0,0,20,78.8Z" fill="#2b3033"/><path d="M27.19,84.13h0V85h-1V76.12h1v3.94h0a2.27,2.27,0,0,1,2.07-1.2,2.2,2.2,0,0,1,1.81.81,3.33,3.33,0,0,1,.65,2.16A3.72,3.72,0,0,1,31,84.24a2.44,2.44,0,0,1-2,.91A2,2,0,0,1,27.19,84.13Zm0-2.42v.84a1.78,1.78,0,0,0,.48,1.26,1.72,1.72,0,0,0,2.6-.15,3.06,3.06,0,0,0,.5-1.86,2.42,2.42,0,0,0-.46-1.57A1.53,1.53,0,0,0,29,79.67a1.7,1.7,0,0,0-1.35.58A2.14,2.14,0,0,0,27.16,81.71Z" fill="#2b3033"/><path d="M33.75,77.48a.61.61,0,0,1-.44-.18.59.59,0,0,1-.18-.45.62.62,0,0,1,.62-.63.62.62,0,0,1,.45.18.63.63,0,0,1,0,.89A.62.62,0,0,1,33.75,77.48ZM34.22,85h-1V79h1Z" fill="#2b3033"/><path d="M38.94,84.94a1.85,1.85,0,0,1-.9.19q-1.58,0-1.58-1.76V79.82h-1V79h1V77.54l1-.31V79h1.51v.82H37.43V83.2a1.4,1.4,0,0,0,.21.86.82.82,0,0,0,.68.26,1,1,0,0,0,.63-.2Z" fill="#2b3033"/><path d="M39.86,84.78v-1a2.84,2.84,0,0,0,1.73.58q1.27,0,1.27-.84a.73.73,0,0,0-.11-.41,1.08,1.08,0,0,0-.29-.3,2.26,2.26,0,0,0-.43-.23l-.54-.21a6.9,6.9,0,0,1-.7-.32,2.12,2.12,0,0,1-.5-.36,1.35,1.35,0,0,1-.3-.46,1.63,1.63,0,0,1-.1-.6,1.43,1.43,0,0,1,.19-.75,1.71,1.71,0,0,1,.52-.54,2.4,2.4,0,0,1,.74-.33,3.26,3.26,0,0,1,.85-.11,3.44,3.44,0,0,1,1.39.27v1A2.72,2.72,0,0,0,42,79.67a1.78,1.78,0,0,0-.49.06,1.19,1.19,0,0,0-.37.17.8.8,0,0,0-.24.27.7.7,0,0,0-.08.34.82.82,0,0,0,.08.39.86.86,0,0,0,.25.28,1.9,1.9,0,0,0,.4.22l.53.22a7.42,7.42,0,0,1,.71.31,2.45,2.45,0,0,1,.54.36,1.42,1.42,0,0,1,.34.47,1.5,1.5,0,0,1,.12.63,1.48,1.48,0,0,1-.2.77,1.68,1.68,0,0,1-.52.54,2.4,2.4,0,0,1-.76.32,3.73,3.73,0,0,1-.9.11A3.4,3.4,0,0,1,39.86,84.78Z" fill="#2b3033"/><path d="M15,103.33a3.11,3.11,0,0,1-.2,1.13,2.72,2.72,0,0,1-.55.89,2.46,2.46,0,0,1-.84.58,2.65,2.65,0,0,1-1.05.21,2.33,2.33,0,0,1-2-1,3.64,3.64,0,0,1-.53-1.21,6.56,6.56,0,0,1-.18-1.61,7.57,7.57,0,0,1,.24-2,4.83,4.83,0,0,1,.69-1.53,3.19,3.19,0,0,1,1.08-1,2.9,2.9,0,0,1,1.41-.35,3.4,3.4,0,0,1,1.39.24v.91a3,3,0,0,0-1.37-.33,2,2,0,0,0-1,.25,2.33,2.33,0,0,0-.77.71,3.47,3.47,0,0,0-.5,1.11,5.63,5.63,0,0,0-.17,1.45h0a2,2,0,0,1,1.92-1,2.52,2.52,0,0,1,1,.19,2.14,2.14,0,0,1,.76.53,2.39,2.39,0,0,1,.48.82A3.11,3.11,0,0,1,15,103.33Zm-1,.12a2.61,2.61,0,0,0-.11-.79,1.72,1.72,0,0,0-.32-.6,1.38,1.38,0,0,0-.51-.38,1.73,1.73,0,0,0-.69-.13,1.62,1.62,0,0,0-.66.13,1.65,1.65,0,0,0-.53.37,1.71,1.71,0,0,0-.47,1.19,2.61,2.61,0,0,0,.12.81,2.1,2.1,0,0,0,.35.66,1.64,1.64,0,0,0,.53.44,1.45,1.45,0,0,0,.68.16,1.56,1.56,0,0,0,.66-.14,1.48,1.48,0,0,0,.51-.38,1.78,1.78,0,0,0,.33-.59A2.33,2.33,0,0,0,14,103.46Z" fill="#2b3033"/><path d="M20.45,97.6v5.55h1.08V104H20.45v2H19.5v-2H15.55v-.83q.55-.62,1.11-1.33t1.08-1.43q.51-.73.95-1.45a13.25,13.25,0,0,0,.74-1.39Zm-3.81,5.55H19.5V99q-.44.77-.83,1.37t-.75,1.1q-.35.49-.68.89Z" fill="#2b3033"/><path d="M27.19,105.13h0V106h-1V97.12h1v3.94h0a2.27,2.27,0,0,1,2.07-1.2,2.2,2.2,0,0,1,1.81.81,3.33,3.33,0,0,1,.65,2.16,3.72,3.72,0,0,1-.73,2.41,2.44,2.44,0,0,1-2,.91A2,2,0,0,1,27.19,105.13Zm0-2.42v.84a1.78,1.78,0,0,0,.48,1.26,1.72,1.72,0,0,0,2.6-.15,3.06,3.06,0,0,0,.5-1.86,2.42,2.42,0,0,0-.46-1.57,1.53,1.53,0,0,0-1.25-.57,1.7,1.7,0,0,0-1.35.58A2.14,2.14,0,0,0,27.16,102.71Z" fill="#2b3033"/><path d="M33.75,98.48a.61.61,0,0,1-.44-.18.59.59,0,0,1-.18-.45.62.62,0,0,1,.62-.63.62.62,0,0,1,.45.18.63.63,0,0,1,0,.89A.62.62,0,0,1,33.75,98.48Zm.47,7.52h-1v-6h1Z" fill="#2b3033"/><path d="M38.94,105.94a1.85,1.85,0,0,1-.9.19q-1.58,0-1.58-1.76v-3.55h-1V100h1V98.54l1-.31V100h1.51v.82H37.43v3.38a1.4,1.4,0,0,0,.21.86.82.82,0,0,0,.68.26,1,1,0,0,0,.63-.2Z" fill="#2b3033"/><path d="M39.86,105.78v-1a2.84,2.84,0,0,0,1.73.58q1.27,0,1.27-.84a.73.73,0,0,0-.11-.41,1.08,1.08,0,0,0-.29-.3,2.26,2.26,0,0,0-.43-.23l-.54-.21a6.9,6.9,0,0,1-.7-.32,2.12,2.12,0,0,1-.5-.36,1.35,1.35,0,0,1-.3-.46,1.63,1.63,0,0,1-.1-.6,1.43,1.43,0,0,1,.19-.75,1.71,1.71,0,0,1,.52-.54,2.4,2.4,0,0,1,.74-.33,3.26,3.26,0,0,1,.85-.11,3.44,3.44,0,0,1,1.39.27v1a2.72,2.72,0,0,0-1.52-.43,1.78,1.78,0,0,0-.49.06,1.19,1.19,0,0,0-.37.17.8.8,0,0,0-.24.27.7.7,0,0,0-.08.34.82.82,0,0,0,.08.39.86.86,0,0,0,.25.28,1.9,1.9,0,0,0,.4.22l.53.22a7.42,7.42,0,0,1,.71.31,2.45,2.45,0,0,1,.54.36,1.42,1.42,0,0,1,.34.47,1.5,1.5,0,0,1,.12.63,1.48,1.48,0,0,1-.2.77,1.68,1.68,0,0,1-.52.54,2.4,2.4,0,0,1-.76.32,3.73,3.73,0,0,1-.9.11A3.4,3.4,0,0,1,39.86,105.78Z" fill="#2b3033"/></svg>