<svg id="Layer_1" data-name="Layer 1" xmlns="http://www.w3.org/2000/svg" xmlns:xlink="http://www.w3.org/1999/xlink" width="461.94" height="463.74" viewBox="0 0 461.94 463.74"><defs><style>.cls-1{fill:#ebebeb;}.cls-2{fill:#e0e0e0;}.cls-3{fill:#4c5358;}.cls-4{fill:#a8abae;}.cls-5,.cls-8{fill:#fff;}.cls-6{fill:#9e9e9e;}.cls-10,.cls-13,.cls-18,.cls-7,.cls-8{font-size:12px;}.cls-13,.cls-7{fill:#2b3033;}.cls-7{font-family:SegoeUI-Semilight, Segoe UI;font-weight:300;}.cls-10,.cls-13,.cls-8{font-family:SegoeUI, Segoe UI;}.cls-9{fill:url(#linear-gradient);}.cls-10,.cls-20{fill:#4d5359;}.cls-11{fill:url(#linear-gradient-2);}.cls-12{fill:#696e73;}.cls-14,.cls-21{fill:none;}.cls-14,.cls-15{stroke:#757575;}.cls-14,.cls-15,.cls-21{stroke-miterlimit:10;}.cls-15{fill:#4384b7;}.cls-16{letter-spacing:-0.01em;}.cls-17{letter-spacing:-0.01em;}.cls-18{font-family:SegoeUI-Bold, Segoe UI;font-weight:700;}.cls-19{letter-spacing:0em;}.cls-20{opacity:0.8;}.cls-21{stroke:#424242;}</style><linearGradient id="linear-gradient" x1="397.93" y1="426.79" x2="397.93" y2="448.71" gradientUnits="userSpaceOnUse"><stop offset="0" stop-color="#ebe9ec"/><stop offset="0.28" stop-color="#e5e6e9"/><stop offset="1" stop-color="#dadfe2"/></linearGradient><linearGradient id="linear-gradient-2" x1="307.93" y1="426.79" x2="307.93" y2="448.71" xlink:href="#linear-gradient"/></defs><title>FTV-SearchMode_multi-select</title><g id="dialog-5" data-name="dialog"><path class="cls-1" d="M4,23.92V416.7H459.93V24H432.68L7.26,23.92Z"/><path class="cls-1" d="M5,11V393.48H460.94V11H5Z"/><path class="cls-2" d="M4,459.74H457.94v-44H4Z"/><path class="cls-3" d="M0,0V463.74H461.94V0H0ZM457.94,459.74H4V29H457.94V459.74Z"/><path class="cls-4" d="M4,415.74H457.94v-1H4Z"/><polygon class="cls-5" points="451.08 9.97 449.56 8.45 446.01 12 442.46 8.45 440.94 9.97 444.49 13.52 440.94 17.07 442.46 18.59 446.01 15.04 449.56 18.59 451.08 17.07 447.53 13.52 451.08 9.97"/></g><rect class="cls-5" x="25.03" y="49.16" width="363.93" height="23.46"/><path class="cls-6" d="M388.47,49.66V72.12H25.53V49.66H388.47m1-1H24.53V73.12H389.47V48.66Z"/><path class="cls-6" d="M40.18,53.23A5,5,0,0,0,35,58.14a4.79,4.79,0,0,0,1.16,3.08l-6.22,6,.74.71,6.22-5.95a5.22,5.22,0,0,0,3.24,1.13,4.92,4.92,0,1,0,0-9.83Zm0,8.83a3.92,3.92,0,1,1,4.1-3.92A4,4,0,0,1,40.18,62.06Z"/><text class="cls-7" transform="translate(55.04 65.66) scale(1.05 1)">e</text><text class="cls-8" transform="translate(15.66 18.71)">Select Food</text><rect class="cls-9" x="358.93" y="426.73" width="78" height="22.01"/><path class="cls-4" d="M357.93,425.74v24h80v-24Zm79,23h-78v-22h78Z"/><text class="cls-10" transform="translate(380.41 441.74)">Cancel</text><rect class="cls-11" x="268.93" y="426.73" width="78" height="22.01"/><path class="cls-4" d="M267.93,425.74v24h80v-24Zm79,23h-78v-22h78Z"/><text class="cls-10" transform="translate(299.93 441.74)">OK</text><rect class="cls-5" x="25.54" y="84.28" width="411.89" height="310.03"/><path class="cls-6" d="M436.93,84.78v309H26v-309H436.93m1-1H25v311H437.93v-311Z"/><path class="cls-12" d="M401.47,68.3h-2v-2h2Zm12-2h-11v2h11Zm0-3h-10v1h10Zm-10-2h10v-1h-10Zm10-4h-10v1h10Zm-11-2h11v-2h-11Zm-3,0h2v-2h-2Z"/><path class="cls-12" d="M423.66,63.89h2v2h-2Zm14,0h-11v2h11Zm-14-2h2v-2h-2Zm14-2h-11v2h11Zm-14-2h2v-2h-2Zm14-2h-11v2h11Z"/><text class="cls-13" transform="translate(53.29 172.03)">Eggplant</text><rect class="cls-14" x="37.55" y="183.58" width="11.02" height="11.02"/><text class="cls-13" transform="translate(53.29 193.87)">Eggs</text><rect class="cls-15" x="37.55" y="205.75" width="11.02" height="11.02"/><text class="cls-13" transform="translate(53.29 216.04)">Endi<tspan class="cls-16" x="22.83" y="0">v</tspan><tspan x="28.51" y="0">es</tspan></text><rect class="cls-14" x="37.55" y="227.59" width="11.02" height="11.02"/><text class="cls-13" transform="translate(53.29 237.88)">Esca<tspan class="cls-17" x="22.81" y="0">r</tspan><tspan x="26.82" y="0">ole</tspan></text><rect class="cls-14" x="37.55" y="161.74" width="11.02" height="11.02"/><polygon class="cls-5" points="45.76 207.05 42.04 212.98 39.84 211.35 38.98 212.71 42.41 215.42 47.13 207.91 45.76 207.05"/><rect class="cls-15" x="37.55" y="141.37" width="11.02" height="11.02"/><text class="cls-13" transform="translate(52.99 151.66)">Edamame</text><polygon class="cls-5" points="45.76 142.7 42.04 148.63 39.84 147 38.98 148.36 42.41 151.07 47.13 143.56 45.76 142.7"/><rect class="cls-14" x="37.55" y="119.25" width="11.02" height="11.02"/><text class="cls-13" transform="translate(53.03 129.27)">Eclair</text><text class="cls-18" transform="translate(35.04 108.22)">8 ma<tspan class="cls-19" x="27.66" y="0">t</tspan><tspan x="32.29" y="0">ches</tspan></text><g id="clear_text" data-name="clear text"><path class="cls-20" d="M382.4,60.89a5,5,0,1,1-5-5A5,5,0,0,1,382.4,60.89Zm-2.65-1.57-.78-.79L377.4,60.1l-1.58-1.57-.78.79,1.57,1.57L375,62.46l.78.79,1.58-1.57L379,63.25l.78-.79-1.57-1.57Z"/></g><line class="cls-21" x1="64.99" y1="55.07" x2="64.99" y2="68.1"/></svg>