<svg id="Layer_1" data-name="Layer 1" xmlns="http://www.w3.org/2000/svg" xmlns:xlink="http://www.w3.org/1999/xlink" width="497.56" height="515.63" viewBox="0 0 497.56 515.63"><defs><style>.cls-1,.cls-20,.cls-21,.cls-22{fill:#ec008c;}.cls-2{fill:#737984;}.cls-3{fill:#ebebeb;}.cls-4{fill:#e0e0e0;}.cls-5{fill:#4c5358;}.cls-6{fill:#a8abae;}.cls-11,.cls-7{fill:#fff;}.cls-8{fill:#9e9e9e;}.cls-9{opacity:0.45;font-family:SegoeUI-Semilight, Segoe UI;font-weight:300;}.cls-11,.cls-13,.cls-18,.cls-20,.cls-26,.cls-9{font-size:12px;}.cls-10{letter-spacing:-0.01em;}.cls-11,.cls-13,.cls-18,.cls-22,.cls-26{font-family:SegoeUI, Segoe UI;}.cls-12{fill:url(#linear-gradient);}.cls-13{fill:#4d5359;}.cls-14{fill:url(#linear-gradient-2);}.cls-15{fill:#777b80;}.cls-16{fill:#e1e4e6;}.cls-17{fill:#696e73;}.cls-19{letter-spacing:-0.01em;}.cls-20,.cls-21{font-family:Roboto-Regular, Roboto;}.cls-21{font-size:9px;}.cls-22{font-size:11px;}.cls-23{letter-spacing:-0.03em;}.cls-24{letter-spacing:-0.01em;}.cls-25{fill:#4384b7;}.cls-25,.cls-31{stroke:#757575;stroke-miterlimit:10;}.cls-26{fill:#2b3033;}.cls-27,.cls-28,.cls-30,.cls-35{opacity:0.5;}.cls-28{letter-spacing:-0.01em;}.cls-29{letter-spacing:0.04em;}.cls-30,.cls-34{letter-spacing:-0.01em;}.cls-31{fill:none;}.cls-32{letter-spacing:-0.04em;}.cls-33{letter-spacing:-0.06em;}.cls-35{letter-spacing:0.01em;}</style><linearGradient id="linear-gradient" x1="433.56" y1="453.81" x2="433.56" y2="475.72" gradientUnits="userSpaceOnUse"><stop offset="0" stop-color="#ebe9ec"/><stop offset="0.28" stop-color="#e5e6e9"/><stop offset="1" stop-color="#dadfe2"/></linearGradient><linearGradient id="linear-gradient-2" x1="343.56" y1="453.81" x2="343.56" y2="475.72" xlink:href="#linear-gradient"/><symbol id="n_spacing-3" data-name="n spacing" viewBox="0 0 26 10"><polygon class="cls-1" points="26 1 26 0 0 0 0 1 22 1 22 9 0 9 0 10 26 10 26 9 23 9 23 1 26 1"/></symbol><symbol id="norgie-6" data-name="norgie" viewBox="0 0 8.27 4.2"><path class="cls-2" d="M0,0H8.27L4.07,4.2S0,0,0,0Z"/></symbol></defs><title>FTV-spacing-dialog</title><g id="n_spacing-2" data-name="n spacing"><g id="dialog-2" data-name="dialog"><path class="cls-3" d="M39.62,50.94V443.72H495.56V51H468.3L42.89,50.94Z"/><path class="cls-3" d="M40.62,38V420.5H496.56V38H40.62Z"/><path class="cls-4" d="M39.62,486.75H493.56v-44H39.62Z"/><path class="cls-5" d="M35.62,27V490.75H497.56V27H35.62ZM493.56,486.75H39.62V56H493.56V486.75Z"/><path class="cls-6" d="M39.62,442.75H493.56v-1H39.62Z"/><polygon class="cls-7" points="486.71 36.99 485.19 35.47 481.63 39.01 478.09 35.47 476.56 36.99 480.11 40.54 476.56 44.09 478.09 45.61 481.63 42.06 485.19 45.61 486.71 44.09 483.16 40.54 486.71 36.99"/></g><rect class="cls-7" x="60.66" y="76.18" width="363.93" height="23.46"/><path class="cls-8" d="M424.09,76.68V99.13H61.16V76.68H424.09m1-1H60.16v24.45H425.09V75.68Z"/><path class="cls-8" d="M75.81,80.24a5,5,0,0,0-5.15,4.92,4.7,4.7,0,0,0,1.17,3.07l-6.23,6,.74.7,6.22-6a5.24,5.24,0,0,0,3.25,1.14,4.92,4.92,0,1,0,0-9.84Zm0,8.84a3.92,3.92,0,1,1,4.09-3.92A4,4,0,0,1,75.81,89.08Z"/><text class="cls-9" transform="translate(90.66 92.67) scale(1.05 1)">Sea<tspan class="cls-10" x="18.35" y="0">r</tspan><tspan x="22.25" y="0">ch</tspan></text><text class="cls-11" transform="translate(51.28 45.73)">Select Food</text><rect class="cls-12" x="394.56" y="453.74" width="78" height="22.01"/><path class="cls-6" d="M393.56,452.76v24h80v-24Zm79,23h-78v-22h78Z"/><text class="cls-13" transform="translate(416.03 468.75)">Cancel</text><rect class="cls-14" x="304.56" y="453.74" width="78" height="22.01"/><path class="cls-6" d="M303.56,452.76v24h80v-24Zm79,23h-78v-22h78Z"/><text class="cls-13" transform="translate(335.55 468.75)">OK</text><rect class="cls-7" x="61.17" y="111.3" width="411.89" height="275.46"/><path class="cls-8" d="M472.56,111.79V386.26H61.67V111.79H472.56m1-1H60.67V387.26H473.56V110.79Z"/><polygon class="cls-15" points="469.49 120.25 462.49 120.25 465.99 115.25 469.49 120.25"/><rect class="cls-15" x="462.49" y="128.25" width="7" height="77.98"/><polygon class="cls-15" points="462.21 379 469.21 379 465.71 384 462.21 379"/><path class="cls-16" d="M459.12,112.15V386.64h13V112.15Zm1,273.56v-273h11v273Z"/><path class="cls-17" d="M437.09,95.31h-2v-2h2Zm12-2h-11v2h11Zm0-3h-10v1h10Zm-10-2h10v-1h-10Zm10-4h-10v1h10Zm-11-2h11v-2h-11Zm-3,0h2v-2h-2Z"/><path class="cls-17" d="M459.29,90.9h2v2h-2Zm14,0h-11v2h11Zm-14-2h2v-2h-2Zm14-2h-11v2h11Zm-14-2h2v-2h-2Zm14-2h-11v2h11Z"/><text class="cls-18" transform="translate(382.95 411.13)">11 i<tspan class="cls-19" x="19.13" y="0">t</tspan><tspan x="23.1" y="0">ems selec</tspan><tspan class="cls-19" x="74.19" y="0">t</tspan><tspan x="78.16" y="0">ed</tspan></text><path class="cls-6" d="M60.16,397.75v24h80v-24Zm79,23h-78v-22h78Z"/><text class="cls-13" transform="translate(76.84 413.75)">Select all</text><path class="cls-6" d="M150.16,397.75v24h80v-24Zm79,23h-78v-22h78Z"/><text class="cls-13" transform="translate(169.11 413.75)">Clear all</text><text class="cls-20" transform="translate(0 109.24)">10</text><text class="cls-20" transform="translate(0 69.6)">20</text><text class="cls-21" transform="translate(425.09 7.7)">10</text><text class="cls-21" transform="translate(449.09 7.7)">10</text><text class="cls-20" transform="translate(43.14 512.38)">20</text><use width="26" height="10" transform="matrix(-1.88, 0, 0, 1.07, 68.51, 100.4)" xlink:href="#n_spacing-3"/><g id="n_spacing-5" data-name="n spacing"><path class="cls-1" d="M19.68,57.24v-1H68.51v1H23.68v17.7H68.51v1H19.68v-1h3V57.24Z"/></g><text class="cls-20" transform="translate(0 435.26)">20</text><path class="cls-1" d="M19.68,422.77v-1H68.51v1H23.68v18H68.51v1H19.68v-1h3v-18Z"/><g id="n_spacing_2-2" data-name="n spacing 2"><path class="cls-1" d="M59.13,417.13v80.5H40.62v-80.5h-1v84.5h1v-3H59.13v3h1v-84.5Z"/></g><text class="cls-20" transform="translate(476.08 512.38)">20</text><g id="n_spacing_2-3" data-name="n spacing 2"><path class="cls-1" d="M492.56,417.13v80.5h-18v-80.5h-1v84.5h1v-3h18v3h1v-84.5Z"/></g><text class="cls-21" transform="translate(478.36 7.7)">20</text><g id="n_spacing_2-4" data-name="n spacing 2"><path class="cls-1" d="M492.54,97.08V16.59H474.29V97.08h-1V12.59h1v3h18.25v-3h1V97.08Z"/></g><g id="n_spacing_2-5" data-name="n spacing 2"><path class="cls-1" d="M434.15,96.39V16.59h-8v79.8h-1V12.59h1v3h8v-3h1v83.8Z"/></g><g id="n_spacing_2-6" data-name="n spacing 2"><path class="cls-1" d="M458.15,96.39V16.59h-8v79.8h-1V12.59h1v3h8v-3h1v83.8Z"/></g><text class="cls-22" transform="translate(269.97 199.14)">Segoe UI <tspan class="cls-23" x="46.78" y="0">R</tspan><tspan x="53.06" y="0">egular</tspan><tspan x="0" y="13.2">12</tspan><tspan class="cls-24" x="11.86" y="13.2">p</tspan><tspan x="18.19" y="13.2">x</tspan><tspan x="0" y="26.4">50% NIBlack</tspan></text><text class="cls-22" transform="translate(173.76 124.86)">Segoe UI <tspan class="cls-23" x="46.78" y="0">R</tspan><tspan x="53.06" y="0">egular</tspan><tspan x="0" y="13.2">12</tspan><tspan class="cls-24" x="11.86" y="13.2">p</tspan><tspan x="18.19" y="13.2">x</tspan><tspan x="0" y="26.4">NIBlack</tspan></text><rect class="cls-1" x="230.85" y="195.68" width="34.72" height="1"/><rect class="cls-1" x="126.56" y="130.64" width="42.1" height="1"/><use width="8.27" height="4.2" transform="translate(67.69 130.29)" xlink:href="#norgie-6"/><use width="8.27" height="4.2" transform="translate(83.2 149.55)" xlink:href="#norgie-6"/><rect class="cls-25" x="80.45" y="124.01" width="11.02" height="11.02"/><rect class="cls-25" x="95.99" y="146.13" width="11.02" height="11.02"/><text class="cls-26" transform="translate(95.93 134.03)">Food</text><text class="cls-26" transform="translate(111.44 156.42)">Fruit</text><text class="cls-26" transform="translate(127.18 176.79)">Apple<tspan class="cls-27" x="31.03" y="0">-</tspan><tspan x="35.83" y="0"> </tspan><tspan class="cls-27" x="39.12" y="0">gala</tspan></text><rect class="cls-25" x="111.43" y="188.34" width="11.02" height="11.02"/><text class="cls-26" transform="translate(127.18 198.63)">Banana<tspan class="cls-27" x="38.78" y="0">-</tspan><tspan x="43.58" y="0"> </tspan><tspan class="cls-27" x="46.86" y="0">ca</tspan><tspan class="cls-28" x="58.51" y="0">v</tspan><tspan class="cls-27" x="64.19" y="0">endish</tspan></text><rect class="cls-25" x="111.43" y="210.51" width="11.02" height="11.02"/><text class="cls-26" transform="translate(127.18 220.8)">Cher<tspan class="cls-29" x="24.67" y="0">r</tspan><tspan x="29.32" y="0">y </tspan><tspan class="cls-27" x="38.41" y="0">-</tspan><tspan x="43.21" y="0"> </tspan><tspan class="cls-27" x="46.5" y="0">black</tspan></text><rect class="cls-25" x="111.43" y="166.51" width="11.02" height="11.02"/><polygon class="cls-7" points="119.65 167.83 115.93 173.76 113.73 172.13 112.87 173.5 116.3 176.2 121.02 168.69 119.65 167.83"/><polygon class="cls-7" points="119.65 189.81 115.93 195.74 113.73 194.11 112.87 195.48 116.3 198.18 121.02 190.67 119.65 189.81"/><polygon class="cls-7" points="119.65 211.81 115.93 217.74 113.73 216.11 112.87 217.47 116.3 220.18 121.02 212.67 119.65 211.81"/><use width="8.27" height="4.2" transform="translate(83.2 235.1)" xlink:href="#norgie-6"/><text class="cls-26" transform="translate(111.44 241.97)">Legumes</text><rect class="cls-25" x="95.95" y="231.69" width="11.02" height="11.02"/><text class="cls-26" transform="translate(126.94 263.36)">Beans <tspan class="cls-27" x="34.43" y="0">- g</tspan><tspan class="cls-30" x="49.58" y="0">r</tspan><tspan class="cls-27" x="53.6" y="0">een</tspan></text><rect class="cls-31" x="111.5" y="275.55" width="11.02" height="11.02"/><text class="cls-26" transform="translate(126.94 285.83)">Lentils <tspan class="cls-27" x="36.97" y="0">- </tspan><tspan class="cls-30" x="45.06" y="0">r</tspan><tspan class="cls-27" x="49.07" y="0">ed</tspan></text><text class="cls-26" transform="translate(126.94 308.01)"><tspan class="cls-32">P</tspan><tspan x="6.28" y="0">eas </tspan><tspan class="cls-27" x="27.04" y="0">- g</tspan><tspan class="cls-30" x="42.19" y="0">r</tspan><tspan class="cls-27" x="46.2" y="0">een</tspan></text><rect class="cls-25" x="111.5" y="253.07" width="11.02" height="11.02"/><polygon class="cls-7" points="119.72 254.39 116 260.32 113.8 258.69 112.94 260.06 116.36 262.77 121.09 255.25 119.72 254.39"/><rect class="cls-25" x="111.5" y="297.72" width="11.02" height="11.02"/><polygon class="cls-7" points="119.72 298.81 116 304.74 113.8 303.11 112.94 304.47 116.36 307.18 121.09 299.67 119.72 298.81"/><use width="8.27" height="4.2" transform="translate(83.2 323.31)" xlink:href="#norgie-6"/><text class="cls-26" transform="translate(111.44 330.18)"><tspan class="cls-33">V</tspan><tspan x="6.7" y="0">egetable</tspan></text><rect class="cls-25" x="95.95" y="319.89" width="11.02" height="11.02"/><text class="cls-26" transform="translate(126.94 351.56)">As<tspan class="cls-34" x="12.83" y="0">p</tspan><tspan x="19.73" y="0">aragus </tspan><tspan class="cls-27" x="58.35" y="0">- je</tspan><tspan class="cls-35" x="75.62" y="0">r</tspan><tspan class="cls-27" x="79.87" y="0">sey</tspan></text><rect class="cls-31" x="111.5" y="363.75" width="11.02" height="11.02"/><text class="cls-26" transform="translate(126.94 374.04)">Cab<tspan class="cls-34" x="20.59" y="0">b</tspan><tspan x="27.49" y="0">age </tspan><tspan class="cls-27" x="50.22" y="0">- na</tspan><tspan class="cls-30" x="71.2" y="0">p</tspan><tspan class="cls-27" x="78.1" y="0">a</tspan></text><rect class="cls-25" x="111.5" y="341.28" width="11.02" height="11.02"/><polygon class="cls-7" points="119.72 342.6 116 348.53 113.8 346.9 112.94 348.27 116.36 350.97 121.09 343.46 119.72 342.6"/><polygon class="cls-7" points="104.21 147.46 100.49 153.39 98.29 151.76 97.43 153.12 100.86 155.83 105.58 148.32 104.21 147.46"/></g></svg>