<svg id="Layer_1" data-name="Layer 1" xmlns="http://www.w3.org/2000/svg" xmlns:xlink="http://www.w3.org/1999/xlink" width="858" height="82" viewBox="0 0 858 82"><defs><linearGradient id="linear-gradient" x1="429" y1="-26.75" x2="429" y2="30.05" gradientUnits="userSpaceOnUse"><stop offset="0" stop-color="#e9ebec"/><stop offset="0.65" stop-color="#e0e4e6"/><stop offset="1" stop-color="#d9dee1"/></linearGradient><linearGradient id="linear-gradient-2" x1="1342.43" y1="285.56" x2="1342.43" y2="256.52" gradientTransform="translate(1361.93 287) rotate(180)" xlink:href="#linear-gradient"/><linearGradient id="linear-gradient-3" x1="39" y1="0.5" x2="858" y2="0.5" xlink:href="#linear-gradient"/></defs><title>nofications-document-error</title><rect x="41" y="60" width="816.85" height="22" fill="#4d5359"/><rect y="60" width="40" height="22" fill="#c42126"/><rect x="40" y="60" width="1" height="22" fill="#fff"/><rect x="17.97" y="76" width="4" height="3" fill="#fff"/><polygon points="20.97 75 21.97 64 17.97 64 18.97 75 20.97 75" fill="#fff"/><path d="M52.82,74.84h-1L51,72.68H47.74L47,74.84H46l3-7.7h.93Zm-2.11-3L49.5,68.59a3,3,0,0,1-.12-.52h0a2.86,2.86,0,0,1-.12.52L48,71.87Z" fill="#fff"/><path d="M60.6,74.59a2.87,2.87,0,0,1-1.5.38,2.49,2.49,0,0,1-1.9-.77,2.77,2.77,0,0,1-.72-2A3.05,3.05,0,0,1,57.25,70a2.73,2.73,0,0,1,2.08-.82,2.9,2.9,0,0,1,1.28.27v.9A2.24,2.24,0,0,0,59.3,70a1.77,1.77,0,0,0-1.38.6,2.29,2.29,0,0,0-.54,1.59,2.18,2.18,0,0,0,.51,1.53,1.75,1.75,0,0,0,1.36.56,2.21,2.21,0,0,0,1.35-.48Z" fill="#fff"/><path d="M66.5,74.84h-.88V71.67q0-1.72-1.28-1.72a1.39,1.39,0,0,0-1.08.5,1.85,1.85,0,0,0-.44,1.28v3.12h-.88V66.7h.88v3.56h0a2,2,0,0,1,1.8-1q1.86,0,1.86,2.24Z" fill="#fff"/><path d="M72.09,74.84h-.88V74h0a1.84,1.84,0,0,1-1.69,1,1.81,1.81,0,0,1-1.29-.43,1.51,1.51,0,0,1-.46-1.16q0-1.54,1.82-1.79l1.65-.23q0-1.4-1.13-1.4a2.71,2.71,0,0,0-1.79.68v-.9a3.41,3.41,0,0,1,1.87-.52q1.94,0,1.94,2.05Zm-.88-2.78-1.33.18a2.15,2.15,0,0,0-.92.3.88.88,0,0,0-.31.77.84.84,0,0,0,.29.66,1.11,1.11,0,0,0,.77.25,1.41,1.41,0,0,0,1.08-.46,1.64,1.64,0,0,0,.43-1.16Z" fill="#fff"/><path d="M78.32,74.84h-.88V71.7q0-1.75-1.28-1.75a1.39,1.39,0,0,0-1.09.5,1.84,1.84,0,0,0-.43,1.25v3.14h-.88v-5.5h.88v.91h0a2,2,0,0,1,1.8-1,1.68,1.68,0,0,1,1.38.58,2.6,2.6,0,0,1,.48,1.68Z" fill="#fff"/><path d="M84.54,74.84h-.88V71.7q0-1.75-1.28-1.75a1.39,1.39,0,0,0-1.09.5,1.84,1.84,0,0,0-.43,1.25v3.14H80v-5.5h.88v.91h0a2,2,0,0,1,1.8-1,1.68,1.68,0,0,1,1.38.58,2.59,2.59,0,0,1,.48,1.68Z" fill="#fff"/><path d="M90.63,72.31H86.74a2.06,2.06,0,0,0,.49,1.42,1.7,1.7,0,0,0,1.3.5,2.7,2.7,0,0,0,1.71-.61v.83a3.19,3.19,0,0,1-1.92.53,2.33,2.33,0,0,1-1.83-.75,3.07,3.07,0,0,1-.67-2.11A3,3,0,0,1,86.56,70a2.33,2.33,0,0,1,1.81-.81,2.07,2.07,0,0,1,1.67.7,2.91,2.91,0,0,1,.59,1.94Zm-.9-.75a1.8,1.8,0,0,0-.37-1.19,1.25,1.25,0,0,0-1-.42,1.42,1.42,0,0,0-1.06.45,2,2,0,0,0-.54,1.17Z" fill="#fff"/><path d="M92.84,74.84H92V66.7h.88Z" fill="#fff"/><path d="M102.08,74.84h-.88V74h0a1.81,1.81,0,0,1-1.7,1q-2,0-2-2.34V69.34h.88v3.15q0,1.74,1.33,1.74a1.35,1.35,0,0,0,1.06-.48,1.82,1.82,0,0,0,.42-1.24V69.34h.88Z" fill="#fff"/><path d="M103.53,74.64V73.7a2.6,2.6,0,0,0,1.58.53q1.16,0,1.16-.77a.68.68,0,0,0-.1-.37,1,1,0,0,0-.27-.27,2.13,2.13,0,0,0-.4-.21l-.49-.2a6.34,6.34,0,0,1-.64-.29,1.91,1.91,0,0,1-.46-.33,1.24,1.24,0,0,1-.28-.42,1.5,1.5,0,0,1-.09-.55,1.31,1.31,0,0,1,.18-.68,1.58,1.58,0,0,1,.47-.5,2.2,2.2,0,0,1,.67-.3,3,3,0,0,1,.78-.1,3.17,3.17,0,0,1,1.28.25v.89a2.5,2.5,0,0,0-1.4-.4,1.62,1.62,0,0,0-.45.06,1.1,1.1,0,0,0-.34.16.73.73,0,0,0-.22.24.64.64,0,0,0-.08.31.75.75,0,0,0,.08.36.8.8,0,0,0,.23.26,1.8,1.8,0,0,0,.37.2l.49.2q.36.14.66.29a2.29,2.29,0,0,1,.49.33,1.33,1.33,0,0,1,.31.43,1.38,1.38,0,0,1,.11.57,1.35,1.35,0,0,1-.18.71,1.54,1.54,0,0,1-.48.5,2.22,2.22,0,0,1-.69.29,3.42,3.42,0,0,1-.82.1A3.13,3.13,0,0,1,103.53,74.64Z" fill="#fff"/><path d="M112.95,72.31h-3.88a2.06,2.06,0,0,0,.49,1.42,1.7,1.7,0,0,0,1.3.5,2.7,2.7,0,0,0,1.71-.61v.83a3.19,3.19,0,0,1-1.92.53,2.33,2.33,0,0,1-1.83-.75,3.07,3.07,0,0,1-.67-2.11,3,3,0,0,1,.73-2.09,2.33,2.33,0,0,1,1.81-.81,2.07,2.07,0,0,1,1.67.7,2.91,2.91,0,0,1,.59,1.94Zm-.9-.75a1.8,1.8,0,0,0-.37-1.19,1.25,1.25,0,0,0-1-.42,1.42,1.42,0,0,0-1.06.45,2,2,0,0,0-.54,1.17Z" fill="#fff"/><path d="M119,74.84h-.88v-.93h0A2,2,0,0,1,116.18,75a2.06,2.06,0,0,1-1.66-.74,3,3,0,0,1-.62-2,3.29,3.29,0,0,1,.69-2.19,2.27,2.27,0,0,1,1.83-.82,1.76,1.76,0,0,1,1.65.89h0V66.7H119Zm-.88-2.49v-.81a1.58,1.58,0,0,0-.44-1.13,1.48,1.48,0,0,0-1.12-.46,1.52,1.52,0,0,0-1.27.59,2.59,2.59,0,0,0-.46,1.63,2.32,2.32,0,0,0,.44,1.5,1.45,1.45,0,0,0,1.19.55,1.51,1.51,0,0,0,1.2-.53A2,2,0,0,0,118.09,72.35Z" fill="#fff"/><path d="M124.22,67.94a.56.56,0,0,1-.4-.16.54.54,0,0,1-.17-.41.56.56,0,0,1,.57-.57.57.57,0,0,1,.41.16.58.58,0,0,1,0,.81A.57.57,0,0,1,124.22,67.94Zm.43,6.9h-.88v-5.5h.88Z" fill="#fff"/><path d="M131,74.84h-.88V71.7q0-1.75-1.28-1.75a1.39,1.39,0,0,0-1.09.5,1.84,1.84,0,0,0-.43,1.25v3.14h-.88v-5.5h.88v.91h0a2,2,0,0,1,1.8-1,1.68,1.68,0,0,1,1.38.58,2.6,2.6,0,0,1,.48,1.68Z" fill="#fff"/><path d="M138.22,74.79a1.69,1.69,0,0,1-.82.17Q136,75,136,73.35V70.09H135v-.75H136V68l.88-.28v1.63h1.39v.75h-1.39v3.1A1.29,1.29,0,0,0,137,74a.75.75,0,0,0,.62.24.92.92,0,0,0,.58-.18Z" fill="#fff"/><path d="M144,74.84h-.88V71.67q0-1.72-1.28-1.72a1.39,1.39,0,0,0-1.08.5,1.85,1.85,0,0,0-.44,1.28v3.12h-.88V66.7h.88v3.56h0a2,2,0,0,1,1.8-1q1.86,0,1.86,2.24Z" fill="#fff"/><path d="M150,72.31h-3.88a2.05,2.05,0,0,0,.49,1.42,1.7,1.7,0,0,0,1.3.5,2.7,2.7,0,0,0,1.71-.61v.83a3.19,3.19,0,0,1-1.92.53,2.33,2.33,0,0,1-1.83-.75,3.07,3.07,0,0,1-.67-2.11A3,3,0,0,1,146,70a2.33,2.33,0,0,1,1.81-.81,2.07,2.07,0,0,1,1.67.7,2.91,2.91,0,0,1,.59,1.94Zm-.9-.75a1.79,1.79,0,0,0-.37-1.19,1.26,1.26,0,0,0-1-.42,1.42,1.42,0,0,0-1.06.45,2,2,0,0,0-.54,1.17Z" fill="#fff"/><path d="M156.94,74.79a1.69,1.69,0,0,1-.82.17q-1.45,0-1.45-1.61V70.09h-.95v-.75h.95V68l.88-.28v1.63h1.39v.75h-1.39v3.1a1.28,1.28,0,0,0,.19.79.75.75,0,0,0,.62.24.92.92,0,0,0,.57-.18Z" fill="#fff"/><path d="M162.05,74.84h-.88V74h0a1.84,1.84,0,0,1-1.69,1,1.81,1.81,0,0,1-1.29-.43,1.5,1.5,0,0,1-.46-1.16q0-1.54,1.82-1.79l1.65-.23q0-1.4-1.13-1.4a2.71,2.71,0,0,0-1.79.68v-.9a3.41,3.41,0,0,1,1.87-.52q1.94,0,1.94,2.05Zm-.88-2.78-1.33.18a2.15,2.15,0,0,0-.92.3.87.87,0,0,0-.31.77.84.84,0,0,0,.29.66,1.11,1.11,0,0,0,.77.25,1.41,1.41,0,0,0,1.08-.46,1.64,1.64,0,0,0,.43-1.16Z" fill="#fff"/><path d="M163.38,74.64V73.7a2.6,2.6,0,0,0,1.58.53q1.16,0,1.16-.77a.68.68,0,0,0-.1-.37,1,1,0,0,0-.27-.27,2.13,2.13,0,0,0-.4-.21l-.49-.2a6.34,6.34,0,0,1-.64-.29,1.91,1.91,0,0,1-.46-.33,1.24,1.24,0,0,1-.28-.42,1.5,1.5,0,0,1-.09-.55,1.31,1.31,0,0,1,.18-.68,1.58,1.58,0,0,1,.47-.5,2.2,2.2,0,0,1,.67-.3,3,3,0,0,1,.78-.1,3.17,3.17,0,0,1,1.28.25v.89a2.5,2.5,0,0,0-1.4-.4,1.62,1.62,0,0,0-.45.06,1.1,1.1,0,0,0-.34.16.73.73,0,0,0-.22.24.64.64,0,0,0-.08.31.75.75,0,0,0,.08.36.8.8,0,0,0,.23.26,1.8,1.8,0,0,0,.37.2l.49.2q.36.14.66.29a2.29,2.29,0,0,1,.49.33,1.33,1.33,0,0,1,.31.43,1.38,1.38,0,0,1,.11.57,1.35,1.35,0,0,1-.18.71,1.54,1.54,0,0,1-.48.5,2.22,2.22,0,0,1-.69.29,3.42,3.42,0,0,1-.82.1A3.13,3.13,0,0,1,163.38,74.64Z" fill="#fff"/><path d="M172.95,74.84h-1.24l-2.43-2.64h0v2.64h-.88V66.7h.88v5.16h0l2.31-2.52h1.16L170.2,72Z" fill="#fff"/><path d="M183.79,69.34l-1.65,5.5h-.91L180.1,70.9a2.52,2.52,0,0,1-.09-.51h0a2.42,2.42,0,0,1-.11.5l-1.23,3.95h-.88l-1.67-5.5H177l1.14,4.14a2.57,2.57,0,0,1,.08.49h0a2.32,2.32,0,0,1,.1-.5l1.27-4.12h.81l1.14,4.15a3,3,0,0,1,.08.49h0a2.34,2.34,0,0,1,.09-.49l1.12-4.15Z" fill="#fff"/><path d="M188.75,74.84h-.88V74h0a1.84,1.84,0,0,1-1.69,1,1.81,1.81,0,0,1-1.29-.43,1.5,1.5,0,0,1-.46-1.16q0-1.54,1.82-1.79l1.65-.23q0-1.4-1.13-1.4a2.71,2.71,0,0,0-1.79.68v-.9a3.41,3.41,0,0,1,1.87-.52q1.94,0,1.94,2.05Zm-.88-2.78-1.33.18a2.15,2.15,0,0,0-.92.3.87.87,0,0,0-.31.77.84.84,0,0,0,.29.66,1.11,1.11,0,0,0,.77.25,1.41,1.41,0,0,0,1.08-.46,1.64,1.64,0,0,0,.43-1.16Z" fill="#fff"/><path d="M190.08,74.64V73.7a2.6,2.6,0,0,0,1.58.53q1.16,0,1.16-.77a.68.68,0,0,0-.1-.37,1,1,0,0,0-.27-.27,2.13,2.13,0,0,0-.4-.21l-.49-.2a6.34,6.34,0,0,1-.64-.29,1.91,1.91,0,0,1-.46-.33,1.24,1.24,0,0,1-.28-.42,1.5,1.5,0,0,1-.09-.55,1.31,1.31,0,0,1,.18-.68,1.58,1.58,0,0,1,.47-.5,2.2,2.2,0,0,1,.67-.3,3,3,0,0,1,.78-.1,3.17,3.17,0,0,1,1.28.25v.89a2.5,2.5,0,0,0-1.4-.4,1.62,1.62,0,0,0-.45.06,1.1,1.1,0,0,0-.34.16.73.73,0,0,0-.22.24.64.64,0,0,0-.08.31.75.75,0,0,0,.08.36.8.8,0,0,0,.23.26,1.8,1.8,0,0,0,.37.2l.49.2q.36.14.66.29a2.29,2.29,0,0,1,.49.33,1.33,1.33,0,0,1,.31.43,1.38,1.38,0,0,1,.11.57,1.35,1.35,0,0,1-.18.71,1.54,1.54,0,0,1-.48.5,2.22,2.22,0,0,1-.69.29,3.42,3.42,0,0,1-.82.1A3.13,3.13,0,0,1,190.08,74.64Z" fill="#fff"/><path d="M202.66,74.84h-.88V71.7q0-1.75-1.28-1.75a1.39,1.39,0,0,0-1.09.5A1.84,1.84,0,0,0,199,71.7v3.14h-.88v-5.5H199v.91h0a2,2,0,0,1,1.8-1,1.68,1.68,0,0,1,1.38.58,2.59,2.59,0,0,1,.48,1.68Z" fill="#fff"/><path d="M206.61,75a2.55,2.55,0,0,1-1.95-.77,2.86,2.86,0,0,1-.73-2A3,3,0,0,1,204.7,70a2.72,2.72,0,0,1,2-.78,2.47,2.47,0,0,1,1.92.76,3,3,0,0,1,.69,2.1,3,3,0,0,1-.74,2.11A2.6,2.6,0,0,1,206.61,75Zm.06-5a1.68,1.68,0,0,0-1.34.58,2.38,2.38,0,0,0-.49,1.59,2.24,2.24,0,0,0,.5,1.54,1.7,1.7,0,0,0,1.34.56,1.61,1.61,0,0,0,1.31-.55,2.4,2.4,0,0,0,.46-1.57,2.45,2.45,0,0,0-.46-1.59A1.61,1.61,0,0,0,206.68,70Z" fill="#fff"/><path d="M213.31,74.79a1.69,1.69,0,0,1-.82.17Q211,75,211,73.35V70.09h-.95v-.75H211V68l.88-.28v1.63h1.39v.75h-1.39v3.1a1.29,1.29,0,0,0,.19.79.75.75,0,0,0,.62.24.92.92,0,0,0,.58-.18Z" fill="#fff"/><path d="M220.22,67.47a1.17,1.17,0,0,0-.59-.14q-.92,0-.92,1.17v.85H220v.75h-1.29v4.75h-.87V70.09h-.94v-.75h.94v-.89a1.85,1.85,0,0,1,.5-1.37,1.69,1.69,0,0,1,1.25-.5,1.73,1.73,0,0,1,.64.1Z" fill="#fff"/><path d="M223.24,75a2.55,2.55,0,0,1-1.95-.77,2.86,2.86,0,0,1-.73-2,3,3,0,0,1,.76-2.16,2.72,2.72,0,0,1,2-.78,2.47,2.47,0,0,1,1.92.76,3,3,0,0,1,.69,2.1,3,3,0,0,1-.74,2.11A2.6,2.6,0,0,1,223.24,75Zm.06-5a1.68,1.68,0,0,0-1.34.58,2.38,2.38,0,0,0-.49,1.59,2.24,2.24,0,0,0,.5,1.54,1.7,1.7,0,0,0,1.34.56,1.61,1.61,0,0,0,1.31-.55,2.4,2.4,0,0,0,.46-1.57,2.45,2.45,0,0,0-.46-1.59A1.61,1.61,0,0,0,223.31,70Z" fill="#fff"/><path d="M231.84,74.84H231V74h0a1.81,1.81,0,0,1-1.7,1q-2,0-2-2.34V69.34h.88v3.15q0,1.74,1.33,1.74a1.35,1.35,0,0,0,1.06-.48,1.82,1.82,0,0,0,.42-1.24V69.34h.88Z" fill="#fff"/><path d="M238.18,74.84h-.88V71.7Q237.3,70,236,70a1.39,1.39,0,0,0-1.09.5,1.84,1.84,0,0,0-.43,1.25v3.14h-.88v-5.5h.88v.91h0a2,2,0,0,1,1.8-1,1.68,1.68,0,0,1,1.38.58,2.59,2.59,0,0,1,.48,1.68Z" fill="#fff"/><path d="M244.53,74.84h-.88v-.93h0A2,2,0,0,1,241.74,75a2.06,2.06,0,0,1-1.66-.74,3,3,0,0,1-.62-2,3.3,3.3,0,0,1,.69-2.19,2.27,2.27,0,0,1,1.83-.82,1.76,1.76,0,0,1,1.65.89h0V66.7h.88Zm-.88-2.49v-.81a1.57,1.57,0,0,0-.44-1.13,1.48,1.48,0,0,0-1.12-.46,1.52,1.52,0,0,0-1.27.59,2.59,2.59,0,0,0-.46,1.63,2.32,2.32,0,0,0,.44,1.5,1.45,1.45,0,0,0,1.19.55,1.5,1.5,0,0,0,1.2-.53A2,2,0,0,0,243.65,72.35Z" fill="#fff"/><path d="M246.62,75a.57.57,0,0,1-.42-.18.58.58,0,0,1-.17-.42.59.59,0,0,1,.17-.43.56.56,0,0,1,.42-.18.58.58,0,0,1,.43.18.59.59,0,0,1,.18.43.58.58,0,0,1-.18.42A.59.59,0,0,1,246.62,75Z" fill="#fff"/><path d="M257.08,74.52a4.52,4.52,0,0,1-2.13.45,3.43,3.43,0,0,1-2.63-1.06,3.9,3.9,0,0,1-1-2.78,4.09,4.09,0,0,1,1.11-3A3.78,3.78,0,0,1,255.26,67a4.51,4.51,0,0,1,1.82.32v1a3.69,3.69,0,0,0-1.83-.46,2.8,2.8,0,0,0-2.15.89,3.34,3.34,0,0,0-.82,2.37,3.18,3.18,0,0,0,.77,2.24,2.62,2.62,0,0,0,2,.84,3.8,3.8,0,0,0,2-.52Z" fill="#fff"/><path d="M263.09,74.84h-.88V71.67q0-1.72-1.28-1.72a1.39,1.39,0,0,0-1.08.5,1.85,1.85,0,0,0-.44,1.28v3.12h-.88V66.7h.88v3.56h0a2,2,0,0,1,1.8-1q1.86,0,1.86,2.24Z" fill="#fff"/><path d="M268.69,74.84h-.88V74h0a1.84,1.84,0,0,1-1.69,1,1.81,1.81,0,0,1-1.29-.43,1.51,1.51,0,0,1-.46-1.16q0-1.54,1.82-1.79l1.65-.23q0-1.4-1.13-1.4a2.71,2.71,0,0,0-1.79.68v-.9a3.41,3.41,0,0,1,1.87-.52q1.94,0,1.94,2.05Zm-.88-2.78-1.33.18a2.15,2.15,0,0,0-.92.3.88.88,0,0,0-.31.77.84.84,0,0,0,.29.66,1.11,1.11,0,0,0,.77.25,1.41,1.41,0,0,0,1.08-.46,1.64,1.64,0,0,0,.43-1.16Z" fill="#fff"/><path d="M274.91,74.84H274V71.7Q274,70,272.75,70a1.39,1.39,0,0,0-1.09.5,1.84,1.84,0,0,0-.43,1.25v3.14h-.88v-5.5h.88v.91h0a2,2,0,0,1,1.8-1,1.68,1.68,0,0,1,1.38.58,2.6,2.6,0,0,1,.48,1.68Z" fill="#fff"/><path d="M281.14,74.84h-.88V71.7Q280.26,70,279,70a1.39,1.39,0,0,0-1.09.5,1.84,1.84,0,0,0-.43,1.25v3.14h-.88v-5.5h.88v.91h0a2,2,0,0,1,1.8-1,1.68,1.68,0,0,1,1.38.58,2.59,2.59,0,0,1,.48,1.68Z" fill="#fff"/><path d="M287.22,72.31h-3.88a2.06,2.06,0,0,0,.49,1.42,1.7,1.7,0,0,0,1.3.5,2.7,2.7,0,0,0,1.71-.61v.83a3.19,3.19,0,0,1-1.92.53,2.33,2.33,0,0,1-1.83-.75,3.07,3.07,0,0,1-.67-2.11,3,3,0,0,1,.73-2.09,2.33,2.33,0,0,1,1.81-.81,2.07,2.07,0,0,1,1.67.7,2.91,2.91,0,0,1,.59,1.94Zm-.9-.75a1.8,1.8,0,0,0-.37-1.19,1.25,1.25,0,0,0-1-.42,1.42,1.42,0,0,0-1.06.45,2,2,0,0,0-.54,1.17Z" fill="#fff"/><path d="M289.43,74.84h-.88V66.7h.88Z" fill="#fff"/><path d="M298.79,74.84h-.88V71.7q0-1.75-1.28-1.75a1.39,1.39,0,0,0-1.09.5,1.84,1.84,0,0,0-.43,1.25v3.14h-.88v-5.5h.88v.91h0a2,2,0,0,1,1.8-1,1.68,1.68,0,0,1,1.38.58,2.6,2.6,0,0,1,.48,1.68Z" fill="#fff"/><path d="M304.39,74.84h-.88V74h0a1.84,1.84,0,0,1-1.69,1,1.81,1.81,0,0,1-1.29-.43,1.5,1.5,0,0,1-.46-1.16q0-1.54,1.82-1.79l1.65-.23q0-1.4-1.13-1.4a2.71,2.71,0,0,0-1.79.68v-.9a3.41,3.41,0,0,1,1.87-.52q1.94,0,1.94,2.05Zm-.88-2.78-1.33.18a2.15,2.15,0,0,0-.92.3.87.87,0,0,0-.31.77.84.84,0,0,0,.29.66,1.11,1.11,0,0,0,.77.25,1.41,1.41,0,0,0,1.08-.46,1.64,1.64,0,0,0,.43-1.16Z" fill="#fff"/><path d="M313.86,74.84H313V71.68a2.38,2.38,0,0,0-.28-1.32,1.07,1.07,0,0,0-.95-.41,1.17,1.17,0,0,0-1,.52,2,2,0,0,0-.4,1.24v3.14h-.88V71.57q0-1.62-1.25-1.62a1.16,1.16,0,0,0-1,.49,2,2,0,0,0-.38,1.26v3.14H306v-5.5h.88v.87h0a1.87,1.87,0,0,1,1.71-1,1.59,1.59,0,0,1,1.56,1.14A2,2,0,0,1,312,69.21q1.81,0,1.82,2.24Z" fill="#fff"/><path d="M319.94,72.31h-3.88a2.05,2.05,0,0,0,.49,1.42,1.7,1.7,0,0,0,1.3.5,2.7,2.7,0,0,0,1.71-.61v.83a3.19,3.19,0,0,1-1.92.53,2.33,2.33,0,0,1-1.83-.75,3.07,3.07,0,0,1-.67-2.11,3,3,0,0,1,.73-2.09,2.33,2.33,0,0,1,1.81-.81,2.07,2.07,0,0,1,1.67.7,2.91,2.91,0,0,1,.59,1.94Zm-.9-.75a1.79,1.79,0,0,0-.37-1.19,1.26,1.26,0,0,0-1-.42,1.42,1.42,0,0,0-1.06.45,2,2,0,0,0-.54,1.17Z" fill="#fff"/><path d="M321.58,70.41a.57.57,0,0,1-.42-.18.58.58,0,0,1-.17-.42.57.57,0,0,1,.17-.42.58.58,0,0,1,.42-.17.6.6,0,0,1,.43.17.56.56,0,0,1,.18.42.58.58,0,0,1-.18.42A.59.59,0,0,1,321.58,70.41Zm0,4.54a.57.57,0,0,1-.42-.18.58.58,0,0,1-.17-.42.59.59,0,0,1,.17-.43.56.56,0,0,1,.42-.18.58.58,0,0,1,.43.18.59.59,0,0,1,.18.43.58.58,0,0,1-.18.42A.59.59,0,0,1,321.58,75Z" fill="#fff"/><path d="M331.17,70.53a7.66,7.66,0,0,1-.21,1.88,4.19,4.19,0,0,1-.61,1.4,2.7,2.7,0,0,1-1,.87A2.84,2.84,0,0,1,328,75a3.17,3.17,0,0,1-1.34-.27v-.84a2.73,2.73,0,0,0,1.36.36A2,2,0,0,0,329,74a1.93,1.93,0,0,0,.7-.63,3.07,3.07,0,0,0,.44-1,5.75,5.75,0,0,0,.15-1.38h0a1.76,1.76,0,0,1-1.72,1,2.3,2.3,0,0,1-.91-.17,2.06,2.06,0,0,1-.71-.49,2.25,2.25,0,0,1-.47-.76,2.74,2.74,0,0,1-.17-1,2.82,2.82,0,0,1,.19-1,2.41,2.41,0,0,1,.52-.81,2.31,2.31,0,0,1,.78-.53,2.55,2.55,0,0,1,1-.19,2.21,2.21,0,0,1,1,.23,2.07,2.07,0,0,1,.75.68A3.37,3.37,0,0,1,331,69,6.31,6.31,0,0,1,331.17,70.53Zm-1-.79a2.67,2.67,0,0,0-.12-.81,2,2,0,0,0-.32-.63,1.45,1.45,0,0,0-.49-.4,1.34,1.34,0,0,0-.62-.14,1.4,1.4,0,0,0-1.07.48,1.69,1.69,0,0,0-.32.54,2,2,0,0,0-.12.69,2.23,2.23,0,0,0,.11.73,1.52,1.52,0,0,0,.31.54,1.35,1.35,0,0,0,.49.34,1.65,1.65,0,0,0,.64.12,1.46,1.46,0,0,0,.58-.12,1.54,1.54,0,0,0,.47-.31,1.45,1.45,0,0,0,.32-.46A1.42,1.42,0,0,0,330.22,69.74Z" fill="#fff"/><path d="M335.6,74.84h-.88V68.19a2.16,2.16,0,0,1-.3.23,5,5,0,0,1-.44.26l-.52.24a3.79,3.79,0,0,1-.53.18v-.89a5.22,5.22,0,0,0,.62-.22c.22-.09.43-.19.64-.31s.41-.23.59-.35a4.79,4.79,0,0,0,.48-.36h.33Z" fill="#fff"/><path d="M338.13,72.69a2.05,2.05,0,0,1,.1-.62,2.24,2.24,0,0,1,.28-.58,2.28,2.28,0,0,1,.45-.49,2.1,2.1,0,0,1,.6-.35,2.28,2.28,0,0,1-.79-.72,1.7,1.7,0,0,1-.29-1,1.87,1.87,0,0,1,.62-1.41,2.12,2.12,0,0,1,.69-.41,2.47,2.47,0,0,1,.86-.15,2.44,2.44,0,0,1,.87.15,2.14,2.14,0,0,1,.69.41,1.85,1.85,0,0,1,.45.62,1.88,1.88,0,0,1,.16.78,1.69,1.69,0,0,1-.3,1,2.29,2.29,0,0,1-.78.72,2.09,2.09,0,0,1,.6.35,2.34,2.34,0,0,1,.44.49,2.28,2.28,0,0,1,.28.58,2.05,2.05,0,0,1,.1.62,2.3,2.3,0,0,1-.18.92,2.07,2.07,0,0,1-.51.72,2.35,2.35,0,0,1-.79.46,2.94,2.94,0,0,1-1,.17,2.9,2.9,0,0,1-1-.17,2.39,2.39,0,0,1-.79-.46,2.07,2.07,0,0,1-.52-.72A2.25,2.25,0,0,1,338.13,72.69Zm1-.08a1.8,1.8,0,0,0,.11.65,1.4,1.4,0,0,0,.31.49,1.36,1.36,0,0,0,.49.31,1.75,1.75,0,0,0,.64.11,1.68,1.68,0,0,0,.62-.11,1.44,1.44,0,0,0,.49-.32,1.43,1.43,0,0,0,.32-.49,1.73,1.73,0,0,0,.12-.64,1.65,1.65,0,0,0-.11-.6,1.53,1.53,0,0,0-.31-.5,1.48,1.48,0,0,0-.49-.34,1.71,1.71,0,0,0-1.25,0,1.46,1.46,0,0,0-.81.82A1.64,1.64,0,0,0,339.08,72.62Zm.27-3.57a1.28,1.28,0,0,0,.1.51,1.29,1.29,0,0,0,.68.68,1.27,1.27,0,0,0,1,0,1.29,1.29,0,0,0,.41-.28,1.34,1.34,0,0,0,.27-.41,1.24,1.24,0,0,0,.1-.5,1.31,1.31,0,0,0-.1-.52,1.25,1.25,0,0,0-.68-.68,1.34,1.34,0,0,0-1,0,1.24,1.24,0,0,0-.4.28,1.19,1.19,0,0,0-.26.41A1.37,1.37,0,0,0,339.35,69Z" fill="#fff"/><path d="M349,70.53a7.66,7.66,0,0,1-.21,1.88,4.19,4.19,0,0,1-.61,1.4,2.7,2.7,0,0,1-1,.87,2.84,2.84,0,0,1-1.32.3,3.17,3.17,0,0,1-1.34-.27v-.84a2.73,2.73,0,0,0,1.36.36,2,2,0,0,0,.93-.21,1.93,1.93,0,0,0,.7-.63,3.07,3.07,0,0,0,.44-1,5.75,5.75,0,0,0,.15-1.38h0a1.76,1.76,0,0,1-1.72,1,2.3,2.3,0,0,1-.91-.17,2.06,2.06,0,0,1-.71-.49,2.25,2.25,0,0,1-.47-.76,2.74,2.74,0,0,1-.17-1,2.82,2.82,0,0,1,.19-1,2.41,2.41,0,0,1,.52-.81,2.31,2.31,0,0,1,.78-.53,2.55,2.55,0,0,1,1-.19,2.21,2.21,0,0,1,1,.23,2.07,2.07,0,0,1,.75.68,3.37,3.37,0,0,1,.47,1.1A6.31,6.31,0,0,1,349,70.53Zm-1-.79a2.67,2.67,0,0,0-.12-.81,2,2,0,0,0-.32-.63,1.45,1.45,0,0,0-.49-.4,1.34,1.34,0,0,0-.62-.14,1.4,1.4,0,0,0-1.07.48,1.69,1.69,0,0,0-.32.54,2,2,0,0,0-.12.69,2.23,2.23,0,0,0,.11.73,1.52,1.52,0,0,0,.31.54,1.35,1.35,0,0,0,.49.34,1.65,1.65,0,0,0,.64.12,1.46,1.46,0,0,0,.58-.12,1.54,1.54,0,0,0,.47-.31,1.45,1.45,0,0,0,.32-.46A1.42,1.42,0,0,0,348,69.74Z" fill="#fff"/><path d="M353.21,72.12h-2.93v-.69h2.93Z" fill="#fff"/><path d="M357.79,74.84h-.88V68.19a2,2,0,0,1-.3.23,4.82,4.82,0,0,1-.44.26l-.52.24a3.75,3.75,0,0,1-.53.18v-.89a5.22,5.22,0,0,0,.62-.22c.22-.09.43-.19.64-.31s.41-.23.59-.35a4.57,4.57,0,0,0,.48-.36h.33Z" fill="#fff"/><path d="M368.69,74.84h-.9V69.67q0-.61.08-1.5h0a4.76,4.76,0,0,1-.23.75L365,74.84h-.44L361.92,69a4.62,4.62,0,0,1-.23-.79h0q0,.46,0,1.51v5.16h-.87v-7.7H362l2.36,5.37a6.89,6.89,0,0,1,.35.92h0q.23-.63.37-.95l2.41-5.35h1.13Z" fill="#fff"/><path d="M372.9,75A2.55,2.55,0,0,1,371,74.2a2.85,2.85,0,0,1-.73-2A3,3,0,0,1,371,70a2.72,2.72,0,0,1,2-.78,2.47,2.47,0,0,1,1.92.76,3,3,0,0,1,.69,2.1,3,3,0,0,1-.74,2.11A2.61,2.61,0,0,1,372.9,75Zm.06-5a1.67,1.67,0,0,0-1.34.58,2.37,2.37,0,0,0-.49,1.59,2.24,2.24,0,0,0,.5,1.54,1.7,1.7,0,0,0,1.34.56,1.61,1.61,0,0,0,1.31-.55,2.4,2.4,0,0,0,.46-1.57,2.45,2.45,0,0,0-.46-1.59A1.61,1.61,0,0,0,373,70Z" fill="#fff"/><path d="M381.74,74.84h-.88v-.93h0A2,2,0,0,1,378.95,75a2.06,2.06,0,0,1-1.66-.74,3,3,0,0,1-.62-2,3.29,3.29,0,0,1,.69-2.19,2.27,2.27,0,0,1,1.83-.82,1.76,1.76,0,0,1,1.65.89h0V66.7h.88Zm-.88-2.49v-.81a1.58,1.58,0,0,0-.44-1.13A1.48,1.48,0,0,0,379.3,70a1.52,1.52,0,0,0-1.27.59,2.59,2.59,0,0,0-.46,1.63,2.32,2.32,0,0,0,.44,1.5,1.45,1.45,0,0,0,1.19.55,1.51,1.51,0,0,0,1.2-.53A2,2,0,0,0,380.86,72.35Z" fill="#fff"/><path d="M386.52,74.84h-.88V68.19a2.16,2.16,0,0,1-.3.23,5,5,0,0,1-.44.26l-.52.24a3.79,3.79,0,0,1-.53.18v-.89a5.22,5.22,0,0,0,.62-.22c.22-.09.43-.19.64-.31s.41-.23.59-.35a4.79,4.79,0,0,0,.48-.36h.33Z" fill="#fff"/><path d="M392.93,67.14l-3.7,9h-.82l3.68-9Z" fill="#fff"/><path d="M397.67,74.84h-.88V74h0a1.84,1.84,0,0,1-1.69,1,1.81,1.81,0,0,1-1.29-.43,1.5,1.5,0,0,1-.46-1.16q0-1.54,1.82-1.79l1.65-.23q0-1.4-1.13-1.4a2.71,2.71,0,0,0-1.79.68v-.9a3.41,3.41,0,0,1,1.87-.52q1.94,0,1.94,2.05Zm-.88-2.78-1.33.18a2.15,2.15,0,0,0-.92.3.87.87,0,0,0-.31.77.84.84,0,0,0,.29.66,1.11,1.11,0,0,0,.77.25,1.41,1.41,0,0,0,1.08-.46,1.64,1.64,0,0,0,.43-1.16Z" fill="#fff"/><path d="M399.79,67.94a.56.56,0,0,1-.4-.16.55.55,0,0,1-.17-.41.56.56,0,0,1,.57-.57.57.57,0,0,1,.41.16.58.58,0,0,1,0,.81A.57.57,0,0,1,399.79,67.94Zm.43,6.9h-.88v-5.5h.88Z" fill="#fff"/><path d="M406.58,71a7.57,7.57,0,0,1-.17,1.71,4,4,0,0,1-.5,1.26,2.26,2.26,0,0,1-.81.78A2.22,2.22,0,0,1,404,75a2.06,2.06,0,0,1-1-.26,2.16,2.16,0,0,1-.77-.74,3.77,3.77,0,0,1-.47-1.2,7.42,7.42,0,0,1-.16-1.63,8.44,8.44,0,0,1,.17-1.78,4.08,4.08,0,0,1,.5-1.3,2.21,2.21,0,0,1,.81-.79,2.29,2.29,0,0,1,1.11-.27Q406.58,67,406.58,71Zm-.9.09q0-3.29-1.56-3.29t-1.65,3.35q0,3.12,1.62,3.12T405.68,71Z" fill="#fff"/><path d="M842.41,65,847,69.59,851.59,65,853,66.41,848.41,71l4.54,4.54-1.41,1.41L847,72.41l-4.54,4.54L841,75.54,845.59,71,841,66.41Z" fill="#fff"/><g id="toolbar"><rect x="1" y="30.05" width="855.85" height="30" fill="#fff"/><rect x="2.32" y="30" width="853.85" height="28" fill="#f7f7f7"/><path d="M96.82,49.69a4.93,4.93,0,0,1-2.32.49A3.74,3.74,0,0,1,91.63,49a4.26,4.26,0,0,1-1.08-3,4.46,4.46,0,0,1,1.21-3.26,4.12,4.12,0,0,1,3.08-1.24,4.93,4.93,0,0,1,2,.35v1a4,4,0,0,0-2-.5,3.06,3.06,0,0,0-2.35,1,3.64,3.64,0,0,0-.9,2.58,3.47,3.47,0,0,0,.84,2.45,2.86,2.86,0,0,0,2.21.91,4.14,4.14,0,0,0,2.19-.56Z" fill="#2b3033"/><path d="M102.7,50h-1v-.94h0a2,2,0,0,1-1.85,1.08,2,2,0,0,1-1.4-.47A1.64,1.64,0,0,1,98,48.45q0-1.68,2-2l1.8-.25q0-1.53-1.24-1.53a3,3,0,0,0-2,.74v-1a3.72,3.72,0,0,1,2-.56q2.12,0,2.12,2.24Zm-1-3-1.45.2a2.35,2.35,0,0,0-1,.33,1,1,0,0,0-.34.84.92.92,0,0,0,.31.72,1.21,1.21,0,0,0,.83.28,1.54,1.54,0,0,0,1.18-.5,1.79,1.79,0,0,0,.47-1.27Z" fill="#2b3033"/><path d="M105.49,49.18h0v3.63h-1V44h1V45.1h0a2.27,2.27,0,0,1,2.07-1.2,2.2,2.2,0,0,1,1.81.81,3.34,3.34,0,0,1,.65,2.16,3.72,3.72,0,0,1-.73,2.41,2.44,2.44,0,0,1-2,.91A2,2,0,0,1,105.49,49.18Zm0-2.42v.84a1.78,1.78,0,0,0,.48,1.26,1.72,1.72,0,0,0,2.6-.15,3.06,3.06,0,0,0,.5-1.86,2.42,2.42,0,0,0-.46-1.57,1.53,1.53,0,0,0-1.25-.57,1.7,1.7,0,0,0-1.35.58A2.14,2.14,0,0,0,105.47,46.76Z" fill="#2b3033"/><path d="M114.35,50a1.85,1.85,0,0,1-.9.19q-1.58,0-1.58-1.76V44.87h-1V44h1V42.58l1-.31V44h1.51v.82h-1.51v3.38a1.4,1.4,0,0,0,.21.86.82.82,0,0,0,.68.26,1,1,0,0,0,.63-.2Z" fill="#2b3033"/><path d="M120.48,50h-1V49.1h0a2,2,0,0,1-1.85,1.09q-2.14,0-2.14-2.55V44h1v3.43q0,1.9,1.45,1.9a1.47,1.47,0,0,0,1.16-.52,2,2,0,0,0,.45-1.36V44h1Z" fill="#2b3033"/><path d="M125.55,45a1.18,1.18,0,0,0-.73-.19,1.23,1.23,0,0,0-1,.58,2.68,2.68,0,0,0-.41,1.58V50h-1V44h1v1.24h0a2.1,2.1,0,0,1,.63-1,1.43,1.43,0,0,1,.94-.35,1.57,1.57,0,0,1,.57.08Z" fill="#2b3033"/><path d="M131.26,47.29H127a2.24,2.24,0,0,0,.54,1.55,1.86,1.86,0,0,0,1.42.54,3,3,0,0,0,1.86-.67v.9a3.48,3.48,0,0,1-2.09.57,2.54,2.54,0,0,1-2-.82,3.35,3.35,0,0,1-.73-2.3,3.28,3.28,0,0,1,.79-2.28,2.55,2.55,0,0,1,2-.88,2.26,2.26,0,0,1,1.82.76,3.18,3.18,0,0,1,.64,2.12Zm-1-.81a2,2,0,0,0-.4-1.29,1.37,1.37,0,0,0-1.1-.46,1.55,1.55,0,0,0-1.15.49,2.21,2.21,0,0,0-.59,1.27Z" fill="#2b3033"/><path d="M139,42a1.28,1.28,0,0,0-.64-.16q-1,0-1,1.27V44h1.41v.82h-1.41V50h-1V44.87h-1V44h1v-1a2,2,0,0,1,.54-1.49,1.84,1.84,0,0,1,1.36-.55,1.88,1.88,0,0,1,.7.11Z" fill="#2b3033"/><path d="M142.88,45a1.18,1.18,0,0,0-.73-.19,1.23,1.23,0,0,0-1,.58,2.68,2.68,0,0,0-.41,1.58V50h-1V44h1v1.24h0a2.1,2.1,0,0,1,.63-1,1.43,1.43,0,0,1,.94-.35,1.57,1.57,0,0,1,.57.08Z" fill="#2b3033"/><path d="M148.22,50h-1v-.94h0a2,2,0,0,1-1.85,1.08,2,2,0,0,1-1.4-.47,1.64,1.64,0,0,1-.51-1.26q0-1.68,2-2l1.8-.25q0-1.53-1.24-1.53a3,3,0,0,0-2,.74v-1a3.72,3.72,0,0,1,2-.56q2.12,0,2.12,2.24Zm-1-3-1.45.2a2.35,2.35,0,0,0-1,.33,1,1,0,0,0-.34.84.92.92,0,0,0,.31.72,1.21,1.21,0,0,0,.83.28,1.54,1.54,0,0,0,1.18-.5,1.79,1.79,0,0,0,.47-1.27Z" fill="#2b3033"/><path d="M158.55,50h-1V46.6a2.6,2.6,0,0,0-.31-1.44,1.17,1.17,0,0,0-1-.45,1.28,1.28,0,0,0-1,.56,2.15,2.15,0,0,0-.43,1.35V50h-1V46.48q0-1.77-1.37-1.77a1.26,1.26,0,0,0-1,.53,2.19,2.19,0,0,0-.41,1.38V50h-1V44h1V45h0a2,2,0,0,1,1.86-1.09,1.73,1.73,0,0,1,1.7,1.24,2.14,2.14,0,0,1,2-1.24q2,0,2,2.44Z" fill="#2b3033"/><path d="M165.19,47.29H161a2.24,2.24,0,0,0,.54,1.55,1.86,1.86,0,0,0,1.42.54,3,3,0,0,0,1.86-.67v.9a3.48,3.48,0,0,1-2.09.57,2.54,2.54,0,0,1-2-.82,3.35,3.35,0,0,1-.73-2.3,3.28,3.28,0,0,1,.79-2.28,2.55,2.55,0,0,1,2-.88,2.26,2.26,0,0,1,1.82.76,3.18,3.18,0,0,1,.64,2.12Zm-1-.81a2,2,0,0,0-.4-1.29,1.37,1.37,0,0,0-1.1-.46,1.55,1.55,0,0,0-1.15.49,2.21,2.21,0,0,0-.59,1.27Z" fill="#2b3033"/><polygon points="69 38.05 69 44.05 71 44.05 71 40.05 75 40.05 75 38.05 69 38.05" fill="#696e73"/><polygon points="71 48.05 69 48.05 69 54.05 75 54.05 75 52.05 71 52.05 71 48.05" fill="#696e73"/><polygon points="83 52.05 79 52.05 79 54.05 85 54.05 85 48.05 83 48.05 83 52.05" fill="#696e73"/><polygon points="79 38.05 79 40.05 83 40.05 83 44.05 85 44.05 85 38.05 79 38.05" fill="#696e73"/><rect x="73" y="45.05" width="2" height="5" fill="#696e73"/><rect x="76" y="42.05" width="2" height="8" fill="#696e73"/><rect x="79" y="43.05" width="2" height="7" fill="#696e73"/><polygon points="12 54.05 12 38.05 28 46.05 12 54.05" fill="#696e73"/><polygon points="13.07 40.16 24.8 46.05 13.07 51.95 13.07 40.16" fill="#fff"/><polygon points="14.13 42.33 21.63 46.05 14.13 49.8 14.13 42.33" fill="#55a446"/><rect x="42" y="39.05" width="4" height="14" fill="#696e73" opacity="0.5"/><rect x="50" y="39.05" width="4" height="14" fill="#696e73" opacity="0.5"/><path d="M170.61,43h9l-4.5,6Z" fill="#4d5359" opacity="0.8"/><path d="M856.85,30H0V60H857.85V30Zm0,29H1V31H856.85Z" fill="#8e9295"/></g><rect y="0.02" width="353" height="0.97" fill="#afb2b5"/><polygon points="858 31 0 30.97 0 0 858 0 858 31" fill="url(#linear-gradient)"/><rect x="1" y="1.02" width="36" height="1" fill="#fff"/><rect x="0.5" y="0.5" width="38" height="30" fill="url(#linear-gradient-2)"/><path d="M38,1V30H1V1H38m1-1H0V31H39V0Z" fill="#8e9295"/><polygon points="177 31 39.05 31 39 0 177 0 177 31" fill="#f7f7f7"/><rect x="39" y="1" width="137" height="1" fill="#dde2e6"/><rect x="39" width="819" height="1" fill="url(#linear-gradient-3)"/><polygon points="858 0 39 0 39 1 858 1 858 0 858 0" fill="#8e9295"/><path d="M72.61,21H71.52l-.89-2.36H67.06L66.22,21h-1.1l3.22-8.4h1Zm-2.3-3.24L69,14.18a3.43,3.43,0,0,1-.13-.56h0a3.14,3.14,0,0,1-.13.56l-1.31,3.58Z" fill="#2b3033"/><path d="M78.69,21h-1V17.58q0-1.91-1.39-1.91a1.51,1.51,0,0,0-1.19.54,2,2,0,0,0-.47,1.37V21h-1V15h1v1h0a2.17,2.17,0,0,1,2-1.14,1.84,1.84,0,0,1,1.51.64,2.83,2.83,0,0,1,.52,1.84Z" fill="#2b3033"/><path d="M84.8,21h-1v-.94h0A2,2,0,0,1,82,21.14a2,2,0,0,1-1.4-.47,1.64,1.64,0,0,1-.51-1.26q0-1.68,2-2l1.8-.25q0-1.53-1.24-1.53a3,3,0,0,0-2,.74v-1a3.72,3.72,0,0,1,2-.56q2.12,0,2.12,2.24Zm-1-3-1.45.2a2.35,2.35,0,0,0-1,.33,1,1,0,0,0-.34.84.92.92,0,0,0,.31.72,1.21,1.21,0,0,0,.83.28,1.54,1.54,0,0,0,1.18-.5,1.79,1.79,0,0,0,.47-1.27Z" fill="#2b3033"/><path d="M87.57,21h-1V12.12h1Z" fill="#2b3033"/><path d="M92,21.14a2.78,2.78,0,0,1-2.12-.84,3.11,3.11,0,0,1-.79-2.23,3.24,3.24,0,0,1,.83-2.36,3,3,0,0,1,2.23-.85,2.69,2.69,0,0,1,2.09.83A3.28,3.28,0,0,1,95,18a3.22,3.22,0,0,1-.81,2.3A2.84,2.84,0,0,1,92,21.14Zm.07-5.47a1.83,1.83,0,0,0-1.46.63A2.59,2.59,0,0,0,90.09,18a2.45,2.45,0,0,0,.54,1.68,1.85,1.85,0,0,0,1.46.62,1.76,1.76,0,0,0,1.43-.6A2.62,2.62,0,0,0,94,18a2.66,2.66,0,0,0-.5-1.73A1.75,1.75,0,0,0,92.09,15.67Z" fill="#2b3033"/><path d="M101.67,20.52q0,3.3-3.16,3.3a4.25,4.25,0,0,1-1.95-.42v-1a4,4,0,0,0,1.93.56q2.21,0,2.21-2.36V20h0a2.43,2.43,0,0,1-3.86.35,3.2,3.2,0,0,1-.68-2.15,3.74,3.74,0,0,1,.74-2.43,2.46,2.46,0,0,1,2-.9,2,2,0,0,1,1.8,1h0V15h1Zm-1-2.23V17.4a1.72,1.72,0,0,0-.48-1.22,1.59,1.59,0,0,0-1.2-.51,1.67,1.67,0,0,0-1.39.65,2.89,2.89,0,0,0-.5,1.81,2.48,2.48,0,0,0,.48,1.6,1.56,1.56,0,0,0,1.28.6,1.67,1.67,0,0,0,1.32-.57A2.14,2.14,0,0,0,100.71,18.29Z" fill="#2b3033"/><path d="M108,21h-1V12.6h1Z" fill="#2b3033"/><path d="M115.07,21h-1V17.58q0-1.91-1.39-1.91a1.51,1.51,0,0,0-1.19.54,2,2,0,0,0-.47,1.37V21h-1V15h1v1h0a2.17,2.17,0,0,1,2-1.14,1.84,1.84,0,0,1,1.51.64,2.83,2.83,0,0,1,.52,1.84Z" fill="#2b3033"/><path d="M117.87,20.13h0v3.63h-1V15h1v1.05h0a2.27,2.27,0,0,1,2.07-1.2,2.2,2.2,0,0,1,1.81.81,3.34,3.34,0,0,1,.65,2.16,3.72,3.72,0,0,1-.73,2.41,2.44,2.44,0,0,1-2,.91A2,2,0,0,1,117.87,20.13Zm0-2.42v.84a1.78,1.78,0,0,0,.48,1.26,1.72,1.72,0,0,0,2.6-.15,3.06,3.06,0,0,0,.5-1.86,2.42,2.42,0,0,0-.46-1.57,1.53,1.53,0,0,0-1.25-.57,1.7,1.7,0,0,0-1.35.58A2.14,2.14,0,0,0,117.85,17.71Z" fill="#2b3033"/><path d="M128.79,21h-1v-.95h0A2,2,0,0,1,126,21.14q-2.14,0-2.14-2.55V15h1v3.43q0,1.9,1.45,1.9a1.47,1.47,0,0,0,1.16-.52,2,2,0,0,0,.45-1.36V15h1Z" fill="#2b3033"/><path d="M133.51,20.94a1.85,1.85,0,0,1-.9.19q-1.58,0-1.58-1.76V15.82h-1V15h1V13.54l1-.31V15h1.51v.82H132V19.2a1.4,1.4,0,0,0,.21.86.82.82,0,0,0,.68.26,1,1,0,0,0,.63-.2Z" fill="#2b3033"/><path d="M135.13,21.13a.62.62,0,0,1-.46-.19.64.64,0,0,1-.19-.46.65.65,0,0,1,.19-.47.62.62,0,0,1,.46-.2.63.63,0,0,1,.47.2.64.64,0,0,1,.19.47.63.63,0,0,1-.19.46A.64.64,0,0,1,135.13,21.13Z" fill="#2b3033"/><path d="M140.18,20.94a1.85,1.85,0,0,1-.9.19q-1.58,0-1.58-1.76V15.82h-1V15h1V13.54l1-.31V15h1.51v.82h-1.51V19.2a1.4,1.4,0,0,0,.21.86.82.82,0,0,0,.68.26,1,1,0,0,0,.63-.2Z" fill="#2b3033"/><path d="M145.76,21h-1v-.94h0a2,2,0,0,1-1.85,1.08,2,2,0,0,1-1.4-.47,1.64,1.64,0,0,1-.51-1.26q0-1.68,2-2l1.8-.25q0-1.53-1.24-1.53a3,3,0,0,0-2,.74v-1a3.72,3.72,0,0,1,2-.56q2.12,0,2.12,2.24Zm-1-3-1.45.2a2.35,2.35,0,0,0-1,.33,1,1,0,0,0-.34.84.92.92,0,0,0,.31.72,1.21,1.21,0,0,0,.83.28,1.54,1.54,0,0,0,1.18-.5,1.79,1.79,0,0,0,.47-1.27Z" fill="#2b3033"/><path d="M147.21,20.78v-1a2.84,2.84,0,0,0,1.73.58q1.27,0,1.27-.84a.73.73,0,0,0-.11-.41,1.08,1.08,0,0,0-.29-.3,2.26,2.26,0,0,0-.43-.23l-.54-.21a6.9,6.9,0,0,1-.7-.32,2.12,2.12,0,0,1-.5-.36,1.35,1.35,0,0,1-.3-.46,1.63,1.63,0,0,1-.1-.6,1.43,1.43,0,0,1,.19-.75,1.71,1.71,0,0,1,.52-.54,2.4,2.4,0,0,1,.74-.33,3.26,3.26,0,0,1,.85-.11,3.44,3.44,0,0,1,1.39.27v1a2.72,2.72,0,0,0-1.52-.43,1.78,1.78,0,0,0-.49.06,1.19,1.19,0,0,0-.37.17.8.8,0,0,0-.24.27.7.7,0,0,0-.08.34.82.82,0,0,0,.08.39.86.86,0,0,0,.25.28,1.9,1.9,0,0,0,.4.22l.53.22a7.42,7.42,0,0,1,.71.31,2.45,2.45,0,0,1,.54.36,1.42,1.42,0,0,1,.34.47,1.5,1.5,0,0,1,.12.63,1.48,1.48,0,0,1-.2.77,1.68,1.68,0,0,1-.52.54,2.4,2.4,0,0,1-.76.32,3.73,3.73,0,0,1-.9.11A3.4,3.4,0,0,1,147.21,20.78Z" fill="#2b3033"/><path d="M157.64,21h-1.35l-2.65-2.88h0V21h-1V12.12h1v5.63h0L156.17,15h1.26l-2.78,2.89Z" fill="#2b3033"/><path d="M169.75,6H171V7.24h-.62v.62h-.62V9.12h.63v.62H171V11h-1.25v-.62h-.62V9.74h-1.25v.62h-.62V11H166V9.74h.63V9.12h.63V7.87h-.62V7.24H166V6h1.25v.62h.63v.62h1.25V6.62h.63Z" fill="#696e73"/><path d="M18.94,6,9,15.75h3l7-7,7,7h3Z" fill="#696e72"/><path d="M13,16.75v8h5v-4h2v4h5v-8l-6-6Z" fill="#696e72"/><path d="M15,6.75H12v4.06l3-3Z" fill="#696e72"/><polygon points="51.74 23 49.92 12.33 48.14 22.25 46.19 13.4 44.87 17.63 44 17.32 46.34 9.83 48.05 17.57 49.94 7 51.78 17.8 53.59 8.15 55.57 18.69 57.21 14.33 58.45 16.98 60 16.98 60 17.96 57.89 17.96 57.3 16.71 55.27 22.1 53.59 13.13 51.74 23" fill="#696e73"/><rect x="176" y="0.99" width="1" height="30" fill="#afb2b5"/><rect x="176" y="30" width="682" height="1" fill="#afb2b5"/></svg>