<svg id="Layer_1" data-name="Layer 1" xmlns="http://www.w3.org/2000/svg" xmlns:xlink="http://www.w3.org/1999/xlink" width="858" height="82" viewBox="0 0 858 82">
  <defs>
    <linearGradient id="linear-gradient" x1="429" y1="-26.75" x2="429" y2="30.05" gradientUnits="userSpaceOnUse">
      <stop offset="0" stop-color="#e9ebec"/>
      <stop offset="0.65" stop-color="#e0e4e6"/>
      <stop offset="1" stop-color="#d9dee1"/>
    </linearGradient>
    <linearGradient id="linear-gradient-2" x1="1342.43" y1="482.83" x2="1342.43" y2="453.79" gradientTransform="translate(1361.93 484.27) rotate(180)" xlink:href="#linear-gradient"/>
    <linearGradient id="linear-gradient-3" x1="39" y1="0.5" x2="858" y2="0.5" xlink:href="#linear-gradient"/>
    <symbol id="toolbar-3" data-name="toolbar" viewBox="0 0 858 30.05">
      <rect x="1" y="0.05" width="856" height="30" fill="#fff"/>
      <rect x="2.32" width="854" height="28" fill="#f7f7f7"/>
      <path d="M857,.05H0v30H858V.05Zm0,29H1v-28H857Z" fill="#8e9295"/>
      <g>
        <path d="M277.71,17.73V16.57a1.91,1.91,0,0,0,.48.32,5,5,0,0,0,.58.24c.21.06.41.11.62.15a4.13,4.13,0,0,0,.58,0,2.2,2.2,0,0,0,1.35-.34,1.12,1.12,0,0,0,.45-1,1.15,1.15,0,0,0-.15-.59,1.76,1.76,0,0,0-.41-.46,4.57,4.57,0,0,0-.63-.4l-.77-.4c-.3-.15-.57-.3-.82-.45a3.54,3.54,0,0,1-.67-.5,2.3,2.3,0,0,1-.44-.63,1.86,1.86,0,0,1-.16-.81,2,2,0,0,1,.25-1,2,2,0,0,1,.67-.7,2.8,2.8,0,0,1,.93-.41,4.3,4.3,0,0,1,1.07-.14,4.08,4.08,0,0,1,1.81.3v1.11a3.24,3.24,0,0,0-1.91-.52,2.73,2.73,0,0,0-.64.07,1.75,1.75,0,0,0-.58.22,1.27,1.27,0,0,0-.41.39,1.1,1.1,0,0,0-.16.59,1.18,1.18,0,0,0,.12.55,1.31,1.31,0,0,0,.36.43,3,3,0,0,0,.57.38l.77.4a8.69,8.69,0,0,1,.86.46,4,4,0,0,1,.71.55,2.53,2.53,0,0,1,.48.66,1.84,1.84,0,0,1,.18.83,2.09,2.09,0,0,1-.24,1.05,2,2,0,0,1-.66.71,3,3,0,0,1-.95.38,5.24,5.24,0,0,1-1.14.12l-.49,0-.6-.09a4.74,4.74,0,0,1-.57-.15A1.5,1.5,0,0,1,277.71,17.73Z" fill="#2b3033"/>
        <path d="M285.33,17.21h0v3.62h-1V12.07h1v1.06h0a2.29,2.29,0,0,1,2.08-1.2,2.2,2.2,0,0,1,1.81.81,3.37,3.37,0,0,1,.65,2.16,3.76,3.76,0,0,1-.73,2.41,2.46,2.46,0,0,1-2,.9A2,2,0,0,1,285.33,17.21Zm0-2.42v.83a1.81,1.81,0,0,0,.48,1.27,1.73,1.73,0,0,0,2.6-.15,3.09,3.09,0,0,0,.49-1.86,2.41,2.41,0,0,0-.46-1.57,1.53,1.53,0,0,0-1.25-.57,1.71,1.71,0,0,0-1.35.59A2.11,2.11,0,0,0,285.31,14.79Z" fill="#2b3033"/>
        <path d="M292.36,18.07h-1V9.19h1Z" fill="#2b3033"/>
        <path d="M294.8,10.55a.64.64,0,0,1-.44-.17.65.65,0,0,1,0-.9.6.6,0,0,1,.44-.18.62.62,0,0,1,.63.63.6.6,0,0,1-.18.44A.61.61,0,0,1,294.8,10.55Zm.47,7.52h-1v-6h1Z" fill="#2b3033"/>
        <path d="M300,18a2,2,0,0,1-.9.18c-1.05,0-1.57-.58-1.57-1.75V12.89h-1v-.82h1V10.61l1-.31v1.77H300v.82h-1.51v3.39a1.47,1.47,0,0,0,.2.86.83.83,0,0,0,.68.25,1,1,0,0,0,.63-.19Z" fill="#2b3033"/>
      </g>
      <rect x="144" y="3.05" width="1" height="23" fill="#a6a6a6"/>
      <rect x="317" y="3.05" width="1" height="23" fill="#a6a6a6"/>
      <rect x="346" y="3.05" width="1" height="23" fill="#a6a6a6"/>
      <rect x="201" y="2.05" width="59" height="26" fill="#4384b7"/>
      <g>
        <path d="M209,18.07V9.67h2.32q4.44,0,4.44,4.1a4.12,4.12,0,0,1-1.23,3.12,4.55,4.55,0,0,1-3.3,1.18Zm1-7.51v6.62h1.25a3.55,3.55,0,0,0,2.57-.88,3.3,3.3,0,0,0,.92-2.51q0-3.22-3.43-3.23Z" fill="#fff"/>
        <path d="M217.79,10.55a.64.64,0,0,1-.44-.17.65.65,0,0,1,0-.9.6.6,0,0,1,.44-.18.64.64,0,0,1,.45.18.61.61,0,0,1,.18.45.6.6,0,0,1-.18.44A.64.64,0,0,1,217.79,10.55Zm.47,7.52h-1v-6h1Z" fill="#fff"/>
        <path d="M224.5,18.07h-1v-.93h0a2.2,2.2,0,0,1-3.25.6,1.68,1.68,0,0,1-.5-1.26c0-1.12.66-1.77,2-2l1.8-.25c0-1-.42-1.53-1.24-1.53a3,3,0,0,0-2,.74v-1a3.68,3.68,0,0,1,2-.57c1.41,0,2.12.75,2.12,2.24Zm-1-3-1.45.2a2.3,2.3,0,0,0-1,.33,1,1,0,0,0-.34.84.93.93,0,0,0,.32.72,1.21,1.21,0,0,0,.83.28,1.55,1.55,0,0,0,1.18-.5,1.81,1.81,0,0,0,.47-1.27Z" fill="#fff"/>
        <path d="M231.43,17.59c0,2.21-1.06,3.31-3.16,3.31a4.25,4.25,0,0,1-2-.42v-1a4.06,4.06,0,0,0,1.93.56c1.48,0,2.22-.79,2.22-2.36v-.65h0a2.24,2.24,0,0,1-2.06,1.14,2.27,2.27,0,0,1-1.8-.79,3.24,3.24,0,0,1-.68-2.15,3.73,3.73,0,0,1,.73-2.43,2.44,2.44,0,0,1,2-.91,2,2,0,0,1,1.79,1h0v-.84h1Zm-1-2.23v-.88a1.7,1.7,0,0,0-.49-1.23,1.58,1.58,0,0,0-1.2-.51,1.66,1.66,0,0,0-1.39.65,2.87,2.87,0,0,0-.51,1.81,2.46,2.46,0,0,0,.49,1.61,1.55,1.55,0,0,0,1.28.6,1.68,1.68,0,0,0,1.31-.58A2.12,2.12,0,0,0,230.47,15.36Z" fill="#fff"/>
        <path d="M236.5,13.05a1.14,1.14,0,0,0-.72-.2,1.24,1.24,0,0,0-1,.58,2.68,2.68,0,0,0-.41,1.59v3.05h-1v-6h1v1.24h0a2.09,2.09,0,0,1,.63-1,1.44,1.44,0,0,1,.94-.35,1.65,1.65,0,0,1,.57.08Z" fill="#fff"/>
        <path d="M241.84,18.07h-1v-.93h0A2,2,0,0,1,239,18.21a2,2,0,0,1-1.4-.47,1.65,1.65,0,0,1-.51-1.26c0-1.12.66-1.77,2-2l1.8-.25c0-1-.41-1.53-1.24-1.53a3,3,0,0,0-1.95.74v-1a3.68,3.68,0,0,1,2-.57c1.41,0,2.11.75,2.11,2.24Zm-1-3-1.45.2a2.25,2.25,0,0,0-1,.33,1,1,0,0,0-.34.84.92.92,0,0,0,.31.72,1.24,1.24,0,0,0,.83.28,1.55,1.55,0,0,0,1.18-.5,1.77,1.77,0,0,0,.47-1.27Z" fill="#fff"/>
        <path d="M252.17,18.07h-1V14.63a2.52,2.52,0,0,0-.31-1.44,1.15,1.15,0,0,0-1-.45,1.3,1.3,0,0,0-1.05.56,2.22,2.22,0,0,0-.43,1.35v3.42h-1V14.51c0-1.18-.45-1.77-1.36-1.77a1.28,1.28,0,0,0-1,.53,2.24,2.24,0,0,0-.41,1.38v3.42h-1v-6h1V13h0a2,2,0,0,1,1.86-1.09,1.72,1.72,0,0,1,1.07.35,1.62,1.62,0,0,1,.63.9,2.14,2.14,0,0,1,2-1.25c1.32,0,2,.82,2,2.45Z" fill="#fff"/>
      </g>
      <g>
        <path d="M161,14.9v3.17h-1V9.67h2.31a3,3,0,0,1,2.08.66,2.33,2.33,0,0,1,.75,1.85,2.55,2.55,0,0,1-.83,2,3.18,3.18,0,0,1-2.22.76Zm0-4.34V14h1a2.33,2.33,0,0,0,1.56-.47,1.63,1.63,0,0,0,.53-1.31c0-1.11-.65-1.67-2-1.67Z" fill="#2b3033"/>
        <path d="M170.55,18.07h-1v-.93h0a2.2,2.2,0,0,1-3.25.6,1.68,1.68,0,0,1-.5-1.26c0-1.12.66-1.77,2-2l1.8-.25c0-1-.42-1.53-1.24-1.53a3,3,0,0,0-2,.74v-1a3.68,3.68,0,0,1,2-.57c1.41,0,2.12.75,2.12,2.24Zm-1-3-1.45.2a2.3,2.3,0,0,0-1,.33,1,1,0,0,0-.34.84,1,1,0,0,0,.31.72,1.25,1.25,0,0,0,.84.28,1.55,1.55,0,0,0,1.18-.5,1.81,1.81,0,0,0,.47-1.27Z" fill="#2b3033"/>
        <path d="M177.34,18.07h-1V14.65c0-1.27-.47-1.91-1.4-1.91a1.5,1.5,0,0,0-1.19.54,2.05,2.05,0,0,0-.47,1.37v3.42h-1v-6h1v1h0a2.17,2.17,0,0,1,2-1.14,1.86,1.86,0,0,1,1.51.64,2.88,2.88,0,0,1,.52,1.84Z" fill="#2b3033"/>
        <path d="M184,15.31h-4.24a2.28,2.28,0,0,0,.54,1.55,1.89,1.89,0,0,0,1.42.55,3,3,0,0,0,1.87-.67v.9a3.53,3.53,0,0,1-2.1.57,2.53,2.53,0,0,1-2-.81,3.33,3.33,0,0,1-.73-2.3,3.25,3.25,0,0,1,.79-2.28,2.55,2.55,0,0,1,2-.89,2.26,2.26,0,0,1,1.83.77,3.15,3.15,0,0,1,.64,2.11Zm-1-.81a2,2,0,0,0-.4-1.29,1.38,1.38,0,0,0-1.1-.47,1.54,1.54,0,0,0-1.16.49,2.21,2.21,0,0,0-.58,1.27Z" fill="#2b3033"/>
        <path d="M186.39,18.07h-1V9.19h1Z" fill="#2b3033"/>
      </g>
      <polygon points="374 17.06 377.15 21.95 380 17.06 374 17.06" fill="#696e73" opacity="0.5"/>
      <polygon points="410 17.06 413.15 21.95 416 17.06 410 17.06" fill="#696e73"/>
      <polygon points="446 17.06 449.15 21.95 452 17.06 446 17.06" fill="#696e73"/>
      <g>
        <path d="M808.55,18.1H804.1V9.7h4.27v.89h-3.28v2.79h3v.89h-3v2.94h3.46Z" fill="#2b3033"/>
        <path d="M815.16,18.1h-1v-1h0a2.42,2.42,0,0,1-3.87.35,3.28,3.28,0,0,1-.68-2.19,3.62,3.62,0,0,1,.75-2.39,2.5,2.5,0,0,1,2-.89,1.92,1.92,0,0,1,1.8,1h0V9.22h1Zm-1-2.71V14.5a1.73,1.73,0,0,0-.48-1.23,1.58,1.58,0,0,0-1.22-.5,1.66,1.66,0,0,0-1.38.64,2.85,2.85,0,0,0-.5,1.78,2.56,2.56,0,0,0,.48,1.64,1.59,1.59,0,0,0,1.3.6,1.63,1.63,0,0,0,1.3-.58A2.12,2.12,0,0,0,814.2,15.39Z" fill="#2b3033"/>
        <path d="M817.6,10.58a.6.6,0,0,1-.44-.18A.61.61,0,0,1,817,10a.57.57,0,0,1,.18-.44.6.6,0,0,1,.44-.18.61.61,0,0,1,.45.18.57.57,0,0,1,.18.44.59.59,0,0,1-.18.44A.62.62,0,0,1,817.6,10.58Zm.47,7.52h-1v-6h1Z" fill="#2b3033"/>
        <path d="M822.8,18a1.82,1.82,0,0,1-.9.19c-1,0-1.57-.59-1.57-1.76V12.92h-1V12.1h1V10.63l1-.31V12.1h1.51v.82h-1.51V16.3a1.45,1.45,0,0,0,.2.86.84.84,0,0,0,.68.26,1.05,1.05,0,0,0,.63-.2Z" fill="#2b3033"/>
        <path d="M827.86,10.58a.6.6,0,0,1-.44-.18.61.61,0,0,1-.18-.45.57.57,0,0,1,.18-.44.6.6,0,0,1,.44-.18.61.61,0,0,1,.45.18.57.57,0,0,1,.18.44.59.59,0,0,1-.18.44A.62.62,0,0,1,827.86,10.58Zm.47,7.52h-1v-6h1Z" fill="#2b3033"/>
        <path d="M834.37,17.82a3.14,3.14,0,0,1-1.65.42,2.72,2.72,0,0,1-2.07-.84,3,3,0,0,1-.78-2.16,3.34,3.34,0,0,1,.84-2.38A3,3,0,0,1,833,12a3.27,3.27,0,0,1,1.4.29v1a2.4,2.4,0,0,0-1.43-.47,1.92,1.92,0,0,0-1.51.66,2.5,2.5,0,0,0-.59,1.73,2.36,2.36,0,0,0,.55,1.66,1.91,1.91,0,0,0,1.49.61,2.43,2.43,0,0,0,1.48-.52Z" fill="#2b3033"/>
        <path d="M838.33,18.24a2.79,2.79,0,0,1-2.13-.84,3.12,3.12,0,0,1-.79-2.23,3.23,3.23,0,0,1,.82-2.36,3,3,0,0,1,2.24-.85,2.68,2.68,0,0,1,2.09.82,3.3,3.3,0,0,1,.75,2.3,3.25,3.25,0,0,1-.81,2.3A2.85,2.85,0,0,1,838.33,18.24Zm.07-5.47a1.84,1.84,0,0,0-1.47.63,2.58,2.58,0,0,0-.54,1.73,2.44,2.44,0,0,0,.55,1.69,1.85,1.85,0,0,0,1.46.61,1.75,1.75,0,0,0,1.43-.6,2.67,2.67,0,0,0,.5-1.72,2.66,2.66,0,0,0-.5-1.73A1.73,1.73,0,0,0,838.4,12.77Z" fill="#2b3033"/>
        <path d="M847.83,18.1h-1V14.68c0-1.28-.47-1.91-1.4-1.91a1.52,1.52,0,0,0-1.19.54,2,2,0,0,0-.47,1.37V18.1h-1v-6h1v1h0a2.18,2.18,0,0,1,2-1.13,1.85,1.85,0,0,1,1.51.63,2.84,2.84,0,0,1,.52,1.84Z" fill="#2b3033"/>
      </g>
      <g>
        <g>
          <path d="M726.3,18.1h-1V10.84a2,2,0,0,1-.32.25l-.48.29c-.18.09-.37.18-.57.26a3.46,3.46,0,0,1-.57.19v-1a6.12,6.12,0,0,0,.67-.24,6.22,6.22,0,0,0,.69-.33,5.88,5.88,0,0,0,.65-.39,4.87,4.87,0,0,0,.53-.39h.36Z" fill="#2b3033"/>
          <path d="M734.51,13.86a8,8,0,0,1-.2,1.87,4.33,4.33,0,0,1-.55,1.38,2.55,2.55,0,0,1-.88.85,2.47,2.47,0,0,1-1.19.29,2.34,2.34,0,0,1-1.13-.28,2.49,2.49,0,0,1-.84-.81,4.48,4.48,0,0,1-.51-1.31,7.93,7.93,0,0,1-.18-1.78,8.71,8.71,0,0,1,.19-2,4.32,4.32,0,0,1,.54-1.41,2.36,2.36,0,0,1,.89-.86,2.41,2.41,0,0,1,1.21-.29C733.62,9.56,734.51,11,734.51,13.86Zm-1,.1c0-2.39-.57-3.59-1.7-3.59S730,11.59,730,14c0,2.27.58,3.4,1.76,3.4S733.52,16.27,733.52,14Z" fill="#2b3033"/>
          <path d="M741,13.86a8,8,0,0,1-.19,1.87,4.33,4.33,0,0,1-.55,1.38,2.55,2.55,0,0,1-.88.85,2.47,2.47,0,0,1-1.19.29A2.31,2.31,0,0,1,737,18a2.49,2.49,0,0,1-.84-.81,4.22,4.22,0,0,1-.51-1.31,7.93,7.93,0,0,1-.18-1.78,8.71,8.71,0,0,1,.19-2,4.32,4.32,0,0,1,.54-1.41,2.36,2.36,0,0,1,2.1-1.15Q741,9.56,741,13.86Zm-1,.1c0-2.39-.57-3.59-1.71-3.59s-1.79,1.22-1.79,3.65c0,2.27.58,3.4,1.76,3.4S740,16.27,740,14Z" fill="#2b3033"/>
          <path d="M743.83,13.91a1.77,1.77,0,0,1-1.38-.57,2.21,2.21,0,0,1-.51-1.53,2.37,2.37,0,0,1,.54-1.64,1.88,1.88,0,0,1,1.47-.6,1.76,1.76,0,0,1,1.39.55,2.31,2.31,0,0,1,.5,1.57,2.29,2.29,0,0,1-.56,1.61A1.85,1.85,0,0,1,743.83,13.91Zm.09-3.7a1.05,1.05,0,0,0-.88.41,1.8,1.8,0,0,0-.33,1.14,1.72,1.72,0,0,0,.32,1.1,1,1,0,0,0,.86.4,1,1,0,0,0,.86-.41,1.82,1.82,0,0,0,.31-1.14,1.78,1.78,0,0,0-.3-1.1A1,1,0,0,0,743.92,10.21Zm5.54-.51-5.39,8.46h-.84l5.38-8.46Zm-.62,8.53a1.77,1.77,0,0,1-1.39-.58,2.2,2.2,0,0,1-.51-1.52,2.33,2.33,0,0,1,.55-1.65,1.91,1.91,0,0,1,1.46-.61,1.74,1.74,0,0,1,1.39.57,2.24,2.24,0,0,1,.5,1.57,2.28,2.28,0,0,1-.55,1.61A1.85,1.85,0,0,1,748.84,18.23Zm.08-3.69A1,1,0,0,0,748,15a1.75,1.75,0,0,0-.32,1.13,1.73,1.73,0,0,0,.31,1.1,1.07,1.07,0,0,0,.87.39,1,1,0,0,0,.86-.41,1.93,1.93,0,0,0,.31-1.14,1.71,1.71,0,0,0-.31-1.1A1,1,0,0,0,748.92,14.54Z" fill="#2b3033"/>
        </g>
        <path d="M771,11.1h9l-4.5,6Z" fill="#2b3033" opacity="0.8"/>
      </g>
      <rect x="789" y="3.05" width="1" height="23" fill="#a6a6a6"/>
      <rect x="714" y="3.05" width="1" height="23" fill="#a6a6a6"/>
      <polygon points="702 17.08 705.15 21.97 708 17.08 702 17.08" fill="#4d5359" opacity="0.8"/>
      <path d="M656,7.05v16h16v-16Zm15,15H657v-14h14Z" fill="#4d5359" opacity="0.8"/>
      <rect x="658" y="9.06" width="3" height="12" fill="#4d5359" opacity="0.8"/>
      <g opacity="0.8">
        <path d="M681,11.05h4v-4h-4Zm1-3h2v2h-2Z" fill="#4d5359"/>
        <rect x="686" y="8.05" width="11" height="2" fill="#4d5359"/>
        <path d="M681,17.05h4v-4h-4Zm1-3h2v2h-2Z" fill="#4d5359"/>
        <rect x="686" y="14.05" width="11" height="2" fill="#4d5359"/>
        <path d="M681,23.05h4v-4h-4Zm1-3h2v2h-2Z" fill="#4d5359"/>
        <rect x="686" y="20.05" width="11" height="2" fill="#4d5359"/>
      </g>
      <g>
        <rect x="511" y="8.05" width="1" height="4" fill="#696e73"/>
        <rect x="511" y="14.05" width="1" height="4" fill="#696e73"/>
        <rect x="517" y="6.05" width="4" height="1" fill="#696e73"/>
        <rect x="511" y="6.05" width="4" height="1" fill="#696e73"/>
        <rect x="515" y="21.05" width="4" height="1" fill="#696e73"/>
        <rect x="521" y="21.05" width="4" height="1" fill="#696e73"/>
        <polygon points="512 20.05 511 20.05 511 22.05 513 22.05 513 21.05 512 21.05 512 20.05" fill="#696e73"/>
        <rect x="526" y="18.05" width="1" height="4" fill="#696e73"/>
        <rect x="526" y="12.05" width="1" height="4" fill="#696e73"/>
        <polygon points="523 6.05 523 7.05 526 7.05 526 10.05 527 10.05 527 6.05 523 6.05" fill="#696e73"/>
        <path d="M513,20.05h12v-12H513Zm1-11,9,5-9,5Z" fill="#696e73"/>
      </g>
      <g>
        <rect x="461" y="21.03" width="16" height="1" fill="#696e73"/>
        <rect x="476" y="18.03" width="1" height="2" fill="#696e73"/>
        <rect x="467" y="9.03" width="2" height="1" fill="#696e73"/>
        <rect x="470" y="9.03" width="2" height="1" fill="#696e73"/>
        <rect x="473" y="9.03" width="2" height="1" fill="#696e73"/>
        <polygon points="467.48 15.14 465 17.62 466.41 19.04 468.89 16.56 471.36 19.04 472.78 17.62 470.3 15.14 472.78 12.67 471.36 11.26 468.89 13.73 466.41 11.26 465 12.67 467.48 15.14" fill="#696e73"/>
      </g>
      <g>
        <path d="M492.47,8c0,8-6.47,7-6.47,7h0s6.47-1,6.47,7c0-8,6.47-7,6.47-7h0S492.47,16,492.47,8Z" fill="#696e73"/>
        <path d="M498.49,6.05c0,2.86-2.49,2.52-2.49,2.52h0s2.49-.34,2.49,2.52c0-2.86,2.48-2.52,2.48-2.52h0S498.49,8.91,498.49,6.05Z" fill="#696e73"/>
      </g>
      <path d="M440,14.05v-5h-5v-2h-7v2h-3v1h3v2h7v-2h4v9H435a3.48,3.48,0,0,0-6.9,0H425v1h3.05a3.48,3.48,0,0,0,6.9,0H440v-5h1v-1Z" fill="#696e73"/>
      <g>
        <rect x="389" y="8.05" width="2" height="14" fill="#696e73"/>
        <rect x="393" y="14.05" width="5" height="2" fill="#696e73"/>
        <rect x="393" y="9.05" width="10" height="2" fill="#696e73"/>
        <rect x="393" y="19.05" width="8" height="2" fill="#696e73"/>
      </g>
      <path d="M369,7.05h-8v5h-4v4h-4v7h7v-4h4v-4h5Zm-10,15h-5v-5h3v2h2Zm4-4h-5v-5h3v2h2Z" fill="#696e73" opacity="0.5"/>
      <polygon points="97 8.05 97 14.05 99 14.05 99 10.05 103 10.05 103 8.05 97 8.05" fill="#696e73"/>
      <polygon points="99 18.05 97 18.05 97 24.05 103 24.05 103 22.05 99 22.05 99 18.05" fill="#696e73"/>
      <polygon points="111 22.05 107 22.05 107 24.05 113 24.05 113 18.05 111 18.05 111 22.05" fill="#696e73"/>
      <polygon points="107 8.05 107 10.05 111 10.05 111 14.05 113 14.05 113 8.05 107 8.05" fill="#696e73"/>
      <rect x="101" y="15.05" width="2" height="5" fill="#696e73"/>
      <rect x="104" y="12.05" width="2" height="8" fill="#696e73"/>
      <rect x="107" y="13.05" width="2" height="7" fill="#696e73"/>
      <polygon points="12 24.05 12 8.05 28 16.05 12 24.05" fill="#696e73"/>
      <polygon points="13.07 10.16 24.8 16.05 13.07 21.95 13.07 10.16" fill="#fff"/>
      <polygon points="14.13 12.33 21.63 16.05 14.13 19.8 14.13 12.33" fill="#55a446"/>
      <rect x="42" y="9.05" width="4" height="14" fill="#696e73" opacity="0.5"/>
      <rect x="50" y="9.05" width="4" height="14" fill="#696e73" opacity="0.5"/>
      <path d="M80.31,8.05H73.69L69,12.73v6.63l4.69,4.69h6.62L85,19.36V12.73ZM78.48,20.12l-1.64-2.65-1.67,2.65H73l2.7-4.07-2.64-4h2.26l1.59,2.51,1.63-2.51h2.17L78.06,16l2.69,4.15Z" fill="#c42126"/>
      <g>
        <rect x="473" y="14.03" width="2" height="1" fill="#696e73"/>
        <polygon points="476 14.04 476 15.04 476 17.04 477 17.04 477 14.04 476 14.04" fill="#696e73"/>
      </g>
      <g>
        <rect x="461" y="12.03" width="1" height="3" fill="#696e73"/>
        <rect x="463" y="14.03" width="2" height="1" fill="#696e73"/>
      </g>
      <polygon points="461 9.04 461 11.04 462 11.04 462 10.04 463 10.04 463 9.05 464 9.05 464 10.04 466 10.04 466 9.04 461 9.04" fill="#696e73"/>
      <path d="M337,11.55a5.5,5.5,0,0,0-11,0v2.5a7.74,7.74,0,0,1,2,4h3V15.19l-2-3.14,1.2-1,1.3,3,1.37-3,1.13,1-2,3.36v2.64h3a7.74,7.74,0,0,1,2-4Z" fill="#6a6f77"/>
      <g>
        <polygon points="330 21.05 330 21.05 330 22.05 333 22.05 333 21.05 333 21.05 330 21.05" fill="#6a6f77"/>
        <polygon points="329 19.05 329 20.05 330 20.05 333 20.05 334 20.05 334 19.05 329 19.05" fill="#6a6f77"/>
      </g>
      <rect x="150" y="26.05" width="162" height="2" fill="#4384b7"/>
      <rect x="855" y="0.05" width="3" height="1" fill="#8e9295"/>
      <path d="M125,13.05h9l-4.5,6Z" fill="#4d5359" opacity="0.8"/>
      <polygon points="518.53 13.75 516.94 13.75 516.94 12.15 516.14 12.15 516.14 13.75 514.55 13.75 514.55 14.55 516.14 14.55 516.14 16.14 516.94 16.14 516.94 14.55 518.53 14.55 518.53 13.75" fill="#696e73"/>
    </symbol>
  </defs>
  <title>notifications-document-info</title>
  <g>
    <rect x="41" y="60" width="816.85" height="22" fill="#4d5359"/>
    <rect y="60" width="40" height="22" fill="#4386b9"/>
    <rect x="40" y="60" width="1" height="22" fill="#fff"/>
    <g>
      <path d="M52.82,74.84h-1L51,72.68H47.74L47,74.84H46l3-7.7h.94Zm-2.11-3L49.5,68.59a3.39,3.39,0,0,1-.11-.52h0a2.36,2.36,0,0,1-.12.52L48,71.87Z" fill="#fff"/>
      <path d="M58.4,74.84h-.88V71.7c0-1.16-.42-1.75-1.27-1.75a1.4,1.4,0,0,0-1.1.5,1.83,1.83,0,0,0-.43,1.25v3.14h-.88v-5.5h.88v.91h0a2,2,0,0,1,1.81-1,1.71,1.71,0,0,1,1.38.58,2.6,2.6,0,0,1,.47,1.69Z" fill="#fff"/>
      <path d="M64,74.84h-.88V74h0a1.85,1.85,0,0,1-1.69,1,1.82,1.82,0,0,1-1.29-.44,1.49,1.49,0,0,1-.46-1.15c0-1,.6-1.63,1.81-1.79l1.65-.24c0-.93-.38-1.4-1.13-1.4a2.73,2.73,0,0,0-1.8.68v-.9a3.37,3.37,0,0,1,1.87-.52c1.29,0,1.94.69,1.94,2.05Zm-.88-2.78-1.33.18a2.25,2.25,0,0,0-.92.3.88.88,0,0,0-.31.77.84.84,0,0,0,.28.66,1.14,1.14,0,0,0,.77.26,1.42,1.42,0,0,0,1.08-.46,1.63,1.63,0,0,0,.43-1.16Z" fill="#fff"/>
      <path d="M66.54,74.84h-.88V66.7h.88Z" fill="#fff"/>
      <path d="M72.7,69.34l-2.53,6.38c-.45,1.14-1.08,1.71-1.9,1.71a1.85,1.85,0,0,1-.57-.07v-.79a1.76,1.76,0,0,0,.52.1,1.1,1.1,0,0,0,1-.8l.44-1-2.15-5.49h1L70,73.57q0,.09.12.42h0c0-.08,0-.22.11-.41l1.56-4.24Z" fill="#fff"/>
      <path d="M77.48,69.59l-3.25,4.5h3.22v.75H72.93v-.27l3.26-4.48h-3v-.75h4.24Z" fill="#fff"/>
      <path d="M79.07,67.94a.54.54,0,0,1-.4-.16.55.55,0,0,1-.17-.41.57.57,0,0,1,.17-.41.54.54,0,0,1,.4-.16.56.56,0,0,1,.41.16.58.58,0,0,1,0,.82A.56.56,0,0,1,79.07,67.94Zm.43,6.9h-.88v-5.5h.88Z" fill="#fff"/>
      <path d="M85.85,74.84H85V71.7c0-1.16-.43-1.75-1.28-1.75a1.39,1.39,0,0,0-1.09.5,1.83,1.83,0,0,0-.43,1.25v3.14h-.88v-5.5h.88v.91h0a2,2,0,0,1,1.8-1,1.71,1.71,0,0,1,1.38.58,2.6,2.6,0,0,1,.48,1.69Z" fill="#fff"/>
      <path d="M92.2,74.4c0,2-1,3-2.9,3A3.86,3.86,0,0,1,87.52,77v-.88a3.6,3.6,0,0,0,1.77.52c1.36,0,2-.72,2-2.16v-.6h0a2.06,2.06,0,0,1-1.89,1,2.1,2.1,0,0,1-1.65-.73,2.93,2.93,0,0,1-.63-2A3.41,3.41,0,0,1,87.81,70a2.25,2.25,0,0,1,1.84-.83,1.8,1.8,0,0,1,1.65.89h0v-.76h.88Zm-.88-2.05v-.81a1.55,1.55,0,0,0-.44-1.12,1.47,1.47,0,0,0-1.1-.47,1.52,1.52,0,0,0-1.28.6A2.62,2.62,0,0,0,88,72.21a2.26,2.26,0,0,0,.44,1.47,1.45,1.45,0,0,0,1.17.55,1.54,1.54,0,0,0,1.21-.53A2,2,0,0,0,91.32,72.35Z" fill="#fff"/>
      <path d="M101.7,74.84h-.89v-.93h0a2.21,2.21,0,0,1-3.54.32,3,3,0,0,1-.63-2A3.3,3.3,0,0,1,97.31,70a2.29,2.29,0,0,1,1.83-.82,1.76,1.76,0,0,1,1.65.89h0V66.7h.89Zm-.89-2.49v-.81a1.56,1.56,0,0,0-.44-1.13A1.48,1.48,0,0,0,99.26,70a1.53,1.53,0,0,0-1.27.59,2.6,2.6,0,0,0-.46,1.64,2.31,2.31,0,0,0,.44,1.5,1.47,1.47,0,0,0,1.19.55,1.53,1.53,0,0,0,1.2-.53A2,2,0,0,0,100.81,72.35Z" fill="#fff"/>
      <path d="M107.9,72.31H104a2,2,0,0,0,.49,1.42,1.71,1.71,0,0,0,1.3.5,2.75,2.75,0,0,0,1.71-.61v.82a3.23,3.23,0,0,1-1.92.53,2.31,2.31,0,0,1-1.83-.75,3,3,0,0,1-.67-2.11,3,3,0,0,1,.73-2.09,2.34,2.34,0,0,1,1.81-.81,2.06,2.06,0,0,1,1.67.7,2.92,2.92,0,0,1,.59,1.94Zm-.9-.75a1.83,1.83,0,0,0-.37-1.18,1.24,1.24,0,0,0-1-.43,1.43,1.43,0,0,0-1.06.45,2,2,0,0,0-.53,1.16Z" fill="#fff"/>
      <path d="M110.13,74.05h0v3.32h-.88v-8h.88v1h0a2.1,2.1,0,0,1,1.9-1.1,2,2,0,0,1,1.66.74,3,3,0,0,1,.6,2,3.39,3.39,0,0,1-.67,2.21,2.25,2.25,0,0,1-1.84.83A1.86,1.86,0,0,1,110.13,74.05Zm0-2.22v.76a1.64,1.64,0,0,0,.44,1.16,1.58,1.58,0,0,0,2.38-.13,2.78,2.78,0,0,0,.46-1.71,2.19,2.19,0,0,0-.43-1.44,1.41,1.41,0,0,0-1.15-.52,1.54,1.54,0,0,0-1.23.54A2,2,0,0,0,110.11,71.83Z" fill="#fff"/>
      <path d="M120.12,72.31h-3.89a2.07,2.07,0,0,0,.5,1.42,1.71,1.71,0,0,0,1.3.5,2.75,2.75,0,0,0,1.71-.61v.82a3.23,3.23,0,0,1-1.92.53,2.31,2.31,0,0,1-1.83-.75,3,3,0,0,1-.67-2.11,3,3,0,0,1,.73-2.09,2.33,2.33,0,0,1,1.81-.81,2.06,2.06,0,0,1,1.67.7,2.92,2.92,0,0,1,.59,1.94Zm-.9-.75a1.83,1.83,0,0,0-.37-1.18,1.24,1.24,0,0,0-1-.43,1.41,1.41,0,0,0-1.06.45,2,2,0,0,0-.53,1.16Z" fill="#fff"/>
      <path d="M126,74.84h-.89V71.7c0-1.16-.42-1.75-1.27-1.75a1.41,1.41,0,0,0-1.1.5,1.83,1.83,0,0,0-.43,1.25v3.14h-.88v-5.5h.88v.91h0a2,2,0,0,1,1.81-1,1.71,1.71,0,0,1,1.38.58,2.6,2.6,0,0,1,.48,1.69Z" fill="#fff"/>
      <path d="M132.37,74.84h-.88v-.93h0a2.22,2.22,0,0,1-3.55.32,3,3,0,0,1-.62-2A3.3,3.3,0,0,1,128,70a2.29,2.29,0,0,1,1.83-.82,1.78,1.78,0,0,1,1.65.89h0V66.7h.88Zm-.88-2.49v-.81a1.6,1.6,0,0,0-.44-1.13,1.63,1.63,0,0,0-2.39.13,2.66,2.66,0,0,0-.46,1.64,2.37,2.37,0,0,0,.44,1.5,1.49,1.49,0,0,0,1.19.55,1.52,1.52,0,0,0,1.2-.53A2,2,0,0,0,131.49,72.35Z" fill="#fff"/>
      <path d="M138.57,72.31h-3.88a2.06,2.06,0,0,0,.49,1.42,1.72,1.72,0,0,0,1.3.5,2.75,2.75,0,0,0,1.71-.61v.82a3.19,3.19,0,0,1-1.92.53,2.34,2.34,0,0,1-1.83-.75,3.08,3.08,0,0,1-.66-2.11A3,3,0,0,1,134.5,70a2.34,2.34,0,0,1,1.81-.81,2,2,0,0,1,1.67.7,2.87,2.87,0,0,1,.59,1.94Zm-.9-.75a1.77,1.77,0,0,0-.37-1.18,1.22,1.22,0,0,0-1-.43,1.41,1.41,0,0,0-1.06.45,2,2,0,0,0-.54,1.16Z" fill="#fff"/>
      <path d="M144.47,74.84h-.88V71.7c0-1.16-.43-1.75-1.28-1.75a1.39,1.39,0,0,0-1.09.5,1.83,1.83,0,0,0-.43,1.25v3.14h-.88v-5.5h.88v.91h0a2,2,0,0,1,1.8-1,1.71,1.71,0,0,1,1.38.58,2.6,2.6,0,0,1,.48,1.69Z" fill="#fff"/>
      <path d="M149.88,74.59a2.88,2.88,0,0,1-1.5.38,2.49,2.49,0,0,1-1.9-.77,2.78,2.78,0,0,1-.73-2,3,3,0,0,1,.78-2.18,2.74,2.74,0,0,1,2.08-.83,2.9,2.9,0,0,1,1.28.27v.9a2.3,2.3,0,0,0-1.31-.43,1.75,1.75,0,0,0-1.38.61,2.28,2.28,0,0,0-.54,1.58,2.22,2.22,0,0,0,.5,1.53,1.78,1.78,0,0,0,1.37.56,2.19,2.19,0,0,0,1.35-.48Z" fill="#fff"/>
      <path d="M151.66,67.94a.54.54,0,0,1-.4-.16.55.55,0,0,1-.17-.41.57.57,0,0,1,.17-.41.54.54,0,0,1,.4-.16.56.56,0,0,1,.41.16.58.58,0,0,1,0,.82A.56.56,0,0,1,151.66,67.94Zm.43,6.9h-.88v-5.5h.88Z" fill="#fff"/>
      <path d="M158.3,72.31h-3.89a2.07,2.07,0,0,0,.5,1.42,1.71,1.71,0,0,0,1.3.5,2.71,2.71,0,0,0,1.7-.61v.82A3.18,3.18,0,0,1,156,75a2.31,2.31,0,0,1-1.83-.75,3,3,0,0,1-.67-2.11,3,3,0,0,1,.73-2.09,2.31,2.31,0,0,1,1.8-.81,2.08,2.08,0,0,1,1.68.7,2.92,2.92,0,0,1,.59,1.94Zm-.91-.75a1.77,1.77,0,0,0-.36-1.18,1.25,1.25,0,0,0-1-.43,1.41,1.41,0,0,0-1.06.45,2,2,0,0,0-.54,1.16Z" fill="#fff"/>
      <path d="M159.29,74.64V73.7a2.64,2.64,0,0,0,1.59.53c.77,0,1.16-.26,1.16-.78a.64.64,0,0,0-.1-.37,1.15,1.15,0,0,0-.27-.27,1.66,1.66,0,0,0-.4-.21l-.49-.2c-.24-.1-.45-.19-.64-.29a2.09,2.09,0,0,1-.46-.33,1.33,1.33,0,0,1-.28-.43,1.51,1.51,0,0,1-.09-.55,1.25,1.25,0,0,1,.17-.68,1.53,1.53,0,0,1,.48-.5,2.06,2.06,0,0,1,.67-.31,3.33,3.33,0,0,1,.78-.1,3.08,3.08,0,0,1,1.28.25v.89a2.47,2.47,0,0,0-1.4-.4,1.51,1.51,0,0,0-.44.06,1,1,0,0,0-.34.16.71.71,0,0,0-.22.24.59.59,0,0,0-.08.32.68.68,0,0,0,.08.36.74.74,0,0,0,.22.25,1.63,1.63,0,0,0,.37.21l.49.2c.24.09.46.19.65.28a2.09,2.09,0,0,1,.5.34,1.27,1.27,0,0,1,.31.42,1.31,1.31,0,0,1,.11.58,1.36,1.36,0,0,1-.18.71,1.63,1.63,0,0,1-.48.5,2.14,2.14,0,0,1-.69.29,3.18,3.18,0,0,1-.82.1A3.14,3.14,0,0,1,159.29,74.64Z" fill="#fff"/>
      <path d="M164.6,75a.62.62,0,0,1-.6-.6.58.58,0,0,1,.18-.43.58.58,0,0,1,.42-.18.61.61,0,0,1,.61.61.58.58,0,0,1-.18.42A.58.58,0,0,1,164.6,75Z" fill="#fff"/>
      <path d="M169.45,74.53V73.47a2.58,2.58,0,0,0,.44.29,4.33,4.33,0,0,0,.54.21,3.53,3.53,0,0,0,.56.14,3.49,3.49,0,0,0,.53,0,2.09,2.09,0,0,0,1.24-.31,1.18,1.18,0,0,0,.28-1.43,1.37,1.37,0,0,0-.38-.42,3.75,3.75,0,0,0-.57-.37l-.72-.37c-.26-.13-.51-.27-.75-.41a3.17,3.17,0,0,1-.6-.46,1.88,1.88,0,0,1-.41-.57,1.79,1.79,0,0,1-.15-.75,1.82,1.82,0,0,1,.23-.92,2.07,2.07,0,0,1,.61-.64,2.92,2.92,0,0,1,.86-.38,4,4,0,0,1,1-.12,3.81,3.81,0,0,1,1.66.27v1a3,3,0,0,0-1.75-.47,2.88,2.88,0,0,0-.59.06,1.67,1.67,0,0,0-.53.2,1.09,1.09,0,0,0-.38.36,1,1,0,0,0-.14.54,1.06,1.06,0,0,0,.11.51,1.28,1.28,0,0,0,.32.39,3.24,3.24,0,0,0,.53.34l.71.37a8.27,8.27,0,0,1,.78.43,3,3,0,0,1,.65.5,2.15,2.15,0,0,1,.45.6,1.89,1.89,0,0,1,.16.77,2,2,0,0,1-.22,1,1.78,1.78,0,0,1-.61.64,2.42,2.42,0,0,1-.87.36,5,5,0,0,1-1,.11l-.45,0-.55-.09a2.94,2.94,0,0,1-.53-.14A1.5,1.5,0,0,1,169.45,74.53Z" fill="#fff"/>
      <path d="M177.84,75a2.55,2.55,0,0,1-2-.77,2.86,2.86,0,0,1-.73-2,3,3,0,0,1,.76-2.16,2.71,2.71,0,0,1,2-.78,2.45,2.45,0,0,1,1.92.76,3,3,0,0,1,.7,2.1,2.94,2.94,0,0,1-.75,2.11A2.64,2.64,0,0,1,177.84,75Zm.06-5a1.65,1.65,0,0,0-1.34.58,2.37,2.37,0,0,0-.5,1.59,2.25,2.25,0,0,0,.5,1.54,1.7,1.7,0,0,0,1.34.57,1.6,1.6,0,0,0,1.31-.56,2.35,2.35,0,0,0,.46-1.57,2.41,2.41,0,0,0-.46-1.59A1.6,1.6,0,0,0,177.9,70Z" fill="#fff"/>
      <path d="M189.79,74.84h-.88V71.68a2.35,2.35,0,0,0-.28-1.32,1.09,1.09,0,0,0-.95-.41,1.17,1.17,0,0,0-1,.52,2,2,0,0,0-.39,1.23v3.14h-.88V71.57c0-1.08-.42-1.62-1.25-1.62a1.15,1.15,0,0,0-1,.49,2,2,0,0,0-.38,1.26v3.14H182v-5.5h.88v.87h0a1.86,1.86,0,0,1,1.71-1,1.61,1.61,0,0,1,1,.32,1.56,1.56,0,0,1,.57.82A2,2,0,0,1,188,69.21c1.21,0,1.81.75,1.81,2.24Z" fill="#fff"/>
      <path d="M195.88,72.31H192a2.07,2.07,0,0,0,.5,1.42,1.71,1.71,0,0,0,1.3.5,2.75,2.75,0,0,0,1.71-.61v.82a3.23,3.23,0,0,1-1.92.53,2.31,2.31,0,0,1-1.83-.75,3,3,0,0,1-.67-2.11,3,3,0,0,1,.73-2.09,2.33,2.33,0,0,1,1.81-.81,2.06,2.06,0,0,1,1.67.7,2.92,2.92,0,0,1,.59,1.94Zm-.91-.75a1.77,1.77,0,0,0-.36-1.18,1.24,1.24,0,0,0-1-.43,1.41,1.41,0,0,0-1.06.45,2,2,0,0,0-.54,1.16Z" fill="#fff"/>
      <path d="M207.15,69.34l-1.65,5.5h-.91l-1.13-3.94a1.93,1.93,0,0,1-.09-.51h0a2.56,2.56,0,0,1-.11.5l-1.23,4h-.89l-1.66-5.5h.92l1.14,4.14a2.49,2.49,0,0,1,.08.49h0a1.85,1.85,0,0,1,.1-.5L203,69.34h.81L205,73.49A3.85,3.85,0,0,1,205,74h0a2.72,2.72,0,0,1,.09-.49l1.12-4.15Z" fill="#fff"/>
      <path d="M208.62,67.94a.54.54,0,0,1-.4-.16.55.55,0,0,1-.17-.41.57.57,0,0,1,.17-.41.54.54,0,0,1,.4-.16A.56.56,0,0,1,209,67a.58.58,0,0,1,0,.82A.56.56,0,0,1,208.62,67.94Zm.43,6.9h-.88v-5.5h.88Z" fill="#fff"/>
      <path d="M213.7,70.23a1,1,0,0,0-.66-.18,1.11,1.11,0,0,0-.94.54,2.38,2.38,0,0,0-.38,1.45v2.8h-.88v-5.5h.88v1.13h0a1.84,1.84,0,0,1,.57-.9,1.31,1.31,0,0,1,.87-.33,1.38,1.38,0,0,1,.52.08Z" fill="#fff"/>
      <path d="M218.94,72.31h-3.89a2.07,2.07,0,0,0,.5,1.42,1.69,1.69,0,0,0,1.3.5,2.71,2.71,0,0,0,1.7-.61v.82a3.18,3.18,0,0,1-1.91.53,2.35,2.35,0,0,1-1.84-.75,3.08,3.08,0,0,1-.66-2.11,3,3,0,0,1,.73-2.09,2.31,2.31,0,0,1,1.8-.81,2,2,0,0,1,1.67.7,2.87,2.87,0,0,1,.6,1.94Zm-.91-.75a1.77,1.77,0,0,0-.36-1.18,1.25,1.25,0,0,0-1-.43,1.41,1.41,0,0,0-1.06.45,2,2,0,0,0-.54,1.16Z" fill="#fff"/>
      <path d="M225.83,74.79A1.75,1.75,0,0,1,225,75c-1,0-1.44-.54-1.44-1.61V70.09h-.95v-.75h.95V68l.88-.29v1.63h1.38v.75h-1.38v3.1a1.33,1.33,0,0,0,.18.79.77.77,0,0,0,.63.24.87.87,0,0,0,.57-.19Z" fill="#fff"/>
      <path d="M231.39,69.34l-2.53,6.38c-.46,1.14-1.09,1.71-1.91,1.71a1.89,1.89,0,0,1-.57-.07v-.79a1.76,1.76,0,0,0,.52.1,1.09,1.09,0,0,0,1-.8l.44-1-2.15-5.49h1l1.49,4.23c0,.06.05.2.11.42h0l.11-.41,1.56-4.24Z" fill="#fff"/>
      <path d="M233.23,74.05h0v3.32h-.88v-8h.88v1h0a2.1,2.1,0,0,1,1.9-1.1,2,2,0,0,1,1.66.74,3,3,0,0,1,.6,2,3.39,3.39,0,0,1-.67,2.21,2.25,2.25,0,0,1-1.84.83A1.86,1.86,0,0,1,233.23,74.05Zm0-2.22v.76a1.61,1.61,0,0,0,.45,1.16,1.45,1.45,0,0,0,1.12.48,1.49,1.49,0,0,0,1.25-.61,2.78,2.78,0,0,0,.46-1.71,2.19,2.19,0,0,0-.43-1.44,1.41,1.41,0,0,0-1.15-.52,1.54,1.54,0,0,0-1.23.54A2,2,0,0,0,233.21,71.83Z" fill="#fff"/>
      <path d="M243.22,72.31h-3.89a2.07,2.07,0,0,0,.5,1.42,1.71,1.71,0,0,0,1.3.5,2.75,2.75,0,0,0,1.71-.61v.82a3.23,3.23,0,0,1-1.92.53,2.31,2.31,0,0,1-1.83-.75,3,3,0,0,1-.67-2.11,3,3,0,0,1,.73-2.09,2.33,2.33,0,0,1,1.81-.81,2.06,2.06,0,0,1,1.67.7,2.92,2.92,0,0,1,.59,1.94Zm-.9-.75a1.83,1.83,0,0,0-.37-1.18,1.24,1.24,0,0,0-1-.43,1.43,1.43,0,0,0-1.06.45,2,2,0,0,0-.53,1.16Z" fill="#fff"/>
      <path d="M244.22,74.64V73.7a2.61,2.61,0,0,0,1.58.53c.78,0,1.16-.26,1.16-.78a.64.64,0,0,0-.1-.37.87.87,0,0,0-.27-.27,1.79,1.79,0,0,0-.39-.21l-.49-.2a6.89,6.89,0,0,1-.65-.29,2.09,2.09,0,0,1-.46-.33,1.33,1.33,0,0,1-.28-.43,1.51,1.51,0,0,1-.09-.55,1.25,1.25,0,0,1,.18-.68,1.4,1.4,0,0,1,.47-.5,2.06,2.06,0,0,1,.67-.31,3.33,3.33,0,0,1,.78-.1,3,3,0,0,1,1.28.25v.89a2.45,2.45,0,0,0-1.4-.4,1.51,1.51,0,0,0-.44.06,1.07,1.07,0,0,0-.34.16.71.71,0,0,0-.22.24.69.69,0,0,0-.08.32.8.8,0,0,0,.08.36.77.77,0,0,0,.23.25,1.55,1.55,0,0,0,.36.21l.49.2c.24.09.46.19.66.28a2.24,2.24,0,0,1,.49.34,1.15,1.15,0,0,1,.31.42,1.31,1.31,0,0,1,.11.58,1.36,1.36,0,0,1-.18.71,1.63,1.63,0,0,1-.48.5,2.14,2.14,0,0,1-.69.29,3.12,3.12,0,0,1-.82.1A3.07,3.07,0,0,1,244.22,74.64Z" fill="#fff"/>
      <path d="M260,74.84h-.88V71.68a2.35,2.35,0,0,0-.28-1.32,1.09,1.09,0,0,0-.95-.41,1.16,1.16,0,0,0-1,.52,2,2,0,0,0-.39,1.23v3.14h-.88V71.57q0-1.62-1.26-1.62a1.14,1.14,0,0,0-.95.49,2,2,0,0,0-.38,1.26v3.14h-.88v-5.5h.88v.87h0a1.86,1.86,0,0,1,1.71-1,1.62,1.62,0,0,1,1.56,1.14,2,2,0,0,1,1.82-1.14c1.22,0,1.82.75,1.82,2.24Z" fill="#fff"/>
      <path d="M265.64,74.84h-.88V74h0a1.84,1.84,0,0,1-1.69,1,1.82,1.82,0,0,1-1.29-.44,1.49,1.49,0,0,1-.46-1.15c0-1,.6-1.63,1.81-1.79l1.65-.24c0-.93-.38-1.4-1.13-1.4a2.75,2.75,0,0,0-1.8.68v-.9a3.4,3.4,0,0,1,1.87-.52c1.3,0,1.94.69,1.94,2.05Zm-.88-2.78-1.33.18a2.31,2.31,0,0,0-.92.3.88.88,0,0,0-.31.77.82.82,0,0,0,.29.66,1.09,1.09,0,0,0,.76.26,1.42,1.42,0,0,0,1.08-.46,1.63,1.63,0,0,0,.43-1.16Z" fill="#fff"/>
      <path d="M271.68,69.34l-2.53,6.38c-.45,1.14-1.09,1.71-1.9,1.71a2,2,0,0,1-.58-.07v-.79a1.82,1.82,0,0,0,.52.1,1.08,1.08,0,0,0,1-.8l.44-1-2.14-5.49h1L269,73.57c0,.06.06.2.11.42h0c0-.08,0-.22.1-.41l1.57-4.24Z" fill="#fff"/>
      <path d="M276.54,74.05h0v.79h-.88V66.7h.88v3.61h0a2.09,2.09,0,0,1,1.9-1.1,2,2,0,0,1,1.66.74,3,3,0,0,1,.6,2,3.45,3.45,0,0,1-.67,2.21,2.25,2.25,0,0,1-1.84.83A1.81,1.81,0,0,1,276.54,74.05Zm0-2.22v.76a1.64,1.64,0,0,0,.44,1.16,1.58,1.58,0,0,0,2.38-.13,2.85,2.85,0,0,0,.45-1.71,2.24,2.24,0,0,0-.42-1.44,1.41,1.41,0,0,0-1.15-.52,1.54,1.54,0,0,0-1.23.54A1.91,1.91,0,0,0,276.52,71.83Z" fill="#fff"/>
      <path d="M286.53,72.31h-3.89a2.07,2.07,0,0,0,.5,1.42,1.69,1.69,0,0,0,1.3.5,2.73,2.73,0,0,0,1.7-.61v.82a3.18,3.18,0,0,1-1.91.53,2.35,2.35,0,0,1-1.84-.75,3.08,3.08,0,0,1-.66-2.11,3,3,0,0,1,.73-2.09,2.31,2.31,0,0,1,1.8-.81,2,2,0,0,1,1.67.7,2.87,2.87,0,0,1,.6,1.94Zm-.91-.75a1.72,1.72,0,0,0-.37-1.18,1.22,1.22,0,0,0-1-.43,1.41,1.41,0,0,0-1.06.45,2,2,0,0,0-.54,1.16Z" fill="#fff"/>
      <path d="M295.32,74.84h-.88V74h0a1.82,1.82,0,0,1-1.7,1c-1.31,0-2-.78-2-2.34V69.34h.88v3.15c0,1.16.44,1.74,1.33,1.74a1.34,1.34,0,0,0,1.06-.48,1.79,1.79,0,0,0,.42-1.24V69.34h.88Z" fill="#fff"/>
      <path d="M301.66,74.84h-.88V71.7c0-1.16-.43-1.75-1.28-1.75a1.39,1.39,0,0,0-1.09.5A1.83,1.83,0,0,0,298,71.7v3.14h-.88v-5.5H298v.91h0a2,2,0,0,1,1.8-1,1.71,1.71,0,0,1,1.38.58,2.6,2.6,0,0,1,.48,1.69Z" fill="#fff"/>
      <path d="M307.89,74.84h-1.24l-2.43-2.64h0v2.64h-.88V66.7h.88v5.16h0l2.31-2.52h1.16L305.14,72Z" fill="#fff"/>
      <path d="M313.35,74.84h-.88V71.7c0-1.16-.42-1.75-1.28-1.75a1.39,1.39,0,0,0-1.09.5,1.83,1.83,0,0,0-.43,1.25v3.14h-.88v-5.5h.88v.91h0a2,2,0,0,1,1.81-1,1.71,1.71,0,0,1,1.38.58,2.66,2.66,0,0,1,.47,1.69Z" fill="#fff"/>
      <path d="M317.31,75a2.55,2.55,0,0,1-1.94-.77,2.86,2.86,0,0,1-.73-2,3,3,0,0,1,.75-2.16,2.74,2.74,0,0,1,2.05-.78,2.45,2.45,0,0,1,1.92.76,3.46,3.46,0,0,1-.05,4.21A2.64,2.64,0,0,1,317.31,75Zm.07-5a1.67,1.67,0,0,0-1.35.58,2.36,2.36,0,0,0-.49,1.59,2.25,2.25,0,0,0,.5,1.54,1.69,1.69,0,0,0,1.34.57,1.61,1.61,0,0,0,1.31-.56,2.35,2.35,0,0,0,.46-1.57,2.41,2.41,0,0,0-.46-1.59A1.61,1.61,0,0,0,317.38,70Z" fill="#fff"/>
      <path d="M328.39,69.34l-1.65,5.5h-.91l-1.14-3.94a2.48,2.48,0,0,1-.08-.51h0a2,2,0,0,1-.11.5l-1.23,4h-.88l-1.66-5.5h.92l1.14,4.14a2.6,2.6,0,0,1,.07.49h.05a2.29,2.29,0,0,1,.09-.5l1.27-4.13h.81l1.14,4.15a3.85,3.85,0,0,1,.08.49h0a2.72,2.72,0,0,1,.09-.49l1.12-4.15Z" fill="#fff"/>
      <path d="M334,74.84h-.88V71.7c0-1.16-.42-1.75-1.28-1.75a1.39,1.39,0,0,0-1.09.5,1.83,1.83,0,0,0-.43,1.25v3.14h-.88v-5.5h.88v.91h0a2,2,0,0,1,1.81-1,1.71,1.71,0,0,1,1.38.58,2.66,2.66,0,0,1,.47,1.69Z" fill="#fff"/>
      <path d="M343.09,74.84h-.88V74h0a1.8,1.8,0,0,1-1.7,1c-1.31,0-2-.78-2-2.34V69.34h.87v3.15c0,1.16.45,1.74,1.34,1.74a1.34,1.34,0,0,0,1.06-.48,1.84,1.84,0,0,0,.41-1.24V69.34h.88Z" fill="#fff"/>
      <path d="M349.44,74.84h-.88V71.7c0-1.16-.43-1.75-1.28-1.75a1.41,1.41,0,0,0-1.1.5,1.88,1.88,0,0,0-.43,1.25v3.14h-.88v-5.5h.88v.91h0a2,2,0,0,1,1.81-1,1.71,1.71,0,0,1,1.38.58,2.6,2.6,0,0,1,.48,1.69Z" fill="#fff"/>
      <path d="M353.65,74.79a1.75,1.75,0,0,1-.82.17c-1,0-1.45-.54-1.45-1.61V70.09h-.94v-.75h.94V68l.88-.29v1.63h1.39v.75h-1.39v3.1a1.26,1.26,0,0,0,.19.79.74.74,0,0,0,.62.24.9.9,0,0,0,.58-.19Z" fill="#fff"/>
      <path d="M355.28,67.94a.56.56,0,0,1-.41-.16.54.54,0,0,1-.16-.41.55.55,0,0,1,.57-.57.57.57,0,0,1,.41.16.58.58,0,0,1,0,.82A.57.57,0,0,1,355.28,67.94Zm.43,6.9h-.89v-5.5h.89Z" fill="#fff"/>
      <path d="M358.37,74.84h-.88V66.7h.88Z" fill="#fff"/>
      <path d="M365.72,74.79a1.77,1.77,0,0,1-.83.17c-1,0-1.44-.54-1.44-1.61V70.09h-.95v-.75h.95V68l.88-.29v1.63h1.39v.75h-1.39v3.1a1.26,1.26,0,0,0,.19.79.73.73,0,0,0,.62.24.9.9,0,0,0,.58-.19Z" fill="#fff"/>
      <path d="M371.46,74.84h-.88V71.67c0-1.14-.43-1.72-1.28-1.72a1.42,1.42,0,0,0-1.09.5,1.87,1.87,0,0,0-.44,1.27v3.12h-.88V66.7h.88v3.55h0a2,2,0,0,1,1.81-1c1.24,0,1.86.75,1.86,2.24Z" fill="#fff"/>
      <path d="M373.57,67.94a.54.54,0,0,1-.4-.16.55.55,0,0,1-.17-.41.57.57,0,0,1,.17-.41.54.54,0,0,1,.4-.16A.56.56,0,0,1,374,67a.58.58,0,0,1,0,.82A.56.56,0,0,1,373.57,67.94Zm.43,6.9h-.88v-5.5H374Z" fill="#fff"/>
      <path d="M375.45,74.64V73.7a2.64,2.64,0,0,0,1.58.53c.78,0,1.16-.26,1.16-.78a.64.64,0,0,0-.1-.37,1,1,0,0,0-.26-.27,2.15,2.15,0,0,0-.4-.21l-.49-.2a6.89,6.89,0,0,1-.65-.29,2.36,2.36,0,0,1-.46-.33,1.3,1.3,0,0,1-.37-1,1.25,1.25,0,0,1,.18-.68,1.4,1.4,0,0,1,.47-.5,2.16,2.16,0,0,1,.67-.31,3.49,3.49,0,0,1,.79-.1,3,3,0,0,1,1.27.25v.89a2.44,2.44,0,0,0-1.39-.4A1.53,1.53,0,0,0,377,70a1.07,1.07,0,0,0-.34.16.83.83,0,0,0-.22.24.69.69,0,0,0-.08.32.8.8,0,0,0,.08.36.77.77,0,0,0,.23.25,1.55,1.55,0,0,0,.36.21l.49.2c.25.09.46.19.66.28a2,2,0,0,1,.49.34,1.3,1.3,0,0,1,.32.42,1.46,1.46,0,0,1,.11.58,1.36,1.36,0,0,1-.18.71,1.63,1.63,0,0,1-.48.5,2.3,2.3,0,0,1-.7.29,3.12,3.12,0,0,1-.82.1A3.07,3.07,0,0,1,375.45,74.64Z" fill="#fff"/>
      <path d="M385.76,75a2.58,2.58,0,0,1-1.95-.77,2.9,2.9,0,0,1-.72-2,3,3,0,0,1,.75-2.16,2.74,2.74,0,0,1,2.05-.78,2.45,2.45,0,0,1,1.92.76,3.46,3.46,0,0,1-.05,4.21A2.64,2.64,0,0,1,385.76,75Zm.07-5a1.67,1.67,0,0,0-1.35.58,2.36,2.36,0,0,0-.49,1.59,2.25,2.25,0,0,0,.5,1.54,1.69,1.69,0,0,0,1.34.57,1.61,1.61,0,0,0,1.31-.56,2.35,2.35,0,0,0,.46-1.57,2.41,2.41,0,0,0-.46-1.59A1.61,1.61,0,0,0,385.83,70Z" fill="#fff"/>
      <path d="M390.81,74.05h0v3.32h-.88v-8h.88v1h0a2.09,2.09,0,0,1,1.9-1.1,2,2,0,0,1,1.66.74,3,3,0,0,1,.6,2,3.45,3.45,0,0,1-.67,2.21,2.25,2.25,0,0,1-1.84.83A1.86,1.86,0,0,1,390.81,74.05Zm0-2.22v.76a1.64,1.64,0,0,0,.44,1.16,1.58,1.58,0,0,0,2.38-.13,2.85,2.85,0,0,0,.46-1.71,2.25,2.25,0,0,0-.43-1.44,1.43,1.43,0,0,0-1.15-.52,1.54,1.54,0,0,0-1.23.54A1.91,1.91,0,0,0,390.79,71.83Z" fill="#fff"/>
      <path d="M400.79,72.31h-3.88a2.07,2.07,0,0,0,.5,1.42,1.69,1.69,0,0,0,1.3.5,2.73,2.73,0,0,0,1.7-.61v.82a3.18,3.18,0,0,1-1.91.53,2.31,2.31,0,0,1-1.83-.75,3,3,0,0,1-.67-2.11,3,3,0,0,1,.73-2.09,2.31,2.31,0,0,1,1.8-.81,2,2,0,0,1,1.67.7,2.87,2.87,0,0,1,.59,1.94Zm-.9-.75a1.77,1.77,0,0,0-.36-1.18,1.25,1.25,0,0,0-1-.43,1.41,1.41,0,0,0-1.06.45,2,2,0,0,0-.54,1.16Z" fill="#fff"/>
      <path d="M405,70.23a1.09,1.09,0,0,0-.67-.18,1.11,1.11,0,0,0-.94.54A2.38,2.38,0,0,0,403,72v2.8h-.88v-5.5H403v1.13h0a2,2,0,0,1,.57-.9,1.31,1.31,0,0,1,.87-.33,1.48,1.48,0,0,1,.53.08Z" fill="#fff"/>
      <path d="M409.89,74.84H409V74h0a1.86,1.86,0,0,1-1.7,1,1.81,1.81,0,0,1-1.28-.44,1.5,1.5,0,0,1-.47-1.15c0-1,.61-1.63,1.82-1.79l1.65-.24c0-.93-.38-1.4-1.14-1.4a2.7,2.7,0,0,0-1.79.68v-.9a3.35,3.35,0,0,1,1.87-.52c1.29,0,1.94.69,1.94,2.05ZM409,72.06l-1.33.18a2.2,2.2,0,0,0-.92.3.88.88,0,0,0-.31.77.84.84,0,0,0,.28.66,1.12,1.12,0,0,0,.77.26,1.42,1.42,0,0,0,1.08-.46,1.63,1.63,0,0,0,.43-1.16Z" fill="#fff"/>
      <path d="M414.1,74.79a1.75,1.75,0,0,1-.82.17c-1,0-1.45-.54-1.45-1.61V70.09h-.94v-.75h.94V68l.88-.29v1.63h1.39v.75h-1.39v3.1a1.33,1.33,0,0,0,.19.79.74.74,0,0,0,.62.24.88.88,0,0,0,.58-.19Z" fill="#fff"/>
      <path d="M415.73,67.94a.56.56,0,0,1-.41-.16.54.54,0,0,1-.16-.41.55.55,0,0,1,.57-.57.57.57,0,0,1,.41.16.58.58,0,0,1,0,.82A.57.57,0,0,1,415.73,67.94Zm.43,6.9h-.88v-5.5h.88Z" fill="#fff"/>
      <path d="M420.24,75a2.58,2.58,0,0,1-1.95-.77,2.9,2.9,0,0,1-.73-2,3,3,0,0,1,.76-2.16,2.74,2.74,0,0,1,2.05-.78,2.45,2.45,0,0,1,1.92.76,3,3,0,0,1,.69,2.1,2.94,2.94,0,0,1-.75,2.11A2.62,2.62,0,0,1,420.24,75Zm.06-5a1.66,1.66,0,0,0-1.34.58,2.36,2.36,0,0,0-.49,1.59,2.2,2.2,0,0,0,.5,1.54,1.67,1.67,0,0,0,1.33.57,1.63,1.63,0,0,0,1.32-.56,2.41,2.41,0,0,0,.46-1.57,2.47,2.47,0,0,0-.46-1.59A1.63,1.63,0,0,0,420.3,70Z" fill="#fff"/>
      <path d="M429,74.84h-.88V71.7c0-1.16-.43-1.75-1.28-1.75a1.39,1.39,0,0,0-1.09.5,1.83,1.83,0,0,0-.43,1.25v3.14h-.89v-5.5h.89v.91h0a2,2,0,0,1,1.8-1,1.71,1.71,0,0,1,1.38.58,2.6,2.6,0,0,1,.48,1.69Z" fill="#fff"/>
      <path d="M437.37,74.59a2.88,2.88,0,0,1-1.5.38,2.49,2.49,0,0,1-1.9-.77,2.77,2.77,0,0,1-.72-2A3,3,0,0,1,434,70a2.7,2.7,0,0,1,2.07-.83,2.87,2.87,0,0,1,1.28.27v.9a2.28,2.28,0,0,0-1.31-.43,1.75,1.75,0,0,0-1.38.61,2.28,2.28,0,0,0-.54,1.58,2.18,2.18,0,0,0,.51,1.53,1.76,1.76,0,0,0,1.36.56,2.19,2.19,0,0,0,1.35-.48Z" fill="#fff"/>
      <path d="M441,75a2.55,2.55,0,0,1-1.94-.77,2.86,2.86,0,0,1-.73-2,3,3,0,0,1,.76-2.16,2.7,2.7,0,0,1,2-.78,2.45,2.45,0,0,1,1.92.76,3.46,3.46,0,0,1-.05,4.21A2.64,2.64,0,0,1,441,75Zm.07-5a1.67,1.67,0,0,0-1.35.58,2.42,2.42,0,0,0-.49,1.59,2.25,2.25,0,0,0,.5,1.54,1.69,1.69,0,0,0,1.34.57,1.61,1.61,0,0,0,1.31-.56,2.35,2.35,0,0,0,.46-1.57,2.41,2.41,0,0,0-.46-1.59A1.61,1.61,0,0,0,441.07,70Z" fill="#fff"/>
      <path d="M453,74.84h-.88V71.68a2.44,2.44,0,0,0-.28-1.32,1.09,1.09,0,0,0-.95-.41,1.16,1.16,0,0,0-1,.52,2,2,0,0,0-.39,1.23v3.14h-.89V71.57c0-1.08-.41-1.62-1.25-1.62a1.14,1.14,0,0,0-.95.49A2,2,0,0,0,446,71.7v3.14h-.88v-5.5H446v.87h0a1.86,1.86,0,0,1,1.71-1,1.62,1.62,0,0,1,1.56,1.14,2,2,0,0,1,1.82-1.14c1.21,0,1.82.75,1.82,2.24Z" fill="#fff"/>
      <path d="M455.53,74.05h0v3.32h-.88v-8h.88v1h0a2.08,2.08,0,0,1,1.9-1.1,2,2,0,0,1,1.66.74,3,3,0,0,1,.59,2,3.39,3.39,0,0,1-.67,2.21,2.24,2.24,0,0,1-1.83.83A1.83,1.83,0,0,1,455.53,74.05Zm0-2.22v.76a1.61,1.61,0,0,0,.45,1.16,1.45,1.45,0,0,0,1.12.48,1.49,1.49,0,0,0,1.26-.61,2.85,2.85,0,0,0,.45-1.71,2.24,2.24,0,0,0-.42-1.44,1.44,1.44,0,0,0-1.15-.52,1.56,1.56,0,0,0-1.24.54A2,2,0,0,0,455.5,71.83Z" fill="#fff"/>
      <path d="M462,74.84h-.88V66.7H462Z" fill="#fff"/>
      <path d="M468.18,72.31h-3.89a2.07,2.07,0,0,0,.5,1.42,1.71,1.71,0,0,0,1.3.5,2.71,2.71,0,0,0,1.7-.61v.82a3.18,3.18,0,0,1-1.91.53,2.35,2.35,0,0,1-1.84-.75,3.08,3.08,0,0,1-.66-2.11,3,3,0,0,1,.73-2.09,2.31,2.31,0,0,1,1.8-.81,2,2,0,0,1,1.67.7,2.87,2.87,0,0,1,.6,1.94Zm-.91-.75a1.77,1.77,0,0,0-.36-1.18,1.25,1.25,0,0,0-1-.43,1.41,1.41,0,0,0-1.06.45,2,2,0,0,0-.54,1.16Z" fill="#fff"/>
      <path d="M472.06,74.79a1.75,1.75,0,0,1-.82.17c-1,0-1.45-.54-1.45-1.61V70.09h-.94v-.75h.94V68l.88-.29v1.63h1.39v.75h-1.39v3.1a1.33,1.33,0,0,0,.19.79.74.74,0,0,0,.62.24.88.88,0,0,0,.58-.19Z" fill="#fff"/>
      <path d="M477.57,72.31h-3.88a2.06,2.06,0,0,0,.49,1.42,1.72,1.72,0,0,0,1.3.5,2.75,2.75,0,0,0,1.71-.61v.82a3.19,3.19,0,0,1-1.92.53,2.31,2.31,0,0,1-1.83-.75,3.09,3.09,0,0,1-.67-2.11A3,3,0,0,1,473.5,70a2.34,2.34,0,0,1,1.81-.81,2.06,2.06,0,0,1,1.67.7,2.92,2.92,0,0,1,.59,1.94Zm-.9-.75a1.83,1.83,0,0,0-.37-1.18,1.24,1.24,0,0,0-1-.43,1.43,1.43,0,0,0-1.06.45,2,2,0,0,0-.53,1.16Z" fill="#fff"/>
      <path d="M478.57,74.64V73.7a2.64,2.64,0,0,0,1.58.53c.78,0,1.16-.26,1.16-.78a.64.64,0,0,0-.1-.37,1,1,0,0,0-.26-.27,2.15,2.15,0,0,0-.4-.21l-.49-.2a6.89,6.89,0,0,1-.65-.29,2.36,2.36,0,0,1-.46-.33,1.3,1.3,0,0,1-.37-1,1.25,1.25,0,0,1,.18-.68,1.5,1.5,0,0,1,.47-.5,2.16,2.16,0,0,1,.67-.31,3.47,3.47,0,0,1,.78-.1,3,3,0,0,1,1.28.25v.89a2.44,2.44,0,0,0-1.39-.4,1.53,1.53,0,0,0-.45.06,1.19,1.19,0,0,0-.34.16.71.71,0,0,0-.22.24.69.69,0,0,0-.08.32.8.8,0,0,0,.08.36.77.77,0,0,0,.23.25,1.55,1.55,0,0,0,.36.21l.49.2c.25.09.46.19.66.28a2,2,0,0,1,.49.34,1.3,1.3,0,0,1,.32.42,1.46,1.46,0,0,1,.11.58,1.36,1.36,0,0,1-.18.71,1.56,1.56,0,0,1-.49.5,2.14,2.14,0,0,1-.69.29,3.12,3.12,0,0,1-.82.1A3.07,3.07,0,0,1,478.57,74.64Z" fill="#fff"/>
      <path d="M483.88,75a.58.58,0,0,1-.43-.18.61.61,0,0,1-.17-.42.61.61,0,0,1,.17-.43.58.58,0,0,1,.43-.18.56.56,0,0,1,.42.18.58.58,0,0,1,.18.43.58.58,0,0,1-.18.42A.56.56,0,0,1,483.88,75Z" fill="#fff"/>
    </g>
    <path d="M842.41,65,847,69.59,851.59,65,853,66.41,848.41,71,853,75.54,851.54,77,847,72.41,842.46,77l-1.41-1.41L845.59,71,841,66.41Z" fill="#fff"/>
    <path d="M20.45,66.82a1.84,1.84,0,0,1-1.35-.56,1.87,1.87,0,0,1-.56-1.34A1.91,1.91,0,0,1,20.45,63a1.92,1.92,0,0,1,1.35,3.27,1.83,1.83,0,0,1-1.35.55M17,70.58V68.05h5.16v8.43h1.62V79H17V76.48h1.66v-5.9Z" fill="#fff"/>
  </g>
  <use width="858" height="30.05" transform="translate(0 28.95)" xlink:href="#toolbar-3"/>
  <g>
    <rect y="0.02" width="353" height="0.97" fill="#afb2b5"/>
    <polygon points="858 31 0 30.97 0 0 858 0 858 31" fill="url(#linear-gradient)"/>
    <rect x="1" y="1.02" width="36" height="1" fill="#fff"/>
    <g>
      <rect x="0.5" y="0.5" width="38" height="30" fill="url(#linear-gradient-2)"/>
      <path d="M38,1V30H1V1H38m1-1H0V31H39V0Z" fill="#8e9295"/>
    </g>
    <polygon points="177 31 39.05 31 39 0 177 0 177 31" fill="#f7f7f7"/>
    <rect x="39" y="1" width="137" height="1" fill="#dde2e6"/>
    <g>
      <rect x="39" width="819" height="1" fill="url(#linear-gradient-3)"/>
      <polygon points="858 0 39 0 39 1 858 1 858 0 858 0" fill="#8e9295"/>
    </g>
    <g>
      <path d="M72.61,21H71.52l-.9-2.36H67.06L66.22,21H65.13l3.22-8.4h1ZM70.3,17.76,69,14.18a3.61,3.61,0,0,1-.12-.56h0a3.36,3.36,0,0,1-.13.56l-1.31,3.58Z" fill="#2b3033"/>
      <path d="M78.69,21h-1V17.58c0-1.28-.46-1.91-1.39-1.91a1.5,1.5,0,0,0-1.19.54,2,2,0,0,0-.48,1.37V21h-1V15h1v1h0a2.16,2.16,0,0,1,2-1.14,1.82,1.82,0,0,1,1.5.64,2.79,2.79,0,0,1,.52,1.83Z" fill="#2b3033"/>
      <path d="M84.8,21h-1v-.94h0A2,2,0,0,1,82,21.14a2,2,0,0,1-1.4-.47,1.65,1.65,0,0,1-.51-1.26c0-1.12.66-1.78,2-2l1.8-.25c0-1-.41-1.53-1.24-1.53a2.94,2.94,0,0,0-2,.74v-1a3.76,3.76,0,0,1,2-.56c1.41,0,2.12.75,2.12,2.24Zm-1-3-1.45.19a2.48,2.48,0,0,0-1,.34,1,1,0,0,0-.34.84.9.9,0,0,0,.32.71,1.18,1.18,0,0,0,.83.28,1.51,1.51,0,0,0,1.18-.5,1.8,1.8,0,0,0,.47-1.27Z" fill="#2b3033"/>
      <path d="M87.57,21h-1V12.12h1Z" fill="#2b3033"/>
      <path d="M92,21.14a2.79,2.79,0,0,1-2.12-.84,3.1,3.1,0,0,1-.79-2.23,3.24,3.24,0,0,1,.82-2.36,3,3,0,0,1,2.23-.85,2.66,2.66,0,0,1,2.1.83A3.27,3.27,0,0,1,95,18a3.25,3.25,0,0,1-.81,2.3A2.87,2.87,0,0,1,92,21.14Zm.07-5.47a1.83,1.83,0,0,0-1.46.63A2.59,2.59,0,0,0,90.09,18a2.46,2.46,0,0,0,.54,1.68,1.86,1.86,0,0,0,1.46.61,1.79,1.79,0,0,0,1.44-.6A2.65,2.65,0,0,0,94,18a2.66,2.66,0,0,0-.5-1.73A1.76,1.76,0,0,0,92.09,15.67Z" fill="#2b3033"/>
      <path d="M101.67,20.52q0,3.3-3.17,3.3a4.23,4.23,0,0,1-1.94-.42v-1a3.92,3.92,0,0,0,1.93.56c1.48,0,2.22-.78,2.22-2.35V20h0a2.23,2.23,0,0,1-2.06,1.15,2.26,2.26,0,0,1-1.8-.8,3.17,3.17,0,0,1-.68-2.15,3.73,3.73,0,0,1,.73-2.43,2.46,2.46,0,0,1,2-.9,2,2,0,0,1,1.8,1h0V15h1Zm-1-2.23V17.4a1.69,1.69,0,0,0-.49-1.22,1.58,1.58,0,0,0-1.2-.51,1.67,1.67,0,0,0-1.4.65,2.91,2.91,0,0,0-.5,1.81,2.48,2.48,0,0,0,.48,1.6,1.57,1.57,0,0,0,1.28.6,1.69,1.69,0,0,0,1.32-.57A2.14,2.14,0,0,0,100.71,18.29Z" fill="#2b3033"/>
      <path d="M108,21h-1V12.6h1Z" fill="#2b3033"/>
      <path d="M115.07,21h-1V17.58c0-1.28-.46-1.91-1.39-1.91a1.5,1.5,0,0,0-1.19.54,2,2,0,0,0-.48,1.37V21h-1V15h1v1h0a2.16,2.16,0,0,1,2-1.14,1.81,1.81,0,0,1,1.5.64,2.79,2.79,0,0,1,.52,1.83Z" fill="#2b3033"/>
      <path d="M117.87,20.13h0v3.63h-1V15h1v1.05h0a2.27,2.27,0,0,1,2.07-1.19,2.18,2.18,0,0,1,1.81.81,3.27,3.27,0,0,1,.65,2.15,3.73,3.73,0,0,1-.73,2.42,2.44,2.44,0,0,1-2,.9A2,2,0,0,1,117.87,20.13Zm0-2.42v.84a1.77,1.77,0,0,0,.48,1.26,1.72,1.72,0,0,0,2.59-.15,3,3,0,0,0,.5-1.85,2.41,2.41,0,0,0-.46-1.57,1.54,1.54,0,0,0-1.26-.57,1.68,1.68,0,0,0-1.34.58A2.15,2.15,0,0,0,117.85,17.71Z" fill="#2b3033"/>
      <path d="M128.79,21h-1v-.95h0A2,2,0,0,1,126,21.14c-1.43,0-2.15-.85-2.15-2.55V15h1v3.43c0,1.27.48,1.9,1.45,1.9a1.47,1.47,0,0,0,1.16-.52,2,2,0,0,0,.45-1.35V15h1Z" fill="#2b3033"/>
      <path d="M133.51,20.94a1.76,1.76,0,0,1-.89.19c-1.05,0-1.58-.59-1.58-1.76V15.82h-1V15h1V13.54l1-.32V15h1.51v.82H132V19.2a1.37,1.37,0,0,0,.21.86.81.81,0,0,0,.68.26,1,1,0,0,0,.62-.2Z" fill="#2b3033"/>
      <path d="M135.13,21.13a.66.66,0,0,1-.46-.19.64.64,0,0,1-.19-.47.62.62,0,0,1,.19-.46.63.63,0,0,1,.46-.2.65.65,0,0,1,.47.2.62.62,0,0,1,.19.46.64.64,0,0,1-.19.47A.68.68,0,0,1,135.13,21.13Z" fill="#2b3033"/>
      <path d="M140.18,20.94a1.76,1.76,0,0,1-.89.19c-1.06,0-1.58-.59-1.58-1.76V15.82h-1V15h1V13.54l1-.32V15h1.51v.82h-1.51V19.2a1.37,1.37,0,0,0,.21.86.8.8,0,0,0,.67.26,1,1,0,0,0,.63-.2Z" fill="#2b3033"/>
      <path d="M145.76,21h-1v-.94h0a2,2,0,0,1-1.85,1.08,2,2,0,0,1-1.4-.47,1.65,1.65,0,0,1-.51-1.26c0-1.12.66-1.78,2-2l1.8-.25c0-1-.41-1.53-1.24-1.53a2.9,2.9,0,0,0-1.95.74v-1a3.75,3.75,0,0,1,2-.56c1.41,0,2.12.75,2.12,2.24Zm-1-3-1.45.19a2.48,2.48,0,0,0-1,.34,1,1,0,0,0-.34.84.9.9,0,0,0,.32.71,1.18,1.18,0,0,0,.83.28,1.51,1.51,0,0,0,1.18-.5,1.8,1.8,0,0,0,.47-1.27Z" fill="#2b3033"/>
      <path d="M147.21,20.78v-1a2.82,2.82,0,0,0,1.73.58q1.26,0,1.26-.84a.68.68,0,0,0-.11-.41,1,1,0,0,0-.29-.29,2.19,2.19,0,0,0-.43-.24l-.54-.21a6.76,6.76,0,0,1-.7-.32,2.22,2.22,0,0,1-.5-.36,1.38,1.38,0,0,1-.31-.46,1.63,1.63,0,0,1-.1-.61,1.38,1.38,0,0,1,.19-.74,1.7,1.7,0,0,1,.52-.55,2.71,2.71,0,0,1,.73-.33,3.49,3.49,0,0,1,.86-.11,3.41,3.41,0,0,1,1.39.27v1a2.7,2.7,0,0,0-1.52-.43,1.83,1.83,0,0,0-.49.06,1.26,1.26,0,0,0-.37.17.76.76,0,0,0-.24.27.67.67,0,0,0-.09.34.75.75,0,0,0,.09.39.84.84,0,0,0,.25.29,2.11,2.11,0,0,0,.4.22l.53.22a6.85,6.85,0,0,1,.71.31,2.82,2.82,0,0,1,.54.36,1.37,1.37,0,0,1,.47,1.09,1.51,1.51,0,0,1-.2.78,1.61,1.61,0,0,1-.53.54,2.22,2.22,0,0,1-.75.33,3.82,3.82,0,0,1-.9.1A3.37,3.37,0,0,1,147.21,20.78Z" fill="#2b3033"/>
      <path d="M157.64,21h-1.35l-2.64-2.88h0V21h-1V12.12h1v5.63h0L156.17,15h1.26l-2.79,2.89Z" fill="#2b3033"/>
    </g>
    <path d="M169.75,6H171V7.24h-.62v.63h-.63V9.12h.63v.62H171V11h-1.25v-.62h-.63V9.74h-1.24v.63h-.63V11H166V9.74h.62V9.12h.63V7.87h-.63V7.24H166V6h1.25v.63h.63v.62h1.24V6.62h.63Z" fill="#696e73"/>
    <g>
      <path d="M18.94,6,9,15.75h3l7-7,7,7h3Z" fill="#696e72"/>
      <path d="M13,16.75v8h5v-4h2v4h5v-8l-6-6Z" fill="#696e72"/>
      <path d="M15,6.75H12v4.06l3-3Z" fill="#696e72"/>
    </g>
    <polygon points="51.74 23 49.92 12.33 48.14 22.25 46.19 13.4 44.87 17.63 44 17.32 46.34 9.83 48.05 17.57 49.94 7 51.78 17.8 53.59 8.15 55.57 18.69 57.21 14.33 58.45 16.98 60 16.98 60 17.96 57.89 17.96 57.3 16.71 55.27 22.1 53.59 13.13 51.74 23" fill="#696e73"/>
    <rect x="176" y="0.99" width="1" height="30" fill="#afb2b5"/>
    <rect x="176" y="30" width="682" height="1" fill="#afb2b5"/>
  </g>
  <use width="858" height="30.05" transform="translate(0 30)" xlink:href="#toolbar-3"/>
  <g>
    <rect x="1" y="0.02" width="353" height="0.97" fill="#afb2b5"/>
    <polygon points="858 31 0 30.97 0 0 858 0 858 31" fill="url(#linear-gradient)"/>
    <rect x="1" y="1.02" width="36" height="1" fill="#fff"/>
    <g>
      <rect x="0.5" y="0.5" width="38" height="30" fill="url(#linear-gradient-2)"/>
      <path d="M38,1V30H1V1H38m1-1H0V31H39V0Z" fill="#8e9295"/>
    </g>
    <polygon points="150 31 39.05 31 39 0 150 0 150 31" fill="#f7f7f7"/>
    <rect x="39" y="1" width="110" height="1" fill="#dde2e6"/>
    <g>
      <rect x="39" width="819" height="1" fill="url(#linear-gradient-3)"/>
      <polygon points="858 0 39 0 39 1 858 1 858 0 858 0" fill="#8e9295"/>
    </g>
    <g>
      <path d="M70.37,13.49H67.09v2.9h3v.89h-3V21h-1V12.6h4.27Z" fill="#2b3033"/>
      <path d="M76.68,21h-1v-.95h0a2,2,0,0,1-1.85,1.09c-1.43,0-2.15-.85-2.15-2.55V15h1v3.43c0,1.27.48,1.9,1.45,1.9a1.46,1.46,0,0,0,1.16-.52,2,2,0,0,0,.45-1.35V15h1Z" fill="#2b3033"/>
      <path d="M83.6,21h-1V17.58c0-1.28-.46-1.91-1.39-1.91a1.5,1.5,0,0,0-1.19.54,2,2,0,0,0-.48,1.37V21h-1V15h1v1h0a2.16,2.16,0,0,1,2-1.14,1.82,1.82,0,0,1,1.5.64,2.79,2.79,0,0,1,.52,1.83Z" fill="#2b3033"/>
      <path d="M89.5,20.72a3.08,3.08,0,0,1-1.64.42,2.75,2.75,0,0,1-2.07-.83A3.06,3.06,0,0,1,85,18.14a3.35,3.35,0,0,1,.85-2.38,3,3,0,0,1,2.27-.9,3.27,3.27,0,0,1,1.4.29v1a2.42,2.42,0,0,0-1.43-.47,1.92,1.92,0,0,0-1.51.66A2.46,2.46,0,0,0,86,18.06a2.36,2.36,0,0,0,.55,1.66,1.91,1.91,0,0,0,1.49.61,2.38,2.38,0,0,0,1.47-.52Z" fill="#2b3033"/>
      <path d="M93.74,20.94a1.82,1.82,0,0,1-.9.19c-1,0-1.57-.59-1.57-1.76V15.82h-1V15h1V13.54l1-.32V15h1.51v.82H92.23V19.2a1.45,1.45,0,0,0,.2.86.84.84,0,0,0,.68.26,1,1,0,0,0,.63-.2Z" fill="#2b3033"/>
      <path d="M95.52,13.48a.59.59,0,0,1-.44-.18.6.6,0,0,1-.19-.44.62.62,0,0,1,.19-.45.59.59,0,0,1,.44-.18.6.6,0,0,1,.44.18.58.58,0,0,1,.19.45.59.59,0,0,1-.19.44A.6.6,0,0,1,95.52,13.48ZM96,21H95V15h1Z" fill="#2b3033"/>
      <path d="M100.44,21.14a2.79,2.79,0,0,1-2.13-.84,3.1,3.1,0,0,1-.79-2.23,3.21,3.21,0,0,1,.83-2.36,3,3,0,0,1,2.23-.85,2.66,2.66,0,0,1,2.09.83,3.28,3.28,0,0,1,.76,2.29,3.21,3.21,0,0,1-.82,2.3A2.85,2.85,0,0,1,100.44,21.14Zm.07-5.47A1.84,1.84,0,0,0,99,16.3,2.59,2.59,0,0,0,98.5,18a2.46,2.46,0,0,0,.55,1.68,1.85,1.85,0,0,0,1.46.61,1.75,1.75,0,0,0,1.43-.6,2.65,2.65,0,0,0,.5-1.72,2.66,2.66,0,0,0-.5-1.73A1.73,1.73,0,0,0,100.51,15.67Z" fill="#2b3033"/>
      <path d="M109.94,21h-1V17.58c0-1.28-.46-1.91-1.39-1.91a1.54,1.54,0,0,0-1.2.54,2,2,0,0,0-.47,1.37V21h-1V15h1v1h0a2.15,2.15,0,0,1,2-1.14,1.83,1.83,0,0,1,1.51.64,2.79,2.79,0,0,1,.52,1.83Z" fill="#2b3033"/>
      <path d="M112.09,21.13a.65.65,0,0,1-.65-.66.62.62,0,0,1,.19-.46.63.63,0,0,1,.92,0,.63.63,0,0,1,.2.46.65.65,0,0,1-.2.47A.64.64,0,0,1,112.09,21.13Z" fill="#2b3033"/>
      <path d="M119.47,20.52q0,3.3-3.16,3.3a4.23,4.23,0,0,1-1.94-.42v-1a3.92,3.92,0,0,0,1.93.56c1.48,0,2.21-.78,2.21-2.35V20h0a2.42,2.42,0,0,1-3.86.35,3.17,3.17,0,0,1-.69-2.15,3.73,3.73,0,0,1,.74-2.43,2.46,2.46,0,0,1,2-.9,2,2,0,0,1,1.8,1h0V15h1Zm-1-2.23V17.4a1.72,1.72,0,0,0-.48-1.22,1.58,1.58,0,0,0-1.2-.51,1.66,1.66,0,0,0-1.4.65,2.91,2.91,0,0,0-.5,1.81,2.48,2.48,0,0,0,.48,1.6,1.56,1.56,0,0,0,1.28.6,1.69,1.69,0,0,0,1.32-.57A2.18,2.18,0,0,0,118.51,18.29Z" fill="#2b3033"/>
      <path d="M126.14,15l-2.39,6h-1l-2.27-6h1l1.53,4.36a4.27,4.27,0,0,1,.21.84h0a3.94,3.94,0,0,1,.19-.82L125.12,15Z" fill="#2b3033"/>
      <path d="M127.66,13.48a.6.6,0,0,1-.44-.18.59.59,0,0,1-.18-.44.61.61,0,0,1,.18-.45.6.6,0,0,1,.44-.18.62.62,0,0,1,.63.63.62.62,0,0,1-.18.44A.61.61,0,0,1,127.66,13.48Zm.47,7.52h-1V15h1Z" fill="#2b3033"/>
    </g>
    <path d="M142.75,6H144V7.24h-.62v.63h-.63V9.12h.63v.62H144V11h-1.25v-.62h-.63V9.74h-1.24v.63h-.63V11H139V9.74h.62V9.12h.63V7.87h-.63V7.24H139V6h1.25v.63h.63v.62h1.24V6.62h.63Z" fill="#696e73"/>
    <g>
      <path d="M18.94,6,9,15.75h3l7-7,7,7h3Z" fill="#696e72"/>
      <path d="M13,16.75v8h5v-4h2v4h5v-8l-6-6Z" fill="#696e72"/>
      <path d="M15,6.75H12v4.06l3-3Z" fill="#696e72"/>
    </g>
    <rect x="149" y="0.99" width="1" height="30" fill="#afb2b5"/>
    <rect x="149" y="30" width="709" height="1" fill="#afb2b5"/>
    <g>
      <path d="M46,10.38V20.62a1.38,1.38,0,0,0,2,1.23l10.22-5.12a1.35,1.35,0,0,0,0-2.46L48,9.15A1.38,1.38,0,0,0,46,10.38Z" fill="#696e73"/>
      <polygon points="48 15 48 16 50 16 50 18 51 18 51 16 53 16 53 15 51 15 51 13 50 13 50 15 48 15" fill="#fff"/>
    </g>
  </g>
</svg>
