<svg id="Layer_1" data-name="Layer 1" xmlns="http://www.w3.org/2000/svg" xmlns:xlink="http://www.w3.org/1999/xlink" width="858" height="160" viewBox="0 0 858 160"><defs><linearGradient id="linear-gradient" x1="429" y1="-26.75" x2="429" y2="30.05" gradientUnits="userSpaceOnUse"><stop offset="0" stop-color="#e9ebec"/><stop offset="0.65" stop-color="#e0e4e6"/><stop offset="1" stop-color="#d9dee1"/></linearGradient><linearGradient id="linear-gradient-2" x1="-413.57" y1="81.56" x2="-413.57" y2="52.52" gradientTransform="translate(-394.07 83) rotate(180)" xlink:href="#linear-gradient"/><linearGradient id="linear-gradient-3" x1="39" y1="0.5" x2="858" y2="0.5" xlink:href="#linear-gradient"/></defs><title>notifications-document-multiline</title><g id="toolbar"><rect x="41" y="60" width="816.85" height="100" fill="#4d5359"/><rect y="60" width="40" height="100" fill="#c42126"/><rect x="40" y="60" width="1" height="22" fill="#fff"/><rect x="17.97" y="114.5" width="4" height="3" fill="#fff"/><polygon points="20.97 113.5 21.97 102.5 17.97 102.5 18.97 113.5 20.97 113.5" fill="#fff"/><path d="M54.71,74.84h-.9V69.67q0-.61.08-1.5h0a4.89,4.89,0,0,1-.23.75L51,74.84h-.44L47.94,69a4.54,4.54,0,0,1-.23-.79h0q0,.46,0,1.51v5.16h-.87v-7.7h1.19l2.36,5.37a6.89,6.89,0,0,1,.35.92h0q.23-.63.37-.95l2.41-5.35h1.13Z" fill="#fff"/><path d="M57.07,67.94a.56.56,0,0,1-.4-.16.54.54,0,0,1-.17-.41.56.56,0,0,1,.57-.57.57.57,0,0,1,.41.16.58.58,0,0,1,0,.81A.57.57,0,0,1,57.07,67.94Zm.43,6.9h-.88v-5.5h.88Z" fill="#fff"/><path d="M63.85,74.84H63V71.7Q63,70,61.69,70a1.39,1.39,0,0,0-1.09.5,1.84,1.84,0,0,0-.43,1.25v3.14h-.88v-5.5h.88v.91h0a2,2,0,0,1,1.8-1,1.68,1.68,0,0,1,1.38.58,2.6,2.6,0,0,1,.48,1.68Z" fill="#fff"/><path d="M66,67.94a.56.56,0,0,1-.4-.16.55.55,0,0,1-.17-.41A.56.56,0,0,1,66,66.8a.57.57,0,0,1,.41.16.58.58,0,0,1,0,.81A.57.57,0,0,1,66,67.94Zm.43,6.9h-.88v-5.5h.88Z" fill="#fff"/><path d="M76,74.84H75.1V71.68a2.38,2.38,0,0,0-.28-1.32,1.07,1.07,0,0,0-.95-.41,1.17,1.17,0,0,0-1,.52,2,2,0,0,0-.4,1.24v3.14h-.88V71.57q0-1.62-1.25-1.62a1.16,1.16,0,0,0-1,.49,2,2,0,0,0-.38,1.26v3.14h-.88v-5.5h.88v.87h0a1.87,1.87,0,0,1,1.71-1,1.59,1.59,0,0,1,1.56,1.14,2,2,0,0,1,1.83-1.14q1.81,0,1.82,2.24Z" fill="#fff"/><path d="M82.1,74.84h-.88V74h0a1.81,1.81,0,0,1-1.7,1q-2,0-2-2.34V69.34h.88v3.15q0,1.74,1.33,1.74a1.35,1.35,0,0,0,1.06-.48,1.82,1.82,0,0,0,.42-1.24V69.34h.88Z" fill="#fff"/><path d="M91.68,74.84H90.8V71.68a2.38,2.38,0,0,0-.28-1.32,1.07,1.07,0,0,0-.95-.41,1.17,1.17,0,0,0-1,.52,2,2,0,0,0-.39,1.24v3.14h-.88V71.57q0-1.62-1.25-1.62a1.16,1.16,0,0,0-1,.49,2,2,0,0,0-.38,1.26v3.14h-.88v-5.5h.88v.87h0a1.87,1.87,0,0,1,1.71-1A1.59,1.59,0,0,1,88,70.35a2,2,0,0,1,1.83-1.14q1.82,0,1.82,2.24Z" fill="#fff"/><path d="M96.81,67.94a.56.56,0,0,1-.4-.16.55.55,0,0,1-.17-.41.56.56,0,0,1,.57-.57.57.57,0,0,1,.41.16.58.58,0,0,1,0,.81A.57.57,0,0,1,96.81,67.94Zm.43,6.9h-.88v-5.5h.88Z" fill="#fff"/><path d="M98.69,74.64V73.7a2.6,2.6,0,0,0,1.58.53q1.16,0,1.16-.77a.68.68,0,0,0-.1-.37,1,1,0,0,0-.27-.27,2.13,2.13,0,0,0-.4-.21l-.49-.2a6.34,6.34,0,0,1-.64-.29,1.91,1.91,0,0,1-.46-.33,1.24,1.24,0,0,1-.28-.42,1.5,1.5,0,0,1-.09-.55,1.31,1.31,0,0,1,.18-.68,1.58,1.58,0,0,1,.47-.5,2.2,2.2,0,0,1,.67-.3,3,3,0,0,1,.78-.1,3.17,3.17,0,0,1,1.28.25v.89a2.5,2.5,0,0,0-1.4-.4,1.62,1.62,0,0,0-.45.06,1.1,1.1,0,0,0-.34.16.73.73,0,0,0-.22.24.64.64,0,0,0-.08.31.75.75,0,0,0,.08.36.8.8,0,0,0,.23.26,1.8,1.8,0,0,0,.37.2l.49.2q.36.14.66.29a2.29,2.29,0,0,1,.49.33,1.33,1.33,0,0,1,.31.43,1.38,1.38,0,0,1,.11.57,1.35,1.35,0,0,1-.18.71,1.54,1.54,0,0,1-.48.5,2.22,2.22,0,0,1-.69.29,3.42,3.42,0,0,1-.82.1A3.13,3.13,0,0,1,98.69,74.64Z" fill="#fff"/><path d="M111.4,74.4q0,3-2.9,3a3.89,3.89,0,0,1-1.78-.39v-.88a3.66,3.66,0,0,0,1.77.52q2,0,2-2.16v-.6h0a2.22,2.22,0,0,1-3.54.32,2.92,2.92,0,0,1-.63-2A3.43,3.43,0,0,1,107,70a2.25,2.25,0,0,1,1.84-.83,1.8,1.8,0,0,1,1.65.89h0v-.76h.88Zm-.88-2v-.81a1.57,1.57,0,0,0-.44-1.12A1.46,1.46,0,0,0,109,70a1.53,1.53,0,0,0-1.28.59,2.65,2.65,0,0,0-.46,1.66,2.27,2.27,0,0,0,.44,1.47,1.43,1.43,0,0,0,1.17.55,1.53,1.53,0,0,0,1.21-.53A2,2,0,0,0,110.52,72.35Z" fill="#fff"/><path d="M116.05,70.23a1.08,1.08,0,0,0-.67-.18,1.12,1.12,0,0,0-.94.53,2.45,2.45,0,0,0-.38,1.45v2.8h-.88v-5.5h.88v1.13h0a1.92,1.92,0,0,1,.57-.91,1.31,1.31,0,0,1,.87-.33,1.45,1.45,0,0,1,.53.08Z" fill="#fff"/><path d="M121.28,72.31H117.4a2.06,2.06,0,0,0,.49,1.42,1.7,1.7,0,0,0,1.3.5,2.7,2.7,0,0,0,1.71-.61v.83A3.19,3.19,0,0,1,119,75a2.33,2.33,0,0,1-1.83-.75,3.07,3.07,0,0,1-.67-2.11,3,3,0,0,1,.73-2.09,2.33,2.33,0,0,1,1.81-.81,2.07,2.07,0,0,1,1.67.7,2.91,2.91,0,0,1,.59,1.94Zm-.9-.75a1.8,1.8,0,0,0-.37-1.19,1.25,1.25,0,0,0-1-.42,1.42,1.42,0,0,0-1.06.45,2,2,0,0,0-.54,1.17Z" fill="#fff"/><path d="M126.55,74.84h-.88V74h0A1.84,1.84,0,0,1,124,75a1.81,1.81,0,0,1-1.29-.43,1.5,1.5,0,0,1-.46-1.16q0-1.54,1.82-1.79l1.65-.23q0-1.4-1.13-1.4a2.71,2.71,0,0,0-1.79.68v-.9a3.41,3.41,0,0,1,1.87-.52q1.94,0,1.94,2.05Zm-.88-2.78-1.33.18a2.15,2.15,0,0,0-.92.3.87.87,0,0,0-.31.77.84.84,0,0,0,.29.66,1.11,1.11,0,0,0,.77.25,1.41,1.41,0,0,0,1.08-.46,1.64,1.64,0,0,0,.43-1.16Z" fill="#fff"/><path d="M130.76,74.79a1.69,1.69,0,0,1-.82.17q-1.45,0-1.45-1.61V70.09h-.95v-.75h.95V68l.88-.28v1.63h1.39v.75h-1.39v3.1a1.28,1.28,0,0,0,.19.79.75.75,0,0,0,.62.24.92.92,0,0,0,.57-.18Z" fill="#fff"/><path d="M136.27,72.31h-3.88a2.05,2.05,0,0,0,.49,1.42,1.7,1.7,0,0,0,1.3.5,2.7,2.7,0,0,0,1.71-.61v.83A3.19,3.19,0,0,1,134,75a2.33,2.33,0,0,1-1.83-.75,3.07,3.07,0,0,1-.67-2.11,3,3,0,0,1,.73-2.09,2.33,2.33,0,0,1,1.81-.81,2.07,2.07,0,0,1,1.67.7,2.91,2.91,0,0,1,.59,1.94Zm-.9-.75a1.79,1.79,0,0,0-.37-1.19,1.26,1.26,0,0,0-1-.42,1.42,1.42,0,0,0-1.06.45,2,2,0,0,0-.54,1.17Z" fill="#fff"/><path d="M140.47,70.23a1.08,1.08,0,0,0-.67-.18,1.12,1.12,0,0,0-.94.53,2.45,2.45,0,0,0-.38,1.45v2.8h-.88v-5.5h.88v1.13h0a1.93,1.93,0,0,1,.58-.91,1.31,1.31,0,0,1,.86-.33,1.44,1.44,0,0,1,.53.08Z" fill="#fff"/><path d="M147,74.79a1.69,1.69,0,0,1-.82.17q-1.45,0-1.45-1.61V70.09h-.95v-.75h.95V68l.88-.28v1.63H147v.75h-1.39v3.1a1.28,1.28,0,0,0,.19.79.75.75,0,0,0,.62.24A.92.92,0,0,0,147,74Z" fill="#fff"/><path d="M152.74,74.84h-.88V71.67q0-1.72-1.28-1.72a1.39,1.39,0,0,0-1.08.5,1.85,1.85,0,0,0-.44,1.28v3.12h-.88V66.7h.88v3.56h0a2,2,0,0,1,1.8-1q1.86,0,1.86,2.24Z" fill="#fff"/><path d="M158.33,74.84h-.88V74h0a1.84,1.84,0,0,1-1.69,1,1.81,1.81,0,0,1-1.29-.43,1.51,1.51,0,0,1-.46-1.16q0-1.54,1.82-1.79l1.65-.23q0-1.4-1.13-1.4a2.71,2.71,0,0,0-1.79.68v-.9a3.41,3.41,0,0,1,1.87-.52q1.94,0,1.94,2.05Zm-.88-2.78-1.33.18a2.15,2.15,0,0,0-.92.3.88.88,0,0,0-.31.77.84.84,0,0,0,.29.66,1.11,1.11,0,0,0,.77.25,1.41,1.41,0,0,0,1.08-.46,1.64,1.64,0,0,0,.43-1.16Z" fill="#fff"/><path d="M164.56,74.84h-.88V71.7q0-1.75-1.28-1.75a1.39,1.39,0,0,0-1.09.5,1.84,1.84,0,0,0-.43,1.25v3.14H160v-5.5h.88v.91h0a2,2,0,0,1,1.8-1,1.68,1.68,0,0,1,1.38.58,2.6,2.6,0,0,1,.48,1.68Z" fill="#fff"/><path d="M171.53,75a2.55,2.55,0,0,1-1.95-.77,2.86,2.86,0,0,1-.73-2,3,3,0,0,1,.76-2.16,2.72,2.72,0,0,1,2-.78,2.47,2.47,0,0,1,1.92.76,3,3,0,0,1,.69,2.1,3,3,0,0,1-.74,2.11A2.6,2.6,0,0,1,171.53,75Zm.06-5a1.68,1.68,0,0,0-1.34.58,2.38,2.38,0,0,0-.49,1.59,2.24,2.24,0,0,0,.5,1.54,1.7,1.7,0,0,0,1.34.56,1.61,1.61,0,0,0,1.31-.55,2.4,2.4,0,0,0,.46-1.57,2.45,2.45,0,0,0-.46-1.59A1.61,1.61,0,0,0,171.59,70Z" fill="#fff"/><path d="M178.54,70.23a1.08,1.08,0,0,0-.67-.18,1.12,1.12,0,0,0-.94.53,2.45,2.45,0,0,0-.38,1.45v2.8h-.88v-5.5h.88v1.13h0a1.93,1.93,0,0,1,.58-.91,1.31,1.31,0,0,1,.86-.33,1.44,1.44,0,0,1,.53.08Z" fill="#fff"/><path d="M186.93,72.31h-3.88a2.05,2.05,0,0,0,.49,1.42,1.7,1.7,0,0,0,1.3.5,2.7,2.7,0,0,0,1.71-.61v.83a3.19,3.19,0,0,1-1.92.53,2.33,2.33,0,0,1-1.83-.75,3.07,3.07,0,0,1-.67-2.11,3,3,0,0,1,.73-2.09,2.33,2.33,0,0,1,1.81-.81,2.07,2.07,0,0,1,1.67.7,2.91,2.91,0,0,1,.59,1.94Zm-.9-.75a1.79,1.79,0,0,0-.37-1.19,1.26,1.26,0,0,0-1-.42,1.42,1.42,0,0,0-1.06.45,2,2,0,0,0-.54,1.17Z" fill="#fff"/><path d="M193,77.37h-.88V73.89h0A2,2,0,0,1,190.18,75a2.07,2.07,0,0,1-1.66-.74,3,3,0,0,1-.63-2,3.29,3.29,0,0,1,.69-2.19,2.29,2.29,0,0,1,1.85-.82,1.73,1.73,0,0,1,1.63.89h0v-.76H193Zm-.88-5v-.8a1.6,1.6,0,0,0-.44-1.14,1.48,1.48,0,0,0-1.12-.47,1.52,1.52,0,0,0-1.26.59,2.63,2.63,0,0,0-.46,1.66,2.27,2.27,0,0,0,.45,1.49,1.42,1.42,0,0,0,1.15.54,1.55,1.55,0,0,0,1.23-.53A2,2,0,0,0,192.08,72.36Z" fill="#fff"/><path d="M199.19,74.84h-.88V74h0a1.81,1.81,0,0,1-1.7,1q-2,0-2-2.34V69.34h.88v3.15q0,1.74,1.33,1.74a1.35,1.35,0,0,0,1.06-.48,1.82,1.82,0,0,0,.42-1.24V69.34h.88Z" fill="#fff"/><path d="M204.91,74.84H204V74h0a1.84,1.84,0,0,1-1.69,1,1.81,1.81,0,0,1-1.29-.43,1.5,1.5,0,0,1-.46-1.16q0-1.54,1.82-1.79l1.65-.23q0-1.4-1.13-1.4a2.71,2.71,0,0,0-1.79.68v-.9a3.41,3.41,0,0,1,1.87-.52q1.94,0,1.94,2.05ZM204,72.06l-1.33.18a2.15,2.15,0,0,0-.92.3.87.87,0,0,0-.31.77.84.84,0,0,0,.29.66,1.11,1.11,0,0,0,.77.25,1.41,1.41,0,0,0,1.08-.46,1.64,1.64,0,0,0,.43-1.16Z" fill="#fff"/><path d="M207.45,74.84h-.88V66.7h.88Z" fill="#fff"/><path d="M214.79,74.79A1.69,1.69,0,0,1,214,75q-1.44,0-1.44-1.61V70.09h-.95v-.75h.95V68l.88-.28v1.63h1.39v.75h-1.39v3.1a1.29,1.29,0,0,0,.19.79.75.75,0,0,0,.62.24.92.92,0,0,0,.58-.18Z" fill="#fff"/><path d="M218.18,75a2.55,2.55,0,0,1-1.95-.77,2.86,2.86,0,0,1-.73-2,3,3,0,0,1,.76-2.16,2.72,2.72,0,0,1,2-.78,2.47,2.47,0,0,1,1.92.76,3,3,0,0,1,.69,2.1,3,3,0,0,1-.74,2.11A2.6,2.6,0,0,1,218.18,75Zm.06-5a1.68,1.68,0,0,0-1.34.58,2.38,2.38,0,0,0-.49,1.59,2.24,2.24,0,0,0,.5,1.54,1.7,1.7,0,0,0,1.34.56,1.61,1.61,0,0,0,1.31-.55A2.4,2.4,0,0,0,220,72.1a2.45,2.45,0,0,0-.46-1.59A1.61,1.61,0,0,0,218.25,70Z" fill="#fff"/><path d="M227.89,74.79a1.69,1.69,0,0,1-.82.17q-1.45,0-1.45-1.61V70.09h-.95v-.75h.95V68l.88-.28v1.63h1.39v.75h-1.39v3.1a1.28,1.28,0,0,0,.19.79.75.75,0,0,0,.62.24.92.92,0,0,0,.57-.18Z" fill="#fff"/><path d="M233.64,74.84h-.88V71.67q0-1.72-1.28-1.72a1.39,1.39,0,0,0-1.08.5,1.85,1.85,0,0,0-.44,1.28v3.12h-.88V66.7H230v3.56h0a2,2,0,0,1,1.8-1q1.86,0,1.86,2.24Z" fill="#fff"/><path d="M239.72,72.31h-3.88a2.06,2.06,0,0,0,.49,1.42,1.7,1.7,0,0,0,1.3.5,2.7,2.7,0,0,0,1.71-.61v.83a3.19,3.19,0,0,1-1.92.53,2.33,2.33,0,0,1-1.83-.75,3.07,3.07,0,0,1-.67-2.11,3,3,0,0,1,.73-2.09,2.33,2.33,0,0,1,1.81-.81,2.07,2.07,0,0,1,1.67.7,2.91,2.91,0,0,1,.59,1.94Zm-.9-.75a1.8,1.8,0,0,0-.37-1.19,1.25,1.25,0,0,0-1-.42,1.42,1.42,0,0,0-1.06.45,2,2,0,0,0-.54,1.17Z" fill="#fff"/><path d="M251.87,74.84H251V71.68a2.38,2.38,0,0,0-.28-1.32,1.07,1.07,0,0,0-.95-.41,1.17,1.17,0,0,0-1,.52,2,2,0,0,0-.39,1.24v3.14h-.88V71.57q0-1.62-1.25-1.62a1.16,1.16,0,0,0-1,.49,2,2,0,0,0-.38,1.26v3.14h-.88v-5.5h.88v.87h0a1.87,1.87,0,0,1,1.71-1,1.59,1.59,0,0,1,1.56,1.14,2,2,0,0,1,1.83-1.14q1.82,0,1.82,2.24Z" fill="#fff"/><path d="M257.47,74.84h-.88V74h0a1.84,1.84,0,0,1-1.69,1,1.81,1.81,0,0,1-1.29-.43,1.51,1.51,0,0,1-.46-1.16q0-1.54,1.82-1.79l1.65-.23q0-1.4-1.13-1.4a2.71,2.71,0,0,0-1.79.68v-.9a3.41,3.41,0,0,1,1.87-.52q1.94,0,1.94,2.05Zm-.88-2.78-1.33.18a2.15,2.15,0,0,0-.92.3.88.88,0,0,0-.31.77.84.84,0,0,0,.29.66,1.11,1.11,0,0,0,.77.25,1.41,1.41,0,0,0,1.08-.46,1.64,1.64,0,0,0,.43-1.16Z" fill="#fff"/><path d="M263.15,69.34l-1.85,2.78,1.82,2.72h-1L261,73.06l-.24-.42h0l-.25.42-1.1,1.78h-1l1.88-2.7-1.79-2.8h1l1.06,1.88.23.43h0l1.38-2.31Z" fill="#fff"/><path d="M264.63,67.94a.56.56,0,0,1-.4-.16.54.54,0,0,1-.17-.41.56.56,0,0,1,.57-.57A.57.57,0,0,1,265,67a.58.58,0,0,1,0,.81A.57.57,0,0,1,264.63,67.94Zm.43,6.9h-.88v-5.5h.88Z" fill="#fff"/><path d="M274.65,74.84h-.88V71.68a2.38,2.38,0,0,0-.28-1.32,1.07,1.07,0,0,0-.95-.41,1.17,1.17,0,0,0-1,.52,2,2,0,0,0-.39,1.24v3.14h-.88V71.57q0-1.62-1.25-1.62a1.16,1.16,0,0,0-1,.49,2,2,0,0,0-.38,1.26v3.14h-.88v-5.5h.88v.87h0a1.87,1.87,0,0,1,1.71-1A1.59,1.59,0,0,1,271,70.35a2,2,0,0,1,1.83-1.14q1.82,0,1.82,2.24Z" fill="#fff"/><path d="M280.77,74.84h-.88V74h0a1.81,1.81,0,0,1-1.7,1q-2,0-2-2.34V69.34h.88v3.15q0,1.74,1.33,1.74a1.35,1.35,0,0,0,1.06-.48,1.82,1.82,0,0,0,.42-1.24V69.34h.88Z" fill="#fff"/><path d="M290.35,74.84h-.88V71.68a2.38,2.38,0,0,0-.28-1.32,1.07,1.07,0,0,0-.95-.41,1.17,1.17,0,0,0-1,.52,2,2,0,0,0-.4,1.24v3.14H286V71.57Q286,70,284.76,70a1.16,1.16,0,0,0-1,.49,2,2,0,0,0-.38,1.26v3.14h-.88v-5.5h.88v.87h0a1.87,1.87,0,0,1,1.71-1,1.59,1.59,0,0,1,1.56,1.14,2,2,0,0,1,1.83-1.14q1.81,0,1.82,2.24Z" fill="#fff"/><path d="M292.33,75a.57.57,0,0,1-.42-.18.58.58,0,0,1-.17-.42.59.59,0,0,1,.17-.43.56.56,0,0,1,.42-.18.58.58,0,0,1,.43.18.59.59,0,0,1,.18.43.61.61,0,0,1-.61.6Z" fill="#fff"/><path d="M301.62,74.84h-4.08v-7.7h3.91V68h-3v2.56h2.78v.81h-2.78V74h3.18Z" fill="#fff"/><path d="M307.55,74.84h-.88V71.7q0-1.75-1.28-1.75a1.39,1.39,0,0,0-1.09.5,1.84,1.84,0,0,0-.43,1.25v3.14H303v-5.5h.88v.91h0a2,2,0,0,1,1.8-1,1.68,1.68,0,0,1,1.38.58,2.6,2.6,0,0,1,.48,1.68Z" fill="#fff"/><path d="M308.87,74.64V73.7a2.6,2.6,0,0,0,1.58.53q1.16,0,1.16-.77a.68.68,0,0,0-.1-.37,1,1,0,0,0-.27-.27,2.13,2.13,0,0,0-.4-.21l-.49-.2a6.34,6.34,0,0,1-.64-.29,1.91,1.91,0,0,1-.46-.33,1.24,1.24,0,0,1-.28-.42,1.5,1.5,0,0,1-.09-.55,1.31,1.31,0,0,1,.18-.68,1.58,1.58,0,0,1,.47-.5,2.2,2.2,0,0,1,.67-.3,3,3,0,0,1,.78-.1,3.17,3.17,0,0,1,1.28.25v.89a2.5,2.5,0,0,0-1.4-.4,1.62,1.62,0,0,0-.45.06,1.1,1.1,0,0,0-.34.16.73.73,0,0,0-.22.24.64.64,0,0,0-.08.31.75.75,0,0,0,.08.36.8.8,0,0,0,.23.26,1.8,1.8,0,0,0,.37.2l.49.2q.36.14.66.29a2.29,2.29,0,0,1,.49.33,1.33,1.33,0,0,1,.31.43,1.38,1.38,0,0,1,.11.57,1.35,1.35,0,0,1-.18.71,1.54,1.54,0,0,1-.48.5,2.22,2.22,0,0,1-.69.29,3.42,3.42,0,0,1-.82.1A3.13,3.13,0,0,1,308.87,74.64Z" fill="#fff"/><path d="M318.32,74.84h-.88V74h0a1.81,1.81,0,0,1-1.7,1q-2,0-2-2.34V69.34h.88v3.15q0,1.74,1.33,1.74a1.35,1.35,0,0,0,1.06-.48,1.82,1.82,0,0,0,.42-1.24V69.34h.88Z" fill="#fff"/><path d="M323,70.23a1.08,1.08,0,0,0-.67-.18,1.12,1.12,0,0,0-.94.53A2.45,2.45,0,0,0,321,72v2.8h-.88v-5.5H321v1.13h0a1.92,1.92,0,0,1,.57-.91,1.31,1.31,0,0,1,.87-.33,1.45,1.45,0,0,1,.53.08Z" fill="#fff"/><path d="M328.2,72.31h-3.88a2.06,2.06,0,0,0,.49,1.42,1.7,1.7,0,0,0,1.3.5,2.7,2.7,0,0,0,1.71-.61v.83a3.19,3.19,0,0,1-1.92.53,2.33,2.33,0,0,1-1.83-.75,3.07,3.07,0,0,1-.67-2.11,3,3,0,0,1,.73-2.09,2.33,2.33,0,0,1,1.81-.81,2.07,2.07,0,0,1,1.67.7,2.91,2.91,0,0,1,.59,1.94Zm-.9-.75a1.8,1.8,0,0,0-.37-1.19,1.25,1.25,0,0,0-1-.42,1.42,1.42,0,0,0-1.06.45,2,2,0,0,0-.54,1.17Z" fill="#fff"/><path d="M335.1,74.79a1.69,1.69,0,0,1-.82.17q-1.44,0-1.44-1.61V70.09h-.95v-.75h.95V68l.88-.28v1.63h1.39v.75h-1.39v3.1a1.29,1.29,0,0,0,.19.79.75.75,0,0,0,.62.24.92.92,0,0,0,.58-.18Z" fill="#fff"/><path d="M340.84,74.84H340V71.67Q340,70,338.68,70a1.39,1.39,0,0,0-1.08.5,1.85,1.85,0,0,0-.44,1.28v3.12h-.88V66.7h.88v3.56h0a2,2,0,0,1,1.8-1q1.86,0,1.86,2.24Z" fill="#fff"/><path d="M346.92,72.31H343a2.05,2.05,0,0,0,.49,1.42,1.7,1.7,0,0,0,1.3.5,2.7,2.7,0,0,0,1.71-.61v.83a3.19,3.19,0,0,1-1.92.53,2.33,2.33,0,0,1-1.83-.75,3.07,3.07,0,0,1-.67-2.11,3,3,0,0,1,.73-2.09,2.33,2.33,0,0,1,1.81-.81,2.07,2.07,0,0,1,1.67.7,2.91,2.91,0,0,1,.59,1.94Zm-.9-.75a1.79,1.79,0,0,0-.37-1.19,1.26,1.26,0,0,0-1-.42,1.42,1.42,0,0,0-1.06.45,2,2,0,0,0-.54,1.17Z" fill="#fff"/><path d="M359.07,74.84h-.88V71.68a2.38,2.38,0,0,0-.28-1.32A1.07,1.07,0,0,0,357,70a1.17,1.17,0,0,0-1,.52,2,2,0,0,0-.4,1.24v3.14h-.88V71.57q0-1.62-1.25-1.62a1.16,1.16,0,0,0-1,.49,2,2,0,0,0-.38,1.26v3.14h-.88v-5.5h.88v.87h0a1.87,1.87,0,0,1,1.71-1,1.59,1.59,0,0,1,1.56,1.14,2,2,0,0,1,1.83-1.14q1.81,0,1.82,2.24Z" fill="#fff"/><path d="M364.67,74.84h-.88V74h0a1.84,1.84,0,0,1-1.69,1,1.81,1.81,0,0,1-1.29-.43,1.5,1.5,0,0,1-.46-1.16q0-1.54,1.82-1.79l1.65-.23q0-1.4-1.13-1.4a2.71,2.71,0,0,0-1.79.68v-.9a3.41,3.41,0,0,1,1.87-.52q1.94,0,1.94,2.05Zm-.88-2.78-1.33.18a2.15,2.15,0,0,0-.92.3.87.87,0,0,0-.31.77.84.84,0,0,0,.29.66,1.11,1.11,0,0,0,.77.25,1.41,1.41,0,0,0,1.08-.46,1.64,1.64,0,0,0,.43-1.16Z" fill="#fff"/><path d="M370.35,69.34l-1.85,2.78,1.82,2.72h-1l-1.08-1.78-.24-.42h0l-.25.42-1.1,1.78h-1l1.87-2.7-1.79-2.8h1l1.06,1.88.23.43h0l1.38-2.31Z" fill="#fff"/><path d="M371.83,67.94a.56.56,0,0,1-.4-.16.55.55,0,0,1-.17-.41.56.56,0,0,1,.57-.57.57.57,0,0,1,.41.16.58.58,0,0,1,0,.81A.57.57,0,0,1,371.83,67.94Zm.43,6.9h-.88v-5.5h.88Z" fill="#fff"/><path d="M381.86,74.84H381V71.68a2.38,2.38,0,0,0-.28-1.32,1.07,1.07,0,0,0-.95-.41,1.17,1.17,0,0,0-1,.52,2,2,0,0,0-.4,1.24v3.14h-.88V71.57q0-1.62-1.25-1.62a1.16,1.16,0,0,0-1,.49,2,2,0,0,0-.38,1.26v3.14H374v-5.5h.88v.87h0a1.87,1.87,0,0,1,1.71-1,1.59,1.59,0,0,1,1.56,1.14A2,2,0,0,1,380,69.21q1.81,0,1.82,2.24Z" fill="#fff"/><path d="M388,74.84h-.88V74h0a1.81,1.81,0,0,1-1.7,1q-2,0-2-2.34V69.34h.88v3.15q0,1.74,1.33,1.74a1.35,1.35,0,0,0,1.06-.48,1.82,1.82,0,0,0,.42-1.24V69.34H388Z" fill="#fff"/><path d="M397.56,74.84h-.88V71.68a2.38,2.38,0,0,0-.28-1.32,1.07,1.07,0,0,0-.95-.41,1.17,1.17,0,0,0-1,.52,2,2,0,0,0-.39,1.24v3.14h-.88V71.57Q393.21,70,392,70a1.16,1.16,0,0,0-1,.49,2,2,0,0,0-.38,1.26v3.14h-.88v-5.5h.88v.87h0a1.87,1.87,0,0,1,1.71-1,1.59,1.59,0,0,1,1.56,1.14,2,2,0,0,1,1.83-1.14q1.82,0,1.82,2.24Z" fill="#fff"/><path d="M406.56,69.34l-2.19,5.5h-.86l-2.08-5.5h1l1.4,4a3.63,3.63,0,0,1,.19.77h0a3.57,3.57,0,0,1,.17-.75l1.46-4Z" fill="#fff"/><path d="M411.24,74.84h-.88V74h0a1.84,1.84,0,0,1-1.69,1,1.81,1.81,0,0,1-1.29-.43,1.5,1.5,0,0,1-.46-1.16q0-1.54,1.82-1.79l1.65-.23q0-1.4-1.13-1.4a2.71,2.71,0,0,0-1.79.68v-.9a3.41,3.41,0,0,1,1.87-.52q1.94,0,1.94,2.05Zm-.88-2.78-1.33.18a2.15,2.15,0,0,0-.92.3.87.87,0,0,0-.31.77.84.84,0,0,0,.29.66,1.11,1.11,0,0,0,.77.25,1.41,1.41,0,0,0,1.08-.46,1.64,1.64,0,0,0,.43-1.16Z" fill="#fff"/><path d="M413.78,74.84h-.88V66.7h.88Z" fill="#fff"/><path d="M420,74.84h-.88V74h0a1.81,1.81,0,0,1-1.7,1q-2,0-2-2.34V69.34h.88v3.15q0,1.74,1.33,1.74a1.35,1.35,0,0,0,1.06-.48,1.82,1.82,0,0,0,.42-1.24V69.34H420Z" fill="#fff"/><path d="M426.21,72.31h-3.88a2.06,2.06,0,0,0,.49,1.42,1.7,1.7,0,0,0,1.3.5,2.7,2.7,0,0,0,1.71-.61v.83a3.19,3.19,0,0,1-1.92.53,2.33,2.33,0,0,1-1.83-.75,3.07,3.07,0,0,1-.67-2.11,3,3,0,0,1,.73-2.09,2.33,2.33,0,0,1,1.81-.81,2.07,2.07,0,0,1,1.67.7,2.91,2.91,0,0,1,.59,1.94Zm-.9-.75a1.8,1.8,0,0,0-.37-1.19,1.25,1.25,0,0,0-1-.42,1.42,1.42,0,0,0-1.06.45,2,2,0,0,0-.54,1.17Z" fill="#fff"/><path d="M431,67.94a.56.56,0,0,1-.4-.16.54.54,0,0,1-.17-.41.56.56,0,0,1,.57-.57.57.57,0,0,1,.41.16.58.58,0,0,1,0,.81A.57.57,0,0,1,431,67.94Zm.43,6.9h-.88v-5.5h.88Z" fill="#fff"/><path d="M432.89,74.64V73.7a2.61,2.61,0,0,0,1.58.53q1.16,0,1.16-.77a.67.67,0,0,0-.1-.37,1,1,0,0,0-.27-.27,2.1,2.1,0,0,0-.4-.21l-.49-.2a6.26,6.26,0,0,1-.64-.29,1.93,1.93,0,0,1-.46-.33,1.25,1.25,0,0,1-.28-.42,1.5,1.5,0,0,1-.09-.55,1.31,1.31,0,0,1,.18-.68,1.57,1.57,0,0,1,.47-.5,2.19,2.19,0,0,1,.67-.3,3,3,0,0,1,.78-.1,3.17,3.17,0,0,1,1.28.25v.89a2.49,2.49,0,0,0-1.4-.4,1.61,1.61,0,0,0-.45.06,1.1,1.1,0,0,0-.34.16.73.73,0,0,0-.22.24.65.65,0,0,0-.08.31.76.76,0,0,0,.08.36.79.79,0,0,0,.23.26,1.75,1.75,0,0,0,.37.2l.49.2a7.11,7.11,0,0,1,.66.29,2.26,2.26,0,0,1,.49.33,1.3,1.3,0,0,1,.31.43,1.38,1.38,0,0,1,.11.57,1.35,1.35,0,0,1-.18.71,1.52,1.52,0,0,1-.48.5,2.22,2.22,0,0,1-.69.29,3.42,3.42,0,0,1-.82.1A3.13,3.13,0,0,1,432.89,74.64Z" fill="#fff"/><path d="M445.59,74.4q0,3-2.9,3a3.9,3.9,0,0,1-1.78-.39v-.88a3.67,3.67,0,0,0,1.77.52q2,0,2-2.16v-.6h0a2.22,2.22,0,0,1-3.54.32,2.93,2.93,0,0,1-.63-2A3.43,3.43,0,0,1,441.2,70a2.26,2.26,0,0,1,1.85-.83,1.79,1.79,0,0,1,1.65.89h0v-.76h.88Zm-.88-2v-.81a1.57,1.57,0,0,0-.44-1.12,1.46,1.46,0,0,0-1.1-.47,1.53,1.53,0,0,0-1.28.59,2.65,2.65,0,0,0-.46,1.66,2.27,2.27,0,0,0,.44,1.47,1.43,1.43,0,0,0,1.17.55,1.53,1.53,0,0,0,1.21-.53A2,2,0,0,0,444.71,72.35Z" fill="#fff"/><path d="M450.25,70.23a1.08,1.08,0,0,0-.67-.18,1.12,1.12,0,0,0-.94.53,2.45,2.45,0,0,0-.38,1.45v2.8h-.88v-5.5h.88v1.13h0a1.93,1.93,0,0,1,.58-.91,1.31,1.31,0,0,1,.86-.33,1.44,1.44,0,0,1,.53.08Z" fill="#fff"/><path d="M455.48,72.31h-3.88a2.05,2.05,0,0,0,.49,1.42,1.7,1.7,0,0,0,1.3.5,2.7,2.7,0,0,0,1.71-.61v.83a3.19,3.19,0,0,1-1.92.53,2.33,2.33,0,0,1-1.83-.75,3.07,3.07,0,0,1-.67-2.11,3,3,0,0,1,.73-2.09,2.33,2.33,0,0,1,1.81-.81,2.07,2.07,0,0,1,1.67.7,2.91,2.91,0,0,1,.59,1.94Zm-.9-.75a1.79,1.79,0,0,0-.37-1.19,1.26,1.26,0,0,0-1-.42,1.42,1.42,0,0,0-1.06.45,2,2,0,0,0-.54,1.17Z" fill="#fff"/><path d="M460.75,74.84h-.88V74h0a1.84,1.84,0,0,1-1.69,1,1.81,1.81,0,0,1-1.29-.43,1.51,1.51,0,0,1-.46-1.16q0-1.54,1.82-1.79l1.65-.23q0-1.4-1.13-1.4a2.71,2.71,0,0,0-1.79.68v-.9a3.41,3.41,0,0,1,1.87-.52q1.94,0,1.94,2.05Zm-.88-2.78-1.33.18a2.15,2.15,0,0,0-.92.3.88.88,0,0,0-.31.77.84.84,0,0,0,.29.66,1.11,1.11,0,0,0,.77.25,1.41,1.41,0,0,0,1.08-.46,1.64,1.64,0,0,0,.43-1.16Z" fill="#fff"/><path d="M465,74.79a1.69,1.69,0,0,1-.82.17q-1.44,0-1.44-1.61V70.09h-.95v-.75h.95V68l.88-.28v1.63H465v.75h-1.39v3.1a1.29,1.29,0,0,0,.19.79.75.75,0,0,0,.62.24A.92.92,0,0,0,465,74Z" fill="#fff"/><path d="M470.47,72.31h-3.88a2.06,2.06,0,0,0,.49,1.42,1.7,1.7,0,0,0,1.3.5,2.7,2.7,0,0,0,1.71-.61v.83a3.19,3.19,0,0,1-1.92.53,2.33,2.33,0,0,1-1.83-.75,3.07,3.07,0,0,1-.67-2.11A3,3,0,0,1,466.4,70a2.33,2.33,0,0,1,1.81-.81,2.07,2.07,0,0,1,1.67.7,2.91,2.91,0,0,1,.59,1.94Zm-.9-.75a1.8,1.8,0,0,0-.37-1.19,1.25,1.25,0,0,0-1-.42,1.42,1.42,0,0,0-1.06.45,2,2,0,0,0-.54,1.17Z" fill="#fff"/><path d="M474.67,70.23a1.08,1.08,0,0,0-.67-.18,1.12,1.12,0,0,0-.94.53,2.45,2.45,0,0,0-.38,1.45v2.8h-.88v-5.5h.88v1.13h0a1.92,1.92,0,0,1,.57-.91,1.31,1.31,0,0,1,.87-.33,1.45,1.45,0,0,1,.53.08Z" fill="#fff"/><path d="M481.19,74.79a1.69,1.69,0,0,1-.82.17q-1.44,0-1.44-1.61V70.09H478v-.75h.95V68l.88-.28v1.63h1.39v.75H479.8v3.1A1.29,1.29,0,0,0,480,74a.75.75,0,0,0,.62.24.92.92,0,0,0,.58-.18Z" fill="#fff"/><path d="M486.93,74.84H486V71.67Q486,70,484.77,70a1.39,1.39,0,0,0-1.08.5,1.85,1.85,0,0,0-.44,1.28v3.12h-.88V66.7h.88v3.56h0a2,2,0,0,1,1.8-1q1.86,0,1.86,2.24Z" fill="#fff"/><path d="M492.53,74.84h-.88V74h0a1.84,1.84,0,0,1-1.69,1,1.81,1.81,0,0,1-1.29-.43,1.5,1.5,0,0,1-.46-1.16q0-1.54,1.82-1.79l1.65-.23q0-1.4-1.13-1.4a2.71,2.71,0,0,0-1.79.68v-.9a3.41,3.41,0,0,1,1.87-.52q1.94,0,1.94,2.05Zm-.88-2.78-1.33.18a2.15,2.15,0,0,0-.92.3.87.87,0,0,0-.31.77.84.84,0,0,0,.29.66,1.11,1.11,0,0,0,.77.25,1.41,1.41,0,0,0,1.08-.46,1.64,1.64,0,0,0,.43-1.16Z" fill="#fff"/><path d="M498.75,74.84h-.88V71.7q0-1.75-1.28-1.75a1.39,1.39,0,0,0-1.09.5,1.84,1.84,0,0,0-.43,1.25v3.14h-.88v-5.5h.88v.91h0a2,2,0,0,1,1.8-1,1.68,1.68,0,0,1,1.38.58,2.59,2.59,0,0,1,.48,1.68Z" fill="#fff"/><path d="M506,74.79a1.69,1.69,0,0,1-.82.17q-1.45,0-1.45-1.61V70.09h-.95v-.75h.95V68l.88-.28v1.63H506v.75h-1.39v3.1a1.28,1.28,0,0,0,.19.79.75.75,0,0,0,.62.24A.92.92,0,0,0,506,74Z" fill="#fff"/><path d="M511.72,74.84h-.88V71.67q0-1.72-1.28-1.72a1.39,1.39,0,0,0-1.08.5,1.85,1.85,0,0,0-.44,1.28v3.12h-.88V66.7H508v3.56h0a2,2,0,0,1,1.8-1q1.86,0,1.86,2.24Z" fill="#fff"/><path d="M517.8,72.31h-3.88a2.06,2.06,0,0,0,.49,1.42,1.7,1.7,0,0,0,1.3.5,2.7,2.7,0,0,0,1.71-.61v.83a3.19,3.19,0,0,1-1.92.53,2.33,2.33,0,0,1-1.83-.75,3.07,3.07,0,0,1-.67-2.11,3,3,0,0,1,.73-2.09,2.33,2.33,0,0,1,1.81-.81,2.07,2.07,0,0,1,1.67.7,2.91,2.91,0,0,1,.59,1.94Zm-.9-.75a1.8,1.8,0,0,0-.37-1.19,1.25,1.25,0,0,0-1-.42,1.42,1.42,0,0,0-1.06.45,2,2,0,0,0-.54,1.17Z" fill="#fff"/><path d="M530,74.84h-.88V71.68a2.38,2.38,0,0,0-.28-1.32,1.07,1.07,0,0,0-.95-.41,1.17,1.17,0,0,0-1,.52,2,2,0,0,0-.39,1.24v3.14h-.88V71.57q0-1.62-1.25-1.62a1.16,1.16,0,0,0-1,.49A2,2,0,0,0,523,71.7v3.14h-.88v-5.5H523v.87h0a1.87,1.87,0,0,1,1.71-1,1.59,1.59,0,0,1,1.56,1.14,2,2,0,0,1,1.83-1.14q1.82,0,1.82,2.24Z" fill="#fff"/><path d="M532.07,67.94a.56.56,0,0,1-.4-.16.54.54,0,0,1-.17-.41.56.56,0,0,1,.57-.57.57.57,0,0,1,.41.16.58.58,0,0,1,0,.81A.57.57,0,0,1,532.07,67.94Zm.43,6.9h-.88v-5.5h.88Z" fill="#fff"/><path d="M538.85,74.84H538V71.7Q538,70,536.69,70a1.39,1.39,0,0,0-1.09.5,1.84,1.84,0,0,0-.43,1.25v3.14h-.88v-5.5h.88v.91h0a2,2,0,0,1,1.8-1,1.68,1.68,0,0,1,1.38.58,2.6,2.6,0,0,1,.48,1.68Z" fill="#fff"/><path d="M541,67.94a.56.56,0,0,1-.4-.16.55.55,0,0,1-.17-.41.56.56,0,0,1,.57-.57.57.57,0,0,1,.41.16.58.58,0,0,1,0,.81A.57.57,0,0,1,541,67.94Zm.43,6.9h-.88v-5.5h.88Z" fill="#fff"/><path d="M551,74.84h-.88V71.68a2.38,2.38,0,0,0-.28-1.32,1.07,1.07,0,0,0-.95-.41,1.17,1.17,0,0,0-1,.52,2,2,0,0,0-.4,1.24v3.14h-.88V71.57q0-1.62-1.25-1.62a1.16,1.16,0,0,0-1,.49,2,2,0,0,0-.38,1.26v3.14h-.88v-5.5h.88v.87h0a1.87,1.87,0,0,1,1.71-1,1.59,1.59,0,0,1,1.56,1.14,2,2,0,0,1,1.83-1.14q1.81,0,1.82,2.24Z" fill="#fff"/><path d="M557.09,74.84h-.88V74h0a1.81,1.81,0,0,1-1.7,1q-2,0-2-2.34V69.34h.88v3.15q0,1.74,1.33,1.74a1.35,1.35,0,0,0,1.06-.48,1.82,1.82,0,0,0,.42-1.24V69.34h.88Z" fill="#fff"/><path d="M566.68,74.84h-.88V71.68a2.38,2.38,0,0,0-.28-1.32,1.07,1.07,0,0,0-.95-.41,1.17,1.17,0,0,0-1,.52,2,2,0,0,0-.39,1.24v3.14h-.88V71.57q0-1.62-1.25-1.62a1.16,1.16,0,0,0-1,.49,2,2,0,0,0-.38,1.26v3.14h-.88v-5.5h.88v.87h0a1.87,1.87,0,0,1,1.71-1A1.59,1.59,0,0,1,563,70.35a2,2,0,0,1,1.83-1.14q1.82,0,1.82,2.24Z" fill="#fff"/><path d="M575.68,69.34l-2.19,5.5h-.86l-2.08-5.5h1l1.4,4a3.63,3.63,0,0,1,.19.77h0a3.57,3.57,0,0,1,.17-.75l1.46-4Z" fill="#fff"/><path d="M580.37,74.84h-.88V74h0a1.84,1.84,0,0,1-1.69,1,1.81,1.81,0,0,1-1.29-.43,1.5,1.5,0,0,1-.46-1.16q0-1.54,1.82-1.79l1.65-.23q0-1.4-1.13-1.4a2.71,2.71,0,0,0-1.79.68v-.9a3.41,3.41,0,0,1,1.87-.52q1.94,0,1.94,2.05Zm-.88-2.78-1.33.18a2.15,2.15,0,0,0-.92.3.87.87,0,0,0-.31.77.84.84,0,0,0,.29.66,1.11,1.11,0,0,0,.77.25,1.41,1.41,0,0,0,1.08-.46,1.64,1.64,0,0,0,.43-1.16Z" fill="#fff"/><path d="M582.91,74.84H582V66.7h.88Z" fill="#fff"/><path d="M589.14,74.84h-.88V74h0a1.81,1.81,0,0,1-1.7,1q-2,0-2-2.34V69.34h.88v3.15q0,1.74,1.33,1.74a1.35,1.35,0,0,0,1.06-.48,1.82,1.82,0,0,0,.42-1.24V69.34h.88Z" fill="#fff"/><path d="M595.34,72.31h-3.88a2.06,2.06,0,0,0,.49,1.42,1.7,1.7,0,0,0,1.3.5,2.7,2.7,0,0,0,1.71-.61v.83A3.19,3.19,0,0,1,593,75a2.33,2.33,0,0,1-1.83-.75,3.07,3.07,0,0,1-.67-2.11,3,3,0,0,1,.73-2.09,2.33,2.33,0,0,1,1.81-.81,2.07,2.07,0,0,1,1.67.7,2.91,2.91,0,0,1,.59,1.94Zm-.9-.75a1.8,1.8,0,0,0-.37-1.19,1.25,1.25,0,0,0-1-.42,1.42,1.42,0,0,0-1.06.45,2,2,0,0,0-.54,1.17Z" fill="#fff"/><path d="M597,75a.57.57,0,0,1-.42-.18.58.58,0,0,1-.17-.42.59.59,0,0,1,.17-.43.56.56,0,0,1,.42-.18.58.58,0,0,1,.43.18.59.59,0,0,1,.18.43.61.61,0,0,1-.61.6Z" fill="#fff"/><path d="M603.09,74.84h-.9v-7.7h.9Z" fill="#fff"/><path d="M607.71,67.47a1.17,1.17,0,0,0-.59-.14q-.92,0-.92,1.17v.85h1.29v.75H606.2v4.75h-.87V70.09h-.94v-.75h.94v-.89a1.85,1.85,0,0,1,.5-1.37,1.69,1.69,0,0,1,1.25-.5,1.73,1.73,0,0,1,.64.1Z" fill="#fff"/><path d="M615.9,74.84H615V74h0a1.81,1.81,0,0,1-1.7,1q-2,0-2-2.34V69.34h.88v3.15q0,1.74,1.33,1.74a1.35,1.35,0,0,0,1.06-.48,1.82,1.82,0,0,0,.42-1.24V69.34h.88Z" fill="#fff"/><path d="M617.34,74.64V73.7a2.61,2.61,0,0,0,1.58.53q1.16,0,1.16-.77a.67.67,0,0,0-.1-.37,1,1,0,0,0-.27-.27,2.1,2.1,0,0,0-.4-.21l-.49-.2a6.26,6.26,0,0,1-.64-.29,1.93,1.93,0,0,1-.46-.33,1.25,1.25,0,0,1-.28-.42,1.5,1.5,0,0,1-.09-.55,1.31,1.31,0,0,1,.18-.68,1.57,1.57,0,0,1,.47-.5,2.19,2.19,0,0,1,.67-.3,3,3,0,0,1,.78-.1,3.17,3.17,0,0,1,1.28.25v.89a2.49,2.49,0,0,0-1.4-.4,1.61,1.61,0,0,0-.45.06,1.1,1.1,0,0,0-.34.16.73.73,0,0,0-.22.24.65.65,0,0,0-.08.31.76.76,0,0,0,.08.36.79.79,0,0,0,.23.26,1.75,1.75,0,0,0,.37.2l.49.2a7.11,7.11,0,0,1,.66.29,2.26,2.26,0,0,1,.49.33,1.3,1.3,0,0,1,.31.43,1.38,1.38,0,0,1,.11.57,1.35,1.35,0,0,1-.18.71,1.52,1.52,0,0,1-.48.5,2.22,2.22,0,0,1-.69.29,3.42,3.42,0,0,1-.82.1A3.13,3.13,0,0,1,617.34,74.64Z" fill="#fff"/><path d="M622.79,67.94a.56.56,0,0,1-.4-.16.55.55,0,0,1-.17-.41.56.56,0,0,1,.57-.57.57.57,0,0,1,.41.16.58.58,0,0,1,0,.81A.57.57,0,0,1,622.79,67.94Zm.43,6.9h-.88v-5.5h.88Z" fill="#fff"/><path d="M629.57,74.84h-.88V71.7q0-1.75-1.28-1.75a1.39,1.39,0,0,0-1.09.5,1.84,1.84,0,0,0-.43,1.25v3.14H625v-5.5h.88v.91h0a2,2,0,0,1,1.8-1,1.68,1.68,0,0,1,1.38.58,2.59,2.59,0,0,1,.48,1.68Z" fill="#fff"/><path d="M635.92,74.4q0,3-2.9,3a3.9,3.9,0,0,1-1.78-.39v-.88a3.67,3.67,0,0,0,1.77.52q2,0,2-2.16v-.6h0a2.22,2.22,0,0,1-3.54.32,2.93,2.93,0,0,1-.63-2,3.43,3.43,0,0,1,.67-2.23,2.26,2.26,0,0,1,1.85-.83,1.79,1.79,0,0,1,1.65.89h0v-.76h.88Zm-.88-2v-.81a1.57,1.57,0,0,0-.44-1.12,1.46,1.46,0,0,0-1.1-.47,1.53,1.53,0,0,0-1.28.59,2.65,2.65,0,0,0-.46,1.66,2.27,2.27,0,0,0,.44,1.47,1.43,1.43,0,0,0,1.17.55,1.53,1.53,0,0,0,1.21-.53A2,2,0,0,0,635,72.35Z" fill="#fff"/><path d="M644.66,74.84h-.88V74h0a1.84,1.84,0,0,1-1.69,1,1.81,1.81,0,0,1-1.29-.43,1.5,1.5,0,0,1-.46-1.16q0-1.54,1.82-1.79l1.65-.23q0-1.4-1.13-1.4a2.71,2.71,0,0,0-1.79.68v-.9a3.41,3.41,0,0,1,1.87-.52q1.94,0,1.94,2.05Zm-.88-2.78-1.33.18a2.15,2.15,0,0,0-.92.3.87.87,0,0,0-.31.77.84.84,0,0,0,.29.66,1.11,1.11,0,0,0,.77.25,1.41,1.41,0,0,0,1.08-.46,1.64,1.64,0,0,0,.43-1.16Z" fill="#fff"/><path d="M653.08,74.59a2.86,2.86,0,0,1-1.5.38,2.49,2.49,0,0,1-1.9-.77,2.77,2.77,0,0,1-.72-2,3.05,3.05,0,0,1,.78-2.18,2.73,2.73,0,0,1,2.08-.82,2.9,2.9,0,0,1,1.28.27v.9a2.24,2.24,0,0,0-1.31-.43,1.77,1.77,0,0,0-1.38.6,2.29,2.29,0,0,0-.54,1.59,2.18,2.18,0,0,0,.51,1.53,1.75,1.75,0,0,0,1.36.56,2.21,2.21,0,0,0,1.35-.48Z" fill="#fff"/><path d="M658.86,74.84H658V74h0a1.81,1.81,0,0,1-1.7,1q-2,0-2-2.34V69.34h.88v3.15q0,1.74,1.33,1.74a1.35,1.35,0,0,0,1.06-.48,1.82,1.82,0,0,0,.42-1.24V69.34h.88Z" fill="#fff"/><path d="M660.3,74.64V73.7a2.6,2.6,0,0,0,1.58.53q1.16,0,1.16-.77a.68.68,0,0,0-.1-.37,1,1,0,0,0-.27-.27,2.13,2.13,0,0,0-.4-.21l-.49-.2a6.34,6.34,0,0,1-.64-.29,1.91,1.91,0,0,1-.46-.33,1.24,1.24,0,0,1-.28-.42,1.5,1.5,0,0,1-.09-.55,1.31,1.31,0,0,1,.18-.68,1.58,1.58,0,0,1,.47-.5,2.2,2.2,0,0,1,.67-.3,3,3,0,0,1,.78-.1,3.17,3.17,0,0,1,1.28.25v.89a2.5,2.5,0,0,0-1.4-.4,1.62,1.62,0,0,0-.45.06,1.1,1.1,0,0,0-.34.16.73.73,0,0,0-.22.24.64.64,0,0,0-.08.31.75.75,0,0,0,.08.36.8.8,0,0,0,.23.26,1.8,1.8,0,0,0,.37.2l.49.2q.36.14.66.29a2.29,2.29,0,0,1,.49.33,1.33,1.33,0,0,1,.31.43,1.38,1.38,0,0,1,.11.57,1.35,1.35,0,0,1-.18.71,1.54,1.54,0,0,1-.48.5,2.22,2.22,0,0,1-.69.29,3.42,3.42,0,0,1-.82.1A3.13,3.13,0,0,1,660.3,74.64Z" fill="#fff"/><path d="M667.86,74.79A1.69,1.69,0,0,1,667,75q-1.44,0-1.44-1.61V70.09h-.95v-.75h.95V68l.88-.28v1.63h1.39v.75h-1.39v3.1a1.29,1.29,0,0,0,.19.79.75.75,0,0,0,.62.24.92.92,0,0,0,.58-.18Z" fill="#fff"/><path d="M671.25,75a2.55,2.55,0,0,1-1.95-.77,2.86,2.86,0,0,1-.73-2,3,3,0,0,1,.76-2.16,2.72,2.72,0,0,1,2-.78,2.47,2.47,0,0,1,1.92.76,3,3,0,0,1,.69,2.1,3,3,0,0,1-.74,2.11A2.6,2.6,0,0,1,671.25,75Zm.06-5a1.68,1.68,0,0,0-1.34.58,2.38,2.38,0,0,0-.49,1.59,2.24,2.24,0,0,0,.5,1.54,1.7,1.7,0,0,0,1.34.56,1.61,1.61,0,0,0,1.31-.55,2.4,2.4,0,0,0,.46-1.57,2.45,2.45,0,0,0-.46-1.59A1.61,1.61,0,0,0,671.31,70Z" fill="#fff"/><path d="M683.2,74.84h-.88V71.68a2.38,2.38,0,0,0-.28-1.32,1.07,1.07,0,0,0-.95-.41,1.17,1.17,0,0,0-1,.52,2,2,0,0,0-.39,1.24v3.14h-.88V71.57q0-1.62-1.25-1.62a1.16,1.16,0,0,0-1,.49,2,2,0,0,0-.38,1.26v3.14h-.88v-5.5h.88v.87h0a1.87,1.87,0,0,1,1.71-1,1.59,1.59,0,0,1,1.56,1.14,2,2,0,0,1,1.83-1.14q1.82,0,1.82,2.24Z" fill="#fff"/><path d="M687.55,74.64V73.7a2.6,2.6,0,0,0,1.58.53q1.16,0,1.16-.77a.68.68,0,0,0-.1-.37,1,1,0,0,0-.27-.27,2.13,2.13,0,0,0-.4-.21l-.49-.2a6.34,6.34,0,0,1-.64-.29,1.91,1.91,0,0,1-.46-.33,1.24,1.24,0,0,1-.28-.42,1.5,1.5,0,0,1-.09-.55,1.31,1.31,0,0,1,.18-.68,1.58,1.58,0,0,1,.47-.5,2.2,2.2,0,0,1,.67-.3,3,3,0,0,1,.78-.1,3.17,3.17,0,0,1,1.28.25v.89a2.5,2.5,0,0,0-1.4-.4,1.62,1.62,0,0,0-.45.06,1.1,1.1,0,0,0-.34.16.73.73,0,0,0-.22.24.64.64,0,0,0-.08.31.75.75,0,0,0,.08.36.8.8,0,0,0,.23.26,1.8,1.8,0,0,0,.37.2l.49.2q.36.14.66.29a2.29,2.29,0,0,1,.49.33,1.33,1.33,0,0,1,.31.43,1.38,1.38,0,0,1,.11.57,1.35,1.35,0,0,1-.18.71,1.54,1.54,0,0,1-.48.5,2.22,2.22,0,0,1-.69.29,3.42,3.42,0,0,1-.82.1A3.13,3.13,0,0,1,687.55,74.64Z" fill="#fff"/><path d="M696.3,74.59a2.86,2.86,0,0,1-1.5.38,2.49,2.49,0,0,1-1.9-.77,2.77,2.77,0,0,1-.72-2A3.05,3.05,0,0,1,693,70a2.73,2.73,0,0,1,2.08-.82,2.9,2.9,0,0,1,1.28.27v.9A2.24,2.24,0,0,0,695,70a1.77,1.77,0,0,0-1.38.6,2.29,2.29,0,0,0-.54,1.59,2.18,2.18,0,0,0,.51,1.53,1.75,1.75,0,0,0,1.36.56,2.21,2.21,0,0,0,1.35-.48Z" fill="#fff"/><path d="M701.57,74.84h-.88V74h0A1.84,1.84,0,0,1,699,75a1.81,1.81,0,0,1-1.29-.43,1.51,1.51,0,0,1-.46-1.16q0-1.54,1.82-1.79l1.65-.23q0-1.4-1.13-1.4a2.71,2.71,0,0,0-1.79.68v-.9a3.41,3.41,0,0,1,1.87-.52q1.94,0,1.94,2.05Zm-.88-2.78-1.33.18a2.15,2.15,0,0,0-.92.3.88.88,0,0,0-.31.77.84.84,0,0,0,.29.66,1.11,1.11,0,0,0,.77.25,1.41,1.41,0,0,0,1.08-.46,1.64,1.64,0,0,0,.43-1.16Z" fill="#fff"/><path d="M704.11,74.84h-.88V66.7h.88Z" fill="#fff"/><path d="M710.31,72.31h-3.88a2.06,2.06,0,0,0,.49,1.42,1.7,1.7,0,0,0,1.3.5,2.7,2.7,0,0,0,1.71-.61v.83A3.19,3.19,0,0,1,708,75a2.33,2.33,0,0,1-1.83-.75,3.07,3.07,0,0,1-.67-2.11,3,3,0,0,1,.73-2.09,2.33,2.33,0,0,1,1.81-.81,2.07,2.07,0,0,1,1.67.7,2.91,2.91,0,0,1,.59,1.94Zm-.9-.75a1.8,1.8,0,0,0-.37-1.19,1.25,1.25,0,0,0-1-.42,1.42,1.42,0,0,0-1.06.45,2,2,0,0,0-.54,1.17Z" fill="#fff"/><path d="M712.45,73.62l-.86,2.64H711l.63-2.64Z" fill="#fff"/><path d="M721.46,72.31h-3.88a2.06,2.06,0,0,0,.49,1.42,1.7,1.7,0,0,0,1.3.5,2.7,2.7,0,0,0,1.71-.61v.83a3.19,3.19,0,0,1-1.92.53,2.33,2.33,0,0,1-1.83-.75,3.07,3.07,0,0,1-.67-2.11,3,3,0,0,1,.73-2.09,2.33,2.33,0,0,1,1.81-.81,2.07,2.07,0,0,1,1.67.7,2.91,2.91,0,0,1,.59,1.94Zm-.9-.75a1.8,1.8,0,0,0-.37-1.19,1.25,1.25,0,0,0-1-.42,1.42,1.42,0,0,0-1.06.45,2,2,0,0,0-.54,1.17Z" fill="#fff"/><path d="M727.36,74.84h-.88V71.7q0-1.75-1.28-1.75a1.39,1.39,0,0,0-1.09.5,1.84,1.84,0,0,0-.43,1.25v3.14h-.88v-5.5h.88v.91h0a2,2,0,0,1,1.8-1,1.68,1.68,0,0,1,1.38.58,2.59,2.59,0,0,1,.48,1.68Z" fill="#fff"/><path d="M728.68,74.64V73.7a2.61,2.61,0,0,0,1.58.53q1.16,0,1.16-.77a.67.67,0,0,0-.1-.37,1,1,0,0,0-.27-.27,2.1,2.1,0,0,0-.4-.21l-.49-.2a6.26,6.26,0,0,1-.64-.29,1.93,1.93,0,0,1-.46-.33,1.25,1.25,0,0,1-.28-.42,1.5,1.5,0,0,1-.09-.55,1.31,1.31,0,0,1,.18-.68,1.57,1.57,0,0,1,.47-.5,2.19,2.19,0,0,1,.67-.3,3,3,0,0,1,.78-.1,3.17,3.17,0,0,1,1.28.25v.89a2.49,2.49,0,0,0-1.4-.4,1.61,1.61,0,0,0-.45.06,1.1,1.1,0,0,0-.34.16.73.73,0,0,0-.22.24.65.65,0,0,0-.08.31.76.76,0,0,0,.08.36.79.79,0,0,0,.23.26,1.75,1.75,0,0,0,.37.2l.49.2a7.11,7.11,0,0,1,.66.29,2.26,2.26,0,0,1,.49.33,1.3,1.3,0,0,1,.31.43,1.38,1.38,0,0,1,.11.57,1.35,1.35,0,0,1-.18.71,1.52,1.52,0,0,1-.48.5,2.22,2.22,0,0,1-.69.29,3.42,3.42,0,0,1-.82.1A3.13,3.13,0,0,1,728.68,74.64Z" fill="#fff"/><path d="M738.13,74.84h-.88V74h0a1.81,1.81,0,0,1-1.7,1q-2,0-2-2.34V69.34h.88v3.15q0,1.74,1.33,1.74a1.35,1.35,0,0,0,1.06-.48,1.82,1.82,0,0,0,.42-1.24V69.34h.88Z" fill="#fff"/><path d="M742.78,70.23a1.08,1.08,0,0,0-.67-.18,1.12,1.12,0,0,0-.94.53,2.45,2.45,0,0,0-.38,1.45v2.8h-.88v-5.5h.88v1.13h0a1.93,1.93,0,0,1,.58-.91,1.31,1.31,0,0,1,.86-.33,1.44,1.44,0,0,1,.53.08Z" fill="#fff"/><path d="M748,72.31h-3.88a2.05,2.05,0,0,0,.49,1.42,1.7,1.7,0,0,0,1.3.5,2.7,2.7,0,0,0,1.71-.61v.83a3.19,3.19,0,0,1-1.92.53,2.33,2.33,0,0,1-1.83-.75,3.07,3.07,0,0,1-.67-2.11,3,3,0,0,1,.73-2.09,2.33,2.33,0,0,1,1.81-.81,2.07,2.07,0,0,1,1.67.7,2.91,2.91,0,0,1,.59,1.94Zm-.9-.75a1.79,1.79,0,0,0-.37-1.19,1.26,1.26,0,0,0-1-.42,1.42,1.42,0,0,0-1.06.45,2,2,0,0,0-.54,1.17Z" fill="#fff"/><path d="M754.91,74.79a1.69,1.69,0,0,1-.82.17q-1.45,0-1.45-1.61V70.09h-.95v-.75h.95V68l.88-.28v1.63h1.39v.75h-1.39v3.1a1.28,1.28,0,0,0,.19.79.75.75,0,0,0,.62.24.92.92,0,0,0,.57-.18Z" fill="#fff"/><path d="M760.65,74.84h-.88V71.67q0-1.72-1.28-1.72a1.39,1.39,0,0,0-1.08.5,1.85,1.85,0,0,0-.44,1.28v3.12h-.88V66.7H757v3.56h0a2,2,0,0,1,1.8-1q1.86,0,1.86,2.24Z" fill="#fff"/><path d="M766.24,74.84h-.88V74h0a1.84,1.84,0,0,1-1.69,1,1.81,1.81,0,0,1-1.29-.43,1.51,1.51,0,0,1-.46-1.16q0-1.54,1.82-1.79l1.65-.23q0-1.4-1.13-1.4a2.71,2.71,0,0,0-1.79.68v-.9a3.41,3.41,0,0,1,1.87-.52q1.94,0,1.94,2.05Zm-.88-2.78-1.33.18a2.15,2.15,0,0,0-.92.3.88.88,0,0,0-.31.77.84.84,0,0,0,.29.66,1.11,1.11,0,0,0,.77.25,1.41,1.41,0,0,0,1.08-.46,1.64,1.64,0,0,0,.43-1.16Z" fill="#fff"/><path d="M770.46,74.79a1.69,1.69,0,0,1-.82.17q-1.44,0-1.44-1.61V70.09h-.95v-.75h.95V68l.88-.28v1.63h1.39v.75h-1.39v3.1a1.29,1.29,0,0,0,.19.79.75.75,0,0,0,.62.24.92.92,0,0,0,.58-.18Z" fill="#fff"/><path d="M777.2,74.79a1.69,1.69,0,0,1-.82.17q-1.45,0-1.45-1.61V70.09H774v-.75h.95V68l.88-.28v1.63h1.39v.75h-1.39v3.1A1.28,1.28,0,0,0,776,74a.75.75,0,0,0,.62.24.92.92,0,0,0,.57-.18Z" fill="#fff"/><path d="M782.94,74.84h-.88V71.67q0-1.72-1.28-1.72a1.39,1.39,0,0,0-1.08.5,1.85,1.85,0,0,0-.44,1.28v3.12h-.88V66.7h.88v3.56h0a2,2,0,0,1,1.8-1q1.86,0,1.86,2.24Z" fill="#fff"/><path d="M789,72.31h-3.88a2.06,2.06,0,0,0,.49,1.42,1.7,1.7,0,0,0,1.3.5,2.7,2.7,0,0,0,1.71-.61v.83a3.19,3.19,0,0,1-1.92.53,2.33,2.33,0,0,1-1.83-.75,3.07,3.07,0,0,1-.67-2.11,3,3,0,0,1,.73-2.09,2.33,2.33,0,0,1,1.81-.81,2.07,2.07,0,0,1,1.67.7,2.91,2.91,0,0,1,.59,1.94Zm-.9-.75a1.8,1.8,0,0,0-.37-1.19,1.25,1.25,0,0,0-1-.42,1.42,1.42,0,0,0-1.06.45,2,2,0,0,0-.54,1.17Z" fill="#fff"/><path d="M46.41,87.84V86.9a2.6,2.6,0,0,0,1.58.53q1.16,0,1.16-.77a.68.68,0,0,0-.1-.37,1,1,0,0,0-.27-.27,2.13,2.13,0,0,0-.4-.21l-.49-.2a6.34,6.34,0,0,1-.64-.29,1.91,1.91,0,0,1-.46-.33,1.24,1.24,0,0,1-.28-.42,1.5,1.5,0,0,1-.09-.55,1.31,1.31,0,0,1,.18-.68,1.58,1.58,0,0,1,.47-.5,2.2,2.2,0,0,1,.67-.3,3,3,0,0,1,.78-.1,3.17,3.17,0,0,1,1.28.25v.89a2.5,2.5,0,0,0-1.4-.4,1.62,1.62,0,0,0-.45.06,1.1,1.1,0,0,0-.34.16.73.73,0,0,0-.22.24.64.64,0,0,0-.08.31.75.75,0,0,0,.08.36.8.8,0,0,0,.23.26,1.8,1.8,0,0,0,.37.2l.49.2q.36.14.66.29a2.29,2.29,0,0,1,.49.33,1.33,1.33,0,0,1,.31.43,1.38,1.38,0,0,1,.11.57,1.35,1.35,0,0,1-.18.71,1.54,1.54,0,0,1-.48.5,2.22,2.22,0,0,1-.69.29,3.42,3.42,0,0,1-.82.1A3.13,3.13,0,0,1,46.41,87.84Z" fill="#fff"/><path d="M55.16,87.79a2.86,2.86,0,0,1-1.5.38,2.49,2.49,0,0,1-1.9-.77,2.77,2.77,0,0,1-.72-2,3.05,3.05,0,0,1,.78-2.18,2.73,2.73,0,0,1,2.08-.82,2.9,2.9,0,0,1,1.28.27v.9a2.24,2.24,0,0,0-1.31-.43,1.77,1.77,0,0,0-1.38.6,2.29,2.29,0,0,0-.54,1.59,2.18,2.18,0,0,0,.51,1.53,1.75,1.75,0,0,0,1.36.56A2.21,2.21,0,0,0,55.16,87Z" fill="#fff"/><path d="M60.43,88h-.88v-.86h0a1.84,1.84,0,0,1-1.69,1,1.81,1.81,0,0,1-1.29-.43,1.51,1.51,0,0,1-.46-1.16q0-1.54,1.82-1.79l1.65-.23q0-1.4-1.13-1.4a2.71,2.71,0,0,0-1.79.68v-.9a3.41,3.41,0,0,1,1.87-.52q1.94,0,1.94,2.05Zm-.88-2.78-1.33.18a2.15,2.15,0,0,0-.92.3.88.88,0,0,0-.31.77.84.84,0,0,0,.29.66,1.11,1.11,0,0,0,.77.25A1.41,1.41,0,0,0,59.12,87a1.64,1.64,0,0,0,.43-1.16Z" fill="#fff"/><path d="M63,88h-.88V79.9H63Z" fill="#fff"/><path d="M69.17,85.51H65.29a2.06,2.06,0,0,0,.49,1.42,1.7,1.7,0,0,0,1.3.5,2.7,2.7,0,0,0,1.71-.61v.83a3.19,3.19,0,0,1-1.92.53A2.33,2.33,0,0,1,65,87.42a3.07,3.07,0,0,1-.67-2.11,3,3,0,0,1,.73-2.09,2.33,2.33,0,0,1,1.81-.81,2.07,2.07,0,0,1,1.67.7A2.91,2.91,0,0,1,69.17,85Zm-.9-.75a1.8,1.8,0,0,0-.37-1.19,1.25,1.25,0,0,0-1-.42,1.42,1.42,0,0,0-1.06.45,2,2,0,0,0-.54,1.17Z" fill="#fff"/><path d="M75.2,88h-.88v-.93h0a2,2,0,0,1-1.89,1.06,2.06,2.06,0,0,1-1.66-.74,3,3,0,0,1-.62-2,3.29,3.29,0,0,1,.69-2.19,2.27,2.27,0,0,1,1.83-.82,1.76,1.76,0,0,1,1.65.89h0V79.9h.88Zm-.88-2.49v-.81a1.58,1.58,0,0,0-.44-1.13,1.48,1.48,0,0,0-1.12-.46,1.52,1.52,0,0,0-1.27.59A2.59,2.59,0,0,0,71,85.38a2.32,2.32,0,0,0,.44,1.5,1.45,1.45,0,0,0,1.19.55,1.51,1.51,0,0,0,1.2-.53A2,2,0,0,0,74.32,85.55Z" fill="#fff"/><path d="M87.8,88h-.88V84.88a2.38,2.38,0,0,0-.28-1.32,1.07,1.07,0,0,0-.95-.41,1.17,1.17,0,0,0-1,.52,2,2,0,0,0-.39,1.24V88h-.88V84.77q0-1.62-1.25-1.62a1.16,1.16,0,0,0-1,.49,2,2,0,0,0-.38,1.26V88H80v-5.5h.88v.87h0a1.87,1.87,0,0,1,1.71-1,1.59,1.59,0,0,1,1.56,1.14A2,2,0,0,1,86,82.41q1.82,0,1.82,2.24Z" fill="#fff"/><path d="M93.49,82.54l-1.85,2.78L93.46,88h-1l-1.08-1.78-.24-.42h0l-.25.42L89.73,88h-1l1.88-2.7-1.79-2.8h1l1.06,1.88.23.43h0l1.38-2.31Z" fill="#fff"/><path d="M95,81.14a.56.56,0,0,1-.4-.16.54.54,0,0,1-.17-.41A.56.56,0,0,1,95,80a.57.57,0,0,1,.41.16.58.58,0,0,1,0,.81A.57.57,0,0,1,95,81.14ZM95.4,88h-.88v-5.5h.88Z" fill="#fff"/><path d="M105,88h-.88V84.88a2.38,2.38,0,0,0-.28-1.32,1.07,1.07,0,0,0-.95-.41,1.17,1.17,0,0,0-1,.52,2,2,0,0,0-.39,1.24V88h-.88V84.77q0-1.62-1.25-1.62a1.16,1.16,0,0,0-1,.49,2,2,0,0,0-.38,1.26V88h-.88v-5.5h.88v.87h0a1.87,1.87,0,0,1,1.71-1,1.59,1.59,0,0,1,1.56,1.14,2,2,0,0,1,1.83-1.14q1.82,0,1.82,2.24Z" fill="#fff"/><path d="M111.1,88h-.88v-.87h0a1.81,1.81,0,0,1-1.7,1q-2,0-2-2.34V82.54h.88v3.15q0,1.74,1.33,1.74a1.35,1.35,0,0,0,1.06-.48,1.82,1.82,0,0,0,.42-1.24V82.54h.88Z" fill="#fff"/><path d="M120.69,88h-.88V84.88a2.38,2.38,0,0,0-.28-1.32,1.07,1.07,0,0,0-.95-.41,1.17,1.17,0,0,0-1,.52,2,2,0,0,0-.4,1.24V88h-.88V84.77q0-1.62-1.25-1.62a1.16,1.16,0,0,0-1,.49,2,2,0,0,0-.38,1.26V88h-.88v-5.5h.88v.87h0a1.87,1.87,0,0,1,1.71-1,1.59,1.59,0,0,1,1.56,1.14,2,2,0,0,1,1.83-1.14q1.81,0,1.82,2.24Z" fill="#fff"/><path d="M125.82,81.14a.56.56,0,0,1-.4-.16.54.54,0,0,1-.17-.41.56.56,0,0,1,.57-.57.57.57,0,0,1,.41.16.58.58,0,0,1,0,.81A.57.57,0,0,1,125.82,81.14Zm.43,6.9h-.88v-5.5h.88Z" fill="#fff"/><path d="M127.7,87.84V86.9a2.61,2.61,0,0,0,1.58.53q1.16,0,1.16-.77a.67.67,0,0,0-.1-.37,1,1,0,0,0-.27-.27,2.1,2.1,0,0,0-.4-.21l-.49-.2a6.26,6.26,0,0,1-.64-.29,1.93,1.93,0,0,1-.46-.33,1.25,1.25,0,0,1-.28-.42,1.5,1.5,0,0,1-.09-.55,1.31,1.31,0,0,1,.18-.68,1.57,1.57,0,0,1,.47-.5,2.19,2.19,0,0,1,.67-.3,3,3,0,0,1,.78-.1,3.17,3.17,0,0,1,1.28.25v.89a2.49,2.49,0,0,0-1.4-.4,1.61,1.61,0,0,0-.45.06,1.1,1.1,0,0,0-.34.16.73.73,0,0,0-.22.24.65.65,0,0,0-.08.31.76.76,0,0,0,.08.36.79.79,0,0,0,.23.26,1.75,1.75,0,0,0,.37.2l.49.2a7.11,7.11,0,0,1,.66.29,2.26,2.26,0,0,1,.49.33,1.3,1.3,0,0,1,.31.43,1.38,1.38,0,0,1,.11.57,1.35,1.35,0,0,1-.18.71,1.52,1.52,0,0,1-.48.5,2.22,2.22,0,0,1-.69.29,3.42,3.42,0,0,1-.82.1A3.13,3.13,0,0,1,127.7,87.84Z" fill="#fff"/><path d="M140.41,87.6q0,3-2.9,3a3.9,3.9,0,0,1-1.78-.39v-.88a3.67,3.67,0,0,0,1.77.52q2,0,2-2.16v-.6h0a2.22,2.22,0,0,1-3.54.32,2.93,2.93,0,0,1-.63-2,3.43,3.43,0,0,1,.67-2.23,2.26,2.26,0,0,1,1.85-.83,1.79,1.79,0,0,1,1.65.89h0v-.76h.88Zm-.88-2v-.81a1.57,1.57,0,0,0-.44-1.12,1.46,1.46,0,0,0-1.1-.47,1.53,1.53,0,0,0-1.28.59,2.65,2.65,0,0,0-.46,1.66,2.27,2.27,0,0,0,.44,1.47,1.43,1.43,0,0,0,1.17.55,1.53,1.53,0,0,0,1.21-.53A2,2,0,0,0,139.53,85.55Z" fill="#fff"/><path d="M145.06,83.43a1.08,1.08,0,0,0-.67-.18,1.12,1.12,0,0,0-.94.53,2.45,2.45,0,0,0-.38,1.45V88h-.88v-5.5h.88v1.13h0a1.93,1.93,0,0,1,.58-.91,1.31,1.31,0,0,1,.86-.33,1.44,1.44,0,0,1,.53.08Z" fill="#fff"/><path d="M150.29,85.51h-3.88a2.05,2.05,0,0,0,.49,1.42,1.7,1.7,0,0,0,1.3.5,2.7,2.7,0,0,0,1.71-.61v.83a3.19,3.19,0,0,1-1.92.53,2.33,2.33,0,0,1-1.83-.75,3.07,3.07,0,0,1-.67-2.11,3,3,0,0,1,.73-2.09,2.33,2.33,0,0,1,1.81-.81,2.07,2.07,0,0,1,1.67.7,2.91,2.91,0,0,1,.59,1.94Zm-.9-.75a1.79,1.79,0,0,0-.37-1.19,1.26,1.26,0,0,0-1-.42,1.42,1.42,0,0,0-1.06.45,2,2,0,0,0-.54,1.17Z" fill="#fff"/><path d="M155.56,88h-.88v-.86h0a1.84,1.84,0,0,1-1.69,1,1.81,1.81,0,0,1-1.29-.43,1.51,1.51,0,0,1-.46-1.16q0-1.54,1.82-1.79l1.65-.23q0-1.4-1.13-1.4a2.71,2.71,0,0,0-1.79.68v-.9a3.41,3.41,0,0,1,1.87-.52q1.94,0,1.94,2.05Zm-.88-2.78-1.33.18a2.15,2.15,0,0,0-.92.3.88.88,0,0,0-.31.77.84.84,0,0,0,.29.66,1.11,1.11,0,0,0,.77.25,1.41,1.41,0,0,0,1.08-.46,1.64,1.64,0,0,0,.43-1.16Z" fill="#fff"/><path d="M159.77,88a1.69,1.69,0,0,1-.82.17q-1.44,0-1.44-1.61V83.29h-.95v-.75h.95V81.2l.88-.28v1.63h1.39v.75h-1.39v3.1a1.29,1.29,0,0,0,.19.79.75.75,0,0,0,.62.24.92.92,0,0,0,.58-.18Z" fill="#fff"/><path d="M165.28,85.51H161.4a2.06,2.06,0,0,0,.49,1.42,1.7,1.7,0,0,0,1.3.5,2.7,2.7,0,0,0,1.71-.61v.83a3.19,3.19,0,0,1-1.92.53,2.33,2.33,0,0,1-1.83-.75,3.07,3.07,0,0,1-.67-2.11,3,3,0,0,1,.73-2.09,2.33,2.33,0,0,1,1.81-.81,2.07,2.07,0,0,1,1.67.7,2.91,2.91,0,0,1,.59,1.94Zm-.9-.75a1.8,1.8,0,0,0-.37-1.19,1.25,1.25,0,0,0-1-.42,1.42,1.42,0,0,0-1.06.45,2,2,0,0,0-.54,1.17Z" fill="#fff"/><path d="M169.48,83.43a1.08,1.08,0,0,0-.67-.18,1.12,1.12,0,0,0-.94.53,2.45,2.45,0,0,0-.38,1.45V88h-.88v-5.5h.88v1.13h0a1.92,1.92,0,0,1,.57-.91,1.31,1.31,0,0,1,.87-.33,1.45,1.45,0,0,1,.53.08Z" fill="#fff"/><path d="M176,88a1.69,1.69,0,0,1-.82.17q-1.44,0-1.44-1.61V83.29h-.95v-.75h.95V81.2l.88-.28v1.63H176v.75h-1.39v3.1a1.29,1.29,0,0,0,.19.79.75.75,0,0,0,.62.24.92.92,0,0,0,.58-.18Z" fill="#fff"/><path d="M181.75,88h-.88V84.87q0-1.72-1.28-1.72a1.39,1.39,0,0,0-1.08.5,1.85,1.85,0,0,0-.44,1.28V88h-.88V79.9h.88v3.56h0a2,2,0,0,1,1.8-1q1.86,0,1.86,2.24Z" fill="#fff"/><path d="M187.34,88h-.88v-.86h0a1.84,1.84,0,0,1-1.69,1,1.81,1.81,0,0,1-1.29-.43,1.5,1.5,0,0,1-.46-1.16q0-1.54,1.82-1.79l1.65-.23q0-1.4-1.13-1.4a2.71,2.71,0,0,0-1.79.68v-.9a3.41,3.41,0,0,1,1.87-.52q1.94,0,1.94,2.05Zm-.88-2.78-1.33.18a2.15,2.15,0,0,0-.92.3.87.87,0,0,0-.31.77.84.84,0,0,0,.29.66,1.11,1.11,0,0,0,.77.25A1.41,1.41,0,0,0,186,87a1.64,1.64,0,0,0,.43-1.16Z" fill="#fff"/><path d="M193.57,88h-.88V84.9q0-1.75-1.28-1.75a1.39,1.39,0,0,0-1.09.5,1.84,1.84,0,0,0-.43,1.25V88H189v-5.5h.88v.91h0a2,2,0,0,1,1.8-1,1.68,1.68,0,0,1,1.38.58,2.59,2.59,0,0,1,.48,1.68Z" fill="#fff"/><path d="M200.79,88a1.69,1.69,0,0,1-.82.17q-1.45,0-1.45-1.61V83.29h-.95v-.75h.95V81.2l.88-.28v1.63h1.39v.75h-1.39v3.1a1.28,1.28,0,0,0,.19.79.75.75,0,0,0,.62.24.92.92,0,0,0,.57-.18Z" fill="#fff"/><path d="M206.53,88h-.88V84.87q0-1.72-1.28-1.72a1.39,1.39,0,0,0-1.08.5,1.85,1.85,0,0,0-.44,1.28V88H202V79.9h.88v3.56h0a2,2,0,0,1,1.8-1q1.86,0,1.86,2.24Z" fill="#fff"/><path d="M212.61,85.51h-3.88a2.06,2.06,0,0,0,.49,1.42,1.7,1.7,0,0,0,1.3.5,2.7,2.7,0,0,0,1.71-.61v.83a3.19,3.19,0,0,1-1.92.53,2.33,2.33,0,0,1-1.83-.75,3.07,3.07,0,0,1-.67-2.11,3,3,0,0,1,.73-2.09,2.33,2.33,0,0,1,1.81-.81,2.07,2.07,0,0,1,1.67.7,2.91,2.91,0,0,1,.59,1.94Zm-.9-.75a1.8,1.8,0,0,0-.37-1.19,1.25,1.25,0,0,0-1-.42,1.42,1.42,0,0,0-1.06.45,2,2,0,0,0-.54,1.17Z" fill="#fff"/><path d="M216.62,87.84V86.9a2.61,2.61,0,0,0,1.58.53q1.16,0,1.16-.77a.67.67,0,0,0-.1-.37A1,1,0,0,0,219,86a2.1,2.1,0,0,0-.4-.21l-.49-.2a6.26,6.26,0,0,1-.64-.29A1.93,1.93,0,0,1,217,85a1.25,1.25,0,0,1-.28-.42,1.5,1.5,0,0,1-.09-.55,1.31,1.31,0,0,1,.18-.68,1.57,1.57,0,0,1,.47-.5,2.19,2.19,0,0,1,.67-.3,3,3,0,0,1,.78-.1,3.17,3.17,0,0,1,1.28.25v.89a2.49,2.49,0,0,0-1.4-.4,1.61,1.61,0,0,0-.45.06,1.1,1.1,0,0,0-.34.16.73.73,0,0,0-.22.24.65.65,0,0,0-.08.31.76.76,0,0,0,.08.36.79.79,0,0,0,.23.26,1.75,1.75,0,0,0,.37.2l.49.2a7.11,7.11,0,0,1,.66.29,2.26,2.26,0,0,1,.49.33,1.3,1.3,0,0,1,.31.43,1.38,1.38,0,0,1,.11.57,1.35,1.35,0,0,1-.18.71,1.52,1.52,0,0,1-.48.5,2.22,2.22,0,0,1-.69.29,3.42,3.42,0,0,1-.82.1A3.13,3.13,0,0,1,216.62,87.84Z" fill="#fff"/><path d="M225.37,87.79a2.87,2.87,0,0,1-1.5.38,2.49,2.49,0,0,1-1.9-.77,2.77,2.77,0,0,1-.72-2,3.05,3.05,0,0,1,.78-2.18,2.73,2.73,0,0,1,2.08-.82,2.9,2.9,0,0,1,1.28.27v.9a2.24,2.24,0,0,0-1.31-.43,1.77,1.77,0,0,0-1.38.6,2.29,2.29,0,0,0-.54,1.59,2.18,2.18,0,0,0,.51,1.53,1.75,1.75,0,0,0,1.36.56,2.21,2.21,0,0,0,1.35-.48Z" fill="#fff"/><path d="M230.64,88h-.88v-.86h0a1.84,1.84,0,0,1-1.69,1,1.81,1.81,0,0,1-1.29-.43,1.5,1.5,0,0,1-.46-1.16q0-1.54,1.82-1.79l1.65-.23q0-1.4-1.13-1.4a2.71,2.71,0,0,0-1.79.68v-.9a3.41,3.41,0,0,1,1.87-.52q1.94,0,1.94,2.05Zm-.88-2.78-1.33.18a2.15,2.15,0,0,0-.92.3.87.87,0,0,0-.31.77.84.84,0,0,0,.29.66,1.11,1.11,0,0,0,.77.25,1.41,1.41,0,0,0,1.08-.46,1.64,1.64,0,0,0,.43-1.16Z" fill="#fff"/><path d="M233.18,88h-.88V79.9h.88Z" fill="#fff"/><path d="M239.39,85.51H235.5a2.05,2.05,0,0,0,.49,1.42,1.7,1.7,0,0,0,1.3.5,2.7,2.7,0,0,0,1.71-.61v.83a3.19,3.19,0,0,1-1.92.53,2.33,2.33,0,0,1-1.83-.75,3.07,3.07,0,0,1-.67-2.11,3,3,0,0,1,.73-2.09,2.33,2.33,0,0,1,1.81-.81,2.07,2.07,0,0,1,1.67.7,2.91,2.91,0,0,1,.59,1.94Zm-.9-.75a1.79,1.79,0,0,0-.37-1.19,1.26,1.26,0,0,0-1-.42,1.42,1.42,0,0,0-1.06.45,2,2,0,0,0-.54,1.17Z" fill="#fff"/><path d="M245.41,88h-.88v-.93h0a2,2,0,0,1-1.89,1.06,2.06,2.06,0,0,1-1.66-.74,3,3,0,0,1-.62-2,3.3,3.3,0,0,1,.69-2.19,2.27,2.27,0,0,1,1.83-.82,1.76,1.76,0,0,1,1.65.89h0V79.9h.88Zm-.88-2.49v-.81a1.57,1.57,0,0,0-.44-1.13,1.48,1.48,0,0,0-1.12-.46,1.52,1.52,0,0,0-1.27.59,2.59,2.59,0,0,0-.46,1.63,2.32,2.32,0,0,0,.44,1.5,1.45,1.45,0,0,0,1.19.55,1.5,1.5,0,0,0,1.2-.53A2,2,0,0,0,244.53,85.55Z" fill="#fff"/><path d="M258,88h-.88V84.88a2.38,2.38,0,0,0-.28-1.32,1.07,1.07,0,0,0-.95-.41,1.17,1.17,0,0,0-1,.52,2,2,0,0,0-.4,1.24V88h-.88V84.77q0-1.62-1.25-1.62a1.16,1.16,0,0,0-1,.49,2,2,0,0,0-.38,1.26V88h-.88v-5.5h.88v.87h0a1.87,1.87,0,0,1,1.71-1,1.59,1.59,0,0,1,1.56,1.14,2,2,0,0,1,1.83-1.14q1.81,0,1.82,2.24Z" fill="#fff"/><path d="M260.14,81.14a.56.56,0,0,1-.4-.16.55.55,0,0,1-.17-.41.56.56,0,0,1,.57-.57.57.57,0,0,1,.41.16.58.58,0,0,1,0,.81A.57.57,0,0,1,260.14,81.14Zm.43,6.9h-.88v-5.5h.88Z" fill="#fff"/><path d="M266.92,88H266V84.9q0-1.75-1.28-1.75a1.39,1.39,0,0,0-1.09.5,1.84,1.84,0,0,0-.43,1.25V88h-.88v-5.5h.88v.91h0a2,2,0,0,1,1.8-1,1.68,1.68,0,0,1,1.38.58,2.59,2.59,0,0,1,.48,1.68Z" fill="#fff"/><path d="M269,81.14a.56.56,0,0,1-.4-.16.54.54,0,0,1-.17-.41A.56.56,0,0,1,269,80a.57.57,0,0,1,.41.16.58.58,0,0,1,0,.81A.57.57,0,0,1,269,81.14Zm.43,6.9h-.88v-5.5h.88Z" fill="#fff"/><path d="M279,88h-.88V84.88a2.38,2.38,0,0,0-.28-1.32,1.07,1.07,0,0,0-.95-.41,1.17,1.17,0,0,0-1,.52,2,2,0,0,0-.39,1.24V88h-.88V84.77q0-1.62-1.25-1.62a1.16,1.16,0,0,0-1,.49,2,2,0,0,0-.38,1.26V88h-.88v-5.5h.88v.87h0a1.87,1.87,0,0,1,1.71-1,1.59,1.59,0,0,1,1.56,1.14,2,2,0,0,1,1.83-1.14q1.82,0,1.82,2.24Z" fill="#fff"/><path d="M285.16,88h-.88v-.87h0a1.81,1.81,0,0,1-1.7,1q-2,0-2-2.34V82.54h.88v3.15q0,1.74,1.33,1.74a1.35,1.35,0,0,0,1.06-.48,1.82,1.82,0,0,0,.42-1.24V82.54h.88Z" fill="#fff"/><path d="M294.75,88h-.88V84.88a2.38,2.38,0,0,0-.28-1.32,1.07,1.07,0,0,0-.95-.41,1.17,1.17,0,0,0-1,.52,2,2,0,0,0-.4,1.24V88h-.88V84.77q0-1.62-1.25-1.62a1.16,1.16,0,0,0-1,.49,2,2,0,0,0-.38,1.26V88h-.88v-5.5h.88v.87h0a1.87,1.87,0,0,1,1.71-1,1.59,1.59,0,0,1,1.56,1.14,2,2,0,0,1,1.83-1.14q1.81,0,1.82,2.24Z" fill="#fff"/><path d="M296.72,88.16a.57.57,0,0,1-.42-.18.58.58,0,0,1-.17-.42.59.59,0,0,1,.17-.43.56.56,0,0,1,.42-.18.58.58,0,0,1,.43.18.59.59,0,0,1,.18.43.61.61,0,0,1-.61.6Z" fill="#fff"/><path d="M47.76,98.33v2.91h-.9v-7.7H49a2.79,2.79,0,0,1,1.92.6,2.15,2.15,0,0,1,.68,1.7,2.33,2.33,0,0,1-.75,1.79,2.89,2.89,0,0,1-2,.7Zm0-4v3.16h.95a2.11,2.11,0,0,0,1.43-.43,1.51,1.51,0,0,0,.49-1.21q0-1.53-1.8-1.53Z" fill="#fff"/><path d="M55.77,96.63a1.08,1.08,0,0,0-.67-.18,1.12,1.12,0,0,0-.94.53,2.45,2.45,0,0,0-.38,1.45v2.8H52.9v-5.5h.88v1.13h0a1.92,1.92,0,0,1,.58-.9,1.31,1.31,0,0,1,.86-.33,1.42,1.42,0,0,1,.53.08Z" fill="#fff"/><path d="M58.88,101.37a2.55,2.55,0,0,1-1.95-.77,2.86,2.86,0,0,1-.73-2A3,3,0,0,1,57,96.39a2.73,2.73,0,0,1,2-.78,2.47,2.47,0,0,1,1.92.76,3,3,0,0,1,.69,2.1,3,3,0,0,1-.74,2.11A2.61,2.61,0,0,1,58.88,101.37Zm.06-5a1.67,1.67,0,0,0-1.34.58,2.37,2.37,0,0,0-.49,1.59,2.24,2.24,0,0,0,.5,1.54,1.7,1.7,0,0,0,1.34.56,1.61,1.61,0,0,0,1.31-.55,2.4,2.4,0,0,0,.46-1.57,2.44,2.44,0,0,0-.46-1.59A1.6,1.6,0,0,0,58.95,96.35Z" fill="#fff"/><path d="M63.93,100.45h0v3.32H63v-8h.88v1h0a2.08,2.08,0,0,1,1.9-1.1,2,2,0,0,1,1.66.74,3.06,3.06,0,0,1,.6,2,3.4,3.4,0,0,1-.67,2.21,2.23,2.23,0,0,1-1.84.83A1.84,1.84,0,0,1,63.93,100.45Zm0-2.22V99a1.63,1.63,0,0,0,.44,1.16,1.58,1.58,0,0,0,2.38-.14,2.81,2.81,0,0,0,.45-1.7,2.22,2.22,0,0,0-.42-1.44,1.4,1.4,0,0,0-1.15-.52,1.56,1.56,0,0,0-1.24.53A2,2,0,0,0,63.91,98.23Z" fill="#fff"/><path d="M73.92,98.71H70a2.05,2.05,0,0,0,.49,1.42,1.7,1.7,0,0,0,1.3.5,2.7,2.7,0,0,0,1.71-.61v.83a3.2,3.2,0,0,1-1.92.53,2.33,2.33,0,0,1-1.83-.75,3.07,3.07,0,0,1-.67-2.11,3,3,0,0,1,.73-2.09,2.33,2.33,0,0,1,1.81-.81,2.07,2.07,0,0,1,1.67.7,2.91,2.91,0,0,1,.59,1.94ZM73,98a1.79,1.79,0,0,0-.37-1.19,1.26,1.26,0,0,0-1-.42,1.42,1.42,0,0,0-1.06.45A2,2,0,0,0,70,98Z" fill="#fff"/><path d="M78.12,96.63a1.08,1.08,0,0,0-.67-.18,1.12,1.12,0,0,0-.94.53,2.45,2.45,0,0,0-.38,1.45v2.8h-.88v-5.5h.88v1.13h0a1.92,1.92,0,0,1,.58-.9,1.31,1.31,0,0,1,.86-.33,1.42,1.42,0,0,1,.53.08Z" fill="#fff"/><path d="M81.94,101.19a1.7,1.7,0,0,1-.82.17q-1.45,0-1.45-1.61V96.49h-.95v-.75h.95V94.4l.88-.29v1.63h1.39v.75H80.55v3.1a1.28,1.28,0,0,0,.19.79.75.75,0,0,0,.62.24.93.93,0,0,0,.57-.18Z" fill="#fff"/><path d="M87.49,95.74,85,102.12q-.68,1.71-1.9,1.71a2,2,0,0,1-.58-.07V103a1.64,1.64,0,0,0,.52.1,1.08,1.08,0,0,0,1-.79l.44-1L82.3,95.74h1L84.76,100c0,.05.06.19.11.42h0c0-.09.05-.22.11-.41l1.56-4.24Z" fill="#fff"/><path d="M88.75,96.81a.57.57,0,0,1-.42-.18.58.58,0,0,1-.17-.42.57.57,0,0,1,.17-.42.58.58,0,0,1,.42-.17.59.59,0,0,1,.43.17.56.56,0,0,1,.18.42.58.58,0,0,1-.18.42A.59.59,0,0,1,88.75,96.81Zm0,4.54a.57.57,0,0,1-.42-.18.58.58,0,0,1-.17-.42.59.59,0,0,1,.17-.43.57.57,0,0,1,.42-.18.6.6,0,1,1,0,1.21Z" fill="#fff"/><path d="M101.81,101.24h-.9V96.07q0-.61.08-1.5h0a4.87,4.87,0,0,1-.23.75l-2.63,5.92h-.44L95,95.36a4.56,4.56,0,0,1-.23-.79h0q0,.46,0,1.51v5.16H94v-7.7h1.19l2.36,5.37a6.84,6.84,0,0,1,.35.92h0q.23-.63.37-.95l2.41-5.35h1.13Z" fill="#fff"/><path d="M104.17,94.34a.56.56,0,0,1-.4-.16.54.54,0,0,1-.17-.41.57.57,0,0,1,.57-.58.57.57,0,0,1,.41.16.55.55,0,0,1,.17.41.54.54,0,0,1-.17.4A.56.56,0,0,1,104.17,94.34Zm.43,6.9h-.88v-5.5h.88Z" fill="#fff"/><path d="M110.94,101.24h-.88V98.1q0-1.75-1.28-1.75a1.38,1.38,0,0,0-1.09.5,1.84,1.84,0,0,0-.43,1.25v3.14h-.88v-5.5h.88v.91h0a2,2,0,0,1,1.8-1,1.68,1.68,0,0,1,1.38.58,2.59,2.59,0,0,1,.48,1.68Z" fill="#fff"/><path d="M113.05,94.34a.56.56,0,0,1-.4-.16.55.55,0,0,1-.17-.41.56.56,0,0,1,.57-.58.57.57,0,0,1,.41.16.55.55,0,0,1,.17.41.54.54,0,0,1-.17.4A.56.56,0,0,1,113.05,94.34Zm.43,6.9h-.88v-5.5h.88Z" fill="#fff"/><path d="M123.08,101.24h-.88V98.08a2.38,2.38,0,0,0-.28-1.32,1.07,1.07,0,0,0-.95-.41,1.17,1.17,0,0,0-1,.52,2,2,0,0,0-.4,1.24v3.14h-.88V98q0-1.62-1.25-1.62a1.16,1.16,0,0,0-1,.49,2,2,0,0,0-.38,1.26v3.14h-.88v-5.5h.88v.87h0a1.87,1.87,0,0,1,1.71-1,1.59,1.59,0,0,1,1.56,1.14,2,2,0,0,1,1.83-1.14q1.81,0,1.82,2.24Z" fill="#fff"/><path d="M129.19,101.24h-.88v-.87h0a1.81,1.81,0,0,1-1.7,1q-2,0-2-2.34V95.74h.88v3.15q0,1.74,1.33,1.74a1.35,1.35,0,0,0,1.06-.48,1.82,1.82,0,0,0,.42-1.24V95.74h.88Z" fill="#fff"/><path d="M138.78,101.24h-.88V98.08a2.38,2.38,0,0,0-.28-1.32,1.07,1.07,0,0,0-.95-.41,1.17,1.17,0,0,0-1,.52,2,2,0,0,0-.39,1.24v3.14h-.88V98q0-1.62-1.25-1.62a1.16,1.16,0,0,0-1,.49,2,2,0,0,0-.38,1.26v3.14H131v-5.5h.88v.87h0a1.87,1.87,0,0,1,1.71-1,1.59,1.59,0,0,1,1,.31,1.57,1.57,0,0,1,.57.82A2,2,0,0,1,137,95.61q1.82,0,1.82,2.24Z" fill="#fff"/><path d="M52.1,114.12a4.52,4.52,0,0,1-2.13.45,3.43,3.43,0,0,1-2.63-1.06,3.9,3.9,0,0,1-1-2.78,4.09,4.09,0,0,1,1.11-3,3.77,3.77,0,0,1,2.82-1.14,4.53,4.53,0,0,1,1.82.32v1a3.68,3.68,0,0,0-1.83-.46,2.8,2.8,0,0,0-2.15.89,3.34,3.34,0,0,0-.82,2.37,3.18,3.18,0,0,0,.77,2.24,2.62,2.62,0,0,0,2,.83,3.8,3.8,0,0,0,2-.52Z" fill="#fff"/><path d="M55.85,114.57a2.55,2.55,0,0,1-1.95-.77,2.86,2.86,0,0,1-.73-2,3,3,0,0,1,.76-2.17,2.73,2.73,0,0,1,2-.78,2.47,2.47,0,0,1,1.92.76,3,3,0,0,1,.69,2.1,3,3,0,0,1-.74,2.11A2.61,2.61,0,0,1,55.85,114.57Zm.06-5a1.67,1.67,0,0,0-1.34.58,2.37,2.37,0,0,0-.49,1.59,2.24,2.24,0,0,0,.5,1.54,1.7,1.7,0,0,0,1.34.56,1.61,1.61,0,0,0,1.31-.55,2.4,2.4,0,0,0,.46-1.57,2.44,2.44,0,0,0-.46-1.59A1.6,1.6,0,0,0,55.92,109.55Z" fill="#fff"/><path d="M62.87,109.83a1.08,1.08,0,0,0-.67-.18,1.12,1.12,0,0,0-.94.53,2.45,2.45,0,0,0-.38,1.45v2.8H60v-5.5h.88v1.13h0a1.91,1.91,0,0,1,.57-.9,1.31,1.31,0,0,1,.87-.33,1.43,1.43,0,0,1,.53.08Z" fill="#fff"/><path d="M66.69,109.83a1.08,1.08,0,0,0-.67-.18,1.12,1.12,0,0,0-.94.53,2.45,2.45,0,0,0-.38,1.45v2.8h-.88v-5.5h.88v1.13h0a1.91,1.91,0,0,1,.57-.9,1.31,1.31,0,0,1,.87-.33,1.43,1.43,0,0,1,.53.08Z" fill="#fff"/><path d="M71.92,111.91H68a2.06,2.06,0,0,0,.49,1.42,1.71,1.71,0,0,0,1.3.5,2.7,2.7,0,0,0,1.71-.61V114a3.19,3.19,0,0,1-1.92.53,2.33,2.33,0,0,1-1.83-.75,3.07,3.07,0,0,1-.67-2.11,3,3,0,0,1,.73-2.09,2.33,2.33,0,0,1,1.81-.81,2.07,2.07,0,0,1,1.67.7,2.91,2.91,0,0,1,.59,1.94Zm-.9-.75a1.8,1.8,0,0,0-.37-1.19,1.26,1.26,0,0,0-1-.42,1.42,1.42,0,0,0-1.06.45,2,2,0,0,0-.54,1.17Z" fill="#fff"/><path d="M72.92,114.24v-.95a2.61,2.61,0,0,0,1.58.53q1.16,0,1.16-.77a.67.67,0,0,0-.1-.37,1,1,0,0,0-.27-.27,2.08,2.08,0,0,0-.4-.21l-.49-.2a6.34,6.34,0,0,1-.64-.29,1.94,1.94,0,0,1-.46-.33A1.23,1.23,0,0,1,73,111a1.49,1.49,0,0,1-.09-.55,1.31,1.31,0,0,1,.18-.68,1.58,1.58,0,0,1,.47-.5,2.23,2.23,0,0,1,.67-.3,3,3,0,0,1,.78-.1,3.15,3.15,0,0,1,1.28.25V110a2.49,2.49,0,0,0-1.4-.4,1.62,1.62,0,0,0-.45.06,1.08,1.08,0,0,0-.34.16.73.73,0,0,0-.22.24.63.63,0,0,0-.08.31.74.74,0,0,0,.08.36.8.8,0,0,0,.23.26,1.76,1.76,0,0,0,.37.2l.49.2a6.72,6.72,0,0,1,.66.29,2.29,2.29,0,0,1,.49.33,1.32,1.32,0,0,1,.31.43,1.38,1.38,0,0,1,.11.58,1.36,1.36,0,0,1-.18.71,1.54,1.54,0,0,1-.48.5,2.2,2.2,0,0,1-.69.3,3.42,3.42,0,0,1-.82.1A3.11,3.11,0,0,1,72.92,114.24Z" fill="#fff"/><path d="M78.82,113.65h0V117h-.88v-8h.88v1h0a2.08,2.08,0,0,1,1.9-1.1,2,2,0,0,1,1.66.74,3.06,3.06,0,0,1,.6,2,3.41,3.41,0,0,1-.67,2.21,2.24,2.24,0,0,1-1.84.83A1.84,1.84,0,0,1,78.82,113.65Zm0-2.22v.77a1.63,1.63,0,0,0,.44,1.16,1.58,1.58,0,0,0,2.38-.14,2.81,2.81,0,0,0,.45-1.7,2.22,2.22,0,0,0-.42-1.44,1.41,1.41,0,0,0-1.15-.52,1.56,1.56,0,0,0-1.24.53A2,2,0,0,0,78.8,111.43Z" fill="#fff"/><path d="M86.69,114.57a2.55,2.55,0,0,1-1.95-.77,2.86,2.86,0,0,1-.73-2,3,3,0,0,1,.76-2.17,2.72,2.72,0,0,1,2-.78,2.47,2.47,0,0,1,1.92.76,3,3,0,0,1,.69,2.1,3,3,0,0,1-.74,2.11A2.61,2.61,0,0,1,86.69,114.57Zm.06-5a1.68,1.68,0,0,0-1.34.58,2.37,2.37,0,0,0-.49,1.59,2.24,2.24,0,0,0,.5,1.54,1.7,1.7,0,0,0,1.34.56,1.61,1.61,0,0,0,1.31-.55,2.4,2.4,0,0,0,.46-1.57,2.44,2.44,0,0,0-.46-1.59A1.6,1.6,0,0,0,86.75,109.55Z" fill="#fff"/><path d="M95.4,114.44h-.88V111.3q0-1.75-1.28-1.75a1.38,1.38,0,0,0-1.09.5,1.84,1.84,0,0,0-.43,1.25v3.14h-.88v-5.5h.88v.91h0a2,2,0,0,1,1.8-1,1.68,1.68,0,0,1,1.38.58,2.59,2.59,0,0,1,.48,1.68Z" fill="#fff"/><path d="M101.75,114.44h-.88v-.93h0A2,2,0,0,1,99,114.57a2.06,2.06,0,0,1-1.66-.74,3,3,0,0,1-.62-2,3.29,3.29,0,0,1,.69-2.19,2.27,2.27,0,0,1,1.83-.82,1.76,1.76,0,0,1,1.65.89h0V106.3h.88Zm-.88-2.49v-.81a1.58,1.58,0,0,0-.44-1.13,1.48,1.48,0,0,0-1.12-.46,1.52,1.52,0,0,0-1.27.59,2.58,2.58,0,0,0-.46,1.63,2.33,2.33,0,0,0,.44,1.5,1.45,1.45,0,0,0,1.19.55,1.51,1.51,0,0,0,1.2-.53A2,2,0,0,0,100.87,112Z" fill="#fff"/><path d="M104,107.54a.56.56,0,0,1-.4-.16.55.55,0,0,1-.17-.41.56.56,0,0,1,.57-.58.57.57,0,0,1,.41.16.55.55,0,0,1,.17.41.54.54,0,0,1-.17.4A.56.56,0,0,1,104,107.54Zm.43,6.9h-.88v-5.5h.88Z" fill="#fff"/><path d="M110.77,114.44h-.88V111.3q0-1.75-1.28-1.75a1.38,1.38,0,0,0-1.09.5,1.84,1.84,0,0,0-.43,1.25v3.14h-.88v-5.5h.88v.91h0a2,2,0,0,1,1.8-1,1.68,1.68,0,0,1,1.38.58,2.59,2.59,0,0,1,.48,1.68Z" fill="#fff"/><path d="M117.12,114q0,3-2.9,3a3.9,3.9,0,0,1-1.78-.39v-.88a3.67,3.67,0,0,0,1.77.52q2,0,2-2.16v-.6h0a2.22,2.22,0,0,1-3.54.32,2.93,2.93,0,0,1-.63-2,3.42,3.42,0,0,1,.67-2.23,2.25,2.25,0,0,1,1.85-.83,1.79,1.79,0,0,1,1.65.89h0v-.76h.88Zm-.88-2v-.81a1.57,1.57,0,0,0-.44-1.12,1.46,1.46,0,0,0-1.1-.47,1.53,1.53,0,0,0-1.28.59,2.65,2.65,0,0,0-.46,1.66,2.27,2.27,0,0,0,.44,1.47,1.43,1.43,0,0,0,1.17.55,1.53,1.53,0,0,0,1.21-.53A2,2,0,0,0,116.24,112Z" fill="#fff"/><path d="M126.24,108.94l-2.19,5.5h-.86l-2.08-5.5h1l1.4,4a3.62,3.62,0,0,1,.19.77h0a3.56,3.56,0,0,1,.17-.75l1.46-4Z" fill="#fff"/><path d="M130.92,114.44H130v-.86h0a1.84,1.84,0,0,1-1.69,1,1.81,1.81,0,0,1-1.29-.44,1.5,1.5,0,0,1-.46-1.15q0-1.54,1.82-1.79L130,111q0-1.4-1.13-1.4a2.71,2.71,0,0,0-1.79.68v-.9a3.41,3.41,0,0,1,1.87-.52q1.94,0,1.94,2.05Zm-.88-2.78-1.33.18a2.14,2.14,0,0,0-.92.3.87.87,0,0,0-.31.77.84.84,0,0,0,.29.66,1.11,1.11,0,0,0,.77.25,1.41,1.41,0,0,0,1.08-.46,1.64,1.64,0,0,0,.43-1.16Z" fill="#fff"/><path d="M133.46,114.44h-.88V106.3h.88Z" fill="#fff"/><path d="M139.7,114.44h-.88v-.87h0a1.81,1.81,0,0,1-1.7,1q-2,0-2-2.34v-3.29H136v3.15q0,1.74,1.33,1.74a1.35,1.35,0,0,0,1.06-.48,1.82,1.82,0,0,0,.42-1.24v-3.17h.88Z" fill="#fff"/><path d="M145.89,111.91H142a2.06,2.06,0,0,0,.49,1.42,1.71,1.71,0,0,0,1.3.5,2.7,2.7,0,0,0,1.71-.61V114a3.19,3.19,0,0,1-1.92.53,2.33,2.33,0,0,1-1.83-.75,3.07,3.07,0,0,1-.67-2.11,3,3,0,0,1,.73-2.09,2.33,2.33,0,0,1,1.81-.81,2.07,2.07,0,0,1,1.67.7,2.91,2.91,0,0,1,.59,1.94Zm-.9-.75a1.8,1.8,0,0,0-.37-1.19,1.26,1.26,0,0,0-1-.42,1.42,1.42,0,0,0-1.06.45,2,2,0,0,0-.54,1.17Z" fill="#fff"/><path d="M147.53,110a.57.57,0,0,1-.42-.18.58.58,0,0,1-.17-.42.56.56,0,0,1,.17-.42.58.58,0,0,1,.42-.17.59.59,0,0,1,.43.17.56.56,0,0,1,.18.42.61.61,0,0,1-.61.6Zm0,4.54a.57.57,0,0,1-.42-.18.58.58,0,0,1-.17-.42.59.59,0,0,1,.17-.43.57.57,0,0,1,.42-.18.58.58,0,0,1,.43.18.59.59,0,0,1,.18.43.61.61,0,0,1-.61.6Z" fill="#fff"/><path d="M155.88,108.76a1.58,1.58,0,0,0-.11-.62,1.21,1.21,0,0,0-.3-.44,1.24,1.24,0,0,0-.45-.26,1.77,1.77,0,0,0-.56-.09,1.84,1.84,0,0,0-.5.07,2.38,2.38,0,0,0-.48.19,2.91,2.91,0,0,0-.45.29,3.25,3.25,0,0,0-.41.38v-.95a2.63,2.63,0,0,1,.83-.55,2.93,2.93,0,0,1,1.12-.19,2.72,2.72,0,0,1,.88.14,2,2,0,0,1,.7.4,1.84,1.84,0,0,1,.46.65,2.19,2.19,0,0,1,.17.89,3,3,0,0,1-.11.83,2.54,2.54,0,0,1-.32.7,3.38,3.38,0,0,1-.53.63,7.4,7.4,0,0,1-.76.61l-.89.66a4,4,0,0,0-.56.51,1.49,1.49,0,0,0-.29.48,1.69,1.69,0,0,0-.08.55h3.83v.79h-4.75v-.38a3.16,3.16,0,0,1,.11-.87,2.25,2.25,0,0,1,.35-.71,3.94,3.94,0,0,1,.65-.68q.4-.34,1-.76a6.32,6.32,0,0,0,.7-.58,3,3,0,0,0,.45-.55,2,2,0,0,0,.24-.56A2.42,2.42,0,0,0,155.88,108.76Z" fill="#fff"/><path d="M158.86,114.56a.57.57,0,0,1-.42-.18.58.58,0,0,1-.17-.42.59.59,0,0,1,.17-.43.57.57,0,0,1,.42-.18.6.6,0,1,1,0,1.21Z" fill="#fff"/><path d="M165.52,110.56a7.53,7.53,0,0,1-.17,1.71,4,4,0,0,1-.5,1.26,2.26,2.26,0,0,1-.81.78,2.21,2.21,0,0,1-1.09.27,2.08,2.08,0,0,1-1-.25,2.17,2.17,0,0,1-.77-.74,3.78,3.78,0,0,1-.47-1.2,7.42,7.42,0,0,1-.16-1.63,8.43,8.43,0,0,1,.17-1.78,4.1,4.1,0,0,1,.5-1.3,2.22,2.22,0,0,1,.81-.79,2.29,2.29,0,0,1,1.12-.27Q165.52,106.61,165.52,110.56Zm-.9.09q0-3.29-1.56-3.29t-1.65,3.35q0,3.12,1.62,3.12T164.62,110.64Z" fill="#fff"/><path d="M171.29,111.91H167.4a2.06,2.06,0,0,0,.49,1.42,1.71,1.71,0,0,0,1.3.5,2.7,2.7,0,0,0,1.71-.61V114a3.19,3.19,0,0,1-1.92.53,2.33,2.33,0,0,1-1.83-.75,3.07,3.07,0,0,1-.67-2.11,3,3,0,0,1,.73-2.09,2.33,2.33,0,0,1,1.81-.81,2.07,2.07,0,0,1,1.67.7,2.91,2.91,0,0,1,.59,1.94Zm-.9-.75A1.8,1.8,0,0,0,170,110a1.26,1.26,0,0,0-1-.42A1.42,1.42,0,0,0,168,110a2,2,0,0,0-.54,1.17Z" fill="#fff"/><path d="M175.43,111.72H172.5V111h2.93Z" fill="#fff"/><path d="M181.25,112.26a2.25,2.25,0,0,1-.2.95,2.11,2.11,0,0,1-.55.73,2.55,2.55,0,0,1-.86.47,3.48,3.48,0,0,1-1.1.17,3.2,3.2,0,0,1-1.75-.42v-.95a2.8,2.8,0,0,0,1.78.61,2.44,2.44,0,0,0,.73-.1,1.64,1.64,0,0,0,.56-.3,1.31,1.31,0,0,0,.36-.47,1.45,1.45,0,0,0,.13-.62q0-1.51-2.15-1.51h-.64v-.75h.61q1.9,0,1.9-1.42t-1.45-1.31a2.47,2.47,0,0,0-1.53.55V107a3.35,3.35,0,0,1,1.75-.44,2.71,2.71,0,0,1,.88.13,2,2,0,0,1,.67.38,1.67,1.67,0,0,1,.43.58,1.8,1.8,0,0,1,.15.75,1.88,1.88,0,0,1-1.54,2v0a2.41,2.41,0,0,1,.72.19,1.94,1.94,0,0,1,.58.38,1.7,1.7,0,0,1,.38.56A1.76,1.76,0,0,1,181.25,112.26Z" fill="#fff"/><path d="M47.76,124.73v2.91h-.9v-7.7H49a2.8,2.8,0,0,1,1.92.6,2.15,2.15,0,0,1,.68,1.7,2.33,2.33,0,0,1-.75,1.79,2.88,2.88,0,0,1-2,.7Zm0-4v3.16h.95a2.11,2.11,0,0,0,1.43-.43,1.51,1.51,0,0,0,.49-1.21q0-1.52-1.8-1.53Z" fill="#fff"/><path d="M55.77,123a1.08,1.08,0,0,0-.67-.18,1.12,1.12,0,0,0-.94.53,2.45,2.45,0,0,0-.38,1.45v2.8H52.9v-5.5h.88v1.13h0a1.93,1.93,0,0,1,.58-.91,1.31,1.31,0,0,1,.86-.33,1.44,1.44,0,0,1,.53.08Z" fill="#fff"/><path d="M58.88,127.77a2.55,2.55,0,0,1-1.95-.77,2.85,2.85,0,0,1-.73-2,3,3,0,0,1,.76-2.16,2.72,2.72,0,0,1,2-.78,2.47,2.47,0,0,1,1.92.76,3,3,0,0,1,.69,2.1,3,3,0,0,1-.74,2.11A2.61,2.61,0,0,1,58.88,127.77Zm.06-5a1.67,1.67,0,0,0-1.34.58,2.37,2.37,0,0,0-.49,1.59,2.24,2.24,0,0,0,.5,1.54,1.7,1.7,0,0,0,1.34.56,1.61,1.61,0,0,0,1.31-.55,2.4,2.4,0,0,0,.46-1.57,2.45,2.45,0,0,0-.46-1.59A1.61,1.61,0,0,0,58.95,122.75Z" fill="#fff"/><path d="M63.93,126.84h0v3.33H63v-8h.88v1h0a2.08,2.08,0,0,1,1.9-1.1,2,2,0,0,1,1.66.74,3.06,3.06,0,0,1,.6,2,3.4,3.4,0,0,1-.67,2.21,2.23,2.23,0,0,1-1.84.83A1.84,1.84,0,0,1,63.93,126.84Zm0-2.22v.77a1.63,1.63,0,0,0,.44,1.16,1.58,1.58,0,0,0,2.38-.14,2.81,2.81,0,0,0,.45-1.7,2.21,2.21,0,0,0-.42-1.44,1.4,1.4,0,0,0-1.15-.52,1.56,1.56,0,0,0-1.24.53A2,2,0,0,0,63.91,124.63Z" fill="#fff"/><path d="M73.92,125.11H70a2.05,2.05,0,0,0,.49,1.42,1.7,1.7,0,0,0,1.3.5,2.7,2.7,0,0,0,1.71-.61v.83a3.19,3.19,0,0,1-1.92.53,2.33,2.33,0,0,1-1.83-.75,3.07,3.07,0,0,1-.67-2.11,3,3,0,0,1,.73-2.09,2.33,2.33,0,0,1,1.81-.81,2.07,2.07,0,0,1,1.67.7,2.91,2.91,0,0,1,.59,1.94Zm-.9-.75a1.79,1.79,0,0,0-.37-1.19,1.26,1.26,0,0,0-1-.42,1.42,1.42,0,0,0-1.06.45,2,2,0,0,0-.54,1.17Z" fill="#fff"/><path d="M78.12,123a1.08,1.08,0,0,0-.67-.18,1.12,1.12,0,0,0-.94.53,2.45,2.45,0,0,0-.38,1.45v2.8h-.88v-5.5h.88v1.13h0a1.93,1.93,0,0,1,.58-.91,1.31,1.31,0,0,1,.86-.33,1.44,1.44,0,0,1,.53.08Z" fill="#fff"/><path d="M81.94,127.59a1.69,1.69,0,0,1-.82.17q-1.45,0-1.45-1.61v-3.25h-.95v-.75h.95V120.8l.88-.28v1.63h1.39v.75H80.55V126a1.28,1.28,0,0,0,.19.79.75.75,0,0,0,.62.24.92.92,0,0,0,.57-.18Z" fill="#fff"/><path d="M87.49,122.14,85,128.52q-.68,1.71-1.9,1.71a2,2,0,0,1-.58-.07v-.79a1.64,1.64,0,0,0,.52.1,1.08,1.08,0,0,0,1-.79l.44-1-2.15-5.49h1l1.49,4.23c0,.05.06.19.11.42h0c0-.09.05-.22.11-.41l1.56-4.24Z" fill="#fff"/><path d="M88.75,123.21a.57.57,0,0,1-.42-.18.58.58,0,0,1-.17-.42.57.57,0,0,1,.17-.42.58.58,0,0,1,.42-.17.6.6,0,0,1,.43.17.56.56,0,0,1,.18.42.58.58,0,0,1-.18.42A.59.59,0,0,1,88.75,123.21Zm0,4.54a.57.57,0,0,1-.42-.18.58.58,0,0,1-.17-.42.59.59,0,0,1,.17-.43.56.56,0,0,1,.42-.18.58.58,0,0,1,.43.18.59.59,0,0,1,.18.43.58.58,0,0,1-.18.42A.59.59,0,0,1,88.75,127.76Z" fill="#fff"/><path d="M101.81,127.64h-.9v-5.17q0-.61.08-1.5h0a4.89,4.89,0,0,1-.23.75l-2.63,5.92h-.44L95,121.76a4.54,4.54,0,0,1-.23-.79h0q0,.46,0,1.51v5.16H94v-7.7h1.19l2.36,5.37a6.89,6.89,0,0,1,.35.92h0q.23-.63.37-.95l2.41-5.35h1.13Z" fill="#fff"/><path d="M107.65,127.64h-.88v-.86h0a1.84,1.84,0,0,1-1.69,1,1.81,1.81,0,0,1-1.29-.43,1.51,1.51,0,0,1-.46-1.16q0-1.54,1.82-1.79l1.65-.23q0-1.4-1.13-1.4a2.71,2.71,0,0,0-1.79.68v-.9a3.41,3.41,0,0,1,1.87-.52q1.94,0,1.94,2.05Zm-.88-2.78-1.33.18a2.15,2.15,0,0,0-.92.3.88.88,0,0,0-.31.77.84.84,0,0,0,.29.66,1.11,1.11,0,0,0,.77.25,1.41,1.41,0,0,0,1.08-.46,1.64,1.64,0,0,0,.43-1.16Z" fill="#fff"/><path d="M113.33,122.14l-1.85,2.78,1.82,2.72h-1l-1.08-1.78-.24-.42h0l-.25.42-1.1,1.78h-1l1.88-2.7-1.79-2.8h1l1.06,1.88.23.43h0l1.38-2.31Z" fill="#fff"/><path d="M114.81,120.74a.56.56,0,0,1-.4-.16.54.54,0,0,1-.17-.41.56.56,0,0,1,.57-.57.57.57,0,0,1,.41.16.58.58,0,0,1,0,.81A.57.57,0,0,1,114.81,120.74Zm.43,6.9h-.88v-5.5h.88Z" fill="#fff"/><path d="M124.83,127.64H124v-3.16a2.38,2.38,0,0,0-.28-1.32,1.07,1.07,0,0,0-.95-.41,1.17,1.17,0,0,0-1,.52,2,2,0,0,0-.39,1.24v3.14h-.88v-3.27q0-1.62-1.25-1.62a1.16,1.16,0,0,0-1,.49,2,2,0,0,0-.38,1.26v3.14H117v-5.5h.88V123h0a1.87,1.87,0,0,1,1.71-1,1.59,1.59,0,0,1,1.56,1.14A2,2,0,0,1,123,122q1.82,0,1.82,2.24Z" fill="#fff"/><path d="M130.95,127.64h-.88v-.87h0a1.81,1.81,0,0,1-1.7,1q-2,0-2-2.34v-3.29h.88v3.15q0,1.74,1.33,1.74a1.35,1.35,0,0,0,1.06-.48,1.82,1.82,0,0,0,.42-1.24v-3.17h.88Z" fill="#fff"/><path d="M140.53,127.64h-.88v-3.16a2.38,2.38,0,0,0-.28-1.32,1.07,1.07,0,0,0-.95-.41,1.17,1.17,0,0,0-1,.52,2,2,0,0,0-.4,1.24v3.14h-.88v-3.27q0-1.62-1.25-1.62a1.16,1.16,0,0,0-1,.49,2,2,0,0,0-.38,1.26v3.14h-.88v-5.5h.88V123h0a1.87,1.87,0,0,1,1.71-1,1.59,1.59,0,0,1,1.56,1.14,2,2,0,0,1,1.83-1.14q1.81,0,1.82,2.24Z" fill="#fff"/><path d="M52.1,140.52A4.52,4.52,0,0,1,50,141a3.43,3.43,0,0,1-2.63-1.06,3.9,3.9,0,0,1-1-2.78,4.09,4.09,0,0,1,1.11-3A3.78,3.78,0,0,1,50.29,133a4.51,4.51,0,0,1,1.82.32v1a3.69,3.69,0,0,0-1.83-.46,2.8,2.8,0,0,0-2.15.89,3.34,3.34,0,0,0-.82,2.37,3.18,3.18,0,0,0,.77,2.24,2.62,2.62,0,0,0,2,.84,3.8,3.8,0,0,0,2-.52Z" fill="#fff"/><path d="M55.85,141a2.55,2.55,0,0,1-1.95-.77,2.85,2.85,0,0,1-.73-2,3,3,0,0,1,.76-2.16,2.72,2.72,0,0,1,2-.78,2.47,2.47,0,0,1,1.92.76,3,3,0,0,1,.69,2.1,3,3,0,0,1-.74,2.11A2.61,2.61,0,0,1,55.85,141Zm.06-5a1.67,1.67,0,0,0-1.34.58,2.37,2.37,0,0,0-.49,1.59,2.24,2.24,0,0,0,.5,1.54,1.7,1.7,0,0,0,1.34.56,1.61,1.61,0,0,0,1.31-.55,2.4,2.4,0,0,0,.46-1.57,2.45,2.45,0,0,0-.46-1.59A1.61,1.61,0,0,0,55.92,136Z" fill="#fff"/><path d="M62.87,136.23a1.08,1.08,0,0,0-.67-.18,1.12,1.12,0,0,0-.94.53,2.45,2.45,0,0,0-.38,1.45v2.8H60v-5.5h.88v1.13h0a1.92,1.92,0,0,1,.57-.91,1.31,1.31,0,0,1,.87-.33,1.45,1.45,0,0,1,.53.08Z" fill="#fff"/><path d="M66.69,136.23a1.08,1.08,0,0,0-.67-.18,1.12,1.12,0,0,0-.94.53A2.45,2.45,0,0,0,64.7,138v2.8h-.88v-5.5h.88v1.13h0a1.92,1.92,0,0,1,.57-.91,1.31,1.31,0,0,1,.87-.33,1.45,1.45,0,0,1,.53.08Z" fill="#fff"/><path d="M71.92,138.31H68a2.06,2.06,0,0,0,.49,1.42,1.7,1.7,0,0,0,1.3.5,2.7,2.7,0,0,0,1.71-.61v.83a3.19,3.19,0,0,1-1.92.53,2.33,2.33,0,0,1-1.83-.75,3.07,3.07,0,0,1-.67-2.11,3,3,0,0,1,.73-2.09,2.33,2.33,0,0,1,1.81-.81,2.07,2.07,0,0,1,1.67.7,2.91,2.91,0,0,1,.59,1.94Zm-.9-.75a1.8,1.8,0,0,0-.37-1.19,1.25,1.25,0,0,0-1-.42,1.42,1.42,0,0,0-1.06.45,2,2,0,0,0-.54,1.17Z" fill="#fff"/><path d="M72.92,140.64v-.95a2.6,2.6,0,0,0,1.58.53q1.16,0,1.16-.77a.68.68,0,0,0-.1-.37,1,1,0,0,0-.27-.27,2.13,2.13,0,0,0-.4-.21l-.49-.2a6.34,6.34,0,0,1-.64-.29,1.91,1.91,0,0,1-.46-.33,1.24,1.24,0,0,1-.28-.42,1.5,1.5,0,0,1-.09-.55,1.31,1.31,0,0,1,.18-.68,1.58,1.58,0,0,1,.47-.5,2.2,2.2,0,0,1,.67-.3,3,3,0,0,1,.78-.1,3.17,3.17,0,0,1,1.28.25v.89a2.5,2.5,0,0,0-1.4-.4,1.62,1.62,0,0,0-.45.06,1.1,1.1,0,0,0-.34.16.73.73,0,0,0-.22.24.64.64,0,0,0-.08.31.75.75,0,0,0,.08.36.8.8,0,0,0,.23.26,1.8,1.8,0,0,0,.37.2l.49.2q.36.14.66.29a2.29,2.29,0,0,1,.49.33,1.33,1.33,0,0,1,.31.43,1.38,1.38,0,0,1,.11.57,1.35,1.35,0,0,1-.18.71,1.54,1.54,0,0,1-.48.5,2.22,2.22,0,0,1-.69.29,3.42,3.42,0,0,1-.82.1A3.13,3.13,0,0,1,72.92,140.64Z" fill="#fff"/><path d="M78.82,140h0v3.33h-.88v-8h.88v1h0a2.08,2.08,0,0,1,1.9-1.1,2,2,0,0,1,1.66.74,3.06,3.06,0,0,1,.6,2,3.41,3.41,0,0,1-.67,2.21,2.24,2.24,0,0,1-1.84.83A1.84,1.84,0,0,1,78.82,140Zm0-2.22v.77a1.63,1.63,0,0,0,.44,1.16,1.58,1.58,0,0,0,2.38-.14,2.81,2.81,0,0,0,.45-1.7,2.22,2.22,0,0,0-.42-1.44,1.4,1.4,0,0,0-1.15-.52,1.56,1.56,0,0,0-1.24.53A2,2,0,0,0,78.8,137.83Z" fill="#fff"/><path d="M86.69,141a2.55,2.55,0,0,1-1.95-.77,2.86,2.86,0,0,1-.73-2,3,3,0,0,1,.76-2.16,2.72,2.72,0,0,1,2-.78,2.47,2.47,0,0,1,1.92.76,3,3,0,0,1,.69,2.1,3,3,0,0,1-.74,2.11A2.6,2.6,0,0,1,86.69,141Zm.06-5a1.68,1.68,0,0,0-1.34.58,2.38,2.38,0,0,0-.49,1.59,2.24,2.24,0,0,0,.5,1.54,1.7,1.7,0,0,0,1.34.56,1.61,1.61,0,0,0,1.31-.55,2.4,2.4,0,0,0,.46-1.57,2.45,2.45,0,0,0-.46-1.59A1.61,1.61,0,0,0,86.75,136Z" fill="#fff"/><path d="M95.4,140.84h-.88V137.7q0-1.75-1.28-1.75a1.39,1.39,0,0,0-1.09.5,1.84,1.84,0,0,0-.43,1.25v3.14h-.88v-5.5h.88v.91h0a2,2,0,0,1,1.8-1,1.68,1.68,0,0,1,1.38.58,2.6,2.6,0,0,1,.48,1.68Z" fill="#fff"/><path d="M101.75,140.84h-.88v-.93h0A2,2,0,0,1,99,141a2.06,2.06,0,0,1-1.66-.74,3,3,0,0,1-.62-2,3.29,3.29,0,0,1,.69-2.19,2.27,2.27,0,0,1,1.83-.82,1.76,1.76,0,0,1,1.65.89h0V132.7h.88Zm-.88-2.49v-.81a1.58,1.58,0,0,0-.44-1.13,1.48,1.48,0,0,0-1.12-.46,1.52,1.52,0,0,0-1.27.59,2.59,2.59,0,0,0-.46,1.63,2.32,2.32,0,0,0,.44,1.5,1.45,1.45,0,0,0,1.19.55,1.51,1.51,0,0,0,1.2-.53A2,2,0,0,0,100.87,138.35Z" fill="#fff"/><path d="M104,133.94a.56.56,0,0,1-.4-.16.55.55,0,0,1-.17-.41.56.56,0,0,1,.57-.57.57.57,0,0,1,.41.16.58.58,0,0,1,0,.81A.57.57,0,0,1,104,133.94Zm.43,6.9h-.88v-5.5h.88Z" fill="#fff"/><path d="M110.77,140.84h-.88V137.7q0-1.75-1.28-1.75a1.39,1.39,0,0,0-1.09.5,1.84,1.84,0,0,0-.43,1.25v3.14h-.88v-5.5h.88v.91h0a2,2,0,0,1,1.8-1,1.68,1.68,0,0,1,1.38.58,2.59,2.59,0,0,1,.48,1.68Z" fill="#fff"/><path d="M117.12,140.4q0,3-2.9,3a3.9,3.9,0,0,1-1.78-.39v-.88a3.67,3.67,0,0,0,1.77.52q2,0,2-2.16v-.6h0a2.22,2.22,0,0,1-3.54.32,2.93,2.93,0,0,1-.63-2,3.43,3.43,0,0,1,.67-2.23,2.26,2.26,0,0,1,1.85-.83,1.79,1.79,0,0,1,1.65.89h0v-.76h.88Zm-.88-2v-.81a1.57,1.57,0,0,0-.44-1.12,1.46,1.46,0,0,0-1.1-.47,1.53,1.53,0,0,0-1.28.59,2.65,2.65,0,0,0-.46,1.66,2.27,2.27,0,0,0,.44,1.47,1.43,1.43,0,0,0,1.17.55,1.53,1.53,0,0,0,1.21-.53A2,2,0,0,0,116.24,138.35Z" fill="#fff"/><path d="M126.24,135.34l-2.19,5.5h-.86l-2.08-5.5h1l1.4,4a3.63,3.63,0,0,1,.19.77h0a3.57,3.57,0,0,1,.17-.75l1.46-4Z" fill="#fff"/><path d="M130.92,140.84H130V140h0a1.84,1.84,0,0,1-1.69,1,1.81,1.81,0,0,1-1.29-.43,1.5,1.5,0,0,1-.46-1.16q0-1.54,1.82-1.79l1.65-.23q0-1.4-1.13-1.4a2.71,2.71,0,0,0-1.79.68v-.9a3.41,3.41,0,0,1,1.87-.52q1.94,0,1.94,2.05Zm-.88-2.78-1.33.18a2.15,2.15,0,0,0-.92.3.87.87,0,0,0-.31.77.84.84,0,0,0,.29.66,1.11,1.11,0,0,0,.77.25,1.41,1.41,0,0,0,1.08-.46,1.64,1.64,0,0,0,.43-1.16Z" fill="#fff"/><path d="M133.46,140.84h-.88V132.7h.88Z" fill="#fff"/><path d="M139.7,140.84h-.88V140h0a1.81,1.81,0,0,1-1.7,1q-2,0-2-2.34v-3.29H136v3.15q0,1.74,1.33,1.74a1.35,1.35,0,0,0,1.06-.48,1.82,1.82,0,0,0,.42-1.24v-3.17h.88Z" fill="#fff"/><path d="M145.89,138.31H142a2.06,2.06,0,0,0,.49,1.42,1.7,1.7,0,0,0,1.3.5,2.7,2.7,0,0,0,1.71-.61v.83a3.19,3.19,0,0,1-1.92.53,2.33,2.33,0,0,1-1.83-.75,3.07,3.07,0,0,1-.67-2.11,3,3,0,0,1,.73-2.09,2.33,2.33,0,0,1,1.81-.81,2.07,2.07,0,0,1,1.67.7,2.91,2.91,0,0,1,.59,1.94Zm-.9-.75a1.8,1.8,0,0,0-.37-1.19,1.25,1.25,0,0,0-1-.42,1.42,1.42,0,0,0-1.06.45,2,2,0,0,0-.54,1.17Z" fill="#fff"/><path d="M147.53,136.41a.57.57,0,0,1-.42-.18.58.58,0,0,1-.17-.42.56.56,0,0,1,.17-.42.58.58,0,0,1,.42-.17.59.59,0,0,1,.43.17.56.56,0,0,1,.18.42.61.61,0,0,1-.61.6Zm0,4.54a.57.57,0,0,1-.42-.18.58.58,0,0,1-.17-.42.59.59,0,0,1,.17-.43.56.56,0,0,1,.42-.18.58.58,0,0,1,.43.18.59.59,0,0,1,.18.43.61.61,0,0,1-.61.6Z" fill="#fff"/><path d="M155.62,140.84h-.88v-6.65a2,2,0,0,1-.3.23,4.82,4.82,0,0,1-.44.26l-.52.24a3.75,3.75,0,0,1-.53.18v-.89a5.22,5.22,0,0,0,.62-.22c.22-.09.43-.19.64-.31s.41-.23.59-.35a4.57,4.57,0,0,0,.48-.36h.33Z" fill="#fff"/><path d="M158.86,141a.57.57,0,0,1-.42-.18.58.58,0,0,1-.17-.42.59.59,0,0,1,.17-.43.56.56,0,0,1,.42-.18.58.58,0,0,1,.43.18.59.59,0,0,1,.18.43.58.58,0,0,1-.18.42A.59.59,0,0,1,158.86,141Z" fill="#fff"/><path d="M165.52,137a7.51,7.51,0,0,1-.17,1.71,4,4,0,0,1-.5,1.26,2.26,2.26,0,0,1-.81.78,2.21,2.21,0,0,1-1.09.27,2.07,2.07,0,0,1-1-.26,2.17,2.17,0,0,1-.77-.74,3.79,3.79,0,0,1-.47-1.2,7.42,7.42,0,0,1-.16-1.63,8.44,8.44,0,0,1,.17-1.78,4.1,4.1,0,0,1,.5-1.3,2.22,2.22,0,0,1,.81-.79,2.29,2.29,0,0,1,1.12-.27Q165.52,133,165.52,137Zm-.9.09q0-3.29-1.56-3.29t-1.65,3.35q0,3.12,1.62,3.12T164.62,137Z" fill="#fff"/><path d="M171.29,138.31H167.4a2.06,2.06,0,0,0,.49,1.42,1.7,1.7,0,0,0,1.3.5,2.7,2.7,0,0,0,1.71-.61v.83A3.19,3.19,0,0,1,169,141a2.33,2.33,0,0,1-1.83-.75,3.07,3.07,0,0,1-.67-2.11,3,3,0,0,1,.73-2.09,2.33,2.33,0,0,1,1.81-.81,2.07,2.07,0,0,1,1.67.7,2.91,2.91,0,0,1,.59,1.94Zm-.9-.75a1.8,1.8,0,0,0-.37-1.19,1.25,1.25,0,0,0-1-.42,1.42,1.42,0,0,0-1.06.45,2,2,0,0,0-.54,1.17Z" fill="#fff"/><path d="M175.43,138.12H172.5v-.69h2.93Z" fill="#fff"/><path d="M181.25,138.66a2.24,2.24,0,0,1-.2.95,2.1,2.1,0,0,1-.55.73,2.54,2.54,0,0,1-.86.47,3.46,3.46,0,0,1-1.1.17,3.2,3.2,0,0,1-1.75-.42v-.95a2.8,2.8,0,0,0,1.78.61,2.41,2.41,0,0,0,.73-.1,1.62,1.62,0,0,0,.56-.29,1.32,1.32,0,0,0,.36-.47,1.45,1.45,0,0,0,.13-.62q0-1.51-2.15-1.51h-.64v-.75h.61q1.9,0,1.9-1.42t-1.45-1.31a2.47,2.47,0,0,0-1.53.55v-.85a3.35,3.35,0,0,1,1.75-.44,2.69,2.69,0,0,1,.88.13,2,2,0,0,1,.67.38,1.67,1.67,0,0,1,.43.58,1.8,1.8,0,0,1,.15.75,1.88,1.88,0,0,1-1.54,2v0a2.47,2.47,0,0,1,.72.19,1.92,1.92,0,0,1,.58.38,1.7,1.7,0,0,1,.38.56A1.76,1.76,0,0,1,181.25,138.66Z" fill="#fff"/><path d="M52.1,153.72a4.52,4.52,0,0,1-2.13.45,3.43,3.43,0,0,1-2.63-1.06,3.9,3.9,0,0,1-1-2.78,4.09,4.09,0,0,1,1.11-3,3.78,3.78,0,0,1,2.82-1.14,4.51,4.51,0,0,1,1.82.32v1a3.69,3.69,0,0,0-1.83-.46,2.8,2.8,0,0,0-2.15.89,3.34,3.34,0,0,0-.82,2.37,3.18,3.18,0,0,0,.77,2.24,2.62,2.62,0,0,0,2,.84,3.8,3.8,0,0,0,2-.52Z" fill="#fff"/><path d="M58.12,154h-.88v-3.17q0-1.72-1.28-1.72a1.39,1.39,0,0,0-1.08.5,1.85,1.85,0,0,0-.44,1.28V154h-.88V145.9h.88v3.56h0a2,2,0,0,1,1.8-1q1.86,0,1.86,2.24Z" fill="#fff"/><path d="M63.72,154h-.88v-.86h0a1.84,1.84,0,0,1-1.69,1,1.81,1.81,0,0,1-1.29-.43,1.51,1.51,0,0,1-.46-1.16q0-1.54,1.82-1.79l1.65-.23q0-1.4-1.13-1.4a2.71,2.71,0,0,0-1.79.68v-.9a3.41,3.41,0,0,1,1.87-.52q1.94,0,1.94,2.05Zm-.88-2.78-1.33.18a2.15,2.15,0,0,0-.92.3.88.88,0,0,0-.31.77.84.84,0,0,0,.29.66,1.11,1.11,0,0,0,.77.25,1.41,1.41,0,0,0,1.08-.46,1.64,1.64,0,0,0,.43-1.16Z" fill="#fff"/><path d="M69.94,154h-.88V150.9q0-1.75-1.28-1.75a1.39,1.39,0,0,0-1.09.5,1.84,1.84,0,0,0-.43,1.25V154h-.88v-5.5h.88v.91h0a2,2,0,0,1,1.8-1,1.68,1.68,0,0,1,1.38.58,2.6,2.6,0,0,1,.48,1.68Z" fill="#fff"/><path d="M76.17,154h-.88V150.9q0-1.75-1.28-1.75a1.39,1.39,0,0,0-1.09.5,1.84,1.84,0,0,0-.43,1.25V154H71.6v-5.5h.88v.91h0a2,2,0,0,1,1.8-1,1.68,1.68,0,0,1,1.38.58,2.59,2.59,0,0,1,.48,1.68Z" fill="#fff"/><path d="M82.25,151.51H78.36a2.06,2.06,0,0,0,.49,1.42,1.7,1.7,0,0,0,1.3.5,2.7,2.7,0,0,0,1.71-.61v.83a3.19,3.19,0,0,1-1.92.53,2.33,2.33,0,0,1-1.83-.75,3.07,3.07,0,0,1-.67-2.11,3,3,0,0,1,.73-2.09,2.33,2.33,0,0,1,1.81-.81,2.07,2.07,0,0,1,1.67.7,2.91,2.91,0,0,1,.59,1.94Zm-.9-.75a1.8,1.8,0,0,0-.37-1.19,1.25,1.25,0,0,0-1-.42,1.42,1.42,0,0,0-1.06.45,2,2,0,0,0-.54,1.17Z" fill="#fff"/><path d="M84.46,154h-.88V145.9h.88Z" fill="#fff"/><path d="M93.82,154h-.88V150.9q0-1.75-1.28-1.75a1.39,1.39,0,0,0-1.09.5,1.84,1.84,0,0,0-.43,1.25V154h-.88v-5.5h.88v.91h0a2,2,0,0,1,1.8-1,1.68,1.68,0,0,1,1.38.58,2.6,2.6,0,0,1,.48,1.68Z" fill="#fff"/><path d="M99.42,154h-.88v-.86h0a1.84,1.84,0,0,1-1.69,1,1.81,1.81,0,0,1-1.29-.43,1.5,1.5,0,0,1-.46-1.16q0-1.54,1.82-1.79l1.65-.23q0-1.4-1.13-1.4a2.71,2.71,0,0,0-1.79.68v-.9a3.41,3.41,0,0,1,1.87-.52q1.94,0,1.94,2.05Zm-.88-2.78-1.33.18a2.15,2.15,0,0,0-.92.3.87.87,0,0,0-.31.77.84.84,0,0,0,.29.66,1.11,1.11,0,0,0,.77.25,1.41,1.41,0,0,0,1.08-.46,1.64,1.64,0,0,0,.43-1.16Z" fill="#fff"/><path d="M108.89,154H108v-3.16a2.38,2.38,0,0,0-.28-1.32,1.07,1.07,0,0,0-.95-.41,1.17,1.17,0,0,0-1,.52,2,2,0,0,0-.4,1.24V154h-.88v-3.27q0-1.62-1.25-1.62a1.16,1.16,0,0,0-1,.49,2,2,0,0,0-.38,1.26V154h-.88v-5.5H102v.87h0a1.87,1.87,0,0,1,1.71-1,1.59,1.59,0,0,1,1.56,1.14,2,2,0,0,1,1.83-1.14q1.81,0,1.82,2.24Z" fill="#fff"/><path d="M115,151.51h-3.88a2.05,2.05,0,0,0,.49,1.42,1.7,1.7,0,0,0,1.3.5,2.7,2.7,0,0,0,1.71-.61v.83a3.19,3.19,0,0,1-1.92.53,2.33,2.33,0,0,1-1.83-.75,3.07,3.07,0,0,1-.67-2.11,3,3,0,0,1,.73-2.09,2.33,2.33,0,0,1,1.81-.81,2.07,2.07,0,0,1,1.67.7A2.91,2.91,0,0,1,115,151Zm-.9-.75a1.79,1.79,0,0,0-.37-1.19,1.26,1.26,0,0,0-1-.42,1.42,1.42,0,0,0-1.06.45,2,2,0,0,0-.54,1.17Z" fill="#fff"/><path d="M116.61,149.61a.57.57,0,0,1-.42-.18A.58.58,0,0,1,116,149a.57.57,0,0,1,.17-.42.58.58,0,0,1,.42-.17.6.6,0,0,1,.43.17.56.56,0,0,1,.18.42.58.58,0,0,1-.18.42A.59.59,0,0,1,116.61,149.61Zm0,4.54a.57.57,0,0,1-.42-.18.58.58,0,0,1-.17-.42.59.59,0,0,1,.17-.43.56.56,0,0,1,.42-.18.58.58,0,0,1,.43.18.59.59,0,0,1,.18.43.58.58,0,0,1-.18.42A.59.59,0,0,1,116.61,154.16Z" fill="#fff"/><path d="M122.72,154h-.9v-7.7h.9Z" fill="#fff"/><path d="M129.19,154h-.88V150.9q0-1.75-1.28-1.75a1.39,1.39,0,0,0-1.09.5,1.84,1.84,0,0,0-.43,1.25V154h-.88v-5.5h.88v.91h0a2,2,0,0,1,1.8-1,1.68,1.68,0,0,1,1.38.58,2.6,2.6,0,0,1,.48,1.68Z" fill="#fff"/><path d="M131.76,153.25h0v3.33h-.88v-8h.88v1h0a2.08,2.08,0,0,1,1.9-1.1,2,2,0,0,1,1.66.74,3.06,3.06,0,0,1,.6,2,3.4,3.4,0,0,1-.67,2.21,2.23,2.23,0,0,1-1.84.83A1.84,1.84,0,0,1,131.76,153.25Zm0-2.22v.77a1.63,1.63,0,0,0,.44,1.16,1.58,1.58,0,0,0,2.38-.14,2.81,2.81,0,0,0,.45-1.7,2.21,2.21,0,0,0-.42-1.44,1.4,1.4,0,0,0-1.15-.52,1.56,1.56,0,0,0-1.24.53A2,2,0,0,0,131.74,151Z" fill="#fff"/><path d="M141.77,154h-.88v-.87h0a1.81,1.81,0,0,1-1.7,1q-2,0-2-2.34v-3.29h.88v3.15q0,1.74,1.33,1.74a1.35,1.35,0,0,0,1.06-.48,1.82,1.82,0,0,0,.42-1.24v-3.17h.88Z" fill="#fff"/><path d="M146.1,154a1.69,1.69,0,0,1-.82.17q-1.44,0-1.44-1.61v-3.25h-.95v-.75h.95V147.2l.88-.28v1.63h1.39v.75h-1.39v3.1a1.29,1.29,0,0,0,.19.79.75.75,0,0,0,.62.24.92.92,0,0,0,.58-.18Z" fill="#fff"/><path d="M153.54,148.36a1.59,1.59,0,0,0-.11-.62,1.19,1.19,0,0,0-.75-.7,1.75,1.75,0,0,0-.56-.09,1.87,1.87,0,0,0-.5.07,2.47,2.47,0,0,0-.48.19,2.91,2.91,0,0,0-.45.3,3.25,3.25,0,0,0-.41.38V147a2.67,2.67,0,0,1,.83-.55,2.93,2.93,0,0,1,1.12-.19,2.72,2.72,0,0,1,.88.14,2,2,0,0,1,.7.4,1.84,1.84,0,0,1,.46.65,2.18,2.18,0,0,1,.17.89,3,3,0,0,1-.1.83,2.56,2.56,0,0,1-.32.7,3.39,3.39,0,0,1-.54.63,7.65,7.65,0,0,1-.76.61l-.89.66a4,4,0,0,0-.56.51,1.51,1.51,0,0,0-.29.48,1.67,1.67,0,0,0-.08.55h3.83V154H150v-.38a3.18,3.18,0,0,1,.11-.87,2.29,2.29,0,0,1,.35-.71,4,4,0,0,1,.65-.68q.4-.34,1-.76a6.21,6.21,0,0,0,.7-.57,3,3,0,0,0,.45-.55,2,2,0,0,0,.25-.56A2.41,2.41,0,0,0,153.54,148.36Z" fill="#fff"/><path d="M842.41,104l4.59,4.59,4.59-4.59,1.41,1.41L848.41,110l4.54,4.54L851.54,116,847,111.44,842.46,116,841,114.56l4.54-4.54L841,105.44Z" fill="#fff"/><rect x="1" y="30.05" width="855.85" height="30" fill="#fff"/><rect x="2.32" y="30" width="853.85" height="28" fill="#f7f7f7"/><path d="M96.82,49.69a4.93,4.93,0,0,1-2.32.49A3.74,3.74,0,0,1,91.63,49a4.26,4.26,0,0,1-1.08-3,4.46,4.46,0,0,1,1.21-3.26,4.12,4.12,0,0,1,3.08-1.24,4.93,4.93,0,0,1,2,.35v1a4,4,0,0,0-2-.5,3.06,3.06,0,0,0-2.35,1,3.64,3.64,0,0,0-.9,2.58,3.47,3.47,0,0,0,.84,2.45,2.86,2.86,0,0,0,2.21.91,4.14,4.14,0,0,0,2.19-.56Z" fill="#2b3033"/><path d="M102.7,50h-1v-.94h0a2,2,0,0,1-1.85,1.08,2,2,0,0,1-1.4-.47A1.64,1.64,0,0,1,98,48.45q0-1.68,2-2l1.8-.25q0-1.53-1.24-1.53a3,3,0,0,0-2,.74v-1a3.72,3.72,0,0,1,2-.56q2.12,0,2.12,2.24Zm-1-3-1.45.2a2.35,2.35,0,0,0-1,.33,1,1,0,0,0-.34.84.92.92,0,0,0,.31.72,1.21,1.21,0,0,0,.83.28,1.54,1.54,0,0,0,1.18-.5,1.79,1.79,0,0,0,.47-1.27Z" fill="#2b3033"/><path d="M105.49,49.18h0v3.63h-1V44h1V45.1h0a2.27,2.27,0,0,1,2.07-1.2,2.2,2.2,0,0,1,1.81.81,3.34,3.34,0,0,1,.65,2.16,3.72,3.72,0,0,1-.73,2.41,2.44,2.44,0,0,1-2,.91A2,2,0,0,1,105.49,49.18Zm0-2.42v.84a1.78,1.78,0,0,0,.48,1.26,1.72,1.72,0,0,0,2.6-.15,3.06,3.06,0,0,0,.5-1.86,2.42,2.42,0,0,0-.46-1.57,1.53,1.53,0,0,0-1.25-.57,1.7,1.7,0,0,0-1.35.58A2.14,2.14,0,0,0,105.47,46.76Z" fill="#2b3033"/><path d="M114.35,50a1.85,1.85,0,0,1-.9.19q-1.58,0-1.58-1.76V44.87h-1V44h1V42.58l1-.31V44h1.51v.82h-1.51v3.38a1.4,1.4,0,0,0,.21.86.82.82,0,0,0,.68.26,1,1,0,0,0,.63-.2Z" fill="#2b3033"/><path d="M120.48,50h-1V49.1h0a2,2,0,0,1-1.85,1.09q-2.14,0-2.14-2.55V44h1v3.43q0,1.9,1.45,1.9a1.47,1.47,0,0,0,1.16-.52,2,2,0,0,0,.45-1.36V44h1Z" fill="#2b3033"/><path d="M125.55,45a1.18,1.18,0,0,0-.73-.19,1.23,1.23,0,0,0-1,.58,2.68,2.68,0,0,0-.41,1.58V50h-1V44h1v1.24h0a2.1,2.1,0,0,1,.63-1,1.43,1.43,0,0,1,.94-.35,1.57,1.57,0,0,1,.57.08Z" fill="#2b3033"/><path d="M131.26,47.29H127a2.24,2.24,0,0,0,.54,1.55,1.86,1.86,0,0,0,1.42.54,3,3,0,0,0,1.86-.67v.9a3.48,3.48,0,0,1-2.09.57,2.54,2.54,0,0,1-2-.82,3.35,3.35,0,0,1-.73-2.3,3.28,3.28,0,0,1,.79-2.28,2.55,2.55,0,0,1,2-.88,2.26,2.26,0,0,1,1.82.76,3.18,3.18,0,0,1,.64,2.12Zm-1-.81a2,2,0,0,0-.4-1.29,1.37,1.37,0,0,0-1.1-.46,1.55,1.55,0,0,0-1.15.49,2.21,2.21,0,0,0-.59,1.27Z" fill="#2b3033"/><path d="M139,42a1.28,1.28,0,0,0-.64-.16q-1,0-1,1.27V44h1.41v.82h-1.41V50h-1V44.87h-1V44h1v-1a2,2,0,0,1,.54-1.49,1.84,1.84,0,0,1,1.36-.55,1.88,1.88,0,0,1,.7.11Z" fill="#2b3033"/><path d="M142.88,45a1.18,1.18,0,0,0-.73-.19,1.23,1.23,0,0,0-1,.58,2.68,2.68,0,0,0-.41,1.58V50h-1V44h1v1.24h0a2.1,2.1,0,0,1,.63-1,1.43,1.43,0,0,1,.94-.35,1.57,1.57,0,0,1,.57.08Z" fill="#2b3033"/><path d="M148.22,50h-1v-.94h0a2,2,0,0,1-1.85,1.08,2,2,0,0,1-1.4-.47,1.64,1.64,0,0,1-.51-1.26q0-1.68,2-2l1.8-.25q0-1.53-1.24-1.53a3,3,0,0,0-2,.74v-1a3.72,3.72,0,0,1,2-.56q2.12,0,2.12,2.24Zm-1-3-1.45.2a2.35,2.35,0,0,0-1,.33,1,1,0,0,0-.34.84.92.92,0,0,0,.31.72,1.21,1.21,0,0,0,.83.28,1.54,1.54,0,0,0,1.18-.5,1.79,1.79,0,0,0,.47-1.27Z" fill="#2b3033"/><path d="M158.55,50h-1V46.6a2.6,2.6,0,0,0-.31-1.44,1.17,1.17,0,0,0-1-.45,1.28,1.28,0,0,0-1,.56,2.15,2.15,0,0,0-.43,1.35V50h-1V46.48q0-1.77-1.37-1.77a1.26,1.26,0,0,0-1,.53,2.19,2.19,0,0,0-.41,1.38V50h-1V44h1V45h0a2,2,0,0,1,1.86-1.09,1.73,1.73,0,0,1,1.7,1.24,2.14,2.14,0,0,1,2-1.24q2,0,2,2.44Z" fill="#2b3033"/><path d="M165.19,47.29H161a2.24,2.24,0,0,0,.54,1.55,1.86,1.86,0,0,0,1.42.54,3,3,0,0,0,1.86-.67v.9a3.48,3.48,0,0,1-2.09.57,2.54,2.54,0,0,1-2-.82,3.35,3.35,0,0,1-.73-2.3,3.28,3.28,0,0,1,.79-2.28,2.55,2.55,0,0,1,2-.88,2.26,2.26,0,0,1,1.82.76,3.18,3.18,0,0,1,.64,2.12Zm-1-.81a2,2,0,0,0-.4-1.29,1.37,1.37,0,0,0-1.1-.46,1.55,1.55,0,0,0-1.15.49,2.21,2.21,0,0,0-.59,1.27Z" fill="#2b3033"/><polygon points="69 38.05 69 44.05 71 44.05 71 40.05 75 40.05 75 38.05 69 38.05" fill="#696e73"/><polygon points="71 48.05 69 48.05 69 54.05 75 54.05 75 52.05 71 52.05 71 48.05" fill="#696e73"/><polygon points="83 52.05 79 52.05 79 54.05 85 54.05 85 48.05 83 48.05 83 52.05" fill="#696e73"/><polygon points="79 38.05 79 40.05 83 40.05 83 44.05 85 44.05 85 38.05 79 38.05" fill="#696e73"/><rect x="73" y="45.05" width="2" height="5" fill="#696e73"/><rect x="76" y="42.05" width="2" height="8" fill="#696e73"/><rect x="79" y="43.05" width="2" height="7" fill="#696e73"/><polygon points="12 54.05 12 38.05 28 46.05 12 54.05" fill="#696e73"/><polygon points="13.07 40.16 24.8 46.05 13.07 51.95 13.07 40.16" fill="#fff"/><polygon points="14.13 42.33 21.63 46.05 14.13 49.8 14.13 42.33" fill="#55a446"/><rect x="42" y="39.05" width="4" height="14" fill="#696e73" opacity="0.5"/><rect x="50" y="39.05" width="4" height="14" fill="#696e73" opacity="0.5"/><path d="M170.61,43h9l-4.5,6Z" fill="#4d5359" opacity="0.8"/><path d="M856.85,30H0V60H857.85V30Zm0,29H1V31H856.85Z" fill="#8e9295"/></g><rect y="0.02" width="353" height="0.97" fill="#afb2b5"/><polygon points="858 31 0 30.97 0 0 858 0 858 31" fill="url(#linear-gradient)"/><rect x="1" y="1.02" width="36" height="1" fill="#fff"/><rect x="0.5" y="0.5" width="38" height="30" fill="url(#linear-gradient-2)"/><path d="M38,1V30H1V1H38m1-1H0V31H39V0Z" fill="#8e9295"/><polygon points="177 31 39.05 31 39 0 177 0 177 31" fill="#f7f7f7"/><rect x="39" y="1" width="137" height="1" fill="#dde2e6"/><rect x="39" width="819" height="1" fill="url(#linear-gradient-3)"/><polygon points="858 0 39 0 39 1 858 1 858 0 858 0" fill="#8e9295"/><path d="M72.61,21H71.52l-.89-2.36H67.06L66.22,21h-1.1l3.22-8.4h1Zm-2.3-3.24L69,14.18a3.43,3.43,0,0,1-.13-.56h0a3.14,3.14,0,0,1-.13.56l-1.31,3.58Z" fill="#2b3033"/><path d="M78.69,21h-1V17.58q0-1.91-1.39-1.91a1.51,1.51,0,0,0-1.19.54,2,2,0,0,0-.47,1.37V21h-1V15h1v1h0a2.17,2.17,0,0,1,2-1.14,1.84,1.84,0,0,1,1.51.64,2.83,2.83,0,0,1,.52,1.84Z" fill="#2b3033"/><path d="M84.8,21h-1v-.94h0A2,2,0,0,1,82,21.14a2,2,0,0,1-1.4-.47,1.64,1.64,0,0,1-.51-1.26q0-1.68,2-2l1.8-.25q0-1.53-1.24-1.53a3,3,0,0,0-2,.74v-1a3.72,3.72,0,0,1,2-.56q2.12,0,2.12,2.24Zm-1-3-1.45.2a2.35,2.35,0,0,0-1,.33,1,1,0,0,0-.34.84.92.92,0,0,0,.31.72,1.21,1.21,0,0,0,.83.28,1.54,1.54,0,0,0,1.18-.5,1.79,1.79,0,0,0,.47-1.27Z" fill="#2b3033"/><path d="M87.57,21h-1V12.12h1Z" fill="#2b3033"/><path d="M92,21.14a2.78,2.78,0,0,1-2.12-.84,3.11,3.11,0,0,1-.79-2.23,3.24,3.24,0,0,1,.83-2.36,3,3,0,0,1,2.23-.85,2.69,2.69,0,0,1,2.09.83A3.28,3.28,0,0,1,95,18a3.22,3.22,0,0,1-.81,2.3A2.84,2.84,0,0,1,92,21.14Zm.07-5.47a1.83,1.83,0,0,0-1.46.63A2.59,2.59,0,0,0,90.09,18a2.45,2.45,0,0,0,.54,1.68,1.85,1.85,0,0,0,1.46.62,1.76,1.76,0,0,0,1.43-.6A2.62,2.62,0,0,0,94,18a2.66,2.66,0,0,0-.5-1.73A1.75,1.75,0,0,0,92.09,15.67Z" fill="#2b3033"/><path d="M101.67,20.52q0,3.3-3.16,3.3a4.25,4.25,0,0,1-1.95-.42v-1a4,4,0,0,0,1.93.56q2.21,0,2.21-2.36V20h0a2.43,2.43,0,0,1-3.86.35,3.2,3.2,0,0,1-.68-2.15,3.74,3.74,0,0,1,.74-2.43,2.46,2.46,0,0,1,2-.9,2,2,0,0,1,1.8,1h0V15h1Zm-1-2.23V17.4a1.72,1.72,0,0,0-.48-1.22,1.59,1.59,0,0,0-1.2-.51,1.67,1.67,0,0,0-1.39.65,2.89,2.89,0,0,0-.5,1.81,2.48,2.48,0,0,0,.48,1.6,1.56,1.56,0,0,0,1.28.6,1.67,1.67,0,0,0,1.32-.57A2.14,2.14,0,0,0,100.71,18.29Z" fill="#2b3033"/><path d="M108,21h-1V12.6h1Z" fill="#2b3033"/><path d="M115.07,21h-1V17.58q0-1.91-1.39-1.91a1.51,1.51,0,0,0-1.19.54,2,2,0,0,0-.47,1.37V21h-1V15h1v1h0a2.17,2.17,0,0,1,2-1.14,1.84,1.84,0,0,1,1.51.64,2.83,2.83,0,0,1,.52,1.84Z" fill="#2b3033"/><path d="M117.87,20.13h0v3.63h-1V15h1v1.05h0a2.27,2.27,0,0,1,2.07-1.2,2.2,2.2,0,0,1,1.81.81,3.34,3.34,0,0,1,.65,2.16,3.72,3.72,0,0,1-.73,2.41,2.44,2.44,0,0,1-2,.91A2,2,0,0,1,117.87,20.13Zm0-2.42v.84a1.78,1.78,0,0,0,.48,1.26,1.72,1.72,0,0,0,2.6-.15,3.06,3.06,0,0,0,.5-1.86,2.42,2.42,0,0,0-.46-1.57,1.53,1.53,0,0,0-1.25-.57,1.7,1.7,0,0,0-1.35.58A2.14,2.14,0,0,0,117.85,17.71Z" fill="#2b3033"/><path d="M128.79,21h-1v-.95h0A2,2,0,0,1,126,21.14q-2.14,0-2.14-2.55V15h1v3.43q0,1.9,1.45,1.9a1.47,1.47,0,0,0,1.16-.52,2,2,0,0,0,.45-1.36V15h1Z" fill="#2b3033"/><path d="M133.51,20.94a1.85,1.85,0,0,1-.9.19q-1.58,0-1.58-1.76V15.82h-1V15h1V13.54l1-.31V15h1.51v.82H132V19.2a1.4,1.4,0,0,0,.21.86.82.82,0,0,0,.68.26,1,1,0,0,0,.63-.2Z" fill="#2b3033"/><path d="M135.13,21.13a.62.62,0,0,1-.46-.19.64.64,0,0,1-.19-.46.65.65,0,0,1,.19-.47.62.62,0,0,1,.46-.2.63.63,0,0,1,.47.2.64.64,0,0,1,.19.47.63.63,0,0,1-.19.46A.64.64,0,0,1,135.13,21.13Z" fill="#2b3033"/><path d="M140.18,20.94a1.85,1.85,0,0,1-.9.19q-1.58,0-1.58-1.76V15.82h-1V15h1V13.54l1-.31V15h1.51v.82h-1.51V19.2a1.4,1.4,0,0,0,.21.86.82.82,0,0,0,.68.26,1,1,0,0,0,.63-.2Z" fill="#2b3033"/><path d="M145.76,21h-1v-.94h0a2,2,0,0,1-1.85,1.08,2,2,0,0,1-1.4-.47,1.64,1.64,0,0,1-.51-1.26q0-1.68,2-2l1.8-.25q0-1.53-1.24-1.53a3,3,0,0,0-2,.74v-1a3.72,3.72,0,0,1,2-.56q2.12,0,2.12,2.24Zm-1-3-1.45.2a2.35,2.35,0,0,0-1,.33,1,1,0,0,0-.34.84.92.92,0,0,0,.31.72,1.21,1.21,0,0,0,.83.28,1.54,1.54,0,0,0,1.18-.5,1.79,1.79,0,0,0,.47-1.27Z" fill="#2b3033"/><path d="M147.21,20.78v-1a2.84,2.84,0,0,0,1.73.58q1.27,0,1.27-.84a.73.73,0,0,0-.11-.41,1.08,1.08,0,0,0-.29-.3,2.26,2.26,0,0,0-.43-.23l-.54-.21a6.9,6.9,0,0,1-.7-.32,2.12,2.12,0,0,1-.5-.36,1.35,1.35,0,0,1-.3-.46,1.63,1.63,0,0,1-.1-.6,1.43,1.43,0,0,1,.19-.75,1.71,1.71,0,0,1,.52-.54,2.4,2.4,0,0,1,.74-.33,3.26,3.26,0,0,1,.85-.11,3.44,3.44,0,0,1,1.39.27v1a2.72,2.72,0,0,0-1.52-.43,1.78,1.78,0,0,0-.49.06,1.19,1.19,0,0,0-.37.17.8.8,0,0,0-.24.27.7.7,0,0,0-.08.34.82.82,0,0,0,.08.39.86.86,0,0,0,.25.28,1.9,1.9,0,0,0,.4.22l.53.22a7.42,7.42,0,0,1,.71.31,2.45,2.45,0,0,1,.54.36,1.42,1.42,0,0,1,.34.47,1.5,1.5,0,0,1,.12.63,1.48,1.48,0,0,1-.2.77,1.68,1.68,0,0,1-.52.54,2.4,2.4,0,0,1-.76.32,3.73,3.73,0,0,1-.9.11A3.4,3.4,0,0,1,147.21,20.78Z" fill="#2b3033"/><path d="M157.64,21h-1.35l-2.65-2.88h0V21h-1V12.12h1v5.63h0L156.17,15h1.26l-2.78,2.89Z" fill="#2b3033"/><path d="M169.75,6H171V7.24h-.62v.62h-.62V9.12h.63v.62H171V11h-1.25v-.62h-.62V9.74h-1.25v.62h-.62V11H166V9.74h.63V9.12h.63V7.87h-.62V7.24H166V6h1.25v.62h.63v.62h1.25V6.62h.63Z" fill="#696e73"/><path d="M18.94,6,9,15.75h3l7-7,7,7h3Z" fill="#696e72"/><path d="M13,16.75v8h5v-4h2v4h5v-8l-6-6Z" fill="#696e72"/><path d="M15,6.75H12v4.06l3-3Z" fill="#696e72"/><polygon points="51.74 23 49.92 12.33 48.14 22.25 46.19 13.4 44.87 17.63 44 17.32 46.34 9.83 48.05 17.57 49.94 7 51.78 17.8 53.59 8.15 55.57 18.69 57.21 14.33 58.45 16.98 60 16.98 60 17.96 57.89 17.96 57.3 16.71 55.27 22.1 53.59 13.13 51.74 23" fill="#696e73"/><rect x="176" y="0.99" width="1" height="30" fill="#afb2b5"/><rect x="176" y="30" width="682" height="1" fill="#afb2b5"/></svg>