<svg id="Layer_1" data-name="Layer 1" xmlns="http://www.w3.org/2000/svg" width="136" height="220" viewBox="0 0 136 220"><title>trees-list-no-icon</title><path d="M0,0V220H136V0Z" fill="#f7f7f7"/><g id="_Group_" data-name="&lt;Group&gt;"><path d="M28.37,8.49H25.09v2.91h3v.88h-3V16h-1V7.6h4.27Z" fill="#2b3033"/><path d="M33,11a1.18,1.18,0,0,0-.73-.19,1.23,1.23,0,0,0-1,.58,2.68,2.68,0,0,0-.41,1.58V16h-1V10h1v1.24h0a2.1,2.1,0,0,1,.63-1,1.43,1.43,0,0,1,.94-.35A1.57,1.57,0,0,1,33,10Z" fill="#2b3033"/><path d="M38.86,16h-1v-.95h0A2,2,0,0,1,36,16.14q-2.14,0-2.14-2.55V10h1v3.43q0,1.9,1.45,1.9a1.47,1.47,0,0,0,1.16-.52,2,2,0,0,0,.45-1.36V10h1Z" fill="#2b3033"/><path d="M41.29,8.48a.61.61,0,0,1-.44-.18.59.59,0,0,1-.18-.45.62.62,0,0,1,.62-.63.62.62,0,0,1,.45.18.63.63,0,0,1,0,.89A.62.62,0,0,1,41.29,8.48ZM41.76,16h-1V10h1Z" fill="#2b3033"/><path d="M46.48,15.94a1.85,1.85,0,0,1-.9.19Q44,16.13,44,14.37V10.82H43V10h1V8.54l1-.31V10h1.51v.82H45V14.2a1.4,1.4,0,0,0,.21.86.82.82,0,0,0,.68.26,1,1,0,0,0,.63-.2Z" fill="#2b3033"/></g><polygon points="3 10 11 10 7 14 3 10" fill="#777b80"/><g id="_Group_2" data-name="&lt;Group&gt;"><path d="M42.61,38H41.52l-.89-2.36H37.06L36.22,38h-1.1l3.22-8.4h1Zm-2.3-3.24L39,31.18a3.43,3.43,0,0,1-.13-.56h0a3.14,3.14,0,0,1-.13.56l-1.31,3.58Z" fill="#2b3033"/><path d="M44.7,37.13h0v3.63h-1V32h1v1.05h0a2.27,2.27,0,0,1,2.07-1.2,2.2,2.2,0,0,1,1.81.81,3.34,3.34,0,0,1,.65,2.16,3.72,3.72,0,0,1-.73,2.41,2.44,2.44,0,0,1-2,.91A2,2,0,0,1,44.7,37.13Zm0-2.42v.84a1.78,1.78,0,0,0,.48,1.26,1.72,1.72,0,0,0,2.6-.15,3.06,3.06,0,0,0,.5-1.86,2.42,2.42,0,0,0-.46-1.57,1.53,1.53,0,0,0-1.25-.57,1.7,1.7,0,0,0-1.35.58A2.14,2.14,0,0,0,44.67,34.71Z" fill="#2b3033"/><path d="M51.75,37.13h0v3.63h-1V32h1v1.05h0a2.27,2.27,0,0,1,2.07-1.2,2.2,2.2,0,0,1,1.81.81,3.34,3.34,0,0,1,.65,2.16,3.72,3.72,0,0,1-.73,2.41,2.44,2.44,0,0,1-2,.91A2,2,0,0,1,51.75,37.13Zm0-2.42v.84a1.78,1.78,0,0,0,.48,1.26,1.72,1.72,0,0,0,2.6-.15,3.06,3.06,0,0,0,.5-1.86,2.42,2.42,0,0,0-.46-1.57,1.53,1.53,0,0,0-1.25-.57,1.7,1.7,0,0,0-1.35.58A2.14,2.14,0,0,0,51.73,34.71Z" fill="#2b3033"/><path d="M58.78,38h-1V29.12h1Z" fill="#2b3033"/><path d="M65.55,35.24H61.31a2.24,2.24,0,0,0,.54,1.55,1.86,1.86,0,0,0,1.42.54,3,3,0,0,0,1.86-.67v.9a3.48,3.48,0,0,1-2.09.57,2.54,2.54,0,0,1-2-.82,3.35,3.35,0,0,1-.73-2.3,3.28,3.28,0,0,1,.79-2.28,2.55,2.55,0,0,1,2-.88,2.26,2.26,0,0,1,1.82.76,3.18,3.18,0,0,1,.64,2.12Zm-1-.81a2,2,0,0,0-.4-1.29,1.37,1.37,0,0,0-1.1-.46,1.55,1.55,0,0,0-1.15.49,2.21,2.21,0,0,0-.59,1.27Z" fill="#2b3033"/></g><g id="_Group_3" data-name="&lt;Group&gt;"><path d="M36.1,60V51.6h2.39a2.61,2.61,0,0,1,1.73.53,1.72,1.72,0,0,1,.64,1.39,2,2,0,0,1-.39,1.24,2.09,2.09,0,0,1-1.07.75v0a2.14,2.14,0,0,1,1.36.64,2,2,0,0,1,.51,1.41,2.2,2.2,0,0,1-.77,1.75,2.88,2.88,0,0,1-2,.67Zm1-7.51V55.2h1a1.91,1.91,0,0,0,1.27-.39,1.36,1.36,0,0,0,.46-1.1q0-1.22-1.61-1.22Zm0,3.6v3h1.34a2,2,0,0,0,1.34-.41,1.4,1.4,0,0,0,.48-1.12q0-1.49-2-1.49Z" fill="#2b3033"/><path d="M47.15,60h-1v-.94h0a2,2,0,0,1-1.85,1.08,2,2,0,0,1-1.4-.47,1.64,1.64,0,0,1-.51-1.26q0-1.68,2-2l1.8-.25q0-1.53-1.24-1.53a3,3,0,0,0-2,.74v-1a3.72,3.72,0,0,1,2-.56q2.12,0,2.12,2.24Zm-1-3-1.45.2a2.35,2.35,0,0,0-1,.33,1,1,0,0,0-.34.84.92.92,0,0,0,.31.72,1.21,1.21,0,0,0,.83.28,1.54,1.54,0,0,0,1.18-.5,1.79,1.79,0,0,0,.47-1.27Z" fill="#2b3033"/><path d="M53.94,60H53V56.58q0-1.91-1.39-1.91a1.51,1.51,0,0,0-1.19.54,2,2,0,0,0-.47,1.37V60H49V54h1v1h0a2.17,2.17,0,0,1,2-1.14,1.84,1.84,0,0,1,1.51.64,2.83,2.83,0,0,1,.52,1.84Z" fill="#2b3033"/><path d="M60,60h-1v-.94h0a2,2,0,0,1-1.85,1.08,2,2,0,0,1-1.4-.47,1.64,1.64,0,0,1-.51-1.26q0-1.68,2-2l1.8-.25q0-1.53-1.24-1.53a3,3,0,0,0-2,.74v-1a3.72,3.72,0,0,1,2-.56Q60,53.86,60,56.1Zm-1-3-1.45.2a2.35,2.35,0,0,0-1,.33,1,1,0,0,0-.34.84.92.92,0,0,0,.31.72,1.21,1.21,0,0,0,.83.28,1.54,1.54,0,0,0,1.18-.5,1.79,1.79,0,0,0,.47-1.27Z" fill="#2b3033"/><path d="M66.83,60h-1V56.58q0-1.91-1.39-1.91a1.51,1.51,0,0,0-1.19.54,2,2,0,0,0-.47,1.37V60h-1V54h1v1h0a2.17,2.17,0,0,1,2-1.14,1.84,1.84,0,0,1,1.51.64,2.83,2.83,0,0,1,.52,1.84Z" fill="#2b3033"/><path d="M72.94,60H72v-.94h0a2,2,0,0,1-1.85,1.08,2,2,0,0,1-1.4-.47,1.64,1.64,0,0,1-.51-1.26q0-1.68,2-2L72,56.2q0-1.53-1.24-1.53a3,3,0,0,0-2,.74v-1a3.72,3.72,0,0,1,2-.56q2.12,0,2.12,2.24Zm-1-3-1.45.2a2.35,2.35,0,0,0-1,.33,1,1,0,0,0-.34.84.92.92,0,0,0,.31.72,1.21,1.21,0,0,0,.83.28,1.54,1.54,0,0,0,1.18-.5A1.79,1.79,0,0,0,72,57.56Z" fill="#2b3033"/></g><g id="_Group_4" data-name="&lt;Group&gt;"><path d="M39.49,82.14A3.69,3.69,0,0,1,36.63,81a4.37,4.37,0,0,1-1.08-3.06,4.63,4.63,0,0,1,1.1-3.23,3.83,3.83,0,0,1,3-1.21,3.61,3.61,0,0,1,2.8,1.17,4.38,4.38,0,0,1,1.06,3.06,4.64,4.64,0,0,1-1.09,3.25A3.76,3.76,0,0,1,39.49,82.14Zm.07-7.79a2.71,2.71,0,0,0-2.15,1,4.25,4.25,0,0,0,0,5,2.63,2.63,0,0,0,2.1.95,2.76,2.76,0,0,0,2.18-.9,3.69,3.69,0,0,0,.8-2.53,3.85,3.85,0,0,0-.77-2.57A2.65,2.65,0,0,0,39.56,74.35Z" fill="#2b3033"/><path d="M48.15,77a1.18,1.18,0,0,0-.73-.19,1.23,1.23,0,0,0-1,.58A2.68,2.68,0,0,0,46,78.94V82H45V76h1v1.24h0a2.1,2.1,0,0,1,.63-1,1.43,1.43,0,0,1,.94-.35,1.57,1.57,0,0,1,.57.08Z" fill="#2b3033"/><path d="M53.49,82h-1v-.94h0a2,2,0,0,1-1.85,1.08,2,2,0,0,1-1.4-.47,1.64,1.64,0,0,1-.51-1.26q0-1.68,2-2l1.8-.25q0-1.53-1.24-1.53a3,3,0,0,0-2,.74v-1a3.72,3.72,0,0,1,2-.56q2.12,0,2.12,2.24Zm-1-3-1.45.2a2.35,2.35,0,0,0-1,.33,1,1,0,0,0-.34.84.92.92,0,0,0,.31.72,1.21,1.21,0,0,0,.83.28,1.54,1.54,0,0,0,1.18-.5,1.79,1.79,0,0,0,.47-1.27Z" fill="#2b3033"/><path d="M60.28,82h-1V78.58q0-1.91-1.39-1.91a1.51,1.51,0,0,0-1.19.54,2,2,0,0,0-.47,1.37V82h-1V76h1v1h0a2.17,2.17,0,0,1,2-1.14,1.84,1.84,0,0,1,1.51.64,2.83,2.83,0,0,1,.52,1.84Z" fill="#2b3033"/><path d="M67.21,81.52q0,3.3-3.16,3.3a4.25,4.25,0,0,1-1.95-.42v-1A4,4,0,0,0,64,84q2.21,0,2.21-2.36V81h0a2.43,2.43,0,0,1-3.86.35,3.2,3.2,0,0,1-.68-2.15,3.74,3.74,0,0,1,.74-2.43,2.46,2.46,0,0,1,2-.9,2,2,0,0,1,1.8,1h0V76h1Zm-1-2.23V78.4a1.72,1.72,0,0,0-.48-1.22,1.59,1.59,0,0,0-1.2-.51,1.67,1.67,0,0,0-1.39.65,2.89,2.89,0,0,0-.5,1.81,2.48,2.48,0,0,0,.48,1.6,1.56,1.56,0,0,0,1.28.6,1.67,1.67,0,0,0,1.32-.57A2.14,2.14,0,0,0,66.25,79.29Z" fill="#2b3033"/><path d="M74,79.24H69.74a2.24,2.24,0,0,0,.54,1.55,1.86,1.86,0,0,0,1.42.54,3,3,0,0,0,1.86-.67v.9a3.48,3.48,0,0,1-2.09.57,2.54,2.54,0,0,1-2-.82,3.35,3.35,0,0,1-.73-2.3,3.28,3.28,0,0,1,.79-2.28,2.55,2.55,0,0,1,2-.88,2.26,2.26,0,0,1,1.82.76A3.18,3.18,0,0,1,74,78.74Zm-1-.81a2,2,0,0,0-.4-1.29,1.37,1.37,0,0,0-1.1-.46,1.55,1.55,0,0,0-1.15.49,2.21,2.21,0,0,0-.59,1.27Z" fill="#2b3033"/></g><g id="_Group_5" data-name="&lt;Group&gt;"><path d="M29.82,103.65a4.93,4.93,0,0,1-2.32.49A3.74,3.74,0,0,1,24.63,103a4.26,4.26,0,0,1-1.08-3,4.46,4.46,0,0,1,1.21-3.26,4.12,4.12,0,0,1,3.08-1.24,4.93,4.93,0,0,1,2,.35v1a4,4,0,0,0-2-.5,3.06,3.06,0,0,0-2.35,1,3.64,3.64,0,0,0-.9,2.58,3.47,3.47,0,0,0,.84,2.45,2.86,2.86,0,0,0,2.21.91,4.14,4.14,0,0,0,2.19-.56Z" fill="#2b3033"/><path d="M33.91,104.14a2.78,2.78,0,0,1-2.12-.84,3.11,3.11,0,0,1-.79-2.23,3.24,3.24,0,0,1,.83-2.36,3,3,0,0,1,2.23-.85,2.69,2.69,0,0,1,2.09.83A3.28,3.28,0,0,1,36.9,101a3.22,3.22,0,0,1-.81,2.3A2.84,2.84,0,0,1,33.91,104.14ZM34,98.67a1.83,1.83,0,0,0-1.46.63A2.59,2.59,0,0,0,32,101a2.45,2.45,0,0,0,.54,1.68,1.85,1.85,0,0,0,1.46.62,1.76,1.76,0,0,0,1.43-.6,2.62,2.62,0,0,0,.5-1.72,2.66,2.66,0,0,0-.5-1.73A1.75,1.75,0,0,0,34,98.67Z" fill="#2b3033"/><path d="M39.39,104h-1V95.12h1Z" fill="#2b3033"/><path d="M43.85,104.14a2.78,2.78,0,0,1-2.12-.84,3.11,3.11,0,0,1-.79-2.23,3.24,3.24,0,0,1,.83-2.36A3,3,0,0,1,44,97.86a2.69,2.69,0,0,1,2.09.83,3.28,3.28,0,0,1,.75,2.29,3.22,3.22,0,0,1-.81,2.3A2.84,2.84,0,0,1,43.85,104.14Zm.07-5.47a1.83,1.83,0,0,0-1.46.63,2.59,2.59,0,0,0-.54,1.74,2.45,2.45,0,0,0,.54,1.68,1.85,1.85,0,0,0,1.46.62,1.76,1.76,0,0,0,1.43-.6,2.62,2.62,0,0,0,.5-1.72,2.66,2.66,0,0,0-.5-1.73A1.75,1.75,0,0,0,43.92,98.67Z" fill="#2b3033"/><path d="M51.5,99a1.18,1.18,0,0,0-.73-.19,1.23,1.23,0,0,0-1,.58,2.68,2.68,0,0,0-.41,1.58V104h-1V98h1v1.24h0a2.1,2.1,0,0,1,.63-1,1.43,1.43,0,0,1,.94-.35,1.57,1.57,0,0,1,.57.08Z" fill="#2b3033"/></g><polygon points="3 98 11 98 7 102 3 98" fill="#777b80"/><polygon points="15 120 23 120 19 124 15 120" fill="#777b80"/><g id="_Group_6" data-name="&lt;Group&gt;"><path d="M37.09,122.82V126h-1v-8.4h2.31a3,3,0,0,1,2.09.66,2.34,2.34,0,0,1,.74,1.85,2.55,2.55,0,0,1-.82,2,3.15,3.15,0,0,1-2.22.76Zm0-4.34v3.45h1a2.31,2.31,0,0,0,1.56-.47,1.65,1.65,0,0,0,.54-1.32q0-1.66-2-1.66Z" fill="#2b3033"/><path d="M45.82,121a1.18,1.18,0,0,0-.73-.19,1.23,1.23,0,0,0-1,.58,2.68,2.68,0,0,0-.41,1.58V126h-1v-6h1v1.24h0a2.1,2.1,0,0,1,.63-1,1.43,1.43,0,0,1,.94-.35,1.57,1.57,0,0,1,.57.08Z" fill="#2b3033"/><path d="M47.36,118.48a.61.61,0,0,1-.44-.18.59.59,0,0,1-.18-.45.62.62,0,0,1,.62-.63.62.62,0,0,1,.45.18.63.63,0,0,1,0,.89A.62.62,0,0,1,47.36,118.48Zm.47,7.52h-1v-6h1Z" fill="#2b3033"/><path d="M58.29,126h-1v-3.45a2.6,2.6,0,0,0-.31-1.44,1.17,1.17,0,0,0-1-.45,1.28,1.28,0,0,0-1,.56,2.15,2.15,0,0,0-.43,1.35V126h-1v-3.56q0-1.77-1.37-1.77a1.26,1.26,0,0,0-1,.53,2.19,2.19,0,0,0-.41,1.38V126h-1v-6h1v.95h0a2,2,0,0,1,1.86-1.09,1.73,1.73,0,0,1,1.7,1.24,2.14,2.14,0,0,1,2-1.24q2,0,2,2.44Z" fill="#2b3033"/><path d="M64.4,126h-1v-.94h0a2,2,0,0,1-1.85,1.08,2,2,0,0,1-1.4-.47,1.64,1.64,0,0,1-.51-1.26q0-1.68,2-2l1.8-.25q0-1.53-1.24-1.53a3,3,0,0,0-2,.74v-1a3.72,3.72,0,0,1,2-.56q2.12,0,2.12,2.24Zm-1-3-1.45.2a2.35,2.35,0,0,0-1,.33,1,1,0,0,0-.34.84.92.92,0,0,0,.31.72,1.21,1.21,0,0,0,.83.28,1.54,1.54,0,0,0,1.18-.5,1.79,1.79,0,0,0,.47-1.27Z" fill="#2b3033"/><path d="M69.34,121a1.18,1.18,0,0,0-.73-.19,1.23,1.23,0,0,0-1,.58,2.68,2.68,0,0,0-.41,1.58V126h-1v-6h1v1.24h0a2.1,2.1,0,0,1,.63-1,1.43,1.43,0,0,1,.94-.35,1.57,1.57,0,0,1,.57.08Z" fill="#2b3033"/><path d="M75.64,120l-2.76,7q-.74,1.86-2.07,1.86a2.2,2.2,0,0,1-.63-.08v-.86a1.78,1.78,0,0,0,.57.11,1.18,1.18,0,0,0,1.09-.87l.48-1.14L70,120H71l1.62,4.62q0,.09.12.46h0q0-.14.12-.45L74.64,120Z" fill="#2b3033"/></g><polygon points="19 214 19 206 23 210 19 214" fill="#777b80"/><g id="_Group_7" data-name="&lt;Group&gt;"><path d="M35.71,213.66V212.5a2.25,2.25,0,0,0,.48.32,3.87,3.87,0,0,0,.59.24,4.66,4.66,0,0,0,.62.15,3.45,3.45,0,0,0,.57.05,2.25,2.25,0,0,0,1.36-.34,1.27,1.27,0,0,0,.3-1.56,1.68,1.68,0,0,0-.41-.46,4.1,4.1,0,0,0-.62-.4l-.78-.4q-.44-.22-.82-.45a3.55,3.55,0,0,1-.66-.5,2.1,2.1,0,0,1-.44-.62A2.13,2.13,0,0,1,36,206.7a2.16,2.16,0,0,1,.66-.7,3,3,0,0,1,.93-.41,4.28,4.28,0,0,1,1.07-.13,4.1,4.1,0,0,1,1.81.3v1.11a3.28,3.28,0,0,0-1.91-.52,3.14,3.14,0,0,0-.64.07,1.82,1.82,0,0,0-.57.22,1.27,1.27,0,0,0-.41.39,1,1,0,0,0-.16.59,1.21,1.21,0,0,0,.12.56,1.36,1.36,0,0,0,.35.43,3.53,3.53,0,0,0,.57.38l.78.4q.45.22.86.47a3.91,3.91,0,0,1,.71.54,2.42,2.42,0,0,1,.48.66,1.86,1.86,0,0,1,.18.83,2.11,2.11,0,0,1-.24,1.05,2,2,0,0,1-.66.7,2.87,2.87,0,0,1-1,.39,5.22,5.22,0,0,1-1.14.12l-.49,0-.6-.09a4.88,4.88,0,0,1-.58-.15A1.79,1.79,0,0,1,35.71,213.66Z" fill="#2b3033"/><path d="M47.17,211.24H42.93a2.24,2.24,0,0,0,.54,1.55,1.86,1.86,0,0,0,1.42.54,3,3,0,0,0,1.86-.67v.9a3.48,3.48,0,0,1-2.09.57,2.54,2.54,0,0,1-2-.82,3.35,3.35,0,0,1-.73-2.3,3.28,3.28,0,0,1,.79-2.28,2.55,2.55,0,0,1,2-.88,2.26,2.26,0,0,1,1.82.76,3.18,3.18,0,0,1,.64,2.12Zm-1-.81a2,2,0,0,0-.4-1.29,1.37,1.37,0,0,0-1.1-.46,1.55,1.55,0,0,0-1.15.49,2.21,2.21,0,0,0-.59,1.27Z" fill="#2b3033"/><path d="M52.71,213.72a3.12,3.12,0,0,1-1.64.42,2.72,2.72,0,0,1-2.07-.83,3,3,0,0,1-.79-2.17,3.32,3.32,0,0,1,.85-2.38,3,3,0,0,1,2.27-.9,3.16,3.16,0,0,1,1.39.29v1a2.44,2.44,0,0,0-1.43-.47,1.93,1.93,0,0,0-1.51.66,2.5,2.5,0,0,0-.59,1.73,2.38,2.38,0,0,0,.55,1.66,1.91,1.91,0,0,0,1.49.61,2.41,2.41,0,0,0,1.48-.52Z" fill="#2b3033"/><path d="M56.67,214.14a2.78,2.78,0,0,1-2.12-.84,3.12,3.12,0,0,1-.79-2.23,3.24,3.24,0,0,1,.83-2.36,3,3,0,0,1,2.23-.85,2.69,2.69,0,0,1,2.09.83,3.28,3.28,0,0,1,.75,2.29,3.23,3.23,0,0,1-.81,2.3A2.84,2.84,0,0,1,56.67,214.14Zm.07-5.47a1.83,1.83,0,0,0-1.46.63,2.58,2.58,0,0,0-.54,1.74,2.45,2.45,0,0,0,.54,1.68,1.85,1.85,0,0,0,1.46.62,1.76,1.76,0,0,0,1.43-.6,2.62,2.62,0,0,0,.5-1.72,2.66,2.66,0,0,0-.5-1.73A1.75,1.75,0,0,0,56.74,208.67Z" fill="#2b3033"/><path d="M66.18,214h-1v-3.42q0-1.91-1.39-1.91a1.51,1.51,0,0,0-1.19.54,2,2,0,0,0-.47,1.37V214h-1v-6h1v1h0a2.17,2.17,0,0,1,2-1.14,1.84,1.84,0,0,1,1.51.64,2.83,2.83,0,0,1,.52,1.84Z" fill="#2b3033"/><path d="M73.11,214h-1v-1h0a2.42,2.42,0,0,1-3.87.36,3.31,3.31,0,0,1-.68-2.2,3.6,3.6,0,0,1,.75-2.38,2.47,2.47,0,0,1,2-.9,1.92,1.92,0,0,1,1.8,1h0v-3.71h1Zm-1-2.71v-.88a1.72,1.72,0,0,0-.48-1.23,1.61,1.61,0,0,0-1.22-.5,1.66,1.66,0,0,0-1.38.64,2.82,2.82,0,0,0-.5,1.78,2.54,2.54,0,0,0,.48,1.64,1.58,1.58,0,0,0,1.3.6,1.64,1.64,0,0,0,1.3-.58A2.16,2.16,0,0,0,72.15,211.29Z" fill="#2b3033"/><path d="M79.35,214h-1v-.94h0a2,2,0,0,1-1.85,1.08,2,2,0,0,1-1.4-.47,1.64,1.64,0,0,1-.51-1.26q0-1.68,2-2l1.8-.25q0-1.53-1.24-1.53a3,3,0,0,0-2,.74v-1a3.72,3.72,0,0,1,2-.56q2.12,0,2.12,2.24Zm-1-3-1.45.2a2.35,2.35,0,0,0-1,.33,1,1,0,0,0-.34.84.92.92,0,0,0,.31.72,1.21,1.21,0,0,0,.83.28,1.54,1.54,0,0,0,1.18-.5,1.79,1.79,0,0,0,.47-1.27Z" fill="#2b3033"/><path d="M84.29,209a1.18,1.18,0,0,0-.73-.19,1.23,1.23,0,0,0-1,.58,2.68,2.68,0,0,0-.41,1.58V214h-1v-6h1v1.24h0a2.09,2.09,0,0,1,.63-1,1.43,1.43,0,0,1,.94-.36,1.57,1.57,0,0,1,.57.08Z" fill="#2b3033"/><path d="M90.59,208l-2.76,7q-.74,1.86-2.07,1.86a2.2,2.2,0,0,1-.63-.08v-.86a1.78,1.78,0,0,0,.57.11,1.18,1.18,0,0,0,1.09-.87l.48-1.14-2.34-6H86l1.62,4.62q0,.09.12.46h0q0-.14.12-.45L89.59,208Z" fill="#2b3033"/></g><g id="_Group_8" data-name="&lt;Group&gt;"><path d="M54.13,148H53l-1.41-2.36a5.13,5.13,0,0,0-.37-.56,2.14,2.14,0,0,0-.37-.38,1.29,1.29,0,0,0-.41-.21,1.69,1.69,0,0,0-.5-.07h-.81V148h-1v-8.4h2.51a3.57,3.57,0,0,1,1,.14,2.27,2.27,0,0,1,.81.42,2,2,0,0,1,.54.7,2.32,2.32,0,0,1,.19,1,2.36,2.36,0,0,1-.13.81,2.1,2.1,0,0,1-.37.65,2.27,2.27,0,0,1-.59.49,3,3,0,0,1-.77.31v0a1.77,1.77,0,0,1,.37.21,2,2,0,0,1,.3.28,3.76,3.76,0,0,1,.28.37l.31.48Zm-5-7.51v3h1.34a2,2,0,0,0,.68-.11,1.58,1.58,0,0,0,.54-.32,1.45,1.45,0,0,0,.36-.51,1.71,1.71,0,0,0,.13-.68,1.32,1.32,0,0,0-.44-1.05,1.88,1.88,0,0,0-1.26-.38Z" fill="#2b3033"/><path d="M59.64,145.24H55.4a2.24,2.24,0,0,0,.54,1.55,1.86,1.86,0,0,0,1.42.54,3,3,0,0,0,1.86-.67v.9a3.48,3.48,0,0,1-2.09.57,2.54,2.54,0,0,1-2-.82,3.35,3.35,0,0,1-.73-2.3,3.28,3.28,0,0,1,.79-2.28,2.55,2.55,0,0,1,2-.88,2.26,2.26,0,0,1,1.82.76,3.18,3.18,0,0,1,.64,2.12Zm-1-.81a2,2,0,0,0-.4-1.29,1.37,1.37,0,0,0-1.1-.46,1.55,1.55,0,0,0-1.15.49,2.21,2.21,0,0,0-.59,1.27Z" fill="#2b3033"/><path d="M66.21,148h-1v-1h0a2.22,2.22,0,0,1-2.06,1.16,2.24,2.24,0,0,1-1.81-.81,3.31,3.31,0,0,1-.68-2.19,3.6,3.6,0,0,1,.75-2.38,2.47,2.47,0,0,1,2-.9,1.92,1.92,0,0,1,1.8,1h0v-3.71h1Zm-1-2.71v-.88a1.72,1.72,0,0,0-.48-1.23,1.61,1.61,0,0,0-1.22-.5,1.66,1.66,0,0,0-1.38.64,2.82,2.82,0,0,0-.5,1.78,2.54,2.54,0,0,0,.48,1.64,1.58,1.58,0,0,0,1.3.6,1.64,1.64,0,0,0,1.3-.58A2.16,2.16,0,0,0,65.25,145.29Z" fill="#2b3033"/></g><g id="_Group_9" data-name="&lt;Group&gt;"><path d="M53.56,161.6l-2.77,5.3V170h-1v-3.08l-2.7-5.32h1.12l1.88,3.8s.09.22.21.52h0a3.08,3.08,0,0,1,.22-.52l2-3.8Z" fill="#2b3033"/><path d="M58.37,167.24H54.14a2.24,2.24,0,0,0,.54,1.55,1.86,1.86,0,0,0,1.42.54,3,3,0,0,0,1.86-.67v.9a3.48,3.48,0,0,1-2.09.57,2.54,2.54,0,0,1-2-.82,3.35,3.35,0,0,1-.73-2.3,3.28,3.28,0,0,1,.79-2.28,2.55,2.55,0,0,1,2-.88,2.26,2.26,0,0,1,1.82.76,3.18,3.18,0,0,1,.64,2.12Zm-1-.81a2,2,0,0,0-.4-1.29,1.37,1.37,0,0,0-1.1-.46,1.55,1.55,0,0,0-1.15.49,2.21,2.21,0,0,0-.59,1.27Z" fill="#2b3033"/><path d="M60.79,170h-1v-8.88h1Z" fill="#2b3033"/><path d="M63.69,170h-1v-8.88h1Z" fill="#2b3033"/><path d="M68.15,170.14A2.78,2.78,0,0,1,66,169.3a3.11,3.11,0,0,1-.79-2.23,3.24,3.24,0,0,1,.83-2.36,3,3,0,0,1,2.23-.85,2.69,2.69,0,0,1,2.09.83,3.28,3.28,0,0,1,.75,2.29,3.22,3.22,0,0,1-.81,2.3A2.84,2.84,0,0,1,68.15,170.14Zm.07-5.47a1.83,1.83,0,0,0-1.46.63,2.59,2.59,0,0,0-.54,1.74,2.45,2.45,0,0,0,.54,1.68,1.85,1.85,0,0,0,1.46.62,1.76,1.76,0,0,0,1.43-.6,2.62,2.62,0,0,0,.5-1.72,2.66,2.66,0,0,0-.5-1.73A1.75,1.75,0,0,0,68.22,164.67Z" fill="#2b3033"/><path d="M80.23,164l-1.8,6h-1l-1.24-4.29a2.8,2.8,0,0,1-.09-.56h0a2.63,2.63,0,0,1-.12.54L74.62,170h-1l-1.82-6h1l1.24,4.51a2.72,2.72,0,0,1,.08.54h0a2.52,2.52,0,0,1,.11-.55l1.38-4.5h.88l1.24,4.52a3.23,3.23,0,0,1,.09.54h0a2.49,2.49,0,0,1,.1-.54L79.28,164Z" fill="#2b3033"/></g><g id="_Group_10" data-name="&lt;Group&gt;"><path d="M48.1,192v-8.4h2.39a2.61,2.61,0,0,1,1.73.53,1.72,1.72,0,0,1,.64,1.39,2,2,0,0,1-.39,1.24,2.09,2.09,0,0,1-1.07.75v0a2.14,2.14,0,0,1,1.36.64,2,2,0,0,1,.51,1.41,2.2,2.2,0,0,1-.77,1.75,2.88,2.88,0,0,1-2,.67Zm1-7.51v2.71h1a1.91,1.91,0,0,0,1.27-.39,1.36,1.36,0,0,0,.46-1.1q0-1.22-1.61-1.22Zm0,3.6v3h1.34a2,2,0,0,0,1.34-.41,1.4,1.4,0,0,0,.48-1.12q0-1.49-2-1.49Z" fill="#2b3033"/><path d="M55.81,192h-1v-8.88h1Z" fill="#2b3033"/><path d="M62.61,192h-1v-.95h0a2,2,0,0,1-1.85,1.09q-2.14,0-2.14-2.55V186h1v3.43q0,1.9,1.45,1.9a1.47,1.47,0,0,0,1.16-.52,2,2,0,0,0,.45-1.36V186h1Z" fill="#2b3033"/><path d="M69.37,189.24H65.13a2.24,2.24,0,0,0,.54,1.55,1.86,1.86,0,0,0,1.42.54,3,3,0,0,0,1.86-.67v.9a3.48,3.48,0,0,1-2.09.57,2.54,2.54,0,0,1-2-.82,3.35,3.35,0,0,1-.73-2.3,3.28,3.28,0,0,1,.79-2.28,2.55,2.55,0,0,1,2-.88,2.26,2.26,0,0,1,1.82.76,3.18,3.18,0,0,1,.64,2.12Zm-1-.81a2,2,0,0,0-.4-1.29,1.37,1.37,0,0,0-1.1-.46,1.55,1.55,0,0,0-1.15.49,2.21,2.21,0,0,0-.59,1.27Z" fill="#2b3033"/></g></svg>