<svg id="Layer_1" data-name="Layer 1" xmlns="http://www.w3.org/2000/svg" xmlns:xlink="http://www.w3.org/1999/xlink" width="70" height="48" viewBox="0 0 70 48">
  <defs>
    <linearGradient id="linear-gradient" x1="35" y1="24.69" x2="35" y2="47.25" gradientUnits="userSpaceOnUse">
      <stop offset="0" stop-color="#ebe9ec"/>
      <stop offset="0.28" stop-color="#e5e6e9"/>
      <stop offset="1" stop-color="#dadfe2"/>
    </linearGradient>
  </defs>
  <title>button-layout-minimum</title>
  <g>
    <rect x="0.5" y="24.5" width="69" height="23" fill="url(#linear-gradient)"/>
    <path d="M69,25V47H1V25H69m1-1H0V48H70V24Z" fill="#a8abae"/>
  </g>
  <g>
    <path d="M31.48,40.21A3.71,3.71,0,0,1,28.62,39,4.42,4.42,0,0,1,27.55,36a4.63,4.63,0,0,1,1.09-3.23,3.85,3.85,0,0,1,3-1.21,3.58,3.58,0,0,1,2.81,1.18,4.37,4.37,0,0,1,1.06,3.06A4.63,4.63,0,0,1,34.4,39,3.74,3.74,0,0,1,31.48,40.21Zm.07-7.8a2.72,2.72,0,0,0-2.15,1,3.7,3.7,0,0,0-.82,2.51,3.77,3.77,0,0,0,.8,2.5,2.63,2.63,0,0,0,2.1.94,2.75,2.75,0,0,0,2.18-.9,3.64,3.64,0,0,0,.8-2.53,3.9,3.9,0,0,0-.77-2.57A2.69,2.69,0,0,0,31.55,32.41Z" fill="#4d5359"/>
    <path d="M43,40.07H41.62l-3.24-3.85a1.89,1.89,0,0,1-.23-.29h0v4.14h-1V31.66h1v3.95h0a2.39,2.39,0,0,1,.23-.28l3.14-3.67h1.22l-3.6,4Z" fill="#4d5359"/>
  </g>
  <g>
    <rect x="0.5" y="12" width="69.5" height="1" fill="#ec008c"/>
    <rect y="9" width="1" height="15.2" fill="#ec008c"/>
    <rect x="69" y="9" width="1" height="15.2" fill="#ec008c"/>
  </g>
  <g>
    <path d="M6.57,2c-.12.2-.26.46-.43.76s-.34.65-.53,1L5,5c-.19.44-.37.89-.54,1.36s-.31.93-.44,1.41A10.65,10.65,0,0,0,3.78,9.2H2.84a10.25,10.25,0,0,1,.29-1.4c.14-.48.29-1,.46-1.41s.35-.9.54-1.33.37-.82.55-1.18.35-.67.5-.94.26-.49.35-.65H1.67V1.5h4.9Z" fill="#ec008c"/>
    <path d="M12.55,5.32A8,8,0,0,1,12.38,7a4,4,0,0,1-.51,1.26,2.32,2.32,0,0,1-.81.78A2.18,2.18,0,0,1,10,9.34a2,2,0,0,1-1-.26,2.17,2.17,0,0,1-.77-.74,3.63,3.63,0,0,1-.47-1.2,7.32,7.32,0,0,1-.16-1.63,8,8,0,0,1,.17-1.79A3.9,3.9,0,0,1,8.2,2.43,2.14,2.14,0,0,1,9,1.64a2.23,2.23,0,0,1,1.11-.27C11.75,1.37,12.55,2.69,12.55,5.32Zm-.9.08c0-2.19-.52-3.28-1.56-3.28S8.44,3.23,8.44,5.46,9,8.58,10.05,8.58,11.65,7.52,11.65,5.4Z" fill="#ec008c"/>
    <path d="M19.22,11h-.79a6.86,6.86,0,0,1-1.66-4.69A7.12,7.12,0,0,1,18.43,1.5h.8a7.2,7.2,0,0,0-1.69,4.75A7.09,7.09,0,0,0,19.22,11Z" fill="#ec008c"/>
    <path d="M28,9.2h-.88V6a2.44,2.44,0,0,0-.28-1.32,1.09,1.09,0,0,0-.95-.41,1.18,1.18,0,0,0-1,.52,2,2,0,0,0-.4,1.23V9.2h-.88V5.94c0-1.09-.41-1.63-1.25-1.63a1.16,1.16,0,0,0-1,.49,2,2,0,0,0-.38,1.26V9.2h-.88V3.7h.88v.87h0a1.88,1.88,0,0,1,1.71-1A1.62,1.62,0,0,1,24.4,4.71a2,2,0,0,1,1.82-1.14c1.21,0,1.82.75,1.82,2.24Z" fill="#ec008c"/>
    <path d="M30.15,2.3a.55.55,0,0,1-.4-.16.53.53,0,0,1-.17-.4.57.57,0,0,1,.17-.42.59.59,0,0,1,.4-.16.63.63,0,0,1,.42.16.57.57,0,0,1,.16.42.55.55,0,0,1-.16.4A.58.58,0,0,1,30.15,2.3Zm.43,6.9H29.7V3.7h.88Z" fill="#ec008c"/>
    <path d="M36.93,9.2h-.88V6.06c0-1.16-.42-1.75-1.28-1.75a1.39,1.39,0,0,0-1.09.5,1.83,1.83,0,0,0-.43,1.25V9.2h-.88V3.7h.88v.91h0a2,2,0,0,1,1.8-1,1.66,1.66,0,0,1,1.38.59,2.55,2.55,0,0,1,.48,1.68Z" fill="#ec008c"/>
    <path d="M39,2.3a.55.55,0,0,1-.4-.16.53.53,0,0,1-.17-.4.57.57,0,0,1,.17-.42.59.59,0,0,1,.4-.16.6.6,0,0,1,.41.16.54.54,0,0,1,.17.42.52.52,0,0,1-.17.4A.56.56,0,0,1,39,2.3Zm.43,6.9h-.88V3.7h.88Z" fill="#ec008c"/>
    <path d="M49.07,9.2h-.89V6a2.35,2.35,0,0,0-.28-1.32A1.07,1.07,0,0,0,47,4.31a1.18,1.18,0,0,0-1,.52,1.91,1.91,0,0,0-.4,1.23V9.2h-.88V5.94c0-1.09-.42-1.63-1.25-1.63a1.18,1.18,0,0,0-1,.49,2,2,0,0,0-.37,1.26V9.2h-.88V3.7h.88v.87h0a1.88,1.88,0,0,1,1.71-1,1.6,1.6,0,0,1,1,.32,1.54,1.54,0,0,1,.57.82,2,2,0,0,1,1.83-1.14c1.21,0,1.82.75,1.82,2.24Z" fill="#ec008c"/>
    <path d="M55.18,9.2H54.3V8.33h0a1.82,1.82,0,0,1-1.7,1c-1.31,0-2-.78-2-2.34V3.7h.88V6.85c0,1.16.44,1.74,1.33,1.74a1.34,1.34,0,0,0,1.06-.48,1.79,1.79,0,0,0,.42-1.24V3.7h.88Z" fill="#ec008c"/>
    <path d="M64.76,9.2h-.88V6a2.35,2.35,0,0,0-.28-1.32,1.07,1.07,0,0,0-1-.41,1.18,1.18,0,0,0-.95.52,1.91,1.91,0,0,0-.4,1.23V9.2h-.88V5.94c0-1.09-.42-1.63-1.25-1.63a1.18,1.18,0,0,0-1,.49,2,2,0,0,0-.37,1.26V9.2H57V3.7h.88v.87h0a1.88,1.88,0,0,1,1.71-1,1.6,1.6,0,0,1,1,.32,1.54,1.54,0,0,1,.57.82A2,2,0,0,1,63,3.57c1.21,0,1.81.75,1.81,2.24Z" fill="#ec008c"/>
    <path d="M66.45,11h-.78a7.14,7.14,0,0,0,1.67-4.7A7.24,7.24,0,0,0,65.66,1.5h.79a7.08,7.08,0,0,1,1.68,4.76A6.83,6.83,0,0,1,66.45,11Z" fill="#ec008c"/>
  </g>
</svg>
