<svg id="Layer_1" data-name="Layer 1" xmlns="http://www.w3.org/2000/svg" xmlns:xlink="http://www.w3.org/1999/xlink" width="658.47" height="171.44" viewBox="0 0 658.47 171.44"><defs><linearGradient id="linear-gradient" x1="100" y1="33.38" x2="100" y2="55.93" gradientUnits="userSpaceOnUse"><stop offset="0" stop-color="#ebe9ec"/><stop offset="0.28" stop-color="#e5e6e9"/><stop offset="1" stop-color="#dadfe2"/></linearGradient><linearGradient id="linear-gradient-2" x1="89.5" y1="128.65" x2="89.5" y2="151.21" xlink:href="#linear-gradient"/><linearGradient id="linear-gradient-3" x1="5832" y1="3779.57" x2="5900.19" y2="3779.57" gradientTransform="translate(4259 -5801) rotate(90)" gradientUnits="userSpaceOnUse"><stop offset="0" stop-color="#e7e9ea"/><stop offset="0.12" stop-color="#e5e8e9"/><stop offset="1" stop-color="#dadfe2"/></linearGradient><linearGradient id="linear-gradient-4" x1="5832" y1="3705.57" x2="5900.19" y2="3705.57" xlink:href="#linear-gradient-3"/><linearGradient id="linear-gradient-5" x1="5832" y1="3631.57" x2="5900.19" y2="3631.57" xlink:href="#linear-gradient-3"/><linearGradient id="linear-gradient-6" x1="5832" y1="3924.57" x2="5899" y2="3924.57" xlink:href="#linear-gradient-3"/></defs><title>button-visual-specs</title><path d="M60.65,9.87V8.43a2.22,2.22,0,0,0,.46.32,3.55,3.55,0,0,0,.57.24,4.46,4.46,0,0,0,.6.15,3.19,3.19,0,0,0,.55.05,2.35,2.35,0,0,0,1.31-.29A1,1,0,0,0,64.56,8a.93.93,0,0,0-.14-.52,1.51,1.51,0,0,0-.4-.4,4.22,4.22,0,0,0-.61-.35l-.75-.35q-.43-.23-.8-.46a3.43,3.43,0,0,1-.64-.52,2.17,2.17,0,0,1-.43-.64A2.09,2.09,0,0,1,60.64,4a1.93,1.93,0,0,1,.27-1,2.25,2.25,0,0,1,.7-.72,3.22,3.22,0,0,1,1-.42,4.72,4.72,0,0,1,1.14-.14,4.59,4.59,0,0,1,1.92.3V3.33a3.07,3.07,0,0,0-1.84-.52,3.3,3.3,0,0,0-.62.06,1.84,1.84,0,0,0-.55.19,1.19,1.19,0,0,0-.4.35.85.85,0,0,0-.15.51,1,1,0,0,0,.12.49,1.25,1.25,0,0,0,.34.38,3.5,3.5,0,0,0,.55.33l.75.35q.44.23.83.48a3.91,3.91,0,0,1,.69.56,2.45,2.45,0,0,1,.47.68A2,2,0,0,1,66,8a2,2,0,0,1-1,1.79,3.09,3.09,0,0,1-1,.4,5.67,5.67,0,0,1-1.2.12l-.52,0-.63-.09a5.79,5.79,0,0,1-.61-.15A1.93,1.93,0,0,1,60.65,9.87Z" fill="#72be44"/><path d="M68.1,2.94a.82.82,0,0,1-.57-.22.71.71,0,0,1-.24-.55.73.73,0,0,1,.24-.56.81.81,0,0,1,.57-.22.83.83,0,0,1,.59.22.73.73,0,0,1,.24.56.72.72,0,0,1-.24.54A.82.82,0,0,1,68.1,2.94Zm.67,7.26H67.42v-6h1.36Z" fill="#72be44"/><path d="M75,4.77,71.74,9.14H75V10.2H69.84V9.69l3.31-4.43h-3V4.2H75Z" fill="#72be44"/><path d="M81.21,7.57H77.12a1.73,1.73,0,0,0,.51,1.28A1.91,1.91,0,0,0,79,9.3a3,3,0,0,0,1.76-.57v1.1a4,4,0,0,1-2.17.52,2.68,2.68,0,0,1-2.08-.82,3.27,3.27,0,0,1-.75-2.3,3.2,3.2,0,0,1,.83-2.28,2.71,2.71,0,0,1,2.06-.88,2.36,2.36,0,0,1,1.9.79A3.28,3.28,0,0,1,81.21,7Zm-1.31-1a1.75,1.75,0,0,0-.35-1.14,1.16,1.16,0,0,0-.94-.41,1.32,1.32,0,0,0-1,.43,2,2,0,0,0-.5,1.12Z" fill="#72be44"/><path d="M89.41,10.34A3.78,3.78,0,0,1,86.5,9.16,4.33,4.33,0,0,1,85.41,6.1a4.58,4.58,0,0,1,1.11-3.23,3.91,3.91,0,0,1,3-1.21A3.69,3.69,0,0,1,92.4,2.83a4.34,4.34,0,0,1,1.08,3.06,4.6,4.6,0,0,1-1.11,3.25A3.84,3.84,0,0,1,89.41,10.34Zm.06-7.46a2.34,2.34,0,0,0-1.88.86A3.41,3.41,0,0,0,86.88,6a3.44,3.44,0,0,0,.7,2.26,2.27,2.27,0,0,0,1.84.86,2.38,2.38,0,0,0,1.9-.81A3.4,3.4,0,0,0,92,6a3.56,3.56,0,0,0-.68-2.33A2.29,2.29,0,0,0,89.48,2.88Z" fill="#72be44"/><path d="M98.26,2.43a1.24,1.24,0,0,0-.63-.16q-1,0-1,1.12V4.2H98V5.27H96.65V10.2H95.29V5.27h-1V4.2h1v-1a1.89,1.89,0,0,1,.62-1.5,2.26,2.26,0,0,1,1.55-.55,2.31,2.31,0,0,1,.8.11Z" fill="#72be44"/><path d="M102.46,10.2V1.8h2.67a3.15,3.15,0,0,1,1.93.53,1.66,1.66,0,0,1,.71,1.39,2,2,0,0,1-.4,1.24,2.18,2.18,0,0,1-1.12.75v0a2.19,2.19,0,0,1,1.39.64,2,2,0,0,1,.52,1.41,2.12,2.12,0,0,1-.85,1.75,3.36,3.36,0,0,1-2.14.67Zm1.39-7.28V5.31h.9A1.73,1.73,0,0,0,105.89,5a1.19,1.19,0,0,0,.41-1q0-1.08-1.44-1.08Zm0,3.51V9.09H105a1.81,1.81,0,0,0,1.2-.36,1.23,1.23,0,0,0,.42-1q0-1.31-1.81-1.31Z" fill="#72be44"/><path d="M114.79,10.2h-1.36V9.25h0a2,2,0,0,1-1.84,1.09q-2.13,0-2.13-2.55V4.2h1.36V7.65q0,1.62,1.25,1.62a1.26,1.26,0,0,0,1-.45,1.71,1.71,0,0,0,.39-1.17V4.2h1.36Z" fill="#72be44"/><path d="M119.72,10.14a2.36,2.36,0,0,1-1,.2q-1.75,0-1.75-1.68V5.27h-1V4.2h1V2.81l1.36-.39V4.2h1.44V5.27h-1.44v3a1.18,1.18,0,0,0,.19.76.8.8,0,0,0,.64.23.93.93,0,0,0,.6-.2Z" fill="#72be44"/><path d="M124.05,10.14a2.36,2.36,0,0,1-1,.2q-1.75,0-1.75-1.68V5.27h-1V4.2h1V2.81l1.36-.39V4.2h1.44V5.27h-1.44v3a1.18,1.18,0,0,0,.19.76.8.8,0,0,0,.64.23.93.93,0,0,0,.6-.2Z" fill="#72be44"/><path d="M127.82,10.34a3,3,0,0,1-2.22-.84,3,3,0,0,1-.83-2.23,3.16,3.16,0,0,1,.86-2.36A3.18,3.18,0,0,1,128,4.06a2.88,2.88,0,0,1,2.19.83,3.19,3.19,0,0,1,.79,2.29,3.14,3.14,0,0,1-.85,2.3A3,3,0,0,1,127.82,10.34Zm.06-5.2a1.55,1.55,0,0,0-1.26.56,2.33,2.33,0,0,0-.46,1.54,2.2,2.2,0,0,0,.47,1.49,1.57,1.57,0,0,0,1.25.54,1.49,1.49,0,0,0,1.23-.53,2.36,2.36,0,0,0,.43-1.52,2.4,2.4,0,0,0-.43-1.53A1.49,1.49,0,0,0,127.88,5.14Z" fill="#72be44"/><path d="M137.67,10.2h-1.36V6.82q0-1.68-1.19-1.68a1.3,1.3,0,0,0-1,.47,1.73,1.73,0,0,0-.4,1.17V10.2h-1.37v-6h1.37v1h0a2.14,2.14,0,0,1,1.95-1.14,1.81,1.81,0,0,1,1.49.64,2.85,2.85,0,0,1,.52,1.84Z" fill="#72be44"/><path d="M138.95,10V8.75a2.71,2.71,0,0,0,1.68.58q1.23,0,1.23-.73a.57.57,0,0,0-.11-.35,1,1,0,0,0-.28-.25,2.23,2.23,0,0,0-.42-.2l-.54-.2a5.74,5.74,0,0,1-.67-.31,2,2,0,0,1-.49-.37,1.4,1.4,0,0,1-.3-.47,1.74,1.74,0,0,1-.1-.62,1.42,1.42,0,0,1,.21-.76,1.78,1.78,0,0,1,.55-.56,2.64,2.64,0,0,1,.79-.34,3.59,3.59,0,0,1,.91-.11,4.13,4.13,0,0,1,1.49.25V5.5a2.51,2.51,0,0,0-1.45-.43,1.9,1.9,0,0,0-.47.05,1.2,1.2,0,0,0-.35.15.72.72,0,0,0-.23.23.54.54,0,0,0-.08.29.62.62,0,0,0,.08.33.75.75,0,0,0,.24.24,2.1,2.1,0,0,0,.39.19l.52.18a7.58,7.58,0,0,1,.69.32,2.35,2.35,0,0,1,.52.37,1.46,1.46,0,0,1,.33.48,1.63,1.63,0,0,1,.12.65,1.48,1.48,0,0,1-.21.8,1.76,1.76,0,0,1-.56.56,2.63,2.63,0,0,1-.81.33,4.22,4.22,0,0,1-1,.11A4.09,4.09,0,0,1,138.95,10Z" fill="#72be44"/><path d="M145.39,7.83a2.35,2.35,0,0,1-.09-.38,2.68,2.68,0,0,1,0-.46,1.44,1.44,0,0,1,.14-.65,2.66,2.66,0,0,1,.36-.54,6,6,0,0,1,.46-.49l.46-.46a2.49,2.49,0,0,0,.36-.47,1.05,1.05,0,0,0,.14-.54.92.92,0,0,0-.4-.79,1.31,1.31,0,0,0-.42-.2,1.93,1.93,0,0,0-.51-.06,2.36,2.36,0,0,0-1.66.78V2.22a3.89,3.89,0,0,1,2-.56,3.19,3.19,0,0,1,.9.12,2.25,2.25,0,0,1,.74.36,1.72,1.72,0,0,1,.5.6,1.81,1.81,0,0,1,.18.83,2,2,0,0,1-.15.8A3,3,0,0,1,148,5a3.65,3.65,0,0,1-.5.52q-.27.23-.5.46a2.57,2.57,0,0,0-.38.47,1,1,0,0,0-.15.54,1.52,1.52,0,0,0,.06.46,3,3,0,0,0,.13.35Zm.67,2.48a.87.87,0,0,1-.59-.23.71.71,0,0,1-.25-.55.7.7,0,0,1,.25-.55.86.86,0,0,1,1.18,0,.7.7,0,0,1,.25.55.71.71,0,0,1-.25.55A.86.86,0,0,1,146.06,10.31Z" fill="#72be44"/><rect x="72" y="33.19" width="56" height="23" fill="url(#linear-gradient)"/><path d="M71,32.19v25h58v-25Zm57,24H72v-23h56Z" fill="#a8abae"/><path d="M89.29,48.58a4.93,4.93,0,0,1-2.32.49,3.74,3.74,0,0,1-2.87-1.15,4.26,4.26,0,0,1-1.08-3,4.46,4.46,0,0,1,1.21-3.26,4.12,4.12,0,0,1,3.08-1.24,4.93,4.93,0,0,1,2,.35v1a4,4,0,0,0-2-.5,3.06,3.06,0,0,0-2.35,1,3.64,3.64,0,0,0-.9,2.58,3.47,3.47,0,0,0,.84,2.45,2.86,2.86,0,0,0,2.21.91,4.14,4.14,0,0,0,2.19-.56Z" fill="#4d5359"/><path d="M95.17,48.93h-1V48h0a2,2,0,0,1-1.85,1.08,2,2,0,0,1-1.4-.47,1.64,1.64,0,0,1-.51-1.26q0-1.68,2-2l1.8-.25q0-1.53-1.24-1.53a3,3,0,0,0-2,.74v-1a3.72,3.72,0,0,1,2-.56q2.12,0,2.12,2.24Zm-1-3-1.45.2a2.35,2.35,0,0,0-1,.33,1,1,0,0,0-.34.84.92.92,0,0,0,.31.72,1.21,1.21,0,0,0,.83.28,1.54,1.54,0,0,0,1.18-.5,1.79,1.79,0,0,0,.47-1.27Z" fill="#4d5359"/><path d="M102,48.93h-1V45.51q0-1.91-1.39-1.91a1.51,1.51,0,0,0-1.19.54,2,2,0,0,0-.47,1.37v3.42H97v-6h1v1h0a2.17,2.17,0,0,1,2-1.14,1.84,1.84,0,0,1,1.51.64,2.83,2.83,0,0,1,.52,1.84Z" fill="#4d5359"/><path d="M107.86,48.65a3.12,3.12,0,0,1-1.64.42,2.72,2.72,0,0,1-2.07-.83,3,3,0,0,1-.79-2.17,3.33,3.33,0,0,1,.85-2.38,3,3,0,0,1,2.27-.9,3.16,3.16,0,0,1,1.39.29v1a2.44,2.44,0,0,0-1.43-.47,1.93,1.93,0,0,0-1.51.66,2.5,2.5,0,0,0-.59,1.73,2.38,2.38,0,0,0,.55,1.66,1.91,1.91,0,0,0,1.49.61,2.41,2.41,0,0,0,1.48-.52Z" fill="#4d5359"/><path d="M114.14,46.17H109.9a2.24,2.24,0,0,0,.54,1.55,1.86,1.86,0,0,0,1.42.54,3,3,0,0,0,1.86-.67v.9a3.48,3.48,0,0,1-2.09.57,2.54,2.54,0,0,1-2-.82,3.35,3.35,0,0,1-.73-2.3,3.28,3.28,0,0,1,.79-2.28,2.55,2.55,0,0,1,2-.88,2.26,2.26,0,0,1,1.82.76,3.18,3.18,0,0,1,.64,2.12Zm-1-.81a2,2,0,0,0-.4-1.29,1.37,1.37,0,0,0-1.1-.46,1.55,1.55,0,0,0-1.15.49,2.21,2.21,0,0,0-.59,1.27Z" fill="#4d5359"/><path d="M116.55,48.93h-1V40h1Z" fill="#4d5359"/><path d="M53.52,43.84a1.82,1.82,0,0,0-.12-.69,1.38,1.38,0,0,0-.33-.49,1.35,1.35,0,0,0-.49-.29,1.86,1.86,0,0,0-.61-.1,2,2,0,0,0-.55.08,2.7,2.7,0,0,0-.52.22,3.22,3.22,0,0,0-.49.33,3.57,3.57,0,0,0-.44.43V42.26a2.87,2.87,0,0,1,.91-.62,3.13,3.13,0,0,1,1.22-.21,2.87,2.87,0,0,1,1,.15,2.17,2.17,0,0,1,.76.45,2.07,2.07,0,0,1,.51.73,2.51,2.51,0,0,1,.18,1,3.48,3.48,0,0,1-.11.93,2.91,2.91,0,0,1-.35.78,3.76,3.76,0,0,1-.58.7,8.27,8.27,0,0,1-.83.69q-.59.43-1,.74a4.32,4.32,0,0,0-.61.57,1.68,1.68,0,0,0-.32.54,1.92,1.92,0,0,0-.09.62h4.18v.88H49.64v-.43a3.65,3.65,0,0,1,.12-1,2.55,2.55,0,0,1,.39-.8,4.39,4.39,0,0,1,.71-.76q.44-.38,1.07-.85a6.85,6.85,0,0,0,.76-.64,3.33,3.33,0,0,0,.5-.61,2.23,2.23,0,0,0,.27-.62A2.76,2.76,0,0,0,53.52,43.84Z" fill="#7f3f96"/><path d="M60.45,41.58v5.69h1.08v.9H60.45v2H59.5v-2H55.55v-.85q.55-.64,1.11-1.36t1.08-1.47q.51-.75.95-1.49a13.62,13.62,0,0,0,.74-1.42Zm-3.81,5.69H59.5V43.05q-.44.79-.83,1.41t-.75,1.13q-.35.5-.68.91Z" fill="#7f3f96"/><path d="M84,25.74a3.27,3.27,0,0,1-.2,1.16,2.81,2.81,0,0,1-.55.91,2.46,2.46,0,0,1-.84.6,2.59,2.59,0,0,1-1.05.21,2.34,2.34,0,0,1-1.13-.27,2.43,2.43,0,0,1-.85-.78,3.79,3.79,0,0,1-.53-1.24,6.89,6.89,0,0,1-.18-1.65,8,8,0,0,1,.24-2,5,5,0,0,1,.69-1.57,3.22,3.22,0,0,1,1.08-1,2.84,2.84,0,0,1,1.41-.35,3.33,3.33,0,0,1,1.39.25v.93a2.9,2.9,0,0,0-1.37-.34,2,2,0,0,0-1,.26,2.36,2.36,0,0,0-.77.73,3.6,3.6,0,0,0-.5,1.14,5.92,5.92,0,0,0-.17,1.49h0a2,2,0,0,1,1.92-1.08,2.47,2.47,0,0,1,1,.19,2.16,2.16,0,0,1,.76.54,2.46,2.46,0,0,1,.48.84A3.26,3.26,0,0,1,84,25.74Zm-1,.13a2.75,2.75,0,0,0-.11-.81,1.77,1.77,0,0,0-.32-.61,1.37,1.37,0,0,0-.51-.39,1.68,1.68,0,0,0-.69-.14,1.57,1.57,0,0,0-.66.14,1.65,1.65,0,0,0-.53.38,1.75,1.75,0,0,0-.35.55,1.79,1.79,0,0,0-.13.67,2.74,2.74,0,0,0,.12.83,2.17,2.17,0,0,0,.35.68,1.66,1.66,0,0,0,.53.45,1.42,1.42,0,0,0,.68.17,1.52,1.52,0,0,0,.66-.14,1.48,1.48,0,0,0,.51-.39,1.84,1.84,0,0,0,.33-.6A2.45,2.45,0,0,0,83,25.87Z" fill="#7f3f96"/><path d="M90.45,24.13A8.68,8.68,0,0,1,90.25,26a4.53,4.53,0,0,1-.55,1.41,2.51,2.51,0,0,1-.88.87,2.37,2.37,0,0,1-1.19.3,2.22,2.22,0,0,1-1.13-.29,2.39,2.39,0,0,1-.83-.83,4.29,4.29,0,0,1-.52-1.34A8.52,8.52,0,0,1,85,24.34a9.65,9.65,0,0,1,.18-2,4.65,4.65,0,0,1,.54-1.45,2.33,2.33,0,0,1,2.1-1.18Q90.45,19.71,90.45,24.13Zm-1,.1q0-3.68-1.71-3.68T86,24.29q0,3.49,1.76,3.49T89.46,24.22Z" fill="#7f3f96"/><path d="M105.29,19.85l-2.37,8.62h-1.15L100,22.18a4,4,0,0,1-.13-.88h0a4.57,4.57,0,0,1-.15.87L98,28.48H96.84l-2.46-8.62h1.08l1.79,6.61a4.43,4.43,0,0,1,.14.87h0a5.22,5.22,0,0,1,.18-.87l1.86-6.61h.94l1.78,6.66a5,5,0,0,1,.14.81h0a5,5,0,0,1,.16-.83l1.72-6.64Z" fill="#7f3f96"/><path d="M106.9,20.76a.6.6,0,0,1-.44-.18.62.62,0,0,1-.18-.46.63.63,0,0,1,.18-.46.6.6,0,0,1,.44-.18.61.61,0,0,1,.45.18.62.62,0,0,1,.18.46.62.62,0,0,1-.18.45A.61.61,0,0,1,106.9,20.76Zm.47,7.72h-1V22.32h1Z" fill="#7f3f96"/><path d="M114.43,28.48h-1v-1h0a2.38,2.38,0,0,1-3.87.36,3.45,3.45,0,0,1-.68-2.25,3.75,3.75,0,0,1,.75-2.45,2.45,2.45,0,0,1,2-.92,1.91,1.91,0,0,1,1.8,1h0V19.36h1Zm-1-2.78v-.91a1.79,1.79,0,0,0-.48-1.26,1.59,1.59,0,0,0-1.22-.52,1.64,1.64,0,0,0-1.38.66,3,3,0,0,0-.5,1.83,2.65,2.65,0,0,0,.48,1.68,1.56,1.56,0,0,0,1.3.62,1.62,1.62,0,0,0,1.3-.59A2.26,2.26,0,0,0,113.47,25.69Z" fill="#7f3f96"/><path d="M121.2,25.64H117a2.34,2.34,0,0,0,.54,1.59,1.84,1.84,0,0,0,1.42.56,2.9,2.9,0,0,0,1.86-.69V28a3.41,3.41,0,0,1-2.09.59,2.51,2.51,0,0,1-2-.84,3.49,3.49,0,0,1-.73-2.36,3.42,3.42,0,0,1,.79-2.34,2.52,2.52,0,0,1,2-.9,2.23,2.23,0,0,1,1.82.78,3.32,3.32,0,0,1,.64,2.17Zm-1-.84a2,2,0,0,0-.4-1.33,1.35,1.35,0,0,0-1.1-.48,1.54,1.54,0,0,0-1.15.5,2.29,2.29,0,0,0-.59,1.3Z" fill="#7f3f96"/><rect x="66" y="32.2" width="6" height="1" fill="#7f3f96"/><rect x="65" y="32.2" width="1" height="25" fill="#7f3f96"/><rect x="65" y="56.2" width="7" height="1" fill="#7f3f96"/><rect x="45" y="128.46" width="89" height="23" fill="url(#linear-gradient-2)"/><path d="M44,127.47v25h91v-25Zm90,24H45v-23h89Z" fill="#a8abae"/><path d="M59.93,144.2H55.57v-8.4h1v7.51h3.38Z" fill="#4d5359"/><path d="M63.6,144.34a2.78,2.78,0,0,1-2.12-.84,3.11,3.11,0,0,1-.79-2.23,3.24,3.24,0,0,1,.83-2.36,3,3,0,0,1,2.23-.85,2.69,2.69,0,0,1,2.09.83,3.28,3.28,0,0,1,.75,2.29,3.22,3.22,0,0,1-.81,2.3A2.84,2.84,0,0,1,63.6,144.34Zm.07-5.47a1.83,1.83,0,0,0-1.46.63,2.59,2.59,0,0,0-.54,1.74,2.45,2.45,0,0,0,.54,1.68,1.85,1.85,0,0,0,1.46.62,1.76,1.76,0,0,0,1.43-.6,2.62,2.62,0,0,0,.5-1.72,2.66,2.66,0,0,0-.5-1.73A1.75,1.75,0,0,0,63.67,138.87Z" fill="#4d5359"/><path d="M71.25,139.17a1.18,1.18,0,0,0-.73-.19,1.23,1.23,0,0,0-1,.58,2.68,2.68,0,0,0-.41,1.58v3.06h-1v-6h1v1.24h0a2.1,2.1,0,0,1,.63-1,1.43,1.43,0,0,1,.94-.35,1.57,1.57,0,0,1,.57.08Z" fill="#4d5359"/><path d="M77,141.44H72.72a2.24,2.24,0,0,0,.54,1.55,1.86,1.86,0,0,0,1.42.54,3,3,0,0,0,1.86-.67v.9a3.48,3.48,0,0,1-2.09.57,2.54,2.54,0,0,1-2-.82,3.35,3.35,0,0,1-.73-2.3,3.28,3.28,0,0,1,.79-2.28,2.55,2.55,0,0,1,2-.88,2.26,2.26,0,0,1,1.82.76,3.18,3.18,0,0,1,.64,2.12Zm-1-.81a2,2,0,0,0-.4-1.29,1.37,1.37,0,0,0-1.1-.46,1.55,1.55,0,0,0-1.15.49,2.21,2.21,0,0,0-.59,1.27Z" fill="#4d5359"/><path d="M86.93,144.2H86v-3.45a2.6,2.6,0,0,0-.31-1.44,1.17,1.17,0,0,0-1-.45,1.28,1.28,0,0,0-1,.56,2.15,2.15,0,0,0-.43,1.35v3.42h-1v-3.56q0-1.77-1.37-1.77a1.26,1.26,0,0,0-1,.53,2.19,2.19,0,0,0-.41,1.38v3.42h-1v-6h1v.95h0a2,2,0,0,1,1.86-1.09A1.73,1.73,0,0,1,83,139.3a2.14,2.14,0,0,1,2-1.24q2,0,2,2.44Z" fill="#4d5359"/><path d="M93.15,144.2h-1v-8.4h1Z" fill="#4d5359"/><path d="M96.21,143.33h0V147h-1V138.2h1v1.05h0a2.27,2.27,0,0,1,2.07-1.2,2.2,2.2,0,0,1,1.81.81,3.34,3.34,0,0,1,.65,2.16,3.72,3.72,0,0,1-.73,2.41,2.44,2.44,0,0,1-2,.91A2,2,0,0,1,96.21,143.33Zm0-2.42v.84a1.78,1.78,0,0,0,.48,1.26,1.72,1.72,0,0,0,2.6-.15,3.06,3.06,0,0,0,.5-1.86,2.42,2.42,0,0,0-.46-1.57,1.53,1.53,0,0,0-1.25-.57,1.7,1.7,0,0,0-1.35.58A2.14,2.14,0,0,0,96.19,140.91Z" fill="#4d5359"/><path d="M101.92,144v-1a2.84,2.84,0,0,0,1.73.58q1.27,0,1.27-.84a.73.73,0,0,0-.11-.41,1.08,1.08,0,0,0-.29-.3,2.26,2.26,0,0,0-.43-.23l-.54-.21a6.9,6.9,0,0,1-.7-.32,2.12,2.12,0,0,1-.5-.36,1.35,1.35,0,0,1-.3-.46,1.63,1.63,0,0,1-.1-.6,1.43,1.43,0,0,1,.19-.75,1.71,1.71,0,0,1,.52-.54,2.4,2.4,0,0,1,.74-.33,3.26,3.26,0,0,1,.85-.11,3.44,3.44,0,0,1,1.39.27v1a2.72,2.72,0,0,0-1.52-.43,1.78,1.78,0,0,0-.49.06,1.19,1.19,0,0,0-.37.17.8.8,0,0,0-.24.27.7.7,0,0,0-.08.34.82.82,0,0,0,.08.39.86.86,0,0,0,.25.28,1.9,1.9,0,0,0,.4.22l.53.22a7.42,7.42,0,0,1,.71.31,2.45,2.45,0,0,1,.54.36,1.42,1.42,0,0,1,.34.47,1.5,1.5,0,0,1,.12.63,1.48,1.48,0,0,1-.2.77,1.68,1.68,0,0,1-.52.54,2.4,2.4,0,0,1-.76.32,3.73,3.73,0,0,1-.9.11A3.4,3.4,0,0,1,101.92,144Z" fill="#4d5359"/><path d="M112.23,144.2h-1v-.95h0a2,2,0,0,1-1.85,1.09q-2.14,0-2.14-2.55V138.2h1v3.43q0,1.9,1.45,1.9a1.47,1.47,0,0,0,1.16-.52,2,2,0,0,0,.45-1.36V138.2h1Z" fill="#4d5359"/><path d="M122.69,144.2h-1v-3.45a2.6,2.6,0,0,0-.31-1.44,1.17,1.17,0,0,0-1-.45,1.28,1.28,0,0,0-1,.56,2.15,2.15,0,0,0-.43,1.35v3.42h-1v-3.56q0-1.77-1.37-1.77a1.26,1.26,0,0,0-1,.53,2.19,2.19,0,0,0-.41,1.38v3.42h-1v-6h1v.95h0a2,2,0,0,1,1.86-1.09,1.73,1.73,0,0,1,1.7,1.24,2.14,2.14,0,0,1,2-1.24q2,0,2,2.44Z" fill="#4d5359"/><path d="M48.24,129.48h-1V122a2.26,2.26,0,0,1-.33.26,5.29,5.29,0,0,1-.48.29q-.27.15-.56.27a4,4,0,0,1-.58.2v-1a5.52,5.52,0,0,0,.67-.24,7.68,7.68,0,0,0,.7-.34q.34-.19.65-.4a5.13,5.13,0,0,0,.53-.41h.36Z" fill="#7f3f96"/><path d="M56.45,125.13a8.68,8.68,0,0,1-.19,1.92,4.53,4.53,0,0,1-.55,1.41,2.51,2.51,0,0,1-.88.87,2.37,2.37,0,0,1-1.19.3,2.22,2.22,0,0,1-1.13-.29,2.39,2.39,0,0,1-.83-.83,4.29,4.29,0,0,1-.52-1.34,8.52,8.52,0,0,1-.18-1.83,9.65,9.65,0,0,1,.18-2,4.65,4.65,0,0,1,.54-1.45,2.33,2.33,0,0,1,2.1-1.18Q56.45,120.71,56.45,125.13Zm-1,.1q0-3.68-1.71-3.68T52,125.29q0,3.49,1.76,3.49T55.46,125.22Z" fill="#7f3f96"/><path d="M23.52,139.11a1.82,1.82,0,0,0-.12-.69,1.38,1.38,0,0,0-.33-.49,1.35,1.35,0,0,0-.49-.29,1.86,1.86,0,0,0-.61-.1,2,2,0,0,0-.55.08,2.7,2.7,0,0,0-.52.22,3.22,3.22,0,0,0-.49.33,3.57,3.57,0,0,0-.44.43v-1.06a2.87,2.87,0,0,1,.91-.62,3.13,3.13,0,0,1,1.22-.21,2.87,2.87,0,0,1,1,.15,2.17,2.17,0,0,1,.76.45,2.07,2.07,0,0,1,.51.73,2.51,2.51,0,0,1,.18,1,3.48,3.48,0,0,1-.11.93,2.91,2.91,0,0,1-.35.78,3.76,3.76,0,0,1-.58.7,8.27,8.27,0,0,1-.83.69q-.59.43-1,.74a4.32,4.32,0,0,0-.61.57,1.68,1.68,0,0,0-.32.54,1.92,1.92,0,0,0-.09.62h4.18v.88H19.64V145a3.65,3.65,0,0,1,.12-1,2.55,2.55,0,0,1,.39-.8,4.39,4.39,0,0,1,.71-.76q.44-.38,1.07-.85a6.85,6.85,0,0,0,.76-.64,3.33,3.33,0,0,0,.5-.61,2.23,2.23,0,0,0,.27-.62A2.76,2.76,0,0,0,23.52,139.11Z" fill="#7f3f96"/><path d="M30.45,136.85v5.69h1.08v.9H30.45v2H29.5v-2H25.55v-.85q.55-.64,1.11-1.36t1.08-1.47q.51-.75.95-1.49a13.62,13.62,0,0,0,.74-1.42Zm-3.81,5.69H29.5v-4.22q-.44.79-.83,1.41t-.75,1.13q-.35.5-.68.91Z" fill="#7f3f96"/><rect x="45" y="131.48" width="10" height="1" fill="#7f3f96"/><rect x="45" y="131.48" width="1" height="9" fill="#7f3f96"/><rect x="54" y="131.48" width="1" height="9" fill="#7f3f96"/><path d="M127.24,129.48h-1V122a2.26,2.26,0,0,1-.33.26,5.29,5.29,0,0,1-.48.29q-.27.15-.56.27a4,4,0,0,1-.58.2v-1a5.52,5.52,0,0,0,.67-.24,7.68,7.68,0,0,0,.7-.34q.34-.19.65-.4a5.13,5.13,0,0,0,.53-.41h.36Z" fill="#7f3f96"/><path d="M135.45,125.13a8.68,8.68,0,0,1-.19,1.92,4.53,4.53,0,0,1-.55,1.41,2.51,2.51,0,0,1-.88.87,2.37,2.37,0,0,1-1.19.3,2.22,2.22,0,0,1-1.13-.29,2.39,2.39,0,0,1-.83-.83,4.29,4.29,0,0,1-.52-1.34,8.52,8.52,0,0,1-.18-1.83,9.65,9.65,0,0,1,.18-2,4.65,4.65,0,0,1,.54-1.45,2.33,2.33,0,0,1,2.1-1.18Q135.45,120.71,135.45,125.13Zm-1,.1q0-3.68-1.71-3.68t-1.8,3.75q0,3.49,1.76,3.49T134.46,125.22Z" fill="#7f3f96"/><rect x="124" y="131.48" width="10" height="1" fill="#7f3f96"/><rect x="124" y="131.48" width="1" height="9" fill="#7f3f96"/><rect x="133" y="131.48" width="1" height="9" fill="#7f3f96"/><rect x="36" y="127.48" width="6" height="1" fill="#7f3f96"/><rect x="35" y="127.48" width="1" height="25" fill="#7f3f96"/><rect x="35" y="151.48" width="7" height="1" fill="#7f3f96"/><path d="M59.49,69.48h-1V65.94a2.73,2.73,0,0,0-.31-1.48,1.15,1.15,0,0,0-1-.46,1.27,1.27,0,0,0-1,.58A2.25,2.25,0,0,0,55.71,66v3.51h-1V65.82q0-1.82-1.37-1.82a1.25,1.25,0,0,0-1,.54A2.29,2.29,0,0,0,51.93,66v3.51H51V63.32h1v1h0a2,2,0,0,1,1.86-1.12,1.71,1.71,0,0,1,1.07.35,1.77,1.77,0,0,1,.63.92,2.14,2.14,0,0,1,2-1.27q2,0,2,2.51Z" fill="#7f3f96"/><path d="M61.8,61.76a.6.6,0,0,1-.44-.18.62.62,0,0,1-.18-.46.63.63,0,0,1,.18-.46.6.6,0,0,1,.44-.18.61.61,0,0,1,.45.18.62.62,0,0,1,.18.46.62.62,0,0,1-.18.45A.61.61,0,0,1,61.8,61.76Zm.47,7.72h-1V63.32h1Z" fill="#7f3f96"/><path d="M69.2,69.48h-1V66q0-2-1.39-2a1.5,1.5,0,0,0-1.19.56,2.1,2.1,0,0,0-.47,1.4v3.51h-1V63.32h1v1h0a2.16,2.16,0,0,1,2-1.17,1.82,1.82,0,0,1,1.51.65,3,3,0,0,1,.52,1.88Z" fill="#7f3f96"/><path d="M71.5,61.76a.6.6,0,0,1-.44-.18.62.62,0,0,1-.18-.46.63.63,0,0,1,.18-.46.6.6,0,0,1,.44-.18.61.61,0,0,1,.45.18.62.62,0,0,1,.18.46.62.62,0,0,1-.18.45A.61.61,0,0,1,71.5,61.76ZM72,69.48H71V63.32h1Z" fill="#7f3f96"/><path d="M82.43,69.48h-1V65.94a2.73,2.73,0,0,0-.31-1.48,1.15,1.15,0,0,0-1-.46,1.27,1.27,0,0,0-1,.58A2.25,2.25,0,0,0,78.65,66v3.51h-1V65.82q0-1.82-1.37-1.82a1.25,1.25,0,0,0-1,.54A2.29,2.29,0,0,0,74.87,66v3.51h-1V63.32h1v1h0a2,2,0,0,1,1.86-1.12,1.71,1.71,0,0,1,1.07.35,1.77,1.77,0,0,1,.63.92,2.14,2.14,0,0,1,2-1.27q2,0,2,2.51Z" fill="#7f3f96"/><path d="M89.1,69.48h-1v-1h0a2,2,0,0,1-1.85,1.12q-2.14,0-2.14-2.62V63.32h1v3.52q0,1.95,1.45,1.95a1.45,1.45,0,0,0,1.16-.53,2.07,2.07,0,0,0,.45-1.39V63.32h1Z" fill="#7f3f96"/><path d="M99.56,69.48h-1V65.94a2.73,2.73,0,0,0-.31-1.48,1.15,1.15,0,0,0-1-.46,1.27,1.27,0,0,0-1,.58A2.25,2.25,0,0,0,95.78,66v3.51h-1V65.82q0-1.82-1.37-1.82a1.25,1.25,0,0,0-1,.54A2.29,2.29,0,0,0,92,66v3.51H91V63.32h1v1h0a2,2,0,0,1,1.86-1.12,1.71,1.71,0,0,1,1.07.35,1.77,1.77,0,0,1,.63.92,2.14,2.14,0,0,1,2-1.27q2,0,2,2.51Z" fill="#7f3f96"/><path d="M104.3,69.25V68.2a2.8,2.8,0,0,0,1.73.59q1.27,0,1.27-.87a.76.76,0,0,0-.11-.42,1.09,1.09,0,0,0-.29-.3,2.21,2.21,0,0,0-.43-.24l-.54-.22a6.83,6.83,0,0,1-.7-.33,2.11,2.11,0,0,1-.5-.37,1.39,1.39,0,0,1-.3-.47,1.71,1.71,0,0,1-.1-.62,1.5,1.5,0,0,1,.19-.77,1.74,1.74,0,0,1,.52-.56,2.37,2.37,0,0,1,.74-.34,3.18,3.18,0,0,1,.85-.11,3.36,3.36,0,0,1,1.39.28v1a2.67,2.67,0,0,0-1.52-.45,1.74,1.74,0,0,0-.49.06,1.18,1.18,0,0,0-.37.18.81.81,0,0,0-.24.27.74.74,0,0,0-.08.35.86.86,0,0,0,.08.4.88.88,0,0,0,.25.29,1.91,1.91,0,0,0,.4.23l.53.22a7.36,7.36,0,0,1,.71.32,2.44,2.44,0,0,1,.54.37,1.45,1.45,0,0,1,.34.48,1.58,1.58,0,0,1,.12.64,1.55,1.55,0,0,1-.2.79,1.7,1.7,0,0,1-.52.56,2.37,2.37,0,0,1-.76.33,3.64,3.64,0,0,1-.9.11A3.33,3.33,0,0,1,104.3,69.25Z" fill="#7f3f96"/><path d="M110.25,61.76a.6.6,0,0,1-.44-.18.62.62,0,0,1-.18-.46.63.63,0,0,1,.18-.46.6.6,0,0,1,.44-.18.61.61,0,0,1,.45.18.62.62,0,0,1,.18.46.62.62,0,0,1-.18.45A.61.61,0,0,1,110.25,61.76Zm.47,7.72h-1V63.32h1Z" fill="#7f3f96"/><path d="M116.84,63.6l-3.55,5h3.52v.84h-4.93v-.31l3.55-5h-3.22v-.84h4.63Z" fill="#7f3f96"/><path d="M122.91,66.64h-4.24a2.34,2.34,0,0,0,.54,1.59,1.84,1.84,0,0,0,1.42.56,2.9,2.9,0,0,0,1.86-.69V69a3.41,3.41,0,0,1-2.09.59,2.51,2.51,0,0,1-2-.84,3.49,3.49,0,0,1-.73-2.36,3.42,3.42,0,0,1,.79-2.34,2.52,2.52,0,0,1,2-.9,2.23,2.23,0,0,1,1.82.78,3.32,3.32,0,0,1,.64,2.17Zm-1-.84a2,2,0,0,0-.4-1.33,1.35,1.35,0,0,0-1.1-.48,1.54,1.54,0,0,0-1.15.5,2.29,2.29,0,0,0-.59,1.3Z" fill="#7f3f96"/><path d="M130.61,61.23a1.25,1.25,0,0,0-.64-.16q-1,0-1,1.3v1h1.41v.84H129v5.31h-1V64.16h-1v-.84h1v-1a2.11,2.11,0,0,1,.54-1.53,1.82,1.82,0,0,1,1.36-.56,1.84,1.84,0,0,1,.7.11Z" fill="#7f3f96"/><path d="M133.91,69.62a2.75,2.75,0,0,1-2.12-.86,3.25,3.25,0,0,1-.79-2.29,3.38,3.38,0,0,1,.83-2.42,2.93,2.93,0,0,1,2.23-.87,2.66,2.66,0,0,1,2.09.85,3.42,3.42,0,0,1,.75,2.35,3.36,3.36,0,0,1-.81,2.36A2.81,2.81,0,0,1,133.91,69.62ZM134,64a1.81,1.81,0,0,0-1.46.65,2.7,2.7,0,0,0-.54,1.78,2.55,2.55,0,0,0,.54,1.73,1.83,1.83,0,0,0,1.46.63,1.74,1.74,0,0,0,1.43-.62,2.74,2.74,0,0,0,.5-1.76,2.78,2.78,0,0,0-.5-1.78A1.73,1.73,0,0,0,134,64Z" fill="#7f3f96"/><path d="M141.56,64.32a1.15,1.15,0,0,0-.73-.2,1.22,1.22,0,0,0-1,.6,2.8,2.8,0,0,0-.41,1.62v3.14h-1V63.32h1v1.27h0a2.16,2.16,0,0,1,.63-1,1.41,1.41,0,0,1,.94-.36,1.54,1.54,0,0,1,.57.08Z" fill="#7f3f96"/><path d="M53.76,84.19a1.81,1.81,0,0,1-.9.19q-1.58,0-1.58-1.8V78.94h-1V78.1h1v-1.5l1-.32V78.1h1.51v.84H52.24v3.47a1.47,1.47,0,0,0,.21.88.81.81,0,0,0,.68.26,1,1,0,0,0,.63-.2Z" fill="#7f3f96"/><path d="M59.77,81.42H55.53A2.34,2.34,0,0,0,56.07,83a1.84,1.84,0,0,0,1.42.56,2.9,2.9,0,0,0,1.86-.69v.93a3.41,3.41,0,0,1-2.09.59,2.51,2.51,0,0,1-2-.84,3.49,3.49,0,0,1-.73-2.36,3.42,3.42,0,0,1,.79-2.34,2.52,2.52,0,0,1,2-.9,2.23,2.23,0,0,1,1.82.78,3.32,3.32,0,0,1,.64,2.17Zm-1-.84a2,2,0,0,0-.4-1.33,1.35,1.35,0,0,0-1.1-.48,1.54,1.54,0,0,0-1.15.5,2.29,2.29,0,0,0-.59,1.3Z" fill="#7f3f96"/><path d="M65.6,78.1l-2,3.11,2,3H64.45l-1.18-2L63,81.79h0l-.28.47-1.2,2H60.4l2-3-2-3.14h1.12l1.16,2.1.25.48h0l1.5-2.58Z" fill="#7f3f96"/><path d="M69.51,84.19a1.81,1.81,0,0,1-.9.19q-1.58,0-1.58-1.8V78.94H66V78.1h1v-1.5l1-.32V78.1h1.51v.84H68v3.47a1.47,1.47,0,0,0,.21.88.81.81,0,0,0,.68.26,1,1,0,0,0,.63-.2Z" fill="#7f3f96"/><path d="M75.07,83.36h0v.89h-1V75.14h1v4h0A2.26,2.26,0,0,1,77.14,78a2.18,2.18,0,0,1,1.81.83A3.48,3.48,0,0,1,79.6,81a3.89,3.89,0,0,1-.73,2.47,2.41,2.41,0,0,1-2,.93A2,2,0,0,1,75.07,83.36Zm0-2.48v.86A1.86,1.86,0,0,0,75.53,83a1.7,1.7,0,0,0,2.6-.15,3.2,3.2,0,0,0,.5-1.91,2.53,2.53,0,0,0-.46-1.61,1.52,1.52,0,0,0-1.25-.58,1.68,1.68,0,0,0-1.35.6A2.23,2.23,0,0,0,75,80.88Z" fill="#7f3f96"/><path d="M85.27,84.25h-1v-1h0a2,2,0,0,1-1.85,1.11,1.94,1.94,0,0,1-1.4-.49,1.71,1.71,0,0,1-.51-1.29q0-1.73,2-2l1.8-.26q0-1.57-1.24-1.57a2.91,2.91,0,0,0-2,.76v-1a3.65,3.65,0,0,1,2-.58q2.12,0,2.12,2.3Zm-1-3.11-1.45.2a2.32,2.32,0,0,0-1,.34,1,1,0,0,0-.34.86,1,1,0,0,0,.31.74,1.19,1.19,0,0,0,.83.29,1.52,1.52,0,0,0,1.18-.51,1.86,1.86,0,0,0,.47-1.3Z" fill="#7f3f96"/><path d="M86.72,84V83a2.8,2.8,0,0,0,1.73.59q1.27,0,1.27-.87a.76.76,0,0,0-.11-.42,1.09,1.09,0,0,0-.29-.3,2.21,2.21,0,0,0-.43-.24l-.54-.22a6.83,6.83,0,0,1-.7-.33,2.11,2.11,0,0,1-.5-.37,1.39,1.39,0,0,1-.3-.47,1.71,1.71,0,0,1-.1-.62,1.5,1.5,0,0,1,.19-.77,1.74,1.74,0,0,1,.52-.56,2.37,2.37,0,0,1,.74-.34A3.18,3.18,0,0,1,89,78a3.36,3.36,0,0,1,1.39.28v1a2.67,2.67,0,0,0-1.52-.45,1.74,1.74,0,0,0-.49.06A1.18,1.18,0,0,0,88,79a.81.81,0,0,0-.24.27.74.74,0,0,0-.08.35.86.86,0,0,0,.08.4.88.88,0,0,0,.25.29,1.91,1.91,0,0,0,.4.23l.53.22a7.36,7.36,0,0,1,.71.32,2.44,2.44,0,0,1,.54.37,1.45,1.45,0,0,1,.34.48,1.58,1.58,0,0,1,.12.64,1.55,1.55,0,0,1-.2.79A1.7,1.7,0,0,1,90,84a2.37,2.37,0,0,1-.76.33,3.64,3.64,0,0,1-.9.11A3.33,3.33,0,0,1,86.72,84Z" fill="#7f3f96"/><path d="M97,81.42H92.76A2.34,2.34,0,0,0,93.3,83a1.84,1.84,0,0,0,1.42.56,2.9,2.9,0,0,0,1.86-.69v.93a3.41,3.41,0,0,1-2.09.59,2.51,2.51,0,0,1-2-.84,3.49,3.49,0,0,1-.73-2.36,3.42,3.42,0,0,1,.79-2.34,2.52,2.52,0,0,1,2-.9,2.23,2.23,0,0,1,1.82.78A3.32,3.32,0,0,1,97,80.9Zm-1-.84a2,2,0,0,0-.4-1.33,1.35,1.35,0,0,0-1.1-.48,1.54,1.54,0,0,0-1.15.5,2.29,2.29,0,0,0-.59,1.3Z" fill="#7f3f96"/><path d="M103.57,84.25h-1v-1h0a2.38,2.38,0,0,1-3.87.36A3.45,3.45,0,0,1,98,81.32a3.75,3.75,0,0,1,.75-2.45,2.45,2.45,0,0,1,2-.92,1.91,1.91,0,0,1,1.8,1h0V75.14h1Zm-1-2.78v-.91a1.79,1.79,0,0,0-.48-1.26,1.59,1.59,0,0,0-1.22-.52,1.64,1.64,0,0,0-1.38.66,3,3,0,0,0-.5,1.83A2.65,2.65,0,0,0,99.51,83a1.56,1.56,0,0,0,1.3.62,1.62,1.62,0,0,0,1.3-.59A2.26,2.26,0,0,0,102.61,81.47Z" fill="#7f3f96"/><path d="M109.79,83.36h0v.89h-1V75.14h1v4h0A2.26,2.26,0,0,1,111.86,78a2.18,2.18,0,0,1,1.81.83,3.48,3.48,0,0,1,.65,2.22,3.89,3.89,0,0,1-.73,2.47,2.41,2.41,0,0,1-2,.93A2,2,0,0,1,109.79,83.36Zm0-2.48v.86a1.86,1.86,0,0,0,.48,1.29,1.7,1.7,0,0,0,2.6-.15,3.2,3.2,0,0,0,.5-1.91,2.53,2.53,0,0,0-.46-1.61,1.52,1.52,0,0,0-1.25-.58,1.68,1.68,0,0,0-1.35.6A2.23,2.23,0,0,0,109.77,80.88Z" fill="#7f3f96"/><path d="M120.71,84.25h-1v-1h0a2,2,0,0,1-1.85,1.12q-2.14,0-2.14-2.62V78.1h1v3.52q0,1.95,1.45,1.95A1.45,1.45,0,0,0,119.3,83a2.07,2.07,0,0,0,.45-1.39V78.1h1Z" fill="#7f3f96"/><path d="M125.43,84.19a1.81,1.81,0,0,1-.9.19q-1.58,0-1.58-1.8V78.94h-1V78.1h1v-1.5l1-.32V78.1h1.51v.84h-1.51v3.47a1.47,1.47,0,0,0,.21.88.81.81,0,0,0,.68.26,1,1,0,0,0,.63-.2Z" fill="#7f3f96"/><path d="M129.5,84.19a1.81,1.81,0,0,1-.9.19q-1.58,0-1.58-1.8V78.94h-1V78.1h1v-1.5l1-.32V78.1h1.51v.84H128v3.47a1.47,1.47,0,0,0,.21.88.81.81,0,0,0,.68.26,1,1,0,0,0,.63-.2Z" fill="#7f3f96"/><path d="M133.2,84.4a2.75,2.75,0,0,1-2.12-.86,3.25,3.25,0,0,1-.79-2.29,3.38,3.38,0,0,1,.83-2.42,2.93,2.93,0,0,1,2.23-.87,2.66,2.66,0,0,1,2.09.85,3.42,3.42,0,0,1,.75,2.35,3.36,3.36,0,0,1-.81,2.36A2.81,2.81,0,0,1,133.2,84.4Zm.07-5.62a1.81,1.81,0,0,0-1.46.65,2.7,2.7,0,0,0-.54,1.78,2.55,2.55,0,0,0,.54,1.73,1.83,1.83,0,0,0,1.46.63,1.74,1.74,0,0,0,1.43-.62,2.74,2.74,0,0,0,.5-1.76,2.78,2.78,0,0,0-.5-1.78A1.73,1.73,0,0,0,133.27,78.78Z" fill="#7f3f96"/><path d="M142.7,84.25h-1V80.74q0-2-1.39-2a1.5,1.5,0,0,0-1.19.56,2.1,2.1,0,0,0-.47,1.4v3.51h-1V78.1h1v1h0a2.16,2.16,0,0,1,2-1.17,1.82,1.82,0,0,1,1.51.65,3,3,0,0,1,.52,1.88Z" fill="#7f3f96"/><path d="M144.15,84V83a2.8,2.8,0,0,0,1.73.59q1.27,0,1.27-.87a.76.76,0,0,0-.11-.42,1.09,1.09,0,0,0-.29-.3,2.21,2.21,0,0,0-.43-.24l-.54-.22a6.83,6.83,0,0,1-.7-.33,2.11,2.11,0,0,1-.5-.37,1.39,1.39,0,0,1-.3-.47,1.71,1.71,0,0,1-.1-.62,1.5,1.5,0,0,1,.19-.77,1.74,1.74,0,0,1,.52-.56,2.37,2.37,0,0,1,.74-.34,3.18,3.18,0,0,1,.85-.11,3.36,3.36,0,0,1,1.39.28v1a2.67,2.67,0,0,0-1.52-.45,1.74,1.74,0,0,0-.49.06,1.18,1.18,0,0,0-.37.18.81.81,0,0,0-.24.27.74.74,0,0,0-.08.35.86.86,0,0,0,.08.4.88.88,0,0,0,.25.29,1.91,1.91,0,0,0,.4.23l.53.22a7.36,7.36,0,0,1,.71.32,2.44,2.44,0,0,1,.54.37A1.45,1.45,0,0,1,148,82a1.58,1.58,0,0,1,.12.64,1.55,1.55,0,0,1-.2.79,1.7,1.7,0,0,1-.52.56,2.37,2.37,0,0,1-.76.33,3.64,3.64,0,0,1-.9.11A3.33,3.33,0,0,1,144.15,84Z" fill="#7f3f96"/><path d="M6,167.48H5v-3.55Q5,162,3.6,162a1.5,1.5,0,0,0-1.18.56A2.11,2.11,0,0,0,1.93,164v3.49H1v-9.11h1v4H2a2.17,2.17,0,0,1,2-1.17q2,0,2,2.51Z" fill="#7f3f96"/><path d="M10.27,167.62a2.75,2.75,0,0,1-2.12-.86,3.25,3.25,0,0,1-.79-2.29A3.38,3.38,0,0,1,8.18,162a2.93,2.93,0,0,1,2.23-.87,2.66,2.66,0,0,1,2.09.85,3.42,3.42,0,0,1,.75,2.35,3.36,3.36,0,0,1-.81,2.36A2.81,2.81,0,0,1,10.27,167.62Zm.07-5.62a1.81,1.81,0,0,0-1.46.65,2.7,2.7,0,0,0-.54,1.78,2.55,2.55,0,0,0,.54,1.73,1.83,1.83,0,0,0,1.46.63,1.74,1.74,0,0,0,1.43-.62,2.74,2.74,0,0,0,.5-1.76,2.78,2.78,0,0,0-.5-1.78A1.73,1.73,0,0,0,10.34,162Z" fill="#7f3f96"/><path d="M22.35,161.32l-1.8,6.16h-1l-1.24-4.41a2.93,2.93,0,0,1-.09-.57h0a2.76,2.76,0,0,1-.12.56l-1.34,4.42h-1L14,161.32h1l1.24,4.63a2.87,2.87,0,0,1,.08.55h0a2.64,2.64,0,0,1,.11-.57l1.38-4.62h.88L20,166a3.37,3.37,0,0,1,.09.55h0a2.61,2.61,0,0,1,.1-.55l1.22-4.64Z" fill="#7f3f96"/><path d="M29.54,167.42a1.81,1.81,0,0,1-.9.19q-1.58,0-1.58-1.8v-3.64H26v-.84h1v-1.5l1-.32v1.82h1.51v.84H28v3.47a1.47,1.47,0,0,0,.21.88.81.81,0,0,0,.68.26,1,1,0,0,0,.63-.2Z" fill="#7f3f96"/><path d="M33.23,167.62a2.75,2.75,0,0,1-2.12-.86,3.25,3.25,0,0,1-.79-2.29,3.38,3.38,0,0,1,.83-2.42,2.93,2.93,0,0,1,2.23-.87,2.66,2.66,0,0,1,2.09.85,3.42,3.42,0,0,1,.75,2.35,3.36,3.36,0,0,1-.81,2.36A2.81,2.81,0,0,1,33.23,167.62ZM33.3,162a1.81,1.81,0,0,0-1.46.65,2.7,2.7,0,0,0-.54,1.78,2.55,2.55,0,0,0,.54,1.73,1.83,1.83,0,0,0,1.46.63,1.74,1.74,0,0,0,1.43-.62,2.74,2.74,0,0,0,.5-1.76,2.78,2.78,0,0,0-.5-1.78A1.73,1.73,0,0,0,33.3,162Z" fill="#7f3f96"/><path d="M40.68,167.25V166.2a2.8,2.8,0,0,0,1.73.59q1.27,0,1.27-.87a.76.76,0,0,0-.11-.42,1.09,1.09,0,0,0-.29-.3,2.21,2.21,0,0,0-.43-.24l-.54-.22a6.83,6.83,0,0,1-.7-.33,2.11,2.11,0,0,1-.5-.37,1.39,1.39,0,0,1-.3-.47,1.71,1.71,0,0,1-.1-.62,1.5,1.5,0,0,1,.19-.77,1.74,1.74,0,0,1,.52-.56,2.37,2.37,0,0,1,.74-.34,3.18,3.18,0,0,1,.85-.11,3.36,3.36,0,0,1,1.39.28v1a2.67,2.67,0,0,0-1.52-.45,1.74,1.74,0,0,0-.49.06,1.18,1.18,0,0,0-.37.18.81.81,0,0,0-.24.27.74.74,0,0,0-.08.35.86.86,0,0,0,.08.4.88.88,0,0,0,.25.29,1.91,1.91,0,0,0,.4.23l.53.22a7.36,7.36,0,0,1,.71.32,2.44,2.44,0,0,1,.54.37,1.45,1.45,0,0,1,.34.48,1.58,1.58,0,0,1,.12.64,1.55,1.55,0,0,1-.2.79,1.7,1.7,0,0,1-.52.56,2.37,2.37,0,0,1-.76.33,3.64,3.64,0,0,1-.9.11A3.33,3.33,0,0,1,40.68,167.25Z" fill="#7f3f96"/><path d="M46.63,159.76a.6.6,0,0,1-.44-.18.62.62,0,0,1-.18-.46.63.63,0,0,1,.18-.46.6.6,0,0,1,.44-.18.61.61,0,0,1,.45.18.62.62,0,0,1,.18.46.62.62,0,0,1-.18.45A.61.61,0,0,1,46.63,159.76Zm.47,7.72h-1v-6.16h1Z" fill="#7f3f96"/><path d="M53.23,161.6l-3.55,5h3.52v.84H48.26v-.31l3.55-5H48.6v-.84h4.63Z" fill="#7f3f96"/><path d="M59.29,164.64H55.05a2.34,2.34,0,0,0,.54,1.59,1.84,1.84,0,0,0,1.42.56,2.9,2.9,0,0,0,1.86-.69V167a3.41,3.41,0,0,1-2.09.59,2.51,2.51,0,0,1-2-.84,3.49,3.49,0,0,1-.73-2.36,3.42,3.42,0,0,1,.79-2.34,2.52,2.52,0,0,1,2-.9,2.23,2.23,0,0,1,1.82.78,3.32,3.32,0,0,1,.64,2.17Zm-1-.84a2,2,0,0,0-.4-1.33,1.35,1.35,0,0,0-1.1-.48,1.54,1.54,0,0,0-1.15.5,2.29,2.29,0,0,0-.59,1.3Z" fill="#7f3f96"/><path d="M65,166.59h0v.89H64v-9.11h1v4h0a2.26,2.26,0,0,1,2.07-1.23,2.18,2.18,0,0,1,1.81.83,3.48,3.48,0,0,1,.65,2.22,3.89,3.89,0,0,1-.73,2.47,2.41,2.41,0,0,1-2,.93A2,2,0,0,1,65,166.59Zm0-2.48V165a1.86,1.86,0,0,0,.48,1.29,1.7,1.7,0,0,0,2.6-.15,3.2,3.2,0,0,0,.5-1.91,2.53,2.53,0,0,0-.46-1.61,1.52,1.52,0,0,0-1.25-.58,1.68,1.68,0,0,0-1.35.6A2.23,2.23,0,0,0,65,164.1Z" fill="#7f3f96"/><path d="M75.94,167.48H75v-1h0a2,2,0,0,1-1.85,1.12Q71,167.62,71,165v-3.68h1v3.52q0,1.95,1.45,1.95a1.45,1.45,0,0,0,1.16-.53,2.07,2.07,0,0,0,.45-1.39v-3.55h1Z" fill="#7f3f96"/><path d="M80.66,167.42a1.81,1.81,0,0,1-.9.19q-1.58,0-1.58-1.8v-3.64h-1v-.84h1v-1.5l1-.32v1.82h1.51v.84H79.15v3.47a1.47,1.47,0,0,0,.21.88.81.81,0,0,0,.68.26,1,1,0,0,0,.63-.2Z" fill="#7f3f96"/><path d="M84.73,167.42a1.81,1.81,0,0,1-.9.19q-1.58,0-1.58-1.8v-3.64h-1v-.84h1v-1.5l1-.32v1.82h1.51v.84H83.21v3.47a1.47,1.47,0,0,0,.21.88.81.81,0,0,0,.68.26,1,1,0,0,0,.63-.2Z" fill="#7f3f96"/><path d="M88.42,167.62a2.75,2.75,0,0,1-2.12-.86,3.25,3.25,0,0,1-.79-2.29,3.38,3.38,0,0,1,.83-2.42,2.93,2.93,0,0,1,2.23-.87,2.66,2.66,0,0,1,2.09.85,3.42,3.42,0,0,1,.75,2.35,3.36,3.36,0,0,1-.81,2.36A2.81,2.81,0,0,1,88.42,167.62Zm.07-5.62a1.81,1.81,0,0,0-1.46.65,2.7,2.7,0,0,0-.54,1.78,2.55,2.55,0,0,0,.54,1.73,1.83,1.83,0,0,0,1.46.63,1.74,1.74,0,0,0,1.43-.62,2.74,2.74,0,0,0,.5-1.76,2.78,2.78,0,0,0-.5-1.78A1.73,1.73,0,0,0,88.49,162Z" fill="#7f3f96"/><path d="M97.93,167.48H97V164q0-2-1.39-2a1.5,1.5,0,0,0-1.19.56,2.1,2.1,0,0,0-.47,1.4v3.51h-1v-6.16h1v1h0a2.16,2.16,0,0,1,2-1.17,1.82,1.82,0,0,1,1.51.65,3,3,0,0,1,.52,1.88Z" fill="#7f3f96"/><path d="M99.38,167.25V166.2a2.8,2.8,0,0,0,1.73.59q1.27,0,1.27-.87a.76.76,0,0,0-.11-.42,1.09,1.09,0,0,0-.29-.3,2.21,2.21,0,0,0-.43-.24l-.54-.22a6.83,6.83,0,0,1-.7-.33,2.11,2.11,0,0,1-.5-.37,1.39,1.39,0,0,1-.3-.47,1.71,1.71,0,0,1-.1-.62,1.5,1.5,0,0,1,.19-.77,1.74,1.74,0,0,1,.52-.56,2.37,2.37,0,0,1,.74-.34,3.18,3.18,0,0,1,.85-.11,3.36,3.36,0,0,1,1.39.28v1a2.67,2.67,0,0,0-1.52-.45,1.74,1.74,0,0,0-.49.06,1.18,1.18,0,0,0-.37.18.81.81,0,0,0-.24.27.74.74,0,0,0-.08.35.86.86,0,0,0,.08.4.88.88,0,0,0,.25.29,1.91,1.91,0,0,0,.4.23l.53.22a7.36,7.36,0,0,1,.71.32,2.44,2.44,0,0,1,.54.37,1.45,1.45,0,0,1,.34.48,1.58,1.58,0,0,1,.12.64,1.55,1.55,0,0,1-.2.79,1.7,1.7,0,0,1-.52.56,2.37,2.37,0,0,1-.76.33,3.64,3.64,0,0,1-.9.11A3.33,3.33,0,0,1,99.38,167.25Z" fill="#7f3f96"/><path d="M115.68,161.32l-1.8,6.16h-1l-1.24-4.41a2.93,2.93,0,0,1-.09-.57h0a2.76,2.76,0,0,1-.12.56l-1.34,4.42h-1l-1.82-6.16h1l1.24,4.63a2.87,2.87,0,0,1,.08.55h0a2.64,2.64,0,0,1,.11-.57l1.38-4.62H112l1.24,4.64a3.37,3.37,0,0,1,.09.55h0a2.61,2.61,0,0,1,.1-.55l1.22-4.64Z" fill="#7f3f96"/><path d="M117.28,159.76a.6.6,0,0,1-.44-.18.62.62,0,0,1-.18-.46.63.63,0,0,1,.18-.46.6.6,0,0,1,.44-.18.61.61,0,0,1,.45.18.62.62,0,0,1,.18.46.62.62,0,0,1-.18.45A.61.61,0,0,1,117.28,159.76Zm.47,7.72h-1v-6.16h1Z" fill="#7f3f96"/><path d="M124.82,167.48h-1v-1h0a2.38,2.38,0,0,1-3.87.36,3.45,3.45,0,0,1-.68-2.25,3.75,3.75,0,0,1,.75-2.45,2.45,2.45,0,0,1,2-.92,1.91,1.91,0,0,1,1.8,1h0v-3.81h1Zm-1-2.78v-.91a1.79,1.79,0,0,0-.48-1.26,1.59,1.59,0,0,0-1.22-.52,1.64,1.64,0,0,0-1.38.66,3,3,0,0,0-.5,1.83,2.65,2.65,0,0,0,.48,1.68,1.56,1.56,0,0,0,1.3.62,1.62,1.62,0,0,0,1.3-.59A2.26,2.26,0,0,0,123.86,164.69Z" fill="#7f3f96"/><path d="M131.58,164.64h-4.24a2.34,2.34,0,0,0,.54,1.59,1.84,1.84,0,0,0,1.42.56,2.9,2.9,0,0,0,1.86-.69V167a3.41,3.41,0,0,1-2.09.59,2.51,2.51,0,0,1-2-.84,3.49,3.49,0,0,1-.73-2.36,3.42,3.42,0,0,1,.79-2.34,2.52,2.52,0,0,1,2-.9,2.23,2.23,0,0,1,1.82.78,3.32,3.32,0,0,1,.64,2.17Zm-1-.84a2,2,0,0,0-.4-1.33,1.35,1.35,0,0,0-1.1-.48,1.54,1.54,0,0,0-1.15.5,2.29,2.29,0,0,0-.59,1.3Z" fill="#7f3f96"/><path d="M136.17,162.32a1.15,1.15,0,0,0-.73-.2,1.22,1.22,0,0,0-1,.6,2.8,2.8,0,0,0-.41,1.62v3.14h-1v-6.16h1v1.27h0a2.16,2.16,0,0,1,.63-1,1.41,1.41,0,0,1,.94-.36,1.54,1.54,0,0,1,.57.08Z" fill="#7f3f96"/><path d="M143.28,167.42a1.81,1.81,0,0,1-.9.19q-1.58,0-1.58-1.8v-3.64h-1v-.84h1v-1.5l1-.32v1.82h1.51v.84h-1.51v3.47a1.47,1.47,0,0,0,.21.88.81.81,0,0,0,.68.26,1,1,0,0,0,.63-.2Z" fill="#7f3f96"/><path d="M149.54,167.48h-1v-3.55q0-1.92-1.39-1.92a1.5,1.5,0,0,0-1.18.56,2.11,2.11,0,0,0-.48,1.43v3.49h-1v-9.11h1v4h0a2.17,2.17,0,0,1,2-1.17q2,0,2,2.51Z" fill="#7f3f96"/><path d="M156.18,164.64h-4.24a2.34,2.34,0,0,0,.54,1.59,1.84,1.84,0,0,0,1.42.56,2.9,2.9,0,0,0,1.86-.69V167a3.41,3.41,0,0,1-2.09.59,2.51,2.51,0,0,1-2-.84,3.49,3.49,0,0,1-.73-2.36,3.42,3.42,0,0,1,.79-2.34,2.52,2.52,0,0,1,2-.9,2.23,2.23,0,0,1,1.82.78,3.32,3.32,0,0,1,.64,2.17Zm-1-.84a2,2,0,0,0-.4-1.33,1.35,1.35,0,0,0-1.1-.48,1.54,1.54,0,0,0-1.15.5,2.29,2.29,0,0,0-.59,1.3Z" fill="#7f3f96"/><path d="M162.61,167.48h-1V164q0-2-1.39-2a1.5,1.5,0,0,0-1.19.56,2.1,2.1,0,0,0-.47,1.4v3.51h-1v-6.16h1v1h0a2.16,2.16,0,0,1,2-1.17,1.82,1.82,0,0,1,1.51.65,3,3,0,0,1,.52,1.88Z" fill="#7f3f96"/><path d="M172.72,164.74a3.27,3.27,0,0,1-.2,1.16,2.81,2.81,0,0,1-.55.91,2.46,2.46,0,0,1-.84.6,2.59,2.59,0,0,1-1.05.21,2.34,2.34,0,0,1-1.13-.27,2.43,2.43,0,0,1-.85-.78,3.79,3.79,0,0,1-.53-1.24,6.89,6.89,0,0,1-.18-1.65,8,8,0,0,1,.24-2,5,5,0,0,1,.69-1.57,3.22,3.22,0,0,1,1.08-1,2.84,2.84,0,0,1,1.41-.35,3.33,3.33,0,0,1,1.39.25v.93a2.9,2.9,0,0,0-1.37-.34,2,2,0,0,0-1,.26,2.36,2.36,0,0,0-.77.73,3.6,3.6,0,0,0-.5,1.14,5.92,5.92,0,0,0-.17,1.49h0a2,2,0,0,1,1.92-1.08,2.47,2.47,0,0,1,1,.19,2.16,2.16,0,0,1,.76.54,2.46,2.46,0,0,1,.48.84A3.26,3.26,0,0,1,172.72,164.74Zm-1,.13a2.75,2.75,0,0,0-.11-.81,1.77,1.77,0,0,0-.32-.61,1.37,1.37,0,0,0-.51-.39,1.68,1.68,0,0,0-.69-.14,1.57,1.57,0,0,0-.66.14,1.65,1.65,0,0,0-.53.38,1.75,1.75,0,0,0-.35.55,1.79,1.79,0,0,0-.13.67,2.74,2.74,0,0,0,.12.83,2.17,2.17,0,0,0,.35.68,1.66,1.66,0,0,0,.53.45,1.42,1.42,0,0,0,.68.17,1.52,1.52,0,0,0,.66-.14,1.48,1.48,0,0,0,.51-.39,1.84,1.84,0,0,0,.33-.6A2.45,2.45,0,0,0,171.74,164.87Z" fill="#7f3f96"/><path d="M179.18,163.13A8.68,8.68,0,0,1,179,165a4.53,4.53,0,0,1-.55,1.41,2.51,2.51,0,0,1-.88.87,2.37,2.37,0,0,1-1.19.3,2.22,2.22,0,0,1-1.13-.29,2.39,2.39,0,0,1-.83-.83,4.29,4.29,0,0,1-.52-1.34,8.52,8.52,0,0,1-.18-1.83,9.65,9.65,0,0,1,.18-2,4.65,4.65,0,0,1,.54-1.45,2.33,2.33,0,0,1,2.1-1.18Q179.18,158.71,179.18,163.13Zm-1,.1q0-3.68-1.71-3.68t-1.8,3.75q0,3.49,1.76,3.49T178.2,163.22Z" fill="#7f3f96"/><path d="M181.63,166.59h0v3.72h-1v-9h1v1.08h0a2.26,2.26,0,0,1,2.07-1.23,2.17,2.17,0,0,1,1.81.83,3.49,3.49,0,0,1,.65,2.22,3.89,3.89,0,0,1-.73,2.47,2.41,2.41,0,0,1-2,.93A2,2,0,0,1,181.63,166.59Zm0-2.48V165a1.86,1.86,0,0,0,.48,1.29,1.7,1.7,0,0,0,2.6-.15,3.2,3.2,0,0,0,.5-1.91,2.53,2.53,0,0,0-.46-1.61,1.52,1.52,0,0,0-1.25-.58,1.68,1.68,0,0,0-1.35.6A2.23,2.23,0,0,0,181.61,164.1Z" fill="#7f3f96"/><path d="M191.94,161.32l-2,3.11,2,3h-1.12l-1.18-2-.26-.47h0l-.28.47-1.2,2h-1.11l2-3-2-3.14h1.12l1.16,2.1.25.48h0l1.5-2.58Z" fill="#7f3f96"/><path d="M192.7,167.25V166.2a2.8,2.8,0,0,0,1.73.59q1.27,0,1.27-.87a.76.76,0,0,0-.11-.42,1.09,1.09,0,0,0-.29-.3,2.21,2.21,0,0,0-.43-.24l-.54-.22a6.83,6.83,0,0,1-.7-.33,2.11,2.11,0,0,1-.5-.37,1.39,1.39,0,0,1-.3-.47,1.71,1.71,0,0,1-.1-.62,1.5,1.5,0,0,1,.19-.77,1.74,1.74,0,0,1,.52-.56,2.37,2.37,0,0,1,.74-.34,3.18,3.18,0,0,1,.85-.11,3.36,3.36,0,0,1,1.39.28v1a2.67,2.67,0,0,0-1.52-.45,1.74,1.74,0,0,0-.49.06,1.18,1.18,0,0,0-.37.18.81.81,0,0,0-.24.27.74.74,0,0,0-.08.35.86.86,0,0,0,.08.4.88.88,0,0,0,.25.29,1.91,1.91,0,0,0,.4.23l.53.22a7.36,7.36,0,0,1,.71.32,2.44,2.44,0,0,1,.54.37,1.45,1.45,0,0,1,.34.48,1.58,1.58,0,0,1,.12.64,1.55,1.55,0,0,1-.2.79,1.7,1.7,0,0,1-.52.56,2.37,2.37,0,0,1-.76.33,3.64,3.64,0,0,1-.9.11A3.33,3.33,0,0,1,192.7,167.25Z" fill="#7f3f96"/><rect x="448.47" y="30" width="62" height="70" fill="#a8abae"/><rect x="449.47" y="31" width="59.94" height="68.19" fill="url(#linear-gradient-3)"/><path d="M464.47,36V67h31V36Zm30,30h-29V37h29Z" fill="#a8abae"/><rect x="479.19" y="30.17" width="1" height="42.19" transform="translate(104.25 354.21) rotate(-45)" fill="#a8abae"/><rect x="458.6" y="50.77" width="42.19" height="1" transform="translate(104.25 354.21) rotate(-45)" fill="#a8abae"/><path d="M459.6,81h-4.36V72.6h1v7.51h3.38Z" fill="#4d5359"/><path d="M463.27,81.14a2.78,2.78,0,0,1-2.12-.84,3.11,3.11,0,0,1-.79-2.23,3.24,3.24,0,0,1,.83-2.36,3,3,0,0,1,2.23-.85,2.69,2.69,0,0,1,2.09.83,3.28,3.28,0,0,1,.75,2.29,3.22,3.22,0,0,1-.81,2.3A2.84,2.84,0,0,1,463.27,81.14Zm.07-5.47a1.83,1.83,0,0,0-1.46.63,2.59,2.59,0,0,0-.54,1.74,2.45,2.45,0,0,0,.54,1.68,1.85,1.85,0,0,0,1.46.62,1.76,1.76,0,0,0,1.43-.6,2.62,2.62,0,0,0,.5-1.72,2.66,2.66,0,0,0-.5-1.73A1.75,1.75,0,0,0,463.34,75.67Z" fill="#4d5359"/><path d="M470.92,76a1.18,1.18,0,0,0-.73-.19,1.23,1.23,0,0,0-1,.58,2.68,2.68,0,0,0-.41,1.58V81h-1V75h1v1.24h0a2.1,2.1,0,0,1,.63-1,1.43,1.43,0,0,1,.94-.35,1.57,1.57,0,0,1,.57.08Z" fill="#4d5359"/><path d="M476.63,78.24H472.4a2.24,2.24,0,0,0,.54,1.55,1.86,1.86,0,0,0,1.42.54,3,3,0,0,0,1.86-.67v.9a3.48,3.48,0,0,1-2.09.57,2.54,2.54,0,0,1-2-.82,3.35,3.35,0,0,1-.73-2.3,3.28,3.28,0,0,1,.79-2.28,2.55,2.55,0,0,1,2-.88,2.26,2.26,0,0,1,1.82.76,3.18,3.18,0,0,1,.64,2.12Zm-1-.81a2,2,0,0,0-.4-1.29,1.37,1.37,0,0,0-1.1-.46,1.55,1.55,0,0,0-1.15.49,2.21,2.21,0,0,0-.59,1.27Z" fill="#4d5359"/><path d="M486.6,81h-1V77.55a2.6,2.6,0,0,0-.31-1.44,1.17,1.17,0,0,0-1-.45,1.28,1.28,0,0,0-1,.56,2.15,2.15,0,0,0-.43,1.35V81h-1V77.44q0-1.77-1.37-1.77a1.26,1.26,0,0,0-1,.53,2.19,2.19,0,0,0-.41,1.38V81h-1V75h1v.95h0a2,2,0,0,1,1.86-1.09,1.73,1.73,0,0,1,1.7,1.24,2.14,2.14,0,0,1,2-1.24q2,0,2,2.44Z" fill="#4d5359"/><path d="M489.53,81h-1V72.6h1Z" fill="#4d5359"/><path d="M492.6,80.13h0v3.63h-1V75h1v1.05h0a2.27,2.27,0,0,1,2.07-1.2,2.2,2.2,0,0,1,1.81.81,3.34,3.34,0,0,1,.65,2.16,3.72,3.72,0,0,1-.73,2.41,2.44,2.44,0,0,1-2,.91A2,2,0,0,1,492.6,80.13Zm0-2.42v.84a1.78,1.78,0,0,0,.48,1.26,1.72,1.72,0,0,0,2.6-.15,3.06,3.06,0,0,0,.5-1.86,2.42,2.42,0,0,0-.46-1.57,1.53,1.53,0,0,0-1.25-.57,1.7,1.7,0,0,0-1.35.58A2.14,2.14,0,0,0,492.58,77.71Z" fill="#4d5359"/><path d="M498.31,80.78v-1a2.84,2.84,0,0,0,1.73.58q1.27,0,1.27-.84a.73.73,0,0,0-.11-.41,1.08,1.08,0,0,0-.29-.3,2.26,2.26,0,0,0-.43-.23l-.54-.21a6.9,6.9,0,0,1-.7-.32,2.12,2.12,0,0,1-.5-.36,1.35,1.35,0,0,1-.3-.46,1.63,1.63,0,0,1-.1-.6,1.43,1.43,0,0,1,.19-.75,1.71,1.71,0,0,1,.52-.54,2.4,2.4,0,0,1,.74-.33,3.26,3.26,0,0,1,.85-.11,3.44,3.44,0,0,1,1.39.27v1a2.72,2.72,0,0,0-1.52-.43,1.78,1.78,0,0,0-.49.06,1.19,1.19,0,0,0-.37.17.8.8,0,0,0-.24.27.7.7,0,0,0-.08.34.82.82,0,0,0,.08.39.86.86,0,0,0,.25.28,1.9,1.9,0,0,0,.4.22l.53.22a7.42,7.42,0,0,1,.71.31,2.45,2.45,0,0,1,.54.36,1.42,1.42,0,0,1,.34.47,1.5,1.5,0,0,1,.12.63,1.48,1.48,0,0,1-.2.77,1.68,1.68,0,0,1-.52.54,2.4,2.4,0,0,1-.76.32,3.73,3.73,0,0,1-.9.11A3.4,3.4,0,0,1,498.31,80.78Z" fill="#4d5359"/><path d="M466.19,93H465l-1.41-2.36a5.13,5.13,0,0,0-.37-.56,2.14,2.14,0,0,0-.37-.38,1.29,1.29,0,0,0-.41-.21,1.69,1.69,0,0,0-.5-.07h-.81V93h-1V84.6h2.51a3.57,3.57,0,0,1,1,.14,2.27,2.27,0,0,1,.81.42,2,2,0,0,1,.54.7,2.32,2.32,0,0,1,.19,1,2.36,2.36,0,0,1-.13.81,2.1,2.1,0,0,1-.37.65,2.27,2.27,0,0,1-.59.49,3,3,0,0,1-.77.31v0a1.77,1.77,0,0,1,.37.21,2,2,0,0,1,.3.28,3.76,3.76,0,0,1,.28.37l.31.48Zm-5-7.51v3h1.34a2,2,0,0,0,.68-.11,1.58,1.58,0,0,0,.54-.32,1.45,1.45,0,0,0,.36-.51,1.71,1.71,0,0,0,.13-.68,1.32,1.32,0,0,0-.44-1.05,1.88,1.88,0,0,0-1.26-.38Z" fill="#4d5359"/><path d="M471.71,90.24h-4.24a2.24,2.24,0,0,0,.54,1.55,1.86,1.86,0,0,0,1.42.54,3,3,0,0,0,1.86-.67v.9a3.48,3.48,0,0,1-2.09.57,2.54,2.54,0,0,1-2-.82,3.35,3.35,0,0,1-.73-2.3,3.28,3.28,0,0,1,.79-2.28,2.55,2.55,0,0,1,2-.88,2.26,2.26,0,0,1,1.82.76,3.18,3.18,0,0,1,.64,2.12Zm-1-.81a2,2,0,0,0-.4-1.29,1.37,1.37,0,0,0-1.1-.46,1.55,1.55,0,0,0-1.15.49,2.21,2.21,0,0,0-.59,1.27Z" fill="#4d5359"/><path d="M481.68,93h-1V89.55a2.6,2.6,0,0,0-.31-1.44,1.17,1.17,0,0,0-1-.45,1.28,1.28,0,0,0-1,.56,2.15,2.15,0,0,0-.43,1.35V93h-1V89.44q0-1.77-1.37-1.77a1.26,1.26,0,0,0-1,.53,2.19,2.19,0,0,0-.41,1.38V93h-1V87h1v.95h0A2,2,0,0,1,476,86.86a1.73,1.73,0,0,1,1.7,1.24,2.14,2.14,0,0,1,2-1.24q2,0,2,2.44Z" fill="#4d5359"/><path d="M484.61,93h-1V84.6h1Z" fill="#4d5359"/><path d="M487.67,92.13h0v3.63h-1V87h1v1.05h0a2.27,2.27,0,0,1,2.07-1.2,2.2,2.2,0,0,1,1.81.81,3.34,3.34,0,0,1,.65,2.16,3.72,3.72,0,0,1-.73,2.41,2.44,2.44,0,0,1-2,.91A2,2,0,0,1,487.67,92.13Zm0-2.42v.84a1.78,1.78,0,0,0,.48,1.26,1.72,1.72,0,0,0,2.6-.15,3.06,3.06,0,0,0,.5-1.86,2.42,2.42,0,0,0-.46-1.57,1.53,1.53,0,0,0-1.25-.57,1.7,1.7,0,0,0-1.35.58A2.14,2.14,0,0,0,487.65,89.71Z" fill="#4d5359"/><path d="M493.38,92.78v-1a2.84,2.84,0,0,0,1.73.58q1.27,0,1.27-.84a.73.73,0,0,0-.11-.41,1.08,1.08,0,0,0-.29-.3,2.26,2.26,0,0,0-.43-.23l-.54-.21a6.9,6.9,0,0,1-.7-.32,2.12,2.12,0,0,1-.5-.36,1.35,1.35,0,0,1-.3-.46,1.63,1.63,0,0,1-.1-.6,1.43,1.43,0,0,1,.19-.75,1.71,1.71,0,0,1,.52-.54,2.4,2.4,0,0,1,.74-.33,3.26,3.26,0,0,1,.85-.11,3.44,3.44,0,0,1,1.39.27v1a2.72,2.72,0,0,0-1.52-.43,1.78,1.78,0,0,0-.49.06,1.19,1.19,0,0,0-.37.17.8.8,0,0,0-.24.27.7.7,0,0,0-.08.34.82.82,0,0,0,.08.39.86.86,0,0,0,.25.28,1.9,1.9,0,0,0,.4.22l.53.22a7.42,7.42,0,0,1,.71.31,2.45,2.45,0,0,1,.54.36,1.42,1.42,0,0,1,.34.47,1.5,1.5,0,0,1,.12.63,1.48,1.48,0,0,1-.2.77,1.68,1.68,0,0,1-.52.54,2.4,2.4,0,0,1-.76.32,3.73,3.73,0,0,1-.9.11A3.4,3.4,0,0,1,493.38,92.78Z" fill="#4d5359"/><rect x="522.47" y="30" width="62" height="70" fill="#a8abae"/><rect x="523.47" y="31" width="59.94" height="68.19" fill="url(#linear-gradient-4)"/><path d="M538.47,36V67h31V36Zm30,30h-29V37h29Z" fill="#a8abae"/><rect x="553.19" y="30.17" width="1" height="42.19" transform="translate(125.92 406.54) rotate(-45)" fill="#a8abae"/><rect x="532.6" y="50.77" width="42.19" height="1" transform="translate(125.92 406.54) rotate(-45)" fill="#a8abae"/><path d="M533.6,81h-4.36V72.6h1v7.51h3.38Z" fill="#4d5359"/><path d="M537.27,81.14a2.78,2.78,0,0,1-2.12-.84,3.11,3.11,0,0,1-.79-2.23,3.24,3.24,0,0,1,.83-2.36,3,3,0,0,1,2.23-.85,2.69,2.69,0,0,1,2.09.83,3.28,3.28,0,0,1,.75,2.29,3.22,3.22,0,0,1-.81,2.3A2.84,2.84,0,0,1,537.27,81.14Zm.07-5.47a1.83,1.83,0,0,0-1.46.63,2.59,2.59,0,0,0-.54,1.74,2.45,2.45,0,0,0,.54,1.68,1.85,1.85,0,0,0,1.46.62,1.76,1.76,0,0,0,1.43-.6,2.62,2.62,0,0,0,.5-1.72,2.66,2.66,0,0,0-.5-1.73A1.75,1.75,0,0,0,537.34,75.67Z" fill="#4d5359"/><path d="M544.92,76a1.18,1.18,0,0,0-.73-.19,1.23,1.23,0,0,0-1,.58,2.68,2.68,0,0,0-.41,1.58V81h-1V75h1v1.24h0a2.1,2.1,0,0,1,.63-1,1.43,1.43,0,0,1,.94-.35,1.57,1.57,0,0,1,.57.08Z" fill="#4d5359"/><path d="M550.63,78.24H546.4a2.24,2.24,0,0,0,.54,1.55,1.86,1.86,0,0,0,1.42.54,3,3,0,0,0,1.86-.67v.9a3.48,3.48,0,0,1-2.09.57,2.54,2.54,0,0,1-2-.82,3.35,3.35,0,0,1-.73-2.3,3.28,3.28,0,0,1,.79-2.28,2.55,2.55,0,0,1,2-.88,2.26,2.26,0,0,1,1.82.76,3.18,3.18,0,0,1,.64,2.12Zm-1-.81a2,2,0,0,0-.4-1.29,1.37,1.37,0,0,0-1.1-.46,1.55,1.55,0,0,0-1.15.49,2.21,2.21,0,0,0-.59,1.27Z" fill="#4d5359"/><path d="M560.6,81h-1V77.55a2.6,2.6,0,0,0-.31-1.44,1.17,1.17,0,0,0-1-.45,1.28,1.28,0,0,0-1,.56,2.15,2.15,0,0,0-.43,1.35V81h-1V77.44q0-1.77-1.37-1.77a1.26,1.26,0,0,0-1,.53,2.19,2.19,0,0,0-.41,1.38V81h-1V75h1v.95h0a2,2,0,0,1,1.86-1.09,1.73,1.73,0,0,1,1.7,1.24,2.14,2.14,0,0,1,2-1.24q2,0,2,2.44Z" fill="#4d5359"/><path d="M563.53,81h-1V72.6h1Z" fill="#4d5359"/><path d="M566.6,80.13h0v3.63h-1V75h1v1.05h0a2.27,2.27,0,0,1,2.07-1.2,2.2,2.2,0,0,1,1.81.81,3.34,3.34,0,0,1,.65,2.16,3.72,3.72,0,0,1-.73,2.41,2.44,2.44,0,0,1-2,.91A2,2,0,0,1,566.6,80.13Zm0-2.42v.84a1.78,1.78,0,0,0,.48,1.26,1.72,1.72,0,0,0,2.6-.15,3.06,3.06,0,0,0,.5-1.86,2.42,2.42,0,0,0-.46-1.57,1.53,1.53,0,0,0-1.25-.57,1.7,1.7,0,0,0-1.35.58A2.14,2.14,0,0,0,566.58,77.71Z" fill="#4d5359"/><path d="M572.31,80.78v-1a2.84,2.84,0,0,0,1.73.58q1.27,0,1.27-.84a.73.73,0,0,0-.11-.41,1.08,1.08,0,0,0-.29-.3,2.26,2.26,0,0,0-.43-.23l-.54-.21a6.9,6.9,0,0,1-.7-.32,2.12,2.12,0,0,1-.5-.36,1.35,1.35,0,0,1-.3-.46,1.63,1.63,0,0,1-.1-.6,1.43,1.43,0,0,1,.19-.75,1.71,1.71,0,0,1,.52-.54,2.4,2.4,0,0,1,.74-.33,3.26,3.26,0,0,1,.85-.11,3.44,3.44,0,0,1,1.39.27v1a2.72,2.72,0,0,0-1.52-.43,1.78,1.78,0,0,0-.49.06,1.19,1.19,0,0,0-.37.17.8.8,0,0,0-.24.27.7.7,0,0,0-.08.34.82.82,0,0,0,.08.39.86.86,0,0,0,.25.28,1.9,1.9,0,0,0,.4.22l.53.22a7.42,7.42,0,0,1,.71.31,2.45,2.45,0,0,1,.54.36,1.42,1.42,0,0,1,.34.47,1.5,1.5,0,0,1,.12.63,1.48,1.48,0,0,1-.2.77,1.68,1.68,0,0,1-.52.54,2.4,2.4,0,0,1-.76.32,3.73,3.73,0,0,1-.9.11A3.4,3.4,0,0,1,572.31,80.78Z" fill="#4d5359"/><path d="M540.19,93H539l-1.41-2.36a5.13,5.13,0,0,0-.37-.56,2.14,2.14,0,0,0-.37-.38,1.29,1.29,0,0,0-.41-.21,1.69,1.69,0,0,0-.5-.07h-.81V93h-1V84.6h2.51a3.57,3.57,0,0,1,1,.14,2.27,2.27,0,0,1,.81.42,2,2,0,0,1,.54.7,2.32,2.32,0,0,1,.19,1,2.36,2.36,0,0,1-.13.81,2.1,2.1,0,0,1-.37.65,2.27,2.27,0,0,1-.59.49,3,3,0,0,1-.77.31v0a1.77,1.77,0,0,1,.37.21,2,2,0,0,1,.3.28,3.76,3.76,0,0,1,.28.37l.31.48Zm-5-7.51v3h1.34a2,2,0,0,0,.68-.11,1.58,1.58,0,0,0,.54-.32,1.45,1.45,0,0,0,.36-.51,1.71,1.71,0,0,0,.13-.68,1.32,1.32,0,0,0-.44-1.05,1.88,1.88,0,0,0-1.26-.38Z" fill="#4d5359"/><path d="M545.71,90.24h-4.24a2.24,2.24,0,0,0,.54,1.55,1.86,1.86,0,0,0,1.42.54,3,3,0,0,0,1.86-.67v.9a3.48,3.48,0,0,1-2.09.57,2.54,2.54,0,0,1-2-.82,3.35,3.35,0,0,1-.73-2.3,3.28,3.28,0,0,1,.79-2.28,2.55,2.55,0,0,1,2-.88,2.26,2.26,0,0,1,1.82.76,3.18,3.18,0,0,1,.64,2.12Zm-1-.81a2,2,0,0,0-.4-1.29,1.37,1.37,0,0,0-1.1-.46,1.55,1.55,0,0,0-1.15.49,2.21,2.21,0,0,0-.59,1.27Z" fill="#4d5359"/><path d="M555.68,93h-1V89.55a2.6,2.6,0,0,0-.31-1.44,1.17,1.17,0,0,0-1-.45,1.28,1.28,0,0,0-1,.56,2.15,2.15,0,0,0-.43,1.35V93h-1V89.44q0-1.77-1.37-1.77a1.26,1.26,0,0,0-1,.53,2.19,2.19,0,0,0-.41,1.38V93h-1V87h1v.95h0A2,2,0,0,1,550,86.86a1.73,1.73,0,0,1,1.7,1.24,2.14,2.14,0,0,1,2-1.24q2,0,2,2.44Z" fill="#4d5359"/><path d="M558.61,93h-1V84.6h1Z" fill="#4d5359"/><path d="M561.67,92.13h0v3.63h-1V87h1v1.05h0a2.27,2.27,0,0,1,2.07-1.2,2.2,2.2,0,0,1,1.81.81,3.34,3.34,0,0,1,.65,2.16,3.72,3.72,0,0,1-.73,2.41,2.44,2.44,0,0,1-2,.91A2,2,0,0,1,561.67,92.13Zm0-2.42v.84a1.78,1.78,0,0,0,.48,1.26,1.72,1.72,0,0,0,2.6-.15,3.06,3.06,0,0,0,.5-1.86,2.42,2.42,0,0,0-.46-1.57,1.53,1.53,0,0,0-1.25-.57,1.7,1.7,0,0,0-1.35.58A2.14,2.14,0,0,0,561.65,89.71Z" fill="#4d5359"/><path d="M567.38,92.78v-1a2.84,2.84,0,0,0,1.73.58q1.27,0,1.27-.84a.73.73,0,0,0-.11-.41,1.08,1.08,0,0,0-.29-.3,2.26,2.26,0,0,0-.43-.23l-.54-.21a6.9,6.9,0,0,1-.7-.32,2.12,2.12,0,0,1-.5-.36,1.35,1.35,0,0,1-.3-.46,1.63,1.63,0,0,1-.1-.6,1.43,1.43,0,0,1,.19-.75,1.71,1.71,0,0,1,.52-.54,2.4,2.4,0,0,1,.74-.33,3.26,3.26,0,0,1,.85-.11,3.44,3.44,0,0,1,1.39.27v1a2.72,2.72,0,0,0-1.52-.43,1.78,1.78,0,0,0-.49.06,1.19,1.19,0,0,0-.37.17.8.8,0,0,0-.24.27.7.7,0,0,0-.08.34.82.82,0,0,0,.08.39.86.86,0,0,0,.25.28,1.9,1.9,0,0,0,.4.22l.53.22a7.42,7.42,0,0,1,.71.31,2.45,2.45,0,0,1,.54.36,1.42,1.42,0,0,1,.34.47,1.5,1.5,0,0,1,.12.63,1.48,1.48,0,0,1-.2.77,1.68,1.68,0,0,1-.52.54,2.4,2.4,0,0,1-.76.32,3.73,3.73,0,0,1-.9.11A3.4,3.4,0,0,1,567.38,92.78Z" fill="#4d5359"/><rect x="596.47" y="30" width="62" height="70" fill="#a8abae"/><rect x="597.47" y="31" width="59.94" height="68.19" fill="url(#linear-gradient-5)"/><path d="M612.47,36V67h31V36Zm30,30h-29V37h29Z" fill="#a8abae"/><rect x="627.19" y="30.17" width="1" height="42.19" transform="translate(147.59 458.86) rotate(-45)" fill="#a8abae"/><rect x="606.6" y="50.77" width="42.19" height="1" transform="translate(147.59 458.86) rotate(-45)" fill="#a8abae"/><path d="M607.6,81h-4.36V72.6h1v7.51h3.38Z" fill="#4d5359"/><path d="M611.27,81.14a2.78,2.78,0,0,1-2.12-.84,3.11,3.11,0,0,1-.79-2.23,3.24,3.24,0,0,1,.83-2.36,3,3,0,0,1,2.23-.85,2.69,2.69,0,0,1,2.09.83,3.28,3.28,0,0,1,.75,2.29,3.22,3.22,0,0,1-.81,2.3A2.84,2.84,0,0,1,611.27,81.14Zm.07-5.47a1.83,1.83,0,0,0-1.46.63,2.59,2.59,0,0,0-.54,1.74,2.45,2.45,0,0,0,.54,1.68,1.85,1.85,0,0,0,1.46.62,1.76,1.76,0,0,0,1.43-.6,2.62,2.62,0,0,0,.5-1.72,2.66,2.66,0,0,0-.5-1.73A1.75,1.75,0,0,0,611.34,75.67Z" fill="#4d5359"/><path d="M618.92,76a1.18,1.18,0,0,0-.73-.19,1.23,1.23,0,0,0-1,.58,2.68,2.68,0,0,0-.41,1.58V81h-1V75h1v1.24h0a2.1,2.1,0,0,1,.63-1,1.43,1.43,0,0,1,.94-.35,1.57,1.57,0,0,1,.57.08Z" fill="#4d5359"/><path d="M624.63,78.24H620.4a2.24,2.24,0,0,0,.54,1.55,1.86,1.86,0,0,0,1.42.54,3,3,0,0,0,1.86-.67v.9a3.48,3.48,0,0,1-2.09.57,2.54,2.54,0,0,1-2-.82,3.35,3.35,0,0,1-.73-2.3,3.28,3.28,0,0,1,.79-2.28,2.55,2.55,0,0,1,2-.88,2.26,2.26,0,0,1,1.82.76,3.18,3.18,0,0,1,.64,2.12Zm-1-.81a2,2,0,0,0-.4-1.29,1.37,1.37,0,0,0-1.1-.46,1.55,1.55,0,0,0-1.15.49,2.21,2.21,0,0,0-.59,1.27Z" fill="#4d5359"/><path d="M634.6,81h-1V77.55a2.6,2.6,0,0,0-.31-1.44,1.17,1.17,0,0,0-1-.45,1.28,1.28,0,0,0-1,.56,2.15,2.15,0,0,0-.43,1.35V81h-1V77.44q0-1.77-1.37-1.77a1.26,1.26,0,0,0-1,.53,2.19,2.19,0,0,0-.41,1.38V81h-1V75h1v.95h0a2,2,0,0,1,1.86-1.09,1.73,1.73,0,0,1,1.7,1.24,2.14,2.14,0,0,1,2-1.24q2,0,2,2.44Z" fill="#4d5359"/><path d="M637.53,81h-1V72.6h1Z" fill="#4d5359"/><path d="M640.6,80.13h0v3.63h-1V75h1v1.05h0a2.27,2.27,0,0,1,2.07-1.2,2.2,2.2,0,0,1,1.81.81,3.34,3.34,0,0,1,.65,2.16,3.72,3.72,0,0,1-.73,2.41,2.44,2.44,0,0,1-2,.91A2,2,0,0,1,640.6,80.13Zm0-2.42v.84a1.78,1.78,0,0,0,.48,1.26,1.72,1.72,0,0,0,2.6-.15,3.06,3.06,0,0,0,.5-1.86,2.42,2.42,0,0,0-.46-1.57,1.53,1.53,0,0,0-1.25-.57,1.7,1.7,0,0,0-1.35.58A2.14,2.14,0,0,0,640.58,77.71Z" fill="#4d5359"/><path d="M646.31,80.78v-1a2.84,2.84,0,0,0,1.73.58q1.27,0,1.27-.84a.73.73,0,0,0-.11-.41,1.08,1.08,0,0,0-.29-.3,2.26,2.26,0,0,0-.43-.23l-.54-.21a6.9,6.9,0,0,1-.7-.32,2.12,2.12,0,0,1-.5-.36,1.35,1.35,0,0,1-.3-.46,1.63,1.63,0,0,1-.1-.6,1.43,1.43,0,0,1,.19-.75,1.71,1.71,0,0,1,.52-.54,2.4,2.4,0,0,1,.74-.33,3.26,3.26,0,0,1,.85-.11,3.44,3.44,0,0,1,1.39.27v1a2.72,2.72,0,0,0-1.52-.43,1.78,1.78,0,0,0-.49.06,1.19,1.19,0,0,0-.37.17.8.8,0,0,0-.24.27.7.7,0,0,0-.08.34.82.82,0,0,0,.08.39.86.86,0,0,0,.25.28,1.9,1.9,0,0,0,.4.22l.53.22a7.42,7.42,0,0,1,.71.31,2.45,2.45,0,0,1,.54.36,1.42,1.42,0,0,1,.34.47,1.5,1.5,0,0,1,.12.63,1.48,1.48,0,0,1-.2.77,1.68,1.68,0,0,1-.52.54,2.4,2.4,0,0,1-.76.32,3.73,3.73,0,0,1-.9.11A3.4,3.4,0,0,1,646.31,80.78Z" fill="#4d5359"/><path d="M614.19,93H613l-1.41-2.36a5.13,5.13,0,0,0-.37-.56,2.14,2.14,0,0,0-.37-.38,1.29,1.29,0,0,0-.41-.21,1.69,1.69,0,0,0-.5-.07h-.81V93h-1V84.6h2.51a3.57,3.57,0,0,1,1,.14,2.27,2.27,0,0,1,.81.42,2,2,0,0,1,.54.7,2.32,2.32,0,0,1,.19,1,2.36,2.36,0,0,1-.13.81,2.1,2.1,0,0,1-.37.65,2.27,2.27,0,0,1-.59.49,3,3,0,0,1-.77.31v0a1.77,1.77,0,0,1,.37.21,2,2,0,0,1,.3.28,3.76,3.76,0,0,1,.28.37l.31.48Zm-5-7.51v3h1.34a2,2,0,0,0,.68-.11,1.58,1.58,0,0,0,.54-.32,1.45,1.45,0,0,0,.36-.51,1.71,1.71,0,0,0,.13-.68,1.32,1.32,0,0,0-.44-1.05,1.88,1.88,0,0,0-1.26-.38Z" fill="#4d5359"/><path d="M619.71,90.24h-4.24a2.24,2.24,0,0,0,.54,1.55,1.86,1.86,0,0,0,1.42.54,3,3,0,0,0,1.86-.67v.9a3.48,3.48,0,0,1-2.09.57,2.54,2.54,0,0,1-2-.82,3.35,3.35,0,0,1-.73-2.3,3.28,3.28,0,0,1,.79-2.28,2.55,2.55,0,0,1,2-.88,2.26,2.26,0,0,1,1.82.76,3.18,3.18,0,0,1,.64,2.12Zm-1-.81a2,2,0,0,0-.4-1.29,1.37,1.37,0,0,0-1.1-.46,1.55,1.55,0,0,0-1.15.49,2.21,2.21,0,0,0-.59,1.27Z" fill="#4d5359"/><path d="M629.68,93h-1V89.55a2.6,2.6,0,0,0-.31-1.44,1.17,1.17,0,0,0-1-.45,1.28,1.28,0,0,0-1,.56,2.15,2.15,0,0,0-.43,1.35V93h-1V89.44q0-1.77-1.37-1.77a1.26,1.26,0,0,0-1,.53,2.19,2.19,0,0,0-.41,1.38V93h-1V87h1v.95h0A2,2,0,0,1,624,86.86a1.73,1.73,0,0,1,1.7,1.24,2.14,2.14,0,0,1,2-1.24q2,0,2,2.44Z" fill="#4d5359"/><path d="M632.61,93h-1V84.6h1Z" fill="#4d5359"/><path d="M635.67,92.13h0v3.63h-1V87h1v1.05h0a2.27,2.27,0,0,1,2.07-1.2,2.2,2.2,0,0,1,1.81.81,3.34,3.34,0,0,1,.65,2.16,3.72,3.72,0,0,1-.73,2.41,2.44,2.44,0,0,1-2,.91A2,2,0,0,1,635.67,92.13Zm0-2.42v.84a1.78,1.78,0,0,0,.48,1.26,1.72,1.72,0,0,0,2.6-.15,3.06,3.06,0,0,0,.5-1.86,2.42,2.42,0,0,0-.46-1.57,1.53,1.53,0,0,0-1.25-.57,1.7,1.7,0,0,0-1.35.58A2.14,2.14,0,0,0,635.65,89.71Z" fill="#4d5359"/><path d="M641.38,92.78v-1a2.84,2.84,0,0,0,1.73.58q1.27,0,1.27-.84a.73.73,0,0,0-.11-.41,1.08,1.08,0,0,0-.29-.3,2.26,2.26,0,0,0-.43-.23l-.54-.21a6.9,6.9,0,0,1-.7-.32,2.12,2.12,0,0,1-.5-.36,1.35,1.35,0,0,1-.3-.46,1.63,1.63,0,0,1-.1-.6,1.43,1.43,0,0,1,.19-.75,1.71,1.71,0,0,1,.52-.54,2.4,2.4,0,0,1,.74-.33,3.26,3.26,0,0,1,.85-.11,3.44,3.44,0,0,1,1.39.27v1a2.72,2.72,0,0,0-1.52-.43,1.78,1.78,0,0,0-.49.06,1.19,1.19,0,0,0-.37.17.8.8,0,0,0-.24.27.7.7,0,0,0-.08.34.82.82,0,0,0,.08.39.86.86,0,0,0,.25.28,1.9,1.9,0,0,0,.4.22l.53.22a7.42,7.42,0,0,1,.71.31,2.45,2.45,0,0,1,.54.36,1.42,1.42,0,0,1,.34.47,1.5,1.5,0,0,1,.12.63,1.48,1.48,0,0,1-.2.77,1.68,1.68,0,0,1-.52.54,2.4,2.4,0,0,1-.76.32,3.73,3.73,0,0,1-.9.11A3.4,3.4,0,0,1,641.38,92.78Z" fill="#4d5359"/><rect x="303.47" y="30" width="62" height="68.81" fill="#a8abae"/><rect x="304.47" y="31" width="59.94" height="67" fill="url(#linear-gradient-6)"/><path d="M319.47,36V67h31V36Zm30,30h-29V37h29Z" fill="#a8abae"/><rect x="334.19" y="30.17" width="1" height="42.19" transform="translate(61.78 251.68) rotate(-45)" fill="#a8abae"/><rect x="313.6" y="50.77" width="42.19" height="1" transform="translate(61.78 251.68) rotate(-45)" fill="#a8abae"/><path d="M314.6,81h-4.36V72.6h1v7.51h3.38Z" fill="#4d5359"/><path d="M318.27,81.14a2.78,2.78,0,0,1-2.12-.84,3.11,3.11,0,0,1-.79-2.23,3.24,3.24,0,0,1,.83-2.36,3,3,0,0,1,2.23-.85,2.69,2.69,0,0,1,2.09.83,3.28,3.28,0,0,1,.75,2.29,3.22,3.22,0,0,1-.81,2.3A2.84,2.84,0,0,1,318.27,81.14Zm.07-5.47a1.83,1.83,0,0,0-1.46.63,2.59,2.59,0,0,0-.54,1.74,2.45,2.45,0,0,0,.54,1.68,1.85,1.85,0,0,0,1.46.62,1.76,1.76,0,0,0,1.43-.6,2.62,2.62,0,0,0,.5-1.72,2.66,2.66,0,0,0-.5-1.73A1.75,1.75,0,0,0,318.34,75.67Z" fill="#4d5359"/><path d="M325.92,76a1.18,1.18,0,0,0-.73-.19,1.23,1.23,0,0,0-1,.58,2.68,2.68,0,0,0-.41,1.58V81h-1V75h1v1.24h0a2.1,2.1,0,0,1,.63-1,1.43,1.43,0,0,1,.94-.35,1.57,1.57,0,0,1,.57.08Z" fill="#4d5359"/><path d="M331.63,78.24H327.4a2.24,2.24,0,0,0,.54,1.55,1.86,1.86,0,0,0,1.42.54,3,3,0,0,0,1.86-.67v.9a3.48,3.48,0,0,1-2.09.57,2.54,2.54,0,0,1-2-.82,3.35,3.35,0,0,1-.73-2.3,3.28,3.28,0,0,1,.79-2.28,2.55,2.55,0,0,1,2-.88,2.26,2.26,0,0,1,1.82.76,3.18,3.18,0,0,1,.64,2.12Zm-1-.81a2,2,0,0,0-.4-1.29,1.37,1.37,0,0,0-1.1-.46,1.55,1.55,0,0,0-1.15.49,2.21,2.21,0,0,0-.59,1.27Z" fill="#4d5359"/><path d="M341.6,81h-1V77.55a2.6,2.6,0,0,0-.31-1.44,1.17,1.17,0,0,0-1-.45,1.28,1.28,0,0,0-1,.56,2.15,2.15,0,0,0-.43,1.35V81h-1V77.44q0-1.77-1.37-1.77a1.26,1.26,0,0,0-1,.53,2.19,2.19,0,0,0-.41,1.38V81h-1V75h1v.95h0a2,2,0,0,1,1.86-1.09,1.73,1.73,0,0,1,1.7,1.24,2.14,2.14,0,0,1,2-1.24q2,0,2,2.44Z" fill="#4d5359"/><path d="M344.53,81h-1V72.6h1Z" fill="#4d5359"/><path d="M347.6,80.13h0v3.63h-1V75h1v1.05h0a2.27,2.27,0,0,1,2.07-1.2,2.2,2.2,0,0,1,1.81.81,3.34,3.34,0,0,1,.65,2.16,3.72,3.72,0,0,1-.73,2.41,2.44,2.44,0,0,1-2,.91A2,2,0,0,1,347.6,80.13Zm0-2.42v.84a1.78,1.78,0,0,0,.48,1.26,1.72,1.72,0,0,0,2.6-.15,3.06,3.06,0,0,0,.5-1.86,2.42,2.42,0,0,0-.46-1.57,1.53,1.53,0,0,0-1.25-.57,1.7,1.7,0,0,0-1.35.58A2.14,2.14,0,0,0,347.58,77.71Z" fill="#4d5359"/><path d="M353.31,80.78v-1a2.84,2.84,0,0,0,1.73.58q1.27,0,1.27-.84a.73.73,0,0,0-.11-.41,1.08,1.08,0,0,0-.29-.3,2.26,2.26,0,0,0-.43-.23l-.54-.21a6.9,6.9,0,0,1-.7-.32,2.12,2.12,0,0,1-.5-.36,1.35,1.35,0,0,1-.3-.46,1.63,1.63,0,0,1-.1-.6,1.43,1.43,0,0,1,.19-.75,1.71,1.71,0,0,1,.52-.54,2.4,2.4,0,0,1,.74-.33,3.26,3.26,0,0,1,.85-.11,3.44,3.44,0,0,1,1.39.27v1a2.72,2.72,0,0,0-1.52-.43,1.78,1.78,0,0,0-.49.06,1.19,1.19,0,0,0-.37.17.8.8,0,0,0-.24.27.7.7,0,0,0-.08.34.82.82,0,0,0,.08.39.86.86,0,0,0,.25.28,1.9,1.9,0,0,0,.4.22l.53.22a7.42,7.42,0,0,1,.71.31,2.45,2.45,0,0,1,.54.36,1.42,1.42,0,0,1,.34.47,1.5,1.5,0,0,1,.12.63,1.48,1.48,0,0,1-.2.77,1.68,1.68,0,0,1-.52.54,2.4,2.4,0,0,1-.76.32,3.73,3.73,0,0,1-.9.11A3.4,3.4,0,0,1,353.31,80.78Z" fill="#4d5359"/><path d="M321.19,93H320l-1.41-2.36a5.13,5.13,0,0,0-.37-.56,2.14,2.14,0,0,0-.37-.38,1.29,1.29,0,0,0-.41-.21,1.69,1.69,0,0,0-.5-.07h-.81V93h-1V84.6h2.51a3.57,3.57,0,0,1,1,.14,2.27,2.27,0,0,1,.81.42,2,2,0,0,1,.54.7,2.32,2.32,0,0,1,.19,1,2.36,2.36,0,0,1-.13.81,2.1,2.1,0,0,1-.37.65,2.27,2.27,0,0,1-.59.49,3,3,0,0,1-.77.31v0a1.77,1.77,0,0,1,.37.21,2,2,0,0,1,.3.28,3.76,3.76,0,0,1,.28.37l.31.48Zm-5-7.51v3h1.34a2,2,0,0,0,.68-.11,1.58,1.58,0,0,0,.54-.32,1.45,1.45,0,0,0,.36-.51,1.71,1.71,0,0,0,.13-.68,1.32,1.32,0,0,0-.44-1.05,1.88,1.88,0,0,0-1.26-.38Z" fill="#4d5359"/><path d="M326.71,90.24h-4.24a2.24,2.24,0,0,0,.54,1.55,1.86,1.86,0,0,0,1.42.54,3,3,0,0,0,1.86-.67v.9a3.48,3.48,0,0,1-2.09.57,2.54,2.54,0,0,1-2-.82,3.35,3.35,0,0,1-.73-2.3,3.28,3.28,0,0,1,.79-2.28,2.55,2.55,0,0,1,2-.88,2.26,2.26,0,0,1,1.82.76,3.18,3.18,0,0,1,.64,2.12Zm-1-.81a2,2,0,0,0-.4-1.29,1.37,1.37,0,0,0-1.1-.46,1.55,1.55,0,0,0-1.15.49,2.21,2.21,0,0,0-.59,1.27Z" fill="#4d5359"/><path d="M336.68,93h-1V89.55a2.6,2.6,0,0,0-.31-1.44,1.17,1.17,0,0,0-1-.45,1.28,1.28,0,0,0-1,.56,2.15,2.15,0,0,0-.43,1.35V93h-1V89.44q0-1.77-1.37-1.77a1.26,1.26,0,0,0-1,.53,2.19,2.19,0,0,0-.41,1.38V93h-1V87h1v.95h0A2,2,0,0,1,331,86.86a1.73,1.73,0,0,1,1.7,1.24,2.14,2.14,0,0,1,2-1.24q2,0,2,2.44Z" fill="#4d5359"/><path d="M339.61,93h-1V84.6h1Z" fill="#4d5359"/><path d="M342.67,92.13h0v3.63h-1V87h1v1.05h0a2.27,2.27,0,0,1,2.07-1.2,2.2,2.2,0,0,1,1.81.81,3.34,3.34,0,0,1,.65,2.16,3.72,3.72,0,0,1-.73,2.41,2.44,2.44,0,0,1-2,.91A2,2,0,0,1,342.67,92.13Zm0-2.42v.84a1.78,1.78,0,0,0,.48,1.26,1.72,1.72,0,0,0,2.6-.15,3.06,3.06,0,0,0,.5-1.86,2.42,2.42,0,0,0-.46-1.57,1.53,1.53,0,0,0-1.25-.57,1.7,1.7,0,0,0-1.35.58A2.14,2.14,0,0,0,342.65,89.71Z" fill="#4d5359"/><path d="M348.38,92.78v-1a2.84,2.84,0,0,0,1.73.58q1.27,0,1.27-.84a.73.73,0,0,0-.11-.41,1.08,1.08,0,0,0-.29-.3,2.26,2.26,0,0,0-.43-.23l-.54-.21a6.9,6.9,0,0,1-.7-.32,2.12,2.12,0,0,1-.5-.36,1.35,1.35,0,0,1-.3-.46,1.63,1.63,0,0,1-.1-.6,1.43,1.43,0,0,1,.19-.75,1.71,1.71,0,0,1,.52-.54,2.4,2.4,0,0,1,.74-.33,3.26,3.26,0,0,1,.85-.11,3.44,3.44,0,0,1,1.39.27v1a2.72,2.72,0,0,0-1.52-.43,1.78,1.78,0,0,0-.49.06,1.19,1.19,0,0,0-.37.17.8.8,0,0,0-.24.27.7.7,0,0,0-.08.34.82.82,0,0,0,.08.39.86.86,0,0,0,.25.28,1.9,1.9,0,0,0,.4.22l.53.22a7.42,7.42,0,0,1,.71.31,2.45,2.45,0,0,1,.54.36,1.42,1.42,0,0,1,.34.47,1.5,1.5,0,0,1,.12.63,1.48,1.48,0,0,1-.2.77,1.68,1.68,0,0,1-.52.54,2.4,2.4,0,0,1-.76.32,3.73,3.73,0,0,1-.9.11A3.4,3.4,0,0,1,348.38,92.78Z" fill="#4d5359"/><path d="M288.14,69.37a3,3,0,0,1-.21,1.14,2.49,2.49,0,0,1-.6.88,2.69,2.69,0,0,1-.94.57,3.6,3.6,0,0,1-1.22.2,3.31,3.31,0,0,1-1.74-.36v-1a3.14,3.14,0,0,0,1.75.57,2.3,2.3,0,0,0,.82-.14,1.8,1.8,0,0,0,.62-.38,1.65,1.65,0,0,0,.4-.59,2.06,2.06,0,0,0,.14-.76,1.65,1.65,0,0,0-.55-1.32,2.37,2.37,0,0,0-1.6-.48h-.36l-.37,0-.37,0-.33,0,.29-4.32h3.88v.89H284.7l-.17,2.53.4,0h.38a3.69,3.69,0,0,1,1.2.18,2.53,2.53,0,0,1,.89.51,2.16,2.16,0,0,1,.56.82A2.94,2.94,0,0,1,288.14,69.37Z" fill="#7f3f96"/><rect x="290.47" y="67" width="33" height="1" fill="#7f3f96"/><rect x="290.47" y="71" width="33" height="1" fill="#7f3f96"/><path d="M325,116.74a3.27,3.27,0,0,1-.2,1.16,2.81,2.81,0,0,1-.55.91,2.46,2.46,0,0,1-.84.6,2.59,2.59,0,0,1-1.05.21,2.34,2.34,0,0,1-1.13-.27,2.43,2.43,0,0,1-.85-.78,3.79,3.79,0,0,1-.53-1.24,6.89,6.89,0,0,1-.18-1.65,8,8,0,0,1,.24-2,5,5,0,0,1,.69-1.57,3.22,3.22,0,0,1,1.08-1,2.84,2.84,0,0,1,1.41-.35,3.33,3.33,0,0,1,1.39.25v.93a2.9,2.9,0,0,0-1.37-.34,2,2,0,0,0-1,.26,2.36,2.36,0,0,0-.77.73,3.6,3.6,0,0,0-.5,1.14,5.92,5.92,0,0,0-.17,1.49h0a2,2,0,0,1,1.92-1.08,2.47,2.47,0,0,1,1,.19,2.16,2.16,0,0,1,.76.54,2.46,2.46,0,0,1,.48.84A3.26,3.26,0,0,1,325,116.74Zm-1,.13a2.75,2.75,0,0,0-.11-.81,1.77,1.77,0,0,0-.32-.61,1.37,1.37,0,0,0-.51-.39,1.68,1.68,0,0,0-.69-.14,1.57,1.57,0,0,0-.66.14,1.65,1.65,0,0,0-.53.38,1.75,1.75,0,0,0-.35.55,1.79,1.79,0,0,0-.13.67,2.74,2.74,0,0,0,.12.83,2.17,2.17,0,0,0,.35.68,1.66,1.66,0,0,0,.53.45,1.42,1.42,0,0,0,.68.17,1.52,1.52,0,0,0,.66-.14,1.48,1.48,0,0,0,.51-.39,1.84,1.84,0,0,0,.33-.6A2.45,2.45,0,0,0,324,116.87Z" fill="#7f3f96"/><path d="M330,113.11a1.82,1.82,0,0,0-.12-.69,1.38,1.38,0,0,0-.33-.49,1.35,1.35,0,0,0-.49-.29,1.86,1.86,0,0,0-.61-.1,2,2,0,0,0-.55.08,2.7,2.7,0,0,0-.52.22,3.22,3.22,0,0,0-.49.33,3.57,3.57,0,0,0-.44.43v-1.06a2.87,2.87,0,0,1,.91-.62,3.13,3.13,0,0,1,1.22-.21,2.87,2.87,0,0,1,1,.15,2.17,2.17,0,0,1,.76.45,2.07,2.07,0,0,1,.51.73,2.51,2.51,0,0,1,.18,1,3.48,3.48,0,0,1-.11.93,2.91,2.91,0,0,1-.35.78,3.76,3.76,0,0,1-.58.7,8.27,8.27,0,0,1-.83.69q-.59.43-1,.74a4.32,4.32,0,0,0-.61.57,1.68,1.68,0,0,0-.32.54,1.92,1.92,0,0,0-.09.62h4.18v.88h-5.19V119a3.65,3.65,0,0,1,.12-1,2.55,2.55,0,0,1,.39-.8,4.39,4.39,0,0,1,.71-.76q.44-.38,1.07-.85a6.85,6.85,0,0,0,.76-.64,3.33,3.33,0,0,0,.5-.61,2.23,2.23,0,0,0,.27-.62A2.76,2.76,0,0,0,330,113.11Z" fill="#7f3f96"/><path d="M337.29,113.32l-2,3.11,2,3h-1.12l-1.18-2-.26-.47h0l-.28.47-1.2,2h-1.11l2-3-2-3.14h1.12l1.16,2.1.25.48h0l1.5-2.58Z" fill="#7f3f96"/><path d="M343.36,111.43l-.47.85q-.27.51-.58,1.15t-.62,1.37q-.32.73-.59,1.52t-.48,1.58a12.07,12.07,0,0,0-.3,1.58h-1a12.28,12.28,0,0,1,.33-1.57q.22-.8.5-1.58t.59-1.49q.31-.71.6-1.32t.54-1.06l.39-.72H338v-.89h5.34Z" fill="#7f3f96"/><path d="M349.89,115.13a8.68,8.68,0,0,1-.19,1.92,4.53,4.53,0,0,1-.55,1.41,2.51,2.51,0,0,1-.88.87,2.37,2.37,0,0,1-1.19.3,2.22,2.22,0,0,1-1.13-.29,2.39,2.39,0,0,1-.83-.83,4.29,4.29,0,0,1-.52-1.34,8.52,8.52,0,0,1-.18-1.83,9.65,9.65,0,0,1,.18-2,4.65,4.65,0,0,1,.54-1.45,2.33,2.33,0,0,1,2.1-1.18Q349.89,110.71,349.89,115.13Zm-1,.1q0-3.68-1.71-3.68t-1.8,3.75q0,3.49,1.76,3.49T348.91,115.22Z" fill="#7f3f96"/><rect x="290.47" y="67" width="1" height="5" fill="#7f3f96"/><path d="M514.71,25h-1V17.55a2.26,2.26,0,0,1-.33.26,5.29,5.29,0,0,1-.48.29q-.27.15-.56.27a4,4,0,0,1-.58.2v-1a5.52,5.52,0,0,0,.67-.24,7.68,7.68,0,0,0,.7-.34q.34-.19.65-.4a5.13,5.13,0,0,0,.53-.41h.36Z" fill="#7f3f96"/><path d="M521.46,18.64a1.82,1.82,0,0,0-.12-.69,1.38,1.38,0,0,0-.33-.49,1.35,1.35,0,0,0-.49-.29,1.86,1.86,0,0,0-.61-.1,2,2,0,0,0-.55.08,2.7,2.7,0,0,0-.52.22,3.22,3.22,0,0,0-.49.33,3.57,3.57,0,0,0-.44.43V17.06a2.87,2.87,0,0,1,.91-.62,3.13,3.13,0,0,1,1.22-.21,2.87,2.87,0,0,1,1,.15,2.17,2.17,0,0,1,.76.45,2.07,2.07,0,0,1,.51.73,2.51,2.51,0,0,1,.18,1,3.48,3.48,0,0,1-.11.93,2.91,2.91,0,0,1-.35.78,3.76,3.76,0,0,1-.58.7,8.27,8.27,0,0,1-.83.69q-.59.43-1,.74A4.32,4.32,0,0,0,519,23a1.68,1.68,0,0,0-.32.54,1.92,1.92,0,0,0-.09.62h4.18V25h-5.19v-.43a3.65,3.65,0,0,1,.12-1,2.55,2.55,0,0,1,.39-.8,4.39,4.39,0,0,1,.71-.76q.44-.38,1.07-.85a6.85,6.85,0,0,0,.76-.64,3.33,3.33,0,0,0,.5-.61,2.23,2.23,0,0,0,.27-.62A2.76,2.76,0,0,0,521.46,18.64Z" fill="#7f3f96"/><path d="M288.14,95.37a3,3,0,0,1-.21,1.14,2.49,2.49,0,0,1-.6.88,2.69,2.69,0,0,1-.94.57,3.6,3.6,0,0,1-1.22.2,3.31,3.31,0,0,1-1.74-.36v-1a3.14,3.14,0,0,0,1.75.57,2.3,2.3,0,0,0,.82-.14,1.8,1.8,0,0,0,.62-.38,1.65,1.65,0,0,0,.4-.59,2.06,2.06,0,0,0,.14-.76,1.65,1.65,0,0,0-.55-1.32,2.37,2.37,0,0,0-1.6-.48h-.36l-.37,0-.37,0-.33,0,.29-4.32h3.88v.89H284.7l-.17,2.53.4,0h.38a3.69,3.69,0,0,1,1.2.18,2.53,2.53,0,0,1,.89.51,2.16,2.16,0,0,1,.56.82A2.94,2.94,0,0,1,288.14,95.37Z" fill="#7f3f96"/><rect x="290.47" y="93" width="33" height="1" fill="#7f3f96"/><rect x="290.47" y="97" width="33" height="1" fill="#7f3f96"/><rect x="290.47" y="93" width="1" height="5" fill="#7f3f96"/><rect x="521.47" y="26" width="1" height="33" fill="#7f3f96"/><rect x="510.47" y="26" width="1" height="33" fill="#7f3f96"/><rect x="510.47" y="26" width="12" height="1" fill="#7f3f96"/><path d="M588.71,25h-1V17.55a2.24,2.24,0,0,1-.32.26,5.29,5.29,0,0,1-.48.29q-.27.15-.56.27a4,4,0,0,1-.58.2v-1a5.53,5.53,0,0,0,.67-.24,7.68,7.68,0,0,0,.7-.34c.23-.13.44-.26.65-.4a5.13,5.13,0,0,0,.53-.41h.36Z" fill="#7f3f96"/><path d="M595.46,18.64a1.82,1.82,0,0,0-.12-.69,1.38,1.38,0,0,0-.33-.49,1.35,1.35,0,0,0-.49-.29,1.86,1.86,0,0,0-.61-.1,2,2,0,0,0-.55.08,2.69,2.69,0,0,0-.52.22,3.22,3.22,0,0,0-.49.33,3.58,3.58,0,0,0-.44.43V17.06a2.88,2.88,0,0,1,.91-.62,3.12,3.12,0,0,1,1.22-.21,2.87,2.87,0,0,1,1,.15,2.17,2.17,0,0,1,.76.45,2.08,2.08,0,0,1,.51.73,2.51,2.51,0,0,1,.18,1,3.48,3.48,0,0,1-.11.93,2.91,2.91,0,0,1-.35.78,3.77,3.77,0,0,1-.58.7,8.27,8.27,0,0,1-.83.69q-.59.43-1,.74A4.32,4.32,0,0,0,593,23a1.68,1.68,0,0,0-.32.54,1.92,1.92,0,0,0-.09.62h4.18V25h-5.19v-.43a3.65,3.65,0,0,1,.12-1,2.55,2.55,0,0,1,.39-.8,4.4,4.4,0,0,1,.71-.76q.44-.38,1.07-.85a6.87,6.87,0,0,0,.77-.64,3.32,3.32,0,0,0,.49-.61,2.24,2.24,0,0,0,.27-.62A2.76,2.76,0,0,0,595.46,18.64Z" fill="#7f3f96"/><rect x="595.47" y="26" width="1" height="33" fill="#7f3f96"/><rect x="584.47" y="26" width="1" height="33" fill="#7f3f96"/><rect x="584.47" y="26" width="12" height="1" fill="#7f3f96"/></svg>