<svg id="Layer_1" data-name="Layer 1" xmlns="http://www.w3.org/2000/svg" xmlns:xlink="http://www.w3.org/1999/xlink" width="260" height="32" viewBox="0 0 260 32"><defs><linearGradient id="linear-gradient" x1="1" y1="16.5" x2="259" y2="16.5" gradientUnits="userSpaceOnUse"><stop offset="0" stop-color="#e7e9ea"/><stop offset="0.12" stop-color="#e5e8e9"/><stop offset="1" stop-color="#dadfe2"/></linearGradient></defs><title>toolbar-button-hover</title><rect x="1" y="1" width="258" height="31" fill="url(#linear-gradient)"/><rect x="2.14" y="2.03" width="30.86" height="27.93" fill="#fff"/><path d="M2.14,2V30H33V2ZM32,29.06H3.14V2.94H32Z" fill="#4385b8"/><rect y="31" width="259" height="1" fill="#afb2b5"/><rect width="259" height="1" fill="#afb2b5"/><g opacity="0.4"><polygon points="158.47 4.27 159.37 4.27 159.33 28.27 158.43 28.27 158.47 4.27" fill="#4d5359"/></g><path d="M9,17.42a.38.38,0,0,1,.39-.25c.41,0,.82,0,1.23,0a6.7,6.7,0,0,0,2.7-.91c.45-.26.88-.57,1.36-.87l.69.71,3.43,3.43a.29.29,0,0,1,.08.34,17.16,17.16,0,0,1-2.34,4.6c-.15.22-.31.43-.48.64a.53.53,0,0,1-.6.18,6.29,6.29,0,0,1-2.54-1.36A12.09,12.09,0,0,1,9.4,19,13,13,0,0,1,9,17.74l0-.07Z" fill="#4385b8"/><path d="M25,11a2.29,2.29,0,0,1-.72,1.1l-4.2,4.21-.13.14c.11.09.22.16.31.26a1,1,0,0,1,0,1.53l-.64.65-4.17-4.23a8.72,8.72,0,0,1,.77-.83,1,1,0,0,1,1.25.08c.13.12.23.25.37.41l.63-.65,3.92-3.94a1.94,1.94,0,0,1,.75-.47h.78l.14.06a1.47,1.47,0,0,1,.84.81c0,.11.08.23.12.35Z" fill="#4385b8"/><path d="M142.69,14.48c0-2.84-2.85-4.42-4.82-4.42h-.71c-2,0-4.82,1.57-4.81,4.38a4,4,0,0,0,.56,2.6l.29.38c.19.24.37.46.54.65a4.46,4.46,0,0,1,1,1.43,9.94,9.94,0,0,1,.47,1.93l0,.09a.71.71,0,0,0,.17.2,3.2,3.2,0,0,0,2.09.5h.12a3.18,3.18,0,0,0,2.09-.5.73.73,0,0,0,.17-.2l0-.09a9.69,9.69,0,0,1,.46-1.94,4.67,4.67,0,0,1,1-1.46c.2-.23.41-.49.63-.78l.18-.24A3.78,3.78,0,0,0,142.69,14.48Zm-.6,2.48a11.67,11.67,0,0,1-.81,1,4.7,4.7,0,0,0-1,1.48,10,10,0,0,0-.46,1.88l0,.17-.12.12a2.32,2.32,0,0,1-1.42.5h-.15l-.56,0h-.12l-.59,0-.15,0a2.37,2.37,0,0,1-1.35-.47l-.13-.12,0-.18a9.9,9.9,0,0,0-.46-1.87,4.46,4.46,0,0,0-1-1.44,11.21,11.21,0,0,1-.82-1,3.9,3.9,0,0,1-.56-2.57c0-3,3.16-4.34,4.77-4.34h.71c1.61,0,4.77,1.33,4.78,4.41A3.76,3.76,0,0,1,142.09,17Z" fill="#696e73"/><path d="M137.47,22.21h0a3.2,3.2,0,0,1-2.09-.5l0,.24a4.27,4.27,0,0,0,2.12.46,4.49,4.49,0,0,0,2.1-.41h0c0-.06,0-.16,0-.29a3.18,3.18,0,0,1-2.09.5Z" fill="#696e73"/><path d="M137.93,9.81h-.81c-1.65,0-4.9,1.34-4.9,4.45a4,4,0,0,0,.54,2.58l.16.21a4,4,0,0,1-.56-2.6c0-2.8,2.84-4.38,4.81-4.38h.71c2,0,4.82,1.57,4.82,4.42a3.78,3.78,0,0,1-.56,2.49l.15-.2a3.79,3.79,0,0,0,.55-2.48C142.83,11.15,139.58,9.81,137.93,9.81Z" fill="#696e73"/><path d="M137.88,11.11h-.71c-1.27,0-3.77,1-3.77,3.37a3,3,0,0,0,.38,2,10.28,10.28,0,0,0,.75.93,5.39,5.39,0,0,1,1.16,1.76,10.64,10.64,0,0,1,.47,1.84,2.51,2.51,0,0,0,.6.14h.2l.48,0h.1l.5,0h.18a2.34,2.34,0,0,0,.66-.15,10.75,10.75,0,0,1,.48-1.86,5.61,5.61,0,0,1,1.17-1.79,10.68,10.68,0,0,0,.74-.93,2.81,2.81,0,0,0,.39-1.79C141.65,12.14,139.15,11.11,137.88,11.11Z" fill="#696e73"/><path d="M137.93,9.27h-.81c-2.23,0-5.44,1.78-5.44,4.95a4.43,4.43,0,0,0,.64,2.93,12.66,12.66,0,0,0,.93,1.16,5.11,5.11,0,0,1,1.1,1.64,11.23,11.23,0,0,1,.53,2.2l0,.09a1,1,0,0,0,.47.4v.08l0-.05h0l0,0a3.93,3.93,0,0,0,2,.42,3.85,3.85,0,0,0,2.09-.42l0,0v-.1a1.07,1.07,0,0,0,.48-.41l0-.09a11.16,11.16,0,0,1,.53-2.22,5.31,5.31,0,0,1,1.12-1.68,13.92,13.92,0,0,0,.92-1.15,4.25,4.25,0,0,0,.64-2.83C143.37,11,140.15,9.27,137.93,9.27Zm4.36,7.51-.15.2-.18.24c-.22.29-.44.56-.63.78a4.67,4.67,0,0,0-1,1.46,9.69,9.69,0,0,0-.46,1.94l0,.09a.73.73,0,0,1-.17.2c0,.13,0,.23,0,.29h0a4.49,4.49,0,0,1-2.1.41,4.27,4.27,0,0,1-2.12-.46l0-.24a.71.71,0,0,1-.17-.2l0-.09a9.94,9.94,0,0,0-.47-1.93,4.46,4.46,0,0,0-1-1.43c-.17-.19-.35-.41-.54-.65l-.29-.38-.16-.21a4,4,0,0,1-.54-2.58c0-3.1,3.25-4.45,4.9-4.45h.81c1.65,0,4.76,1.53,4.77,4.67A2.9,2.9,0,0,1,142.28,16.78Z" fill="#696e73"/><path d="M139.13,24.16l-.1,0a5.73,5.73,0,0,1-1.51.18,5.3,5.3,0,0,1-1.48-.22l-.17-.05-.15-.05-.13,0s0,0,0,0c0,.41.9,1.26,1.95,1.26A2.09,2.09,0,0,0,139.46,24l-.15.06Z" fill="#696e73"/><path d="M136.48,23.54l.4.07a4.51,4.51,0,0,0,.64.05,6.65,6.65,0,0,0,.73,0l.4-.05.27-.06a2.28,2.28,0,0,0,.69-.27l0,0v-.41a4.24,4.24,0,0,1-2.12.41,4,4,0,0,1-2.14-.45v.45l0-.07a5.47,5.47,0,0,0,.8.28Z" fill="#696e73"/><path d="M135.38,23.57a.34.34,0,0,0,.11.2l.14.06.13,0,.14,0a5.47,5.47,0,0,0,3.28.05l.13,0,.13-.05.17-.09a.21.21,0,0,0,0-.08v-.3a2.34,2.34,0,0,1-.48.2l-.2.05-.26.05a6.48,6.48,0,0,1-1.18.1,5.11,5.11,0,0,1-1.09-.12l-.26-.06-.21-.06a5.11,5.11,0,0,1-.58-.21Z" fill="#696e73"/><path d="M183.11,25.23a6.26,6.26,0,0,1-5.42-3.05h9.52l-2.1-9.46c3,.5,4.3,3.09,4.3,6.21A6.3,6.3,0,0,1,183.11,25.23Z" fill="#696e73"/><polygon points="180.21 15.24 182.61 10.64 184.91 20.99 174.47 20.99 178.63 17.61 173.41 12.98 173.41 9.53 180.21 15.24" fill="#696e73"/><path d="M210.79,25.27a4.47,4.47,0,0,0,4.41-4.65c0-1.66-.48-2-.48-2h-7.85a3.65,3.65,0,0,0-.52,2.07C206.34,22.48,208.05,25.27,210.79,25.27Z" fill="#696e73"/><path d="M212.34,15.31l-3.78,2.2h8.85l-1.66-8.24-1.4,3.83c-2.16-2.24-6.52-2.49-9.38.19a7.18,7.18,0,0,0-2.18,5.89,7.76,7.76,0,0,0,2.06,4.65,7.35,7.35,0,0,0,1.09.95,5.92,5.92,0,0,1-1.8-3.76,6,6,0,0,1,0-.91,5.91,5.91,0,0,1,3.19-4.85,5.54,5.54,0,0,1,3.11-.65A3.78,3.78,0,0,1,212.34,15.31Z" fill="#696e73"/><path d="M234.08,22.79l-.58-1.17a4.22,4.22,0,0,1-.47-1.93,4.88,4.88,0,0,1,.82-3l.1-.12,3.82-1.9a4.51,4.51,0,0,0-2.08-.4c-2.51,0-4.28,2-4.28,5.89a5.46,5.46,0,0,0,5.29,5.22,4.86,4.86,0,0,0,5-5.09,4.6,4.6,0,0,0,0-.89Z" fill="#696e73"/><path d="M247.41,11.6h-9.64l4.28,3.21-6.66,2.94A3,3,0,0,0,235,21l8.1-4.06,1.64,4.28Z" fill="#696e73"/><path d="M57.47,22H56.4V19.87h1.07Zm-2.13,0H54.27V19.87h1.07ZM53.2,22H52.13V19.87H53.2Zm-2.13,0H50V19.87h1.07Zm-2.13,0H47.87V19.87h1.07ZM46.8,22H45.73V19.87H46.8Zm-2.13,0H43.6V20.93H41.47V19.87h3.2ZM43.6,18.8H41.47V17.73H43.6Zm0-2.13H41.47V15.6H43.6Zm0-2.13H41.47V13.47H43.6ZM57.47,12.4H56.4V10.27h1.07Zm-2.13,0H54.27V10.27h1.07Zm-2.13,0H52.13V10.27H53.2Zm-2.13,0H50V10.27h1.07Zm-2.13,0H47.87V10.27h1.07Zm-2.13,0H45.73V10.27H46.8Zm-2.13,0h-3.2V11.33H43.6V10.27h1.07Z" fill="#696e73"/><rect x="45.25" y="20.4" width="10.56" height="2.13" transform="translate(-0.38 42.01) rotate(-44.99)" fill="#696e73"/><rect x="49.47" y="16.19" width="2.13" height="10.56" transform="translate(-0.38 42.02) rotate(-45)" fill="#696e73"/><rect x="100.47" y="11.96" width="5.65" height="11.29" fill="#696e73"/><rect x="107.06" y="11.96" width="4.71" height="4.75" fill="#696e73"/><polygon points="116.47 16.66 114.58 18.55 112.7 16.66 116.47 16.66" fill="#696e73"/><rect x="107.06" y="18.59" width="4.71" height="4.67" fill="#696e73"/><path d="M74.76,23.25a12.81,12.81,0,0,0,5.7,1c3.49,0,6.32-.8,6.32-1.78S84,20.71,80.47,20.71c-.74,0-1.46,0-2.12.1Z" fill="#696e73"/><ellipse cx="80.47" cy="11.82" rx="6.32" ry="1.78" fill="#696e73"/><path d="M86.78,15.38c0-1-2.83-1.78-6.32-1.78-3.21,0-5.85.67-6.26,1.55l.36.23,2.09,1.42a18.69,18.69,0,0,0,3.81.36C84,17.15,86.78,16.36,86.78,15.38Z" fill="#696e73"/><path d="M80.47,19.38l-1.85,1.26c.59.05,1.21.08,1.85.08,3.49,0,6.32-.8,6.32-1.78S84,17.15,80.47,17.15a20.23,20.23,0,0,0-3,.21Z" fill="#696e73"/><polygon points="78.2 19.38 72.31 15.38 73.99 18.04 71.47 18.04 71.47 20.71 73.99 20.71 72.31 23.38 78.2 19.38" fill="#696e73"/><rect width="0.9" height="32" fill="#afb2b5"/><rect x="259.1" width="0.9" height="32" fill="#afb2b5"/></svg>