<svg id="Layer_1" data-name="Layer 1" xmlns="http://www.w3.org/2000/svg" xmlns:xlink="http://www.w3.org/1999/xlink" width="70" height="24" viewBox="0 0 70 24"><defs><linearGradient id="linear-gradient" x1="35" y1="2.15" x2="35" y2="21.77" gradientUnits="userSpaceOnUse"><stop offset="0" stop-color="#ebe9ec"/><stop offset="0.28" stop-color="#e5e6e9"/><stop offset="1" stop-color="#dadfe2"/></linearGradient></defs><title>button-default-action</title><rect x="2" y="1.99" width="66" height="20" fill="url(#linear-gradient)"/><path d="M0,0V24H70V0ZM68,22H2V2H68Z" fill="#a8abae"/><path d="M31.48,16.21A3.69,3.69,0,0,1,28.62,15,4.37,4.37,0,0,1,27.55,12a4.63,4.63,0,0,1,1.1-3.23,3.83,3.83,0,0,1,3-1.21,3.61,3.61,0,0,1,2.8,1.17,4.38,4.38,0,0,1,1.06,3.06A4.64,4.64,0,0,1,34.4,15,3.76,3.76,0,0,1,31.48,16.21Zm.07-7.79a2.71,2.71,0,0,0-2.15,1,3.7,3.7,0,0,0-.83,2.51,3.72,3.72,0,0,0,.81,2.5,2.63,2.63,0,0,0,2.1.95,2.76,2.76,0,0,0,2.18-.9,3.69,3.69,0,0,0,.8-2.53,3.85,3.85,0,0,0-.77-2.57A2.65,2.65,0,0,0,31.55,8.41Z" fill="#4d5359"/><path d="M43,16.07H41.62l-3.25-3.84a2.34,2.34,0,0,1-.22-.29h0v4.14h-1V7.66h1v3.95h0a2.32,2.32,0,0,1,.22-.29l3.14-3.66h1.22l-3.6,4Z" fill="#4d5359"/></svg>