<svg id="Layer_1" data-name="Layer 1" xmlns="http://www.w3.org/2000/svg" xmlns:xlink="http://www.w3.org/1999/xlink" width="116" height="50" viewBox="0 0 116 50">
  <defs>
    <linearGradient id="linear-gradient" x1="40" y1="0.72" x2="40" y2="23.21" gradientUnits="userSpaceOnUse">
      <stop offset="0" stop-color="#ebe9ec"/>
      <stop offset="0.28" stop-color="#e5e6e9"/>
      <stop offset="1" stop-color="#dadfe2"/>
    </linearGradient>
  </defs>
  <title>button-layout</title>
  <g>
    <rect x="0.53" y="0.53" width="78.93" height="22.93" fill="url(#linear-gradient)"/>
    <path d="M78.93,1.07V22.93H1.07V1.07H78.93M80,0H0V24H80V0Z" fill="#a8abae"/>
  </g>
  <g>
    <path d="M9.84,15.73V14.57a2.83,2.83,0,0,0,.48.31,3,3,0,0,0,.59.24,6.23,6.23,0,0,0,.62.15,3.88,3.88,0,0,0,.57.05A2.29,2.29,0,0,0,13.46,15a1.15,1.15,0,0,0,.45-1,1.16,1.16,0,0,0-.15-.6,1.79,1.79,0,0,0-.42-.46,3.91,3.91,0,0,0-.62-.39l-.78-.41a9.13,9.13,0,0,1-.82-.45,3.81,3.81,0,0,1-.66-.5,1.84,1.84,0,0,1-.44-.63,1.86,1.86,0,0,1-.16-.81,1.88,1.88,0,0,1,.25-1,2.21,2.21,0,0,1,.66-.7,2.86,2.86,0,0,1,.94-.41,4.17,4.17,0,0,1,1.06-.14,4,4,0,0,1,1.81.3V8.93a3.29,3.29,0,0,0-1.91-.52,3.58,3.58,0,0,0-.64.07,1.93,1.93,0,0,0-.57.22,1.18,1.18,0,0,0-.41.39,1,1,0,0,0-.16.59,1.25,1.25,0,0,0,.12.56,1.38,1.38,0,0,0,.35.42,3.76,3.76,0,0,0,.57.38l.78.4c.3.15.59.3.86.47a3.82,3.82,0,0,1,.7.54,2.36,2.36,0,0,1,.49.66,1.89,1.89,0,0,1,.18.84A2,2,0,0,1,14.69,15a2.07,2.07,0,0,1-.65.7,2.94,2.94,0,0,1-1,.39,5.09,5.09,0,0,1-1.13.12,3.2,3.2,0,0,1-.49,0q-.3,0-.6-.09a4.91,4.91,0,0,1-.58-.15A2,2,0,0,1,9.84,15.73Z" fill="#4d5359"/>
    <path d="M21.46,16.07H20.12l-2.65-2.89h0v2.89h-1V7.18h1v5.63h0L20,10.07h1.26L18.46,13Z" fill="#4d5359"/>
    <path d="M22.94,8.54a.64.64,0,0,1-.44-.17.65.65,0,0,1,0-.9.6.6,0,0,1,.44-.18.62.62,0,0,1,.63.63.6.6,0,0,1-.18.44A.61.61,0,0,1,22.94,8.54Zm.47,7.53h-1v-6h1Z" fill="#4d5359"/>
    <path d="M26.34,15.2h0v3.63h-1V10.07h1v1h0a2.25,2.25,0,0,1,2.07-1.19,2.17,2.17,0,0,1,1.81.8,3.31,3.31,0,0,1,.65,2.16,3.71,3.71,0,0,1-.73,2.41,2.42,2.42,0,0,1-2,.91A2,2,0,0,1,26.34,15.2Zm0-2.42v.84a1.8,1.8,0,0,0,.48,1.26,1.72,1.72,0,0,0,2.59-.15,3,3,0,0,0,.5-1.86,2.43,2.43,0,0,0-.46-1.57,1.54,1.54,0,0,0-1.26-.57,1.69,1.69,0,0,0-1.34.59A2.13,2.13,0,0,0,26.32,12.78Z" fill="#4d5359"/>
    <path d="M40,16.07H39v-.94h0a2,2,0,0,1-1.85,1.08,2,2,0,0,1-1.4-.48,1.62,1.62,0,0,1-.51-1.26q0-1.68,2-2l1.8-.26c0-1-.41-1.53-1.24-1.53a3,3,0,0,0-1.95.74v-1a3.68,3.68,0,0,1,2-.56c1.41,0,2.11.74,2.11,2.23Zm-1-3-1.45.2a2.25,2.25,0,0,0-1,.33,1,1,0,0,0-.34.84.91.91,0,0,0,.31.72,1.19,1.19,0,0,0,.83.28,1.55,1.55,0,0,0,1.18-.5A1.77,1.77,0,0,0,39,13.63Z" fill="#4d5359"/>
    <path d="M42.76,16.07h-1V7.18h1Z" fill="#4d5359"/>
    <path d="M45.67,16.07h-1V7.18h1Z" fill="#4d5359"/>
    <path d="M53.87,8a1.24,1.24,0,0,0-.64-.16c-.67,0-1,.42-1,1.27v.93h1.41v.82H52.22v5.18h-1V10.89h-1v-.82h1v-1a2,2,0,0,1,.55-1.49,1.86,1.86,0,0,1,1.36-.55,1.94,1.94,0,0,1,.7.11Z" fill="#4d5359"/>
    <path d="M55.15,8.54a.64.64,0,0,1-.44-.17.65.65,0,0,1,0-.9.6.6,0,0,1,.44-.18.63.63,0,0,1,.45.18.61.61,0,0,1,.18.45.6.6,0,0,1-.18.44A.63.63,0,0,1,55.15,8.54Zm.47,7.53h-1v-6h1Z" fill="#4d5359"/>
    <path d="M58.52,16.07h-1V7.18h1Z" fill="#4d5359"/>
    <path d="M65.29,13.31H61.06a2.22,2.22,0,0,0,.53,1.54A1.85,1.85,0,0,0,63,15.4a2.94,2.94,0,0,0,1.87-.67v.9a3.46,3.46,0,0,1-2.1.58,2.54,2.54,0,0,1-2-.82,3.33,3.33,0,0,1-.73-2.3,3.28,3.28,0,0,1,.79-2.28,2.55,2.55,0,0,1,2-.88,2.25,2.25,0,0,1,1.82.76,3.17,3.17,0,0,1,.64,2.11Zm-1-.82a2,2,0,0,0-.4-1.29,1.38,1.38,0,0,0-1.1-.47,1.58,1.58,0,0,0-1.16.49,2.21,2.21,0,0,0-.58,1.27Z" fill="#4d5359"/>
    <path d="M66.38,15.85v-1a2.84,2.84,0,0,0,1.73.58c.84,0,1.27-.28,1.27-.85a.72.72,0,0,0-.11-.4,1.07,1.07,0,0,0-.3-.3,2.44,2.44,0,0,0-.43-.23L68,13.41l-.7-.32a2.16,2.16,0,0,1-.5-.37,1.19,1.19,0,0,1-.3-.46,1.57,1.57,0,0,1-.11-.6,1.45,1.45,0,0,1,.2-.75,1.75,1.75,0,0,1,.51-.54,2.26,2.26,0,0,1,.74-.33,3,3,0,0,1,.85-.11,3.41,3.41,0,0,1,1.39.27v1a2.69,2.69,0,0,0-1.52-.44,1.43,1.43,0,0,0-.48.07,1.1,1.1,0,0,0-.38.17.78.78,0,0,0-.24.27.74.74,0,0,0-.08.34.9.9,0,0,0,.08.39.83.83,0,0,0,.25.28,1.67,1.67,0,0,0,.4.22l.53.22c.27.1.51.21.72.31a2.44,2.44,0,0,1,.54.37,1.38,1.38,0,0,1,.34.46,1.54,1.54,0,0,1,.12.63,1.45,1.45,0,0,1-.2.77,1.7,1.7,0,0,1-.52.55,2.49,2.49,0,0,1-.76.32,3.68,3.68,0,0,1-.89.11A3.39,3.39,0,0,1,66.38,15.85Z" fill="#4d5359"/>
  </g>
  <g>
    <rect x="0.5" y="35.2" width="9" height="1" fill="#ec008c"/>
    <rect x="9" y="10" width="1" height="29.2" fill="#ec008c"/>
    <rect y="10" width="1" height="29.2" fill="#ec008c"/>
  </g>
  <g>
    <path d="M3,49.2H2.08V42.55l-.3.23c-.13.09-.28.17-.44.26a4,4,0,0,1-.51.24,3.32,3.32,0,0,1-.53.18v-.89c.19-.06.39-.13.61-.22A5.38,5.38,0,0,0,1.55,42a6.56,6.56,0,0,0,.59-.35,4.16,4.16,0,0,0,.49-.36H3Z" fill="#ec008c"/>
    <path d="M10.48,45.32A7.36,7.36,0,0,1,10.3,47a3.82,3.82,0,0,1-.5,1.26,2.32,2.32,0,0,1-.81.78,2.2,2.2,0,0,1-1.09.27,2.11,2.11,0,0,1-1-.26,2.15,2.15,0,0,1-.76-.74,3.86,3.86,0,0,1-.48-1.2,8,8,0,0,1-.16-1.63,8.64,8.64,0,0,1,.17-1.79,4.14,4.14,0,0,1,.5-1.29,2.18,2.18,0,0,1,.81-.79,2.29,2.29,0,0,1,1.12-.27Q10.48,41.37,10.48,45.32Zm-.9.08c0-2.19-.52-3.28-1.57-3.28s-1.64,1.11-1.64,3.34c0,2.08.53,3.12,1.61,3.12S9.58,47.52,9.58,45.4Z" fill="#ec008c"/>
  </g>
  <g>
    <rect x="70.5" y="35.2" width="9" height="1" fill="#ec008c"/>
    <rect x="79" y="7" width="1" height="32.2" fill="#ec008c"/>
    <rect x="70" y="7" width="1" height="32.2" fill="#ec008c"/>
  </g>
  <g>
    <path d="M73,49.2h-.88V42.55l-.3.23c-.13.09-.28.17-.44.26a4,4,0,0,1-.51.24,3.32,3.32,0,0,1-.53.18v-.89c.19-.06.39-.13.61-.22a5.38,5.38,0,0,0,.64-.31,6.56,6.56,0,0,0,.59-.35,4.16,4.16,0,0,0,.49-.36H73Z" fill="#ec008c"/>
    <path d="M80.48,45.32A7.36,7.36,0,0,1,80.3,47a3.82,3.82,0,0,1-.5,1.26,2.32,2.32,0,0,1-.81.78,2.2,2.2,0,0,1-1.09.27,2.11,2.11,0,0,1-1-.26,2.15,2.15,0,0,1-.76-.74,3.86,3.86,0,0,1-.48-1.2,8,8,0,0,1-.16-1.63,8.64,8.64,0,0,1,.17-1.79,4.14,4.14,0,0,1,.5-1.29,2.18,2.18,0,0,1,.81-.79,2.29,2.29,0,0,1,1.12-.27Q80.47,41.37,80.48,45.32Zm-.9.08c0-2.19-.52-3.28-1.57-3.28s-1.64,1.11-1.64,3.34c0,2.08.53,3.12,1.61,3.12S79.58,47.52,79.58,45.4Z" fill="#ec008c"/>
  </g>
  <g>
    <rect x="9" y="35.2" width="62" height="1" fill="#ec008c"/>
    <rect x="70" y="24" width="1" height="15.2" fill="#ec008c"/>
    <rect x="9" y="24" width="1" height="15.2" fill="#ec008c"/>
  </g>
  <g>
    <path d="M34.5,42.32h-3V45h2.78v.81H31.5V49.2h-.91V41.5H34.5Z" fill="#ec008c"/>
    <path d="M36.73,49.2h-.88V41.06h.88Z" fill="#ec008c"/>
    <path d="M42.93,46.67H39.05a2.06,2.06,0,0,0,.49,1.42,1.72,1.72,0,0,0,1.3.5A2.75,2.75,0,0,0,42.55,48v.82a3.19,3.19,0,0,1-1.92.53,2.31,2.31,0,0,1-1.83-.75,3.09,3.09,0,0,1-.67-2.11,3,3,0,0,1,.73-2.09,2.34,2.34,0,0,1,1.81-.81,2.08,2.08,0,0,1,1.67.7,2.94,2.94,0,0,1,.59,1.94Zm-.9-.75a1.83,1.83,0,0,0-.37-1.18,1.27,1.27,0,0,0-1-.43,1.43,1.43,0,0,0-1.06.45,2,2,0,0,0-.53,1.16Z" fill="#ec008c"/>
    <path d="M48.28,43.7l-1.85,2.78,1.82,2.72h-1l-1.08-1.78Q46,47.26,45.9,47h0l-.25.42L44.52,49.2h-1l1.87-2.7-1.79-2.8h1l1.06,1.88.23.43h0l1.38-2.31Z" fill="#ec008c"/>
  </g>
  <g>
    <rect x="96" width="1" height="24" fill="#ec008c"/>
    <rect x="80" width="20" height="1" fill="#ec008c"/>
    <rect x="80" y="23" width="20" height="1" fill="#ec008c"/>
  </g>
  <g>
    <path d="M107.22,10.52a1.67,1.67,0,0,0-.11-.62,1.55,1.55,0,0,0-.3-.44,1.43,1.43,0,0,0-.45-.26,2,2,0,0,0-.56-.08,1.79,1.79,0,0,0-.51.07,2.39,2.39,0,0,0-.48.19,2.93,2.93,0,0,0-.45.3,2.86,2.86,0,0,0-.4.38v-1a2.56,2.56,0,0,1,.83-.55,2.85,2.85,0,0,1,1.12-.19,2.74,2.74,0,0,1,.87.14,1.94,1.94,0,0,1,.7.4,1.85,1.85,0,0,1,.47.65,2.19,2.19,0,0,1,.16.88,3,3,0,0,1-.1.83,2.61,2.61,0,0,1-.32.7,3.41,3.41,0,0,1-.53.63,8.78,8.78,0,0,1-.76.61l-.89.66a3.62,3.62,0,0,0-.56.51,1.37,1.37,0,0,0-.29.48,1.55,1.55,0,0,0-.08.55h3.83v.79h-4.75v-.38a3.25,3.25,0,0,1,.1-.87,2.27,2.27,0,0,1,.36-.71,3.42,3.42,0,0,1,.65-.68c.26-.23.59-.48,1-.76a6.53,6.53,0,0,0,.7-.58,2.79,2.79,0,0,0,.45-.55,1.8,1.8,0,0,0,.25-.55A2.9,2.9,0,0,0,107.22,10.52Z" fill="#ec008c"/>
    <path d="M113.57,8.5v5.09h1v.8h-1V16.2h-.87V14.39h-3.62v-.76c.33-.38.67-.79,1-1.22s.67-.87,1-1.31.61-.89.87-1.33a13.38,13.38,0,0,0,.68-1.27Zm-3.5,5.09h2.63V9.81c-.27.47-.53.89-.77,1.26s-.46.71-.68,1-.42.57-.62.81Z" fill="#ec008c"/>
  </g>
</svg>
