<svg id="Layer_1" data-name="Layer 1" xmlns="http://www.w3.org/2000/svg" xmlns:xlink="http://www.w3.org/1999/xlink" width="232" height="278" viewBox="0 0 232 278"><defs><linearGradient id="linear-gradient" x1="10.5" y1="250" x2="25.5" y2="250" gradientUnits="userSpaceOnUse"><stop offset="0" stop-color="#98a0a8"/><stop offset="1" stop-color="#f5f1fd"/></linearGradient></defs><title>color-picker-active</title><rect width="35" height="26" fill="#e0e0e0"/><path d="M29,20h6l-3,6Z" fill="#696e73"/><path d="M4,6V22H20V6Zm7.43,7.89L5,20.34V7.45ZM5.66,7H18.42L12,13.4ZM12,14.63,18.39,21H5.69Zm.61-.74L19,7.53V20.26Z" fill="#696e73"/><rect x="0.5" y="0.5" width="25" height="25" fill="#c1c1c1"/><path d="M25,1V25H1V1H25m1-1H0V26H26V0Z" fill="#777b80"/><rect x="2.5" y="26.5" width="228" height="250" fill="#fff"/><path d="M229,28V275H4V28H229m3-3H1V278H232V25Z" fill="#4286ba"/><path d="M230,27V276H3V27H230m2-2H1V278H232V25Z" fill="#d3d3d3"/><path d="M13.1,46.2V37.8h2.39a2.61,2.61,0,0,1,1.73.53,1.72,1.72,0,0,1,.64,1.39A2,2,0,0,1,17.47,41a2.09,2.09,0,0,1-1.07.75v0a2.14,2.14,0,0,1,1.36.64,2,2,0,0,1,.51,1.41,2.2,2.2,0,0,1-.77,1.75,2.88,2.88,0,0,1-2,.67Zm1-7.51V41.4h1A1.91,1.91,0,0,0,16.37,41a1.36,1.36,0,0,0,.46-1.1q0-1.22-1.61-1.22Zm0,3.6v3h1.34a2,2,0,0,0,1.34-.41,1.4,1.4,0,0,0,.48-1.12q0-1.49-2-1.49Z" fill="#2b3033"/><path d="M24.15,46.2h-1v-.94h0a2,2,0,0,1-1.85,1.08,2,2,0,0,1-1.4-.47,1.64,1.64,0,0,1-.51-1.26q0-1.68,2-2l1.8-.25q0-1.53-1.24-1.53a3,3,0,0,0-2,.74v-1a3.72,3.72,0,0,1,2-.56q2.12,0,2.12,2.24Zm-1-3-1.45.2a2.35,2.35,0,0,0-1,.33,1,1,0,0,0-.34.84.92.92,0,0,0,.31.72,1.21,1.21,0,0,0,.83.28,1.54,1.54,0,0,0,1.18-.5,1.79,1.79,0,0,0,.47-1.27Z" fill="#2b3033"/><path d="M25.59,46V45a2.84,2.84,0,0,0,1.73.58q1.27,0,1.27-.84a.73.73,0,0,0-.11-.41,1.08,1.08,0,0,0-.29-.3,2.26,2.26,0,0,0-.43-.23l-.54-.21a6.9,6.9,0,0,1-.7-.32,2.12,2.12,0,0,1-.5-.36,1.35,1.35,0,0,1-.3-.46,1.63,1.63,0,0,1-.1-.6A1.43,1.43,0,0,1,25.8,41a1.71,1.71,0,0,1,.52-.54,2.4,2.4,0,0,1,.74-.33,3.26,3.26,0,0,1,.85-.11,3.44,3.44,0,0,1,1.39.27v1a2.72,2.72,0,0,0-1.52-.43,1.78,1.78,0,0,0-.49.06,1.19,1.19,0,0,0-.37.17.8.8,0,0,0-.24.27.7.7,0,0,0-.08.34.82.82,0,0,0,.08.39.86.86,0,0,0,.25.28,1.9,1.9,0,0,0,.4.22l.53.22a7.42,7.42,0,0,1,.71.31,2.45,2.45,0,0,1,.54.36,1.42,1.42,0,0,1,.34.47,1.5,1.5,0,0,1,.12.63,1.48,1.48,0,0,1-.2.77,1.68,1.68,0,0,1-.52.54,2.4,2.4,0,0,1-.76.32,3.73,3.73,0,0,1-.9.11A3.4,3.4,0,0,1,25.59,46Z" fill="#2b3033"/><path d="M31.54,38.68a.61.61,0,0,1-.44-.18.59.59,0,0,1-.18-.45.62.62,0,0,1,.62-.63.62.62,0,0,1,.45.18.63.63,0,0,1,0,.89A.62.62,0,0,1,31.54,38.68ZM32,46.2H31v-6h1Z" fill="#2b3033"/><path d="M38,45.93a3.12,3.12,0,0,1-1.64.42,2.72,2.72,0,0,1-2.07-.83,3,3,0,0,1-.79-2.17A3.33,3.33,0,0,1,34.4,41a3,3,0,0,1,2.27-.9,3.16,3.16,0,0,1,1.39.29v1a2.44,2.44,0,0,0-1.43-.47,1.93,1.93,0,0,0-1.51.66,2.5,2.5,0,0,0-.59,1.73,2.38,2.38,0,0,0,.55,1.66,1.91,1.91,0,0,0,1.49.61A2.41,2.41,0,0,0,38,45Z" fill="#2b3033"/><path d="M43.77,45.33h0V49h-1V40.2h1v1.05h0a2.27,2.27,0,0,1,2.07-1.2,2.2,2.2,0,0,1,1.81.81A3.34,3.34,0,0,1,48.31,43a3.72,3.72,0,0,1-.73,2.41,2.44,2.44,0,0,1-2,.91A2,2,0,0,1,43.77,45.33Zm0-2.42v.84A1.78,1.78,0,0,0,44.23,45a1.72,1.72,0,0,0,2.6-.15,3.06,3.06,0,0,0,.5-1.86,2.42,2.42,0,0,0-.46-1.57,1.53,1.53,0,0,0-1.25-.57,1.7,1.7,0,0,0-1.35.58A2.14,2.14,0,0,0,43.75,42.91Z" fill="#2b3033"/><path d="M54,46.2H53v-.94h0a2,2,0,0,1-1.85,1.08,2,2,0,0,1-1.4-.47,1.64,1.64,0,0,1-.51-1.26q0-1.68,2-2L53,42.4q0-1.53-1.24-1.53a3,3,0,0,0-2,.74v-1a3.72,3.72,0,0,1,2-.56Q54,40.06,54,42.3Zm-1-3-1.45.2a2.35,2.35,0,0,0-1,.33,1,1,0,0,0-.34.84.92.92,0,0,0,.31.72,1.21,1.21,0,0,0,.83.28,1.54,1.54,0,0,0,1.18-.5A1.79,1.79,0,0,0,53,43.76Z" fill="#2b3033"/><path d="M56.75,46.2h-1V37.32h1Z" fill="#2b3033"/><path d="M63.52,43.44H59.28A2.24,2.24,0,0,0,59.82,45a1.86,1.86,0,0,0,1.42.54,3,3,0,0,0,1.86-.67v.9a3.48,3.48,0,0,1-2.09.57,2.54,2.54,0,0,1-2-.82,3.35,3.35,0,0,1-.73-2.3,3.28,3.28,0,0,1,.79-2.28,2.55,2.55,0,0,1,2-.88,2.26,2.26,0,0,1,1.82.76,3.18,3.18,0,0,1,.64,2.12Zm-1-.81a2,2,0,0,0-.4-1.29,1.37,1.37,0,0,0-1.1-.46,1.55,1.55,0,0,0-1.15.49,2.21,2.21,0,0,0-.59,1.27Z" fill="#2b3033"/><path d="M67.75,46.14a1.85,1.85,0,0,1-.9.19q-1.58,0-1.58-1.76V41h-1V40.2h1V38.74l1-.31V40.2h1.51V41H66.24V44.4a1.4,1.4,0,0,0,.21.86.82.82,0,0,0,.68.26,1,1,0,0,0,.63-.2Z" fill="#2b3033"/><path d="M71.82,46.14a1.85,1.85,0,0,1-.9.19q-1.58,0-1.58-1.76V41h-1V40.2h1V38.74l1-.31V40.2h1.51V41H70.31V44.4a1.4,1.4,0,0,0,.21.86.82.82,0,0,0,.68.26,1,1,0,0,0,.63-.2Z" fill="#2b3033"/><path d="M77.83,43.44H73.59A2.24,2.24,0,0,0,74.13,45a1.86,1.86,0,0,0,1.42.54,3,3,0,0,0,1.86-.67v.9a3.48,3.48,0,0,1-2.09.57,2.54,2.54,0,0,1-2-.82,3.35,3.35,0,0,1-.73-2.3,3.28,3.28,0,0,1,.79-2.28,2.55,2.55,0,0,1,2-.88,2.26,2.26,0,0,1,1.82.76,3.18,3.18,0,0,1,.64,2.12Zm-1-.81a2,2,0,0,0-.4-1.29,1.37,1.37,0,0,0-1.1-.46,1.55,1.55,0,0,0-1.15.49,2.21,2.21,0,0,0-.59,1.27Z" fill="#2b3033"/><path d="M19.13,175.2H18l-1.41-2.36a5.13,5.13,0,0,0-.37-.56,2.14,2.14,0,0,0-.37-.38,1.29,1.29,0,0,0-.41-.21,1.69,1.69,0,0,0-.5-.07h-.81v3.57h-1v-8.4h2.51a3.57,3.57,0,0,1,1,.14,2.27,2.27,0,0,1,.81.42,2,2,0,0,1,.54.7,2.32,2.32,0,0,1,.19,1,2.36,2.36,0,0,1-.13.81,2.1,2.1,0,0,1-.37.65,2.27,2.27,0,0,1-.59.49,3,3,0,0,1-.77.31v0a1.77,1.77,0,0,1,.37.21,2,2,0,0,1,.3.28,3.76,3.76,0,0,1,.28.37l.31.48Zm-5-7.51v3h1.34a2,2,0,0,0,.68-.11,1.58,1.58,0,0,0,.54-.32,1.45,1.45,0,0,0,.36-.51,1.71,1.71,0,0,0,.13-.68,1.32,1.32,0,0,0-.44-1.05,1.88,1.88,0,0,0-1.26-.38Z" fill="#2b3033"/><path d="M24.64,172.44H20.4a2.24,2.24,0,0,0,.54,1.55,1.86,1.86,0,0,0,1.42.54,3,3,0,0,0,1.86-.67v.9a3.48,3.48,0,0,1-2.09.57,2.54,2.54,0,0,1-2-.82,3.35,3.35,0,0,1-.73-2.3,3.28,3.28,0,0,1,.79-2.28,2.55,2.55,0,0,1,2-.88,2.26,2.26,0,0,1,1.82.76,3.18,3.18,0,0,1,.64,2.12Zm-1-.81a2,2,0,0,0-.4-1.29,1.37,1.37,0,0,0-1.1-.46,1.55,1.55,0,0,0-1.15.49,2.21,2.21,0,0,0-.59,1.27Z" fill="#2b3033"/><path d="M30.18,174.93a3.12,3.12,0,0,1-1.64.42,2.72,2.72,0,0,1-2.07-.83,3,3,0,0,1-.79-2.17,3.33,3.33,0,0,1,.85-2.38,3,3,0,0,1,2.27-.9,3.16,3.16,0,0,1,1.39.29v1a2.44,2.44,0,0,0-1.43-.47,1.93,1.93,0,0,0-1.51.66,2.5,2.5,0,0,0-.59,1.73,2.38,2.38,0,0,0,.55,1.66,1.91,1.91,0,0,0,1.49.61,2.41,2.41,0,0,0,1.48-.52Z" fill="#2b3033"/><path d="M36.46,172.44H32.22a2.24,2.24,0,0,0,.54,1.55,1.86,1.86,0,0,0,1.42.54,3,3,0,0,0,1.86-.67v.9a3.48,3.48,0,0,1-2.09.57,2.54,2.54,0,0,1-2-.82,3.35,3.35,0,0,1-.73-2.3,3.28,3.28,0,0,1,.79-2.28,2.55,2.55,0,0,1,2-.88,2.26,2.26,0,0,1,1.82.76,3.18,3.18,0,0,1,.64,2.12Zm-1-.81a2,2,0,0,0-.4-1.29,1.37,1.37,0,0,0-1.1-.46,1.55,1.55,0,0,0-1.15.49,2.21,2.21,0,0,0-.59,1.27Z" fill="#2b3033"/><path d="M42.89,175.2h-1v-3.42q0-1.91-1.39-1.91a1.51,1.51,0,0,0-1.19.54,2,2,0,0,0-.47,1.37v3.42h-1v-6h1v1h0a2.17,2.17,0,0,1,2-1.14,1.84,1.84,0,0,1,1.51.64,2.83,2.83,0,0,1,.52,1.84Z" fill="#2b3033"/><path d="M47.49,175.14a1.85,1.85,0,0,1-.9.19q-1.58,0-1.58-1.76V170H44v-.82h1v-1.46l1-.31v1.78h1.51V170H46v3.38a1.4,1.4,0,0,0,.21.86.82.82,0,0,0,.68.26,1,1,0,0,0,.63-.2Z" fill="#2b3033"/><path d="M56.15,174.93a3.12,3.12,0,0,1-1.64.42,2.72,2.72,0,0,1-2.07-.83,3,3,0,0,1-.79-2.17,3.33,3.33,0,0,1,.85-2.38,3,3,0,0,1,2.27-.9,3.16,3.16,0,0,1,1.39.29v1a2.44,2.44,0,0,0-1.43-.47,1.93,1.93,0,0,0-1.51.66,2.5,2.5,0,0,0-.59,1.73,2.38,2.38,0,0,0,.55,1.66,1.91,1.91,0,0,0,1.49.61,2.41,2.41,0,0,0,1.48-.52Z" fill="#2b3033"/><path d="M60.11,175.34A2.78,2.78,0,0,1,58,174.5a3.11,3.11,0,0,1-.79-2.23,3.24,3.24,0,0,1,.83-2.36,3,3,0,0,1,2.23-.85,2.69,2.69,0,0,1,2.09.83,3.28,3.28,0,0,1,.75,2.29,3.22,3.22,0,0,1-.81,2.3A2.84,2.84,0,0,1,60.11,175.34Zm.07-5.47a1.83,1.83,0,0,0-1.46.63,2.59,2.59,0,0,0-.54,1.74,2.45,2.45,0,0,0,.54,1.68,1.85,1.85,0,0,0,1.46.62,1.76,1.76,0,0,0,1.43-.6,2.62,2.62,0,0,0,.5-1.72,2.66,2.66,0,0,0-.5-1.73A1.75,1.75,0,0,0,60.18,169.87Z" fill="#2b3033"/><path d="M65.59,175.2h-1v-8.88h1Z" fill="#2b3033"/><path d="M70,175.34a2.78,2.78,0,0,1-2.12-.84,3.11,3.11,0,0,1-.79-2.23,3.24,3.24,0,0,1,.83-2.36,3,3,0,0,1,2.23-.85,2.69,2.69,0,0,1,2.09.83,3.28,3.28,0,0,1,.75,2.29,3.22,3.22,0,0,1-.81,2.3A2.84,2.84,0,0,1,70,175.34Zm.07-5.47a1.83,1.83,0,0,0-1.46.63,2.59,2.59,0,0,0-.54,1.74,2.45,2.45,0,0,0,.54,1.68,1.85,1.85,0,0,0,1.46.62,1.76,1.76,0,0,0,1.43-.6,2.62,2.62,0,0,0,.5-1.72,2.66,2.66,0,0,0-.5-1.73A1.75,1.75,0,0,0,70.11,169.87Z" fill="#2b3033"/><path d="M77.7,170.17A1.18,1.18,0,0,0,77,170a1.23,1.23,0,0,0-1,.58,2.68,2.68,0,0,0-.41,1.58v3.06h-1v-6h1v1.24h0a2.1,2.1,0,0,1,.63-1,1.43,1.43,0,0,1,.94-.35,1.57,1.57,0,0,1,.57.08Z" fill="#2b3033"/><path d="M78.46,175v-1a2.84,2.84,0,0,0,1.73.58q1.27,0,1.27-.84a.73.73,0,0,0-.11-.41,1.08,1.08,0,0,0-.29-.3,2.26,2.26,0,0,0-.43-.23l-.54-.21a6.9,6.9,0,0,1-.7-.32,2.12,2.12,0,0,1-.5-.36,1.35,1.35,0,0,1-.3-.46,1.63,1.63,0,0,1-.1-.6,1.43,1.43,0,0,1,.19-.75,1.71,1.71,0,0,1,.52-.54,2.4,2.4,0,0,1,.74-.33,3.26,3.26,0,0,1,.85-.11,3.44,3.44,0,0,1,1.39.27v1a2.72,2.72,0,0,0-1.52-.43,1.78,1.78,0,0,0-.49.06,1.19,1.19,0,0,0-.37.17.8.8,0,0,0-.24.27.7.7,0,0,0-.08.34.82.82,0,0,0,.08.39.86.86,0,0,0,.25.28,1.9,1.9,0,0,0,.4.22l.53.22a7.42,7.42,0,0,1,.71.31,2.45,2.45,0,0,1,.54.36,1.42,1.42,0,0,1,.34.47,1.5,1.5,0,0,1,.12.63,1.48,1.48,0,0,1-.2.77,1.68,1.68,0,0,1-.52.54,2.4,2.4,0,0,1-.76.32,3.73,3.73,0,0,1-.9.11A3.4,3.4,0,0,1,78.46,175Z" fill="#2b3033"/><path d="M44.67,232.2h-1v-5.64q0-.67.08-1.63h0a5.23,5.23,0,0,1-.25.81l-2.87,6.46h-.48l-2.87-6.41a5,5,0,0,1-.25-.86h0q0,.5,0,1.65v5.63H36.1v-8.4h1.3L40,229.66a7.5,7.5,0,0,1,.39,1h0q.25-.69.4-1l2.63-5.84h1.23Z" fill="#2b3033"/><path d="M49.26,232.34a2.78,2.78,0,0,1-2.12-.84,3.11,3.11,0,0,1-.79-2.23,3.24,3.24,0,0,1,.83-2.36,3,3,0,0,1,2.23-.85,2.69,2.69,0,0,1,2.09.83,3.28,3.28,0,0,1,.75,2.29,3.22,3.22,0,0,1-.81,2.3A2.84,2.84,0,0,1,49.26,232.34Zm.07-5.47a1.83,1.83,0,0,0-1.46.63,2.59,2.59,0,0,0-.54,1.74,2.45,2.45,0,0,0,.54,1.68,1.85,1.85,0,0,0,1.46.62,1.76,1.76,0,0,0,1.43-.6,2.62,2.62,0,0,0,.5-1.72,2.66,2.66,0,0,0-.5-1.73A1.75,1.75,0,0,0,49.33,226.87Z" fill="#2b3033"/><path d="M56.91,227.17a1.18,1.18,0,0,0-.73-.19,1.23,1.23,0,0,0-1,.58,2.68,2.68,0,0,0-.41,1.58v3.06h-1v-6h1v1.24h0a2.1,2.1,0,0,1,.63-1,1.43,1.43,0,0,1,.94-.35,1.57,1.57,0,0,1,.57.08Z" fill="#2b3033"/><path d="M62.62,229.44H58.38a2.24,2.24,0,0,0,.54,1.55,1.86,1.86,0,0,0,1.42.54,3,3,0,0,0,1.86-.67v.9a3.48,3.48,0,0,1-2.09.57,2.54,2.54,0,0,1-2-.82,3.35,3.35,0,0,1-.73-2.3,3.28,3.28,0,0,1,.79-2.28,2.55,2.55,0,0,1,2-.88,2.26,2.26,0,0,1,1.82.76,3.18,3.18,0,0,1,.64,2.12Zm-1-.81a2,2,0,0,0-.4-1.29,1.37,1.37,0,0,0-1.1-.46,1.55,1.55,0,0,0-1.15.49,2.21,2.21,0,0,0-.59,1.27Z" fill="#2b3033"/><path d="M71.45,231.93a3.12,3.12,0,0,1-1.64.42,2.72,2.72,0,0,1-2.07-.83,3,3,0,0,1-.79-2.17,3.33,3.33,0,0,1,.85-2.38,3,3,0,0,1,2.27-.9,3.16,3.16,0,0,1,1.39.29v1a2.44,2.44,0,0,0-1.43-.47,1.93,1.93,0,0,0-1.51.66,2.5,2.5,0,0,0-.59,1.73,2.38,2.38,0,0,0,.55,1.66,1.91,1.91,0,0,0,1.49.61,2.41,2.41,0,0,0,1.48-.52Z" fill="#2b3033"/><path d="M75.41,232.34a2.78,2.78,0,0,1-2.12-.84,3.11,3.11,0,0,1-.79-2.23,3.24,3.24,0,0,1,.83-2.36,3,3,0,0,1,2.23-.85,2.69,2.69,0,0,1,2.09.83,3.28,3.28,0,0,1,.75,2.29,3.22,3.22,0,0,1-.81,2.3A2.84,2.84,0,0,1,75.41,232.34Zm.07-5.47a1.83,1.83,0,0,0-1.46.63,2.59,2.59,0,0,0-.54,1.74,2.45,2.45,0,0,0,.54,1.68,1.85,1.85,0,0,0,1.46.62,1.76,1.76,0,0,0,1.43-.6,2.62,2.62,0,0,0,.5-1.72,2.66,2.66,0,0,0-.5-1.73A1.75,1.75,0,0,0,75.48,226.87Z" fill="#2b3033"/><path d="M80.89,232.2h-1v-8.88h1Z" fill="#2b3033"/><path d="M85.34,232.34a2.78,2.78,0,0,1-2.12-.84,3.11,3.11,0,0,1-.79-2.23,3.24,3.24,0,0,1,.83-2.36,3,3,0,0,1,2.23-.85,2.69,2.69,0,0,1,2.09.83,3.28,3.28,0,0,1,.75,2.29,3.22,3.22,0,0,1-.81,2.3A2.84,2.84,0,0,1,85.34,232.34Zm.07-5.47a1.83,1.83,0,0,0-1.46.63,2.59,2.59,0,0,0-.54,1.74,2.45,2.45,0,0,0,.54,1.68,1.85,1.85,0,0,0,1.46.62,1.76,1.76,0,0,0,1.43-.6,2.62,2.62,0,0,0,.5-1.72,2.66,2.66,0,0,0-.5-1.73A1.75,1.75,0,0,0,85.41,226.87Z" fill="#2b3033"/><path d="M93,227.17a1.18,1.18,0,0,0-.73-.19,1.23,1.23,0,0,0-1,.58,2.68,2.68,0,0,0-.41,1.58v3.06h-1v-6h1v1.24h0a2.1,2.1,0,0,1,.63-1,1.43,1.43,0,0,1,.94-.35,1.57,1.57,0,0,1,.57.08Z" fill="#2b3033"/><path d="M93.76,232v-1a2.84,2.84,0,0,0,1.73.58q1.27,0,1.27-.84a.73.73,0,0,0-.11-.41,1.08,1.08,0,0,0-.29-.3,2.26,2.26,0,0,0-.43-.23l-.54-.21a6.9,6.9,0,0,1-.7-.32,2.12,2.12,0,0,1-.5-.36,1.35,1.35,0,0,1-.3-.46,1.63,1.63,0,0,1-.1-.6A1.43,1.43,0,0,1,94,227a1.71,1.71,0,0,1,.52-.54,2.4,2.4,0,0,1,.74-.33,3.26,3.26,0,0,1,.85-.11,3.44,3.44,0,0,1,1.39.27v1a2.72,2.72,0,0,0-1.52-.43,1.78,1.78,0,0,0-.49.06,1.19,1.19,0,0,0-.37.17.8.8,0,0,0-.24.27.7.7,0,0,0-.08.34.82.82,0,0,0,.08.39.86.86,0,0,0,.25.28,1.9,1.9,0,0,0,.4.22l.53.22a7.42,7.42,0,0,1,.71.31,2.45,2.45,0,0,1,.54.36,1.42,1.42,0,0,1,.34.47,1.5,1.5,0,0,1,.12.63,1.48,1.48,0,0,1-.2.77,1.68,1.68,0,0,1-.52.54,2.4,2.4,0,0,1-.76.32,3.73,3.73,0,0,1-.9.11A3.4,3.4,0,0,1,93.76,232Z" fill="#2b3033"/><path d="M42.38,253.43a5.62,5.62,0,0,1-2.81.71A3.84,3.84,0,0,1,36.66,253a4.26,4.26,0,0,1-1.11-3.07,4.37,4.37,0,0,1,1.23-3.2,4.2,4.2,0,0,1,3.13-1.25,5.32,5.32,0,0,1,2.3.45V247a4.42,4.42,0,0,0-2.41-.64,3,3,0,0,0-2.31,1,4.06,4.06,0,0,0-.06,5,2.94,2.94,0,0,0,2.27.91,3.51,3.51,0,0,0,1.71-.39v-2.36H39.56v-.89h2.82Z" fill="#2b3033"/><path d="M47.33,249a1.18,1.18,0,0,0-.73-.19,1.23,1.23,0,0,0-1,.58,2.68,2.68,0,0,0-.41,1.58V254h-1v-6h1v1.24h0a2.1,2.1,0,0,1,.63-1,1.43,1.43,0,0,1,.94-.35,1.57,1.57,0,0,1,.57.08Z" fill="#2b3033"/><path d="M52.67,254h-1v-.94h0a2,2,0,0,1-1.85,1.08,2,2,0,0,1-1.4-.47,1.64,1.64,0,0,1-.51-1.26q0-1.68,2-2l1.8-.25q0-1.53-1.24-1.53a3,3,0,0,0-2,.74v-1a3.72,3.72,0,0,1,2-.56q2.12,0,2.12,2.24Zm-1-3-1.45.2a2.35,2.35,0,0,0-1,.33,1,1,0,0,0-.34.84.92.92,0,0,0,.31.72,1.21,1.21,0,0,0,.83.28,1.54,1.54,0,0,0,1.18-.5,1.79,1.79,0,0,0,.47-1.27Z" fill="#2b3033"/><path d="M59.6,254h-1v-1h0a2.22,2.22,0,0,1-2.06,1.16,2.24,2.24,0,0,1-1.81-.81,3.31,3.31,0,0,1-.68-2.19,3.6,3.6,0,0,1,.75-2.38,2.47,2.47,0,0,1,2-.9,1.92,1.92,0,0,1,1.8,1h0v-3.71h1Zm-1-2.71v-.88a1.72,1.72,0,0,0-.48-1.23,1.61,1.61,0,0,0-1.22-.5,1.66,1.66,0,0,0-1.38.64,2.82,2.82,0,0,0-.5,1.78,2.54,2.54,0,0,0,.48,1.64,1.58,1.58,0,0,0,1.3.6,1.64,1.64,0,0,0,1.3-.58A2.16,2.16,0,0,0,58.64,251.29Z" fill="#2b3033"/><path d="M62,246.48a.61.61,0,0,1-.44-.18.59.59,0,0,1-.18-.45.62.62,0,0,1,.62-.63.62.62,0,0,1,.45.18.63.63,0,0,1,0,.89A.62.62,0,0,1,62,246.48Zm.47,7.52h-1v-6h1Z" fill="#2b3033"/><path d="M69.28,251.24H65a2.24,2.24,0,0,0,.54,1.55,1.86,1.86,0,0,0,1.42.54,3,3,0,0,0,1.86-.67v.9a3.48,3.48,0,0,1-2.09.57,2.54,2.54,0,0,1-2-.82A3.35,3.35,0,0,1,64,251a3.28,3.28,0,0,1,.79-2.28,2.55,2.55,0,0,1,2-.88,2.26,2.26,0,0,1,1.82.76,3.18,3.18,0,0,1,.64,2.12Zm-1-.81a2,2,0,0,0-.4-1.29,1.37,1.37,0,0,0-1.1-.46,1.55,1.55,0,0,0-1.15.49,2.21,2.21,0,0,0-.59,1.27Z" fill="#2b3033"/><path d="M75.71,254h-1v-3.42q0-1.91-1.39-1.91a1.51,1.51,0,0,0-1.19.54,2,2,0,0,0-.47,1.37V254h-1v-6h1v1h0a2.17,2.17,0,0,1,2-1.14,1.84,1.84,0,0,1,1.51.64,2.83,2.83,0,0,1,.52,1.84Z" fill="#2b3033"/><path d="M80.3,253.94a1.85,1.85,0,0,1-.9.19q-1.58,0-1.58-1.76v-3.55h-1V248h1v-1.46l1-.31V248H80.3v.82H78.79v3.38a1.4,1.4,0,0,0,.21.86.82.82,0,0,0,.68.26,1,1,0,0,0,.63-.2Z" fill="#2b3033"/><path d="M87.84,246a1.28,1.28,0,0,0-.64-.16q-1,0-1,1.27V248H87.6v.82H86.19V254h-1v-5.18h-1V248h1v-1a2,2,0,0,1,.54-1.49,1.84,1.84,0,0,1,1.36-.55,1.88,1.88,0,0,1,.7.11Z" fill="#2b3033"/><path d="M89.12,246.48a.61.61,0,0,1-.44-.18.59.59,0,0,1-.18-.45.62.62,0,0,1,.62-.63.62.62,0,0,1,.45.18.63.63,0,0,1,0,.89A.62.62,0,0,1,89.12,246.48Zm.47,7.52h-1v-6h1Z" fill="#2b3033"/><path d="M92.5,254h-1v-8.88h1Z" fill="#2b3033"/><path d="M95.4,254h-1v-8.88h1Z" fill="#2b3033"/><rect x="12.5" y="57.5" width="15" height="15" fill="#fff"/><path d="M27,58V72H13V58H27m1-1H12V73H28V57Z" fill="#2b2f33"/><rect x="54.5" y="57.5" width="15" height="15" fill="#e0e0e0"/><path d="M69,58V72H55V58H69m1-1H54V73H70V57Z" fill="#2b2f33"/><rect x="33.5" y="57.5" width="15" height="15" fill="#fff"/><path d="M48,58V72H34V58H48m1-1H33V73H49V57Z" fill="#2b2f33"/><rect x="75.5" y="57.5" width="15" height="15" fill="#c1c1c1"/><path d="M90,58V72H76V58H90m1-1H75V73H91V57Z" fill="#2b2f33"/><rect x="117.5" y="57.5" width="15" height="15" fill="#838383"/><path d="M132,58V72H118V58h14m1-1H117V73h16V57Z" fill="#2b2f33"/><rect x="96.5" y="57.5" width="15" height="15" fill="#c1c1c1"/><path d="M111,58V72H97V58h14m1-1H96V73h16V57Z" fill="#2b2f33"/><rect x="138.5" y="57.5" width="15" height="15" fill="#646464"/><path d="M153,58V72H139V58h14m1-1H138V73h16V57Z" fill="#2b2f33"/><rect x="180.5" y="57.5" width="15" height="15" fill="#262626"/><path d="M195,58V72H181V58h14m1-1H180V73h16V57Z" fill="#2b2f33"/><rect x="159.5" y="57.5" width="15" height="15" fill="#4b535b"/><path d="M174,58V72H160V58h14m1-1H159V73h16V57Z" fill="#2b2f33"/><rect x="201.5" y="57.5" width="15" height="15"/><path d="M216,58V72H202V58h14m1-1H201V73h16V57Z" fill="#2b2f33"/><rect x="12.5" y="78.5" width="15" height="15" fill="#faa692"/><path d="M27,79V93H13V79H27m1-1H12V94H28V78Z" fill="#2b2f33"/><rect x="54.5" y="78.5" width="15" height="15" fill="#fef69e"/><path d="M69,79V93H55V79H69m1-1H54V94H70V78Z" fill="#2b2f33"/><rect x="33.5" y="78.5" width="15" height="15" fill="#f5cda5"/><path d="M48,79V93H34V79H48m1-1H33V94H49V78Z" fill="#2b2f33"/><rect x="75.5" y="78.5" width="15" height="15" fill="#cae6a2"/><path d="M90,79V93H76V79H90m1-1H75V94H91V78Z" fill="#2b2f33"/><rect x="117.5" y="78.5" width="15" height="15" fill="#8adeff"/><path d="M132,79V93H118V79h14m1-1H117V94h16V78Z" fill="#2b2f33"/><rect x="96.5" y="78.5" width="15" height="15" fill="#81c9a1"/><path d="M111,79V93H97V79h14m1-1H96V94h16V78Z" fill="#2b2f33"/><rect x="138.5" y="78.5" width="15" height="15" fill="#95b5e5"/><path d="M153,79V93H139V79h14m1-1H138V94h16V78Z" fill="#2b2f33"/><rect x="180.5" y="78.5" width="15" height="15" fill="#b498dc"/><path d="M195,79V93H181V79h14m1-1H180V94h16V78Z" fill="#2b2f33"/><rect x="159.5" y="78.5" width="15" height="15" fill="#a39be3"/><path d="M174,79V93H160V79h14m1-1H159V94h16V78Z" fill="#2b2f33"/><rect x="201.5" y="78.5" width="15" height="15" fill="#f29ac2"/><path d="M216,79V93H202V79h14m1-1H201V94h16V78Z" fill="#2b2f33"/><rect x="12.5" y="99.5" width="15" height="15" fill="#f16951"/><path d="M27,100v14H13V100H27m1-1H12v16H28V99Z" fill="#2b2f33"/><rect x="54.5" y="99.5" width="15" height="15" fill="#fff468"/><path d="M69,100v14H55V100H69m1-1H54v16H70V99Z" fill="#2b2f33"/><rect x="33.5" y="99.5" width="15" height="15" fill="#f9ad61"/><path d="M48,100v14H34V100H48m1-1H33v16H49V99Z" fill="#2b2f33"/><rect x="75.5" y="99.5" width="15" height="15" fill="#add175"/><path d="M90,100v14H76V100H90m1-1H75v16H91V99Z" fill="#2b2f33"/><rect x="117.5" y="99.5" width="15" height="15" fill="#00bcf8"/><path d="M132,100v14H118V100h14m1-1H117v16h16V99Z" fill="#2b2f33"/><rect x="96.5" y="99.5" width="15" height="15" fill="#3cb47c"/><path d="M111,100v14H97V100h14m1-1H96v16h16V99Z" fill="#2b2f33"/><rect x="138.5" y="99.5" width="15" height="15" fill="#4c98e4"/><path d="M153,100v14H139V100h14m1-1H138v16h16V99Z" fill="#2b2f33"/><rect x="180.5" y="99.5" width="15" height="15" fill="#865aae"/><path d="M195,100v14H181V100h14m1-1H180v16h16V99Z" fill="#2b2f33"/><rect x="159.5" y="99.5" width="15" height="15" fill="#726ac2"/><path d="M174,100v14H160V100h14m1-1H159v16h16V99Z" fill="#2b2f33"/><rect x="201.5" y="99.5" width="15" height="15" fill="#f468ac"/><path d="M216,100v14H202V100h14m1-1H201v16h16V99Z" fill="#2b2f33"/><rect x="12.5" y="120.5" width="15" height="15" fill="#ee1a26"/><path d="M27,121v14H13V121H27m1-1H12v16H28V120Z" fill="#2b2f33"/><rect x="54.5" y="120.5" width="15" height="15" fill="#fcf004"/><path d="M69,121v14H55V121H69m1-1H54v16H70V120Z" fill="#2b2f33"/><rect x="33.5" y="120.5" width="15" height="15" fill="#f7931f"/><path d="M48,121v14H34V121H48m1-1H33v16H49V120Z" fill="#2b2f33"/><rect x="75.5" y="120.5" width="15" height="15" fill="#8ec63e"/><path d="M90,121v14H76V121H90m1-1H75v16H91V120Z" fill="#2b2f33"/><rect x="117.5" y="120.5" width="15" height="15" fill="#00a3e7"/><path d="M132,121v14H118V121h14m1-1H117v16h16V120Z" fill="#2b2f33"/><rect x="96.5" y="120.5" width="15" height="15" fill="#02a252"/><path d="M111,121v14H97V121h14m1-1H96v16h16V120Z" fill="#2b2f33"/><rect x="138.5" y="120.5" width="15" height="15" fill="#006fbf"/><path d="M153,121v14H139V121h14m1-1H138v16h16V120Z" fill="#2b2f33"/><rect x="180.5" y="120.5" width="15" height="15" fill="#632b93"/><path d="M195,121v14H181V121h14m1-1H180v16h16V120Z" fill="#2b2f33"/><rect x="159.5" y="120.5" width="15" height="15" fill="#3e3ab6"/><path d="M174,121v14H160V121h14m1-1H159v16h16V120Z" fill="#2b2f33"/><rect x="201.5" y="120.5" width="15" height="15" fill="#ec0c8c"/><path d="M216,121v14H202V121h14m1-1H201v16h16V120Z" fill="#2b2f33"/><rect x="12.5" y="141.5" width="15" height="15" fill="#9c0814"/><path d="M27,142v14H13V142H27m1-1H12v16H28V141Z" fill="#2b2f33"/><rect x="54.5" y="141.5" width="15" height="15" fill="#af9f0f"/><path d="M69,142v14H55V142H69m1-1H54v16H70V141Z" fill="#2b2f33"/><rect x="33.5" y="141.5" width="15" height="15" fill="#a65616"/><path d="M48,142v14H34V142H48m1-1H33v16H49V141Z" fill="#2b2f33"/><rect x="75.5" y="141.5" width="15" height="15" fill="#5a822a"/><path d="M90,142v14H76V142H90m1-1H75v16H91V141Z" fill="#2b2f33"/><rect x="117.5" y="141.5" width="15" height="15" fill="#0073a7"/><path d="M132,142v14H118V142h14m1-1H117v16h16V141Z" fill="#2b2f33"/><rect x="96.5" y="141.5" width="15" height="15" fill="#007135"/><path d="M111,142v14H97V142h14m1-1H96v16h16V141Z" fill="#2b2f33"/><rect x="138.5" y="141.5" width="15" height="15" fill="#014981"/><path d="M153,142v14H139V142h14m1-1H138v16h16V141Z" fill="#2b2f33"/><rect x="180.5" y="141.5" width="15" height="15" fill="#450d65"/><path d="M195,142v14H181V142h14m1-1H180v16h16V141Z" fill="#2b2f33"/><rect x="159.5" y="141.5" width="15" height="15" fill="#181068"/><path d="M174,142v14H160V142h14m1-1H159v16h16V141Z" fill="#2b2f33"/><rect x="201.5" y="141.5" width="15" height="15" fill="#9e005e"/><path d="M216,142v14H202V142h14m1-1H201v16h16V141Z" fill="#2b2f33"/><rect x="12.5" y="185.5" width="15" height="15"/><path d="M27,186v14H13V186H27m1-1H12v16H28V185Z" fill="#2b2f33"/><path d="M25,220v14H11V220H25m1-1H10v16H26V219Z" fill="#2b2f33"/><rect x="10.5" y="242.5" width="15" height="15" fill="url(#linear-gradient)"/><path d="M25,243v14H11V243H25m1-1H10v16H26V242Z" fill="#2b2f33"/><rect x="54.5" y="185.5" width="15" height="15" fill="#c00000"/><path d="M69,186v14H55V186H69m1-1H54v16H70V185Z" fill="#2b2f33"/><rect x="33.5" y="185.5" width="15" height="15" fill="#e0e0e0"/><path d="M48,186v14H34V186H48m1-1H33v16H49V185Z" fill="#2b2f33"/><rect x="75.5" y="185.5" width="15" height="15" fill="#fb0003"/><path d="M90,186v14H76V186H90m1-1H75v16H91V185Z" fill="#2b2f33"/><rect x="117.5" y="185.5" width="15" height="15" fill="#fbff03"/><path d="M132,186v14H118V186h14m1-1H117v16h16V185Z" fill="#2b2f33"/><rect x="96.5" y="185.5" width="15" height="15" fill="#fbbf03"/><path d="M111,186v14H97V186h14m1-1H96v16h16V185Z" fill="#2b2f33"/><rect x="138.5" y="185.5" width="15" height="15" fill="#94cc54"/><path d="M153,186v14H139V186h14m1-1H138v16h16V185Z" fill="#2b2f33"/><rect x="180.5" y="185.5" width="15" height="15" fill="#00b0f0"/><path d="M195,186v14H181V186h14m1-1H180v16h16V185Z" fill="#2b2f33"/><rect x="159.5" y="185.5" width="15" height="15" fill="#00b050"/><path d="M174,186v14H160V186h14m1-1H159v16h16V185Z" fill="#2b2f33"/><rect x="201.5" y="185.5" width="15" height="15" fill="#0070c0"/><path d="M216,186v14H202V186h14m1-1H201v16h16V185Z" fill="#2b2f33"/><rect x="12" y="209" width="204" height="1" fill="#7f878f"/><rect x="18" y="220" width="7" height="7" fill="#fbc703"/><rect x="18" y="227" width="7" height="7" fill="#5cc8ff"/><rect x="11" y="227" width="7" height="7" fill="#009468"/><rect x="11" y="220" width="7" height="7" fill="#fb4f03"/></svg>