<svg id="Layer_1" data-name="Layer 1" xmlns="http://www.w3.org/2000/svg" width="60" height="160" viewBox="0 0 60 160"><title>combo-box-active-dropdown</title><rect x="0.5" y="0.5" width="34" height="23" fill="#fff"/><path d="M34,1V23H1V1H34m1-1H0V24H35V0Z" fill="#a9acaf"/><rect x="0.5" y="24.5" width="59" height="135" fill="#fff"/><path d="M59,25V159H1V25H59m1-1H0V160H60V24Z" fill="#065fa3"/><rect x="35.5" y="0.5" width="24" height="23" fill="#4386b9"/><path d="M59,1V23H36V1H59m1-1H35V24H60V0Z" fill="#065fa3"/><path d="M14.89,11.3a8.37,8.37,0,0,1-.23,2.05A4.58,4.58,0,0,1,14,14.87a3,3,0,0,1-1.07.95,3.11,3.11,0,0,1-1.44.33A3.45,3.45,0,0,1,10,15.85v-.92a3,3,0,0,0,1.49.39,2.16,2.16,0,0,0,1-.23,2.11,2.11,0,0,0,.76-.68,3.35,3.35,0,0,0,.47-1.1,6.24,6.24,0,0,0,.16-1.51h0A1.92,1.92,0,0,1,12,12.88a2.52,2.52,0,0,1-1-.19,2.27,2.27,0,0,1-.78-.54,2.47,2.47,0,0,1-.51-.83,3,3,0,0,1-.18-1.06,3.09,3.09,0,0,1,.2-1.14,2.65,2.65,0,0,1,.56-.89,2.52,2.52,0,0,1,.86-.58,2.8,2.8,0,0,1,1.08-.21,2.39,2.39,0,0,1,1.12.25,2.25,2.25,0,0,1,.82.74,3.68,3.68,0,0,1,.51,1.2A6.87,6.87,0,0,1,14.89,11.3Zm-1-.86a2.93,2.93,0,0,0-.13-.88,2.14,2.14,0,0,0-.35-.68,1.56,1.56,0,0,0-.53-.44,1.47,1.47,0,0,0-.67-.16,1.52,1.52,0,0,0-.64.14A1.55,1.55,0,0,0,11,8.8a1.85,1.85,0,0,0-.35.59,2.15,2.15,0,0,0-.13.75,2.46,2.46,0,0,0,.12.8,1.66,1.66,0,0,0,.34.59,1.48,1.48,0,0,0,.54.37,1.81,1.81,0,0,0,.69.13,1.59,1.59,0,0,0,.63-.13,1.67,1.67,0,0,0,.52-.34,1.57,1.57,0,0,0,.35-.5A1.55,1.55,0,0,0,13.85,10.43Z" fill="#4d5359"/><path d="M14.89,38.3a8.37,8.37,0,0,1-.23,2.05A4.58,4.58,0,0,1,14,41.87a3,3,0,0,1-1.07.95,3.11,3.11,0,0,1-1.44.33A3.45,3.45,0,0,1,10,42.85v-.92a3,3,0,0,0,1.49.39,2.16,2.16,0,0,0,1-.23,2.11,2.11,0,0,0,.76-.68,3.35,3.35,0,0,0,.47-1.1,6.24,6.24,0,0,0,.16-1.51h0A1.92,1.92,0,0,1,12,39.88a2.52,2.52,0,0,1-1-.19,2.27,2.27,0,0,1-.78-.54,2.47,2.47,0,0,1-.51-.83,3,3,0,0,1-.18-1.06,3.09,3.09,0,0,1,.2-1.14,2.65,2.65,0,0,1,.56-.89,2.52,2.52,0,0,1,.86-.58,2.8,2.8,0,0,1,1.08-.21,2.39,2.39,0,0,1,1.12.25,2.25,2.25,0,0,1,.82.74,3.68,3.68,0,0,1,.51,1.2A6.87,6.87,0,0,1,14.89,38.3Zm-1-.86a2.93,2.93,0,0,0-.13-.88,2.14,2.14,0,0,0-.35-.68,1.56,1.56,0,0,0-.53-.44,1.47,1.47,0,0,0-.67-.16,1.52,1.52,0,0,0-.64.14,1.55,1.55,0,0,0-.52.39,1.85,1.85,0,0,0-.35.59,2.15,2.15,0,0,0-.13.75,2.46,2.46,0,0,0,.12.8,1.66,1.66,0,0,0,.34.59,1.48,1.48,0,0,0,.54.37,1.81,1.81,0,0,0,.69.13,1.59,1.59,0,0,0,.63-.13,1.67,1.67,0,0,0,.52-.34,1.57,1.57,0,0,0,.35-.5A1.55,1.55,0,0,0,13.85,37.43Z" fill="#4d5359"/><path d="M13.25,64h-1V56.74A2.22,2.22,0,0,1,12,57a5.3,5.3,0,0,1-.48.28q-.27.14-.56.26a4.09,4.09,0,0,1-.58.19v-1a5.59,5.59,0,0,0,.67-.24q.35-.15.7-.33t.65-.39a5.14,5.14,0,0,0,.53-.4h.36Z" fill="#4d5359"/><path d="M21.45,59.76a8.25,8.25,0,0,1-.19,1.87A4.36,4.36,0,0,1,20.71,63a2.48,2.48,0,0,1-.88.85,2.42,2.42,0,0,1-1.19.29,2.26,2.26,0,0,1-1.13-.28,2.36,2.36,0,0,1-.83-.81,4.11,4.11,0,0,1-.52-1.31A8.1,8.1,0,0,1,16,60,9.17,9.17,0,0,1,16.16,58a4.45,4.45,0,0,1,.54-1.42,2.41,2.41,0,0,1,.89-.86,2.49,2.49,0,0,1,1.22-.29Q21.45,55.46,21.45,59.76Zm-1,.09q0-3.59-1.71-3.59T17,59.92q0,3.4,1.76,3.4T20.46,59.86Z" fill="#4d5359"/><path d="M13.25,85h-1V77.74A2.22,2.22,0,0,1,12,78a5.3,5.3,0,0,1-.48.28q-.27.14-.56.26a4.09,4.09,0,0,1-.58.19v-1a5.59,5.59,0,0,0,.67-.24q.35-.15.7-.33t.65-.39a5.14,5.14,0,0,0,.53-.4h.36Z" fill="#4d5359"/><path d="M19.71,85h-1V77.74a2.24,2.24,0,0,1-.33.25,5.36,5.36,0,0,1-.48.28q-.27.14-.56.26a4.09,4.09,0,0,1-.58.19v-1a5.59,5.59,0,0,0,.67-.24q.35-.15.7-.33c.23-.12.45-.25.65-.39a5.14,5.14,0,0,0,.53-.4h.36Z" fill="#4d5359"/><path d="M13.25,106h-1V98.74A2.22,2.22,0,0,1,12,99a5.3,5.3,0,0,1-.48.28q-.27.14-.56.26a4.09,4.09,0,0,1-.58.19v-1a5.59,5.59,0,0,0,.67-.24q.35-.15.7-.33t.65-.39a5.14,5.14,0,0,0,.53-.4h.36Z" fill="#4d5359"/><path d="M20,99.8a1.74,1.74,0,0,0-.12-.67,1.31,1.31,0,0,0-.82-.76,1.92,1.92,0,0,0-.61-.09,2,2,0,0,0-.55.08,2.68,2.68,0,0,0-.52.21,3.23,3.23,0,0,0-.49.32,3.56,3.56,0,0,0-.44.42v-1a2.87,2.87,0,0,1,.91-.6,3.19,3.19,0,0,1,1.22-.21,3,3,0,0,1,1,.15,2.19,2.19,0,0,1,.76.44,2,2,0,0,1,.51.71,2.39,2.39,0,0,1,.19,1,3.31,3.31,0,0,1-.12.9,2.79,2.79,0,0,1-.35.76,3.67,3.67,0,0,1-.58.69,8.26,8.26,0,0,1-.83.67q-.59.42-1,.72a4.33,4.33,0,0,0-.61.56,1.62,1.62,0,0,0-.32.52,1.82,1.82,0,0,0-.09.6H21.3V106H16.11v-.42a3.47,3.47,0,0,1,.12-.95,2.46,2.46,0,0,1,.39-.78,4.32,4.32,0,0,1,.71-.74q.44-.37,1.07-.83a6.74,6.74,0,0,0,.76-.63,3.27,3.27,0,0,0,.5-.6,2.14,2.14,0,0,0,.27-.61A2.61,2.61,0,0,0,20,99.8Z" fill="#4d5359"/><path d="M13.25,127h-1v-7.26A2.22,2.22,0,0,1,12,120a5.3,5.3,0,0,1-.48.28q-.27.14-.56.26a4.09,4.09,0,0,1-.58.19v-1a5.59,5.59,0,0,0,.67-.24q.35-.15.7-.33t.65-.39a5.14,5.14,0,0,0,.53-.4h.36Z" fill="#4d5359"/><path d="M20.45,118.6v5.55h1.08V125H20.45v2H19.5v-2H15.55v-.83q.55-.62,1.11-1.33t1.08-1.43q.51-.73.95-1.45a13.27,13.27,0,0,0,.74-1.39Zm-3.81,5.55H19.5V120q-.44.77-.83,1.37t-.75,1.1q-.35.49-.68.89Z" fill="#4d5359"/><path d="M13.25,148h-1v-7.26A2.22,2.22,0,0,1,12,141a5.3,5.3,0,0,1-.48.28q-.27.14-.56.26a4.09,4.09,0,0,1-.58.19v-1a5.59,5.59,0,0,0,.67-.24q.35-.15.7-.33t.65-.39a5.14,5.14,0,0,0,.53-.4h.36Z" fill="#4d5359"/><path d="M21.46,145.33a3.11,3.11,0,0,1-.2,1.13,2.72,2.72,0,0,1-.55.89,2.46,2.46,0,0,1-.84.58,2.65,2.65,0,0,1-1.05.21,2.33,2.33,0,0,1-2-1,3.64,3.64,0,0,1-.53-1.21,6.56,6.56,0,0,1-.18-1.61,7.57,7.57,0,0,1,.24-2,4.83,4.83,0,0,1,.69-1.53,3.18,3.18,0,0,1,1.08-1,2.9,2.9,0,0,1,1.41-.35,3.4,3.4,0,0,1,1.39.24v.91a3,3,0,0,0-1.37-.33,2,2,0,0,0-1,.25,2.33,2.33,0,0,0-.77.71,3.47,3.47,0,0,0-.5,1.11,5.63,5.63,0,0,0-.17,1.45h0a2,2,0,0,1,1.92-1,2.52,2.52,0,0,1,1,.19,2.14,2.14,0,0,1,.76.53,2.39,2.39,0,0,1,.48.82A3.11,3.11,0,0,1,21.46,145.33Zm-1,.12a2.61,2.61,0,0,0-.11-.79,1.72,1.72,0,0,0-.32-.6,1.37,1.37,0,0,0-.51-.38,1.73,1.73,0,0,0-.69-.13,1.62,1.62,0,0,0-.66.13,1.65,1.65,0,0,0-.53.37,1.71,1.71,0,0,0-.47,1.19,2.61,2.61,0,0,0,.12.81,2.1,2.1,0,0,0,.35.66,1.65,1.65,0,0,0,.53.44,1.45,1.45,0,0,0,.68.16,1.56,1.56,0,0,0,.66-.14,1.48,1.48,0,0,0,.51-.38,1.78,1.78,0,0,0,.33-.59A2.33,2.33,0,0,0,20.48,145.46Z" fill="#4d5359"/><path d="M43,9h9l-4.5,6Z" fill="#fdfeff"/><rect x="45" y="25" width="14" height="134" fill="#fff"/><path d="M56,37H48l4-7Z" fill="#777b80"/><path d="M48,147h8l-4,7Z" fill="#777b80"/><rect x="49" y="59" width="6" height="47" fill="#777b80"/><rect x="44" y="25" width="1" height="134" fill="#e9ebec"/></svg>