<svg xmlns="http://www.w3.org/2000/svg" xmlns:xlink="http://www.w3.org/1999/xlink" width="760" height="124" viewBox="0 0 760 124"><defs><clipPath id="clip-path"><path d="M661,11.57V132H80l.22-120.5a8.65,8.65,0,0,1,4.84,1.76A39.9,39.9,0,0,1,89.9,17.5a39.28,39.28,0,0,0,4.84,4.25,7.57,7.57,0,0,0,9.68,0,40.67,40.67,0,0,0,4.84-4.24,39.16,39.16,0,0,1,4.84-4.24,7.54,7.54,0,0,1,9.68,0,40.67,40.67,0,0,1,4.84,4.24,39.28,39.28,0,0,0,4.84,4.25,7.55,7.55,0,0,0,9.67,0A40,40,0,0,0,148,17.52a39.16,39.16,0,0,1,4.84-4.24,7.54,7.54,0,0,1,9.68,0,39.84,39.84,0,0,1,4.83,4.24,41.72,41.72,0,0,0,4.84,4.25,7.57,7.57,0,0,0,9.68,0,39.16,39.16,0,0,0,4.84-4.24,40.67,40.67,0,0,1,4.84-4.24,7.54,7.54,0,0,1,9.68,0,39.16,39.16,0,0,1,4.84,4.24,41.72,41.72,0,0,0,4.84,4.25,7.57,7.57,0,0,0,9.68,0,39.9,39.9,0,0,0,4.84-4.24,40.67,40.67,0,0,1,4.84-4.24,7.53,7.53,0,0,1,9.68,0,39.16,39.16,0,0,1,4.84,4.24,40.91,40.91,0,0,0,4.84,4.25,7.57,7.57,0,0,0,9.68,0,39.9,39.9,0,0,0,4.84-4.24A39.9,39.9,0,0,1,269,13.31a7.53,7.53,0,0,1,9.68,0,39.9,39.9,0,0,1,4.84,4.24,40.13,40.13,0,0,0,4.84,4.25,7.57,7.57,0,0,0,9.68,0,40.67,40.67,0,0,0,4.84-4.24,40.91,40.91,0,0,1,4.84-4.25,7.55,7.55,0,0,1,9.68,0,40.67,40.67,0,0,1,4.84,4.24,39.16,39.16,0,0,0,4.84,4.24,8.55,8.55,0,0,0,4.84,1.76,8.66,8.66,0,0,0,4.84-1.75,40.67,40.67,0,0,0,4.84-4.24,39.28,39.28,0,0,1,4.84-4.25,7.55,7.55,0,0,1,9.68,0,40.67,40.67,0,0,1,4.84,4.24,39.16,39.16,0,0,0,4.84,4.24,7.53,7.53,0,0,0,9.68,0,40.67,40.67,0,0,0,4.84-4.24,39.16,39.16,0,0,1,4.84-4.24,7.53,7.53,0,0,1,9.68,0,39.9,39.9,0,0,1,4.84,4.24,39.9,39.9,0,0,0,4.84,4.24,7.54,7.54,0,0,0,9.68,0A40.67,40.67,0,0,0,419,17.57a39.16,39.16,0,0,1,4.84-4.24,7.53,7.53,0,0,1,9.68,0,40.67,40.67,0,0,1,4.84,4.24,39.16,39.16,0,0,0,4.84,4.24,7.53,7.53,0,0,0,9.68,0,40.67,40.67,0,0,0,4.84-4.24,39.16,39.16,0,0,1,4.84-4.24,7.53,7.53,0,0,1,9.68,0,39.84,39.84,0,0,1,4.83,4.24,40.67,40.67,0,0,0,4.84,4.24,7.54,7.54,0,0,0,9.68,0,39.16,39.16,0,0,0,4.84-4.24,40.67,40.67,0,0,1,4.84-4.24,7.53,7.53,0,0,1,9.68,0,39.16,39.16,0,0,1,4.84,4.24,40.67,40.67,0,0,0,4.84,4.24,7.54,7.54,0,0,0,9.68,0,39.16,39.16,0,0,0,4.84-4.24A40.67,40.67,0,0,1,540,13.33a7.53,7.53,0,0,1,9.68,0,39.9,39.9,0,0,1,4.84,4.24,39.9,39.9,0,0,0,4.84,4.24,7.53,7.53,0,0,0,9.68,0,39.9,39.9,0,0,0,4.84-4.24,39.9,39.9,0,0,1,4.84-4.24,7.54,7.54,0,0,1,9.68,0,39.9,39.9,0,0,1,4.84,4.24,39.9,39.9,0,0,0,4.84,4.24,7.54,7.54,0,0,0,9.68,0,39.9,39.9,0,0,0,4.84-4.24,39.9,39.9,0,0,1,4.84-4.24,7.54,7.54,0,0,1,9.68,0A40.67,40.67,0,0,1,632,17.57a39.16,39.16,0,0,0,4.84,4.24,7.54,7.54,0,0,0,9.68,0,40.67,40.67,0,0,0,4.84-4.24,39.16,39.16,0,0,1,4.84-4.24A8.62,8.62,0,0,1,661,11.57Z" fill="none"/></clipPath><linearGradient id="linear-gradient" x1="517" y1="61.05" x2="517" y2="82.97" gradientUnits="userSpaceOnUse"><stop offset="0" stop-color="#ebe9ec"/><stop offset="0.28" stop-color="#e5e6e9"/><stop offset="1" stop-color="#dadfe2"/></linearGradient><linearGradient id="linear-gradient-2" x1="437" y1="61.05" x2="437" y2="82.97" xlink:href="#linear-gradient"/><linearGradient id="linear-gradient-3" x1="597" y1="61.05" x2="597" y2="82.97" xlink:href="#linear-gradient"/></defs><title>dialogs-footer-control-spacing</title><g id="SPEC_text"><rect x="377" y="50" width="1" height="10" fill="#3fa9f5"/><rect x="374" y="59" width="7" height="1" fill="#3fa9f5"/><rect x="374" y="50" width="7" height="1" fill="#3fa9f5"/><path d="M365.89,59H365V52.35a2.07,2.07,0,0,1-.3.23,4.94,4.94,0,0,1-.44.26l-.52.24a3.74,3.74,0,0,1-.53.18v-.89a5.22,5.22,0,0,0,.62-.22c.22-.09.43-.19.64-.31s.41-.23.59-.35a4.57,4.57,0,0,0,.48-.36h.33Z" fill="#3fa9f5"/><path d="M373.41,55.12a7.57,7.57,0,0,1-.17,1.71,4,4,0,0,1-.5,1.26,2.26,2.26,0,0,1-.81.78,2.22,2.22,0,0,1-1.09.27,2.07,2.07,0,0,1-1-.26,2.17,2.17,0,0,1-.77-.74,3.76,3.76,0,0,1-.47-1.2,7.42,7.42,0,0,1-.16-1.63,8.43,8.43,0,0,1,.17-1.78,4.08,4.08,0,0,1,.5-1.3,2.21,2.21,0,0,1,.81-.79,2.29,2.29,0,0,1,1.12-.27Q373.41,51.17,373.41,55.12Zm-.9.09q0-3.29-1.56-3.29t-1.65,3.35q0,3.12,1.62,3.12T372.51,55.2Z" fill="#3fa9f5"/><rect x="377" y="84" width="1" height="10" fill="#3fa9f5"/><rect x="374" y="93" width="7" height="1" fill="#3fa9f5"/><rect x="374" y="84" width="7" height="1" fill="#3fa9f5"/><path d="M365.89,93H365V86.35a2.07,2.07,0,0,1-.3.23,4.94,4.94,0,0,1-.44.26l-.52.24a3.74,3.74,0,0,1-.53.18v-.89a5.22,5.22,0,0,0,.62-.22c.22-.09.43-.19.64-.31s.41-.23.59-.35a4.57,4.57,0,0,0,.48-.36h.33Z" fill="#3fa9f5"/><path d="M373.41,89.12a7.57,7.57,0,0,1-.17,1.71,4,4,0,0,1-.5,1.26,2.26,2.26,0,0,1-.81.78,2.22,2.22,0,0,1-1.09.27,2.07,2.07,0,0,1-1-.26,2.17,2.17,0,0,1-.77-.74,3.76,3.76,0,0,1-.47-1.2,7.42,7.42,0,0,1-.16-1.63,8.43,8.43,0,0,1,.17-1.78,4.08,4.08,0,0,1,.5-1.3,2.21,2.21,0,0,1,.81-.79,2.29,2.29,0,0,1,1.12-.27Q373.41,85.17,373.41,89.12Zm-.9.09q0-3.29-1.56-3.29t-1.65,3.35q0,3.12,1.62,3.12T372.51,89.2Z" fill="#3fa9f5"/><g clip-path="url(#clip-path)"><polygon points="109 -173.08 109 50.96 653.99 50.96 653.99 -173 109 -173.08" fill="#eef0ef"/><rect x="110" y="-186" width="545" height="222" fill="#eef0ef"/><rect x="109" y="50" width="543" height="44" fill="#e1e3e4"/><path d="M105-197V98H656V-197ZM652,94H109V-168H652Z" fill="#4d5359"/><rect x="109" y="49" width="543" height="1" fill="#a8abae"/><rect x="483" y="60.99" width="68" height="22.01" fill="url(#linear-gradient)"/><rect x="403" y="60.99" width="68" height="22.01" fill="url(#linear-gradient-2)"/><path d="M402,60V84h70V60Zm69,23H403V61h68Z" fill="#a8abae"/><path d="M433.48,76.14A3.69,3.69,0,0,1,430.62,75a4.37,4.37,0,0,1-1.08-3.06,4.63,4.63,0,0,1,1.1-3.23,3.83,3.83,0,0,1,3-1.21,3.61,3.61,0,0,1,2.8,1.17,4.38,4.38,0,0,1,1.06,3.06,4.64,4.64,0,0,1-1.09,3.25A3.76,3.76,0,0,1,433.48,76.14Zm.07-7.79a2.71,2.71,0,0,0-2.15,1,4.25,4.25,0,0,0,0,5,2.63,2.63,0,0,0,2.1.95,2.76,2.76,0,0,0,2.18-.9,3.69,3.69,0,0,0,.8-2.53,3.85,3.85,0,0,0-.77-2.57A2.65,2.65,0,0,0,433.55,68.35Z" fill="#4d5359"/><path d="M445,76h-1.37l-3.25-3.84a2.34,2.34,0,0,1-.22-.29h0V76h-1V67.6h1v3.95h0a2.32,2.32,0,0,1,.22-.29l3.14-3.66h1.22l-3.6,4Z" fill="#4d5359"/><path d="M482,60V84h70V60Zm69,23H483V61h68Z" fill="#a8abae"/><path d="M506.3,75.65a4.93,4.93,0,0,1-2.32.49A3.74,3.74,0,0,1,501.11,75,4.26,4.26,0,0,1,500,72a4.46,4.46,0,0,1,1.21-3.26,4.12,4.12,0,0,1,3.08-1.24,4.93,4.93,0,0,1,2,.35v1a4,4,0,0,0-2-.5,3.06,3.06,0,0,0-2.35,1,3.64,3.64,0,0,0-.9,2.58,3.47,3.47,0,0,0,.84,2.45,2.86,2.86,0,0,0,2.21.91,4.14,4.14,0,0,0,2.19-.56Z" fill="#4d5359"/><path d="M512.17,76h-1v-.94h0a2,2,0,0,1-1.85,1.08,2,2,0,0,1-1.4-.47,1.64,1.64,0,0,1-.51-1.26q0-1.68,2-2l1.8-.25q0-1.53-1.24-1.53a3,3,0,0,0-2,.74v-1a3.72,3.72,0,0,1,2-.56q2.12,0,2.12,2.24Zm-1-3-1.45.2a2.35,2.35,0,0,0-1,.33,1,1,0,0,0-.34.84.92.92,0,0,0,.31.72,1.21,1.21,0,0,0,.83.28,1.54,1.54,0,0,0,1.18-.5,1.79,1.79,0,0,0,.47-1.27Z" fill="#4d5359"/><path d="M519,76h-1V72.58q0-1.91-1.39-1.91a1.51,1.51,0,0,0-1.19.54,2,2,0,0,0-.47,1.37V76h-1V70h1v1h0a2.17,2.17,0,0,1,2-1.14,1.84,1.84,0,0,1,1.51.64,2.83,2.83,0,0,1,.52,1.84Z" fill="#4d5359"/><path d="M524.87,75.72a3.12,3.12,0,0,1-1.64.42,2.72,2.72,0,0,1-2.07-.83,3,3,0,0,1-.79-2.17,3.33,3.33,0,0,1,.85-2.38,3,3,0,0,1,2.27-.9,3.16,3.16,0,0,1,1.39.29v1a2.44,2.44,0,0,0-1.43-.47,1.93,1.93,0,0,0-1.51.66,2.5,2.5,0,0,0-.59,1.73,2.38,2.38,0,0,0,.55,1.66,1.91,1.91,0,0,0,1.49.61,2.41,2.41,0,0,0,1.48-.52Z" fill="#4d5359"/><path d="M531.14,73.24H526.9a2.24,2.24,0,0,0,.54,1.55,1.86,1.86,0,0,0,1.42.54,3,3,0,0,0,1.86-.67v.9a3.48,3.48,0,0,1-2.09.57,2.54,2.54,0,0,1-2-.82,3.35,3.35,0,0,1-.73-2.3,3.28,3.28,0,0,1,.79-2.28,2.55,2.55,0,0,1,2-.88,2.26,2.26,0,0,1,1.82.76,3.18,3.18,0,0,1,.64,2.12Zm-1-.81a2,2,0,0,0-.4-1.29,1.37,1.37,0,0,0-1.1-.46,1.55,1.55,0,0,0-1.15.49,2.21,2.21,0,0,0-.59,1.27Z" fill="#4d5359"/><path d="M533.55,76h-1V67.12h1Z" fill="#4d5359"/><rect x="563" y="60.99" width="68" height="22.01" fill="url(#linear-gradient-3)"/><path d="M562,60V84h70V60Zm69,23H563V61h68Z" fill="#a8abae"/><path d="M589.32,76h-1.09l-.89-2.36h-3.56L582.94,76h-1.1l3.22-8.4h1ZM587,72.76l-1.32-3.58a3.43,3.43,0,0,1-.13-.56h0a3.14,3.14,0,0,1-.13.56l-1.31,3.58Z" fill="#4d5359"/><path d="M591.41,75.13h0v3.63h-1V70h1v1.05h0a2.27,2.27,0,0,1,2.07-1.2,2.2,2.2,0,0,1,1.81.81,3.34,3.34,0,0,1,.65,2.16,3.72,3.72,0,0,1-.73,2.41,2.44,2.44,0,0,1-2,.91A2,2,0,0,1,591.41,75.13Zm0-2.42v.84a1.78,1.78,0,0,0,.48,1.26,1.72,1.72,0,0,0,2.6-.15,3.06,3.06,0,0,0,.5-1.86,2.42,2.42,0,0,0-.46-1.57,1.53,1.53,0,0,0-1.25-.57,1.7,1.7,0,0,0-1.35.58A2.14,2.14,0,0,0,591.39,72.71Z" fill="#4d5359"/><path d="M598.47,75.13h0v3.63h-1V70h1v1.05h0a2.27,2.27,0,0,1,2.07-1.2,2.2,2.2,0,0,1,1.81.81,3.34,3.34,0,0,1,.65,2.16,3.72,3.72,0,0,1-.73,2.41,2.44,2.44,0,0,1-2,.91A2,2,0,0,1,598.47,75.13Zm0-2.42v.84a1.78,1.78,0,0,0,.48,1.26,1.72,1.72,0,0,0,2.6-.15,3.06,3.06,0,0,0,.5-1.86,2.42,2.42,0,0,0-.46-1.57,1.53,1.53,0,0,0-1.25-.57,1.7,1.7,0,0,0-1.35.58A2.14,2.14,0,0,0,598.45,72.71Z" fill="#4d5359"/><path d="M605.5,76h-1V67.12h1Z" fill="#4d5359"/><path d="M612.22,70l-2.76,7q-.74,1.86-2.07,1.86a2.2,2.2,0,0,1-.63-.08v-.86a1.78,1.78,0,0,0,.57.11,1.18,1.18,0,0,0,1.09-.87L608.9,76l-2.34-6h1.07l1.62,4.62q0,.09.12.46h0q0-.14.12-.45L611.22,70Z" fill="#4d5359"/></g><path d="M105,21.33c2,0,2.64-2.25,4.26-3.82a39.16,39.16,0,0,1,4.84-4.24,7.54,7.54,0,0,1,9.68,0,40.67,40.67,0,0,1,4.84,4.24,39.28,39.28,0,0,0,4.84,4.25,7.55,7.55,0,0,0,9.67,0A40,40,0,0,0,148,17.52a39.16,39.16,0,0,1,4.84-4.24,7.54,7.54,0,0,1,9.68,0,39.84,39.84,0,0,1,4.83,4.24,41.72,41.72,0,0,0,4.84,4.25,7.57,7.57,0,0,0,9.68,0,39.16,39.16,0,0,0,4.84-4.24,40.67,40.67,0,0,1,4.84-4.24,7.54,7.54,0,0,1,9.68,0,39.16,39.16,0,0,1,4.84,4.24,41.72,41.72,0,0,0,4.84,4.25,7.57,7.57,0,0,0,9.68,0,39.9,39.9,0,0,0,4.84-4.24,40.67,40.67,0,0,1,4.84-4.24,7.53,7.53,0,0,1,9.68,0,39.16,39.16,0,0,1,4.84,4.24,40.91,40.91,0,0,0,4.84,4.25,7.57,7.57,0,0,0,9.68,0,39.9,39.9,0,0,0,4.84-4.24A39.9,39.9,0,0,1,269,13.31a7.53,7.53,0,0,1,9.68,0,39.9,39.9,0,0,1,4.84,4.24,40.13,40.13,0,0,0,4.84,4.25,7.57,7.57,0,0,0,9.68,0,40.67,40.67,0,0,0,4.84-4.24,40.91,40.91,0,0,1,4.84-4.25,7.55,7.55,0,0,1,9.68,0,40.67,40.67,0,0,1,4.84,4.24,39.16,39.16,0,0,0,4.84,4.24,8.55,8.55,0,0,0,4.84,1.76,8.66,8.66,0,0,0,4.84-1.75,40.67,40.67,0,0,0,4.84-4.24,39.28,39.28,0,0,1,4.84-4.25,7.55,7.55,0,0,1,9.68,0,40.67,40.67,0,0,1,4.84,4.24,39.16,39.16,0,0,0,4.84,4.24,7.53,7.53,0,0,0,9.68,0,40.67,40.67,0,0,0,4.84-4.24,39.16,39.16,0,0,1,4.84-4.24,7.53,7.53,0,0,1,9.68,0,39.9,39.9,0,0,1,4.84,4.24,39.9,39.9,0,0,0,4.84,4.24,7.54,7.54,0,0,0,9.68,0A40.67,40.67,0,0,0,419,17.57a39.16,39.16,0,0,1,4.84-4.24,7.53,7.53,0,0,1,9.68,0,40.67,40.67,0,0,1,4.84,4.24,39.16,39.16,0,0,0,4.84,4.24,7.53,7.53,0,0,0,9.68,0,40.67,40.67,0,0,0,4.84-4.24,39.16,39.16,0,0,1,4.84-4.24,7.53,7.53,0,0,1,9.68,0,39.84,39.84,0,0,1,4.83,4.24,40.67,40.67,0,0,0,4.84,4.24,7.54,7.54,0,0,0,9.68,0,39.16,39.16,0,0,0,4.84-4.24,40.67,40.67,0,0,1,4.84-4.24,7.53,7.53,0,0,1,9.68,0,39.16,39.16,0,0,1,4.84,4.24,40.67,40.67,0,0,0,4.84,4.24,7.54,7.54,0,0,0,9.68,0,39.16,39.16,0,0,0,4.84-4.24A40.67,40.67,0,0,1,540,13.33a7.53,7.53,0,0,1,9.68,0,39.9,39.9,0,0,1,4.84,4.24,39.9,39.9,0,0,0,4.84,4.24,7.53,7.53,0,0,0,9.68,0,39.9,39.9,0,0,0,4.84-4.24,39.9,39.9,0,0,1,4.84-4.24,7.54,7.54,0,0,1,9.68,0,39.9,39.9,0,0,1,4.84,4.24,39.9,39.9,0,0,0,4.84,4.24,7.54,7.54,0,0,0,9.68,0,39.9,39.9,0,0,0,4.84-4.24,39.9,39.9,0,0,1,4.84-4.24,7.54,7.54,0,0,1,9.68,0A40.67,40.67,0,0,1,632,17.57a39.16,39.16,0,0,0,4.84,4.24,7.54,7.54,0,0,0,9.68,0,40.67,40.67,0,0,0,4.84-4.24c1.61-1.57,2.88-4.24,4.84-4.24" fill="none" stroke="#adaead" stroke-miterlimit="10"/><rect x="102" y="50" width="1" height="44" fill="#ec008c"/><rect x="99" y="50" width="13" height="1" fill="#ec008c"/><path d="M90.57,66.3v5.09h1v.81h-1V74H89.7V72.19H86.08v-.76q.51-.57,1-1.22t1-1.31q.47-.67.87-1.33a12,12,0,0,0,.67-1.27Zm-3.5,5.09H89.7V67.61q-.4.7-.76,1.26t-.68,1q-.33.45-.62.82Z" fill="#ec008c"/><path d="M96.5,66.3v5.09h1v.81h-1V74h-.87V72.19H92v-.76q.51-.57,1-1.22t1-1.31q.47-.67.87-1.33a12,12,0,0,0,.67-1.27ZM93,71.38h2.63V67.61q-.4.7-.76,1.26t-.68,1q-.33.45-.62.82Z" fill="#ec008c"/><rect x="98" y="93" width="13" height="1" fill="#ec008c"/><rect x="632.5" y="103" width="19" height="1" fill="#ec008c"/><rect x="651" y="80" width="1" height="27" fill="#ec008c"/><rect x="632" y="80" width="1" height="27" fill="#ec008c"/><path d="M640.29,110.32a1.59,1.59,0,0,0-.11-.62,1.19,1.19,0,0,0-.75-.7,1.76,1.76,0,0,0-.56-.09,1.86,1.86,0,0,0-.5.07,2.41,2.41,0,0,0-.48.19,2.91,2.91,0,0,0-.45.3,3.21,3.21,0,0,0-.41.38v-.95a2.63,2.63,0,0,1,.83-.55,2.93,2.93,0,0,1,1.12-.19,2.71,2.71,0,0,1,.88.14,2,2,0,0,1,.7.4,1.85,1.85,0,0,1,.46.65,2.18,2.18,0,0,1,.17.89,3,3,0,0,1-.1.83,2.54,2.54,0,0,1-.32.7,3.38,3.38,0,0,1-.53.63,7.53,7.53,0,0,1-.76.61l-.89.66a4,4,0,0,0-.56.51,1.5,1.5,0,0,0-.29.48,1.67,1.67,0,0,0-.08.55h3.83V116h-4.75v-.38a3.15,3.15,0,0,1,.11-.87,2.27,2.27,0,0,1,.35-.71,4,4,0,0,1,.65-.68q.4-.34,1-.76a6.26,6.26,0,0,0,.7-.57,3,3,0,0,0,.45-.55,2,2,0,0,0,.24-.56A2.41,2.41,0,0,0,640.29,110.32Z" fill="#ec008c"/><path d="M647.55,112.12a7.57,7.57,0,0,1-.17,1.71,4,4,0,0,1-.5,1.26,2.26,2.26,0,0,1-.81.78,2.22,2.22,0,0,1-1.09.27,2.07,2.07,0,0,1-1-.26,2.17,2.17,0,0,1-.77-.74,3.76,3.76,0,0,1-.47-1.2,7.42,7.42,0,0,1-.16-1.63,8.43,8.43,0,0,1,.17-1.78,4.08,4.08,0,0,1,.5-1.3,2.21,2.21,0,0,1,.81-.79,2.29,2.29,0,0,1,1.12-.27Q647.55,108.17,647.55,112.12Zm-.9.09q0-3.29-1.56-3.29t-1.65,3.35q0,3.12,1.62,3.12T646.65,112.2Z" fill="#ec008c"/><rect x="552" y="103" width="10" height="1" fill="#ec008c"/><rect x="561" y="80" width="1" height="27" fill="#ec008c"/><rect x="552" y="80" width="1" height="27" fill="#ec008c"/><path d="M554.89,116H554v-6.65a2.07,2.07,0,0,1-.3.23,4.94,4.94,0,0,1-.44.26l-.52.24a3.74,3.74,0,0,1-.53.18v-.89a5.22,5.22,0,0,0,.62-.22c.22-.09.43-.19.64-.31s.41-.23.59-.35a4.57,4.57,0,0,0,.48-.36h.33Z" fill="#ec008c"/><path d="M562.41,112.12a7.57,7.57,0,0,1-.17,1.71,4,4,0,0,1-.5,1.26,2.26,2.26,0,0,1-.81.78,2.22,2.22,0,0,1-1.09.27,2.07,2.07,0,0,1-1-.26,2.17,2.17,0,0,1-.77-.74,3.76,3.76,0,0,1-.47-1.2,7.42,7.42,0,0,1-.16-1.63,8.43,8.43,0,0,1,.17-1.78,4.08,4.08,0,0,1,.5-1.3,2.21,2.21,0,0,1,.81-.79,2.29,2.29,0,0,1,1.12-.27Q562.41,108.17,562.41,112.12Zm-.9.09q0-3.29-1.56-3.29t-1.65,3.35q0,3.12,1.62,3.12T561.51,112.2Z" fill="#ec008c"/><rect x="472" y="103" width="10" height="1" fill="#ec008c"/><rect x="481" y="80" width="1" height="27" fill="#ec008c"/><rect x="472" y="80" width="1" height="27" fill="#ec008c"/><path d="M474.89,116H474v-6.65a2.07,2.07,0,0,1-.3.23,4.94,4.94,0,0,1-.44.26l-.52.24a3.74,3.74,0,0,1-.53.18v-.89a5.22,5.22,0,0,0,.62-.22c.22-.09.43-.19.64-.31s.41-.23.59-.35a4.57,4.57,0,0,0,.48-.36h.33Z" fill="#ec008c"/><path d="M482.41,112.12a7.57,7.57,0,0,1-.17,1.71,4,4,0,0,1-.5,1.26,2.26,2.26,0,0,1-.81.78,2.22,2.22,0,0,1-1.09.27,2.07,2.07,0,0,1-1-.26,2.17,2.17,0,0,1-.77-.74,3.76,3.76,0,0,1-.47-1.2,7.42,7.42,0,0,1-.16-1.63,8.43,8.43,0,0,1,.17-1.78,4.08,4.08,0,0,1,.5-1.3,2.21,2.21,0,0,1,.81-.79,2.29,2.29,0,0,1,1.12-.27Q482.41,108.17,482.41,112.12Zm-.9.09q0-3.29-1.56-3.29t-1.65,3.35q0,3.12,1.62,3.12T481.51,112.2Z" fill="#ec008c"/></g></svg>