<svg xmlns="http://www.w3.org/2000/svg" xmlns:xlink="http://www.w3.org/1999/xlink" width="760" height="183" viewBox="0 0 760 183"><defs><linearGradient id="linear-gradient" x1="678.5" y1="142" x2="678.5" y2="150.95" gradientUnits="userSpaceOnUse"><stop offset="0" stop-color="#ebe9ec"/><stop offset="0.28" stop-color="#e5e6e9"/><stop offset="1" stop-color="#dadfe2"/></linearGradient><linearGradient id="linear-gradient-2" y1="129.11" x2="678.5" y2="138.04" xlink:href="#linear-gradient"/><linearGradient id="linear-gradient-3" y1="94" x2="678.5" y2="102.95" xlink:href="#linear-gradient"/><linearGradient id="linear-gradient-4" y1="81.11" x2="678.5" y2="90.04" xlink:href="#linear-gradient"/><linearGradient id="linear-gradient-5" y1="47" x2="678.5" y2="55.95" xlink:href="#linear-gradient"/><linearGradient id="linear-gradient-6" y1="34.11" x2="678.5" y2="43.04" xlink:href="#linear-gradient"/><linearGradient id="linear-gradient-7" x1="275.5" y1="94" x2="275.5" y2="102.95" xlink:href="#linear-gradient"/><linearGradient id="linear-gradient-8" x1="275.5" y1="81.11" x2="275.5" y2="90.04" xlink:href="#linear-gradient"/><linearGradient id="linear-gradient-9" x1="275.5" y1="47" x2="275.5" y2="55.95" xlink:href="#linear-gradient"/><linearGradient id="linear-gradient-10" x1="275.5" y1="34.11" x2="275.5" y2="43.04" xlink:href="#linear-gradient"/><linearGradient id="linear-gradient-11" x1="275.5" y1="142" x2="275.5" y2="150.95" xlink:href="#linear-gradient"/><linearGradient id="linear-gradient-12" x1="275.5" y1="129.11" x2="275.5" y2="138.04" xlink:href="#linear-gradient"/><linearGradient id="linear-gradient-13" x1="461.5" y1="142" x2="461.5" y2="150.95" xlink:href="#linear-gradient"/><linearGradient id="linear-gradient-14" x1="461.5" y1="129.11" x2="461.5" y2="138.04" xlink:href="#linear-gradient"/><linearGradient id="linear-gradient-15" x1="461.5" y1="94" x2="461.5" y2="102.95" xlink:href="#linear-gradient"/><linearGradient id="linear-gradient-16" x1="461.5" y1="81.11" x2="461.5" y2="90.04" xlink:href="#linear-gradient"/><linearGradient id="linear-gradient-17" x1="461.5" y1="47" x2="461.5" y2="55.95" xlink:href="#linear-gradient"/><linearGradient id="linear-gradient-18" x1="461.5" y1="34.11" x2="461.5" y2="43.04" xlink:href="#linear-gradient"/></defs><title>dialogs-content-control-spacing</title><g id="SPEC_text"><path d="M515.82,122.65a4.93,4.93,0,0,1-2.32.49,3.74,3.74,0,0,1-2.87-1.15,4.26,4.26,0,0,1-1.08-3,4.46,4.46,0,0,1,1.21-3.26,4.12,4.12,0,0,1,3.08-1.24,4.93,4.93,0,0,1,2,.35v1a4,4,0,0,0-2-.5,3.06,3.06,0,0,0-2.35,1,3.64,3.64,0,0,0-.9,2.58,3.47,3.47,0,0,0,.84,2.45,2.86,2.86,0,0,0,2.21.91,4.14,4.14,0,0,0,2.19-.56Z" fill="#4d5359"/><path d="M519.91,123.14a2.78,2.78,0,0,1-2.12-.84,3.11,3.11,0,0,1-.79-2.23,3.24,3.24,0,0,1,.83-2.36,3,3,0,0,1,2.23-.85,2.69,2.69,0,0,1,2.09.83,3.28,3.28,0,0,1,.75,2.29,3.22,3.22,0,0,1-.81,2.3A2.84,2.84,0,0,1,519.91,123.14Zm.07-5.47a1.83,1.83,0,0,0-1.46.63A2.59,2.59,0,0,0,518,120a2.45,2.45,0,0,0,.54,1.68,1.85,1.85,0,0,0,1.46.62,1.76,1.76,0,0,0,1.43-.6,2.62,2.62,0,0,0,.5-1.72,2.66,2.66,0,0,0-.5-1.73A1.75,1.75,0,0,0,520,117.67Z" fill="#4d5359"/><path d="M529.41,123h-1v-3.42q0-1.91-1.39-1.91a1.51,1.51,0,0,0-1.19.54,2,2,0,0,0-.47,1.37V123h-1v-6h1v1h0a2.17,2.17,0,0,1,2-1.14,1.84,1.84,0,0,1,1.51.64,2.83,2.83,0,0,1,.52,1.84Z" fill="#4d5359"/><path d="M534,122.94a1.85,1.85,0,0,1-.9.19q-1.58,0-1.58-1.76v-3.55h-1V117h1v-1.46l1-.31V117H534v.82H532.5v3.38a1.4,1.4,0,0,0,.21.86.82.82,0,0,0,.68.26,1,1,0,0,0,.63-.2Z" fill="#4d5359"/><path d="M538.42,118a1.18,1.18,0,0,0-.73-.19,1.23,1.23,0,0,0-1,.58,2.68,2.68,0,0,0-.41,1.58V123h-1v-6h1v1.24h0a2.1,2.1,0,0,1,.63-1,1.43,1.43,0,0,1,.94-.35,1.57,1.57,0,0,1,.57.08Z" fill="#4d5359"/><path d="M541.81,123.14a2.78,2.78,0,0,1-2.12-.84,3.11,3.11,0,0,1-.79-2.23,3.24,3.24,0,0,1,.83-2.36,3,3,0,0,1,2.23-.85,2.69,2.69,0,0,1,2.09.83,3.28,3.28,0,0,1,.75,2.29,3.22,3.22,0,0,1-.81,2.3A2.84,2.84,0,0,1,541.81,123.14Zm.07-5.47a1.83,1.83,0,0,0-1.46.63,2.59,2.59,0,0,0-.54,1.74,2.45,2.45,0,0,0,.54,1.68,1.85,1.85,0,0,0,1.46.62,1.76,1.76,0,0,0,1.43-.6,2.62,2.62,0,0,0,.5-1.72,2.66,2.66,0,0,0-.5-1.73A1.75,1.75,0,0,0,541.88,117.67Z" fill="#4d5359"/><path d="M547.3,123h-1v-8.88h1Z" fill="#4d5359"/><path d="M553.49,123h-1v-8.88h1Z" fill="#4d5359"/><path d="M559.73,123h-1v-.94h0a2,2,0,0,1-1.85,1.08,2,2,0,0,1-1.4-.47,1.64,1.64,0,0,1-.51-1.26q0-1.68,2-2l1.8-.25q0-1.53-1.24-1.53a3,3,0,0,0-2,.74v-1a3.72,3.72,0,0,1,2-.56q2.12,0,2.12,2.24Zm-1-3-1.45.2a2.35,2.35,0,0,0-1,.33,1,1,0,0,0-.34.84.92.92,0,0,0,.31.72,1.21,1.21,0,0,0,.83.28,1.54,1.54,0,0,0,1.18-.5,1.79,1.79,0,0,0,.47-1.27Z" fill="#4d5359"/><path d="M562.53,122.13h0V123h-1v-8.88h1v3.94h0a2.27,2.27,0,0,1,2.07-1.2,2.2,2.2,0,0,1,1.81.81,3.33,3.33,0,0,1,.65,2.16,3.72,3.72,0,0,1-.73,2.41,2.44,2.44,0,0,1-2,.91A2,2,0,0,1,562.53,122.13Zm0-2.42v.84a1.78,1.78,0,0,0,.48,1.26,1.72,1.72,0,0,0,2.6-.15,3.06,3.06,0,0,0,.5-1.86,2.42,2.42,0,0,0-.46-1.57,1.53,1.53,0,0,0-1.25-.57,1.7,1.7,0,0,0-1.35.58A2.14,2.14,0,0,0,562.5,119.71Z" fill="#4d5359"/><path d="M573.42,120.24h-4.24a2.24,2.24,0,0,0,.54,1.55,1.86,1.86,0,0,0,1.42.54,3,3,0,0,0,1.86-.67v.9a3.48,3.48,0,0,1-2.09.57,2.54,2.54,0,0,1-2-.82,3.35,3.35,0,0,1-.73-2.3,3.28,3.28,0,0,1,.79-2.28,2.55,2.55,0,0,1,2-.88,2.26,2.26,0,0,1,1.82.76,3.18,3.18,0,0,1,.64,2.12Zm-1-.81a2,2,0,0,0-.4-1.29,1.37,1.37,0,0,0-1.1-.46,1.55,1.55,0,0,0-1.15.49,2.21,2.21,0,0,0-.59,1.27Z" fill="#4d5359"/><path d="M575.83,123h-1v-8.88h1Z" fill="#4d5359"/><rect x="510" y="129" width="159" height="22" fill="#fff"/><path d="M519.24,145h-1v-7.26a2.24,2.24,0,0,1-.33.25,5.3,5.3,0,0,1-.48.28q-.27.14-.56.26a4.08,4.08,0,0,1-.58.19v-1a5.58,5.58,0,0,0,.67-.24q.35-.15.7-.33c.23-.12.45-.25.65-.39a5.14,5.14,0,0,0,.53-.4h.36Z" fill="#575757"/><path d="M509,128v24H670V128Zm160,23H510V129H669Z" fill="#9ba0a4"/><rect x="673" y="142" width="11" height="9" fill="url(#linear-gradient)"/><polygon points="675.33 144 682.39 144 678.86 148.74 675.33 144" fill="#575757"/><rect x="673" y="129" width="11" height="9" fill="url(#linear-gradient-2)"/><polygon points="682.39 136 675.33 136 678.86 131.26 682.39 136" fill="#575757"/><path d="M672,141v11h13V141Zm12,10H673v-9h11Z" fill="#9ba0a4"/><path d="M685,139V128H672v11Zm-12-10h11v9H673Z" fill="#9ba0a4"/><path d="M515.82,74.65a4.93,4.93,0,0,1-2.32.49A3.74,3.74,0,0,1,510.63,74a4.26,4.26,0,0,1-1.08-3,4.46,4.46,0,0,1,1.21-3.26,4.12,4.12,0,0,1,3.08-1.24,4.93,4.93,0,0,1,2,.35v1a4,4,0,0,0-2-.5,3.06,3.06,0,0,0-2.35,1,3.64,3.64,0,0,0-.9,2.58,3.47,3.47,0,0,0,.84,2.45,2.86,2.86,0,0,0,2.21.91,4.14,4.14,0,0,0,2.19-.56Z" fill="#4d5359"/><path d="M519.91,75.14a2.78,2.78,0,0,1-2.12-.84,3.11,3.11,0,0,1-.79-2.23,3.24,3.24,0,0,1,.83-2.36,3,3,0,0,1,2.23-.85,2.69,2.69,0,0,1,2.09.83A3.28,3.28,0,0,1,522.9,72a3.22,3.22,0,0,1-.81,2.3A2.84,2.84,0,0,1,519.91,75.14Zm.07-5.47a1.83,1.83,0,0,0-1.46.63A2.59,2.59,0,0,0,518,72a2.45,2.45,0,0,0,.54,1.68,1.85,1.85,0,0,0,1.46.62,1.76,1.76,0,0,0,1.43-.6,2.62,2.62,0,0,0,.5-1.72,2.66,2.66,0,0,0-.5-1.73A1.75,1.75,0,0,0,520,69.67Z" fill="#4d5359"/><path d="M529.41,75h-1V71.58q0-1.91-1.39-1.91a1.51,1.51,0,0,0-1.19.54,2,2,0,0,0-.47,1.37V75h-1V69h1v1h0a2.17,2.17,0,0,1,2-1.14,1.84,1.84,0,0,1,1.51.64,2.83,2.83,0,0,1,.52,1.84Z" fill="#4d5359"/><path d="M534,74.94a1.85,1.85,0,0,1-.9.19q-1.58,0-1.58-1.76V69.82h-1V69h1V67.54l1-.31V69H534v.82H532.5V73.2a1.4,1.4,0,0,0,.21.86.82.82,0,0,0,.68.26,1,1,0,0,0,.63-.2Z" fill="#4d5359"/><path d="M538.42,70a1.18,1.18,0,0,0-.73-.19,1.23,1.23,0,0,0-1,.58,2.68,2.68,0,0,0-.41,1.58V75h-1V69h1v1.24h0a2.1,2.1,0,0,1,.63-1,1.43,1.43,0,0,1,.94-.35,1.57,1.57,0,0,1,.57.08Z" fill="#4d5359"/><path d="M541.81,75.14a2.78,2.78,0,0,1-2.12-.84,3.11,3.11,0,0,1-.79-2.23,3.24,3.24,0,0,1,.83-2.36,3,3,0,0,1,2.23-.85,2.69,2.69,0,0,1,2.09.83A3.28,3.28,0,0,1,544.8,72a3.22,3.22,0,0,1-.81,2.3A2.84,2.84,0,0,1,541.81,75.14Zm.07-5.47a1.83,1.83,0,0,0-1.46.63,2.59,2.59,0,0,0-.54,1.74,2.45,2.45,0,0,0,.54,1.68,1.85,1.85,0,0,0,1.46.62,1.76,1.76,0,0,0,1.43-.6,2.62,2.62,0,0,0,.5-1.72,2.66,2.66,0,0,0-.5-1.73A1.75,1.75,0,0,0,541.88,69.67Z" fill="#4d5359"/><path d="M547.3,75h-1V66.12h1Z" fill="#4d5359"/><path d="M553.49,75h-1V66.12h1Z" fill="#4d5359"/><path d="M559.73,75h-1v-.94h0a2,2,0,0,1-1.85,1.08,2,2,0,0,1-1.4-.47,1.64,1.64,0,0,1-.51-1.26q0-1.68,2-2l1.8-.25q0-1.53-1.24-1.53a3,3,0,0,0-2,.74v-1a3.72,3.72,0,0,1,2-.56q2.12,0,2.12,2.24Zm-1-3-1.45.2a2.35,2.35,0,0,0-1,.33,1,1,0,0,0-.34.84.92.92,0,0,0,.31.72,1.21,1.21,0,0,0,.83.28,1.54,1.54,0,0,0,1.18-.5,1.79,1.79,0,0,0,.47-1.27Z" fill="#4d5359"/><path d="M562.53,74.13h0V75h-1V66.12h1v3.94h0a2.27,2.27,0,0,1,2.07-1.2,2.2,2.2,0,0,1,1.81.81,3.33,3.33,0,0,1,.65,2.16,3.72,3.72,0,0,1-.73,2.41,2.44,2.44,0,0,1-2,.91A2,2,0,0,1,562.53,74.13Zm0-2.42v.84a1.78,1.78,0,0,0,.48,1.26,1.72,1.72,0,0,0,2.6-.15,3.06,3.06,0,0,0,.5-1.86,2.42,2.42,0,0,0-.46-1.57,1.53,1.53,0,0,0-1.25-.57,1.7,1.7,0,0,0-1.35.58A2.14,2.14,0,0,0,562.5,71.71Z" fill="#4d5359"/><path d="M573.42,72.24h-4.24a2.24,2.24,0,0,0,.54,1.55,1.86,1.86,0,0,0,1.42.54,3,3,0,0,0,1.86-.67v.9a3.48,3.48,0,0,1-2.09.57,2.54,2.54,0,0,1-2-.82,3.35,3.35,0,0,1-.73-2.3,3.28,3.28,0,0,1,.79-2.28,2.55,2.55,0,0,1,2-.88,2.26,2.26,0,0,1,1.82.76,3.18,3.18,0,0,1,.64,2.12Zm-1-.81a2,2,0,0,0-.4-1.29,1.37,1.37,0,0,0-1.1-.46,1.55,1.55,0,0,0-1.15.49,2.21,2.21,0,0,0-.59,1.27Z" fill="#4d5359"/><path d="M575.83,75h-1V66.12h1Z" fill="#4d5359"/><rect x="510" y="81" width="159" height="22" fill="#fff"/><path d="M519.24,97h-1V89.74A2.24,2.24,0,0,1,518,90a5.3,5.3,0,0,1-.48.28q-.27.14-.56.26a4.08,4.08,0,0,1-.58.19v-1a5.58,5.58,0,0,0,.67-.24q.35-.15.7-.33c.23-.12.45-.25.65-.39a5.14,5.14,0,0,0,.53-.4h.36Z" fill="#575757"/><path d="M509,80v24H670V80Zm160,23H510V81H669Z" fill="#9ba0a4"/><rect x="673" y="94" width="11" height="9" fill="url(#linear-gradient-3)"/><polygon points="675.33 96 682.39 96 678.86 100.74 675.33 96" fill="#575757"/><rect x="673" y="81" width="11" height="9" fill="url(#linear-gradient-4)"/><polygon points="682.39 88 675.33 88 678.86 83.26 682.39 88" fill="#575757"/><path d="M672,93v11h13V93Zm12,10H673V94h11Z" fill="#9ba0a4"/><path d="M685,91V80H672V91ZM673,81h11v9H673Z" fill="#9ba0a4"/><path d="M515.82,27.65a4.93,4.93,0,0,1-2.32.49A3.74,3.74,0,0,1,510.63,27a4.26,4.26,0,0,1-1.08-3,4.46,4.46,0,0,1,1.21-3.26,4.12,4.12,0,0,1,3.08-1.24,4.93,4.93,0,0,1,2,.35v1a4,4,0,0,0-2-.5,3.06,3.06,0,0,0-2.35,1,3.64,3.64,0,0,0-.9,2.58,3.47,3.47,0,0,0,.84,2.45,2.86,2.86,0,0,0,2.21.91,4.14,4.14,0,0,0,2.19-.56Z" fill="#4d5359"/><path d="M519.91,28.14a2.78,2.78,0,0,1-2.12-.84,3.11,3.11,0,0,1-.79-2.23,3.24,3.24,0,0,1,.83-2.36,3,3,0,0,1,2.23-.85,2.69,2.69,0,0,1,2.09.83A3.28,3.28,0,0,1,522.9,25a3.22,3.22,0,0,1-.81,2.3A2.84,2.84,0,0,1,519.91,28.14Zm.07-5.47a1.83,1.83,0,0,0-1.46.63A2.59,2.59,0,0,0,518,25a2.45,2.45,0,0,0,.54,1.68,1.85,1.85,0,0,0,1.46.62,1.76,1.76,0,0,0,1.43-.6,2.62,2.62,0,0,0,.5-1.72,2.66,2.66,0,0,0-.5-1.73A1.75,1.75,0,0,0,520,22.67Z" fill="#4d5359"/><path d="M529.41,28h-1V24.58q0-1.91-1.39-1.91a1.51,1.51,0,0,0-1.19.54,2,2,0,0,0-.47,1.37V28h-1V22h1v1h0a2.17,2.17,0,0,1,2-1.14,1.84,1.84,0,0,1,1.51.64,2.83,2.83,0,0,1,.52,1.84Z" fill="#4d5359"/><path d="M534,27.94a1.85,1.85,0,0,1-.9.19q-1.58,0-1.58-1.76V22.82h-1V22h1V20.54l1-.31V22H534v.82H532.5V26.2a1.4,1.4,0,0,0,.21.86.82.82,0,0,0,.68.26,1,1,0,0,0,.63-.2Z" fill="#4d5359"/><path d="M538.42,23a1.18,1.18,0,0,0-.73-.19,1.23,1.23,0,0,0-1,.58,2.68,2.68,0,0,0-.41,1.58V28h-1V22h1v1.24h0a2.1,2.1,0,0,1,.63-1,1.43,1.43,0,0,1,.94-.35,1.57,1.57,0,0,1,.57.08Z" fill="#4d5359"/><path d="M541.81,28.14a2.78,2.78,0,0,1-2.12-.84,3.11,3.11,0,0,1-.79-2.23,3.24,3.24,0,0,1,.83-2.36,3,3,0,0,1,2.23-.85,2.69,2.69,0,0,1,2.09.83A3.28,3.28,0,0,1,544.8,25a3.22,3.22,0,0,1-.81,2.3A2.84,2.84,0,0,1,541.81,28.14Zm.07-5.47a1.83,1.83,0,0,0-1.46.63,2.59,2.59,0,0,0-.54,1.74,2.45,2.45,0,0,0,.54,1.68,1.85,1.85,0,0,0,1.46.62,1.76,1.76,0,0,0,1.43-.6,2.62,2.62,0,0,0,.5-1.72,2.66,2.66,0,0,0-.5-1.73A1.75,1.75,0,0,0,541.88,22.67Z" fill="#4d5359"/><path d="M547.3,28h-1V19.12h1Z" fill="#4d5359"/><path d="M553.49,28h-1V19.12h1Z" fill="#4d5359"/><path d="M559.73,28h-1v-.94h0a2,2,0,0,1-1.85,1.08,2,2,0,0,1-1.4-.47,1.64,1.64,0,0,1-.51-1.26q0-1.68,2-2l1.8-.25q0-1.53-1.24-1.53a3,3,0,0,0-2,.74v-1a3.72,3.72,0,0,1,2-.56q2.12,0,2.12,2.24Zm-1-3-1.45.2a2.35,2.35,0,0,0-1,.33,1,1,0,0,0-.34.84.92.92,0,0,0,.31.72,1.21,1.21,0,0,0,.83.28,1.54,1.54,0,0,0,1.18-.5,1.79,1.79,0,0,0,.47-1.27Z" fill="#4d5359"/><path d="M562.53,27.13h0V28h-1V19.12h1v3.94h0a2.27,2.27,0,0,1,2.07-1.2,2.2,2.2,0,0,1,1.81.81,3.33,3.33,0,0,1,.65,2.16,3.72,3.72,0,0,1-.73,2.41,2.44,2.44,0,0,1-2,.91A2,2,0,0,1,562.53,27.13Zm0-2.42v.84a1.78,1.78,0,0,0,.48,1.26,1.72,1.72,0,0,0,2.6-.15,3.06,3.06,0,0,0,.5-1.86,2.42,2.42,0,0,0-.46-1.57,1.53,1.53,0,0,0-1.25-.57,1.7,1.7,0,0,0-1.35.58A2.14,2.14,0,0,0,562.5,24.71Z" fill="#4d5359"/><path d="M573.42,25.24h-4.24a2.24,2.24,0,0,0,.54,1.55,1.86,1.86,0,0,0,1.42.54,3,3,0,0,0,1.86-.67v.9a3.48,3.48,0,0,1-2.09.57,2.54,2.54,0,0,1-2-.82,3.35,3.35,0,0,1-.73-2.3,3.28,3.28,0,0,1,.79-2.28,2.55,2.55,0,0,1,2-.88,2.26,2.26,0,0,1,1.82.76,3.18,3.18,0,0,1,.64,2.12Zm-1-.81a2,2,0,0,0-.4-1.29,1.37,1.37,0,0,0-1.1-.46,1.55,1.55,0,0,0-1.15.49,2.21,2.21,0,0,0-.59,1.27Z" fill="#4d5359"/><path d="M575.83,28h-1V19.12h1Z" fill="#4d5359"/><rect x="510" y="34" width="159" height="22" fill="#fff"/><path d="M519.24,50h-1V42.74A2.24,2.24,0,0,1,518,43a5.3,5.3,0,0,1-.48.28q-.27.14-.56.26a4.08,4.08,0,0,1-.58.19v-1a5.58,5.58,0,0,0,.67-.24q.35-.15.7-.33c.23-.12.45-.25.65-.39a5.14,5.14,0,0,0,.53-.4h.36Z" fill="#575757"/><path d="M509,33V57H670V33ZM669,56H510V34H669Z" fill="#9ba0a4"/><rect x="673" y="47" width="11" height="9" fill="url(#linear-gradient-5)"/><polygon points="675.33 49 682.39 49 678.86 53.74 675.33 49" fill="#575757"/><rect x="673" y="34" width="11" height="9" fill="url(#linear-gradient-6)"/><polygon points="682.39 41 675.33 41 678.86 36.26 682.39 41" fill="#575757"/><path d="M672,46V57h13V46Zm12,10H673V47h11Z" fill="#9ba0a4"/><path d="M685,44V33H672V44ZM673,34h11v9H673Z" fill="#9ba0a4"/><path d="M102.57,8.68V6.8a3.6,3.6,0,0,0,1.11.64,3.56,3.56,0,0,0,1.21.21,2.68,2.68,0,0,0,.62-.06,1.46,1.46,0,0,0,.45-.18.78.78,0,0,0,.27-.27.67.67,0,0,0,.09-.34.73.73,0,0,0-.14-.44,1.51,1.51,0,0,0-.38-.36,4,4,0,0,0-.58-.32l-.72-.31a3.68,3.68,0,0,1-1.47-1A2.19,2.19,0,0,1,102.54,3a2.28,2.28,0,0,1,.26-1.13,2.24,2.24,0,0,1,.72-.78A3.22,3.22,0,0,1,104.57.6a5.4,5.4,0,0,1,1.27-.14A7.61,7.61,0,0,1,107,.54a4.57,4.57,0,0,1,.93.24V2.53a2.83,2.83,0,0,0-.46-.26,3.64,3.64,0,0,0-.51-.18,3.91,3.91,0,0,0-.52-.11,3.71,3.71,0,0,0-.5,0,2.58,2.58,0,0,0-.59.06,1.5,1.5,0,0,0-.45.17.86.86,0,0,0-.28.27.63.63,0,0,0-.1.35.67.67,0,0,0,.11.38,1.28,1.28,0,0,0,.32.32,3.36,3.36,0,0,0,.5.29l.66.3a7.38,7.38,0,0,1,.91.45,3.22,3.22,0,0,1,.69.54,2.09,2.09,0,0,1,.44.68,2.41,2.41,0,0,1,.15.89A2.39,2.39,0,0,1,108,7.82a2.16,2.16,0,0,1-.72.77,3.14,3.14,0,0,1-1.06.42,6.15,6.15,0,0,1-1.28.13A7.12,7.12,0,0,1,103.66,9,4,4,0,0,1,102.57,8.68Z" fill="#4d5359"/><path d="M114.9,6.53H111q.09,1.31,1.65,1.31a3.21,3.21,0,0,0,1.74-.47V8.7a4.57,4.57,0,0,1-2.16.45A3,3,0,0,1,110,8.34a3,3,0,0,1-.8-2.25A3.21,3.21,0,0,1,110,3.73a2.89,2.89,0,0,1,2.13-.87,2.62,2.62,0,0,1,2,.78,3,3,0,0,1,.72,2.12Zm-1.72-1.14q0-1.29-1-1.29a1,1,0,0,0-.77.37,1.68,1.68,0,0,0-.4.92Z" fill="#4d5359"/><path d="M120.54,8.78a3.66,3.66,0,0,1-1.81.36,3.06,3.06,0,0,1-2.24-.84,2.89,2.89,0,0,1-.86-2.16,3.19,3.19,0,0,1,.92-2.41A3.39,3.39,0,0,1,119,2.85a3.15,3.15,0,0,1,1.54.28V4.71a2.11,2.11,0,0,0-1.29-.43,1.71,1.71,0,0,0-1.26.47A1.74,1.74,0,0,0,117.52,6,1.71,1.71,0,0,0,118,7.27a1.64,1.64,0,0,0,1.22.45,2.44,2.44,0,0,0,1.35-.43Z" fill="#4d5359"/><path d="M125.38,8.93a2.74,2.74,0,0,1-1.24.22q-2,0-2-2V4.37h-1V3h1V1.71L124,1.18V3h1.35V4.37H124V6.79q0,.94.74.94a1.25,1.25,0,0,0,.6-.17Z" fill="#4d5359"/><path d="M127.37,2.05a1.08,1.08,0,0,1-.77-.28.9.9,0,0,1-.3-.68.86.86,0,0,1,.3-.68,1.25,1.25,0,0,1,1.54,0,.87.87,0,0,1,.3.68.89.89,0,0,1-.3.69A1.1,1.1,0,0,1,127.37,2.05ZM128.28,9h-1.85V3h1.85Z" fill="#4d5359"/><path d="M132.7,9.15a3.23,3.23,0,0,1-2.36-.84A3,3,0,0,1,129.48,6a3,3,0,0,1,.89-2.33,3.37,3.37,0,0,1,2.41-.84,3.19,3.19,0,0,1,2.34.84A3,3,0,0,1,136,5.92a3.17,3.17,0,0,1-.88,2.36A3.26,3.26,0,0,1,132.7,9.15Zm0-4.87a1.23,1.23,0,0,0-1,.45A2,2,0,0,0,131.36,6q0,1.73,1.39,1.73T134.09,6Q134.09,4.27,132.74,4.27Z" fill="#4d5359"/><path d="M143,9h-1.85V5.67q0-1.39-1-1.39a1,1,0,0,0-.79.37,1.41,1.41,0,0,0-.31.94V9h-1.85V3H139v.95h0A2.12,2.12,0,0,1,141,2.85q2,0,2,2.47Z" fill="#4d5359"/><path d="M151.37,8.93a2.74,2.74,0,0,1-1.24.22q-2,0-2-2V4.37h-1V3h1V1.71L150,1.18V3h1.35V4.37H150V6.79q0,.94.74.94a1.25,1.25,0,0,0,.6-.17Z" fill="#4d5359"/><path d="M153.35,2.05a1.08,1.08,0,0,1-.77-.28.9.9,0,0,1-.3-.68.86.86,0,0,1,.3-.68,1.25,1.25,0,0,1,1.54,0,.87.87,0,0,1,.3.68.89.89,0,0,1-.3.69A1.1,1.1,0,0,1,153.35,2.05ZM154.27,9h-1.85V3h1.85Z" fill="#4d5359"/><path d="M159.45,8.93a2.74,2.74,0,0,1-1.24.22q-2,0-2-2V4.37h-1V3h1V1.71l1.85-.53V3h1.35V4.37H158.1V6.79q0,.94.74.94a1.25,1.25,0,0,0,.6-.17Z" fill="#4d5359"/><path d="M162.35,9h-1.85V.12h1.85Z" fill="#4d5359"/><path d="M169.29,6.53h-3.91q.09,1.31,1.65,1.31a3.21,3.21,0,0,0,1.74-.47V8.7a4.57,4.57,0,0,1-2.16.45,3,3,0,0,1-2.26-.81,3,3,0,0,1-.8-2.25,3.21,3.21,0,0,1,.87-2.37,2.89,2.89,0,0,1,2.13-.87,2.62,2.62,0,0,1,2,.78,3,3,0,0,1,.72,2.12Zm-1.72-1.14q0-1.29-1-1.29a1,1,0,0,0-.77.37,1.68,1.68,0,0,0-.4.92Z" fill="#4d5359"/><path d="M509.57,8.68V6.8a3.6,3.6,0,0,0,1.11.64,3.56,3.56,0,0,0,1.21.21,2.68,2.68,0,0,0,.62-.06,1.46,1.46,0,0,0,.45-.18.78.78,0,0,0,.27-.27.67.67,0,0,0,.09-.34.73.73,0,0,0-.14-.44,1.51,1.51,0,0,0-.38-.36,4,4,0,0,0-.58-.32l-.72-.31a3.68,3.68,0,0,1-1.47-1A2.19,2.19,0,0,1,509.54,3a2.28,2.28,0,0,1,.26-1.13,2.24,2.24,0,0,1,.72-.78A3.22,3.22,0,0,1,511.57.6a5.4,5.4,0,0,1,1.27-.14A7.61,7.61,0,0,1,514,.54a4.57,4.57,0,0,1,.93.24V2.53a2.83,2.83,0,0,0-.46-.26,3.64,3.64,0,0,0-.51-.18,3.91,3.91,0,0,0-.52-.11,3.71,3.71,0,0,0-.5,0,2.58,2.58,0,0,0-.59.06,1.5,1.5,0,0,0-.45.17.86.86,0,0,0-.28.27.63.63,0,0,0-.1.35.67.67,0,0,0,.11.38,1.28,1.28,0,0,0,.32.32,3.36,3.36,0,0,0,.5.29l.66.3a7.38,7.38,0,0,1,.91.45,3.22,3.22,0,0,1,.69.54,2.09,2.09,0,0,1,.44.68,2.41,2.41,0,0,1,.15.89A2.39,2.39,0,0,1,515,7.82a2.16,2.16,0,0,1-.72.77,3.14,3.14,0,0,1-1.06.42,6.15,6.15,0,0,1-1.28.13A7.12,7.12,0,0,1,510.66,9,4,4,0,0,1,509.57,8.68Z" fill="#4d5359"/><path d="M521.9,6.53H518q.09,1.31,1.65,1.31a3.21,3.21,0,0,0,1.74-.47V8.7a4.57,4.57,0,0,1-2.16.45A3,3,0,0,1,517,8.34a3,3,0,0,1-.8-2.25A3.21,3.21,0,0,1,517,3.73a2.89,2.89,0,0,1,2.13-.87,2.62,2.62,0,0,1,2,.78,3,3,0,0,1,.72,2.12Zm-1.72-1.14q0-1.29-1-1.29a1,1,0,0,0-.77.37,1.68,1.68,0,0,0-.4.92Z" fill="#4d5359"/><path d="M527.54,8.78a3.66,3.66,0,0,1-1.81.36,3.06,3.06,0,0,1-2.24-.84,2.89,2.89,0,0,1-.86-2.16,3.19,3.19,0,0,1,.92-2.41A3.39,3.39,0,0,1,526,2.85a3.15,3.15,0,0,1,1.54.28V4.71a2.11,2.11,0,0,0-1.29-.43,1.71,1.71,0,0,0-1.26.47A1.74,1.74,0,0,0,524.52,6,1.71,1.71,0,0,0,525,7.27a1.64,1.64,0,0,0,1.22.45,2.44,2.44,0,0,0,1.35-.43Z" fill="#4d5359"/><path d="M532.38,8.93a2.74,2.74,0,0,1-1.24.22q-2,0-2-2V4.37h-1V3h1V1.71L531,1.18V3h1.35V4.37H531V6.79q0,.94.74.94a1.25,1.25,0,0,0,.6-.17Z" fill="#4d5359"/><path d="M534.37,2.05a1.08,1.08,0,0,1-.77-.28.9.9,0,0,1-.3-.68.86.86,0,0,1,.3-.68,1.25,1.25,0,0,1,1.54,0,.87.87,0,0,1,.3.68.89.89,0,0,1-.3.69A1.1,1.1,0,0,1,534.37,2.05ZM535.28,9h-1.85V3h1.85Z" fill="#4d5359"/><path d="M539.7,9.15a3.23,3.23,0,0,1-2.36-.84A3,3,0,0,1,536.48,6a3,3,0,0,1,.89-2.33,3.37,3.37,0,0,1,2.41-.84,3.19,3.19,0,0,1,2.34.84A3,3,0,0,1,543,5.92a3.17,3.17,0,0,1-.88,2.36A3.26,3.26,0,0,1,539.7,9.15Zm0-4.87a1.23,1.23,0,0,0-1,.45A2,2,0,0,0,538.36,6q0,1.73,1.39,1.73T541.09,6Q541.09,4.27,539.74,4.27Z" fill="#4d5359"/><path d="M550,9h-1.85V5.67q0-1.39-1-1.39a1,1,0,0,0-.79.37,1.41,1.41,0,0,0-.31.94V9h-1.85V3H546v.95h0A2.12,2.12,0,0,1,548,2.85q2,0,2,2.47Z" fill="#4d5359"/><path d="M558.37,8.93a2.74,2.74,0,0,1-1.24.22q-2,0-2-2V4.37h-1V3h1V1.71L557,1.18V3h1.35V4.37H557V6.79q0,.94.74.94a1.25,1.25,0,0,0,.6-.17Z" fill="#4d5359"/><path d="M560.35,2.05a1.08,1.08,0,0,1-.77-.28.9.9,0,0,1-.3-.68.86.86,0,0,1,.3-.68,1.25,1.25,0,0,1,1.54,0,.87.87,0,0,1,.3.68.89.89,0,0,1-.3.69A1.1,1.1,0,0,1,560.35,2.05ZM561.27,9h-1.85V3h1.85Z" fill="#4d5359"/><path d="M566.45,8.93a2.74,2.74,0,0,1-1.24.22q-2,0-2-2V4.37h-1V3h1V1.71l1.85-.53V3h1.35V4.37H565.1V6.79q0,.94.74.94a1.25,1.25,0,0,0,.6-.17Z" fill="#4d5359"/><path d="M569.35,9h-1.85V.12h1.85Z" fill="#4d5359"/><path d="M576.29,6.53h-3.91q.09,1.31,1.65,1.31a3.21,3.21,0,0,0,1.74-.47V8.7a4.57,4.57,0,0,1-2.16.45,3,3,0,0,1-2.26-.81,3,3,0,0,1-.8-2.25,3.21,3.21,0,0,1,.87-2.37,2.89,2.89,0,0,1,2.13-.87,2.62,2.62,0,0,1,2,.78,3,3,0,0,1,.72,2.12Zm-1.72-1.14q0-1.29-1-1.29a1,1,0,0,0-.77.37,1.68,1.68,0,0,0-.4.92Z" fill="#4d5359"/><path d="M108.82,75.65a4.93,4.93,0,0,1-2.32.49A3.74,3.74,0,0,1,103.63,75a4.26,4.26,0,0,1-1.08-3,4.46,4.46,0,0,1,1.21-3.26,4.12,4.12,0,0,1,3.08-1.24,4.93,4.93,0,0,1,2,.35v1a4,4,0,0,0-2-.5,3.06,3.06,0,0,0-2.35,1,3.64,3.64,0,0,0-.9,2.58,3.47,3.47,0,0,0,.84,2.45,2.86,2.86,0,0,0,2.21.91,4.14,4.14,0,0,0,2.19-.56Z" fill="#4d5359"/><path d="M112.91,76.14a2.78,2.78,0,0,1-2.12-.84,3.11,3.11,0,0,1-.79-2.23,3.24,3.24,0,0,1,.83-2.36,3,3,0,0,1,2.23-.85,2.69,2.69,0,0,1,2.09.83A3.28,3.28,0,0,1,115.9,73a3.22,3.22,0,0,1-.81,2.3A2.84,2.84,0,0,1,112.91,76.14Zm.07-5.47a1.83,1.83,0,0,0-1.46.63A2.59,2.59,0,0,0,111,73a2.45,2.45,0,0,0,.54,1.68,1.85,1.85,0,0,0,1.46.62,1.76,1.76,0,0,0,1.43-.6,2.62,2.62,0,0,0,.5-1.72,2.66,2.66,0,0,0-.5-1.73A1.75,1.75,0,0,0,113,70.67Z" fill="#4d5359"/><path d="M122.41,76h-1V72.58q0-1.91-1.39-1.91a1.51,1.51,0,0,0-1.19.54,2,2,0,0,0-.47,1.37V76h-1V70h1v1h0a2.17,2.17,0,0,1,2-1.14,1.84,1.84,0,0,1,1.51.64,2.83,2.83,0,0,1,.52,1.84Z" fill="#4d5359"/><path d="M127,75.94a1.85,1.85,0,0,1-.9.19q-1.58,0-1.58-1.76V70.82h-1V70h1V68.54l1-.31V70H127v.82H125.5V74.2a1.4,1.4,0,0,0,.21.86.82.82,0,0,0,.68.26,1,1,0,0,0,.63-.2Z" fill="#4d5359"/><path d="M131.42,71a1.18,1.18,0,0,0-.73-.19,1.23,1.23,0,0,0-1,.58,2.68,2.68,0,0,0-.41,1.58V76h-1V70h1v1.24h0a2.1,2.1,0,0,1,.63-1,1.43,1.43,0,0,1,.94-.35,1.57,1.57,0,0,1,.57.08Z" fill="#4d5359"/><path d="M134.81,76.14a2.78,2.78,0,0,1-2.12-.84,3.11,3.11,0,0,1-.79-2.23,3.24,3.24,0,0,1,.83-2.36,3,3,0,0,1,2.23-.85,2.69,2.69,0,0,1,2.09.83A3.28,3.28,0,0,1,137.8,73a3.22,3.22,0,0,1-.81,2.3A2.84,2.84,0,0,1,134.81,76.14Zm.07-5.47a1.83,1.83,0,0,0-1.46.63,2.59,2.59,0,0,0-.54,1.74,2.45,2.45,0,0,0,.54,1.68,1.85,1.85,0,0,0,1.46.62,1.76,1.76,0,0,0,1.43-.6,2.62,2.62,0,0,0,.5-1.72,2.66,2.66,0,0,0-.5-1.73A1.75,1.75,0,0,0,134.88,70.67Z" fill="#4d5359"/><path d="M140.3,76h-1V67.12h1Z" fill="#4d5359"/><path d="M146.49,76h-1V67.12h1Z" fill="#4d5359"/><path d="M152.73,76h-1v-.94h0a2,2,0,0,1-1.85,1.08,2,2,0,0,1-1.4-.47,1.64,1.64,0,0,1-.51-1.26q0-1.68,2-2l1.8-.25q0-1.53-1.24-1.53a3,3,0,0,0-2,.74v-1a3.72,3.72,0,0,1,2-.56q2.12,0,2.12,2.24Zm-1-3-1.45.2a2.35,2.35,0,0,0-1,.33,1,1,0,0,0-.34.84.92.92,0,0,0,.31.72,1.21,1.21,0,0,0,.83.28,1.54,1.54,0,0,0,1.18-.5,1.79,1.79,0,0,0,.47-1.27Z" fill="#4d5359"/><path d="M155.53,75.13h0V76h-1V67.12h1v3.94h0a2.27,2.27,0,0,1,2.07-1.2,2.2,2.2,0,0,1,1.81.81,3.33,3.33,0,0,1,.65,2.16,3.72,3.72,0,0,1-.73,2.41,2.44,2.44,0,0,1-2,.91A2,2,0,0,1,155.53,75.13Zm0-2.42v.84a1.78,1.78,0,0,0,.48,1.26,1.72,1.72,0,0,0,2.6-.15,3.06,3.06,0,0,0,.5-1.86,2.42,2.42,0,0,0-.46-1.57,1.53,1.53,0,0,0-1.25-.57,1.7,1.7,0,0,0-1.35.58A2.14,2.14,0,0,0,155.5,72.71Z" fill="#4d5359"/><path d="M166.42,73.24h-4.24a2.24,2.24,0,0,0,.54,1.55,1.86,1.86,0,0,0,1.42.54,3,3,0,0,0,1.86-.67v.9a3.48,3.48,0,0,1-2.09.57,2.54,2.54,0,0,1-2-.82,3.35,3.35,0,0,1-.73-2.3,3.28,3.28,0,0,1,.79-2.28,2.55,2.55,0,0,1,2-.88,2.26,2.26,0,0,1,1.82.76,3.18,3.18,0,0,1,.64,2.12Zm-1-.81a2,2,0,0,0-.4-1.29,1.37,1.37,0,0,0-1.1-.46,1.55,1.55,0,0,0-1.15.49,2.21,2.21,0,0,0-.59,1.27Z" fill="#4d5359"/><path d="M168.83,76h-1V67.12h1Z" fill="#4d5359"/><rect x="103" y="81" width="163" height="22" fill="#fff"/><path d="M112.24,97h-1V89.74A2.22,2.22,0,0,1,111,90a5.3,5.3,0,0,1-.48.28q-.27.14-.56.26a4.09,4.09,0,0,1-.58.19v-1a5.59,5.59,0,0,0,.67-.24q.35-.15.7-.33t.65-.39a5.14,5.14,0,0,0,.53-.4h.36Z" fill="#575757"/><path d="M102,80v24H267V80Zm164,23H103V81H266Z" fill="#9ba0a4"/><rect x="270" y="94" width="11" height="9" fill="url(#linear-gradient-7)"/><polygon points="272.32 96 279.39 96 275.86 100.74 272.32 96" fill="#575757"/><rect x="270" y="81" width="11" height="9" fill="url(#linear-gradient-8)"/><polygon points="279.39 88 272.32 88 275.86 83.26 279.39 88" fill="#575757"/><path d="M269,93v11h13V93Zm12,10H270V94h11Z" fill="#9ba0a4"/><path d="M282,91V80H269V91ZM270,81h11v9H270Z" fill="#9ba0a4"/><path d="M108.82,27.65a4.93,4.93,0,0,1-2.32.49A3.74,3.74,0,0,1,103.63,27a4.26,4.26,0,0,1-1.08-3,4.46,4.46,0,0,1,1.21-3.26,4.12,4.12,0,0,1,3.08-1.24,4.93,4.93,0,0,1,2,.35v1a4,4,0,0,0-2-.5,3.06,3.06,0,0,0-2.35,1,3.64,3.64,0,0,0-.9,2.58,3.47,3.47,0,0,0,.84,2.45,2.86,2.86,0,0,0,2.21.91,4.14,4.14,0,0,0,2.19-.56Z" fill="#4d5359"/><path d="M112.91,28.14a2.78,2.78,0,0,1-2.12-.84,3.11,3.11,0,0,1-.79-2.23,3.24,3.24,0,0,1,.83-2.36,3,3,0,0,1,2.23-.85,2.69,2.69,0,0,1,2.09.83A3.28,3.28,0,0,1,115.9,25a3.22,3.22,0,0,1-.81,2.3A2.84,2.84,0,0,1,112.91,28.14Zm.07-5.47a1.83,1.83,0,0,0-1.46.63A2.59,2.59,0,0,0,111,25a2.45,2.45,0,0,0,.54,1.68,1.85,1.85,0,0,0,1.46.62,1.76,1.76,0,0,0,1.43-.6,2.62,2.62,0,0,0,.5-1.72,2.66,2.66,0,0,0-.5-1.73A1.75,1.75,0,0,0,113,22.67Z" fill="#4d5359"/><path d="M122.41,28h-1V24.58q0-1.91-1.39-1.91a1.51,1.51,0,0,0-1.19.54,2,2,0,0,0-.47,1.37V28h-1V22h1v1h0a2.17,2.17,0,0,1,2-1.14,1.84,1.84,0,0,1,1.51.64,2.83,2.83,0,0,1,.52,1.84Z" fill="#4d5359"/><path d="M127,27.94a1.85,1.85,0,0,1-.9.19q-1.58,0-1.58-1.76V22.82h-1V22h1V20.54l1-.31V22H127v.82H125.5V26.2a1.4,1.4,0,0,0,.21.86.82.82,0,0,0,.68.26,1,1,0,0,0,.63-.2Z" fill="#4d5359"/><path d="M131.42,23a1.18,1.18,0,0,0-.73-.19,1.23,1.23,0,0,0-1,.58,2.68,2.68,0,0,0-.41,1.58V28h-1V22h1v1.24h0a2.1,2.1,0,0,1,.63-1,1.43,1.43,0,0,1,.94-.35,1.57,1.57,0,0,1,.57.08Z" fill="#4d5359"/><path d="M134.81,28.14a2.78,2.78,0,0,1-2.12-.84,3.11,3.11,0,0,1-.79-2.23,3.24,3.24,0,0,1,.83-2.36,3,3,0,0,1,2.23-.85,2.69,2.69,0,0,1,2.09.83A3.28,3.28,0,0,1,137.8,25a3.22,3.22,0,0,1-.81,2.3A2.84,2.84,0,0,1,134.81,28.14Zm.07-5.47a1.83,1.83,0,0,0-1.46.63,2.59,2.59,0,0,0-.54,1.74,2.45,2.45,0,0,0,.54,1.68,1.85,1.85,0,0,0,1.46.62,1.76,1.76,0,0,0,1.43-.6,2.62,2.62,0,0,0,.5-1.72,2.66,2.66,0,0,0-.5-1.73A1.75,1.75,0,0,0,134.88,22.67Z" fill="#4d5359"/><path d="M140.3,28h-1V19.12h1Z" fill="#4d5359"/><path d="M146.49,28h-1V19.12h1Z" fill="#4d5359"/><path d="M152.73,28h-1v-.94h0a2,2,0,0,1-1.85,1.08,2,2,0,0,1-1.4-.47,1.64,1.64,0,0,1-.51-1.26q0-1.68,2-2l1.8-.25q0-1.53-1.24-1.53a3,3,0,0,0-2,.74v-1a3.72,3.72,0,0,1,2-.56q2.12,0,2.12,2.24Zm-1-3-1.45.2a2.35,2.35,0,0,0-1,.33,1,1,0,0,0-.34.84.92.92,0,0,0,.31.72,1.21,1.21,0,0,0,.83.28,1.54,1.54,0,0,0,1.18-.5,1.79,1.79,0,0,0,.47-1.27Z" fill="#4d5359"/><path d="M155.53,27.13h0V28h-1V19.12h1v3.94h0a2.27,2.27,0,0,1,2.07-1.2,2.2,2.2,0,0,1,1.81.81,3.33,3.33,0,0,1,.65,2.16,3.72,3.72,0,0,1-.73,2.41,2.44,2.44,0,0,1-2,.91A2,2,0,0,1,155.53,27.13Zm0-2.42v.84a1.78,1.78,0,0,0,.48,1.26,1.72,1.72,0,0,0,2.6-.15,3.06,3.06,0,0,0,.5-1.86,2.42,2.42,0,0,0-.46-1.57,1.53,1.53,0,0,0-1.25-.57,1.7,1.7,0,0,0-1.35.58A2.14,2.14,0,0,0,155.5,24.71Z" fill="#4d5359"/><path d="M166.42,25.24h-4.24a2.24,2.24,0,0,0,.54,1.55,1.86,1.86,0,0,0,1.42.54,3,3,0,0,0,1.86-.67v.9a3.48,3.48,0,0,1-2.09.57,2.54,2.54,0,0,1-2-.82,3.35,3.35,0,0,1-.73-2.3,3.28,3.28,0,0,1,.79-2.28,2.55,2.55,0,0,1,2-.88,2.26,2.26,0,0,1,1.82.76,3.18,3.18,0,0,1,.64,2.12Zm-1-.81a2,2,0,0,0-.4-1.29,1.37,1.37,0,0,0-1.1-.46,1.55,1.55,0,0,0-1.15.49,2.21,2.21,0,0,0-.59,1.27Z" fill="#4d5359"/><path d="M168.83,28h-1V19.12h1Z" fill="#4d5359"/><rect x="103" y="34" width="163" height="22" fill="#fff"/><path d="M114,45.76a8.25,8.25,0,0,1-.19,1.87,4.36,4.36,0,0,1-.55,1.37,2.48,2.48,0,0,1-.88.85,2.42,2.42,0,0,1-1.19.29,2.26,2.26,0,0,1-1.13-.28,2.36,2.36,0,0,1-.83-.81,4.11,4.11,0,0,1-.52-1.31A8.1,8.1,0,0,1,108.5,46a9.17,9.17,0,0,1,.18-1.95,4.45,4.45,0,0,1,.54-1.42,2.41,2.41,0,0,1,.89-.86,2.49,2.49,0,0,1,1.22-.29Q114,41.46,114,45.76Zm-1,.09q0-3.59-1.71-3.59t-1.8,3.65q0,3.4,1.76,3.4T113,45.86Z" fill="#575757"/><path d="M102,33V57H267V33ZM266,56H103V34H266Z" fill="#9ba0a4"/><rect x="270" y="47" width="11" height="9" fill="url(#linear-gradient-9)"/><polygon points="272.32 49 279.39 49 275.86 53.74 272.32 49" fill="#575757"/><rect x="270" y="34" width="11" height="9" fill="url(#linear-gradient-10)"/><polygon points="279.39 41 272.32 41 275.86 36.26 279.39 41" fill="#575757"/><path d="M269,46V57h13V46Zm12,10H270V47h11Z" fill="#9ba0a4"/><path d="M282,44V33H269V44ZM270,34h11v9H270Z" fill="#9ba0a4"/><path d="M80.46,66h-.88V59.35a2.1,2.1,0,0,1-.3.23,4.82,4.82,0,0,1-.44.26l-.52.24a3.74,3.74,0,0,1-.53.18v-.89a5.41,5.41,0,0,0,.62-.22c.22-.09.43-.19.64-.31s.41-.23.59-.35a4.57,4.57,0,0,0,.48-.36h.33Z" fill="#ec008c"/><path d="M88,62.12a7.57,7.57,0,0,1-.17,1.71,4,4,0,0,1-.5,1.26,2.26,2.26,0,0,1-.81.78,2.22,2.22,0,0,1-1.09.27,2.07,2.07,0,0,1-1-.26,2.17,2.17,0,0,1-.77-.74,3.75,3.75,0,0,1-.47-1.2A7.42,7.42,0,0,1,83,62.3a8.44,8.44,0,0,1,.17-1.78,4.08,4.08,0,0,1,.5-1.3,2.21,2.21,0,0,1,.81-.79,2.29,2.29,0,0,1,1.12-.27Q88,58.17,88,62.12Zm-.9.09q0-3.29-1.56-3.29t-1.65,3.35q0,3.12,1.62,3.12T87.08,62.2Z" fill="#ec008c"/><path d="M80.46,18h-.88V11.35a2.1,2.1,0,0,1-.3.23,4.82,4.82,0,0,1-.44.26l-.52.24a3.74,3.74,0,0,1-.53.18v-.89a5.41,5.41,0,0,0,.62-.22c.22-.09.43-.19.64-.31s.41-.23.59-.35a4.57,4.57,0,0,0,.48-.36h.33Z" fill="#ec008c"/><path d="M88,14.12a7.57,7.57,0,0,1-.17,1.71,4,4,0,0,1-.5,1.26,2.26,2.26,0,0,1-.81.78,2.22,2.22,0,0,1-1.09.27,2.07,2.07,0,0,1-1-.26,2.17,2.17,0,0,1-.77-.74,3.75,3.75,0,0,1-.47-1.2A7.42,7.42,0,0,1,83,14.3a8.44,8.44,0,0,1,.17-1.78,4.08,4.08,0,0,1,.5-1.3,2.21,2.21,0,0,1,.81-.79,2.29,2.29,0,0,1,1.12-.27Q88,10.17,88,14.12Zm-.9.09q0-3.29-1.56-3.29t-1.65,3.35q0,3.12,1.62,3.12T87.08,14.2Z" fill="#ec008c"/><path d="M108.82,122.65a4.93,4.93,0,0,1-2.32.49,3.74,3.74,0,0,1-2.87-1.15,4.26,4.26,0,0,1-1.08-3,4.46,4.46,0,0,1,1.21-3.26,4.12,4.12,0,0,1,3.08-1.24,4.93,4.93,0,0,1,2,.35v1a4,4,0,0,0-2-.5,3.06,3.06,0,0,0-2.35,1,3.64,3.64,0,0,0-.9,2.58,3.47,3.47,0,0,0,.84,2.45,2.86,2.86,0,0,0,2.21.91,4.14,4.14,0,0,0,2.19-.56Z" fill="#4d5359"/><path d="M112.91,123.14a2.78,2.78,0,0,1-2.12-.84,3.11,3.11,0,0,1-.79-2.23,3.24,3.24,0,0,1,.83-2.36,3,3,0,0,1,2.23-.85,2.69,2.69,0,0,1,2.09.83,3.28,3.28,0,0,1,.75,2.29,3.22,3.22,0,0,1-.81,2.3A2.84,2.84,0,0,1,112.91,123.14Zm.07-5.47a1.83,1.83,0,0,0-1.46.63A2.59,2.59,0,0,0,111,120a2.45,2.45,0,0,0,.54,1.68,1.85,1.85,0,0,0,1.46.62,1.76,1.76,0,0,0,1.43-.6,2.62,2.62,0,0,0,.5-1.72,2.66,2.66,0,0,0-.5-1.73A1.75,1.75,0,0,0,113,117.67Z" fill="#4d5359"/><path d="M122.41,123h-1v-3.42q0-1.91-1.39-1.91a1.51,1.51,0,0,0-1.19.54,2,2,0,0,0-.47,1.37V123h-1v-6h1v1h0a2.17,2.17,0,0,1,2-1.14,1.84,1.84,0,0,1,1.51.64,2.83,2.83,0,0,1,.52,1.84Z" fill="#4d5359"/><path d="M127,122.94a1.85,1.85,0,0,1-.9.19q-1.58,0-1.58-1.76v-3.55h-1V117h1v-1.46l1-.31V117H127v.82H125.5v3.38a1.4,1.4,0,0,0,.21.86.82.82,0,0,0,.68.26,1,1,0,0,0,.63-.2Z" fill="#4d5359"/><path d="M131.42,118a1.18,1.18,0,0,0-.73-.19,1.23,1.23,0,0,0-1,.58,2.68,2.68,0,0,0-.41,1.58V123h-1v-6h1v1.24h0a2.1,2.1,0,0,1,.63-1,1.43,1.43,0,0,1,.94-.35,1.57,1.57,0,0,1,.57.08Z" fill="#4d5359"/><path d="M134.81,123.14a2.78,2.78,0,0,1-2.12-.84,3.11,3.11,0,0,1-.79-2.23,3.24,3.24,0,0,1,.83-2.36,3,3,0,0,1,2.23-.85,2.69,2.69,0,0,1,2.09.83,3.28,3.28,0,0,1,.75,2.29,3.22,3.22,0,0,1-.81,2.3A2.84,2.84,0,0,1,134.81,123.14Zm.07-5.47a1.83,1.83,0,0,0-1.46.63,2.59,2.59,0,0,0-.54,1.74,2.45,2.45,0,0,0,.54,1.68,1.85,1.85,0,0,0,1.46.62,1.76,1.76,0,0,0,1.43-.6,2.62,2.62,0,0,0,.5-1.72,2.66,2.66,0,0,0-.5-1.73A1.75,1.75,0,0,0,134.88,117.67Z" fill="#4d5359"/><path d="M140.3,123h-1v-8.88h1Z" fill="#4d5359"/><path d="M146.49,123h-1v-8.88h1Z" fill="#4d5359"/><path d="M152.73,123h-1v-.94h0a2,2,0,0,1-1.85,1.08,2,2,0,0,1-1.4-.47,1.64,1.64,0,0,1-.51-1.26q0-1.68,2-2l1.8-.25q0-1.53-1.24-1.53a3,3,0,0,0-2,.74v-1a3.72,3.72,0,0,1,2-.56q2.12,0,2.12,2.24Zm-1-3-1.45.2a2.35,2.35,0,0,0-1,.33,1,1,0,0,0-.34.84.92.92,0,0,0,.31.72,1.21,1.21,0,0,0,.83.28,1.54,1.54,0,0,0,1.18-.5,1.79,1.79,0,0,0,.47-1.27Z" fill="#4d5359"/><path d="M155.53,122.13h0V123h-1v-8.88h1v3.94h0a2.27,2.27,0,0,1,2.07-1.2,2.2,2.2,0,0,1,1.81.81,3.33,3.33,0,0,1,.65,2.16,3.72,3.72,0,0,1-.73,2.41,2.44,2.44,0,0,1-2,.91A2,2,0,0,1,155.53,122.13Zm0-2.42v.84a1.78,1.78,0,0,0,.48,1.26,1.72,1.72,0,0,0,2.6-.15,3.06,3.06,0,0,0,.5-1.86,2.42,2.42,0,0,0-.46-1.57,1.53,1.53,0,0,0-1.25-.57,1.7,1.7,0,0,0-1.35.58A2.14,2.14,0,0,0,155.5,119.71Z" fill="#4d5359"/><path d="M166.42,120.24h-4.24a2.24,2.24,0,0,0,.54,1.55,1.86,1.86,0,0,0,1.42.54,3,3,0,0,0,1.86-.67v.9a3.48,3.48,0,0,1-2.09.57,2.54,2.54,0,0,1-2-.82,3.35,3.35,0,0,1-.73-2.3,3.28,3.28,0,0,1,.79-2.28,2.55,2.55,0,0,1,2-.88,2.26,2.26,0,0,1,1.82.76,3.18,3.18,0,0,1,.64,2.12Zm-1-.81a2,2,0,0,0-.4-1.29,1.37,1.37,0,0,0-1.1-.46,1.55,1.55,0,0,0-1.15.49,2.21,2.21,0,0,0-.59,1.27Z" fill="#4d5359"/><path d="M168.83,123h-1v-8.88h1Z" fill="#4d5359"/><rect x="103" y="129" width="163" height="22" fill="#fff"/><path d="M112.24,145h-1v-7.26a2.22,2.22,0,0,1-.33.25,5.3,5.3,0,0,1-.48.28q-.27.14-.56.26a4.09,4.09,0,0,1-.58.19v-1a5.59,5.59,0,0,0,.67-.24q.35-.15.7-.33t.65-.39a5.14,5.14,0,0,0,.53-.4h.36Z" fill="#575757"/><path d="M102,128v24H267V128Zm164,23H103V129H266Z" fill="#9ba0a4"/><rect x="270" y="142" width="11" height="9" fill="url(#linear-gradient-11)"/><polygon points="272.32 144 279.39 144 275.86 148.74 272.32 144" fill="#575757"/><rect x="270" y="129" width="11" height="9" fill="url(#linear-gradient-12)"/><polygon points="279.39 136 272.32 136 275.86 131.26 279.39 136" fill="#575757"/><path d="M269,141v11h13V141Zm12,10H270v-9h11Z" fill="#9ba0a4"/><path d="M282,139V128H269v11Zm-12-10h11v9H270Z" fill="#9ba0a4"/><path d="M87.71,31.65a2.59,2.59,0,0,1-.19,1,2.23,2.23,0,0,1-.55.78,2.46,2.46,0,0,1-.86.5,3.37,3.37,0,0,1-1.12.18,3.1,3.1,0,0,1-1.6-.32v-.94a2.93,2.93,0,0,0,1.61.51,2.18,2.18,0,0,0,.75-.12,1.68,1.68,0,0,0,.57-.34,1.47,1.47,0,0,0,.36-.53,1.8,1.8,0,0,0,.13-.68,1.46,1.46,0,0,0-.51-1.18,2.21,2.21,0,0,0-1.47-.43h-.67l-.34,0-.3,0,.26-3.86h3.56v.79h-2.8l-.16,2.26.37,0h.34a3.46,3.46,0,0,1,1.1.16,2.32,2.32,0,0,1,.82.46,1.93,1.93,0,0,1,.51.73A2.57,2.57,0,0,1,87.71,31.65Z" fill="#ec008c"/><path d="M298.82,122.65a4.93,4.93,0,0,1-2.32.49,3.74,3.74,0,0,1-2.87-1.15,4.26,4.26,0,0,1-1.08-3,4.46,4.46,0,0,1,1.21-3.26,4.12,4.12,0,0,1,3.08-1.24,4.93,4.93,0,0,1,2,.35v1a4,4,0,0,0-2-.5,3.06,3.06,0,0,0-2.35,1,3.64,3.64,0,0,0-.9,2.58,3.47,3.47,0,0,0,.84,2.45,2.86,2.86,0,0,0,2.21.91,4.14,4.14,0,0,0,2.19-.56Z" fill="#4d5359"/><path d="M302.91,123.14a2.78,2.78,0,0,1-2.12-.84,3.11,3.11,0,0,1-.79-2.23,3.24,3.24,0,0,1,.83-2.36,3,3,0,0,1,2.23-.85,2.69,2.69,0,0,1,2.09.83,3.28,3.28,0,0,1,.75,2.29,3.22,3.22,0,0,1-.81,2.3A2.84,2.84,0,0,1,302.91,123.14Zm.07-5.47a1.83,1.83,0,0,0-1.46.63A2.59,2.59,0,0,0,301,120a2.45,2.45,0,0,0,.54,1.68,1.85,1.85,0,0,0,1.46.62,1.76,1.76,0,0,0,1.43-.6,2.62,2.62,0,0,0,.5-1.72,2.66,2.66,0,0,0-.5-1.73A1.75,1.75,0,0,0,303,117.67Z" fill="#4d5359"/><path d="M312.41,123h-1v-3.42q0-1.91-1.39-1.91a1.51,1.51,0,0,0-1.19.54,2,2,0,0,0-.47,1.37V123h-1v-6h1v1h0a2.17,2.17,0,0,1,2-1.14,1.84,1.84,0,0,1,1.51.64,2.83,2.83,0,0,1,.52,1.84Z" fill="#4d5359"/><path d="M317,122.94a1.85,1.85,0,0,1-.9.19q-1.58,0-1.58-1.76v-3.55h-1V117h1v-1.46l1-.31V117H317v.82H315.5v3.38a1.4,1.4,0,0,0,.21.86.82.82,0,0,0,.68.26,1,1,0,0,0,.63-.2Z" fill="#4d5359"/><path d="M321.42,118a1.18,1.18,0,0,0-.73-.19,1.23,1.23,0,0,0-1,.58,2.68,2.68,0,0,0-.41,1.58V123h-1v-6h1v1.24h0a2.1,2.1,0,0,1,.63-1,1.43,1.43,0,0,1,.94-.35,1.57,1.57,0,0,1,.57.08Z" fill="#4d5359"/><path d="M324.81,123.14a2.78,2.78,0,0,1-2.12-.84,3.11,3.11,0,0,1-.79-2.23,3.24,3.24,0,0,1,.83-2.36,3,3,0,0,1,2.23-.85,2.69,2.69,0,0,1,2.09.83,3.28,3.28,0,0,1,.75,2.29,3.22,3.22,0,0,1-.81,2.3A2.84,2.84,0,0,1,324.81,123.14Zm.07-5.47a1.83,1.83,0,0,0-1.46.63,2.59,2.59,0,0,0-.54,1.74,2.45,2.45,0,0,0,.54,1.68,1.85,1.85,0,0,0,1.46.62,1.76,1.76,0,0,0,1.43-.6,2.62,2.62,0,0,0,.5-1.72,2.66,2.66,0,0,0-.5-1.73A1.75,1.75,0,0,0,324.88,117.67Z" fill="#4d5359"/><path d="M330.3,123h-1v-8.88h1Z" fill="#4d5359"/><path d="M336.49,123h-1v-8.88h1Z" fill="#4d5359"/><path d="M342.73,123h-1v-.94h0a2,2,0,0,1-1.85,1.08,2,2,0,0,1-1.4-.47,1.64,1.64,0,0,1-.51-1.26q0-1.68,2-2l1.8-.25q0-1.53-1.24-1.53a3,3,0,0,0-2,.74v-1a3.72,3.72,0,0,1,2-.56q2.12,0,2.12,2.24Zm-1-3-1.45.2a2.35,2.35,0,0,0-1,.33,1,1,0,0,0-.34.84.92.92,0,0,0,.31.72,1.21,1.21,0,0,0,.83.28,1.54,1.54,0,0,0,1.18-.5,1.79,1.79,0,0,0,.47-1.27Z" fill="#4d5359"/><path d="M345.53,122.13h0V123h-1v-8.88h1v3.94h0a2.27,2.27,0,0,1,2.07-1.2,2.2,2.2,0,0,1,1.81.81,3.33,3.33,0,0,1,.65,2.16,3.72,3.72,0,0,1-.73,2.41,2.44,2.44,0,0,1-2,.91A2,2,0,0,1,345.53,122.13Zm0-2.42v.84a1.78,1.78,0,0,0,.48,1.26,1.72,1.72,0,0,0,2.6-.15,3.06,3.06,0,0,0,.5-1.86,2.42,2.42,0,0,0-.46-1.57,1.53,1.53,0,0,0-1.25-.57,1.7,1.7,0,0,0-1.35.58A2.14,2.14,0,0,0,345.5,119.71Z" fill="#4d5359"/><path d="M356.42,120.24h-4.24a2.24,2.24,0,0,0,.54,1.55,1.86,1.86,0,0,0,1.42.54,3,3,0,0,0,1.86-.67v.9a3.48,3.48,0,0,1-2.09.57,2.54,2.54,0,0,1-2-.82,3.35,3.35,0,0,1-.73-2.3,3.28,3.28,0,0,1,.79-2.28,2.55,2.55,0,0,1,2-.88,2.26,2.26,0,0,1,1.82.76,3.18,3.18,0,0,1,.64,2.12Zm-1-.81a2,2,0,0,0-.4-1.29,1.37,1.37,0,0,0-1.1-.46,1.55,1.55,0,0,0-1.15.49,2.21,2.21,0,0,0-.59,1.27Z" fill="#4d5359"/><path d="M358.83,123h-1v-8.88h1Z" fill="#4d5359"/><rect x="293" y="129" width="159" height="22" fill="#fff"/><path d="M302.24,145h-1v-7.26a2.24,2.24,0,0,1-.33.25,5.3,5.3,0,0,1-.48.28q-.27.14-.56.26a4.08,4.08,0,0,1-.58.19v-1a5.58,5.58,0,0,0,.67-.24q.35-.15.7-.33c.23-.12.45-.25.65-.39a5.14,5.14,0,0,0,.53-.4h.36Z" fill="#575757"/><path d="M292,128v24H453V128Zm160,23H293V129H452Z" fill="#9ba0a4"/><rect x="456" y="142" width="11" height="9" fill="url(#linear-gradient-13)"/><polygon points="458.32 144 465.39 144 461.86 148.74 458.32 144" fill="#575757"/><rect x="456" y="129" width="11" height="9" fill="url(#linear-gradient-14)"/><polygon points="465.39 136 458.32 136 461.86 131.26 465.39 136" fill="#575757"/><path d="M455,141v11h13V141Zm12,10H456v-9h11Z" fill="#9ba0a4"/><path d="M468,139V128H455v11Zm-12-10h11v9H456Z" fill="#9ba0a4"/><path d="M298.82,74.65a4.93,4.93,0,0,1-2.32.49A3.74,3.74,0,0,1,293.63,74a4.26,4.26,0,0,1-1.08-3,4.46,4.46,0,0,1,1.21-3.26,4.12,4.12,0,0,1,3.08-1.24,4.93,4.93,0,0,1,2,.35v1a4,4,0,0,0-2-.5,3.06,3.06,0,0,0-2.35,1,3.64,3.64,0,0,0-.9,2.58,3.47,3.47,0,0,0,.84,2.45,2.86,2.86,0,0,0,2.21.91,4.14,4.14,0,0,0,2.19-.56Z" fill="#4d5359"/><path d="M302.91,75.14a2.78,2.78,0,0,1-2.12-.84,3.11,3.11,0,0,1-.79-2.23,3.24,3.24,0,0,1,.83-2.36,3,3,0,0,1,2.23-.85,2.69,2.69,0,0,1,2.09.83A3.28,3.28,0,0,1,305.9,72a3.22,3.22,0,0,1-.81,2.3A2.84,2.84,0,0,1,302.91,75.14Zm.07-5.47a1.83,1.83,0,0,0-1.46.63A2.59,2.59,0,0,0,301,72a2.45,2.45,0,0,0,.54,1.68,1.85,1.85,0,0,0,1.46.62,1.76,1.76,0,0,0,1.43-.6,2.62,2.62,0,0,0,.5-1.72,2.66,2.66,0,0,0-.5-1.73A1.75,1.75,0,0,0,303,69.67Z" fill="#4d5359"/><path d="M312.41,75h-1V71.58q0-1.91-1.39-1.91a1.51,1.51,0,0,0-1.19.54,2,2,0,0,0-.47,1.37V75h-1V69h1v1h0a2.17,2.17,0,0,1,2-1.14,1.84,1.84,0,0,1,1.51.64,2.83,2.83,0,0,1,.52,1.84Z" fill="#4d5359"/><path d="M317,74.94a1.85,1.85,0,0,1-.9.19q-1.58,0-1.58-1.76V69.82h-1V69h1V67.54l1-.31V69H317v.82H315.5V73.2a1.4,1.4,0,0,0,.21.86.82.82,0,0,0,.68.26,1,1,0,0,0,.63-.2Z" fill="#4d5359"/><path d="M321.42,70a1.18,1.18,0,0,0-.73-.19,1.23,1.23,0,0,0-1,.58,2.68,2.68,0,0,0-.41,1.58V75h-1V69h1v1.24h0a2.1,2.1,0,0,1,.63-1,1.43,1.43,0,0,1,.94-.35,1.57,1.57,0,0,1,.57.08Z" fill="#4d5359"/><path d="M324.81,75.14a2.78,2.78,0,0,1-2.12-.84,3.11,3.11,0,0,1-.79-2.23,3.24,3.24,0,0,1,.83-2.36,3,3,0,0,1,2.23-.85,2.69,2.69,0,0,1,2.09.83A3.28,3.28,0,0,1,327.8,72a3.22,3.22,0,0,1-.81,2.3A2.84,2.84,0,0,1,324.81,75.14Zm.07-5.47a1.83,1.83,0,0,0-1.46.63,2.59,2.59,0,0,0-.54,1.74,2.45,2.45,0,0,0,.54,1.68,1.85,1.85,0,0,0,1.46.62,1.76,1.76,0,0,0,1.43-.6,2.62,2.62,0,0,0,.5-1.72,2.66,2.66,0,0,0-.5-1.73A1.75,1.75,0,0,0,324.88,69.67Z" fill="#4d5359"/><path d="M330.3,75h-1V66.12h1Z" fill="#4d5359"/><path d="M336.49,75h-1V66.12h1Z" fill="#4d5359"/><path d="M342.73,75h-1v-.94h0a2,2,0,0,1-1.85,1.08,2,2,0,0,1-1.4-.47,1.64,1.64,0,0,1-.51-1.26q0-1.68,2-2l1.8-.25q0-1.53-1.24-1.53a3,3,0,0,0-2,.74v-1a3.72,3.72,0,0,1,2-.56q2.12,0,2.12,2.24Zm-1-3-1.45.2a2.35,2.35,0,0,0-1,.33,1,1,0,0,0-.34.84.92.92,0,0,0,.31.72,1.21,1.21,0,0,0,.83.28,1.54,1.54,0,0,0,1.18-.5,1.79,1.79,0,0,0,.47-1.27Z" fill="#4d5359"/><path d="M345.53,74.13h0V75h-1V66.12h1v3.94h0a2.27,2.27,0,0,1,2.07-1.2,2.2,2.2,0,0,1,1.81.81,3.33,3.33,0,0,1,.65,2.16,3.72,3.72,0,0,1-.73,2.41,2.44,2.44,0,0,1-2,.91A2,2,0,0,1,345.53,74.13Zm0-2.42v.84a1.78,1.78,0,0,0,.48,1.26,1.72,1.72,0,0,0,2.6-.15,3.06,3.06,0,0,0,.5-1.86,2.42,2.42,0,0,0-.46-1.57,1.53,1.53,0,0,0-1.25-.57,1.7,1.7,0,0,0-1.35.58A2.14,2.14,0,0,0,345.5,71.71Z" fill="#4d5359"/><path d="M356.42,72.24h-4.24a2.24,2.24,0,0,0,.54,1.55,1.86,1.86,0,0,0,1.42.54,3,3,0,0,0,1.86-.67v.9a3.48,3.48,0,0,1-2.09.57,2.54,2.54,0,0,1-2-.82,3.35,3.35,0,0,1-.73-2.3,3.28,3.28,0,0,1,.79-2.28,2.55,2.55,0,0,1,2-.88,2.26,2.26,0,0,1,1.82.76,3.18,3.18,0,0,1,.64,2.12Zm-1-.81a2,2,0,0,0-.4-1.29,1.37,1.37,0,0,0-1.1-.46,1.55,1.55,0,0,0-1.15.49,2.21,2.21,0,0,0-.59,1.27Z" fill="#4d5359"/><path d="M358.83,75h-1V66.12h1Z" fill="#4d5359"/><rect x="293" y="81" width="159" height="22" fill="#fff"/><path d="M302.24,97h-1V89.74A2.24,2.24,0,0,1,301,90a5.3,5.3,0,0,1-.48.28q-.27.14-.56.26a4.08,4.08,0,0,1-.58.19v-1a5.58,5.58,0,0,0,.67-.24q.35-.15.7-.33c.23-.12.45-.25.65-.39a5.14,5.14,0,0,0,.53-.4h.36Z" fill="#575757"/><path d="M292,80v24H453V80Zm160,23H293V81H452Z" fill="#9ba0a4"/><rect x="456" y="94" width="11" height="9" fill="url(#linear-gradient-15)"/><polygon points="458.32 96 465.39 96 461.86 100.74 458.32 96" fill="#575757"/><rect x="456" y="81" width="11" height="9" fill="url(#linear-gradient-16)"/><polygon points="465.39 88 458.32 88 461.86 83.26 465.39 88" fill="#575757"/><path d="M455,93v11h13V93Zm12,10H456V94h11Z" fill="#9ba0a4"/><path d="M468,91V80H455V91ZM456,81h11v9H456Z" fill="#9ba0a4"/><path d="M298.82,27.65a4.93,4.93,0,0,1-2.32.49A3.74,3.74,0,0,1,293.63,27a4.26,4.26,0,0,1-1.08-3,4.46,4.46,0,0,1,1.21-3.26,4.12,4.12,0,0,1,3.08-1.24,4.93,4.93,0,0,1,2,.35v1a4,4,0,0,0-2-.5,3.06,3.06,0,0,0-2.35,1,3.64,3.64,0,0,0-.9,2.58,3.47,3.47,0,0,0,.84,2.45,2.86,2.86,0,0,0,2.21.91,4.14,4.14,0,0,0,2.19-.56Z" fill="#4d5359"/><path d="M302.91,28.14a2.78,2.78,0,0,1-2.12-.84,3.11,3.11,0,0,1-.79-2.23,3.24,3.24,0,0,1,.83-2.36,3,3,0,0,1,2.23-.85,2.69,2.69,0,0,1,2.09.83A3.28,3.28,0,0,1,305.9,25a3.22,3.22,0,0,1-.81,2.3A2.84,2.84,0,0,1,302.91,28.14Zm.07-5.47a1.83,1.83,0,0,0-1.46.63A2.59,2.59,0,0,0,301,25a2.45,2.45,0,0,0,.54,1.68,1.85,1.85,0,0,0,1.46.62,1.76,1.76,0,0,0,1.43-.6,2.62,2.62,0,0,0,.5-1.72,2.66,2.66,0,0,0-.5-1.73A1.75,1.75,0,0,0,303,22.67Z" fill="#4d5359"/><path d="M312.41,28h-1V24.58q0-1.91-1.39-1.91a1.51,1.51,0,0,0-1.19.54,2,2,0,0,0-.47,1.37V28h-1V22h1v1h0a2.17,2.17,0,0,1,2-1.14,1.84,1.84,0,0,1,1.51.64,2.83,2.83,0,0,1,.52,1.84Z" fill="#4d5359"/><path d="M317,27.94a1.85,1.85,0,0,1-.9.19q-1.58,0-1.58-1.76V22.82h-1V22h1V20.54l1-.31V22H317v.82H315.5V26.2a1.4,1.4,0,0,0,.21.86.82.82,0,0,0,.68.26,1,1,0,0,0,.63-.2Z" fill="#4d5359"/><path d="M321.42,23a1.18,1.18,0,0,0-.73-.19,1.23,1.23,0,0,0-1,.58,2.68,2.68,0,0,0-.41,1.58V28h-1V22h1v1.24h0a2.1,2.1,0,0,1,.63-1,1.43,1.43,0,0,1,.94-.35,1.57,1.57,0,0,1,.57.08Z" fill="#4d5359"/><path d="M324.81,28.14a2.78,2.78,0,0,1-2.12-.84,3.11,3.11,0,0,1-.79-2.23,3.24,3.24,0,0,1,.83-2.36,3,3,0,0,1,2.23-.85,2.69,2.69,0,0,1,2.09.83A3.28,3.28,0,0,1,327.8,25a3.22,3.22,0,0,1-.81,2.3A2.84,2.84,0,0,1,324.81,28.14Zm.07-5.47a1.83,1.83,0,0,0-1.46.63,2.59,2.59,0,0,0-.54,1.74,2.45,2.45,0,0,0,.54,1.68,1.85,1.85,0,0,0,1.46.62,1.76,1.76,0,0,0,1.43-.6,2.62,2.62,0,0,0,.5-1.72,2.66,2.66,0,0,0-.5-1.73A1.75,1.75,0,0,0,324.88,22.67Z" fill="#4d5359"/><path d="M330.3,28h-1V19.12h1Z" fill="#4d5359"/><path d="M336.49,28h-1V19.12h1Z" fill="#4d5359"/><path d="M342.73,28h-1v-.94h0a2,2,0,0,1-1.85,1.08,2,2,0,0,1-1.4-.47,1.64,1.64,0,0,1-.51-1.26q0-1.68,2-2l1.8-.25q0-1.53-1.24-1.53a3,3,0,0,0-2,.74v-1a3.72,3.72,0,0,1,2-.56q2.12,0,2.12,2.24Zm-1-3-1.45.2a2.35,2.35,0,0,0-1,.33,1,1,0,0,0-.34.84.92.92,0,0,0,.31.72,1.21,1.21,0,0,0,.83.28,1.54,1.54,0,0,0,1.18-.5,1.79,1.79,0,0,0,.47-1.27Z" fill="#4d5359"/><path d="M345.53,27.13h0V28h-1V19.12h1v3.94h0a2.27,2.27,0,0,1,2.07-1.2,2.2,2.2,0,0,1,1.81.81,3.33,3.33,0,0,1,.65,2.16,3.72,3.72,0,0,1-.73,2.41,2.44,2.44,0,0,1-2,.91A2,2,0,0,1,345.53,27.13Zm0-2.42v.84a1.78,1.78,0,0,0,.48,1.26,1.72,1.72,0,0,0,2.6-.15,3.06,3.06,0,0,0,.5-1.86,2.42,2.42,0,0,0-.46-1.57,1.53,1.53,0,0,0-1.25-.57,1.7,1.7,0,0,0-1.35.58A2.14,2.14,0,0,0,345.5,24.71Z" fill="#4d5359"/><path d="M356.42,25.24h-4.24a2.24,2.24,0,0,0,.54,1.55,1.86,1.86,0,0,0,1.42.54,3,3,0,0,0,1.86-.67v.9a3.48,3.48,0,0,1-2.09.57,2.54,2.54,0,0,1-2-.82,3.35,3.35,0,0,1-.73-2.3,3.28,3.28,0,0,1,.79-2.28,2.55,2.55,0,0,1,2-.88,2.26,2.26,0,0,1,1.82.76,3.18,3.18,0,0,1,.64,2.12Zm-1-.81a2,2,0,0,0-.4-1.29,1.37,1.37,0,0,0-1.1-.46,1.55,1.55,0,0,0-1.15.49,2.21,2.21,0,0,0-.59,1.27Z" fill="#4d5359"/><path d="M358.83,28h-1V19.12h1Z" fill="#4d5359"/><rect x="293" y="34" width="159" height="22" fill="#fff"/><path d="M302.24,50h-1V42.74A2.24,2.24,0,0,1,301,43a5.3,5.3,0,0,1-.48.28q-.27.14-.56.26a4.08,4.08,0,0,1-.58.19v-1a5.58,5.58,0,0,0,.67-.24q.35-.15.7-.33c.23-.12.45-.25.65-.39a5.14,5.14,0,0,0,.53-.4h.36Z" fill="#575757"/><path d="M292,33V57H453V33ZM452,56H293V34H452Z" fill="#9ba0a4"/><rect x="456" y="47" width="11" height="9" fill="url(#linear-gradient-17)"/><polygon points="458.32 49 465.39 49 461.86 53.74 458.32 49" fill="#575757"/><rect x="456" y="34" width="11" height="9" fill="url(#linear-gradient-18)"/><polygon points="465.39 41 458.32 41 461.86 36.26 465.39 41" fill="#575757"/><path d="M455,46V57h13V46Zm12,10H456V47h11Z" fill="#9ba0a4"/><path d="M468,44V33H455V44ZM456,34h11v9H456Z" fill="#9ba0a4"/><path d="M285,169h-.88v-6.65a2.12,2.12,0,0,1-.3.23,5.08,5.08,0,0,1-.44.26l-.52.24a3.78,3.78,0,0,1-.53.18v-.89a5.22,5.22,0,0,0,.62-.22c.22-.09.43-.19.64-.31s.41-.23.59-.35a4.68,4.68,0,0,0,.48-.36H285Z" fill="#ec008c"/><path d="M292.48,165.12a7.57,7.57,0,0,1-.17,1.71,4,4,0,0,1-.5,1.26,2.26,2.26,0,0,1-.81.78,2.22,2.22,0,0,1-1.09.27,2.07,2.07,0,0,1-1-.26,2.16,2.16,0,0,1-.77-.74,3.78,3.78,0,0,1-.47-1.2,7.42,7.42,0,0,1-.16-1.63,8.43,8.43,0,0,1,.17-1.78,4.1,4.1,0,0,1,.5-1.3,2.21,2.21,0,0,1,.81-.79,2.29,2.29,0,0,1,1.12-.27Q292.48,161.17,292.48,165.12Zm-.9.09q0-3.29-1.56-3.29t-1.65,3.35q0,3.12,1.62,3.12T291.58,165.2Z" fill="#ec008c"/><rect x="488" width="1" height="153" fill="#c7ccd1"/><path d="M442.89,21H442V14.35a2.12,2.12,0,0,1-.3.23,5.08,5.08,0,0,1-.44.26l-.52.24a3.78,3.78,0,0,1-.53.18v-.89a5.22,5.22,0,0,0,.62-.22c.22-.09.43-.19.64-.31s.41-.23.59-.35a4.68,4.68,0,0,0,.48-.36h.33Z" fill="#ec008c"/><path d="M446.72,20.21h0v3.32h-.88v-8h.88v1h0a2.08,2.08,0,0,1,1.9-1.1,2,2,0,0,1,1.66.74,3.07,3.07,0,0,1,.6,2,3.4,3.4,0,0,1-.67,2.21,2.23,2.23,0,0,1-1.84.83A1.84,1.84,0,0,1,446.72,20.21Zm0-2.22v.77a1.63,1.63,0,0,0,.44,1.16,1.58,1.58,0,0,0,2.38-.14,2.81,2.81,0,0,0,.45-1.7,2.22,2.22,0,0,0-.42-1.44,1.41,1.41,0,0,0-1.15-.52,1.56,1.56,0,0,0-1.23.53A2,2,0,0,0,446.7,18Z" fill="#ec008c"/><path d="M456.17,15.5l-1.85,2.78L456.14,21h-1L454,19.22l-.24-.42h0l-.25.42L452.42,21h-1l1.87-2.7-1.79-2.8h1l1.06,1.88.23.43h0l1.38-2.31Z" fill="#ec008c"/><path d="M476.22,163.67a1.59,1.59,0,0,0-.11-.62,1.22,1.22,0,0,0-.3-.44,1.23,1.23,0,0,0-.45-.26,1.76,1.76,0,0,0-.56-.09,1.86,1.86,0,0,0-.5.07,2.41,2.41,0,0,0-.48.19,2.91,2.91,0,0,0-.45.3,3.21,3.21,0,0,0-.41.38v-.95a2.63,2.63,0,0,1,.83-.55,2.93,2.93,0,0,1,1.12-.19,2.71,2.71,0,0,1,.88.14,2,2,0,0,1,.7.4,1.85,1.85,0,0,1,.46.65,2.18,2.18,0,0,1,.17.89,3,3,0,0,1-.1.83,2.54,2.54,0,0,1-.32.7,3.38,3.38,0,0,1-.53.63,7.53,7.53,0,0,1-.76.61l-.89.66a4,4,0,0,0-.56.51,1.5,1.5,0,0,0-.29.48,1.67,1.67,0,0,0-.08.55h3.83v.79h-4.75V169a3.15,3.15,0,0,1,.11-.87,2.27,2.27,0,0,1,.35-.71,4,4,0,0,1,.65-.68q.4-.34,1-.76a6.26,6.26,0,0,0,.7-.57,3,3,0,0,0,.45-.55,2,2,0,0,0,.24-.56A2.41,2.41,0,0,0,476.22,163.67Z" fill="#ec008c"/><path d="M483.48,165.47a7.57,7.57,0,0,1-.17,1.71,4,4,0,0,1-.5,1.26,2.26,2.26,0,0,1-.81.78,2.22,2.22,0,0,1-1.09.27,2.07,2.07,0,0,1-1-.26,2.16,2.16,0,0,1-.77-.74,3.78,3.78,0,0,1-.47-1.2,7.42,7.42,0,0,1-.16-1.63,8.43,8.43,0,0,1,.17-1.78,4.1,4.1,0,0,1,.5-1.3,2.21,2.21,0,0,1,.81-.79,2.29,2.29,0,0,1,1.12-.27Q483.48,161.52,483.48,165.47Zm-.9.09q0-3.29-1.56-3.29t-1.65,3.35q0,3.12,1.62,3.12T482.58,165.55Z" fill="#ec008c"/><path d="M497.22,163.67a1.59,1.59,0,0,0-.11-.62,1.22,1.22,0,0,0-.3-.44,1.23,1.23,0,0,0-.45-.26,1.76,1.76,0,0,0-.56-.09,1.86,1.86,0,0,0-.5.07,2.41,2.41,0,0,0-.48.19,2.91,2.91,0,0,0-.45.3,3.21,3.21,0,0,0-.41.38v-.95a2.63,2.63,0,0,1,.83-.55,2.93,2.93,0,0,1,1.12-.19,2.71,2.71,0,0,1,.88.14,2,2,0,0,1,.7.4,1.85,1.85,0,0,1,.46.65,2.18,2.18,0,0,1,.17.89,3,3,0,0,1-.1.83,2.54,2.54,0,0,1-.32.7,3.38,3.38,0,0,1-.53.63,7.53,7.53,0,0,1-.76.61l-.89.66a4,4,0,0,0-.56.51,1.5,1.5,0,0,0-.29.48,1.67,1.67,0,0,0-.08.55h3.83v.79h-4.75V169a3.15,3.15,0,0,1,.11-.87,2.27,2.27,0,0,1,.35-.71,4,4,0,0,1,.65-.68q.4-.34,1-.76a6.26,6.26,0,0,0,.7-.57,3,3,0,0,0,.45-.55,2,2,0,0,0,.24-.56A2.41,2.41,0,0,0,497.22,163.67Z" fill="#ec008c"/><path d="M504.48,165.47a7.57,7.57,0,0,1-.17,1.71,4,4,0,0,1-.5,1.26,2.26,2.26,0,0,1-.81.78,2.22,2.22,0,0,1-1.09.27,2.07,2.07,0,0,1-1-.26,2.16,2.16,0,0,1-.77-.74,3.78,3.78,0,0,1-.47-1.2,7.42,7.42,0,0,1-.16-1.63,8.43,8.43,0,0,1,.17-1.78,4.1,4.1,0,0,1,.5-1.3,2.21,2.21,0,0,1,.81-.79,2.29,2.29,0,0,1,1.12-.27Q504.48,161.52,504.48,165.47Zm-.9.09q0-3.29-1.56-3.29t-1.65,3.35q0,3.12,1.62,3.12T503.58,165.55Z" fill="#ec008c"/><rect x="462" y="17" width="26" height="1" fill="#ec008c"/><rect x="468" y="154" width="19" height="1" fill="#ec008c"/><rect x="487" y="151" width="1" height="7" fill="#ec008c"/><rect x="468" y="151" width="1" height="7" fill="#ec008c"/><rect x="282" y="154" width="10" height="1" fill="#ec008c"/><rect x="291" y="151" width="1" height="7" fill="#ec008c"/><rect x="282" y="151" width="1" height="7" fill="#ec008c"/><rect x="489" y="154" width="19" height="1" fill="#ec008c"/><rect x="508" y="151" width="1" height="7" fill="#ec008c"/><rect x="489" y="151" width="1" height="7" fill="#ec008c"/><rect x="97.43" y="28" width="1" height="5" fill="#ec008c"/><rect x="94.43" y="28" width="7" height="1" fill="#ec008c"/><rect x="94.43" y="32" width="7" height="1" fill="#ec008c"/><rect x="97.43" y="57" width="1" height="10" fill="#ec008c"/><rect x="94.43" y="57" width="7" height="1" fill="#ec008c"/><rect x="94.43" y="66" width="7" height="1" fill="#ec008c"/><rect x="97.43" y="9" width="1" height="10" fill="#ec008c"/><rect x="94.43" y="9" width="7" height="1" fill="#ec008c"/><rect x="94.43" y="18" width="7" height="1" fill="#ec008c"/></g></svg>