<svg id="Layer_1" data-name="Layer 1" xmlns="http://www.w3.org/2000/svg" xmlns:xlink="http://www.w3.org/1999/xlink" width="218.27" height="213.41" viewBox="0 0 218.27 213.41"><defs><style>.cls-1{fill:#ebebeb;}.cls-2{fill:#e0e0e0;}.cls-3{fill:#4c5358;}.cls-4{fill:#a8abae;}.cls-5,.cls-6{fill:#fff;}.cls-10,.cls-12,.cls-6,.cls-8{font-size:12px;}.cls-10,.cls-6,.cls-8{font-family:SegoeUI, Segoe UI;}.cls-7{fill:url(#linear-gradient);}.cls-8{fill:#4d5359;}.cls-9{fill:url(#linear-gradient-2);}.cls-11{letter-spacing:-0.03em;}.cls-12{font-family:SegoeUI-Bold, Segoe UI;font-weight:700;}.cls-13{letter-spacing:-0.09em;}.cls-14{fill:#757575;}</style><linearGradient id="linear-gradient" x1="153.62" y1="176.46" x2="153.62" y2="198.38" gradientUnits="userSpaceOnUse"><stop offset="0" stop-color="#ebe9ec"/><stop offset="0.28" stop-color="#e5e6e9"/><stop offset="1" stop-color="#dadfe2"/></linearGradient><linearGradient id="linear-gradient-2" x1="63.62" y1="176.46" x2="63.62" y2="198.38" xlink:href="#linear-gradient"/></defs><title>FTV-different-control</title><g id="dialog-5" data-name="dialog"><path class="cls-1" d="M4.14,23.92V166.37h212V24H200.78c-89.62,0-160.07-.07-193.25-.08Z"/><path class="cls-1" d="M5.18,11V173.23h212V11H5.18Z"/><path class="cls-2" d="M4,209.41H214.7v-44H4Z"/><path class="cls-3" d="M0,0V213.41H218.23V0H0ZM214.08,209.41H4.15V29H214.08V209.41Z"/><path class="cls-4" d="M4,165.41H214.08v-1H4Z"/><polygon class="cls-5" points="208.92 9.97 207.4 8.45 203.85 12 200.3 8.45 198.78 9.97 202.33 13.52 198.78 17.07 200.3 18.59 203.85 15.04 207.4 18.59 208.92 17.07 205.37 13.52 208.92 9.97"/></g><text class="cls-6" transform="translate(15.66 18.71)">Select Color</text><path class="cls-4" d="M113.62,175.41v24h80v-24Zm79,23h-78v-22h78Z"/><path class="cls-4" d="M23.62,175.41v24h80v-24Zm79,23h-78v-22h78Z"/><rect class="cls-7" x="114.62" y="176.39" width="78" height="22.01"/><text class="cls-8" transform="translate(136.1 191.41)">Cancel</text><rect class="cls-9" x="24.62" y="176.39" width="78" height="22.01"/><text class="cls-8" transform="translate(55.62 191.41)">OK</text><text class="cls-10" transform="translate(38.55 77.53)"><tspan class="cls-11">R</tspan><tspan x="6.84" y="0">ed</tspan></text><text class="cls-12" transform="translate(23.62 57.48)">Options</text><text class="cls-10" transform="translate(38.55 99.42)"><tspan class="cls-13">Y</tspan><tspan x="5.58" y="0">ellow</tspan></text><text class="cls-10" transform="translate(38.55 121.32)">Blue</text><text class="cls-10" transform="translate(38.55 143.21)">Purple</text><path class="cls-14" d="M33.64,68.82v9h-9v-9h9m1-1h-11v11h11v-11Z"/><path class="cls-14" d="M33.64,90.68v9h-9v-9h9m1-1h-11v11h11v-11Z"/><path class="cls-14" d="M33.64,112.54v9h-9v-9h9m1-1h-11v11h11v-11Z"/><path class="cls-14" d="M33.64,134.4v9h-9v-9h9m1-1h-11v11h11v-11Z"/></svg>