<svg id="Layer_1" data-name="Layer 1" xmlns="http://www.w3.org/2000/svg" xmlns:xlink="http://www.w3.org/1999/xlink" width="461.94" height="463.74" viewBox="0 0 461.94 463.74"><defs><style>.cls-1{fill:#737984;}.cls-2{fill:#ebebeb;}.cls-3{fill:#e0e0e0;}.cls-4{fill:#4c5358;}.cls-5{fill:#a8abae;}.cls-10,.cls-6{fill:#fff;}.cls-7{fill:#9e9e9e;}.cls-8{opacity:0.45;font-family:SegoeUI-Semilight, Segoe UI;font-weight:300;}.cls-10,.cls-12,.cls-15,.cls-28,.cls-8{font-size:12px;}.cls-9{letter-spacing:-0.01em;}.cls-10,.cls-12,.cls-15,.cls-28{font-family:SegoeUI, Segoe UI;}.cls-11{fill:url(#linear-gradient);}.cls-12{fill:#4d5359;}.cls-13{fill:url(#linear-gradient-2);}.cls-14{fill:#4384b7;}.cls-14,.cls-23{stroke:#757575;stroke-miterlimit:10;}.cls-15{fill:#2b3033;}.cls-16{fill:#777b80;}.cls-17{fill:#e1e4e6;}.cls-18{fill:#696e73;}.cls-19,.cls-20,.cls-22,.cls-27{opacity:0.5;}.cls-20{letter-spacing:-0.01em;}.cls-21{letter-spacing:0.04em;}.cls-22,.cls-26{letter-spacing:-0.01em;}.cls-23{fill:none;}.cls-24{letter-spacing:-0.04em;}.cls-25{letter-spacing:-0.06em;}.cls-27{letter-spacing:0.01em;}.cls-29{letter-spacing:-0.01em;}</style><linearGradient id="linear-gradient" x1="397.93" y1="426.79" x2="397.93" y2="448.71" gradientUnits="userSpaceOnUse"><stop offset="0" stop-color="#ebe9ec"/><stop offset="0.28" stop-color="#e5e6e9"/><stop offset="1" stop-color="#dadfe2"/></linearGradient><linearGradient id="linear-gradient-2" x1="307.93" y1="426.79" x2="307.93" y2="448.71" xlink:href="#linear-gradient"/><symbol id="norgie-3" data-name="norgie" viewBox="0 0 8.27 4.2"><path class="cls-1" d="M0,0H8.27L4.07,4.2S0,0,0,0Z"/></symbol></defs><title>FTV-default</title><g id="n_spacing-2" data-name="n spacing"><g id="dialog"><path class="cls-2" d="M4,23.92V416.7H459.93V24H432.68L7.26,23.92Z"/><path class="cls-2" d="M5,11V393.48H460.94V11H5Z"/><path class="cls-3" d="M4,459.74H457.94v-44H4Z"/><path class="cls-4" d="M0,0V463.74H461.94V0H0ZM457.94,459.74H4V29H457.94V459.74Z"/><path class="cls-5" d="M4,415.74H457.94v-1H4Z"/><polygon class="cls-6" points="451.08 9.97 449.56 8.45 446.01 12 442.46 8.45 440.94 9.97 444.49 13.52 440.94 17.07 442.46 18.59 446.01 15.04 449.56 18.59 451.08 17.07 447.53 13.52 451.08 9.97"/></g><rect class="cls-6" x="25.03" y="49.16" width="363.93" height="23.46"/><path class="cls-7" d="M388.47,49.66V72.12H25.53V49.66H388.47m1-1H24.53V73.12H389.47V48.66Z"/><path class="cls-7" d="M40.18,53.23A5,5,0,0,0,35,58.14a4.79,4.79,0,0,0,1.16,3.08l-6.22,6,.74.71,6.22-5.95a5.22,5.22,0,0,0,3.24,1.13,4.92,4.92,0,1,0,0-9.83Zm0,8.83a3.92,3.92,0,1,1,4.1-3.92A4,4,0,0,1,40.18,62.06Z"/><text class="cls-8" transform="translate(55.04 65.66) scale(1.05 1)">Sea<tspan class="cls-9" x="18.35" y="0">r</tspan><tspan x="22.25" y="0">ch</tspan></text><text class="cls-10" transform="translate(15.66 18.71)">Select Food</text><rect class="cls-11" x="358.93" y="426.73" width="78" height="22.01"/><path class="cls-5" d="M357.93,425.74v24h80v-24Zm79,23h-78v-22h78Z"/><text class="cls-12" transform="translate(380.41 441.74)">Cancel</text><rect class="cls-13" x="268.93" y="426.73" width="78" height="22.01"/><path class="cls-5" d="M267.93,425.74v24h80v-24Zm79,23h-78v-22h78Z"/><text class="cls-12" transform="translate(299.93 441.74)">OK</text><rect class="cls-6" x="25.54" y="84.28" width="411.89" height="275.46"/><path class="cls-7" d="M436.93,84.78V359.24H26V84.78H436.93m1-1H25V360.24H437.93V83.78Z"/><use width="8.27" height="4.2" transform="translate(32.07 103.82)" xlink:href="#norgie-3"/><use width="8.27" height="4.2" transform="translate(47.58 123.07)" xlink:href="#norgie-3"/><rect class="cls-14" x="44.83" y="97.53" width="11.02" height="11.02"/><rect class="cls-14" x="60.37" y="119.66" width="11.02" height="11.02"/><text class="cls-15" transform="translate(60.31 107.55)">Food</text><polygon class="cls-16" points="433.87 93.24 426.87 93.24 430.37 88.24 433.87 93.24"/><rect class="cls-16" x="426.87" y="101.24" width="7" height="77.98"/><polygon class="cls-16" points="426.59 351.99 433.59 351.99 430.09 356.99 426.59 351.99"/><path class="cls-17" d="M423.49,85.13v274.5h13V85.13Zm1,273.57v-273h11v273Z"/><text class="cls-15" transform="translate(75.82 129.94)">Fruit</text><path class="cls-18" d="M401.47,68.3h-2v-2h2Zm12-2h-11v2h11Zm0-3h-10v1h10Zm-10-2h10v-1h-10Zm10-4h-10v1h10Zm-11-2h11v-2h-11Zm-3,0h2v-2h-2Z"/><path class="cls-18" d="M423.66,63.89h2v2h-2Zm14,0h-11v2h11Zm-14-2h2v-2h-2Zm14-2h-11v2h11Zm-14-2h2v-2h-2Zm14-2h-11v2h11Z"/><text class="cls-15" transform="translate(91.56 150.32)">Apple<tspan class="cls-19" x="31.03" y="0">-</tspan><tspan x="35.83" y="0"> </tspan><tspan class="cls-19" x="39.12" y="0">gala</tspan></text><rect class="cls-14" x="75.81" y="161.86" width="11.02" height="11.02"/><text class="cls-15" transform="translate(91.56 172.15)">Banana<tspan class="cls-19" x="38.78" y="0">-</tspan><tspan x="43.58" y="0"> </tspan><tspan class="cls-19" x="46.86" y="0">ca</tspan><tspan class="cls-20" x="58.51" y="0">v</tspan><tspan class="cls-19" x="64.19" y="0">endish</tspan></text><rect class="cls-14" x="75.81" y="184.04" width="11.02" height="11.02"/><text class="cls-15" transform="translate(91.56 194.33)">Cher<tspan class="cls-21" x="24.67" y="0">r</tspan><tspan x="29.32" y="0">y </tspan><tspan class="cls-19" x="38.41" y="0">-</tspan><tspan x="43.21" y="0"> </tspan><tspan class="cls-19" x="46.5" y="0">black</tspan></text><rect class="cls-14" x="75.81" y="140.03" width="11.02" height="11.02"/><polygon class="cls-6" points="84.03 141.35 80.31 147.28 78.11 145.65 77.25 147.02 80.68 149.73 85.4 142.21 84.03 141.35"/><polygon class="cls-6" points="84.03 163.33 80.31 169.26 78.11 167.63 77.25 169 80.68 171.71 85.4 164.19 84.03 163.33"/><polygon class="cls-6" points="84.03 185.33 80.31 191.26 78.11 189.63 77.25 191 80.68 193.71 85.4 186.19 84.03 185.33"/><use width="8.27" height="4.2" transform="translate(47.58 208.62)" xlink:href="#norgie-3"/><text class="cls-15" transform="translate(75.82 215.5)">Legumes</text><rect class="cls-14" x="60.33" y="205.21" width="11.02" height="11.02"/><text class="cls-15" transform="translate(91.32 236.88)">Beans <tspan class="cls-19" x="34.43" y="0">- g</tspan><tspan class="cls-22" x="49.58" y="0">r</tspan><tspan class="cls-19" x="53.6" y="0">een</tspan></text><rect class="cls-23" x="75.88" y="249.07" width="11.02" height="11.02"/><text class="cls-15" transform="translate(91.32 259.36)">Lentils <tspan class="cls-19" x="36.97" y="0">- </tspan><tspan class="cls-22" x="45.06" y="0">r</tspan><tspan class="cls-19" x="49.07" y="0">ed</tspan></text><text class="cls-15" transform="translate(91.32 281.53)"><tspan class="cls-24">P</tspan><tspan x="6.28" y="0">eas </tspan><tspan class="cls-19" x="27.04" y="0">- g</tspan><tspan class="cls-22" x="42.19" y="0">r</tspan><tspan class="cls-19" x="46.2" y="0">een</tspan></text><rect class="cls-14" x="75.88" y="226.59" width="11.02" height="11.02"/><polygon class="cls-6" points="84.1 227.92 80.38 233.85 78.18 232.22 77.32 233.58 80.74 236.29 85.47 228.78 84.1 227.92"/><rect class="cls-14" x="75.88" y="271.24" width="11.02" height="11.02"/><polygon class="cls-6" points="84.1 272.33 80.38 278.26 78.18 276.63 77.32 278 80.74 280.7 85.47 273.19 84.1 272.33"/><use width="8.27" height="4.2" transform="translate(47.58 296.83)" xlink:href="#norgie-3"/><text class="cls-15" transform="translate(75.82 303.7)"><tspan class="cls-25">V</tspan><tspan x="6.7" y="0">egetable</tspan></text><rect class="cls-14" x="60.33" y="293.42" width="11.02" height="11.02"/><text class="cls-15" transform="translate(91.32 325.09)">As<tspan class="cls-26" x="12.83" y="0">p</tspan><tspan x="19.73" y="0">aragus </tspan><tspan class="cls-19" x="58.35" y="0">- je</tspan><tspan class="cls-27" x="75.62" y="0">r</tspan><tspan class="cls-19" x="79.87" y="0">sey</tspan></text><rect class="cls-23" x="75.88" y="337.28" width="11.02" height="11.02"/><text class="cls-15" transform="translate(91.32 347.57)">Cab<tspan class="cls-26" x="20.59" y="0">b</tspan><tspan x="27.49" y="0">age </tspan><tspan class="cls-19" x="50.22" y="0">- na</tspan><tspan class="cls-22" x="71.2" y="0">p</tspan><tspan class="cls-19" x="78.1" y="0">a</tspan></text><rect class="cls-14" x="75.88" y="314.8" width="11.02" height="11.02"/><polygon class="cls-6" points="84.1 316.12 80.38 322.05 78.18 320.42 77.32 321.79 80.74 324.5 85.47 316.98 84.1 316.12"/><text class="cls-28" transform="translate(351.46 386.74)">7 i<tspan class="cls-29" x="12.66" y="0">t</tspan><tspan x="16.63" y="0">ems selec</tspan><tspan class="cls-29" x="67.72" y="0">t</tspan><tspan x="71.69" y="0">ed</tspan></text><path class="cls-5" d="M24.53,370.74v24h80v-24Zm79,23h-78v-22h78Z"/><text class="cls-12" transform="translate(41.21 386.74)">Select all</text><path class="cls-5" d="M114.53,370.74v24h80v-24Zm79,23h-78v-22h78Z"/><text class="cls-12" transform="translate(133.49 386.74)">Clear all</text><polygon class="cls-6" points="68.59 120.98 64.87 126.91 62.67 125.28 61.81 126.65 65.23 129.35 69.96 121.84 68.59 120.98"/></g></svg>