<svg xmlns="http://www.w3.org/2000/svg" xmlns:xlink="http://www.w3.org/1999/xlink" width="304.47" height="300" viewBox="0 0 304.47 300"><defs><style>.cls-1{fill:#2196f3;}.cls-1,.cls-23{stroke:#757575;}.cls-1,.cls-21,.cls-23{stroke-miterlimit:10;}.cls-2{fill:#fff;}.cls-3{fill:#ebebeb;}.cls-10,.cls-4,.cls-8{fill:#4d5359;}.cls-5{fill:#a9acaf;}.cls-10,.cls-22,.cls-6{font-size:12px;font-family:SegoeUI, Segoe UI;}.cls-12,.cls-13,.cls-6{fill:#2b3033;}.cls-12,.cls-7{opacity:0.5;}.cls-8{opacity:0.8;}.cls-9{fill:#9ba0a4;}.cls-11{letter-spacing:-0.01em;}.cls-14{fill:#696e73;}.cls-15{letter-spacing:-0.01em;}.cls-16{letter-spacing:0.04em;}.cls-17{letter-spacing:-0.01em;}.cls-18{letter-spacing:-0.03em;}.cls-19{letter-spacing:0.01em;}.cls-20{letter-spacing:-0.02em;}.cls-21{fill:#dce0e3;stroke:#a8abae;}.cls-22{fill:#212121;}.cls-23{fill:none;}.cls-24{fill:#696e77;}</style><symbol id="checkbox_marked" data-name="checkbox marked" viewBox="0 0 12.02 12.02"><rect class="cls-1" x="0.5" y="0.5" width="11.02" height="11.02"/><polygon class="cls-2" points="8.72 1.82 5 7.75 2.8 6.12 1.94 7.49 5.36 10.2 10.08 2.68 8.72 1.82"/></symbol></defs><title>FTV-flyout-multi-select</title><g id="Layer_7" data-name="Layer 7"><rect class="cls-3" x="0.5" y="0.5" width="303.47" height="299"/><path class="cls-4" d="M303.47,1V299H1V1H303.47m1-1H0V300H304.47V0Z"/><rect class="cls-5" x="1" y="45" width="302.47" height="1"/><rect class="cls-2" x="1" y="46" width="302.47" height="217"/><text class="cls-6" transform="translate(50.45 90)">VISA <tspan class="cls-7" x="28.05" y="0">(3)</tspan></text><text class="cls-6" transform="translate(50.45 112)">IVI <tspan class="cls-7" x="17.13" y="0">(12)</tspan></text><path class="cls-8" d="M7,61.5h9l-4.5,6Z"/><rect class="cls-2" x="12" y="11.94" width="232.47" height="22"/><path class="cls-9" d="M11,10.94v24H245.47v-24Zm233.47,23H12v-22H244.47Z"/><g class="cls-7"><text class="cls-10" transform="translate(38.16 26.94)">Sea<tspan class="cls-11" x="18.76" y="0">r</tspan><tspan x="22.77" y="0">ch</tspan></text></g><path class="cls-12" d="M30.39,24.33a5.5,5.5,0,1,0-8.69-1.21l-5.81,5.81L18,31.05l5.81-5.81A5.5,5.5,0,0,0,30.39,24.33ZM24,22.92a3.5,3.5,0,1,1,4.94,0A3.49,3.49,0,0,1,24,22.92Z"/><rect class="cls-13" x="37" y="15.94" width="1" height="13"/><path class="cls-14" d="M279.46,25.44h2v2h-2Zm14,0h-11v2h11Zm-14-2h2v-2h-2Zm14-2h-11v2h11Zm-14-2h2v-2h-2Zm14-2h-11v2h11Z"/><path class="cls-14" d="M257.46,29.94h-2v-2h2Zm12-2h-11v2h11Zm0-3h-10v1h10Zm-10-2h10v-1h-10Zm10-4h-10v1h10Zm-11-2h11v-2h-11Zm-3,0h2v-2h-2Z"/><text class="cls-6" transform="translate(213.53 286)">1 i<tspan class="cls-15" x="12.66" y="0">t</tspan><tspan x="16.63" y="0">em selec</tspan><tspan class="cls-15" x="62.63" y="0">t</tspan><tspan x="66.6" y="0">ed</tspan></text><rect class="cls-5" x="1" y="263" width="302.47" height="1"/><text class="cls-6" transform="translate(57 68)">VI Se<tspan class="cls-16" x="26.58" y="0">r</tspan><tspan class="cls-17" x="31.24" y="0">v</tspan><tspan x="36.91" y="0">er </tspan><tspan class="cls-7" x="50.65" y="0">(4)</tspan></text><text class="cls-6" transform="translate(57 132.23)">VISA <tspan class="cls-7" x="28.05" y="0">(3)</tspan></text><text class="cls-6" transform="translate(57 154.23)">IVI <tspan class="cls-7" x="17.13" y="0">(12)</tspan></text><text class="cls-6" transform="translate(57 176.23)">IMAQ <tspan class="cls-7" x="34.04" y="0">(2)</tspan></text><text class="cls-6" transform="translate(57 198.23)">XML <tspan class="cls-18" x="26.79" y="0">P</tspan><tspan x="33.12" y="0">a</tspan><tspan class="cls-19" x="39.23" y="0">r</tspan><tspan x="43.48" y="0">ser </tspan><tspan class="cls-7" x="62.31" y="0">(15)</tspan></text><text class="cls-6" transform="translate(55.9 220.23)">Data Soc<tspan class="cls-20" x="46.93" y="0">k</tspan><tspan x="52.65" y="0">et </tspan><tspan class="cls-7" x="66.28" y="0">(5)</tspan></text><path class="cls-8" d="M7,133.23v-9l6,4.5Z"/><path class="cls-8" d="M7,155.28v-9l6,4.5Z"/><path class="cls-8" d="M7,177.28v-9l6,4.5Z"/><path class="cls-8" d="M7,199.28v-9l6,4.5Z"/><path class="cls-8" d="M7,221.28v-9l6,4.5Z"/><rect class="cls-21" x="12" y="270.37" width="80" height="21.93"/><text class="cls-22" transform="translate(28.68 286.21)">Select all</text><rect class="cls-21" x="102" y="270.37" width="80" height="21.93"/><text class="cls-22" transform="translate(120.95 286.21)">Clear all</text><use width="12.02" height="12.02" transform="translate(34.07 80.49)" xlink:href="#checkbox_marked"/><rect class="cls-23" x="34.57" y="102.99" width="11.02" height="11.02"/><rect class="cls-1" x="20.47" y="58.99" width="11.02" height="11.02"/><g id="Folder_expanded" data-name="Folder expanded"><polygon class="cls-24" points="47 60.5 47 61.5 38.42 61.5 36.22 71.5 50.18 71.5 52 61.5 48 61.5 48 59.5 42 59.5 42 57.5 36 57.5 36 66.51 37 60.5 47 60.5"/></g><g id="Folder_expanded-2" data-name="Folder expanded"><polygon class="cls-24" points="47 124.73 47 125.73 38.42 125.73 36.22 135.73 50.18 135.73 52 125.73 48 125.73 48 123.73 42 123.73 42 121.73 36 121.73 36 130.74 37 124.73 47 124.73"/></g><g id="Folder_expanded-3" data-name="Folder expanded"><polygon class="cls-24" points="47 146.78 47 147.78 38.42 147.78 36.22 157.78 50.18 157.78 52 147.78 48 147.78 48 145.78 42 145.78 42 143.78 36 143.78 36 152.79 37 146.78 47 146.78"/></g><g id="Folder_expanded-4" data-name="Folder expanded"><polygon class="cls-24" points="47.56 168.78 47.56 169.78 38.98 169.78 36.78 179.78 50.74 179.78 52.56 169.78 48.56 169.78 48.56 167.78 42.56 167.78 42.56 165.78 36.56 165.78 36.56 174.79 37.56 168.78 47.56 168.78"/></g><g id="Folder_expanded-5" data-name="Folder expanded"><polygon class="cls-24" points="47.56 190.78 47.56 191.78 38.98 191.78 36.78 201.78 50.74 201.78 52.56 191.78 48.56 191.78 48.56 189.78 42.56 189.78 42.56 187.78 36.56 187.78 36.56 196.79 37.56 190.78 47.56 190.78"/></g><g id="Folder_expanded-6" data-name="Folder expanded"><polygon class="cls-24" points="47.56 212.78 47.56 213.78 38.98 213.78 36.78 223.78 50.74 223.78 52.56 213.78 48.56 213.78 48.56 211.78 42.56 211.78 42.56 209.78 36.56 209.78 36.56 218.79 37.56 212.78 47.56 212.78"/></g></g></svg>