<svg id="Layer_1" data-name="Layer 1" xmlns="http://www.w3.org/2000/svg" xmlns:xlink="http://www.w3.org/1999/xlink" width="329" height="77" viewBox="0 0 329 77"><defs><linearGradient id="linear-gradient" x1="31" y1="36" x2="99.06" y2="36" gradientUnits="userSpaceOnUse"><stop offset="0.01" stop-color="#fff" stop-opacity="0"/><stop offset="0.08" stop-color="#fff" stop-opacity="0.01"/><stop offset="0.14" stop-color="#fff" stop-opacity="0.06"/><stop offset="0.19" stop-color="#fff" stop-opacity="0.13"/><stop offset="0.25" stop-color="#fff" stop-opacity="0.22"/><stop offset="0.3" stop-color="#fff" stop-opacity="0.35"/><stop offset="0.36" stop-color="#fff" stop-opacity="0.51"/><stop offset="0.41" stop-color="#fff" stop-opacity="0.69"/><stop offset="0.46" stop-color="#fff" stop-opacity="0.9"/><stop offset="0.48" stop-color="#fff"/><stop offset="0.51" stop-color="#fff" stop-opacity="0.87"/><stop offset="0.56" stop-color="#fff" stop-opacity="0.67"/><stop offset="0.61" stop-color="#fff" stop-opacity="0.49"/><stop offset="0.66" stop-color="#fff" stop-opacity="0.34"/><stop offset="0.72" stop-color="#fff" stop-opacity="0.21"/><stop offset="0.78" stop-color="#fff" stop-opacity="0.12"/><stop offset="0.84" stop-color="#fff" stop-opacity="0.05"/><stop offset="0.9" stop-color="#fff" stop-opacity="0.01"/><stop offset="0.98" stop-color="#fff" stop-opacity="0"/></linearGradient></defs><title>progress-indicators-bar-layout</title><rect x="0.5" y="24.5" width="299" height="23" fill="#e6eaec"/><path d="M299,25V47H1V25H299m1-1H0V48H300V24Z" fill="#a8abae"/><rect x="1.94" y="26" width="210.06" height="20" fill="#4384b7"/><rect x="31" y="26" width="68.06" height="20" fill="url(#linear-gradient)"/><line x1="149.5" y1="66" x2="149.5" y2="42" fill="none" stroke="#ec008c" stroke-miterlimit="10"/><line x1="226.5" y1="32" x2="226.5" y2="8" fill="none" stroke="#ec008c" stroke-miterlimit="10"/><path d="M200.49,10.31h-2.23V17.2h-.9V10.31h-2.22V9.49h5.35Z" fill="#ec008c"/><path d="M203.49,12.59a1.07,1.07,0,0,0-.67-.18,1.13,1.13,0,0,0-.94.53,2.49,2.49,0,0,0-.38,1.45V17.2h-.88V11.7h.88v1.13h0a2,2,0,0,1,.58-.91,1.33,1.33,0,0,1,.86-.32,1.47,1.47,0,0,1,.53.07Z" fill="#ec008c"/><path d="M208.38,17.2h-.88v-.86h0a1.83,1.83,0,0,1-1.69,1,1.81,1.81,0,0,1-1.29-.43,1.51,1.51,0,0,1-.46-1.16c0-1,.6-1.62,1.81-1.79l1.65-.23c0-.93-.38-1.4-1.13-1.4a2.74,2.74,0,0,0-1.8.67v-.9a3.48,3.48,0,0,1,1.87-.51c1.3,0,1.94.68,1.94,2Zm-.88-2.79-1.33.19a2,2,0,0,0-.92.3.86.86,0,0,0-.31.77.85.85,0,0,0,.29.66,1.09,1.09,0,0,0,.76.25,1.39,1.39,0,0,0,1.08-.46A1.6,1.6,0,0,0,207.5,15Z" fill="#ec008c"/><path d="M213.79,16.94a2.79,2.79,0,0,1-1.5.38,2.48,2.48,0,0,1-1.9-.76,2.78,2.78,0,0,1-.72-2,3,3,0,0,1,.78-2.18,2.7,2.7,0,0,1,2.07-.82,2.87,2.87,0,0,1,1.28.27v.9a2.21,2.21,0,0,0-1.31-.43,1.77,1.77,0,0,0-1.38.6,2.29,2.29,0,0,0-.54,1.59,2.21,2.21,0,0,0,.51,1.53,1.74,1.74,0,0,0,1.36.55,2.24,2.24,0,0,0,1.35-.47Z" fill="#ec008c"/><path d="M219.69,17.2h-1.24L216,14.55h0V17.2h-.88V9.05H216v5.16h0l2.3-2.51h1.16l-2.55,2.65Z" fill="#ec008c"/><path d="M157.74,65.23h-.9v-7.7h.9Z" fill="#ec008c"/><path d="M164.21,65.23h-.88V62.1c0-1.17-.42-1.75-1.28-1.75a1.38,1.38,0,0,0-1.09.49,1.84,1.84,0,0,0-.43,1.26v3.13h-.88v-5.5h.88v.92h0a2,2,0,0,1,1.81-1,1.68,1.68,0,0,1,1.38.58,2.65,2.65,0,0,1,.47,1.68Z" fill="#ec008c"/><path d="M170.57,65.23h-.88V64.3h0a2,2,0,0,1-1.9,1.06,2,2,0,0,1-1.65-.74,3,3,0,0,1-.62-2,3.31,3.31,0,0,1,.68-2.18,2.27,2.27,0,0,1,1.84-.82,1.77,1.77,0,0,1,1.65.89h0V57.09h.88Zm-.88-2.48v-.81a1.59,1.59,0,0,0-.44-1.13,1.49,1.49,0,0,0-1.12-.46,1.51,1.51,0,0,0-1.27.59,2.57,2.57,0,0,0-.46,1.63,2.37,2.37,0,0,0,.44,1.5,1.46,1.46,0,0,0,1.19.55,1.53,1.53,0,0,0,1.2-.53A2,2,0,0,0,169.69,62.75Z" fill="#ec008c"/><path d="M172.8,58.34a.58.58,0,0,1-.4-.16.57.57,0,0,1-.17-.41.55.55,0,0,1,.17-.41.54.54,0,0,1,.4-.17.57.57,0,0,1,.41.17.52.52,0,0,1,.17.41.51.51,0,0,1-.17.4A.57.57,0,0,1,172.8,58.34Zm.43,6.89h-.88v-5.5h.88Z" fill="#ec008c"/><path d="M178.76,65a2.79,2.79,0,0,1-1.5.38,2.49,2.49,0,0,1-1.9-.76,2.78,2.78,0,0,1-.72-2,3,3,0,0,1,.78-2.18,2.72,2.72,0,0,1,2.08-.82,2.83,2.83,0,0,1,1.27.26v.91a2.19,2.19,0,0,0-1.31-.43,1.77,1.77,0,0,0-1.38.6,2.29,2.29,0,0,0-.54,1.59,2.17,2.17,0,0,0,.51,1.52,1.72,1.72,0,0,0,1.36.56,2.19,2.19,0,0,0,1.35-.48Z" fill="#ec008c"/><path d="M184,65.23h-.88v-.85h0a1.85,1.85,0,0,1-1.69,1,1.81,1.81,0,0,1-1.29-.43,1.51,1.51,0,0,1-.46-1.16c0-1,.6-1.62,1.81-1.79l1.65-.23c0-.94-.38-1.4-1.13-1.4a2.74,2.74,0,0,0-1.8.67v-.9a3.48,3.48,0,0,1,1.87-.51c1.3,0,1.94.68,1.94,2Zm-.88-2.78-1.32.18a2.15,2.15,0,0,0-.93.31.86.86,0,0,0-.31.77.85.85,0,0,0,.29.66,1.09,1.09,0,0,0,.76.25,1.39,1.39,0,0,0,1.08-.46,1.6,1.6,0,0,0,.43-1.16Z" fill="#ec008c"/><path d="M188.24,65.18a1.73,1.73,0,0,1-.82.17c-1,0-1.44-.53-1.44-1.61V60.49H185v-.76H186V58.39l.88-.28v1.62h1.38v.76h-1.38v3.09a1.29,1.29,0,0,0,.19.8.76.76,0,0,0,.62.23.92.92,0,0,0,.57-.18Z" fill="#ec008c"/><path d="M191.63,65.36a2.51,2.51,0,0,1-1.94-.77,2.82,2.82,0,0,1-.73-2,3,3,0,0,1,.75-2.17,2.77,2.77,0,0,1,2-.77,2.48,2.48,0,0,1,1.92.75,3,3,0,0,1,.69,2.1,3,3,0,0,1-.74,2.11A2.61,2.61,0,0,1,191.63,65.36Zm.07-5a1.7,1.7,0,0,0-1.35.57,2.45,2.45,0,0,0-.49,1.6,2.26,2.26,0,0,0,.5,1.54,1.71,1.71,0,0,0,1.34.56,1.6,1.6,0,0,0,1.31-.55,2.94,2.94,0,0,0,0-3.16A1.58,1.58,0,0,0,191.7,60.35Z" fill="#ec008c"/><path d="M198.65,60.63a1.09,1.09,0,0,0-.67-.18A1.13,1.13,0,0,0,197,61a2.47,2.47,0,0,0-.38,1.45v2.8h-.88v-5.5h.88v1.14h0a2,2,0,0,1,.58-.91,1.31,1.31,0,0,1,.86-.32,1.47,1.47,0,0,1,.53.07Z" fill="#ec008c"/><rect x="303" y="24" width="1" height="24" fill="#ec008c"/><rect x="299" y="24" width="9" height="1" fill="#ec008c"/><rect x="299" y="47" width="9" height="1" fill="#ec008c"/><path d="M314.29,34.32a1.67,1.67,0,0,0-.11-.62,1.18,1.18,0,0,0-.75-.7,1.69,1.69,0,0,0-.56-.08,1.79,1.79,0,0,0-.51.07,2.39,2.39,0,0,0-.48.19,3.79,3.79,0,0,0-.45.29,3.68,3.68,0,0,0-.4.39v-1a2.56,2.56,0,0,1,.83-.55,2.85,2.85,0,0,1,1.12-.19,2.48,2.48,0,0,1,.87.14,1.94,1.94,0,0,1,.7.4,1.71,1.71,0,0,1,.46.65,2,2,0,0,1,.17.88,3,3,0,0,1-.1.83,2.61,2.61,0,0,1-.32.7,3.41,3.41,0,0,1-.53.63,8.78,8.78,0,0,1-.76.61l-.89.66a3.62,3.62,0,0,0-.56.51,1.37,1.37,0,0,0-.29.48,1.55,1.55,0,0,0-.09.55h3.84V40h-4.75v-.38a3.25,3.25,0,0,1,.1-.87,2.43,2.43,0,0,1,.36-.72,4,4,0,0,1,.64-.67c.27-.23.6-.48,1-.77a7.74,7.74,0,0,0,.7-.57,2.79,2.79,0,0,0,.45-.55,1.88,1.88,0,0,0,.24-.55A2.35,2.35,0,0,0,314.29,34.32Z" fill="#ec008c"/><path d="M320.64,32.3v5.08h1v.81h-1V40h-.87V38.19h-3.62v-.76c.33-.38.67-.79,1-1.22s.67-.87,1-1.31.6-.89.87-1.33a13.38,13.38,0,0,0,.68-1.27Zm-3.5,5.08h2.63V33.61c-.27.47-.53.89-.77,1.26s-.46.7-.68,1-.43.57-.62.81Z" fill="#ec008c"/></svg>