<svg id="Layer_1" data-name="Layer 1" xmlns="http://www.w3.org/2000/svg" xmlns:xlink="http://www.w3.org/1999/xlink" width="551" height="295" viewBox="0 0 551 295"><defs><linearGradient id="linear-gradient" x1="69" y1="258.05" x2="69" y2="279.97" gradientUnits="userSpaceOnUse"><stop offset="0" stop-color="#ebe9ec"/><stop offset="0.28" stop-color="#e5e6e9"/><stop offset="1" stop-color="#dadfe2"/></linearGradient><linearGradient id="linear-gradient-2" x1="492" y1="258.05" x2="492" y2="279.97" xlink:href="#linear-gradient"/></defs><title>progress-indicators-text-box-alternative</title><polygon points="4 23.92 4 247.96 548.99 247.96 548.99 24 4 23.92" fill="#eef0ef"/><rect x="5" y="11" width="545" height="222" fill="#eef0ef"/><rect x="4" y="247" width="543" height="44" fill="#e1e3e4"/><path d="M0,0V295H551V0ZM547,291H4V29H547Z" fill="#4d5359"/><rect x="4" y="246" width="543" height="1" fill="#a8abae"/><path d="M22.42,19h-1V15.17H17.09V19h-1V10.6h1v3.68h4.34V10.6h1Z" fill="#fff"/><path d="M28.79,19h-1v-.94h0a2.2,2.2,0,0,1-3.25.61,1.68,1.68,0,0,1-.5-1.26c0-1.13.66-1.78,2-2l1.8-.25c0-1-.42-1.53-1.24-1.53a2.92,2.92,0,0,0-2,.74v-1a3.76,3.76,0,0,1,2-.56c1.41,0,2.12.74,2.12,2.24Zm-1-3-1.45.2a2.59,2.59,0,0,0-1,.33,1,1,0,0,0-.34.85.92.92,0,0,0,.31.71,1.2,1.2,0,0,0,.84.28,1.55,1.55,0,0,0,1.18-.5,1.8,1.8,0,0,0,.47-1.27Z" fill="#fff"/><path d="M33.73,14a1.18,1.18,0,0,0-.73-.19,1.23,1.23,0,0,0-1,.58,2.72,2.72,0,0,0-.41,1.58V19h-1V13h1v1.24h0a2.07,2.07,0,0,1,.63-1,1.4,1.4,0,0,1,.94-.36,1.5,1.5,0,0,1,.58.09Z" fill="#fff"/><path d="M39.73,19h-1V18h0a2.42,2.42,0,0,1-3.87.35,3.28,3.28,0,0,1-.68-2.19A3.57,3.57,0,0,1,35,13.76a2.48,2.48,0,0,1,2-.9,1.93,1.93,0,0,1,1.8,1h0V10.12h1Zm-1-2.71V15.4a1.73,1.73,0,0,0-.48-1.23,1.64,1.64,0,0,0-1.22-.5,1.66,1.66,0,0,0-1.38.64,2.81,2.81,0,0,0-.5,1.78,2.56,2.56,0,0,0,.48,1.64,1.57,1.57,0,0,0,1.3.6,1.63,1.63,0,0,0,1.3-.58A2.17,2.17,0,0,0,38.77,16.29Z" fill="#fff"/><path d="M49.24,13l-1.8,6h-1l-1.23-4.3a2.84,2.84,0,0,1-.1-.55h0a2.06,2.06,0,0,1-.13.54L43.62,19h-1l-1.81-6h1l1.25,4.51a4.55,4.55,0,0,1,.08.54h0a3,3,0,0,1,.11-.55L44.71,13h.88l1.24,4.52a3.36,3.36,0,0,1,.09.54h0a2.61,2.61,0,0,1,.1-.54L48.29,13Z" fill="#fff"/><path d="M54.64,19h-1v-.94h0a2.2,2.2,0,0,1-3.25.61,1.65,1.65,0,0,1-.51-1.26c0-1.13.66-1.78,2-2l1.8-.25q0-1.53-1.23-1.53a2.91,2.91,0,0,0-2,.74v-1a3.76,3.76,0,0,1,2-.56c1.41,0,2.11.74,2.11,2.24Zm-1-3-1.44.2a2.59,2.59,0,0,0-1,.33,1,1,0,0,0-.34.85.89.89,0,0,0,.31.71,1.2,1.2,0,0,0,.84.28,1.56,1.56,0,0,0,1.18-.5,1.79,1.79,0,0,0,.46-1.27Z" fill="#fff"/><path d="M59.58,14a1.14,1.14,0,0,0-.72-.19,1.21,1.21,0,0,0-1,.58,2.64,2.64,0,0,0-.41,1.58V19h-1V13h1v1.24h0a2.07,2.07,0,0,1,.63-1A1.54,1.54,0,0,1,59.58,13Z" fill="#fff"/><path d="M65.29,16.24H61.05a2.3,2.3,0,0,0,.54,1.55,1.88,1.88,0,0,0,1.42.54,2.94,2.94,0,0,0,1.87-.67v.91a3.53,3.53,0,0,1-2.1.57,2.51,2.51,0,0,1-2-.82,3.31,3.31,0,0,1-.73-2.3,3.28,3.28,0,0,1,.79-2.28,2.54,2.54,0,0,1,2-.88,2.26,2.26,0,0,1,1.83.76,3.18,3.18,0,0,1,.64,2.12Zm-1-.81a2,2,0,0,0-.4-1.3,1.37,1.37,0,0,0-1.1-.46,1.57,1.57,0,0,0-1.16.48,2.24,2.24,0,0,0-.58,1.28Z" fill="#fff"/><path d="M75.88,18.65a4.92,4.92,0,0,1-2.32.49A3.73,3.73,0,0,1,70.69,18a4.26,4.26,0,0,1-1.08-3,4.45,4.45,0,0,1,1.21-3.26,4.12,4.12,0,0,1,3.08-1.24,4.92,4.92,0,0,1,2,.34v1a4.08,4.08,0,0,0-2-.5,3.07,3.07,0,0,0-2.35,1,3.66,3.66,0,0,0-.9,2.59,3.44,3.44,0,0,0,.84,2.44,2.87,2.87,0,0,0,2.21.92,4.11,4.11,0,0,0,2.19-.57Z" fill="#fff"/><path d="M80,19.14a2.79,2.79,0,0,1-2.13-.84,3.15,3.15,0,0,1-.79-2.23,3.23,3.23,0,0,1,.83-2.36,3,3,0,0,1,2.23-.85,2.66,2.66,0,0,1,2.09.83A3.23,3.23,0,0,1,83,16a3.25,3.25,0,0,1-.81,2.3A2.88,2.88,0,0,1,80,19.14ZM80,13.67a1.84,1.84,0,0,0-1.47.63A2.58,2.58,0,0,0,78,16a2.47,2.47,0,0,0,.54,1.69,1.85,1.85,0,0,0,1.46.61,1.75,1.75,0,0,0,1.43-.6A2.59,2.59,0,0,0,82,16a2.61,2.61,0,0,0-.5-1.73A1.73,1.73,0,0,0,80,13.67Z" fill="#fff"/><path d="M89.47,19h-1V15.58c0-1.28-.46-1.91-1.39-1.91a1.54,1.54,0,0,0-1.2.54,2,2,0,0,0-.47,1.37V19h-1V13h1v1h0a2.16,2.16,0,0,1,2-1.14,1.84,1.84,0,0,1,1.5.63,2.84,2.84,0,0,1,.52,1.84Z" fill="#fff"/><path d="M94.25,11a1.24,1.24,0,0,0-.64-.16c-.67,0-1,.43-1,1.27V13H94v.82H92.6V19h-.95V13.82h-1V13h1V12a2,2,0,0,1,.54-1.49A1.82,1.82,0,0,1,93.55,10a1.92,1.92,0,0,1,.7.1Z" fill="#fff"/><path d="M95.53,11.48a.6.6,0,0,1-.44-.18.61.61,0,0,1-.18-.45.61.61,0,0,1,.62-.62.61.61,0,0,1,.45.18.6.6,0,0,1,.18.44.63.63,0,0,1-.63.63ZM96,19H95V13h1Z" fill="#fff"/><path d="M103.07,18.52q0,3.3-3.17,3.3A4.23,4.23,0,0,1,98,21.4v-1a3.92,3.92,0,0,0,1.93.56c1.48,0,2.22-.78,2.22-2.35V18h0a2.42,2.42,0,0,1-3.86.35,3.17,3.17,0,0,1-.68-2.15,3.73,3.73,0,0,1,.73-2.43,2.46,2.46,0,0,1,2-.9,2,2,0,0,1,1.8,1h0V13h1Zm-1-2.23V15.4a1.73,1.73,0,0,0-.49-1.22,1.58,1.58,0,0,0-1.2-.51,1.67,1.67,0,0,0-1.4.64,3,3,0,0,0-.5,1.82,2.48,2.48,0,0,0,.48,1.6,1.57,1.57,0,0,0,1.28.6,1.69,1.69,0,0,0,1.32-.57A2.16,2.16,0,0,0,102.11,16.29Z" fill="#fff"/><path d="M109.86,19h-1v-.95h0A2,2,0,0,1,107,19.14c-1.43,0-2.15-.85-2.15-2.55V13h1v3.43c0,1.27.48,1.9,1.45,1.9a1.46,1.46,0,0,0,1.16-.52,2,2,0,0,0,.45-1.35V13h1Z" fill="#fff"/><path d="M114.93,14a1.16,1.16,0,0,0-.72-.19,1.2,1.2,0,0,0-1,.58,2.64,2.64,0,0,0-.42,1.58V19h-1V13h1v1.24h0a2,2,0,0,1,.62-1,1.45,1.45,0,0,1,1-.36,1.41,1.41,0,0,1,.57.09Z" fill="#fff"/><path d="M120.27,19h-1v-.94h0a2,2,0,0,1-1.85,1.08,2,2,0,0,1-1.4-.47,1.65,1.65,0,0,1-.51-1.26c0-1.13.66-1.78,2-2l1.8-.25c0-1-.41-1.53-1.24-1.53a2.9,2.9,0,0,0-1.95.74v-1a3.73,3.73,0,0,1,2-.56c1.41,0,2.12.74,2.12,2.24Zm-1-3-1.45.2a2.65,2.65,0,0,0-1,.33,1,1,0,0,0-.34.85.9.9,0,0,0,.32.71,1.18,1.18,0,0,0,.83.28,1.55,1.55,0,0,0,1.18-.5,1.8,1.8,0,0,0,.47-1.27Z" fill="#fff"/><path d="M124.86,18.94a1.76,1.76,0,0,1-.89.19c-1,0-1.58-.59-1.58-1.76V13.82h-1V13h1V11.53l1-.31V13h1.51v.82h-1.51V17.2a1.37,1.37,0,0,0,.21.86.81.81,0,0,0,.68.26,1,1,0,0,0,.62-.2Z" fill="#fff"/><path d="M126.64,11.48a.6.6,0,0,1-.44-.18.61.61,0,0,1-.18-.45.61.61,0,0,1,.62-.62.64.64,0,0,1,.45.18.6.6,0,0,1,.18.44.59.59,0,0,1-.18.44A.61.61,0,0,1,126.64,11.48Zm.47,7.52h-1V13h1Z" fill="#fff"/><path d="M131.56,19.14a2.77,2.77,0,0,1-2.12-.84,3.11,3.11,0,0,1-.8-2.23,3.23,3.23,0,0,1,.83-2.36,3,3,0,0,1,2.23-.85,2.68,2.68,0,0,1,2.1.83,3.27,3.27,0,0,1,.75,2.29,3.25,3.25,0,0,1-.81,2.3A2.87,2.87,0,0,1,131.56,19.14Zm.07-5.47a1.81,1.81,0,0,0-1.46.63,2.58,2.58,0,0,0-.54,1.73,2.47,2.47,0,0,0,.54,1.69,1.86,1.86,0,0,0,1.46.61,1.75,1.75,0,0,0,1.43-.6,2.59,2.59,0,0,0,.5-1.72,2.61,2.61,0,0,0-.5-1.73A1.73,1.73,0,0,0,131.63,13.67Z" fill="#fff"/><path d="M141.06,19h-1V15.58c0-1.28-.46-1.91-1.39-1.91a1.5,1.5,0,0,0-1.19.54,2,2,0,0,0-.48,1.37V19h-1V13h1v1h0a2.16,2.16,0,0,1,2-1.14,1.83,1.83,0,0,1,1.5.63,2.84,2.84,0,0,1,.52,1.84Z" fill="#fff"/><polygon points="540.14 9.97 538.62 8.45 535.07 12 531.52 8.45 530 9.97 533.55 13.52 530 17.07 531.52 18.59 535.07 15.04 538.62 18.59 540.14 17.07 536.59 13.52 540.14 9.97" fill="#fff"/><rect x="25" y="257.99" width="88" height="22.01" opacity="0.5" fill="url(#linear-gradient)"/><path d="M24,257v24h90V257Zm89,23H25V258h88Z" fill="#a8abae" opacity="0.5"/><g opacity="0.5"><path d="M35.47,272.66V271.5a2.42,2.42,0,0,0,.47.32,4.24,4.24,0,0,0,.59.23,3.5,3.5,0,0,0,.62.15,3.07,3.07,0,0,0,.57.06,2.29,2.29,0,0,0,1.36-.34,1.15,1.15,0,0,0,.45-1,1.1,1.1,0,0,0-.15-.59,1.64,1.64,0,0,0-.42-.46,3.91,3.91,0,0,0-.62-.4l-.78-.4-.82-.45a3.85,3.85,0,0,1-.66-.51,2.06,2.06,0,0,1-.44-.62,2.15,2.15,0,0,1,.09-1.82,2.32,2.32,0,0,1,.66-.7,3.19,3.19,0,0,1,.94-.41,4.24,4.24,0,0,1,1.07-.13,4.11,4.11,0,0,1,1.81.3v1.1a3.33,3.33,0,0,0-1.91-.51,3.57,3.57,0,0,0-.65.06,2,2,0,0,0-.57.22,1.31,1.31,0,0,0-.41.4,1,1,0,0,0-.16.58,1.22,1.22,0,0,0,.12.56,1.41,1.41,0,0,0,.35.43,3.42,3.42,0,0,0,.58.37c.22.12.48.26.77.4s.59.31.86.47a4.41,4.41,0,0,1,.71.54,2.42,2.42,0,0,1,.48.67,1.84,1.84,0,0,1,.18.83,2.14,2.14,0,0,1-.24,1.05,2.11,2.11,0,0,1-.66.7,2.88,2.88,0,0,1-.95.39,5.24,5.24,0,0,1-1.14.12l-.49,0a4.17,4.17,0,0,1-.6-.1,4.91,4.91,0,0,1-.58-.15A1.93,1.93,0,0,1,35.47,272.66Z" fill="#4d5359"/><path d="M46.4,273h-1v-.94h0a2,2,0,0,1-1.85,1.08,2,2,0,0,1-1.4-.47,1.65,1.65,0,0,1-.51-1.26c0-1.13.66-1.78,2-2l1.8-.25c0-1-.41-1.53-1.24-1.53a2.9,2.9,0,0,0-2,.74v-1a3.76,3.76,0,0,1,2-.56c1.41,0,2.11.74,2.11,2.24Zm-1-3-1.45.2a2.65,2.65,0,0,0-1,.33,1,1,0,0,0-.34.85.9.9,0,0,0,.32.71,1.19,1.19,0,0,0,.83.28,1.55,1.55,0,0,0,1.18-.5,1.8,1.8,0,0,0,.47-1.27Z" fill="#4d5359"/><path d="M52.93,267l-2.39,6h-.95l-2.27-6h1.06l1.52,4.36a4.27,4.27,0,0,1,.21.84h0a3.8,3.8,0,0,1,.19-.82L51.91,267Z" fill="#4d5359"/><path d="M58.71,270.24H54.47a2.3,2.3,0,0,0,.54,1.55,1.88,1.88,0,0,0,1.42.54,2.89,2.89,0,0,0,1.86-.67v.91a3.47,3.47,0,0,1-2.09.57,2.51,2.51,0,0,1-2-.82,3.83,3.83,0,0,1,.06-4.58,2.54,2.54,0,0,1,2-.88,2.26,2.26,0,0,1,1.83.76,3.18,3.18,0,0,1,.64,2.12Zm-1-.81a2,2,0,0,0-.4-1.3,1.37,1.37,0,0,0-1.1-.46,1.57,1.57,0,0,0-1.16.48,2.24,2.24,0,0,0-.58,1.28Z" fill="#4d5359"/><path d="M66.58,268a1.18,1.18,0,0,0-.73-.19,1.2,1.2,0,0,0-1,.58,2.64,2.64,0,0,0-.42,1.58V273h-1v-6h1v1.24h0a2,2,0,0,1,.62-1,1.43,1.43,0,0,1,1-.36,1.41,1.41,0,0,1,.57.09Z" fill="#4d5359"/><path d="M72.29,270.24H68.05a2.3,2.3,0,0,0,.54,1.55,1.87,1.87,0,0,0,1.42.54,2.93,2.93,0,0,0,1.86-.67v.91a3.5,3.5,0,0,1-2.09.57,2.53,2.53,0,0,1-2-.82,3.36,3.36,0,0,1-.73-2.3,3.29,3.29,0,0,1,.8-2.28,2.54,2.54,0,0,1,2-.88,2.24,2.24,0,0,1,1.82.76,3.18,3.18,0,0,1,.65,2.12Zm-1-.81a1.91,1.91,0,0,0-.4-1.3,1.36,1.36,0,0,0-1.1-.46,1.55,1.55,0,0,0-1.15.48,2.25,2.25,0,0,0-.59,1.28Z" fill="#4d5359"/><path d="M74.72,272.13h0v3.63h-1V267h1v1.05h0a2.3,2.3,0,0,1,2.08-1.19,2.21,2.21,0,0,1,1.81.8,3.37,3.37,0,0,1,.65,2.16,3.69,3.69,0,0,1-.73,2.41,2.44,2.44,0,0,1-2,.91A2,2,0,0,1,74.72,272.13Zm0-2.42v.84a1.77,1.77,0,0,0,.48,1.26,1.73,1.73,0,0,0,2.6-.15,3,3,0,0,0,.5-1.85,2.39,2.39,0,0,0-.47-1.57,1.52,1.52,0,0,0-1.25-.57,1.7,1.7,0,0,0-1.35.58A2.15,2.15,0,0,0,74.7,269.71Z" fill="#4d5359"/><path d="M83.3,273.14a2.79,2.79,0,0,1-2.12-.84,3.11,3.11,0,0,1-.8-2.23,3.23,3.23,0,0,1,.83-2.36,3,3,0,0,1,2.23-.85,2.66,2.66,0,0,1,2.1.83,3.77,3.77,0,0,1-.06,4.59A2.87,2.87,0,0,1,83.3,273.14Zm.07-5.47a1.83,1.83,0,0,0-1.46.63,2.58,2.58,0,0,0-.54,1.73,2.47,2.47,0,0,0,.54,1.69,1.86,1.86,0,0,0,1.46.61,1.79,1.79,0,0,0,1.44-.6,3.23,3.23,0,0,0,0-3.45A1.76,1.76,0,0,0,83.37,267.67Z" fill="#4d5359"/><path d="M91,268a1.2,1.2,0,0,0-.73-.19,1.23,1.23,0,0,0-1,.58,2.64,2.64,0,0,0-.41,1.58V273h-1v-6h1v1.24h0a2.07,2.07,0,0,1,.63-1,1.4,1.4,0,0,1,.94-.36A1.5,1.5,0,0,1,91,267Z" fill="#4d5359"/><path d="M95.13,272.94a1.82,1.82,0,0,1-.9.19c-1,0-1.58-.59-1.58-1.76v-3.55h-1V267h1v-1.47l1-.31V267h1.51v.82H93.62v3.38a1.38,1.38,0,0,0,.2.86.83.83,0,0,0,.68.26,1.05,1.05,0,0,0,.63-.2Z" fill="#4d5359"/><path d="M96.74,273.13a.66.66,0,0,1-.46-.19.68.68,0,0,1-.19-.47.66.66,0,0,1,.19-.46.67.67,0,0,1,1.13.46.65.65,0,0,1-.2.47A.67.67,0,0,1,96.74,273.13Z" fill="#4d5359"/><path d="M99.35,273.13a.65.65,0,0,1-.65-.66.62.62,0,0,1,.19-.46.63.63,0,0,1,.92,0,.63.63,0,0,1,.2.46.65.65,0,0,1-.2.47A.64.64,0,0,1,99.35,273.13Z" fill="#4d5359"/><path d="M102,273.13a.65.65,0,0,1-.65-.66.62.62,0,0,1,.19-.46.61.61,0,0,1,.46-.2.65.65,0,0,1,.47.2.66.66,0,0,1,.19.46.65.65,0,0,1-.66.66Z" fill="#4d5359"/></g><rect x="458" y="257.99" width="68" height="22.01" fill="url(#linear-gradient-2)"/><path d="M457,257v24h70V257Zm69,23H458V258h68Z" fill="#a8abae"/><path d="M481.29,272.65a4.89,4.89,0,0,1-2.32.49A3.74,3.74,0,0,1,476.1,272a4.26,4.26,0,0,1-1.08-3,4.46,4.46,0,0,1,1.22-3.26,4.08,4.08,0,0,1,3.07-1.24,4.92,4.92,0,0,1,2,.34v1.05a4.05,4.05,0,0,0-2-.5,3.08,3.08,0,0,0-2.35,1,3.66,3.66,0,0,0-.9,2.59,3.41,3.41,0,0,0,.85,2.44,2.85,2.85,0,0,0,2.2.92,4.06,4.06,0,0,0,2.19-.57Z" fill="#4d5359"/><path d="M487.17,273h-1v-.94h0a2,2,0,0,1-1.85,1.08,2,2,0,0,1-1.4-.47,1.65,1.65,0,0,1-.51-1.26c0-1.13.66-1.78,2-2l1.8-.25c0-1-.41-1.53-1.24-1.53a2.9,2.9,0,0,0-2,.74v-1a3.75,3.75,0,0,1,2-.56c1.41,0,2.12.74,2.12,2.24Zm-1-3-1.45.2a2.65,2.65,0,0,0-1,.33,1,1,0,0,0-.34.85.9.9,0,0,0,.32.71,1.18,1.18,0,0,0,.83.28,1.55,1.55,0,0,0,1.18-.5,1.8,1.8,0,0,0,.47-1.27Z" fill="#4d5359"/><path d="M494,273h-1v-3.42c0-1.28-.46-1.91-1.39-1.91a1.52,1.52,0,0,0-1.2.54,2,2,0,0,0-.47,1.37V273h-1v-6h1v1h0a2.17,2.17,0,0,1,2-1.14,1.85,1.85,0,0,1,1.51.63,2.84,2.84,0,0,1,.52,1.84Z" fill="#4d5359"/><path d="M499.86,272.72a3.1,3.1,0,0,1-1.64.42,2.73,2.73,0,0,1-2.07-.83,3,3,0,0,1-.79-2.17,3.3,3.3,0,0,1,.85-2.38,3,3,0,0,1,2.27-.9,3.2,3.2,0,0,1,1.39.29v1a2.38,2.38,0,0,0-1.43-.47,2,2,0,0,0-1.51.66,2.5,2.5,0,0,0-.58,1.73,2.36,2.36,0,0,0,.55,1.66,1.89,1.89,0,0,0,1.48.61,2.39,2.39,0,0,0,1.48-.52Z" fill="#4d5359"/><path d="M506.14,270.24H501.9a2.3,2.3,0,0,0,.54,1.55,1.87,1.87,0,0,0,1.42.54,2.93,2.93,0,0,0,1.86-.67v.91a3.5,3.5,0,0,1-2.09.57,2.53,2.53,0,0,1-2-.82,3.36,3.36,0,0,1-.73-2.3,3.29,3.29,0,0,1,.8-2.28,2.53,2.53,0,0,1,2-.88,2.24,2.24,0,0,1,1.82.76,3.18,3.18,0,0,1,.65,2.12Zm-1-.81a2,2,0,0,0-.4-1.3,1.36,1.36,0,0,0-1.1-.46,1.55,1.55,0,0,0-1.15.48,2.25,2.25,0,0,0-.59,1.28Z" fill="#4d5359"/><path d="M508.55,273h-1v-8.88h1Z" fill="#4d5359"/><rect x="25.37" y="69.18" width="501" height="156" fill="#fff"/><path d="M525.87,69.68v155h-500v-155h500m1-1h-502v157h502v-157Z" fill="#a8abae"/><path d="M33,84.81H32v-8.4h1Z" fill="#2b3033"/><path d="M43.56,84.81h-1V81.37a2.57,2.57,0,0,0-.31-1.44,1.16,1.16,0,0,0-1-.45,1.29,1.29,0,0,0-1,.57,2.11,2.11,0,0,0-.43,1.34v3.42h-1V81.25c0-1.18-.46-1.77-1.37-1.77a1.27,1.27,0,0,0-1,.53A2.24,2.24,0,0,0,36,81.39v3.42H35v-6h1v1h0a2.06,2.06,0,0,1,1.87-1.09A1.74,1.74,0,0,1,39,79a1.81,1.81,0,0,1,.63.9,2.14,2.14,0,0,1,2-1.25c1.32,0,2,.82,2,2.45Z" fill="#2b3033"/><path d="M46.36,84h0v3.62h-1V78.81h1v1.06h0a2.26,2.26,0,0,1,2.07-1.2,2.18,2.18,0,0,1,1.81.81,3.31,3.31,0,0,1,.65,2.16,3.71,3.71,0,0,1-.73,2.41,2.44,2.44,0,0,1-2,.91A2,2,0,0,1,46.36,84Zm0-2.42v.84a1.8,1.8,0,0,0,.48,1.26,1.62,1.62,0,0,0,1.23.52,1.64,1.64,0,0,0,1.37-.67,3.09,3.09,0,0,0,.49-1.86,2.41,2.41,0,0,0-.46-1.57,1.54,1.54,0,0,0-1.26-.57,1.69,1.69,0,0,0-1.34.59A2.11,2.11,0,0,0,46.34,81.53Z" fill="#2b3033"/><path d="M54.94,85a2.77,2.77,0,0,1-2.13-.85A3.09,3.09,0,0,1,52,81.89a3.23,3.23,0,0,1,.83-2.37,3,3,0,0,1,2.23-.85,2.69,2.69,0,0,1,2.09.83,3.28,3.28,0,0,1,.76,2.29,3.18,3.18,0,0,1-.82,2.3A2.82,2.82,0,0,1,54.94,85ZM55,79.48a1.84,1.84,0,0,0-1.47.63A2.59,2.59,0,0,0,53,81.85a2.46,2.46,0,0,0,.55,1.68,1.85,1.85,0,0,0,1.46.62,1.73,1.73,0,0,0,1.43-.61,2.62,2.62,0,0,0,.5-1.71,2.71,2.71,0,0,0-.5-1.74A1.76,1.76,0,0,0,55,79.48Z" fill="#2b3033"/><path d="M62.59,79.79a1.18,1.18,0,0,0-.73-.2,1.25,1.25,0,0,0-1,.58,2.75,2.75,0,0,0-.41,1.59v3h-1v-6h1v1.24h0a2.08,2.08,0,0,1,.62-1,1.47,1.47,0,0,1,1-.35,1.65,1.65,0,0,1,.57.08Z" fill="#2b3033"/><path d="M66.76,84.76a1.87,1.87,0,0,1-.89.18c-1.06,0-1.58-.58-1.58-1.75V79.64h-1v-.83h1V77.35l1-.31v1.77h1.51v.83H65.25V83a1.37,1.37,0,0,0,.21.86.8.8,0,0,0,.67.26,1,1,0,0,0,.63-.2Z" fill="#2b3033"/><path d="M72.77,82.06H68.54a2.18,2.18,0,0,0,.54,1.54,1.82,1.82,0,0,0,1.41.55,3,3,0,0,0,1.87-.67v.9a3.52,3.52,0,0,1-2.09.58,2.55,2.55,0,0,1-2-.82,3.33,3.33,0,0,1-.73-2.3,3.29,3.29,0,0,1,.79-2.28,2.56,2.56,0,0,1,2-.89,2.26,2.26,0,0,1,1.82.77,3.15,3.15,0,0,1,.64,2.11Zm-1-.82a1.93,1.93,0,0,0-.4-1.29,1.38,1.38,0,0,0-1.1-.47,1.6,1.6,0,0,0-1.16.49,2.21,2.21,0,0,0-.58,1.27Z" fill="#2b3033"/><path d="M79.35,84.81h-1v-1h0A2.21,2.21,0,0,1,76.3,85a2.24,2.24,0,0,1-1.81-.81A3.31,3.31,0,0,1,73.82,82a3.6,3.6,0,0,1,.75-2.39,2.46,2.46,0,0,1,2-.9,1.92,1.92,0,0,1,1.8,1h0V75.93h1Zm-1-2.71v-.88A1.7,1.7,0,0,0,77.91,80a1.61,1.61,0,0,0-1.22-.51,1.68,1.68,0,0,0-1.39.65,2.85,2.85,0,0,0-.5,1.78,2.56,2.56,0,0,0,.48,1.64,1.6,1.6,0,0,0,1.3.6,1.68,1.68,0,0,0,1.31-.58A2.2,2.2,0,0,0,78.39,82.1Z" fill="#2b3033"/><path d="M85.07,77.29a.64.64,0,0,1-.44-.17.65.65,0,0,1,0-.9.6.6,0,0,1,.44-.18.61.61,0,0,1,.45.18.62.62,0,0,1,0,.89A.61.61,0,0,1,85.07,77.29Zm.47,7.52h-1v-6h1Z" fill="#2b3033"/><path d="M90.27,84.76a2,2,0,0,1-.9.18c-1.05,0-1.57-.58-1.57-1.75V79.64h-1v-.83h1V77.35l1-.31v1.77h1.51v.83H88.76V83a1.45,1.45,0,0,0,.2.86.84.84,0,0,0,.68.26,1.05,1.05,0,0,0,.63-.2Z" fill="#2b3033"/><path d="M96.28,82.06H92a2.27,2.27,0,0,0,.54,1.54,1.85,1.85,0,0,0,1.42.55,3,3,0,0,0,1.87-.67v.9a3.53,3.53,0,0,1-2.1.58,2.54,2.54,0,0,1-2-.82,3.33,3.33,0,0,1-.73-2.3,3.25,3.25,0,0,1,.79-2.28,2.55,2.55,0,0,1,2-.89,2.26,2.26,0,0,1,1.83.77,3.15,3.15,0,0,1,.64,2.11Zm-1-.82A2,2,0,0,0,94.9,80a1.38,1.38,0,0,0-1.1-.47,1.58,1.58,0,0,0-1.16.49,2.21,2.21,0,0,0-.58,1.27Z" fill="#2b3033"/><path d="M106.25,84.81h-1V81.37a2.66,2.66,0,0,0-.3-1.44,1.17,1.17,0,0,0-1-.45,1.26,1.26,0,0,0-1,.57,2.12,2.12,0,0,0-.44,1.34v3.42h-1V81.25c0-1.18-.45-1.77-1.36-1.77a1.27,1.27,0,0,0-1,.53,2.18,2.18,0,0,0-.41,1.38v3.42h-1v-6h1v1h0a2,2,0,0,1,1.86-1.09,1.72,1.72,0,0,1,1.07.35,1.69,1.69,0,0,1,.63.9,2.15,2.15,0,0,1,2-1.25c1.32,0,2,.82,2,2.45Z" fill="#2b3033"/><path d="M115.45,84.54a3.1,3.1,0,0,1-1.64.42,2.69,2.69,0,0,1-2.07-.84A3,3,0,0,1,111,82a3.33,3.33,0,0,1,.85-2.39,3,3,0,0,1,2.26-.9,3.1,3.1,0,0,1,1.4.3v1a2.47,2.47,0,0,0-1.43-.47,1.93,1.93,0,0,0-1.51.66,2.52,2.52,0,0,0-.59,1.73,2.39,2.39,0,0,0,.56,1.67,1.91,1.91,0,0,0,1.48.61,2.47,2.47,0,0,0,1.48-.52Z" fill="#2b3033"/><path d="M119.41,85a2.77,2.77,0,0,1-2.13-.85,3.09,3.09,0,0,1-.79-2.22,3.27,3.27,0,0,1,.83-2.37,3,3,0,0,1,2.23-.85,2.69,2.69,0,0,1,2.09.83,3.23,3.23,0,0,1,.76,2.29,3.18,3.18,0,0,1-.82,2.3A2.82,2.82,0,0,1,119.41,85Zm.07-5.48a1.84,1.84,0,0,0-1.47.63,2.59,2.59,0,0,0-.54,1.74,2.46,2.46,0,0,0,.55,1.68,1.85,1.85,0,0,0,1.46.62,1.73,1.73,0,0,0,1.43-.61,2.57,2.57,0,0,0,.5-1.71,2.65,2.65,0,0,0-.5-1.74A1.76,1.76,0,0,0,119.48,79.48Z" fill="#2b3033"/><path d="M128.91,84.81h-1V81.39c0-1.27-.46-1.91-1.39-1.91a1.54,1.54,0,0,0-1.2.54,2.05,2.05,0,0,0-.47,1.37v3.42h-1v-6h1v1h0a2.16,2.16,0,0,1,2-1.14,1.86,1.86,0,0,1,1.51.64,2.82,2.82,0,0,1,.52,1.84Z" fill="#2b3033"/><path d="M133.69,76.78a1.24,1.24,0,0,0-.64-.16c-.67,0-1,.42-1,1.27v.92h1.41v.83H132v5.17h-.95V79.64h-1v-.83h1v-1a2,2,0,0,1,.54-1.49A1.86,1.86,0,0,1,133,75.8a1.9,1.9,0,0,1,.7.11Z" fill="#2b3033"/><path d="M135,77.29a.64.64,0,0,1-.44-.17.65.65,0,0,1,0-.9A.6.6,0,0,1,135,76a.62.62,0,0,1,.63.63.6.6,0,0,1-.18.44A.61.61,0,0,1,135,77.29Zm.47,7.52h-1v-6h1Z" fill="#2b3033"/><path d="M142.51,84.33q0,3.32-3.17,3.31a4.23,4.23,0,0,1-1.94-.42v-1a4,4,0,0,0,1.93.56c1.48,0,2.21-.79,2.21-2.36v-.65h0a2.42,2.42,0,0,1-3.86.35A3.19,3.19,0,0,1,137,82a3.73,3.73,0,0,1,.74-2.43,2.46,2.46,0,0,1,2-.91,2,2,0,0,1,1.8,1h0v-.84h1Zm-1-2.23v-.88a1.73,1.73,0,0,0-.48-1.23,1.58,1.58,0,0,0-1.2-.51,1.68,1.68,0,0,0-1.4.65,2.93,2.93,0,0,0-.5,1.81,2.51,2.51,0,0,0,.48,1.61,1.56,1.56,0,0,0,1.28.6,1.67,1.67,0,0,0,1.32-.58A2.12,2.12,0,0,0,141.54,82.1Z" fill="#2b3033"/><path d="M149.3,84.81h-1v-.94h0A2,2,0,0,1,146.47,85c-1.43,0-2.15-.86-2.15-2.56V78.81h1v3.44c0,1.26.48,1.9,1.45,1.9a1.5,1.5,0,0,0,1.16-.52,2,2,0,0,0,.45-1.36V78.81h1Z" fill="#2b3033"/><path d="M154.37,79.79a1.18,1.18,0,0,0-.73-.2,1.22,1.22,0,0,0-1,.58,2.68,2.68,0,0,0-.42,1.59v3h-1v-6h1v1.24h0a2.08,2.08,0,0,1,.62-1,1.47,1.47,0,0,1,1-.35,1.65,1.65,0,0,1,.57.08Z" fill="#2b3033"/><path d="M159.71,84.81h-1v-.93h0A2,2,0,0,1,156.88,85a1.93,1.93,0,0,1-1.4-.48,1.65,1.65,0,0,1-.51-1.26c0-1.12.66-1.77,2-2l1.8-.25c0-1-.41-1.53-1.24-1.53a3,3,0,0,0-2,.74v-1a3.68,3.68,0,0,1,2-.57c1.41,0,2.12.75,2.12,2.24Zm-1-3-1.45.2a2.35,2.35,0,0,0-1,.33,1,1,0,0,0-.34.84.93.93,0,0,0,.32.72,1.22,1.22,0,0,0,.83.28,1.55,1.55,0,0,0,1.18-.5,1.81,1.81,0,0,0,.47-1.27Z" fill="#2b3033"/><path d="M164.3,84.76a1.87,1.87,0,0,1-.89.18c-1,0-1.58-.58-1.58-1.75V79.64h-1v-.83h1V77.35l1-.31v1.77h1.51v.83h-1.51V83a1.37,1.37,0,0,0,.21.86.81.81,0,0,0,.68.26,1,1,0,0,0,.62-.2Z" fill="#2b3033"/><path d="M166.08,77.29a.64.64,0,0,1-.44-.17.65.65,0,0,1,0-.9.6.6,0,0,1,.44-.18.64.64,0,0,1,.45.18.61.61,0,0,1,.18.45.6.6,0,0,1-.18.44A.64.64,0,0,1,166.08,77.29Zm.47,7.52h-1v-6h1Z" fill="#2b3033"/><path d="M171,85a2.74,2.74,0,0,1-2.12-.85,3.1,3.1,0,0,1-.8-2.22,3.27,3.27,0,0,1,.83-2.37,3,3,0,0,1,2.23-.85,2.71,2.71,0,0,1,2.1.83,3.27,3.27,0,0,1,.75,2.29,3.21,3.21,0,0,1-.81,2.3A2.84,2.84,0,0,1,171,85Zm.07-5.48a1.8,1.8,0,0,0-1.46.63,2.59,2.59,0,0,0-.54,1.74,2.46,2.46,0,0,0,.54,1.68,1.85,1.85,0,0,0,1.46.62,1.73,1.73,0,0,0,1.43-.61,2.57,2.57,0,0,0,.5-1.71,2.65,2.65,0,0,0-.5-1.74A1.76,1.76,0,0,0,171.07,79.48Z" fill="#2b3033"/><path d="M180.5,84.81h-1V81.39c0-1.27-.46-1.91-1.39-1.91A1.5,1.5,0,0,0,177,80a2,2,0,0,0-.48,1.37v3.42h-1v-6h1v1h0a2.16,2.16,0,0,1,2-1.14,1.85,1.85,0,0,1,1.5.64,2.82,2.82,0,0,1,.52,1.84Z" fill="#2b3033"/><path d="M185.24,84.6v-1a2.88,2.88,0,0,0,1.73.58c.84,0,1.26-.28,1.26-.85a.65.65,0,0,0-.11-.4,1,1,0,0,0-.29-.3,2.18,2.18,0,0,0-.43-.23l-.54-.22c-.26-.1-.5-.21-.7-.31a2,2,0,0,1-.5-.37,1.29,1.29,0,0,1-.31-.46,1.57,1.57,0,0,1-.1-.6,1.44,1.44,0,0,1,.19-.75,1.58,1.58,0,0,1,.52-.54,2.21,2.21,0,0,1,.73-.33,3.08,3.08,0,0,1,.86-.12,3.41,3.41,0,0,1,1.39.27v1a2.71,2.71,0,0,0-1.52-.44,1.88,1.88,0,0,0-.49.06,1.28,1.28,0,0,0-.37.18.85.85,0,0,0-.24.26.7.7,0,0,0-.09.35.8.8,0,0,0,.09.39.94.94,0,0,0,.25.28,1.67,1.67,0,0,0,.4.22l.53.22c.27.1.5.21.71.31a2,2,0,0,1,.54.37,1.41,1.41,0,0,1,.35.46,1.54,1.54,0,0,1,.12.63,1.47,1.47,0,0,1-.2.77,1.82,1.82,0,0,1-.52.55,2.49,2.49,0,0,1-.76.32,3.7,3.7,0,0,1-.9.11A3.37,3.37,0,0,1,185.24,84.6Z" fill="#2b3033"/><path d="M195.54,84.81h-1v-.94h0A2,2,0,0,1,192.71,85c-1.43,0-2.15-.86-2.15-2.56V78.81h1v3.44c0,1.26.48,1.9,1.45,1.9a1.49,1.49,0,0,0,1.16-.52,2,2,0,0,0,.45-1.36V78.81h1Z" fill="#2b3033"/><path d="M201.57,84.54a3.08,3.08,0,0,1-1.64.42,2.72,2.72,0,0,1-2.07-.84,3.06,3.06,0,0,1-.79-2.16,3.37,3.37,0,0,1,.85-2.39,3,3,0,0,1,2.27-.9,3.13,3.13,0,0,1,1.4.3v1a2.49,2.49,0,0,0-1.43-.47,1.92,1.92,0,0,0-1.51.66,2.47,2.47,0,0,0-.59,1.73,2.39,2.39,0,0,0,.55,1.67,1.94,1.94,0,0,0,1.49.61,2.44,2.44,0,0,0,1.47-.52Z" fill="#2b3033"/><path d="M207.12,84.54a3.1,3.1,0,0,1-1.64.42,2.69,2.69,0,0,1-2.07-.84,3,3,0,0,1-.79-2.16,3.33,3.33,0,0,1,.85-2.39,3,3,0,0,1,2.26-.9,3.1,3.1,0,0,1,1.4.3v1a2.47,2.47,0,0,0-1.43-.47,1.93,1.93,0,0,0-1.51.66,2.52,2.52,0,0,0-.59,1.73,2.39,2.39,0,0,0,.56,1.67,1.91,1.91,0,0,0,1.48.61,2.47,2.47,0,0,0,1.48-.52Z" fill="#2b3033"/><path d="M213.39,82.06h-4.23a2.18,2.18,0,0,0,.54,1.54,1.82,1.82,0,0,0,1.41.55,3,3,0,0,0,1.87-.67v.9a3.53,3.53,0,0,1-2.1.58,2.54,2.54,0,0,1-2-.82,3.33,3.33,0,0,1-.73-2.3,3.25,3.25,0,0,1,.79-2.28,2.56,2.56,0,0,1,2-.89,2.26,2.26,0,0,1,1.82.77,3.15,3.15,0,0,1,.64,2.11Zm-1-.82A2,2,0,0,0,212,80a1.38,1.38,0,0,0-1.1-.47,1.6,1.6,0,0,0-1.16.49,2.21,2.21,0,0,0-.58,1.27Z" fill="#2b3033"/><path d="M214.48,84.6v-1a2.9,2.9,0,0,0,1.73.58c.84,0,1.27-.28,1.27-.85a.72.72,0,0,0-.11-.4,1,1,0,0,0-.29-.3,2.27,2.27,0,0,0-.44-.23l-.53-.22a6.87,6.87,0,0,1-.7-.31,2,2,0,0,1-.51-.37,1.41,1.41,0,0,1-.3-.46,1.57,1.57,0,0,1-.11-.6,1.45,1.45,0,0,1,.2-.75,1.65,1.65,0,0,1,.51-.54,2.26,2.26,0,0,1,.74-.33,3,3,0,0,1,.85-.12,3.46,3.46,0,0,1,1.4.27v1a2.74,2.74,0,0,0-1.53-.44,1.75,1.75,0,0,0-.48.06,1.34,1.34,0,0,0-.38.18.85.85,0,0,0-.24.26.82.82,0,0,0-.08.35.74.74,0,0,0,.33.67,1.67,1.67,0,0,0,.4.22l.53.22c.27.1.51.21.72.31a2.44,2.44,0,0,1,.54.37,1.38,1.38,0,0,1,.34.46,1.54,1.54,0,0,1,.12.63,1.38,1.38,0,0,1-.2.77,1.7,1.7,0,0,1-.52.55,2.49,2.49,0,0,1-.76.32,3.68,3.68,0,0,1-.89.11A3.41,3.41,0,0,1,214.48,84.6Z" fill="#2b3033"/><path d="M219.57,84.6v-1a2.9,2.9,0,0,0,1.73.58c.85,0,1.27-.28,1.27-.85a.72.72,0,0,0-.11-.4,1,1,0,0,0-.29-.3,2.27,2.27,0,0,0-.44-.23l-.53-.22a6.87,6.87,0,0,1-.7-.31,2.23,2.23,0,0,1-.51-.37,1.41,1.41,0,0,1-.3-.46,1.57,1.57,0,0,1-.1-.6,1.44,1.44,0,0,1,.19-.75,1.65,1.65,0,0,1,.51-.54,2.26,2.26,0,0,1,.74-.33,3.06,3.06,0,0,1,.85-.12,3.46,3.46,0,0,1,1.4.27v1a2.72,2.72,0,0,0-1.53-.44,1.75,1.75,0,0,0-.48.06,1.16,1.16,0,0,0-.37.18.66.66,0,0,0-.24.26.7.7,0,0,0-.09.35.8.8,0,0,0,.09.39.78.78,0,0,0,.24.28,1.89,1.89,0,0,0,.4.22l.54.22c.26.1.5.21.71.31a2.44,2.44,0,0,1,.54.37,1.38,1.38,0,0,1,.34.46,1.54,1.54,0,0,1,.12.63,1.47,1.47,0,0,1-.19.77,1.74,1.74,0,0,1-.53.55,2.54,2.54,0,0,1-.75.32,3.82,3.82,0,0,1-.9.11A3.41,3.41,0,0,1,219.57,84.6Z" fill="#2b3033"/><path d="M228,76.78a1.21,1.21,0,0,0-.63-.16c-.68,0-1,.42-1,1.27v.92h1.4v.83h-1.4v5.17h-1V79.64h-1v-.83h1v-1a2,2,0,0,1,.55-1.49,2,2,0,0,1,2.05-.44Z" fill="#2b3033"/><path d="M233.64,84.81h-1v-.94h0A2,2,0,0,1,230.8,85c-1.43,0-2.14-.86-2.14-2.56V78.81h1v3.44c0,1.26.49,1.9,1.45,1.9a1.49,1.49,0,0,0,1.16-.52,2,2,0,0,0,.46-1.36V78.81h1Z" fill="#2b3033"/><path d="M236.54,84.81h-1V75.93h1Z" fill="#2b3033"/><path d="M239.44,84.81h-1V75.93h1Z" fill="#2b3033"/><path d="M246.16,78.81l-2.76,7q-.74,1.86-2.07,1.86a2.25,2.25,0,0,1-.63-.08V86.7a1.84,1.84,0,0,0,.57.11,1.17,1.17,0,0,0,1.09-.87l.48-1.14-2.34-6h1.06l1.63,4.62c0,.06.06.21.12.46h0c0-.09.05-.24.11-.45l1.71-4.63Z" fill="#2b3033"/><path d="M246.79,84.94a.6.6,0,0,1-.46-.19.63.63,0,0,1-.2-.46.65.65,0,0,1,.2-.47.6.6,0,0,1,.46-.19.62.62,0,0,1,.46.19.65.65,0,0,1,.2.47.63.63,0,0,1-.2.46A.62.62,0,0,1,246.79,84.94Z" fill="#2b3033"/><path d="M33,99.22H32V90.81h1Z" fill="#2b3033"/><path d="M37.82,99.16a1.87,1.87,0,0,1-.89.18c-1,0-1.58-.58-1.58-1.75V94h-1v-.82h1V91.75l1-.31v1.78h1.51V94H36.31v3.38a1.37,1.37,0,0,0,.21.86.81.81,0,0,0,.68.26,1,1,0,0,0,.62-.2Z" fill="#2b3033"/><path d="M43.83,96.46H39.6A2.18,2.18,0,0,0,40.14,98a1.82,1.82,0,0,0,1.41.55,3,3,0,0,0,1.87-.67v.9a3.52,3.52,0,0,1-2.09.58,2.55,2.55,0,0,1-2-.82,3.33,3.33,0,0,1-.73-2.3A3.27,3.27,0,0,1,39.4,94a2.52,2.52,0,0,1,2-.89,2.26,2.26,0,0,1,1.82.77A3.15,3.15,0,0,1,43.83,96Zm-1-.82a1.93,1.93,0,0,0-.4-1.29,1.38,1.38,0,0,0-1.1-.47,1.56,1.56,0,0,0-1.15.49,2.16,2.16,0,0,0-.59,1.27Z" fill="#2b3033"/><path d="M53.81,99.22h-1V95.77a2.65,2.65,0,0,0-.31-1.44,1.17,1.17,0,0,0-1-.45,1.27,1.27,0,0,0-1,.57A2.11,2.11,0,0,0,50,95.79v3.43h-1V95.65c0-1.18-.46-1.77-1.37-1.77a1.27,1.27,0,0,0-1,.53,2.18,2.18,0,0,0-.41,1.38v3.43h-1v-6h1v.94h0a2.06,2.06,0,0,1,1.86-1.09,1.77,1.77,0,0,1,1.08.35,1.73,1.73,0,0,1,.62.9,2.15,2.15,0,0,1,2-1.25c1.32,0,2,.82,2,2.45Z" fill="#2b3033"/><path d="M56,94.39a.61.61,0,0,1-.46-.2.65.65,0,0,1,0-.92.63.63,0,0,1,.46-.18.67.67,0,0,1,.47.18.65.65,0,0,1,0,.92A.65.65,0,0,1,56,94.39Zm0,5a.6.6,0,0,1-.46-.19.62.62,0,0,1-.19-.46.64.64,0,0,1,.19-.47A.6.6,0,0,1,56,98a.64.64,0,0,1,.47.19.68.68,0,0,1,.19.47.66.66,0,0,1-.19.46A.64.64,0,0,1,56,99.34Z" fill="#2b3033"/><path d="M68.41,99.22h-1.2l-4.33-6.7a2.94,2.94,0,0,1-.27-.53h0a9.48,9.48,0,0,1,0,1.16v6.07h-1V90.81h1.28l4.2,6.59c.18.28.29.47.34.57h0a8.74,8.74,0,0,1-.06-1.24V90.81h1Z" fill="#2b3033"/><path d="M71.6,99.22h-1V90.81h1Z" fill="#2b3033"/><path d="M78.08,96v3.18h-1V90.81h2.31a3.06,3.06,0,0,1,2.09.66,2.35,2.35,0,0,1,.74,1.85,2.55,2.55,0,0,1-.83,2,3.13,3.13,0,0,1-2.22.76Zm0-4.34v3.45h1a2.33,2.33,0,0,0,1.56-.47,1.64,1.64,0,0,0,.54-1.31c0-1.11-.66-1.67-2-1.67Z" fill="#2b3033"/><path d="M89.54,98.86a4.92,4.92,0,0,1-2.32.5,3.72,3.72,0,0,1-2.87-1.16,4.26,4.26,0,0,1-1.08-3,4.47,4.47,0,0,1,1.21-3.26,4.14,4.14,0,0,1,3.08-1.24,5,5,0,0,1,2,.35v1a4,4,0,0,0-2-.51,3.07,3.07,0,0,0-2.34,1,3.64,3.64,0,0,0-.9,2.58,3.47,3.47,0,0,0,.84,2.45,2.86,2.86,0,0,0,2.21.91,4.2,4.2,0,0,0,2.19-.56Z" fill="#2b3033"/><path d="M92.23,99.22h-1V90.81h1Z" fill="#2b3033"/><path d="M99.13,96.46H94.9A2.18,2.18,0,0,0,95.44,98a1.82,1.82,0,0,0,1.42.55,3,3,0,0,0,1.86-.67v.9a3.52,3.52,0,0,1-2.09.58,2.55,2.55,0,0,1-2-.82,3.33,3.33,0,0,1-.73-2.3A3.27,3.27,0,0,1,94.7,94a2.54,2.54,0,0,1,2-.89,2.26,2.26,0,0,1,1.82.77A3.15,3.15,0,0,1,99.13,96Zm-1-.82a1.93,1.93,0,0,0-.4-1.29,1.36,1.36,0,0,0-1.1-.47,1.56,1.56,0,0,0-1.15.49,2.16,2.16,0,0,0-.59,1.27Z" fill="#2b3033"/><path d="M103.66,96.25h-3.2v-.76h3.2Z" fill="#2b3033"/><path d="M104.94,96.87a2.29,2.29,0,0,1,.11-.67,2.6,2.6,0,0,1,.3-.63,2.65,2.65,0,0,1,.48-.53,2.41,2.41,0,0,1,.66-.38,2.52,2.52,0,0,1-.86-.79,1.79,1.79,0,0,1-.33-1.05,2,2,0,0,1,.18-.86,2.1,2.1,0,0,1,.5-.68,2.34,2.34,0,0,1,.75-.45,2.85,2.85,0,0,1,.94-.16,2.62,2.62,0,0,1,.94.17,2.34,2.34,0,0,1,.75.45,2.08,2.08,0,0,1,.49.68,2,2,0,0,1,.18.85,1.86,1.86,0,0,1-.32,1.05,2.62,2.62,0,0,1-.86.79,2.22,2.22,0,0,1,.65.38,2.65,2.65,0,0,1,.48.53,3.07,3.07,0,0,1,.31.63,2.27,2.27,0,0,1,.1.67,2.56,2.56,0,0,1-.2,1,2.29,2.29,0,0,1-.56.78,2.55,2.55,0,0,1-.86.51,3.45,3.45,0,0,1-2.2,0,2.55,2.55,0,0,1-.86-.51,2.46,2.46,0,0,1-.57-.78A2.56,2.56,0,0,1,104.94,96.87Zm1-.08a2,2,0,0,0,.12.71,1.66,1.66,0,0,0,.34.54,1.5,1.5,0,0,0,.54.34,1.92,1.92,0,0,0,.69.12,1.87,1.87,0,0,0,.68-.12,1.54,1.54,0,0,0,.89-.89,1.94,1.94,0,0,0,.13-.7,1.84,1.84,0,0,0-.12-.66,1.62,1.62,0,0,0-.35-.54,1.54,1.54,0,0,0-.53-.37,1.75,1.75,0,0,0-.7-.14,1.86,1.86,0,0,0-.67.13,1.58,1.58,0,0,0-.53.35,1.7,1.7,0,0,0-.36.54A1.93,1.93,0,0,0,106,96.79Zm.3-3.9a1.47,1.47,0,0,0,.11.56,1.23,1.23,0,0,0,.3.44,1.32,1.32,0,0,0,.44.3,1.38,1.38,0,0,0,1.08,0,1.38,1.38,0,0,0,.75-.75,1.42,1.42,0,0,0,.11-.55,1.47,1.47,0,0,0-.11-.56,1.43,1.43,0,0,0-.74-.74,1.46,1.46,0,0,0-1.11,0,1.55,1.55,0,0,0-.44.3,1.34,1.34,0,0,0-.29.45A1.68,1.68,0,0,0,106.28,92.89Z" fill="#2b3033"/><path d="M116.47,96.84a2.32,2.32,0,0,1-.22,1,2.25,2.25,0,0,1-.6.8,2.74,2.74,0,0,1-.94.51,3.78,3.78,0,0,1-1.2.18,3.46,3.46,0,0,1-1.91-.46v-1a3.06,3.06,0,0,0,2,.67,2.74,2.74,0,0,0,.79-.11,1.69,1.69,0,0,0,.61-.32,1.39,1.39,0,0,0,.39-.51,1.51,1.51,0,0,0,.14-.68c0-1.09-.78-1.64-2.34-1.64h-.7v-.82h.66c1.39,0,2.08-.51,2.08-1.54s-.53-1.43-1.58-1.43a2.72,2.72,0,0,0-1.67.59v-.93a3.64,3.64,0,0,1,1.91-.48,2.83,2.83,0,0,1,1,.15,2.07,2.07,0,0,1,.73.41,1.86,1.86,0,0,1,.48.63,2,2,0,0,1,.16.82,2.06,2.06,0,0,1-1.67,2.13v0a2.56,2.56,0,0,1,.79.21,2.12,2.12,0,0,1,.62.42,1.75,1.75,0,0,1,.42.61A1.92,1.92,0,0,1,116.47,96.84Z" fill="#2b3033"/><path d="M123.23,94.51a8.48,8.48,0,0,1-.22,2,4.89,4.89,0,0,1-.67,1.53,3.12,3.12,0,0,1-1.07,1,3.25,3.25,0,0,1-1.45.32,3.52,3.52,0,0,1-1.46-.29v-.92a3,3,0,0,0,1.49.39,2.18,2.18,0,0,0,1-.23,2.09,2.09,0,0,0,.76-.69,3.18,3.18,0,0,0,.48-1.1,6.25,6.25,0,0,0,.16-1.51h0a1.92,1.92,0,0,1-1.88,1.09,2.64,2.64,0,0,1-1-.19,2.37,2.37,0,0,1-.78-.54,2.76,2.76,0,0,1-.51-.83,3,3,0,0,1-.18-1.06,3.21,3.21,0,0,1,.2-1.14,2.83,2.83,0,0,1,.57-.89,2.49,2.49,0,0,1,.85-.57,2.74,2.74,0,0,1,1.08-.21,2.41,2.41,0,0,1,1.13.26,2.31,2.31,0,0,1,.82.74,3.84,3.84,0,0,1,.51,1.21A6.69,6.69,0,0,1,123.23,94.51Zm-1-.86a2.77,2.77,0,0,0-.13-.89,2.08,2.08,0,0,0-.35-.68,1.6,1.6,0,0,0-.53-.44,1.5,1.5,0,0,0-.67-.15,1.53,1.53,0,0,0-.64.13,1.69,1.69,0,0,0-.52.39,1.92,1.92,0,0,0-.35.59,2.27,2.27,0,0,0-.12.75,2.49,2.49,0,0,0,.12.8,1.63,1.63,0,0,0,.34.59,1.45,1.45,0,0,0,.54.37,1.7,1.7,0,0,0,.69.13,1.68,1.68,0,0,0,.63-.12,1.87,1.87,0,0,0,.52-.34,1.63,1.63,0,0,0,.34-.51A1.44,1.44,0,0,0,122.2,93.65Z" fill="#2b3033"/><path d="M124.35,96.87a2.27,2.27,0,0,1,.1-.67,2.6,2.6,0,0,1,.3-.63,3.05,3.05,0,0,1,.49-.53,2.15,2.15,0,0,1,.66-.38,2.65,2.65,0,0,1-.87-.79,1.86,1.86,0,0,1-.32-1.05,2,2,0,0,1,.18-.86,2.08,2.08,0,0,1,.49-.68,2.58,2.58,0,0,1,.75-.45,2.9,2.9,0,0,1,.94-.16,2.67,2.67,0,0,1,1,.17,2.58,2.58,0,0,1,.75.45,2.08,2.08,0,0,1,.49.68,2,2,0,0,1,.17.85,1.78,1.78,0,0,1-.32,1.05,2.58,2.58,0,0,1-.85.79,2.36,2.36,0,0,1,.65.38,2.65,2.65,0,0,1,.48.53,2.6,2.6,0,0,1,.3.63,2.29,2.29,0,0,1,.11.67,2.56,2.56,0,0,1-.2,1,2.43,2.43,0,0,1-.56.78,2.55,2.55,0,0,1-.86.51,3.31,3.31,0,0,1-1.11.18,3.16,3.16,0,0,1-1.09-.18,2.46,2.46,0,0,1-.86-.51,2.19,2.19,0,0,1-.57-.78A2.56,2.56,0,0,1,124.35,96.87Zm1-.08a2,2,0,0,0,.12.71,1.5,1.5,0,0,0,.34.54,1.46,1.46,0,0,0,.53.34,1.94,1.94,0,0,0,.7.12,1.91,1.91,0,0,0,.68-.12,1.58,1.58,0,0,0,.53-.35,1.7,1.7,0,0,0,.36-.54,1.94,1.94,0,0,0,.12-.7,1.84,1.84,0,0,0-.12-.66,1.6,1.6,0,0,0-.34-.54,1.64,1.64,0,0,0-.53-.37,1.75,1.75,0,0,0-.7-.14,1.82,1.82,0,0,0-.67.13,1.53,1.53,0,0,0-.54.35,1.68,1.68,0,0,0-.35.54A1.73,1.73,0,0,0,125.39,96.79Zm.3-3.9a1.47,1.47,0,0,0,.11.56,1.43,1.43,0,0,0,.74.74,1.38,1.38,0,0,0,1.08,0,1.55,1.55,0,0,0,.44-.3,1.37,1.37,0,0,0,.3-.45,1.26,1.26,0,0,0,.11-.55,1.3,1.3,0,0,0-.11-.56,1.35,1.35,0,0,0-.29-.44,1.32,1.32,0,0,0-.44-.3,1.46,1.46,0,0,0-.55-.11,1.48,1.48,0,0,0-.57.11,1.71,1.71,0,0,0-.44.3,1.48,1.48,0,0,0-.28.45A1.45,1.45,0,0,0,125.69,92.89Z" fill="#2b3033"/><path d="M137.07,101.13h-.86A7.51,7.51,0,0,1,134.4,96a7.79,7.79,0,0,1,1.81-5.2h.87A7.91,7.91,0,0,0,135.24,96,7.77,7.77,0,0,0,137.07,101.13Z" fill="#2b3033"/><path d="M146.87,99.22h-1V93.58c0-.45,0-1,.08-1.64h0a5.38,5.38,0,0,1-.26.82l-2.87,6.46h-.48l-2.86-6.41a4.69,4.69,0,0,1-.26-.87h0c0,.34.05.89.05,1.65v5.63h-.95V90.81h1.3l2.58,5.86a6.32,6.32,0,0,1,.38,1h0c.17-.46.3-.8.4-1l2.63-5.84h1.24Z" fill="#2b3033"/><path d="M154.88,99.22h-1.21L151.74,96a2.93,2.93,0,0,1-.19-.42h0c0,.09-.1.23-.2.42l-2,3.22h-1.21L150.94,95l-2.59-4.18h1.2l1.72,3c.11.19.21.39.3.58h0c.13-.26.24-.46.33-.61l1.79-2.93h1.13L152.2,95Z" fill="#2b3033"/><path d="M157.14,99.22h-1V90.81h1Z" fill="#2b3033"/><path d="M162.49,99.22h-1V92l-.33.25a3.57,3.57,0,0,1-.48.28,5.77,5.77,0,0,1-.56.27,4.89,4.89,0,0,1-.58.19V92a6.12,6.12,0,0,0,.67-.24c.24-.1.47-.21.7-.33s.44-.25.65-.39a6.39,6.39,0,0,0,.52-.39h.37Z" fill="#2b3033"/><path d="M165.71,101.13h-.86A7.77,7.77,0,0,0,166.68,96a7.91,7.91,0,0,0-1.84-5.19h.87a7.75,7.75,0,0,1,1.83,5.2A7.47,7.47,0,0,1,165.71,101.13Z" fill="#2b3033"/><path d="M40.54,113.61h-1V108c0-.45,0-1,.08-1.64h0a5.64,5.64,0,0,1-.25.82l-2.87,6.45H36l-2.87-6.41a5.3,5.3,0,0,1-.25-.86h0c0,.34,0,.89,0,1.65v5.62H32v-8.4h1.31l2.57,5.86a7.92,7.92,0,0,1,.39,1h0c.16-.46.3-.81.4-1l2.63-5.84h1.23Z" fill="#2b3033"/><path d="M46.92,113.61H46v-.93h0a2,2,0,0,1-1.84,1.08,2,2,0,0,1-1.41-.48,1.64,1.64,0,0,1-.5-1.26c0-1.12.66-1.77,2-2l1.8-.25c0-1-.42-1.53-1.24-1.53a3,3,0,0,0-2,.74v-1a3.68,3.68,0,0,1,2-.57c1.41,0,2.12.75,2.12,2.24Zm-1-3-1.45.2a2.3,2.3,0,0,0-1,.33,1,1,0,0,0-.34.84.92.92,0,0,0,.31.72,1.25,1.25,0,0,0,.84.28,1.55,1.55,0,0,0,1.18-.5,1.81,1.81,0,0,0,.47-1.27Z" fill="#2b3033"/><path d="M51.51,113.56a2,2,0,0,1-.9.18c-1,0-1.57-.58-1.57-1.75v-3.55H48v-.83h1v-1.46l1-.31v1.77h1.51v.83H50v3.38a1.45,1.45,0,0,0,.2.86.84.84,0,0,0,.68.26,1.05,1.05,0,0,0,.63-.2Z" fill="#2b3033"/><path d="M56.72,113.34a3.08,3.08,0,0,1-1.64.42,2.72,2.72,0,0,1-2.07-.84,3.06,3.06,0,0,1-.79-2.16,3.37,3.37,0,0,1,.85-2.39,3,3,0,0,1,2.27-.9,3.13,3.13,0,0,1,1.4.3v1a2.49,2.49,0,0,0-1.43-.47,1.92,1.92,0,0,0-1.51.66,2.52,2.52,0,0,0-.59,1.73,2.39,2.39,0,0,0,.55,1.67,1.94,1.94,0,0,0,1.49.61,2.44,2.44,0,0,0,1.47-.52Z" fill="#2b3033"/><path d="M63.16,113.61h-1v-3.45c0-1.25-.47-1.88-1.4-1.88a1.51,1.51,0,0,0-1.18.54,2.05,2.05,0,0,0-.48,1.4v3.39h-1v-8.88h1v3.88h0a2.18,2.18,0,0,1,2-1.14c1.35,0,2,.82,2,2.45Z" fill="#2b3033"/><path d="M65.3,108.79a.63.63,0,0,1-.46-.2.65.65,0,0,1,0-.92.65.65,0,0,1,.46-.18.66.66,0,0,1,.47.18.65.65,0,0,1,0,.92A.63.63,0,0,1,65.3,108.79Zm0,4.95a.62.62,0,0,1-.46-.19.66.66,0,0,1-.19-.46.68.68,0,0,1,.19-.47.62.62,0,0,1,.46-.19.63.63,0,0,1,.47.19.64.64,0,0,1,.19.47.62.62,0,0,1-.19.46A.63.63,0,0,1,65.3,113.74Z" fill="#2b3033"/><path d="M77.76,113.61H76.55l-4.32-6.69a2.94,2.94,0,0,1-.27-.53h0a7.12,7.12,0,0,1,0,1.15v6.07H71v-8.4h1.27l4.21,6.59c.18.28.29.47.34.57h0a9.27,9.27,0,0,1,0-1.24v-5.92h1Z" fill="#2b3033"/><path d="M81,113.61H80v-8.4h1Z" fill="#2b3033"/><path d="M87.43,110.44v3.17h-1v-8.4h2.31a3,3,0,0,1,2.09.66,2.35,2.35,0,0,1,.74,1.85,2.54,2.54,0,0,1-.82,2,3.13,3.13,0,0,1-2.22.76Zm0-4.34v3.45h1a2.28,2.28,0,0,0,1.55-.47,1.64,1.64,0,0,0,.54-1.31c0-1.11-.66-1.67-2-1.67Z" fill="#2b3033"/><path d="M98.88,113.26a4.89,4.89,0,0,1-2.32.5,3.75,3.75,0,0,1-2.87-1.16,4.26,4.26,0,0,1-1.08-3,4.48,4.48,0,0,1,1.22-3.26,4.12,4.12,0,0,1,3.07-1.24,4.91,4.91,0,0,1,2,.35v1a4,4,0,0,0-2-.51,3.06,3.06,0,0,0-2.35,1,3.64,3.64,0,0,0-.9,2.58,3.43,3.43,0,0,0,.85,2.45,2.84,2.84,0,0,0,2.2.91,4.15,4.15,0,0,0,2.19-.56Z" fill="#2b3033"/><path d="M101.58,113.61h-1v-8.4h1Z" fill="#2b3033"/><path d="M108.48,110.85h-4.24a2.28,2.28,0,0,0,.54,1.55,1.85,1.85,0,0,0,1.42.55,3,3,0,0,0,1.86-.67v.9a3.48,3.48,0,0,1-2.09.58,2.56,2.56,0,0,1-2-.82,3.37,3.37,0,0,1-.72-2.3,3.25,3.25,0,0,1,.79-2.28,2.55,2.55,0,0,1,2-.89,2.26,2.26,0,0,1,1.83.77,3.15,3.15,0,0,1,.64,2.11Zm-1-.81a1.93,1.93,0,0,0-.41-1.29,1.36,1.36,0,0,0-1.09-.47,1.54,1.54,0,0,0-1.16.49,2.21,2.21,0,0,0-.58,1.27Z" fill="#2b3033"/><path d="M113,110.65h-3.2v-.76H113Z" fill="#2b3033"/><path d="M114.29,111.27a2.22,2.22,0,0,1,.1-.67,2.6,2.6,0,0,1,.3-.63,2.73,2.73,0,0,1,.49-.53,2.15,2.15,0,0,1,.66-.38,2.65,2.65,0,0,1-.87-.79,1.86,1.86,0,0,1-.32-1,2,2,0,0,1,.18-.86,2.08,2.08,0,0,1,.49-.68,2.58,2.58,0,0,1,.75-.45,2.9,2.9,0,0,1,.94-.16,2.67,2.67,0,0,1,.95.17,2.58,2.58,0,0,1,.75.45,2,2,0,0,1,.49.68,2.15,2.15,0,0,1,.17.85,1.78,1.78,0,0,1-.32,1,2.58,2.58,0,0,1-.85.79,2.36,2.36,0,0,1,.65.38,2.4,2.4,0,0,1,.48.53,2.6,2.6,0,0,1,.3.63,2.24,2.24,0,0,1,.11.67,2.56,2.56,0,0,1-.2,1,2.43,2.43,0,0,1-.56.78,2.55,2.55,0,0,1-.86.51,3.31,3.31,0,0,1-1.11.18,3.16,3.16,0,0,1-1.09-.18,2.6,2.6,0,0,1-.87-.51,2.29,2.29,0,0,1-.56-.78A2.4,2.4,0,0,1,114.29,111.27Zm1-.08a2,2,0,0,0,.12.71,1.5,1.5,0,0,0,.34.54,1.46,1.46,0,0,0,.53.34,1.94,1.94,0,0,0,.7.12,1.91,1.91,0,0,0,.68-.12,1.75,1.75,0,0,0,.53-.35,1.53,1.53,0,0,0,.35-.54,1.91,1.91,0,0,0,0-1.36,1.5,1.5,0,0,0-.34-.54,1.58,1.58,0,0,0-.54-.37,1.67,1.67,0,0,0-.69-.14,1.82,1.82,0,0,0-.67.13,1.54,1.54,0,0,0-.89.89A1.73,1.73,0,0,0,115.33,111.19Zm.3-3.9a1.47,1.47,0,0,0,.11.56,1.32,1.32,0,0,0,.3.44,1.23,1.23,0,0,0,.44.3,1.38,1.38,0,0,0,1.08,0,1.55,1.55,0,0,0,.44-.3,1.37,1.37,0,0,0,.3-.45,1.26,1.26,0,0,0,.11-.55,1.3,1.3,0,0,0-.11-.56,1.51,1.51,0,0,0-.29-.45,1.42,1.42,0,0,0-1-.4,1.48,1.48,0,0,0-.57.11,1.71,1.71,0,0,0-.44.3,1.31,1.31,0,0,0-.28.45A1.45,1.45,0,0,0,115.63,107.29Z" fill="#2b3033"/><path d="M125.81,111.24a2.5,2.5,0,0,1-.21,1,2.37,2.37,0,0,1-.6.8,2.83,2.83,0,0,1-.94.51,3.78,3.78,0,0,1-1.2.18,3.44,3.44,0,0,1-1.91-.46v-1a3,3,0,0,0,1.94.67,2.81,2.81,0,0,0,.8-.11,1.78,1.78,0,0,0,.61-.32,1.39,1.39,0,0,0,.39-.51,1.65,1.65,0,0,0,.14-.68c0-1.09-.78-1.64-2.35-1.64h-.69v-.82h.66c1.38,0,2.07-.51,2.07-1.54s-.52-1.43-1.58-1.43a2.75,2.75,0,0,0-1.67.59v-.93a3.66,3.66,0,0,1,1.91-.48,2.93,2.93,0,0,1,1,.15,2.16,2.16,0,0,1,.73.41,1.83,1.83,0,0,1,.47.63,2,2,0,0,1,.17.82,2.06,2.06,0,0,1-1.68,2.13v0a2.49,2.49,0,0,1,.79.21,2.17,2.17,0,0,1,.63.42,1.73,1.73,0,0,1,.41.61A1.89,1.89,0,0,1,125.81,111.24Z" fill="#2b3033"/><path d="M132.58,108.91a8.45,8.45,0,0,1-.23,2,4.47,4.47,0,0,1-.67,1.53,3,3,0,0,1-1.07,1,3.18,3.18,0,0,1-1.44.32,3.52,3.52,0,0,1-1.46-.29v-.92a3,3,0,0,0,1.48.39,2.25,2.25,0,0,0,1-.23A2.17,2.17,0,0,0,131,112a3.18,3.18,0,0,0,.47-1.1,6.22,6.22,0,0,0,.17-1.51h0a1.91,1.91,0,0,1-1.87,1.09,2.64,2.64,0,0,1-1-.19,2.37,2.37,0,0,1-.78-.54,2.41,2.41,0,0,1-.51-.83,3,3,0,0,1-.18-1.06,3.21,3.21,0,0,1,.2-1.14,2.64,2.64,0,0,1,.56-.89,2.54,2.54,0,0,1,.86-.57,2.74,2.74,0,0,1,1.08-.21,2.37,2.37,0,0,1,1.12.26,2.15,2.15,0,0,1,.82.74,3.45,3.45,0,0,1,.51,1.2A6.8,6.8,0,0,1,132.58,108.91Zm-1-.86a3.09,3.09,0,0,0-.12-.89,2.3,2.3,0,0,0-.35-.68,1.71,1.71,0,0,0-.53-.44,1.53,1.53,0,0,0-.67-.15,1.57,1.57,0,0,0-.65.13,1.65,1.65,0,0,0-.52.39,1.9,1.9,0,0,0-.34.59,2,2,0,0,0-.13.75,2.49,2.49,0,0,0,.12.8,1.65,1.65,0,0,0,.35.59,1.34,1.34,0,0,0,.53.37,1.75,1.75,0,0,0,.7.13,1.68,1.68,0,0,0,.63-.12,2,2,0,0,0,.51-.34,1.65,1.65,0,0,0,.35-.51A1.59,1.59,0,0,0,131.54,108.05Z" fill="#2b3033"/><path d="M133.69,111.27a2.24,2.24,0,0,1,.11-.67,2.6,2.6,0,0,1,.3-.63,2.22,2.22,0,0,1,.49-.53,2.15,2.15,0,0,1,.66-.38,2.47,2.47,0,0,1-.87-.79,1.78,1.78,0,0,1-.32-1,2,2,0,0,1,.18-.86,1.94,1.94,0,0,1,.49-.68,2.34,2.34,0,0,1,.75-.45,2.85,2.85,0,0,1,.94-.16,2.62,2.62,0,0,1,.94.17,2.34,2.34,0,0,1,.75.45,1.85,1.85,0,0,1,.49.68,2,2,0,0,1,.18.85,1.86,1.86,0,0,1-.32,1,2.62,2.62,0,0,1-.86.79,2.22,2.22,0,0,1,.65.38,2.73,2.73,0,0,1,.49.53,2.6,2.6,0,0,1,.3.63,2.22,2.22,0,0,1,.1.67,2.4,2.4,0,0,1-.2,1,2.29,2.29,0,0,1-.56.78,2.46,2.46,0,0,1-.86.51,3.45,3.45,0,0,1-2.2,0,2.55,2.55,0,0,1-.86-.51,2.29,2.29,0,0,1-.56-.78A2.4,2.4,0,0,1,133.69,111.27Zm1.05-.08a2,2,0,0,0,.12.71,1.5,1.5,0,0,0,.34.54,1.38,1.38,0,0,0,.53.34,1.92,1.92,0,0,0,.69.12,1.83,1.83,0,0,0,.68-.12,1.68,1.68,0,0,0,.54-.35,1.53,1.53,0,0,0,.35-.54,1.91,1.91,0,0,0,0-1.36,1.53,1.53,0,0,0-.35-.54,1.45,1.45,0,0,0-.53-.37,1.75,1.75,0,0,0-.7-.14,1.86,1.86,0,0,0-.67.13,1.58,1.58,0,0,0-.53.35,1.53,1.53,0,0,0-.35.54A1.73,1.73,0,0,0,134.74,111.19Zm.3-3.9a1.47,1.47,0,0,0,.1.56,1.71,1.71,0,0,0,.3.44,1.43,1.43,0,0,0,.44.3,1.41,1.41,0,0,0,1.09,0,1.71,1.71,0,0,0,.44-.3,1.77,1.77,0,0,0,.3-.45,1.42,1.42,0,0,0,.11-.55,1.47,1.47,0,0,0-.11-.56,1.37,1.37,0,0,0-.3-.45A1.35,1.35,0,0,0,137,106a1.42,1.42,0,0,0-.55-.11,1.47,1.47,0,0,0-.56.11,1.55,1.55,0,0,0-.44.3,1.51,1.51,0,0,0-.29.45A1.67,1.67,0,0,0,135,107.29Z" fill="#2b3033"/><path d="M146.41,115.52h-.85a7.47,7.47,0,0,1-1.82-5.11,7.78,7.78,0,0,1,1.82-5.2h.87a7.91,7.91,0,0,0-1.84,5.19A7.79,7.79,0,0,0,146.41,115.52Z" fill="#2b3033"/><path d="M156.21,113.61h-1V108c0-.45,0-1,.08-1.64h0a5.64,5.64,0,0,1-.25.82l-2.87,6.45h-.48l-2.87-6.41a5.3,5.3,0,0,1-.25-.86h0c0,.34,0,.89,0,1.65v5.62h-1v-8.4H149l2.57,5.86a7.92,7.92,0,0,1,.39,1h0c.16-.46.3-.81.4-1l2.63-5.84h1.23Z" fill="#2b3033"/><path d="M164.22,113.61H163l-1.93-3.21a2.81,2.81,0,0,1-.2-.42h0l-.2.42-2,3.21h-1.21l2.81-4.22-2.59-4.18h1.21l1.72,3c.11.19.21.39.3.58h0a4.56,4.56,0,0,1,.33-.61l1.78-2.93h1.14l-2.65,4.17Z" fill="#2b3033"/><path d="M166.48,113.61h-1v-8.4h1Z" fill="#2b3033"/><path d="M171.83,113.61h-1v-7.26a2,2,0,0,1-.32.26,5.5,5.5,0,0,1-.48.28,5,5,0,0,1-.57.27,4.76,4.76,0,0,1-.57.19v-1a6.12,6.12,0,0,0,.67-.24c.23-.1.47-.21.69-.33s.45-.25.65-.39a4.88,4.88,0,0,0,.53-.4h.36Z" fill="#2b3033"/><path d="M175.05,115.52h-.85A7.75,7.75,0,0,0,176,110.4a8,8,0,0,0-1.84-5.19h.86a7.74,7.74,0,0,1,1.83,5.2A7.43,7.43,0,0,1,175.05,115.52Z" fill="#2b3033"/><path d="M33,142.41H32V134h1Z" fill="#2b3033"/><path d="M43.56,142.41h-1V139a2.54,2.54,0,0,0-.31-1.44,1.16,1.16,0,0,0-1-.45,1.29,1.29,0,0,0-1,.57,2.11,2.11,0,0,0-.43,1.34v3.42h-1v-3.56c0-1.18-.46-1.77-1.37-1.77a1.27,1.27,0,0,0-1,.53A2.24,2.24,0,0,0,36,139v3.42H35v-6h1v1h0a2.06,2.06,0,0,1,1.87-1.09,1.74,1.74,0,0,1,1.07.35,1.81,1.81,0,0,1,.63.9,2.14,2.14,0,0,1,2-1.25c1.32,0,2,.82,2,2.45Z" fill="#2b3033"/><path d="M46.36,141.55h0v3.62h-1v-8.76h1v1.06h0a2.26,2.26,0,0,1,2.07-1.2,2.18,2.18,0,0,1,1.81.81,3.31,3.31,0,0,1,.65,2.16,3.71,3.71,0,0,1-.73,2.41,2.44,2.44,0,0,1-2,.91A2,2,0,0,1,46.36,141.55Zm0-2.42V140a1.8,1.8,0,0,0,.48,1.26,1.62,1.62,0,0,0,1.23.52,1.64,1.64,0,0,0,1.37-.67,3.09,3.09,0,0,0,.49-1.86,2.41,2.41,0,0,0-.46-1.57,1.54,1.54,0,0,0-1.26-.57,1.69,1.69,0,0,0-1.34.59A2.11,2.11,0,0,0,46.34,139.13Z" fill="#2b3033"/><path d="M54.94,142.56a2.8,2.8,0,0,1-2.13-.85,3.1,3.1,0,0,1-.79-2.23,3.22,3.22,0,0,1,.83-2.36,3,3,0,0,1,2.23-.85,2.69,2.69,0,0,1,2.09.83,3.28,3.28,0,0,1,.76,2.29,3.19,3.19,0,0,1-.82,2.3A2.82,2.82,0,0,1,54.94,142.56Zm.07-5.48a1.84,1.84,0,0,0-1.47.63,2.59,2.59,0,0,0-.54,1.74,2.46,2.46,0,0,0,.55,1.68,1.85,1.85,0,0,0,1.46.62,1.73,1.73,0,0,0,1.43-.61,2.62,2.62,0,0,0,.5-1.71,2.71,2.71,0,0,0-.5-1.74A1.76,1.76,0,0,0,55,137.08Z" fill="#2b3033"/><path d="M62.59,137.39a1.18,1.18,0,0,0-.73-.2,1.25,1.25,0,0,0-1,.58,2.75,2.75,0,0,0-.41,1.59v3h-1v-6h1v1.24h0a2.08,2.08,0,0,1,.62-1,1.47,1.47,0,0,1,1-.35,1.65,1.65,0,0,1,.57.08Z" fill="#2b3033"/><path d="M66.76,142.36a1.87,1.87,0,0,1-.89.18c-1.06,0-1.58-.58-1.58-1.75v-3.56h-1v-.82h1V135l1-.31v1.77h1.51v.82H65.25v3.39a1.37,1.37,0,0,0,.21.86.8.8,0,0,0,.67.25,1,1,0,0,0,.63-.19Z" fill="#2b3033"/><path d="M72.77,139.65H68.54a2.19,2.19,0,0,0,.54,1.55,1.85,1.85,0,0,0,1.41.55,3,3,0,0,0,1.87-.67v.9a3.52,3.52,0,0,1-2.09.58,2.55,2.55,0,0,1-2-.82,3.33,3.33,0,0,1-.73-2.3,3.29,3.29,0,0,1,.79-2.28,2.56,2.56,0,0,1,2-.89,2.26,2.26,0,0,1,1.82.77,3.15,3.15,0,0,1,.64,2.11Zm-1-.81a1.93,1.93,0,0,0-.4-1.29,1.38,1.38,0,0,0-1.1-.47,1.56,1.56,0,0,0-1.16.49,2.21,2.21,0,0,0-.58,1.27Z" fill="#2b3033"/><path d="M79.35,142.41h-1v-1h0a2.21,2.21,0,0,1-2.06,1.16,2.24,2.24,0,0,1-1.81-.81,3.31,3.31,0,0,1-.67-2.19,3.6,3.6,0,0,1,.75-2.39,2.46,2.46,0,0,1,2-.9,1.92,1.92,0,0,1,1.8,1h0v-3.72h1Zm-1-2.71v-.88a1.7,1.7,0,0,0-.48-1.23,1.61,1.61,0,0,0-1.22-.51,1.68,1.68,0,0,0-1.39.65,2.85,2.85,0,0,0-.5,1.78,2.56,2.56,0,0,0,.48,1.64,1.6,1.6,0,0,0,1.3.6,1.68,1.68,0,0,0,1.31-.58A2.2,2.2,0,0,0,78.39,139.7Z" fill="#2b3033"/><path d="M85.07,134.89a.64.64,0,0,1-.44-.17.65.65,0,0,1,0-.9.6.6,0,0,1,.44-.18.61.61,0,0,1,.45.18.62.62,0,0,1,0,.89A.61.61,0,0,1,85.07,134.89Zm.47,7.52h-1v-6h1Z" fill="#2b3033"/><path d="M90.27,142.36a2,2,0,0,1-.9.18c-1.05,0-1.57-.58-1.57-1.75v-3.56h-1v-.82h1V135l1-.31v1.77h1.51v.82H88.76v3.39a1.45,1.45,0,0,0,.2.86.83.83,0,0,0,.68.25,1,1,0,0,0,.63-.19Z" fill="#2b3033"/><path d="M96.28,139.65H92a2.28,2.28,0,0,0,.54,1.55,1.89,1.89,0,0,0,1.42.55,3,3,0,0,0,1.87-.67v.9a3.53,3.53,0,0,1-2.1.58,2.54,2.54,0,0,1-2-.82,3.33,3.33,0,0,1-.73-2.3,3.25,3.25,0,0,1,.79-2.28,2.55,2.55,0,0,1,2-.89,2.26,2.26,0,0,1,1.83.77,3.15,3.15,0,0,1,.64,2.11Zm-1-.81a2,2,0,0,0-.4-1.29,1.38,1.38,0,0,0-1.1-.47,1.54,1.54,0,0,0-1.16.49,2.21,2.21,0,0,0-.58,1.27Z" fill="#2b3033"/><path d="M106.25,142.41h-1V139a2.64,2.64,0,0,0-.3-1.44,1.17,1.17,0,0,0-1-.45,1.26,1.26,0,0,0-1,.57,2.12,2.12,0,0,0-.44,1.34v3.42h-1v-3.56c0-1.18-.45-1.77-1.36-1.77a1.27,1.27,0,0,0-1,.53A2.18,2.18,0,0,0,98.7,139v3.42h-1v-6h1v1h0a2,2,0,0,1,1.86-1.09,1.72,1.72,0,0,1,1.07.35,1.69,1.69,0,0,1,.63.9,2.15,2.15,0,0,1,2-1.25c1.32,0,2,.82,2,2.45Z" fill="#2b3033"/><path d="M115.45,142.14a3.1,3.1,0,0,1-1.64.42,2.69,2.69,0,0,1-2.07-.84,3,3,0,0,1-.79-2.16,3.33,3.33,0,0,1,.85-2.39,3,3,0,0,1,2.26-.9,3.1,3.1,0,0,1,1.4.3v1a2.47,2.47,0,0,0-1.43-.47,1.93,1.93,0,0,0-1.51.66,2.52,2.52,0,0,0-.59,1.73,2.39,2.39,0,0,0,.56,1.67,1.91,1.91,0,0,0,1.48.61,2.47,2.47,0,0,0,1.48-.52Z" fill="#2b3033"/><path d="M119.41,142.56a2.8,2.8,0,0,1-2.13-.85,3.1,3.1,0,0,1-.79-2.23,3.26,3.26,0,0,1,.83-2.36,3,3,0,0,1,2.23-.85,2.69,2.69,0,0,1,2.09.83,3.23,3.23,0,0,1,.76,2.29,3.19,3.19,0,0,1-.82,2.3A2.82,2.82,0,0,1,119.41,142.56Zm.07-5.48a1.84,1.84,0,0,0-1.47.63,2.59,2.59,0,0,0-.54,1.74,2.46,2.46,0,0,0,.55,1.68,1.85,1.85,0,0,0,1.46.62,1.73,1.73,0,0,0,1.43-.61,2.57,2.57,0,0,0,.5-1.71,2.65,2.65,0,0,0-.5-1.74A1.76,1.76,0,0,0,119.48,137.08Z" fill="#2b3033"/><path d="M128.91,142.41h-1V139c0-1.27-.46-1.91-1.39-1.91a1.54,1.54,0,0,0-1.2.54,2.05,2.05,0,0,0-.47,1.37v3.42h-1v-6h1v1h0a2.16,2.16,0,0,1,2-1.14,1.86,1.86,0,0,1,1.51.64,2.82,2.82,0,0,1,.52,1.84Z" fill="#2b3033"/><path d="M133.69,134.38a1.24,1.24,0,0,0-.64-.16c-.67,0-1,.42-1,1.27v.92h1.41v.82H132v5.18h-.95v-5.18h-1v-.82h1v-1a2,2,0,0,1,.54-1.49,1.86,1.86,0,0,1,1.36-.55,1.9,1.9,0,0,1,.7.11Z" fill="#2b3033"/><path d="M135,134.89a.64.64,0,0,1-.44-.17.65.65,0,0,1,0-.9.6.6,0,0,1,.44-.18.62.62,0,0,1,.63.63.6.6,0,0,1-.18.44A.61.61,0,0,1,135,134.89Zm.47,7.52h-1v-6h1Z" fill="#2b3033"/><path d="M142.51,141.93q0,3.31-3.17,3.31a4.23,4.23,0,0,1-1.94-.42v-1a4,4,0,0,0,1.93.56c1.48,0,2.21-.79,2.21-2.36v-.65h0a2.42,2.42,0,0,1-3.86.35,3.19,3.19,0,0,1-.69-2.15,3.73,3.73,0,0,1,.74-2.43,2.44,2.44,0,0,1,2-.91,2,2,0,0,1,1.8,1h0v-.84h1Zm-1-2.23v-.88a1.73,1.73,0,0,0-.48-1.23,1.58,1.58,0,0,0-1.2-.51,1.68,1.68,0,0,0-1.4.65,2.93,2.93,0,0,0-.5,1.81,2.51,2.51,0,0,0,.48,1.61,1.56,1.56,0,0,0,1.28.6,1.67,1.67,0,0,0,1.32-.58A2.12,2.12,0,0,0,141.54,139.7Z" fill="#2b3033"/><path d="M149.3,142.41h-1v-.94h0a2,2,0,0,1-1.85,1.09c-1.43,0-2.15-.86-2.15-2.56v-3.59h1v3.44c0,1.26.48,1.9,1.45,1.9a1.5,1.5,0,0,0,1.16-.52,2,2,0,0,0,.45-1.36v-3.46h1Z" fill="#2b3033"/><path d="M154.37,137.39a1.18,1.18,0,0,0-.73-.2,1.22,1.22,0,0,0-1,.58,2.68,2.68,0,0,0-.42,1.59v3h-1v-6h1v1.24h0a2.08,2.08,0,0,1,.62-1,1.47,1.47,0,0,1,1-.35,1.65,1.65,0,0,1,.57.08Z" fill="#2b3033"/><path d="M159.71,142.41h-1v-.93h0a2,2,0,0,1-1.84,1.08,1.93,1.93,0,0,1-1.4-.48,1.65,1.65,0,0,1-.51-1.26c0-1.12.66-1.77,2-2l1.8-.25c0-1-.41-1.53-1.24-1.53a3,3,0,0,0-2,.74v-1a3.68,3.68,0,0,1,2-.57c1.41,0,2.12.75,2.12,2.24Zm-1-3-1.45.2a2.35,2.35,0,0,0-1,.33,1,1,0,0,0-.34.84.93.93,0,0,0,.32.72,1.22,1.22,0,0,0,.83.28,1.55,1.55,0,0,0,1.18-.5,1.81,1.81,0,0,0,.47-1.27Z" fill="#2b3033"/><path d="M164.3,142.36a1.87,1.87,0,0,1-.89.18c-1,0-1.58-.58-1.58-1.75v-3.56h-1v-.82h1V135l1-.31v1.77h1.51v.82h-1.51v3.39a1.37,1.37,0,0,0,.21.86.81.81,0,0,0,.68.25,1,1,0,0,0,.62-.19Z" fill="#2b3033"/><path d="M166.08,134.89a.64.64,0,0,1-.44-.17.65.65,0,0,1,0-.9.6.6,0,0,1,.44-.18.64.64,0,0,1,.45.18.61.61,0,0,1,.18.45.6.6,0,0,1-.18.44A.64.64,0,0,1,166.08,134.89Zm.47,7.52h-1v-6h1Z" fill="#2b3033"/><path d="M171,142.56a2.78,2.78,0,0,1-2.12-.85,3.11,3.11,0,0,1-.8-2.23,3.26,3.26,0,0,1,.83-2.36,3,3,0,0,1,2.23-.85,2.71,2.71,0,0,1,2.1.83,3.27,3.27,0,0,1,.75,2.29,3.23,3.23,0,0,1-.81,2.3A2.84,2.84,0,0,1,171,142.56Zm.07-5.48a1.8,1.8,0,0,0-1.46.63,2.59,2.59,0,0,0-.54,1.74,2.46,2.46,0,0,0,.54,1.68,1.85,1.85,0,0,0,1.46.62,1.73,1.73,0,0,0,1.43-.61,2.57,2.57,0,0,0,.5-1.71,2.65,2.65,0,0,0-.5-1.74A1.76,1.76,0,0,0,171.07,137.08Z" fill="#2b3033"/><path d="M180.5,142.41h-1V139c0-1.27-.46-1.91-1.39-1.91a1.5,1.5,0,0,0-1.19.54,2,2,0,0,0-.48,1.37v3.42h-1v-6h1v1h0a2.16,2.16,0,0,1,2-1.14,1.85,1.85,0,0,1,1.5.64,2.82,2.82,0,0,1,.52,1.84Z" fill="#2b3033"/><path d="M185.24,142.2v-1a2.88,2.88,0,0,0,1.73.58c.84,0,1.26-.28,1.26-.85a.65.65,0,0,0-.11-.4,1,1,0,0,0-.29-.3,2.18,2.18,0,0,0-.43-.23l-.54-.22c-.26-.1-.5-.21-.7-.31a2,2,0,0,1-.5-.37,1.29,1.29,0,0,1-.31-.46,1.57,1.57,0,0,1-.1-.6,1.44,1.44,0,0,1,.19-.75,1.58,1.58,0,0,1,.52-.54,2.21,2.21,0,0,1,.73-.33,3.08,3.08,0,0,1,.86-.12,3.41,3.41,0,0,1,1.39.27v1a2.71,2.71,0,0,0-1.52-.44,1.88,1.88,0,0,0-.49.06,1.28,1.28,0,0,0-.37.18.85.85,0,0,0-.24.26.7.7,0,0,0-.09.35.8.8,0,0,0,.09.39.94.94,0,0,0,.25.28,1.67,1.67,0,0,0,.4.22l.53.22c.27.1.5.21.71.31a2,2,0,0,1,.54.37,1.41,1.41,0,0,1,.35.46,1.54,1.54,0,0,1,.12.63,1.47,1.47,0,0,1-.2.77,1.82,1.82,0,0,1-.52.55,2.49,2.49,0,0,1-.76.32,3.7,3.7,0,0,1-.9.11A3.37,3.37,0,0,1,185.24,142.2Z" fill="#2b3033"/><path d="M195.54,142.41h-1v-.94h0a2,2,0,0,1-1.85,1.09c-1.43,0-2.15-.86-2.15-2.56v-3.59h1v3.44c0,1.26.48,1.9,1.45,1.9a1.49,1.49,0,0,0,1.16-.52,2,2,0,0,0,.45-1.36v-3.46h1Z" fill="#2b3033"/><path d="M201.57,142.14a3.08,3.08,0,0,1-1.64.42,2.72,2.72,0,0,1-2.07-.84,3.06,3.06,0,0,1-.79-2.16,3.37,3.37,0,0,1,.85-2.39,3,3,0,0,1,2.27-.9,3.13,3.13,0,0,1,1.4.3v1a2.49,2.49,0,0,0-1.43-.47,1.92,1.92,0,0,0-1.51.66,2.47,2.47,0,0,0-.59,1.73,2.39,2.39,0,0,0,.55,1.67,1.94,1.94,0,0,0,1.49.61,2.44,2.44,0,0,0,1.47-.52Z" fill="#2b3033"/><path d="M207.12,142.14a3.1,3.1,0,0,1-1.64.42,2.69,2.69,0,0,1-2.07-.84,3,3,0,0,1-.79-2.16,3.33,3.33,0,0,1,.85-2.39,3,3,0,0,1,2.26-.9,3.1,3.1,0,0,1,1.4.3v1a2.47,2.47,0,0,0-1.43-.47,1.93,1.93,0,0,0-1.51.66,2.52,2.52,0,0,0-.59,1.73,2.39,2.39,0,0,0,.56,1.67,1.91,1.91,0,0,0,1.48.61,2.47,2.47,0,0,0,1.48-.52Z" fill="#2b3033"/><path d="M213.39,139.65h-4.23a2.19,2.19,0,0,0,.54,1.55,1.85,1.85,0,0,0,1.41.55,3,3,0,0,0,1.87-.67v.9a3.53,3.53,0,0,1-2.1.58,2.54,2.54,0,0,1-2-.82,3.33,3.33,0,0,1-.73-2.3,3.25,3.25,0,0,1,.79-2.28,2.56,2.56,0,0,1,2-.89,2.26,2.26,0,0,1,1.82.77,3.15,3.15,0,0,1,.64,2.11Zm-1-.81a2,2,0,0,0-.4-1.29,1.38,1.38,0,0,0-1.1-.47,1.56,1.56,0,0,0-1.16.49,2.21,2.21,0,0,0-.58,1.27Z" fill="#2b3033"/><path d="M214.48,142.2v-1a2.9,2.9,0,0,0,1.73.58c.84,0,1.27-.28,1.27-.85a.72.72,0,0,0-.11-.4,1,1,0,0,0-.29-.3,2.27,2.27,0,0,0-.44-.23l-.53-.22a6.87,6.87,0,0,1-.7-.31,2,2,0,0,1-.51-.37,1.41,1.41,0,0,1-.3-.46,1.57,1.57,0,0,1-.11-.6,1.45,1.45,0,0,1,.2-.75,1.65,1.65,0,0,1,.51-.54,2.26,2.26,0,0,1,.74-.33,3,3,0,0,1,.85-.12,3.46,3.46,0,0,1,1.4.27v1a2.74,2.74,0,0,0-1.53-.44,1.75,1.75,0,0,0-.48.06,1.34,1.34,0,0,0-.38.18.85.85,0,0,0-.24.26.82.82,0,0,0-.08.35.74.74,0,0,0,.33.67,1.67,1.67,0,0,0,.4.22l.53.22c.27.1.51.21.72.31a2.44,2.44,0,0,1,.54.37,1.38,1.38,0,0,1,.34.46,1.54,1.54,0,0,1,.12.63,1.38,1.38,0,0,1-.2.77,1.7,1.7,0,0,1-.52.55,2.49,2.49,0,0,1-.76.32,3.68,3.68,0,0,1-.89.11A3.41,3.41,0,0,1,214.48,142.2Z" fill="#2b3033"/><path d="M219.57,142.2v-1a2.9,2.9,0,0,0,1.73.58c.85,0,1.27-.28,1.27-.85a.72.72,0,0,0-.11-.4,1,1,0,0,0-.29-.3,2.27,2.27,0,0,0-.44-.23l-.53-.22a6.87,6.87,0,0,1-.7-.31,2.23,2.23,0,0,1-.51-.37,1.41,1.41,0,0,1-.3-.46,1.57,1.57,0,0,1-.1-.6,1.44,1.44,0,0,1,.19-.75,1.65,1.65,0,0,1,.51-.54,2.26,2.26,0,0,1,.74-.33,3.06,3.06,0,0,1,.85-.12,3.46,3.46,0,0,1,1.4.27v1a2.72,2.72,0,0,0-1.53-.44,1.75,1.75,0,0,0-.48.06,1.16,1.16,0,0,0-.37.18.66.66,0,0,0-.24.26.7.7,0,0,0-.09.35.8.8,0,0,0,.09.39.78.78,0,0,0,.24.28,1.89,1.89,0,0,0,.4.22l.54.22c.26.1.5.21.71.31a2.44,2.44,0,0,1,.54.37,1.38,1.38,0,0,1,.34.46,1.54,1.54,0,0,1,.12.63,1.47,1.47,0,0,1-.19.77,1.74,1.74,0,0,1-.53.55,2.54,2.54,0,0,1-.75.32,3.82,3.82,0,0,1-.9.11A3.41,3.41,0,0,1,219.57,142.2Z" fill="#2b3033"/><path d="M228,134.38a1.21,1.21,0,0,0-.63-.16c-.68,0-1,.42-1,1.27v.92h1.4v.82h-1.4v5.18h-1v-5.18h-1v-.82h1v-1a2,2,0,0,1,.55-1.49,2,2,0,0,1,2.05-.44Z" fill="#2b3033"/><path d="M233.64,142.41h-1v-.94h0a2,2,0,0,1-1.85,1.09c-1.43,0-2.14-.86-2.14-2.56v-3.59h1v3.44c0,1.26.49,1.9,1.45,1.9a1.49,1.49,0,0,0,1.16-.52,2,2,0,0,0,.46-1.36v-3.46h1Z" fill="#2b3033"/><path d="M236.54,142.41h-1v-8.88h1Z" fill="#2b3033"/><path d="M239.44,142.41h-1v-8.88h1Z" fill="#2b3033"/><path d="M246.16,136.41l-2.76,7q-.74,1.86-2.07,1.86a2.25,2.25,0,0,1-.63-.08v-.86a1.84,1.84,0,0,0,.57.11,1.17,1.17,0,0,0,1.09-.87l.48-1.14-2.34-6h1.06l1.63,4.62c0,.06.06.21.12.46h0c0-.09.05-.24.11-.45l1.71-4.63Z" fill="#2b3033"/><path d="M246.79,142.54a.6.6,0,0,1-.46-.19.63.63,0,0,1-.2-.46.65.65,0,0,1,.2-.47.6.6,0,0,1,.46-.19.62.62,0,0,1,.46.19.65.65,0,0,1,.2.47.63.63,0,0,1-.2.46A.62.62,0,0,1,246.79,142.54Z" fill="#2b3033"/><path d="M33,156.81H32v-8.4h1Z" fill="#2b3033"/><path d="M37.82,156.76a1.87,1.87,0,0,1-.89.18c-1,0-1.58-.58-1.58-1.75v-3.55h-1v-.83h1v-1.46l1-.31v1.77h1.51v.83H36.31V155a1.37,1.37,0,0,0,.21.86.81.81,0,0,0,.68.26,1,1,0,0,0,.62-.2Z" fill="#2b3033"/><path d="M43.83,154.06H39.6a2.18,2.18,0,0,0,.54,1.54,1.82,1.82,0,0,0,1.41.55,3,3,0,0,0,1.87-.67v.9a3.52,3.52,0,0,1-2.09.58,2.55,2.55,0,0,1-2-.82,3.33,3.33,0,0,1-.73-2.3,3.25,3.25,0,0,1,.8-2.28,2.52,2.52,0,0,1,2-.89,2.26,2.26,0,0,1,1.82.77,3.15,3.15,0,0,1,.64,2.11Zm-1-.82a1.93,1.93,0,0,0-.4-1.29,1.38,1.38,0,0,0-1.1-.47,1.56,1.56,0,0,0-1.15.49,2.16,2.16,0,0,0-.59,1.27Z" fill="#2b3033"/><path d="M53.81,156.81h-1v-3.44a2.65,2.65,0,0,0-.31-1.44,1.17,1.17,0,0,0-1-.45,1.27,1.27,0,0,0-1,.57,2.11,2.11,0,0,0-.43,1.34v3.42h-1v-3.56c0-1.18-.46-1.77-1.37-1.77a1.27,1.27,0,0,0-1,.53,2.18,2.18,0,0,0-.41,1.38v3.42h-1v-6h1v.95h0a2.06,2.06,0,0,1,1.86-1.09,1.77,1.77,0,0,1,1.08.35,1.73,1.73,0,0,1,.62.9,2.15,2.15,0,0,1,2-1.25c1.32,0,2,.82,2,2.45Z" fill="#2b3033"/><path d="M56,152a.61.61,0,0,1-.46-.2.65.65,0,0,1,0-.92.63.63,0,0,1,.46-.18.67.67,0,0,1,.47.18.65.65,0,0,1,0,.92A.65.65,0,0,1,56,152Zm0,4.95a.6.6,0,0,1-.46-.19.62.62,0,0,1-.19-.46.64.64,0,0,1,.19-.47.6.6,0,0,1,.46-.19.64.64,0,0,1,.47.19.68.68,0,0,1,.19.47.66.66,0,0,1-.19.46A.64.64,0,0,1,56,156.94Z" fill="#2b3033"/><path d="M61.25,156.48v-1.17a1.91,1.91,0,0,0,.48.32,3.72,3.72,0,0,0,.58.24c.21.06.41.11.62.15a4.13,4.13,0,0,0,.57,0,2.22,2.22,0,0,0,1.36-.34,1.12,1.12,0,0,0,.45-1,1.15,1.15,0,0,0-.15-.59,1.76,1.76,0,0,0-.41-.46,4.57,4.57,0,0,0-.63-.4l-.77-.4c-.3-.15-.57-.3-.82-.45a3.54,3.54,0,0,1-.67-.5,2.3,2.3,0,0,1-.44-.63,1.86,1.86,0,0,1-.16-.81,1.88,1.88,0,0,1,.25-1,2.11,2.11,0,0,1,.66-.7,3,3,0,0,1,.94-.41,4.24,4.24,0,0,1,1.07-.14,4.08,4.08,0,0,1,1.81.3v1.11a3.24,3.24,0,0,0-1.91-.52,3.59,3.59,0,0,0-.65.07,1.78,1.78,0,0,0-.57.22,1.18,1.18,0,0,0-.41.39,1,1,0,0,0-.16.59,1.18,1.18,0,0,0,.12.55,1.31,1.31,0,0,0,.36.43,3,3,0,0,0,.57.38l.77.4c.3.14.59.3.86.46a4.46,4.46,0,0,1,.71.55,2.53,2.53,0,0,1,.48.66,1.84,1.84,0,0,1,.18.83,2.16,2.16,0,0,1-.24,1.06,2.1,2.1,0,0,1-.66.7,2.8,2.8,0,0,1-1,.39,5.24,5.24,0,0,1-1.14.12c-.13,0-.3,0-.49,0s-.4,0-.6-.09a5.47,5.47,0,0,1-.58-.15A1.93,1.93,0,0,1,61.25,156.48Z" fill="#2b3033"/><path d="M68.85,156.81h-1v-8.88h1Z" fill="#2b3033"/><path d="M73.3,157a2.74,2.74,0,0,1-2.12-.85,3.1,3.1,0,0,1-.8-2.22,3.27,3.27,0,0,1,.83-2.37,3,3,0,0,1,2.23-.85,2.71,2.71,0,0,1,2.1.83,3.27,3.27,0,0,1,.75,2.29,3.21,3.21,0,0,1-.81,2.3A2.84,2.84,0,0,1,73.3,157Zm.07-5.48a1.81,1.81,0,0,0-1.46.63,2.59,2.59,0,0,0-.54,1.74,2.46,2.46,0,0,0,.54,1.68,1.87,1.87,0,0,0,1.46.62,1.73,1.73,0,0,0,1.43-.61,2.57,2.57,0,0,0,.5-1.71,2.65,2.65,0,0,0-.5-1.74A1.76,1.76,0,0,0,73.37,151.48Z" fill="#2b3033"/><path d="M80.61,156.76a2,2,0,0,1-.9.18c-1,0-1.58-.58-1.58-1.75v-3.55h-1v-.83h1v-1.46l1-.31v1.77h1.51v.83H79.1V155a1.38,1.38,0,0,0,.2.86.83.83,0,0,0,.68.26,1.05,1.05,0,0,0,.63-.2Z" fill="#2b3033"/><path d="M89.88,154.25a2.82,2.82,0,0,1-.21,1.11,2.47,2.47,0,0,1-.6.86,2.65,2.65,0,0,1-.94.55,3.63,3.63,0,0,1-1.22.19,3.38,3.38,0,0,1-1.74-.35v-1a3.16,3.16,0,0,0,1.75.55,2.35,2.35,0,0,0,.82-.13,1.89,1.89,0,0,0,.63-.38,1.56,1.56,0,0,0,.39-.58,2,2,0,0,0,.14-.74,1.62,1.62,0,0,0-.55-1.29,2.42,2.42,0,0,0-1.6-.46h-.36l-.37,0-.37,0a1.69,1.69,0,0,0-.33,0l.29-4.22H89.5v.87H86.44l-.17,2.47.4,0h.38a4,4,0,0,1,1.19.17,2.8,2.8,0,0,1,.9.5,2.12,2.12,0,0,1,.55.8A2.78,2.78,0,0,1,89.88,154.25Z" fill="#2b3033"/><path d="M92,152a.63.63,0,0,1-.46-.2.65.65,0,0,1,0-.92.65.65,0,0,1,.46-.18.67.67,0,0,1,.47.18.65.65,0,0,1,0,.92A.65.65,0,0,1,92,152Zm0,4.95a.65.65,0,0,1-.65-.65.64.64,0,0,1,.19-.47.62.62,0,0,1,.46-.19.65.65,0,0,1,.66.66.62.62,0,0,1-.19.46A.64.64,0,0,1,92,156.94Z" fill="#2b3033"/><path d="M104.44,156.81h-1.21l-4.32-6.69a2.94,2.94,0,0,1-.27-.53h0a8.6,8.6,0,0,1,.05,1.15v6.07h-1v-8.4h1.28l4.21,6.59c.17.28.29.47.34.57h0a8.84,8.84,0,0,1-.06-1.24v-5.92h1Z" fill="#2b3033"/><path d="M107.62,156.81h-1v-8.4h1Z" fill="#2b3033"/><path d="M114.11,153.64v3.17h-1v-8.4h2.31a3,3,0,0,1,2.09.66,2.35,2.35,0,0,1,.74,1.85,2.54,2.54,0,0,1-.82,2,3.14,3.14,0,0,1-2.23.76Zm0-4.34v3.45h1a2.3,2.3,0,0,0,1.55-.47,1.64,1.64,0,0,0,.54-1.31c0-1.11-.66-1.67-2-1.67Z" fill="#2b3033"/><path d="M125.56,156.46a4.89,4.89,0,0,1-2.32.5,3.74,3.74,0,0,1-2.87-1.16,4.26,4.26,0,0,1-1.08-3,4.51,4.51,0,0,1,1.21-3.26,4.16,4.16,0,0,1,3.08-1.24,4.91,4.91,0,0,1,2,.35v1a4,4,0,0,0-2-.51,3,3,0,0,0-2.35,1,3.64,3.64,0,0,0-.9,2.58,3.47,3.47,0,0,0,.84,2.45,2.86,2.86,0,0,0,2.21.91,4.2,4.2,0,0,0,2.19-.56Z" fill="#2b3033"/><path d="M128.26,156.81h-1v-8.4h1Z" fill="#2b3033"/><path d="M135.16,154.06h-4.24a2.27,2.27,0,0,0,.54,1.54,1.84,1.84,0,0,0,1.42.55,3,3,0,0,0,1.86-.67v.9a3.5,3.5,0,0,1-2.09.58,2.56,2.56,0,0,1-2-.82,3.37,3.37,0,0,1-.72-2.3,3.25,3.25,0,0,1,.79-2.28,2.55,2.55,0,0,1,2-.89,2.24,2.24,0,0,1,1.82.77,3.15,3.15,0,0,1,.65,2.11Zm-1-.82a1.88,1.88,0,0,0-.4-1.29,1.36,1.36,0,0,0-1.1-.47,1.57,1.57,0,0,0-1.15.49,2.22,2.22,0,0,0-.59,1.27Z" fill="#2b3033"/><path d="M139.68,153.85h-3.2v-.76h3.2Z" fill="#2b3033"/><path d="M141,154.47a2.24,2.24,0,0,1,.11-.67,2.6,2.6,0,0,1,.3-.63,2.71,2.71,0,0,1,.49-.53,2.15,2.15,0,0,1,.66-.38,2.56,2.56,0,0,1-.87-.79,1.86,1.86,0,0,1-.32-1.05,2,2,0,0,1,.18-.86,2.08,2.08,0,0,1,.49-.68,2.34,2.34,0,0,1,.75-.45,2.85,2.85,0,0,1,.94-.16,2.62,2.62,0,0,1,.94.17,2.34,2.34,0,0,1,.75.45,2.1,2.1,0,0,1,.5.68,2.15,2.15,0,0,1,.17.85,1.86,1.86,0,0,1-.32,1.05,2.62,2.62,0,0,1-.86.79,2.1,2.1,0,0,1,.65.38,2.71,2.71,0,0,1,.49.53,2.6,2.6,0,0,1,.3.63,2.22,2.22,0,0,1,.1.67,2.4,2.4,0,0,1-.2,1,2.26,2.26,0,0,1-.55.78,2.5,2.5,0,0,1-.87.51,3.21,3.21,0,0,1-1.1.18,3.25,3.25,0,0,1-1.1-.18,2.55,2.55,0,0,1-.86-.51,2.29,2.29,0,0,1-.56-.78A2.4,2.4,0,0,1,141,154.47Zm1-.08a2,2,0,0,0,.12.71,1.5,1.5,0,0,0,.34.54,1.38,1.38,0,0,0,.53.34,1.94,1.94,0,0,0,.7.12,1.91,1.91,0,0,0,.68-.12,1.58,1.58,0,0,0,.53-.35,1.53,1.53,0,0,0,.35-.54,1.75,1.75,0,0,0,.13-.7,1.8,1.8,0,0,0-.12-.66,1.66,1.66,0,0,0-.34-.54,1.58,1.58,0,0,0-.54-.37,1.7,1.7,0,0,0-.69-.14,1.87,1.87,0,0,0-.68.13,1.58,1.58,0,0,0-.53.35,1.53,1.53,0,0,0-.35.54A1.73,1.73,0,0,0,142,154.39Zm.3-3.9a1.3,1.3,0,0,0,.11.56,1.46,1.46,0,0,0,.29.44,1.37,1.37,0,0,0,.45.3,1.33,1.33,0,0,0,.54.11,1.41,1.41,0,0,0,.54-.11,1.71,1.71,0,0,0,.44-.3,1.77,1.77,0,0,0,.3-.45,1.42,1.42,0,0,0,.11-.55,1.47,1.47,0,0,0-.11-.56,1.27,1.27,0,0,0-.74-.74,1.41,1.41,0,0,0-.54-.11,1.48,1.48,0,0,0-.57.11,1.55,1.55,0,0,0-.44.3,1.31,1.31,0,0,0-.28.45A1.45,1.45,0,0,0,142.31,150.49Z" fill="#2b3033"/><path d="M152.49,154.44a2.5,2.5,0,0,1-.21,1,2.4,2.4,0,0,1-.61.8,2.79,2.79,0,0,1-.93.51,3.82,3.82,0,0,1-1.2.18,3.44,3.44,0,0,1-1.91-.46v-1a3,3,0,0,0,1.94.67,2.81,2.81,0,0,0,.8-.11,1.78,1.78,0,0,0,.61-.32,1.39,1.39,0,0,0,.39-.51,1.65,1.65,0,0,0,.14-.68c0-1.09-.79-1.64-2.35-1.64h-.7v-.82h.67c1.38,0,2.07-.51,2.07-1.54s-.53-1.43-1.58-1.43a2.75,2.75,0,0,0-1.67.59v-.93a3.64,3.64,0,0,1,1.91-.48,2.83,2.83,0,0,1,.95.15,2.21,2.21,0,0,1,.74.41,1.83,1.83,0,0,1,.47.63,2,2,0,0,1,.17.82,2.06,2.06,0,0,1-1.68,2.13v0a2.56,2.56,0,0,1,.79.21,2.31,2.31,0,0,1,.63.42,1.92,1.92,0,0,1,.56,1.38Z" fill="#2b3033"/><path d="M159.26,152.11a8.45,8.45,0,0,1-.23,2,4.67,4.67,0,0,1-.67,1.53,3,3,0,0,1-1.07.95,3.18,3.18,0,0,1-1.44.32,3.54,3.54,0,0,1-1.47-.29v-.92a3,3,0,0,0,1.49.39,2.25,2.25,0,0,0,1-.23,2.17,2.17,0,0,0,.76-.69,3.38,3.38,0,0,0,.47-1.1,6.22,6.22,0,0,0,.17-1.51h0a1.91,1.91,0,0,1-1.87,1.09,2.64,2.64,0,0,1-1-.19,2.37,2.37,0,0,1-.78-.54,2.41,2.41,0,0,1-.51-.83,3.28,3.28,0,0,1,0-2.2,2.64,2.64,0,0,1,.56-.89,2.54,2.54,0,0,1,.86-.57,2.74,2.74,0,0,1,1.08-.21,2.4,2.4,0,0,1,1.12.26,2.15,2.15,0,0,1,.82.74,3.84,3.84,0,0,1,.51,1.21A6.66,6.66,0,0,1,159.26,152.11Zm-1-.86a2.77,2.77,0,0,0-.13-.89,2.28,2.28,0,0,0-.34-.68,1.71,1.71,0,0,0-.53-.44,1.63,1.63,0,0,0-1.32,0,1.65,1.65,0,0,0-.52.39,1.9,1.9,0,0,0-.34.59,2,2,0,0,0-.13.75,2.49,2.49,0,0,0,.12.8,1.63,1.63,0,0,0,.34.59,1.45,1.45,0,0,0,.54.37,1.73,1.73,0,0,0,.69.13,1.61,1.61,0,0,0,.63-.12,1.87,1.87,0,0,0,.52-.34,1.47,1.47,0,0,0,.34-.51A1.44,1.44,0,0,0,158.22,151.25Z" fill="#2b3033"/><path d="M164.82,148.41V154h1.08v.88h-1.08v2h-.94v-2h-3.95V154c.36-.42.73-.86,1.11-1.33s.73-1,1.07-1.43.66-1,.95-1.45a13.62,13.62,0,0,0,.74-1.39ZM161,154h2.87v-4.11c-.3.51-.58,1-.84,1.37s-.51.77-.74,1.09-.47.63-.68.9S161.2,153.72,161,154Z" fill="#2b3033"/><path d="M173.09,158.73h-.85a7.52,7.52,0,0,1-1.82-5.12,7.78,7.78,0,0,1,1.82-5.2h.86a8,8,0,0,0-1.84,5.19A7.77,7.77,0,0,0,173.09,158.73Z" fill="#2b3033"/><path d="M175.31,153.64v3.17h-1v-8.4h2.31a3,3,0,0,1,2.09.66,2.35,2.35,0,0,1,.74,1.85,2.54,2.54,0,0,1-.82,2,3.14,3.14,0,0,1-2.23.76Zm0-4.34v3.45h1a2.28,2.28,0,0,0,1.55-.47,1.64,1.64,0,0,0,.54-1.31c0-1.11-.66-1.67-2-1.67Z" fill="#2b3033"/><path d="M186.49,156.81h-1.2l-1.94-3.21a2.93,2.93,0,0,1-.19-.42h0c0,.09-.1.23-.19.42l-2,3.21h-1.2l2.81-4.22L180,148.41h1.21l1.71,3a4,4,0,0,1,.3.58h0a6.36,6.36,0,0,1,.32-.61l1.79-2.93h1.13l-2.64,4.17Z" fill="#2b3033"/><path d="M188.75,156.81h-1v-8.4h1Z" fill="#2b3033"/><path d="M194.38,150.62a1.76,1.76,0,0,0-.12-.68,1.37,1.37,0,0,0-.33-.48,1.39,1.39,0,0,0-.49-.28,2,2,0,0,0-.61-.09,2,2,0,0,0-.55.07,2.57,2.57,0,0,0-.52.21,3.08,3.08,0,0,0-.5.33,4.2,4.2,0,0,0-.44.41v-1a2.88,2.88,0,0,1,.91-.6,3.14,3.14,0,0,1,1.22-.21,2.91,2.91,0,0,1,1,.15,2.25,2.25,0,0,1,.77.44,2,2,0,0,1,.5.71,2.25,2.25,0,0,1,.19,1,3.18,3.18,0,0,1-.12.91,2.73,2.73,0,0,1-.34.76,3.68,3.68,0,0,1-.59.68,8.71,8.71,0,0,1-.82.67c-.4.28-.72.52-1,.72a5,5,0,0,0-.61.56,1.7,1.7,0,0,0-.31.52,1.89,1.89,0,0,0-.09.6h4.18v.86h-5.19v-.41a3.38,3.38,0,0,1,.12-1,2.59,2.59,0,0,1,.39-.78,4.33,4.33,0,0,1,.7-.74c.3-.24.65-.52,1.07-.83a6.87,6.87,0,0,0,.77-.63,3.55,3.55,0,0,0,.49-.59,2,2,0,0,0,.27-.61A2.75,2.75,0,0,0,194.38,150.62Z" fill="#2b3033"/><path d="M197,156.48v-1.17a2.36,2.36,0,0,0,.48.32,3.83,3.83,0,0,0,.59.24c.2.06.41.11.61.15a4.13,4.13,0,0,0,.58,0,2.24,2.24,0,0,0,1.36-.34,1.27,1.27,0,0,0,.29-1.56,1.6,1.6,0,0,0-.41-.46,3.91,3.91,0,0,0-.62-.4l-.78-.4c-.29-.15-.57-.3-.82-.45a3.81,3.81,0,0,1-.66-.5,1.94,1.94,0,0,1-.44-.63,1.86,1.86,0,0,1-.17-.81,1.88,1.88,0,0,1,.26-1,2,2,0,0,1,.66-.7,2.8,2.8,0,0,1,.93-.41,4.3,4.3,0,0,1,1.07-.14,4.08,4.08,0,0,1,1.81.3v1.11a3.22,3.22,0,0,0-1.91-.52,3.48,3.48,0,0,0-.64.07,1.75,1.75,0,0,0-.58.22,1.38,1.38,0,0,0-.41.39,1.1,1.1,0,0,0-.15.59,1.18,1.18,0,0,0,.12.55,1.28,1.28,0,0,0,.35.43,3.76,3.76,0,0,0,.57.38l.78.4c.3.14.58.3.85.46a4,4,0,0,1,.71.55,2.36,2.36,0,0,1,.49.66,1.84,1.84,0,0,1,.17.83,2.16,2.16,0,0,1-.24,1.06,2.07,2.07,0,0,1-.65.7,2.94,2.94,0,0,1-1,.39,5.15,5.15,0,0,1-1.13.12c-.14,0-.3,0-.5,0l-.59-.09a4.45,4.45,0,0,1-.58-.15A2,2,0,0,1,197,156.48Z" fill="#2b3033"/><path d="M204.63,156.81h-1v-8.88h1Z" fill="#2b3033"/><path d="M209.09,157a2.77,2.77,0,0,1-2.13-.85,3.09,3.09,0,0,1-.79-2.22,3.27,3.27,0,0,1,.82-2.37,3,3,0,0,1,2.24-.85,2.69,2.69,0,0,1,2.09.83,3.27,3.27,0,0,1,.75,2.29,3.21,3.21,0,0,1-.81,2.3A2.82,2.82,0,0,1,209.09,157Zm.07-5.48a1.84,1.84,0,0,0-1.47.63,2.59,2.59,0,0,0-.54,1.74,2.41,2.41,0,0,0,.55,1.68,1.85,1.85,0,0,0,1.46.62,1.74,1.74,0,0,0,1.43-.61,2.62,2.62,0,0,0,.5-1.71,2.71,2.71,0,0,0-.5-1.74A1.77,1.77,0,0,0,209.16,151.48Z" fill="#2b3033"/><path d="M216.39,156.76a1.87,1.87,0,0,1-.89.18c-1.05,0-1.58-.58-1.58-1.75v-3.55h-1v-.83h1v-1.46l1-.31v1.77h1.51v.83h-1.51V155a1.37,1.37,0,0,0,.21.86.81.81,0,0,0,.68.26,1,1,0,0,0,.62-.2Z" fill="#2b3033"/><path d="M222.38,154.25a2.82,2.82,0,0,1-.21,1.11,2.47,2.47,0,0,1-.6.86,2.65,2.65,0,0,1-.94.55,3.69,3.69,0,0,1-1.23.19,3.44,3.44,0,0,1-1.74-.35v-1a3.19,3.19,0,0,0,1.76.55,2.35,2.35,0,0,0,.82-.13,1.85,1.85,0,0,0,.62-.38,1.47,1.47,0,0,0,.4-.58,2,2,0,0,0,.14-.74,1.62,1.62,0,0,0-.55-1.29,2.42,2.42,0,0,0-1.6-.46h-.36l-.38,0-.36,0a1.69,1.69,0,0,0-.33,0l.29-4.22H222v.87h-3.05l-.17,2.47.4,0h.37a4,4,0,0,1,1.2.17,2.65,2.65,0,0,1,.89.5,2.15,2.15,0,0,1,.56.8A2.78,2.78,0,0,1,222.38,154.25Z" fill="#2b3033"/><path d="M224.17,158.73h-.86a7.77,7.77,0,0,0,1.83-5.13,7.91,7.91,0,0,0-1.84-5.19h.87a7.74,7.74,0,0,1,1.83,5.2A7.47,7.47,0,0,1,224.17,158.73Z" fill="#2b3033"/><path d="M230.79,156.48v-1.17a1.91,1.91,0,0,0,.48.32,3.72,3.72,0,0,0,.58.24c.21.06.41.11.62.15a4.13,4.13,0,0,0,.57,0,2.22,2.22,0,0,0,1.36-.34,1.12,1.12,0,0,0,.45-1,1.15,1.15,0,0,0-.15-.59,1.76,1.76,0,0,0-.41-.46,4.57,4.57,0,0,0-.63-.4l-.77-.4c-.3-.15-.57-.3-.82-.45a3.54,3.54,0,0,1-.67-.5,2.3,2.3,0,0,1-.44-.63,1.86,1.86,0,0,1-.16-.81,1.88,1.88,0,0,1,.25-1,2.11,2.11,0,0,1,.66-.7,3,3,0,0,1,.94-.41,4.3,4.3,0,0,1,1.07-.14,4.08,4.08,0,0,1,1.81.3v1.11a3.24,3.24,0,0,0-1.91-.52,3.59,3.59,0,0,0-.65.07,1.78,1.78,0,0,0-.57.22,1.27,1.27,0,0,0-.41.39,1,1,0,0,0-.16.59,1.18,1.18,0,0,0,.12.55,1.31,1.31,0,0,0,.36.43,3,3,0,0,0,.57.38l.77.4a8.69,8.69,0,0,1,.86.46,4,4,0,0,1,.71.55,2.53,2.53,0,0,1,.48.66,1.84,1.84,0,0,1,.18.83,2.16,2.16,0,0,1-.24,1.06,2,2,0,0,1-.66.7,2.8,2.8,0,0,1-.95.39,5.24,5.24,0,0,1-1.14.12c-.13,0-.29,0-.49,0l-.6-.09a4.74,4.74,0,0,1-.57-.15A1.83,1.83,0,0,1,230.79,156.48Z" fill="#2b3033"/><path d="M241.22,148.41l-4,9.8h-.9l4-9.8Z" fill="#2b3033"/><path d="M249,156.81H247.8l-4.33-6.69a3.71,3.71,0,0,1-.26-.53h0a8.6,8.6,0,0,1,.05,1.15v6.07h-1v-8.4h1.28l4.21,6.59c.17.28.29.47.34.57h0a8.84,8.84,0,0,1-.06-1.24v-5.92h1Z" fill="#2b3033"/><path d="M251.41,152a.63.63,0,0,1-.46-.2.65.65,0,0,1,0-.92.65.65,0,0,1,.46-.18.66.66,0,0,1,.47.18.66.66,0,0,1-.47,1.12Zm0,4.95a.62.62,0,0,1-.46-.19.66.66,0,0,1-.19-.46.68.68,0,0,1,.19-.47.62.62,0,0,1,.46-.19.63.63,0,0,1,.47.19.65.65,0,0,1,.2.47.67.67,0,0,1-.67.65Z" fill="#2b3033"/><path d="M262,152.58a8.15,8.15,0,0,1-.19,1.87,4.18,4.18,0,0,1-.55,1.37,2.34,2.34,0,0,1-2.08,1.14,2.19,2.19,0,0,1-1.12-.28,2.32,2.32,0,0,1-.84-.81,3.82,3.82,0,0,1-.51-1.31,7.93,7.93,0,0,1-.18-1.78,9.35,9.35,0,0,1,.18-1.94,4.63,4.63,0,0,1,.55-1.42,2.41,2.41,0,0,1,.88-.86,2.56,2.56,0,0,1,1.22-.29Q262,148.27,262,152.58Zm-1,.09c0-2.39-.57-3.58-1.71-3.58s-1.8,1.21-1.8,3.65c0,2.27.59,3.4,1.77,3.4S261,155,261,152.67Z" fill="#2b3033"/><path d="M266.71,156.81h-1v-7.25l-.33.25a3.57,3.57,0,0,1-.48.28,4.83,4.83,0,0,1-.56.27,4.89,4.89,0,0,1-.58.19v-1a5.46,5.46,0,0,0,.67-.24c.24-.1.47-.21.7-.33s.44-.25.65-.39a5,5,0,0,0,.52-.39h.37Z" fill="#2b3033"/><path d="M275.75,156.46a4.89,4.89,0,0,1-2.32.5,3.75,3.75,0,0,1-2.87-1.16,4.26,4.26,0,0,1-1.08-3,4.48,4.48,0,0,1,1.22-3.26,4.14,4.14,0,0,1,3.07-1.24,4.91,4.91,0,0,1,2,.35v1a4,4,0,0,0-2-.51,3,3,0,0,0-2.34,1,3.64,3.64,0,0,0-.9,2.58,3.47,3.47,0,0,0,.84,2.45,2.84,2.84,0,0,0,2.2.91,4.15,4.15,0,0,0,2.19-.56Z" fill="#2b3033"/><path d="M277.46,156.81v-8.4h2.4a2.57,2.57,0,0,1,1.72.54,1.69,1.69,0,0,1,.64,1.38,2.1,2.1,0,0,1-.38,1.25,2.14,2.14,0,0,1-1.07.75v0a2.15,2.15,0,0,1,1.36.64,2,2,0,0,1,.51,1.41,2.22,2.22,0,0,1-.77,1.75,2.92,2.92,0,0,1-2,.66Zm1-7.51V152h1a1.91,1.91,0,0,0,1.27-.39,1.36,1.36,0,0,0,.46-1.1c0-.82-.54-1.23-1.61-1.23Zm0,3.6v3h1.34a2,2,0,0,0,1.34-.41,1.38,1.38,0,0,0,.48-1.12c0-1-.68-1.49-2-1.49Z" fill="#2b3033"/><path d="M288.22,148.41V154h1.08v.88h-1.08v2h-1v-2h-3.95V154c.37-.42.74-.86,1.12-1.33s.73-1,1.07-1.43.66-1,.95-1.45a13.62,13.62,0,0,0,.74-1.39ZM284.41,154h2.86v-4.11c-.29.51-.57,1-.83,1.37s-.51.77-.75,1.09-.46.63-.67.9S284.6,153.72,284.41,154Z" fill="#2b3033"/><path d="M295.63,149c-.13.22-.29.5-.47.83s-.37.71-.57,1.12-.41.86-.63,1.34-.4,1-.59,1.47-.34,1-.48,1.55a10.86,10.86,0,0,0-.3,1.53h-1a12.65,12.65,0,0,1,.32-1.53c.15-.52.31-1,.5-1.53s.38-1,.59-1.45.41-.9.6-1.29l.54-1c.16-.3.29-.53.39-.7h-4.21v-.87h5.34Z" fill="#2b3033"/><path d="M301.73,156.81h-4.45v-8.4h4.27v.89h-3.28v2.8h3V153h-3v2.94h3.46Z" fill="#2b3033"/><path d="M303.35,156.81v-8.4h2.32q4.44,0,4.44,4.1a4.1,4.1,0,0,1-1.23,3.12,4.55,4.55,0,0,1-3.3,1.18Zm1-7.51v6.62h1.25a3.55,3.55,0,0,0,2.57-.88,3.3,3.3,0,0,0,.92-2.51q0-3.22-3.43-3.23Z" fill="#2b3033"/><path d="M40.54,171.22h-1v-5.64c0-.45,0-1,.08-1.64h0a5.64,5.64,0,0,1-.25.82l-2.87,6.46H36l-2.87-6.41a5.84,5.84,0,0,1-.25-.87h0c0,.34,0,.89,0,1.65v5.63H32v-8.41h1.31l2.57,5.86a7.92,7.92,0,0,1,.39,1h0c.16-.46.3-.8.4-1l2.63-5.84h1.23Z" fill="#2b3033"/><path d="M46.92,171.22H46v-.94h0a2,2,0,0,1-1.84,1.08,2,2,0,0,1-1.41-.48,1.63,1.63,0,0,1-.5-1.26c0-1.12.66-1.77,2-2l1.8-.25c0-1-.42-1.53-1.24-1.53a3,3,0,0,0-2,.74v-1a3.68,3.68,0,0,1,2-.57c1.41,0,2.12.75,2.12,2.24Zm-1-3-1.45.2a2.3,2.3,0,0,0-1,.33,1,1,0,0,0-.34.84.92.92,0,0,0,.31.72,1.25,1.25,0,0,0,.84.28,1.55,1.55,0,0,0,1.18-.5,1.81,1.81,0,0,0,.47-1.27Z" fill="#2b3033"/><path d="M51.51,171.16a2,2,0,0,1-.9.18c-1,0-1.57-.58-1.57-1.75V166H48v-.82h1v-1.47l1-.31v1.78h1.51V166H50v3.38a1.45,1.45,0,0,0,.2.86.84.84,0,0,0,.68.26,1.05,1.05,0,0,0,.63-.2Z" fill="#2b3033"/><path d="M56.72,170.94a3.08,3.08,0,0,1-1.64.42,2.72,2.72,0,0,1-2.07-.84,3.06,3.06,0,0,1-.79-2.16,3.37,3.37,0,0,1,.85-2.39,3,3,0,0,1,2.27-.9,3.13,3.13,0,0,1,1.4.3v1a2.49,2.49,0,0,0-1.43-.47,1.92,1.92,0,0,0-1.51.66,2.52,2.52,0,0,0-.59,1.73,2.39,2.39,0,0,0,.55,1.67,1.94,1.94,0,0,0,1.49.61,2.44,2.44,0,0,0,1.47-.52Z" fill="#2b3033"/><path d="M63.16,171.22h-1v-3.46c0-1.25-.47-1.88-1.4-1.88a1.49,1.49,0,0,0-1.18.55,2,2,0,0,0-.48,1.39v3.4h-1v-8.89h1v3.88h0a2.18,2.18,0,0,1,2-1.14c1.35,0,2,.82,2,2.45Z" fill="#2b3033"/><path d="M65.3,166.39a.63.63,0,0,1-.46-.2.65.65,0,0,1,0-.92.65.65,0,0,1,.46-.18.66.66,0,0,1,.47.18.65.65,0,0,1,0,.92A.63.63,0,0,1,65.3,166.39Zm0,5a.62.62,0,0,1-.46-.19.66.66,0,0,1-.19-.46.68.68,0,0,1,.19-.47.62.62,0,0,1,.46-.19.63.63,0,0,1,.47.19.64.64,0,0,1,.19.47.62.62,0,0,1-.19.46A.63.63,0,0,1,65.3,171.34Z" fill="#2b3033"/><path d="M70.59,170.88v-1.16a2.83,2.83,0,0,0,.48.31,3.83,3.83,0,0,0,.59.24,6.23,6.23,0,0,0,.62.15,3.88,3.88,0,0,0,.57.05,2.22,2.22,0,0,0,1.36-.34,1.27,1.27,0,0,0,.29-1.56,1.47,1.47,0,0,0-.41-.46,3.91,3.91,0,0,0-.62-.4l-.78-.4c-.29-.15-.57-.3-.82-.45a3.81,3.81,0,0,1-.66-.5,1.94,1.94,0,0,1-.44-.63,1.86,1.86,0,0,1-.16-.81,1.88,1.88,0,0,1,.25-1,2.11,2.11,0,0,1,.66-.7,2.8,2.8,0,0,1,.93-.41,4.3,4.3,0,0,1,1.07-.14,4,4,0,0,1,1.81.3v1.11a3.22,3.22,0,0,0-1.91-.52,3.48,3.48,0,0,0-.64.07,1.83,1.83,0,0,0-.57.22,1.31,1.31,0,0,0-.42.39,1.1,1.1,0,0,0-.15.59,1.25,1.25,0,0,0,.12.56,1.51,1.51,0,0,0,.35.42,3.76,3.76,0,0,0,.57.38l.78.4a7.72,7.72,0,0,1,.85.47,3.59,3.59,0,0,1,.71.54,2.36,2.36,0,0,1,.49.66,1.84,1.84,0,0,1,.18.83,2.16,2.16,0,0,1-.25,1.06,2.07,2.07,0,0,1-.65.7,2.94,2.94,0,0,1-1,.39,5.15,5.15,0,0,1-1.13.12,3.1,3.1,0,0,1-.49,0q-.3,0-.6-.09a4.45,4.45,0,0,1-.58-.15A2,2,0,0,1,70.59,170.88Z" fill="#2b3033"/><path d="M78.19,171.22h-1v-8.89h1Z" fill="#2b3033"/><path d="M82.65,171.36a2.79,2.79,0,0,1-2.13-.84,3.14,3.14,0,0,1-.79-2.23,3.27,3.27,0,0,1,.82-2.37,3,3,0,0,1,2.24-.85,2.69,2.69,0,0,1,2.09.83,3.29,3.29,0,0,1,.75,2.29,3.21,3.21,0,0,1-.81,2.3A2.82,2.82,0,0,1,82.65,171.36Zm.07-5.48a1.84,1.84,0,0,0-1.47.63,2.59,2.59,0,0,0-.54,1.74,2.41,2.41,0,0,0,.55,1.68,1.85,1.85,0,0,0,1.46.62,1.73,1.73,0,0,0,1.43-.61,2.62,2.62,0,0,0,.5-1.71,2.71,2.71,0,0,0-.5-1.74A1.76,1.76,0,0,0,82.72,165.88Z" fill="#2b3033"/><path d="M90,171.16a1.87,1.87,0,0,1-.89.18c-1,0-1.58-.58-1.58-1.75V166h-1v-.82h1v-1.47l1-.31v1.78H90V166H88.44v3.38a1.37,1.37,0,0,0,.21.86.81.81,0,0,0,.68.26,1,1,0,0,0,.62-.2Z" fill="#2b3033"/><path d="M99.23,168.65a2.82,2.82,0,0,1-.21,1.11,2.47,2.47,0,0,1-.6.86,2.74,2.74,0,0,1-.94.55,3.69,3.69,0,0,1-1.23.19,3.44,3.44,0,0,1-1.74-.35v-1a3.19,3.19,0,0,0,1.75.55,2.41,2.41,0,0,0,.83-.13,1.85,1.85,0,0,0,.62-.38,1.72,1.72,0,0,0,.4-.58,2,2,0,0,0,.13-.74,1.59,1.59,0,0,0-.55-1.29,2.4,2.4,0,0,0-1.6-.46h-.35l-.38,0L95,167a1.69,1.69,0,0,0-.33,0l.29-4.22h3.88v.87h-3l-.17,2.47.4,0h.37a4,4,0,0,1,1.2.17,2.65,2.65,0,0,1,.89.5,2.15,2.15,0,0,1,.56.8A2.78,2.78,0,0,1,99.23,168.65Z" fill="#2b3033"/><path d="M101.33,166.39a.61.61,0,0,1-.46-.2.65.65,0,0,1,0-.92.65.65,0,1,1,.92.92A.61.61,0,0,1,101.33,166.39Zm0,5a.6.6,0,0,1-.46-.19.62.62,0,0,1-.19-.46.64.64,0,0,1,.19-.47.65.65,0,0,1,.92,0,.65.65,0,0,1,.2.47.63.63,0,0,1-.2.46A.6.6,0,0,1,101.33,171.34Z" fill="#2b3033"/><path d="M113.78,171.22h-1.2l-4.33-6.7A2.94,2.94,0,0,1,108,164h0a9.48,9.48,0,0,1,0,1.16v6.07h-1v-8.41h1.28l4.2,6.59c.18.28.29.47.34.57h0a8.74,8.74,0,0,1-.06-1.24v-5.92h1Z" fill="#2b3033"/><path d="M117,171.22h-1v-8.41h1Z" fill="#2b3033"/><path d="M123.45,168v3.18h-1v-8.41h2.31a3,3,0,0,1,2.08.66,2.33,2.33,0,0,1,.75,1.85,2.55,2.55,0,0,1-.83,2,3.13,3.13,0,0,1-2.22.76Zm0-4.34v3.45h1a2.33,2.33,0,0,0,1.56-.47,1.63,1.63,0,0,0,.53-1.31c0-1.11-.65-1.67-2-1.67Z" fill="#2b3033"/><path d="M134.91,170.86a4.92,4.92,0,0,1-2.32.5,3.76,3.76,0,0,1-2.88-1.16,4.3,4.3,0,0,1-1.07-3,4.47,4.47,0,0,1,1.21-3.26,4.14,4.14,0,0,1,3.08-1.24,5,5,0,0,1,2,.35v1a4,4,0,0,0-2-.51,3.07,3.07,0,0,0-2.34,1,3.64,3.64,0,0,0-.9,2.58,3.47,3.47,0,0,0,.84,2.45,2.84,2.84,0,0,0,2.2.91,4.21,4.21,0,0,0,2.2-.56Z" fill="#2b3033"/><path d="M137.6,171.22h-1v-8.41h1Z" fill="#2b3033"/><path d="M144.5,168.46h-4.23a2.18,2.18,0,0,0,.54,1.54,1.82,1.82,0,0,0,1.41.55,3,3,0,0,0,1.87-.67v.9a3.52,3.52,0,0,1-2.09.58,2.55,2.55,0,0,1-2-.82,3.33,3.33,0,0,1-.73-2.3,3.27,3.27,0,0,1,.8-2.28,2.52,2.52,0,0,1,2-.89,2.26,2.26,0,0,1,1.82.77,3.15,3.15,0,0,1,.64,2.11Zm-1-.82a1.93,1.93,0,0,0-.4-1.29,1.38,1.38,0,0,0-1.1-.47,1.56,1.56,0,0,0-1.15.49,2.16,2.16,0,0,0-.59,1.27Z" fill="#2b3033"/><path d="M149,168.25h-3.2v-.76H149Z" fill="#2b3033"/><path d="M150.31,168.87a2.29,2.29,0,0,1,.11-.67,2.6,2.6,0,0,1,.3-.63,2.65,2.65,0,0,1,.48-.53,2.41,2.41,0,0,1,.66-.38,2.52,2.52,0,0,1-.86-.79,1.79,1.79,0,0,1-.33-1.05,2,2,0,0,1,.18-.86,2.1,2.1,0,0,1,.5-.68,2.34,2.34,0,0,1,.75-.45,2.85,2.85,0,0,1,.94-.16,2.62,2.62,0,0,1,.94.17,2.34,2.34,0,0,1,.75.45,2.08,2.08,0,0,1,.49.68,2,2,0,0,1,.18.85,1.79,1.79,0,0,1-.33,1.05,2.58,2.58,0,0,1-.85.79,2.22,2.22,0,0,1,.65.38,2.65,2.65,0,0,1,.48.53,2.6,2.6,0,0,1,.3.63,2.29,2.29,0,0,1,.11.67,2.56,2.56,0,0,1-.2,1,2.29,2.29,0,0,1-.56.78,2.55,2.55,0,0,1-.86.51,3.45,3.45,0,0,1-2.2,0,2.55,2.55,0,0,1-.86-.51,2.46,2.46,0,0,1-.57-.78A2.56,2.56,0,0,1,150.31,168.87Zm1-.08a2,2,0,0,0,.12.71,1.66,1.66,0,0,0,.34.54,1.5,1.5,0,0,0,.54.34,1.92,1.92,0,0,0,.69.12,1.87,1.87,0,0,0,.68-.12,1.53,1.53,0,0,0,.54-.35,1.68,1.68,0,0,0,.35-.54,1.94,1.94,0,0,0,.12-.7,1.84,1.84,0,0,0-.12-.66,1.6,1.6,0,0,0-.34-.54,1.54,1.54,0,0,0-.53-.37,1.75,1.75,0,0,0-.7-.14,1.86,1.86,0,0,0-.67.13,1.58,1.58,0,0,0-.53.35,1.7,1.7,0,0,0-.36.54A1.93,1.93,0,0,0,151.35,168.79Zm.3-3.9a1.47,1.47,0,0,0,.11.56,1.23,1.23,0,0,0,.3.44,1.32,1.32,0,0,0,.44.3,1.38,1.38,0,0,0,1.08,0,1.77,1.77,0,0,0,.45-.3,1.51,1.51,0,0,0,.29-.45,1.26,1.26,0,0,0,.12-.55,1.47,1.47,0,0,0-.11-.56,1.37,1.37,0,0,0-.3-.44,1.23,1.23,0,0,0-.44-.3,1.46,1.46,0,0,0-1.11,0,1.55,1.55,0,0,0-.44.3,1.34,1.34,0,0,0-.29.45A1.68,1.68,0,0,0,151.65,164.89Z" fill="#2b3033"/><path d="M161.84,168.84a2.47,2.47,0,0,1-.22,1,2.25,2.25,0,0,1-.6.8,2.74,2.74,0,0,1-.94.51,3.78,3.78,0,0,1-1.2.18,3.46,3.46,0,0,1-1.91-.46v-1a3.06,3.06,0,0,0,1.95.67,2.74,2.74,0,0,0,.79-.11,1.69,1.69,0,0,0,.61-.32,1.39,1.39,0,0,0,.39-.51,1.51,1.51,0,0,0,.14-.68c0-1.09-.78-1.64-2.34-1.64h-.7v-.82h.66c1.39,0,2.08-.51,2.08-1.54s-.53-1.43-1.59-1.43a2.75,2.75,0,0,0-1.67.59v-.93a3.7,3.7,0,0,1,1.92-.48,2.83,2.83,0,0,1,.95.15,2.07,2.07,0,0,1,.73.41,1.71,1.71,0,0,1,.47.63,1.85,1.85,0,0,1,.17.82,2.06,2.06,0,0,1-1.67,2.13v0a2.64,2.64,0,0,1,.79.21,2.12,2.12,0,0,1,.62.42,1.75,1.75,0,0,1,.42.61A1.92,1.92,0,0,1,161.84,168.84Z" fill="#2b3033"/><path d="M168.6,166.51a8.48,8.48,0,0,1-.22,2.05,4.89,4.89,0,0,1-.67,1.53,3.06,3.06,0,0,1-1.08.95,3.18,3.18,0,0,1-1.44.32,3.52,3.52,0,0,1-1.46-.29v-.92a3,3,0,0,0,1.49.39,2.21,2.21,0,0,0,1-.23,2.09,2.09,0,0,0,.76-.69,3.18,3.18,0,0,0,.48-1.1,6.25,6.25,0,0,0,.16-1.51h0a1.92,1.92,0,0,1-1.88,1.09,2.64,2.64,0,0,1-1-.19,2.37,2.37,0,0,1-.78-.54,2.41,2.41,0,0,1-.51-.83,3,3,0,0,1-.18-1.06,3.21,3.21,0,0,1,.2-1.14,2.83,2.83,0,0,1,.57-.89,2.49,2.49,0,0,1,.85-.57,2.74,2.74,0,0,1,1.08-.21,2.37,2.37,0,0,1,1.12.26,2.26,2.26,0,0,1,.83.74,3.84,3.84,0,0,1,.51,1.21A7.22,7.22,0,0,1,168.6,166.51Zm-1-.86a3.08,3.08,0,0,0-.13-.89,2.08,2.08,0,0,0-.35-.68,1.6,1.6,0,0,0-.53-.44,1.5,1.5,0,0,0-.67-.15,1.53,1.53,0,0,0-.64.13,1.69,1.69,0,0,0-.52.39,1.92,1.92,0,0,0-.35.59,2.27,2.27,0,0,0-.12.75,2.49,2.49,0,0,0,.12.8,1.63,1.63,0,0,0,.34.59,1.5,1.5,0,0,0,.53.37,1.78,1.78,0,0,0,.7.13,1.58,1.58,0,0,0,1.14-.46,1.5,1.5,0,0,0,.35-.51A1.6,1.6,0,0,0,167.57,165.65Z" fill="#2b3033"/><path d="M174.17,162.81v5.55h1.08v.88h-1.08v2h-.95v-2h-3.95v-.83c.37-.42.74-.86,1.11-1.33s.74-1,1.08-1.43.66-1,.95-1.45a11.74,11.74,0,0,0,.73-1.39Zm-3.81,5.55h2.86v-4.11c-.29.51-.57,1-.83,1.37s-.51.77-.75,1.1-.46.62-.68.89Z" fill="#2b3033"/><path d="M182.44,173.13h-.86a7.51,7.51,0,0,1-1.81-5.12,7.79,7.79,0,0,1,1.81-5.2h.87a7.91,7.91,0,0,0-1.84,5.19A7.77,7.77,0,0,0,182.44,173.13Z" fill="#2b3033"/><path d="M184.65,168v3.18h-1v-8.41H186a3,3,0,0,1,2.09.66,2.35,2.35,0,0,1,.74,1.85,2.55,2.55,0,0,1-.83,2,3.13,3.13,0,0,1-2.22.76Zm0-4.34v3.45h1a2.33,2.33,0,0,0,1.56-.47,1.64,1.64,0,0,0,.54-1.31c0-1.11-.66-1.67-2-1.67Z" fill="#2b3033"/><path d="M195.83,171.22h-1.2L192.7,168a2.81,2.81,0,0,1-.2-.42h0c0,.09-.1.23-.2.42l-2,3.22h-1.21l2.81-4.23-2.59-4.18h1.21l1.72,3c.11.19.21.39.3.58h0c.13-.26.24-.46.33-.61l1.79-2.93h1.13L193.15,167Z" fill="#2b3033"/><path d="M198.09,171.22h-1v-8.41h1Z" fill="#2b3033"/><path d="M203.72,165a1.76,1.76,0,0,0-.12-.68,1.35,1.35,0,0,0-.32-.48,1.49,1.49,0,0,0-.49-.28,2,2,0,0,0-.61-.09,2,2,0,0,0-.55.07,2.66,2.66,0,0,0-.53.21,3,3,0,0,0-.49.33,2.85,2.85,0,0,0-.44.41v-1a3,3,0,0,1,.9-.6,3.17,3.17,0,0,1,1.22-.21,2.93,2.93,0,0,1,1,.15,2.2,2.2,0,0,1,.76.44,1.93,1.93,0,0,1,.51.71,2.42,2.42,0,0,1,.18,1,3.2,3.2,0,0,1-.11.91,2.75,2.75,0,0,1-.35.76,3.62,3.62,0,0,1-.58.68,6.7,6.7,0,0,1-.83.67c-.39.28-.72.52-1,.72a4.34,4.34,0,0,0-.61.56,1.75,1.75,0,0,0-.32.52,1.89,1.89,0,0,0-.09.6H205v.87h-5.19v-.42a3.38,3.38,0,0,1,.12-1,2.56,2.56,0,0,1,.38-.78,4.42,4.42,0,0,1,.71-.74c.29-.24.65-.52,1.07-.83a6.69,6.69,0,0,0,.76-.63,3.27,3.27,0,0,0,.5-.59,2.71,2.71,0,0,0,.27-.61A2.76,2.76,0,0,0,203.72,165Z" fill="#2b3033"/><path d="M206.38,170.88v-1.16a2.21,2.21,0,0,0,.48.31,3.72,3.72,0,0,0,.58.24c.21.06.41.11.62.15a4.13,4.13,0,0,0,.57.05,2.22,2.22,0,0,0,1.36-.34,1.12,1.12,0,0,0,.45-1,1.15,1.15,0,0,0-.15-.59,1.76,1.76,0,0,0-.41-.46,4.57,4.57,0,0,0-.63-.4l-.77-.4c-.3-.15-.57-.3-.82-.45a3.54,3.54,0,0,1-.67-.5,2.3,2.3,0,0,1-.44-.63,1.86,1.86,0,0,1-.16-.81,1.88,1.88,0,0,1,.25-1,2.11,2.11,0,0,1,.66-.7,3,3,0,0,1,.94-.41,4.3,4.3,0,0,1,1.07-.14,4.08,4.08,0,0,1,1.81.3v1.11a3.24,3.24,0,0,0-1.91-.52,3.59,3.59,0,0,0-.65.07,2,2,0,0,0-.57.22,1.27,1.27,0,0,0-.41.39,1,1,0,0,0-.16.59,1.25,1.25,0,0,0,.12.56,1.39,1.39,0,0,0,.36.42,3,3,0,0,0,.57.38l.77.4a7.87,7.87,0,0,1,.86.47,3.59,3.59,0,0,1,.71.54,2.53,2.53,0,0,1,.48.66,1.84,1.84,0,0,1,.18.83,2.16,2.16,0,0,1-.24,1.06,2,2,0,0,1-.66.7,2.8,2.8,0,0,1-.95.39,5.24,5.24,0,0,1-1.14.12,3.29,3.29,0,0,1-.49,0c-.2,0-.39,0-.6-.09a4.74,4.74,0,0,1-.57-.15A1.83,1.83,0,0,1,206.38,170.88Z" fill="#2b3033"/><path d="M214,171.22h-1v-8.89h1Z" fill="#2b3033"/><path d="M218.43,171.36a2.77,2.77,0,0,1-2.12-.84,3.14,3.14,0,0,1-.8-2.23,3.27,3.27,0,0,1,.83-2.37,3,3,0,0,1,2.23-.85,2.7,2.7,0,0,1,2.1.83,3.29,3.29,0,0,1,.75,2.29,3.21,3.21,0,0,1-.81,2.3A2.84,2.84,0,0,1,218.43,171.36Zm.07-5.48a1.81,1.81,0,0,0-1.46.63,2.59,2.59,0,0,0-.54,1.74,2.46,2.46,0,0,0,.54,1.68,1.87,1.87,0,0,0,1.46.62,1.73,1.73,0,0,0,1.43-.61,2.57,2.57,0,0,0,.51-1.71,2.65,2.65,0,0,0-.51-1.74A1.76,1.76,0,0,0,218.5,165.88Z" fill="#2b3033"/><path d="M225.74,171.16a2,2,0,0,1-.9.18c-1.05,0-1.57-.58-1.57-1.75V166h-1v-.82h1v-1.47l1-.31v1.78h1.51V166h-1.51v3.38a1.38,1.38,0,0,0,.2.86.83.83,0,0,0,.68.26,1.05,1.05,0,0,0,.63-.2Z" fill="#2b3033"/><path d="M231.73,168.65a2.82,2.82,0,0,1-.21,1.11,2.61,2.61,0,0,1-.6.86,2.7,2.7,0,0,1-.95.55,3.59,3.59,0,0,1-1.22.19A3.44,3.44,0,0,1,227,171v-1a3.16,3.16,0,0,0,1.75.55,2.31,2.31,0,0,0,.82-.13,1.8,1.8,0,0,0,.63-.38,1.56,1.56,0,0,0,.39-.58,1.78,1.78,0,0,0,.14-.74,1.59,1.59,0,0,0-.55-1.29,2.42,2.42,0,0,0-1.6-.46h-.36l-.37,0-.37,0a1.58,1.58,0,0,0-.32,0l.29-4.22h3.88v.87h-3.05l-.17,2.47.4,0h.37a4,4,0,0,1,1.2.17,2.65,2.65,0,0,1,.89.5,2.27,2.27,0,0,1,.56.8A3,3,0,0,1,231.73,168.65Z" fill="#2b3033"/><path d="M233.51,173.13h-.85a7.77,7.77,0,0,0,1.83-5.13,8,8,0,0,0-1.84-5.19h.86a7.75,7.75,0,0,1,1.83,5.2A7.47,7.47,0,0,1,233.51,173.13Z" fill="#2b3033"/><path d="M240.13,170.88v-1.16a2.83,2.83,0,0,0,.48.31,3.83,3.83,0,0,0,.59.24,6.23,6.23,0,0,0,.62.15,3.88,3.88,0,0,0,.57.05,2.22,2.22,0,0,0,1.36-.34,1.12,1.12,0,0,0,.45-1,1.15,1.15,0,0,0-.15-.59,1.64,1.64,0,0,0-.42-.46,3.91,3.91,0,0,0-.62-.4l-.78-.4-.82-.45a3.81,3.81,0,0,1-.66-.5,2.11,2.11,0,0,1-.44-.63,1.86,1.86,0,0,1-.16-.81,1.88,1.88,0,0,1,.25-1,2.11,2.11,0,0,1,.66-.7,2.86,2.86,0,0,1,.94-.41,5,5,0,0,1,2.88.16v1.11a3.27,3.27,0,0,0-1.92-.52,3.58,3.58,0,0,0-.64.07,1.93,1.93,0,0,0-.57.22,1.18,1.18,0,0,0-.41.39,1,1,0,0,0-.16.59,1.25,1.25,0,0,0,.12.56,1.51,1.51,0,0,0,.35.42,3.76,3.76,0,0,0,.57.38l.78.4a7.87,7.87,0,0,1,.86.47,3.82,3.82,0,0,1,.7.54,2.36,2.36,0,0,1,.49.66,1.84,1.84,0,0,1,.18.83,2,2,0,0,1-.9,1.76,3,3,0,0,1-1,.39,5.24,5.24,0,0,1-1.14.12,3.2,3.2,0,0,1-.49,0q-.3,0-.6-.09a4.91,4.91,0,0,1-.58-.15A2,2,0,0,1,240.13,170.88Z" fill="#2b3033"/><path d="M250.56,162.81l-4,9.8h-.89l4-9.8Z" fill="#2b3033"/><path d="M258.35,171.22h-1.21l-4.32-6.7a2.94,2.94,0,0,1-.27-.53h0a9.48,9.48,0,0,1,0,1.16v6.07h-1v-8.41h1.28l4.2,6.59c.18.28.29.47.34.57h0a8.74,8.74,0,0,1-.06-1.24v-5.92h1Z" fill="#2b3033"/><path d="M260.76,166.39a.63.63,0,0,1-.46-.2.65.65,0,0,1,0-.92.65.65,0,0,1,.46-.18.67.67,0,0,1,.47.18.65.65,0,0,1,0,.92A.65.65,0,0,1,260.76,166.39Zm0,5a.65.65,0,0,1-.65-.65.64.64,0,0,1,.19-.47.62.62,0,0,1,.46-.19.65.65,0,0,1,.66.66.62.62,0,0,1-.19.46A.64.64,0,0,1,260.76,171.34Z" fill="#2b3033"/><path d="M271.32,167a8.68,8.68,0,0,1-.19,1.87,4.41,4.41,0,0,1-.55,1.37,2.4,2.4,0,0,1-.89.85,2.33,2.33,0,0,1-1.19.29,2.22,2.22,0,0,1-2-1.09A4,4,0,0,1,266,169a8,8,0,0,1-.17-1.78,9.35,9.35,0,0,1,.18-1.94,4.38,4.38,0,0,1,.54-1.42,2.36,2.36,0,0,1,2.11-1.15Q271.32,162.67,271.32,167Zm-1,.09c0-2.39-.56-3.58-1.7-3.58s-1.8,1.21-1.8,3.65c0,2.27.59,3.4,1.76,3.4S270.33,169.39,270.33,167.07Z" fill="#2b3033"/><path d="M276.05,171.22h-1V164a2.78,2.78,0,0,1-.32.25,5.5,5.5,0,0,1-.48.28,5,5,0,0,1-.57.27,4.76,4.76,0,0,1-.57.19v-1a6.12,6.12,0,0,0,.67-.24c.23-.1.47-.21.69-.33s.45-.25.65-.39a5.23,5.23,0,0,0,.53-.39h.36Z" fill="#2b3033"/><path d="M285.1,170.86a4.89,4.89,0,0,1-2.32.5,3.74,3.74,0,0,1-2.87-1.16,4.26,4.26,0,0,1-1.08-3,4.47,4.47,0,0,1,1.21-3.26,4.16,4.16,0,0,1,3.08-1.24,4.91,4.91,0,0,1,2,.35v1a4,4,0,0,0-2-.51,3.08,3.08,0,0,0-2.35,1,3.64,3.64,0,0,0-.9,2.58,3.47,3.47,0,0,0,.84,2.45,2.86,2.86,0,0,0,2.21.91,4.2,4.2,0,0,0,2.19-.56Z" fill="#2b3033"/><path d="M286.81,171.22v-8.41h2.39a2.6,2.6,0,0,1,1.73.54,1.69,1.69,0,0,1,.64,1.38,2,2,0,0,1-.39,1.25,2.11,2.11,0,0,1-1.06.75v0a2.15,2.15,0,0,1,1.35.64,2,2,0,0,1,.51,1.41,2.19,2.19,0,0,1-.77,1.75,2.9,2.9,0,0,1-1.95.67Zm1-7.52v2.72h1a1.89,1.89,0,0,0,1.27-.39,1.36,1.36,0,0,0,.47-1.1c0-.82-.54-1.23-1.61-1.23Zm0,3.6v3h1.34a2,2,0,0,0,1.35-.41,1.41,1.41,0,0,0,.47-1.12c0-1-.67-1.49-2-1.49Z" fill="#2b3033"/><path d="M297.57,162.81v5.55h1.08v.88h-1.08v2h-.95v-2h-3.95v-.83c.37-.42.74-.86,1.11-1.33s.74-1,1.08-1.43.66-1,.95-1.45a13.45,13.45,0,0,0,.73-1.39Zm-3.82,5.55h2.87v-4.11c-.29.51-.57,1-.83,1.37s-.51.77-.75,1.1-.46.62-.68.89Z" fill="#2b3033"/><path d="M305,163.37l-.46.83c-.18.33-.38.71-.58,1.12s-.41.86-.62,1.34-.41,1-.59,1.47-.35,1-.48,1.55a12.35,12.35,0,0,0-.31,1.54h-1a11.18,11.18,0,0,1,.33-1.54,16.08,16.08,0,0,1,.5-1.53c.18-.5.38-1,.58-1.45s.41-.89.61-1.29.37-.73.53-1l.39-.7h-4.21v-.87H305Z" fill="#2b3033"/><path d="M311.08,171.22h-4.45v-8.41h4.26v.89h-3.28v2.8h3v.88h-3v2.94h3.47Z" fill="#2b3033"/><path d="M312.7,171.22v-8.41H315q4.44,0,4.44,4.1a4.1,4.1,0,0,1-1.23,3.12,4.6,4.6,0,0,1-3.31,1.19Zm1-7.52v6.62h1.26a3.56,3.56,0,0,0,2.57-.88,3.34,3.34,0,0,0,.92-2.51q0-3.23-3.44-3.23Z" fill="#2b3033"/><path d="M31.61,59H30.52l-.9-2.36H26.06L25.22,59H24.13l3.22-8.4h1ZM29.3,55.76,28,52.18a3.91,3.91,0,0,1-.12-.56h0a3.62,3.62,0,0,1-.13.56l-1.31,3.58Z" fill="#4d5359"/><path d="M33.7,58.13h0v3.63h-1V53h1v1h0a2.27,2.27,0,0,1,2.07-1.19,2.21,2.21,0,0,1,1.81.8,3.31,3.31,0,0,1,.65,2.16,3.69,3.69,0,0,1-.73,2.41,2.43,2.43,0,0,1-2,.91A2,2,0,0,1,33.7,58.13Zm0-2.42v.84a1.73,1.73,0,0,0,.49,1.26,1.71,1.71,0,0,0,2.59-.15,3,3,0,0,0,.5-1.85,2.45,2.45,0,0,0-.46-1.57,1.54,1.54,0,0,0-1.26-.57,1.7,1.7,0,0,0-1.35.58A2.15,2.15,0,0,0,33.67,55.71Z" fill="#4d5359"/><path d="M40.75,58.13h0v3.63h-1V53h1v1h0a2.29,2.29,0,0,1,2.08-1.19,2.23,2.23,0,0,1,1.81.8,3.37,3.37,0,0,1,.65,2.16,3.69,3.69,0,0,1-.74,2.41,2.4,2.4,0,0,1-2,.91A2,2,0,0,1,40.75,58.13Zm0-2.42v.84a1.77,1.77,0,0,0,.48,1.26,1.59,1.59,0,0,0,1.23.52,1.6,1.6,0,0,0,1.37-.67,3,3,0,0,0,.49-1.85,2.39,2.39,0,0,0-.46-1.57,1.53,1.53,0,0,0-1.25-.57,1.7,1.7,0,0,0-1.35.58A2.15,2.15,0,0,0,40.73,55.71Z" fill="#4d5359"/><path d="M47.78,59h-1V50.12h1Z" fill="#4d5359"/><path d="M54.5,53l-2.76,7q-.74,1.86-2.07,1.86a2.28,2.28,0,0,1-.63-.07v-.86a1.8,1.8,0,0,0,.57.1,1.17,1.17,0,0,0,1.09-.87L51.18,59l-2.34-6H49.9l1.63,4.62q0,.09.12.45h0c0-.09.05-.24.11-.44L53.51,53Z" fill="#4d5359"/><path d="M56,51.48a.6.6,0,0,1-.44-.18.61.61,0,0,1-.18-.45.61.61,0,0,1,.62-.62.64.64,0,0,1,.45.18.6.6,0,0,1,.18.44.59.59,0,0,1-.18.44A.61.61,0,0,1,56,51.48ZM56.5,59h-1V53h1Z" fill="#4d5359"/><path d="M63.42,59h-1V55.58c0-1.28-.46-1.91-1.39-1.91a1.54,1.54,0,0,0-1.2.54,2,2,0,0,0-.47,1.37V59h-1V53h1v1h0a2.16,2.16,0,0,1,2-1.14,1.85,1.85,0,0,1,1.51.63,2.84,2.84,0,0,1,.52,1.84Z" fill="#4d5359"/><path d="M70.35,58.52q0,3.3-3.16,3.3a4.31,4.31,0,0,1-2-.42v-1a4,4,0,0,0,1.94.56c1.47,0,2.21-.78,2.21-2.35V58h0a2.25,2.25,0,0,1-2.06,1.15,2.28,2.28,0,0,1-1.81-.8,3.22,3.22,0,0,1-.68-2.15,3.73,3.73,0,0,1,.74-2.43,2.46,2.46,0,0,1,2-.9,2,2,0,0,1,1.8,1h0V53h1Zm-1-2.23V55.4a1.72,1.72,0,0,0-.48-1.22,1.58,1.58,0,0,0-1.2-.51,1.67,1.67,0,0,0-1.4.64,2.9,2.9,0,0,0-.5,1.82,2.48,2.48,0,0,0,.48,1.6,1.56,1.56,0,0,0,1.28.6,1.69,1.69,0,0,0,1.32-.57A2.2,2.2,0,0,0,69.39,56.29Z" fill="#4d5359"/><path d="M80.57,59h-1V55.54c0-1.25-.47-1.87-1.4-1.87a1.51,1.51,0,0,0-1.18.54,2,2,0,0,0-.48,1.39V59h-1V50.12h1V54h0a2.18,2.18,0,0,1,2-1.14c1.35,0,2,.81,2,2.44Z" fill="#4d5359"/><path d="M86.67,59h-1v-.94h0a2,2,0,0,1-1.85,1.08,2,2,0,0,1-1.4-.47,1.65,1.65,0,0,1-.51-1.26c0-1.13.66-1.78,2-2l1.8-.25c0-1-.41-1.53-1.24-1.53a2.9,2.9,0,0,0-2,.74v-1a3.76,3.76,0,0,1,2-.56c1.41,0,2.11.74,2.11,2.24Zm-1-3-1.45.2a2.54,2.54,0,0,0-1,.33,1,1,0,0,0-.34.85.89.89,0,0,0,.31.71,1.19,1.19,0,0,0,.83.28,1.58,1.58,0,0,0,1.19-.5,1.79,1.79,0,0,0,.46-1.27Z" fill="#4d5359"/><path d="M91.61,54a1.18,1.18,0,0,0-.73-.19,1.2,1.2,0,0,0-1,.58,2.64,2.64,0,0,0-.42,1.58V59h-1V53h1v1.24h0a2,2,0,0,1,.62-1,1.45,1.45,0,0,1,1-.36,1.41,1.41,0,0,1,.57.09Z" fill="#4d5359"/><path d="M97.62,59h-1V58h0a2.21,2.21,0,0,1-2.06,1.16,2.24,2.24,0,0,1-1.81-.81,3.28,3.28,0,0,1-.67-2.19,3.57,3.57,0,0,1,.75-2.38,2.46,2.46,0,0,1,2-.9,1.91,1.91,0,0,1,1.8,1h0V50.12h1Zm-1-2.71V55.4a1.73,1.73,0,0,0-.48-1.23,1.64,1.64,0,0,0-1.22-.5,1.67,1.67,0,0,0-1.39.64,2.87,2.87,0,0,0-.5,1.78,2.56,2.56,0,0,0,.48,1.64,1.6,1.6,0,0,0,1.3.6,1.65,1.65,0,0,0,1.31-.58A2.17,2.17,0,0,0,96.66,56.29Z" fill="#4d5359"/><path d="M107.12,53l-1.8,6h-1l-1.24-4.3a2.26,2.26,0,0,1-.09-.55h0a2.44,2.44,0,0,1-.12.54L101.51,59h-1l-1.82-6h1L101,57.51a2.38,2.38,0,0,1,.08.54h0a2.91,2.91,0,0,1,.1-.55L102.6,53h.88l1.24,4.52a3.36,3.36,0,0,1,.09.54h0a2.61,2.61,0,0,1,.1-.54L106.17,53Z" fill="#4d5359"/><path d="M112.53,59h-1v-.94h0a2,2,0,0,1-1.84,1.08,2,2,0,0,1-1.4-.47,1.65,1.65,0,0,1-.51-1.26c0-1.13.66-1.78,2-2l1.8-.25c0-1-.41-1.53-1.24-1.53a2.9,2.9,0,0,0-2,.74v-1a3.7,3.7,0,0,1,2-.56c1.41,0,2.12.74,2.12,2.24Zm-1-3-1.45.2a2.65,2.65,0,0,0-1,.33,1,1,0,0,0-.34.85.9.9,0,0,0,.32.71,1.18,1.18,0,0,0,.83.28,1.55,1.55,0,0,0,1.18-.5,1.8,1.8,0,0,0,.47-1.27Z" fill="#4d5359"/><path d="M117.47,54a1.18,1.18,0,0,0-.73-.19,1.23,1.23,0,0,0-1,.58,2.72,2.72,0,0,0-.41,1.58V59h-1V53h1v1.24h0a2.07,2.07,0,0,1,.63-1,1.42,1.42,0,0,1,.94-.36,1.46,1.46,0,0,1,.58.09Z" fill="#4d5359"/><path d="M123.18,56.24h-4.24a2.25,2.25,0,0,0,.54,1.55,1.85,1.85,0,0,0,1.42.54,2.93,2.93,0,0,0,1.86-.67v.91a3.5,3.5,0,0,1-2.09.57,2.52,2.52,0,0,1-2-.82,3.36,3.36,0,0,1-.73-2.3,3.29,3.29,0,0,1,.8-2.28,2.53,2.53,0,0,1,2-.88,2.25,2.25,0,0,1,1.82.76,3.18,3.18,0,0,1,.65,2.12Zm-1-.81a2,2,0,0,0-.4-1.3,1.36,1.36,0,0,0-1.1-.46,1.55,1.55,0,0,0-1.15.48,2.25,2.25,0,0,0-.59,1.28Z" fill="#4d5359"/><path d="M132,58.72a3.13,3.13,0,0,1-1.64.42,2.76,2.76,0,0,1-2.08-.83,3.06,3.06,0,0,1-.78-2.17,3.3,3.3,0,0,1,.85-2.38,3,3,0,0,1,2.26-.9,3.24,3.24,0,0,1,1.4.29v1a2.4,2.4,0,0,0-1.43-.47,1.92,1.92,0,0,0-1.51.66,2.5,2.5,0,0,0-.59,1.73,2.36,2.36,0,0,0,.55,1.66,1.91,1.91,0,0,0,1.49.61,2.43,2.43,0,0,0,1.48-.52Z" fill="#4d5359"/><path d="M137.75,59h-1v-.94h0a2.2,2.2,0,0,1-3.25.61,1.65,1.65,0,0,1-.51-1.26c0-1.13.66-1.78,2-2l1.8-.25q0-1.53-1.23-1.53a2.91,2.91,0,0,0-2,.74v-1a3.76,3.76,0,0,1,2-.56c1.41,0,2.11.74,2.11,2.24Zm-1-3-1.44.2a2.53,2.53,0,0,0-1,.33,1,1,0,0,0-.34.85.89.89,0,0,0,.31.71,1.2,1.2,0,0,0,.84.28,1.56,1.56,0,0,0,1.18-.5,1.79,1.79,0,0,0,.46-1.27Z" fill="#4d5359"/><path d="M140.53,59h-1V50.12h1Z" fill="#4d5359"/><path d="M143,51.48a.6.6,0,0,1-.44-.18.61.61,0,0,1-.18-.45.61.61,0,0,1,.62-.62.63.63,0,0,1,.64.62.6.6,0,0,1-.19.44A.58.58,0,0,1,143,51.48Zm.47,7.52h-1V53h1Z" fill="#4d5359"/><path d="M146.36,58.13h0V59h-1V50.12h1v3.93h0a2.29,2.29,0,0,1,2.08-1.19,2.19,2.19,0,0,1,1.8.8,3.32,3.32,0,0,1,.66,2.16,3.69,3.69,0,0,1-.74,2.41,2.4,2.4,0,0,1-2,.91A2,2,0,0,1,146.36,58.13Zm0-2.42v.84a1.77,1.77,0,0,0,.48,1.26,1.59,1.59,0,0,0,1.23.52,1.6,1.6,0,0,0,1.37-.67,3,3,0,0,0,.49-1.85,2.39,2.39,0,0,0-.46-1.57,1.53,1.53,0,0,0-1.25-.57,1.7,1.7,0,0,0-1.35.58A2.15,2.15,0,0,0,146.34,55.71Z" fill="#4d5359"/><path d="M155.56,54a1.18,1.18,0,0,0-.73-.19,1.2,1.2,0,0,0-1,.58,2.64,2.64,0,0,0-.42,1.58V59h-1V53h1v1.24h0a2,2,0,0,1,.62-1,1.43,1.43,0,0,1,1-.36,1.41,1.41,0,0,1,.57.09Z" fill="#4d5359"/><path d="M160.9,59h-1v-.94h0a2,2,0,0,1-1.84,1.08,2,2,0,0,1-1.4-.47,1.65,1.65,0,0,1-.51-1.26c0-1.13.66-1.78,2-2l1.8-.25c0-1-.41-1.53-1.24-1.53a2.94,2.94,0,0,0-2,.74v-1a3.76,3.76,0,0,1,2-.56c1.41,0,2.12.74,2.12,2.24Zm-1-3-1.45.2a2.59,2.59,0,0,0-1,.33,1,1,0,0,0-.34.85.9.9,0,0,0,.32.71,1.18,1.18,0,0,0,.83.28,1.55,1.55,0,0,0,1.18-.5,1.8,1.8,0,0,0,.47-1.27Z" fill="#4d5359"/><path d="M165.49,58.94a1.76,1.76,0,0,1-.89.19c-1.06,0-1.58-.59-1.58-1.76V53.82h-1V53h1V51.53l1-.31V53h1.51v.82H164V57.2a1.37,1.37,0,0,0,.21.86.81.81,0,0,0,.68.26,1,1,0,0,0,.62-.2Z" fill="#4d5359"/><path d="M167.27,51.48a.6.6,0,0,1-.44-.18.61.61,0,0,1-.18-.45.61.61,0,0,1,.62-.62.64.64,0,0,1,.45.18.6.6,0,0,1,.18.44.59.59,0,0,1-.18.44A.61.61,0,0,1,167.27,51.48Zm.47,7.52h-1V53h1Z" fill="#4d5359"/><path d="M172.19,59.14a2.76,2.76,0,0,1-2.12-.84,3.11,3.11,0,0,1-.8-2.23,3.23,3.23,0,0,1,.83-2.36,3,3,0,0,1,2.23-.85,2.66,2.66,0,0,1,2.09.83,3.75,3.75,0,0,1,0,4.59A2.87,2.87,0,0,1,172.19,59.14Zm.07-5.47a1.84,1.84,0,0,0-1.47.63,2.63,2.63,0,0,0-.53,1.73,2.47,2.47,0,0,0,.54,1.69,1.85,1.85,0,0,0,1.46.61,1.75,1.75,0,0,0,1.43-.6,3.23,3.23,0,0,0,0-3.45A1.73,1.73,0,0,0,172.26,53.67Z" fill="#4d5359"/><path d="M181.69,59h-1V55.58c0-1.28-.46-1.91-1.39-1.91a1.5,1.5,0,0,0-1.19.54,2,2,0,0,0-.48,1.37V59h-1V53h1v1h0a2.16,2.16,0,0,1,2-1.14,1.84,1.84,0,0,1,1.5.63,2.84,2.84,0,0,1,.52,1.84Z" fill="#4d5359"/><path d="M183.84,59.13a.65.65,0,0,1-.65-.66.62.62,0,0,1,.19-.46.61.61,0,0,1,.46-.2.65.65,0,0,1,.47.2.62.62,0,0,1,.19.46.64.64,0,0,1-.19.47A.68.68,0,0,1,183.84,59.13Z" fill="#4d5359"/><path d="M186.44,59.13a.66.66,0,0,1-.46-.19.64.64,0,0,1-.19-.47A.62.62,0,0,1,186,58a.63.63,0,0,1,.46-.2.65.65,0,0,1,.47.2.62.62,0,0,1,.19.46.64.64,0,0,1-.19.47A.68.68,0,0,1,186.44,59.13Z" fill="#4d5359"/><path d="M189,59.13a.66.66,0,0,1-.46-.19.64.64,0,0,1-.19-.47.62.62,0,0,1,.19-.46.63.63,0,0,1,.46-.2.65.65,0,0,1,.47.2.62.62,0,0,1,.19.46.64.64,0,0,1-.19.47A.68.68,0,0,1,189,59.13Z" fill="#4d5359"/></svg>