<svg id="Layer_1" data-name="Layer 1" xmlns="http://www.w3.org/2000/svg" xmlns:xlink="http://www.w3.org/1999/xlink" width="346" height="162" viewBox="0 0 346 162"><defs><linearGradient id="linear-gradient" x1="287" y1="125.05" x2="287" y2="146.97" gradientUnits="userSpaceOnUse"><stop offset="0" stop-color="#ebe9ec"/><stop offset="0.28" stop-color="#e5e6e9"/><stop offset="1" stop-color="#dadfe2"/></linearGradient><linearGradient id="linear-gradient-2" x1="170" y1="81" x2="238.06" y2="81" gradientUnits="userSpaceOnUse"><stop offset="0.01" stop-color="#fff" stop-opacity="0"/><stop offset="0.08" stop-color="#fff" stop-opacity="0.01"/><stop offset="0.14" stop-color="#fff" stop-opacity="0.06"/><stop offset="0.19" stop-color="#fff" stop-opacity="0.13"/><stop offset="0.25" stop-color="#fff" stop-opacity="0.22"/><stop offset="0.3" stop-color="#fff" stop-opacity="0.35"/><stop offset="0.36" stop-color="#fff" stop-opacity="0.51"/><stop offset="0.41" stop-color="#fff" stop-opacity="0.69"/><stop offset="0.46" stop-color="#fff" stop-opacity="0.9"/><stop offset="0.48" stop-color="#fff"/><stop offset="0.51" stop-color="#fff" stop-opacity="0.87"/><stop offset="0.56" stop-color="#fff" stop-opacity="0.67"/><stop offset="0.61" stop-color="#fff" stop-opacity="0.49"/><stop offset="0.66" stop-color="#fff" stop-opacity="0.34"/><stop offset="0.72" stop-color="#fff" stop-opacity="0.21"/><stop offset="0.78" stop-color="#fff" stop-opacity="0.12"/><stop offset="0.84" stop-color="#fff" stop-opacity="0.05"/><stop offset="0.9" stop-color="#fff" stop-opacity="0.01"/><stop offset="0.98" stop-color="#fff" stop-opacity="0"/></linearGradient></defs><title>progress-indicators-gathering-files</title><polygon points="4 23.92 4 114.96 343.99 114.96 343.99 24 4 23.92" fill="#eef0ef"/><rect x="4" y="114" width="338" height="44" fill="#e1e3e4"/><path d="M0,0V162H346V0ZM342,158H4V29H342Z" fill="#4d5359"/><rect x="4" y="113" width="338" height="1" fill="#a8abae"/><path d="M21.82,18.65a4.89,4.89,0,0,1-2.32.49A3.73,3.73,0,0,1,16.63,18a4.26,4.26,0,0,1-1.08-3,4.5,4.5,0,0,1,1.21-3.26,4.12,4.12,0,0,1,3.08-1.24,4.92,4.92,0,0,1,2,.34v1a4.08,4.08,0,0,0-2-.5,3.07,3.07,0,0,0-2.35,1,3.66,3.66,0,0,0-.9,2.59,3.44,3.44,0,0,0,.84,2.44,2.87,2.87,0,0,0,2.21.92,4.11,4.11,0,0,0,2.19-.57Z" fill="#fff"/><path d="M25.91,19.14a2.77,2.77,0,0,1-2.12-.84,3.11,3.11,0,0,1-.8-2.23,3.25,3.25,0,0,1,.83-2.36,3,3,0,0,1,2.23-.85,2.68,2.68,0,0,1,2.1.83A3.27,3.27,0,0,1,28.9,16a3.25,3.25,0,0,1-.81,2.3A2.87,2.87,0,0,1,25.91,19.14ZM26,13.67a1.81,1.81,0,0,0-1.46.63A2.59,2.59,0,0,0,24,16a2.46,2.46,0,0,0,.54,1.68,1.85,1.85,0,0,0,1.46.61,1.75,1.75,0,0,0,1.43-.6,2.59,2.59,0,0,0,.5-1.72,2.61,2.61,0,0,0-.5-1.73A1.73,1.73,0,0,0,26,13.67Z" fill="#fff"/><path d="M31.42,18.13h0v3.63h-1V13h1v1.05h0a2.27,2.27,0,0,1,2.07-1.19,2.18,2.18,0,0,1,1.81.81A3.27,3.27,0,0,1,36,15.82a3.73,3.73,0,0,1-.73,2.42,2.45,2.45,0,0,1-2,.9A2,2,0,0,1,31.42,18.13Zm0-2.42v.84a1.78,1.78,0,0,0,.49,1.26,1.72,1.72,0,0,0,2.59-.15,3,3,0,0,0,.5-1.85,2.47,2.47,0,0,0-.46-1.57,1.54,1.54,0,0,0-1.26-.57,1.7,1.7,0,0,0-1.35.58A2.15,2.15,0,0,0,31.39,15.71Z" fill="#fff"/><path d="M42.26,13,39.5,20q-.73,1.86-2.07,1.86a2.28,2.28,0,0,1-.63-.07v-.86a1.8,1.8,0,0,0,.57.1,1.17,1.17,0,0,0,1.09-.87L38.94,19,36.6,13h1.06l1.63,4.62q0,.09.12.45h0a3,3,0,0,1,.11-.44L41.27,13Z" fill="#fff"/><path d="M51,11.49H47.7v2.9h3v.89h-3V19h-1V10.6H51Z" fill="#fff"/><path d="M52.93,11.48a.62.62,0,0,1-.44-.18.59.59,0,0,1-.18-.44.61.61,0,0,1,.18-.45.62.62,0,0,1,.44-.18.61.61,0,0,1,.45.18.62.62,0,0,1,.19.45.59.59,0,0,1-.19.43A.58.58,0,0,1,52.93,11.48ZM53.4,19h-1V13h1Z" fill="#fff"/><path d="M56.31,19h-1V10.12h1Z" fill="#fff"/><path d="M63.08,16.24H58.84a2.3,2.3,0,0,0,.54,1.55,1.87,1.87,0,0,0,1.42.54,2.93,2.93,0,0,0,1.86-.67v.91a3.5,3.5,0,0,1-2.09.57,2.52,2.52,0,0,1-2-.82,3.36,3.36,0,0,1-.73-2.3,3.29,3.29,0,0,1,.8-2.28,2.53,2.53,0,0,1,2-.88,2.25,2.25,0,0,1,1.82.76,3.18,3.18,0,0,1,.65,2.12Zm-1-.81a2,2,0,0,0-.4-1.3,1.36,1.36,0,0,0-1.1-.46,1.55,1.55,0,0,0-1.15.48,2.25,2.25,0,0,0-.59,1.28Z" fill="#fff"/><path d="M64.17,18.78v-1a2.81,2.81,0,0,0,1.72.58c.85,0,1.27-.28,1.27-.84a.76.76,0,0,0-.11-.41,1,1,0,0,0-.29-.29,2.19,2.19,0,0,0-.43-.24l-.54-.21a6.76,6.76,0,0,1-.7-.32,2.55,2.55,0,0,1-.51-.36,1.52,1.52,0,0,1-.3-.46,1.63,1.63,0,0,1-.1-.61,1.38,1.38,0,0,1,.19-.74,1.7,1.7,0,0,1,.52-.55,2.43,2.43,0,0,1,.73-.33,3.59,3.59,0,0,1,2.25.16v1a2.7,2.7,0,0,0-1.52-.43,1.83,1.83,0,0,0-.49.06,1.15,1.15,0,0,0-.37.17.76.76,0,0,0-.24.27.67.67,0,0,0-.09.34.75.75,0,0,0,.09.39.84.84,0,0,0,.25.29,2.36,2.36,0,0,0,.39.22l.54.21c.26.11.5.21.71.32a2.82,2.82,0,0,1,.54.36,1.41,1.41,0,0,1,.34.47,1.46,1.46,0,0,1,.12.62,1.5,1.5,0,0,1-.19.78,1.61,1.61,0,0,1-.53.54,2.44,2.44,0,0,1-.75.33,3.82,3.82,0,0,1-.9.1A3.34,3.34,0,0,1,64.17,18.78Z" fill="#fff"/><polygon points="335.14 9.97 333.62 8.45 330.07 12 326.52 8.45 325 9.97 328.55 13.52 325 17.07 326.52 18.59 330.07 15.04 333.62 18.59 335.14 17.07 331.59 13.52 335.14 9.97" fill="#fff"/><rect x="253" y="124.99" width="68" height="22.01" fill="url(#linear-gradient)"/><path d="M252,124v24h70V124Zm69,23H253V125h68Z" fill="#a8abae"/><path d="M276.29,139.65a4.89,4.89,0,0,1-2.32.49A3.74,3.74,0,0,1,271.1,139a4.26,4.26,0,0,1-1.08-3,4.46,4.46,0,0,1,1.22-3.26,4.08,4.08,0,0,1,3.07-1.24,4.92,4.92,0,0,1,2,.34v1a4.05,4.05,0,0,0-2-.5,3.08,3.08,0,0,0-2.35,1,3.66,3.66,0,0,0-.9,2.59,3.41,3.41,0,0,0,.85,2.44,2.85,2.85,0,0,0,2.2.92,4.06,4.06,0,0,0,2.19-.57Z" fill="#4d5359"/><path d="M282.17,140h-1v-.94h0a2,2,0,0,1-1.85,1.08,2,2,0,0,1-1.4-.47,1.65,1.65,0,0,1-.51-1.26c0-1.12.66-1.78,2-2l1.8-.25c0-1-.41-1.53-1.24-1.53a2.9,2.9,0,0,0-2,.74v-1a3.75,3.75,0,0,1,2-.56c1.41,0,2.12.75,2.12,2.24Zm-1-3-1.45.2a2.48,2.48,0,0,0-1,.34,1,1,0,0,0-.34.84.9.9,0,0,0,.32.71,1.18,1.18,0,0,0,.83.28,1.51,1.51,0,0,0,1.18-.5,1.8,1.8,0,0,0,.47-1.27Z" fill="#4d5359"/><path d="M289,140h-1v-3.42c0-1.28-.46-1.91-1.39-1.91a1.52,1.52,0,0,0-1.2.54,2,2,0,0,0-.47,1.37V140h-1v-6h1v1h0a2.17,2.17,0,0,1,2-1.14,1.83,1.83,0,0,1,1.51.64,2.79,2.79,0,0,1,.52,1.83Z" fill="#4d5359"/><path d="M294.86,139.72a3.1,3.1,0,0,1-1.64.42,2.73,2.73,0,0,1-2.07-.83,3,3,0,0,1-.79-2.17,3.3,3.3,0,0,1,.85-2.38,3,3,0,0,1,2.27-.9,3.2,3.2,0,0,1,1.39.29v1a2.38,2.38,0,0,0-1.43-.47,2,2,0,0,0-1.51.66,2.5,2.5,0,0,0-.58,1.73,2.36,2.36,0,0,0,.55,1.66,1.89,1.89,0,0,0,1.48.61,2.39,2.39,0,0,0,1.48-.52Z" fill="#4d5359"/><path d="M301.14,137.24H296.9a2.3,2.3,0,0,0,.54,1.55,1.87,1.87,0,0,0,1.42.54,2.93,2.93,0,0,0,1.86-.67v.91a3.5,3.5,0,0,1-2.09.57,2.53,2.53,0,0,1-2-.82,3.36,3.36,0,0,1-.73-2.3,3.29,3.29,0,0,1,.8-2.28,2.53,2.53,0,0,1,2-.88,2.24,2.24,0,0,1,1.82.76,3.18,3.18,0,0,1,.65,2.12Zm-1-.81a2,2,0,0,0-.4-1.3,1.36,1.36,0,0,0-1.1-.46,1.55,1.55,0,0,0-1.15.48,2.25,2.25,0,0,0-.59,1.28Z" fill="#4d5359"/><path d="M303.55,140h-1v-8.88h1Z" fill="#4d5359"/><path d="M31.38,58.43a5.67,5.67,0,0,1-2.81.71A3.86,3.86,0,0,1,25.66,58a4.26,4.26,0,0,1-1.11-3.07,4.37,4.37,0,0,1,1.23-3.2,4.2,4.2,0,0,1,3.13-1.25,5.42,5.42,0,0,1,2.3.44V52a4.4,4.4,0,0,0-2.41-.64,3,3,0,0,0-2.32,1,3.57,3.57,0,0,0-.9,2.52,3.53,3.53,0,0,0,.84,2.5,2.94,2.94,0,0,0,2.27.92,3.54,3.54,0,0,0,1.71-.4V55.51H28.56v-.89h2.82Z" fill="#4d5359"/><path d="M37.5,59h-1v-.94h0a2,2,0,0,1-1.85,1.08,2,2,0,0,1-1.4-.47,1.65,1.65,0,0,1-.51-1.26c0-1.12.66-1.78,2-2l1.8-.25c0-1-.41-1.53-1.24-1.53a2.9,2.9,0,0,0-1.95.74v-1a3.75,3.75,0,0,1,2-.56c1.41,0,2.12.75,2.12,2.24Zm-1-3-1.45.2a2.65,2.65,0,0,0-1,.33,1,1,0,0,0-.34.85.9.9,0,0,0,.32.71,1.18,1.18,0,0,0,.83.28,1.55,1.55,0,0,0,1.18-.5,1.8,1.8,0,0,0,.47-1.27Z" fill="#4d5359"/><path d="M42.09,58.94a1.76,1.76,0,0,1-.89.19c-1.05,0-1.58-.59-1.58-1.76V53.82h-1V53h1V51.54l1-.32V53h1.51v.82H40.58V57.2a1.37,1.37,0,0,0,.21.86.81.81,0,0,0,.68.26,1,1,0,0,0,.62-.2Z" fill="#4d5359"/><path d="M48.36,59h-1V55.54c0-1.25-.47-1.87-1.4-1.87a1.51,1.51,0,0,0-1.18.54,2,2,0,0,0-.48,1.39V59h-1V50.12h1V54h0a2.18,2.18,0,0,1,2-1.14c1.35,0,2,.81,2,2.44Z" fill="#4d5359"/><path d="M55,56.24H50.75a2.3,2.3,0,0,0,.54,1.55,1.88,1.88,0,0,0,1.42.54,2.89,2.89,0,0,0,1.86-.67v.91a3.47,3.47,0,0,1-2.09.57,2.53,2.53,0,0,1-2-.82,3.35,3.35,0,0,1-.72-2.3,3.28,3.28,0,0,1,.79-2.28,2.54,2.54,0,0,1,2-.88,2.26,2.26,0,0,1,1.83.76A3.18,3.18,0,0,1,55,55.74Zm-1-.81a2,2,0,0,0-.41-1.3,1.35,1.35,0,0,0-1.09-.46,1.57,1.57,0,0,0-1.16.48,2.24,2.24,0,0,0-.58,1.28Z" fill="#4d5359"/><path d="M59.57,54a1.16,1.16,0,0,0-.72-.19,1.21,1.21,0,0,0-1,.58,2.64,2.64,0,0,0-.42,1.58V59h-1V53h1v1.24h0a2,2,0,0,1,.62-1,1.45,1.45,0,0,1,1-.36,1.41,1.41,0,0,1,.57.09Z" fill="#4d5359"/><path d="M61.11,51.48a.6.6,0,0,1-.44-.18.59.59,0,0,1-.18-.44.61.61,0,0,1,.18-.45.6.6,0,0,1,.44-.18.64.64,0,0,1,.45.18.61.61,0,0,1,.18.45.58.58,0,0,1-.18.43A.61.61,0,0,1,61.11,51.48ZM61.58,59h-1V53h1Z" fill="#4d5359"/><path d="M68.5,59h-1V55.58c0-1.28-.46-1.91-1.39-1.91a1.54,1.54,0,0,0-1.2.54,2,2,0,0,0-.47,1.37V59h-1V53h1v1h0a2.16,2.16,0,0,1,2-1.14,1.85,1.85,0,0,1,1.51.63,2.84,2.84,0,0,1,.52,1.84Z" fill="#4d5359"/><path d="M75.43,58.52q0,3.3-3.16,3.3a4.31,4.31,0,0,1-2-.42v-1a4,4,0,0,0,1.94.56c1.47,0,2.21-.78,2.21-2.35V58h0a2.25,2.25,0,0,1-2.06,1.15,2.28,2.28,0,0,1-1.81-.8,3.22,3.22,0,0,1-.68-2.15,3.73,3.73,0,0,1,.74-2.43,2.46,2.46,0,0,1,2-.9,2,2,0,0,1,1.8,1h0V53h1Zm-1-2.23V55.4A1.72,1.72,0,0,0,74,54.18a1.58,1.58,0,0,0-1.2-.51,1.67,1.67,0,0,0-1.4.64,2.9,2.9,0,0,0-.5,1.82,2.48,2.48,0,0,0,.48,1.6,1.56,1.56,0,0,0,1.28.6A1.69,1.69,0,0,0,74,57.76,2.18,2.18,0,0,0,74.47,56.29Z" fill="#4d5359"/><path d="M83.63,51A1.35,1.35,0,0,0,83,50.8c-.67,0-1,.43-1,1.27V53h1.41v.82H82V59H81V53.82H80V53h1V52a2,2,0,0,1,.54-1.49A1.84,1.84,0,0,1,82.93,50a1.89,1.89,0,0,1,.7.1Z" fill="#4d5359"/><path d="M84.91,51.48a.62.62,0,0,1-.44-.18.59.59,0,0,1-.18-.44.61.61,0,0,1,.18-.45.62.62,0,0,1,.44-.18.61.61,0,0,1,.45.18.58.58,0,0,1,.19.45.56.56,0,0,1-.19.43A.58.58,0,0,1,84.91,51.48ZM85.38,59h-1V53h1Z" fill="#4d5359"/><path d="M88.29,59h-1V50.12h1Z" fill="#4d5359"/><path d="M95.06,56.24H90.82a2.3,2.3,0,0,0,.54,1.55,1.87,1.87,0,0,0,1.42.54,2.93,2.93,0,0,0,1.86-.67v.91a3.5,3.5,0,0,1-2.09.57,2.53,2.53,0,0,1-2-.82,3.36,3.36,0,0,1-.73-2.3,3.29,3.29,0,0,1,.8-2.28,2.53,2.53,0,0,1,2-.88,2.24,2.24,0,0,1,1.82.76,3.18,3.18,0,0,1,.65,2.12Zm-1-.81a2,2,0,0,0-.4-1.3,1.36,1.36,0,0,0-1.1-.46,1.55,1.55,0,0,0-1.15.48,2.25,2.25,0,0,0-.59,1.28Z" fill="#4d5359"/><path d="M96.15,58.78v-1a2.82,2.82,0,0,0,1.73.58q1.26,0,1.26-.84a.76.76,0,0,0-.11-.41,1,1,0,0,0-.29-.29,2.19,2.19,0,0,0-.43-.24l-.54-.21a6.76,6.76,0,0,1-.7-.32,2.22,2.22,0,0,1-.5-.36,1.38,1.38,0,0,1-.31-.46,1.63,1.63,0,0,1-.1-.61,1.38,1.38,0,0,1,.19-.74,1.7,1.7,0,0,1,.52-.55A2.21,2.21,0,0,1,97.6,53a3.49,3.49,0,0,1,.86-.11,3.45,3.45,0,0,1,1.39.27v1a2.7,2.7,0,0,0-1.52-.43,1.83,1.83,0,0,0-.49.06,1.26,1.26,0,0,0-.37.17.68.68,0,0,0-.24.27.67.67,0,0,0-.09.34.75.75,0,0,0,.09.39.84.84,0,0,0,.25.29,2.11,2.11,0,0,0,.4.22l.53.21c.26.11.5.21.71.32a2.42,2.42,0,0,1,.54.36,1.41,1.41,0,0,1,.34.47,1.46,1.46,0,0,1,.12.62,1.5,1.5,0,0,1-.19.78,1.61,1.61,0,0,1-.53.54,2.44,2.44,0,0,1-.75.33,3.82,3.82,0,0,1-.9.1A3.34,3.34,0,0,1,96.15,58.78Z" fill="#4d5359"/><path d="M101.94,59.13a.65.65,0,0,1-.65-.66.62.62,0,0,1,.19-.46.63.63,0,0,1,.92,0,.63.63,0,0,1,.2.46.65.65,0,0,1-.2.47A.64.64,0,0,1,101.94,59.13Z" fill="#4d5359"/><path d="M104.54,59.13a.65.65,0,0,1-.65-.66.62.62,0,0,1,.19-.46.61.61,0,0,1,.46-.2.65.65,0,0,1,.47.2.66.66,0,0,1,.19.46.65.65,0,0,1-.66.66Z" fill="#4d5359"/><path d="M107.14,59.13a.66.66,0,0,1-.46-.19.64.64,0,0,1-.19-.47.62.62,0,0,1,.19-.46.63.63,0,0,1,.46-.2.65.65,0,0,1,.47.2.62.62,0,0,1,.19.46.64.64,0,0,1-.19.47A.68.68,0,0,1,107.14,59.13Z" fill="#4d5359"/><rect x="24.5" y="69.5" width="299" height="23" fill="#e6eaec"/><path d="M323,70V92H25V70H323m1-1H24V93H324V69Z" fill="#a8abae"/><rect x="25.94" y="71" width="296.06" height="20" fill="#4384b7"/><rect x="170" y="71" width="68.06" height="20" fill="url(#linear-gradient-2)"/></svg>