<svg id="Layer_1" data-name="Layer 1" xmlns="http://www.w3.org/2000/svg" xmlns:xlink="http://www.w3.org/1999/xlink" width="234" height="24" viewBox="0 0 234 24"><defs><linearGradient id="linear-gradient" x1="221.5" y1="18.5" x2="233.5" y2="18.5" gradientUnits="userSpaceOnUse"><stop offset="0" stop-color="#ebe9ec"/><stop offset="0.28" stop-color="#e5e6e9"/><stop offset="1" stop-color="#dadfe2"/></linearGradient><linearGradient id="linear-gradient-2" y1="5.5" y2="5.5" xlink:href="#linear-gradient"/></defs><title>text-blocks-label-example</title><rect x="221.5" y="13.5" width="12" height="10" fill="url(#linear-gradient)"/><path d="M233,14v9H222V14h11m1-1H221V24h13V13Z" fill="#a8abae"/><rect x="75.5" y="0.5" width="143" height="23" fill="#fff"/><path d="M218,1V23H76V1H218m1-1H75V24H219V0Z" fill="#a8abae"/><rect x="221.5" y="0.5" width="12" height="10" fill="url(#linear-gradient-2)"/><path d="M233,1v9H222V1h11m1-1H221V11h13V0Z" fill="#a8abae"/><path d="M7.42,16h-1V12.17H2.09V16h-1V7.6h1v3.69H6.43V7.6h1Z" fill="#2b3033"/><path d="M14.31,13.24H10.08a2.24,2.24,0,0,0,.54,1.55,1.86,1.86,0,0,0,1.42.54,3,3,0,0,0,1.86-.67v.9a3.48,3.48,0,0,1-2.09.57,2.54,2.54,0,0,1-2-.82A3.35,3.35,0,0,1,9.08,13a3.28,3.28,0,0,1,.79-2.28,2.55,2.55,0,0,1,2-.88,2.26,2.26,0,0,1,1.82.76,3.18,3.18,0,0,1,.64,2.12Zm-1-.81a2,2,0,0,0-.4-1.29,1.37,1.37,0,0,0-1.1-.46,1.55,1.55,0,0,0-1.15.49,2.21,2.21,0,0,0-.59,1.27Z" fill="#2b3033"/><path d="M16.26,8.48a.61.61,0,0,1-.44-.18.59.59,0,0,1-.18-.45.62.62,0,0,1,.62-.63.62.62,0,0,1,.45.18.63.63,0,0,1,0,.89A.62.62,0,0,1,16.26,8.48ZM16.73,16h-1V10h1Z" fill="#2b3033"/><path d="M23.79,15.52q0,3.3-3.16,3.3a4.25,4.25,0,0,1-1.95-.42v-1a4,4,0,0,0,1.93.56q2.21,0,2.21-2.36V15h0a2.43,2.43,0,0,1-3.86.35,3.2,3.2,0,0,1-.68-2.15A3.74,3.74,0,0,1,19,10.76a2.46,2.46,0,0,1,2-.9,2,2,0,0,1,1.8,1h0V10h1Zm-1-2.23V12.4a1.72,1.72,0,0,0-.48-1.22,1.59,1.59,0,0,0-1.2-.51,1.67,1.67,0,0,0-1.39.65,2.89,2.89,0,0,0-.5,1.81,2.48,2.48,0,0,0,.48,1.6,1.56,1.56,0,0,0,1.28.6,1.67,1.67,0,0,0,1.32-.57A2.14,2.14,0,0,0,22.83,13.29Z" fill="#2b3033"/><path d="M30.72,16h-1V12.54q0-1.87-1.39-1.87a1.52,1.52,0,0,0-1.18.54,2,2,0,0,0-.48,1.39V16h-1V7.12h1V11h0a2.18,2.18,0,0,1,2-1.14q2,0,2,2.44Z" fill="#2b3033"/><path d="M35.31,15.94a1.85,1.85,0,0,1-.9.19q-1.58,0-1.58-1.76V10.82h-1V10h1V8.54l1-.31V10h1.51v.82H33.8V14.2a1.4,1.4,0,0,0,.21.86.82.82,0,0,0,.68.26,1,1,0,0,0,.63-.2Z" fill="#2b3033"/><path d="M206.67,8.16,206.2,9q-.27.5-.58,1.12T205,11.44q-.32.71-.59,1.48t-.48,1.54a11.49,11.49,0,0,0-.3,1.54h-1a11.68,11.68,0,0,1,.33-1.53q.22-.78.5-1.54t.59-1.45q.31-.7.6-1.28t.54-1l.39-.7h-4.21V7.6h5.34Z" fill="#2b3033"/><path d="M212.9,13.43a2.83,2.83,0,0,1-.21,1.11,2.43,2.43,0,0,1-.6.86,2.69,2.69,0,0,1-.94.55,3.68,3.68,0,0,1-1.22.19,3.38,3.38,0,0,1-1.74-.35v-1a3.2,3.2,0,0,0,1.75.55,2.37,2.37,0,0,0,.82-.13,1.83,1.83,0,0,0,.62-.37,1.61,1.61,0,0,0,.4-.58,2,2,0,0,0,.14-.74,1.59,1.59,0,0,0-.55-1.29,2.42,2.42,0,0,0-1.6-.47H209l-.37,0-.33,0,.29-4.21h3.88v.87h-3.05l-.17,2.47.4,0h.38a3.77,3.77,0,0,1,1.2.18,2.53,2.53,0,0,1,.89.5,2.1,2.1,0,0,1,.56.8A2.8,2.8,0,0,1,212.9,13.43Z" fill="#2b3033"/><polygon points="223.94 16 231 16 227.47 20.74 223.94 16" fill="#2b3033"/><polygon points="231 8 223.94 8 227.47 3.26 231 8" fill="#2b3033"/></svg>