<svg id="Layer_1" data-name="Layer 1" xmlns="http://www.w3.org/2000/svg" xmlns:xlink="http://www.w3.org/1999/xlink" width="164" height="24" viewBox="0 0 164 24"><defs><linearGradient id="linear-gradient" x1="9" y1="0.5" x2="9" y2="23.5" gradientUnits="userSpaceOnUse"><stop offset="0" stop-color="#ebe9ec"/><stop offset="0.28" stop-color="#e5e6e9"/><stop offset="1" stop-color="#dadfe2"/></linearGradient></defs><title>text-boxes-path_browse-hover</title><rect x="146.5" y="0.5" width="17" height="23" fill="#fff"/><path d="M163,1V23H147V1h16m1-1H146V24h18V0Z" fill="#4384b7"/><rect x="20.5" y="0.5" width="123" height="23" fill="#fff"/><path d="M143,1V23H21V1H143m1-1H20V24H144V0Z" fill="#a8abae"/><rect x="0.5" y="0.5" width="17" height="23" fill="url(#linear-gradient)"/><path d="M17,1V23H1V1H17m1-1H0V24H18V0Z" fill="#a8abae"/><path d="M10,8v2H8V8h2m1-1H7v4h4V7Z" fill="#2b3033"/><path d="M14,12v2H12V12h2m1-1H11v4h4V11Z" fill="#2b3033"/><path d="M6,12v2H4V12H6m1-1H3v4H7V11Z" fill="#2b3033"/><rect x="150" y="18" width="2" height="2" fill="#2b3033"/><rect x="154" y="18" width="2" height="2" fill="#2b3033"/><rect x="158" y="18" width="2" height="2" fill="#2b3033"/><line x1="8" y1="10" x2="6" y2="12" fill="none" stroke="#2b3033" stroke-miterlimit="10"/><line x1="10" y1="10" x2="12" y2="12" fill="none" stroke="#2b3033" stroke-miterlimit="10"/></svg>