<svg id="Layer_1" data-name="Layer 1" xmlns="http://www.w3.org/2000/svg" xmlns:xlink="http://www.w3.org/1999/xlink" width="300" height="85" viewBox="0 0 300 85"><defs><clipPath id="clip-path"><path d="M-129,83.93a8.62,8.62,0,0,0,4.84-1.76,39.16,39.16,0,0,0,4.84-4.24,40.67,40.67,0,0,1,4.84-4.24,8.67,8.67,0,0,1,4.84-1.76,8.62,8.62,0,0,1,4.84,1.76A39.16,39.16,0,0,1-100,77.93a40.67,40.67,0,0,0,4.84,4.24,8.67,8.67,0,0,0,4.84,1.76,8.65,8.65,0,0,0,4.84-1.76,39.9,39.9,0,0,0,4.84-4.24,39.9,39.9,0,0,1,4.84-4.24,8.65,8.65,0,0,1,4.84-1.76,8.65,8.65,0,0,1,4.84,1.76,39.9,39.9,0,0,1,4.84,4.24,39.9,39.9,0,0,0,4.84,4.24,8.65,8.65,0,0,0,4.84,1.76,8.65,8.65,0,0,0,4.84-1.76,39.9,39.9,0,0,0,4.84-4.24A39.9,39.9,0,0,1-37,73.69a8.65,8.65,0,0,1,4.84-1.76,8.65,8.65,0,0,1,4.84,1.76,39.9,39.9,0,0,1,4.84,4.24,39.9,39.9,0,0,0,4.84,4.24,8.62,8.62,0,0,0,4.84,1.76A8.67,8.67,0,0,0-8,82.17a40.67,40.67,0,0,0,4.84-4.24,39.16,39.16,0,0,1,4.84-4.24,8.62,8.62,0,0,1,4.84-1.76,8.67,8.67,0,0,1,4.84,1.76,40.67,40.67,0,0,1,4.84,4.24A39.16,39.16,0,0,0,21,82.17a8.62,8.62,0,0,0,4.84,1.76,8.67,8.67,0,0,0,4.84-1.76,40.67,40.67,0,0,0,4.84-4.24,39.16,39.16,0,0,1,4.84-4.24,8.62,8.62,0,0,1,4.84-1.76,8.67,8.67,0,0,1,4.84,1.76,40.67,40.67,0,0,1,4.84,4.24,39.84,39.84,0,0,0,4.83,4.24,8.67,8.67,0,0,0,4.84,1.76,8.62,8.62,0,0,0,4.84-1.76,39.16,39.16,0,0,0,4.84-4.24,40.67,40.67,0,0,1,4.84-4.24,7.54,7.54,0,0,1,9.68,0,39.16,39.16,0,0,1,4.84,4.24,40.67,40.67,0,0,0,4.84,4.24,7.53,7.53,0,0,0,9.68,0A39.16,39.16,0,0,0,113,77.93a40.67,40.67,0,0,1,4.84-4.24,7.54,7.54,0,0,1,9.68,0,39.9,39.9,0,0,1,4.84,4.24,39.9,39.9,0,0,0,4.84,4.24,7.53,7.53,0,0,0,9.68,0,39.16,39.16,0,0,0,4.84-4.24,40.67,40.67,0,0,1,4.84-4.24,7.54,7.54,0,0,1,9.68,0,39.16,39.16,0,0,1,4.84,4.24,40.67,40.67,0,0,0,4.84,4.24,7.55,7.55,0,0,0,9.68,0,39.28,39.28,0,0,0,4.84-4.25,40.67,40.67,0,0,1,4.84-4.24,8.66,8.66,0,0,1,4.84-1.75A8.55,8.55,0,0,1,205,73.7a39.16,39.16,0,0,1,4.84,4.24,40.67,40.67,0,0,0,4.84,4.24,7.55,7.55,0,0,0,9.68,0,40.91,40.91,0,0,0,4.84-4.25A40.67,40.67,0,0,1,234,73.7a7.57,7.57,0,0,1,9.68,0A40.13,40.13,0,0,1,248.51,78a39.9,39.9,0,0,0,4.84,4.24,7.53,7.53,0,0,0,9.68,0A39.9,39.9,0,0,0,267.87,78a39.9,39.9,0,0,1,4.84-4.24,7.57,7.57,0,0,1,9.68,0A40.91,40.91,0,0,1,287.23,78a39.16,39.16,0,0,0,4.84,4.24,7.53,7.53,0,0,0,9.68,0A40.67,40.67,0,0,0,306.59,78a39.9,39.9,0,0,1,4.84-4.24,7.57,7.57,0,0,1,9.68,0A41.72,41.72,0,0,1,326,78a39.16,39.16,0,0,0,4.84,4.24,7.54,7.54,0,0,0,9.68,0A40.67,40.67,0,0,0,345.31,78a39.16,39.16,0,0,1,4.84-4.24,7.57,7.57,0,0,1,9.68,0A41.72,41.72,0,0,1,364.67,78a39.84,39.84,0,0,0,4.83,4.24,7.54,7.54,0,0,0,9.68,0A39.16,39.16,0,0,0,384,78a40,40,0,0,1,4.85-4.24,7.55,7.55,0,0,1,9.67,0A39.28,39.28,0,0,1,403.38,78a40.67,40.67,0,0,0,4.84,4.24,7.54,7.54,0,0,0,9.68,0A39.16,39.16,0,0,0,422.74,78a40.67,40.67,0,0,1,4.84-4.24,7.57,7.57,0,0,1,9.68,0A39.28,39.28,0,0,1,442.1,78a39.9,39.9,0,0,0,4.84,4.24A8.65,8.65,0,0,0,451.78,84L452-82.93a8.62,8.62,0,0,0-4.84,1.76,39.16,39.16,0,0,0-4.84,4.24,40.67,40.67,0,0,1-4.84,4.24,8.67,8.67,0,0,1-4.84,1.76,8.62,8.62,0,0,1-4.84-1.76A39.16,39.16,0,0,1,423-76.93a40.67,40.67,0,0,0-4.84-4.24,8.67,8.67,0,0,0-4.84-1.76,8.65,8.65,0,0,0-4.84,1.76,39.9,39.9,0,0,0-4.84,4.24,39.9,39.9,0,0,1-4.84,4.24,8.65,8.65,0,0,1-4.84,1.76,8.65,8.65,0,0,1-4.84-1.76,39.9,39.9,0,0,1-4.84-4.24,39.9,39.9,0,0,0-4.84-4.24,8.65,8.65,0,0,0-4.84-1.76,8.65,8.65,0,0,0-4.84,1.76,39.9,39.9,0,0,0-4.84,4.24A39.9,39.9,0,0,1,360-72.69a8.65,8.65,0,0,1-4.84,1.76,8.65,8.65,0,0,1-4.84-1.76,39.9,39.9,0,0,1-4.84-4.24,39.9,39.9,0,0,0-4.84-4.24,8.62,8.62,0,0,0-4.84-1.76A8.67,8.67,0,0,0,331-81.17a40.67,40.67,0,0,0-4.84,4.24,39.16,39.16,0,0,1-4.84,4.24,8.62,8.62,0,0,1-4.84,1.76,8.67,8.67,0,0,1-4.84-1.76,40.67,40.67,0,0,1-4.84-4.24A39.16,39.16,0,0,0,302-81.17a8.62,8.62,0,0,0-4.84-1.76,8.67,8.67,0,0,0-4.84,1.76,40.67,40.67,0,0,0-4.84,4.24,39.16,39.16,0,0,1-4.84,4.24,8.62,8.62,0,0,1-4.84,1.76,8.67,8.67,0,0,1-4.84-1.76,40.67,40.67,0,0,1-4.84-4.24,39.84,39.84,0,0,0-4.83-4.24,8.67,8.67,0,0,0-4.84-1.76,8.62,8.62,0,0,0-4.84,1.76,39.16,39.16,0,0,0-4.84,4.24,40.67,40.67,0,0,1-4.84,4.24A8.67,8.67,0,0,1,239-70.93a8.62,8.62,0,0,1-4.84-1.76,39.16,39.16,0,0,1-4.84-4.24,40.67,40.67,0,0,0-4.84-4.24,8.67,8.67,0,0,0-4.84-1.76,8.62,8.62,0,0,0-4.84,1.76A39.16,39.16,0,0,0,210-76.93a40.67,40.67,0,0,1-4.84,4.24,8.67,8.67,0,0,1-4.84,1.76,8.62,8.62,0,0,1-4.84-1.76,39.9,39.9,0,0,1-4.84-4.24,39.9,39.9,0,0,0-4.84-4.24A8.65,8.65,0,0,0,181-82.93a8.62,8.62,0,0,0-4.84,1.76,39.16,39.16,0,0,0-4.84,4.24,40.67,40.67,0,0,1-4.84,4.24,8.67,8.67,0,0,1-4.84,1.76,8.62,8.62,0,0,1-4.84-1.76,39.16,39.16,0,0,1-4.84-4.24,40.67,40.67,0,0,0-4.84-4.24,8.65,8.65,0,0,0-4.84-1.76,8.6,8.6,0,0,0-4.84,1.75,39.28,39.28,0,0,0-4.84,4.25,40.67,40.67,0,0,1-4.84,4.24,8.66,8.66,0,0,1-4.84,1.75A8.55,8.55,0,0,1,118-72.7a39.16,39.16,0,0,1-4.84-4.24,40.67,40.67,0,0,0-4.84-4.24,8.65,8.65,0,0,0-4.84-1.76,8.63,8.63,0,0,0-4.84,1.75,40.91,40.91,0,0,0-4.84,4.25A40.67,40.67,0,0,1,89-72.7a8.66,8.66,0,0,1-4.84,1.75,8.6,8.6,0,0,1-4.84-1.75,40.13,40.13,0,0,1-4.84-4.25,39.9,39.9,0,0,0-4.84-4.24,8.65,8.65,0,0,0-4.84-1.76A8.57,8.57,0,0,0,60-81.19a39.9,39.9,0,0,0-4.84,4.24,39.9,39.9,0,0,1-4.84,4.24A8.63,8.63,0,0,1,45.45-71a8.63,8.63,0,0,1-4.84-1.75A40.91,40.91,0,0,1,35.77-77a39.16,39.16,0,0,0-4.84-4.24A8.62,8.62,0,0,0,26.09-83a8.6,8.6,0,0,0-4.84,1.76A40.67,40.67,0,0,0,16.41-77a39.9,39.9,0,0,1-4.84,4.24A8.63,8.63,0,0,1,6.73-71a8.63,8.63,0,0,1-4.84-1.75A41.72,41.72,0,0,1-3-77a39.16,39.16,0,0,0-4.84-4.24A8.62,8.62,0,0,0-12.63-83a8.67,8.67,0,0,0-4.84,1.76A40.67,40.67,0,0,0-22.31-77a39.16,39.16,0,0,1-4.84,4.24A8.6,8.6,0,0,1-32-71a8.66,8.66,0,0,1-4.84-1.75A41.72,41.72,0,0,1-41.67-77a39.84,39.84,0,0,0-4.83-4.24A8.67,8.67,0,0,0-51.34-83a8.62,8.62,0,0,0-4.84,1.76A39.16,39.16,0,0,0-61-77a40,40,0,0,1-4.85,4.24A8.53,8.53,0,0,1-70.71-71a8.6,8.6,0,0,1-4.83-1.75A39.28,39.28,0,0,1-80.38-77a40.67,40.67,0,0,0-4.84-4.24A8.67,8.67,0,0,0-90.06-83a8.65,8.65,0,0,0-4.84,1.76A39.16,39.16,0,0,0-99.74-77a40.67,40.67,0,0,1-4.84,4.24A8.58,8.58,0,0,1-109.42-71a8.6,8.6,0,0,1-4.84-1.75A39.28,39.28,0,0,1-119.1-77a39.9,39.9,0,0,0-4.84-4.24A8.65,8.65,0,0,0-128.78-83Z" fill="none"/></clipPath><linearGradient id="linear-gradient" x1="150" y1="0.5" x2="150" y2="29.5" gradientUnits="userSpaceOnUse"><stop offset="0" stop-color="#e9ebec"/><stop offset="0.35" stop-color="#e2e5e7"/><stop offset="1" stop-color="#d9dee1"/></linearGradient><linearGradient id="linear-gradient-2" x1="150" y1="1.23" x2="150" y2="28.69" gradientUnits="userSpaceOnUse"><stop offset="0" stop-color="#ebe9ec"/><stop offset="0.29" stop-color="#e5e6e9"/><stop offset="1" stop-color="#dadfe2"/></linearGradient><symbol id="cursor" data-name="cursor" viewBox="0 0 12 20.32"><polygon points="12 11.66 12 10.65 10.88 10.65 10.88 9.83 9.89 9.83 9.88 9.82 9.88 8.84 8.9 8.84 8.89 8.83 8.89 7.85 7.91 7.85 7.91 7.84 7.91 6.86 6.93 6.86 6.92 6.86 6.92 5.88 5.94 5.88 5.93 5.87 5.93 4.88 4.95 4.88 4.94 4.88 4.94 3.9 3.96 3.9 3.95 3.89 3.95 2.9 2.97 2.9 2.96 2.9 2.96 1.92 1.98 1.92 1.97 1.91 1.97 0.93 1 0.93 1 0 0 0 0 17.31 1 17.31 1 16.51 1.98 16.51 1.98 15.53 1.98 15.52 2.96 15.52 2.96 14.54 2.97 14.53 3.95 14.53 3.95 13.59 4.93 13.59 4.93 15.5 5.93 15.5 5.93 17.41 6.93 17.41 6.93 17.39 6.93 17.39 6.93 19.32 7.92 19.32 7.92 20.32 9.85 20.32 9.85 19.32 10.85 19.32 10.85 17.39 9.87 17.39 9.87 15.47 8.89 15.47 8.89 13.54 7.94 13.54 7.94 11.66 12 11.66" fill="#fff"/><polygon points="12 10.65 12 11.66 7.94 11.66 7.94 13.54 7.89 13.56 6.94 13.56 6.94 10.65 6.95 10.65 7.94 10.65 9.89 10.65 9.89 9.83 10.88 9.83 10.88 10.65 12 10.65" fill="#221f1f"/><polygon points="10.85 17.39 10.85 19.32 9.85 19.32 9.85 19.32 9.85 17.39 9.87 17.39 10.85 17.39" fill="#221f1f"/><rect x="8.9" y="8.84" width="0.98" height="0.98" fill="#221f1f"/><polygon points="9.87 15.47 9.87 17.39 9.85 17.39 8.87 17.39 8.87 15.47 8.89 15.47 9.87 15.47" fill="#221f1f"/><polygon points="9.85 19.32 9.85 20.32 7.92 20.32 7.92 19.32 7.93 19.32 9.85 19.32 9.85 19.32" fill="#221f1f"/><rect x="7.91" y="7.85" width="0.98" height="0.98" fill="#221f1f"/><polygon points="8.89 13.54 8.89 15.47 8.87 15.47 7.89 15.47 7.89 13.56 7.94 13.54 8.89 13.54" fill="#221f1f"/><polygon points="7.93 17.39 7.93 19.32 7.92 19.32 6.93 19.32 6.93 17.39 7.93 17.39" fill="#221f1f"/><rect x="6.93" y="6.86" width="0.98" height="0.98" fill="#221f1f"/><polygon points="6.93 17.39 6.93 17.41 5.93 17.41 5.93 15.5 5.93 15.48 6.93 15.48 6.93 17.39" fill="#221f1f"/><rect x="5.94" y="5.88" width="0.98" height="0.98" fill="#221f1f"/><polygon points="5.93 13.57 5.93 15.48 5.93 15.5 4.93 15.5 4.93 13.59 4.93 13.57 5.93 13.57" fill="#221f1f"/><rect x="4.95" y="4.88" width="0.98" height="0.98" fill="#221f1f"/><rect x="3.96" y="3.89" width="0.98" height="0.98" fill="#221f1f"/><polygon points="4.93 13.57 4.93 13.59 3.95 13.59 3.94 13.55 3.94 11.66 4.93 11.66 4.93 13.57" fill="#221f1f"/><rect x="2.97" y="2.91" width="0.98" height="0.98" fill="#221f1f"/><polygon points="3.95 13.59 3.95 14.53 2.97 14.53 2.97 13.55 3.94 13.55 3.95 13.59" fill="#221f1f"/><rect x="1.98" y="14.54" width="0.98" height="0.98" fill="#221f1f"/><rect x="1.98" y="1.92" width="0.98" height="0.98" fill="#221f1f"/><polygon points="1.98 15.53 1.98 16.51 1 16.51 1 17.31 0 17.31 0 0 1 0 1 0.93 1.97 0.93 1.97 1.91 1 1.91 1 15.53 1.98 15.53" fill="#221f1f"/></symbol></defs><title>tips-example-tooltip</title><g clip-path="url(#clip-path)"><rect x="0.5" y="0.5" width="299" height="158" fill="#d9dee1"/><path d="M299,1V158H1V1H299m1-1H0V159H300V0Z" fill="#82878c"/><rect x="0.5" y="0.5" width="299" height="29" fill="url(#linear-gradient)"/><path d="M299,1V29H1V1H299m1-1H0V30H300V0Z" fill="#82878c"/><rect x="149.5" y="-119.5" width="1" height="298" transform="translate(179.5 -120.5) rotate(90)" fill="#a9acaf"/><rect x="1" y="1" width="298" height="28" fill="url(#linear-gradient-2)"/><polygon points="11 15.5 14 13 14 14.67 13 15.5 14 16.33 14 18 11 15.5" fill="#696e73"/><polygon points="18 16.33 17 15.5 18 14.67 18 13 15 15.5 18 18 18 16.33" fill="#696e73"/><rect x="30" y="1" width="35" height="29" fill="#4386b9"/></g><path d="M427,74.18c-2,0-2.64,2.25-4.26,3.82a39.16,39.16,0,0,1-4.84,4.24,7.54,7.54,0,0,1-9.68,0A40.67,40.67,0,0,1,403.38,78a39.28,39.28,0,0,0-4.84-4.25,7.55,7.55,0,0,0-9.67,0A40,40,0,0,0,384,78a39.16,39.16,0,0,1-4.84,4.24,7.54,7.54,0,0,1-9.68,0A39.84,39.84,0,0,1,364.67,78a41.72,41.72,0,0,0-4.84-4.25,7.57,7.57,0,0,0-9.68,0A39.16,39.16,0,0,0,345.31,78a40.67,40.67,0,0,1-4.84,4.24,7.54,7.54,0,0,1-9.68,0A39.16,39.16,0,0,1,326,78a41.72,41.72,0,0,0-4.84-4.25,7.57,7.57,0,0,0-9.68,0A39.9,39.9,0,0,0,306.59,78a40.67,40.67,0,0,1-4.84,4.24,7.53,7.53,0,0,1-9.68,0A39.16,39.16,0,0,1,287.23,78a40.91,40.91,0,0,0-4.84-4.25,7.57,7.57,0,0,0-9.68,0A39.9,39.9,0,0,0,267.87,78,39.9,39.9,0,0,1,263,82.2a7.53,7.53,0,0,1-9.68,0A39.9,39.9,0,0,1,248.51,78a40.13,40.13,0,0,0-4.84-4.25,7.57,7.57,0,0,0-9.68,0A40.67,40.67,0,0,0,229.15,78a40.91,40.91,0,0,1-4.84,4.25,7.55,7.55,0,0,1-9.68,0A40.67,40.67,0,0,1,209.79,78,39.16,39.16,0,0,0,205,73.71,8.55,8.55,0,0,0,200.11,72a8.66,8.66,0,0,0-4.84,1.75,40.67,40.67,0,0,0-4.84,4.24,39.28,39.28,0,0,1-4.84,4.25,7.55,7.55,0,0,1-9.68,0,40.67,40.67,0,0,1-4.84-4.24,39.16,39.16,0,0,0-4.84-4.24,7.54,7.54,0,0,0-9.68,0,40.67,40.67,0,0,0-4.84,4.24,39.16,39.16,0,0,1-4.84,4.24,7.53,7.53,0,0,1-9.68,0,39.9,39.9,0,0,1-4.84-4.24,39.9,39.9,0,0,0-4.84-4.24,7.54,7.54,0,0,0-9.68,0A40.67,40.67,0,0,0,113,77.94a39.16,39.16,0,0,1-4.84,4.24,7.53,7.53,0,0,1-9.68,0,40.67,40.67,0,0,1-4.84-4.24,39.16,39.16,0,0,0-4.84-4.24,7.54,7.54,0,0,0-9.68,0,40.67,40.67,0,0,0-4.84,4.24,39.16,39.16,0,0,1-4.84,4.24,8.62,8.62,0,0,1-4.84,1.76,8.67,8.67,0,0,1-4.84-1.76,39.84,39.84,0,0,1-4.83-4.24,40.67,40.67,0,0,0-4.84-4.24,8.67,8.67,0,0,0-4.84-1.76A8.62,8.62,0,0,0,40.4,73.7a39.16,39.16,0,0,0-4.84,4.24,40.67,40.67,0,0,1-4.84,4.24,8.67,8.67,0,0,1-4.84,1.76A8.62,8.62,0,0,1,21,82.18a39.16,39.16,0,0,1-4.84-4.24,40.67,40.67,0,0,0-4.84-4.24,8.67,8.67,0,0,0-4.84-1.76A8.62,8.62,0,0,0,1.68,73.7a39.16,39.16,0,0,0-4.84,4.24A40.67,40.67,0,0,1-8,82.18a8.67,8.67,0,0,1-4.84,1.76,8.62,8.62,0,0,1-4.84-1.76,39.9,39.9,0,0,1-4.84-4.24,39.9,39.9,0,0,0-4.84-4.24,8.65,8.65,0,0,0-4.84-1.76A8.65,8.65,0,0,0-37,73.7a39.9,39.9,0,0,0-4.84,4.24,39.9,39.9,0,0,1-4.84,4.24,8.65,8.65,0,0,1-4.84,1.76,8.65,8.65,0,0,1-4.84-1.76,39.9,39.9,0,0,1-4.84-4.24,39.9,39.9,0,0,0-4.84-4.24,8.65,8.65,0,0,0-4.84-1.76,8.65,8.65,0,0,0-4.84,1.76,39.9,39.9,0,0,0-4.84,4.24,39.9,39.9,0,0,1-4.84,4.24,8.65,8.65,0,0,1-4.84,1.76,8.67,8.67,0,0,1-4.84-1.76A40.67,40.67,0,0,1-100,77.94a39.16,39.16,0,0,0-4.84-4.24,8.62,8.62,0,0,0-4.84-1.76,8.67,8.67,0,0,0-4.84,1.76,40.67,40.67,0,0,0-4.84,4.24c-1.61,1.57-2.88,4.24-4.84,4.24" fill="none" stroke="#adaead" stroke-miterlimit="10"/><rect x="1" y="30" width="298" height="25" fill="#f7f7f7"/><rect x="1" y="55" width="298" height="1" fill="#fff"/><rect x="1.5" y="56.5" width="297" height="1" fill="#d9dee1"/><polygon points="299 56 1 56 1 58 299 58 299 56 299 56" fill="#82878c"/><path d="M252.23,36.37v2a4,4,0,1,1-3.84,4.07h.11l2.63,1.05-3.56-7.12L244,43.5l2.46-.94a5.78,5.78,0,1,0,5.77-6.18Z" fill="#696e77"/><path d="M53,10H50V7Zm0,1V23H41V7h8v4Z" fill="#fdfeff"/><path d="M81,8.92c-4.12,0-7,1.07-7,2,0,.46.67,1,1.81,1.33l.41.13.47.12A18.75,18.75,0,0,0,81,13a18.77,18.77,0,0,0,4.31-.46l.47-.12.41-.13C87.33,11.91,88,11.42,88,11c0-1-2.88-2-7-2m7,10.75-.06,0a3.14,3.14,0,0,1-.42.3l0,0a5,5,0,0,1-.58.28h0l-.13.05-.2.07-.36.13-.13,0-.08,0-.74.18-.17,0-.85.15-.17,0-.83.1-.13,0-.94.07H82l-1,0-1,0h-.21l-.93-.07-.13,0-.82-.1-.17,0-.85-.15-.17,0c-.26-.06-.5-.12-.74-.19l-.07,0-.13,0-.36-.12-.21-.07-.13-.05h0a5,5,0,0,1-.59-.28l0,0a3,3,0,0,1-.42-.3l-.06,0V21c0,.46.66.95,1.81,1.33l.41.13.47.12a20.45,20.45,0,0,0,8.62,0l.47-.12.41-.13C87.33,21.91,88,21.42,88,21Zm0-3.34-.06,0a3.14,3.14,0,0,1-.42.3l0,0a5.19,5.19,0,0,1-.58.28h0l-.13.05-.2.07-.36.13-.13,0-.08,0-.74.18-.17,0-.85.15-.17,0-.83.1H83.1l-.94.07H82l-1,0-1,0h-.21l-.93-.07h-.13l-.82-.1-.17,0-.85-.15-.17,0L76,17.31l-.07,0-.13,0-.36-.12-.21-.07L75.12,17h0a5.16,5.16,0,0,1-.59-.28l0,0a3,3,0,0,1-.42-.3l-.06,0v1.28c0,.46.66.95,1.81,1.33l.41.13.47.12a18.74,18.74,0,0,0,4.31.46,18.77,18.77,0,0,0,4.31-.46l.47-.12.41-.13c1.14-.38,1.81-.87,1.81-1.33ZM88,13l-.06,0a3.14,3.14,0,0,1-.42.3l0,0a5.19,5.19,0,0,1-.58.28h0l-.13.05-.2.07-.36.13-.13,0L86,14l-.74.18-.17,0-.85.15-.17,0-.83.1-.13,0-.94.07H82l-1,0-1,0h-.21l-.93-.07-.13,0-.82-.1-.17,0-.85-.15-.17,0L76,14l-.07,0-.13,0-.36-.12-.21-.07-.13-.05h0a5.16,5.16,0,0,1-.59-.28l0,0a3,3,0,0,1-.42-.3L74,13v1.28c0,.46.66.95,1.81,1.33l.41.13.47.12a18.74,18.74,0,0,0,4.31.46,18.77,18.77,0,0,0,4.31-.46l.47-.12.41-.13c1.14-.38,1.81-.87,1.81-1.33Z" fill="#696e73"/><path d="M119.53,9h-9.07A8.82,8.82,0,0,0,107,16a9.1,9.1,0,0,0,3.77,7h8.77a8.8,8.8,0,0,0,0-14ZM115,20a4,4,0,1,1,4-4A4,4,0,0,1,115,20Zm3-4a3,3,0,1,1-3-3A3,3,0,0,1,118,16Z" fill="#696e73"/><rect x="40" y="37" width="2" height="2" fill="#696e73"/><rect x="40" y="42" width="2" height="2" fill="#696e73"/><rect x="40" y="47" width="2" height="2" fill="#696e73"/><rect x="43" y="37" width="11" height="2" fill="#696e73"/><rect x="43" y="42" width="11" height="2" fill="#696e73"/><rect x="43" y="47" width="11" height="2" fill="#696e73"/><rect x="14" y="35" width="11" height="2" fill="#696e73"/><rect x="11" y="35" width="2" height="2" fill="#696e73"/><rect x="14" y="48" width="11" height="2" fill="#696e73"/><rect x="11" y="48" width="2" height="2" fill="#696e73"/><rect x="15" y="39" width="10" height="1" fill="#696e73"/><rect x="15" y="42" width="10" height="1" fill="#696e73"/><rect x="15" y="45" width="10" height="1" fill="#696e73"/><polygon points="122 47.5 117.5 43 122 38.5 120.5 37 116 41.5 111.5 37 110 38.5 114.5 43 110 47.5 111.5 49 116 44.5 120.5 49 122 47.5" fill="#696e73"/><polygon points="81 41 77 41 77 37 75 37 75 41 71 41 71 43 75 43 75 47 77 47 77 43 81 43 81 41" fill="#696e73"/><polygon points="92.61 50 96 45 89.22 45 92.61 50" fill="#696e73"/><rect x="58.5" y="44.5" width="73" height="20" fill="#fff"/><path d="M131,45V64H59V45h72m1-1H58V65h74V44Z" fill="#4d5359"/><path d="M66.09,55.82V59h-1V50.6h2.31a3,3,0,0,1,2.09.66,2.34,2.34,0,0,1,.74,1.85,2.55,2.55,0,0,1-.82,2,3.15,3.15,0,0,1-2.22.76Zm0-4.34v3.45h1a2.31,2.31,0,0,0,1.56-.47,1.65,1.65,0,0,0,.54-1.32q0-1.66-2-1.66Z" fill="#2b3033"/><path d="M74.82,54a1.18,1.18,0,0,0-.73-.19,1.23,1.23,0,0,0-1,.58,2.68,2.68,0,0,0-.41,1.58V59h-1V53h1v1.24h0a2.1,2.1,0,0,1,.63-1,1.43,1.43,0,0,1,.94-.35,1.57,1.57,0,0,1,.57.08Z" fill="#2b3033"/><path d="M78.21,59.14a2.78,2.78,0,0,1-2.12-.84,3.11,3.11,0,0,1-.79-2.23,3.24,3.24,0,0,1,.83-2.36,3,3,0,0,1,2.23-.85,2.69,2.69,0,0,1,2.09.83A3.28,3.28,0,0,1,81.2,56a3.22,3.22,0,0,1-.81,2.3A2.84,2.84,0,0,1,78.21,59.14Zm.07-5.47a1.83,1.83,0,0,0-1.46.63A2.59,2.59,0,0,0,76.28,56a2.45,2.45,0,0,0,.54,1.68,1.85,1.85,0,0,0,1.46.62,1.76,1.76,0,0,0,1.43-.6,2.62,2.62,0,0,0,.5-1.72,2.66,2.66,0,0,0-.5-1.73A1.75,1.75,0,0,0,78.29,53.67Z" fill="#2b3033"/><path d="M83.7,58.75A3.76,3.76,0,0,1,83.1,61a2,2,0,0,1-1.7.8,1.81,1.81,0,0,1-.8-.19v-.9a1.59,1.59,0,0,0,.82.26q1.31,0,1.31-2.1V53h1Zm-.47-7.27a.61.61,0,0,1-.44-.18.59.59,0,0,1-.18-.45.62.62,0,0,1,.62-.63.62.62,0,0,1,.45.18.63.63,0,0,1,0,.89A.62.62,0,0,1,83.23,51.48Z" fill="#2b3033"/><path d="M90.47,56.24H86.23a2.24,2.24,0,0,0,.54,1.55,1.86,1.86,0,0,0,1.42.54,3,3,0,0,0,1.86-.67v.9a3.48,3.48,0,0,1-2.09.57,2.54,2.54,0,0,1-2-.82,3.35,3.35,0,0,1-.73-2.3A3.28,3.28,0,0,1,86,53.74a2.55,2.55,0,0,1,2-.88,2.26,2.26,0,0,1,1.82.76,3.18,3.18,0,0,1,.64,2.12Zm-1-.81a2,2,0,0,0-.4-1.29,1.37,1.37,0,0,0-1.1-.46,1.55,1.55,0,0,0-1.15.49,2.21,2.21,0,0,0-.59,1.27Z" fill="#2b3033"/><path d="M96,58.72a3.12,3.12,0,0,1-1.64.42,2.72,2.72,0,0,1-2.07-.83,3,3,0,0,1-.79-2.17,3.33,3.33,0,0,1,.85-2.38,3,3,0,0,1,2.27-.9,3.16,3.16,0,0,1,1.39.29v1a2.44,2.44,0,0,0-1.43-.47,1.93,1.93,0,0,0-1.51.66,2.5,2.5,0,0,0-.59,1.73A2.38,2.38,0,0,0,93,57.72a1.91,1.91,0,0,0,1.49.61A2.41,2.41,0,0,0,96,57.81Z" fill="#2b3033"/><path d="M100.25,58.94a1.85,1.85,0,0,1-.9.19q-1.58,0-1.58-1.76V53.82h-1V53h1V51.54l1-.31V53h1.51v.82H98.73V57.2a1.4,1.4,0,0,0,.21.86.82.82,0,0,0,.68.26,1,1,0,0,0,.63-.2Z" fill="#2b3033"/><path d="M109.21,51.49h-3.28v2.91h3v.88h-3V59h-1V50.6h4.27Z" fill="#2b3033"/><path d="M111.17,51.48a.61.61,0,0,1-.44-.18.59.59,0,0,1-.18-.45.62.62,0,0,1,.62-.63.62.62,0,0,1,.45.18.63.63,0,0,1,0,.89A.62.62,0,0,1,111.17,51.48Zm.47,7.52h-1V53h1Z" fill="#2b3033"/><path d="M114.54,59h-1V50.12h1Z" fill="#2b3033"/><path d="M121.31,56.24h-4.24a2.24,2.24,0,0,0,.54,1.55,1.86,1.86,0,0,0,1.42.54,3,3,0,0,0,1.86-.67v.9a3.48,3.48,0,0,1-2.09.57,2.54,2.54,0,0,1-2-.82,3.35,3.35,0,0,1-.73-2.3,3.28,3.28,0,0,1,.79-2.28,2.55,2.55,0,0,1,2-.88,2.26,2.26,0,0,1,1.82.76,3.18,3.18,0,0,1,.64,2.12Zm-1-.81a2,2,0,0,0-.4-1.29,1.37,1.37,0,0,0-1.1-.46,1.55,1.55,0,0,0-1.15.49,2.21,2.21,0,0,0-.59,1.27Z" fill="#2b3033"/><path d="M122.4,58.78v-1a2.84,2.84,0,0,0,1.73.58q1.27,0,1.27-.84a.73.73,0,0,0-.11-.41,1.08,1.08,0,0,0-.29-.3,2.26,2.26,0,0,0-.43-.23l-.54-.21a6.9,6.9,0,0,1-.7-.32,2.12,2.12,0,0,1-.5-.36,1.35,1.35,0,0,1-.3-.46,1.63,1.63,0,0,1-.1-.6,1.43,1.43,0,0,1,.19-.75,1.71,1.71,0,0,1,.52-.54,2.4,2.4,0,0,1,.74-.33,3.26,3.26,0,0,1,.85-.11,3.44,3.44,0,0,1,1.39.27v1a2.72,2.72,0,0,0-1.52-.43,1.78,1.78,0,0,0-.49.06,1.19,1.19,0,0,0-.37.17.8.8,0,0,0-.24.27.7.7,0,0,0-.08.34.82.82,0,0,0,.08.39.86.86,0,0,0,.25.28,1.9,1.9,0,0,0,.4.22l.53.22a7.42,7.42,0,0,1,.71.31,2.45,2.45,0,0,1,.54.36,1.42,1.42,0,0,1,.34.47,1.5,1.5,0,0,1,.12.63,1.48,1.48,0,0,1-.2.77,1.68,1.68,0,0,1-.52.54,2.4,2.4,0,0,1-.76.32,3.73,3.73,0,0,1-.9.11A3.4,3.4,0,0,1,122.4,58.78Z" fill="#2b3033"/><use width="12" height="20.32" transform="translate(58 22)" xlink:href="#cursor"/><path d="M283,35H268v2h.43a2.69,2.69,0,1,0,3.78,3.77L274,43.6v6l3-2.4V43.6L281.2,37H283Zm-12.89,5.6a1.5,1.5,0,1,1,0-3h.09l1.3,2a1.5,1.5,0,0,1-1.39.94" fill="#696e73"/><polygon points="292.5 45 296 40 289 40 292.5 45" fill="#696e73"/></svg>