<svg id="Layer_1" data-name="Layer 1" xmlns="http://www.w3.org/2000/svg" width="293.35" height="106.2" viewBox="0 0 293.35 106.2"><title>tips-visual-spec-infotip-no-footer</title><rect x="38.5" y="28.7" width="249" height="77" fill="#fff"/><path d="M287,29.2v76H39v-76H287m1-1H38v78H288v-78Z" fill="#4d5359"/><path d="M54.46,72.2H50.1V63.8h1v7.51h3.38Z" fill="#2b3033"/><path d="M58.13,72.34A2.78,2.78,0,0,1,56,71.5a3.11,3.11,0,0,1-.79-2.23A3.24,3.24,0,0,1,56,66.91a3,3,0,0,1,2.23-.85,2.69,2.69,0,0,1,2.09.83,3.28,3.28,0,0,1,.75,2.29,3.22,3.22,0,0,1-.81,2.3A2.84,2.84,0,0,1,58.13,72.34Zm.07-5.47a1.83,1.83,0,0,0-1.46.63,2.59,2.59,0,0,0-.54,1.74,2.45,2.45,0,0,0,.54,1.68,1.85,1.85,0,0,0,1.46.62,1.76,1.76,0,0,0,1.43-.6,2.62,2.62,0,0,0,.5-1.72,2.66,2.66,0,0,0-.5-1.73A1.75,1.75,0,0,0,58.2,66.87Z" fill="#2b3033"/><path d="M65.78,67.17a1.18,1.18,0,0,0-.73-.19,1.23,1.23,0,0,0-1,.58,2.68,2.68,0,0,0-.41,1.58V72.2h-1v-6h1v1.24h0a2.1,2.1,0,0,1,.63-1,1.43,1.43,0,0,1,.94-.35,1.57,1.57,0,0,1,.57.08Z" fill="#2b3033"/><path d="M71.49,69.44H67.25A2.24,2.24,0,0,0,67.79,71a1.86,1.86,0,0,0,1.42.54,3,3,0,0,0,1.86-.67v.9a3.48,3.48,0,0,1-2.09.57,2.54,2.54,0,0,1-2-.82,3.35,3.35,0,0,1-.73-2.3A3.28,3.28,0,0,1,67,66.94a2.55,2.55,0,0,1,2-.88,2.26,2.26,0,0,1,1.82.76,3.18,3.18,0,0,1,.64,2.12Zm-1-.81a2,2,0,0,0-.4-1.29,1.37,1.37,0,0,0-1.1-.46,1.55,1.55,0,0,0-1.15.49,2.21,2.21,0,0,0-.59,1.27Z" fill="#2b3033"/><path d="M81.46,72.2h-1V68.76a2.6,2.6,0,0,0-.31-1.44,1.17,1.17,0,0,0-1-.45,1.28,1.28,0,0,0-1,.56,2.15,2.15,0,0,0-.43,1.35V72.2h-1V68.64q0-1.77-1.37-1.77a1.26,1.26,0,0,0-1,.53,2.19,2.19,0,0,0-.41,1.38V72.2h-1v-6h1v.95h0a2,2,0,0,1,1.86-1.09,1.73,1.73,0,0,1,1.7,1.24,2.14,2.14,0,0,1,2-1.24q2,0,2,2.44Z" fill="#2b3033"/><path d="M87.06,64.68a.61.61,0,0,1-.44-.18.59.59,0,0,1-.18-.45.62.62,0,0,1,.62-.63.62.62,0,0,1,.45.18.63.63,0,0,1,0,.89A.62.62,0,0,1,87.06,64.68Zm.47,7.52h-1v-6h1Z" fill="#2b3033"/><path d="M90.46,71.33h0V75h-1V66.2h1v1.05h0a2.27,2.27,0,0,1,2.07-1.2,2.2,2.2,0,0,1,1.81.81A3.34,3.34,0,0,1,95,69a3.72,3.72,0,0,1-.73,2.41,2.44,2.44,0,0,1-2,.91A2,2,0,0,1,90.46,71.33Zm0-2.42v.84A1.78,1.78,0,0,0,90.92,71a1.72,1.72,0,0,0,2.6-.15A3.06,3.06,0,0,0,94,69a2.42,2.42,0,0,0-.46-1.57,1.53,1.53,0,0,0-1.25-.57,1.7,1.7,0,0,0-1.35.58A2.14,2.14,0,0,0,90.43,68.91Z" fill="#2b3033"/><path d="M96.16,72V71a2.84,2.84,0,0,0,1.73.58q1.27,0,1.27-.84a.73.73,0,0,0-.11-.41,1.08,1.08,0,0,0-.29-.3,2.26,2.26,0,0,0-.43-.23l-.54-.21a6.9,6.9,0,0,1-.7-.32,2.12,2.12,0,0,1-.5-.36,1.35,1.35,0,0,1-.3-.46,1.63,1.63,0,0,1-.1-.6,1.43,1.43,0,0,1,.19-.75,1.71,1.71,0,0,1,.52-.54,2.4,2.4,0,0,1,.74-.33,3.26,3.26,0,0,1,.85-.11,3.44,3.44,0,0,1,1.39.27v1a2.72,2.72,0,0,0-1.52-.43,1.78,1.78,0,0,0-.49.06,1.19,1.19,0,0,0-.37.17.8.8,0,0,0-.24.27.7.7,0,0,0-.08.34.82.82,0,0,0,.08.39.86.86,0,0,0,.25.28,1.9,1.9,0,0,0,.4.22l.53.22a7.42,7.42,0,0,1,.71.31,2.45,2.45,0,0,1,.54.36A1.42,1.42,0,0,1,100,70a1.5,1.5,0,0,1,.12.63,1.48,1.48,0,0,1-.2.77,1.68,1.68,0,0,1-.52.54,2.4,2.4,0,0,1-.76.32,3.73,3.73,0,0,1-.9.11A3.4,3.4,0,0,1,96.16,72Z" fill="#2b3033"/><path d="M106.47,72.2h-1v-.95h0a2,2,0,0,1-1.85,1.09q-2.14,0-2.14-2.55V66.2h1v3.43q0,1.9,1.45,1.9a1.47,1.47,0,0,0,1.16-.52,2,2,0,0,0,.45-1.36V66.2h1Z" fill="#2b3033"/><path d="M116.93,72.2h-1V68.76a2.6,2.6,0,0,0-.31-1.44,1.17,1.17,0,0,0-1-.45,1.28,1.28,0,0,0-1,.56,2.15,2.15,0,0,0-.43,1.35V72.2h-1V68.64q0-1.77-1.37-1.77a1.26,1.26,0,0,0-1,.53,2.19,2.19,0,0,0-.41,1.38V72.2h-1v-6h1v.95h0a2,2,0,0,1,1.86-1.09A1.73,1.73,0,0,1,113,67.3a2.14,2.14,0,0,1,2-1.24q2,0,2,2.44Z" fill="#2b3033"/><path d="M127.15,72.2h-1v-1h0a2.22,2.22,0,0,1-2.06,1.16,2.24,2.24,0,0,1-1.81-.81,3.31,3.31,0,0,1-.68-2.19,3.6,3.6,0,0,1,.75-2.38,2.47,2.47,0,0,1,2-.9,1.92,1.92,0,0,1,1.8,1h0V63.32h1Zm-1-2.71V68.6a1.72,1.72,0,0,0-.48-1.23,1.61,1.61,0,0,0-1.22-.5,1.66,1.66,0,0,0-1.38.64,2.82,2.82,0,0,0-.5,1.78,2.54,2.54,0,0,0,.48,1.64,1.58,1.58,0,0,0,1.3.6,1.64,1.64,0,0,0,1.3-.58A2.16,2.16,0,0,0,126.19,69.49Z" fill="#2b3033"/><path d="M131.61,72.34a2.78,2.78,0,0,1-2.12-.84,3.11,3.11,0,0,1-.79-2.23,3.24,3.24,0,0,1,.83-2.36,3,3,0,0,1,2.23-.85,2.69,2.69,0,0,1,2.09.83,3.28,3.28,0,0,1,.75,2.29,3.22,3.22,0,0,1-.81,2.3A2.84,2.84,0,0,1,131.61,72.34Zm.07-5.47a1.83,1.83,0,0,0-1.46.63,2.59,2.59,0,0,0-.54,1.74,2.45,2.45,0,0,0,.54,1.68,1.85,1.85,0,0,0,1.46.62,1.76,1.76,0,0,0,1.43-.6,2.62,2.62,0,0,0,.5-1.72,2.66,2.66,0,0,0-.5-1.73A1.75,1.75,0,0,0,131.68,66.87Z" fill="#2b3033"/><path d="M137.09,72.2h-1V63.32h1Z" fill="#2b3033"/><path d="M141.54,72.34a2.78,2.78,0,0,1-2.12-.84,3.11,3.11,0,0,1-.79-2.23,3.24,3.24,0,0,1,.83-2.36,3,3,0,0,1,2.23-.85,2.69,2.69,0,0,1,2.09.83,3.28,3.28,0,0,1,.75,2.29,3.22,3.22,0,0,1-.81,2.3A2.84,2.84,0,0,1,141.54,72.34Zm.07-5.47a1.83,1.83,0,0,0-1.46.63,2.59,2.59,0,0,0-.54,1.74,2.45,2.45,0,0,0,.54,1.68,1.85,1.85,0,0,0,1.46.62,1.76,1.76,0,0,0,1.43-.6,2.62,2.62,0,0,0,.5-1.72,2.66,2.66,0,0,0-.5-1.73A1.75,1.75,0,0,0,141.61,66.87Z" fill="#2b3033"/><path d="M149.2,67.17a1.18,1.18,0,0,0-.73-.19,1.23,1.23,0,0,0-1,.58,2.68,2.68,0,0,0-.41,1.58V72.2h-1v-6h1v1.24h0a2.1,2.1,0,0,1,.63-1,1.43,1.43,0,0,1,.94-.35,1.57,1.57,0,0,1,.57.08Z" fill="#2b3033"/><path d="M153.16,72V71a2.84,2.84,0,0,0,1.73.58q1.27,0,1.27-.84a.73.73,0,0,0-.11-.41,1.08,1.08,0,0,0-.29-.3,2.26,2.26,0,0,0-.43-.23l-.54-.21a6.9,6.9,0,0,1-.7-.32,2.12,2.12,0,0,1-.5-.36,1.35,1.35,0,0,1-.3-.46,1.63,1.63,0,0,1-.1-.6,1.43,1.43,0,0,1,.19-.75,1.71,1.71,0,0,1,.52-.54,2.4,2.4,0,0,1,.74-.33,3.26,3.26,0,0,1,.85-.11,3.44,3.44,0,0,1,1.39.27v1a2.72,2.72,0,0,0-1.52-.43,1.78,1.78,0,0,0-.49.06,1.19,1.19,0,0,0-.37.17.8.8,0,0,0-.24.27.7.7,0,0,0-.08.34.82.82,0,0,0,.08.39.86.86,0,0,0,.25.28,1.9,1.9,0,0,0,.4.22l.53.22a7.42,7.42,0,0,1,.71.31,2.45,2.45,0,0,1,.54.36A1.42,1.42,0,0,1,157,70a1.5,1.5,0,0,1,.12.63,1.48,1.48,0,0,1-.2.77,1.68,1.68,0,0,1-.52.54,2.4,2.4,0,0,1-.76.32,3.73,3.73,0,0,1-.9.11A3.4,3.4,0,0,1,153.16,72Z" fill="#2b3033"/><path d="M159.11,64.68a.61.61,0,0,1-.44-.18.59.59,0,0,1-.18-.45.62.62,0,0,1,.62-.63.62.62,0,0,1,.45.18.63.63,0,0,1,0,.89A.62.62,0,0,1,159.11,64.68Zm.47,7.52h-1v-6h1Z" fill="#2b3033"/><path d="M164.31,72.14a1.85,1.85,0,0,1-.9.19q-1.58,0-1.58-1.76V67h-1V66.2h1V64.74l1-.31V66.2h1.51V67h-1.51V70.4a1.4,1.4,0,0,0,.21.86.82.82,0,0,0,.68.26,1,1,0,0,0,.63-.2Z" fill="#2b3033"/><path d="M173.17,72.2h-1v-.94h0a2,2,0,0,1-1.85,1.08,2,2,0,0,1-1.4-.47,1.64,1.64,0,0,1-.51-1.26q0-1.68,2-2l1.8-.25q0-1.53-1.24-1.53a3,3,0,0,0-2,.74v-1a3.72,3.72,0,0,1,2-.56q2.12,0,2.12,2.24Zm-1-3-1.45.2a2.35,2.35,0,0,0-1,.33,1,1,0,0,0-.34.84.92.92,0,0,0,.31.72,1.21,1.21,0,0,0,.83.28,1.54,1.54,0,0,0,1.18-.5,1.79,1.79,0,0,0,.47-1.27Z" fill="#2b3033"/><path d="M183.5,72.2h-1V68.76a2.6,2.6,0,0,0-.31-1.44,1.17,1.17,0,0,0-1-.45,1.28,1.28,0,0,0-1,.56,2.15,2.15,0,0,0-.43,1.35V72.2h-1V68.64q0-1.77-1.37-1.77a1.26,1.26,0,0,0-1,.53,2.19,2.19,0,0,0-.41,1.38V72.2h-1v-6h1v.95h0a2,2,0,0,1,1.86-1.09,1.73,1.73,0,0,1,1.7,1.24,2.14,2.14,0,0,1,2-1.24q2,0,2,2.44Z" fill="#2b3033"/><path d="M190.14,69.44H185.9a2.24,2.24,0,0,0,.54,1.55,1.86,1.86,0,0,0,1.42.54,3,3,0,0,0,1.86-.67v.9a3.48,3.48,0,0,1-2.09.57,2.54,2.54,0,0,1-2-.82,3.35,3.35,0,0,1-.73-2.3,3.28,3.28,0,0,1,.79-2.28,2.55,2.55,0,0,1,2-.88,2.26,2.26,0,0,1,1.82.76,3.18,3.18,0,0,1,.64,2.12Zm-1-.81a2,2,0,0,0-.4-1.29,1.37,1.37,0,0,0-1.1-.46,1.55,1.55,0,0,0-1.15.49,2.21,2.21,0,0,0-.59,1.27Z" fill="#2b3033"/><path d="M194.38,72.14a1.85,1.85,0,0,1-.9.19q-1.58,0-1.58-1.76V67h-1V66.2h1V64.74l1-.31V66.2h1.51V67h-1.51V70.4a1.4,1.4,0,0,0,.21.86.82.82,0,0,0,.68.26,1,1,0,0,0,.63-.2Z" fill="#2b3033"/><path d="M196.54,70.87l-.94,2.88h-.69l.69-2.88Z" fill="#2b3033"/><path d="M205.64,71.93a3.12,3.12,0,0,1-1.64.42,2.72,2.72,0,0,1-2.07-.83,3,3,0,0,1-.79-2.17A3.33,3.33,0,0,1,202,67a3,3,0,0,1,2.27-.9,3.16,3.16,0,0,1,1.39.29v1a2.44,2.44,0,0,0-1.43-.47,1.93,1.93,0,0,0-1.51.66,2.5,2.5,0,0,0-.59,1.73,2.38,2.38,0,0,0,.55,1.66,1.91,1.91,0,0,0,1.49.61,2.41,2.41,0,0,0,1.48-.52Z" fill="#2b3033"/><path d="M209.6,72.34a2.78,2.78,0,0,1-2.12-.84,3.11,3.11,0,0,1-.79-2.23,3.24,3.24,0,0,1,.83-2.36,3,3,0,0,1,2.23-.85,2.69,2.69,0,0,1,2.09.83,3.28,3.28,0,0,1,.75,2.29,3.22,3.22,0,0,1-.81,2.3A2.84,2.84,0,0,1,209.6,72.34Zm.07-5.47a1.83,1.83,0,0,0-1.46.63,2.59,2.59,0,0,0-.54,1.74,2.45,2.45,0,0,0,.54,1.68,1.85,1.85,0,0,0,1.46.62,1.76,1.76,0,0,0,1.43-.6,2.62,2.62,0,0,0,.5-1.72,2.66,2.66,0,0,0-.5-1.73A1.75,1.75,0,0,0,209.67,66.87Z" fill="#2b3033"/><path d="M219.1,72.2h-1V68.78q0-1.91-1.39-1.91a1.51,1.51,0,0,0-1.19.54,2,2,0,0,0-.47,1.37V72.2h-1v-6h1v1h0a2.17,2.17,0,0,1,2-1.14,1.84,1.84,0,0,1,1.51.64,2.83,2.83,0,0,1,.52,1.84Z" fill="#2b3033"/><path d="M220.55,72V71a2.84,2.84,0,0,0,1.73.58q1.27,0,1.27-.84a.73.73,0,0,0-.11-.41,1.08,1.08,0,0,0-.29-.3,2.26,2.26,0,0,0-.43-.23l-.54-.21a6.9,6.9,0,0,1-.7-.32,2.12,2.12,0,0,1-.5-.36,1.35,1.35,0,0,1-.3-.46,1.63,1.63,0,0,1-.1-.6,1.43,1.43,0,0,1,.19-.75,1.71,1.71,0,0,1,.52-.54,2.4,2.4,0,0,1,.74-.33,3.26,3.26,0,0,1,.85-.11,3.44,3.44,0,0,1,1.39.27v1a2.72,2.72,0,0,0-1.52-.43,1.78,1.78,0,0,0-.49.06,1.19,1.19,0,0,0-.37.17.8.8,0,0,0-.24.27.7.7,0,0,0-.08.34.82.82,0,0,0,.08.39.86.86,0,0,0,.25.28,1.9,1.9,0,0,0,.4.22l.53.22a7.42,7.42,0,0,1,.71.31,2.45,2.45,0,0,1,.54.36,1.42,1.42,0,0,1,.34.47,1.5,1.5,0,0,1,.12.63,1.48,1.48,0,0,1-.2.77,1.68,1.68,0,0,1-.52.54,2.4,2.4,0,0,1-.76.32,3.73,3.73,0,0,1-.9.11A3.4,3.4,0,0,1,220.55,72Z" fill="#2b3033"/><path d="M230.83,69.44h-4.24a2.24,2.24,0,0,0,.54,1.55,1.86,1.86,0,0,0,1.42.54,3,3,0,0,0,1.86-.67v.9a3.48,3.48,0,0,1-2.09.57,2.54,2.54,0,0,1-2-.82,3.35,3.35,0,0,1-.73-2.3,3.28,3.28,0,0,1,.79-2.28,2.55,2.55,0,0,1,2-.88,2.26,2.26,0,0,1,1.82.76,3.18,3.18,0,0,1,.64,2.12Zm-1-.81a2,2,0,0,0-.4-1.29,1.37,1.37,0,0,0-1.1-.46,1.55,1.55,0,0,0-1.15.49,2.21,2.21,0,0,0-.59,1.27Z" fill="#2b3033"/><path d="M236.37,71.93a3.12,3.12,0,0,1-1.64.42,2.72,2.72,0,0,1-2.07-.83,3,3,0,0,1-.79-2.17,3.33,3.33,0,0,1,.85-2.38,3,3,0,0,1,2.27-.9,3.16,3.16,0,0,1,1.39.29v1a2.44,2.44,0,0,0-1.43-.47,1.93,1.93,0,0,0-1.51.66,2.5,2.5,0,0,0-.59,1.73,2.38,2.38,0,0,0,.55,1.66,1.91,1.91,0,0,0,1.49.61,2.41,2.41,0,0,0,1.48-.52Z" fill="#2b3033"/><path d="M240.61,72.14a1.85,1.85,0,0,1-.9.19q-1.58,0-1.58-1.76V67h-1V66.2h1V64.74l1-.31V66.2h1.51V67H239.1V70.4a1.4,1.4,0,0,0,.21.86.82.82,0,0,0,.68.26,1,1,0,0,0,.63-.2Z" fill="#2b3033"/><path d="M246.62,69.44h-4.24a2.24,2.24,0,0,0,.54,1.55,1.86,1.86,0,0,0,1.42.54,3,3,0,0,0,1.86-.67v.9a3.48,3.48,0,0,1-2.09.57,2.54,2.54,0,0,1-2-.82,3.35,3.35,0,0,1-.73-2.3,3.28,3.28,0,0,1,.79-2.28,2.55,2.55,0,0,1,2-.88,2.26,2.26,0,0,1,1.82.76,3.18,3.18,0,0,1,.64,2.12Zm-1-.81a2,2,0,0,0-.4-1.29,1.37,1.37,0,0,0-1.1-.46,1.55,1.55,0,0,0-1.15.49,2.21,2.21,0,0,0-.59,1.27Z" fill="#2b3033"/><path d="M250.86,72.14a1.85,1.85,0,0,1-.9.19q-1.58,0-1.58-1.76V67h-1V66.2h1V64.74l1-.31V66.2h1.51V67h-1.51V70.4a1.4,1.4,0,0,0,.21.86.82.82,0,0,0,.68.26,1,1,0,0,0,.63-.2Z" fill="#2b3033"/><path d="M257,72.2h-1v-.95h0a2,2,0,0,1-1.85,1.09q-2.14,0-2.14-2.55V66.2h1v3.43q0,1.9,1.45,1.9a1.47,1.47,0,0,0,1.16-.52,2,2,0,0,0,.45-1.36V66.2h1Z" fill="#2b3033"/><path d="M262.06,67.17a1.18,1.18,0,0,0-.73-.19,1.23,1.23,0,0,0-1,.58,2.68,2.68,0,0,0-.41,1.58V72.2h-1v-6h1v1.24h0a2.1,2.1,0,0,1,.63-1,1.43,1.43,0,0,1,.94-.35,1.57,1.57,0,0,1,.57.08Z" fill="#2b3033"/><path d="M54.27,90.2h-1v-.94h0a2,2,0,0,1-1.85,1.08,2,2,0,0,1-1.4-.47,1.64,1.64,0,0,1-.51-1.26q0-1.68,2-2l1.8-.25q0-1.53-1.24-1.53a3,3,0,0,0-2,.74v-1a3.72,3.72,0,0,1,2-.56q2.12,0,2.12,2.24Zm-1-3-1.45.2a2.35,2.35,0,0,0-1,.33,1,1,0,0,0-.34.84.92.92,0,0,0,.31.72,1.21,1.21,0,0,0,.83.28,1.54,1.54,0,0,0,1.18-.5,1.79,1.79,0,0,0,.47-1.27Z" fill="#2b3033"/><path d="M61.2,90.2h-1v-1h0a2.22,2.22,0,0,1-2.06,1.16,2.24,2.24,0,0,1-1.81-.81,3.31,3.31,0,0,1-.68-2.19A3.6,3.6,0,0,1,56.42,85a2.47,2.47,0,0,1,2-.9,1.92,1.92,0,0,1,1.8,1h0V81.32h1Zm-1-2.71V86.6a1.72,1.72,0,0,0-.48-1.23,1.61,1.61,0,0,0-1.22-.5,1.66,1.66,0,0,0-1.38.64,2.82,2.82,0,0,0-.5,1.78,2.54,2.54,0,0,0,.48,1.64,1.58,1.58,0,0,0,1.3.6,1.64,1.64,0,0,0,1.3-.58A2.16,2.16,0,0,0,60.24,87.49Z" fill="#2b3033"/><path d="M63.64,82.68a.61.61,0,0,1-.44-.18.59.59,0,0,1-.18-.45.62.62,0,0,1,.62-.63.62.62,0,0,1,.45.18.63.63,0,0,1,0,.89A.62.62,0,0,1,63.64,82.68Zm.47,7.52h-1v-6h1Z" fill="#2b3033"/><path d="M67,89.33h0V93h-1V84.2h1v1.05h0a2.27,2.27,0,0,1,2.07-1.2,2.2,2.2,0,0,1,1.81.81A3.34,3.34,0,0,1,71.57,87a3.72,3.72,0,0,1-.73,2.41,2.44,2.44,0,0,1-2,.91A2,2,0,0,1,67,89.33Zm0-2.42v.84A1.78,1.78,0,0,0,67.5,89a1.72,1.72,0,0,0,2.6-.15,3.06,3.06,0,0,0,.5-1.86,2.42,2.42,0,0,0-.46-1.57,1.53,1.53,0,0,0-1.25-.57,1.7,1.7,0,0,0-1.35.58A2.14,2.14,0,0,0,67,86.91Z" fill="#2b3033"/><path d="M73.6,82.68a.61.61,0,0,1-.44-.18.59.59,0,0,1-.18-.45.62.62,0,0,1,.62-.63.62.62,0,0,1,.45.18.63.63,0,0,1,0,.89A.62.62,0,0,1,73.6,82.68Zm.47,7.52h-1v-6h1Z" fill="#2b3033"/><path d="M75.65,90V89a2.84,2.84,0,0,0,1.73.58q1.27,0,1.27-.84a.73.73,0,0,0-.11-.41,1.08,1.08,0,0,0-.29-.3,2.26,2.26,0,0,0-.43-.23l-.54-.21a6.9,6.9,0,0,1-.7-.32,2.12,2.12,0,0,1-.5-.36,1.35,1.35,0,0,1-.3-.46,1.63,1.63,0,0,1-.1-.6,1.43,1.43,0,0,1,.19-.75,1.71,1.71,0,0,1,.52-.54,2.4,2.4,0,0,1,.74-.33,3.26,3.26,0,0,1,.85-.11,3.44,3.44,0,0,1,1.39.27v1a2.72,2.72,0,0,0-1.52-.43,1.78,1.78,0,0,0-.49.06,1.19,1.19,0,0,0-.37.17.8.8,0,0,0-.24.27.7.7,0,0,0-.08.34.82.82,0,0,0,.08.39.86.86,0,0,0,.25.28,1.9,1.9,0,0,0,.4.22l.53.22a7.42,7.42,0,0,1,.71.31,2.45,2.45,0,0,1,.54.36,1.42,1.42,0,0,1,.34.47,1.5,1.5,0,0,1,.12.63,1.48,1.48,0,0,1-.2.77,1.68,1.68,0,0,1-.52.54,2.4,2.4,0,0,1-.76.32,3.73,3.73,0,0,1-.9.11A3.4,3.4,0,0,1,75.65,90Z" fill="#2b3033"/><path d="M85.19,89.93a3.12,3.12,0,0,1-1.64.42,2.72,2.72,0,0,1-2.07-.83,3,3,0,0,1-.79-2.17A3.33,3.33,0,0,1,81.54,85a3,3,0,0,1,2.27-.9,3.16,3.16,0,0,1,1.39.29v1a2.44,2.44,0,0,0-1.43-.47,1.93,1.93,0,0,0-1.51.66,2.5,2.5,0,0,0-.59,1.73,2.38,2.38,0,0,0,.55,1.66,1.91,1.91,0,0,0,1.49.61A2.41,2.41,0,0,0,85.19,89Z" fill="#2b3033"/><path d="M87.14,82.68a.61.61,0,0,1-.44-.18.59.59,0,0,1-.18-.45.62.62,0,0,1,.62-.63.62.62,0,0,1,.45.18.63.63,0,0,1,0,.89A.62.62,0,0,1,87.14,82.68Zm.47,7.52h-1v-6h1Z" fill="#2b3033"/><path d="M94.53,90.2h-1V86.78q0-1.91-1.39-1.91a1.51,1.51,0,0,0-1.19.54,2,2,0,0,0-.47,1.37V90.2h-1v-6h1v1h0a2.17,2.17,0,0,1,2-1.14A1.84,1.84,0,0,1,94,84.7a2.83,2.83,0,0,1,.52,1.84Z" fill="#2b3033"/><path d="M101.46,89.72q0,3.3-3.16,3.3a4.25,4.25,0,0,1-1.95-.42v-1a4,4,0,0,0,1.93.56q2.21,0,2.21-2.36v-.66h0a2.43,2.43,0,0,1-3.86.35,3.2,3.2,0,0,1-.68-2.15A3.74,3.74,0,0,1,96.67,85a2.46,2.46,0,0,1,2-.9,2,2,0,0,1,1.8,1h0V84.2h1Zm-1-2.23V86.6a1.72,1.72,0,0,0-.48-1.22,1.59,1.59,0,0,0-1.2-.51,1.67,1.67,0,0,0-1.39.65,2.89,2.89,0,0,0-.5,1.81,2.48,2.48,0,0,0,.48,1.6,1.56,1.56,0,0,0,1.28.6A1.67,1.67,0,0,0,100,89,2.14,2.14,0,0,0,100.5,87.49Z" fill="#2b3033"/><path d="M111.52,87.44h-4.24a2.24,2.24,0,0,0,.54,1.55,1.86,1.86,0,0,0,1.42.54,3,3,0,0,0,1.86-.67v.9a3.48,3.48,0,0,1-2.09.57,2.54,2.54,0,0,1-2-.82,3.35,3.35,0,0,1-.73-2.3,3.28,3.28,0,0,1,.79-2.28,2.55,2.55,0,0,1,2-.88,2.26,2.26,0,0,1,1.82.76,3.18,3.18,0,0,1,.64,2.12Zm-1-.81a2,2,0,0,0-.4-1.29,1.37,1.37,0,0,0-1.1-.46,1.55,1.55,0,0,0-1.15.49,2.21,2.21,0,0,0-.59,1.27Z" fill="#2b3033"/><path d="M113.93,90.2h-1V81.32h1Z" fill="#2b3033"/><path d="M116.37,82.68a.61.61,0,0,1-.44-.18.59.59,0,0,1-.18-.45.62.62,0,0,1,.62-.63.62.62,0,0,1,.45.18.63.63,0,0,1,0,.89A.62.62,0,0,1,116.37,82.68Zm.47,7.52h-1v-6h1Z" fill="#2b3033"/><path d="M121.57,90.14a1.85,1.85,0,0,1-.9.19q-1.58,0-1.58-1.76V85h-1V84.2h1V82.74l1-.31V84.2h1.51V85h-1.51V88.4a1.4,1.4,0,0,0,.21.86.82.82,0,0,0,.68.26,1,1,0,0,0,.63-.2Z" fill="#2b3033"/><path d="M123.73,88.87l-.94,2.88h-.69l.69-2.88Z" fill="#2b3033"/><path d="M128.38,90V89a2.84,2.84,0,0,0,1.73.58q1.27,0,1.27-.84a.73.73,0,0,0-.11-.41A1.08,1.08,0,0,0,131,88a2.26,2.26,0,0,0-.43-.23l-.54-.21a6.9,6.9,0,0,1-.7-.32,2.12,2.12,0,0,1-.5-.36,1.35,1.35,0,0,1-.3-.46,1.63,1.63,0,0,1-.1-.6,1.43,1.43,0,0,1,.19-.75,1.71,1.71,0,0,1,.52-.54,2.4,2.4,0,0,1,.74-.33,3.26,3.26,0,0,1,.85-.11,3.44,3.44,0,0,1,1.39.27v1a2.72,2.72,0,0,0-1.52-.43,1.78,1.78,0,0,0-.49.06,1.19,1.19,0,0,0-.37.17.8.8,0,0,0-.24.27.7.7,0,0,0-.08.34.82.82,0,0,0,.08.39.86.86,0,0,0,.25.28,1.9,1.9,0,0,0,.4.22l.53.22a7.42,7.42,0,0,1,.71.31,2.45,2.45,0,0,1,.54.36,1.42,1.42,0,0,1,.34.47,1.5,1.5,0,0,1,.12.63,1.48,1.48,0,0,1-.2.77,1.68,1.68,0,0,1-.52.54,2.4,2.4,0,0,1-.76.32,3.73,3.73,0,0,1-.9.11A3.4,3.4,0,0,1,128.38,90Z" fill="#2b3033"/><path d="M138.65,87.44h-4.24A2.24,2.24,0,0,0,135,89a1.86,1.86,0,0,0,1.42.54,3,3,0,0,0,1.86-.67v.9a3.48,3.48,0,0,1-2.09.57,2.54,2.54,0,0,1-2-.82,3.35,3.35,0,0,1-.73-2.3,3.28,3.28,0,0,1,.79-2.28,2.55,2.55,0,0,1,2-.88,2.26,2.26,0,0,1,1.82.76,3.18,3.18,0,0,1,.64,2.12Zm-1-.81a2,2,0,0,0-.4-1.29,1.37,1.37,0,0,0-1.1-.46,1.55,1.55,0,0,0-1.15.49,2.21,2.21,0,0,0-.59,1.27Z" fill="#2b3033"/><path d="M145.23,90.2h-1v-1h0a2.22,2.22,0,0,1-2.06,1.16,2.24,2.24,0,0,1-1.81-.81,3.31,3.31,0,0,1-.68-2.19,3.6,3.6,0,0,1,.75-2.38,2.47,2.47,0,0,1,2-.9,1.92,1.92,0,0,1,1.8,1h0V81.32h1Zm-1-2.71V86.6a1.72,1.72,0,0,0-.48-1.23,1.61,1.61,0,0,0-1.22-.5,1.66,1.66,0,0,0-1.38.64,2.82,2.82,0,0,0-.5,1.78,2.54,2.54,0,0,0,.48,1.64,1.58,1.58,0,0,0,1.3.6,1.64,1.64,0,0,0,1.3-.58A2.16,2.16,0,0,0,144.27,87.49Z" fill="#2b3033"/><path d="M155.58,90.2h-1v-1h0a2.22,2.22,0,0,1-2.06,1.16,2.24,2.24,0,0,1-1.81-.81,3.31,3.31,0,0,1-.68-2.19A3.6,3.6,0,0,1,150.8,85a2.47,2.47,0,0,1,2-.9,1.92,1.92,0,0,1,1.8,1h0V81.32h1Zm-1-2.71V86.6a1.72,1.72,0,0,0-.48-1.23,1.61,1.61,0,0,0-1.22-.5,1.66,1.66,0,0,0-1.38.64,2.82,2.82,0,0,0-.5,1.78,2.54,2.54,0,0,0,.48,1.64,1.58,1.58,0,0,0,1.3.6,1.64,1.64,0,0,0,1.3-.58A2.16,2.16,0,0,0,154.62,87.49Z" fill="#2b3033"/><path d="M160,90.34a2.78,2.78,0,0,1-2.12-.84,3.11,3.11,0,0,1-.79-2.23,3.24,3.24,0,0,1,.83-2.36,3,3,0,0,1,2.23-.85,2.69,2.69,0,0,1,2.09.83,3.28,3.28,0,0,1,.75,2.29,3.22,3.22,0,0,1-.81,2.3A2.84,2.84,0,0,1,160,90.34Zm.07-5.47a1.83,1.83,0,0,0-1.46.63,2.59,2.59,0,0,0-.54,1.74,2.45,2.45,0,0,0,.54,1.68,1.85,1.85,0,0,0,1.46.62,1.76,1.76,0,0,0,1.43-.6,2.62,2.62,0,0,0,.5-1.72,2.66,2.66,0,0,0-.5-1.73A1.75,1.75,0,0,0,160.11,84.87Z" fill="#2b3033"/><path d="M172.67,87.44h-4.24A2.24,2.24,0,0,0,169,89a1.86,1.86,0,0,0,1.42.54,3,3,0,0,0,1.86-.67v.9a3.48,3.48,0,0,1-2.09.57,2.54,2.54,0,0,1-2-.82,3.35,3.35,0,0,1-.73-2.3,3.28,3.28,0,0,1,.79-2.28,2.55,2.55,0,0,1,2-.88,2.26,2.26,0,0,1,1.82.76,3.18,3.18,0,0,1,.64,2.12Zm-1-.81a2,2,0,0,0-.4-1.29,1.37,1.37,0,0,0-1.1-.46,1.55,1.55,0,0,0-1.15.49,2.21,2.21,0,0,0-.59,1.27Z" fill="#2b3033"/><path d="M174.61,82.68a.61.61,0,0,1-.44-.18.59.59,0,0,1-.18-.45.62.62,0,0,1,.62-.63.62.62,0,0,1,.45.18.63.63,0,0,1,0,.89A.62.62,0,0,1,174.61,82.68Zm.47,7.52h-1v-6h1Z" fill="#2b3033"/><path d="M181.88,90.2h-1v-.95h0A2,2,0,0,1,179,90.34q-2.14,0-2.14-2.55V84.2h1v3.43q0,1.9,1.45,1.9a1.47,1.47,0,0,0,1.16-.52,2,2,0,0,0,.45-1.36V84.2h1Z" fill="#2b3033"/><path d="M183.46,90V89a2.84,2.84,0,0,0,1.73.58q1.27,0,1.27-.84a.73.73,0,0,0-.11-.41A1.08,1.08,0,0,0,186,88a2.26,2.26,0,0,0-.43-.23l-.54-.21a6.9,6.9,0,0,1-.7-.32,2.12,2.12,0,0,1-.5-.36,1.35,1.35,0,0,1-.3-.46,1.63,1.63,0,0,1-.1-.6,1.43,1.43,0,0,1,.19-.75,1.71,1.71,0,0,1,.52-.54,2.4,2.4,0,0,1,.74-.33,3.26,3.26,0,0,1,.85-.11,3.44,3.44,0,0,1,1.39.27v1a2.72,2.72,0,0,0-1.52-.43,1.78,1.78,0,0,0-.49.06,1.19,1.19,0,0,0-.37.17.8.8,0,0,0-.24.27.7.7,0,0,0-.08.34.82.82,0,0,0,.08.39.86.86,0,0,0,.25.28,1.9,1.9,0,0,0,.4.22l.53.22a7.42,7.42,0,0,1,.71.31,2.45,2.45,0,0,1,.54.36,1.42,1.42,0,0,1,.34.47,1.5,1.5,0,0,1,.12.63,1.48,1.48,0,0,1-.2.77,1.68,1.68,0,0,1-.52.54,2.4,2.4,0,0,1-.76.32,3.73,3.73,0,0,1-.9.11A3.4,3.4,0,0,1,183.46,90Z" fill="#2b3033"/><path d="M197.43,90.2h-1V86.76a2.6,2.6,0,0,0-.31-1.44,1.17,1.17,0,0,0-1-.45,1.28,1.28,0,0,0-1,.56,2.15,2.15,0,0,0-.43,1.35V90.2h-1V86.64q0-1.77-1.37-1.77a1.26,1.26,0,0,0-1,.53,2.19,2.19,0,0,0-.41,1.38V90.2h-1v-6h1v.95h0a2,2,0,0,1,1.86-1.09,1.73,1.73,0,0,1,1.7,1.24,2.14,2.14,0,0,1,2-1.24q2,0,2,2.44Z" fill="#2b3033"/><path d="M201.75,90.34a2.78,2.78,0,0,1-2.12-.84,3.11,3.11,0,0,1-.79-2.23,3.24,3.24,0,0,1,.83-2.36,3,3,0,0,1,2.23-.85,2.69,2.69,0,0,1,2.09.83,3.28,3.28,0,0,1,.75,2.29,3.22,3.22,0,0,1-.81,2.3A2.84,2.84,0,0,1,201.75,90.34Zm.07-5.47a1.83,1.83,0,0,0-1.46.63,2.59,2.59,0,0,0-.54,1.74,2.45,2.45,0,0,0,.54,1.68,1.85,1.85,0,0,0,1.46.62,1.76,1.76,0,0,0,1.43-.6,2.62,2.62,0,0,0,.5-1.72,2.66,2.66,0,0,0-.5-1.73A1.75,1.75,0,0,0,201.82,84.87Z" fill="#2b3033"/><path d="M211.4,90.2h-1v-1h0a2.22,2.22,0,0,1-2.06,1.16,2.24,2.24,0,0,1-1.81-.81,3.31,3.31,0,0,1-.68-2.19,3.6,3.6,0,0,1,.75-2.38,2.47,2.47,0,0,1,2-.9,1.92,1.92,0,0,1,1.8,1h0V81.32h1Zm-1-2.71V86.6a1.72,1.72,0,0,0-.48-1.23,1.61,1.61,0,0,0-1.22-.5,1.66,1.66,0,0,0-1.38.64,2.82,2.82,0,0,0-.5,1.78,2.54,2.54,0,0,0,.48,1.64,1.58,1.58,0,0,0,1.3.6,1.64,1.64,0,0,0,1.3-.58A2.16,2.16,0,0,0,210.44,87.49Z" fill="#2b3033"/><path d="M219.41,90.14a1.85,1.85,0,0,1-.9.19q-1.58,0-1.58-1.76V85h-1V84.2h1V82.74l1-.31V84.2h1.51V85H217.9V88.4a1.4,1.4,0,0,0,.21.86.82.82,0,0,0,.68.26,1,1,0,0,0,.63-.2Z" fill="#2b3033"/><path d="M225.43,87.44h-4.24a2.24,2.24,0,0,0,.54,1.55,1.86,1.86,0,0,0,1.42.54,3,3,0,0,0,1.86-.67v.9a3.48,3.48,0,0,1-2.09.57,2.54,2.54,0,0,1-2-.82,3.35,3.35,0,0,1-.73-2.3,3.28,3.28,0,0,1,.79-2.28,2.55,2.55,0,0,1,2-.88,2.26,2.26,0,0,1,1.82.76,3.18,3.18,0,0,1,.64,2.12Zm-1-.81a2,2,0,0,0-.4-1.29,1.37,1.37,0,0,0-1.1-.46,1.55,1.55,0,0,0-1.15.49,2.21,2.21,0,0,0-.59,1.27Z" fill="#2b3033"/><path d="M235.4,90.2h-1V86.76a2.6,2.6,0,0,0-.31-1.44,1.17,1.17,0,0,0-1-.45,1.28,1.28,0,0,0-1,.56,2.15,2.15,0,0,0-.43,1.35V90.2h-1V86.64q0-1.77-1.37-1.77a1.26,1.26,0,0,0-1,.53,2.19,2.19,0,0,0-.41,1.38V90.2h-1v-6h1v.95h0a2,2,0,0,1,1.86-1.09,1.73,1.73,0,0,1,1.7,1.24,2.14,2.14,0,0,1,2-1.24q2,0,2,2.44Z" fill="#2b3033"/><path d="M238.2,89.33h0V93h-1V84.2h1v1.05h0a2.27,2.27,0,0,1,2.07-1.2,2.2,2.2,0,0,1,1.81.81,3.34,3.34,0,0,1,.65,2.16,3.72,3.72,0,0,1-.73,2.41,2.44,2.44,0,0,1-2,.91A2,2,0,0,1,238.2,89.33Zm0-2.42v.84a1.78,1.78,0,0,0,.48,1.26,1.72,1.72,0,0,0,2.6-.15,3.06,3.06,0,0,0,.5-1.86,2.42,2.42,0,0,0-.46-1.57,1.53,1.53,0,0,0-1.25-.57,1.7,1.7,0,0,0-1.35.58A2.14,2.14,0,0,0,238.18,86.91Z" fill="#2b3033"/><path d="M246.78,90.34a2.78,2.78,0,0,1-2.12-.84,3.11,3.11,0,0,1-.79-2.23,3.24,3.24,0,0,1,.83-2.36,3,3,0,0,1,2.23-.85,2.69,2.69,0,0,1,2.09.83,3.28,3.28,0,0,1,.75,2.29,3.22,3.22,0,0,1-.81,2.3A2.84,2.84,0,0,1,246.78,90.34Zm.07-5.47a1.83,1.83,0,0,0-1.46.63,2.59,2.59,0,0,0-.54,1.74,2.45,2.45,0,0,0,.54,1.68,1.85,1.85,0,0,0,1.46.62,1.76,1.76,0,0,0,1.43-.6,2.62,2.62,0,0,0,.5-1.72,2.66,2.66,0,0,0-.5-1.73A1.75,1.75,0,0,0,246.85,84.87Z" fill="#2b3033"/><path d="M254.43,85.17a1.18,1.18,0,0,0-.73-.19,1.23,1.23,0,0,0-1,.58,2.68,2.68,0,0,0-.41,1.58V90.2h-1v-6h1v1.24h0a2.1,2.1,0,0,1,.63-1,1.43,1.43,0,0,1,.94-.35,1.57,1.57,0,0,1,.57.08Z" fill="#2b3033"/><path d="M254.81,90.33a.62.62,0,0,1-.46-.19.64.64,0,0,1-.19-.46.65.65,0,0,1,.19-.47.62.62,0,0,1,.46-.2.63.63,0,0,1,.47.2.64.64,0,0,1,.19.47.63.63,0,0,1-.19.46A.64.64,0,0,1,254.81,90.33Z" fill="#2b3033"/><path d="M4.24,38.2h-1V30.94A2.22,2.22,0,0,1,3,31.2a5.3,5.3,0,0,1-.48.28q-.27.14-.56.26a4.09,4.09,0,0,1-.58.19V31A5.59,5.59,0,0,0,2,30.73q.35-.15.7-.33T3.35,30a5.14,5.14,0,0,0,.53-.4h.36Z" fill="#c51162"/><path d="M12.45,34a8.25,8.25,0,0,1-.19,1.87,4.36,4.36,0,0,1-.55,1.37,2.48,2.48,0,0,1-.88.85,2.42,2.42,0,0,1-1.19.29,2.26,2.26,0,0,1-1.13-.28,2.36,2.36,0,0,1-.83-.81,4.11,4.11,0,0,1-.52-1.31A8.1,8.1,0,0,1,7,34.17a9.17,9.17,0,0,1,.18-1.95,4.45,4.45,0,0,1,.54-1.42,2.41,2.41,0,0,1,.89-.86,2.49,2.49,0,0,1,1.22-.29Q12.45,29.66,12.45,34Zm-1,.09q0-3.59-1.71-3.59T8,34.12q0,3.4,1.76,3.4T11.46,34.06Z" fill="#c51162"/><path d="M14.89,37.33h0V41h-1V32.2h1v1.05h0A2.27,2.27,0,0,1,17,32.06a2.2,2.2,0,0,1,1.81.81A3.34,3.34,0,0,1,19.43,35a3.72,3.72,0,0,1-.73,2.41,2.44,2.44,0,0,1-2,.91A2,2,0,0,1,14.89,37.33Zm0-2.42v.84A1.78,1.78,0,0,0,15.35,37a1.72,1.72,0,0,0,2.6-.15,3.06,3.06,0,0,0,.5-1.86A2.42,2.42,0,0,0,18,33.44a1.53,1.53,0,0,0-1.25-.57,1.7,1.7,0,0,0-1.35.58A2.14,2.14,0,0,0,14.87,34.91Z" fill="#c51162"/><path d="M25.2,32.2l-2,3,2,3H24l-1.18-1.95-.26-.46h0l-.28.46-1.2,1.95H20l2-2.94-2-3.06h1.12l1.16,2.05.25.47h0l1.5-2.52Z" fill="#c51162"/><path d="M34.24,10.2h-1V2.94A2.22,2.22,0,0,1,33,3.2a5.3,5.3,0,0,1-.48.28q-.27.14-.56.26a4.09,4.09,0,0,1-.58.19V3A5.59,5.59,0,0,0,32,2.73q.35-.15.7-.33T33.35,2a5.14,5.14,0,0,0,.53-.4h.36Z" fill="#c51162"/><path d="M42.45,6a8.25,8.25,0,0,1-.19,1.87,4.36,4.36,0,0,1-.55,1.37,2.48,2.48,0,0,1-.88.85,2.42,2.42,0,0,1-1.19.29,2.26,2.26,0,0,1-1.13-.28,2.36,2.36,0,0,1-.83-.81,4.11,4.11,0,0,1-.52-1.31A8.1,8.1,0,0,1,37,6.17a9.17,9.17,0,0,1,.18-1.95,4.45,4.45,0,0,1,.54-1.42,2.41,2.41,0,0,1,.89-.86,2.49,2.49,0,0,1,1.22-.29Q42.45,1.66,42.45,6Zm-1,.09q0-3.59-1.71-3.59T38,6.12q0,3.4,1.76,3.4T41.46,6.06Z" fill="#c51162"/><path d="M44.89,9.33h0V13h-1V4.2h1V5.26h0A2.27,2.27,0,0,1,47,4.06a2.2,2.2,0,0,1,1.81.81A3.34,3.34,0,0,1,49.43,7a3.72,3.72,0,0,1-.73,2.41,2.44,2.44,0,0,1-2,.91A2,2,0,0,1,44.89,9.33Zm0-2.42v.84A1.78,1.78,0,0,0,45.35,9,1.72,1.72,0,0,0,48,8.87,3.06,3.06,0,0,0,48.45,7,2.42,2.42,0,0,0,48,5.44a1.53,1.53,0,0,0-1.25-.57,1.7,1.7,0,0,0-1.35.58A2.14,2.14,0,0,0,44.87,6.91Z" fill="#c51162"/><path d="M55.2,4.2l-2,3,2,3H54L52.87,8.26l-.26-.46h0l-.28.46-1.2,1.95H50l2-2.94-2-3.06h1.12l1.16,2.05.25.47h0l1.5-2.52Z" fill="#c51162"/><path d="M4.24,59.2h-1V51.94A2.22,2.22,0,0,1,3,52.2a5.3,5.3,0,0,1-.48.28q-.27.14-.56.26a4.09,4.09,0,0,1-.58.19V52A5.59,5.59,0,0,0,2,51.73q.35-.15.7-.33T3.35,51a5.14,5.14,0,0,0,.53-.4h.36Z" fill="#c51162"/><path d="M12.15,56.63a2.83,2.83,0,0,1-.21,1.11,2.43,2.43,0,0,1-.6.86,2.69,2.69,0,0,1-.94.55,3.68,3.68,0,0,1-1.22.19A3.38,3.38,0,0,1,7.43,59V58a3.2,3.2,0,0,0,1.75.55,2.37,2.37,0,0,0,.82-.13,1.83,1.83,0,0,0,.62-.37,1.61,1.61,0,0,0,.4-.58,2,2,0,0,0,.14-.74,1.59,1.59,0,0,0-.55-1.29A2.42,2.42,0,0,0,9,54.94H8.28l-.37,0-.33,0,.29-4.21h3.88v.87H8.71l-.17,2.47.4,0h.38a3.77,3.77,0,0,1,1.2.18,2.53,2.53,0,0,1,.89.5,2.1,2.1,0,0,1,.56.8A2.8,2.8,0,0,1,12.15,56.63Z" fill="#c51162"/><path d="M14.89,58.33h0V62h-1V53.2h1v1.05h0A2.27,2.27,0,0,1,17,53.06a2.2,2.2,0,0,1,1.81.81A3.34,3.34,0,0,1,19.43,56a3.72,3.72,0,0,1-.73,2.41,2.44,2.44,0,0,1-2,.91A2,2,0,0,1,14.89,58.33Zm0-2.42v.84A1.78,1.78,0,0,0,15.35,58a1.72,1.72,0,0,0,2.6-.15,3.06,3.06,0,0,0,.5-1.86A2.42,2.42,0,0,0,18,54.44a1.53,1.53,0,0,0-1.25-.57,1.7,1.7,0,0,0-1.35.58A2.14,2.14,0,0,0,14.87,55.91Z" fill="#c51162"/><path d="M25.2,53.2l-2,3,2,3H24l-1.18-1.95-.26-.46h0l-.28.46-1.2,1.95H20l2-2.94-2-3.06h1.12l1.16,2.05.25.47h0l1.5-2.52Z" fill="#c51162"/><path d="M4.24,101.2h-1V93.94A2.22,2.22,0,0,1,3,94.2a5.3,5.3,0,0,1-.48.28q-.27.14-.56.26a4.09,4.09,0,0,1-.58.19V94A5.59,5.59,0,0,0,2,93.73q.35-.15.7-.33T3.35,93a5.14,5.14,0,0,0,.53-.4h.36Z" fill="#c51162"/><path d="M12.15,98.63a2.83,2.83,0,0,1-.21,1.11,2.43,2.43,0,0,1-.6.86,2.69,2.69,0,0,1-.94.55,3.68,3.68,0,0,1-1.22.19A3.38,3.38,0,0,1,7.43,101v-1a3.2,3.2,0,0,0,1.75.55,2.37,2.37,0,0,0,.82-.13,1.83,1.83,0,0,0,.62-.37,1.61,1.61,0,0,0,.4-.58,2,2,0,0,0,.14-.74,1.59,1.59,0,0,0-.55-1.29A2.42,2.42,0,0,0,9,96.94H8.28l-.37,0-.33,0,.29-4.21h3.88v.87H8.71l-.17,2.47.4,0h.38a3.77,3.77,0,0,1,1.2.18,2.53,2.53,0,0,1,.89.5,2.1,2.1,0,0,1,.56.8A2.8,2.8,0,0,1,12.15,98.63Z" fill="#c51162"/><path d="M14.89,100.33h0V104h-1V95.2h1v1.05h0A2.27,2.27,0,0,1,17,95.06a2.2,2.2,0,0,1,1.81.81A3.34,3.34,0,0,1,19.43,98a3.72,3.72,0,0,1-.73,2.41,2.44,2.44,0,0,1-2,.91A2,2,0,0,1,14.89,100.33Zm0-2.42v.84a1.78,1.78,0,0,0,.48,1.26,1.72,1.72,0,0,0,2.6-.15,3.06,3.06,0,0,0,.5-1.86A2.42,2.42,0,0,0,18,96.44a1.53,1.53,0,0,0-1.25-.57,1.7,1.7,0,0,0-1.35.58A2.14,2.14,0,0,0,14.87,97.91Z" fill="#c51162"/><path d="M25.2,95.2l-2,3,2,3H24l-1.18-1.95-.26-.46h0l-.28.46-1.2,1.95H20l2-2.94-2-3.06h1.12l1.16,2.05.25.47h0l1.5-2.52Z" fill="#c51162"/><rect x="27" y="62.2" width="23" height="1" fill="#c51162"/><rect x="27" y="48.2" width="23" height="1" fill="#c51162"/><rect x="32" y="48.2" width="1" height="15" fill="#c51162"/><rect x="27" y="104.2" width="40" height="1" fill="#c51162"/><rect x="27" y="90.2" width="40" height="1" fill="#c51162"/><rect x="32" y="90.2" width="1" height="15" fill="#c51162"/><rect x="27" y="38.2" width="23" height="1" fill="#c51162"/><rect x="27" y="29.2" width="23" height="1" fill="#c51162"/><rect x="32" y="29.2" width="1" height="10" fill="#c51162"/><path d="M11.88,76.5a8.37,8.37,0,0,1-.23,2.05A4.58,4.58,0,0,1,11,80.07,3,3,0,0,1,9.91,81a3.11,3.11,0,0,1-1.44.33A3.45,3.45,0,0,1,7,81.05v-.92a3,3,0,0,0,1.49.39,2.16,2.16,0,0,0,1-.23,2.11,2.11,0,0,0,.76-.68,3.35,3.35,0,0,0,.47-1.1A6.24,6.24,0,0,0,10.91,77h0A1.92,1.92,0,0,1,9,78.08a2.52,2.52,0,0,1-1-.19,2.27,2.27,0,0,1-.78-.54,2.47,2.47,0,0,1-.51-.83,3,3,0,0,1-.18-1.06,3.09,3.09,0,0,1,.2-1.14,2.65,2.65,0,0,1,.56-.89,2.52,2.52,0,0,1,.86-.58,2.8,2.8,0,0,1,1.08-.21,2.39,2.39,0,0,1,1.12.25,2.25,2.25,0,0,1,.82.74,3.68,3.68,0,0,1,.51,1.2A6.87,6.87,0,0,1,11.88,76.5Zm-1-.86a2.93,2.93,0,0,0-.13-.88,2.14,2.14,0,0,0-.35-.68,1.56,1.56,0,0,0-.53-.44,1.47,1.47,0,0,0-.67-.16,1.52,1.52,0,0,0-.64.14A1.55,1.55,0,0,0,8,74a1.85,1.85,0,0,0-.35.59,2.15,2.15,0,0,0-.13.75,2.46,2.46,0,0,0,.12.8,1.66,1.66,0,0,0,.34.59,1.48,1.48,0,0,0,.54.37,1.81,1.81,0,0,0,.69.13,1.59,1.59,0,0,0,.63-.13,1.67,1.67,0,0,0,.52-.34,1.57,1.57,0,0,0,.35-.5A1.55,1.55,0,0,0,10.85,75.63Z" fill="#c51162"/><path d="M14.43,80.33h0V84h-1V75.2h1v1.05h0a2.27,2.27,0,0,1,2.07-1.2,2.2,2.2,0,0,1,1.81.81A3.34,3.34,0,0,1,19,78a3.72,3.72,0,0,1-.73,2.41,2.44,2.44,0,0,1-2,.91A2,2,0,0,1,14.43,80.33Zm0-2.42v.84A1.78,1.78,0,0,0,14.89,80a1.72,1.72,0,0,0,2.6-.15A3.06,3.06,0,0,0,18,78a2.42,2.42,0,0,0-.46-1.57,1.53,1.53,0,0,0-1.25-.57,1.7,1.7,0,0,0-1.35.58A2.14,2.14,0,0,0,14.4,77.91Z" fill="#c51162"/><path d="M24.73,75.2l-2,3,2,3H23.58L22.4,79.26l-.26-.46h0l-.28.46-1.2,1.95H19.53l2-2.94-2-3.06h1.12l1.16,2.05.25.47h0l1.5-2.52Z" fill="#c51162"/><rect x="27" y="80.2" width="34" height="1" fill="#c51162"/><rect x="27" y="72.2" width="34" height="1" fill="#c51162"/><rect x="32" y="72.2" width="1" height="9" fill="#c51162"/><rect x="39" y="14.2" width="1" height="30" fill="#c51162"/><rect x="48" y="14.2" width="1" height="30" fill="#c51162"/><rect x="39" y="19.2" width="10" height="1" fill="#c51162"/><path d="M272.24,10.2h-1V2.94a2.22,2.22,0,0,1-.33.25,5.3,5.3,0,0,1-.48.28q-.27.14-.56.26a4.09,4.09,0,0,1-.58.19V3a5.59,5.59,0,0,0,.67-.24q.35-.15.7-.33t.65-.39a5.14,5.14,0,0,0,.53-.4h.36Z" fill="#c51162"/><path d="M280.45,6a8.25,8.25,0,0,1-.19,1.87,4.36,4.36,0,0,1-.55,1.37,2.48,2.48,0,0,1-.88.85,2.42,2.42,0,0,1-1.19.29,2.26,2.26,0,0,1-1.13-.28,2.36,2.36,0,0,1-.83-.81,4.11,4.11,0,0,1-.52-1.31A8.1,8.1,0,0,1,275,6.17a9.17,9.17,0,0,1,.18-1.95,4.45,4.45,0,0,1,.54-1.42,2.41,2.41,0,0,1,.89-.86,2.49,2.49,0,0,1,1.22-.29Q280.45,1.66,280.45,6Zm-1,.09q0-3.59-1.71-3.59T276,6.12q0,3.4,1.76,3.4T279.46,6.06Z" fill="#c51162"/><path d="M282.89,9.33h0V13h-1V4.2h1V5.26h0A2.27,2.27,0,0,1,285,4.06a2.2,2.2,0,0,1,1.81.81A3.34,3.34,0,0,1,287.43,7a3.72,3.72,0,0,1-.73,2.41,2.44,2.44,0,0,1-2,.91A2,2,0,0,1,282.89,9.33Zm0-2.42v.84A1.78,1.78,0,0,0,283.35,9a1.72,1.72,0,0,0,2.6-.15,3.06,3.06,0,0,0,.5-1.86A2.42,2.42,0,0,0,286,5.44a1.53,1.53,0,0,0-1.25-.57,1.7,1.7,0,0,0-1.35.58A2.14,2.14,0,0,0,282.87,6.91Z" fill="#c51162"/><path d="M293.2,4.2l-2,3,2,3H292l-1.18-1.95-.26-.46h0l-.28.46-1.2,1.95H288l2-2.94-2-3.06h1.12l1.16,2.05.25.47h0l1.5-2.52Z" fill="#c51162"/><rect x="277" y="14.2" width="1" height="30" fill="#c51162"/><rect x="286" y="14.2" width="1" height="30" fill="#c51162"/><rect x="277" y="19.2" width="10" height="1" fill="#c51162"/><path d="M51.85,48.2H50V39.8h1.89Z" fill="#2b3033"/><path d="M59.38,48.2H57.53V44.87q0-1.39-1-1.39a1,1,0,0,0-.79.37,1.41,1.41,0,0,0-.31.94V48.2H53.58v-6h1.85v.95h0a2.12,2.12,0,0,1,1.93-1.1q2,0,2,2.47Z" fill="#2b3033"/><path d="M64.76,40.74a1.87,1.87,0,0,0-.69-.14q-.89,0-.89,1v.64h1.37v1.37H63.18V48.2H61.33V43.57h-1V42.2h1v-.74A2.16,2.16,0,0,1,62,39.8a2.55,2.55,0,0,1,1.82-.63,3.19,3.19,0,0,1,.94.12Z" fill="#2b3033"/><path d="M68.3,48.35a3.23,3.23,0,0,1-2.36-.84,3.48,3.48,0,0,1,0-4.61,3.37,3.37,0,0,1,2.41-.84,3.19,3.19,0,0,1,2.34.84,3,3,0,0,1,.85,2.22,3.17,3.17,0,0,1-.88,2.36A3.26,3.26,0,0,1,68.3,48.35Zm0-4.87a1.23,1.23,0,0,0-1,.45A2,2,0,0,0,67,45.2q0,1.73,1.39,1.73t1.33-1.78Q69.69,43.47,68.35,43.47Z" fill="#2b3033"/><path d="M82.17,41.34h-2.4V48.2h-1.9V41.34H75.49V39.8h6.68Z" fill="#2b3033"/><path d="M84.06,41.25a1.08,1.08,0,0,1-.77-.28.9.9,0,0,1-.3-.68.86.86,0,0,1,.3-.68,1.25,1.25,0,0,1,1.54,0,.87.87,0,0,1,.3.68.89.89,0,0,1-.3.69A1.1,1.1,0,0,1,84.06,41.25ZM85,48.2H83.12v-6H85Z" fill="#2b3033"/><path d="M88.4,47.5h0V51H86.53V42.2h1.85v.9h0a2.36,2.36,0,0,1,3.73-.25A3.41,3.41,0,0,1,92.77,45,3.69,3.69,0,0,1,92,47.44a2.42,2.42,0,0,1-2,.91A1.87,1.87,0,0,1,88.4,47.5ZM88.35,45v.48a1.53,1.53,0,0,0,.33,1,1.07,1.07,0,0,0,.86.39,1.14,1.14,0,0,0,1-.49,2.36,2.36,0,0,0,.35-1.39q0-1.58-1.23-1.58a1.16,1.16,0,0,0-.93.43A1.72,1.72,0,0,0,88.35,45Z" fill="#2b3033"/><path d="M104.73,48.2h-1.9V44.78H99.36V48.2H97.46V39.8h1.89v3.35h3.48V39.8h1.9Z" fill="#2b3033"/><path d="M111.87,45.73H108Q108,47,109.6,47a3.21,3.21,0,0,0,1.74-.47V47.9a4.57,4.57,0,0,1-2.16.45,2.79,2.79,0,0,1-3.06-3.05,3.21,3.21,0,0,1,.87-2.37,2.89,2.89,0,0,1,2.13-.87,2.62,2.62,0,0,1,2,.78,3,3,0,0,1,.72,2.12Zm-1.72-1.14q0-1.29-1-1.29a1,1,0,0,0-.77.37,1.68,1.68,0,0,0-.4.92Z" fill="#2b3033"/><path d="M118,48.2h-1.75v-.86h0a2,2,0,0,1-1.79,1,1.87,1.87,0,0,1-1.37-.5,1.77,1.77,0,0,1-.5-1.32q0-1.75,2.07-2l1.63-.22q0-1-1.07-1a3.64,3.64,0,0,0-2,.64V42.56a4.59,4.59,0,0,1,1.06-.35,5.56,5.56,0,0,1,1.22-.15A2.27,2.27,0,0,1,118,44.62Zm-1.74-2.44v-.4l-1.09.14q-.9.12-.9.81a.67.67,0,0,0,.22.52.84.84,0,0,0,.59.2,1.1,1.1,0,0,0,.85-.36A1.3,1.3,0,0,0,116.22,45.76Z" fill="#2b3033"/><path d="M125.29,48.2h-1.85v-.83h0a2.08,2.08,0,0,1-1.86,1,2.27,2.27,0,0,1-1.81-.79,3.29,3.29,0,0,1-.69-2.22,3.58,3.58,0,0,1,.76-2.38,2.47,2.47,0,0,1,2-.9,1.68,1.68,0,0,1,1.62.83h0V39.32h1.85Zm-1.82-2.92v-.45a1.42,1.42,0,0,0-.34-1,1.2,1.2,0,0,0-1.85.1,2.24,2.24,0,0,0-.35,1.33,1.94,1.94,0,0,0,.33,1.22,1.19,1.19,0,0,0,1.84,0A1.88,1.88,0,0,0,123.48,45.28Z" fill="#2b3033"/><path d="M132.24,45.73h-3.91Q128.42,47,130,47a3.21,3.21,0,0,0,1.74-.47V47.9a4.57,4.57,0,0,1-2.16.45,2.79,2.79,0,0,1-3.06-3.05,3.21,3.21,0,0,1,.87-2.37,2.89,2.89,0,0,1,2.13-.87,2.62,2.62,0,0,1,2,.78,3,3,0,0,1,.72,2.12Zm-1.72-1.14q0-1.29-1-1.29a1,1,0,0,0-.77.37,1.68,1.68,0,0,0-.4.92Z" fill="#2b3033"/><path d="M137.26,43.87a1.61,1.61,0,0,0-.78-.18,1.12,1.12,0,0,0-.94.44,1.93,1.93,0,0,0-.34,1.2V48.2h-1.85v-6h1.85v1.11h0a1.6,1.6,0,0,1,1.58-1.22,1.19,1.19,0,0,1,.46.07Z" fill="#2b3033"/><path d="M147.51,41.34h-2.4V48.2h-1.9V41.34h-2.38V39.8h6.68Z" fill="#2b3033"/><path d="M152.78,45.73h-3.91Q149,47,150.51,47a3.21,3.21,0,0,0,1.74-.47V47.9a4.57,4.57,0,0,1-2.16.45A2.79,2.79,0,0,1,147,45.29a3.21,3.21,0,0,1,.87-2.37,2.89,2.89,0,0,1,2.13-.87,2.62,2.62,0,0,1,2,.78,3,3,0,0,1,.72,2.12Zm-1.72-1.14q0-1.29-1-1.29a1,1,0,0,0-.77.37,1.68,1.68,0,0,0-.4.92Z" fill="#2b3033"/><path d="M159.67,42.2l-2,2.91,2,3.09h-2.13l-.87-1.62q-.11-.19-.25-.54h0a3.8,3.8,0,0,1-.24.53l-.87,1.63h-2.13l2-3-1.9-3h2.14l.86,1.68a3.69,3.69,0,0,1,.24.56h0a4,4,0,0,1,.25-.57l.87-1.67Z" fill="#2b3033"/><path d="M164.13,48.13a2.74,2.74,0,0,1-1.24.22q-2,0-2-2V43.57h-1V42.2h1V40.91l1.85-.53V42.2h1.35v1.37h-1.35V46q0,.94.74.94a1.25,1.25,0,0,0,.6-.17Z" fill="#2b3033"/></svg>