<svg id="Layer_1" data-name="Layer 1" xmlns="http://www.w3.org/2000/svg" xmlns:xlink="http://www.w3.org/1999/xlink" width="70" height="24" viewBox="0 0 70 24"><defs><linearGradient id="linear-gradient" x1="12" y1="0.69" x2="12" y2="23.25" gradientUnits="userSpaceOnUse"><stop offset="0" stop-color="#ebe9ec"/><stop offset="0.28" stop-color="#e5e6e9"/><stop offset="1" stop-color="#dadfe2"/></linearGradient><linearGradient id="linear-gradient-2" x1="35" y1="0.69" x2="35" y2="23.25" xlink:href="#linear-gradient"/><linearGradient id="linear-gradient-3" x1="58" y1="0.69" x2="58" y2="23.25" xlink:href="#linear-gradient"/></defs><title>toggle-groups-exclusive-none</title><rect x="0.5" y="0.5" width="23" height="23" fill="url(#linear-gradient)"/><path d="M23,1V23H1V1H23m1-1H0V24H24V0Z" fill="#a8abae"/><rect x="23.5" y="0.5" width="23" height="23" fill="url(#linear-gradient-2)"/><path d="M46,1V23H24V1H46m1-1H23V24H47V0Z" fill="#a8abae"/><rect x="46.5" y="0.5" width="23" height="23" fill="url(#linear-gradient-3)"/><path d="M69,1V23H47V1H69m1-1H46V24H70V0Z" fill="#a8abae"/><rect x="64" y="4" width="2" height="16" fill="#575757"/><rect x="50" y="5" width="12" height="2" fill="#575757"/><rect x="52" y="9" width="10" height="2" fill="#575757"/><rect x="54" y="13" width="8" height="2" fill="#575757"/><rect x="56" y="17" width="6" height="2" fill="#575757"/><path d="M29,15h4V13H29Zm1,4h3V17H30Zm-2-8h5V9H28ZM27,7h6V5H27Zm10,4h5V9H37Zm0-6V7h6V5Zm0,10h4V13H37Zm0,4h3V17H37Z" fill="#575757"/><rect x="34" y="4" width="2" height="16" fill="#575757"/><rect x="4" y="4" width="2" height="16" fill="#575757"/><rect x="8" y="5" width="12" height="2" fill="#575757"/><rect x="8" y="9" width="10" height="2" fill="#575757"/><rect x="8" y="13" width="8" height="2" fill="#575757"/><rect x="8" y="17" width="6" height="2" fill="#575757"/><rect x="4" y="4" width="2" height="16" fill="#575757"/><rect x="8" y="5" width="12" height="2" fill="#575757"/><rect x="8" y="9" width="10" height="2" fill="#575757"/><rect x="8" y="13" width="8" height="2" fill="#575757"/><rect x="8" y="17" width="6" height="2" fill="#575757"/></svg>