<svg id="Layer_1" data-name="Layer 1" xmlns="http://www.w3.org/2000/svg" xmlns:xlink="http://www.w3.org/1999/xlink" width="70" height="24" viewBox="0 0 70 24">
  <defs>
    <linearGradient id="linear-gradient" x1="35" y1="0.69" x2="35" y2="23.25" gradientUnits="userSpaceOnUse">
      <stop offset="0" stop-color="#ebe9ec"/>
      <stop offset="0.28" stop-color="#e5e6e9"/>
      <stop offset="1" stop-color="#dadfe2"/>
    </linearGradient>
    <linearGradient id="linear-gradient-2" x1="58" y1="0.69" x2="58" y2="23.25" xlink:href="#linear-gradient"/>
    <clipPath id="clip-path">
      <rect x="1" y="1" width="22" height="22" fill="none"/>
    </clipPath>
    <clipPath id="clip-path-2">
      <rect width="70" height="24" fill="none"/>
    </clipPath>
    <clipPath id="clip-path-3">
      <rect x="4" y="4" width="2" height="16" fill="none"/>
    </clipPath>
    <clipPath id="clip-path-5">
      <rect x="8" y="5" width="12" height="2" fill="none"/>
    </clipPath>
    <clipPath id="clip-path-7">
      <rect x="8" y="9" width="10" height="2" fill="none"/>
    </clipPath>
    <clipPath id="clip-path-9">
      <rect x="8" y="13" width="8" height="2" fill="none"/>
    </clipPath>
    <clipPath id="clip-path-11">
      <rect x="8" y="17" width="6" height="2" fill="none"/>
    </clipPath>
    <clipPath id="clip-path-13">
      <polygon points="95.17 4.84 97.24 4.84 98.68 7.04 104.85 7.04 106.06 4.84 108.29 4.84 108.29 20.52 95.17 20.52 95.17 4.84" fill="none" clip-rule="evenodd"/>
    </clipPath>
    <clipPath id="clip-path-14">
      <polygon points="95.17 2.67 108.29 2.67 108.29 3.67 104.9 3.67 103.75 5.73 99.75 5.73 98.44 3.67 95.17 3.67 95.17 2.67" fill="none" clip-rule="evenodd"/>
    </clipPath>
    <clipPath id="clip-path-15">
      <polygon points="118.03 2.67 131.03 2.67 131.03 3.67 127.67 3.67 126.53 5.73 122.57 5.73 121.27 3.67 118.03 3.67 118.03 2.67" fill="#4d4d4d" clip-rule="evenodd"/>
    </clipPath>
  </defs>
  <title>toggle-groups-hover-state</title>
  <rect width="24" height="24" fill="#4384b7"/>
  <g>
    <rect x="23.5" y="0.5" width="23" height="23" fill="url(#linear-gradient)"/>
    <path d="M46,1V23H24V1H46m1-1H23V24H47V0Z" fill="#a8abae"/>
  </g>
  <g>
    <rect x="46.5" y="0.5" width="23" height="23" fill="url(#linear-gradient-2)"/>
    <path d="M69,1V23H47V1H69m1-1H46V24H70V0Z" fill="#a8abae"/>
  </g>
  <g>
    <rect x="64" y="4" width="2" height="16" fill="#575757"/>
    <rect x="50" y="5" width="12" height="2" fill="#575757"/>
    <rect x="52" y="9" width="10" height="2" fill="#575757"/>
    <rect x="54" y="13" width="8" height="2" fill="#575757"/>
    <rect x="56" y="17" width="6" height="2" fill="#575757"/>
  </g>
  <g>
    <path d="M29,15h4V13H29Zm1,4h3V17H30Zm-2-8h5V9H28ZM27,7h6V5H27Zm10,4h5V9H37Zm0-6V7h6V5Zm0,10h4V13H37Zm0,4h3V17H37Z" fill="#575757"/>
    <rect x="34" y="4" width="2" height="16" fill="#575757"/>
  </g>
  <g clip-path="url(#clip-path)">
    <g clip-path="url(#clip-path-2)">
      <rect x="-4" y="-4" width="32" height="32" fill="#fff"/>
    </g>
  </g>
  <g clip-path="url(#clip-path-3)">
    <g clip-path="url(#clip-path-2)">
      <rect x="-1" y="-1" width="12" height="26" fill="#4384b7"/>
    </g>
  </g>
  <g clip-path="url(#clip-path-5)">
    <g clip-path="url(#clip-path-2)">
      <rect x="3" width="22" height="12" fill="#4384b7"/>
    </g>
  </g>
  <g clip-path="url(#clip-path-7)">
    <g clip-path="url(#clip-path-2)">
      <rect x="3" y="4" width="20" height="12" fill="#4384b7"/>
    </g>
  </g>
  <g clip-path="url(#clip-path-9)">
    <g clip-path="url(#clip-path-2)">
      <rect x="3" y="8" width="18" height="12" fill="#4384b7"/>
    </g>
  </g>
  <g clip-path="url(#clip-path-11)">
    <g clip-path="url(#clip-path-2)">
      <rect x="3" y="12" width="16" height="12" fill="#4384b7"/>
    </g>
  </g>
  <g>
    <polygon points="118.03 2.67 131.03 2.67 131.03 3.67 127.67 3.67 126.53 5.73 122.57 5.73 121.27 3.67 118.03 3.67 118.03 2.67" fill="#4d4d4d" fill-rule="evenodd"/>
    <g clip-path="url(#clip-path-15)">
      <rect x="49.5" y="-925" width="991.72" height="1393" fill="#4d4d4d"/>
    </g>
  </g>
</svg>
