<svg id="Layer_1" data-name="Layer 1" xmlns="http://www.w3.org/2000/svg" width="126" height="121" viewBox="0 0 126 121"><title>toggle-split-button-mousedown-dropdown</title><path d="M0,0V28H36V0Z" fill="#4384b7"/><path d="M24,11h9l-4.5,6Z" fill="#fff"/><rect x="0.5" y="27.5" width="125" height="93" fill="#fff"/><path d="M125,28v92H1V28H125m1-1H0v94H126V27Z" fill="#4386b9"/><path d="M37,42.41H35.77l-4.32-6.7a2.8,2.8,0,0,1-.27-.53h0a8.65,8.65,0,0,1,0,1.15v6.07h-1V34h1.28l4.21,6.59q.26.41.34.56h0A8.89,8.89,0,0,1,36,39.92V34h1Z" fill="#2b3033"/><path d="M41.56,42.55a2.78,2.78,0,0,1-2.12-.84,3.11,3.11,0,0,1-.79-2.23,3.24,3.24,0,0,1,.83-2.36,3,3,0,0,1,2.23-.85,2.69,2.69,0,0,1,2.09.83,3.28,3.28,0,0,1,.75,2.29,3.22,3.22,0,0,1-.81,2.3A2.84,2.84,0,0,1,41.56,42.55Zm.07-5.47a1.83,1.83,0,0,0-1.46.63,2.59,2.59,0,0,0-.54,1.74,2.45,2.45,0,0,0,.54,1.68,1.85,1.85,0,0,0,1.46.62,1.76,1.76,0,0,0,1.43-.6,2.62,2.62,0,0,0,.5-1.72,2.66,2.66,0,0,0-.5-1.73A1.75,1.75,0,0,0,41.63,37.08Z" fill="#2b3033"/><path d="M51.06,42.41h-1V39q0-1.91-1.39-1.91a1.51,1.51,0,0,0-1.19.54A2,2,0,0,0,47,39v3.42h-1v-6h1v1h0a2.17,2.17,0,0,1,2-1.14,1.84,1.84,0,0,1,1.51.64,2.83,2.83,0,0,1,.52,1.84Z" fill="#2b3033"/><path d="M57.69,39.65H53.46A2.24,2.24,0,0,0,54,41.19a1.86,1.86,0,0,0,1.42.54,3,3,0,0,0,1.86-.67V42a3.48,3.48,0,0,1-2.09.57,2.54,2.54,0,0,1-2-.82,3.35,3.35,0,0,1-.73-2.3,3.28,3.28,0,0,1,.79-2.28,2.55,2.55,0,0,1,2-.88A2.26,2.26,0,0,1,57,37a3.18,3.18,0,0,1,.64,2.12Zm-1-.81a2,2,0,0,0-.4-1.29,1.37,1.37,0,0,0-1.1-.46,1.55,1.55,0,0,0-1.15.49,2.21,2.21,0,0,0-.59,1.27Z" fill="#2b3033"/><path d="M36.7,64.41H35.61l-.89-2.36H31.16l-.84,2.36h-1.1L32.45,56h1Zm-2.3-3.24-1.32-3.58A3.43,3.43,0,0,1,33,57h0a3.14,3.14,0,0,1-.13.56l-1.31,3.58Z" fill="#2b3033"/><path d="M38.77,64.41h-1V55.52h1Z" fill="#2b3033"/><path d="M41.68,64.41h-1V55.52h1Z" fill="#2b3033"/><path d="M47.4,56.88a.61.61,0,0,1-.44-.18.59.59,0,0,1-.18-.45.62.62,0,0,1,.62-.63.62.62,0,0,1,.45.18.63.63,0,0,1,0,.89A.62.62,0,0,1,47.4,56.88Zm.47,7.52h-1v-6h1Z" fill="#2b3033"/><path d="M52.6,64.35a1.85,1.85,0,0,1-.9.19q-1.58,0-1.58-1.76V59.23h-1v-.82h1V56.94l1-.31v1.78H52.6v.82H51.09v3.38a1.4,1.4,0,0,0,.21.86.82.82,0,0,0,.68.26,1,1,0,0,0,.63-.2Z" fill="#2b3033"/><path d="M58.61,61.65H54.38a2.24,2.24,0,0,0,.54,1.55,1.86,1.86,0,0,0,1.42.54,3,3,0,0,0,1.86-.67V64a3.48,3.48,0,0,1-2.09.57,2.54,2.54,0,0,1-2-.82,3.35,3.35,0,0,1-.73-2.3,3.28,3.28,0,0,1,.79-2.28,2.55,2.55,0,0,1,2-.88A2.26,2.26,0,0,1,58,59a3.18,3.18,0,0,1,.64,2.12Zm-1-.81a2,2,0,0,0-.4-1.29,1.37,1.37,0,0,0-1.1-.46,1.55,1.55,0,0,0-1.15.49,2.21,2.21,0,0,0-.59,1.27Z" fill="#2b3033"/><path d="M68.58,64.41h-1V61a2.6,2.6,0,0,0-.31-1.44,1.17,1.17,0,0,0-1-.45,1.28,1.28,0,0,0-1,.56A2.15,2.15,0,0,0,64.81,61v3.42h-1V60.85q0-1.77-1.37-1.77a1.26,1.26,0,0,0-1,.53A2.19,2.19,0,0,0,61,61v3.42h-1v-6h1v.95h0a2,2,0,0,1,1.86-1.09,1.73,1.73,0,0,1,1.7,1.24,2.14,2.14,0,0,1,2-1.24q2,0,2,2.44Z" fill="#2b3033"/><path d="M70,64.19v-1a2.84,2.84,0,0,0,1.73.58q1.27,0,1.27-.84a.73.73,0,0,0-.11-.41,1.08,1.08,0,0,0-.29-.3A2.26,2.26,0,0,0,72.2,62l-.54-.21a6.9,6.9,0,0,1-.7-.32,2.12,2.12,0,0,1-.5-.36,1.35,1.35,0,0,1-.3-.46A1.63,1.63,0,0,1,70,60a1.43,1.43,0,0,1,.19-.75,1.71,1.71,0,0,1,.52-.54,2.4,2.4,0,0,1,.74-.33,3.26,3.26,0,0,1,.85-.11,3.44,3.44,0,0,1,1.39.27v1a2.72,2.72,0,0,0-1.52-.43,1.78,1.78,0,0,0-.49.06,1.19,1.19,0,0,0-.37.17.8.8,0,0,0-.24.27.7.7,0,0,0-.08.34.82.82,0,0,0,.08.39.86.86,0,0,0,.25.28,1.9,1.9,0,0,0,.4.22l.53.22a7.42,7.42,0,0,1,.71.31,2.45,2.45,0,0,1,.54.36,1.42,1.42,0,0,1,.34.47,1.5,1.5,0,0,1,.12.63,1.48,1.48,0,0,1-.2.77,1.68,1.68,0,0,1-.52.54,2.4,2.4,0,0,1-.76.32,3.73,3.73,0,0,1-.9.11A3.4,3.4,0,0,1,70,64.19Z" fill="#2b3033"/><path d="M81.29,64.55a2.78,2.78,0,0,1-2.12-.84,3.11,3.11,0,0,1-.79-2.23,3.24,3.24,0,0,1,.83-2.36,3,3,0,0,1,2.23-.85,2.69,2.69,0,0,1,2.09.83,3.28,3.28,0,0,1,.75,2.29,3.22,3.22,0,0,1-.81,2.3A2.84,2.84,0,0,1,81.29,64.55Zm.07-5.47a1.83,1.83,0,0,0-1.46.63,2.59,2.59,0,0,0-.54,1.74,2.45,2.45,0,0,0,.54,1.68,1.85,1.85,0,0,0,1.46.62,1.76,1.76,0,0,0,1.43-.6,2.62,2.62,0,0,0,.5-1.72,2.66,2.66,0,0,0-.5-1.73A1.75,1.75,0,0,0,81.36,59.08Z" fill="#2b3033"/><path d="M90.79,64.41h-1V61q0-1.91-1.39-1.91a1.51,1.51,0,0,0-1.19.54A2,2,0,0,0,86.77,61v3.42h-1v-6h1v1h0a2.17,2.17,0,0,1,2-1.14,1.84,1.84,0,0,1,1.51.64,2.83,2.83,0,0,1,.52,1.84Z" fill="#2b3033"/><path d="M101,64.41h-1v-1h0A2.22,2.22,0,0,1,98,64.55a2.24,2.24,0,0,1-1.81-.81,3.31,3.31,0,0,1-.68-2.19,3.6,3.6,0,0,1,.75-2.38,2.47,2.47,0,0,1,2-.9,1.92,1.92,0,0,1,1.8,1h0V55.52h1Zm-1-2.71v-.88a1.72,1.72,0,0,0-.48-1.23,1.61,1.61,0,0,0-1.22-.5,1.66,1.66,0,0,0-1.38.64,2.82,2.82,0,0,0-.5,1.78,2.54,2.54,0,0,0,.48,1.64,1.58,1.58,0,0,0,1.3.6,1.64,1.64,0,0,0,1.3-.58A2.16,2.16,0,0,0,100,61.69Z" fill="#2b3033"/><path d="M103.45,56.88a.61.61,0,0,1-.44-.18.59.59,0,0,1-.18-.45.62.62,0,0,1,.62-.63.62.62,0,0,1,.45.18.63.63,0,0,1,0,.89A.62.62,0,0,1,103.45,56.88Zm.47,7.52h-1v-6h1Z" fill="#2b3033"/><path d="M105.5,64.19v-1a2.84,2.84,0,0,0,1.73.58q1.27,0,1.27-.84a.73.73,0,0,0-.11-.41,1.08,1.08,0,0,0-.29-.3,2.26,2.26,0,0,0-.43-.23l-.54-.21a6.9,6.9,0,0,1-.7-.32,2.12,2.12,0,0,1-.5-.36,1.35,1.35,0,0,1-.3-.46,1.63,1.63,0,0,1-.1-.6,1.43,1.43,0,0,1,.19-.75,1.71,1.71,0,0,1,.52-.54,2.4,2.4,0,0,1,.74-.33,3.26,3.26,0,0,1,.85-.11,3.44,3.44,0,0,1,1.39.27v1a2.72,2.72,0,0,0-1.52-.43,1.78,1.78,0,0,0-.49.06,1.19,1.19,0,0,0-.37.17.8.8,0,0,0-.24.27.7.7,0,0,0-.08.34.82.82,0,0,0,.08.39.86.86,0,0,0,.25.28,1.9,1.9,0,0,0,.4.22l.53.22a7.42,7.42,0,0,1,.71.31,2.45,2.45,0,0,1,.54.36,1.42,1.42,0,0,1,.34.47,1.5,1.5,0,0,1,.12.63,1.48,1.48,0,0,1-.2.77,1.68,1.68,0,0,1-.52.54,2.4,2.4,0,0,1-.76.32,3.73,3.73,0,0,1-.9.11A3.4,3.4,0,0,1,105.5,64.19Z" fill="#2b3033"/><path d="M115.93,64.41h-1.35l-2.65-2.88h0v2.88h-1V55.52h1v5.63h0l2.52-2.75h1.26l-2.78,2.89Z" fill="#2b3033"/><path d="M36.45,83l-3.11,8.4H32.25l-3-8.4h1.1l2.33,6.66a4,4,0,0,1,.17.74h0a3.65,3.65,0,0,1,.19-.76L35.39,83Z" fill="#2b3033"/><path d="M38.64,91.41h-1V83h1Z" fill="#2b3033"/><path d="M40.16,105l-2.37,8.4H36.63l-1.73-6.14a3.84,3.84,0,0,1-.13-.86h0a4.34,4.34,0,0,1-.15.84l-1.74,6.15H31.71L29.25,105h1.08l1.79,6.45a4.23,4.23,0,0,1,.14.84h0a5,5,0,0,1,.18-.84L34.33,105h.94l1.78,6.49a4.75,4.75,0,0,1,.14.79h0a4.71,4.71,0,0,1,.16-.81L39.09,105Z" fill="#2b3033"/><path d="M45.82,110.65H41.58a2.24,2.24,0,0,0,.54,1.55,1.86,1.86,0,0,0,1.42.54,3,3,0,0,0,1.86-.67v.9a3.48,3.48,0,0,1-2.09.57,2.54,2.54,0,0,1-2-.82,3.35,3.35,0,0,1-.73-2.3,3.28,3.28,0,0,1,.79-2.28,2.55,2.55,0,0,1,2-.88,2.26,2.26,0,0,1,1.82.76,3.18,3.18,0,0,1,.64,2.12Zm-1-.81a2,2,0,0,0-.4-1.29,1.37,1.37,0,0,0-1.1-.46,1.55,1.55,0,0,0-1.15.49,2.21,2.21,0,0,0-.59,1.27Z" fill="#2b3033"/><path d="M48.25,112.54h0v.87h-1v-8.88h1v3.94h0a2.27,2.27,0,0,1,2.07-1.2,2.2,2.2,0,0,1,1.81.81,3.33,3.33,0,0,1,.65,2.16,3.72,3.72,0,0,1-.73,2.41,2.44,2.44,0,0,1-2,.91A2,2,0,0,1,48.25,112.54Zm0-2.42V111a1.78,1.78,0,0,0,.48,1.26,1.72,1.72,0,0,0,2.6-.15,3.06,3.06,0,0,0,.5-1.86,2.42,2.42,0,0,0-.46-1.57,1.53,1.53,0,0,0-1.25-.57,1.7,1.7,0,0,0-1.35.58A2.14,2.14,0,0,0,48.23,110.12Z" fill="#2b3033"/><path d="M60.7,105l-3.11,8.4H56.5l-3-8.4h1.1l2.33,6.66a4,4,0,0,1,.17.74h0a3.65,3.65,0,0,1,.19-.76L59.64,105Z" fill="#2b3033"/><path d="M62.89,113.41h-1V105h1Z" fill="#2b3033"/><rect x="1" y="73" width="124" height="1" fill="#a9acaf"/><path d="M7,82.38V92.62a1.37,1.37,0,0,0,2,1.23l10.22-5.13a1.35,1.35,0,0,0,0-2.45L9,81.15A1.37,1.37,0,0,0,7,82.38Z" fill="#696e73"/><polygon points="9 87 9 88 11 88 11 90 12 90 12 88 14 88 14 87 12 87 12 85 11 85 11 87 9 87" fill="#fff"/><path d="M18.3,105.25H16.37a6.1,6.1,0,0,0-1.57-2.49A6.5,6.5,0,0,1,18.3,105.25Zm-3.5,10a6.5,6.5,0,0,0,3.5-2.49H16.37A6.1,6.1,0,0,1,14.81,115.24ZM21,109a8,8,0,1,1-8-8A8,8,0,0,1,21,109ZM9.61,105.05a.41.41,0,0,0-.61.35v8.19a.4.4,0,0,0,.4.41l.18,0,8.17-4.09a.4.4,0,0,0,0-.73ZM20,109a7,7,0,1,0-11.8,5.09,1.3,1.3,0,0,1-.1-.49v-.34a5.52,5.52,0,0,1-.4-.5h.4v-.5H7.38a6.46,6.46,0,0,1,0-6.5H8.1v-.35a1.21,1.21,0,0,1,0-.15H7.7a6.5,6.5,0,0,1,3.5-2.49,5.3,5.3,0,0,0-1.13,1.52l.45.22c.64-1.22,1.52-2,2.48-2,1.15,0,2.19,1.1,2.83,2.75H12l1,.5h3a10.22,10.22,0,0,1,.36,1.68l.54.27a10.93,10.93,0,0,0-.37-2h2.08a6.46,6.46,0,0,1,0,6.5H16.54c.08-.27.13-.57.19-.86l-.58.29c0,.19-.08.39-.14.57H15l-1,.5h1.82c-.64,1.65-1.68,2.75-2.83,2.75a2.62,2.62,0,0,1-2-1.24l-.44.22a4.63,4.63,0,0,0,.65.75,6,6,0,0,1-1.17-.5l0,0-.09,0-.1,0-.18,0-.1,0H9.4a1.23,1.23,0,0,1-.24,0A7,7,0,0,0,20,109Zm-9,2h1v-1h1v-1H12v-1H11v1H10v1h1Z" fill="#696e73"/><path d="M4,7V9h.43a2.69,2.69,0,1,0,3.78,3.77L10,15.6v6l3-2.4V15.6L17.2,9H19V7Zm2.11,5.6a1.5,1.5,0,0,1,0-3H6.2l1.3,2A1.5,1.5,0,0,1,6.11,12.6Z" fill="#fff"/></svg>