<svg id="Layer_1" data-name="Layer 1" xmlns="http://www.w3.org/2000/svg" width="80" height="15" viewBox="0 0 80 15"><title>checkboxes-hover-mixed-state</title><path d="M0,1V13H12V1Z" fill="#4384b7"/><path d="M0,1V13H12V1ZM11,12H1V2H11Z" fill="#4384b7"/><path d="M16.71,10.8V9.64a2.25,2.25,0,0,0,.48.32,3.87,3.87,0,0,0,.59.24,4.66,4.66,0,0,0,.62.15,3.45,3.45,0,0,0,.57.05,2.25,2.25,0,0,0,1.36-.34,1.26,1.26,0,0,0,.3-1.56A1.68,1.68,0,0,0,20.21,8a4.1,4.1,0,0,0-.62-.4l-.78-.4Q18.37,7,18,6.79a3.55,3.55,0,0,1-.66-.5,2.1,2.1,0,0,1-.44-.62,1.93,1.93,0,0,1-.16-.82,1.92,1.92,0,0,1,.25-1,2.16,2.16,0,0,1,.66-.7,3,3,0,0,1,.93-.41,4.28,4.28,0,0,1,1.07-.13,4.1,4.1,0,0,1,1.81.3V4a3.28,3.28,0,0,0-1.91-.52,3.14,3.14,0,0,0-.64.07,1.82,1.82,0,0,0-.57.22,1.27,1.27,0,0,0-.41.39,1,1,0,0,0-.16.59,1.21,1.21,0,0,0,.12.56,1.36,1.36,0,0,0,.35.43,3.53,3.53,0,0,0,.57.38l.78.4q.45.22.86.47a3.91,3.91,0,0,1,.71.54,2.42,2.42,0,0,1,.48.66A1.86,1.86,0,0,1,21.8,9a2.11,2.11,0,0,1-.24,1.05,2,2,0,0,1-.66.7,2.87,2.87,0,0,1-1,.39,5.21,5.21,0,0,1-1.14.12l-.49,0-.6-.09a4.88,4.88,0,0,1-.58-.15A1.8,1.8,0,0,1,16.71,10.8Z" fill="#575757"/><path d="M28.33,11.14h-1V7.68q0-1.87-1.39-1.87a1.52,1.52,0,0,0-1.18.54,2,2,0,0,0-.48,1.39v3.4h-1V2.26h1V6.13h0A2.18,2.18,0,0,1,26.3,5q2,0,2,2.44Z" fill="#575757"/><path d="M32.65,11.28a2.78,2.78,0,0,1-2.12-.84,3.11,3.11,0,0,1-.79-2.23,3.24,3.24,0,0,1,.83-2.36A3,3,0,0,1,32.79,5a2.69,2.69,0,0,1,2.09.83,3.28,3.28,0,0,1,.75,2.29,3.22,3.22,0,0,1-.81,2.3A2.84,2.84,0,0,1,32.65,11.28Zm.07-5.47a1.83,1.83,0,0,0-1.46.63,2.59,2.59,0,0,0-.54,1.74,2.45,2.45,0,0,0,.54,1.68,1.85,1.85,0,0,0,1.46.62,1.76,1.76,0,0,0,1.43-.6,2.62,2.62,0,0,0,.5-1.72,2.66,2.66,0,0,0-.5-1.73A1.75,1.75,0,0,0,32.72,5.81Z" fill="#575757"/><path d="M44.73,5.14l-1.8,6h-1L40.7,6.84a2.8,2.8,0,0,1-.09-.56h0a2.63,2.63,0,0,1-.12.54l-1.34,4.31h-1l-1.82-6h1l1.24,4.51a2.72,2.72,0,0,1,.08.54h0a2.52,2.52,0,0,1,.11-.55l1.38-4.5h.88l1.24,4.52a3.23,3.23,0,0,1,.09.54h0a2.49,2.49,0,0,1,.1-.54l1.22-4.52Z" fill="#575757"/><path d="M50.09,11.14h-1V2.26h1Z" fill="#575757"/><path d="M56.33,11.14h-1V10.2h0a2,2,0,0,1-1.85,1.08,2,2,0,0,1-1.4-.47,1.64,1.64,0,0,1-.51-1.26q0-1.68,2-2l1.8-.25q0-1.53-1.24-1.53a3,3,0,0,0-2,.74v-1a3.72,3.72,0,0,1,2-.56q2.12,0,2.12,2.24Zm-1-3-1.45.2a2.35,2.35,0,0,0-1,.33,1,1,0,0,0-.34.84.92.92,0,0,0,.31.72,1.21,1.21,0,0,0,.83.28A1.54,1.54,0,0,0,54.9,10a1.79,1.79,0,0,0,.47-1.27Z" fill="#575757"/><path d="M59.13,10.27h0v.87h-1V2.26h1V6.19h0A2.27,2.27,0,0,1,61.2,5,2.2,2.2,0,0,1,63,5.8,3.33,3.33,0,0,1,63.66,8a3.72,3.72,0,0,1-.73,2.41,2.44,2.44,0,0,1-2,.91A2,2,0,0,1,59.13,10.27Zm0-2.42v.84A1.78,1.78,0,0,0,59.58,10a1.72,1.72,0,0,0,2.6-.15,3.06,3.06,0,0,0,.5-1.86,2.42,2.42,0,0,0-.46-1.57A1.53,1.53,0,0,0,61,5.81a1.7,1.7,0,0,0-1.35.58A2.14,2.14,0,0,0,59.1,7.85Z" fill="#575757"/><path d="M70,8.38H65.78a2.24,2.24,0,0,0,.54,1.55,1.86,1.86,0,0,0,1.42.54A3,3,0,0,0,69.6,9.8v.9a3.48,3.48,0,0,1-2.09.57,2.54,2.54,0,0,1-2-.82,3.35,3.35,0,0,1-.73-2.3,3.28,3.28,0,0,1,.79-2.28,2.55,2.55,0,0,1,2-.88,2.26,2.26,0,0,1,1.82.76A3.18,3.18,0,0,1,70,7.88Zm-1-.81a2,2,0,0,0-.4-1.29,1.37,1.37,0,0,0-1.1-.46,1.55,1.55,0,0,0-1.15.49,2.21,2.21,0,0,0-.59,1.27Z" fill="#575757"/><path d="M72.43,11.14h-1V2.26h1Z" fill="#575757"/></svg>