<svg id="Layer_1" data-name="Layer 1" xmlns="http://www.w3.org/2000/svg" width="158" height="24" viewBox="0 0 158 24"><title>text-boxes-single-line-disabled</title><g opacity="0.5"><rect x="0.5" y="0.5" width="157" height="23" fill="#fff"/><path d="M157,1V23H1V1H157m1-1H0V24H158V0Z" fill="#a8abae"/></g><g opacity="0.5"><path d="M15.67,16.14h-1V10.5q0-.67.08-1.63h0a5.23,5.23,0,0,1-.25.81l-2.87,6.46h-.48L8.28,9.73A5,5,0,0,1,8,8.87H8q0,.5,0,1.65v5.63H7.1V7.74H8.4L11,13.6a7.5,7.5,0,0,1,.39,1h0q.25-.69.4-1l2.63-5.84h1.23Z" fill="#2b3033"/><path d="M22.52,10.14l-2.76,7Q19,19,17.69,19a2.2,2.2,0,0,1-.63-.08V18a1.78,1.78,0,0,0,.57.11,1.18,1.18,0,0,0,1.09-.87l.48-1.14-2.34-6h1.07l1.62,4.62q0,.09.12.46h0q0-.14.12-.45l1.71-4.63Z" fill="#2b3033"/><path d="M28,13v3.18H27V7.74h2.31a3,3,0,0,1,2.09.66,2.34,2.34,0,0,1,.74,1.85,2.55,2.55,0,0,1-.82,2,3.15,3.15,0,0,1-2.22.76Zm0-4.34v3.45h1a2.31,2.31,0,0,0,1.56-.47,1.65,1.65,0,0,0,.54-1.32q0-1.66-2-1.66Z" fill="#2b3033"/><path d="M37.47,16.14h-1V15.2h0a2,2,0,0,1-1.85,1.08,2,2,0,0,1-1.4-.47,1.64,1.64,0,0,1-.51-1.26q0-1.68,2-2l1.8-.25q0-1.53-1.24-1.53a3,3,0,0,0-2,.74v-1a3.72,3.72,0,0,1,2-.56q2.12,0,2.12,2.24Zm-1-3-1.45.2a2.35,2.35,0,0,0-1,.33,1,1,0,0,0-.34.84.92.92,0,0,0,.31.72,1.21,1.21,0,0,0,.83.28A1.54,1.54,0,0,0,36,15a1.79,1.79,0,0,0,.47-1.27Z" fill="#2b3033"/><path d="M44.26,16.14h-1V12.72q0-1.91-1.39-1.91a1.51,1.51,0,0,0-1.19.54,2,2,0,0,0-.47,1.37v3.42h-1v-6h1v1h0a2.17,2.17,0,0,1,2-1.14,1.84,1.84,0,0,1,1.51.64,2.83,2.83,0,0,1,.52,1.84Z" fill="#2b3033"/><path d="M50.89,13.38H46.66a2.24,2.24,0,0,0,.54,1.55,1.86,1.86,0,0,0,1.42.54,3,3,0,0,0,1.86-.67v.9a3.48,3.48,0,0,1-2.09.57,2.54,2.54,0,0,1-2-.82,3.35,3.35,0,0,1-.73-2.3,3.28,3.28,0,0,1,.79-2.28,2.55,2.55,0,0,1,2-.88,2.26,2.26,0,0,1,1.82.76,3.18,3.18,0,0,1,.64,2.12Zm-1-.81a2,2,0,0,0-.4-1.29,1.37,1.37,0,0,0-1.1-.46,1.55,1.55,0,0,0-1.15.49,2.21,2.21,0,0,0-.59,1.27Z" fill="#2b3033"/><path d="M53.31,16.14h-1V7.26h1Z" fill="#2b3033"/></g></svg>