<svg id="Layer_1" data-name="Layer 1" xmlns="http://www.w3.org/2000/svg" xmlns:xlink="http://www.w3.org/1999/xlink" width="239" height="24" viewBox="0 0 239 24"><defs><linearGradient id="linear-gradient" x1="84" y1="3.2" x2="84" y2="20.45" gradientUnits="userSpaceOnUse"><stop offset="0" stop-color="#ebe9ec"/><stop offset="0.28" stop-color="#e5e6e9"/><stop offset="1" stop-color="#dadfe2"/></linearGradient><linearGradient id="linear-gradient-2" x1="230" y1="0.5" x2="230" y2="23.5" xlink:href="#linear-gradient"/></defs><title>text-boxes-path-hover</title><rect x="95.5" y="0.5" width="123" height="23" fill="#fff"/><path d="M218,1V23H96V1H218m1-1H95V24H219V0Z" fill="#4384b7"/><rect x="75.5" y="0.5" width="17" height="23" fill="url(#linear-gradient)"/><path d="M92,1V23H76V1H92m1-1H75V24H93V0Z" fill="#a8abae"/><path d="M85,8v2H83V8h2m1-1H82v4h4V7Z" fill="#2b3033"/><path d="M89,12v2H87V12h2m1-1H86v4h4V11Z" fill="#2b3033"/><path d="M81,12v2H79V12h2m1-1H78v4h4V11Z" fill="#2b3033"/><path d="M6.1,16V7.6H8.42q4.44,0,4.44,4.1a4.13,4.13,0,0,1-1.23,3.13A4.58,4.58,0,0,1,8.33,16Zm1-7.51v6.62H8.34a3.56,3.56,0,0,0,2.57-.88,3.32,3.32,0,0,0,.92-2.51q0-3.23-3.43-3.23Z" fill="#2b3033"/><path d="M19.21,13.24H15a2.24,2.24,0,0,0,.54,1.55,1.86,1.86,0,0,0,1.42.54,3,3,0,0,0,1.86-.67v.9a3.48,3.48,0,0,1-2.09.57,2.54,2.54,0,0,1-2-.82A3.35,3.35,0,0,1,14,13a3.28,3.28,0,0,1,.79-2.28,2.55,2.55,0,0,1,2-.88,2.26,2.26,0,0,1,1.82.76,3.18,3.18,0,0,1,.64,2.12Zm-1-.81a2,2,0,0,0-.4-1.29,1.37,1.37,0,0,0-1.1-.46,1.55,1.55,0,0,0-1.15.49A2.21,2.21,0,0,0,15,12.43Z" fill="#2b3033"/><path d="M23.63,8A1.28,1.28,0,0,0,23,7.8q-1,0-1,1.27V10h1.41v.82H22V16H21V10.82H20V10h1V9a2,2,0,0,1,.54-1.49A1.84,1.84,0,0,1,22.93,7a1.88,1.88,0,0,1,.7.11Z" fill="#2b3033"/><path d="M28.71,16h-1v-.94h0a2,2,0,0,1-1.85,1.08,2,2,0,0,1-1.4-.47A1.64,1.64,0,0,1,24,14.41q0-1.68,2-2l1.8-.25q0-1.53-1.24-1.53a3,3,0,0,0-2,.74v-1a3.72,3.72,0,0,1,2-.56q2.12,0,2.12,2.24Zm-1-3-1.45.2a2.35,2.35,0,0,0-1,.33,1,1,0,0,0-.34.84.92.92,0,0,0,.31.72,1.21,1.21,0,0,0,.83.28,1.54,1.54,0,0,0,1.18-.5,1.79,1.79,0,0,0,.47-1.27Z" fill="#2b3033"/><path d="M35.38,16h-1v-.95h0a2,2,0,0,1-1.85,1.09q-2.14,0-2.14-2.55V10h1v3.43q0,1.9,1.45,1.9A1.47,1.47,0,0,0,34,14.81a2,2,0,0,0,.45-1.36V10h1Z" fill="#2b3033"/><path d="M38.28,16h-1V7.12h1Z" fill="#2b3033"/><path d="M43,15.94a1.85,1.85,0,0,1-.9.19q-1.58,0-1.58-1.76V10.82h-1V10h1V8.54l1-.31V10H43v.82H41.49V14.2a1.4,1.4,0,0,0,.21.86.82.82,0,0,0,.68.26,1,1,0,0,0,.63-.2Z" fill="#2b3033"/><line x1="83" y1="10" x2="81" y2="12" fill="none" stroke="#2b3033" stroke-miterlimit="10"/><line x1="85" y1="10" x2="87" y2="12" fill="none" stroke="#2b3033" stroke-miterlimit="10"/><rect x="221.5" y="0.5" width="17" height="23" fill="url(#linear-gradient-2)"/><path d="M238,1V23H222V1h16m1-1H221V24h18V0Z" fill="#a8abae"/><rect x="225" y="18" width="2" height="2" fill="#2b3033"/><rect x="229" y="18" width="2" height="2" fill="#2b3033"/><rect x="233" y="18" width="2" height="2" fill="#2b3033"/></svg>