<svg id="Layer_1" data-name="Layer 1" xmlns="http://www.w3.org/2000/svg" xmlns:xlink="http://www.w3.org/1999/xlink" width="159" height="24" viewBox="0 0 159 24"><defs><linearGradient id="linear-gradient" x1="146.5" y1="18.5" x2="158.5" y2="18.5" gradientUnits="userSpaceOnUse"><stop offset="0" stop-color="#ebe9ec"/><stop offset="0.28" stop-color="#e5e6e9"/><stop offset="1" stop-color="#dadfe2"/></linearGradient></defs><title>text-boxes-single-spinner-mouse-down-increment</title><rect x="146.5" y="13.5" width="12" height="10" fill="url(#linear-gradient)"/><path d="M158,14v9H147V14h11m1-1H146V24h13V13Z" fill="#a8abae"/><rect x="0.5" y="0.5" width="143" height="23" fill="#fff"/><path d="M143,1V23H1V1H143m1-1H0V24H144V0Z" fill="#a8abae"/><rect x="146.5" y="0.5" width="12" height="10" fill="#4480bc"/><path d="M158,1v9H147V1h11m1-1H146V11h13V0Z" fill="#285078"/><path d="M131.67,8.16,131.2,9q-.27.5-.58,1.12T130,11.44q-.32.71-.59,1.48t-.48,1.54a11.49,11.49,0,0,0-.3,1.54h-1a11.68,11.68,0,0,1,.33-1.53q.22-.78.5-1.54t.59-1.45q.31-.7.6-1.28t.54-1l.39-.7h-4.21V7.6h5.34Z" fill="#2b3033"/><path d="M137.9,13.43a2.83,2.83,0,0,1-.21,1.11,2.43,2.43,0,0,1-.6.86,2.69,2.69,0,0,1-.94.55,3.68,3.68,0,0,1-1.22.19,3.38,3.38,0,0,1-1.74-.35v-1a3.2,3.2,0,0,0,1.75.55,2.37,2.37,0,0,0,.82-.13,1.83,1.83,0,0,0,.62-.37,1.61,1.61,0,0,0,.4-.58,2,2,0,0,0,.14-.74,1.59,1.59,0,0,0-.55-1.29,2.42,2.42,0,0,0-1.6-.47H134l-.37,0-.33,0,.29-4.21h3.88v.87h-3.05l-.17,2.47.4,0h.38a3.77,3.77,0,0,1,1.2.18,2.53,2.53,0,0,1,.89.5,2.1,2.1,0,0,1,.56.8A2.8,2.8,0,0,1,137.9,13.43Z" fill="#2b3033"/><polygon points="148.94 16 156 16 152.47 20.74 148.94 16" fill="#2b3033"/><polygon points="156 8 148.94 8 152.47 3.26 156 8" fill="#fff"/></svg>