<svg id="Layer_1" data-name="Layer 1" xmlns="http://www.w3.org/2000/svg" width="364" height="40" viewBox="0 0 364 40"><title>hyperlink-wording-dont</title><rect width="363" height="39" fill="#eef0ef"/><path d="M12.34,16.39A4.39,4.39,0,0,1,7.95,12a4.39,4.39,0,0,1,4.39-4.39A4.39,4.39,0,0,1,16.73,12a4.39,4.39,0,0,1-4.39,4.39Zm0-8.27A3.88,3.88,0,0,0,8.46,12a3.88,3.88,0,0,0,3.88,3.87A3.87,3.87,0,0,0,16.22,12a3.88,3.88,0,0,0-3.87-3.88Zm1.59,6.15a2.59,2.59,0,0,1-1.45.4,2.62,2.62,0,0,1-1.89-.73,2.44,2.44,0,0,1-.76-1.83,2.72,2.72,0,0,1,.78-2,2.78,2.78,0,0,1,2-.76,2.59,2.59,0,0,1,1.27.31v.88a2,2,0,0,0-1.34-.42,1.86,1.86,0,0,0-1.36.53A1.9,1.9,0,0,0,10.67,12a1.83,1.83,0,0,0,.55,1.39,1.94,1.94,0,0,0,1.39.52,2,2,0,0,0,1.32-.46Z" fill="#2b3033"/><path d="M21.92,16.2H21V8.94a2.22,2.22,0,0,1-.33.25,5.3,5.3,0,0,1-.48.28q-.27.14-.56.26a4.09,4.09,0,0,1-.58.19V9a5.59,5.59,0,0,0,.67-.24q.35-.15.7-.33T21,8a5.14,5.14,0,0,0,.53-.4h.36Z" fill="#2b3033"/><path d="M30,11.5a8.37,8.37,0,0,1-.23,2.05,4.58,4.58,0,0,1-.67,1.52,3,3,0,0,1-1.07.95,3.11,3.11,0,0,1-1.44.33,3.45,3.45,0,0,1-1.46-.29v-.92a3,3,0,0,0,1.49.39,2.16,2.16,0,0,0,1-.23,2.11,2.11,0,0,0,.76-.68,3.35,3.35,0,0,0,.47-1.1A6.24,6.24,0,0,0,29.06,12h0a1.92,1.92,0,0,1-1.87,1.08,2.52,2.52,0,0,1-1-.19,2.27,2.27,0,0,1-.78-.54,2.47,2.47,0,0,1-.51-.83,3,3,0,0,1-.18-1.06,3.09,3.09,0,0,1,.2-1.14,2.65,2.65,0,0,1,.56-.89,2.52,2.52,0,0,1,.86-.58,2.8,2.8,0,0,1,1.08-.21,2.39,2.39,0,0,1,1.12.25,2.25,2.25,0,0,1,.82.74,3.68,3.68,0,0,1,.51,1.2A6.87,6.87,0,0,1,30,11.5Zm-1-.86a2.93,2.93,0,0,0-.13-.88,2.14,2.14,0,0,0-.35-.68A1.56,1.56,0,0,0,28,8.63a1.47,1.47,0,0,0-.67-.16,1.52,1.52,0,0,0-.64.14,1.55,1.55,0,0,0-.52.39,1.85,1.85,0,0,0-.35.59,2.15,2.15,0,0,0-.13.75,2.46,2.46,0,0,0,.12.8,1.66,1.66,0,0,0,.34.59,1.48,1.48,0,0,0,.54.37,1.81,1.81,0,0,0,.69.13A1.59,1.59,0,0,0,28,12.1a1.67,1.67,0,0,0,.52-.34,1.57,1.57,0,0,0,.35-.5A1.55,1.55,0,0,0,29,10.63Z" fill="#2b3033"/><path d="M31.15,13.86a2.24,2.24,0,0,1,.11-.67,2.43,2.43,0,0,1,.3-.63A2.5,2.5,0,0,1,32,12a2.32,2.32,0,0,1,.66-.38,2.49,2.49,0,0,1-.87-.78,1.85,1.85,0,0,1-.32-1.06,2,2,0,0,1,.67-1.54,2.29,2.29,0,0,1,.75-.45,2.8,2.8,0,0,1,1.88,0,2.33,2.33,0,0,1,.75.45,2,2,0,0,1,.49.68,2.05,2.05,0,0,1,.18.85,1.85,1.85,0,0,1-.32,1.06,2.52,2.52,0,0,1-.86.78,2.3,2.3,0,0,1,.65.38,2.53,2.53,0,0,1,.48.53,2.43,2.43,0,0,1,.3.63,2.24,2.24,0,0,1,.11.67,2.5,2.5,0,0,1-.2,1,2.25,2.25,0,0,1-.56.78,2.58,2.58,0,0,1-.86.51,3.22,3.22,0,0,1-1.1.18,3.18,3.18,0,0,1-1.1-.18,2.62,2.62,0,0,1-.86-.51,2.27,2.27,0,0,1-.57-.78A2.46,2.46,0,0,1,31.15,13.86Zm1-.08a2,2,0,0,0,.12.71,1.53,1.53,0,0,0,.34.54,1.48,1.48,0,0,0,.53.34,1.93,1.93,0,0,0,.69.12,1.83,1.83,0,0,0,.68-.12,1.58,1.58,0,0,0,.54-.35,1.55,1.55,0,0,0,.35-.54,1.89,1.89,0,0,0,.13-.7,1.8,1.8,0,0,0-.12-.66,1.65,1.65,0,0,0-.34-.54,1.61,1.61,0,0,0-.53-.37,1.73,1.73,0,0,0-.7-.13,1.75,1.75,0,0,0-.67.13,1.61,1.61,0,0,0-.53.35,1.63,1.63,0,0,0-.35.54A1.79,1.79,0,0,0,32.19,13.78Zm.3-3.9a1.39,1.39,0,0,0,.85,1.3,1.38,1.38,0,0,0,1.08,0,1.4,1.4,0,0,0,.44-.3,1.46,1.46,0,0,0,.3-.45,1.35,1.35,0,0,0,.11-.55,1.44,1.44,0,0,0-.11-.56,1.38,1.38,0,0,0-1.29-.85,1.4,1.4,0,0,0-.57.11,1.37,1.37,0,0,0-.44.3,1.32,1.32,0,0,0-.28.45A1.51,1.51,0,0,0,32.49,9.88Z" fill="#2b3033"/><path d="M43.08,13.54a3.11,3.11,0,0,1-.2,1.13,2.72,2.72,0,0,1-.55.89,2.46,2.46,0,0,1-.84.58,2.65,2.65,0,0,1-1.05.21,2.33,2.33,0,0,1-2-1,3.64,3.64,0,0,1-.53-1.21,6.56,6.56,0,0,1-.18-1.61,7.57,7.57,0,0,1,.24-2A4.83,4.83,0,0,1,38.67,9a3.19,3.19,0,0,1,1.08-1,2.9,2.9,0,0,1,1.41-.35,3.4,3.4,0,0,1,1.39.24v.91a3,3,0,0,0-1.37-.33,2,2,0,0,0-1,.25,2.33,2.33,0,0,0-.77.71,3.47,3.47,0,0,0-.5,1.11A5.63,5.63,0,0,0,38.73,12h0a2,2,0,0,1,1.92-1,2.52,2.52,0,0,1,1,.19,2.14,2.14,0,0,1,.76.53,2.39,2.39,0,0,1,.48.82A3.11,3.11,0,0,1,43.08,13.54Zm-1,.12a2.61,2.61,0,0,0-.11-.79,1.72,1.72,0,0,0-.32-.6,1.38,1.38,0,0,0-.51-.38,1.73,1.73,0,0,0-.69-.13,1.62,1.62,0,0,0-.66.13,1.65,1.65,0,0,0-.53.37,1.71,1.71,0,0,0-.47,1.19,2.61,2.61,0,0,0,.12.81,2.1,2.1,0,0,0,.35.66,1.64,1.64,0,0,0,.53.44,1.45,1.45,0,0,0,.68.16,1.56,1.56,0,0,0,.66-.14,1.48,1.48,0,0,0,.51-.38,1.78,1.78,0,0,0,.33-.59A2.33,2.33,0,0,0,42.09,13.66Z" fill="#2b3033"/><path d="M47.6,13.24H44.4v-.76h3.2Z" fill="#2b3033"/><path d="M52.88,10a1.74,1.74,0,0,0-.12-.67,1.3,1.3,0,0,0-.82-.76,1.92,1.92,0,0,0-.61-.09,2,2,0,0,0-.55.08,2.68,2.68,0,0,0-.52.21,3.23,3.23,0,0,0-.49.32,3.56,3.56,0,0,0-.44.42v-1a2.87,2.87,0,0,1,.91-.6,3.19,3.19,0,0,1,1.22-.21,3,3,0,0,1,1,.15,2.19,2.19,0,0,1,.76.44,2,2,0,0,1,.51.71,2.39,2.39,0,0,1,.18,1,3.32,3.32,0,0,1-.11.9,2.79,2.79,0,0,1-.35.76,3.68,3.68,0,0,1-.58.69,8.26,8.26,0,0,1-.83.67q-.59.42-1,.72a4.31,4.31,0,0,0-.61.56,1.62,1.62,0,0,0-.32.52,1.82,1.82,0,0,0-.09.6h4.18v.86H49v-.42a3.47,3.47,0,0,1,.12-.95,2.46,2.46,0,0,1,.39-.78,4.32,4.32,0,0,1,.71-.74q.44-.37,1.07-.83a6.76,6.76,0,0,0,.76-.63,3.26,3.26,0,0,0,.5-.6,2.15,2.15,0,0,0,.27-.61A2.61,2.61,0,0,0,52.88,10Z" fill="#2b3033"/><path d="M60.8,12a8.25,8.25,0,0,1-.19,1.87,4.36,4.36,0,0,1-.55,1.37,2.48,2.48,0,0,1-.88.85,2.42,2.42,0,0,1-1.19.29,2.26,2.26,0,0,1-1.13-.28,2.36,2.36,0,0,1-.83-.81,4.11,4.11,0,0,1-.52-1.31,8.1,8.1,0,0,1-.18-1.78,9.17,9.17,0,0,1,.18-1.95,4.45,4.45,0,0,1,.54-1.42,2.41,2.41,0,0,1,.89-.86,2.49,2.49,0,0,1,1.22-.29Q60.8,7.66,60.8,12Zm-1,.09q0-3.59-1.71-3.59t-1.8,3.65q0,3.4,1.76,3.4T59.82,12.06Z" fill="#2b3033"/><path d="M65.54,16.2h-1V8.94a2.22,2.22,0,0,1-.33.25,5.3,5.3,0,0,1-.48.28q-.27.14-.56.26a4.09,4.09,0,0,1-.58.19V9a5.59,5.59,0,0,0,.67-.24q.35-.15.7-.33T64.64,8a5.14,5.14,0,0,0,.53-.4h.36Z" fill="#2b3033"/><path d="M73.68,8.36l-.47.83q-.27.5-.58,1.12T72,11.64q-.32.71-.59,1.48t-.48,1.54a11.49,11.49,0,0,0-.3,1.54h-1a11.68,11.68,0,0,1,.33-1.53q.22-.78.5-1.54T71,11.68q.31-.7.6-1.28t.54-1l.39-.7H68.34V7.8h5.34Z" fill="#2b3033"/><path d="M75.54,16.33a.62.62,0,0,1-.46-.19.64.64,0,0,1-.19-.46.65.65,0,0,1,.19-.47.62.62,0,0,1,.46-.2.63.63,0,0,1,.47.2.64.64,0,0,1,.19.47.63.63,0,0,1-.19.46A.64.64,0,0,1,75.54,16.33Z" fill="#2b3033"/><path d="M88,16.2H86.79L82.46,9.5A2.8,2.8,0,0,1,82.19,9h0a8.65,8.65,0,0,1,0,1.15V16.2h-1V7.8H82.5l4.21,6.59q.26.41.34.56h0A8.89,8.89,0,0,1,87,13.72V7.8h1Z" fill="#2b3033"/><path d="M94.36,16.2h-1v-.94h0a2,2,0,0,1-1.85,1.08,2,2,0,0,1-1.4-.47,1.64,1.64,0,0,1-.51-1.26q0-1.68,2-2l1.8-.25q0-1.53-1.24-1.53a3,3,0,0,0-2,.74v-1a3.72,3.72,0,0,1,2-.56q2.12,0,2.12,2.24Zm-1-3-1.45.2a2.35,2.35,0,0,0-1,.33,1,1,0,0,0-.34.84.92.92,0,0,0,.31.72,1.21,1.21,0,0,0,.83.28,1.54,1.54,0,0,0,1.18-.5,1.79,1.79,0,0,0,.47-1.27Z" fill="#2b3033"/><path d="M99,16.14a1.85,1.85,0,0,1-.9.19q-1.58,0-1.58-1.76V11h-1V10.2h1V8.74l1-.31V10.2H99V11H97.45V14.4a1.4,1.4,0,0,0,.21.86.82.82,0,0,0,.68.26,1,1,0,0,0,.63-.2Z" fill="#2b3033"/><path d="M100.73,8.68a.61.61,0,0,1-.44-.18.59.59,0,0,1-.18-.45.62.62,0,0,1,.62-.63.62.62,0,0,1,.45.18.63.63,0,0,1,0,.89A.62.62,0,0,1,100.73,8.68Zm.47,7.52h-1v-6h1Z" fill="#2b3033"/><path d="M105.65,16.34a2.78,2.78,0,0,1-2.12-.84,3.11,3.11,0,0,1-.79-2.23,3.24,3.24,0,0,1,.83-2.36,3,3,0,0,1,2.23-.85,2.69,2.69,0,0,1,2.09.83,3.28,3.28,0,0,1,.75,2.29,3.22,3.22,0,0,1-.81,2.3A2.84,2.84,0,0,1,105.65,16.34Zm.07-5.47a1.83,1.83,0,0,0-1.46.63,2.59,2.59,0,0,0-.54,1.74,2.45,2.45,0,0,0,.54,1.68,1.85,1.85,0,0,0,1.46.62,1.76,1.76,0,0,0,1.43-.6,2.62,2.62,0,0,0,.5-1.72,2.66,2.66,0,0,0-.5-1.73A1.75,1.75,0,0,0,105.72,10.87Z" fill="#2b3033"/><path d="M115.16,16.2h-1V12.78q0-1.91-1.39-1.91a1.51,1.51,0,0,0-1.19.54,2,2,0,0,0-.47,1.37V16.2h-1v-6h1v1h0a2.17,2.17,0,0,1,2-1.14,1.84,1.84,0,0,1,1.51.64,2.83,2.83,0,0,1,.52,1.84Z" fill="#2b3033"/><path d="M121.26,16.2h-1v-.94h0a2,2,0,0,1-1.85,1.08,2,2,0,0,1-1.4-.47,1.64,1.64,0,0,1-.51-1.26q0-1.68,2-2l1.8-.25q0-1.53-1.24-1.53a3,3,0,0,0-2,.74v-1a3.72,3.72,0,0,1,2-.56q2.12,0,2.12,2.24Zm-1-3-1.45.2a2.35,2.35,0,0,0-1,.33,1,1,0,0,0-.34.84.92.92,0,0,0,.31.72,1.21,1.21,0,0,0,.83.28,1.54,1.54,0,0,0,1.18-.5,1.79,1.79,0,0,0,.47-1.27Z" fill="#2b3033"/><path d="M124,16.2h-1V7.32h1Z" fill="#2b3033"/><path d="M130.38,16.2h-1V7.8h1Z" fill="#2b3033"/><path d="M137.44,16.2h-1V12.78q0-1.91-1.39-1.91a1.51,1.51,0,0,0-1.19.54,2,2,0,0,0-.47,1.37V16.2h-1v-6h1v1h0a2.17,2.17,0,0,1,2-1.14,1.84,1.84,0,0,1,1.51.64,2.83,2.83,0,0,1,.52,1.84Z" fill="#2b3033"/><path d="M138.89,16V15a2.84,2.84,0,0,0,1.73.58q1.27,0,1.27-.84a.73.73,0,0,0-.11-.41,1.08,1.08,0,0,0-.29-.3,2.26,2.26,0,0,0-.43-.23l-.54-.21a6.9,6.9,0,0,1-.7-.32,2.12,2.12,0,0,1-.5-.36,1.35,1.35,0,0,1-.3-.46,1.63,1.63,0,0,1-.1-.6,1.43,1.43,0,0,1,.19-.75,1.71,1.71,0,0,1,.52-.54,2.4,2.4,0,0,1,.74-.33,3.26,3.26,0,0,1,.85-.11,3.44,3.44,0,0,1,1.39.27v1a2.72,2.72,0,0,0-1.52-.43,1.78,1.78,0,0,0-.49.06,1.19,1.19,0,0,0-.37.17.8.8,0,0,0-.24.27.7.7,0,0,0-.08.34.82.82,0,0,0,.08.39.86.86,0,0,0,.25.28,1.9,1.9,0,0,0,.4.22l.53.22a7.42,7.42,0,0,1,.71.31,2.45,2.45,0,0,1,.54.36,1.42,1.42,0,0,1,.34.47,1.5,1.5,0,0,1,.12.63,1.48,1.48,0,0,1-.2.77,1.68,1.68,0,0,1-.52.54,2.4,2.4,0,0,1-.76.32,3.73,3.73,0,0,1-.9.11A3.4,3.4,0,0,1,138.89,16Z" fill="#2b3033"/><path d="M147.13,16.14a1.85,1.85,0,0,1-.9.19q-1.58,0-1.58-1.76V11h-1V10.2h1V8.74l1-.31V10.2h1.51V11h-1.51V14.4a1.4,1.4,0,0,0,.21.86.82.82,0,0,0,.68.26,1,1,0,0,0,.63-.2Z" fill="#2b3033"/><path d="M151.54,11.17a1.18,1.18,0,0,0-.73-.19,1.23,1.23,0,0,0-1,.58,2.68,2.68,0,0,0-.41,1.58V16.2h-1v-6h1v1.24h0a2.1,2.1,0,0,1,.63-1,1.43,1.43,0,0,1,.94-.35,1.57,1.57,0,0,1,.57.08Z" fill="#2b3033"/><path d="M157.43,16.2h-1v-.95h0a2,2,0,0,1-1.85,1.09q-2.14,0-2.14-2.55V10.2h1v3.43q0,1.9,1.45,1.9A1.47,1.47,0,0,0,156,15a2,2,0,0,0,.45-1.36V10.2h1Z" fill="#2b3033"/><path d="M167.89,16.2h-1V12.76a2.6,2.6,0,0,0-.31-1.44,1.17,1.17,0,0,0-1-.45,1.28,1.28,0,0,0-1,.56,2.15,2.15,0,0,0-.43,1.35V16.2h-1V12.64q0-1.77-1.37-1.77a1.26,1.26,0,0,0-1,.53,2.19,2.19,0,0,0-.41,1.38V16.2h-1v-6h1v.95h0a2,2,0,0,1,1.86-1.09,1.73,1.73,0,0,1,1.7,1.24,2.14,2.14,0,0,1,2-1.24q2,0,2,2.44Z" fill="#2b3033"/><path d="M174.53,13.44h-4.24a2.24,2.24,0,0,0,.54,1.55,1.86,1.86,0,0,0,1.42.54,3,3,0,0,0,1.86-.67v.9a3.48,3.48,0,0,1-2.09.57,2.54,2.54,0,0,1-2-.82,3.35,3.35,0,0,1-.73-2.3,3.28,3.28,0,0,1,.79-2.28,2.55,2.55,0,0,1,2-.88,2.26,2.26,0,0,1,1.82.76,3.18,3.18,0,0,1,.64,2.12Zm-1-.81a2,2,0,0,0-.4-1.29,1.37,1.37,0,0,0-1.1-.46,1.55,1.55,0,0,0-1.15.49,2.21,2.21,0,0,0-.59,1.27Z" fill="#2b3033"/><path d="M181,16.2h-1V12.78q0-1.91-1.39-1.91a1.51,1.51,0,0,0-1.19.54,2,2,0,0,0-.47,1.37V16.2h-1v-6h1v1h0a2.17,2.17,0,0,1,2-1.14,1.84,1.84,0,0,1,1.51.64,2.83,2.83,0,0,1,.52,1.84Z" fill="#2b3033"/><path d="M185.56,16.14a1.85,1.85,0,0,1-.9.19q-1.58,0-1.58-1.76V11h-1V10.2h1V8.74l1-.31V10.2h1.51V11H184V14.4a1.4,1.4,0,0,0,.21.86.82.82,0,0,0,.68.26,1,1,0,0,0,.63-.2Z" fill="#2b3033"/><path d="M186.48,16V15a2.84,2.84,0,0,0,1.73.58q1.27,0,1.27-.84a.73.73,0,0,0-.11-.41,1.08,1.08,0,0,0-.29-.3,2.26,2.26,0,0,0-.43-.23l-.54-.21a6.9,6.9,0,0,1-.7-.32,2.12,2.12,0,0,1-.5-.36,1.35,1.35,0,0,1-.3-.46,1.63,1.63,0,0,1-.1-.6,1.43,1.43,0,0,1,.19-.75,1.71,1.71,0,0,1,.52-.54,2.4,2.4,0,0,1,.74-.33,3.26,3.26,0,0,1,.85-.11,3.44,3.44,0,0,1,1.39.27v1a2.72,2.72,0,0,0-1.52-.43,1.78,1.78,0,0,0-.49.06,1.19,1.19,0,0,0-.37.17.8.8,0,0,0-.24.27.7.7,0,0,0-.08.34.82.82,0,0,0,.08.39.86.86,0,0,0,.25.28,1.9,1.9,0,0,0,.4.22l.53.22a7.42,7.42,0,0,1,.71.31,2.45,2.45,0,0,1,.54.36,1.42,1.42,0,0,1,.34.47,1.5,1.5,0,0,1,.12.63,1.48,1.48,0,0,1-.2.77,1.68,1.68,0,0,1-.52.54,2.4,2.4,0,0,1-.76.32,3.73,3.73,0,0,1-.9.11A3.4,3.4,0,0,1,186.48,16Z" fill="#2b3033"/><path d="M192.27,16.33a.62.62,0,0,1-.46-.19.64.64,0,0,1-.19-.46.65.65,0,0,1,.19-.47.62.62,0,0,1,.46-.2.63.63,0,0,1,.47.2.64.64,0,0,1,.19.47.63.63,0,0,1-.19.46A.64.64,0,0,1,192.27,16.33Z" fill="#2b3033"/><path d="M204.46,16.2h-1.09l-.89-2.36h-3.56l-.84,2.36H197l3.22-8.4h1ZM202.15,13l-1.32-3.58a3.43,3.43,0,0,1-.13-.56h0a3.14,3.14,0,0,1-.13.56L199.24,13Z" fill="#2b3033"/><path d="M206.52,16.2h-1V7.32h1Z" fill="#2b3033"/><path d="M209.43,16.2h-1V7.32h1Z" fill="#2b3033"/><path d="M217.79,11.17a1.18,1.18,0,0,0-.73-.19,1.23,1.23,0,0,0-1,.58,2.68,2.68,0,0,0-.41,1.58V16.2h-1v-6h1v1.24h0a2.1,2.1,0,0,1,.63-1,1.43,1.43,0,0,1,.94-.35,1.57,1.57,0,0,1,.57.08Z" fill="#2b3033"/><path d="M219.33,8.68a.61.61,0,0,1-.44-.18.59.59,0,0,1-.18-.45.62.62,0,0,1,.62-.63.62.62,0,0,1,.45.18.63.63,0,0,1,0,.89A.62.62,0,0,1,219.33,8.68Zm.47,7.52h-1v-6h1Z" fill="#2b3033"/><path d="M226.86,15.72q0,3.3-3.16,3.3a4.25,4.25,0,0,1-1.95-.42v-1a4,4,0,0,0,1.93.56q2.21,0,2.21-2.36v-.66h0a2.43,2.43,0,0,1-3.86.35,3.2,3.2,0,0,1-.68-2.15,3.74,3.74,0,0,1,.74-2.43,2.46,2.46,0,0,1,2-.9,2,2,0,0,1,1.8,1h0V10.2h1Zm-1-2.23V12.6a1.72,1.72,0,0,0-.48-1.22,1.59,1.59,0,0,0-1.2-.51,1.67,1.67,0,0,0-1.39.65,2.89,2.89,0,0,0-.5,1.81,2.48,2.48,0,0,0,.48,1.6,1.56,1.56,0,0,0,1.28.6,1.67,1.67,0,0,0,1.32-.57A2.14,2.14,0,0,0,225.9,13.49Z" fill="#2b3033"/><path d="M233.79,16.2h-1V12.74q0-1.87-1.39-1.87a1.52,1.52,0,0,0-1.18.54,2,2,0,0,0-.48,1.39v3.4h-1V7.32h1V11.2h0a2.18,2.18,0,0,1,2-1.14q2,0,2,2.44Z" fill="#2b3033"/><path d="M238.38,16.14a1.85,1.85,0,0,1-.9.19q-1.58,0-1.58-1.76V11h-1V10.2h1V8.74l1-.31V10.2h1.51V11h-1.51V14.4a1.4,1.4,0,0,0,.21.86.82.82,0,0,0,.68.26,1,1,0,0,0,.63-.2Z" fill="#2b3033"/><path d="M239.3,16V15a2.84,2.84,0,0,0,1.73.58q1.27,0,1.27-.84a.73.73,0,0,0-.11-.41,1.08,1.08,0,0,0-.29-.3,2.26,2.26,0,0,0-.43-.23l-.54-.21a6.9,6.9,0,0,1-.7-.32,2.12,2.12,0,0,1-.5-.36,1.35,1.35,0,0,1-.3-.46,1.63,1.63,0,0,1-.1-.6,1.43,1.43,0,0,1,.19-.75,1.71,1.71,0,0,1,.52-.54,2.4,2.4,0,0,1,.74-.33,3.26,3.26,0,0,1,.85-.11,3.44,3.44,0,0,1,1.39.27v1a2.72,2.72,0,0,0-1.52-.43,1.78,1.78,0,0,0-.49.06,1.19,1.19,0,0,0-.37.17.8.8,0,0,0-.24.27.7.7,0,0,0-.08.34.82.82,0,0,0,.08.39.86.86,0,0,0,.25.28,1.9,1.9,0,0,0,.4.22l.53.22a7.42,7.42,0,0,1,.71.31,2.45,2.45,0,0,1,.54.36,1.42,1.42,0,0,1,.34.47,1.5,1.5,0,0,1,.12.63,1.48,1.48,0,0,1-.2.77,1.68,1.68,0,0,1-.52.54,2.4,2.4,0,0,1-.76.32,3.73,3.73,0,0,1-.9.11A3.4,3.4,0,0,1,239.3,16Z" fill="#2b3033"/><path d="M251.17,11.17a1.18,1.18,0,0,0-.73-.19,1.23,1.23,0,0,0-1,.58,2.68,2.68,0,0,0-.41,1.58V16.2h-1v-6h1v1.24h0a2.1,2.1,0,0,1,.63-1,1.43,1.43,0,0,1,.94-.35,1.57,1.57,0,0,1,.57.08Z" fill="#2b3033"/><path d="M256.88,13.44h-4.24a2.24,2.24,0,0,0,.54,1.55,1.86,1.86,0,0,0,1.42.54,3,3,0,0,0,1.86-.67v.9a3.48,3.48,0,0,1-2.09.57,2.54,2.54,0,0,1-2-.82,3.35,3.35,0,0,1-.73-2.3,3.28,3.28,0,0,1,.79-2.28,2.55,2.55,0,0,1,2-.88,2.26,2.26,0,0,1,1.82.76,3.18,3.18,0,0,1,.64,2.12Zm-1-.81a2,2,0,0,0-.4-1.29,1.37,1.37,0,0,0-1.1-.46,1.55,1.55,0,0,0-1.15.49,2.21,2.21,0,0,0-.59,1.27Z" fill="#2b3033"/><path d="M258,16V15a2.84,2.84,0,0,0,1.73.58q1.27,0,1.27-.84a.73.73,0,0,0-.11-.41,1.08,1.08,0,0,0-.29-.3,2.26,2.26,0,0,0-.43-.23l-.54-.21a6.9,6.9,0,0,1-.7-.32,2.12,2.12,0,0,1-.5-.36,1.35,1.35,0,0,1-.3-.46,1.63,1.63,0,0,1-.1-.6,1.43,1.43,0,0,1,.19-.75,1.71,1.71,0,0,1,.52-.54,2.4,2.4,0,0,1,.74-.33,3.26,3.26,0,0,1,.85-.11,3.44,3.44,0,0,1,1.39.27v1a2.72,2.72,0,0,0-1.52-.43,1.78,1.78,0,0,0-.49.06,1.19,1.19,0,0,0-.37.17.8.8,0,0,0-.24.27.7.7,0,0,0-.08.34.82.82,0,0,0,.08.39.86.86,0,0,0,.25.28,1.9,1.9,0,0,0,.4.22l.53.22a7.42,7.42,0,0,1,.71.31,2.45,2.45,0,0,1,.54.36,1.42,1.42,0,0,1,.34.47,1.5,1.5,0,0,1,.12.63,1.48,1.48,0,0,1-.2.77,1.68,1.68,0,0,1-.52.54,2.4,2.4,0,0,1-.76.32,3.73,3.73,0,0,1-.9.11A3.4,3.4,0,0,1,258,16Z" fill="#2b3033"/><path d="M268.25,13.44H264a2.24,2.24,0,0,0,.54,1.55,1.86,1.86,0,0,0,1.42.54,3,3,0,0,0,1.86-.67v.9a3.48,3.48,0,0,1-2.09.57,2.54,2.54,0,0,1-2-.82,3.35,3.35,0,0,1-.73-2.3,3.28,3.28,0,0,1,.79-2.28,2.55,2.55,0,0,1,2-.88,2.26,2.26,0,0,1,1.82.76,3.18,3.18,0,0,1,.64,2.12Zm-1-.81a2,2,0,0,0-.4-1.29,1.37,1.37,0,0,0-1.1-.46,1.55,1.55,0,0,0-1.15.49,2.21,2.21,0,0,0-.59,1.27Z" fill="#2b3033"/><path d="M272.83,11.17a1.18,1.18,0,0,0-.73-.19,1.23,1.23,0,0,0-1,.58,2.68,2.68,0,0,0-.41,1.58V16.2h-1v-6h1v1.24h0a2.1,2.1,0,0,1,.63-1,1.43,1.43,0,0,1,.94-.35,1.57,1.57,0,0,1,.57.08Z" fill="#2b3033"/><path d="M279.07,10.2l-2.39,6h-.94l-2.27-6h1.05L276,14.56a3.91,3.91,0,0,1,.21.84h0a4,4,0,0,1,.19-.81l1.59-4.38Z" fill="#2b3033"/><path d="M284.85,13.44h-4.24a2.24,2.24,0,0,0,.54,1.55,1.86,1.86,0,0,0,1.42.54,3,3,0,0,0,1.86-.67v.9a3.48,3.48,0,0,1-2.09.57,2.54,2.54,0,0,1-2-.82,3.35,3.35,0,0,1-.73-2.3,3.28,3.28,0,0,1,.79-2.28,2.55,2.55,0,0,1,2-.88,2.26,2.26,0,0,1,1.82.76,3.18,3.18,0,0,1,.64,2.12Zm-1-.81a2,2,0,0,0-.4-1.29,1.37,1.37,0,0,0-1.1-.46,1.55,1.55,0,0,0-1.15.49,2.21,2.21,0,0,0-.59,1.27Z" fill="#2b3033"/><path d="M291.43,16.2h-1v-1h0a2.22,2.22,0,0,1-2.06,1.16,2.24,2.24,0,0,1-1.81-.81,3.31,3.31,0,0,1-.68-2.19,3.6,3.6,0,0,1,.75-2.38,2.47,2.47,0,0,1,2-.9,1.92,1.92,0,0,1,1.8,1h0V7.32h1Zm-1-2.71V12.6a1.72,1.72,0,0,0-.48-1.23,1.61,1.61,0,0,0-1.22-.5,1.66,1.66,0,0,0-1.38.64,2.82,2.82,0,0,0-.5,1.78,2.54,2.54,0,0,0,.48,1.64,1.58,1.58,0,0,0,1.3.6A1.64,1.64,0,0,0,290,15,2.16,2.16,0,0,0,290.46,13.49Z" fill="#2b3033"/><path d="M293.71,16.33a.62.62,0,0,1-.46-.19.64.64,0,0,1-.19-.46.65.65,0,0,1,.19-.47.62.62,0,0,1,.46-.2.63.63,0,0,1,.47.2.64.64,0,0,1,.19.47.63.63,0,0,1-.19.46A.64.64,0,0,1,293.71,16.33Z" fill="#2b3033"/><path d="M9.09,27.43V30.6h-1V22.2h2.31a3,3,0,0,1,2.09.66,2.34,2.34,0,0,1,.74,1.85,2.55,2.55,0,0,1-.82,2,3.15,3.15,0,0,1-2.22.76Zm0-4.34v3.45h1a2.31,2.31,0,0,0,1.56-.47,1.65,1.65,0,0,0,.54-1.32q0-1.66-2-1.66Z" fill="#2b3033"/><path d="M18.6,30.6h-1v-.94h0a2,2,0,0,1-1.85,1.08,2,2,0,0,1-1.4-.47A1.64,1.64,0,0,1,13.86,29q0-1.68,2-2l1.8-.25q0-1.53-1.24-1.53a3,3,0,0,0-2,.74V25a3.72,3.72,0,0,1,2-.56q2.12,0,2.12,2.24Zm-1-3-1.45.2a2.35,2.35,0,0,0-1,.33,1,1,0,0,0-.34.84.92.92,0,0,0,.31.72,1.21,1.21,0,0,0,.83.28,1.54,1.54,0,0,0,1.18-.5,1.79,1.79,0,0,0,.47-1.27Z" fill="#2b3033"/><path d="M23.2,30.54a1.85,1.85,0,0,1-.9.19q-1.58,0-1.58-1.76V25.42h-1V24.6h1V23.14l1-.31V24.6H23.2v.82H21.68V28.8a1.4,1.4,0,0,0,.21.86.82.82,0,0,0,.68.26,1,1,0,0,0,.63-.2Z" fill="#2b3033"/><path d="M29.21,27.84H25a2.24,2.24,0,0,0,.54,1.55,1.86,1.86,0,0,0,1.42.54,3,3,0,0,0,1.86-.67v.9a3.48,3.48,0,0,1-2.09.57,2.54,2.54,0,0,1-2-.82,3.35,3.35,0,0,1-.73-2.3,3.28,3.28,0,0,1,.79-2.28,2.55,2.55,0,0,1,2-.88,2.26,2.26,0,0,1,1.82.76,3.18,3.18,0,0,1,.64,2.12Zm-1-.81a2,2,0,0,0-.4-1.29,1.37,1.37,0,0,0-1.1-.46,1.55,1.55,0,0,0-1.15.49A2.21,2.21,0,0,0,25,27Z" fill="#2b3033"/><path d="M35.64,30.6h-1V27.18q0-1.91-1.39-1.91a1.51,1.51,0,0,0-1.19.54,2,2,0,0,0-.47,1.37V30.6h-1v-6h1v1h0a2.17,2.17,0,0,1,2-1.14,1.84,1.84,0,0,1,1.51.64,2.83,2.83,0,0,1,.52,1.84Z" fill="#2b3033"/><path d="M40.23,30.54a1.85,1.85,0,0,1-.9.19q-1.58,0-1.58-1.76V25.42h-1V24.6h1V23.14l1-.31V24.6h1.51v.82H38.72V28.8a1.4,1.4,0,0,0,.21.86.82.82,0,0,0,.68.26,1,1,0,0,0,.63-.2Z" fill="#2b3033"/><path d="M45.3,23.08a.61.61,0,0,1-.44-.18.59.59,0,0,1-.18-.45.62.62,0,0,1,.62-.63.62.62,0,0,1,.45.18.63.63,0,0,1,0,.89A.62.62,0,0,1,45.3,23.08Zm.47,7.52h-1v-6h1Z" fill="#2b3033"/><path d="M52.69,30.6h-1V27.18q0-1.91-1.39-1.91a1.51,1.51,0,0,0-1.19.54,2,2,0,0,0-.47,1.37V30.6h-1v-6h1v1h0a2.17,2.17,0,0,1,2-1.14,1.84,1.84,0,0,1,1.51.64,2.83,2.83,0,0,1,.52,1.84Z" fill="#2b3033"/><path d="M57.47,22.56a1.28,1.28,0,0,0-.64-.16q-1,0-1,1.27v.93h1.41v.82H55.82V30.6h-1V25.42h-1V24.6h1v-1a2,2,0,0,1,.54-1.49,1.84,1.84,0,0,1,1.36-.55,1.88,1.88,0,0,1,.7.11Z" fill="#2b3033"/><path d="M60.77,30.74a2.78,2.78,0,0,1-2.12-.84,3.11,3.11,0,0,1-.79-2.23,3.24,3.24,0,0,1,.83-2.36,3,3,0,0,1,2.23-.85,2.69,2.69,0,0,1,2.09.83,3.28,3.28,0,0,1,.75,2.29,3.22,3.22,0,0,1-.81,2.3A2.84,2.84,0,0,1,60.77,30.74Zm.07-5.47a1.83,1.83,0,0,0-1.46.63,2.59,2.59,0,0,0-.54,1.74,2.45,2.45,0,0,0,.54,1.68,1.85,1.85,0,0,0,1.46.62,1.76,1.76,0,0,0,1.43-.6,2.62,2.62,0,0,0,.5-1.72,2.66,2.66,0,0,0-.5-1.73A1.75,1.75,0,0,0,60.84,25.27Z" fill="#2b3033"/><path d="M68.42,25.57a1.18,1.18,0,0,0-.73-.19,1.23,1.23,0,0,0-1,.58,2.68,2.68,0,0,0-.41,1.58V30.6h-1v-6h1v1.24h0a2.1,2.1,0,0,1,.63-1,1.43,1.43,0,0,1,.94-.35,1.57,1.57,0,0,1,.57.08Z" fill="#2b3033"/><path d="M78,30.6H77V27.16a2.6,2.6,0,0,0-.31-1.44,1.17,1.17,0,0,0-1-.45,1.28,1.28,0,0,0-1,.56,2.15,2.15,0,0,0-.43,1.35V30.6h-1V27q0-1.77-1.37-1.77a1.26,1.26,0,0,0-1,.53,2.19,2.19,0,0,0-.41,1.38V30.6h-1v-6h1v.95h0a2,2,0,0,1,1.86-1.09A1.73,1.73,0,0,1,74,25.7a2.14,2.14,0,0,1,2-1.24q2,0,2,2.44Z" fill="#2b3033"/><path d="M84.07,30.6h-1v-.94h0a2,2,0,0,1-1.85,1.08,2,2,0,0,1-1.4-.47A1.64,1.64,0,0,1,79.33,29q0-1.68,2-2l1.8-.25q0-1.53-1.24-1.53a3,3,0,0,0-2,.74V25a3.72,3.72,0,0,1,2-.56q2.12,0,2.12,2.24Zm-1-3-1.45.2a2.35,2.35,0,0,0-1,.33,1,1,0,0,0-.34.84.92.92,0,0,0,.31.72,1.21,1.21,0,0,0,.83.28,1.54,1.54,0,0,0,1.18-.5,1.79,1.79,0,0,0,.47-1.27Z" fill="#2b3033"/><path d="M88.66,30.54a1.85,1.85,0,0,1-.9.19q-1.58,0-1.58-1.76V25.42h-1V24.6h1V23.14l1-.31V24.6h1.51v.82H87.15V28.8a1.4,1.4,0,0,0,.21.86.82.82,0,0,0,.68.26,1,1,0,0,0,.63-.2Z" fill="#2b3033"/><path d="M90.44,23.08A.61.61,0,0,1,90,22.9a.59.59,0,0,1-.18-.45.62.62,0,0,1,.62-.63.62.62,0,0,1,.45.18.63.63,0,0,1,0,.89A.62.62,0,0,1,90.44,23.08Zm.47,7.52h-1v-6h1Z" fill="#2b3033"/><path d="M95.36,30.74a2.78,2.78,0,0,1-2.12-.84,3.11,3.11,0,0,1-.79-2.23,3.24,3.24,0,0,1,.83-2.36,3,3,0,0,1,2.23-.85,2.69,2.69,0,0,1,2.09.83,3.28,3.28,0,0,1,.75,2.29,3.22,3.22,0,0,1-.81,2.3A2.84,2.84,0,0,1,95.36,30.74Zm.07-5.47A1.83,1.83,0,0,0,94,25.9a2.59,2.59,0,0,0-.54,1.74A2.45,2.45,0,0,0,94,29.32a1.85,1.85,0,0,0,1.46.62,1.76,1.76,0,0,0,1.43-.6,2.62,2.62,0,0,0,.5-1.72,2.66,2.66,0,0,0-.5-1.73A1.75,1.75,0,0,0,95.43,25.27Z" fill="#2b3033"/><path d="M104.86,30.6h-1V27.18q0-1.91-1.39-1.91a1.51,1.51,0,0,0-1.19.54,2,2,0,0,0-.47,1.37V30.6h-1v-6h1v1h0a2.17,2.17,0,0,1,2-1.14,1.84,1.84,0,0,1,1.51.64,2.83,2.83,0,0,1,.52,1.84Z" fill="#2b3033"/><path d="M110.45,23.08a.61.61,0,0,1-.44-.18.59.59,0,0,1-.18-.45.62.62,0,0,1,.62-.63.62.62,0,0,1,.45.18.63.63,0,0,1,0,.89A.62.62,0,0,1,110.45,23.08Zm.47,7.52h-1v-6h1Z" fill="#2b3033"/><path d="M112.5,30.38v-1a2.84,2.84,0,0,0,1.73.58q1.27,0,1.27-.84a.73.73,0,0,0-.11-.41,1.08,1.08,0,0,0-.29-.3,2.26,2.26,0,0,0-.43-.23l-.54-.21a6.9,6.9,0,0,1-.7-.32,2.12,2.12,0,0,1-.5-.36,1.35,1.35,0,0,1-.3-.46,1.63,1.63,0,0,1-.1-.6,1.43,1.43,0,0,1,.19-.75,1.71,1.71,0,0,1,.52-.54,2.4,2.4,0,0,1,.74-.33,3.26,3.26,0,0,1,.85-.11,3.44,3.44,0,0,1,1.39.27v1a2.72,2.72,0,0,0-1.52-.43,1.78,1.78,0,0,0-.49.06,1.19,1.19,0,0,0-.37.17.8.8,0,0,0-.24.27.7.7,0,0,0-.08.34.82.82,0,0,0,.08.39.86.86,0,0,0,.25.28,1.9,1.9,0,0,0,.4.22l.53.22a7.42,7.42,0,0,1,.71.31,2.45,2.45,0,0,1,.54.36,1.42,1.42,0,0,1,.34.47,1.5,1.5,0,0,1,.12.63,1.48,1.48,0,0,1-.2.77,1.68,1.68,0,0,1-.52.54,2.4,2.4,0,0,1-.76.32,3.73,3.73,0,0,1-.9.11A3.4,3.4,0,0,1,112.5,30.38Z" fill="#2b3033"/><path d="M125.54,30.6h-1v-.94h0a2,2,0,0,1-1.85,1.08,2,2,0,0,1-1.4-.47A1.64,1.64,0,0,1,120.8,29q0-1.68,2-2l1.8-.25q0-1.53-1.24-1.53a3,3,0,0,0-2,.74V25a3.72,3.72,0,0,1,2-.56q2.12,0,2.12,2.24Zm-1-3-1.45.2a2.35,2.35,0,0,0-1,.33,1,1,0,0,0-.34.84.92.92,0,0,0,.31.72,1.21,1.21,0,0,0,.83.28,1.54,1.54,0,0,0,1.18-.5,1.79,1.79,0,0,0,.47-1.27Z" fill="#2b3033"/><path d="M132.07,24.6l-2.39,6h-.94l-2.27-6h1.05L129,29a3.91,3.91,0,0,1,.21.84h0a4,4,0,0,1,.19-.81l1.59-4.38Z" fill="#2b3033"/><path d="M137.18,30.6h-1v-.94h0a2,2,0,0,1-1.85,1.08,2,2,0,0,1-1.4-.47,1.64,1.64,0,0,1-.51-1.26q0-1.68,2-2l1.8-.25q0-1.53-1.24-1.53a3,3,0,0,0-2,.74V25a3.72,3.72,0,0,1,2-.56q2.12,0,2.12,2.24Zm-1-3-1.45.2a2.35,2.35,0,0,0-1,.33,1,1,0,0,0-.34.84.92.92,0,0,0,.31.72,1.21,1.21,0,0,0,.83.28,1.54,1.54,0,0,0,1.18-.5,1.79,1.79,0,0,0,.47-1.27Z" fill="#2b3033"/><path d="M139.48,23.08a.61.61,0,0,1-.44-.18.59.59,0,0,1-.18-.45.62.62,0,0,1,.62-.63.62.62,0,0,1,.45.18.63.63,0,0,1,0,.89A.62.62,0,0,1,139.48,23.08Zm.47,7.52h-1v-6h1Z" fill="#2b3033"/><path d="M142.86,30.6h-1V21.72h1Z" fill="#2b3033"/><path d="M149.1,30.6h-1v-.94h0a2,2,0,0,1-1.85,1.08,2,2,0,0,1-1.4-.47,1.64,1.64,0,0,1-.51-1.26q0-1.68,2-2l1.8-.25q0-1.53-1.24-1.53a3,3,0,0,0-2,.74V25a3.72,3.72,0,0,1,2-.56q2.12,0,2.12,2.24Zm-1-3-1.45.2a2.35,2.35,0,0,0-1,.33,1,1,0,0,0-.34.84.92.92,0,0,0,.31.72,1.21,1.21,0,0,0,.83.28,1.54,1.54,0,0,0,1.18-.5,1.79,1.79,0,0,0,.47-1.27Z" fill="#2b3033"/><path d="M151.89,29.73h0v.87h-1V21.72h1v3.94h0a2.27,2.27,0,0,1,2.07-1.2,2.2,2.2,0,0,1,1.81.81,3.33,3.33,0,0,1,.65,2.16,3.72,3.72,0,0,1-.73,2.41,2.44,2.44,0,0,1-2,.91A2,2,0,0,1,151.89,29.73Zm0-2.42v.84a1.78,1.78,0,0,0,.48,1.26,1.72,1.72,0,0,0,2.6-.15,3.06,3.06,0,0,0,.5-1.86,2.42,2.42,0,0,0-.46-1.57,1.53,1.53,0,0,0-1.25-.57,1.7,1.7,0,0,0-1.35.58A2.14,2.14,0,0,0,151.87,27.31Z" fill="#2b3033"/><path d="M158.92,30.6h-1V21.72h1Z" fill="#2b3033"/><path d="M165.69,27.84h-4.24a2.24,2.24,0,0,0,.54,1.55,1.86,1.86,0,0,0,1.42.54,3,3,0,0,0,1.86-.67v.9a3.48,3.48,0,0,1-2.09.57,2.54,2.54,0,0,1-2-.82,3.35,3.35,0,0,1-.73-2.3,3.28,3.28,0,0,1,.79-2.28,2.55,2.55,0,0,1,2-.88,2.26,2.26,0,0,1,1.82.76,3.18,3.18,0,0,1,.64,2.12Zm-1-.81a2,2,0,0,0-.4-1.29,1.37,1.37,0,0,0-1.1-.46,1.55,1.55,0,0,0-1.15.49,2.21,2.21,0,0,0-.59,1.27Z" fill="#2b3033"/><path d="M174.72,30.6h-1v-.94h0a2,2,0,0,1-1.85,1.08,2,2,0,0,1-1.4-.47A1.64,1.64,0,0,1,170,29q0-1.68,2-2l1.8-.25q0-1.53-1.24-1.53a3,3,0,0,0-2,.74V25a3.72,3.72,0,0,1,2-.56q2.12,0,2.12,2.24Zm-1-3-1.45.2a2.35,2.35,0,0,0-1,.33,1,1,0,0,0-.34.84.92.92,0,0,0,.31.72,1.21,1.21,0,0,0,.83.28,1.54,1.54,0,0,0,1.18-.5,1.79,1.79,0,0,0,.47-1.27Z" fill="#2b3033"/><path d="M179.32,30.54a1.85,1.85,0,0,1-.9.19q-1.58,0-1.58-1.76V25.42h-1V24.6h1V23.14l1-.31V24.6h1.51v.82h-1.51V28.8a1.4,1.4,0,0,0,.21.86.82.82,0,0,0,.68.26,1,1,0,0,0,.63-.2Z" fill="#2b3033"/><path d="M188.87,30.6h-1V27.14q0-1.87-1.39-1.87a1.52,1.52,0,0,0-1.18.54,2,2,0,0,0-.48,1.39v3.4h-1V21.72h1V25.6h0a2.18,2.18,0,0,1,2-1.14q2,0,2,2.44Z" fill="#065fa3"/><path d="M193.46,30.54a1.85,1.85,0,0,1-.9.19Q191,30.73,191,29V25.42h-1V24.6h1V23.14l1-.31V24.6h1.51v.82H192V28.8a1.4,1.4,0,0,0,.21.86.82.82,0,0,0,.68.26,1,1,0,0,0,.63-.2Z" fill="#065fa3"/><path d="M197.53,30.54a1.85,1.85,0,0,1-.9.19q-1.58,0-1.58-1.76V25.42h-1V24.6h1V23.14l1-.31V24.6h1.51v.82H196V28.8a1.4,1.4,0,0,0,.21.86.82.82,0,0,0,.68.26,1,1,0,0,0,.63-.2Z" fill="#065fa3"/><path d="M199.8,29.73h0v3.63h-1V24.6h1v1.05h0a2.27,2.27,0,0,1,2.07-1.2,2.2,2.2,0,0,1,1.81.81,3.34,3.34,0,0,1,.65,2.16,3.72,3.72,0,0,1-.73,2.41,2.44,2.44,0,0,1-2,.91A2,2,0,0,1,199.8,29.73Zm0-2.42v.84a1.78,1.78,0,0,0,.48,1.26,1.72,1.72,0,0,0,2.6-.15,3.06,3.06,0,0,0,.5-1.86,2.42,2.42,0,0,0-.46-1.57,1.53,1.53,0,0,0-1.25-.57,1.7,1.7,0,0,0-1.35.58A2.14,2.14,0,0,0,199.77,27.31Z" fill="#065fa3"/><path d="M206.2,25.77a.62.62,0,0,1-.46-.19.64.64,0,0,1-.19-.46.62.62,0,0,1,.19-.46.63.63,0,0,1,.46-.19.65.65,0,0,1,.47.19.61.61,0,0,1,.19.46.63.63,0,0,1-.19.46A.64.64,0,0,1,206.2,25.77Zm0,5a.62.62,0,0,1-.46-.19.64.64,0,0,1-.19-.46.65.65,0,0,1,.19-.47.62.62,0,0,1,.46-.2.63.63,0,0,1,.47.2.64.64,0,0,1,.19.47.63.63,0,0,1-.19.46A.64.64,0,0,1,206.2,30.73Z" fill="#065fa3"/><path d="M212.26,22.2l-4,9.8h-.9l4-9.8Z" fill="#065fa3"/><path d="M216.94,22.2l-4,9.8H212l4-9.8Z" fill="#065fa3"/><path d="M225.38,24.6l-1.8,6h-1l-1.24-4.29a2.8,2.8,0,0,1-.09-.56h0a2.63,2.63,0,0,1-.12.54l-1.34,4.31h-1l-1.82-6h1l1.24,4.51a2.72,2.72,0,0,1,.08.54h0a2.52,2.52,0,0,1,.11-.55l1.38-4.5h.88L223,29.12a3.23,3.23,0,0,1,.09.54h0a2.49,2.49,0,0,1,.1-.54l1.22-4.52Z" fill="#065fa3"/><path d="M234.05,24.6l-1.8,6h-1L230,26.31a2.8,2.8,0,0,1-.09-.56h0a2.63,2.63,0,0,1-.12.54l-1.34,4.31h-1l-1.82-6h1l1.24,4.51a2.72,2.72,0,0,1,.08.54h0a2.52,2.52,0,0,1,.11-.55l1.38-4.5h.88l1.24,4.52a3.23,3.23,0,0,1,.09.54h0a2.49,2.49,0,0,1,.1-.54l1.22-4.52Z" fill="#065fa3"/><path d="M242.72,24.6l-1.8,6h-1l-1.24-4.29a2.8,2.8,0,0,1-.09-.56h0a2.63,2.63,0,0,1-.12.54l-1.34,4.31h-1l-1.82-6h1l1.24,4.51a2.72,2.72,0,0,1,.08.54h0a2.52,2.52,0,0,1,.11-.55l1.38-4.5h.88l1.24,4.52a3.23,3.23,0,0,1,.09.54h0a2.49,2.49,0,0,1,.1-.54l1.22-4.52Z" fill="#065fa3"/><path d="M243.57,30.73a.62.62,0,0,1-.46-.19.64.64,0,0,1-.19-.46.65.65,0,0,1,.19-.47.62.62,0,0,1,.46-.2.63.63,0,0,1,.47.2.64.64,0,0,1,.19.47.63.63,0,0,1-.19.46A.64.64,0,0,1,243.57,30.73Z" fill="#065fa3"/><path d="M250.82,30.6h-1V27.18q0-1.91-1.39-1.91a1.51,1.51,0,0,0-1.19.54,2,2,0,0,0-.47,1.37V30.6h-1v-6h1v1h0a2.17,2.17,0,0,1,2-1.14,1.84,1.84,0,0,1,1.51.64,2.83,2.83,0,0,1,.52,1.84Z" fill="#065fa3"/><path d="M253.12,23.08a.61.61,0,0,1-.44-.18.59.59,0,0,1-.18-.45.62.62,0,0,1,.62-.63.62.62,0,0,1,.45.18.63.63,0,0,1,0,.89A.62.62,0,0,1,253.12,23.08Zm.47,7.52h-1v-6h1Z" fill="#065fa3"/><path d="M255.87,30.73a.62.62,0,0,1-.46-.19.64.64,0,0,1-.19-.46.65.65,0,0,1,.19-.47.62.62,0,0,1,.46-.2.63.63,0,0,1,.47.2.64.64,0,0,1,.19.47.63.63,0,0,1-.19.46A.64.64,0,0,1,255.87,30.73Z" fill="#065fa3"/><path d="M262.23,30.33a3.12,3.12,0,0,1-1.64.42,2.72,2.72,0,0,1-2.07-.83,3,3,0,0,1-.79-2.17,3.33,3.33,0,0,1,.85-2.38,3,3,0,0,1,2.27-.9,3.16,3.16,0,0,1,1.39.29v1a2.44,2.44,0,0,0-1.43-.47,1.93,1.93,0,0,0-1.51.66,2.5,2.5,0,0,0-.59,1.73,2.38,2.38,0,0,0,.55,1.66,1.91,1.91,0,0,0,1.49.61,2.41,2.41,0,0,0,1.48-.52Z" fill="#065fa3"/><path d="M266.19,30.74a2.78,2.78,0,0,1-2.12-.84,3.11,3.11,0,0,1-.79-2.23,3.24,3.24,0,0,1,.83-2.36,3,3,0,0,1,2.23-.85,2.69,2.69,0,0,1,2.09.83,3.28,3.28,0,0,1,.75,2.29,3.22,3.22,0,0,1-.81,2.3A2.84,2.84,0,0,1,266.19,30.74Zm.07-5.47a1.83,1.83,0,0,0-1.46.63,2.59,2.59,0,0,0-.54,1.74,2.45,2.45,0,0,0,.54,1.68,1.85,1.85,0,0,0,1.46.62,1.76,1.76,0,0,0,1.43-.6,2.62,2.62,0,0,0,.5-1.72,2.66,2.66,0,0,0-.5-1.73A1.75,1.75,0,0,0,266.26,25.27Z" fill="#065fa3"/><path d="M279.23,30.6h-1V27.16a2.6,2.6,0,0,0-.31-1.44,1.17,1.17,0,0,0-1-.45,1.28,1.28,0,0,0-1,.56,2.15,2.15,0,0,0-.43,1.35V30.6h-1V27q0-1.77-1.37-1.77a1.26,1.26,0,0,0-1,.53,2.19,2.19,0,0,0-.41,1.38V30.6h-1v-6h1v.95h0a2,2,0,0,1,1.86-1.09,1.73,1.73,0,0,1,1.7,1.24,2.14,2.14,0,0,1,2-1.24q2,0,2,2.44Z" fill="#065fa3"/><path d="M284.84,22.2l-4,9.8h-.9l4-9.8Z" fill="#065fa3"/><path d="M286.69,30.6h-1V21.72h1Z" fill="#065fa3"/><path d="M293.45,27.84h-4.24a2.24,2.24,0,0,0,.54,1.55,1.86,1.86,0,0,0,1.42.54,3,3,0,0,0,1.86-.67v.9a3.48,3.48,0,0,1-2.09.57,2.54,2.54,0,0,1-2-.82,3.35,3.35,0,0,1-.73-2.3,3.28,3.28,0,0,1,.79-2.28,2.55,2.55,0,0,1,2-.88,2.26,2.26,0,0,1,1.82.76,3.18,3.18,0,0,1,.64,2.12Zm-1-.81a2,2,0,0,0-.4-1.29,1.37,1.37,0,0,0-1.1-.46,1.55,1.55,0,0,0-1.15.49,2.21,2.21,0,0,0-.59,1.27Z" fill="#065fa3"/><path d="M300,30.12q0,3.3-3.16,3.3a4.25,4.25,0,0,1-1.95-.42V32a4,4,0,0,0,1.93.56q2.21,0,2.21-2.36v-.66h0a2.43,2.43,0,0,1-3.86.35,3.2,3.2,0,0,1-.68-2.15,3.74,3.74,0,0,1,.74-2.43,2.46,2.46,0,0,1,2-.9,2,2,0,0,1,1.8,1h0V24.6h1Zm-1-2.23V27a1.72,1.72,0,0,0-.48-1.22,1.59,1.59,0,0,0-1.2-.51,1.67,1.67,0,0,0-1.39.65,2.89,2.89,0,0,0-.5,1.81,2.48,2.48,0,0,0,.48,1.6,1.56,1.56,0,0,0,1.28.6,1.67,1.67,0,0,0,1.32-.57A2.14,2.14,0,0,0,299.07,27.89Z" fill="#065fa3"/><path d="M306.27,30.6h-1v-.94h0a2,2,0,0,1-1.85,1.08,2,2,0,0,1-1.4-.47,1.64,1.64,0,0,1-.51-1.26q0-1.68,2-2l1.8-.25q0-1.53-1.24-1.53a3,3,0,0,0-2,.74V25a3.72,3.72,0,0,1,2-.56q2.12,0,2.12,2.24Zm-1-3-1.45.2a2.35,2.35,0,0,0-1,.33,1,1,0,0,0-.34.84.92.92,0,0,0,.31.72,1.21,1.21,0,0,0,.83.28,1.54,1.54,0,0,0,1.18-.5,1.79,1.79,0,0,0,.47-1.27Z" fill="#065fa3"/><path d="M309,30.6h-1V21.72h1Z" fill="#065fa3"/><path d="M314.78,22.2l-4,9.8h-.9l4-9.8Z" fill="#065fa3"/><path d="M316.64,29.73h0v3.63h-1V24.6h1v1.05h0a2.27,2.27,0,0,1,2.07-1.2,2.2,2.2,0,0,1,1.81.81,3.34,3.34,0,0,1,.65,2.16,3.72,3.72,0,0,1-.73,2.41,2.44,2.44,0,0,1-2,.91A2,2,0,0,1,316.64,29.73Zm0-2.42v.84a1.78,1.78,0,0,0,.48,1.26,1.72,1.72,0,0,0,2.6-.15,3.06,3.06,0,0,0,.5-1.86,2.42,2.42,0,0,0-.46-1.57,1.53,1.53,0,0,0-1.25-.57,1.7,1.7,0,0,0-1.35.58A2.14,2.14,0,0,0,316.62,27.31Z" fill="#065fa3"/><path d="M326.85,30.6h-1v-.94h0A2,2,0,0,1,324,30.74a2,2,0,0,1-1.4-.47,1.64,1.64,0,0,1-.51-1.26q0-1.68,2-2l1.8-.25q0-1.53-1.24-1.53a3,3,0,0,0-2,.74V25a3.72,3.72,0,0,1,2-.56q2.12,0,2.12,2.24Zm-1-3-1.45.2a2.35,2.35,0,0,0-1,.33,1,1,0,0,0-.34.84.92.92,0,0,0,.31.72,1.21,1.21,0,0,0,.83.28,1.54,1.54,0,0,0,1.18-.5,1.79,1.79,0,0,0,.47-1.27Z" fill="#065fa3"/><path d="M331.45,30.54a1.85,1.85,0,0,1-.9.19Q329,30.73,329,29V25.42h-1V24.6h1V23.14l1-.31V24.6h1.51v.82h-1.51V28.8a1.4,1.4,0,0,0,.21.86.82.82,0,0,0,.68.26,1,1,0,0,0,.63-.2Z" fill="#065fa3"/><path d="M337.46,27.84h-4.24a2.24,2.24,0,0,0,.54,1.55,1.86,1.86,0,0,0,1.42.54,3,3,0,0,0,1.86-.67v.9a3.48,3.48,0,0,1-2.09.57,2.54,2.54,0,0,1-2-.82,3.35,3.35,0,0,1-.73-2.3,3.28,3.28,0,0,1,.79-2.28,2.55,2.55,0,0,1,2-.88,2.26,2.26,0,0,1,1.82.76,3.18,3.18,0,0,1,.64,2.12Zm-1-.81a2,2,0,0,0-.4-1.29,1.37,1.37,0,0,0-1.1-.46,1.55,1.55,0,0,0-1.15.49,2.21,2.21,0,0,0-.59,1.27Z" fill="#065fa3"/><path d="M343.89,30.6h-1V27.18q0-1.91-1.39-1.91a1.51,1.51,0,0,0-1.19.54,2,2,0,0,0-.47,1.37V30.6h-1v-6h1v1h0a2.17,2.17,0,0,1,2-1.14,1.84,1.84,0,0,1,1.51.64,2.83,2.83,0,0,1,.52,1.84Z" fill="#065fa3"/><path d="M348.48,30.54a1.85,1.85,0,0,1-.9.19Q346,30.73,346,29V25.42h-1V24.6h1V23.14l1-.31V24.6h1.51v.82H347V28.8a1.4,1.4,0,0,0,.21.86.82.82,0,0,0,.68.26,1,1,0,0,0,.63-.2Z" fill="#065fa3"/><path d="M349.4,30.38v-1a2.84,2.84,0,0,0,1.73.58q1.27,0,1.27-.84a.73.73,0,0,0-.11-.41,1.08,1.08,0,0,0-.29-.3,2.26,2.26,0,0,0-.43-.23l-.54-.21a6.9,6.9,0,0,1-.7-.32,2.12,2.12,0,0,1-.5-.36,1.35,1.35,0,0,1-.3-.46,1.63,1.63,0,0,1-.1-.6,1.43,1.43,0,0,1,.19-.75,1.71,1.71,0,0,1,.52-.54,2.4,2.4,0,0,1,.74-.33,3.26,3.26,0,0,1,.85-.11,3.44,3.44,0,0,1,1.39.27v1a2.72,2.72,0,0,0-1.52-.43,1.78,1.78,0,0,0-.49.06,1.19,1.19,0,0,0-.37.17.8.8,0,0,0-.24.27.7.7,0,0,0-.08.34.82.82,0,0,0,.08.39.86.86,0,0,0,.25.28,1.9,1.9,0,0,0,.4.22l.53.22a7.42,7.42,0,0,1,.71.31,2.45,2.45,0,0,1,.54.36,1.42,1.42,0,0,1,.34.47,1.5,1.5,0,0,1,.12.63,1.48,1.48,0,0,1-.2.77,1.68,1.68,0,0,1-.52.54,2.4,2.4,0,0,1-.76.32,3.73,3.73,0,0,1-.9.11A3.4,3.4,0,0,1,349.4,30.38Z" fill="#065fa3"/><path d="M355.19,30.73a.62.62,0,0,1-.46-.19.64.64,0,0,1-.19-.46.65.65,0,0,1,.19-.47.62.62,0,0,1,.46-.2.63.63,0,0,1,.47.2.64.64,0,0,1,.19.47.63.63,0,0,1-.19.46A.64.64,0,0,1,355.19,30.73Z" fill="#2b3033"/></svg>