<svg id="Layer_1" data-name="Layer 1" xmlns="http://www.w3.org/2000/svg" width="60" height="15" viewBox="0 0 60 15"><title>hyperlink-hover</title><path d="M5.46,10.36H1.1V2h1V9.47H5.46Z" fill="#065fa3"/><path d="M11.44,7.6H7.21a2.24,2.24,0,0,0,.54,1.55,1.86,1.86,0,0,0,1.42.54A3,3,0,0,0,11,9v.9a3.48,3.48,0,0,1-2.09.57,2.54,2.54,0,0,1-2-.82,3.35,3.35,0,0,1-.73-2.3A3.28,3.28,0,0,1,7,5.1a2.55,2.55,0,0,1,2-.88A2.26,2.26,0,0,1,10.8,5a3.18,3.18,0,0,1,.64,2.12Zm-1-.81a2,2,0,0,0-.4-1.29A1.37,1.37,0,0,0,9,5a1.55,1.55,0,0,0-1.15.49,2.21,2.21,0,0,0-.59,1.27Z" fill="#065fa3"/><path d="M17.19,10.36h-1V9.42h0a2,2,0,0,1-1.85,1.08A2,2,0,0,1,13,10a1.64,1.64,0,0,1-.51-1.26q0-1.68,2-2l1.8-.25Q16.23,5,15,5a3,3,0,0,0-2,.74v-1a3.72,3.72,0,0,1,2-.56q2.12,0,2.12,2.24Zm-1-3-1.45.2a2.35,2.35,0,0,0-1,.33,1,1,0,0,0-.34.84.92.92,0,0,0,.31.72,1.21,1.21,0,0,0,.83.28,1.54,1.54,0,0,0,1.18-.5,1.79,1.79,0,0,0,.47-1.27Z" fill="#065fa3"/><path d="M22.13,5.33a1.18,1.18,0,0,0-.73-.19,1.23,1.23,0,0,0-1,.58A2.68,2.68,0,0,0,20,7.3v3.06H19v-6h1V5.59h0a2.1,2.1,0,0,1,.63-1,1.43,1.43,0,0,1,.94-.35,1.57,1.57,0,0,1,.57.08Z" fill="#065fa3"/><path d="M28.13,10.36h-1V6.94Q27.17,5,25.78,5a1.51,1.51,0,0,0-1.19.54,2,2,0,0,0-.47,1.37v3.42h-1v-6h1v1h0a2.17,2.17,0,0,1,2-1.14,1.84,1.84,0,0,1,1.51.64,2.83,2.83,0,0,1,.52,1.84Z" fill="#065fa3"/><path d="M41.75,10.36h-1V6.91a2.6,2.6,0,0,0-.31-1.44,1.17,1.17,0,0,0-1-.45,1.28,1.28,0,0,0-1,.56A2.15,2.15,0,0,0,38,6.94v3.42H37V6.8Q37,5,35.64,5a1.26,1.26,0,0,0-1,.53,2.19,2.19,0,0,0-.41,1.38v3.42h-1v-6h1v.95h0a2,2,0,0,1,1.86-1.09,1.73,1.73,0,0,1,1.7,1.24,2.14,2.14,0,0,1,2-1.24q2,0,2,2.44Z" fill="#065fa3"/><path d="M46.07,10.5a2.78,2.78,0,0,1-2.12-.84,3.11,3.11,0,0,1-.79-2.23A3.24,3.24,0,0,1,44,5.07a3,3,0,0,1,2.23-.85A2.69,2.69,0,0,1,48.31,5a3.28,3.28,0,0,1,.75,2.29,3.22,3.22,0,0,1-.81,2.3A2.84,2.84,0,0,1,46.07,10.5ZM46.14,5a1.83,1.83,0,0,0-1.46.63,2.59,2.59,0,0,0-.54,1.74,2.45,2.45,0,0,0,.54,1.68,1.85,1.85,0,0,0,1.46.62,1.76,1.76,0,0,0,1.43-.6,2.62,2.62,0,0,0,.5-1.72,2.66,2.66,0,0,0-.5-1.73A1.75,1.75,0,0,0,46.14,5Z" fill="#065fa3"/><path d="M53.72,5.33A1.18,1.18,0,0,0,53,5.14a1.23,1.23,0,0,0-1,.58,2.68,2.68,0,0,0-.41,1.58v3.06h-1v-6h1V5.59h0a2.1,2.1,0,0,1,.63-1,1.43,1.43,0,0,1,.94-.35,1.57,1.57,0,0,1,.57.08Z" fill="#065fa3"/><path d="M59.43,7.6H55.2a2.24,2.24,0,0,0,.54,1.55,1.86,1.86,0,0,0,1.42.54A3,3,0,0,0,59,9v.9a3.48,3.48,0,0,1-2.09.57,2.54,2.54,0,0,1-2-.82,3.35,3.35,0,0,1-.73-2.3A3.28,3.28,0,0,1,55,5.1a2.55,2.55,0,0,1,2-.88A2.26,2.26,0,0,1,58.79,5a3.18,3.18,0,0,1,.64,2.12Zm-1-.81A2,2,0,0,0,58,5.49,1.37,1.37,0,0,0,56.95,5a1.55,1.55,0,0,0-1.15.49,2.21,2.21,0,0,0-.59,1.27Z" fill="#065fa3"/><path d="M0,11.75v-.7H59.91v.7Z" fill="#065fa3"/></svg>