<svg id="Layer_1" data-name="Layer 1" xmlns="http://www.w3.org/2000/svg" xmlns:xlink="http://www.w3.org/1999/xlink" width="116.88" height="56.06" viewBox="0 0 116.88 56.06"><defs><clipPath id="clip-path"><rect x="278.18" y="-157" width="283" height="30" fill="none"/></clipPath><clipPath id="clip-path-2"><rect x="544.18" y="-157" width="283" height="30" fill="none"/></clipPath></defs><title>tips-visual-spec-tooltip</title><rect x="34.5" y="32.7" width="70" height="20" fill="#fff"/><path d="M104,33.2v19H35v-19h69m1-1H34v21h71v-21Z" fill="#4d5359"/><path d="M46.07,39.69H43.64V47.2h-1V39.69H40.24V38.8h5.83Z" fill="#2b3033"/><path d="M48.53,47.34a2.78,2.78,0,0,1-2.12-.84,3.11,3.11,0,0,1-.79-2.23,3.24,3.24,0,0,1,.83-2.36,3,3,0,0,1,2.23-.85,2.69,2.69,0,0,1,2.09.83,3.28,3.28,0,0,1,.75,2.29,3.22,3.22,0,0,1-.81,2.3A2.84,2.84,0,0,1,48.53,47.34Zm.07-5.47a1.83,1.83,0,0,0-1.46.63,2.59,2.59,0,0,0-.54,1.74,2.45,2.45,0,0,0,.54,1.68,1.85,1.85,0,0,0,1.46.62,1.76,1.76,0,0,0,1.43-.6,2.62,2.62,0,0,0,.5-1.72,2.66,2.66,0,0,0-.5-1.73A1.75,1.75,0,0,0,48.6,41.87Z" fill="#2b3033"/><path d="M55.56,47.34a2.78,2.78,0,0,1-2.12-.84,3.11,3.11,0,0,1-.79-2.23,3.24,3.24,0,0,1,.83-2.36,3,3,0,0,1,2.23-.85,2.69,2.69,0,0,1,2.09.83,3.28,3.28,0,0,1,.75,2.29,3.22,3.22,0,0,1-.81,2.3A2.84,2.84,0,0,1,55.56,47.34Zm.07-5.47a1.83,1.83,0,0,0-1.46.63,2.59,2.59,0,0,0-.54,1.74,2.45,2.45,0,0,0,.54,1.68,1.85,1.85,0,0,0,1.46.62,1.76,1.76,0,0,0,1.43-.6,2.62,2.62,0,0,0,.5-1.72,2.66,2.66,0,0,0-.5-1.73A1.75,1.75,0,0,0,55.63,41.87Z" fill="#2b3033"/><path d="M61,47.2h-1V38.32h1Z" fill="#2b3033"/><path d="M65.78,47.14a1.85,1.85,0,0,1-.9.19q-1.58,0-1.58-1.76V42h-1V41.2h1V39.74l1-.31V41.2h1.51V42H64.26V45.4a1.4,1.4,0,0,0,.21.86.82.82,0,0,0,.68.26,1,1,0,0,0,.63-.2Z" fill="#2b3033"/><path d="M67.55,39.68a.61.61,0,0,1-.44-.18.59.59,0,0,1-.18-.45.62.62,0,0,1,.62-.63.62.62,0,0,1,.45.18.63.63,0,0,1,0,.89A.62.62,0,0,1,67.55,39.68ZM68,47.2h-1v-6h1Z" fill="#2b3033"/><path d="M70.95,46.33h0V50H70V41.2h1v1.05h0A2.27,2.27,0,0,1,73,41.06a2.2,2.2,0,0,1,1.81.81A3.34,3.34,0,0,1,75.48,44a3.72,3.72,0,0,1-.73,2.41,2.44,2.44,0,0,1-2,.91A2,2,0,0,1,70.95,46.33Zm0-2.42v.84A1.78,1.78,0,0,0,71.41,46a1.72,1.72,0,0,0,2.6-.15A3.06,3.06,0,0,0,74.5,44,2.42,2.42,0,0,0,74,42.44a1.53,1.53,0,0,0-1.25-.57,1.7,1.7,0,0,0-1.35.58A2.14,2.14,0,0,0,70.93,43.91Z" fill="#2b3033"/><path d="M83.09,47.14a1.85,1.85,0,0,1-.9.19q-1.58,0-1.58-1.76V42h-1V41.2h1V39.74l1-.31V41.2h1.51V42H81.58V45.4a1.4,1.4,0,0,0,.21.86.82.82,0,0,0,.68.26,1,1,0,0,0,.63-.2Z" fill="#2b3033"/><path d="M89.1,44.44H84.87A2.24,2.24,0,0,0,85.4,46a1.86,1.86,0,0,0,1.42.54,3,3,0,0,0,1.86-.67v.9a3.48,3.48,0,0,1-2.09.57,2.54,2.54,0,0,1-2-.82,3.35,3.35,0,0,1-.73-2.3,3.28,3.28,0,0,1,.79-2.28,2.55,2.55,0,0,1,2-.88,2.26,2.26,0,0,1,1.82.76,3.18,3.18,0,0,1,.64,2.12Zm-1-.81a2,2,0,0,0-.4-1.29,1.37,1.37,0,0,0-1.1-.46,1.55,1.55,0,0,0-1.15.49,2.21,2.21,0,0,0-.59,1.27Z" fill="#2b3033"/><path d="M94.94,41.2l-2,3,2,3H93.78l-1.18-1.95-.26-.46h0l-.28.46-1.2,1.95H89.73l2-2.94-2-3.06h1.12l1.16,2.05.25.47h0l1.5-2.52Z" fill="#2b3033"/><path d="M98.85,47.14a1.85,1.85,0,0,1-.9.19q-1.58,0-1.58-1.76V42h-1V41.2h1V39.74l1-.31V41.2h1.51V42H97.33V45.4a1.4,1.4,0,0,0,.21.86.82.82,0,0,0,.68.26,1,1,0,0,0,.63-.2Z" fill="#2b3033"/><path d="M5.68,35.63a2.83,2.83,0,0,1-.21,1.11,2.43,2.43,0,0,1-.6.86,2.69,2.69,0,0,1-.94.55,3.68,3.68,0,0,1-1.22.19A3.38,3.38,0,0,1,1,38V37a3.2,3.2,0,0,0,1.75.55,2.37,2.37,0,0,0,.82-.13A1.83,1.83,0,0,0,4.16,37a1.61,1.61,0,0,0,.4-.58,2,2,0,0,0,.14-.74,1.59,1.59,0,0,0-.55-1.29,2.42,2.42,0,0,0-1.6-.47H1.81l-.37,0-.33,0,.29-4.21H5.29v.87H2.24l-.17,2.47.4,0h.38a3.77,3.77,0,0,1,1.2.18,2.53,2.53,0,0,1,.89.5,2.1,2.1,0,0,1,.56.8A2.8,2.8,0,0,1,5.68,35.63Z" fill="#c51162"/><path d="M8.43,37.33h0V41h-1V32.2h1v1.05h0a2.27,2.27,0,0,1,2.07-1.2,2.2,2.2,0,0,1,1.81.81A3.34,3.34,0,0,1,13,35a3.72,3.72,0,0,1-.73,2.41,2.44,2.44,0,0,1-2,.91A2,2,0,0,1,8.43,37.33Zm0-2.42v.84A1.78,1.78,0,0,0,8.89,37a1.61,1.61,0,0,0,1.23.52,1.61,1.61,0,0,0,1.37-.67A3.06,3.06,0,0,0,12,35a2.42,2.42,0,0,0-.46-1.57,1.53,1.53,0,0,0-1.25-.57,1.7,1.7,0,0,0-1.35.58A2.14,2.14,0,0,0,8.4,34.91Z" fill="#c51162"/><path d="M18.73,32.2l-2,3,2,3H17.58L16.4,36.26l-.26-.46h0l-.28.46-1.2,1.95H13.53l2-2.94-2-3.06h1.12l1.16,2.05.25.47h0l1.5-2.52Z" fill="#c51162"/><path d="M33.68,7.63a2.83,2.83,0,0,1-.21,1.11,2.43,2.43,0,0,1-.6.86,2.69,2.69,0,0,1-.94.55,3.68,3.68,0,0,1-1.22.19A3.38,3.38,0,0,1,29,10V9a3.2,3.2,0,0,0,1.75.55,2.37,2.37,0,0,0,.82-.13A1.83,1.83,0,0,0,32.16,9a1.61,1.61,0,0,0,.4-.58,2,2,0,0,0,.14-.74,1.59,1.59,0,0,0-.55-1.29,2.42,2.42,0,0,0-1.6-.47h-.73l-.37,0-.33,0,.29-4.21h3.88v.87H30.24l-.17,2.47.4,0h.38a3.77,3.77,0,0,1,1.2.18,2.53,2.53,0,0,1,.89.5,2.1,2.1,0,0,1,.56.8A2.8,2.8,0,0,1,33.68,7.63Z" fill="#c51162"/><path d="M36.43,9.33h0V13h-1V4.2h1V5.26h0a2.27,2.27,0,0,1,2.07-1.2,2.2,2.2,0,0,1,1.81.81A3.34,3.34,0,0,1,41,7a3.72,3.72,0,0,1-.73,2.41,2.44,2.44,0,0,1-2,.91A2,2,0,0,1,36.43,9.33Zm0-2.42v.84A1.78,1.78,0,0,0,36.89,9a1.72,1.72,0,0,0,2.6-.15A3.06,3.06,0,0,0,40,7a2.42,2.42,0,0,0-.46-1.57,1.53,1.53,0,0,0-1.25-.57,1.7,1.7,0,0,0-1.35.58A2.14,2.14,0,0,0,36.4,6.91Z" fill="#c51162"/><path d="M46.73,4.2l-2,3,2,3H45.58L44.4,8.26l-.26-.46h0l-.28.46-1.2,1.95H41.53l2-2.94-2-3.06h1.12L43.9,6.25l.25.47h0l1.5-2.52Z" fill="#c51162"/><rect x="21" y="37.2" width="23" height="1" fill="#c51162"/><rect x="21" y="33.2" width="23" height="1" fill="#c51162"/><rect x="26" y="33.2" width="1" height="5" fill="#c51162"/><path d="M5.68,49.63a2.83,2.83,0,0,1-.21,1.11,2.43,2.43,0,0,1-.6.86,2.69,2.69,0,0,1-.94.55,3.68,3.68,0,0,1-1.22.19A3.38,3.38,0,0,1,1,52V51a3.2,3.2,0,0,0,1.75.55,2.37,2.37,0,0,0,.82-.13A1.83,1.83,0,0,0,4.16,51a1.61,1.61,0,0,0,.4-.58,2,2,0,0,0,.14-.74,1.59,1.59,0,0,0-.55-1.29,2.42,2.42,0,0,0-1.6-.47H1.81l-.37,0-.33,0,.29-4.21H5.29v.87H2.24l-.17,2.47.4,0h.38a3.77,3.77,0,0,1,1.2.18,2.53,2.53,0,0,1,.89.5,2.1,2.1,0,0,1,.56.8A2.8,2.8,0,0,1,5.68,49.63Z" fill="#c51162"/><path d="M8.43,51.33h0V55h-1V46.2h1v1.05h0a2.27,2.27,0,0,1,2.07-1.2,2.2,2.2,0,0,1,1.81.81A3.34,3.34,0,0,1,13,49a3.72,3.72,0,0,1-.73,2.41,2.44,2.44,0,0,1-2,.91A2,2,0,0,1,8.43,51.33Zm0-2.42v.84A1.78,1.78,0,0,0,8.89,51a1.61,1.61,0,0,0,1.23.52,1.61,1.61,0,0,0,1.37-.67A3.06,3.06,0,0,0,12,49a2.42,2.42,0,0,0-.46-1.57,1.53,1.53,0,0,0-1.25-.57,1.7,1.7,0,0,0-1.35.58A2.14,2.14,0,0,0,8.4,48.91Z" fill="#c51162"/><path d="M18.73,46.2l-2,3,2,3H17.58L16.4,50.26l-.26-.46h0l-.28.46-1.2,1.95H13.53l2-2.94-2-3.06h1.12l1.16,2.05.25.47h0l1.5-2.52Z" fill="#c51162"/><rect x="21" y="51.2" width="23" height="1" fill="#c51162"/><rect x="21" y="47.2" width="23" height="1" fill="#c51162"/><rect x="26" y="47.2" width="1" height="5" fill="#c51162"/><rect x="35" y="14.2" width="1" height="30" fill="#c51162"/><rect x="39" y="14.2" width="1" height="30" fill="#c51162"/><rect x="35" y="19.2" width="5" height="1" fill="#c51162"/><rect x="99" y="14.2" width="1" height="30" fill="#c51162"/><rect x="103" y="14.2" width="1" height="30" fill="#c51162"/><rect x="99" y="19.2" width="5" height="1" fill="#c51162"/><path d="M97.68,7.63a2.83,2.83,0,0,1-.21,1.11,2.43,2.43,0,0,1-.6.86,2.69,2.69,0,0,1-.94.55,3.68,3.68,0,0,1-1.22.19A3.38,3.38,0,0,1,93,10V9a3.2,3.2,0,0,0,1.75.55,2.37,2.37,0,0,0,.82-.13A1.83,1.83,0,0,0,96.16,9a1.61,1.61,0,0,0,.4-.58,2,2,0,0,0,.14-.74,1.59,1.59,0,0,0-.55-1.29,2.42,2.42,0,0,0-1.6-.47h-.73l-.37,0-.33,0,.29-4.21h3.88v.87H94.24l-.17,2.47.4,0h.38a3.77,3.77,0,0,1,1.2.18,2.53,2.53,0,0,1,.89.5,2.1,2.1,0,0,1,.56.8A2.8,2.8,0,0,1,97.68,7.63Z" fill="#c51162"/><path d="M100.43,9.33h0V13h-1V4.2h1V5.26h0a2.27,2.27,0,0,1,2.07-1.2,2.2,2.2,0,0,1,1.81.81A3.34,3.34,0,0,1,105,7a3.72,3.72,0,0,1-.73,2.41,2.44,2.44,0,0,1-2,.91A2,2,0,0,1,100.43,9.33Zm0-2.42v.84A1.78,1.78,0,0,0,100.89,9a1.72,1.72,0,0,0,2.6-.15A3.06,3.06,0,0,0,104,7a2.42,2.42,0,0,0-.46-1.57,1.53,1.53,0,0,0-1.25-.57,1.7,1.7,0,0,0-1.35.58A2.14,2.14,0,0,0,100.4,6.91Z" fill="#c51162"/><path d="M110.73,4.2l-2,3,2,3h-1.12L108.4,8.26l-.26-.46h0l-.28.46-1.2,1.95h-1.11l2-2.94-2-3.06h1.12l1.16,2.05.25.47h0l1.5-2.52Z" fill="#c51162"/></svg>