<svg id="Layer_1" data-name="Layer 1" xmlns="http://www.w3.org/2000/svg" xmlns:xlink="http://www.w3.org/1999/xlink" width="588" height="385.86" viewBox="0 0 588 385.86"><defs><linearGradient id="linear-gradient" x1="142.5" y1="60.54" x2="142.5" y2="85.01" gradientUnits="userSpaceOnUse"><stop offset="0" stop-color="#e6e7e9"/><stop offset="0.12" stop-color="#e4e6e8"/><stop offset="1" stop-color="#d9dee1"/></linearGradient><linearGradient id="linear-gradient-2" x1="142.5" y1="86.04" x2="142.5" y2="112.01" xlink:href="#linear-gradient"/><linearGradient id="linear-gradient-3" x1="108" y1="88.51" x2="108" y2="110.04" xlink:href="#linear-gradient"/><linearGradient id="linear-gradient-4" x1="160" y1="88.51" x2="160" y2="110.04" xlink:href="#linear-gradient"/><linearGradient id="linear-gradient-5" x1="108" y1="181.51" x2="108" y2="203.04" xlink:href="#linear-gradient"/><linearGradient id="linear-gradient-6" x1="160" y1="181.51" x2="160" y2="203.04" xlink:href="#linear-gradient"/><linearGradient id="linear-gradient-7" x1="140.5" y1="279.54" x2="140.5" y2="304.01" xlink:href="#linear-gradient"/><linearGradient id="linear-gradient-8" x1="140.5" y1="305.04" x2="140.5" y2="331.01" xlink:href="#linear-gradient"/><linearGradient id="linear-gradient-9" x1="106" y1="307.51" x2="106" y2="329.04" xlink:href="#linear-gradient"/><linearGradient id="linear-gradient-10" x1="158" y1="307.51" x2="158" y2="329.04" xlink:href="#linear-gradient"/><linearGradient id="linear-gradient-11" x1="447.5" y1="278.04" x2="447.5" y2="302.51" xlink:href="#linear-gradient"/><linearGradient id="linear-gradient-12" x1="447.5" y1="303.54" x2="447.5" y2="330.01" xlink:href="#linear-gradient"/><linearGradient id="linear-gradient-13" x1="413" y1="306.02" x2="413" y2="328.04" xlink:href="#linear-gradient"/><linearGradient id="linear-gradient-14" x1="465" y1="306.02" x2="465" y2="328.04" xlink:href="#linear-gradient"/></defs><title>html-editor-Visual Spec</title><path d="M9.3,43.5h-1V36.24A2.22,2.22,0,0,1,8,36.5a5.3,5.3,0,0,1-.48.28q-.27.14-.56.26a4.09,4.09,0,0,1-.58.19v-1A5.59,5.59,0,0,0,7.07,36q.35-.15.7-.33t.65-.39a5.14,5.14,0,0,0,.53-.4H9.3Z" fill="#7f3f96"/><path d="M17.21,40.93A2.83,2.83,0,0,1,17,42a2.43,2.43,0,0,1-.6.86,2.69,2.69,0,0,1-.94.55,3.68,3.68,0,0,1-1.22.19,3.38,3.38,0,0,1-1.74-.35v-1a3.2,3.2,0,0,0,1.75.55,2.37,2.37,0,0,0,.82-.13,1.83,1.83,0,0,0,.62-.37,1.61,1.61,0,0,0,.4-.58,2,2,0,0,0,.14-.74,1.59,1.59,0,0,0-.55-1.29,2.42,2.42,0,0,0-1.6-.47h-.73l-.37,0-.33,0,.29-4.21h3.88V36H13.77l-.17,2.47.4,0h.38a3.77,3.77,0,0,1,1.2.18,2.53,2.53,0,0,1,.89.5,2.1,2.1,0,0,1,.56.8A2.8,2.8,0,0,1,17.21,40.93Z" fill="#7f3f96"/><path d="M30.3,43.5h-1V36.24a2.22,2.22,0,0,1-.33.25,5.3,5.3,0,0,1-.48.28q-.27.14-.56.26a4.09,4.09,0,0,1-.58.19v-1a5.59,5.59,0,0,0,.67-.24q.35-.15.7-.33t.65-.39a5.14,5.14,0,0,0,.53-.4h.36Z" fill="#7f3f96"/><path d="M38.21,40.93A2.83,2.83,0,0,1,38,42a2.43,2.43,0,0,1-.6.86,2.69,2.69,0,0,1-.94.55,3.68,3.68,0,0,1-1.22.19,3.38,3.38,0,0,1-1.74-.35v-1a3.2,3.2,0,0,0,1.75.55,2.37,2.37,0,0,0,.82-.13,1.83,1.83,0,0,0,.62-.37,1.61,1.61,0,0,0,.4-.58,2,2,0,0,0,.14-.74,1.59,1.59,0,0,0-.55-1.29,2.42,2.42,0,0,0-1.6-.47h-.73l-.37,0-.33,0,.29-4.21h3.88V36H34.77l-.17,2.47.4,0h.38a3.77,3.77,0,0,1,1.2.18,2.53,2.53,0,0,1,.89.5,2.1,2.1,0,0,1,.56.8A2.8,2.8,0,0,1,38.21,40.93Z" fill="#7f3f96"/><path d="M80.3,43.5h-1V36.24a2.22,2.22,0,0,1-.33.25,5.3,5.3,0,0,1-.48.28q-.27.14-.56.26a4.09,4.09,0,0,1-.58.19v-1a5.59,5.59,0,0,0,.67-.24q.35-.15.7-.33t.65-.39a5.14,5.14,0,0,0,.53-.4h.36Z" fill="#7f3f96"/><path d="M88.52,40.83a3.11,3.11,0,0,1-.2,1.13,2.72,2.72,0,0,1-.55.89,2.46,2.46,0,0,1-.84.58,2.65,2.65,0,0,1-1.05.21,2.33,2.33,0,0,1-2-1,3.64,3.64,0,0,1-.53-1.21,6.56,6.56,0,0,1-.18-1.61,7.57,7.57,0,0,1,.24-2,4.83,4.83,0,0,1,.69-1.53,3.19,3.19,0,0,1,1.08-1A2.9,2.9,0,0,1,86.61,35,3.4,3.4,0,0,1,88,35.2v.91a3,3,0,0,0-1.37-.33,2,2,0,0,0-1,.25,2.33,2.33,0,0,0-.77.71,3.47,3.47,0,0,0-.5,1.11,5.63,5.63,0,0,0-.17,1.45h0a2,2,0,0,1,1.92-1,2.52,2.52,0,0,1,1,.19,2.14,2.14,0,0,1,.76.53,2.39,2.39,0,0,1,.48.82A3.11,3.11,0,0,1,88.52,40.83Zm-1,.12a2.61,2.61,0,0,0-.11-.79,1.72,1.72,0,0,0-.32-.6,1.38,1.38,0,0,0-.51-.38,1.73,1.73,0,0,0-.69-.13,1.62,1.62,0,0,0-.66.13,1.65,1.65,0,0,0-.53.37,1.71,1.71,0,0,0-.47,1.19,2.61,2.61,0,0,0,.12.81,2.1,2.1,0,0,0,.35.66,1.64,1.64,0,0,0,.53.44,1.45,1.45,0,0,0,.68.16,1.56,1.56,0,0,0,.66-.14,1.48,1.48,0,0,0,.51-.38,1.78,1.78,0,0,0,.33-.59A2.33,2.33,0,0,0,87.54,41Z" fill="#7f3f96"/><path d="M113.3,43.5h-1V36.24a2.22,2.22,0,0,1-.33.25,5.3,5.3,0,0,1-.48.28q-.27.14-.56.26a4.09,4.09,0,0,1-.58.19v-1a5.59,5.59,0,0,0,.67-.24q.35-.15.7-.33t.65-.39a5.14,5.14,0,0,0,.53-.4h.36Z" fill="#7f3f96"/><path d="M121.52,40.83a3.11,3.11,0,0,1-.2,1.13,2.72,2.72,0,0,1-.55.89,2.46,2.46,0,0,1-.84.58,2.65,2.65,0,0,1-1.05.21,2.33,2.33,0,0,1-2-1,3.64,3.64,0,0,1-.53-1.21,6.56,6.56,0,0,1-.18-1.61,7.57,7.57,0,0,1,.24-2,4.83,4.83,0,0,1,.69-1.53,3.19,3.19,0,0,1,1.08-1,2.9,2.9,0,0,1,1.41-.35,3.4,3.4,0,0,1,1.39.24v.91a3,3,0,0,0-1.37-.33,2,2,0,0,0-1,.25,2.33,2.33,0,0,0-.77.71,3.47,3.47,0,0,0-.5,1.11,5.63,5.63,0,0,0-.17,1.45h0a2,2,0,0,1,1.92-1,2.52,2.52,0,0,1,1,.19,2.14,2.14,0,0,1,.76.53,2.39,2.39,0,0,1,.48.82A3.11,3.11,0,0,1,121.52,40.83Zm-1,.12a2.61,2.61,0,0,0-.11-.79,1.72,1.72,0,0,0-.32-.6,1.38,1.38,0,0,0-.51-.38,1.73,1.73,0,0,0-.69-.13,1.62,1.62,0,0,0-.66.13,1.65,1.65,0,0,0-.53.37,1.71,1.71,0,0,0-.47,1.19,2.61,2.61,0,0,0,.12.81,2.1,2.1,0,0,0,.35.66,1.64,1.64,0,0,0,.53.44,1.45,1.45,0,0,0,.68.16,1.56,1.56,0,0,0,.66-.14,1.48,1.48,0,0,0,.51-.38,1.78,1.78,0,0,0,.33-.59A2.33,2.33,0,0,0,120.54,41Z" fill="#7f3f96"/><path d="M51.3,43.5h-1V36.24a2.22,2.22,0,0,1-.33.25,5.3,5.3,0,0,1-.48.28q-.27.14-.56.26a4.09,4.09,0,0,1-.58.19v-1a5.59,5.59,0,0,0,.67-.24q.35-.15.7-.33t.65-.39a5.14,5.14,0,0,0,.53-.4h.36Z" fill="#7f3f96"/><path d="M59.21,40.93A2.83,2.83,0,0,1,59,42a2.43,2.43,0,0,1-.6.86,2.69,2.69,0,0,1-.94.55,3.68,3.68,0,0,1-1.22.19,3.38,3.38,0,0,1-1.74-.35v-1a3.2,3.2,0,0,0,1.75.55,2.37,2.37,0,0,0,.82-.13,1.83,1.83,0,0,0,.62-.37,1.61,1.61,0,0,0,.4-.58,2,2,0,0,0,.14-.74,1.59,1.59,0,0,0-.55-1.29,2.42,2.42,0,0,0-1.6-.47h-.73l-.37,0-.33,0,.29-4.21h3.88V36H55.77l-.17,2.47.4,0h.38a3.77,3.77,0,0,1,1.2.18,2.53,2.53,0,0,1,.89.5,2.1,2.1,0,0,1,.56.8A2.8,2.8,0,0,1,59.21,40.93Z" fill="#7f3f96"/><rect x="2" y="64.5" width="281" height="48.5" fill="#999ea3"/><rect x="3" y="65.5" width="279" height="46.5" fill="#fff"/><rect x="2" y="59.5" width="281" height="53.5" fill="#999ea3"/><rect x="3" y="60.5" width="279" height="24.5" fill="url(#linear-gradient)"/><rect x="3" y="86" width="279" height="26" fill="url(#linear-gradient-2)"/><path d="M18.64,76.9V67.1h3.57a4.45,4.45,0,0,1,2.52.6,1.93,1.93,0,0,1,.88,1.69,2,2,0,0,1-.54,1.39,2.82,2.82,0,0,1-1.37.83v0a2.71,2.71,0,0,1,1.67.77A2.16,2.16,0,0,1,26,74a2.61,2.61,0,0,1-1,2.13,4,4,0,0,1-2.63.79Zm2.21-8.17V71h1a1.62,1.62,0,0,0,1.08-.33,1.13,1.13,0,0,0,.39-.91q0-1.08-1.61-1.08Zm0,4v2.58H22a1.84,1.84,0,0,0,1.2-.36,1.19,1.19,0,0,0,.43-1,1.11,1.11,0,0,0-.43-.92,1.89,1.89,0,0,0-1.19-.33Z" fill="#575757"/><path d="M47,67.1l-4.1,9.8H41.25l4.08-9.8Z" fill="#575757"/><path d="M71.81,70.86q0,3.79-3.53,3.79t-3.42-3.7V66.1h1.9V71q0,2,1.59,2t1.56-2V66.1h1.89Z" fill="#575757"/><rect x="62" y="76.5" width="12" height="1" fill="#575757"/><rect x="4" y="87" width="115" height="24" fill="#929497"/><rect x="5" y="88" width="92" height="22" fill="#fff"/><rect x="98" y="88" width="20" height="22" fill="url(#linear-gradient-3)"/><path d="M11.71,102.05v-1.16a2.25,2.25,0,0,0,.48.32,3.87,3.87,0,0,0,.59.24,4.66,4.66,0,0,0,.62.15,3.45,3.45,0,0,0,.57.05,2.25,2.25,0,0,0,1.36-.34,1.27,1.27,0,0,0,.3-1.56,1.68,1.68,0,0,0-.41-.46,4.1,4.1,0,0,0-.62-.4l-.78-.4q-.44-.22-.82-.45a3.55,3.55,0,0,1-.66-.5,2.1,2.1,0,0,1-.44-.62A2.13,2.13,0,0,1,12,95.1a2.16,2.16,0,0,1,.66-.7,3,3,0,0,1,.93-.41,4.28,4.28,0,0,1,1.07-.13,4.1,4.1,0,0,1,1.81.3v1.11a3.28,3.28,0,0,0-1.91-.52,3.14,3.14,0,0,0-.64.07,1.82,1.82,0,0,0-.57.22,1.27,1.27,0,0,0-.41.39,1,1,0,0,0-.16.59,1.21,1.21,0,0,0,.12.56,1.36,1.36,0,0,0,.35.43,3.53,3.53,0,0,0,.57.38l.78.4q.45.22.86.47a3.91,3.91,0,0,1,.71.54,2.42,2.42,0,0,1,.48.66,1.86,1.86,0,0,1,.18.83,2.11,2.11,0,0,1-.24,1.05,2,2,0,0,1-.66.7,2.87,2.87,0,0,1-1,.39,5.22,5.22,0,0,1-1.14.12l-.49,0-.6-.09a4.88,4.88,0,0,1-.58-.15A1.79,1.79,0,0,1,11.71,102.05Z" fill="#58595b"/><path d="M23.17,99.63H18.93a2.24,2.24,0,0,0,.54,1.55,1.86,1.86,0,0,0,1.42.54,3,3,0,0,0,1.86-.67v.9a3.48,3.48,0,0,1-2.09.57,2.54,2.54,0,0,1-2-.82,3.35,3.35,0,0,1-.73-2.3,3.28,3.28,0,0,1,.79-2.28,2.55,2.55,0,0,1,2-.88,2.26,2.26,0,0,1,1.82.76,3.18,3.18,0,0,1,.64,2.12Zm-1-.81a2,2,0,0,0-.4-1.29,1.37,1.37,0,0,0-1.1-.46,1.55,1.55,0,0,0-1.15.49,2.21,2.21,0,0,0-.59,1.27Z" fill="#58595b"/><path d="M29.74,101.91q0,3.3-3.16,3.3a4.25,4.25,0,0,1-1.95-.42v-1a4,4,0,0,0,1.93.56q2.21,0,2.21-2.36v-.66h0a2.43,2.43,0,0,1-3.86.35,3.2,3.2,0,0,1-.68-2.15,3.74,3.74,0,0,1,.74-2.43,2.46,2.46,0,0,1,2-.9,2,2,0,0,1,1.8,1h0v-.83h1Zm-1-2.23V98.8a1.72,1.72,0,0,0-.48-1.22,1.59,1.59,0,0,0-1.2-.51,1.67,1.67,0,0,0-1.39.65,2.89,2.89,0,0,0-.5,1.81,2.48,2.48,0,0,0,.48,1.6,1.56,1.56,0,0,0,1.28.6,1.67,1.67,0,0,0,1.32-.57A2.14,2.14,0,0,0,28.78,99.68Z" fill="#58595b"/><path d="M34.2,102.54a2.78,2.78,0,0,1-2.12-.84,3.12,3.12,0,0,1-.79-2.23,3.24,3.24,0,0,1,.83-2.36,3,3,0,0,1,2.23-.85,2.69,2.69,0,0,1,2.09.83,3.28,3.28,0,0,1,.75,2.29,3.23,3.23,0,0,1-.81,2.3A2.84,2.84,0,0,1,34.2,102.54Zm.07-5.47a1.83,1.83,0,0,0-1.46.63,2.58,2.58,0,0,0-.54,1.74,2.45,2.45,0,0,0,.54,1.68,1.85,1.85,0,0,0,1.46.62,1.76,1.76,0,0,0,1.43-.6,2.62,2.62,0,0,0,.5-1.72,2.66,2.66,0,0,0-.5-1.73A1.75,1.75,0,0,0,34.27,97.06Z" fill="#58595b"/><path d="M43.54,99.63H39.31a2.24,2.24,0,0,0,.54,1.55,1.86,1.86,0,0,0,1.42.54,3,3,0,0,0,1.86-.67v.9a3.48,3.48,0,0,1-2.09.57,2.54,2.54,0,0,1-2-.82,3.35,3.35,0,0,1-.73-2.3,3.28,3.28,0,0,1,.79-2.28,2.55,2.55,0,0,1,2-.88A2.26,2.26,0,0,1,42.9,97a3.18,3.18,0,0,1,.64,2.12Zm-1-.81a2,2,0,0,0-.4-1.29,1.37,1.37,0,0,0-1.1-.46,1.55,1.55,0,0,0-1.15.49,2.21,2.21,0,0,0-.59,1.27Z" fill="#58595b"/><path d="M54.56,99q0,3.54-3.19,3.54t-3.06-3.4V94h1v5.07q0,2.58,2.18,2.58t2.1-2.5V94h1Z" fill="#58595b"/><path d="M57.64,102.39h-1V94h1Z" fill="#58595b"/><path d="M63.14,102.39V94h2.39a2.61,2.61,0,0,1,1.73.53,1.72,1.72,0,0,1,.64,1.39,2,2,0,0,1-.39,1.24,2.09,2.09,0,0,1-1.07.75v0a2.14,2.14,0,0,1,1.36.64,2,2,0,0,1,.51,1.41,2.2,2.2,0,0,1-.77,1.75,2.88,2.88,0,0,1-2,.67Zm1-7.51V97.6h1a1.91,1.91,0,0,0,1.27-.39,1.36,1.36,0,0,0,.46-1.1q0-1.22-1.61-1.22Zm0,3.6v3h1.34a2,2,0,0,0,1.34-.41,1.4,1.4,0,0,0,.48-1.12q0-1.49-2-1.49Z" fill="#58595b"/><path d="M72.39,102.54a2.78,2.78,0,0,1-2.12-.84,3.12,3.12,0,0,1-.79-2.23,3.24,3.24,0,0,1,.83-2.36,3,3,0,0,1,2.23-.85,2.69,2.69,0,0,1,2.09.83,3.28,3.28,0,0,1,.75,2.29,3.23,3.23,0,0,1-.81,2.3A2.84,2.84,0,0,1,72.39,102.54Zm.07-5.47a1.83,1.83,0,0,0-1.46.63,2.58,2.58,0,0,0-.54,1.74,2.45,2.45,0,0,0,.54,1.68,1.85,1.85,0,0,0,1.46.62,1.76,1.76,0,0,0,1.43-.6,2.62,2.62,0,0,0,.5-1.72,2.66,2.66,0,0,0-.5-1.73A1.75,1.75,0,0,0,72.46,97.06Z" fill="#58595b"/><path d="M77.88,102.39h-1V93.51h1Z" fill="#58595b"/><path d="M84.95,102.39H84v-1h0a2.42,2.42,0,0,1-3.87.36,3.31,3.31,0,0,1-.68-2.2,3.6,3.6,0,0,1,.75-2.38,2.47,2.47,0,0,1,2-.9,1.92,1.92,0,0,1,1.8,1h0V93.51h1Zm-1-2.71V98.8a1.72,1.72,0,0,0-.48-1.23,1.61,1.61,0,0,0-1.22-.5,1.66,1.66,0,0,0-1.38.64,2.82,2.82,0,0,0-.5,1.78,2.54,2.54,0,0,0,.48,1.64,1.58,1.58,0,0,0,1.3.6,1.64,1.64,0,0,0,1.3-.58A2.16,2.16,0,0,0,84,99.68Z" fill="#58595b"/><path d="M103.09,96h9l-4.5,6Z" fill="#4d5359"/><rect x="120" y="87" width="51" height="24" fill="#929497"/><rect x="121" y="88" width="28" height="22" fill="#fff"/><rect x="150" y="88" width="20" height="22" fill="url(#linear-gradient-4)"/><path d="M131.87,102.57h-1V95.31a2.22,2.22,0,0,1-.33.26,5.3,5.3,0,0,1-.48.28q-.27.14-.56.26a4.09,4.09,0,0,1-.58.19v-1a5.57,5.57,0,0,0,.67-.24q.35-.15.7-.33t.65-.39a5.14,5.14,0,0,0,.53-.4h.36Z" fill="#58595b"/><path d="M138.62,96.38a1.74,1.74,0,0,0-.12-.67,1.33,1.33,0,0,0-.33-.48,1.35,1.35,0,0,0-.49-.29,1.92,1.92,0,0,0-.61-.09,2,2,0,0,0-.55.08,2.68,2.68,0,0,0-.52.21,3.23,3.23,0,0,0-.49.32,3.56,3.56,0,0,0-.44.42v-1a2.87,2.87,0,0,1,.91-.6,3.19,3.19,0,0,1,1.22-.21,3,3,0,0,1,1,.15,2.19,2.19,0,0,1,.76.44,2,2,0,0,1,.51.71,2.39,2.39,0,0,1,.18,1,3.32,3.32,0,0,1-.11.9,2.79,2.79,0,0,1-.35.76,3.68,3.68,0,0,1-.58.69,8.26,8.26,0,0,1-.83.67q-.59.42-1,.72a4.31,4.31,0,0,0-.61.56,1.62,1.62,0,0,0-.32.52,1.82,1.82,0,0,0-.09.6h4.18v.86h-5.19v-.42a3.47,3.47,0,0,1,.12-.95,2.46,2.46,0,0,1,.39-.78,4.32,4.32,0,0,1,.71-.74q.44-.37,1.07-.83a6.76,6.76,0,0,0,.76-.63,3.26,3.26,0,0,0,.5-.6,2.14,2.14,0,0,0,.27-.61A2.62,2.62,0,0,0,138.62,96.38Z" fill="#58595b"/><path d="M155.09,96h9l-4.5,6Z" fill="#4d5359"/><rect x="4" y="180" width="115" height="24" fill="#929497"/><rect x="5" y="181" width="92" height="22" fill="#fff"/><rect x="98" y="181" width="20" height="22" fill="url(#linear-gradient-5)"/><path d="M22.24,168h-1v-7.26A2.22,2.22,0,0,1,21,161a5.3,5.3,0,0,1-.48.28q-.27.14-.56.26a4.09,4.09,0,0,1-.58.19v-1a5.59,5.59,0,0,0,.67-.24q.35-.15.7-.33t.65-.39a5.14,5.14,0,0,0,.53-.4h.36Z" fill="#7f3f96"/><path d="M28.71,168h-1v-7.26a2.22,2.22,0,0,1-.33.25,5.3,5.3,0,0,1-.48.28q-.27.14-.56.26a4.09,4.09,0,0,1-.58.19v-1a5.59,5.59,0,0,0,.67-.24q.35-.15.7-.33t.65-.39a5.14,5.14,0,0,0,.53-.4h.36Z" fill="#7f3f96"/><path d="M36.62,165.43a2.83,2.83,0,0,1-.21,1.11,2.43,2.43,0,0,1-.6.86,2.69,2.69,0,0,1-.94.55,3.68,3.68,0,0,1-1.22.19,3.38,3.38,0,0,1-1.74-.35v-1a3.2,3.2,0,0,0,1.75.55,2.37,2.37,0,0,0,.82-.13,1.83,1.83,0,0,0,.62-.37,1.61,1.61,0,0,0,.4-.58,2,2,0,0,0,.14-.74,1.59,1.59,0,0,0-.55-1.29,2.42,2.42,0,0,0-1.6-.47h-.73l-.37,0-.33,0,.29-4.21h3.88v.87H33.18L33,162.93l.4,0h.38a3.77,3.77,0,0,1,1.2.18,2.53,2.53,0,0,1,.89.5,2.1,2.1,0,0,1,.56.8A2.8,2.8,0,0,1,36.62,165.43Z" fill="#7f3f96"/><path d="M42.76,162l-2,3,2,3H41.61l-1.18-1.95-.26-.46h0l-.28.46L38.67,168H37.56l2-2.94-2-3.06h1.12l1.16,2.05.25.47h0L41.7,162Z" fill="#7f3f96"/><path d="M47.44,161.8a1.74,1.74,0,0,0-.12-.67,1.3,1.3,0,0,0-.82-.76,1.92,1.92,0,0,0-.61-.09,2,2,0,0,0-.55.08,2.68,2.68,0,0,0-.52.21,3.23,3.23,0,0,0-.49.32,3.56,3.56,0,0,0-.44.42v-1a2.87,2.87,0,0,1,.91-.6,3.19,3.19,0,0,1,1.22-.21,3,3,0,0,1,1,.15,2.19,2.19,0,0,1,.76.44,2,2,0,0,1,.51.71,2.39,2.39,0,0,1,.18,1,3.32,3.32,0,0,1-.11.9,2.79,2.79,0,0,1-.35.76,3.68,3.68,0,0,1-.58.69,8.26,8.26,0,0,1-.83.67q-.59.42-1,.72A4.31,4.31,0,0,0,45,166a1.62,1.62,0,0,0-.32.52,1.82,1.82,0,0,0-.09.6h4.18V168H43.55v-.42a3.47,3.47,0,0,1,.12-.95,2.46,2.46,0,0,1,.39-.78,4.32,4.32,0,0,1,.71-.74q.44-.37,1.07-.83a6.76,6.76,0,0,0,.76-.63,3.26,3.26,0,0,0,.5-.6,2.15,2.15,0,0,0,.27-.61A2.61,2.61,0,0,0,47.44,161.8Z" fill="#7f3f96"/><path d="M54.36,159.6v5.55h1.08V166H54.36v2h-.95v-2H49.46v-.83q.55-.62,1.11-1.33t1.08-1.43q.51-.73.95-1.45a13.25,13.25,0,0,0,.74-1.39Zm-3.81,5.55h2.87V161q-.44.77-.83,1.37t-.75,1.1q-.35.49-.68.89Z" fill="#7f3f96"/><path d="M130.68,165.43a2.83,2.83,0,0,1-.21,1.11,2.43,2.43,0,0,1-.6.86,2.69,2.69,0,0,1-.94.55,3.68,3.68,0,0,1-1.22.19,3.38,3.38,0,0,1-1.74-.35v-1a3.2,3.2,0,0,0,1.75.55,2.37,2.37,0,0,0,.82-.13,1.83,1.83,0,0,0,.62-.37,1.61,1.61,0,0,0,.4-.58,2,2,0,0,0,.14-.74,1.59,1.59,0,0,0-.55-1.29,2.42,2.42,0,0,0-1.6-.47h-.73l-.37,0-.33,0,.29-4.21h3.88v.87h-3.05l-.17,2.47.4,0h.38a3.77,3.77,0,0,1,1.2.18,2.53,2.53,0,0,1,.89.5,2.1,2.1,0,0,1,.56.8A2.8,2.8,0,0,1,130.68,165.43Z" fill="#7f3f96"/><path d="M135.71,168h-1v-7.26a2.22,2.22,0,0,1-.33.25,5.3,5.3,0,0,1-.48.28q-.27.14-.56.26a4.09,4.09,0,0,1-.58.19v-1a5.59,5.59,0,0,0,.67-.24q.35-.15.7-.33t.65-.39a5.14,5.14,0,0,0,.53-.4h.36Z" fill="#7f3f96"/><path d="M143.29,162l-2,3,2,3h-1.12L141,166.05l-.26-.46h0l-.28.46L139.2,168h-1.11l2-2.94-2-3.06h1.12l1.16,2.05.25.47h0l1.5-2.52Z" fill="#7f3f96"/><path d="M148,161.8a1.74,1.74,0,0,0-.12-.67,1.3,1.3,0,0,0-.82-.76,1.92,1.92,0,0,0-.61-.09,2,2,0,0,0-.55.08,2.68,2.68,0,0,0-.52.21,3.23,3.23,0,0,0-.49.32,3.56,3.56,0,0,0-.44.42v-1a2.87,2.87,0,0,1,.91-.6,3.19,3.19,0,0,1,1.22-.21,3,3,0,0,1,1,.15,2.19,2.19,0,0,1,.76.44,2,2,0,0,1,.51.71,2.39,2.39,0,0,1,.18,1,3.32,3.32,0,0,1-.11.9,2.79,2.79,0,0,1-.35.76,3.68,3.68,0,0,1-.58.69,8.26,8.26,0,0,1-.83.67q-.59.42-1,.72a4.31,4.31,0,0,0-.61.56,1.62,1.62,0,0,0-.32.52,1.82,1.82,0,0,0-.09.6h4.18V168h-5.19v-.42a3.47,3.47,0,0,1,.12-.95,2.46,2.46,0,0,1,.39-.78,4.32,4.32,0,0,1,.71-.74q.44-.37,1.07-.83a6.76,6.76,0,0,0,.76-.63,3.26,3.26,0,0,0,.5-.6,2.15,2.15,0,0,0,.27-.61A2.61,2.61,0,0,0,148,161.8Z" fill="#7f3f96"/><path d="M154.89,159.6v5.55H156V166h-1.08v2h-.95v-2H150v-.83q.55-.62,1.11-1.33t1.08-1.43q.51-.73.95-1.45a13.25,13.25,0,0,0,.74-1.39Zm-3.81,5.55h2.87V161q-.44.77-.83,1.37t-.75,1.1q-.35.49-.68.89Z" fill="#7f3f96"/><path d="M46.24,130h-1v-7.26A2.22,2.22,0,0,1,45,123a5.3,5.3,0,0,1-.48.28q-.27.14-.56.26a4.09,4.09,0,0,1-.58.19v-1a5.59,5.59,0,0,0,.67-.24q.35-.15.7-.33t.65-.39a5.14,5.14,0,0,0,.53-.4h.36Z" fill="#7f3f96"/><path d="M50.43,129.13h0v3.63h-1V124h1v1.05h0a2.27,2.27,0,0,1,2.07-1.2,2.2,2.2,0,0,1,1.81.81,3.34,3.34,0,0,1,.65,2.16,3.72,3.72,0,0,1-.73,2.41,2.44,2.44,0,0,1-2,.91A2,2,0,0,1,50.43,129.13Zm0-2.42v.84a1.78,1.78,0,0,0,.48,1.26,1.72,1.72,0,0,0,2.6-.15,3.06,3.06,0,0,0,.5-1.86,2.42,2.42,0,0,0-.46-1.57,1.53,1.53,0,0,0-1.25-.57,1.7,1.7,0,0,0-1.35.58A2.14,2.14,0,0,0,50.4,126.71Z" fill="#7f3f96"/><path d="M60.73,124l-2,3,2,3H59.58l-1.18-1.95-.26-.46h0l-.28.46L56.64,130H55.53l2-2.94-2-3.06h1.12l1.16,2.05.25.47h0l1.5-2.52Z" fill="#7f3f96"/><path d="M70.27,129.52q0,3.3-3.16,3.3a4.25,4.25,0,0,1-1.95-.42v-1a4,4,0,0,0,1.93.56q2.21,0,2.21-2.36V129h0a2.43,2.43,0,0,1-3.86.35,3.2,3.2,0,0,1-.68-2.15,3.74,3.74,0,0,1,.74-2.43,2.46,2.46,0,0,1,2-.9,2,2,0,0,1,1.8,1h0V124h1Zm-1-2.23v-.88a1.72,1.72,0,0,0-.48-1.22,1.59,1.59,0,0,0-1.2-.51,1.67,1.67,0,0,0-1.39.65,2.89,2.89,0,0,0-.5,1.81,2.48,2.48,0,0,0,.48,1.6,1.56,1.56,0,0,0,1.28.6,1.67,1.67,0,0,0,1.32-.57A2.14,2.14,0,0,0,69.3,127.29Z" fill="#7f3f96"/><path d="M76.51,130h-1v-.94h0a2,2,0,0,1-1.85,1.08,2,2,0,0,1-1.4-.47,1.64,1.64,0,0,1-.51-1.26q0-1.68,2-2l1.8-.25q0-1.53-1.24-1.53a3,3,0,0,0-2,.74v-1a3.72,3.72,0,0,1,2-.56q2.12,0,2.12,2.24Zm-1-3-1.45.2a2.35,2.35,0,0,0-1,.33,1,1,0,0,0-.34.84.92.92,0,0,0,.31.72,1.21,1.21,0,0,0,.83.28,1.54,1.54,0,0,0,1.18-.5,1.79,1.79,0,0,0,.47-1.27Z" fill="#7f3f96"/><path d="M79.3,129.13h0v3.63h-1V124h1v1.05h0a2.27,2.27,0,0,1,2.07-1.2,2.2,2.2,0,0,1,1.81.81,3.34,3.34,0,0,1,.65,2.16,3.72,3.72,0,0,1-.73,2.41,2.44,2.44,0,0,1-2,.91A2,2,0,0,1,79.3,129.13Zm0-2.42v.84a1.78,1.78,0,0,0,.48,1.26,1.72,1.72,0,0,0,2.6-.15,3.06,3.06,0,0,0,.5-1.86,2.42,2.42,0,0,0-.46-1.57,1.53,1.53,0,0,0-1.25-.57,1.7,1.7,0,0,0-1.35.58A2.14,2.14,0,0,0,79.28,126.71Z" fill="#7f3f96"/><path d="M103.09,189h9l-4.5,6Z" fill="#4d5359"/><rect x="120" y="180" width="51" height="24" fill="#929497"/><rect x="121" y="181" width="28" height="22" fill="#fff"/><rect x="150" y="181" width="20" height="22" fill="url(#linear-gradient-6)"/><path d="M155.09,189h9l-4.5,6Z" fill="#4d5359"/><rect x="95" y="65.5" width="12" height="2" fill="#575757"/><rect x="95" y="71.5" width="12" height="2" fill="#575757"/><rect x="95" y="77.5" width="12" height="2" fill="#575757"/><path d="M91.11,65.11v-.37a2,2,0,0,0,.73-.17.84.84,0,0,0,.31-.57h.38v3.83H92V65.11Z" fill="#575757"/><path d="M90.74,73a1.66,1.66,0,0,1,.7-.67L92,72a2.42,2.42,0,0,0,.49-.34.75.75,0,0,0,0-1,.73.73,0,0,0-.54-.2.7.7,0,0,0-.69.38,1.35,1.35,0,0,0-.11.56h-.49a1.73,1.73,0,0,1,.19-.82A1.16,1.16,0,0,1,91.93,70a1.14,1.14,0,0,1,1.27,1.15,1.08,1.08,0,0,1-.33.79,3.18,3.18,0,0,1-.67.46l-.37.2a2.39,2.39,0,0,0-.41.28,1,1,0,0,0-.34.52h2.1v.46H90.54A2.25,2.25,0,0,1,90.74,73Z" fill="#575757"/><path d="M90.84,79.62a1.39,1.39,0,0,1-.31-.91H91a1.25,1.25,0,0,0,.14.54.74.74,0,0,0,.68.3.89.89,0,0,0,.61-.2.67.67,0,0,0,.23-.53.61.61,0,0,0-.24-.56,1.23,1.23,0,0,0-.68-.16h-.2v-.43h.24a1,1,0,0,0,.45-.09.55.55,0,0,0,.31-.54.53.53,0,0,0-.2-.44.76.76,0,0,0-.48-.16.71.71,0,0,0-.67.32,1.12,1.12,0,0,0-.12.51h-.48a1.45,1.45,0,0,1,.17-.73,1.08,1.08,0,0,1,1-.54,1.41,1.41,0,0,1,.91.26.92.92,0,0,1,.32.76.85.85,0,0,1-.19.58.8.8,0,0,1-.31.22.84.84,0,0,1,.47.32,1,1,0,0,1,.17.58,1.19,1.19,0,0,1-.36.9,1.43,1.43,0,0,1-1,.35A1.21,1.21,0,0,1,90.84,79.62Z" fill="#575757"/><rect x="127" y="65.5" width="12" height="2" fill="#575757"/><rect x="127" y="71.5" width="12" height="2" fill="#575757"/><rect x="127" y="77.5" width="12" height="2" fill="#575757"/><rect x="123.17" y="77.5" width="2" height="2" fill="#575757"/><rect x="123.17" y="71.5" width="2" height="2" fill="#575757"/><rect x="123.17" y="65.5" width="2" height="2" fill="#575757"/><polygon points="159.22 72.57 155 75.4 155 69.54 159.22 72.57" fill="#575757"/><rect x="155" y="65.5" width="16" height="2" fill="#575757"/><rect x="161" y="71.5" width="10" height="2" fill="#575757"/><rect x="155" y="77.5" width="16" height="2" fill="#575757"/><path d="M225,71.5h10v-3H225Zm1-2h8v1h-8Z" fill="#575757"/><path d="M225,79.5h10v-3H225Zm1-2h8v1h-8Z" fill="#575757"/><rect x="219" y="68.5" width="5" height="3" fill="#575757"/><path d="M225,75.5h10v-3H225Zm1-2h8v1h-8Z" fill="#575757"/><rect x="219" y="72.5" width="5" height="3" fill="#575757"/><rect x="225" y="64.5" width="10" height="3" fill="#575757"/><rect x="219" y="64.5" width="5" height="3" fill="#575757"/><rect x="219" y="76.5" width="5" height="3" fill="#575757"/><rect x="233" y="91" width="2" height="16" fill="#575757"/><rect x="219" y="92" width="12" height="2" fill="#575757"/><rect x="221" y="96" width="10" height="2" fill="#575757"/><rect x="223" y="100" width="8" height="2" fill="#575757"/><rect x="225" y="104" width="6" height="2" fill="#575757"/><rect x="187" y="91" width="2" height="16" fill="#575757"/><rect x="191" y="92" width="12" height="2" fill="#575757"/><rect x="191" y="96" width="10" height="2" fill="#575757"/><rect x="191" y="100" width="8" height="2" fill="#575757"/><rect x="191" y="104" width="6" height="2" fill="#575757"/><rect x="187" y="91" width="2" height="16" fill="#575757"/><rect x="191" y="92" width="12" height="2" fill="#575757"/><rect x="191" y="96" width="10" height="2" fill="#575757"/><rect x="191" y="100" width="8" height="2" fill="#575757"/><rect x="191" y="104" width="6" height="2" fill="#575757"/><path d="M253,102h4v-2h-4Zm1,4h3v-2h-3Zm-2-8h5V96h-5Zm-1-4h6V92h-6Zm10,4h5V96h-5Zm0-6v2h6V92Zm0,10h4v-2h-4Zm0,4h3v-2h-3Z" fill="#575757"/><rect x="258" y="91" width="2" height="16" fill="#575757"/><path d="M198.84,72.51l0-.28a4.17,4.17,0,0,0,0-1s0-.08,0-.13a4,4,0,0,0-.07-.41c0-.13-.07-.25-.11-.37s0-.11-.05-.16l0-.1A3.8,3.8,0,0,0,197,68.21l-1.51,1.51a3.3,3.3,0,0,1,1,.82c.77.77.36,2.24-.4,3.24l-3,2.91-1,.78a2,2,0,0,1-2.83-.09,2.06,2.06,0,0,1,0-2.87l1-1a5.06,5.06,0,0,1-.28-2.56l-2.14,2.14a4,4,0,1,0,5.66,5.65l4.24-4.24A4,4,0,0,0,198.84,72.51Z" fill="#575757"/><path d="M195.65,65.28l-3.54,3.54a4,4,0,0,0,.81,6.26l1.51-1.51a2,2,0,0,1-.9-.51,2,2,0,0,1,0-2.83l3.54-3.54a2,2,0,1,1,2.83,2.83l-.3.3a5,5,0,0,1,.28,2.55l1.44-1.44a4,4,0,1,0-5.66-5.66Z" fill="#575757"/><polygon points="257.96 77.2 253.29 72.52 257.96 67.83 257.96 65.53 251 72.52 257.96 79.5 257.96 77.2" fill="#575757"/><polygon points="260 67.83 264.67 72.52 260 77.2 260 79.5 266.96 72.52 260 65.53 260 67.83" fill="#575757"/><polygon points="17 48.5 4 48.5 3 48.5 3 49.5 3 77.5 4 77.5 4 49.5 17 49.5 17 77.5 18 77.5 18 49.5 18 48.5 17 48.5" fill="#7f3f96"/><polygon points="40 48.5 27 48.5 26 48.5 26 49.5 26 77.5 27 77.5 27 49.5 40 49.5 40 77.5 41 77.5 41 49.5 41 48.5 40 48.5" fill="#7f3f96"/><polygon points="61 48.5 48 48.5 47 48.5 47 49.5 47 77.5 48 77.5 48 49.5 61 49.5 61 77.5 62 77.5 62 49.5 62 48.5 61 48.5" fill="#7f3f96"/><polygon points="89 48.5 75 48.5 74 48.5 74 49.5 74 77.5 75 77.5 75 49.5 89 49.5 89 77.5 90 77.5 90 49.5 90 48.5 89 48.5" fill="#7f3f96"/><polygon points="122 48.5 108 48.5 107 48.5 107 49.5 107 77.5 108 77.5 108 49.5 122 49.5 122 77.5 123 77.5 123 49.5 123 48.5 122 48.5" fill="#7f3f96"/><polygon points="154 48.5 140 48.5 139 48.5 139 49.5 139 77.5 140 77.5 140 49.5 154 49.5 154 77.5 155 77.5 155 49.5 155 48.5 154 48.5" fill="#7f3f96"/><polygon points="186 48.5 172 48.5 171 48.5 171 49.5 171 77.5 172 77.5 172 49.5 186 49.5 186 77.5 187 77.5 187 49.5 187 48.5 186 48.5" fill="#7f3f96"/><polygon points="218 48.5 204 48.5 203 48.5 203 49.5 203 77.5 204 77.5 204 49.5 218 49.5 218 77.5 219 77.5 219 49.5 219 48.5 218 48.5" fill="#7f3f96"/><polygon points="250 48.5 236 48.5 235 48.5 235 49.5 235 77.5 236 77.5 236 49.5 250 49.5 250 77.5 251 77.5 251 49.5 251 48.5 250 48.5" fill="#7f3f96"/><polygon points="281 48.5 268 48.5 267 48.5 267 49.5 267 77.5 268 77.5 268 49.5 281 49.5 281 77.5 282 77.5 282 49.5 282 48.5 281 48.5" fill="#7f3f96"/><path d="M147.3,43.5h-1V36.24a2.22,2.22,0,0,1-.33.25,5.3,5.3,0,0,1-.48.28q-.27.14-.56.26a4.09,4.09,0,0,1-.58.19v-1a5.59,5.59,0,0,0,.67-.24q.35-.15.7-.33t.65-.39a5.14,5.14,0,0,0,.53-.4h.36Z" fill="#7f3f96"/><path d="M155.52,40.83a3.11,3.11,0,0,1-.2,1.13,2.72,2.72,0,0,1-.55.89,2.46,2.46,0,0,1-.84.58,2.65,2.65,0,0,1-1.05.21,2.33,2.33,0,0,1-2-1,3.64,3.64,0,0,1-.53-1.21,6.56,6.56,0,0,1-.18-1.61,7.57,7.57,0,0,1,.24-2,4.83,4.83,0,0,1,.69-1.53,3.19,3.19,0,0,1,1.08-1,2.9,2.9,0,0,1,1.41-.35,3.4,3.4,0,0,1,1.39.24v.91a3,3,0,0,0-1.37-.33,2,2,0,0,0-1,.25,2.33,2.33,0,0,0-.77.71,3.47,3.47,0,0,0-.5,1.11,5.63,5.63,0,0,0-.17,1.45h0a2,2,0,0,1,1.92-1,2.52,2.52,0,0,1,1,.19,2.14,2.14,0,0,1,.76.53,2.39,2.39,0,0,1,.48.82A3.11,3.11,0,0,1,155.52,40.83Zm-1,.12a2.61,2.61,0,0,0-.11-.79,1.72,1.72,0,0,0-.32-.6,1.38,1.38,0,0,0-.51-.38,1.73,1.73,0,0,0-.69-.13,1.62,1.62,0,0,0-.66.13,1.65,1.65,0,0,0-.53.37,1.71,1.71,0,0,0-.47,1.19,2.61,2.61,0,0,0,.12.81,2.1,2.1,0,0,0,.35.66,1.64,1.64,0,0,0,.53.44,1.45,1.45,0,0,0,.68.16,1.56,1.56,0,0,0,.66-.14,1.48,1.48,0,0,0,.51-.38,1.78,1.78,0,0,0,.33-.59A2.33,2.33,0,0,0,154.54,41Z" fill="#7f3f96"/><path d="M137.12,6.8a1.74,1.74,0,0,0-.12-.67,1.3,1.3,0,0,0-.82-.76,1.92,1.92,0,0,0-.61-.09,2,2,0,0,0-.55.08,2.68,2.68,0,0,0-.52.21,3.23,3.23,0,0,0-.49.32,3.56,3.56,0,0,0-.44.42v-1a2.87,2.87,0,0,1,.91-.6,3.19,3.19,0,0,1,1.22-.21,3,3,0,0,1,1,.15,2.19,2.19,0,0,1,.76.44,2,2,0,0,1,.51.71,2.39,2.39,0,0,1,.18,1,3.32,3.32,0,0,1-.11.9,2.79,2.79,0,0,1-.35.76,3.68,3.68,0,0,1-.58.69,8.26,8.26,0,0,1-.83.67q-.59.42-1,.72a4.31,4.31,0,0,0-.61.56,1.62,1.62,0,0,0-.32.52,1.82,1.82,0,0,0-.09.6h4.18V13h-5.19v-.42a3.47,3.47,0,0,1,.12-.95,2.46,2.46,0,0,1,.39-.78,4.32,4.32,0,0,1,.71-.74q.44-.37,1.07-.83a6.76,6.76,0,0,0,.76-.63,3.26,3.26,0,0,0,.5-.6,2.15,2.15,0,0,0,.27-.61A2.61,2.61,0,0,0,137.12,6.8Z" fill="#7f3f96"/><path d="M139.59,10.66a2.24,2.24,0,0,1,.11-.67,2.43,2.43,0,0,1,.3-.63,2.5,2.5,0,0,1,.49-.53,2.32,2.32,0,0,1,.66-.38,2.49,2.49,0,0,1-.87-.78A1.85,1.85,0,0,1,140,6.6a2,2,0,0,1,.67-1.54,2.29,2.29,0,0,1,.75-.45,2.8,2.8,0,0,1,1.88,0,2.33,2.33,0,0,1,.75.45,2,2,0,0,1,.49.68,2.05,2.05,0,0,1,.18.85,1.85,1.85,0,0,1-.32,1.06,2.52,2.52,0,0,1-.86.78,2.3,2.3,0,0,1,.65.38,2.53,2.53,0,0,1,.48.53,2.43,2.43,0,0,1,.3.63,2.24,2.24,0,0,1,.11.67,2.5,2.5,0,0,1-.2,1,2.25,2.25,0,0,1-.56.78,2.58,2.58,0,0,1-.86.51,3.22,3.22,0,0,1-1.1.18,3.18,3.18,0,0,1-1.1-.18,2.62,2.62,0,0,1-.86-.51,2.27,2.27,0,0,1-.57-.78A2.46,2.46,0,0,1,139.59,10.66Zm1-.08a2,2,0,0,0,.12.71,1.53,1.53,0,0,0,.34.54,1.48,1.48,0,0,0,.53.34,1.93,1.93,0,0,0,.69.12,1.83,1.83,0,0,0,.68-.12,1.58,1.58,0,0,0,.54-.35,1.55,1.55,0,0,0,.35-.54,1.89,1.89,0,0,0,.13-.7,1.8,1.8,0,0,0-.12-.66,1.65,1.65,0,0,0-.34-.54A1.61,1.61,0,0,0,143,9a1.73,1.73,0,0,0-.7-.13,1.75,1.75,0,0,0-.67.13,1.61,1.61,0,0,0-.53.35,1.63,1.63,0,0,0-.35.54A1.79,1.79,0,0,0,140.63,10.57Zm.3-3.9a1.39,1.39,0,0,0,.85,1.3,1.38,1.38,0,0,0,1.08,0,1.4,1.4,0,0,0,.44-.3,1.46,1.46,0,0,0,.3-.45,1.35,1.35,0,0,0,.11-.55,1.44,1.44,0,0,0-.11-.56,1.38,1.38,0,0,0-1.29-.85,1.4,1.4,0,0,0-.57.11,1.37,1.37,0,0,0-.44.3,1.32,1.32,0,0,0-.28.45A1.51,1.51,0,0,0,140.93,6.68Z" fill="#7f3f96"/><path d="M149.77,13h-1V5.74a2.22,2.22,0,0,1-.33.25,5.3,5.3,0,0,1-.48.28q-.27.14-.56.26a4.09,4.09,0,0,1-.58.19v-1a5.59,5.59,0,0,0,.67-.24q.35-.15.7-.33t.65-.39a5.14,5.14,0,0,0,.53-.4h.36Z" fill="#7f3f96"/><path d="M174.3,43.5h-1V36.24a2.22,2.22,0,0,1-.33.25,5.3,5.3,0,0,1-.48.28q-.27.14-.56.26a4.09,4.09,0,0,1-.58.19v-1a5.59,5.59,0,0,0,.67-.24q.35-.15.7-.33t.65-.39a5.14,5.14,0,0,0,.53-.4h.36Z" fill="#7f3f96"/><path d="M182.52,40.83a3.11,3.11,0,0,1-.2,1.13,2.72,2.72,0,0,1-.55.89,2.46,2.46,0,0,1-.84.58,2.65,2.65,0,0,1-1.05.21,2.33,2.33,0,0,1-2-1,3.64,3.64,0,0,1-.53-1.21,6.56,6.56,0,0,1-.18-1.61,7.57,7.57,0,0,1,.24-2,4.83,4.83,0,0,1,.69-1.53,3.19,3.19,0,0,1,1.08-1,2.9,2.9,0,0,1,1.41-.35,3.4,3.4,0,0,1,1.39.24v.91a3,3,0,0,0-1.37-.33,2,2,0,0,0-1,.25,2.33,2.33,0,0,0-.77.71,3.47,3.47,0,0,0-.5,1.11,5.63,5.63,0,0,0-.17,1.45h0a2,2,0,0,1,1.92-1,2.52,2.52,0,0,1,1,.19,2.14,2.14,0,0,1,.76.53,2.39,2.39,0,0,1,.48.82A3.11,3.11,0,0,1,182.52,40.83Zm-1,.12a2.61,2.61,0,0,0-.11-.79,1.72,1.72,0,0,0-.32-.6,1.38,1.38,0,0,0-.51-.38,1.73,1.73,0,0,0-.69-.13,1.62,1.62,0,0,0-.66.13,1.65,1.65,0,0,0-.53.37,1.71,1.71,0,0,0-.47,1.19,2.61,2.61,0,0,0,.12.81,2.1,2.1,0,0,0,.35.66,1.64,1.64,0,0,0,.53.44,1.45,1.45,0,0,0,.68.16,1.56,1.56,0,0,0,.66-.14,1.48,1.48,0,0,0,.51-.38,1.78,1.78,0,0,0,.33-.59A2.33,2.33,0,0,0,181.54,41Z" fill="#7f3f96"/><path d="M209.3,43.5h-1V36.24a2.22,2.22,0,0,1-.33.25,5.3,5.3,0,0,1-.48.28q-.27.14-.56.26a4.09,4.09,0,0,1-.58.19v-1a5.59,5.59,0,0,0,.67-.24q.35-.15.7-.33t.65-.39a5.14,5.14,0,0,0,.53-.4h.36Z" fill="#7f3f96"/><path d="M217.52,40.83a3.11,3.11,0,0,1-.2,1.13,2.72,2.72,0,0,1-.55.89,2.46,2.46,0,0,1-.84.58,2.65,2.65,0,0,1-1.05.21,2.33,2.33,0,0,1-2-1,3.64,3.64,0,0,1-.53-1.21,6.56,6.56,0,0,1-.18-1.61,7.57,7.57,0,0,1,.24-2,4.83,4.83,0,0,1,.69-1.53,3.19,3.19,0,0,1,1.08-1,2.9,2.9,0,0,1,1.41-.35,3.4,3.4,0,0,1,1.39.24v.91a3,3,0,0,0-1.37-.33,2,2,0,0,0-1,.25,2.33,2.33,0,0,0-.77.71,3.47,3.47,0,0,0-.5,1.11,5.63,5.63,0,0,0-.17,1.45h0a2,2,0,0,1,1.92-1,2.52,2.52,0,0,1,1,.19,2.14,2.14,0,0,1,.76.53,2.39,2.39,0,0,1,.48.82A3.11,3.11,0,0,1,217.52,40.83Zm-1,.12a2.61,2.61,0,0,0-.11-.79,1.72,1.72,0,0,0-.32-.6,1.38,1.38,0,0,0-.51-.38,1.73,1.73,0,0,0-.69-.13,1.62,1.62,0,0,0-.66.13,1.65,1.65,0,0,0-.53.37,1.71,1.71,0,0,0-.47,1.19,2.61,2.61,0,0,0,.12.81,2.1,2.1,0,0,0,.35.66,1.64,1.64,0,0,0,.53.44,1.45,1.45,0,0,0,.68.16,1.56,1.56,0,0,0,.66-.14,1.48,1.48,0,0,0,.51-.38,1.78,1.78,0,0,0,.33-.59A2.33,2.33,0,0,0,216.54,41Z" fill="#7f3f96"/><path d="M239.3,43.5h-1V36.24a2.22,2.22,0,0,1-.33.25,5.3,5.3,0,0,1-.48.28q-.27.14-.56.26a4.09,4.09,0,0,1-.58.19v-1a5.59,5.59,0,0,0,.67-.24q.35-.15.7-.33t.65-.39a5.14,5.14,0,0,0,.53-.4h.36Z" fill="#7f3f96"/><path d="M247.52,40.83a3.11,3.11,0,0,1-.2,1.13,2.72,2.72,0,0,1-.55.89,2.46,2.46,0,0,1-.84.58,2.65,2.65,0,0,1-1.05.21,2.33,2.33,0,0,1-2-1,3.64,3.64,0,0,1-.53-1.21,6.56,6.56,0,0,1-.18-1.61,7.57,7.57,0,0,1,.24-2,4.83,4.83,0,0,1,.69-1.53,3.19,3.19,0,0,1,1.08-1,2.9,2.9,0,0,1,1.41-.35,3.4,3.4,0,0,1,1.39.24v.91a3,3,0,0,0-1.37-.33,2,2,0,0,0-1,.25,2.33,2.33,0,0,0-.77.71,3.47,3.47,0,0,0-.5,1.11,5.63,5.63,0,0,0-.17,1.45h0a2,2,0,0,1,1.92-1,2.52,2.52,0,0,1,1,.19,2.14,2.14,0,0,1,.76.53,2.39,2.39,0,0,1,.48.82A3.11,3.11,0,0,1,247.52,40.83Zm-1,.12a2.61,2.61,0,0,0-.11-.79,1.72,1.72,0,0,0-.32-.6,1.38,1.38,0,0,0-.51-.38,1.73,1.73,0,0,0-.69-.13,1.62,1.62,0,0,0-.66.13,1.65,1.65,0,0,0-.53.37,1.71,1.71,0,0,0-.47,1.19,2.61,2.61,0,0,0,.12.81,2.1,2.1,0,0,0,.35.66,1.64,1.64,0,0,0,.53.44,1.45,1.45,0,0,0,.68.16,1.56,1.56,0,0,0,.66-.14,1.48,1.48,0,0,0,.51-.38,1.78,1.78,0,0,0,.33-.59A2.33,2.33,0,0,0,246.54,41Z" fill="#7f3f96"/><path d="M268.3,43.5h-1V36.24a2.22,2.22,0,0,1-.33.25,5.3,5.3,0,0,1-.48.28q-.27.14-.56.26a4.09,4.09,0,0,1-.58.19v-1a5.59,5.59,0,0,0,.67-.24q.35-.15.7-.33t.65-.39a5.14,5.14,0,0,0,.53-.4h.36Z" fill="#7f3f96"/><path d="M276.21,40.93A2.83,2.83,0,0,1,276,42a2.43,2.43,0,0,1-.6.86,2.69,2.69,0,0,1-.94.55,3.68,3.68,0,0,1-1.22.19,3.38,3.38,0,0,1-1.74-.35v-1a3.2,3.2,0,0,0,1.75.55,2.37,2.37,0,0,0,.82-.13,1.83,1.83,0,0,0,.62-.37,1.61,1.61,0,0,0,.4-.58,2,2,0,0,0,.14-.74,1.59,1.59,0,0,0-.55-1.29,2.42,2.42,0,0,0-1.6-.47h-.73l-.37,0-.33,0,.29-4.21h3.88V36h-3.05l-.17,2.47.4,0h.38a3.77,3.77,0,0,1,1.2.18,2.53,2.53,0,0,1,.89.5,2.1,2.1,0,0,1,.56.8A2.8,2.8,0,0,1,276.21,40.93Z" fill="#7f3f96"/><polygon points="268 119 281 119 282 119 282 118 282 90 281 90 281 118 268 118 268 90 267 90 267 118 267 119 268 119" fill="#7f3f96"/><path d="M271.3,132h-1v-7.26a2.22,2.22,0,0,1-.33.25,5.3,5.3,0,0,1-.48.28q-.27.14-.56.26a4.09,4.09,0,0,1-.58.19v-1a5.59,5.59,0,0,0,.67-.24q.35-.15.7-.33t.65-.39a5.14,5.14,0,0,0,.53-.4h.36Z" fill="#7f3f96"/><path d="M279.21,129.43a2.83,2.83,0,0,1-.21,1.11,2.43,2.43,0,0,1-.6.86,2.69,2.69,0,0,1-.94.55,3.68,3.68,0,0,1-1.22.19,3.38,3.38,0,0,1-1.74-.35v-1a3.2,3.2,0,0,0,1.75.55,2.37,2.37,0,0,0,.82-.13,1.83,1.83,0,0,0,.62-.37,1.61,1.61,0,0,0,.4-.58,2,2,0,0,0,.14-.74,1.59,1.59,0,0,0-.55-1.29,2.42,2.42,0,0,0-1.6-.47h-.73l-.37,0-.33,0,.29-4.21h3.88v.87h-3.05l-.17,2.47.4,0h.38a3.77,3.77,0,0,1,1.2.18,2.53,2.53,0,0,1,.89.5,2.1,2.1,0,0,1,.56.8A2.8,2.8,0,0,1,279.21,129.43Z" fill="#7f3f96"/><path d="M321.84,70.3a1.74,1.74,0,0,0-.12-.67,1.3,1.3,0,0,0-.82-.76,1.92,1.92,0,0,0-.61-.09,2,2,0,0,0-.55.08,2.68,2.68,0,0,0-.52.21,3.23,3.23,0,0,0-.49.32,3.56,3.56,0,0,0-.44.42v-1a2.87,2.87,0,0,1,.91-.6,3.19,3.19,0,0,1,1.22-.21,3,3,0,0,1,1,.15,2.19,2.19,0,0,1,.76.44,2,2,0,0,1,.51.71,2.39,2.39,0,0,1,.18,1,3.32,3.32,0,0,1-.11.9,2.79,2.79,0,0,1-.35.76,3.68,3.68,0,0,1-.58.69,8.26,8.26,0,0,1-.83.67q-.59.42-1,.72a4.31,4.31,0,0,0-.61.56A1.62,1.62,0,0,0,319,75a1.82,1.82,0,0,0-.09.6h4.18v.86H318v-.42a3.47,3.47,0,0,1,.12-.95,2.46,2.46,0,0,1,.39-.78,4.32,4.32,0,0,1,.71-.74q.44-.37,1.07-.83a6.76,6.76,0,0,0,.76-.63,3.26,3.26,0,0,0,.5-.6,2.15,2.15,0,0,0,.27-.61A2.61,2.61,0,0,0,321.84,70.3Z" fill="#7f3f96"/><path d="M329.77,73.83a3.11,3.11,0,0,1-.2,1.13,2.72,2.72,0,0,1-.55.89,2.46,2.46,0,0,1-.84.58,2.65,2.65,0,0,1-1.05.21,2.33,2.33,0,0,1-2-1,3.64,3.64,0,0,1-.53-1.21,6.56,6.56,0,0,1-.18-1.61,7.57,7.57,0,0,1,.24-2,4.83,4.83,0,0,1,.69-1.53,3.19,3.19,0,0,1,1.08-1,2.9,2.9,0,0,1,1.41-.35,3.4,3.4,0,0,1,1.39.24v.91a3,3,0,0,0-1.37-.33,2,2,0,0,0-1,.25,2.33,2.33,0,0,0-.77.71,3.47,3.47,0,0,0-.5,1.11,5.63,5.63,0,0,0-.17,1.45h0a2,2,0,0,1,1.92-1,2.52,2.52,0,0,1,1,.19,2.14,2.14,0,0,1,.76.53,2.39,2.39,0,0,1,.48.82A3.11,3.11,0,0,1,329.77,73.83Zm-1,.12a2.61,2.61,0,0,0-.11-.79,1.72,1.72,0,0,0-.32-.6,1.38,1.38,0,0,0-.51-.38,1.73,1.73,0,0,0-.69-.13,1.62,1.62,0,0,0-.66.13,1.65,1.65,0,0,0-.53.37,1.71,1.71,0,0,0-.47,1.19,2.61,2.61,0,0,0,.12.81,2.1,2.1,0,0,0,.35.66,1.64,1.64,0,0,0,.53.44,1.45,1.45,0,0,0,.68.16,1.56,1.56,0,0,0,.66-.14,1.48,1.48,0,0,0,.51-.38,1.78,1.78,0,0,0,.33-.59A2.33,2.33,0,0,0,328.79,74Z" fill="#7f3f96"/><path d="M321.84,96.8a1.74,1.74,0,0,0-.12-.67,1.3,1.3,0,0,0-.82-.76,1.92,1.92,0,0,0-.61-.09,2,2,0,0,0-.55.08,2.68,2.68,0,0,0-.52.21,3.23,3.23,0,0,0-.49.32,3.56,3.56,0,0,0-.44.42v-1a2.87,2.87,0,0,1,.91-.6,3.19,3.19,0,0,1,1.22-.21,3,3,0,0,1,1,.15,2.19,2.19,0,0,1,.76.44,2,2,0,0,1,.51.71,2.39,2.39,0,0,1,.18,1,3.32,3.32,0,0,1-.11.9,2.79,2.79,0,0,1-.35.76,3.68,3.68,0,0,1-.58.69,8.26,8.26,0,0,1-.83.67q-.59.42-1,.72a4.31,4.31,0,0,0-.61.56,1.62,1.62,0,0,0-.32.52,1.82,1.82,0,0,0-.09.6h4.18V103H318v-.42a3.47,3.47,0,0,1,.12-.95,2.46,2.46,0,0,1,.39-.78,4.32,4.32,0,0,1,.71-.74q.44-.37,1.07-.83a6.76,6.76,0,0,0,.76-.63,3.26,3.26,0,0,0,.5-.6,2.15,2.15,0,0,0,.27-.61A2.61,2.61,0,0,0,321.84,96.8Z" fill="#7f3f96"/><path d="M324.31,100.66a2.24,2.24,0,0,1,.11-.67,2.43,2.43,0,0,1,.3-.63,2.5,2.5,0,0,1,.49-.53,2.32,2.32,0,0,1,.66-.38,2.49,2.49,0,0,1-.87-.78,1.85,1.85,0,0,1-.32-1.06,2,2,0,0,1,.67-1.54,2.29,2.29,0,0,1,.75-.45,2.8,2.8,0,0,1,1.88,0,2.33,2.33,0,0,1,.75.45,2,2,0,0,1,.49.68,2.05,2.05,0,0,1,.18.85,1.85,1.85,0,0,1-.32,1.06,2.52,2.52,0,0,1-.86.78,2.3,2.3,0,0,1,.65.38,2.53,2.53,0,0,1,.48.53,2.43,2.43,0,0,1,.3.63,2.24,2.24,0,0,1,.11.67,2.5,2.5,0,0,1-.2,1,2.25,2.25,0,0,1-.56.78,2.58,2.58,0,0,1-.86.51,3.22,3.22,0,0,1-1.1.18,3.18,3.18,0,0,1-1.1-.18,2.62,2.62,0,0,1-.86-.51,2.27,2.27,0,0,1-.57-.78A2.46,2.46,0,0,1,324.31,100.66Zm1-.08a2,2,0,0,0,.12.71,1.53,1.53,0,0,0,.34.54,1.48,1.48,0,0,0,.53.34,1.93,1.93,0,0,0,.69.12,1.83,1.83,0,0,0,.68-.12,1.58,1.58,0,0,0,.54-.35,1.55,1.55,0,0,0,.35-.54,1.89,1.89,0,0,0,.13-.7,1.8,1.8,0,0,0-.12-.66,1.65,1.65,0,0,0-.34-.54,1.61,1.61,0,0,0-.53-.37,1.73,1.73,0,0,0-.7-.13,1.75,1.75,0,0,0-.67.13,1.61,1.61,0,0,0-.53.35,1.63,1.63,0,0,0-.35.54A1.79,1.79,0,0,0,325.35,100.57Zm.3-3.9a1.39,1.39,0,0,0,.85,1.3,1.38,1.38,0,0,0,1.08,0,1.4,1.4,0,0,0,.44-.3,1.46,1.46,0,0,0,.3-.45,1.35,1.35,0,0,0,.11-.55,1.44,1.44,0,0,0-.11-.56,1.38,1.38,0,0,0-1.29-.85,1.4,1.4,0,0,0-.57.11,1.37,1.37,0,0,0-.44.3,1.32,1.32,0,0,0-.28.45A1.51,1.51,0,0,0,325.65,96.68Z" fill="#7f3f96"/><polygon points="236 119 250 119 251 119 251 118 251 90 250 90 250 118 236 118 236 90 235 90 235 118 235 119 236 119" fill="#7f3f96"/><polygon points="204 119 218 119 219 119 219 118 219 90 218 90 218 118 204 118 204 90 203 90 203 118 203 119 204 119" fill="#7f3f96"/><polygon points="172 119 186 119 187 119 187 118 187 90 186 90 186 118 172 118 172 90 171 90 171 118 171 119 172 119" fill="#7f3f96"/><polygon points="118 171 5 171 4 171 4 172 4 179 5 179 5 172 118 172 118 179 119 179 119 172 119 171 118 171" fill="#7f3f96"/><polygon points="170 171 121 171 120 171 120 172 120 179 121 179 121 172 170 172 170 179 171 179 171 172 171 171 170 171" fill="#7f3f96"/><path d="M237.3,132h-1v-7.26a2.22,2.22,0,0,1-.33.25,5.3,5.3,0,0,1-.48.28q-.27.14-.56.26a4.09,4.09,0,0,1-.58.19v-1a5.59,5.59,0,0,0,.67-.24q.35-.15.7-.33t.65-.39a5.14,5.14,0,0,0,.53-.4h.36Z" fill="#7f3f96"/><path d="M245.52,129.33a3.11,3.11,0,0,1-.2,1.13,2.72,2.72,0,0,1-.55.89,2.46,2.46,0,0,1-.84.58,2.65,2.65,0,0,1-1.05.21,2.33,2.33,0,0,1-2-1,3.64,3.64,0,0,1-.53-1.21,6.56,6.56,0,0,1-.18-1.61,7.57,7.57,0,0,1,.24-2,4.83,4.83,0,0,1,.69-1.53,3.19,3.19,0,0,1,1.08-1,2.9,2.9,0,0,1,1.41-.35,3.4,3.4,0,0,1,1.39.24v.91a3,3,0,0,0-1.37-.33,2,2,0,0,0-1,.25,2.33,2.33,0,0,0-.77.71,3.47,3.47,0,0,0-.5,1.11,5.63,5.63,0,0,0-.17,1.45h0a2,2,0,0,1,1.92-1,2.52,2.52,0,0,1,1,.19,2.14,2.14,0,0,1,.76.53,2.39,2.39,0,0,1,.48.82A3.11,3.11,0,0,1,245.52,129.33Zm-1,.12a2.61,2.61,0,0,0-.11-.79,1.72,1.72,0,0,0-.32-.6,1.38,1.38,0,0,0-.51-.38,1.73,1.73,0,0,0-.69-.13,1.62,1.62,0,0,0-.66.13,1.65,1.65,0,0,0-.53.37,1.71,1.71,0,0,0-.47,1.19,2.61,2.61,0,0,0,.12.81,2.1,2.1,0,0,0,.35.66,1.64,1.64,0,0,0,.53.44,1.45,1.45,0,0,0,.68.16,1.56,1.56,0,0,0,.66-.14,1.48,1.48,0,0,0,.51-.38,1.78,1.78,0,0,0,.33-.59A2.33,2.33,0,0,0,244.54,129.46Z" fill="#7f3f96"/><path d="M209.3,132h-1v-7.26a2.22,2.22,0,0,1-.33.25,5.3,5.3,0,0,1-.48.28q-.27.14-.56.26a4.09,4.09,0,0,1-.58.19v-1a5.59,5.59,0,0,0,.67-.24q.35-.15.7-.33t.65-.39a5.14,5.14,0,0,0,.53-.4h.36Z" fill="#7f3f96"/><path d="M217.52,129.33a3.11,3.11,0,0,1-.2,1.13,2.72,2.72,0,0,1-.55.89,2.46,2.46,0,0,1-.84.58,2.65,2.65,0,0,1-1.05.21,2.33,2.33,0,0,1-2-1,3.64,3.64,0,0,1-.53-1.21,6.56,6.56,0,0,1-.18-1.61,7.57,7.57,0,0,1,.24-2,4.83,4.83,0,0,1,.69-1.53,3.19,3.19,0,0,1,1.08-1,2.9,2.9,0,0,1,1.41-.35,3.4,3.4,0,0,1,1.39.24v.91a3,3,0,0,0-1.37-.33,2,2,0,0,0-1,.25,2.33,2.33,0,0,0-.77.71,3.47,3.47,0,0,0-.5,1.11,5.63,5.63,0,0,0-.17,1.45h0a2,2,0,0,1,1.92-1,2.52,2.52,0,0,1,1,.19,2.14,2.14,0,0,1,.76.53,2.39,2.39,0,0,1,.48.82A3.11,3.11,0,0,1,217.52,129.33Zm-1,.12a2.61,2.61,0,0,0-.11-.79,1.72,1.72,0,0,0-.32-.6,1.38,1.38,0,0,0-.51-.38,1.73,1.73,0,0,0-.69-.13,1.62,1.62,0,0,0-.66.13,1.65,1.65,0,0,0-.53.37,1.71,1.71,0,0,0-.47,1.19,2.61,2.61,0,0,0,.12.81,2.1,2.1,0,0,0,.35.66,1.64,1.64,0,0,0,.53.44,1.45,1.45,0,0,0,.68.16,1.56,1.56,0,0,0,.66-.14,1.48,1.48,0,0,0,.51-.38,1.78,1.78,0,0,0,.33-.59A2.33,2.33,0,0,0,216.54,129.46Z" fill="#7f3f96"/><path d="M176.3,132h-1v-7.26a2.22,2.22,0,0,1-.33.25,5.3,5.3,0,0,1-.48.28q-.27.14-.56.26a4.09,4.09,0,0,1-.58.19v-1a5.59,5.59,0,0,0,.67-.24q.35-.15.7-.33t.65-.39a5.14,5.14,0,0,0,.53-.4h.36Z" fill="#7f3f96"/><path d="M184.52,129.33a3.11,3.11,0,0,1-.2,1.13,2.72,2.72,0,0,1-.55.89,2.46,2.46,0,0,1-.84.58,2.65,2.65,0,0,1-1.05.21,2.33,2.33,0,0,1-2-1,3.64,3.64,0,0,1-.53-1.21,6.56,6.56,0,0,1-.18-1.61,7.57,7.57,0,0,1,.24-2,4.83,4.83,0,0,1,.69-1.53,3.19,3.19,0,0,1,1.08-1,2.9,2.9,0,0,1,1.41-.35,3.4,3.4,0,0,1,1.39.24v.91a3,3,0,0,0-1.37-.33,2,2,0,0,0-1,.25,2.33,2.33,0,0,0-.77.71,3.47,3.47,0,0,0-.5,1.11,5.63,5.63,0,0,0-.17,1.45h0a2,2,0,0,1,1.92-1,2.52,2.52,0,0,1,1,.19,2.14,2.14,0,0,1,.76.53,2.39,2.39,0,0,1,.48.82A3.11,3.11,0,0,1,184.52,129.33Zm-1,.12a2.61,2.61,0,0,0-.11-.79,1.72,1.72,0,0,0-.32-.6,1.38,1.38,0,0,0-.51-.38,1.73,1.73,0,0,0-.69-.13,1.62,1.62,0,0,0-.66.13,1.65,1.65,0,0,0-.53.37,1.71,1.71,0,0,0-.47,1.19,2.61,2.61,0,0,0,.12.81,2.1,2.1,0,0,0,.35.66,1.64,1.64,0,0,0,.53.44,1.45,1.45,0,0,0,.68.16,1.56,1.56,0,0,0,.66-.14,1.48,1.48,0,0,0,.51-.38,1.78,1.78,0,0,0,.33-.59A2.33,2.33,0,0,0,183.54,129.46Z" fill="#7f3f96"/><polygon points="137 87 137 86 120 86 119 86 100 86 100 87 119 87 119 111 100 111 100 112 119 112 120 112 137 112 137 111 120 111 120 87 137 87" fill="#7f3f96"/><polygon points="22 87 22 86 4 86 3 86 3 87 3 111 3 112 4 112 22 112 22 111 4 111 4 87 22 87" fill="#7f3f96"/><line x1="87" y1="123" x2="120" y2="111" fill="#7f3f96" stroke="#7f3f96" stroke-miterlimit="10"/><line x1="40" y1="123" x2="7" y2="111" fill="#7f3f96" stroke="#7f3f96" stroke-miterlimit="10"/><polygon points="289 59.5 289 60.5 315 60.5 315 85 289 85 289 86 316 86 316 59.5 289 59.5" fill="#7f3f96"/><polygon points="289 85 289 86 310 86 310 112 289 112 289 113 311 113 311 85 289 85" fill="#7f3f96"/><rect x="282" width="1" height="19" fill="#7f3f96"/><rect x="157" y="8" width="126" height="1" fill="#7f3f96"/><rect x="2" y="8" width="126" height="1" fill="#7f3f96"/><rect x="2" width="1" height="19" fill="#7f3f96"/><rect y="283.5" width="281" height="48.5" fill="#999ea3"/><rect x="1" y="284.5" width="279" height="46.5" fill="#fff"/><rect y="278.5" width="281" height="53.5" fill="#999ea3"/><rect x="1" y="279.5" width="279" height="24.5" fill="url(#linear-gradient-7)"/><rect x="168" y="244.5" width="26" height="24" fill="#4384b7"/><rect x="137" y="244.5" width="26" height="24" fill="#fff"/><path d="M163,268.5v-24H137v24Zm-25-23h24v22H138Z" fill="#4384b7"/><rect x="232" y="345" width="27" height="24" fill="#4384b7"/><rect x="200" y="345" width="27" height="24" fill="#fff"/><path d="M227,369V345H200v24Zm-26-23h25v22H201Z" fill="#4384b7"/><rect x="44" y="244.5" width="22" height="24" fill="#4384b7"/><rect x="20" y="244.5" width="22" height="24" fill="#fff"/><path d="M42,268.5v-24H20v24Zm-21-23H41v22H21Z" fill="#4384b7"/><rect x="1" y="305" width="279" height="26" fill="url(#linear-gradient-8)"/><path d="M16.64,295.9v-9.8h3.57a4.45,4.45,0,0,1,2.52.6,1.93,1.93,0,0,1,.88,1.69,2,2,0,0,1-.54,1.39,2.82,2.82,0,0,1-1.37.83v0a2.71,2.71,0,0,1,1.67.77A2.16,2.16,0,0,1,24,293a2.61,2.61,0,0,1-1,2.13,4,4,0,0,1-2.63.79Zm2.21-8.17V290h1a1.62,1.62,0,0,0,1.08-.33,1.13,1.13,0,0,0,.39-.91q0-1.08-1.61-1.08Zm0,4v2.58H20a1.84,1.84,0,0,0,1.2-.36,1.19,1.19,0,0,0,.43-1,1.11,1.11,0,0,0-.43-.92,1.89,1.89,0,0,0-1.19-.33Z" fill="#575757"/><path d="M45,286.1l-4.1,9.8H39.25l4.08-9.8Z" fill="#575757"/><path d="M69.81,289.86q0,3.79-4,3.79t-3.91-3.7V285.1H64V290q0,2,1.82,2t1.79-2V285.1h2.16Z" fill="#575757"/><rect x="60" y="295.5" width="12" height="1" fill="#575757"/><rect x="2" y="306" width="115" height="24" fill="#929497"/><rect x="3" y="307" width="92" height="22" fill="#fff"/><rect x="96" y="307" width="20" height="22" fill="url(#linear-gradient-9)"/><path d="M9.71,321.05v-1.16a2.25,2.25,0,0,0,.48.32,3.87,3.87,0,0,0,.59.24,4.66,4.66,0,0,0,.62.15,3.45,3.45,0,0,0,.57.05,2.25,2.25,0,0,0,1.36-.34,1.27,1.27,0,0,0,.3-1.56,1.68,1.68,0,0,0-.41-.46,4.1,4.1,0,0,0-.62-.4l-.78-.4q-.44-.22-.82-.45a3.55,3.55,0,0,1-.66-.5,2.1,2.1,0,0,1-.44-.62A2.13,2.13,0,0,1,10,314.1a2.16,2.16,0,0,1,.66-.7,3,3,0,0,1,.93-.41,4.28,4.28,0,0,1,1.07-.13,4.1,4.1,0,0,1,1.81.3v1.11a3.28,3.28,0,0,0-1.91-.52,3.14,3.14,0,0,0-.64.07,1.82,1.82,0,0,0-.57.22,1.27,1.27,0,0,0-.41.39,1,1,0,0,0-.16.59,1.21,1.21,0,0,0,.12.56,1.36,1.36,0,0,0,.35.43,3.53,3.53,0,0,0,.57.38l.78.4q.45.22.86.47a3.91,3.91,0,0,1,.71.54,2.42,2.42,0,0,1,.48.66,1.86,1.86,0,0,1,.18.83,2.11,2.11,0,0,1-.24,1.05,2,2,0,0,1-.66.7,2.87,2.87,0,0,1-1,.39,5.22,5.22,0,0,1-1.14.12l-.49,0-.6-.09a4.88,4.88,0,0,1-.58-.15A1.79,1.79,0,0,1,9.71,321.05Z" fill="#58595b"/><path d="M21.17,318.63H16.93a2.24,2.24,0,0,0,.54,1.55,1.86,1.86,0,0,0,1.42.54,3,3,0,0,0,1.86-.67v.9a3.48,3.48,0,0,1-2.09.57,2.54,2.54,0,0,1-2-.82,3.35,3.35,0,0,1-.73-2.3,3.28,3.28,0,0,1,.79-2.28,2.55,2.55,0,0,1,2-.88,2.26,2.26,0,0,1,1.82.76,3.18,3.18,0,0,1,.64,2.12Zm-1-.81a2,2,0,0,0-.4-1.29,1.37,1.37,0,0,0-1.1-.46,1.55,1.55,0,0,0-1.15.49,2.21,2.21,0,0,0-.59,1.27Z" fill="#58595b"/><path d="M27.74,320.91q0,3.3-3.16,3.3a4.25,4.25,0,0,1-1.95-.42v-1a4,4,0,0,0,1.93.56q2.21,0,2.21-2.36v-.66h0a2.43,2.43,0,0,1-3.86.35,3.2,3.2,0,0,1-.68-2.15,3.74,3.74,0,0,1,.74-2.43,2.46,2.46,0,0,1,2-.9,2,2,0,0,1,1.8,1h0v-.83h1Zm-1-2.23v-.88a1.72,1.72,0,0,0-.48-1.22,1.59,1.59,0,0,0-1.2-.51,1.67,1.67,0,0,0-1.39.65,2.89,2.89,0,0,0-.5,1.81,2.48,2.48,0,0,0,.48,1.6,1.56,1.56,0,0,0,1.28.6,1.67,1.67,0,0,0,1.32-.57A2.14,2.14,0,0,0,26.78,318.68Z" fill="#58595b"/><path d="M32.2,321.54a2.78,2.78,0,0,1-2.12-.84,3.12,3.12,0,0,1-.79-2.23,3.24,3.24,0,0,1,.83-2.36,3,3,0,0,1,2.23-.85,2.69,2.69,0,0,1,2.09.83,3.28,3.28,0,0,1,.75,2.29,3.23,3.23,0,0,1-.81,2.3A2.84,2.84,0,0,1,32.2,321.54Zm.07-5.47a1.83,1.83,0,0,0-1.46.63,2.58,2.58,0,0,0-.54,1.74,2.45,2.45,0,0,0,.54,1.68,1.85,1.85,0,0,0,1.46.62,1.76,1.76,0,0,0,1.43-.6,2.62,2.62,0,0,0,.5-1.72,2.66,2.66,0,0,0-.5-1.73A1.75,1.75,0,0,0,32.27,316.06Z" fill="#58595b"/><path d="M41.54,318.63H37.31a2.24,2.24,0,0,0,.54,1.55,1.86,1.86,0,0,0,1.42.54,3,3,0,0,0,1.86-.67v.9a3.48,3.48,0,0,1-2.09.57,2.54,2.54,0,0,1-2-.82,3.35,3.35,0,0,1-.73-2.3,3.28,3.28,0,0,1,.79-2.28,2.55,2.55,0,0,1,2-.88,2.26,2.26,0,0,1,1.82.76,3.18,3.18,0,0,1,.64,2.12Zm-1-.81a2,2,0,0,0-.4-1.29,1.37,1.37,0,0,0-1.1-.46,1.55,1.55,0,0,0-1.15.49,2.21,2.21,0,0,0-.59,1.27Z" fill="#58595b"/><path d="M52.56,318q0,3.54-3.19,3.54t-3.06-3.4V313h1v5.07q0,2.58,2.18,2.58t2.1-2.5V313h1Z" fill="#58595b"/><path d="M55.64,321.39h-1V313h1Z" fill="#58595b"/><path d="M61.14,321.39V313h2.39a2.61,2.61,0,0,1,1.73.53,1.72,1.72,0,0,1,.64,1.39,2,2,0,0,1-.39,1.24,2.09,2.09,0,0,1-1.07.75v0a2.14,2.14,0,0,1,1.36.64,2,2,0,0,1,.51,1.41,2.2,2.2,0,0,1-.77,1.75,2.88,2.88,0,0,1-2,.67Zm1-7.51v2.71h1a1.91,1.91,0,0,0,1.27-.39,1.36,1.36,0,0,0,.46-1.1q0-1.22-1.61-1.22Zm0,3.6v3h1.34a2,2,0,0,0,1.34-.41,1.4,1.4,0,0,0,.48-1.12q0-1.49-2-1.49Z" fill="#58595b"/><path d="M70.39,321.54a2.78,2.78,0,0,1-2.12-.84,3.12,3.12,0,0,1-.79-2.23,3.24,3.24,0,0,1,.83-2.36,3,3,0,0,1,2.23-.85,2.69,2.69,0,0,1,2.09.83,3.28,3.28,0,0,1,.75,2.29,3.23,3.23,0,0,1-.81,2.3A2.84,2.84,0,0,1,70.39,321.54Zm.07-5.47a1.83,1.83,0,0,0-1.46.63,2.58,2.58,0,0,0-.54,1.74,2.45,2.45,0,0,0,.54,1.68,1.85,1.85,0,0,0,1.46.62,1.76,1.76,0,0,0,1.43-.6,2.62,2.62,0,0,0,.5-1.72,2.66,2.66,0,0,0-.5-1.73A1.75,1.75,0,0,0,70.46,316.06Z" fill="#58595b"/><path d="M75.88,321.39h-1v-8.88h1Z" fill="#58595b"/><path d="M82.95,321.39H82v-1h0a2.42,2.42,0,0,1-3.87.36,3.31,3.31,0,0,1-.68-2.2,3.6,3.6,0,0,1,.75-2.38,2.47,2.47,0,0,1,2-.9,1.92,1.92,0,0,1,1.8,1h0v-3.71h1Zm-1-2.71v-.88a1.72,1.72,0,0,0-.48-1.23,1.61,1.61,0,0,0-1.22-.5,1.66,1.66,0,0,0-1.38.64,2.82,2.82,0,0,0-.5,1.78,2.54,2.54,0,0,0,.48,1.64,1.58,1.58,0,0,0,1.3.6,1.64,1.64,0,0,0,1.3-.58A2.16,2.16,0,0,0,82,318.68Z" fill="#58595b"/><path d="M101.09,315h9l-4.5,6Z" fill="#4d5359"/><rect x="118" y="306" width="51" height="24" fill="#929497"/><rect x="119" y="307" width="28" height="22" fill="#fff"/><rect x="148" y="307" width="20" height="22" fill="url(#linear-gradient-10)"/><path d="M129.87,321.57h-1v-7.26a2.22,2.22,0,0,1-.33.26,5.3,5.3,0,0,1-.48.28q-.27.14-.56.26a4.09,4.09,0,0,1-.58.19v-1a5.57,5.57,0,0,0,.67-.24q.35-.15.7-.33t.65-.39a5.14,5.14,0,0,0,.53-.4h.36Z" fill="#58595b"/><path d="M136.62,315.38a1.74,1.74,0,0,0-.12-.67,1.33,1.33,0,0,0-.33-.48,1.35,1.35,0,0,0-.49-.29,1.92,1.92,0,0,0-.61-.09,2,2,0,0,0-.55.08,2.68,2.68,0,0,0-.52.21,3.23,3.23,0,0,0-.49.32,3.56,3.56,0,0,0-.44.42v-1a2.87,2.87,0,0,1,.91-.6,3.19,3.19,0,0,1,1.22-.21,3,3,0,0,1,1,.15,2.19,2.19,0,0,1,.76.44,2,2,0,0,1,.51.71,2.39,2.39,0,0,1,.18,1,3.32,3.32,0,0,1-.11.9,2.79,2.79,0,0,1-.35.76,3.68,3.68,0,0,1-.58.69,8.26,8.26,0,0,1-.83.67q-.59.42-1,.72a4.31,4.31,0,0,0-.61.56,1.62,1.62,0,0,0-.32.52,1.82,1.82,0,0,0-.09.6h4.18v.86h-5.19v-.42a3.47,3.47,0,0,1,.12-.95,2.46,2.46,0,0,1,.39-.78,4.32,4.32,0,0,1,.71-.74q.44-.37,1.07-.83a6.76,6.76,0,0,0,.76-.63,3.26,3.26,0,0,0,.5-.6,2.14,2.14,0,0,0,.27-.61A2.62,2.62,0,0,0,136.62,315.38Z" fill="#58595b"/><path d="M153.09,315h9l-4.5,6Z" fill="#4d5359"/><rect x="93" y="284.5" width="12" height="2" fill="#575757"/><rect x="93" y="290.5" width="12" height="2" fill="#575757"/><rect x="93" y="296.5" width="12" height="2" fill="#575757"/><path d="M89.11,284.11v-.37a2,2,0,0,0,.73-.17.84.84,0,0,0,.31-.57h.38v3.83H90v-2.73Z" fill="#575757"/><path d="M88.74,292a1.66,1.66,0,0,1,.7-.67L90,291a2.42,2.42,0,0,0,.49-.34.75.75,0,0,0,0-1,.73.73,0,0,0-.54-.2.7.7,0,0,0-.69.38,1.35,1.35,0,0,0-.11.56h-.49a1.73,1.73,0,0,1,.19-.82,1.16,1.16,0,0,1,1.11-.56,1.14,1.14,0,0,1,1.27,1.15,1.08,1.08,0,0,1-.33.79,3.18,3.18,0,0,1-.67.46l-.37.2a2.39,2.39,0,0,0-.41.28,1,1,0,0,0-.34.52h2.1v.46H88.54A2.25,2.25,0,0,1,88.74,292Z" fill="#575757"/><path d="M88.84,298.62a1.39,1.39,0,0,1-.31-.91H89a1.25,1.25,0,0,0,.14.54.74.74,0,0,0,.68.3.89.89,0,0,0,.61-.2.67.67,0,0,0,.23-.53.61.61,0,0,0-.24-.56,1.23,1.23,0,0,0-.68-.16h-.2v-.43h.24a1,1,0,0,0,.45-.09.55.55,0,0,0,.31-.54.53.53,0,0,0-.2-.44.76.76,0,0,0-.48-.16.71.71,0,0,0-.67.32,1.12,1.12,0,0,0-.12.51h-.48a1.45,1.45,0,0,1,.17-.73,1.08,1.08,0,0,1,1-.54,1.41,1.41,0,0,1,.91.26.92.92,0,0,1,.32.76.85.85,0,0,1-.19.58.8.8,0,0,1-.31.22.84.84,0,0,1,.47.32,1,1,0,0,1,.17.58,1.19,1.19,0,0,1-.36.9,1.43,1.43,0,0,1-1,.35A1.21,1.21,0,0,1,88.84,298.62Z" fill="#575757"/><rect x="125" y="284.5" width="12" height="2" fill="#575757"/><rect x="125" y="290.5" width="12" height="2" fill="#575757"/><rect x="125" y="296.5" width="12" height="2" fill="#575757"/><rect x="121.17" y="296.5" width="2" height="2" fill="#575757"/><rect x="121.17" y="290.5" width="2" height="2" fill="#575757"/><rect x="121.17" y="284.5" width="2" height="2" fill="#575757"/><polygon points="157.22 291.57 153 294.4 153 288.54 157.22 291.57" fill="#575757"/><rect x="153" y="284.5" width="16" height="2" fill="#575757"/><rect x="159" y="290.5" width="10" height="2" fill="#575757"/><rect x="153" y="296.5" width="16" height="2" fill="#575757"/><path d="M223,290.5h10v-3H223Zm1-2h8v1h-8Z" fill="#575757"/><path d="M223,298.5h10v-3H223Zm1-2h8v1h-8Z" fill="#575757"/><rect x="217" y="287.5" width="5" height="3" fill="#575757"/><path d="M223,294.5h10v-3H223Zm1-2h8v1h-8Z" fill="#575757"/><rect x="217" y="291.5" width="5" height="3" fill="#575757"/><rect x="223" y="283.5" width="10" height="3" fill="#575757"/><rect x="217" y="283.5" width="5" height="3" fill="#575757"/><rect x="217" y="295.5" width="5" height="3" fill="#575757"/><rect x="231" y="310" width="2" height="16" fill="#575757"/><rect x="217" y="311" width="12" height="2" fill="#575757"/><rect x="219" y="315" width="10" height="2" fill="#575757"/><rect x="221" y="319" width="8" height="2" fill="#575757"/><rect x="223" y="323" width="6" height="2" fill="#575757"/><rect x="185" y="310" width="2" height="16" fill="#575757"/><rect x="189" y="311" width="12" height="2" fill="#575757"/><rect x="189" y="315" width="10" height="2" fill="#575757"/><rect x="189" y="319" width="8" height="2" fill="#575757"/><rect x="189" y="323" width="6" height="2" fill="#575757"/><rect x="185" y="310" width="2" height="16" fill="#575757"/><rect x="189" y="311" width="12" height="2" fill="#575757"/><rect x="189" y="315" width="10" height="2" fill="#575757"/><rect x="189" y="319" width="8" height="2" fill="#575757"/><rect x="189" y="323" width="6" height="2" fill="#575757"/><path d="M251,321h4v-2h-4Zm1,4h3v-2h-3Zm-2-8h5v-2h-5Zm-1-4h6v-2h-6Zm10,4h5v-2h-5Zm0-6v2h6v-2Zm0,10h4v-2h-4Zm0,4h3v-2h-3Z" fill="#575757"/><rect x="256" y="310" width="2" height="16" fill="#575757"/><path d="M196.84,291.51l0-.28a4.17,4.17,0,0,0,0-1s0-.08,0-.13a4,4,0,0,0-.07-.41c0-.13-.07-.25-.11-.37s0-.11-.05-.16l0-.1a3.8,3.8,0,0,0-1.66-1.88l-1.51,1.51a3.3,3.3,0,0,1,1,.82c.77.77.36,2.24-.4,3.24l-3,2.91-1,.78a2,2,0,0,1-2.83-.09,2.06,2.06,0,0,1,0-2.87l1-1a5.06,5.06,0,0,1-.28-2.56l-2.14,2.14a4,4,0,1,0,5.66,5.65l4.24-4.24A4,4,0,0,0,196.84,291.51Z" fill="#575757"/><path d="M193.65,284.28l-3.54,3.54a4,4,0,0,0,.81,6.26l1.51-1.51a2,2,0,0,1-.9-.51,2,2,0,0,1,0-2.83l3.54-3.54a2,2,0,1,1,2.83,2.83l-.3.3a5,5,0,0,1,.28,2.55l1.44-1.44a4,4,0,0,0-5.66-5.66Z" fill="#575757"/><polygon points="255.96 296.2 251.29 291.52 255.96 286.83 255.96 284.54 249 291.52 255.96 298.5 255.96 296.2" fill="#575757"/><polygon points="258 286.83 262.67 291.52 258 296.2 258 298.5 264.96 291.52 258 284.54 258 286.83" fill="#575757"/><path d="M31.52,232.3a1.74,1.74,0,0,0-.12-.67,1.3,1.3,0,0,0-.82-.76,1.92,1.92,0,0,0-.61-.09,2,2,0,0,0-.55.08,2.68,2.68,0,0,0-.52.21,3.23,3.23,0,0,0-.49.32,3.56,3.56,0,0,0-.44.42v-1a2.87,2.87,0,0,1,.91-.6,3.19,3.19,0,0,1,1.22-.21,3,3,0,0,1,1,.15,2.19,2.19,0,0,1,.76.44,2,2,0,0,1,.51.71,2.39,2.39,0,0,1,.18,1,3.32,3.32,0,0,1-.11.9,2.79,2.79,0,0,1-.35.76,3.68,3.68,0,0,1-.58.69,8.26,8.26,0,0,1-.83.67q-.59.42-1,.72a4.31,4.31,0,0,0-.61.56,1.62,1.62,0,0,0-.32.52,1.82,1.82,0,0,0-.09.6h4.18v.86H27.64v-.42a3.47,3.47,0,0,1,.12-.95,2.46,2.46,0,0,1,.39-.78,4.32,4.32,0,0,1,.71-.74q.44-.37,1.07-.83a6.76,6.76,0,0,0,.76-.63,3.26,3.26,0,0,0,.5-.6,2.15,2.15,0,0,0,.27-.61A2.61,2.61,0,0,0,31.52,232.3Z" fill="#7f3f96"/><path d="M38,232.3a1.74,1.74,0,0,0-.12-.67,1.3,1.3,0,0,0-.82-.76,1.92,1.92,0,0,0-.61-.09,2,2,0,0,0-.55.08,2.68,2.68,0,0,0-.52.21,3.23,3.23,0,0,0-.49.32,3.56,3.56,0,0,0-.44.42v-1a2.87,2.87,0,0,1,.91-.6,3.19,3.19,0,0,1,1.22-.21,3,3,0,0,1,1,.15,2.19,2.19,0,0,1,.76.44,2,2,0,0,1,.51.71,2.39,2.39,0,0,1,.18,1,3.32,3.32,0,0,1-.11.9,2.79,2.79,0,0,1-.35.76,3.68,3.68,0,0,1-.58.69,8.26,8.26,0,0,1-.83.67q-.59.42-1,.72a4.31,4.31,0,0,0-.61.56,1.62,1.62,0,0,0-.32.52,1.82,1.82,0,0,0-.09.6h4.18v.86H34.11v-.42a3.47,3.47,0,0,1,.12-.95,2.46,2.46,0,0,1,.39-.78,4.32,4.32,0,0,1,.71-.74q.44-.37,1.07-.83a6.76,6.76,0,0,0,.76-.63,3.26,3.26,0,0,0,.5-.6,2.15,2.15,0,0,0,.27-.61A2.61,2.61,0,0,0,38,232.3Z" fill="#7f3f96"/><path d="M46.84,238.5h-1.2l-1.93-3.22a2.88,2.88,0,0,1-.19-.42h0l-.2.42-2,3.22H40.09l2.81-4.22-2.59-4.18h1.21l1.72,3a5.92,5.92,0,0,1,.3.59h0a6.47,6.47,0,0,1,.33-.61l1.79-2.93H46.8l-2.64,4.17Z" fill="#7f3f96"/><path d="M51.54,232.3a1.74,1.74,0,0,0-.12-.67,1.3,1.3,0,0,0-.82-.76,1.92,1.92,0,0,0-.61-.09,2,2,0,0,0-.55.08,2.68,2.68,0,0,0-.52.21,3.23,3.23,0,0,0-.49.32,3.56,3.56,0,0,0-.44.42v-1a2.87,2.87,0,0,1,.91-.6,3.19,3.19,0,0,1,1.22-.21,3,3,0,0,1,1,.15,2.19,2.19,0,0,1,.76.44,2,2,0,0,1,.51.71,2.39,2.39,0,0,1,.18,1,3.32,3.32,0,0,1-.11.9,2.79,2.79,0,0,1-.35.76,3.68,3.68,0,0,1-.58.69,8.26,8.26,0,0,1-.83.67q-.59.42-1,.72a4.31,4.31,0,0,0-.61.56,1.62,1.62,0,0,0-.32.52,1.82,1.82,0,0,0-.09.6h4.18v.86H47.65v-.42a3.47,3.47,0,0,1,.12-.95,2.46,2.46,0,0,1,.39-.78,4.32,4.32,0,0,1,.71-.74q.44-.37,1.07-.83a6.76,6.76,0,0,0,.76-.63,3.26,3.26,0,0,0,.5-.6,2.15,2.15,0,0,0,.27-.61A2.61,2.61,0,0,0,51.54,232.3Z" fill="#7f3f96"/><path d="M58.46,230.1v5.55h1.08v.88H58.46v2h-.95v-2H53.57v-.83q.55-.62,1.11-1.33t1.08-1.43q.51-.73.95-1.45a13.25,13.25,0,0,0,.74-1.39Zm-3.81,5.55h2.87v-4.11q-.44.77-.83,1.37t-.75,1.1q-.35.49-.68.89Z" fill="#7f3f96"/><path d="M150.52,232.3a1.74,1.74,0,0,0-.12-.67,1.3,1.3,0,0,0-.82-.76,1.92,1.92,0,0,0-.61-.09,2,2,0,0,0-.55.08,2.68,2.68,0,0,0-.52.21,3.23,3.23,0,0,0-.49.32,3.56,3.56,0,0,0-.44.42v-1a2.87,2.87,0,0,1,.91-.6,3.19,3.19,0,0,1,1.22-.21,3,3,0,0,1,1,.15,2.19,2.19,0,0,1,.76.44,2,2,0,0,1,.51.71,2.39,2.39,0,0,1,.18,1,3.32,3.32,0,0,1-.11.9,2.79,2.79,0,0,1-.35.76,3.68,3.68,0,0,1-.58.69,8.26,8.26,0,0,1-.83.67q-.59.42-1,.72a4.31,4.31,0,0,0-.61.56,1.62,1.62,0,0,0-.32.52,1.82,1.82,0,0,0-.09.6h4.18v.86h-5.19v-.42a3.47,3.47,0,0,1,.12-.95,2.46,2.46,0,0,1,.39-.78,4.32,4.32,0,0,1,.71-.74q.44-.37,1.07-.83a6.76,6.76,0,0,0,.76-.63,3.26,3.26,0,0,0,.5-.6,2.15,2.15,0,0,0,.27-.61A2.61,2.61,0,0,0,150.52,232.3Z" fill="#7f3f96"/><path d="M158.46,235.83a3.11,3.11,0,0,1-.2,1.13,2.72,2.72,0,0,1-.55.89,2.46,2.46,0,0,1-.84.58,2.65,2.65,0,0,1-1.05.21,2.33,2.33,0,0,1-2-1,3.64,3.64,0,0,1-.53-1.21,6.56,6.56,0,0,1-.18-1.61,7.57,7.57,0,0,1,.24-2,4.83,4.83,0,0,1,.69-1.53,3.19,3.19,0,0,1,1.08-1,2.9,2.9,0,0,1,1.41-.35,3.4,3.4,0,0,1,1.39.24v.91a3,3,0,0,0-1.37-.33,2,2,0,0,0-1,.25,2.33,2.33,0,0,0-.77.71,3.47,3.47,0,0,0-.5,1.11,5.63,5.63,0,0,0-.17,1.45h0a2,2,0,0,1,1.92-1,2.52,2.52,0,0,1,1,.19,2.14,2.14,0,0,1,.76.53,2.39,2.39,0,0,1,.48.82A3.11,3.11,0,0,1,158.46,235.83Zm-1,.12a2.61,2.61,0,0,0-.11-.79,1.72,1.72,0,0,0-.32-.6,1.38,1.38,0,0,0-.51-.38,1.73,1.73,0,0,0-.69-.13,1.62,1.62,0,0,0-.66.13,1.65,1.65,0,0,0-.53.37,1.71,1.71,0,0,0-.47,1.19,2.61,2.61,0,0,0,.12.81,2.1,2.1,0,0,0,.35.66,1.64,1.64,0,0,0,.53.44,1.45,1.45,0,0,0,.68.16,1.56,1.56,0,0,0,.66-.14,1.48,1.48,0,0,0,.51-.38,1.78,1.78,0,0,0,.33-.59A2.33,2.33,0,0,0,157.47,236Z" fill="#7f3f96"/><path d="M165.84,238.5h-1.2l-1.93-3.22a2.88,2.88,0,0,1-.19-.42h0l-.2.42-2,3.22h-1.21l2.81-4.22-2.59-4.18h1.21l1.72,3a5.92,5.92,0,0,1,.3.59h0a6.47,6.47,0,0,1,.33-.61l1.79-2.93h1.13l-2.64,4.17Z" fill="#7f3f96"/><path d="M170.54,232.3a1.74,1.74,0,0,0-.12-.67,1.3,1.3,0,0,0-.82-.76,1.92,1.92,0,0,0-.61-.09,2,2,0,0,0-.55.08,2.68,2.68,0,0,0-.52.21,3.23,3.23,0,0,0-.49.32,3.56,3.56,0,0,0-.44.42v-1a2.87,2.87,0,0,1,.91-.6,3.19,3.19,0,0,1,1.22-.21,3,3,0,0,1,1,.15,2.19,2.19,0,0,1,.76.44,2,2,0,0,1,.51.71,2.39,2.39,0,0,1,.18,1,3.32,3.32,0,0,1-.11.9,2.79,2.79,0,0,1-.35.76,3.68,3.68,0,0,1-.58.69,8.26,8.26,0,0,1-.83.67q-.59.42-1,.72a4.31,4.31,0,0,0-.61.56,1.62,1.62,0,0,0-.32.52,1.82,1.82,0,0,0-.09.6h4.18v.86h-5.19v-.42a3.47,3.47,0,0,1,.12-.95,2.46,2.46,0,0,1,.39-.78,4.32,4.32,0,0,1,.71-.74q.44-.37,1.07-.83a6.76,6.76,0,0,0,.76-.63,3.26,3.26,0,0,0,.5-.6,2.15,2.15,0,0,0,.27-.61A2.61,2.61,0,0,0,170.54,232.3Z" fill="#7f3f96"/><path d="M177.46,230.1v5.55h1.08v.88h-1.08v2h-.95v-2h-3.95v-.83q.55-.62,1.11-1.33t1.08-1.43q.51-.73.95-1.45a13.25,13.25,0,0,0,.74-1.39Zm-3.81,5.55h2.87v-4.11q-.44.77-.83,1.37t-.75,1.1q-.35.49-.68.89Z" fill="#7f3f96"/><path d="M388.88,259.29a8.37,8.37,0,0,1-.23,2.05,4.58,4.58,0,0,1-.67,1.52,3,3,0,0,1-1.07.95,3.11,3.11,0,0,1-1.44.33,3.45,3.45,0,0,1-1.46-.29v-.92a3,3,0,0,0,1.49.39,2.16,2.16,0,0,0,1-.23,2.11,2.11,0,0,0,.76-.68,3.35,3.35,0,0,0,.47-1.1,6.24,6.24,0,0,0,.16-1.51h0a1.92,1.92,0,0,1-1.87,1.08,2.52,2.52,0,0,1-1-.19,2.27,2.27,0,0,1-.78-.54,2.47,2.47,0,0,1-.51-.83,3,3,0,0,1-.18-1.06,3.09,3.09,0,0,1,.2-1.14,2.65,2.65,0,0,1,.56-.89,2.52,2.52,0,0,1,.86-.58,2.8,2.8,0,0,1,1.08-.21,2.39,2.39,0,0,1,1.12.25,2.25,2.25,0,0,1,.82.74,3.68,3.68,0,0,1,.51,1.2A6.87,6.87,0,0,1,388.88,259.29Zm-1-.86a2.93,2.93,0,0,0-.13-.88,2.14,2.14,0,0,0-.35-.68,1.56,1.56,0,0,0-.53-.44,1.47,1.47,0,0,0-.67-.16,1.52,1.52,0,0,0-.64.14,1.55,1.55,0,0,0-.52.39,1.85,1.85,0,0,0-.35.59,2.15,2.15,0,0,0-.13.75,2.46,2.46,0,0,0,.12.8,1.66,1.66,0,0,0,.34.59,1.48,1.48,0,0,0,.54.37,1.81,1.81,0,0,0,.69.13,1.59,1.59,0,0,0,.63-.13,1.67,1.67,0,0,0,.52-.34,1.57,1.57,0,0,0,.35-.5A1.55,1.55,0,0,0,387.85,258.43Z" fill="#7f3f96"/><path d="M423,261.33a3.11,3.11,0,0,1-.2,1.13,2.72,2.72,0,0,1-.55.89,2.46,2.46,0,0,1-.84.58,2.65,2.65,0,0,1-1.05.21,2.33,2.33,0,0,1-2-1,3.64,3.64,0,0,1-.53-1.21,6.56,6.56,0,0,1-.18-1.61,7.57,7.57,0,0,1,.24-2,4.83,4.83,0,0,1,.69-1.53,3.19,3.19,0,0,1,1.08-1,2.9,2.9,0,0,1,1.41-.35,3.4,3.4,0,0,1,1.39.24v.91a3,3,0,0,0-1.37-.33,2,2,0,0,0-1,.25,2.33,2.33,0,0,0-.77.71,3.47,3.47,0,0,0-.5,1.11,5.63,5.63,0,0,0-.17,1.45h0a2,2,0,0,1,1.92-1,2.52,2.52,0,0,1,1,.19,2.14,2.14,0,0,1,.76.53,2.39,2.39,0,0,1,.48.82A3.11,3.11,0,0,1,423,261.33Zm-1,.12a2.61,2.61,0,0,0-.11-.79,1.72,1.72,0,0,0-.32-.6,1.38,1.38,0,0,0-.51-.38,1.73,1.73,0,0,0-.69-.13,1.62,1.62,0,0,0-.66.13,1.65,1.65,0,0,0-.53.37,1.71,1.71,0,0,0-.47,1.19,2.61,2.61,0,0,0,.12.81,2.1,2.1,0,0,0,.35.66,1.64,1.64,0,0,0,.53.44,1.45,1.45,0,0,0,.68.16,1.56,1.56,0,0,0,.66-.14,1.48,1.48,0,0,0,.51-.38,1.78,1.78,0,0,0,.33-.59A2.33,2.33,0,0,0,422,261.46Z" fill="#7f3f96"/><path d="M455,261.33a3.11,3.11,0,0,1-.2,1.13,2.72,2.72,0,0,1-.55.89,2.46,2.46,0,0,1-.84.58,2.65,2.65,0,0,1-1.05.21,2.33,2.33,0,0,1-2-1,3.64,3.64,0,0,1-.53-1.21,6.56,6.56,0,0,1-.18-1.61,7.57,7.57,0,0,1,.24-2,4.83,4.83,0,0,1,.69-1.53,3.19,3.19,0,0,1,1.08-1,2.9,2.9,0,0,1,1.41-.35,3.4,3.4,0,0,1,1.39.24v.91a3,3,0,0,0-1.37-.33,2,2,0,0,0-1,.25,2.33,2.33,0,0,0-.77.71,3.47,3.47,0,0,0-.5,1.11,5.63,5.63,0,0,0-.17,1.45h0a2,2,0,0,1,1.92-1,2.52,2.52,0,0,1,1,.19,2.14,2.14,0,0,1,.76.53,2.39,2.39,0,0,1,.48.82A3.11,3.11,0,0,1,455,261.33Zm-1,.12a2.61,2.61,0,0,0-.11-.79,1.72,1.72,0,0,0-.32-.6,1.38,1.38,0,0,0-.51-.38,1.73,1.73,0,0,0-.69-.13,1.62,1.62,0,0,0-.66.13,1.65,1.65,0,0,0-.53.37,1.71,1.71,0,0,0-.47,1.19,2.61,2.61,0,0,0,.12.81,2.1,2.1,0,0,0,.35.66,1.64,1.64,0,0,0,.53.44,1.45,1.45,0,0,0,.68.16,1.56,1.56,0,0,0,.66-.14,1.48,1.48,0,0,0,.51-.38,1.78,1.78,0,0,0,.33-.59A2.33,2.33,0,0,0,454,261.46Z" fill="#7f3f96"/><path d="M487,261.33a3.11,3.11,0,0,1-.2,1.13,2.72,2.72,0,0,1-.55.89,2.46,2.46,0,0,1-.84.58,2.65,2.65,0,0,1-1.05.21,2.33,2.33,0,0,1-2-1,3.64,3.64,0,0,1-.53-1.21,6.56,6.56,0,0,1-.18-1.61,7.57,7.57,0,0,1,.24-2,4.83,4.83,0,0,1,.69-1.53,3.19,3.19,0,0,1,1.08-1,2.9,2.9,0,0,1,1.41-.35,3.4,3.4,0,0,1,1.39.24v.91a3,3,0,0,0-1.37-.33,2,2,0,0,0-1,.25,2.33,2.33,0,0,0-.77.71,3.47,3.47,0,0,0-.5,1.11,5.63,5.63,0,0,0-.17,1.45h0a2,2,0,0,1,1.92-1,2.52,2.52,0,0,1,1,.19,2.14,2.14,0,0,1,.76.53,2.39,2.39,0,0,1,.48.82A3.11,3.11,0,0,1,487,261.33Zm-1,.12a2.61,2.61,0,0,0-.11-.79,1.72,1.72,0,0,0-.32-.6,1.38,1.38,0,0,0-.51-.38,1.73,1.73,0,0,0-.69-.13,1.62,1.62,0,0,0-.66.13,1.65,1.65,0,0,0-.53.37,1.71,1.71,0,0,0-.47,1.19,2.61,2.61,0,0,0,.12.81,2.1,2.1,0,0,0,.35.66,1.64,1.64,0,0,0,.53.44,1.45,1.45,0,0,0,.68.16,1.56,1.56,0,0,0,.66-.14,1.48,1.48,0,0,0,.51-.38,1.78,1.78,0,0,0,.33-.59A2.33,2.33,0,0,0,486,261.46Z" fill="#7f3f96"/><path d="M519,261.33a3.11,3.11,0,0,1-.2,1.13,2.72,2.72,0,0,1-.55.89,2.46,2.46,0,0,1-.84.58,2.65,2.65,0,0,1-1.05.21,2.33,2.33,0,0,1-2-1,3.64,3.64,0,0,1-.53-1.21,6.56,6.56,0,0,1-.18-1.61,7.57,7.57,0,0,1,.24-2,4.83,4.83,0,0,1,.69-1.53,3.19,3.19,0,0,1,1.08-1,2.9,2.9,0,0,1,1.41-.35,3.4,3.4,0,0,1,1.39.24v.91a3,3,0,0,0-1.37-.33,2,2,0,0,0-1,.25,2.33,2.33,0,0,0-.77.71,3.47,3.47,0,0,0-.5,1.11,5.63,5.63,0,0,0-.17,1.45h0a2,2,0,0,1,1.92-1,2.52,2.52,0,0,1,1,.19,2.14,2.14,0,0,1,.76.53,2.39,2.39,0,0,1,.48.82A3.11,3.11,0,0,1,519,261.33Zm-1,.12a2.61,2.61,0,0,0-.11-.79,1.72,1.72,0,0,0-.32-.6,1.38,1.38,0,0,0-.51-.38,1.73,1.73,0,0,0-.69-.13,1.62,1.62,0,0,0-.66.13,1.65,1.65,0,0,0-.53.37,1.71,1.71,0,0,0-.47,1.19,2.61,2.61,0,0,0,.12.81,2.1,2.1,0,0,0,.35.66,1.64,1.64,0,0,0,.53.44,1.45,1.45,0,0,0,.68.16,1.56,1.56,0,0,0,.66-.14,1.48,1.48,0,0,0,.51-.38,1.78,1.78,0,0,0,.33-.59A2.33,2.33,0,0,0,518,261.46Z" fill="#7f3f96"/><path d="M551,261.33a3.11,3.11,0,0,1-.2,1.13,2.72,2.72,0,0,1-.55.89,2.46,2.46,0,0,1-.84.58,2.65,2.65,0,0,1-1.05.21,2.33,2.33,0,0,1-2-1,3.64,3.64,0,0,1-.53-1.21,6.56,6.56,0,0,1-.18-1.61,7.57,7.57,0,0,1,.24-2,4.83,4.83,0,0,1,.69-1.53,3.19,3.19,0,0,1,1.08-1,2.9,2.9,0,0,1,1.41-.35,3.4,3.4,0,0,1,1.39.24v.91a3,3,0,0,0-1.37-.33,2,2,0,0,0-1,.25,2.33,2.33,0,0,0-.77.71,3.47,3.47,0,0,0-.5,1.11,5.63,5.63,0,0,0-.17,1.45h0a2,2,0,0,1,1.92-1,2.52,2.52,0,0,1,1,.19,2.14,2.14,0,0,1,.76.53,2.39,2.39,0,0,1,.48.82A3.11,3.11,0,0,1,551,261.33Zm-1,.12a2.61,2.61,0,0,0-.11-.79,1.72,1.72,0,0,0-.32-.6,1.38,1.38,0,0,0-.51-.38,1.73,1.73,0,0,0-.69-.13,1.62,1.62,0,0,0-.66.13,1.65,1.65,0,0,0-.53.37,1.71,1.71,0,0,0-.47,1.19,2.61,2.61,0,0,0,.12.81,2.1,2.1,0,0,0,.35.66,1.64,1.64,0,0,0,.53.44,1.45,1.45,0,0,0,.68.16,1.56,1.56,0,0,0,.66-.14,1.48,1.48,0,0,0,.51-.38,1.78,1.78,0,0,0,.33-.59A2.33,2.33,0,0,0,550,261.46Z" fill="#7f3f96"/><path d="M214.52,375.8a1.74,1.74,0,0,0-.12-.67,1.3,1.3,0,0,0-.82-.76,1.92,1.92,0,0,0-.61-.09,2,2,0,0,0-.55.08,2.68,2.68,0,0,0-.52.21,3.23,3.23,0,0,0-.49.32,3.56,3.56,0,0,0-.44.42v-1a2.87,2.87,0,0,1,.91-.6,3.19,3.19,0,0,1,1.22-.21,3,3,0,0,1,1,.15,2.19,2.19,0,0,1,.76.44,2,2,0,0,1,.51.71,2.39,2.39,0,0,1,.18,1,3.32,3.32,0,0,1-.11.9,2.79,2.79,0,0,1-.35.76,3.68,3.68,0,0,1-.58.69,8.26,8.26,0,0,1-.83.67q-.59.42-1,.72a4.31,4.31,0,0,0-.61.56,1.62,1.62,0,0,0-.32.52,1.82,1.82,0,0,0-.09.6h4.18V382h-5.19v-.42a3.47,3.47,0,0,1,.12-.95,2.46,2.46,0,0,1,.39-.78,4.32,4.32,0,0,1,.71-.74q.44-.37,1.07-.83a6.76,6.76,0,0,0,.76-.63,3.26,3.26,0,0,0,.5-.6,2.15,2.15,0,0,0,.27-.61A2.61,2.61,0,0,0,214.52,375.8Z" fill="#7f3f96"/><path d="M222.46,379.33a3.11,3.11,0,0,1-.2,1.13,2.72,2.72,0,0,1-.55.89,2.46,2.46,0,0,1-.84.58,2.65,2.65,0,0,1-1.05.21,2.33,2.33,0,0,1-2-1,3.64,3.64,0,0,1-.53-1.21,6.56,6.56,0,0,1-.18-1.61,7.57,7.57,0,0,1,.24-2,4.83,4.83,0,0,1,.69-1.53,3.19,3.19,0,0,1,1.08-1,2.9,2.9,0,0,1,1.41-.35,3.4,3.4,0,0,1,1.39.24v.91a3,3,0,0,0-1.37-.33,2,2,0,0,0-1,.25,2.33,2.33,0,0,0-.77.71,3.47,3.47,0,0,0-.5,1.11,5.63,5.63,0,0,0-.17,1.45h0a2,2,0,0,1,1.92-1,2.52,2.52,0,0,1,1,.19,2.14,2.14,0,0,1,.76.53,2.39,2.39,0,0,1,.48.82A3.11,3.11,0,0,1,222.46,379.33Zm-1,.12a2.61,2.61,0,0,0-.11-.79,1.72,1.72,0,0,0-.32-.6,1.38,1.38,0,0,0-.51-.38,1.73,1.73,0,0,0-.69-.13,1.62,1.62,0,0,0-.66.13,1.65,1.65,0,0,0-.53.37,1.71,1.71,0,0,0-.47,1.19,2.61,2.61,0,0,0,.12.81,2.1,2.1,0,0,0,.35.66,1.64,1.64,0,0,0,.53.44,1.45,1.45,0,0,0,.68.16,1.56,1.56,0,0,0,.66-.14,1.48,1.48,0,0,0,.51-.38,1.78,1.78,0,0,0,.33-.59A2.33,2.33,0,0,0,221.47,379.46Z" fill="#7f3f96"/><path d="M229.84,382h-1.2l-1.93-3.22a2.88,2.88,0,0,1-.19-.42h0l-.2.42-2,3.22h-1.21l2.81-4.22-2.59-4.18h1.21l1.72,3a5.92,5.92,0,0,1,.3.59h0a6.47,6.47,0,0,1,.33-.61l1.79-2.93h1.13l-2.64,4.17Z" fill="#7f3f96"/><path d="M234.54,375.8a1.74,1.74,0,0,0-.12-.67,1.3,1.3,0,0,0-.82-.76,1.92,1.92,0,0,0-.61-.09,2,2,0,0,0-.55.08,2.68,2.68,0,0,0-.52.21,3.23,3.23,0,0,0-.49.32,3.56,3.56,0,0,0-.44.42v-1a2.87,2.87,0,0,1,.91-.6,3.19,3.19,0,0,1,1.22-.21,3,3,0,0,1,1,.15,2.19,2.19,0,0,1,.76.44,2,2,0,0,1,.51.71,2.39,2.39,0,0,1,.18,1,3.32,3.32,0,0,1-.11.9,2.79,2.79,0,0,1-.35.76,3.68,3.68,0,0,1-.58.69,8.26,8.26,0,0,1-.83.67q-.59.42-1,.72a4.31,4.31,0,0,0-.61.56,1.62,1.62,0,0,0-.32.52,1.82,1.82,0,0,0-.09.6h4.18V382h-5.19v-.42a3.47,3.47,0,0,1,.12-.95,2.46,2.46,0,0,1,.39-.78,4.32,4.32,0,0,1,.71-.74q.44-.37,1.07-.83a6.76,6.76,0,0,0,.76-.63,3.26,3.26,0,0,0,.5-.6,2.15,2.15,0,0,0,.27-.61A2.61,2.61,0,0,0,234.54,375.8Z" fill="#7f3f96"/><path d="M242.47,379.33a3.11,3.11,0,0,1-.2,1.13,2.72,2.72,0,0,1-.55.89,2.46,2.46,0,0,1-.84.58,2.65,2.65,0,0,1-1.05.21,2.33,2.33,0,0,1-2-1,3.64,3.64,0,0,1-.53-1.21,6.56,6.56,0,0,1-.18-1.61,7.57,7.57,0,0,1,.24-2,4.83,4.83,0,0,1,.69-1.53,3.19,3.19,0,0,1,1.08-1,2.9,2.9,0,0,1,1.41-.35,3.4,3.4,0,0,1,1.39.24v.91a3,3,0,0,0-1.37-.33,2,2,0,0,0-1,.25,2.33,2.33,0,0,0-.77.71,3.47,3.47,0,0,0-.5,1.11,5.63,5.63,0,0,0-.17,1.45h0a2,2,0,0,1,1.92-1,2.52,2.52,0,0,1,1,.19,2.14,2.14,0,0,1,.76.53,2.39,2.39,0,0,1,.48.82A3.11,3.11,0,0,1,242.47,379.33Zm-1,.12a2.61,2.61,0,0,0-.11-.79,1.72,1.72,0,0,0-.32-.6,1.38,1.38,0,0,0-.51-.38,1.73,1.73,0,0,0-.69-.13,1.62,1.62,0,0,0-.66.13,1.65,1.65,0,0,0-.53.37,1.71,1.71,0,0,0-.47,1.19,2.61,2.61,0,0,0,.12.81,2.1,2.1,0,0,0,.35.66,1.64,1.64,0,0,0,.53.44,1.45,1.45,0,0,0,.68.16,1.56,1.56,0,0,0,.66-.14,1.48,1.48,0,0,0,.51-.38,1.78,1.78,0,0,0,.33-.59A2.33,2.33,0,0,0,241.49,379.46Z" fill="#7f3f96"/><polygon points="14 270.5 14 275.5 15 275.5 15 271.5 74 271.5 74 275.5 75 275.5 75 270.5 14 270.5" fill="#7f3f96"/><polygon points="272 342 272 337 271 337 271 341 181 341 181 337 180 337 180 342 272 342" fill="#7f3f96"/><polygon points="85 270.5 85 275.5 86 275.5 86 271.5 265 271.5 265 275.5 266 275.5 266 270.5 85 270.5" fill="#7f3f96"/><rect x="307" y="282" width="281" height="49" fill="#999ea3"/><rect x="308" y="283" width="279" height="47" fill="#fff"/><rect x="307" y="277" width="281" height="54" fill="#999ea3"/><rect x="308" y="278" width="279" height="24.5" fill="url(#linear-gradient-11)"/><rect x="391" y="278" width="26" height="24.5" fill="#fff"/><path d="M417,302.5V278H391v24.5ZM392,279h24v22.5H392Z" fill="#4384b7"/><rect x="423" y="278" width="26" height="24.5" fill="#fff"/><path d="M449,302.5V278H423v24.5ZM424,279h24v22.5H424Z" fill="#4384b7"/><rect x="455" y="278" width="26" height="24.5" fill="#fff"/><path d="M481,302.5V278H455v24.5ZM456,279h24v22.5H456Z" fill="#4384b7"/><rect x="487" y="278" width="26" height="24.5" fill="#fff"/><path d="M513,302.5V278H487v24.5ZM488,279h24v22.5H488Z" fill="#4384b7"/><rect x="519" y="278" width="26" height="24.5" fill="#fff"/><path d="M545,302.5V278H519v24.5ZM520,279h24v22.5H520Z" fill="#4384b7"/><rect x="551" y="278" width="26" height="24.5" fill="#fff"/><path d="M577,302.5V278H551v24.5ZM552,279h24v22.5H552Z" fill="#4384b7"/><rect x="316" y="278" width="22" height="24.5" fill="#fff"/><path d="M338,302.5V278H316v24.5ZM317,279h20v22.5H317Z" fill="#4384b7"/><rect x="338" y="278" width="22" height="24.5" fill="#fff"/><path d="M360,302.5V278H338v24.5ZM339,279h20v22.5H339Z" fill="#4384b7"/><rect x="360" y="278" width="22" height="24.5" fill="#fff"/><path d="M382,302.5V278H360v24.5ZM361,279h20v22.5H361Z" fill="#4384b7"/><rect x="308" y="303.5" width="279" height="26.5" fill="url(#linear-gradient-12)"/><rect x="487" y="303.5" width="26" height="26.5" fill="#fff"/><path d="M513,330V303.5H487V330Zm-25-25.5h24V329H488Z" fill="#4384b7"/><rect x="519" y="303.5" width="26" height="26.5" fill="#fff"/><path d="M545,330V303.5H519V330Zm-25-25.5h24V329H520Z" fill="#4384b7"/><rect x="551" y="303.5" width="25" height="26.5" fill="#fff"/><path d="M577,330V303.5H551V330Zm-25-25.5h24V329H552Z" fill="#4384b7"/><path d="M323.64,294.4v-9.8h3.57a4.45,4.45,0,0,1,2.52.6,1.93,1.93,0,0,1,.88,1.69,2,2,0,0,1-.54,1.39,2.82,2.82,0,0,1-1.37.83v0a2.71,2.71,0,0,1,1.67.77,2.16,2.16,0,0,1,.63,1.56,2.61,2.61,0,0,1-1,2.13,4,4,0,0,1-2.63.79Zm2.21-8.17v2.32h1a1.62,1.62,0,0,0,1.08-.33,1.13,1.13,0,0,0,.39-.91q0-1.08-1.61-1.08Zm0,4v2.58H327a1.84,1.84,0,0,0,1.2-.36,1.19,1.19,0,0,0,.43-1,1.11,1.11,0,0,0-.43-.92,1.89,1.89,0,0,0-1.19-.33Z" fill="#575757"/><path d="M352,284.6l-4.1,9.8h-1.65l4.08-9.8Z" fill="#575757"/><path d="M374.81,288.36q0,3.79-4,3.79t-3.91-3.7V283.6H369v4.88q0,2,1.82,2t1.79-2V283.6h2.16Z" fill="#575757"/><rect x="365" y="294" width="12" height="1" fill="#575757"/><rect x="309" y="304.5" width="115" height="24.5" fill="#929497"/><rect x="310" y="305.5" width="92" height="22.5" fill="#fff"/><rect x="403" y="305.5" width="20" height="22.5" fill="url(#linear-gradient-13)"/><path d="M316.71,320.05v-1.16a2.25,2.25,0,0,0,.48.32,3.87,3.87,0,0,0,.59.24,4.66,4.66,0,0,0,.62.15,3.45,3.45,0,0,0,.57.05,2.25,2.25,0,0,0,1.36-.34,1.27,1.27,0,0,0,.3-1.56,1.68,1.68,0,0,0-.41-.46,4.1,4.1,0,0,0-.62-.4l-.78-.4q-.44-.22-.82-.45a3.55,3.55,0,0,1-.66-.5,2.1,2.1,0,0,1-.44-.62,2.13,2.13,0,0,1,.09-1.82,2.16,2.16,0,0,1,.66-.7,3,3,0,0,1,.93-.41,4.28,4.28,0,0,1,1.07-.13,4.1,4.1,0,0,1,1.81.3v1.11a3.28,3.28,0,0,0-1.91-.52,3.14,3.14,0,0,0-.64.07,1.82,1.82,0,0,0-.57.22,1.27,1.27,0,0,0-.41.39,1,1,0,0,0-.16.59,1.21,1.21,0,0,0,.12.56,1.36,1.36,0,0,0,.35.43,3.53,3.53,0,0,0,.57.38l.78.4q.45.22.86.47a3.91,3.91,0,0,1,.71.54,2.42,2.42,0,0,1,.48.66,1.86,1.86,0,0,1,.18.83,2.11,2.11,0,0,1-.24,1.05,2,2,0,0,1-.66.7,2.87,2.87,0,0,1-1,.39,5.22,5.22,0,0,1-1.14.12l-.49,0-.6-.09a4.88,4.88,0,0,1-.58-.15A1.79,1.79,0,0,1,316.71,320.05Z" fill="#58595b"/><path d="M328.17,317.63h-4.24a2.24,2.24,0,0,0,.54,1.55,1.86,1.86,0,0,0,1.42.54,3,3,0,0,0,1.86-.67v.9a3.48,3.48,0,0,1-2.09.57,2.54,2.54,0,0,1-2-.82,3.35,3.35,0,0,1-.73-2.3,3.28,3.28,0,0,1,.79-2.28,2.55,2.55,0,0,1,2-.88,2.26,2.26,0,0,1,1.82.76,3.18,3.18,0,0,1,.64,2.12Zm-1-.81a2,2,0,0,0-.4-1.29,1.37,1.37,0,0,0-1.1-.46,1.55,1.55,0,0,0-1.15.49,2.21,2.21,0,0,0-.59,1.27Z" fill="#58595b"/><path d="M334.74,319.91q0,3.3-3.16,3.3a4.25,4.25,0,0,1-1.95-.42v-1a4,4,0,0,0,1.93.56q2.21,0,2.21-2.36v-.66h0a2.43,2.43,0,0,1-3.86.35,3.2,3.2,0,0,1-.68-2.15,3.74,3.74,0,0,1,.74-2.43,2.46,2.46,0,0,1,2-.9,2,2,0,0,1,1.8,1h0v-.83h1Zm-1-2.23v-.88a1.72,1.72,0,0,0-.48-1.22,1.59,1.59,0,0,0-1.2-.51,1.67,1.67,0,0,0-1.39.65,2.89,2.89,0,0,0-.5,1.81,2.48,2.48,0,0,0,.48,1.6,1.56,1.56,0,0,0,1.28.6,1.67,1.67,0,0,0,1.32-.57A2.14,2.14,0,0,0,333.78,317.68Z" fill="#58595b"/><path d="M339.2,320.54a2.78,2.78,0,0,1-2.12-.84,3.12,3.12,0,0,1-.79-2.23,3.24,3.24,0,0,1,.83-2.36,3,3,0,0,1,2.23-.85,2.69,2.69,0,0,1,2.09.83,3.28,3.28,0,0,1,.75,2.29,3.23,3.23,0,0,1-.81,2.3A2.84,2.84,0,0,1,339.2,320.54Zm.07-5.47a1.83,1.83,0,0,0-1.46.63,2.58,2.58,0,0,0-.54,1.74,2.45,2.45,0,0,0,.54,1.68,1.85,1.85,0,0,0,1.46.62,1.76,1.76,0,0,0,1.43-.6,2.62,2.62,0,0,0,.5-1.72,2.66,2.66,0,0,0-.5-1.73A1.75,1.75,0,0,0,339.27,315.06Z" fill="#58595b"/><path d="M348.54,317.63h-4.24a2.24,2.24,0,0,0,.54,1.55,1.86,1.86,0,0,0,1.42.54,3,3,0,0,0,1.86-.67v.9a3.48,3.48,0,0,1-2.09.57,2.54,2.54,0,0,1-2-.82,3.35,3.35,0,0,1-.73-2.3,3.28,3.28,0,0,1,.79-2.28,2.55,2.55,0,0,1,2-.88,2.26,2.26,0,0,1,1.82.76,3.18,3.18,0,0,1,.64,2.12Zm-1-.81a2,2,0,0,0-.4-1.29,1.37,1.37,0,0,0-1.1-.46,1.55,1.55,0,0,0-1.15.49,2.21,2.21,0,0,0-.59,1.27Z" fill="#58595b"/><path d="M359.56,317q0,3.54-3.19,3.54t-3.06-3.4V312h1v5.07q0,2.58,2.18,2.58t2.1-2.5V312h1Z" fill="#58595b"/><path d="M362.64,320.39h-1V312h1Z" fill="#58595b"/><path d="M368.14,320.39V312h2.39a2.61,2.61,0,0,1,1.73.53,1.72,1.72,0,0,1,.64,1.39,2,2,0,0,1-.39,1.24,2.09,2.09,0,0,1-1.07.75v0a2.14,2.14,0,0,1,1.36.64,2,2,0,0,1,.51,1.41,2.2,2.2,0,0,1-.77,1.75,2.88,2.88,0,0,1-2,.67Zm1-7.51v2.71h1a1.91,1.91,0,0,0,1.27-.39,1.36,1.36,0,0,0,.46-1.1q0-1.22-1.61-1.22Zm0,3.6v3h1.34a2,2,0,0,0,1.34-.41,1.4,1.4,0,0,0,.48-1.12q0-1.49-2-1.49Z" fill="#58595b"/><path d="M377.39,320.54a2.78,2.78,0,0,1-2.12-.84,3.12,3.12,0,0,1-.79-2.23,3.24,3.24,0,0,1,.83-2.36,3,3,0,0,1,2.23-.85,2.69,2.69,0,0,1,2.09.83,3.28,3.28,0,0,1,.75,2.29,3.23,3.23,0,0,1-.81,2.3A2.84,2.84,0,0,1,377.39,320.54Zm.07-5.47a1.83,1.83,0,0,0-1.46.63,2.58,2.58,0,0,0-.54,1.74,2.45,2.45,0,0,0,.54,1.68,1.85,1.85,0,0,0,1.46.62,1.76,1.76,0,0,0,1.43-.6,2.62,2.62,0,0,0,.5-1.72,2.66,2.66,0,0,0-.5-1.73A1.75,1.75,0,0,0,377.46,315.06Z" fill="#58595b"/><path d="M382.88,320.39h-1v-8.88h1Z" fill="#58595b"/><path d="M389.95,320.39h-1v-1h0a2.42,2.42,0,0,1-3.87.36,3.31,3.31,0,0,1-.68-2.2,3.6,3.6,0,0,1,.75-2.38,2.47,2.47,0,0,1,2-.9,1.92,1.92,0,0,1,1.8,1h0v-3.71h1Zm-1-2.71v-.88a1.72,1.72,0,0,0-.48-1.23,1.61,1.61,0,0,0-1.22-.5,1.66,1.66,0,0,0-1.38.64,2.82,2.82,0,0,0-.5,1.78,2.54,2.54,0,0,0,.48,1.64,1.58,1.58,0,0,0,1.3.6,1.64,1.64,0,0,0,1.3-.58A2.16,2.16,0,0,0,389,317.68Z" fill="#58595b"/><path d="M408.09,314h9l-4.5,6Z" fill="#4d5359"/><rect x="425" y="304.5" width="51" height="24.5" fill="#929497"/><rect x="426" y="305.5" width="28" height="22.5" fill="#fff"/><rect x="455" y="305.5" width="20" height="22.5" fill="url(#linear-gradient-14)"/><path d="M436.87,320.57h-1v-7.26a2.22,2.22,0,0,1-.33.26,5.3,5.3,0,0,1-.48.28q-.27.14-.56.26a4.09,4.09,0,0,1-.58.19v-1a5.57,5.57,0,0,0,.67-.24q.35-.15.7-.33t.65-.39a5.14,5.14,0,0,0,.53-.4h.36Z" fill="#58595b"/><path d="M443.62,314.38a1.74,1.74,0,0,0-.12-.67,1.33,1.33,0,0,0-.33-.48,1.35,1.35,0,0,0-.49-.29,1.92,1.92,0,0,0-.61-.09,2,2,0,0,0-.55.08,2.68,2.68,0,0,0-.52.21,3.23,3.23,0,0,0-.49.32,3.56,3.56,0,0,0-.44.42v-1a2.87,2.87,0,0,1,.91-.6,3.19,3.19,0,0,1,1.22-.21,3,3,0,0,1,1,.15,2.19,2.19,0,0,1,.76.44,2,2,0,0,1,.51.71,2.39,2.39,0,0,1,.18,1,3.32,3.32,0,0,1-.11.9,2.79,2.79,0,0,1-.35.76,3.68,3.68,0,0,1-.58.69,8.26,8.26,0,0,1-.83.67q-.59.42-1,.72a4.31,4.31,0,0,0-.61.56,1.62,1.62,0,0,0-.32.52,1.82,1.82,0,0,0-.09.6h4.18v.86h-5.19v-.42a3.47,3.47,0,0,1,.12-.95,2.46,2.46,0,0,1,.39-.78,4.32,4.32,0,0,1,.71-.74q.44-.37,1.07-.83a6.76,6.76,0,0,0,.76-.63,3.26,3.26,0,0,0,.5-.6,2.14,2.14,0,0,0,.27-.61A2.62,2.62,0,0,0,443.62,314.38Z" fill="#58595b"/><path d="M460.09,314h9l-4.5,6Z" fill="#4d5359"/><rect x="400" y="283" width="12" height="2" fill="#575757"/><rect x="400" y="289" width="12" height="2" fill="#575757"/><rect x="400" y="295" width="12" height="2" fill="#575757"/><path d="M396.11,282.61v-.37a2,2,0,0,0,.73-.17.84.84,0,0,0,.31-.57h.38v3.83H397v-2.73Z" fill="#575757"/><path d="M395.74,290.5a1.66,1.66,0,0,1,.7-.67l.52-.3a2.42,2.42,0,0,0,.49-.34.75.75,0,0,0,0-1,.73.73,0,0,0-.54-.2.7.7,0,0,0-.69.38,1.35,1.35,0,0,0-.11.56h-.49a1.73,1.73,0,0,1,.19-.82,1.16,1.16,0,0,1,1.11-.56,1.14,1.14,0,0,1,1.27,1.15,1.08,1.08,0,0,1-.33.79,3.18,3.18,0,0,1-.67.46l-.37.2a2.39,2.39,0,0,0-.41.28,1,1,0,0,0-.34.52h2.1v.46h-2.64A2.25,2.25,0,0,1,395.74,290.5Z" fill="#575757"/><path d="M395.84,297.12a1.39,1.39,0,0,1-.31-.91H396a1.25,1.25,0,0,0,.14.54.74.74,0,0,0,.68.3.89.89,0,0,0,.61-.2.67.67,0,0,0,.23-.53.61.61,0,0,0-.24-.56,1.23,1.23,0,0,0-.68-.16h-.2v-.43h.24a1,1,0,0,0,.45-.09.55.55,0,0,0,.31-.54.53.53,0,0,0-.2-.44.76.76,0,0,0-.48-.16.71.71,0,0,0-.67.32,1.12,1.12,0,0,0-.12.51h-.48a1.45,1.45,0,0,1,.17-.73,1.08,1.08,0,0,1,1-.54,1.41,1.41,0,0,1,.91.26.92.92,0,0,1,.32.76.85.85,0,0,1-.19.58.8.8,0,0,1-.31.22.84.84,0,0,1,.47.32,1,1,0,0,1,.17.58,1.19,1.19,0,0,1-.36.9,1.43,1.43,0,0,1-1,.35A1.21,1.21,0,0,1,395.84,297.12Z" fill="#575757"/><rect x="432" y="283" width="12" height="2" fill="#575757"/><rect x="432" y="289" width="12" height="2" fill="#575757"/><rect x="432" y="295" width="12" height="2" fill="#575757"/><rect x="428.17" y="295" width="2" height="2" fill="#575757"/><rect x="428.17" y="289" width="2" height="2" fill="#575757"/><rect x="428.17" y="283" width="2" height="2" fill="#575757"/><polygon points="464.22 290.07 460 292.9 460 287.04 464.22 290.07" fill="#575757"/><rect x="460" y="283" width="16" height="2" fill="#575757"/><rect x="466" y="289" width="10" height="2" fill="#575757"/><rect x="460" y="295" width="16" height="2" fill="#575757"/><path d="M530,289h10v-3H530Zm1-2h8v1h-8Z" fill="#575757"/><path d="M530,297h10v-3H530Zm1-2h8v1h-8Z" fill="#575757"/><rect x="524" y="286" width="5" height="3" fill="#575757"/><path d="M530,293h10v-3H530Zm1-2h8v1h-8Z" fill="#575757"/><rect x="524" y="290" width="5" height="3" fill="#575757"/><rect x="530" y="282" width="10" height="3" fill="#575757"/><rect x="524" y="282" width="5" height="3" fill="#575757"/><rect x="524" y="294" width="5" height="3" fill="#575757"/><rect x="538" y="309" width="2" height="16" fill="#575757"/><rect x="524" y="310" width="12" height="2" fill="#575757"/><rect x="526" y="314" width="10" height="2" fill="#575757"/><rect x="528" y="318" width="8" height="2" fill="#575757"/><rect x="530" y="322" width="6" height="2" fill="#575757"/><rect x="492" y="309" width="2" height="16" fill="#575757"/><rect x="496" y="310" width="12" height="2" fill="#575757"/><rect x="496" y="314" width="10" height="2" fill="#575757"/><rect x="496" y="318" width="8" height="2" fill="#575757"/><rect x="496" y="322" width="6" height="2" fill="#575757"/><rect x="492" y="309" width="2" height="16" fill="#575757"/><rect x="496" y="310" width="12" height="2" fill="#575757"/><rect x="496" y="314" width="10" height="2" fill="#575757"/><rect x="496" y="318" width="8" height="2" fill="#575757"/><rect x="496" y="322" width="6" height="2" fill="#575757"/><path d="M558,320h4v-2h-4Zm1,4h3v-2h-3Zm-2-8h5v-2h-5Zm-1-4h6v-2h-6Zm10,4h5v-2h-5Zm0-6v2h6v-2Zm0,10h4v-2h-4Zm0,4h3v-2h-3Z" fill="#575757"/><rect x="563" y="309" width="2" height="16" fill="#575757"/><path d="M503.84,290l0-.28a4.17,4.17,0,0,0,0-1s0-.08,0-.13a4,4,0,0,0-.07-.41c0-.13-.07-.25-.11-.37s0-.11-.05-.16l0-.1a3.8,3.8,0,0,0-1.66-1.88l-1.51,1.51a3.3,3.3,0,0,1,1,.82c.77.77.36,2.24-.4,3.24l-3,2.91-1,.78a2,2,0,0,1-2.83-.09,2.06,2.06,0,0,1,0-2.87l1-1a5.06,5.06,0,0,1-.28-2.56l-2.14,2.14a4,4,0,1,0,5.66,5.65l4.24-4.24A4,4,0,0,0,503.84,290Z" fill="#575757"/><path d="M500.65,282.78l-3.54,3.54a4,4,0,0,0,.81,6.26l1.51-1.51a2,2,0,0,1-.9-.51,2,2,0,0,1,0-2.83l3.54-3.54a2,2,0,0,1,2.83,2.83l-.3.3a5,5,0,0,1,.28,2.55l1.44-1.44a4,4,0,0,0-5.66-5.66Z" fill="#575757"/><polygon points="562.96 294.7 558.29 290.02 562.96 285.33 562.96 283.04 556 290.02 562.96 297 562.96 294.7" fill="#575757"/><polygon points="565 285.33 569.67 290.02 565 294.7 565 297 571.96 290.02 565 283.04 565 285.33" fill="#575757"/><polygon points="382 266 382 284 383 284 383 267 390 267 390 284 391 284 391 266 382 266" fill="#7f3f96"/><polygon points="417 266 417 284 418 284 418 267 422 267 422 284 423 284 423 266 417 266" fill="#7f3f96"/><polygon points="449 266 449 284 450 284 450 267 454 267 454 284 455 284 455 266 449 266" fill="#7f3f96"/><polygon points="481 266 481 284 482 284 482 267 486 267 486 284 487 284 487 266 481 266" fill="#7f3f96"/><polygon points="513 266 513 284 514 284 514 267 518 267 518 284 519 284 519 266 513 266" fill="#7f3f96"/><polygon points="545 266 545 284 546 284 546 267 550 267 550 284 551 284 551 266 545 266" fill="#7f3f96"/></svg>