<?xml version="1.0" encoding="UTF-8"?>
<svg width="32px" height="32px" viewBox="0 0 32 32" version="1.1" xmlns="http://www.w3.org/2000/svg" xmlns:xlink="http://www.w3.org/1999/xlink">
    <!-- Generator: Sketch 48.2 (47327) - http://www.bohemiancoding.com/sketch -->
    <title>account-icon</title>
    <desc>Created with Sketch.</desc>
    <defs></defs>
    <g id="Page-1" stroke="none" stroke-width="1" fill="none" fill-rule="evenodd">
        <g id="account-icon" fill="#065FA3">
            <g id="cust_id_icon" transform="translate(4.000000, 4.000000)">
                <path d="M11.9777778,1.77777778 C17.5656039,1.77777778 22.1777778,6.4 22.1777778,12 C22.1777778,17.6 17.5656039,22.2222222 11.9777778,22.2222222 C6.38995169,22.2222222 1.77777778,17.6 1.77777778,12 C1.77777778,6.4 6.38995169,1.77777778 11.9777778,1.77777778 Z M12,0 C5.33333333,0 0,5.33333333 0,12 C0,18.6666667 5.33333333,24 12,24 C18.6666667,24 24,18.6666667 24,12 C24,5.33333333 18.6666667,0 12,0 Z M18.6666667,21.9555556 L18.6666667,17.7777778 L16,15.1111111 L8,15.1111111 L5.33333333,17.7777778 L5.33333333,21.9555556 C6.04444444,22.4 6.75555556,22.7555556 7.46666667,23.1111111 L16.5333333,23.1111111 C17.2444444,22.8444444 17.9555556,22.4 18.6666667,21.9555556 Z" id="Shape" fill-rule="nonzero"></path>
                <circle id="head" cx="12" cy="9.6" r="4.8"></circle>
            </g>
        </g>
    </g>
</svg>