<svg id="Layer_1" data-name="Layer 1" xmlns="http://www.w3.org/2000/svg" width="32" height="32" viewBox="0 0 32 32"><title>help-icon</title><path d="M25,5H7A3,3,0,0,0,4,8V22a3,3,0,0,0,3,3H8v4l5-4H25a3,3,0,0,0,3-3V8A3,3,0,0,0,25,5Zm1,17a1,1,0,0,1-1,1H12.3L10,24.84V23H7a1,1,0,0,1-1-1V8A1,1,0,0,1,7,7H25a1,1,0,0,1,1,1Z" fill="#065fa3"/><path d="M19.82,12.19a4.09,4.09,0,0,1-.23,1.41,3.28,3.28,0,0,1-.66,1.06,5.2,5.2,0,0,1-1,.81,9.42,9.42,0,0,1-1.35.65v1.8H13.78V15.26c.38-.1.71-.21,1-.31a3.93,3.93,0,0,0,.95-.52,2.54,2.54,0,0,0,.73-.73,1.81,1.81,0,0,0,.26-.95,1.26,1.26,0,0,0-.51-1.13,2.61,2.61,0,0,0-1.43-.33,4,4,0,0,0-1.28.24,5.88,5.88,0,0,0-1.31.63h-.32V9.76a8.6,8.6,0,0,1,1.56-.45,9.52,9.52,0,0,1,2.13-.23,5,5,0,0,1,3.1.86A2.68,2.68,0,0,1,19.82,12.19Zm-3,8.89H13.59V19h3.19Z" fill="#065fa3"/></svg>