<svg id="Layer_1" data-name="Layer 1" xmlns="http://www.w3.org/2000/svg" xmlns:xlink="http://www.w3.org/1999/xlink" width="300" height="211" viewBox="0 0 300 211"><defs><clipPath id="clip-path"><rect x="-538" y="-129" width="430" height="30" fill="none"/></clipPath><clipPath id="clip-path-2"><path d="M-129,209.43a8.62,8.62,0,0,0,4.84-1.76,39.16,39.16,0,0,0,4.84-4.24,40.67,40.67,0,0,1,4.84-4.24,8.67,8.67,0,0,1,4.84-1.76,8.62,8.62,0,0,1,4.84,1.76,39.16,39.16,0,0,1,4.84,4.24,40.67,40.67,0,0,0,4.84,4.24,8.67,8.67,0,0,0,4.84,1.76,8.65,8.65,0,0,0,4.84-1.76,39.9,39.9,0,0,0,4.84-4.24,39.9,39.9,0,0,1,4.84-4.24,8.65,8.65,0,0,1,4.84-1.76,8.65,8.65,0,0,1,4.84,1.76,39.9,39.9,0,0,1,4.84,4.24,39.9,39.9,0,0,0,4.84,4.24,8.65,8.65,0,0,0,4.84,1.76,8.65,8.65,0,0,0,4.84-1.76,39.9,39.9,0,0,0,4.84-4.24A39.9,39.9,0,0,1-37,199.19a8.65,8.65,0,0,1,4.84-1.76,8.65,8.65,0,0,1,4.84,1.76,39.9,39.9,0,0,1,4.84,4.24,39.9,39.9,0,0,0,4.84,4.24,8.62,8.62,0,0,0,4.84,1.76A8.67,8.67,0,0,0-8,207.67a40.67,40.67,0,0,0,4.84-4.24,39.16,39.16,0,0,1,4.84-4.24,8.62,8.62,0,0,1,4.84-1.76,8.67,8.67,0,0,1,4.84,1.76,40.67,40.67,0,0,1,4.84,4.24A39.16,39.16,0,0,0,21,207.67a8.62,8.62,0,0,0,4.84,1.76,8.67,8.67,0,0,0,4.84-1.76,40.67,40.67,0,0,0,4.84-4.24,39.16,39.16,0,0,1,4.84-4.24,8.62,8.62,0,0,1,4.84-1.76,8.67,8.67,0,0,1,4.84,1.76,40.67,40.67,0,0,1,4.84,4.24,39.84,39.84,0,0,0,4.83,4.24,8.67,8.67,0,0,0,4.84,1.76,8.62,8.62,0,0,0,4.84-1.76,39.16,39.16,0,0,0,4.84-4.24,40.67,40.67,0,0,1,4.84-4.24,7.54,7.54,0,0,1,9.68,0,39.16,39.16,0,0,1,4.84,4.24,40.67,40.67,0,0,0,4.84,4.24,7.53,7.53,0,0,0,9.68,0,39.16,39.16,0,0,0,4.84-4.24,40.67,40.67,0,0,1,4.84-4.24,7.54,7.54,0,0,1,9.68,0,39.9,39.9,0,0,1,4.84,4.24,39.9,39.9,0,0,0,4.84,4.24,7.54,7.54,0,0,0,9.68,0,39.16,39.16,0,0,0,4.84-4.24,40.67,40.67,0,0,1,4.84-4.24,7.54,7.54,0,0,1,9.68,0,39.16,39.16,0,0,1,4.84,4.24,40.67,40.67,0,0,0,4.84,4.24,7.55,7.55,0,0,0,9.68,0,39.28,39.28,0,0,0,4.84-4.25,40.67,40.67,0,0,1,4.84-4.24,8.66,8.66,0,0,1,4.84-1.75A8.55,8.55,0,0,1,205,199.2a39.16,39.16,0,0,1,4.84,4.24,40.67,40.67,0,0,0,4.84,4.24,7.55,7.55,0,0,0,9.68,0,40.91,40.91,0,0,0,4.84-4.25A40.67,40.67,0,0,1,234,199.2a7.57,7.57,0,0,1,9.68,0,40.13,40.13,0,0,1,4.84,4.25,39.9,39.9,0,0,0,4.84,4.24,7.53,7.53,0,0,0,9.68,0,39.9,39.9,0,0,0,4.84-4.24,39.9,39.9,0,0,1,4.84-4.24,7.57,7.57,0,0,1,9.68,0,40.91,40.91,0,0,1,4.84,4.25,39.16,39.16,0,0,0,4.84,4.24,7.53,7.53,0,0,0,9.68,0,40.67,40.67,0,0,0,4.84-4.24,39.9,39.9,0,0,1,4.84-4.24,7.57,7.57,0,0,1,9.68,0,41.72,41.72,0,0,1,4.84,4.25,39.16,39.16,0,0,0,4.84,4.24,7.54,7.54,0,0,0,9.68,0,40.67,40.67,0,0,0,4.84-4.24,39.16,39.16,0,0,1,4.84-4.24,7.57,7.57,0,0,1,9.68,0,41.72,41.72,0,0,1,4.84,4.25,39.84,39.84,0,0,0,4.83,4.24,7.54,7.54,0,0,0,9.68,0,39.16,39.16,0,0,0,4.84-4.24,40,40,0,0,1,4.85-4.24,7.55,7.55,0,0,1,9.67,0,39.28,39.28,0,0,1,4.84,4.25,40.67,40.67,0,0,0,4.84,4.24,7.53,7.53,0,0,0,9.68,0,39.16,39.16,0,0,0,4.84-4.24,40.67,40.67,0,0,1,4.84-4.24,7.57,7.57,0,0,1,9.68,0,39.28,39.28,0,0,1,4.84,4.25,39.9,39.9,0,0,0,4.84,4.24,8.65,8.65,0,0,0,4.84,1.76L452,1.07a8.62,8.62,0,0,0-4.84,1.76,39.16,39.16,0,0,0-4.84,4.24,40.67,40.67,0,0,1-4.84,4.24,8.67,8.67,0,0,1-4.84,1.76,8.62,8.62,0,0,1-4.84-1.76A39.16,39.16,0,0,1,423,7.07a40.67,40.67,0,0,0-4.84-4.24,7.53,7.53,0,0,0-9.68,0,39.9,39.9,0,0,0-4.84,4.24,39.9,39.9,0,0,1-4.84,4.24,7.53,7.53,0,0,1-9.68,0,39.9,39.9,0,0,1-4.84-4.24,39.9,39.9,0,0,0-4.84-4.24,7.54,7.54,0,0,0-9.68,0,39.9,39.9,0,0,0-4.84,4.24A39.9,39.9,0,0,1,360,11.31a7.54,7.54,0,0,1-9.68,0,39.9,39.9,0,0,1-4.84-4.24,39.9,39.9,0,0,0-4.84-4.24,7.54,7.54,0,0,0-9.68,0,40.67,40.67,0,0,0-4.84,4.24,39.16,39.16,0,0,1-4.84,4.24,8.62,8.62,0,0,1-4.84,1.76,8.67,8.67,0,0,1-4.84-1.76,40.67,40.67,0,0,1-4.84-4.24A39.16,39.16,0,0,0,302,2.83a7.54,7.54,0,0,0-9.68,0,40.67,40.67,0,0,0-4.84,4.24,39.16,39.16,0,0,1-4.84,4.24,8.62,8.62,0,0,1-4.84,1.76,8.67,8.67,0,0,1-4.84-1.76,40.67,40.67,0,0,1-4.84-4.24,39.84,39.84,0,0,0-4.83-4.24,7.53,7.53,0,0,0-9.68,0,39.16,39.16,0,0,0-4.84,4.24,40.67,40.67,0,0,1-4.84,4.24A8.67,8.67,0,0,1,239,13.07a8.62,8.62,0,0,1-4.84-1.76,39.16,39.16,0,0,1-4.84-4.24,40.67,40.67,0,0,0-4.84-4.24,7.53,7.53,0,0,0-9.68,0A39.16,39.16,0,0,0,210,7.07a40.67,40.67,0,0,1-4.84,4.24,8.67,8.67,0,0,1-4.84,1.76,8.62,8.62,0,0,1-4.84-1.76,39.9,39.9,0,0,1-4.84-4.24,39.9,39.9,0,0,0-4.84-4.24,7.53,7.53,0,0,0-9.68,0,39.16,39.16,0,0,0-4.84,4.24,40.67,40.67,0,0,1-4.84,4.24,8.67,8.67,0,0,1-4.84,1.76,8.62,8.62,0,0,1-4.84-1.76,39.16,39.16,0,0,1-4.84-4.24,40.67,40.67,0,0,0-4.84-4.24,7.55,7.55,0,0,0-9.68,0,39.28,39.28,0,0,0-4.84,4.25,40.67,40.67,0,0,1-4.84,4.24,8.66,8.66,0,0,1-4.84,1.75A8.55,8.55,0,0,1,118,11.3a39.16,39.16,0,0,1-4.84-4.24,40.67,40.67,0,0,0-4.84-4.24,7.55,7.55,0,0,0-9.68,0,40.91,40.91,0,0,0-4.84,4.25A40.67,40.67,0,0,1,89,11.3,8.66,8.66,0,0,1,84.17,13a8.6,8.6,0,0,1-4.84-1.75A40.13,40.13,0,0,1,74.49,7a39.9,39.9,0,0,0-4.84-4.24A8.65,8.65,0,0,0,64.81,1,8.57,8.57,0,0,0,60,2.81,39.9,39.9,0,0,0,55.13,7a39.9,39.9,0,0,1-4.84,4.24A8.63,8.63,0,0,1,45.45,13a8.63,8.63,0,0,1-4.84-1.75A40.91,40.91,0,0,1,35.77,7,39.16,39.16,0,0,0,30.93,2.8,8.62,8.62,0,0,0,26.09,1,8.6,8.6,0,0,0,21.25,2.8,40.67,40.67,0,0,0,16.41,7a39.9,39.9,0,0,1-4.84,4.24A8.63,8.63,0,0,1,6.73,13a8.63,8.63,0,0,1-4.84-1.75A41.72,41.72,0,0,1-3,7,39.16,39.16,0,0,0-7.79,2.79,8.62,8.62,0,0,0-12.63,1a8.67,8.67,0,0,0-4.84,1.76A40.67,40.67,0,0,0-22.31,7a39.16,39.16,0,0,1-4.84,4.24A8.6,8.6,0,0,1-32,13a8.66,8.66,0,0,1-4.84-1.75A41.72,41.72,0,0,1-41.67,7,39.84,39.84,0,0,0-46.5,2.78,8.67,8.67,0,0,0-51.34,1a8.62,8.62,0,0,0-4.84,1.76A39.16,39.16,0,0,0-61,7a40,40,0,0,1-4.85,4.24A8.53,8.53,0,0,1-70.71,13a8.6,8.6,0,0,1-4.83-1.75A39.28,39.28,0,0,1-80.38,7a40.67,40.67,0,0,0-4.84-4.24A8.67,8.67,0,0,0-90.06,1,8.65,8.65,0,0,0-94.9,2.77,39.16,39.16,0,0,0-99.74,7a40.67,40.67,0,0,1-4.84,4.24A8.58,8.58,0,0,1-109.42,13a8.6,8.6,0,0,1-4.84-1.75A39.28,39.28,0,0,1-119.1,7a39.9,39.9,0,0,0-4.84-4.24A8.65,8.65,0,0,0-128.78,1Z" fill="none"/></clipPath><linearGradient id="linear-gradient" x1="263.5" y1="10.5" x2="275.5" y2="10.5" gradientUnits="userSpaceOnUse"><stop offset="0" stop-color="#ebe9ec"/><stop offset="0.28" stop-color="#e5e6e9"/><stop offset="1" stop-color="#dadfe2"/></linearGradient><linearGradient id="linear-gradient-2" y1="-2.5" y2="-2.5" xlink:href="#linear-gradient"/><linearGradient id="linear-gradient-3" y1="44.5" y2="44.5" xlink:href="#linear-gradient"/><linearGradient id="linear-gradient-4" y1="31.5" y2="31.5" xlink:href="#linear-gradient"/><linearGradient id="linear-gradient-5" x1="213.5" y1="76.57" x2="213.5" y2="99.47" xlink:href="#linear-gradient"/><linearGradient id="linear-gradient-6" x1="213.5" y1="110.57" x2="213.5" y2="133.47" xlink:href="#linear-gradient"/><clipPath id="clip-path-3"><rect x="-538" y="348" width="430" height="30" fill="none"/></clipPath><symbol id="cursor" data-name="cursor" viewBox="0 0 12 20.32"><polygon points="12 11.66 12 10.65 10.88 10.65 10.88 9.83 9.89 9.83 9.88 9.82 9.88 8.84 8.9 8.84 8.89 8.83 8.89 7.85 7.91 7.85 7.91 7.84 7.91 6.86 6.93 6.86 6.92 6.86 6.92 5.88 5.94 5.88 5.93 5.87 5.93 4.88 4.95 4.88 4.94 4.88 4.94 3.9 3.96 3.9 3.95 3.89 3.95 2.9 2.97 2.9 2.96 2.9 2.96 1.92 1.98 1.92 1.97 1.91 1.97 0.93 1 0.93 1 0 0 0 0 17.31 1 17.31 1 16.51 1.98 16.51 1.98 15.53 1.98 15.52 2.96 15.52 2.96 14.54 2.97 14.53 3.95 14.53 3.95 13.59 4.93 13.59 4.93 15.5 5.93 15.5 5.93 17.41 6.93 17.41 6.93 17.39 6.93 17.39 6.93 19.32 7.92 19.32 7.92 20.32 9.85 20.32 9.85 19.32 10.85 19.32 10.85 17.39 9.87 17.39 9.87 15.47 8.89 15.47 8.89 13.54 7.94 13.54 7.94 11.66 12 11.66" fill="#fff"/><polygon points="12 10.65 12 11.66 7.94 11.66 7.94 13.54 7.89 13.56 6.94 13.56 6.94 10.65 6.95 10.65 7.94 10.65 9.89 10.65 9.89 9.83 10.88 9.83 10.88 10.65 12 10.65" fill="#221f1f"/><polygon points="10.85 17.39 10.85 19.32 9.85 19.32 9.85 19.32 9.85 17.39 9.87 17.39 10.85 17.39" fill="#221f1f"/><rect x="8.9" y="8.84" width="0.98" height="0.98" fill="#221f1f"/><polygon points="9.87 15.47 9.87 17.39 9.85 17.39 8.87 17.39 8.87 15.47 8.89 15.47 9.87 15.47" fill="#221f1f"/><polygon points="9.85 19.32 9.85 20.32 7.92 20.32 7.92 19.32 7.93 19.32 9.85 19.32 9.85 19.32" fill="#221f1f"/><rect x="7.91" y="7.85" width="0.98" height="0.98" fill="#221f1f"/><polygon points="8.89 13.54 8.89 15.47 8.87 15.47 7.89 15.47 7.89 13.56 7.94 13.54 8.89 13.54" fill="#221f1f"/><polygon points="7.93 17.39 7.93 19.32 7.92 19.32 6.93 19.32 6.93 17.39 7.93 17.39" fill="#221f1f"/><rect x="6.93" y="6.86" width="0.98" height="0.98" fill="#221f1f"/><polygon points="6.93 17.39 6.93 17.41 5.93 17.41 5.93 15.5 5.93 15.48 6.93 15.48 6.93 17.39" fill="#221f1f"/><rect x="5.94" y="5.88" width="0.98" height="0.98" fill="#221f1f"/><polygon points="5.93 13.57 5.93 15.48 5.93 15.5 4.93 15.5 4.93 13.59 4.93 13.57 5.93 13.57" fill="#221f1f"/><rect x="4.95" y="4.88" width="0.98" height="0.98" fill="#221f1f"/><rect x="3.96" y="3.89" width="0.98" height="0.98" fill="#221f1f"/><polygon points="4.93 13.57 4.93 13.59 3.95 13.59 3.94 13.55 3.94 11.66 4.93 11.66 4.93 13.57" fill="#221f1f"/><rect x="2.97" y="2.91" width="0.98" height="0.98" fill="#221f1f"/><polygon points="3.95 13.59 3.95 14.53 2.97 14.53 2.97 13.55 3.94 13.55 3.95 13.59" fill="#221f1f"/><rect x="1.98" y="14.54" width="0.98" height="0.98" fill="#221f1f"/><rect x="1.98" y="1.92" width="0.98" height="0.98" fill="#221f1f"/><polygon points="1.98 15.53 1.98 16.51 1 16.51 1 17.31 0 17.31 0 0 1 0 1 0.93 1.97 0.93 1.97 1.91 1 1.91 1 15.53 1.98 15.53" fill="#221f1f"/></symbol></defs><title>tips-text-truncate-dont</title><g clip-path="url(#clip-path-2)"><rect x="0.5" y="-127.5" width="299" height="562" fill="#d9dee1"/><path d="M299-127V434H1V-127H299m1-1H0V435H300V-128Z" fill="#82878c"/><path d="M32.88,93.2H31.67l-4.32-6.7a2.8,2.8,0,0,1-.27-.53h0a8.65,8.65,0,0,1,0,1.15V93.2h-1V84.8h1.28l4.21,6.59q.26.41.34.56h0a8.89,8.89,0,0,1-.06-1.24V84.8h1Z" fill="#2b3033"/><path d="M39.8,93.2h-1v-.95h0A2,2,0,0,1,37,93.34q-2.14,0-2.14-2.55V87.2h1v3.43q0,1.9,1.45,1.9A1.47,1.47,0,0,0,38.39,92a2,2,0,0,0,.45-1.36V87.2h1Z" fill="#2b3033"/><path d="M50.26,93.2h-1V89.76A2.6,2.6,0,0,0,49,88.31a1.17,1.17,0,0,0-1-.45,1.28,1.28,0,0,0-1,.56,2.15,2.15,0,0,0-.43,1.35V93.2h-1V89.64q0-1.77-1.37-1.77a1.26,1.26,0,0,0-1,.53,2.19,2.19,0,0,0-.41,1.38V93.2h-1v-6h1v.95h0a2,2,0,0,1,1.86-1.09,1.73,1.73,0,0,1,1.7,1.24,2.14,2.14,0,0,1,2-1.24q2,0,2,2.44Z" fill="#2b3033"/><path d="M56.9,90.44H52.66A2.24,2.24,0,0,0,53.2,92a1.86,1.86,0,0,0,1.42.54,3,3,0,0,0,1.86-.67v.9a3.48,3.48,0,0,1-2.09.57,2.54,2.54,0,0,1-2-.82,3.35,3.35,0,0,1-.73-2.3,3.28,3.28,0,0,1,.79-2.28,2.55,2.55,0,0,1,2-.88,2.26,2.26,0,0,1,1.82.76,3.18,3.18,0,0,1,.64,2.12Zm-1-.81a2,2,0,0,0-.4-1.29,1.37,1.37,0,0,0-1.1-.46,1.55,1.55,0,0,0-1.15.49,2.21,2.21,0,0,0-.59,1.27Z" fill="#2b3033"/><path d="M61.48,88.17a1.18,1.18,0,0,0-.73-.19,1.23,1.23,0,0,0-1,.58,2.68,2.68,0,0,0-.41,1.58V93.2h-1v-6h1v1.24h0a2.1,2.1,0,0,1,.63-1,1.43,1.43,0,0,1,.94-.35,1.57,1.57,0,0,1,.57.08Z" fill="#2b3033"/><path d="M63,85.68a.61.61,0,0,1-.44-.18.59.59,0,0,1-.18-.45.62.62,0,0,1,.62-.63.62.62,0,0,1,.45.18.63.63,0,0,1,0,.89A.62.62,0,0,1,63,85.68Zm.47,7.52h-1v-6h1Z" fill="#2b3033"/><path d="M69.52,92.93a3.12,3.12,0,0,1-1.64.42,2.72,2.72,0,0,1-2.07-.83A3,3,0,0,1,65,90.34,3.33,3.33,0,0,1,65.87,88a3,3,0,0,1,2.27-.9,3.16,3.16,0,0,1,1.39.29v1a2.44,2.44,0,0,0-1.43-.47,1.93,1.93,0,0,0-1.51.66A2.5,2.5,0,0,0,66,90.26a2.38,2.38,0,0,0,.55,1.66,1.91,1.91,0,0,0,1.49.61A2.41,2.41,0,0,0,69.52,92Z" fill="#2b3033"/><path d="M77,93.14a1.85,1.85,0,0,1-.9.19q-1.58,0-1.58-1.76V88h-1V87.2h1V85.74l1-.31V87.2H77V88H75.53V91.4a1.4,1.4,0,0,0,.21.86.82.82,0,0,0,.68.26,1,1,0,0,0,.63-.2Z" fill="#2b3033"/><path d="M83.1,87.2l-2.76,7Q79.6,96,78.27,96a2.2,2.2,0,0,1-.63-.08v-.86a1.78,1.78,0,0,0,.57.11,1.18,1.18,0,0,0,1.09-.87l.48-1.14-2.34-6H78.5l1.62,4.62q0,.09.12.46h0q0-.14.12-.45l1.71-4.63Z" fill="#2b3033"/><path d="M85.12,92.33h0V96h-1V87.2h1v1.05h0a2.27,2.27,0,0,1,2.07-1.2,2.2,2.2,0,0,1,1.81.81A3.34,3.34,0,0,1,89.65,90a3.72,3.72,0,0,1-.73,2.41,2.44,2.44,0,0,1-2,.91A2,2,0,0,1,85.12,92.33Zm0-2.42v.84A1.78,1.78,0,0,0,85.58,92a1.72,1.72,0,0,0,2.6-.15,3.06,3.06,0,0,0,.5-1.86,2.42,2.42,0,0,0-.46-1.57A1.53,1.53,0,0,0,87,87.87a1.7,1.7,0,0,0-1.35.58A2.14,2.14,0,0,0,85.09,89.91Z" fill="#2b3033"/><path d="M96,90.44H91.77A2.24,2.24,0,0,0,92.31,92a1.86,1.86,0,0,0,1.42.54,3,3,0,0,0,1.86-.67v.9a3.48,3.48,0,0,1-2.09.57,2.54,2.54,0,0,1-2-.82,3.35,3.35,0,0,1-.73-2.3,3.28,3.28,0,0,1,.79-2.28,2.55,2.55,0,0,1,2-.88,2.26,2.26,0,0,1,1.82.76A3.18,3.18,0,0,1,96,89.94Zm-1-.81a2,2,0,0,0-.4-1.29,1.37,1.37,0,0,0-1.1-.46,1.55,1.55,0,0,0-1.15.49,2.21,2.21,0,0,0-.59,1.27Z" fill="#2b3033"/><path d="M27.09,124v3.18h-1v-8.4h2.31a3,3,0,0,1,2.09.66,2.34,2.34,0,0,1,.74,1.85,2.55,2.55,0,0,1-.82,2,3.15,3.15,0,0,1-2.22.76Zm0-4.34v3.45h1a2.31,2.31,0,0,0,1.56-.47,1.65,1.65,0,0,0,.54-1.32q0-1.66-2-1.66Z" fill="#2b3033"/><path d="M35.82,122.17a1.18,1.18,0,0,0-.73-.19,1.23,1.23,0,0,0-1,.58,2.68,2.68,0,0,0-.41,1.58v3.06h-1v-6h1v1.24h0a2.1,2.1,0,0,1,.63-1,1.43,1.43,0,0,1,.94-.35,1.57,1.57,0,0,1,.57.08Z" fill="#2b3033"/><path d="M41.53,124.44H37.29a2.24,2.24,0,0,0,.54,1.55,1.86,1.86,0,0,0,1.42.54,3,3,0,0,0,1.86-.67v.9a3.48,3.48,0,0,1-2.09.57,2.54,2.54,0,0,1-2-.82,3.35,3.35,0,0,1-.73-2.3,3.28,3.28,0,0,1,.79-2.28,2.55,2.55,0,0,1,2-.88,2.26,2.26,0,0,1,1.82.76,3.18,3.18,0,0,1,.64,2.12Zm-1-.81a2,2,0,0,0-.4-1.29,1.37,1.37,0,0,0-1.1-.46,1.55,1.55,0,0,0-1.15.49,2.21,2.21,0,0,0-.59,1.27Z" fill="#2b3033"/><path d="M47.07,126.93a3.12,3.12,0,0,1-1.64.42,2.72,2.72,0,0,1-2.07-.83,3,3,0,0,1-.79-2.17,3.33,3.33,0,0,1,.85-2.38,3,3,0,0,1,2.27-.9,3.16,3.16,0,0,1,1.39.29v1a2.44,2.44,0,0,0-1.43-.47,1.93,1.93,0,0,0-1.51.66,2.5,2.5,0,0,0-.59,1.73,2.38,2.38,0,0,0,.55,1.66,1.91,1.91,0,0,0,1.49.61,2.41,2.41,0,0,0,1.48-.52Z" fill="#2b3033"/><path d="M49,119.68a.61.61,0,0,1-.44-.18.59.59,0,0,1-.18-.45.62.62,0,0,1,.62-.63.62.62,0,0,1,.45.18.63.63,0,0,1,0,.89A.62.62,0,0,1,49,119.68Zm.47,7.52h-1v-6h1Z" fill="#2b3033"/><path d="M51.07,127v-1a2.84,2.84,0,0,0,1.73.58q1.27,0,1.27-.84a.73.73,0,0,0-.11-.41,1.08,1.08,0,0,0-.29-.3,2.26,2.26,0,0,0-.43-.23l-.54-.21a6.9,6.9,0,0,1-.7-.32,2.12,2.12,0,0,1-.5-.36,1.35,1.35,0,0,1-.3-.46,1.63,1.63,0,0,1-.1-.6,1.43,1.43,0,0,1,.19-.75,1.71,1.71,0,0,1,.52-.54,2.4,2.4,0,0,1,.74-.33,3.26,3.26,0,0,1,.85-.11,3.44,3.44,0,0,1,1.39.27v1a2.72,2.72,0,0,0-1.52-.43,1.78,1.78,0,0,0-.49.06,1.19,1.19,0,0,0-.37.17.8.8,0,0,0-.24.27.7.7,0,0,0-.08.34.82.82,0,0,0,.08.39.86.86,0,0,0,.25.28,1.9,1.9,0,0,0,.4.22l.53.22a7.42,7.42,0,0,1,.71.31,2.45,2.45,0,0,1,.54.36,1.42,1.42,0,0,1,.34.47,1.5,1.5,0,0,1,.12.63,1.48,1.48,0,0,1-.2.77,1.68,1.68,0,0,1-.52.54,2.4,2.4,0,0,1-.76.32,3.73,3.73,0,0,1-.9.11A3.4,3.4,0,0,1,51.07,127Z" fill="#2b3033"/><path d="M57,119.68a.61.61,0,0,1-.44-.18.59.59,0,0,1-.18-.45.62.62,0,0,1,.62-.63.62.62,0,0,1,.45.18.63.63,0,0,1,0,.89A.62.62,0,0,1,57,119.68Zm.47,7.52h-1v-6h1Z" fill="#2b3033"/><path d="M61.94,127.34a2.78,2.78,0,0,1-2.12-.84,3.11,3.11,0,0,1-.79-2.23,3.24,3.24,0,0,1,.83-2.36,3,3,0,0,1,2.23-.85,2.69,2.69,0,0,1,2.09.83,3.28,3.28,0,0,1,.75,2.29,3.22,3.22,0,0,1-.81,2.3A2.84,2.84,0,0,1,61.94,127.34Zm.07-5.47a1.83,1.83,0,0,0-1.46.63,2.59,2.59,0,0,0-.54,1.74,2.45,2.45,0,0,0,.54,1.68,1.85,1.85,0,0,0,1.46.62,1.76,1.76,0,0,0,1.43-.6,2.62,2.62,0,0,0,.5-1.72,2.66,2.66,0,0,0-.5-1.73A1.75,1.75,0,0,0,62,121.87Z" fill="#2b3033"/><path d="M71.44,127.2h-1v-3.42q0-1.91-1.39-1.91a1.51,1.51,0,0,0-1.19.54,2,2,0,0,0-.47,1.37v3.42h-1v-6h1v1h0a2.17,2.17,0,0,1,2-1.14,1.84,1.84,0,0,1,1.51.64,2.83,2.83,0,0,1,.52,1.84Z" fill="#2b3033"/><path d="M32,197.84a5.54,5.54,0,0,1-2.4.45,4,4,0,0,1-3-1.14,4.16,4.16,0,0,1-1.11-3,4.44,4.44,0,0,1,1.25-3.27,4.36,4.36,0,0,1,3.23-1.25,6,6,0,0,1,2.07.31v1.82a3.68,3.68,0,0,0-1.92-.5,2.55,2.55,0,0,0-1.91.74,2.76,2.76,0,0,0-.73,2,2.71,2.71,0,0,0,.69,1.94,2.42,2.42,0,0,0,1.85.72,3.94,3.94,0,0,0,2-.54Z" fill="#2b3033"/><path d="M36.13,198.29a3.23,3.23,0,0,1-2.36-.84,3.48,3.48,0,0,1,0-4.61,3.37,3.37,0,0,1,2.41-.84,3.19,3.19,0,0,1,2.34.84,3,3,0,0,1,.85,2.22,3.17,3.17,0,0,1-.88,2.36A3.26,3.26,0,0,1,36.13,198.29Zm0-4.87a1.23,1.23,0,0,0-1,.45,2,2,0,0,0-.36,1.28q0,1.73,1.39,1.73t1.33-1.78Q37.52,193.41,36.17,193.41Z" fill="#2b3033"/><path d="M46.4,198.14H44.55V194.8q0-1.39-1-1.39a1,1,0,0,0-.79.37,1.41,1.41,0,0,0-.31.94v3.42H40.6v-6h1.85v.95h0a2.12,2.12,0,0,1,1.93-1.1q2,0,2,2.47Z" fill="#2b3033"/><path d="M47.47,198v-1.5a3.94,3.94,0,0,0,.91.41,3,3,0,0,0,.86.13,1.84,1.84,0,0,0,.78-.13.44.44,0,0,0,.28-.41.38.38,0,0,0-.13-.29,1.2,1.2,0,0,0-.33-.21,3.76,3.76,0,0,0-.44-.16l-.46-.16a4.44,4.44,0,0,1-.63-.29,1.82,1.82,0,0,1-.46-.36,1.42,1.42,0,0,1-.28-.47,1.89,1.89,0,0,1-.1-.64,1.64,1.64,0,0,1,.22-.87,1.79,1.79,0,0,1,.59-.59,2.68,2.68,0,0,1,.84-.34,4.37,4.37,0,0,1,1-.11,5.45,5.45,0,0,1,.81.06,6,6,0,0,1,.81.18v1.43a2.92,2.92,0,0,0-.75-.31,3.18,3.18,0,0,0-.79-.1,1.75,1.75,0,0,0-.34,0,1.13,1.13,0,0,0-.28.09.52.52,0,0,0-.19.16.36.36,0,0,0-.07.22.41.41,0,0,0,.11.28.92.92,0,0,0,.28.2,2.72,2.72,0,0,0,.38.15l.41.14a5.37,5.37,0,0,1,.67.28,2.14,2.14,0,0,1,.51.36,1.4,1.4,0,0,1,.33.48,1.92,1.92,0,0,1-.12,1.57,1.85,1.85,0,0,1-.62.62,2.79,2.79,0,0,1-.88.35,4.9,4.9,0,0,1-1,.11A5.36,5.36,0,0,1,47.47,198Z" fill="#2b3033"/><path d="M56.77,198.07a2.74,2.74,0,0,1-1.24.22q-2,0-2-2V193.5h-1v-1.37h1v-1.29l1.85-.53v1.82h1.35v1.37H55.42v2.43q0,.94.74.94a1.25,1.25,0,0,0,.6-.17Z" fill="#2b3033"/><path d="M62.8,198.14H61.05v-.86h0a2,2,0,0,1-1.79,1,1.87,1.87,0,0,1-1.37-.5,1.77,1.77,0,0,1-.5-1.32q0-1.75,2.07-2l1.63-.22q0-1-1.07-1a3.64,3.64,0,0,0-2,.64V192.5a4.59,4.59,0,0,1,1.06-.35,5.56,5.56,0,0,1,1.22-.15,2.27,2.27,0,0,1,2.57,2.56Zm-1.74-2.44v-.4l-1.09.14q-.9.12-.9.81a.67.67,0,0,0,.22.52.84.84,0,0,0,.59.2,1.1,1.1,0,0,0,.85-.36A1.3,1.3,0,0,0,61.06,195.7Z" fill="#2b3033"/><path d="M70.06,198.14H68.22V194.8q0-1.39-1-1.39a1,1,0,0,0-.79.37,1.41,1.41,0,0,0-.31.94v3.42H64.27v-6h1.85v.95h0a2.12,2.12,0,0,1,1.93-1.1q2,0,2,2.47Z" fill="#2b3033"/><path d="M75.16,198.07a2.74,2.74,0,0,1-1.24.22q-2,0-2-2V193.5H71v-1.37h1v-1.29l1.85-.53v1.82h1.35v1.37H73.81v2.43q0,.94.74.94a1.25,1.25,0,0,0,.6-.17Z" fill="#2b3033"/><path d="M75.81,198v-1.5a3.94,3.94,0,0,0,.91.41,3,3,0,0,0,.86.13,1.84,1.84,0,0,0,.78-.13.44.44,0,0,0,.28-.41.38.38,0,0,0-.13-.29,1.2,1.2,0,0,0-.33-.21,3.76,3.76,0,0,0-.44-.16l-.46-.16a4.44,4.44,0,0,1-.63-.29,1.82,1.82,0,0,1-.46-.36,1.42,1.42,0,0,1-.28-.47,1.89,1.89,0,0,1-.1-.64A1.64,1.64,0,0,1,76,193a1.79,1.79,0,0,1,.59-.59,2.68,2.68,0,0,1,.84-.34,4.37,4.37,0,0,1,1-.11,5.45,5.45,0,0,1,.81.06,6,6,0,0,1,.81.18v1.43a2.92,2.92,0,0,0-.75-.31,3.18,3.18,0,0,0-.79-.1,1.75,1.75,0,0,0-.34,0,1.13,1.13,0,0,0-.28.09.52.52,0,0,0-.19.16.36.36,0,0,0-.07.22.41.41,0,0,0,.11.28.92.92,0,0,0,.28.2,2.72,2.72,0,0,0,.38.15l.41.14a5.37,5.37,0,0,1,.67.28,2.14,2.14,0,0,1,.51.36,1.4,1.4,0,0,1,.33.48,1.92,1.92,0,0,1-.12,1.57,1.85,1.85,0,0,1-.62.62,2.79,2.79,0,0,1-.88.35,4.9,4.9,0,0,1-1,.11A5.36,5.36,0,0,1,75.81,198Z" fill="#2b3033"/><path d="M77.72,1.05a1.08,1.08,0,0,1-.77-.28.9.9,0,0,1-.3-.68.86.86,0,0,1,.3-.68,1.12,1.12,0,0,1,.77-.26,1.11,1.11,0,0,1,.77.26.87.87,0,0,1,.3.68.89.89,0,0,1-.3.69A1.1,1.1,0,0,1,77.72,1.05ZM78.63,8H76.78V2h1.85Z" fill="#2b3033"/><path d="M86,8H84.14V4.67q0-1.39-1-1.39a1,1,0,0,0-.79.37,1.41,1.41,0,0,0-.31.94V8H80.19V2H82V3h0A2.12,2.12,0,0,1,84,1.85q2,0,2,2.47Z" fill="#2b3033"/><path d="M89.32,7.3h0v3.46H87.45V2H89.3v.9h0a2.36,2.36,0,0,1,3.73-.25,3.41,3.41,0,0,1,.64,2.18,3.69,3.69,0,0,1-.74,2.41,2.42,2.42,0,0,1-2,.91A1.87,1.87,0,0,1,89.32,7.3Zm-.05-2.46v.48a1.53,1.53,0,0,0,.33,1,1.07,1.07,0,0,0,.86.39,1.14,1.14,0,0,0,1-.49,2.36,2.36,0,0,0,.35-1.39q0-1.58-1.23-1.58a1.16,1.16,0,0,0-.93.43A1.72,1.72,0,0,0,89.27,4.84Z" fill="#2b3033"/><path d="M100.59,8H98.75V7.09h0a2.09,2.09,0,0,1-1.83,1.06q-2.09,0-2.09-2.53V2h1.85V5.46q0,1.27,1,1.27a1,1,0,0,0,.8-.35,1.41,1.41,0,0,0,.3-.95V2h1.85Z" fill="#2b3033"/><path d="M105.78,7.93a2.74,2.74,0,0,1-1.24.22q-2,0-2-2V3.37h-1V2h1V.71l1.85-.53V2h1.35V3.37h-1.35V5.79q0,.94.74.94a1.25,1.25,0,0,0,.6-.17Z" fill="#2b3033"/><path d="M112.76,8.15q-3,0-3-4.21A5.73,5.73,0,0,1,110.57.6a2.7,2.7,0,0,1,2.35-1.15q2.93,0,2.93,4.28A5.64,5.64,0,0,1,115,7,2.63,2.63,0,0,1,112.76,8.15Zm.08-7.28q-1.2,0-1.2,3,0,2.84,1.18,2.84T114,3.8Q114,.87,112.84.87Z" fill="#2b3033"/><rect x="263.5" y="5.5" width="12" height="10" fill="url(#linear-gradient)"/><path d="M275,6v9H264V6h11m1-1H263V16h13V5Z" fill="#a8abae"/><rect x="167.5" y="-7.5" width="93" height="23" fill="#fff"/><path d="M260-7V15H168V-7h92m1-1H167V16h94V-8Z" fill="#a8abae"/><rect x="263.5" y="-7.5" width="12" height="10" fill="url(#linear-gradient-2)"/><path d="M275-7V2H264V-7h11m1-1H263V3h13V-8Z" fill="#a8abae"/><path d="M255.2,3.76A8.26,8.26,0,0,1,255,5.63,4.36,4.36,0,0,1,254.46,7a2.48,2.48,0,0,1-.88.85,2.43,2.43,0,0,1-1.19.29,2.26,2.26,0,0,1-1.13-.28,2.37,2.37,0,0,1-.84-.81,4.11,4.11,0,0,1-.52-1.31A8.1,8.1,0,0,1,249.72,4,9.16,9.16,0,0,1,249.91,2a4.45,4.45,0,0,1,.54-1.42,2.41,2.41,0,0,1,.89-.86,2.49,2.49,0,0,1,1.21-.29Q255.2-.54,255.2,3.76Zm-1,.09q0-3.59-1.71-3.59t-1.8,3.65q0,3.4,1.76,3.4T254.21,3.86Z" fill="#2b3033"/><polygon points="265.94 8 273 8 269.47 12.74 265.94 8" fill="#2b3033"/><rect x="282" y="-47" width="17" height="481" fill="#fff"/><rect x="26" y="-2" width="28" height="12" fill="#f59332"/><path d="M47.72,6.84H44V1h.8V6.12h2.88v.72M41.64,5.06a1.33,1.33,0,0,0-.11-.58.86.86,0,0,0-.38-.37L40.7,4l-.65,0H38.84V6.2h1l.83-.05a1.3,1.3,0,0,0,.53-.2l.32-.36Zm-.48-2.68L41.09,2l-.23-.23-.45-.13-.65,0h-.92V3.32h1l.58,0,.4-.15a.65.65,0,0,0,.26-.3ZM42.44,5a1.73,1.73,0,0,1-.17.78,1.57,1.57,0,0,1-.44.55,2,2,0,0,1-.72.37,3.74,3.74,0,0,1-1,.11H38V1h1.74l1,0,.61.19a1.08,1.08,0,0,1,.47.43,1.26,1.26,0,0,1,.15.63,1.15,1.15,0,0,1-.21.7,1.49,1.49,0,0,1-.56.46v0a1.58,1.58,0,0,1,.92.53A1.53,1.53,0,0,1,42.44,5ZM36.12,3.91a2.64,2.64,0,0,0-.23-1.17,1.74,1.74,0,0,0-.7-.75,2.26,2.26,0,0,0-.72-.28l-.91-.08h-.71V6.2h.71l1-.08a2.1,2.1,0,0,0,.75-.31,1.76,1.76,0,0,0,.64-.74A2.75,2.75,0,0,0,36.12,3.91Zm.8,0a3,3,0,0,1-.34,1.44,2.58,2.58,0,0,1-.91,1,2.84,2.84,0,0,1-.88.36,6,6,0,0,1-1.28.11H32V1h1.44a5.79,5.79,0,0,1,1.34.12,2.93,2.93,0,0,1,.84.34,2.61,2.61,0,0,1,.92,1A3.09,3.09,0,0,1,36.92,3.93Z" fill="#fff"/><path d="M77.72,153.05a1.08,1.08,0,0,1-.77-.28.9.9,0,0,1-.3-.68.86.86,0,0,1,.3-.68,1.25,1.25,0,0,1,1.54,0,.87.87,0,0,1,.3.68.89.89,0,0,1-.3.69A1.1,1.1,0,0,1,77.72,153.05Zm.91,6.95H76.78v-6h1.85Z" fill="#2b3033"/><path d="M86,160H84.14v-3.33q0-1.39-1-1.39a1,1,0,0,0-.79.37,1.41,1.41,0,0,0-.31.94V160H80.19v-6H82V155h0a2.12,2.12,0,0,1,1.93-1.1q2,0,2,2.47Z" fill="#2b3033"/><path d="M89.32,159.3h0v3.46H87.45V154H89.3v.9h0a2.36,2.36,0,0,1,3.73-.25,3.41,3.41,0,0,1,.64,2.18,3.69,3.69,0,0,1-.74,2.41,2.42,2.42,0,0,1-2,.91A1.87,1.87,0,0,1,89.32,159.3Zm-.05-2.46v.48a1.53,1.53,0,0,0,.33,1,1.07,1.07,0,0,0,.86.39,1.14,1.14,0,0,0,1-.49,2.36,2.36,0,0,0,.35-1.39q0-1.58-1.23-1.58a1.16,1.16,0,0,0-.93.43A1.72,1.72,0,0,0,89.27,156.84Z" fill="#2b3033"/><path d="M100.59,160H98.75v-.91h0a2.09,2.09,0,0,1-1.83,1.06q-2.09,0-2.09-2.53V154h1.85v3.46q0,1.27,1,1.27a1,1,0,0,0,.8-.35,1.41,1.41,0,0,0,.3-.95V154h1.85Z" fill="#2b3033"/><path d="M105.78,159.93a2.74,2.74,0,0,1-1.24.22q-2,0-2-2v-2.75h-1V154h1v-1.29l1.85-.53V154h1.35v1.37h-1.35v2.43q0,.94.74.94a1.25,1.25,0,0,0,.6-.17Z" fill="#2b3033"/><path d="M112.76,160.15q-3,0-3-4.21a5.73,5.73,0,0,1,.81-3.33,2.7,2.7,0,0,1,2.35-1.15q2.93,0,2.93,4.28A5.64,5.64,0,0,1,115,159,2.63,2.63,0,0,1,112.76,160.15Zm.08-7.28q-1.2,0-1.2,3,0,2.84,1.18,2.84T114,155.8Q114,152.87,112.84,152.87Z" fill="#2b3033"/><rect x="26" y="150" width="28" height="12" fill="#f59332"/><path d="M47.72,158.84H44V153h.8v5.12h2.88v.72m-6.08-1.78a1.33,1.33,0,0,0-.11-.58.86.86,0,0,0-.38-.37L40.7,156l-.65,0H38.84v2.24h1l.83-.05a1.3,1.3,0,0,0,.53-.2l.32-.36Zm-.48-2.68-.07-.36-.23-.23-.45-.13-.65,0h-.92v1.68h1l.58,0,.4-.15a.65.65,0,0,0,.26-.3ZM42.44,157a1.73,1.73,0,0,1-.17.78,1.57,1.57,0,0,1-.44.55,2,2,0,0,1-.72.37,3.74,3.74,0,0,1-1,.11H38V153h1.74l1,0,.61.19a1.08,1.08,0,0,1,.47.43,1.26,1.26,0,0,1,.15.63,1.15,1.15,0,0,1-.21.7,1.49,1.49,0,0,1-.56.46v0a1.58,1.58,0,0,1,.92.53A1.53,1.53,0,0,1,42.44,157Zm-6.32-1.11a2.64,2.64,0,0,0-.23-1.17,1.74,1.74,0,0,0-.7-.75,2.26,2.26,0,0,0-.72-.28l-.91-.08h-.71v4.56h.71l1-.08a2.1,2.1,0,0,0,.75-.31,1.76,1.76,0,0,0,.64-.74A2.75,2.75,0,0,0,36.12,155.91Zm.8,0a3,3,0,0,1-.34,1.44,2.58,2.58,0,0,1-.91,1,2.84,2.84,0,0,1-.88.36,6,6,0,0,1-1.28.11H32V153h1.44a5.79,5.79,0,0,1,1.34.12,2.93,2.93,0,0,1,.84.34,2.61,2.61,0,0,1,.92,1A3.09,3.09,0,0,1,36.92,155.93Z" fill="#fff"/><path d="M77.72,35.05a1.08,1.08,0,0,1-.77-.28.9.9,0,0,1-.3-.68.86.86,0,0,1,.3-.68,1.25,1.25,0,0,1,1.54,0,.87.87,0,0,1,.3.68.89.89,0,0,1-.3.69A1.1,1.1,0,0,1,77.72,35.05ZM78.63,42H76.78V36h1.85Z" fill="#2b3033"/><path d="M86,42H84.14V38.67q0-1.39-1-1.39a1,1,0,0,0-.79.37,1.41,1.41,0,0,0-.31.94V42H80.19V36H82V37h0A2.12,2.12,0,0,1,84,35.85q2,0,2,2.47Z" fill="#2b3033"/><path d="M89.32,41.3h0v3.46H87.45V36H89.3v.9h0a2.36,2.36,0,0,1,3.73-.25,3.41,3.41,0,0,1,.64,2.18,3.69,3.69,0,0,1-.74,2.41,2.42,2.42,0,0,1-2,.91A1.87,1.87,0,0,1,89.32,41.3Zm-.05-2.46v.48a1.53,1.53,0,0,0,.33,1,1.07,1.07,0,0,0,.86.39,1.14,1.14,0,0,0,1-.49,2.36,2.36,0,0,0,.35-1.39q0-1.58-1.23-1.58a1.16,1.16,0,0,0-.93.43A1.72,1.72,0,0,0,89.27,38.84Z" fill="#2b3033"/><path d="M100.59,42H98.75v-.91h0a2.09,2.09,0,0,1-1.83,1.06q-2.09,0-2.09-2.53V36h1.85v3.46q0,1.27,1,1.27a1,1,0,0,0,.8-.35,1.41,1.41,0,0,0,.3-.95V36h1.85Z" fill="#2b3033"/><path d="M105.78,41.93a2.74,2.74,0,0,1-1.24.22q-2,0-2-2V37.37h-1V36h1V34.71l1.85-.53V36h1.35v1.37h-1.35v2.43q0,.94.74.94a1.25,1.25,0,0,0,.6-.17Z" fill="#2b3033"/><path d="M112.76,42.15q-3,0-3-4.21a5.73,5.73,0,0,1,.81-3.33,2.7,2.7,0,0,1,2.35-1.15q2.93,0,2.93,4.28A5.64,5.64,0,0,1,115,41,2.63,2.63,0,0,1,112.76,42.15Zm.08-7.28q-1.2,0-1.2,3,0,2.84,1.18,2.84T114,37.8Q114,34.87,112.84,34.87Z" fill="#2b3033"/><rect x="263.5" y="39.5" width="12" height="10" fill="url(#linear-gradient-3)"/><path d="M275,40v9H264V40h11m1-1H263V50h13V39Z" fill="#a8abae"/><rect x="167.5" y="26.5" width="93" height="23" fill="#fff"/><path d="M260,27V49H168V27h92m1-1H167V50h94V26Z" fill="#a8abae"/><rect x="263.5" y="26.5" width="12" height="10" fill="url(#linear-gradient-4)"/><path d="M275,27v9H264V27h11m1-1H263V37h13V26Z" fill="#a8abae"/><path d="M255.2,37.76a8.26,8.26,0,0,1-.19,1.87,4.36,4.36,0,0,1-.55,1.37,2.48,2.48,0,0,1-.88.85,2.43,2.43,0,0,1-1.19.29,2.26,2.26,0,0,1-1.13-.28,2.37,2.37,0,0,1-.84-.81,4.11,4.11,0,0,1-.52-1.31,8.1,8.1,0,0,1-.18-1.78,9.16,9.16,0,0,1,.19-1.95,4.45,4.45,0,0,1,.54-1.42,2.41,2.41,0,0,1,.89-.86,2.49,2.49,0,0,1,1.21-.29Q255.2,33.46,255.2,37.76Zm-1,.09q0-3.59-1.71-3.59t-1.8,3.65q0,3.4,1.76,3.4T254.21,37.86Z" fill="#2b3033"/><polygon points="265.94 42 273 42 269.47 46.74 265.94 42" fill="#2b3033"/><polygon points="273 34 265.94 34 269.47 29.26 273 34" fill="#2b3033"/><rect x="26" y="32" width="28" height="12" fill="#f59332"/><path d="M47.72,40.84H44V35h.8v5.12h2.88v.72m-6.08-1.78a1.33,1.33,0,0,0-.11-.58.86.86,0,0,0-.38-.37L40.7,38l-.65,0H38.84V40.2h1l.83-.05a1.3,1.3,0,0,0,.53-.2l.32-.36Zm-.48-2.68L41.09,36l-.23-.23-.45-.13-.65,0h-.92v1.68h1l.58,0,.4-.15a.65.65,0,0,0,.26-.3ZM42.44,39a1.73,1.73,0,0,1-.17.78,1.57,1.57,0,0,1-.44.55,2,2,0,0,1-.72.37,3.74,3.74,0,0,1-1,.11H38V35h1.74l1,0,.61.19a1.08,1.08,0,0,1,.47.43,1.26,1.26,0,0,1,.15.63,1.15,1.15,0,0,1-.21.7,1.49,1.49,0,0,1-.56.46v0a1.58,1.58,0,0,1,.92.53A1.53,1.53,0,0,1,42.44,39Zm-6.32-1.11a2.64,2.64,0,0,0-.23-1.17,1.74,1.74,0,0,0-.7-.75,2.26,2.26,0,0,0-.72-.28l-.91-.08h-.71V40.2h.71l1-.08a2.1,2.1,0,0,0,.75-.31,1.76,1.76,0,0,0,.64-.74A2.75,2.75,0,0,0,36.12,37.91Zm.8,0a3,3,0,0,1-.34,1.44,2.58,2.58,0,0,1-.91,1,2.84,2.84,0,0,1-.88.36,6,6,0,0,1-1.28.11H32V35h1.44a5.79,5.79,0,0,1,1.34.12,2.93,2.93,0,0,1,.84.34,2.61,2.61,0,0,1,.92,1A3.09,3.09,0,0,1,36.92,37.93Z" fill="#fff"/><rect x="25" y="60" width="251" height="1" fill="#a0a0a0"/><rect x="25" y="174" width="251" height="1" fill="#a0a0a0"/><rect x="151.5" y="76.5" width="124" height="23" fill="url(#linear-gradient-5)"/><path d="M275,77V99H152V77H275m1-1H151v24H276V76Z" fill="#a8abae"/><path d="M259,85h9l-4.5,6Z" fill="#2b3033"/><path d="M180.38,85.38h-3.28v2.91h3v.88h-3v3.72h-1v-8.4h4.27Z" fill="#2b3033"/><path d="M182.8,92.89h-1V84h1Z" fill="#2b3033"/><path d="M187.25,93a2.78,2.78,0,0,1-2.12-.84,3.11,3.11,0,0,1-.79-2.23,3.24,3.24,0,0,1,.83-2.36,3,3,0,0,1,2.23-.85,2.69,2.69,0,0,1,2.09.83,3.28,3.28,0,0,1,.75,2.29,3.22,3.22,0,0,1-.81,2.3A2.84,2.84,0,0,1,187.25,93Zm.07-5.47a1.83,1.83,0,0,0-1.46.63,2.59,2.59,0,0,0-.54,1.74,2.45,2.45,0,0,0,.54,1.68,1.85,1.85,0,0,0,1.46.62,1.76,1.76,0,0,0,1.43-.6,2.62,2.62,0,0,0,.5-1.72,2.66,2.66,0,0,0-.5-1.73A1.75,1.75,0,0,0,187.32,87.56Z" fill="#2b3033"/><path d="M195.91,92.89h-1V92h0A2,2,0,0,1,193.08,93a2,2,0,0,1-1.4-.47,1.64,1.64,0,0,1-.51-1.26q0-1.68,2-2l1.8-.25q0-1.53-1.24-1.53a3,3,0,0,0-2,.74v-1a3.72,3.72,0,0,1,2-.56q2.12,0,2.12,2.24Zm-1-3-1.45.2a2.35,2.35,0,0,0-1,.33,1,1,0,0,0-.34.84.92.92,0,0,0,.31.72,1.21,1.21,0,0,0,.83.28,1.54,1.54,0,0,0,1.18-.5,1.79,1.79,0,0,0,.47-1.27Z" fill="#2b3033"/><path d="M200.51,92.83a1.85,1.85,0,0,1-.9.19Q198,93,198,91.26V87.71h-1v-.82h1V85.43l1-.31v1.78h1.51v.82H199v3.38a1.4,1.4,0,0,0,.21.86.82.82,0,0,0,.68.26,1,1,0,0,0,.63-.2Z" fill="#2b3033"/><path d="M202.28,85.37a.61.61,0,0,1-.44-.18.59.59,0,0,1-.18-.45.62.62,0,0,1,.62-.63.62.62,0,0,1,.45.18.63.63,0,0,1,0,.89A.62.62,0,0,1,202.28,85.37Zm.47,7.52h-1v-6h1Z" fill="#2b3033"/><path d="M209.68,92.89h-1V89.47q0-1.91-1.39-1.91a1.51,1.51,0,0,0-1.19.54,2,2,0,0,0-.47,1.37v3.42h-1v-6h1v1h0a2.17,2.17,0,0,1,2-1.14,1.84,1.84,0,0,1,1.51.64,2.83,2.83,0,0,1,.52,1.84Z" fill="#2b3033"/><path d="M216.61,92.41q0,3.3-3.16,3.3a4.25,4.25,0,0,1-1.95-.42v-1a4,4,0,0,0,1.93.56q2.21,0,2.21-2.36v-.66h0a2.43,2.43,0,0,1-3.86.35,3.2,3.2,0,0,1-.68-2.15,3.74,3.74,0,0,1,.74-2.43,2.46,2.46,0,0,1,2-.9,2,2,0,0,1,1.8,1h0v-.83h1Zm-1-2.23v-.88a1.72,1.72,0,0,0-.48-1.22,1.59,1.59,0,0,0-1.2-.51,1.67,1.67,0,0,0-1.39.65,2.89,2.89,0,0,0-.5,1.81,2.48,2.48,0,0,0,.48,1.6,1.56,1.56,0,0,0,1.28.6,1.67,1.67,0,0,0,1.32-.57A2.14,2.14,0,0,0,215.65,90.18Z" fill="#2b3033"/><path d="M221.63,89.93h-3.2v-.76h3.2Z" fill="#2b3033"/><path d="M224.34,92h0v3.63h-1V86.89h1v1.05h0a2.27,2.27,0,0,1,2.07-1.2,2.2,2.2,0,0,1,1.81.81,3.34,3.34,0,0,1,.65,2.16,3.72,3.72,0,0,1-.73,2.41,2.44,2.44,0,0,1-2,.91A2,2,0,0,1,224.34,92Zm0-2.42v.84a1.78,1.78,0,0,0,.48,1.26,1.72,1.72,0,0,0,2.6-.15,3.06,3.06,0,0,0,.5-1.86,2.42,2.42,0,0,0-.46-1.57,1.53,1.53,0,0,0-1.25-.57,1.7,1.7,0,0,0-1.35.58A2.14,2.14,0,0,0,224.31,89.6Z" fill="#2b3033"/><path d="M232.92,93a2.78,2.78,0,0,1-2.12-.84A3.11,3.11,0,0,1,230,90a3.24,3.24,0,0,1,.83-2.36,3,3,0,0,1,2.23-.85,2.69,2.69,0,0,1,2.09.83,3.28,3.28,0,0,1,.75,2.29,3.22,3.22,0,0,1-.81,2.3A2.84,2.84,0,0,1,232.92,93Zm.07-5.47a1.83,1.83,0,0,0-1.46.63,2.59,2.59,0,0,0-.54,1.74,2.45,2.45,0,0,0,.54,1.68,1.85,1.85,0,0,0,1.46.62,1.76,1.76,0,0,0,1.43-.6,2.62,2.62,0,0,0,.5-1.72,2.66,2.66,0,0,0-.5-1.73A1.75,1.75,0,0,0,233,87.56Z" fill="#2b3033"/><path d="M237.93,85.37a.61.61,0,0,1-.44-.18.59.59,0,0,1-.18-.45.62.62,0,0,1,.62-.63.62.62,0,0,1,.45.18.63.63,0,0,1,0,.89A.62.62,0,0,1,237.93,85.37Zm.47,7.52h-1v-6h1Z" fill="#2b3033"/><path d="M245.33,92.89h-1V89.47q0-1.91-1.39-1.91a1.51,1.51,0,0,0-1.19.54,2,2,0,0,0-.47,1.37v3.42h-1v-6h1v1h0a2.17,2.17,0,0,1,2-1.14,1.84,1.84,0,0,1,1.51.64,2.83,2.83,0,0,1,.52,1.84Z" fill="#2b3033"/><path d="M249.92,92.83a1.85,1.85,0,0,1-.9.19q-1.58,0-1.58-1.76V87.71h-1v-.82h1V85.43l1-.31v1.78h1.51v.82h-1.51v3.38a1.4,1.4,0,0,0,.21.86.82.82,0,0,0,.68.26,1,1,0,0,0,.63-.2Z" fill="#2b3033"/><rect x="155.5" y="80.5" width="15" height="15" fill="#f59433"/><path d="M170,81V95H156V81h14m1-1H155V96h16V80Z" fill="#a9acaf"/><rect x="151.5" y="110.5" width="124" height="23" fill="url(#linear-gradient-6)"/><path d="M275,111v22H152V111H275m1-1H151v24H276V110Z" fill="#a8abae"/><path d="M259,119h9l-4.5,6Z" fill="#2b3033"/><path d="M162.11,126.89v-8.4h2.32q4.44,0,4.44,4.1a4.13,4.13,0,0,1-1.23,3.13,4.58,4.58,0,0,1-3.3,1.18Zm1-7.51V126h1.25a3.56,3.56,0,0,0,2.57-.88,3.32,3.32,0,0,0,.92-2.51q0-3.23-3.43-3.23Z" fill="#2b3033"/><path d="M172.9,127a2.78,2.78,0,0,1-2.12-.84A3.11,3.11,0,0,1,170,124a3.24,3.24,0,0,1,.83-2.36,3,3,0,0,1,2.23-.85,2.69,2.69,0,0,1,2.09.83,3.28,3.28,0,0,1,.75,2.29,3.22,3.22,0,0,1-.81,2.3A2.84,2.84,0,0,1,172.9,127Zm.07-5.47a1.83,1.83,0,0,0-1.46.63,2.59,2.59,0,0,0-.54,1.74,2.45,2.45,0,0,0,.54,1.68,1.85,1.85,0,0,0,1.46.62,1.76,1.76,0,0,0,1.43-.6,2.62,2.62,0,0,0,.5-1.72,2.66,2.66,0,0,0-.5-1.73A1.75,1.75,0,0,0,173,121.56Z" fill="#2b3033"/><path d="M182.28,126.89h-1v-.95h0a2,2,0,0,1-1.85,1.09q-2.14,0-2.14-2.55v-3.59h1v3.43q0,1.9,1.45,1.9a1.47,1.47,0,0,0,1.16-.52,2,2,0,0,0,.45-1.36v-3.46h1Z" fill="#2b3033"/><path d="M185.2,126h0v.87h-1V118h1v3.94h0a2.27,2.27,0,0,1,2.07-1.2,2.2,2.2,0,0,1,1.81.81,3.33,3.33,0,0,1,.65,2.16,3.72,3.72,0,0,1-.73,2.41,2.44,2.44,0,0,1-2,.91A2,2,0,0,1,185.2,126Zm0-2.42v.84a1.78,1.78,0,0,0,.48,1.26,1.72,1.72,0,0,0,2.6-.15,3.06,3.06,0,0,0,.5-1.86,2.42,2.42,0,0,0-.46-1.57,1.53,1.53,0,0,0-1.25-.57,1.7,1.7,0,0,0-1.35.58A2.14,2.14,0,0,0,185.18,123.6Z" fill="#2b3033"/><path d="M192.23,126.89h-1V118h1Z" fill="#2b3033"/><path d="M199,124.13h-4.24a2.24,2.24,0,0,0,.54,1.55,1.86,1.86,0,0,0,1.42.54,3,3,0,0,0,1.86-.67v.9a3.48,3.48,0,0,1-2.09.57,2.54,2.54,0,0,1-2-.82,3.35,3.35,0,0,1-.73-2.3,3.28,3.28,0,0,1,.79-2.28,2.55,2.55,0,0,1,2-.88,2.26,2.26,0,0,1,1.82.76,3.18,3.18,0,0,1,.64,2.12Zm-1-.81a2,2,0,0,0-.4-1.29,1.37,1.37,0,0,0-1.1-.46,1.55,1.55,0,0,0-1.15.49,2.21,2.21,0,0,0-.59,1.27Z" fill="#2b3033"/></g><path d="M427,199.67c-2,0-2.64,2.25-4.26,3.82a39.16,39.16,0,0,1-4.84,4.24,7.54,7.54,0,0,1-9.68,0,40.67,40.67,0,0,1-4.84-4.24,39.28,39.28,0,0,0-4.84-4.25,7.55,7.55,0,0,0-9.67,0,40,40,0,0,0-4.85,4.24,39.16,39.16,0,0,1-4.84,4.24,7.54,7.54,0,0,1-9.68,0,39.84,39.84,0,0,1-4.83-4.24,41.72,41.72,0,0,0-4.84-4.25,7.57,7.57,0,0,0-9.68,0,39.16,39.16,0,0,0-4.84,4.24,40.67,40.67,0,0,1-4.84,4.24,7.54,7.54,0,0,1-9.68,0,39.16,39.16,0,0,1-4.84-4.24,41.72,41.72,0,0,0-4.84-4.25,7.57,7.57,0,0,0-9.68,0,39.9,39.9,0,0,0-4.84,4.24,40.67,40.67,0,0,1-4.84,4.24,7.53,7.53,0,0,1-9.68,0,39.16,39.16,0,0,1-4.84-4.24,40.91,40.91,0,0,0-4.84-4.25,7.57,7.57,0,0,0-9.68,0,39.9,39.9,0,0,0-4.84,4.24,39.9,39.9,0,0,1-4.84,4.24,7.53,7.53,0,0,1-9.68,0,39.9,39.9,0,0,1-4.84-4.24,40.13,40.13,0,0,0-4.84-4.25,7.57,7.57,0,0,0-9.68,0,40.67,40.67,0,0,0-4.84,4.24,40.91,40.91,0,0,1-4.84,4.25,7.55,7.55,0,0,1-9.68,0,40.67,40.67,0,0,1-4.84-4.24A39.16,39.16,0,0,0,205,199.2a8.55,8.55,0,0,0-4.84-1.76,8.66,8.66,0,0,0-4.84,1.75,40.67,40.67,0,0,0-4.84,4.24,39.28,39.28,0,0,1-4.84,4.25,7.55,7.55,0,0,1-9.68,0,40.67,40.67,0,0,1-4.84-4.24,39.16,39.16,0,0,0-4.84-4.24,7.54,7.54,0,0,0-9.68,0,40.67,40.67,0,0,0-4.84,4.24,39.16,39.16,0,0,1-4.84,4.24,7.54,7.54,0,0,1-9.68,0,39.9,39.9,0,0,1-4.84-4.24,39.9,39.9,0,0,0-4.84-4.24,7.54,7.54,0,0,0-9.68,0,40.67,40.67,0,0,0-4.84,4.24,39.16,39.16,0,0,1-4.84,4.24,7.53,7.53,0,0,1-9.68,0,40.67,40.67,0,0,1-4.84-4.24,39.16,39.16,0,0,0-4.84-4.24,7.54,7.54,0,0,0-9.68,0,40.67,40.67,0,0,0-4.84,4.24,39.16,39.16,0,0,1-4.84,4.24,8.62,8.62,0,0,1-4.84,1.76,8.67,8.67,0,0,1-4.84-1.76,39.84,39.84,0,0,1-4.83-4.24,40.67,40.67,0,0,0-4.84-4.24,8.67,8.67,0,0,0-4.84-1.76,8.62,8.62,0,0,0-4.84,1.76,39.16,39.16,0,0,0-4.84,4.24,40.67,40.67,0,0,1-4.84,4.24,8.67,8.67,0,0,1-4.84,1.76A8.62,8.62,0,0,1,21,207.67a39.16,39.16,0,0,1-4.84-4.24,40.67,40.67,0,0,0-4.84-4.24,8.67,8.67,0,0,0-4.84-1.76,8.62,8.62,0,0,0-4.84,1.76,39.16,39.16,0,0,0-4.84,4.24A40.67,40.67,0,0,1-8,207.67a8.67,8.67,0,0,1-4.84,1.76,8.62,8.62,0,0,1-4.84-1.76,39.9,39.9,0,0,1-4.84-4.24,39.9,39.9,0,0,0-4.84-4.24,8.65,8.65,0,0,0-4.84-1.76A8.65,8.65,0,0,0-37,199.19a39.9,39.9,0,0,0-4.84,4.24,39.9,39.9,0,0,1-4.84,4.24,8.65,8.65,0,0,1-4.84,1.76,8.65,8.65,0,0,1-4.84-1.76,39.9,39.9,0,0,1-4.84-4.24,39.9,39.9,0,0,0-4.84-4.24,8.65,8.65,0,0,0-4.84-1.76,8.65,8.65,0,0,0-4.84,1.76,39.9,39.9,0,0,0-4.84,4.24,39.9,39.9,0,0,1-4.84,4.24,8.65,8.65,0,0,1-4.84,1.76,8.67,8.67,0,0,1-4.84-1.76,40.67,40.67,0,0,1-4.84-4.24,39.16,39.16,0,0,0-4.84-4.24,8.62,8.62,0,0,0-4.84-1.76,8.67,8.67,0,0,0-4.84,1.76,40.67,40.67,0,0,0-4.84,4.24c-1.61,1.57-2.88,4.24-4.84,4.24" fill="none" stroke="#adaead" stroke-miterlimit="10"/><path d="M447,2.67c-2,0-2.64,2.25-4.26,3.82a39.16,39.16,0,0,1-4.84,4.24,7.54,7.54,0,0,1-9.68,0,40.67,40.67,0,0,1-4.84-4.24,39.28,39.28,0,0,0-4.84-4.25,7.55,7.55,0,0,0-9.67,0A40,40,0,0,0,404,6.48a39.16,39.16,0,0,1-4.84,4.24,8.62,8.62,0,0,1-4.84,1.76,8.67,8.67,0,0,1-4.84-1.76,39.84,39.84,0,0,1-4.83-4.24,41.72,41.72,0,0,0-4.84-4.25,7.57,7.57,0,0,0-9.68,0,39.16,39.16,0,0,0-4.84,4.24,40.67,40.67,0,0,1-4.84,4.24,8.67,8.67,0,0,1-4.84,1.76,8.62,8.62,0,0,1-4.84-1.76A39.16,39.16,0,0,1,346,6.47a41.72,41.72,0,0,0-4.84-4.25,7.57,7.57,0,0,0-9.68,0,39.9,39.9,0,0,0-4.84,4.24,40.67,40.67,0,0,1-4.84,4.24,7.53,7.53,0,0,1-9.68,0,39.16,39.16,0,0,1-4.84-4.24,40.91,40.91,0,0,0-4.84-4.25,7.57,7.57,0,0,0-9.68,0,39.9,39.9,0,0,0-4.84,4.24A39.9,39.9,0,0,1,283,10.69a8.57,8.57,0,0,1-4.84,1.76,8.65,8.65,0,0,1-4.84-1.76,39.9,39.9,0,0,1-4.84-4.24,40.13,40.13,0,0,0-4.84-4.25,7.57,7.57,0,0,0-9.68,0,40.67,40.67,0,0,0-4.84,4.24,40.91,40.91,0,0,1-4.84,4.25,7.55,7.55,0,0,1-9.68,0,40.67,40.67,0,0,1-4.84-4.24A39.16,39.16,0,0,0,225,2.2,8.55,8.55,0,0,0,220.11.44a8.66,8.66,0,0,0-4.84,1.75,40.67,40.67,0,0,0-4.84,4.24,39.28,39.28,0,0,1-4.84,4.25,8.6,8.6,0,0,1-4.84,1.75,8.65,8.65,0,0,1-4.84-1.76,40.67,40.67,0,0,1-4.84-4.24,39.16,39.16,0,0,0-4.84-4.24,7.54,7.54,0,0,0-9.68,0,40.67,40.67,0,0,0-4.84,4.24,39.16,39.16,0,0,1-4.84,4.24,7.53,7.53,0,0,1-9.68,0,39.9,39.9,0,0,1-4.84-4.24,39.9,39.9,0,0,0-4.84-4.24,7.54,7.54,0,0,0-9.68,0A40.67,40.67,0,0,0,133,6.43a39.16,39.16,0,0,1-4.84,4.24,8.62,8.62,0,0,1-4.84,1.76,8.67,8.67,0,0,1-4.84-1.76,40.67,40.67,0,0,1-4.84-4.24,39.16,39.16,0,0,0-4.84-4.24,7.53,7.53,0,0,0-9.68,0,40.67,40.67,0,0,0-4.84,4.24,39.16,39.16,0,0,1-4.84,4.24,8.62,8.62,0,0,1-4.84,1.76,8.67,8.67,0,0,1-4.84-1.76,39.84,39.84,0,0,1-4.83-4.24,40.67,40.67,0,0,0-4.84-4.24A8.67,8.67,0,0,0,65.24.43,8.62,8.62,0,0,0,60.4,2.19a39.16,39.16,0,0,0-4.84,4.24,40.67,40.67,0,0,1-4.84,4.24,8.67,8.67,0,0,1-4.84,1.76A8.62,8.62,0,0,1,41,10.67,39.16,39.16,0,0,1,36.2,6.43a40.67,40.67,0,0,0-4.84-4.24A8.67,8.67,0,0,0,26.52.43a8.62,8.62,0,0,0-4.84,1.76,39.16,39.16,0,0,0-4.84,4.24A40.67,40.67,0,0,1,12,10.67a8.67,8.67,0,0,1-4.84,1.76,8.62,8.62,0,0,1-4.84-1.76A39.9,39.9,0,0,1-2.52,6.43,39.9,39.9,0,0,0-7.36,2.19,8.65,8.65,0,0,0-12.2.43,8.65,8.65,0,0,0-17,2.19a39.9,39.9,0,0,0-4.84,4.24,39.9,39.9,0,0,1-4.84,4.24,8.65,8.65,0,0,1-4.84,1.76,8.65,8.65,0,0,1-4.84-1.76,39.9,39.9,0,0,1-4.84-4.24,39.9,39.9,0,0,0-4.84-4.24A8.65,8.65,0,0,0-50.92.43a8.65,8.65,0,0,0-4.84,1.76A39.9,39.9,0,0,0-60.6,6.43a39.9,39.9,0,0,1-4.84,4.24,8.65,8.65,0,0,1-4.84,1.76,8.67,8.67,0,0,1-4.84-1.76A40.67,40.67,0,0,1-80,6.43,39.16,39.16,0,0,0-84.8,2.19,8.62,8.62,0,0,0-89.64.43a8.67,8.67,0,0,0-4.84,1.76,40.67,40.67,0,0,0-4.84,4.24c-1.61,1.57-2.88,4.24-4.84,4.24" fill="none" stroke="#adaead" stroke-miterlimit="10"/><rect x="48.5" y="114.5" width="82" height="20" fill="#fff"/><path d="M130,115v19H49V115h81m1-1H48v21h83V114Z" fill="#4d5359"/><path d="M61.88,129H60.67l-4.32-6.7a2.8,2.8,0,0,1-.27-.53h0a8.65,8.65,0,0,1,0,1.15V129h-1v-8.4h1.28l4.21,6.59q.26.41.34.56h0a8.89,8.89,0,0,1-.06-1.24V120.6h1Z" fill="#2b3033"/><path d="M68.8,129h-1v-.95h0A2,2,0,0,1,66,129.14q-2.14,0-2.14-2.55V123h1v3.43q0,1.9,1.45,1.9a1.47,1.47,0,0,0,1.16-.52,2,2,0,0,0,.45-1.36V123h1Z" fill="#2b3033"/><path d="M79.26,129h-1v-3.45a2.6,2.6,0,0,0-.31-1.44,1.17,1.17,0,0,0-1-.45,1.28,1.28,0,0,0-1,.56,2.15,2.15,0,0,0-.43,1.35V129h-1v-3.56q0-1.77-1.37-1.77a1.26,1.26,0,0,0-1,.53,2.19,2.19,0,0,0-.41,1.38V129h-1v-6h1v.95h0a2,2,0,0,1,1.86-1.09,1.73,1.73,0,0,1,1.7,1.24,2.14,2.14,0,0,1,2-1.24q2,0,2,2.44Z" fill="#2b3033"/><path d="M85.9,126.24H81.66a2.24,2.24,0,0,0,.54,1.55,1.86,1.86,0,0,0,1.42.54,3,3,0,0,0,1.86-.67v.9a3.48,3.48,0,0,1-2.09.57,2.54,2.54,0,0,1-2-.82,3.35,3.35,0,0,1-.73-2.3,3.28,3.28,0,0,1,.79-2.28,2.55,2.55,0,0,1,2-.88,2.26,2.26,0,0,1,1.82.76,3.18,3.18,0,0,1,.64,2.12Zm-1-.81a2,2,0,0,0-.4-1.29,1.37,1.37,0,0,0-1.1-.46,1.55,1.55,0,0,0-1.15.49,2.21,2.21,0,0,0-.59,1.27Z" fill="#2b3033"/><path d="M90.48,124a1.18,1.18,0,0,0-.73-.19,1.23,1.23,0,0,0-1,.58,2.68,2.68,0,0,0-.41,1.58V129h-1v-6h1v1.24h0a2.1,2.1,0,0,1,.63-1,1.43,1.43,0,0,1,.94-.35,1.57,1.57,0,0,1,.57.08Z" fill="#2b3033"/><path d="M92,121.48a.61.61,0,0,1-.44-.18.59.59,0,0,1-.18-.45.62.62,0,0,1,.62-.63.62.62,0,0,1,.45.18.63.63,0,0,1,0,.89A.62.62,0,0,1,92,121.48Zm.47,7.52h-1v-6h1Z" fill="#2b3033"/><path d="M98.52,128.72a3.12,3.12,0,0,1-1.64.42,2.72,2.72,0,0,1-2.07-.83,3,3,0,0,1-.79-2.17,3.33,3.33,0,0,1,.85-2.38,3,3,0,0,1,2.27-.9,3.16,3.16,0,0,1,1.39.29v1a2.44,2.44,0,0,0-1.43-.47,1.93,1.93,0,0,0-1.51.66,2.5,2.5,0,0,0-.59,1.73,2.38,2.38,0,0,0,.55,1.66,1.91,1.91,0,0,0,1.49.61,2.41,2.41,0,0,0,1.48-.52Z" fill="#2b3033"/><path d="M106,128.94a1.85,1.85,0,0,1-.9.19q-1.58,0-1.58-1.76v-3.55h-1V123h1v-1.46l1-.31V123H106v.82h-1.51v3.38a1.4,1.4,0,0,0,.21.86.82.82,0,0,0,.68.26,1,1,0,0,0,.63-.2Z" fill="#2b3033"/><path d="M112.1,123l-2.76,7q-.74,1.86-2.07,1.86a2.2,2.2,0,0,1-.63-.08v-.86a1.78,1.78,0,0,0,.57.11,1.18,1.18,0,0,0,1.09-.87l.48-1.14-2.34-6h1.07l1.62,4.62q0,.09.12.46h0q0-.14.12-.45l1.71-4.63Z" fill="#2b3033"/><path d="M114.12,128.13h0v3.63h-1V123h1v1.05h0a2.27,2.27,0,0,1,2.07-1.2,2.2,2.2,0,0,1,1.81.81,3.34,3.34,0,0,1,.65,2.16,3.72,3.72,0,0,1-.73,2.41,2.44,2.44,0,0,1-2,.91A2,2,0,0,1,114.12,128.13Zm0-2.42v.84a1.78,1.78,0,0,0,.48,1.26,1.72,1.72,0,0,0,2.6-.15,3.06,3.06,0,0,0,.5-1.86,2.42,2.42,0,0,0-.46-1.57,1.53,1.53,0,0,0-1.25-.57,1.7,1.7,0,0,0-1.35.58A2.14,2.14,0,0,0,114.09,125.71Z" fill="#2b3033"/><path d="M125,126.24h-4.24a2.24,2.24,0,0,0,.54,1.55,1.86,1.86,0,0,0,1.42.54,3,3,0,0,0,1.86-.67v.9a3.48,3.48,0,0,1-2.09.57,2.54,2.54,0,0,1-2-.82,3.35,3.35,0,0,1-.73-2.3,3.28,3.28,0,0,1,.79-2.28,2.55,2.55,0,0,1,2-.88,2.26,2.26,0,0,1,1.82.76,3.18,3.18,0,0,1,.64,2.12Zm-1-.81a2,2,0,0,0-.4-1.29,1.37,1.37,0,0,0-1.1-.46,1.55,1.55,0,0,0-1.15.49,2.21,2.21,0,0,0-.59,1.27Z" fill="#2b3033"/><use width="12" height="20.32" transform="translate(48 92)" xlink:href="#cursor"/></svg>