<svg id="Layer_1" data-name="Layer 1" xmlns="http://www.w3.org/2000/svg" width="250" height="107" viewBox="0 0 250 107"><title>tips-infotip-with-footer</title><rect x="0.5" y="0.5" width="249" height="106" fill="#fff"/><path d="M249,1V106H1V1H249m1-1H0V107H250V0Z" fill="#4d5359"/><path d="M13.85,20H12V11.6h1.89Z" fill="#2b3033"/><path d="M21.38,20H19.53V16.67q0-1.39-1-1.39a1,1,0,0,0-.79.37,1.41,1.41,0,0,0-.31.94V20H15.58V14h1.85v.95h0a2.12,2.12,0,0,1,1.93-1.1q2,0,2,2.47Z" fill="#2b3033"/><path d="M26.76,12.54a1.87,1.87,0,0,0-.69-.14q-.89,0-.89,1V14h1.37v1.37H25.18V20H23.33V15.37h-1V14h1v-.74A2.16,2.16,0,0,1,24,11.6,2.55,2.55,0,0,1,25.82,11a3.19,3.19,0,0,1,.94.12Z" fill="#2b3033"/><path d="M30.3,20.15a3.23,3.23,0,0,1-2.36-.84A3,3,0,0,1,27.08,17,3,3,0,0,1,28,14.69a3.37,3.37,0,0,1,2.41-.84,3.19,3.19,0,0,1,2.34.84,3,3,0,0,1,.85,2.22,3.17,3.17,0,0,1-.88,2.36A3.26,3.26,0,0,1,30.3,20.15Zm0-4.87a1.23,1.23,0,0,0-1,.45A2,2,0,0,0,29,17q0,1.73,1.39,1.73T31.69,17Q31.69,15.27,30.35,15.27Z" fill="#2b3033"/><path d="M44.17,13.14h-2.4V20h-1.9V13.14H37.49V11.6h6.68Z" fill="#2b3033"/><path d="M46.06,13.05a1.08,1.08,0,0,1-.77-.28.9.9,0,0,1-.3-.68.86.86,0,0,1,.3-.68,1.25,1.25,0,0,1,1.54,0,.87.87,0,0,1,.3.68.89.89,0,0,1-.3.69A1.1,1.1,0,0,1,46.06,13.05ZM47,20H45.12V14H47Z" fill="#2b3033"/><path d="M50.4,19.3h0v3.46H48.53V14h1.85v.9h0a2.36,2.36,0,0,1,3.73-.25,3.41,3.41,0,0,1,.64,2.18A3.69,3.69,0,0,1,54,19.24a2.42,2.42,0,0,1-2,.91A1.87,1.87,0,0,1,50.4,19.3Zm-.05-2.46v.48a1.53,1.53,0,0,0,.33,1,1.07,1.07,0,0,0,.86.39,1.14,1.14,0,0,0,1-.49,2.36,2.36,0,0,0,.35-1.39q0-1.58-1.23-1.58a1.16,1.16,0,0,0-.93.43A1.72,1.72,0,0,0,50.35,16.84Z" fill="#2b3033"/><path d="M66.73,20h-1.9V16.58H61.36V20H59.46V11.6h1.89v3.35h3.48V11.6h1.9Z" fill="#2b3033"/><path d="M73.87,17.53H70q.09,1.31,1.65,1.31a3.21,3.21,0,0,0,1.74-.47V19.7a4.57,4.57,0,0,1-2.16.45,2.79,2.79,0,0,1-3.06-3.05A3.21,3.21,0,0,1,69,14.73a2.89,2.89,0,0,1,2.13-.87,2.62,2.62,0,0,1,2,.78,3,3,0,0,1,.72,2.12Zm-1.72-1.14q0-1.29-1-1.29a1,1,0,0,0-.77.37,1.68,1.68,0,0,0-.4.92Z" fill="#2b3033"/><path d="M80,20H78.21v-.86h0a2,2,0,0,1-1.79,1,1.87,1.87,0,0,1-1.37-.5,1.77,1.77,0,0,1-.5-1.32q0-1.75,2.07-2l1.63-.22q0-1-1.07-1a3.64,3.64,0,0,0-2,.64V14.36A4.59,4.59,0,0,1,76.17,14a5.56,5.56,0,0,1,1.22-.15A2.27,2.27,0,0,1,80,16.41Zm-1.74-2.44v-.4l-1.09.14q-.9.12-.9.81a.67.67,0,0,0,.22.52.84.84,0,0,0,.59.2,1.1,1.1,0,0,0,.85-.36A1.3,1.3,0,0,0,78.22,17.56Z" fill="#2b3033"/><path d="M87.29,20H85.44v-.83h0a2.08,2.08,0,0,1-1.86,1,2.27,2.27,0,0,1-1.81-.79,3.29,3.29,0,0,1-.69-2.22,3.58,3.58,0,0,1,.76-2.38,2.47,2.47,0,0,1,2-.9,1.68,1.68,0,0,1,1.62.83h0V11.12h1.85Zm-1.82-2.92v-.45a1.42,1.42,0,0,0-.34-1,1.2,1.2,0,0,0-1.85.1,2.24,2.24,0,0,0-.35,1.33,1.94,1.94,0,0,0,.33,1.22,1.19,1.19,0,0,0,1.84,0A1.88,1.88,0,0,0,85.48,17.08Z" fill="#2b3033"/><path d="M94.24,17.53H90.33q.09,1.31,1.65,1.31a3.21,3.21,0,0,0,1.74-.47V19.7a4.57,4.57,0,0,1-2.16.45,2.79,2.79,0,0,1-3.06-3.05,3.21,3.21,0,0,1,.87-2.37,2.89,2.89,0,0,1,2.13-.87,2.62,2.62,0,0,1,2,.78,3,3,0,0,1,.72,2.12Zm-1.72-1.14q0-1.29-1-1.29a1,1,0,0,0-.77.37,1.68,1.68,0,0,0-.4.92Z" fill="#2b3033"/><path d="M99.26,15.67a1.61,1.61,0,0,0-.78-.18,1.12,1.12,0,0,0-.94.44,1.93,1.93,0,0,0-.34,1.2V20H95.35V14H97.2v1.11h0a1.6,1.6,0,0,1,1.58-1.22,1.19,1.19,0,0,1,.46.07Z" fill="#2b3033"/><path d="M109.51,13.14h-2.4V20h-1.9V13.14h-2.38V11.6h6.68Z" fill="#2b3033"/><path d="M114.78,17.53h-3.91q.09,1.31,1.65,1.31a3.21,3.21,0,0,0,1.74-.47V19.7a4.57,4.57,0,0,1-2.16.45A2.79,2.79,0,0,1,109,17.09a3.21,3.21,0,0,1,.87-2.37,2.89,2.89,0,0,1,2.13-.87,2.62,2.62,0,0,1,2,.78,3,3,0,0,1,.72,2.12Zm-1.72-1.14q0-1.29-1-1.29a1,1,0,0,0-.77.37,1.68,1.68,0,0,0-.4.92Z" fill="#2b3033"/><path d="M121.67,14l-2,2.91,2,3.09h-2.13l-.87-1.62q-.11-.19-.25-.54h0a3.8,3.8,0,0,1-.24.53L117.27,20h-2.13l2-3-1.9-3h2.14l.86,1.68a3.69,3.69,0,0,1,.24.56h0a4,4,0,0,1,.25-.57l.87-1.67Z" fill="#2b3033"/><path d="M126.13,19.93a2.74,2.74,0,0,1-1.24.22q-2,0-2-2V15.37h-1V14h1V12.71l1.85-.53V14h1.35v1.37h-1.35v2.43q0,.94.74.94a1.25,1.25,0,0,0,.6-.17Z" fill="#2b3033"/><path d="M16.46,44H12.1V35.6h1v7.51h3.38Z" fill="#2b3033"/><path d="M20.13,44.14A2.78,2.78,0,0,1,18,43.3a3.11,3.11,0,0,1-.79-2.23A3.24,3.24,0,0,1,18,38.71a3,3,0,0,1,2.23-.85,2.69,2.69,0,0,1,2.09.83A3.28,3.28,0,0,1,23.12,41a3.22,3.22,0,0,1-.81,2.3A2.84,2.84,0,0,1,20.13,44.14Zm.07-5.47a1.83,1.83,0,0,0-1.46.63A2.59,2.59,0,0,0,18.2,41a2.45,2.45,0,0,0,.54,1.68,1.85,1.85,0,0,0,1.46.62,1.76,1.76,0,0,0,1.43-.6,2.62,2.62,0,0,0,.5-1.72,2.66,2.66,0,0,0-.5-1.73A1.75,1.75,0,0,0,20.2,38.67Z" fill="#2b3033"/><path d="M27.78,39a1.18,1.18,0,0,0-.73-.19,1.23,1.23,0,0,0-1,.58,2.68,2.68,0,0,0-.41,1.58V44h-1V38h1v1.24h0a2.1,2.1,0,0,1,.63-1,1.43,1.43,0,0,1,.94-.35,1.57,1.57,0,0,1,.57.08Z" fill="#2b3033"/><path d="M33.49,41.24H29.25a2.24,2.24,0,0,0,.54,1.55,1.86,1.86,0,0,0,1.42.54,3,3,0,0,0,1.86-.67v.9a3.48,3.48,0,0,1-2.09.57,2.54,2.54,0,0,1-2-.82,3.35,3.35,0,0,1-.73-2.3A3.28,3.28,0,0,1,29,38.74a2.55,2.55,0,0,1,2-.88,2.26,2.26,0,0,1,1.82.76,3.18,3.18,0,0,1,.64,2.12Zm-1-.81a2,2,0,0,0-.4-1.29,1.37,1.37,0,0,0-1.1-.46,1.55,1.55,0,0,0-1.15.49,2.21,2.21,0,0,0-.59,1.27Z" fill="#2b3033"/><path d="M43.46,44h-1V40.55a2.6,2.6,0,0,0-.31-1.44,1.17,1.17,0,0,0-1-.45,1.28,1.28,0,0,0-1,.56,2.15,2.15,0,0,0-.43,1.35V44h-1V40.44q0-1.77-1.37-1.77a1.26,1.26,0,0,0-1,.53,2.19,2.19,0,0,0-.41,1.38V44h-1V38h1v.95h0a2,2,0,0,1,1.86-1.09,1.73,1.73,0,0,1,1.7,1.24,2.14,2.14,0,0,1,2-1.24q2,0,2,2.44Z" fill="#2b3033"/><path d="M49.06,36.48a.61.61,0,0,1-.44-.18.59.59,0,0,1-.18-.45.62.62,0,0,1,.62-.63.62.62,0,0,1,.45.18.63.63,0,0,1,0,.89A.62.62,0,0,1,49.06,36.48ZM49.53,44h-1V38h1Z" fill="#2b3033"/><path d="M52.46,43.13h0v3.63h-1V38h1v1.05h0a2.27,2.27,0,0,1,2.07-1.2,2.2,2.2,0,0,1,1.81.81A3.34,3.34,0,0,1,57,40.82a3.72,3.72,0,0,1-.73,2.41,2.44,2.44,0,0,1-2,.91A2,2,0,0,1,52.46,43.13Zm0-2.42v.84a1.78,1.78,0,0,0,.48,1.26,1.72,1.72,0,0,0,2.6-.15,3.06,3.06,0,0,0,.5-1.86,2.42,2.42,0,0,0-.46-1.57,1.53,1.53,0,0,0-1.25-.57,1.7,1.7,0,0,0-1.35.58A2.14,2.14,0,0,0,52.43,40.71Z" fill="#2b3033"/><path d="M58.16,43.78v-1a2.84,2.84,0,0,0,1.73.58q1.27,0,1.27-.84a.73.73,0,0,0-.11-.41,1.08,1.08,0,0,0-.29-.3,2.26,2.26,0,0,0-.43-.23l-.54-.21a6.9,6.9,0,0,1-.7-.32,2.12,2.12,0,0,1-.5-.36,1.35,1.35,0,0,1-.3-.46,1.63,1.63,0,0,1-.1-.6,1.43,1.43,0,0,1,.19-.75,1.71,1.71,0,0,1,.52-.54,2.4,2.4,0,0,1,.74-.33,3.26,3.26,0,0,1,.85-.11,3.44,3.44,0,0,1,1.39.27v1a2.72,2.72,0,0,0-1.52-.43,1.78,1.78,0,0,0-.49.06,1.19,1.19,0,0,0-.37.17.8.8,0,0,0-.24.27.7.7,0,0,0-.08.34.82.82,0,0,0,.08.39.86.86,0,0,0,.25.28,1.9,1.9,0,0,0,.4.22l.53.22a7.42,7.42,0,0,1,.71.31,2.45,2.45,0,0,1,.54.36,1.42,1.42,0,0,1,.34.47,1.5,1.5,0,0,1,.12.63,1.48,1.48,0,0,1-.2.77,1.68,1.68,0,0,1-.52.54,2.4,2.4,0,0,1-.76.32,3.73,3.73,0,0,1-.9.11A3.4,3.4,0,0,1,58.16,43.78Z" fill="#2b3033"/><path d="M68.47,44h-1v-.95h0a2,2,0,0,1-1.85,1.09q-2.14,0-2.14-2.55V38h1v3.43q0,1.9,1.45,1.9a1.47,1.47,0,0,0,1.16-.52,2,2,0,0,0,.45-1.36V38h1Z" fill="#2b3033"/><path d="M78.93,44H78V40.55a2.6,2.6,0,0,0-.31-1.44,1.17,1.17,0,0,0-1-.45,1.28,1.28,0,0,0-1,.56,2.15,2.15,0,0,0-.43,1.35V44h-1V40.44q0-1.77-1.37-1.77a1.26,1.26,0,0,0-1,.53,2.19,2.19,0,0,0-.41,1.38V44h-1V38h1v.95h0a2,2,0,0,1,1.86-1.09A1.73,1.73,0,0,1,75,39.1a2.14,2.14,0,0,1,2-1.24q2,0,2,2.44Z" fill="#2b3033"/><path d="M89.15,44h-1V43h0a2.22,2.22,0,0,1-2.06,1.16,2.24,2.24,0,0,1-1.81-.81,3.31,3.31,0,0,1-.68-2.19,3.6,3.6,0,0,1,.75-2.38,2.47,2.47,0,0,1,2-.9,1.92,1.92,0,0,1,1.8,1h0V35.12h1Zm-1-2.71V40.4a1.72,1.72,0,0,0-.48-1.23,1.61,1.61,0,0,0-1.22-.5,1.66,1.66,0,0,0-1.38.64,2.82,2.82,0,0,0-.5,1.78,2.54,2.54,0,0,0,.48,1.64,1.58,1.58,0,0,0,1.3.6,1.64,1.64,0,0,0,1.3-.58A2.16,2.16,0,0,0,88.19,41.29Z" fill="#2b3033"/><path d="M93.61,44.14a2.78,2.78,0,0,1-2.12-.84,3.11,3.11,0,0,1-.79-2.23,3.24,3.24,0,0,1,.83-2.36,3,3,0,0,1,2.23-.85,2.69,2.69,0,0,1,2.09.83A3.28,3.28,0,0,1,96.59,41a3.22,3.22,0,0,1-.81,2.3A2.84,2.84,0,0,1,93.61,44.14Zm.07-5.47a1.83,1.83,0,0,0-1.46.63A2.59,2.59,0,0,0,91.67,41a2.45,2.45,0,0,0,.54,1.68,1.85,1.85,0,0,0,1.46.62,1.76,1.76,0,0,0,1.43-.6,2.62,2.62,0,0,0,.5-1.72,2.66,2.66,0,0,0-.5-1.73A1.75,1.75,0,0,0,93.68,38.67Z" fill="#2b3033"/><path d="M99.09,44h-1V35.12h1Z" fill="#2b3033"/><path d="M103.54,44.14a2.78,2.78,0,0,1-2.12-.84,3.11,3.11,0,0,1-.79-2.23,3.24,3.24,0,0,1,.83-2.36,3,3,0,0,1,2.23-.85,2.69,2.69,0,0,1,2.09.83,3.28,3.28,0,0,1,.75,2.29,3.22,3.22,0,0,1-.81,2.3A2.84,2.84,0,0,1,103.54,44.14Zm.07-5.47a1.83,1.83,0,0,0-1.46.63,2.59,2.59,0,0,0-.54,1.74,2.45,2.45,0,0,0,.54,1.68,1.85,1.85,0,0,0,1.46.62,1.76,1.76,0,0,0,1.43-.6,2.62,2.62,0,0,0,.5-1.72,2.66,2.66,0,0,0-.5-1.73A1.75,1.75,0,0,0,103.61,38.67Z" fill="#2b3033"/><path d="M111.2,39a1.18,1.18,0,0,0-.73-.19,1.23,1.23,0,0,0-1,.58,2.68,2.68,0,0,0-.41,1.58V44h-1V38h1v1.24h0a2.1,2.1,0,0,1,.63-1,1.43,1.43,0,0,1,.94-.35,1.57,1.57,0,0,1,.57.08Z" fill="#2b3033"/><path d="M115.16,43.78v-1a2.84,2.84,0,0,0,1.73.58q1.27,0,1.27-.84a.73.73,0,0,0-.11-.41,1.08,1.08,0,0,0-.29-.3,2.26,2.26,0,0,0-.43-.23l-.54-.21a6.9,6.9,0,0,1-.7-.32,2.12,2.12,0,0,1-.5-.36,1.35,1.35,0,0,1-.3-.46,1.63,1.63,0,0,1-.1-.6,1.43,1.43,0,0,1,.19-.75,1.71,1.71,0,0,1,.52-.54,2.4,2.4,0,0,1,.74-.33,3.26,3.26,0,0,1,.85-.11,3.44,3.44,0,0,1,1.39.27v1a2.72,2.72,0,0,0-1.52-.43,1.78,1.78,0,0,0-.49.06,1.19,1.19,0,0,0-.37.17.8.8,0,0,0-.24.27.7.7,0,0,0-.08.34.82.82,0,0,0,.08.39.86.86,0,0,0,.25.28,1.9,1.9,0,0,0,.4.22l.53.22a7.42,7.42,0,0,1,.71.31,2.45,2.45,0,0,1,.54.36,1.42,1.42,0,0,1,.34.47,1.5,1.5,0,0,1,.12.63,1.48,1.48,0,0,1-.2.77,1.68,1.68,0,0,1-.52.54,2.4,2.4,0,0,1-.76.32,3.73,3.73,0,0,1-.9.11A3.4,3.4,0,0,1,115.16,43.78Z" fill="#2b3033"/><path d="M121.11,36.48a.61.61,0,0,1-.44-.18.59.59,0,0,1-.18-.45.62.62,0,0,1,.62-.63.62.62,0,0,1,.45.18.63.63,0,0,1,0,.89A.62.62,0,0,1,121.11,36.48Zm.47,7.52h-1V38h1Z" fill="#2b3033"/><path d="M126.31,43.94a1.85,1.85,0,0,1-.9.19q-1.58,0-1.58-1.76V38.82h-1V38h1V36.54l1-.31V38h1.51v.82h-1.51V42.2a1.4,1.4,0,0,0,.21.86.82.82,0,0,0,.68.26,1,1,0,0,0,.63-.2Z" fill="#2b3033"/><path d="M135.17,44h-1v-.94h0a2,2,0,0,1-1.85,1.08,2,2,0,0,1-1.4-.47,1.64,1.64,0,0,1-.51-1.26q0-1.68,2-2l1.8-.25q0-1.53-1.24-1.53a3,3,0,0,0-2,.74v-1a3.72,3.72,0,0,1,2-.56q2.12,0,2.12,2.24Zm-1-3-1.45.2a2.35,2.35,0,0,0-1,.33,1,1,0,0,0-.34.84.92.92,0,0,0,.31.72,1.21,1.21,0,0,0,.83.28,1.54,1.54,0,0,0,1.18-.5,1.79,1.79,0,0,0,.47-1.27Z" fill="#2b3033"/><path d="M145.5,44h-1V40.55a2.6,2.6,0,0,0-.31-1.44,1.17,1.17,0,0,0-1-.45,1.28,1.28,0,0,0-1,.56,2.15,2.15,0,0,0-.43,1.35V44h-1V40.44q0-1.77-1.37-1.77a1.26,1.26,0,0,0-1,.53,2.19,2.19,0,0,0-.41,1.38V44h-1V38h1v.95h0a2,2,0,0,1,1.86-1.09,1.73,1.73,0,0,1,1.7,1.24,2.14,2.14,0,0,1,2-1.24q2,0,2,2.44Z" fill="#2b3033"/><path d="M152.14,41.24H147.9a2.24,2.24,0,0,0,.54,1.55,1.86,1.86,0,0,0,1.42.54,3,3,0,0,0,1.86-.67v.9a3.48,3.48,0,0,1-2.09.57,2.54,2.54,0,0,1-2-.82,3.35,3.35,0,0,1-.73-2.3,3.28,3.28,0,0,1,.79-2.28,2.55,2.55,0,0,1,2-.88,2.26,2.26,0,0,1,1.82.76,3.18,3.18,0,0,1,.64,2.12Zm-1-.81a2,2,0,0,0-.4-1.29,1.37,1.37,0,0,0-1.1-.46,1.55,1.55,0,0,0-1.15.49,2.21,2.21,0,0,0-.59,1.27Z" fill="#2b3033"/><path d="M156.38,43.94a1.85,1.85,0,0,1-.9.19q-1.58,0-1.58-1.76V38.82h-1V38h1V36.54l1-.31V38h1.51v.82h-1.51V42.2a1.4,1.4,0,0,0,.21.86.82.82,0,0,0,.68.26,1,1,0,0,0,.63-.2Z" fill="#2b3033"/><path d="M158.54,42.66l-.94,2.88h-.69l.69-2.88Z" fill="#2b3033"/><path d="M167.64,43.72a3.12,3.12,0,0,1-1.64.42,2.72,2.72,0,0,1-2.07-.83,3,3,0,0,1-.79-2.17,3.33,3.33,0,0,1,.85-2.38,3,3,0,0,1,2.27-.9,3.16,3.16,0,0,1,1.39.29v1a2.44,2.44,0,0,0-1.43-.47,1.93,1.93,0,0,0-1.51.66,2.5,2.5,0,0,0-.59,1.73,2.38,2.38,0,0,0,.55,1.66,1.91,1.91,0,0,0,1.49.61,2.41,2.41,0,0,0,1.48-.52Z" fill="#2b3033"/><path d="M171.6,44.14a2.78,2.78,0,0,1-2.12-.84,3.11,3.11,0,0,1-.79-2.23,3.24,3.24,0,0,1,.83-2.36,3,3,0,0,1,2.23-.85,2.69,2.69,0,0,1,2.09.83,3.28,3.28,0,0,1,.75,2.29,3.22,3.22,0,0,1-.81,2.3A2.84,2.84,0,0,1,171.6,44.14Zm.07-5.47a1.83,1.83,0,0,0-1.46.63,2.59,2.59,0,0,0-.54,1.74,2.45,2.45,0,0,0,.54,1.68,1.85,1.85,0,0,0,1.46.62,1.76,1.76,0,0,0,1.43-.6,2.62,2.62,0,0,0,.5-1.72,2.66,2.66,0,0,0-.5-1.73A1.75,1.75,0,0,0,171.67,38.67Z" fill="#2b3033"/><path d="M181.1,44h-1V40.58q0-1.91-1.39-1.91a1.51,1.51,0,0,0-1.19.54,2,2,0,0,0-.47,1.37V44h-1V38h1v1h0a2.17,2.17,0,0,1,2-1.14,1.84,1.84,0,0,1,1.51.64,2.83,2.83,0,0,1,.52,1.84Z" fill="#2b3033"/><path d="M182.55,43.78v-1a2.84,2.84,0,0,0,1.73.58q1.27,0,1.27-.84a.73.73,0,0,0-.11-.41,1.08,1.08,0,0,0-.29-.3,2.26,2.26,0,0,0-.43-.23l-.54-.21a6.9,6.9,0,0,1-.7-.32,2.12,2.12,0,0,1-.5-.36,1.35,1.35,0,0,1-.3-.46,1.63,1.63,0,0,1-.1-.6,1.43,1.43,0,0,1,.19-.75,1.71,1.71,0,0,1,.52-.54A2.4,2.4,0,0,1,184,38a3.26,3.26,0,0,1,.85-.11,3.44,3.44,0,0,1,1.39.27v1a2.72,2.72,0,0,0-1.52-.43,1.78,1.78,0,0,0-.49.06,1.19,1.19,0,0,0-.37.17.8.8,0,0,0-.24.27.7.7,0,0,0-.08.34.82.82,0,0,0,.08.39.86.86,0,0,0,.25.28,1.9,1.9,0,0,0,.4.22l.53.22a7.42,7.42,0,0,1,.71.31,2.45,2.45,0,0,1,.54.36,1.42,1.42,0,0,1,.34.47,1.5,1.5,0,0,1,.12.63,1.48,1.48,0,0,1-.2.77,1.68,1.68,0,0,1-.52.54,2.4,2.4,0,0,1-.76.32,3.73,3.73,0,0,1-.9.11A3.4,3.4,0,0,1,182.55,43.78Z" fill="#2b3033"/><path d="M192.83,41.24h-4.24a2.24,2.24,0,0,0,.54,1.55,1.86,1.86,0,0,0,1.42.54,3,3,0,0,0,1.86-.67v.9a3.48,3.48,0,0,1-2.09.57,2.54,2.54,0,0,1-2-.82,3.35,3.35,0,0,1-.73-2.3,3.28,3.28,0,0,1,.79-2.28,2.55,2.55,0,0,1,2-.88,2.26,2.26,0,0,1,1.82.76,3.18,3.18,0,0,1,.64,2.12Zm-1-.81a2,2,0,0,0-.4-1.29,1.37,1.37,0,0,0-1.1-.46,1.55,1.55,0,0,0-1.15.49,2.21,2.21,0,0,0-.59,1.27Z" fill="#2b3033"/><path d="M198.37,43.72a3.12,3.12,0,0,1-1.64.42,2.72,2.72,0,0,1-2.07-.83,3,3,0,0,1-.79-2.17,3.33,3.33,0,0,1,.85-2.38,3,3,0,0,1,2.27-.9,3.16,3.16,0,0,1,1.39.29v1a2.44,2.44,0,0,0-1.43-.47,1.93,1.93,0,0,0-1.51.66,2.5,2.5,0,0,0-.59,1.73,2.38,2.38,0,0,0,.55,1.66,1.91,1.91,0,0,0,1.49.61,2.41,2.41,0,0,0,1.48-.52Z" fill="#2b3033"/><path d="M202.61,43.94a1.85,1.85,0,0,1-.9.19q-1.58,0-1.58-1.76V38.82h-1V38h1V36.54l1-.31V38h1.51v.82H201.1V42.2a1.4,1.4,0,0,0,.21.86.82.82,0,0,0,.68.26,1,1,0,0,0,.63-.2Z" fill="#2b3033"/><path d="M208.62,41.24h-4.24a2.24,2.24,0,0,0,.54,1.55,1.86,1.86,0,0,0,1.42.54,3,3,0,0,0,1.86-.67v.9a3.48,3.48,0,0,1-2.09.57,2.54,2.54,0,0,1-2-.82,3.35,3.35,0,0,1-.73-2.3,3.28,3.28,0,0,1,.79-2.28,2.55,2.55,0,0,1,2-.88,2.26,2.26,0,0,1,1.82.76,3.18,3.18,0,0,1,.64,2.12Zm-1-.81a2,2,0,0,0-.4-1.29,1.37,1.37,0,0,0-1.1-.46,1.55,1.55,0,0,0-1.15.49,2.21,2.21,0,0,0-.59,1.27Z" fill="#2b3033"/><path d="M212.86,43.94a1.85,1.85,0,0,1-.9.19q-1.58,0-1.58-1.76V38.82h-1V38h1V36.54l1-.31V38h1.51v.82h-1.51V42.2a1.4,1.4,0,0,0,.21.86.82.82,0,0,0,.68.26,1,1,0,0,0,.63-.2Z" fill="#2b3033"/><path d="M219,44h-1v-.95h0a2,2,0,0,1-1.85,1.09q-2.14,0-2.14-2.55V38h1v3.43q0,1.9,1.45,1.9a1.47,1.47,0,0,0,1.16-.52,2,2,0,0,0,.45-1.36V38h1Z" fill="#2b3033"/><path d="M224.06,39a1.18,1.18,0,0,0-.73-.19,1.23,1.23,0,0,0-1,.58,2.68,2.68,0,0,0-.41,1.58V44h-1V38h1v1.24h0a2.1,2.1,0,0,1,.63-1,1.43,1.43,0,0,1,.94-.35,1.57,1.57,0,0,1,.57.08Z" fill="#2b3033"/><path d="M16.27,62h-1v-.94h0a2,2,0,0,1-1.85,1.08,2,2,0,0,1-1.4-.47,1.64,1.64,0,0,1-.51-1.26q0-1.68,2-2l1.8-.25q0-1.53-1.24-1.53a3,3,0,0,0-2,.74v-1a3.72,3.72,0,0,1,2-.56q2.12,0,2.12,2.24Zm-1-3-1.45.2a2.35,2.35,0,0,0-1,.33,1,1,0,0,0-.34.84.92.92,0,0,0,.31.72,1.21,1.21,0,0,0,.83.28,1.54,1.54,0,0,0,1.18-.5,1.79,1.79,0,0,0,.47-1.27Z" fill="#2b3033"/><path d="M23.2,62h-1V61h0a2.22,2.22,0,0,1-2.06,1.16,2.24,2.24,0,0,1-1.81-.81,3.31,3.31,0,0,1-.68-2.19,3.6,3.6,0,0,1,.75-2.38,2.47,2.47,0,0,1,2-.9,1.92,1.92,0,0,1,1.8,1h0V53.12h1Zm-1-2.71V58.4a1.72,1.72,0,0,0-.48-1.23,1.61,1.61,0,0,0-1.22-.5,1.66,1.66,0,0,0-1.38.64,2.82,2.82,0,0,0-.5,1.78,2.54,2.54,0,0,0,.48,1.64,1.58,1.58,0,0,0,1.3.6,1.64,1.64,0,0,0,1.3-.58A2.16,2.16,0,0,0,22.24,59.29Z" fill="#2b3033"/><path d="M25.64,54.48a.61.61,0,0,1-.44-.18.59.59,0,0,1-.18-.45.62.62,0,0,1,.62-.63.62.62,0,0,1,.45.18.63.63,0,0,1,0,.89A.62.62,0,0,1,25.64,54.48ZM26.11,62h-1V56h1Z" fill="#2b3033"/><path d="M29,61.13h0v3.63h-1V56h1v1.05h0a2.27,2.27,0,0,1,2.07-1.2,2.2,2.2,0,0,1,1.81.81,3.34,3.34,0,0,1,.65,2.16,3.72,3.72,0,0,1-.73,2.41,2.44,2.44,0,0,1-2,.91A2,2,0,0,1,29,61.13Zm0-2.42v.84a1.78,1.78,0,0,0,.48,1.26,1.72,1.72,0,0,0,2.6-.15,3.06,3.06,0,0,0,.5-1.86,2.42,2.42,0,0,0-.46-1.57,1.53,1.53,0,0,0-1.25-.57,1.7,1.7,0,0,0-1.35.58A2.14,2.14,0,0,0,29,58.71Z" fill="#2b3033"/><path d="M35.6,54.48a.61.61,0,0,1-.44-.18.59.59,0,0,1-.18-.45.62.62,0,0,1,.62-.63.62.62,0,0,1,.45.18.63.63,0,0,1,0,.89A.62.62,0,0,1,35.6,54.48ZM36.07,62h-1V56h1Z" fill="#2b3033"/><path d="M37.65,61.78v-1a2.84,2.84,0,0,0,1.73.58q1.27,0,1.27-.84a.73.73,0,0,0-.11-.41,1.08,1.08,0,0,0-.29-.3,2.26,2.26,0,0,0-.43-.23l-.54-.21a6.9,6.9,0,0,1-.7-.32,2.12,2.12,0,0,1-.5-.36,1.35,1.35,0,0,1-.3-.46,1.63,1.63,0,0,1-.1-.6,1.43,1.43,0,0,1,.19-.75,1.71,1.71,0,0,1,.52-.54A2.4,2.4,0,0,1,39.1,56a3.26,3.26,0,0,1,.85-.11,3.44,3.44,0,0,1,1.39.27v1a2.72,2.72,0,0,0-1.52-.43,1.78,1.78,0,0,0-.49.06,1.19,1.19,0,0,0-.37.17.8.8,0,0,0-.24.27.7.7,0,0,0-.08.34.82.82,0,0,0,.08.39.86.86,0,0,0,.25.28,1.9,1.9,0,0,0,.4.22l.53.22a7.42,7.42,0,0,1,.71.31,2.45,2.45,0,0,1,.54.36,1.42,1.42,0,0,1,.34.47,1.5,1.5,0,0,1,.12.63,1.48,1.48,0,0,1-.2.77,1.68,1.68,0,0,1-.52.54,2.4,2.4,0,0,1-.76.32,3.73,3.73,0,0,1-.9.11A3.4,3.4,0,0,1,37.65,61.78Z" fill="#2b3033"/><path d="M47.19,61.72a3.12,3.12,0,0,1-1.64.42,2.72,2.72,0,0,1-2.07-.83,3,3,0,0,1-.79-2.17,3.33,3.33,0,0,1,.85-2.38,3,3,0,0,1,2.27-.9,3.16,3.16,0,0,1,1.39.29v1a2.44,2.44,0,0,0-1.43-.47,1.93,1.93,0,0,0-1.51.66,2.5,2.5,0,0,0-.59,1.73,2.38,2.38,0,0,0,.55,1.66,1.91,1.91,0,0,0,1.49.61,2.41,2.41,0,0,0,1.48-.52Z" fill="#2b3033"/><path d="M49.14,54.48a.61.61,0,0,1-.44-.18.59.59,0,0,1-.18-.45.62.62,0,0,1,.62-.63.62.62,0,0,1,.45.18.63.63,0,0,1,0,.89A.62.62,0,0,1,49.14,54.48ZM49.61,62h-1V56h1Z" fill="#2b3033"/><path d="M56.53,62h-1V58.58q0-1.91-1.39-1.91a1.51,1.51,0,0,0-1.19.54,2,2,0,0,0-.47,1.37V62h-1V56h1v1h0a2.17,2.17,0,0,1,2-1.14A1.84,1.84,0,0,1,56,56.5a2.83,2.83,0,0,1,.52,1.84Z" fill="#2b3033"/><path d="M63.46,61.52q0,3.3-3.16,3.3a4.25,4.25,0,0,1-1.95-.42v-1a4,4,0,0,0,1.93.56q2.21,0,2.21-2.36V61h0a2.43,2.43,0,0,1-3.86.35,3.2,3.2,0,0,1-.68-2.15,3.74,3.74,0,0,1,.74-2.43,2.46,2.46,0,0,1,2-.9,2,2,0,0,1,1.8,1h0V56h1Zm-1-2.23V58.4A1.72,1.72,0,0,0,62,57.18a1.59,1.59,0,0,0-1.2-.51,1.67,1.67,0,0,0-1.39.65,2.89,2.89,0,0,0-.5,1.81,2.48,2.48,0,0,0,.48,1.6,1.56,1.56,0,0,0,1.28.6A1.67,1.67,0,0,0,62,60.76,2.14,2.14,0,0,0,62.5,59.29Z" fill="#2b3033"/><path d="M73.52,59.24H69.28a2.24,2.24,0,0,0,.54,1.55,1.86,1.86,0,0,0,1.42.54,3,3,0,0,0,1.86-.67v.9a3.48,3.48,0,0,1-2.09.57,2.54,2.54,0,0,1-2-.82,3.35,3.35,0,0,1-.73-2.3,3.28,3.28,0,0,1,.79-2.28,2.55,2.55,0,0,1,2-.88,2.26,2.26,0,0,1,1.82.76,3.18,3.18,0,0,1,.64,2.12Zm-1-.81a2,2,0,0,0-.4-1.29,1.37,1.37,0,0,0-1.1-.46,1.55,1.55,0,0,0-1.15.49,2.21,2.21,0,0,0-.59,1.27Z" fill="#2b3033"/><path d="M75.93,62H75V53.12h1Z" fill="#2b3033"/><path d="M78.37,54.48a.61.61,0,0,1-.44-.18.59.59,0,0,1-.18-.45.62.62,0,0,1,.62-.63.62.62,0,0,1,.45.18.63.63,0,0,1,0,.89A.62.62,0,0,1,78.37,54.48ZM78.84,62h-1V56h1Z" fill="#2b3033"/><path d="M83.57,61.94a1.85,1.85,0,0,1-.9.19q-1.58,0-1.58-1.76V56.82h-1V56h1V54.54l1-.31V56h1.51v.82H82.06V60.2a1.4,1.4,0,0,0,.21.86.82.82,0,0,0,.68.26,1,1,0,0,0,.63-.2Z" fill="#2b3033"/><path d="M85.73,60.66l-.94,2.88h-.69l.69-2.88Z" fill="#2b3033"/><path d="M90.38,61.78v-1a2.84,2.84,0,0,0,1.73.58q1.27,0,1.27-.84a.73.73,0,0,0-.11-.41,1.08,1.08,0,0,0-.29-.3,2.26,2.26,0,0,0-.43-.23L92,59.34a6.9,6.9,0,0,1-.7-.32,2.12,2.12,0,0,1-.5-.36,1.35,1.35,0,0,1-.3-.46,1.63,1.63,0,0,1-.1-.6,1.43,1.43,0,0,1,.19-.75,1.71,1.71,0,0,1,.52-.54,2.4,2.4,0,0,1,.74-.33,3.26,3.26,0,0,1,.85-.11,3.44,3.44,0,0,1,1.39.27v1a2.72,2.72,0,0,0-1.52-.43,1.78,1.78,0,0,0-.49.06,1.19,1.19,0,0,0-.37.17.8.8,0,0,0-.24.27.7.7,0,0,0-.08.34.82.82,0,0,0,.08.39.86.86,0,0,0,.25.28,1.9,1.9,0,0,0,.4.22l.53.22a7.42,7.42,0,0,1,.71.31,2.45,2.45,0,0,1,.54.36,1.42,1.42,0,0,1,.34.47,1.5,1.5,0,0,1,.12.63,1.48,1.48,0,0,1-.2.77,1.68,1.68,0,0,1-.52.54,2.4,2.4,0,0,1-.76.32,3.73,3.73,0,0,1-.9.11A3.4,3.4,0,0,1,90.38,61.78Z" fill="#2b3033"/><path d="M100.65,59.24H96.42A2.24,2.24,0,0,0,97,60.79a1.86,1.86,0,0,0,1.42.54,3,3,0,0,0,1.86-.67v.9a3.48,3.48,0,0,1-2.09.57,2.54,2.54,0,0,1-2-.82,3.35,3.35,0,0,1-.73-2.3,3.28,3.28,0,0,1,.79-2.28,2.55,2.55,0,0,1,2-.88,2.26,2.26,0,0,1,1.82.76,3.18,3.18,0,0,1,.64,2.12Zm-1-.81a2,2,0,0,0-.4-1.29,1.37,1.37,0,0,0-1.1-.46,1.55,1.55,0,0,0-1.15.49,2.21,2.21,0,0,0-.59,1.27Z" fill="#2b3033"/><path d="M107.23,62h-1V61h0a2.22,2.22,0,0,1-2.06,1.16,2.24,2.24,0,0,1-1.81-.81,3.31,3.31,0,0,1-.68-2.19,3.6,3.6,0,0,1,.75-2.38,2.47,2.47,0,0,1,2-.9,1.92,1.92,0,0,1,1.8,1h0V53.12h1Zm-1-2.71V58.4a1.72,1.72,0,0,0-.48-1.23,1.61,1.61,0,0,0-1.22-.5,1.66,1.66,0,0,0-1.38.64,2.82,2.82,0,0,0-.5,1.78,2.54,2.54,0,0,0,.48,1.64,1.58,1.58,0,0,0,1.3.6,1.64,1.64,0,0,0,1.3-.58A2.16,2.16,0,0,0,106.27,59.29Z" fill="#2b3033"/><path d="M117.58,62h-1V61h0a2.22,2.22,0,0,1-2.06,1.16,2.24,2.24,0,0,1-1.81-.81,3.31,3.31,0,0,1-.68-2.19,3.6,3.6,0,0,1,.75-2.38,2.47,2.47,0,0,1,2-.9,1.92,1.92,0,0,1,1.8,1h0V53.12h1Zm-1-2.71V58.4a1.72,1.72,0,0,0-.48-1.23,1.61,1.61,0,0,0-1.22-.5,1.66,1.66,0,0,0-1.38.64,2.82,2.82,0,0,0-.5,1.78,2.54,2.54,0,0,0,.48,1.64,1.58,1.58,0,0,0,1.3.6,1.64,1.64,0,0,0,1.3-.58A2.16,2.16,0,0,0,116.62,59.29Z" fill="#2b3033"/><path d="M122,62.14a2.78,2.78,0,0,1-2.12-.84,3.11,3.11,0,0,1-.79-2.23,3.24,3.24,0,0,1,.83-2.36,3,3,0,0,1,2.23-.85,2.69,2.69,0,0,1,2.09.83A3.28,3.28,0,0,1,125,59a3.22,3.22,0,0,1-.81,2.3A2.84,2.84,0,0,1,122,62.14Zm.07-5.47a1.83,1.83,0,0,0-1.46.63A2.59,2.59,0,0,0,120.1,59a2.45,2.45,0,0,0,.54,1.68,1.85,1.85,0,0,0,1.46.62,1.76,1.76,0,0,0,1.43-.6A2.62,2.62,0,0,0,124,59a2.66,2.66,0,0,0-.5-1.73A1.75,1.75,0,0,0,122.11,56.67Z" fill="#2b3033"/><path d="M134.67,59.24h-4.24a2.24,2.24,0,0,0,.54,1.55,1.86,1.86,0,0,0,1.42.54,3,3,0,0,0,1.86-.67v.9a3.48,3.48,0,0,1-2.09.57,2.54,2.54,0,0,1-2-.82,3.35,3.35,0,0,1-.73-2.3,3.28,3.28,0,0,1,.79-2.28,2.55,2.55,0,0,1,2-.88,2.26,2.26,0,0,1,1.82.76,3.18,3.18,0,0,1,.64,2.12Zm-1-.81a2,2,0,0,0-.4-1.29,1.37,1.37,0,0,0-1.1-.46,1.55,1.55,0,0,0-1.15.49,2.21,2.21,0,0,0-.59,1.27Z" fill="#2b3033"/><path d="M136.61,54.48a.61.61,0,0,1-.44-.18.59.59,0,0,1-.18-.45.62.62,0,0,1,.62-.63.62.62,0,0,1,.45.18.63.63,0,0,1,0,.89A.62.62,0,0,1,136.61,54.48Zm.47,7.52h-1V56h1Z" fill="#2b3033"/><path d="M143.88,62h-1v-.95h0A2,2,0,0,1,141,62.14q-2.14,0-2.14-2.55V56h1v3.43q0,1.9,1.45,1.9a1.47,1.47,0,0,0,1.16-.52,2,2,0,0,0,.45-1.36V56h1Z" fill="#2b3033"/><path d="M145.46,61.78v-1a2.84,2.84,0,0,0,1.73.58q1.27,0,1.27-.84a.73.73,0,0,0-.11-.41,1.08,1.08,0,0,0-.29-.3,2.26,2.26,0,0,0-.43-.23l-.54-.21a6.9,6.9,0,0,1-.7-.32,2.12,2.12,0,0,1-.5-.36,1.35,1.35,0,0,1-.3-.46,1.63,1.63,0,0,1-.1-.6,1.43,1.43,0,0,1,.19-.75,1.71,1.71,0,0,1,.52-.54,2.4,2.4,0,0,1,.74-.33,3.26,3.26,0,0,1,.85-.11,3.44,3.44,0,0,1,1.39.27v1a2.72,2.72,0,0,0-1.52-.43,1.78,1.78,0,0,0-.49.06,1.19,1.19,0,0,0-.37.17.8.8,0,0,0-.24.27.7.7,0,0,0-.08.34.82.82,0,0,0,.08.39.86.86,0,0,0,.25.28,1.9,1.9,0,0,0,.4.22l.53.22a7.42,7.42,0,0,1,.71.31,2.45,2.45,0,0,1,.54.36,1.42,1.42,0,0,1,.34.47,1.5,1.5,0,0,1,.12.63,1.48,1.48,0,0,1-.2.77,1.68,1.68,0,0,1-.52.54A2.4,2.4,0,0,1,148,62a3.73,3.73,0,0,1-.9.11A3.4,3.4,0,0,1,145.46,61.78Z" fill="#2b3033"/><path d="M159.43,62h-1V58.55a2.6,2.6,0,0,0-.31-1.44,1.17,1.17,0,0,0-1-.45,1.28,1.28,0,0,0-1,.56,2.15,2.15,0,0,0-.43,1.35V62h-1V58.44q0-1.77-1.37-1.77a1.26,1.26,0,0,0-1,.53,2.19,2.19,0,0,0-.41,1.38V62h-1V56h1v.95h0a2,2,0,0,1,1.86-1.09,1.73,1.73,0,0,1,1.7,1.24,2.14,2.14,0,0,1,2-1.24q2,0,2,2.44Z" fill="#2b3033"/><path d="M163.75,62.14a2.78,2.78,0,0,1-2.12-.84,3.11,3.11,0,0,1-.79-2.23,3.24,3.24,0,0,1,.83-2.36,3,3,0,0,1,2.23-.85,2.69,2.69,0,0,1,2.09.83,3.28,3.28,0,0,1,.75,2.29,3.22,3.22,0,0,1-.81,2.3A2.84,2.84,0,0,1,163.75,62.14Zm.07-5.47a1.83,1.83,0,0,0-1.46.63,2.59,2.59,0,0,0-.54,1.74,2.45,2.45,0,0,0,.54,1.68,1.85,1.85,0,0,0,1.46.62,1.76,1.76,0,0,0,1.43-.6,2.62,2.62,0,0,0,.5-1.72,2.66,2.66,0,0,0-.5-1.73A1.75,1.75,0,0,0,163.82,56.67Z" fill="#2b3033"/><path d="M173.4,62h-1V61h0a2.22,2.22,0,0,1-2.06,1.16,2.24,2.24,0,0,1-1.81-.81,3.31,3.31,0,0,1-.68-2.19,3.6,3.6,0,0,1,.75-2.38,2.47,2.47,0,0,1,2-.9,1.92,1.92,0,0,1,1.8,1h0V53.12h1Zm-1-2.71V58.4a1.72,1.72,0,0,0-.48-1.23,1.61,1.61,0,0,0-1.22-.5,1.66,1.66,0,0,0-1.38.64,2.82,2.82,0,0,0-.5,1.78,2.54,2.54,0,0,0,.48,1.64,1.58,1.58,0,0,0,1.3.6,1.64,1.64,0,0,0,1.3-.58A2.16,2.16,0,0,0,172.44,59.29Z" fill="#2b3033"/><path d="M181.41,61.94a1.85,1.85,0,0,1-.9.19q-1.58,0-1.58-1.76V56.82h-1V56h1V54.54l1-.31V56h1.51v.82H179.9V60.2a1.4,1.4,0,0,0,.21.86.82.82,0,0,0,.68.26,1,1,0,0,0,.63-.2Z" fill="#2b3033"/><path d="M187.43,59.24h-4.24a2.24,2.24,0,0,0,.54,1.55,1.86,1.86,0,0,0,1.42.54,3,3,0,0,0,1.86-.67v.9a3.48,3.48,0,0,1-2.09.57,2.54,2.54,0,0,1-2-.82,3.35,3.35,0,0,1-.73-2.3,3.28,3.28,0,0,1,.79-2.28,2.55,2.55,0,0,1,2-.88,2.26,2.26,0,0,1,1.82.76,3.18,3.18,0,0,1,.64,2.12Zm-1-.81a2,2,0,0,0-.4-1.29,1.37,1.37,0,0,0-1.1-.46,1.55,1.55,0,0,0-1.15.49,2.21,2.21,0,0,0-.59,1.27Z" fill="#2b3033"/><path d="M197.4,62h-1V58.55a2.6,2.6,0,0,0-.31-1.44,1.17,1.17,0,0,0-1-.45,1.28,1.28,0,0,0-1,.56,2.15,2.15,0,0,0-.43,1.35V62h-1V58.44q0-1.77-1.37-1.77a1.26,1.26,0,0,0-1,.53,2.19,2.19,0,0,0-.41,1.38V62h-1V56h1v.95h0a2,2,0,0,1,1.86-1.09,1.73,1.73,0,0,1,1.7,1.24,2.14,2.14,0,0,1,2-1.24q2,0,2,2.44Z" fill="#2b3033"/><path d="M200.2,61.13h0v3.63h-1V56h1v1.05h0a2.27,2.27,0,0,1,2.07-1.2,2.2,2.2,0,0,1,1.81.81,3.34,3.34,0,0,1,.65,2.16,3.72,3.72,0,0,1-.73,2.41,2.44,2.44,0,0,1-2,.91A2,2,0,0,1,200.2,61.13Zm0-2.42v.84a1.78,1.78,0,0,0,.48,1.26,1.72,1.72,0,0,0,2.6-.15,3.06,3.06,0,0,0,.5-1.86,2.42,2.42,0,0,0-.46-1.57,1.53,1.53,0,0,0-1.25-.57,1.7,1.7,0,0,0-1.35.58A2.14,2.14,0,0,0,200.18,58.71Z" fill="#2b3033"/><path d="M208.78,62.14a2.78,2.78,0,0,1-2.12-.84,3.11,3.11,0,0,1-.79-2.23,3.24,3.24,0,0,1,.83-2.36,3,3,0,0,1,2.23-.85,2.69,2.69,0,0,1,2.09.83,3.28,3.28,0,0,1,.75,2.29,3.22,3.22,0,0,1-.81,2.3A2.84,2.84,0,0,1,208.78,62.14Zm.07-5.47a1.83,1.83,0,0,0-1.46.63,2.59,2.59,0,0,0-.54,1.74,2.45,2.45,0,0,0,.54,1.68,1.85,1.85,0,0,0,1.46.62,1.76,1.76,0,0,0,1.43-.6,2.62,2.62,0,0,0,.5-1.72,2.66,2.66,0,0,0-.5-1.73A1.75,1.75,0,0,0,208.85,56.67Z" fill="#2b3033"/><path d="M216.43,57a1.18,1.18,0,0,0-.73-.19,1.23,1.23,0,0,0-1,.58,2.68,2.68,0,0,0-.41,1.58V62h-1V56h1v1.24h0a2.1,2.1,0,0,1,.63-1,1.43,1.43,0,0,1,.94-.35,1.57,1.57,0,0,1,.57.08Z" fill="#2b3033"/><path d="M216.81,62.13a.62.62,0,0,1-.46-.19.64.64,0,0,1-.19-.46.65.65,0,0,1,.19-.47.62.62,0,0,1,.46-.2.63.63,0,0,1,.47.2.64.64,0,0,1,.19.47.63.63,0,0,1-.19.46A.64.64,0,0,1,216.81,62.13Z" fill="#2b3033"/><rect x="1" y="77" width="248" height="29" fill="#ebebeb"/><path d="M13.09,92.82V96h-1V87.6h2.31a3,3,0,0,1,2.09.66,2.34,2.34,0,0,1,.74,1.85,2.55,2.55,0,0,1-.82,2,3.15,3.15,0,0,1-2.22.76Zm0-4.34v3.45h1a2.31,2.31,0,0,0,1.56-.47,1.65,1.65,0,0,0,.54-1.32q0-1.66-2-1.66Z" fill="#2b3033"/><path d="M21.82,91a1.18,1.18,0,0,0-.73-.19,1.23,1.23,0,0,0-1,.58,2.68,2.68,0,0,0-.41,1.58V96h-1V90h1v1.24h0a2.1,2.1,0,0,1,.63-1,1.43,1.43,0,0,1,.94-.35,1.57,1.57,0,0,1,.57.08Z" fill="#2b3033"/><path d="M27.53,93.24H23.29a2.24,2.24,0,0,0,.54,1.55,1.86,1.86,0,0,0,1.42.54,3,3,0,0,0,1.86-.67v.9a3.48,3.48,0,0,1-2.09.57,2.54,2.54,0,0,1-2-.82A3.35,3.35,0,0,1,22.3,93a3.28,3.28,0,0,1,.79-2.28,2.55,2.55,0,0,1,2-.88,2.26,2.26,0,0,1,1.82.76,3.18,3.18,0,0,1,.64,2.12Zm-1-.81a2,2,0,0,0-.4-1.29,1.37,1.37,0,0,0-1.1-.46,1.55,1.55,0,0,0-1.15.49,2.21,2.21,0,0,0-.59,1.27Z" fill="#2b3033"/><path d="M28.62,95.78v-1a2.84,2.84,0,0,0,1.73.58q1.27,0,1.27-.84a.73.73,0,0,0-.11-.41,1.08,1.08,0,0,0-.29-.3,2.26,2.26,0,0,0-.43-.23l-.54-.21a6.9,6.9,0,0,1-.7-.32,2.12,2.12,0,0,1-.5-.36,1.35,1.35,0,0,1-.3-.46,1.63,1.63,0,0,1-.1-.6,1.43,1.43,0,0,1,.19-.75,1.71,1.71,0,0,1,.52-.54,2.4,2.4,0,0,1,.74-.33,3.26,3.26,0,0,1,.85-.11,3.44,3.44,0,0,1,1.39.27v1a2.72,2.72,0,0,0-1.52-.43,1.78,1.78,0,0,0-.49.06,1.19,1.19,0,0,0-.37.17.8.8,0,0,0-.24.27.7.7,0,0,0-.08.34.82.82,0,0,0,.08.39.86.86,0,0,0,.25.28,1.9,1.9,0,0,0,.4.22l.53.22a7.42,7.42,0,0,1,.71.31,2.45,2.45,0,0,1,.54.36,1.42,1.42,0,0,1,.34.47,1.5,1.5,0,0,1,.12.63,1.48,1.48,0,0,1-.2.77,1.68,1.68,0,0,1-.52.54,2.4,2.4,0,0,1-.76.32,3.73,3.73,0,0,1-.9.11A3.4,3.4,0,0,1,28.62,95.78Z" fill="#2b3033"/><path d="M33.71,95.78v-1a2.84,2.84,0,0,0,1.73.58q1.27,0,1.27-.84a.73.73,0,0,0-.11-.41,1.08,1.08,0,0,0-.29-.3,2.26,2.26,0,0,0-.43-.23l-.54-.21a6.9,6.9,0,0,1-.7-.32,2.12,2.12,0,0,1-.5-.36,1.35,1.35,0,0,1-.3-.46,1.63,1.63,0,0,1-.1-.6,1.43,1.43,0,0,1,.19-.75,1.71,1.71,0,0,1,.52-.54,2.4,2.4,0,0,1,.74-.33,3.26,3.26,0,0,1,.85-.11,3.44,3.44,0,0,1,1.39.27v1a2.72,2.72,0,0,0-1.52-.43,1.78,1.78,0,0,0-.49.06,1.19,1.19,0,0,0-.37.17.8.8,0,0,0-.24.27.7.7,0,0,0-.08.34.82.82,0,0,0,.08.39.86.86,0,0,0,.25.28,1.9,1.9,0,0,0,.4.22l.53.22a7.42,7.42,0,0,1,.71.31,2.45,2.45,0,0,1,.54.36,1.42,1.42,0,0,1,.34.47,1.5,1.5,0,0,1,.12.63,1.48,1.48,0,0,1-.2.77,1.68,1.68,0,0,1-.52.54,2.4,2.4,0,0,1-.76.32,3.73,3.73,0,0,1-.9.11A3.4,3.4,0,0,1,33.71,95.78Z" fill="#2b3033"/><path d="M46.85,88.49H43.57v2.91h3v.88h-3V96h-1V87.6h4.27Z" fill="#2b3033"/><path d="M51.58,96h-1V88.74a2.22,2.22,0,0,1-.33.25,5.3,5.3,0,0,1-.48.28q-.27.14-.56.26a4.09,4.09,0,0,1-.58.19v-1a5.59,5.59,0,0,0,.67-.24q.35-.15.7-.33t.65-.39a5.14,5.14,0,0,0,.53-.4h.36Z" fill="#2b3033"/><path d="M61,88a1.28,1.28,0,0,0-.64-.16q-1,0-1,1.27V90h1.41v.82H59.39V96h-1V90.82h-1V90h1V89A2,2,0,0,1,59,87.54,1.84,1.84,0,0,1,60.34,87a1.88,1.88,0,0,1,.7.11Z" fill="#2b3033"/><path d="M64.33,96.14a2.78,2.78,0,0,1-2.12-.84,3.11,3.11,0,0,1-.79-2.23,3.24,3.24,0,0,1,.83-2.36,3,3,0,0,1,2.23-.85,2.69,2.69,0,0,1,2.09.83A3.28,3.28,0,0,1,67.32,93a3.22,3.22,0,0,1-.81,2.3A2.84,2.84,0,0,1,64.33,96.14Zm.07-5.47a1.83,1.83,0,0,0-1.46.63A2.59,2.59,0,0,0,62.4,93a2.45,2.45,0,0,0,.54,1.68,1.85,1.85,0,0,0,1.46.62,1.76,1.76,0,0,0,1.43-.6,2.62,2.62,0,0,0,.5-1.72,2.66,2.66,0,0,0-.5-1.73A1.75,1.75,0,0,0,64.4,90.67Z" fill="#2b3033"/><path d="M72,91a1.18,1.18,0,0,0-.73-.19,1.23,1.23,0,0,0-1,.58,2.68,2.68,0,0,0-.41,1.58V96h-1V90h1v1.24h0a2.1,2.1,0,0,1,.63-1,1.43,1.43,0,0,1,.94-.35A1.57,1.57,0,0,1,72,90Z" fill="#2b3033"/><path d="M84.83,96h-1V92.55a2.6,2.6,0,0,0-.31-1.44,1.17,1.17,0,0,0-1-.45,1.28,1.28,0,0,0-1,.56,2.15,2.15,0,0,0-.43,1.35V96h-1V92.44q0-1.77-1.37-1.77a1.26,1.26,0,0,0-1,.53,2.19,2.19,0,0,0-.41,1.38V96h-1V90h1v.95h0a2,2,0,0,1,1.86-1.09,1.73,1.73,0,0,1,1.7,1.24,2.14,2.14,0,0,1,2-1.24q2,0,2,2.44Z" fill="#2b3033"/><path d="M89.16,96.14A2.78,2.78,0,0,1,87,95.3a3.11,3.11,0,0,1-.79-2.23,3.24,3.24,0,0,1,.83-2.36,3,3,0,0,1,2.23-.85,2.69,2.69,0,0,1,2.09.83A3.28,3.28,0,0,1,92.15,93a3.22,3.22,0,0,1-.81,2.3A2.84,2.84,0,0,1,89.16,96.14Zm.07-5.47a1.83,1.83,0,0,0-1.46.63A2.59,2.59,0,0,0,87.22,93a2.45,2.45,0,0,0,.54,1.68,1.85,1.85,0,0,0,1.46.62,1.76,1.76,0,0,0,1.43-.6,2.62,2.62,0,0,0,.5-1.72,2.66,2.66,0,0,0-.5-1.73A1.75,1.75,0,0,0,89.23,90.67Z" fill="#2b3033"/><path d="M96.81,91a1.18,1.18,0,0,0-.73-.19,1.23,1.23,0,0,0-1,.58,2.68,2.68,0,0,0-.41,1.58V96h-1V90h1v1.24h0a2.1,2.1,0,0,1,.63-1,1.43,1.43,0,0,1,.94-.35,1.57,1.57,0,0,1,.57.08Z" fill="#2b3033"/><path d="M102.52,93.24H98.28a2.24,2.24,0,0,0,.54,1.55,1.86,1.86,0,0,0,1.42.54,3,3,0,0,0,1.86-.67v.9a3.48,3.48,0,0,1-2.09.57,2.54,2.54,0,0,1-2-.82,3.35,3.35,0,0,1-.73-2.3,3.28,3.28,0,0,1,.79-2.28,2.55,2.55,0,0,1,2-.88,2.26,2.26,0,0,1,1.82.76,3.18,3.18,0,0,1,.64,2.12Zm-1-.81a2,2,0,0,0-.4-1.29,1.37,1.37,0,0,0-1.1-.46,1.55,1.55,0,0,0-1.15.49,2.21,2.21,0,0,0-.59,1.27Z" fill="#2b3033"/><path d="M112.24,96h-1V92.54q0-1.87-1.39-1.87a1.52,1.52,0,0,0-1.18.54,2,2,0,0,0-.48,1.39V96h-1V87.12h1V91h0a2.18,2.18,0,0,1,2-1.14q2,0,2,2.44Z" fill="#2b3033"/><path d="M118.87,93.24h-4.24a2.24,2.24,0,0,0,.54,1.55,1.86,1.86,0,0,0,1.42.54,3,3,0,0,0,1.86-.67v.9a3.48,3.48,0,0,1-2.09.57,2.54,2.54,0,0,1-2-.82,3.35,3.35,0,0,1-.73-2.3,3.28,3.28,0,0,1,.79-2.28,2.55,2.55,0,0,1,2-.88,2.26,2.26,0,0,1,1.82.76,3.18,3.18,0,0,1,.64,2.12Zm-1-.81a2,2,0,0,0-.4-1.29,1.37,1.37,0,0,0-1.1-.46,1.55,1.55,0,0,0-1.15.49,2.21,2.21,0,0,0-.59,1.27Z" fill="#2b3033"/><path d="M121.29,96h-1V87.12h1Z" fill="#2b3033"/><path d="M124.21,95.13h0v3.63h-1V90h1v1.05h0a2.27,2.27,0,0,1,2.07-1.2,2.2,2.2,0,0,1,1.81.81,3.34,3.34,0,0,1,.65,2.16,3.72,3.72,0,0,1-.73,2.41,2.44,2.44,0,0,1-2,.91A2,2,0,0,1,124.21,95.13Zm0-2.42v.84a1.78,1.78,0,0,0,.48,1.26,1.72,1.72,0,0,0,2.6-.15,3.06,3.06,0,0,0,.5-1.86,2.42,2.42,0,0,0-.46-1.57,1.53,1.53,0,0,0-1.25-.57,1.7,1.7,0,0,0-1.35.58A2.14,2.14,0,0,0,124.19,92.71Z" fill="#2b3033"/></svg>