<svg id="Layer_1" data-name="Layer 1" xmlns="http://www.w3.org/2000/svg" xmlns:xlink="http://www.w3.org/1999/xlink" width="412" height="173" viewBox="0 0 412 173"><defs><clipPath id="clip-path"><rect x="-18" width="430" height="30" fill="none"/></clipPath><clipPath id="clip-path-2"><path d="M360,332l-367.18-.22a8.65,8.65,0,0,0-1.76-4.84,39.9,39.9,0,0,0-4.24-4.84,39.28,39.28,0,0,1-4.25-4.84,8.6,8.6,0,0,1-1.75-4.84,8.58,8.58,0,0,1,1.75-4.84,40.67,40.67,0,0,1,4.24-4.84A39.16,39.16,0,0,0-9,297.9a8.65,8.65,0,0,0,1.76-4.84A8.67,8.67,0,0,0-9,288.22a40.67,40.67,0,0,0-4.24-4.84,39.28,39.28,0,0,1-4.25-4.84,8.6,8.6,0,0,1-1.75-4.83,8.53,8.53,0,0,1,1.75-4.84A40,40,0,0,1-13.21,264,39.16,39.16,0,0,0-9,259.18a8.62,8.62,0,0,0,1.76-4.84A8.67,8.67,0,0,0-9,249.5a39.84,39.84,0,0,0-4.24-4.83,41.72,41.72,0,0,1-4.25-4.84A8.66,8.66,0,0,1-19.21,235a8.6,8.6,0,0,1,1.75-4.84,39.16,39.16,0,0,1,4.24-4.84A40.67,40.67,0,0,0-9,220.47a8.67,8.67,0,0,0,1.76-4.84A8.62,8.62,0,0,0-9,210.79,39.16,39.16,0,0,0-13.22,206a41.72,41.72,0,0,1-4.25-4.84,8.63,8.63,0,0,1-1.75-4.84,8.63,8.63,0,0,1,1.75-4.84,39.9,39.9,0,0,1,4.24-4.84A40.67,40.67,0,0,0-9,181.75a8.6,8.6,0,0,0,1.76-4.84A8.62,8.62,0,0,0-9,172.07a39.16,39.16,0,0,0-4.24-4.84,40.91,40.91,0,0,1-4.25-4.84,8.63,8.63,0,0,1-1.75-4.84,8.63,8.63,0,0,1,1.75-4.84,39.9,39.9,0,0,1,4.24-4.84A39.9,39.9,0,0,0-9,143a8.57,8.57,0,0,0,1.76-4.84A8.65,8.65,0,0,0-9,133.35a39.9,39.9,0,0,0-4.24-4.84,40.13,40.13,0,0,1-4.25-4.84,8.6,8.6,0,0,1-1.75-4.84A8.66,8.66,0,0,1-17.48,114a40.67,40.67,0,0,1,4.24-4.84A40.91,40.91,0,0,0-9,104.31a8.63,8.63,0,0,0,1.75-4.84A8.65,8.65,0,0,0-9,94.63a40.67,40.67,0,0,0-4.24-4.84A39.16,39.16,0,0,1-17.48,85a8.55,8.55,0,0,1-1.76-4.84,8.66,8.66,0,0,1,1.75-4.84,40.67,40.67,0,0,1,4.24-4.84A39.28,39.28,0,0,0-9,65.59a8.6,8.6,0,0,0,1.75-4.84A8.65,8.65,0,0,0-9,55.91a40.67,40.67,0,0,0-4.24-4.84,39.16,39.16,0,0,1-4.24-4.84,8.62,8.62,0,0,1-1.76-4.84,8.67,8.67,0,0,1,1.76-4.84,40.67,40.67,0,0,1,4.24-4.84A39.16,39.16,0,0,0-9,26.87,8.62,8.62,0,0,0-7.25,22,8.65,8.65,0,0,0-9,17.19a39.9,39.9,0,0,0-4.24-4.84,39.9,39.9,0,0,1-4.24-4.84,8.62,8.62,0,0,1-1.76-4.84,8.67,8.67,0,0,1,1.76-4.84A40.67,40.67,0,0,1-13.25-7,39.16,39.16,0,0,0-9-11.85a8.62,8.62,0,0,0,1.76-4.84A8.67,8.67,0,0,0-9-21.53a40.67,40.67,0,0,0-4.24-4.84,39.16,39.16,0,0,1-4.24-4.84A8.62,8.62,0,0,1-19.25-36a8.67,8.67,0,0,1,1.76-4.84,40.67,40.67,0,0,1,4.24-4.84A39.16,39.16,0,0,0-9-50.57a8.62,8.62,0,0,0,1.76-4.84A8.67,8.67,0,0,0-9-60.25a39.84,39.84,0,0,0-4.24-4.83,40.67,40.67,0,0,1-4.24-4.84,8.67,8.67,0,0,1-1.76-4.84,8.62,8.62,0,0,1,1.76-4.84,39.16,39.16,0,0,1,4.24-4.84A40.67,40.67,0,0,0-9-89.28a8.67,8.67,0,0,0,1.76-4.84A8.62,8.62,0,0,0-9-99a39.16,39.16,0,0,0-4.24-4.84,40.67,40.67,0,0,1-4.24-4.84,8.67,8.67,0,0,1-1.76-4.84,8.62,8.62,0,0,1,1.76-4.84,39.16,39.16,0,0,1,4.24-4.84A40.67,40.67,0,0,0-9-128a8.67,8.67,0,0,0,1.76-4.84A8.62,8.62,0,0,0-9-137.68a39.9,39.9,0,0,0-4.24-4.84,39.9,39.9,0,0,1-4.24-4.84,8.65,8.65,0,0,1-1.76-4.84A8.65,8.65,0,0,1-17.49-157a39.9,39.9,0,0,1,4.24-4.84A39.9,39.9,0,0,0-9-166.72a8.65,8.65,0,0,0,1.76-4.84A8.65,8.65,0,0,0-9-176.4a39.9,39.9,0,0,0-4.24-4.84,39.9,39.9,0,0,1-4.24-4.84,8.65,8.65,0,0,1-1.76-4.84,8.65,8.65,0,0,1,1.76-4.84,39.9,39.9,0,0,1,4.24-4.84A39.9,39.9,0,0,0-9-205.44a8.65,8.65,0,0,0,1.76-4.84A8.67,8.67,0,0,0-9-215.12,40.67,40.67,0,0,0-13.25-220a39.16,39.16,0,0,1-4.24-4.84,8.62,8.62,0,0,1-1.76-4.84,8.67,8.67,0,0,1,1.76-4.84,40.67,40.67,0,0,1,4.24-4.84A39.16,39.16,0,0,0-9-244.16,8.62,8.62,0,0,0-7.25-249H360l39.18.22a8.65,8.65,0,0,0,1.76,4.84,39.9,39.9,0,0,0,4.24,4.84,39.28,39.28,0,0,1,4.25,4.84,8.6,8.6,0,0,1,1.75,4.84,8.58,8.58,0,0,1-1.75,4.84,40.67,40.67,0,0,1-4.24,4.84A39.16,39.16,0,0,0,401-214.9a8.65,8.65,0,0,0-1.76,4.84,8.67,8.67,0,0,0,1.76,4.84,40.67,40.67,0,0,0,4.24,4.84,39.28,39.28,0,0,1,4.25,4.84,8.6,8.6,0,0,1,1.75,4.83,8.53,8.53,0,0,1-1.75,4.84A40,40,0,0,1,405.2-181a39.16,39.16,0,0,0-4.24,4.84,8.62,8.62,0,0,0-1.76,4.84A8.67,8.67,0,0,0,401-166.5a39.84,39.84,0,0,0,4.24,4.83,41.72,41.72,0,0,1,4.25,4.84A8.66,8.66,0,0,1,411.2-152a8.6,8.6,0,0,1-1.75,4.84,39.16,39.16,0,0,1-4.24,4.84,40.67,40.67,0,0,0-4.24,4.84,8.67,8.67,0,0,0-1.76,4.84,8.62,8.62,0,0,0,1.76,4.84,39.16,39.16,0,0,0,4.24,4.84,41.72,41.72,0,0,1,4.25,4.84,8.63,8.63,0,0,1,1.75,4.84,8.63,8.63,0,0,1-1.75,4.84,39.9,39.9,0,0,1-4.24,4.84A40.67,40.67,0,0,0,401-98.75a8.6,8.6,0,0,0-1.76,4.84A8.62,8.62,0,0,0,401-89.07a39.16,39.16,0,0,0,4.24,4.84,40.91,40.91,0,0,1,4.25,4.84,8.63,8.63,0,0,1,1.75,4.84,8.63,8.63,0,0,1-1.75,4.84,39.9,39.9,0,0,1-4.24,4.84A39.9,39.9,0,0,0,401-60a8.57,8.57,0,0,0-1.76,4.84A8.65,8.65,0,0,0,401-50.35a39.9,39.9,0,0,0,4.24,4.84,40.13,40.13,0,0,1,4.25,4.84,8.6,8.6,0,0,1,1.75,4.84A8.66,8.66,0,0,1,409.48-31a40.67,40.67,0,0,1-4.24,4.84A40.91,40.91,0,0,0,401-21.31a8.63,8.63,0,0,0-1.75,4.84A8.65,8.65,0,0,0,401-11.63a40.67,40.67,0,0,0,4.24,4.84A39.16,39.16,0,0,1,409.48-2a8.55,8.55,0,0,1,1.76,4.84,8.66,8.66,0,0,1-1.75,4.84,40.67,40.67,0,0,1-4.24,4.84A39.28,39.28,0,0,0,401,17.41a8.6,8.6,0,0,0-1.75,4.84A8.65,8.65,0,0,0,401,27.09a40.67,40.67,0,0,0,4.24,4.84,39.16,39.16,0,0,1,4.24,4.84,8.62,8.62,0,0,1,1.76,4.84,8.67,8.67,0,0,1-1.76,4.84,40.67,40.67,0,0,1-4.24,4.84A39.16,39.16,0,0,0,401,56.13,8.62,8.62,0,0,0,399.25,61,8.65,8.65,0,0,0,401,65.81a39.9,39.9,0,0,0,4.24,4.84,39.9,39.9,0,0,1,4.24,4.84,7.54,7.54,0,0,1,0,9.68A40.67,40.67,0,0,1,405.25,90,39.16,39.16,0,0,0,401,94.85a7.54,7.54,0,0,0,0,9.68,40.67,40.67,0,0,0,4.24,4.84,39.16,39.16,0,0,1,4.24,4.84,7.54,7.54,0,0,1,0,9.68,40.67,40.67,0,0,1-4.24,4.84,39.16,39.16,0,0,0-4.24,4.84,7.53,7.53,0,0,0,0,9.68,39.84,39.84,0,0,0,4.24,4.83,40.67,40.67,0,0,1,4.24,4.84,7.54,7.54,0,0,1,0,9.68,39.16,39.16,0,0,1-4.24,4.84,40.67,40.67,0,0,0-4.24,4.84,7.53,7.53,0,0,0,0,9.68,39.16,39.16,0,0,0,4.24,4.84,40.67,40.67,0,0,1,4.24,4.84,7.54,7.54,0,0,1,0,9.68,39.16,39.16,0,0,1-4.24,4.84A40.67,40.67,0,0,0,401,211a7.53,7.53,0,0,0,0,9.68,39.9,39.9,0,0,0,4.24,4.84,39.9,39.9,0,0,1,4.24,4.84,7.54,7.54,0,0,1,0,9.68,39.9,39.9,0,0,1-4.24,4.84,39.9,39.9,0,0,0-4.24,4.84,7.53,7.53,0,0,0,0,9.68,39.9,39.9,0,0,0,4.24,4.84,39.9,39.9,0,0,1,4.24,4.84,7.54,7.54,0,0,1,0,9.68,39.9,39.9,0,0,1-4.24,4.84,39.9,39.9,0,0,0-4.24,4.84,7.53,7.53,0,0,0,0,9.68,40.67,40.67,0,0,0,4.24,4.84,39.16,39.16,0,0,1,4.24,4.84,7.53,7.53,0,0,1,0,9.68,40.67,40.67,0,0,1-4.24,4.84,39.16,39.16,0,0,0-4.24,4.84,8.62,8.62,0,0,0-1.76,4.84Z" fill="none"/></clipPath><symbol id="toolbar" data-name="toolbar" viewBox="0 0 858 30.05"><rect x="1" y="0.05" width="856" height="30" fill="#fff"/><rect x="2.32" width="854" height="28" fill="#f7f7f7"/><path d="M857,0H0V30H858V0Zm0,29H1V1H857Z" fill="#8e9295"/><path d="M277.71,17.73V16.57a2.25,2.25,0,0,0,.48.32,3.87,3.87,0,0,0,.59.24,4.66,4.66,0,0,0,.62.15,3.45,3.45,0,0,0,.57.05,2.25,2.25,0,0,0,1.36-.34,1.26,1.26,0,0,0,.3-1.56,1.68,1.68,0,0,0-.41-.46,4.1,4.1,0,0,0-.62-.4l-.78-.4q-.44-.22-.82-.45a3.55,3.55,0,0,1-.66-.5,2.1,2.1,0,0,1-.44-.62,2.13,2.13,0,0,1,.09-1.82,2.16,2.16,0,0,1,.66-.7,3,3,0,0,1,.93-.41,4.28,4.28,0,0,1,1.07-.13,4.1,4.1,0,0,1,1.81.3v1.11a3.28,3.28,0,0,0-1.91-.52,3.14,3.14,0,0,0-.64.07,1.82,1.82,0,0,0-.57.22,1.27,1.27,0,0,0-.41.39,1,1,0,0,0-.16.59,1.21,1.21,0,0,0,.12.56,1.36,1.36,0,0,0,.35.43,3.53,3.53,0,0,0,.57.38l.78.4q.45.22.86.47a3.91,3.91,0,0,1,.71.54,2.42,2.42,0,0,1,.48.66,1.86,1.86,0,0,1,.18.83,2.11,2.11,0,0,1-.24,1.05,2,2,0,0,1-.66.7,2.87,2.87,0,0,1-1,.39,5.21,5.21,0,0,1-1.14.12l-.49,0-.6-.09a4.88,4.88,0,0,1-.58-.15A1.8,1.8,0,0,1,277.71,17.73Z" fill="#2b3033"/><path d="M285.33,17.21h0v3.63h-1V12.07h1v1.05h0a2.27,2.27,0,0,1,2.07-1.2,2.2,2.2,0,0,1,1.81.81,3.34,3.34,0,0,1,.65,2.16,3.72,3.72,0,0,1-.73,2.41,2.44,2.44,0,0,1-2,.91A2,2,0,0,1,285.33,17.21Zm0-2.42v.84a1.78,1.78,0,0,0,.48,1.26,1.72,1.72,0,0,0,2.6-.15,3.06,3.06,0,0,0,.5-1.86,2.42,2.42,0,0,0-.46-1.57,1.53,1.53,0,0,0-1.25-.57,1.7,1.7,0,0,0-1.35.58A2.14,2.14,0,0,0,285.31,14.79Z" fill="#2b3033"/><path d="M292.36,18.07h-1V9.19h1Z" fill="#2b3033"/><path d="M294.8,10.55a.61.61,0,0,1-.44-.18.59.59,0,0,1-.18-.45.62.62,0,0,1,.62-.63.62.62,0,0,1,.45.18.63.63,0,0,1,0,.89A.62.62,0,0,1,294.8,10.55Zm.47,7.52h-1v-6h1Z" fill="#2b3033"/><path d="M300,18a1.85,1.85,0,0,1-.9.19q-1.58,0-1.58-1.76V12.89h-1v-.82h1V10.61l1-.31v1.78H300v.82h-1.51v3.38a1.4,1.4,0,0,0,.21.86.82.82,0,0,0,.68.26,1,1,0,0,0,.63-.2Z" fill="#2b3033"/><rect x="144" y="3.05" width="1" height="23" fill="#a6a6a6"/><rect x="317" y="3.05" width="1" height="23" fill="#a6a6a6"/><rect x="346" y="3.05" width="1" height="23" fill="#a6a6a6"/><rect x="201" y="2.05" width="59" height="26" fill="#4384b7"/><path d="M209,18.07V9.67h2.32q4.44,0,4.44,4.1a4.13,4.13,0,0,1-1.23,3.13,4.58,4.58,0,0,1-3.3,1.18Zm1-7.51v6.62h1.25a3.56,3.56,0,0,0,2.57-.88,3.32,3.32,0,0,0,.92-2.51q0-3.23-3.43-3.23Z" fill="#fff"/><path d="M217.79,10.55a.61.61,0,0,1-.44-.18.59.59,0,0,1-.18-.45.62.62,0,0,1,.62-.63.62.62,0,0,1,.45.18.63.63,0,0,1,0,.89A.62.62,0,0,1,217.79,10.55Zm.47,7.52h-1v-6h1Z" fill="#fff"/><path d="M224.5,18.07h-1v-.94h0a2,2,0,0,1-1.85,1.08,2,2,0,0,1-1.4-.47,1.64,1.64,0,0,1-.51-1.26q0-1.68,2-2l1.8-.25q0-1.53-1.24-1.53a3,3,0,0,0-2,.74v-1a3.72,3.72,0,0,1,2-.56q2.12,0,2.12,2.24Zm-1-3-1.45.2a2.35,2.35,0,0,0-1,.33,1,1,0,0,0-.34.84.92.92,0,0,0,.31.72,1.21,1.21,0,0,0,.83.28,1.54,1.54,0,0,0,1.18-.5,1.79,1.79,0,0,0,.47-1.27Z" fill="#fff"/><path d="M231.43,17.59q0,3.3-3.16,3.3a4.25,4.25,0,0,1-1.95-.42v-1a4,4,0,0,0,1.93.56q2.21,0,2.21-2.36v-.66h0a2.43,2.43,0,0,1-3.86.35,3.2,3.2,0,0,1-.68-2.15,3.74,3.74,0,0,1,.74-2.43,2.46,2.46,0,0,1,2-.9,2,2,0,0,1,1.8,1h0v-.83h1Zm-1-2.23v-.88a1.72,1.72,0,0,0-.48-1.22,1.59,1.59,0,0,0-1.2-.51,1.67,1.67,0,0,0-1.39.65,2.89,2.89,0,0,0-.5,1.81,2.48,2.48,0,0,0,.48,1.6,1.56,1.56,0,0,0,1.28.6,1.67,1.67,0,0,0,1.32-.57A2.14,2.14,0,0,0,230.47,15.36Z" fill="#fff"/><path d="M236.5,13a1.18,1.18,0,0,0-.73-.19,1.23,1.23,0,0,0-1,.58,2.68,2.68,0,0,0-.41,1.58v3.06h-1v-6h1v1.24h0a2.1,2.1,0,0,1,.63-1,1.43,1.43,0,0,1,.94-.35,1.57,1.57,0,0,1,.57.08Z" fill="#fff"/><path d="M241.84,18.07h-1v-.94h0A2,2,0,0,1,239,18.21a2,2,0,0,1-1.4-.47,1.64,1.64,0,0,1-.51-1.26q0-1.68,2-2l1.8-.25q0-1.53-1.24-1.53a3,3,0,0,0-2,.74v-1a3.72,3.72,0,0,1,2-.56q2.12,0,2.12,2.24Zm-1-3-1.45.2a2.35,2.35,0,0,0-1,.33,1,1,0,0,0-.34.84.92.92,0,0,0,.31.72,1.21,1.21,0,0,0,.83.28,1.54,1.54,0,0,0,1.18-.5,1.79,1.79,0,0,0,.47-1.27Z" fill="#fff"/><path d="M252.17,18.07h-1V14.63a2.6,2.6,0,0,0-.31-1.44,1.17,1.17,0,0,0-1-.45,1.28,1.28,0,0,0-1,.56,2.15,2.15,0,0,0-.43,1.35v3.42h-1V14.51q0-1.77-1.37-1.77a1.26,1.26,0,0,0-1,.53,2.19,2.19,0,0,0-.41,1.38v3.42h-1v-6h1V13h0a2,2,0,0,1,1.86-1.09,1.73,1.73,0,0,1,1.7,1.24,2.14,2.14,0,0,1,2-1.24q2,0,2,2.44Z" fill="#fff"/><path d="M161,14.9v3.18h-1V9.67h2.31a3,3,0,0,1,2.09.66,2.34,2.34,0,0,1,.74,1.85,2.55,2.55,0,0,1-.82,2,3.15,3.15,0,0,1-2.22.76Zm0-4.34V14h1a2.31,2.31,0,0,0,1.56-.47,1.65,1.65,0,0,0,.54-1.32q0-1.66-2-1.66Z" fill="#2b3033"/><path d="M170.55,18.07h-1v-.94h0a2,2,0,0,1-1.85,1.08,2,2,0,0,1-1.4-.47,1.64,1.64,0,0,1-.51-1.26q0-1.68,2-2l1.8-.25q0-1.53-1.24-1.53a3,3,0,0,0-2,.74v-1a3.72,3.72,0,0,1,2-.56q2.12,0,2.12,2.24Zm-1-3-1.45.2a2.35,2.35,0,0,0-1,.33,1,1,0,0,0-.34.84.92.92,0,0,0,.31.72,1.21,1.21,0,0,0,.83.28,1.54,1.54,0,0,0,1.18-.5,1.79,1.79,0,0,0,.47-1.27Z" fill="#2b3033"/><path d="M177.34,18.07h-1V14.65q0-1.91-1.39-1.91a1.51,1.51,0,0,0-1.19.54,2,2,0,0,0-.47,1.37v3.42h-1v-6h1v1h0a2.17,2.17,0,0,1,2-1.14,1.84,1.84,0,0,1,1.51.64,2.83,2.83,0,0,1,.52,1.84Z" fill="#2b3033"/><path d="M184,15.31h-4.24a2.24,2.24,0,0,0,.54,1.55,1.86,1.86,0,0,0,1.42.54,3,3,0,0,0,1.86-.67v.9a3.48,3.48,0,0,1-2.09.57,2.54,2.54,0,0,1-2-.82,3.35,3.35,0,0,1-.73-2.3,3.28,3.28,0,0,1,.79-2.28,2.55,2.55,0,0,1,2-.88,2.26,2.26,0,0,1,1.82.76,3.18,3.18,0,0,1,.64,2.12Zm-1-.81a2,2,0,0,0-.4-1.29,1.37,1.37,0,0,0-1.1-.46,1.55,1.55,0,0,0-1.15.49,2.21,2.21,0,0,0-.59,1.27Z" fill="#2b3033"/><path d="M186.39,18.07h-1V9.19h1Z" fill="#2b3033"/><polygon points="374 17.06 377.15 21.95 380 17.06 374 17.06" fill="#696e73" opacity="0.5"/><polygon points="410 17.06 413.15 21.95 416 17.06 410 17.06" fill="#696e73"/><polygon points="446 17.06 449.15 21.95 452 17.06 446 17.06" fill="#696e73"/><path d="M808.55,18.1H804.1V9.7h4.27v.89h-3.28v2.79h3v.88h-3v2.94h3.47Z" fill="#2b3033"/><path d="M815.16,18.1h-1v-1h0a2.22,2.22,0,0,1-2.06,1.16,2.24,2.24,0,0,1-1.81-.81,3.31,3.31,0,0,1-.68-2.19,3.6,3.6,0,0,1,.75-2.38,2.47,2.47,0,0,1,2-.9,1.92,1.92,0,0,1,1.8,1h0V9.22h1Zm-1-2.71V14.5a1.72,1.72,0,0,0-.48-1.23,1.61,1.61,0,0,0-1.22-.5,1.66,1.66,0,0,0-1.38.64,2.82,2.82,0,0,0-.5,1.78,2.54,2.54,0,0,0,.48,1.64,1.58,1.58,0,0,0,1.3.6,1.64,1.64,0,0,0,1.3-.58A2.16,2.16,0,0,0,814.2,15.39Z" fill="#2b3033"/><path d="M817.6,10.58a.61.61,0,0,1-.44-.18A.59.59,0,0,1,817,10a.62.62,0,0,1,.62-.63.62.62,0,0,1,.45.18.63.63,0,0,1,0,.89A.62.62,0,0,1,817.6,10.58Zm.47,7.52h-1v-6h1Z" fill="#2b3033"/><path d="M822.8,18a1.85,1.85,0,0,1-.9.19q-1.58,0-1.58-1.76V12.92h-1V12.1h1V10.63l1-.31V12.1h1.51v.82h-1.51V16.3a1.4,1.4,0,0,0,.21.86.82.82,0,0,0,.68.26,1,1,0,0,0,.63-.2Z" fill="#2b3033"/><path d="M827.86,10.58a.61.61,0,0,1-.44-.18.59.59,0,0,1-.18-.45.62.62,0,0,1,.62-.63.62.62,0,0,1,.45.18.63.63,0,0,1,0,.89A.62.62,0,0,1,827.86,10.58Zm.47,7.52h-1v-6h1Z" fill="#2b3033"/><path d="M834.37,17.82a3.12,3.12,0,0,1-1.64.42,2.72,2.72,0,0,1-2.07-.83,3,3,0,0,1-.79-2.17,3.33,3.33,0,0,1,.85-2.38A3,3,0,0,1,833,12a3.16,3.16,0,0,1,1.39.29v1a2.44,2.44,0,0,0-1.43-.47,1.93,1.93,0,0,0-1.51.66,2.5,2.5,0,0,0-.59,1.73,2.38,2.38,0,0,0,.55,1.66,1.91,1.91,0,0,0,1.49.61,2.41,2.41,0,0,0,1.48-.52Z" fill="#2b3033"/><path d="M838.33,18.24a2.78,2.78,0,0,1-2.12-.84,3.11,3.11,0,0,1-.79-2.23,3.24,3.24,0,0,1,.83-2.36,3,3,0,0,1,2.23-.85,2.69,2.69,0,0,1,2.09.83,3.28,3.28,0,0,1,.75,2.29,3.22,3.22,0,0,1-.81,2.3A2.84,2.84,0,0,1,838.33,18.24Zm.07-5.47a1.83,1.83,0,0,0-1.46.63,2.59,2.59,0,0,0-.54,1.74,2.45,2.45,0,0,0,.54,1.68,1.85,1.85,0,0,0,1.46.62,1.76,1.76,0,0,0,1.43-.6,2.62,2.62,0,0,0,.5-1.72,2.66,2.66,0,0,0-.5-1.73A1.75,1.75,0,0,0,838.4,12.77Z" fill="#2b3033"/><path d="M847.83,18.1h-1V14.68q0-1.91-1.39-1.91a1.51,1.51,0,0,0-1.19.54,2,2,0,0,0-.47,1.37V18.1h-1v-6h1v1h0a2.17,2.17,0,0,1,2-1.14,1.84,1.84,0,0,1,1.51.64,2.83,2.83,0,0,1,.52,1.84Z" fill="#2b3033"/><path d="M726.3,18.1h-1V10.84a2.22,2.22,0,0,1-.33.25,5.3,5.3,0,0,1-.48.28q-.27.14-.56.26a4.09,4.09,0,0,1-.58.19v-1a5.59,5.59,0,0,0,.67-.24q.35-.15.7-.33t.65-.39a5.14,5.14,0,0,0,.53-.4h.36Z" fill="#2b3033"/><path d="M734.51,13.86a8.25,8.25,0,0,1-.19,1.87,4.36,4.36,0,0,1-.55,1.37,2.48,2.48,0,0,1-.88.85,2.42,2.42,0,0,1-1.19.29,2.26,2.26,0,0,1-1.13-.28,2.36,2.36,0,0,1-.83-.81,4.11,4.11,0,0,1-.52-1.31,8.1,8.1,0,0,1-.18-1.78,9.17,9.17,0,0,1,.18-1.95,4.45,4.45,0,0,1,.54-1.42,2.41,2.41,0,0,1,.89-.86,2.49,2.49,0,0,1,1.22-.29Q734.51,9.56,734.51,13.86Zm-1,.09q0-3.59-1.71-3.59T730,14q0,3.4,1.76,3.4T733.52,14Z" fill="#2b3033"/><path d="M741,13.86a8.25,8.25,0,0,1-.19,1.87,4.36,4.36,0,0,1-.55,1.37,2.48,2.48,0,0,1-.88.85,2.42,2.42,0,0,1-1.19.29A2.26,2.26,0,0,1,737,18a2.36,2.36,0,0,1-.83-.81,4.11,4.11,0,0,1-.52-1.31,8.1,8.1,0,0,1-.18-1.78,9.17,9.17,0,0,1,.18-1.95,4.45,4.45,0,0,1,.54-1.42,2.41,2.41,0,0,1,.89-.86,2.49,2.49,0,0,1,1.22-.29Q741,9.56,741,13.86ZM740,14q0-3.59-1.71-3.59T736.49,14q0,3.4,1.76,3.4T740,14Z" fill="#2b3033"/><path d="M743.83,13.91a1.77,1.77,0,0,1-1.38-.57,2.19,2.19,0,0,1-.52-1.53,2.35,2.35,0,0,1,.54-1.64,1.89,1.89,0,0,1,1.47-.6,1.77,1.77,0,0,1,1.39.56,2.27,2.27,0,0,1,.5,1.56,2.3,2.3,0,0,1-.55,1.61A1.87,1.87,0,0,1,743.83,13.91Zm.08-3.7a1.05,1.05,0,0,0-.88.41,1.8,1.8,0,0,0-.32,1.13,1.73,1.73,0,0,0,.32,1.1,1,1,0,0,0,.86.4,1,1,0,0,0,.86-.41,1.85,1.85,0,0,0,.31-1.14,1.76,1.76,0,0,0-.31-1.1A1,1,0,0,0,743.92,10.21Zm5.54-.52-5.39,8.46h-.84l5.38-8.46Zm-.62,8.53a1.77,1.77,0,0,1-1.38-.57,2.19,2.19,0,0,1-.52-1.52,2.36,2.36,0,0,1,.55-1.65,1.88,1.88,0,0,1,1.46-.61,1.76,1.76,0,0,1,1.39.56,2.3,2.3,0,0,1,.5,1.58,2.29,2.29,0,0,1-.55,1.61A1.87,1.87,0,0,1,748.84,18.23Zm.08-3.69a1.06,1.06,0,0,0-.88.41,1.81,1.81,0,0,0-.32,1.14,1.7,1.7,0,0,0,.32,1.09,1,1,0,0,0,.86.4,1,1,0,0,0,.86-.41,1.85,1.85,0,0,0,.31-1.13,1.73,1.73,0,0,0-.31-1.1A1,1,0,0,0,748.92,14.54Z" fill="#2b3033"/><path d="M771,11.1h9l-4.5,6Z" fill="#2b3033" opacity="0.8"/><rect x="789" y="3.05" width="1" height="23" fill="#a6a6a6"/><rect x="714" y="3.05" width="1" height="23" fill="#a6a6a6"/><polygon points="702 17.08 705.15 21.97 708 17.08 702 17.08" fill="#4d5359" opacity="0.8"/><rect x="652.5" y="1.5" width="23" height="26" fill="#fff"/><path d="M675,2V27H653V2h22m1-1H652V28h24V1Z" fill="#4386b9"/><path d="M656,7V23h16V7Zm15,15H657V8h14Z" fill="#4d5359" opacity="0.8"/><rect x="658" y="9.06" width="3" height="12" fill="#4d5359" opacity="0.8"/><g opacity="0.8"><path d="M681,11h4V7h-4Zm1-3h2v2h-2Z" fill="#4d5359"/><rect x="686" y="8.05" width="11" height="2" fill="#4d5359"/><path d="M681,17h4V13h-4Zm1-3h2v2h-2Z" fill="#4d5359"/><rect x="686" y="14.05" width="11" height="2" fill="#4d5359"/><path d="M681,23h4V19h-4Zm1-3h2v2h-2Z" fill="#4d5359"/><rect x="686" y="20.05" width="11" height="2" fill="#4d5359"/></g><rect x="511" y="8.05" width="1" height="4" fill="#696e73"/><rect x="511" y="14.05" width="1" height="4" fill="#696e73"/><rect x="517" y="6.05" width="4" height="1" fill="#696e73"/><rect x="511" y="6.05" width="4" height="1" fill="#696e73"/><rect x="515" y="21.05" width="4" height="1" fill="#696e73"/><rect x="521" y="21.05" width="4" height="1" fill="#696e73"/><polygon points="512 20.05 511 20.05 511 22.05 513 22.05 513 21.05 512 21.05 512 20.05" fill="#696e73"/><rect x="526" y="18.05" width="1" height="4" fill="#696e73"/><rect x="526" y="12.05" width="1" height="4" fill="#696e73"/><polygon points="523 6.05 523 7.05 526 7.05 526 10.05 527 10.05 527 6.05 523 6.05" fill="#696e73"/><path d="M513,20.05h12v-12H513Zm1-11,9,5-9,5Z" fill="#696e73"/><rect x="461" y="21.03" width="16" height="1" fill="#696e73"/><rect x="476" y="18.03" width="1" height="2" fill="#696e73"/><rect x="467" y="9.03" width="2" height="1" fill="#696e73"/><rect x="470" y="9.03" width="2" height="1" fill="#696e73"/><rect x="473" y="9.03" width="2" height="1" fill="#696e73"/><polygon points="467.48 15.14 465 17.62 466.41 19.04 468.89 16.56 471.36 19.04 472.78 17.62 470.3 15.14 472.78 12.67 471.36 11.26 468.89 13.73 466.41 11.26 465 12.67 467.48 15.14" fill="#696e73"/><path d="M492.47,8c0,8-6.47,7-6.47,7h0s6.47-1,6.47,7c0-8,6.47-7,6.47-7h0S492.47,16,492.47,8Z" fill="#696e73"/><path d="M498.49,6c0,2.87-2.49,2.52-2.49,2.52h0s2.49-.34,2.49,2.52c0-2.87,2.49-2.52,2.49-2.52h0S498.49,8.91,498.49,6Z" fill="#696e73"/><path d="M440,14V9h-5V7h-7V9h-3v1h3v2h7V10h4v9h-4.05a3.48,3.48,0,0,0-6.9,0H425v1h3.05a3.48,3.48,0,0,0,6.9,0H440V15h1V14Z" fill="#696e73"/><rect x="389" y="8.05" width="2" height="14" fill="#696e73"/><rect x="393" y="14.05" width="5" height="2" fill="#696e73"/><rect x="393" y="9.05" width="10" height="2" fill="#696e73"/><rect x="393" y="19.05" width="8" height="2" fill="#696e73"/><path d="M369,7h-8v5h-4v4h-4v7h7V19h4V15h5ZM359,22h-5V17h3v2h2Zm4-4h-5V13h3v2h2Z" fill="#696e73" opacity="0.5"/><polygon points="97 8.05 97 14.05 99 14.05 99 10.05 103 10.05 103 8.05 97 8.05" fill="#696e73"/><polygon points="99 18.05 97 18.05 97 24.05 103 24.05 103 22.05 99 22.05 99 18.05" fill="#696e73"/><polygon points="111 22.05 107 22.05 107 24.05 113 24.05 113 18.05 111 18.05 111 22.05" fill="#696e73"/><polygon points="107 8.05 107 10.05 111 10.05 111 14.05 113 14.05 113 8.05 107 8.05" fill="#696e73"/><rect x="101" y="15.05" width="2" height="5" fill="#696e73"/><rect x="104" y="12.05" width="2" height="8" fill="#696e73"/><rect x="107" y="13.05" width="2" height="7" fill="#696e73"/><polygon points="12 24.05 12 8.05 28 16.05 12 24.05" fill="#696e73"/><polygon points="13.07 10.16 24.8 16.05 13.07 21.95 13.07 10.16" fill="#fff"/><polygon points="14.13 12.33 21.63 16.05 14.13 19.8 14.13 12.33" fill="#55a446"/><rect x="42" y="9.05" width="4" height="14" fill="#696e73" opacity="0.5"/><rect x="50" y="9.05" width="4" height="14" fill="#696e73" opacity="0.5"/><rect x="65.5" y="1.5" width="23" height="26" fill="#fff"/><path d="M88,2V27H66V2H88m1-1H65V28H89V1Z" fill="#4386b9"/><path d="M80.31,8H73.69L69,12.73v6.63L73.69,24h6.63L85,19.36V12.73ZM78.48,20.12l-1.64-2.65-1.67,2.65H73l2.7-4.07-2.64-4h2.27l1.58,2.51L78.54,12h2.18L78.06,16l2.7,4.15Z" fill="#c42126"/><rect x="473" y="14.03" width="2" height="1" fill="#696e73"/><polygon points="476 14.04 476 15.04 476 17.04 477 17.04 477 14.04 476 14.04" fill="#696e73"/><rect x="461" y="12.03" width="1" height="3" fill="#696e73"/><rect x="463" y="14.03" width="2" height="1" fill="#696e73"/><polygon points="461 9.04 461 11.04 462 11.04 462 10.04 463 10.04 463 9.05 464 9.05 464 10.04 466 10.04 466 9.04 461 9.04" fill="#696e73"/><rect x="320.5" y="1.5" width="23" height="26" fill="#fff"/><path d="M343,2V27H321V2h22m1-1H320V28h24V1Z" fill="#4386b9"/><path d="M337,11.55a5.5,5.5,0,0,0-11,0V14a7.75,7.75,0,0,1,2,4h3V15.19L329,12l1.2-1,1.3,3,1.37-3L334,12l-2,3.37V18h3a7.75,7.75,0,0,1,2-4Z" fill="#6a6f77"/><polygon points="330 21.05 330 21.05 330 22.05 333 22.05 333 21.05 333 21.05 330 21.05" fill="#6a6f77"/><polygon points="329 19.05 329 20.05 330 20.05 333 20.05 334 20.05 334 19.05 329 19.05" fill="#6a6f77"/><rect x="150" y="26.05" width="162" height="2" fill="#4384b7"/><rect x="855" y="0.05" width="3" height="1" fill="#8e9295"/><path d="M125,13h9l-4.5,6Z" fill="#4d5359" opacity="0.8"/><polygon points="518.53 13.75 516.94 13.75 516.94 12.15 516.14 12.15 516.14 13.75 514.55 13.75 514.55 14.55 516.14 14.55 516.14 16.14 516.94 16.14 516.94 14.55 518.53 14.55 518.53 13.75" fill="#696e73"/></symbol><symbol id="cursor" data-name="cursor" viewBox="0 0 12 20.32"><polygon points="12 11.66 12 10.65 10.88 10.65 10.88 9.83 9.89 9.83 9.88 9.82 9.88 8.84 8.9 8.84 8.89 8.83 8.89 7.85 7.91 7.85 7.91 7.84 7.91 6.86 6.93 6.86 6.92 6.86 6.92 5.88 5.94 5.88 5.93 5.87 5.93 4.88 4.95 4.88 4.94 4.88 4.94 3.9 3.96 3.9 3.95 3.89 3.95 2.9 2.97 2.9 2.96 2.9 2.96 1.92 1.98 1.92 1.97 1.91 1.97 0.93 1 0.93 1 0 0 0 0 17.31 1 17.31 1 16.51 1.98 16.51 1.98 15.53 1.98 15.52 2.96 15.52 2.96 14.54 2.97 14.53 3.95 14.53 3.95 13.59 4.93 13.59 4.93 15.5 5.93 15.5 5.93 17.41 6.93 17.41 6.93 17.39 6.93 17.39 6.93 19.32 7.92 19.32 7.92 20.32 9.85 20.32 9.85 19.32 10.85 19.32 10.85 17.39 9.87 17.39 9.87 15.47 8.89 15.47 8.89 13.54 7.94 13.54 7.94 11.66 12 11.66" fill="#fff"/><polygon points="12 10.65 12 11.66 7.94 11.66 7.94 13.54 7.89 13.56 6.94 13.56 6.94 10.65 6.95 10.65 7.94 10.65 9.89 10.65 9.89 9.83 10.88 9.83 10.88 10.65 12 10.65" fill="#221f1f"/><polygon points="10.85 17.39 10.85 19.32 9.85 19.32 9.85 19.32 9.85 17.39 9.87 17.39 10.85 17.39" fill="#221f1f"/><rect x="8.9" y="8.84" width="0.98" height="0.98" fill="#221f1f"/><polygon points="9.87 15.47 9.87 17.39 9.85 17.39 8.87 17.39 8.87 15.47 8.89 15.47 9.87 15.47" fill="#221f1f"/><polygon points="9.85 19.32 9.85 20.32 7.92 20.32 7.92 19.32 7.93 19.32 9.85 19.32 9.85 19.32" fill="#221f1f"/><rect x="7.91" y="7.85" width="0.98" height="0.98" fill="#221f1f"/><polygon points="8.89 13.54 8.89 15.47 8.87 15.47 7.89 15.47 7.89 13.56 7.94 13.54 8.89 13.54" fill="#221f1f"/><polygon points="7.93 17.39 7.93 19.32 7.92 19.32 6.93 19.32 6.93 17.39 7.93 17.39" fill="#221f1f"/><rect x="6.93" y="6.86" width="0.98" height="0.98" fill="#221f1f"/><polygon points="6.93 17.39 6.93 17.41 5.93 17.41 5.93 15.5 5.93 15.48 6.93 15.48 6.93 17.39" fill="#221f1f"/><rect x="5.94" y="5.88" width="0.98" height="0.98" fill="#221f1f"/><polygon points="5.93 13.57 5.93 15.48 5.93 15.5 4.93 15.5 4.93 13.59 4.93 13.57 5.93 13.57" fill="#221f1f"/><rect x="4.95" y="4.88" width="0.98" height="0.98" fill="#221f1f"/><rect x="3.96" y="3.89" width="0.98" height="0.98" fill="#221f1f"/><polygon points="4.93 13.57 4.93 13.59 3.95 13.59 3.94 13.55 3.94 11.66 4.93 11.66 4.93 13.57" fill="#221f1f"/><rect x="2.97" y="2.91" width="0.98" height="0.98" fill="#221f1f"/><polygon points="3.95 13.59 3.95 14.53 2.97 14.53 2.97 13.55 3.94 13.55 3.95 13.59" fill="#221f1f"/><rect x="1.98" y="14.54" width="0.98" height="0.98" fill="#221f1f"/><rect x="1.98" y="1.92" width="0.98" height="0.98" fill="#221f1f"/><polygon points="1.98 15.53 1.98 16.51 1 16.51 1 17.31 0 17.31 0 0 1 0 1 0.93 1.97 0.93 1.97 1.91 1 1.91 1 15.53 1.98 15.53" fill="#221f1f"/></symbol></defs><title>tips-shortcut_example-do</title><g clip-path="url(#clip-path)"><g clip-path="url(#clip-path-2)"><use id="toolbar-3" data-name="toolbar" width="858" height="30.05" xlink:href="#toolbar"/></g><path d="M409.82-222.7c0,2-2.25,2.64-3.82,4.26a39.16,39.16,0,0,0-4.24,4.84,8.65,8.65,0,0,0-1.76,4.84,8.67,8.67,0,0,0,1.76,4.84,40.67,40.67,0,0,0,4.24,4.84,39.28,39.28,0,0,1,4.25,4.84,8.6,8.6,0,0,1,1.75,4.83,8.53,8.53,0,0,1-1.75,4.84,40,40,0,0,1-4.24,4.85,39.16,39.16,0,0,0-4.24,4.84A8.62,8.62,0,0,0,400-170a8.67,8.67,0,0,0,1.76,4.84,39.84,39.84,0,0,0,4.24,4.83,41.72,41.72,0,0,1,4.25,4.84,8.66,8.66,0,0,1,1.75,4.84,8.6,8.6,0,0,1-1.75,4.84A39.16,39.16,0,0,1,406-141a40.67,40.67,0,0,0-4.24,4.84,8.67,8.67,0,0,0-1.76,4.84,8.62,8.62,0,0,0,1.76,4.84,39.16,39.16,0,0,0,4.24,4.84,41.72,41.72,0,0,1,4.25,4.84A8.63,8.63,0,0,1,412-112a8.63,8.63,0,0,1-1.75,4.84,39.9,39.9,0,0,1-4.24,4.84,40.67,40.67,0,0,0-4.24,4.84A8.6,8.6,0,0,0,400-92.61a8.62,8.62,0,0,0,1.76,4.84A39.16,39.16,0,0,0,406-82.93a40.91,40.91,0,0,1,4.25,4.84A8.63,8.63,0,0,1,412-73.25a8.63,8.63,0,0,1-1.75,4.84A39.9,39.9,0,0,1,406-63.57a39.9,39.9,0,0,0-4.24,4.84A8.57,8.57,0,0,0,400-53.89a8.65,8.65,0,0,0,1.76,4.84A39.9,39.9,0,0,0,406-44.21a40.13,40.13,0,0,1,4.25,4.84A8.6,8.6,0,0,1,412-34.53a8.66,8.66,0,0,1-1.75,4.84,40.67,40.67,0,0,1-4.24,4.84A40.91,40.91,0,0,0,401.8-20a8.63,8.63,0,0,0-1.75,4.84,8.65,8.65,0,0,0,1.76,4.84,40.67,40.67,0,0,0,4.24,4.84,39.16,39.16,0,0,1,4.24,4.84,8.55,8.55,0,0,1,1.76,4.84A8.66,8.66,0,0,1,410.3,9a40.67,40.67,0,0,1-4.24,4.84,39.28,39.28,0,0,0-4.25,4.84,8.6,8.6,0,0,0-1.75,4.84,8.65,8.65,0,0,0,1.76,4.84,40.67,40.67,0,0,0,4.24,4.84,39.16,39.16,0,0,1,4.24,4.84,8.62,8.62,0,0,1,1.76,4.84,8.67,8.67,0,0,1-1.76,4.84,40.67,40.67,0,0,1-4.24,4.84,39.16,39.16,0,0,0-4.24,4.84,8.62,8.62,0,0,0-1.76,4.84,8.65,8.65,0,0,0,1.76,4.84,39.9,39.9,0,0,0,4.24,4.84,39.9,39.9,0,0,1,4.24,4.84,7.54,7.54,0,0,1,0,9.68,40.67,40.67,0,0,1-4.24,4.84,39.16,39.16,0,0,0-4.24,4.84,7.53,7.53,0,0,0,0,9.68,40.67,40.67,0,0,0,4.24,4.84,39.16,39.16,0,0,1,4.24,4.84,7.54,7.54,0,0,1,0,9.68,40.67,40.67,0,0,1-4.24,4.84,39.16,39.16,0,0,0-4.24,4.84,7.53,7.53,0,0,0,0,9.68,39.84,39.84,0,0,0,4.24,4.83,40.67,40.67,0,0,1,4.24,4.84,7.53,7.53,0,0,1,0,9.68,39.16,39.16,0,0,1-4.24,4.84,40.67,40.67,0,0,0-4.24,4.84,7.53,7.53,0,0,0,0,9.68,39.16,39.16,0,0,0,4.24,4.84,40.67,40.67,0,0,1,4.24,4.84,7.54,7.54,0,0,1,0,9.68,39.16,39.16,0,0,1-4.24,4.84,40.67,40.67,0,0,0-4.24,4.84,7.53,7.53,0,0,0,0,9.68,39.9,39.9,0,0,0,4.24,4.84,39.9,39.9,0,0,1,4.24,4.84,7.54,7.54,0,0,1,0,9.68,39.9,39.9,0,0,1-4.24,4.84,39.9,39.9,0,0,0-4.24,4.84,7.53,7.53,0,0,0,0,9.68,39.9,39.9,0,0,0,4.24,4.84,39.9,39.9,0,0,1,4.24,4.84,7.54,7.54,0,0,1,0,9.68,39.9,39.9,0,0,1-4.24,4.84,39.9,39.9,0,0,0-4.24,4.84,7.53,7.53,0,0,0,0,9.68,40.67,40.67,0,0,0,4.24,4.84,39.16,39.16,0,0,1,4.24,4.84,7.53,7.53,0,0,1,0,9.68,40.67,40.67,0,0,1-4.24,4.84c-1.57,1.61-4.24,2.88-4.24,4.84" fill="none" stroke="#adaead" stroke-miterlimit="10"/></g><rect x="66.5" y="30.5" width="249" height="142" fill="#fff"/><path d="M315,31V172H67V31H315m1-1H66V173H316V30Z" fill="#4d5359"/><path d="M85.35,50H83.29l-.6-1.87h-3L79.11,50H77.06l3.06-8.4h2.24Zm-3.09-3.32-.9-2.82a3.68,3.68,0,0,1-.14-.76h0a3.2,3.2,0,0,1-.15.73l-.91,2.85Z" fill="#2b3033"/><path d="M88.09,49.3h0V50H86.22V41.12h1.85V44.9h0a2.2,2.2,0,0,1,2-1,2.14,2.14,0,0,1,1.79.8,3.44,3.44,0,0,1,.63,2.18,3.72,3.72,0,0,1-.73,2.41,2.39,2.39,0,0,1-2,.91A1.89,1.89,0,0,1,88.09,49.3ZM88,46.77v.62a1.4,1.4,0,0,0,.33,1,1.09,1.09,0,0,0,.86.38,1.14,1.14,0,0,0,1-.49,2.36,2.36,0,0,0,.35-1.39,1.88,1.88,0,0,0-.32-1.16,1.08,1.08,0,0,0-.91-.42,1.18,1.18,0,0,0-.92.42A1.58,1.58,0,0,0,88,46.77Z" fill="#2b3033"/><path d="M96.52,50.15a3.23,3.23,0,0,1-2.36-.84,3.48,3.48,0,0,1,0-4.61,3.37,3.37,0,0,1,2.41-.84,3.19,3.19,0,0,1,2.34.84,3,3,0,0,1,.85,2.22,3.17,3.17,0,0,1-.88,2.36A3.26,3.26,0,0,1,96.52,50.15Zm0-4.87a1.23,1.23,0,0,0-1,.45A2,2,0,0,0,95.18,47q0,1.73,1.39,1.73T97.91,47Q97.91,45.27,96.56,45.27Z" fill="#2b3033"/><path d="M104.91,45.67a1.61,1.61,0,0,0-.78-.18,1.12,1.12,0,0,0-.94.44,1.93,1.93,0,0,0-.34,1.2V50H101V44h1.85v1.11h0a1.6,1.6,0,0,1,1.58-1.22,1.19,1.19,0,0,1,.46.07Z" fill="#2b3033"/><path d="M109.74,49.93a2.74,2.74,0,0,1-1.24.22q-2,0-2-2V45.37h-1V44h1V42.71l1.85-.53V44h1.35v1.37h-1.35v2.43q0,.94.74.94a1.25,1.25,0,0,0,.6-.17Z" fill="#2b3033"/><path d="M117.65,51.91h-1.51a7.35,7.35,0,0,1-1.89-5.13,7.82,7.82,0,0,1,1.89-5.19h1.5a8.42,8.42,0,0,0-1.78,5.19A8.14,8.14,0,0,0,117.65,51.91Z" fill="#2b3033"/><path d="M124.73,49.7a5.54,5.54,0,0,1-2.4.45,4,4,0,0,1-3-1.14,4.16,4.16,0,0,1-1.11-3,4.44,4.44,0,0,1,1.25-3.27,4.36,4.36,0,0,1,3.23-1.25,6,6,0,0,1,2.07.31v1.82a3.68,3.68,0,0,0-1.92-.5,2.55,2.55,0,0,0-1.91.74,2.76,2.76,0,0,0-.73,2,2.71,2.71,0,0,0,.69,1.94,2.42,2.42,0,0,0,1.85.72,3.94,3.94,0,0,0,2-.54Z" fill="#2b3033"/><path d="M129.64,49.93a2.74,2.74,0,0,1-1.24.22q-2,0-2-2V45.37h-1V44h1V42.71l1.85-.53V44h1.35v1.37h-1.35v2.43q0,.94.74.94a1.25,1.25,0,0,0,.6-.17Z" fill="#2b3033"/><path d="M134.6,45.67a1.61,1.61,0,0,0-.78-.18,1.12,1.12,0,0,0-.94.44,1.93,1.93,0,0,0-.34,1.2V50h-1.85V44h1.85v1.11h0a1.6,1.6,0,0,1,1.58-1.22,1.19,1.19,0,0,1,.46.07Z" fill="#2b3033"/><path d="M137.31,50h-1.85V41.12h1.85Z" fill="#2b3033"/><path d="M145.19,47.16h-2.26v2.26h-1.18V47.16h-2.27V46h2.27V43.7h1.18V46h2.26Z" fill="#2b3033"/><path d="M148.18,50.15a1.08,1.08,0,0,1-.76-.28.9.9,0,0,1-.3-.69.87.87,0,0,1,.31-.69,1.16,1.16,0,0,1,.78-.27,1.11,1.11,0,0,1,.78.27.94.94,0,0,1,0,1.39A1.16,1.16,0,0,1,148.18,50.15Z" fill="#2b3033"/><path d="M151.43,51.91h-1.5a8.1,8.1,0,0,0,1.79-5.13,8.4,8.4,0,0,0-1.79-5.19h1.51a7.82,7.82,0,0,1,1.9,5.19A7.36,7.36,0,0,1,151.43,51.91Z" fill="#2b3033"/><path d="M77.71,73.66V72.5a2.25,2.25,0,0,0,.48.32,3.87,3.87,0,0,0,.59.24,4.66,4.66,0,0,0,.62.15,3.45,3.45,0,0,0,.57.05,2.25,2.25,0,0,0,1.36-.34,1.26,1.26,0,0,0,.3-1.56,1.68,1.68,0,0,0-.41-.46,4.1,4.1,0,0,0-.62-.4l-.78-.4q-.44-.22-.82-.45a3.55,3.55,0,0,1-.66-.5,2.1,2.1,0,0,1-.44-.62A2.13,2.13,0,0,1,78,66.7a2.16,2.16,0,0,1,.66-.7,3,3,0,0,1,.93-.41,4.28,4.28,0,0,1,1.07-.13,4.1,4.1,0,0,1,1.81.3v1.11a3.28,3.28,0,0,0-1.91-.52,3.14,3.14,0,0,0-.64.07,1.82,1.82,0,0,0-.57.22,1.27,1.27,0,0,0-.41.39,1,1,0,0,0-.16.59,1.21,1.21,0,0,0,.12.56,1.36,1.36,0,0,0,.35.43,3.53,3.53,0,0,0,.57.38l.78.4q.45.22.86.47a3.91,3.91,0,0,1,.71.54,2.42,2.42,0,0,1,.48.66,1.86,1.86,0,0,1,.18.83,2.11,2.11,0,0,1-.24,1.05,2,2,0,0,1-.66.7,2.87,2.87,0,0,1-1,.39,5.21,5.21,0,0,1-1.14.12l-.49,0-.6-.09a4.88,4.88,0,0,1-.58-.15A1.8,1.8,0,0,1,77.71,73.66Z" fill="#2b3033"/><path d="M86.74,73.94a1.85,1.85,0,0,1-.9.19q-1.58,0-1.58-1.76V68.82h-1V68h1V66.54l1-.31V68h1.51v.82H85.23V72.2a1.4,1.4,0,0,0,.21.86.82.82,0,0,0,.68.26,1,1,0,0,0,.63-.2Z" fill="#2b3033"/><path d="M90.44,74.14a2.78,2.78,0,0,1-2.12-.84,3.11,3.11,0,0,1-.79-2.23,3.24,3.24,0,0,1,.83-2.36,3,3,0,0,1,2.23-.85,2.69,2.69,0,0,1,2.09.83A3.28,3.28,0,0,1,93.43,71a3.22,3.22,0,0,1-.81,2.3A2.84,2.84,0,0,1,90.44,74.14Zm.07-5.47A1.83,1.83,0,0,0,89,69.3,2.59,2.59,0,0,0,88.51,71a2.45,2.45,0,0,0,.54,1.68,1.85,1.85,0,0,0,1.46.62,1.76,1.76,0,0,0,1.43-.6,2.62,2.62,0,0,0,.5-1.72,2.66,2.66,0,0,0-.5-1.73A1.75,1.75,0,0,0,90.51,68.67Z" fill="#2b3033"/><path d="M95.95,73.13h0v3.63H95V68h1v1.05h0A2.27,2.27,0,0,1,98,67.86a2.2,2.2,0,0,1,1.81.81,3.34,3.34,0,0,1,.65,2.16,3.72,3.72,0,0,1-.73,2.41,2.44,2.44,0,0,1-2,.91A2,2,0,0,1,95.95,73.13Zm0-2.42v.84a1.78,1.78,0,0,0,.48,1.26,1.72,1.72,0,0,0,2.6-.15,3.06,3.06,0,0,0,.5-1.86A2.42,2.42,0,0,0,99,69.24a1.53,1.53,0,0,0-1.25-.57,1.7,1.7,0,0,0-1.35.58A2.14,2.14,0,0,0,95.93,70.71Z" fill="#2b3033"/><path d="M101.66,73.78v-1a2.84,2.84,0,0,0,1.73.58q1.27,0,1.27-.84a.73.73,0,0,0-.11-.41,1.08,1.08,0,0,0-.29-.3,2.26,2.26,0,0,0-.43-.23l-.54-.21a6.9,6.9,0,0,1-.7-.32,2.12,2.12,0,0,1-.5-.36,1.35,1.35,0,0,1-.3-.46,1.63,1.63,0,0,1-.1-.6,1.43,1.43,0,0,1,.19-.75,1.71,1.71,0,0,1,.52-.54,2.4,2.4,0,0,1,.74-.33,3.26,3.26,0,0,1,.85-.11,3.44,3.44,0,0,1,1.39.27v1a2.72,2.72,0,0,0-1.52-.43,1.78,1.78,0,0,0-.49.06,1.19,1.19,0,0,0-.37.17.8.8,0,0,0-.24.27.7.7,0,0,0-.08.34.82.82,0,0,0,.08.39.86.86,0,0,0,.25.28,1.9,1.9,0,0,0,.4.22l.53.22a7.42,7.42,0,0,1,.71.31,2.45,2.45,0,0,1,.54.36,1.42,1.42,0,0,1,.34.47,1.5,1.5,0,0,1,.12.63,1.48,1.48,0,0,1-.2.77,1.68,1.68,0,0,1-.52.54,2.4,2.4,0,0,1-.76.32,3.73,3.73,0,0,1-.9.11A3.4,3.4,0,0,1,101.66,73.78Z" fill="#2b3033"/><path d="M113.18,73.94a1.85,1.85,0,0,1-.9.19q-1.58,0-1.58-1.76V68.82h-1V68h1V66.54l1-.31V68h1.51v.82h-1.51V72.2a1.4,1.4,0,0,0,.21.86.82.82,0,0,0,.68.26,1,1,0,0,0,.63-.2Z" fill="#2b3033"/><path d="M119.45,74h-1V70.54q0-1.87-1.39-1.87a1.52,1.52,0,0,0-1.18.54,2,2,0,0,0-.48,1.39V74h-1V65.12h1V69h0a2.18,2.18,0,0,1,2-1.14q2,0,2,2.44Z" fill="#2b3033"/><path d="M126.08,71.24h-4.24a2.24,2.24,0,0,0,.54,1.55,1.86,1.86,0,0,0,1.42.54,3,3,0,0,0,1.86-.67v.9a3.48,3.48,0,0,1-2.09.57,2.54,2.54,0,0,1-2-.82,3.35,3.35,0,0,1-.73-2.3,3.28,3.28,0,0,1,.79-2.28,2.55,2.55,0,0,1,2-.88,2.26,2.26,0,0,1,1.82.76,3.18,3.18,0,0,1,.64,2.12Zm-1-.81a2,2,0,0,0-.4-1.29,1.37,1.37,0,0,0-1.1-.46,1.55,1.55,0,0,0-1.15.49,2.21,2.21,0,0,0-.59,1.27Z" fill="#2b3033"/><path d="M134.91,73.72a3.12,3.12,0,0,1-1.64.42,2.72,2.72,0,0,1-2.07-.83,3,3,0,0,1-.79-2.17,3.33,3.33,0,0,1,.85-2.38,3,3,0,0,1,2.27-.9,3.16,3.16,0,0,1,1.39.29v1a2.44,2.44,0,0,0-1.43-.47,1.93,1.93,0,0,0-1.51.66,2.5,2.5,0,0,0-.59,1.73,2.38,2.38,0,0,0,.55,1.66,1.91,1.91,0,0,0,1.49.61,2.41,2.41,0,0,0,1.48-.52Z" fill="#2b3033"/><path d="M138.87,74.14a2.78,2.78,0,0,1-2.12-.84,3.11,3.11,0,0,1-.79-2.23,3.24,3.24,0,0,1,.83-2.36,3,3,0,0,1,2.23-.85,2.69,2.69,0,0,1,2.09.83,3.28,3.28,0,0,1,.75,2.29,3.22,3.22,0,0,1-.81,2.3A2.84,2.84,0,0,1,138.87,74.14Zm.07-5.47a1.83,1.83,0,0,0-1.46.63,2.59,2.59,0,0,0-.54,1.74,2.45,2.45,0,0,0,.54,1.68,1.85,1.85,0,0,0,1.46.62,1.76,1.76,0,0,0,1.43-.6,2.62,2.62,0,0,0,.5-1.72,2.66,2.66,0,0,0-.5-1.73A1.75,1.75,0,0,0,138.94,68.67Z" fill="#2b3033"/><path d="M148.51,74h-1V73h0a2.22,2.22,0,0,1-2.06,1.16,2.24,2.24,0,0,1-1.81-.81,3.31,3.31,0,0,1-.68-2.19,3.6,3.6,0,0,1,.75-2.38,2.47,2.47,0,0,1,2-.9,1.92,1.92,0,0,1,1.8,1h0V65.12h1Zm-1-2.71V70.4a1.72,1.72,0,0,0-.48-1.23,1.61,1.61,0,0,0-1.22-.5,1.66,1.66,0,0,0-1.38.64,2.82,2.82,0,0,0-.5,1.78,2.54,2.54,0,0,0,.48,1.64,1.58,1.58,0,0,0,1.3.6,1.64,1.64,0,0,0,1.3-.58A2.16,2.16,0,0,0,147.55,71.29Z" fill="#2b3033"/><path d="M155.28,71.24H151a2.24,2.24,0,0,0,.54,1.55,1.86,1.86,0,0,0,1.42.54,3,3,0,0,0,1.86-.67v.9a3.48,3.48,0,0,1-2.09.57,2.54,2.54,0,0,1-2-.82A3.35,3.35,0,0,1,150,71a3.28,3.28,0,0,1,.79-2.28,2.55,2.55,0,0,1,2-.88,2.26,2.26,0,0,1,1.82.76,3.18,3.18,0,0,1,.64,2.12Zm-1-.81a2,2,0,0,0-.4-1.29,1.37,1.37,0,0,0-1.1-.46,1.55,1.55,0,0,0-1.15.49,2.21,2.21,0,0,0-.59,1.27Z" fill="#2b3033"/><path d="M160.51,66.48a.61.61,0,0,1-.44-.18.59.59,0,0,1-.18-.45.62.62,0,0,1,.62-.63.62.62,0,0,1,.45.18.63.63,0,0,1,0,.89A.62.62,0,0,1,160.51,66.48ZM161,74h-1V68h1Z" fill="#2b3033"/><path d="M171.45,74h-1V70.55a2.6,2.6,0,0,0-.31-1.44,1.17,1.17,0,0,0-1-.45,1.28,1.28,0,0,0-1,.56,2.15,2.15,0,0,0-.43,1.35V74h-1V70.44q0-1.77-1.37-1.77a1.26,1.26,0,0,0-1,.53,2.19,2.19,0,0,0-.41,1.38V74h-1V68h1v.95h0a2,2,0,0,1,1.86-1.09,1.73,1.73,0,0,1,1.7,1.24,2.14,2.14,0,0,1,2-1.24q2,0,2,2.44Z" fill="#2b3033"/><path d="M181.78,74h-1V70.55a2.6,2.6,0,0,0-.31-1.44,1.17,1.17,0,0,0-1-.45,1.28,1.28,0,0,0-1,.56,2.15,2.15,0,0,0-.43,1.35V74h-1V70.44q0-1.77-1.37-1.77a1.26,1.26,0,0,0-1,.53,2.19,2.19,0,0,0-.41,1.38V74h-1V68h1v.95h0a2,2,0,0,1,1.86-1.09,1.73,1.73,0,0,1,1.7,1.24,2.14,2.14,0,0,1,2-1.24q2,0,2,2.44Z" fill="#2b3033"/><path d="M188.42,71.24h-4.24a2.24,2.24,0,0,0,.54,1.55,1.86,1.86,0,0,0,1.42.54,3,3,0,0,0,1.86-.67v.9a3.48,3.48,0,0,1-2.09.57,2.54,2.54,0,0,1-2-.82,3.35,3.35,0,0,1-.73-2.3,3.28,3.28,0,0,1,.79-2.28,2.55,2.55,0,0,1,2-.88,2.26,2.26,0,0,1,1.82.76,3.18,3.18,0,0,1,.64,2.12Zm-1-.81a2,2,0,0,0-.4-1.29,1.37,1.37,0,0,0-1.1-.46,1.55,1.55,0,0,0-1.15.49,2.21,2.21,0,0,0-.59,1.27Z" fill="#2b3033"/><path d="M195,74h-1V73h0a2.22,2.22,0,0,1-2.06,1.16,2.24,2.24,0,0,1-1.81-.81,3.31,3.31,0,0,1-.68-2.19,3.6,3.6,0,0,1,.75-2.38,2.47,2.47,0,0,1,2-.9,1.92,1.92,0,0,1,1.8,1h0V65.12h1Zm-1-2.71V70.4a1.72,1.72,0,0,0-.48-1.23,1.61,1.61,0,0,0-1.22-.5,1.66,1.66,0,0,0-1.38.64,2.82,2.82,0,0,0-.5,1.78,2.54,2.54,0,0,0,.48,1.64,1.58,1.58,0,0,0,1.3.6,1.64,1.64,0,0,0,1.3-.58A2.16,2.16,0,0,0,194,71.29Z" fill="#2b3033"/><path d="M197.43,66.48a.61.61,0,0,1-.44-.18.59.59,0,0,1-.18-.45.62.62,0,0,1,.62-.63.62.62,0,0,1,.45.18.63.63,0,0,1,0,.89A.62.62,0,0,1,197.43,66.48ZM197.9,74h-1V68h1Z" fill="#2b3033"/><path d="M204.14,74h-1v-.94h0a2,2,0,0,1-1.85,1.08,2,2,0,0,1-1.4-.47,1.64,1.64,0,0,1-.51-1.26q0-1.68,2-2l1.8-.25q0-1.53-1.24-1.53a3,3,0,0,0-2,.74v-1a3.72,3.72,0,0,1,2-.56q2.12,0,2.12,2.24Zm-1-3-1.45.2a2.35,2.35,0,0,0-1,.33,1,1,0,0,0-.34.84.92.92,0,0,0,.31.72,1.21,1.21,0,0,0,.83.28,1.54,1.54,0,0,0,1.18-.5,1.79,1.79,0,0,0,.47-1.27Z" fill="#2b3033"/><path d="M208.74,73.94a1.85,1.85,0,0,1-.9.19q-1.58,0-1.58-1.76V68.82h-1V68h1V66.54l1-.31V68h1.51v.82h-1.51V72.2a1.4,1.4,0,0,0,.21.86.82.82,0,0,0,.68.26,1,1,0,0,0,.63-.2Z" fill="#2b3033"/><path d="M214.75,71.24h-4.24a2.24,2.24,0,0,0,.54,1.55,1.86,1.86,0,0,0,1.42.54,3,3,0,0,0,1.86-.67v.9a3.48,3.48,0,0,1-2.09.57,2.54,2.54,0,0,1-2-.82,3.35,3.35,0,0,1-.73-2.3,3.28,3.28,0,0,1,.79-2.28,2.55,2.55,0,0,1,2-.88,2.26,2.26,0,0,1,1.82.76,3.18,3.18,0,0,1,.64,2.12Zm-1-.81a2,2,0,0,0-.4-1.29,1.37,1.37,0,0,0-1.1-.46,1.55,1.55,0,0,0-1.15.49,2.21,2.21,0,0,0-.59,1.27Z" fill="#2b3033"/><path d="M217.16,74h-1V65.12h1Z" fill="#2b3033"/><path d="M223.88,68l-2.76,7q-.74,1.86-2.07,1.86a2.2,2.2,0,0,1-.63-.08v-.86A1.78,1.78,0,0,0,219,76a1.18,1.18,0,0,0,1.09-.87l.48-1.14-2.34-6h1.07l1.62,4.62q0,.09.12.46h0q0-.14.12-.45L222.89,68Z" fill="#2b3033"/><path d="M225.2,72.66l-.94,2.88h-.69l.69-2.88Z" fill="#2b3033"/><path d="M231.19,73.13h0V74h-1V65.12h1v3.94h0a2.27,2.27,0,0,1,2.07-1.2,2.2,2.2,0,0,1,1.81.81,3.33,3.33,0,0,1,.65,2.16,3.72,3.72,0,0,1-.73,2.41,2.44,2.44,0,0,1-2,.91A2,2,0,0,1,231.19,73.13Zm0-2.42v.84a1.78,1.78,0,0,0,.48,1.26,1.72,1.72,0,0,0,2.6-.15,3.06,3.06,0,0,0,.5-1.86,2.42,2.42,0,0,0-.46-1.57,1.53,1.53,0,0,0-1.25-.57,1.7,1.7,0,0,0-1.35.58A2.14,2.14,0,0,0,231.17,70.71Z" fill="#2b3033"/><path d="M242.08,71.24h-4.24a2.24,2.24,0,0,0,.54,1.55,1.86,1.86,0,0,0,1.42.54,3,3,0,0,0,1.86-.67v.9a3.48,3.48,0,0,1-2.09.57,2.54,2.54,0,0,1-2-.82,3.35,3.35,0,0,1-.73-2.3,3.28,3.28,0,0,1,.79-2.28,2.55,2.55,0,0,1,2-.88,2.26,2.26,0,0,1,1.82.76,3.18,3.18,0,0,1,.64,2.12Zm-1-.81a2,2,0,0,0-.4-1.29,1.37,1.37,0,0,0-1.1-.46,1.55,1.55,0,0,0-1.15.49,2.21,2.21,0,0,0-.59,1.27Z" fill="#2b3033"/><path d="M246.5,66a1.28,1.28,0,0,0-.64-.16q-1,0-1,1.27V68h1.41v.82h-1.41V74h-1V68.82h-1V68h1V67a2,2,0,0,1,.54-1.49A1.84,1.84,0,0,1,245.8,65a1.88,1.88,0,0,1,.7.11Z" fill="#2b3033"/><path d="M249.8,74.14a2.78,2.78,0,0,1-2.12-.84,3.11,3.11,0,0,1-.79-2.23,3.24,3.24,0,0,1,.83-2.36,3,3,0,0,1,2.23-.85,2.69,2.69,0,0,1,2.09.83,3.28,3.28,0,0,1,.75,2.29,3.22,3.22,0,0,1-.81,2.3A2.84,2.84,0,0,1,249.8,74.14Zm.07-5.47a1.83,1.83,0,0,0-1.46.63,2.59,2.59,0,0,0-.54,1.74,2.45,2.45,0,0,0,.54,1.68,1.85,1.85,0,0,0,1.46.62,1.76,1.76,0,0,0,1.43-.6,2.62,2.62,0,0,0,.5-1.72,2.66,2.66,0,0,0-.5-1.73A1.75,1.75,0,0,0,249.87,68.67Z" fill="#2b3033"/><path d="M257.45,69a1.18,1.18,0,0,0-.73-.19,1.23,1.23,0,0,0-1,.58,2.68,2.68,0,0,0-.41,1.58V74h-1V68h1v1.24h0a2.1,2.1,0,0,1,.63-1,1.43,1.43,0,0,1,.94-.35,1.57,1.57,0,0,1,.57.08Z" fill="#2b3033"/><path d="M263.16,71.24h-4.24a2.24,2.24,0,0,0,.54,1.55,1.86,1.86,0,0,0,1.42.54,3,3,0,0,0,1.86-.67v.9a3.48,3.48,0,0,1-2.09.57,2.54,2.54,0,0,1-2-.82,3.35,3.35,0,0,1-.73-2.3,3.28,3.28,0,0,1,.79-2.28,2.55,2.55,0,0,1,2-.88,2.26,2.26,0,0,1,1.82.76,3.18,3.18,0,0,1,.64,2.12Zm-1-.81a2,2,0,0,0-.4-1.29,1.37,1.37,0,0,0-1.1-.46,1.55,1.55,0,0,0-1.15.49,2.21,2.21,0,0,0-.59,1.27Z" fill="#2b3033"/><path d="M268.39,66.48a.61.61,0,0,1-.44-.18.59.59,0,0,1-.18-.45.62.62,0,0,1,.62-.63.62.62,0,0,1,.45.18.63.63,0,0,1,0,.89A.62.62,0,0,1,268.39,66.48Zm.47,7.52h-1V68h1Z" fill="#2b3033"/><path d="M273.59,73.94a1.85,1.85,0,0,1-.9.19q-1.58,0-1.58-1.76V68.82h-1V68h1V66.54l1-.31V68h1.51v.82h-1.51V72.2a1.4,1.4,0,0,0,.21.86.82.82,0,0,0,.68.26,1,1,0,0,0,.63-.2Z" fill="#2b3033"/><path d="M80.94,84a1.28,1.28,0,0,0-.64-.16q-1,0-1,1.27V86H80.7v.82H79.29V92h-1V86.82h-1V86h1V85a2,2,0,0,1,.54-1.49A1.84,1.84,0,0,1,80.24,83a1.88,1.88,0,0,1,.7.11Z" fill="#2b3033"/><path d="M82.22,84.48a.61.61,0,0,1-.44-.18.59.59,0,0,1-.18-.45.62.62,0,0,1,.62-.63.62.62,0,0,1,.45.18.63.63,0,0,1,0,.89A.62.62,0,0,1,82.22,84.48ZM82.69,92h-1V86h1Z" fill="#2b3033"/><path d="M89.62,92h-1V88.58q0-1.91-1.39-1.91a1.51,1.51,0,0,0-1.19.54,2,2,0,0,0-.47,1.37V92h-1V86h1v1h0a2.17,2.17,0,0,1,2-1.14,1.84,1.84,0,0,1,1.51.64,2.83,2.83,0,0,1,.52,1.84Z" fill="#2b3033"/><path d="M91.92,84.48a.61.61,0,0,1-.44-.18.59.59,0,0,1-.18-.45.62.62,0,0,1,.62-.63.62.62,0,0,1,.45.18.63.63,0,0,1,0,.89A.62.62,0,0,1,91.92,84.48ZM92.39,92h-1V86h1Z" fill="#2b3033"/><path d="M94,91.78v-1a2.84,2.84,0,0,0,1.73.58q1.27,0,1.27-.84a.73.73,0,0,0-.11-.41,1.08,1.08,0,0,0-.29-.3,2.26,2.26,0,0,0-.43-.23l-.54-.21a6.9,6.9,0,0,1-.7-.32,2.12,2.12,0,0,1-.5-.36,1.35,1.35,0,0,1-.3-.46,1.63,1.63,0,0,1-.1-.6,1.43,1.43,0,0,1,.19-.75,1.71,1.71,0,0,1,.52-.54,2.4,2.4,0,0,1,.74-.33,3.26,3.26,0,0,1,.85-.11,3.44,3.44,0,0,1,1.39.27v1a2.72,2.72,0,0,0-1.52-.43,1.78,1.78,0,0,0-.49.06,1.19,1.19,0,0,0-.37.17.8.8,0,0,0-.24.27.7.7,0,0,0-.08.34.82.82,0,0,0,.08.39.86.86,0,0,0,.25.28,1.9,1.9,0,0,0,.4.22l.53.22a7.42,7.42,0,0,1,.71.31,2.45,2.45,0,0,1,.54.36,1.42,1.42,0,0,1,.34.47,1.5,1.5,0,0,1,.12.63,1.48,1.48,0,0,1-.2.77,1.68,1.68,0,0,1-.52.54,2.4,2.4,0,0,1-.76.32,3.73,3.73,0,0,1-.9.11A3.4,3.4,0,0,1,94,91.78Z" fill="#2b3033"/><path d="M104.4,92h-1V88.54q0-1.87-1.39-1.87a1.52,1.52,0,0,0-1.18.54,2,2,0,0,0-.48,1.39V92h-1V83.12h1V87h0a2.18,2.18,0,0,1,2-1.14q2,0,2,2.44Z" fill="#2b3033"/><path d="M111,89.24H106.8a2.24,2.24,0,0,0,.54,1.55,1.86,1.86,0,0,0,1.42.54,3,3,0,0,0,1.86-.67v.9a3.48,3.48,0,0,1-2.09.57,2.54,2.54,0,0,1-2-.82,3.35,3.35,0,0,1-.73-2.3,3.28,3.28,0,0,1,.79-2.28,2.55,2.55,0,0,1,2-.88,2.26,2.26,0,0,1,1.82.76,3.18,3.18,0,0,1,.64,2.12Zm-1-.81a2,2,0,0,0-.4-1.29,1.37,1.37,0,0,0-1.1-.46,1.55,1.55,0,0,0-1.15.49,2.21,2.21,0,0,0-.59,1.27Z" fill="#2b3033"/><path d="M112.13,91.78v-1a2.84,2.84,0,0,0,1.73.58q1.27,0,1.27-.84a.73.73,0,0,0-.11-.41,1.08,1.08,0,0,0-.29-.3,2.26,2.26,0,0,0-.43-.23l-.54-.21A6.9,6.9,0,0,1,113,89a2.12,2.12,0,0,1-.5-.36,1.35,1.35,0,0,1-.3-.46,1.63,1.63,0,0,1-.1-.6,1.43,1.43,0,0,1,.19-.75,1.71,1.71,0,0,1,.52-.54,2.4,2.4,0,0,1,.74-.33,3.26,3.26,0,0,1,.85-.11,3.44,3.44,0,0,1,1.39.27v1a2.72,2.72,0,0,0-1.52-.43,1.78,1.78,0,0,0-.49.06,1.19,1.19,0,0,0-.37.17.8.8,0,0,0-.24.27.7.7,0,0,0-.08.34.82.82,0,0,0,.08.39.86.86,0,0,0,.25.28,1.9,1.9,0,0,0,.4.22l.53.22a7.42,7.42,0,0,1,.71.31,2.45,2.45,0,0,1,.54.36,1.42,1.42,0,0,1,.34.47,1.5,1.5,0,0,1,.12.63,1.48,1.48,0,0,1-.2.77,1.68,1.68,0,0,1-.52.54,2.4,2.4,0,0,1-.76.32,3.73,3.73,0,0,1-.9.11A3.4,3.4,0,0,1,112.13,91.78Z" fill="#2b3033"/><path d="M125.69,89.24h-4.24a2.24,2.24,0,0,0,.54,1.55,1.86,1.86,0,0,0,1.42.54,3,3,0,0,0,1.86-.67v.9a3.48,3.48,0,0,1-2.09.57,2.54,2.54,0,0,1-2-.82,3.35,3.35,0,0,1-.73-2.3,3.28,3.28,0,0,1,.79-2.28,2.55,2.55,0,0,1,2-.88,2.26,2.26,0,0,1,1.82.76,3.18,3.18,0,0,1,.64,2.12Zm-1-.81a2,2,0,0,0-.4-1.29,1.37,1.37,0,0,0-1.1-.46,1.55,1.55,0,0,0-1.15.49,2.21,2.21,0,0,0-.59,1.27Z" fill="#2b3033"/><path d="M131.53,86l-2,3,2,3h-1.12l-1.18-1.95-.26-.46h0l-.28.46L127.43,92h-1.11l2-2.94-2-3.06h1.12l1.16,2.05.25.47h0l1.5-2.52Z" fill="#2b3033"/><path d="M137.38,89.24h-4.24a2.24,2.24,0,0,0,.54,1.55,1.86,1.86,0,0,0,1.42.54,3,3,0,0,0,1.86-.67v.9a3.48,3.48,0,0,1-2.09.57,2.54,2.54,0,0,1-2-.82,3.35,3.35,0,0,1-.73-2.3,3.28,3.28,0,0,1,.79-2.28,2.55,2.55,0,0,1,2-.88,2.26,2.26,0,0,1,1.82.76,3.18,3.18,0,0,1,.64,2.12Zm-1-.81a2,2,0,0,0-.4-1.29,1.37,1.37,0,0,0-1.1-.46,1.55,1.55,0,0,0-1.15.49,2.21,2.21,0,0,0-.59,1.27Z" fill="#2b3033"/><path d="M142.92,91.72a3.12,3.12,0,0,1-1.64.42,2.72,2.72,0,0,1-2.07-.83,3,3,0,0,1-.79-2.17,3.33,3.33,0,0,1,.85-2.38,3,3,0,0,1,2.27-.9,3.16,3.16,0,0,1,1.39.29v1a2.44,2.44,0,0,0-1.43-.47,1.93,1.93,0,0,0-1.51.66,2.5,2.5,0,0,0-.59,1.73,2.38,2.38,0,0,0,.55,1.66,1.91,1.91,0,0,0,1.49.61,2.41,2.41,0,0,0,1.48-.52Z" fill="#2b3033"/><path d="M149.23,92h-1v-.95h0a2,2,0,0,1-1.85,1.09q-2.14,0-2.14-2.55V86h1v3.43q0,1.9,1.45,1.9a1.47,1.47,0,0,0,1.16-.52,2,2,0,0,0,.45-1.36V86h1Z" fill="#2b3033"/><path d="M154,91.94a1.85,1.85,0,0,1-.9.19q-1.58,0-1.58-1.76V86.82h-1V86h1V84.54l1-.31V86H154v.82h-1.51V90.2a1.4,1.4,0,0,0,.21.86.82.82,0,0,0,.68.26,1,1,0,0,0,.63-.2Z" fill="#2b3033"/><path d="M155.73,84.48a.61.61,0,0,1-.44-.18.59.59,0,0,1-.18-.45.62.62,0,0,1,.62-.63.62.62,0,0,1,.45.18.63.63,0,0,1,0,.89A.62.62,0,0,1,155.73,84.48ZM156.2,92h-1V86h1Z" fill="#2b3033"/><path d="M163.12,92h-1V88.58q0-1.91-1.39-1.91a1.51,1.51,0,0,0-1.19.54,2,2,0,0,0-.47,1.37V92h-1V86h1v1h0a2.17,2.17,0,0,1,2-1.14,1.84,1.84,0,0,1,1.51.64,2.83,2.83,0,0,1,.52,1.84Z" fill="#2b3033"/><path d="M170.05,91.52q0,3.3-3.16,3.3a4.25,4.25,0,0,1-1.95-.42v-1a4,4,0,0,0,1.93.56q2.21,0,2.21-2.36V91h0a2.43,2.43,0,0,1-3.86.35,3.2,3.2,0,0,1-.68-2.15,3.74,3.74,0,0,1,.74-2.43,2.46,2.46,0,0,1,2-.9,2,2,0,0,1,1.8,1h0V86h1Zm-1-2.23V88.4a1.72,1.72,0,0,0-.48-1.22,1.59,1.59,0,0,0-1.2-.51,1.67,1.67,0,0,0-1.39.65,2.89,2.89,0,0,0-.5,1.81,2.48,2.48,0,0,0,.48,1.6,1.56,1.56,0,0,0,1.28.6,1.67,1.67,0,0,0,1.32-.57A2.14,2.14,0,0,0,169.09,89.29Z" fill="#2b3033"/><path d="M172.33,92.13a.62.62,0,0,1-.46-.19.64.64,0,0,1-.19-.46.65.65,0,0,1,.19-.47.62.62,0,0,1,.46-.2.63.63,0,0,1,.47.2.64.64,0,0,1,.19.47.63.63,0,0,1-.19.46A.64.64,0,0,1,172.33,92.13Z" fill="#2b3033"/><path d="M184.52,92h-1.09l-.89-2.36H179L178.14,92H177l3.22-8.4h1Zm-2.3-3.24-1.32-3.58a3.43,3.43,0,0,1-.13-.56h0a3.14,3.14,0,0,1-.13.56l-1.31,3.58Z" fill="#2b3033"/><path d="M186.61,91.13h0V92h-1V83.12h1v3.94h0a2.27,2.27,0,0,1,2.07-1.2,2.2,2.2,0,0,1,1.81.81,3.33,3.33,0,0,1,.65,2.16,3.72,3.72,0,0,1-.73,2.41,2.44,2.44,0,0,1-2,.91A2,2,0,0,1,186.61,91.13Zm0-2.42v.84a1.78,1.78,0,0,0,.48,1.26,1.72,1.72,0,0,0,2.6-.15,3.06,3.06,0,0,0,.5-1.86,2.42,2.42,0,0,0-.46-1.57,1.53,1.53,0,0,0-1.25-.57,1.7,1.7,0,0,0-1.35.58A2.14,2.14,0,0,0,186.59,88.71Z" fill="#2b3033"/><path d="M195.19,92.14a2.78,2.78,0,0,1-2.12-.84,3.11,3.11,0,0,1-.79-2.23,3.24,3.24,0,0,1,.83-2.36,3,3,0,0,1,2.23-.85,2.69,2.69,0,0,1,2.09.83,3.28,3.28,0,0,1,.75,2.29,3.22,3.22,0,0,1-.81,2.3A2.84,2.84,0,0,1,195.19,92.14Zm.07-5.47a1.83,1.83,0,0,0-1.46.63,2.59,2.59,0,0,0-.54,1.74,2.45,2.45,0,0,0,.54,1.68,1.85,1.85,0,0,0,1.46.62,1.76,1.76,0,0,0,1.43-.6,2.62,2.62,0,0,0,.5-1.72,2.66,2.66,0,0,0-.5-1.73A1.75,1.75,0,0,0,195.26,86.67Z" fill="#2b3033"/><path d="M202.84,87a1.18,1.18,0,0,0-.73-.19,1.23,1.23,0,0,0-1,.58,2.68,2.68,0,0,0-.41,1.58V92h-1V86h1v1.24h0a2.1,2.1,0,0,1,.63-1,1.43,1.43,0,0,1,.94-.35,1.57,1.57,0,0,1,.57.08Z" fill="#2b3033"/><path d="M207,91.94a1.85,1.85,0,0,1-.9.19q-1.58,0-1.58-1.76V86.82h-1V86h1V84.54l1-.31V86H207v.82H205.5V90.2a1.4,1.4,0,0,0,.21.86.82.82,0,0,0,.68.26,1,1,0,0,0,.63-.2Z" fill="#2b3033"/><path d="M208.79,84.48a.61.61,0,0,1-.44-.18.59.59,0,0,1-.18-.45.62.62,0,0,1,.62-.63.62.62,0,0,1,.45.18.63.63,0,0,1,0,.89A.62.62,0,0,1,208.79,84.48Zm.47,7.52h-1V86h1Z" fill="#2b3033"/><path d="M216.18,92h-1V88.58q0-1.91-1.39-1.91a1.51,1.51,0,0,0-1.19.54,2,2,0,0,0-.47,1.37V92h-1V86h1v1h0a2.17,2.17,0,0,1,2-1.14,1.84,1.84,0,0,1,1.51.64,2.83,2.83,0,0,1,.52,1.84Z" fill="#2b3033"/><path d="M223.12,91.52q0,3.3-3.16,3.3A4.25,4.25,0,0,1,218,94.4v-1a4,4,0,0,0,1.93.56q2.21,0,2.21-2.36V91h0a2.43,2.43,0,0,1-3.86.35,3.2,3.2,0,0,1-.68-2.15,3.74,3.74,0,0,1,.74-2.43,2.46,2.46,0,0,1,2-.9,2,2,0,0,1,1.8,1h0V86h1Zm-1-2.23V88.4a1.72,1.72,0,0,0-.48-1.22,1.59,1.59,0,0,0-1.2-.51,1.67,1.67,0,0,0-1.39.65,2.89,2.89,0,0,0-.5,1.81,2.48,2.48,0,0,0,.48,1.6,1.56,1.56,0,0,0,1.28.6,1.67,1.67,0,0,0,1.32-.57A2.14,2.14,0,0,0,222.15,89.29Z" fill="#2b3033"/><path d="M232.44,91.72a3.12,3.12,0,0,1-1.64.42,2.72,2.72,0,0,1-2.07-.83,3,3,0,0,1-.79-2.17,3.33,3.33,0,0,1,.85-2.38,3,3,0,0,1,2.27-.9,3.16,3.16,0,0,1,1.39.29v1a2.44,2.44,0,0,0-1.43-.47,1.93,1.93,0,0,0-1.51.66,2.5,2.5,0,0,0-.59,1.73,2.38,2.38,0,0,0,.55,1.66,1.91,1.91,0,0,0,1.49.61,2.41,2.41,0,0,0,1.48-.52Z" fill="#2b3033"/><path d="M236.4,92.14a2.78,2.78,0,0,1-2.12-.84,3.11,3.11,0,0,1-.79-2.23,3.24,3.24,0,0,1,.83-2.36,3,3,0,0,1,2.23-.85,2.69,2.69,0,0,1,2.09.83,3.28,3.28,0,0,1,.75,2.29,3.22,3.22,0,0,1-.81,2.3A2.84,2.84,0,0,1,236.4,92.14Zm.07-5.47a1.83,1.83,0,0,0-1.46.63,2.59,2.59,0,0,0-.54,1.74,2.45,2.45,0,0,0,.54,1.68,1.85,1.85,0,0,0,1.46.62,1.76,1.76,0,0,0,1.43-.6,2.62,2.62,0,0,0,.5-1.72,2.66,2.66,0,0,0-.5-1.73A1.75,1.75,0,0,0,236.47,86.67Z" fill="#2b3033"/><path d="M246,92h-1V91h0A2.22,2.22,0,0,1,243,92.14a2.24,2.24,0,0,1-1.81-.81,3.31,3.31,0,0,1-.68-2.19,3.6,3.6,0,0,1,.75-2.38,2.47,2.47,0,0,1,2-.9,1.92,1.92,0,0,1,1.8,1h0V83.12h1Zm-1-2.71V88.4a1.72,1.72,0,0,0-.48-1.23,1.61,1.61,0,0,0-1.22-.5,1.66,1.66,0,0,0-1.38.64,2.82,2.82,0,0,0-.5,1.78,2.54,2.54,0,0,0,.48,1.64,1.58,1.58,0,0,0,1.3.6,1.64,1.64,0,0,0,1.3-.58A2.16,2.16,0,0,0,245.08,89.29Z" fill="#2b3033"/><path d="M252.81,89.24h-4.24a2.24,2.24,0,0,0,.54,1.55,1.86,1.86,0,0,0,1.42.54,3,3,0,0,0,1.86-.67v.9a3.48,3.48,0,0,1-2.09.57,2.54,2.54,0,0,1-2-.82,3.35,3.35,0,0,1-.73-2.3,3.28,3.28,0,0,1,.79-2.28,2.55,2.55,0,0,1,2-.88,2.26,2.26,0,0,1,1.82.76,3.18,3.18,0,0,1,.64,2.12Zm-1-.81a2,2,0,0,0-.4-1.29,1.37,1.37,0,0,0-1.1-.46,1.55,1.55,0,0,0-1.15.49,2.21,2.21,0,0,0-.59,1.27Z" fill="#2b3033"/><path d="M260.33,91.94a1.85,1.85,0,0,1-.9.19q-1.58,0-1.58-1.76V86.82h-1V86h1V84.54l1-.31V86h1.51v.82h-1.51V90.2a1.4,1.4,0,0,0,.21.86.82.82,0,0,0,.68.26,1,1,0,0,0,.63-.2Z" fill="#2b3033"/><path d="M266.6,92h-1V88.54q0-1.87-1.39-1.87a1.52,1.52,0,0,0-1.18.54,2,2,0,0,0-.48,1.39V92h-1V83.12h1V87h0a2.18,2.18,0,0,1,2-1.14q2,0,2,2.44Z" fill="#2b3033"/><path d="M272.7,92h-1v-.94h0a2,2,0,0,1-1.85,1.08,2,2,0,0,1-1.4-.47,1.64,1.64,0,0,1-.51-1.26q0-1.68,2-2l1.8-.25q0-1.53-1.24-1.53a3,3,0,0,0-2,.74v-1a3.72,3.72,0,0,1,2-.56q2.12,0,2.12,2.24Zm-1-3-1.45.2a2.35,2.35,0,0,0-1,.33,1,1,0,0,0-.34.84.92.92,0,0,0,.31.72,1.21,1.21,0,0,0,.83.28,1.54,1.54,0,0,0,1.18-.5,1.79,1.79,0,0,0,.47-1.27Z" fill="#2b3033"/><path d="M277.3,91.94a1.85,1.85,0,0,1-.9.19q-1.58,0-1.58-1.76V86.82h-1V86h1V84.54l1-.31V86h1.51v.82h-1.51V90.2a1.4,1.4,0,0,0,.21.86.82.82,0,0,0,.68.26,1,1,0,0,0,.63-.2Z" fill="#2b3033"/><path d="M286.72,92h-1v-.95h0a2,2,0,0,1-1.85,1.09q-2.14,0-2.14-2.55V86h1v3.43q0,1.9,1.45,1.9a1.47,1.47,0,0,0,1.16-.52,2,2,0,0,0,.45-1.36V86h1Z" fill="#2b3033"/><path d="M288.29,91.78v-1a2.84,2.84,0,0,0,1.73.58q1.27,0,1.27-.84a.73.73,0,0,0-.11-.41,1.08,1.08,0,0,0-.29-.3,2.26,2.26,0,0,0-.43-.23l-.54-.21a6.9,6.9,0,0,1-.7-.32,2.12,2.12,0,0,1-.5-.36,1.35,1.35,0,0,1-.3-.46,1.63,1.63,0,0,1-.1-.6,1.43,1.43,0,0,1,.19-.75,1.71,1.71,0,0,1,.52-.54,2.4,2.4,0,0,1,.74-.33,3.26,3.26,0,0,1,.85-.11,3.44,3.44,0,0,1,1.39.27v1a2.72,2.72,0,0,0-1.52-.43,1.78,1.78,0,0,0-.49.06,1.19,1.19,0,0,0-.37.17.8.8,0,0,0-.24.27.7.7,0,0,0-.08.34.82.82,0,0,0,.08.39.86.86,0,0,0,.25.28,1.9,1.9,0,0,0,.4.22l.53.22a7.42,7.42,0,0,1,.71.31,2.45,2.45,0,0,1,.54.36,1.42,1.42,0,0,1,.34.47,1.5,1.5,0,0,1,.12.63,1.48,1.48,0,0,1-.2.77,1.68,1.68,0,0,1-.52.54,2.4,2.4,0,0,1-.76.32,3.73,3.73,0,0,1-.9.11A3.4,3.4,0,0,1,288.29,91.78Z" fill="#2b3033"/><path d="M298.57,89.24h-4.24a2.24,2.24,0,0,0,.54,1.55,1.86,1.86,0,0,0,1.42.54,3,3,0,0,0,1.86-.67v.9a3.48,3.48,0,0,1-2.09.57,2.54,2.54,0,0,1-2-.82,3.35,3.35,0,0,1-.73-2.3,3.28,3.28,0,0,1,.79-2.28,2.55,2.55,0,0,1,2-.88,2.26,2.26,0,0,1,1.82.76,3.18,3.18,0,0,1,.64,2.12Zm-1-.81a2,2,0,0,0-.4-1.29,1.37,1.37,0,0,0-1.1-.46,1.55,1.55,0,0,0-1.15.49,2.21,2.21,0,0,0-.59,1.27Z" fill="#2b3033"/><path d="M299.66,91.78v-1a2.84,2.84,0,0,0,1.73.58q1.27,0,1.27-.84a.73.73,0,0,0-.11-.41,1.08,1.08,0,0,0-.29-.3,2.26,2.26,0,0,0-.43-.23l-.54-.21a6.9,6.9,0,0,1-.7-.32,2.12,2.12,0,0,1-.5-.36,1.35,1.35,0,0,1-.3-.46,1.63,1.63,0,0,1-.1-.6,1.43,1.43,0,0,1,.19-.75,1.71,1.71,0,0,1,.52-.54,2.4,2.4,0,0,1,.74-.33,3.26,3.26,0,0,1,.85-.11,3.44,3.44,0,0,1,1.39.27v1a2.72,2.72,0,0,0-1.52-.43,1.78,1.78,0,0,0-.49.06,1.19,1.19,0,0,0-.37.17.8.8,0,0,0-.24.27.7.7,0,0,0-.08.34.82.82,0,0,0,.08.39.86.86,0,0,0,.25.28,1.9,1.9,0,0,0,.4.22l.53.22a7.42,7.42,0,0,1,.71.31,2.45,2.45,0,0,1,.54.36,1.42,1.42,0,0,1,.34.47,1.5,1.5,0,0,1,.12.63,1.48,1.48,0,0,1-.2.77,1.68,1.68,0,0,1-.52.54,2.4,2.4,0,0,1-.76.32,3.73,3.73,0,0,1-.9.11A3.4,3.4,0,0,1,299.66,91.78Z" fill="#2b3033"/><path d="M82.79,107.24H78.56a2.24,2.24,0,0,0,.54,1.55,1.86,1.86,0,0,0,1.42.54,3,3,0,0,0,1.86-.67v.9a3.48,3.48,0,0,1-2.09.57,2.54,2.54,0,0,1-2-.82,3.35,3.35,0,0,1-.73-2.3,3.28,3.28,0,0,1,.79-2.28,2.55,2.55,0,0,1,2-.88,2.26,2.26,0,0,1,1.82.76,3.18,3.18,0,0,1,.64,2.12Zm-1-.81a2,2,0,0,0-.4-1.29,1.37,1.37,0,0,0-1.1-.46,1.55,1.55,0,0,0-1.15.49,2.21,2.21,0,0,0-.59,1.27Z" fill="#2b3033"/><path d="M88.63,104l-2,3,2,3H87.48l-1.18-1.95L86,107.6h0l-.28.46L84.54,110H83.43l2-2.94-2-3.06h1.12l1.16,2.05.25.47h0l1.5-2.52Z" fill="#2b3033"/><path d="M92.54,109.94a1.85,1.85,0,0,1-.9.19q-1.58,0-1.58-1.76v-3.55H89V104h1v-1.46l1-.31V104h1.51v.82H91v3.38a1.4,1.4,0,0,0,.21.86.82.82,0,0,0,.68.26,1,1,0,0,0,.63-.2Z" fill="#2b3033"/><path d="M98.55,107.24H94.31a2.24,2.24,0,0,0,.54,1.55,1.86,1.86,0,0,0,1.42.54,3,3,0,0,0,1.86-.67v.9a3.48,3.48,0,0,1-2.09.57,2.54,2.54,0,0,1-2-.82,3.35,3.35,0,0,1-.73-2.3,3.28,3.28,0,0,1,.79-2.28,2.55,2.55,0,0,1,2-.88,2.26,2.26,0,0,1,1.82.76,3.18,3.18,0,0,1,.64,2.12Zm-1-.81a2,2,0,0,0-.4-1.29,1.37,1.37,0,0,0-1.1-.46,1.55,1.55,0,0,0-1.15.49,2.21,2.21,0,0,0-.59,1.27Z" fill="#2b3033"/><path d="M103.13,105a1.18,1.18,0,0,0-.73-.19,1.23,1.23,0,0,0-1,.58,2.68,2.68,0,0,0-.41,1.58V110h-1v-6h1v1.24h0a2.1,2.1,0,0,1,.63-1,1.43,1.43,0,0,1,.94-.35,1.57,1.57,0,0,1,.57.08Z" fill="#2b3033"/><path d="M109.13,110h-1v-3.42q0-1.91-1.39-1.91a1.51,1.51,0,0,0-1.19.54,2,2,0,0,0-.47,1.37V110h-1v-6h1v1h0a2.17,2.17,0,0,1,2-1.14,1.84,1.84,0,0,1,1.51.64,2.83,2.83,0,0,1,.52,1.84Z" fill="#2b3033"/><path d="M115.24,110h-1v-.94h0a2,2,0,0,1-1.85,1.08,2,2,0,0,1-1.4-.47,1.64,1.64,0,0,1-.51-1.26q0-1.68,2-2l1.8-.25q0-1.53-1.24-1.53a3,3,0,0,0-2,.74v-1a3.72,3.72,0,0,1,2-.56q2.12,0,2.12,2.24Zm-1-3-1.45.2a2.35,2.35,0,0,0-1,.33,1,1,0,0,0-.34.84.92.92,0,0,0,.31.72,1.21,1.21,0,0,0,.83.28,1.54,1.54,0,0,0,1.18-.5,1.79,1.79,0,0,0,.47-1.27Z" fill="#2b3033"/><path d="M118,110h-1v-8.88h1Z" fill="#2b3033"/><path d="M126.37,105a1.18,1.18,0,0,0-.73-.19,1.23,1.23,0,0,0-1,.58,2.68,2.68,0,0,0-.41,1.58V110h-1v-6h1v1.24h0a2.1,2.1,0,0,1,.63-1,1.43,1.43,0,0,1,.94-.35,1.57,1.57,0,0,1,.57.08Z" fill="#2b3033"/><path d="M132.08,107.24h-4.24a2.24,2.24,0,0,0,.54,1.55,1.86,1.86,0,0,0,1.42.54,3,3,0,0,0,1.86-.67v.9a3.48,3.48,0,0,1-2.09.57,2.54,2.54,0,0,1-2-.82,3.35,3.35,0,0,1-.73-2.3,3.28,3.28,0,0,1,.79-2.28,2.55,2.55,0,0,1,2-.88,2.26,2.26,0,0,1,1.82.76,3.18,3.18,0,0,1,.64,2.12Zm-1-.81a2,2,0,0,0-.4-1.29,1.37,1.37,0,0,0-1.1-.46,1.55,1.55,0,0,0-1.15.49,2.21,2.21,0,0,0-.59,1.27Z" fill="#2b3033"/><path d="M133.17,109.78v-1a2.84,2.84,0,0,0,1.73.58q1.27,0,1.27-.84a.73.73,0,0,0-.11-.41,1.08,1.08,0,0,0-.29-.3,2.26,2.26,0,0,0-.43-.23l-.54-.21a6.9,6.9,0,0,1-.7-.32,2.12,2.12,0,0,1-.5-.36,1.35,1.35,0,0,1-.3-.46,1.63,1.63,0,0,1-.1-.6,1.43,1.43,0,0,1,.19-.75,1.71,1.71,0,0,1,.52-.54,2.4,2.4,0,0,1,.74-.33,3.26,3.26,0,0,1,.85-.11,3.44,3.44,0,0,1,1.39.27v1a2.72,2.72,0,0,0-1.52-.43,1.78,1.78,0,0,0-.49.06,1.19,1.19,0,0,0-.37.17.8.8,0,0,0-.24.27.7.7,0,0,0-.08.34.82.82,0,0,0,.08.39.86.86,0,0,0,.25.28,1.9,1.9,0,0,0,.4.22l.53.22a7.42,7.42,0,0,1,.71.31,2.45,2.45,0,0,1,.54.36,1.42,1.42,0,0,1,.34.47,1.5,1.5,0,0,1,.12.63,1.48,1.48,0,0,1-.2.77,1.68,1.68,0,0,1-.52.54,2.4,2.4,0,0,1-.76.32,3.73,3.73,0,0,1-.9.11A3.4,3.4,0,0,1,133.17,109.78Z" fill="#2b3033"/><path d="M141.13,110.14a2.78,2.78,0,0,1-2.12-.84,3.11,3.11,0,0,1-.79-2.23,3.24,3.24,0,0,1,.83-2.36,3,3,0,0,1,2.23-.85,2.69,2.69,0,0,1,2.09.83,3.28,3.28,0,0,1,.75,2.29,3.22,3.22,0,0,1-.81,2.3A2.84,2.84,0,0,1,141.13,110.14Zm.07-5.47a1.83,1.83,0,0,0-1.46.63,2.59,2.59,0,0,0-.54,1.74,2.45,2.45,0,0,0,.54,1.68,1.85,1.85,0,0,0,1.46.62,1.76,1.76,0,0,0,1.43-.6,2.62,2.62,0,0,0,.5-1.72,2.66,2.66,0,0,0-.5-1.73A1.75,1.75,0,0,0,141.2,104.67Z" fill="#2b3033"/><path d="M150.51,110h-1v-.95h0a2,2,0,0,1-1.85,1.09q-2.14,0-2.14-2.55V104h1v3.43q0,1.9,1.45,1.9a1.47,1.47,0,0,0,1.16-.52,2,2,0,0,0,.45-1.36V104h1Z" fill="#2b3033"/><path d="M155.57,105a1.18,1.18,0,0,0-.73-.19,1.23,1.23,0,0,0-1,.58,2.68,2.68,0,0,0-.41,1.58V110h-1v-6h1v1.24h0a2.1,2.1,0,0,1,.63-1,1.43,1.43,0,0,1,.94-.35,1.57,1.57,0,0,1,.57.08Z" fill="#2b3033"/><path d="M160.55,109.72a3.12,3.12,0,0,1-1.64.42,2.72,2.72,0,0,1-2.07-.83,3,3,0,0,1-.79-2.17,3.33,3.33,0,0,1,.85-2.38,3,3,0,0,1,2.27-.9,3.16,3.16,0,0,1,1.39.29v1a2.44,2.44,0,0,0-1.43-.47,1.93,1.93,0,0,0-1.51.66,2.5,2.5,0,0,0-.59,1.73,2.38,2.38,0,0,0,.55,1.66,1.91,1.91,0,0,0,1.49.61,2.41,2.41,0,0,0,1.48-.52Z" fill="#2b3033"/><path d="M166.82,107.24h-4.24a2.24,2.24,0,0,0,.54,1.55,1.86,1.86,0,0,0,1.42.54,3,3,0,0,0,1.86-.67v.9a3.48,3.48,0,0,1-2.09.57,2.54,2.54,0,0,1-2-.82,3.35,3.35,0,0,1-.73-2.3,3.28,3.28,0,0,1,.79-2.28,2.55,2.55,0,0,1,2-.88,2.26,2.26,0,0,1,1.82.76,3.18,3.18,0,0,1,.64,2.12Zm-1-.81a2,2,0,0,0-.4-1.29,1.37,1.37,0,0,0-1.1-.46,1.55,1.55,0,0,0-1.15.49,2.21,2.21,0,0,0-.59,1.27Z" fill="#2b3033"/><path d="M167.91,109.78v-1a2.84,2.84,0,0,0,1.73.58q1.27,0,1.27-.84a.73.73,0,0,0-.11-.41,1.08,1.08,0,0,0-.29-.3,2.26,2.26,0,0,0-.43-.23l-.54-.21a6.9,6.9,0,0,1-.7-.32,2.12,2.12,0,0,1-.5-.36,1.35,1.35,0,0,1-.3-.46,1.63,1.63,0,0,1-.1-.6,1.43,1.43,0,0,1,.19-.75,1.71,1.71,0,0,1,.52-.54,2.4,2.4,0,0,1,.74-.33,3.26,3.26,0,0,1,.85-.11,3.44,3.44,0,0,1,1.39.27v1a2.72,2.72,0,0,0-1.52-.43,1.78,1.78,0,0,0-.49.06,1.19,1.19,0,0,0-.37.17.8.8,0,0,0-.24.27.7.7,0,0,0-.08.34.82.82,0,0,0,.08.39.86.86,0,0,0,.25.28,1.9,1.9,0,0,0,.4.22l.53.22a7.42,7.42,0,0,1,.71.31,2.45,2.45,0,0,1,.54.36,1.42,1.42,0,0,1,.34.47,1.5,1.5,0,0,1,.12.63,1.48,1.48,0,0,1-.2.77,1.68,1.68,0,0,1-.52.54,2.4,2.4,0,0,1-.76.32,3.73,3.73,0,0,1-.9.11A3.4,3.4,0,0,1,167.91,109.78Z" fill="#2b3033"/><path d="M185.18,110h-1v-3.45a2.6,2.6,0,0,0-.31-1.44,1.17,1.17,0,0,0-1-.45,1.28,1.28,0,0,0-1,.56,2.15,2.15,0,0,0-.43,1.35V110h-1v-3.56q0-1.77-1.37-1.77a1.26,1.26,0,0,0-1,.53,2.19,2.19,0,0,0-.41,1.38V110h-1v-6h1v.95h0a2,2,0,0,1,1.86-1.09,1.73,1.73,0,0,1,1.7,1.24,2.14,2.14,0,0,1,2-1.24q2,0,2,2.44Z" fill="#2b3033"/><path d="M187.48,102.48a.61.61,0,0,1-.44-.18.59.59,0,0,1-.18-.45.62.62,0,0,1,.62-.63.62.62,0,0,1,.45.18.63.63,0,0,1,0,.89A.62.62,0,0,1,187.48,102.48ZM188,110h-1v-6h1Z" fill="#2b3033"/><path d="M195,109.52q0,3.3-3.16,3.3a4.25,4.25,0,0,1-1.95-.42v-1a4,4,0,0,0,1.93.56q2.21,0,2.21-2.36V109h0a2.43,2.43,0,0,1-3.86.35,3.2,3.2,0,0,1-.68-2.15,3.74,3.74,0,0,1,.74-2.43,2.46,2.46,0,0,1,2-.9,2,2,0,0,1,1.8,1h0V104h1Zm-1-2.23v-.88a1.72,1.72,0,0,0-.48-1.22,1.59,1.59,0,0,0-1.2-.51,1.67,1.67,0,0,0-1.39.65,2.89,2.89,0,0,0-.5,1.81,2.48,2.48,0,0,0,.48,1.6,1.56,1.56,0,0,0,1.28.6,1.67,1.67,0,0,0,1.32-.57A2.14,2.14,0,0,0,194.06,107.29Z" fill="#2b3033"/><path d="M201.95,110h-1v-3.46q0-1.87-1.39-1.87a1.52,1.52,0,0,0-1.18.54,2,2,0,0,0-.48,1.39V110h-1v-8.88h1V105h0a2.18,2.18,0,0,1,2-1.14q2,0,2,2.44Z" fill="#2b3033"/><path d="M206.54,109.94a1.85,1.85,0,0,1-.9.19q-1.58,0-1.58-1.76v-3.55h-1V104h1v-1.46l1-.31V104h1.51v.82H205v3.38a1.4,1.4,0,0,0,.21.86.82.82,0,0,0,.68.26,1,1,0,0,0,.63-.2Z" fill="#2b3033"/><path d="M215.2,109.72a3.12,3.12,0,0,1-1.64.42,2.72,2.72,0,0,1-2.07-.83,3,3,0,0,1-.79-2.17,3.33,3.33,0,0,1,.85-2.38,3,3,0,0,1,2.27-.9,3.16,3.16,0,0,1,1.39.29v1a2.44,2.44,0,0,0-1.43-.47,1.93,1.93,0,0,0-1.51.66,2.5,2.5,0,0,0-.59,1.73,2.38,2.38,0,0,0,.55,1.66,1.91,1.91,0,0,0,1.49.61,2.41,2.41,0,0,0,1.48-.52Z" fill="#2b3033"/><path d="M220.95,110h-1v-.94h0a2,2,0,0,1-1.85,1.08,2,2,0,0,1-1.4-.47,1.64,1.64,0,0,1-.51-1.26q0-1.68,2-2l1.8-.25q0-1.53-1.24-1.53a3,3,0,0,0-2,.74v-1a3.72,3.72,0,0,1,2-.56q2.12,0,2.12,2.24Zm-1-3-1.45.2a2.35,2.35,0,0,0-1,.33,1,1,0,0,0-.34.84.92.92,0,0,0,.31.72,1.21,1.21,0,0,0,.83.28,1.54,1.54,0,0,0,1.18-.5,1.79,1.79,0,0,0,.47-1.27Z" fill="#2b3033"/><path d="M227.61,110h-1v-.95h0a2,2,0,0,1-1.85,1.09q-2.14,0-2.14-2.55V104h1v3.43q0,1.9,1.45,1.9a1.47,1.47,0,0,0,1.16-.52,2,2,0,0,0,.45-1.36V104h1Z" fill="#2b3033"/><path d="M229.19,109.78v-1a2.84,2.84,0,0,0,1.73.58q1.27,0,1.27-.84a.73.73,0,0,0-.11-.41,1.08,1.08,0,0,0-.29-.3,2.26,2.26,0,0,0-.43-.23l-.54-.21a6.9,6.9,0,0,1-.7-.32,2.12,2.12,0,0,1-.5-.36,1.35,1.35,0,0,1-.3-.46,1.63,1.63,0,0,1-.1-.6,1.43,1.43,0,0,1,.19-.75,1.71,1.71,0,0,1,.52-.54,2.4,2.4,0,0,1,.74-.33,3.26,3.26,0,0,1,.85-.11,3.44,3.44,0,0,1,1.39.27v1a2.72,2.72,0,0,0-1.52-.43,1.78,1.78,0,0,0-.49.06,1.19,1.19,0,0,0-.37.17.8.8,0,0,0-.24.27.7.7,0,0,0-.08.34.82.82,0,0,0,.08.39.86.86,0,0,0,.25.28,1.9,1.9,0,0,0,.4.22l.53.22a7.42,7.42,0,0,1,.71.31,2.45,2.45,0,0,1,.54.36,1.42,1.42,0,0,1,.34.47,1.5,1.5,0,0,1,.12.63,1.48,1.48,0,0,1-.2.77,1.68,1.68,0,0,1-.52.54,2.4,2.4,0,0,1-.76.32,3.73,3.73,0,0,1-.9.11A3.4,3.4,0,0,1,229.19,109.78Z" fill="#2b3033"/><path d="M239.46,107.24h-4.24a2.24,2.24,0,0,0,.54,1.55,1.86,1.86,0,0,0,1.42.54,3,3,0,0,0,1.86-.67v.9a3.48,3.48,0,0,1-2.09.57,2.54,2.54,0,0,1-2-.82,3.35,3.35,0,0,1-.73-2.3,3.28,3.28,0,0,1,.79-2.28,2.55,2.55,0,0,1,2-.88,2.26,2.26,0,0,1,1.82.76,3.18,3.18,0,0,1,.64,2.12Zm-1-.81a2,2,0,0,0-.4-1.29,1.37,1.37,0,0,0-1.1-.46,1.55,1.55,0,0,0-1.15.49,2.21,2.21,0,0,0-.59,1.27Z" fill="#2b3033"/><path d="M249,107.24h-4.24a2.24,2.24,0,0,0,.54,1.55,1.86,1.86,0,0,0,1.42.54,3,3,0,0,0,1.86-.67v.9a3.48,3.48,0,0,1-2.09.57,2.54,2.54,0,0,1-2-.82,3.35,3.35,0,0,1-.73-2.3,3.28,3.28,0,0,1,.79-2.28,2.55,2.55,0,0,1,2-.88,2.26,2.26,0,0,1,1.82.76,3.18,3.18,0,0,1,.64,2.12Zm-1-.81a2,2,0,0,0-.4-1.29,1.37,1.37,0,0,0-1.1-.46,1.55,1.55,0,0,0-1.15.49,2.21,2.21,0,0,0-.59,1.27Z" fill="#2b3033"/><path d="M253.61,105a1.18,1.18,0,0,0-.73-.19,1.23,1.23,0,0,0-1,.58,2.68,2.68,0,0,0-.41,1.58V110h-1v-6h1v1.24h0a2.1,2.1,0,0,1,.63-1,1.43,1.43,0,0,1,.94-.35,1.57,1.57,0,0,1,.57.08Z" fill="#2b3033"/><path d="M257.78,105a1.18,1.18,0,0,0-.73-.19,1.23,1.23,0,0,0-1,.58,2.68,2.68,0,0,0-.41,1.58V110h-1v-6h1v1.24h0a2.1,2.1,0,0,1,.63-1,1.43,1.43,0,0,1,.94-.35,1.57,1.57,0,0,1,.57.08Z" fill="#2b3033"/><path d="M261.17,110.14a2.78,2.78,0,0,1-2.12-.84,3.11,3.11,0,0,1-.79-2.23,3.24,3.24,0,0,1,.83-2.36,3,3,0,0,1,2.23-.85,2.69,2.69,0,0,1,2.09.83,3.28,3.28,0,0,1,.75,2.29,3.22,3.22,0,0,1-.81,2.3A2.84,2.84,0,0,1,261.17,110.14Zm.07-5.47a1.83,1.83,0,0,0-1.46.63,2.59,2.59,0,0,0-.54,1.74,2.45,2.45,0,0,0,.54,1.68,1.85,1.85,0,0,0,1.46.62,1.76,1.76,0,0,0,1.43-.6,2.62,2.62,0,0,0,.5-1.72,2.66,2.66,0,0,0-.5-1.73A1.75,1.75,0,0,0,261.24,104.67Z" fill="#2b3033"/><path d="M268.82,105a1.18,1.18,0,0,0-.73-.19,1.23,1.23,0,0,0-1,.58,2.68,2.68,0,0,0-.41,1.58V110h-1v-6h1v1.24h0a2.1,2.1,0,0,1,.63-1,1.43,1.43,0,0,1,.94-.35,1.57,1.57,0,0,1,.57.08Z" fill="#2b3033"/><path d="M269.59,109.78v-1a2.84,2.84,0,0,0,1.73.58q1.27,0,1.27-.84a.73.73,0,0,0-.11-.41,1.08,1.08,0,0,0-.29-.3,2.26,2.26,0,0,0-.43-.23l-.54-.21a6.9,6.9,0,0,1-.7-.32,2.12,2.12,0,0,1-.5-.36,1.35,1.35,0,0,1-.3-.46,1.63,1.63,0,0,1-.1-.6,1.43,1.43,0,0,1,.19-.75,1.71,1.71,0,0,1,.52-.54A2.4,2.4,0,0,1,271,104a3.26,3.26,0,0,1,.85-.11,3.44,3.44,0,0,1,1.39.27v1a2.72,2.72,0,0,0-1.52-.43,1.78,1.78,0,0,0-.49.06,1.19,1.19,0,0,0-.37.17.8.8,0,0,0-.24.27.7.7,0,0,0-.08.34.82.82,0,0,0,.08.39.86.86,0,0,0,.25.28,1.9,1.9,0,0,0,.4.22l.53.22a7.42,7.42,0,0,1,.71.31,2.45,2.45,0,0,1,.54.36,1.42,1.42,0,0,1,.34.47,1.5,1.5,0,0,1,.12.63,1.48,1.48,0,0,1-.2.77,1.68,1.68,0,0,1-.52.54,2.4,2.4,0,0,1-.76.32,3.73,3.73,0,0,1-.9.11A3.4,3.4,0,0,1,269.59,109.78Z" fill="#2b3033"/><path d="M281.11,109.94a1.85,1.85,0,0,1-.9.19q-1.58,0-1.58-1.76v-3.55h-1V104h1v-1.46l1-.31V104h1.51v.82H279.6v3.38a1.4,1.4,0,0,0,.21.86.82.82,0,0,0,.68.26,1,1,0,0,0,.63-.2Z" fill="#2b3033"/><path d="M287.38,110h-1v-3.46q0-1.87-1.39-1.87a1.52,1.52,0,0,0-1.18.54,2,2,0,0,0-.48,1.39V110h-1v-8.88h1V105h0a2.18,2.18,0,0,1,2-1.14q2,0,2,2.44Z" fill="#2b3033"/><path d="M294,107.24h-4.24a2.24,2.24,0,0,0,.54,1.55,1.86,1.86,0,0,0,1.42.54,3,3,0,0,0,1.86-.67v.9a3.48,3.48,0,0,1-2.09.57,2.54,2.54,0,0,1-2-.82,3.35,3.35,0,0,1-.73-2.3,3.28,3.28,0,0,1,.79-2.28,2.55,2.55,0,0,1,2-.88,2.26,2.26,0,0,1,1.82.76,3.18,3.18,0,0,1,.64,2.12Zm-1-.81a2,2,0,0,0-.4-1.29,1.37,1.37,0,0,0-1.1-.46,1.55,1.55,0,0,0-1.15.49,2.21,2.21,0,0,0-.59,1.27Z" fill="#2b3033"/><path d="M83,128H82v-3.42q0-1.91-1.39-1.91a1.51,1.51,0,0,0-1.19.54,2,2,0,0,0-.47,1.37V128H78v-6h1v1h0a2.17,2.17,0,0,1,2-1.14,1.84,1.84,0,0,1,1.51.64,2.83,2.83,0,0,1,.52,1.84Z" fill="#2b3033"/><path d="M89.59,125.24H85.35a2.24,2.24,0,0,0,.54,1.55,1.86,1.86,0,0,0,1.42.54,3,3,0,0,0,1.86-.67v.9a3.48,3.48,0,0,1-2.09.57,2.54,2.54,0,0,1-2-.82,3.35,3.35,0,0,1-.73-2.3,3.28,3.28,0,0,1,.79-2.28,2.55,2.55,0,0,1,2-.88,2.26,2.26,0,0,1,1.82.76,3.18,3.18,0,0,1,.64,2.12Zm-1-.81a2,2,0,0,0-.4-1.29,1.37,1.37,0,0,0-1.1-.46,1.55,1.55,0,0,0-1.15.49,2.21,2.21,0,0,0-.59,1.27Z" fill="#2b3033"/><path d="M95.42,122l-2,3,2,3H94.27l-1.18-1.95-.26-.46h0l-.28.46L91.33,128H90.22l2-2.94-2-3.06h1.12l1.16,2.05.25.47h0l1.5-2.52Z" fill="#2b3033"/><path d="M99.33,127.94a1.85,1.85,0,0,1-.9.19q-1.58,0-1.58-1.76v-3.55h-1V122h1v-1.46l1-.31V122h1.51v.82H97.82v3.38a1.4,1.4,0,0,0,.21.86.82.82,0,0,0,.68.26,1,1,0,0,0,.63-.2Z" fill="#2b3033"/><path d="M106.68,127.94a1.85,1.85,0,0,1-.9.19q-1.58,0-1.58-1.76v-3.55h-1V122h1v-1.46l1-.31V122h1.51v.82h-1.51v3.38a1.4,1.4,0,0,0,.21.86.82.82,0,0,0,.68.26,1,1,0,0,0,.63-.2Z" fill="#2b3033"/><path d="M108.46,120.48a.61.61,0,0,1-.44-.18.59.59,0,0,1-.18-.45.62.62,0,0,1,.62-.63.62.62,0,0,1,.45.18.63.63,0,0,1,0,.89A.62.62,0,0,1,108.46,120.48Zm.47,7.52h-1v-6h1Z" fill="#2b3033"/><path d="M119.39,128h-1v-3.45a2.6,2.6,0,0,0-.31-1.44,1.17,1.17,0,0,0-1-.45,1.28,1.28,0,0,0-1,.56,2.15,2.15,0,0,0-.43,1.35V128h-1v-3.56q0-1.77-1.37-1.77a1.26,1.26,0,0,0-1,.53,2.19,2.19,0,0,0-.41,1.38V128h-1v-6h1v.95h0a2,2,0,0,1,1.86-1.09,1.73,1.73,0,0,1,1.7,1.24,2.14,2.14,0,0,1,2-1.24q2,0,2,2.44Z" fill="#2b3033"/><path d="M126,125.24h-4.24a2.24,2.24,0,0,0,.54,1.55,1.86,1.86,0,0,0,1.42.54,3,3,0,0,0,1.86-.67v.9a3.48,3.48,0,0,1-2.09.57,2.54,2.54,0,0,1-2-.82,3.35,3.35,0,0,1-.73-2.3,3.28,3.28,0,0,1,.79-2.28,2.55,2.55,0,0,1,2-.88,2.26,2.26,0,0,1,1.82.76,3.18,3.18,0,0,1,.64,2.12Zm-1-.81a2,2,0,0,0-.4-1.29,1.37,1.37,0,0,0-1.1-.46,1.55,1.55,0,0,0-1.15.49,2.21,2.21,0,0,0-.59,1.27Z" fill="#2b3033"/><path d="M135.55,122l-2.76,7q-.74,1.86-2.07,1.86a2.2,2.2,0,0,1-.63-.08v-.86a1.78,1.78,0,0,0,.57.11,1.18,1.18,0,0,0,1.09-.87l.48-1.14-2.34-6h1.07l1.62,4.62q0,.09.12.46h0q0-.14.12-.45l1.71-4.63Z" fill="#2b3033"/><path d="M139,128.14a2.78,2.78,0,0,1-2.12-.84,3.11,3.11,0,0,1-.79-2.23,3.24,3.24,0,0,1,.83-2.36,3,3,0,0,1,2.23-.85,2.69,2.69,0,0,1,2.09.83A3.28,3.28,0,0,1,142,125a3.22,3.22,0,0,1-.81,2.3A2.84,2.84,0,0,1,139,128.14Zm.07-5.47a1.83,1.83,0,0,0-1.46.63,2.59,2.59,0,0,0-.54,1.74,2.45,2.45,0,0,0,.54,1.68,1.85,1.85,0,0,0,1.46.62,1.76,1.76,0,0,0,1.43-.6A2.62,2.62,0,0,0,141,125a2.66,2.66,0,0,0-.5-1.73A1.75,1.75,0,0,0,139.1,122.67Z" fill="#2b3033"/><path d="M148.4,128h-1v-.95h0a2,2,0,0,1-1.85,1.09q-2.14,0-2.14-2.55V122h1v3.43q0,1.9,1.45,1.9a1.47,1.47,0,0,0,1.16-.52,2,2,0,0,0,.45-1.36V122h1Z" fill="#2b3033"/><path d="M157.92,128h-1v-.94h0a2,2,0,0,1-1.85,1.08,2,2,0,0,1-1.4-.47,1.64,1.64,0,0,1-.51-1.26q0-1.68,2-2l1.8-.25q0-1.53-1.24-1.53a3,3,0,0,0-2,.74v-1a3.72,3.72,0,0,1,2-.56q2.12,0,2.12,2.24Zm-1-3-1.45.2a2.35,2.35,0,0,0-1,.33,1,1,0,0,0-.34.84.92.92,0,0,0,.31.72,1.21,1.21,0,0,0,.83.28,1.54,1.54,0,0,0,1.18-.5,1.79,1.79,0,0,0,.47-1.27Z" fill="#2b3033"/><path d="M163.82,127.72a3.12,3.12,0,0,1-1.64.42,2.72,2.72,0,0,1-2.07-.83,3,3,0,0,1-.79-2.17,3.33,3.33,0,0,1,.85-2.38,3,3,0,0,1,2.27-.9,3.16,3.16,0,0,1,1.39.29v1a2.44,2.44,0,0,0-1.43-.47,1.93,1.93,0,0,0-1.51.66,2.5,2.5,0,0,0-.59,1.73,2.38,2.38,0,0,0,.55,1.66,1.91,1.91,0,0,0,1.49.61,2.41,2.41,0,0,0,1.48-.52Z" fill="#2b3033"/><path d="M169.37,127.72a3.12,3.12,0,0,1-1.64.42,2.72,2.72,0,0,1-2.07-.83,3,3,0,0,1-.79-2.17,3.33,3.33,0,0,1,.85-2.38,3,3,0,0,1,2.27-.9,3.16,3.16,0,0,1,1.39.29v1a2.44,2.44,0,0,0-1.43-.47,1.93,1.93,0,0,0-1.51.66,2.5,2.5,0,0,0-.59,1.73,2.38,2.38,0,0,0,.55,1.66,1.91,1.91,0,0,0,1.49.61,2.41,2.41,0,0,0,1.48-.52Z" fill="#2b3033"/><path d="M175.64,125.24h-4.24a2.24,2.24,0,0,0,.54,1.55,1.86,1.86,0,0,0,1.42.54,3,3,0,0,0,1.86-.67v.9a3.48,3.48,0,0,1-2.09.57,2.54,2.54,0,0,1-2-.82,3.35,3.35,0,0,1-.73-2.3,3.28,3.28,0,0,1,.79-2.28,2.55,2.55,0,0,1,2-.88,2.26,2.26,0,0,1,1.82.76,3.18,3.18,0,0,1,.64,2.12Zm-1-.81a2,2,0,0,0-.4-1.29,1.37,1.37,0,0,0-1.1-.46,1.55,1.55,0,0,0-1.15.49,2.21,2.21,0,0,0-.59,1.27Z" fill="#2b3033"/><path d="M176.73,127.78v-1a2.84,2.84,0,0,0,1.73.58q1.27,0,1.27-.84a.73.73,0,0,0-.11-.41,1.08,1.08,0,0,0-.29-.3,2.26,2.26,0,0,0-.43-.23l-.54-.21a6.9,6.9,0,0,1-.7-.32,2.12,2.12,0,0,1-.5-.36,1.35,1.35,0,0,1-.3-.46,1.63,1.63,0,0,1-.1-.6,1.43,1.43,0,0,1,.19-.75,1.71,1.71,0,0,1,.52-.54,2.4,2.4,0,0,1,.74-.33,3.26,3.26,0,0,1,.85-.11,3.44,3.44,0,0,1,1.39.27v1a2.72,2.72,0,0,0-1.52-.43,1.78,1.78,0,0,0-.49.06,1.19,1.19,0,0,0-.37.17.8.8,0,0,0-.24.27.7.7,0,0,0-.08.34.82.82,0,0,0,.08.39.86.86,0,0,0,.25.28,1.9,1.9,0,0,0,.4.22l.53.22a7.42,7.42,0,0,1,.71.31,2.45,2.45,0,0,1,.54.36,1.42,1.42,0,0,1,.34.47,1.5,1.5,0,0,1,.12.63,1.48,1.48,0,0,1-.2.77,1.68,1.68,0,0,1-.52.54,2.4,2.4,0,0,1-.76.32,3.73,3.73,0,0,1-.9.11A3.4,3.4,0,0,1,176.73,127.78Z" fill="#2b3033"/><path d="M181.82,127.78v-1a2.84,2.84,0,0,0,1.73.58q1.27,0,1.27-.84a.73.73,0,0,0-.11-.41,1.08,1.08,0,0,0-.29-.3,2.26,2.26,0,0,0-.43-.23l-.54-.21a6.9,6.9,0,0,1-.7-.32,2.12,2.12,0,0,1-.5-.36,1.35,1.35,0,0,1-.3-.46,1.63,1.63,0,0,1-.1-.6,1.43,1.43,0,0,1,.19-.75,1.71,1.71,0,0,1,.52-.54,2.4,2.4,0,0,1,.74-.33,3.26,3.26,0,0,1,.85-.11,3.44,3.44,0,0,1,1.39.27v1a2.72,2.72,0,0,0-1.52-.43,1.78,1.78,0,0,0-.49.06,1.19,1.19,0,0,0-.37.17.8.8,0,0,0-.24.27.7.7,0,0,0-.08.34.82.82,0,0,0,.08.39.86.86,0,0,0,.25.28,1.9,1.9,0,0,0,.4.22l.53.22a7.42,7.42,0,0,1,.71.31,2.45,2.45,0,0,1,.54.36,1.42,1.42,0,0,1,.34.47,1.5,1.5,0,0,1,.12.63,1.48,1.48,0,0,1-.2.77,1.68,1.68,0,0,1-.52.54,2.4,2.4,0,0,1-.76.32,3.73,3.73,0,0,1-.9.11A3.4,3.4,0,0,1,181.82,127.78Z" fill="#2b3033"/><path d="M193.35,127.94a1.85,1.85,0,0,1-.9.19q-1.58,0-1.58-1.76v-3.55h-1V122h1v-1.46l1-.31V122h1.51v.82h-1.51v3.38a1.4,1.4,0,0,0,.21.86.82.82,0,0,0,.68.26,1,1,0,0,0,.63-.2Z" fill="#2b3033"/><path d="M199.61,128h-1v-3.46q0-1.87-1.39-1.87a1.52,1.52,0,0,0-1.18.54,2,2,0,0,0-.48,1.39V128h-1v-8.88h1V123h0a2.18,2.18,0,0,1,2-1.14q2,0,2,2.44Z" fill="#2b3033"/><path d="M206.25,125.24H202a2.24,2.24,0,0,0,.54,1.55,1.86,1.86,0,0,0,1.42.54,3,3,0,0,0,1.86-.67v.9a3.48,3.48,0,0,1-2.09.57,2.54,2.54,0,0,1-2-.82A3.35,3.35,0,0,1,201,125a3.28,3.28,0,0,1,.79-2.28,2.55,2.55,0,0,1,2-.88,2.26,2.26,0,0,1,1.82.76,3.18,3.18,0,0,1,.64,2.12Zm-1-.81a2,2,0,0,0-.4-1.29,1.37,1.37,0,0,0-1.1-.46,1.55,1.55,0,0,0-1.15.49,2.21,2.21,0,0,0-.59,1.27Z" fill="#2b3033"/><path d="M214.12,123a1.18,1.18,0,0,0-.73-.19,1.23,1.23,0,0,0-1,.58,2.68,2.68,0,0,0-.41,1.58V128h-1v-6h1v1.24h0a2.1,2.1,0,0,1,.63-1,1.43,1.43,0,0,1,.94-.35,1.57,1.57,0,0,1,.57.08Z" fill="#2b3033"/><path d="M219.82,125.24h-4.24a2.24,2.24,0,0,0,.54,1.55,1.86,1.86,0,0,0,1.42.54,3,3,0,0,0,1.86-.67v.9a3.48,3.48,0,0,1-2.09.57,2.54,2.54,0,0,1-2-.82,3.35,3.35,0,0,1-.73-2.3,3.28,3.28,0,0,1,.79-2.28,2.55,2.55,0,0,1,2-.88,2.26,2.26,0,0,1,1.82.76,3.18,3.18,0,0,1,.64,2.12Zm-1-.81a2,2,0,0,0-.4-1.29,1.37,1.37,0,0,0-1.1-.46,1.55,1.55,0,0,0-1.15.49,2.21,2.21,0,0,0-.59,1.27Z" fill="#2b3033"/><path d="M220.91,127.78v-1a2.84,2.84,0,0,0,1.73.58q1.27,0,1.27-.84a.73.73,0,0,0-.11-.41,1.08,1.08,0,0,0-.29-.3,2.26,2.26,0,0,0-.43-.23l-.54-.21a6.9,6.9,0,0,1-.7-.32,2.12,2.12,0,0,1-.5-.36,1.35,1.35,0,0,1-.3-.46,1.63,1.63,0,0,1-.1-.6,1.43,1.43,0,0,1,.19-.75,1.71,1.71,0,0,1,.52-.54,2.4,2.4,0,0,1,.74-.33,3.26,3.26,0,0,1,.85-.11,3.44,3.44,0,0,1,1.39.27v1a2.72,2.72,0,0,0-1.52-.43,1.78,1.78,0,0,0-.49.06,1.19,1.19,0,0,0-.37.17.8.8,0,0,0-.24.27.7.7,0,0,0-.08.34.82.82,0,0,0,.08.39.86.86,0,0,0,.25.28,1.9,1.9,0,0,0,.4.22l.53.22a7.42,7.42,0,0,1,.71.31,2.45,2.45,0,0,1,.54.36,1.42,1.42,0,0,1,.34.47,1.5,1.5,0,0,1,.12.63,1.48,1.48,0,0,1-.2.77,1.68,1.68,0,0,1-.52.54,2.4,2.4,0,0,1-.76.32,3.73,3.73,0,0,1-.9.11A3.4,3.4,0,0,1,220.91,127.78Z" fill="#2b3033"/><path d="M228.88,128.14a2.78,2.78,0,0,1-2.12-.84,3.11,3.11,0,0,1-.79-2.23,3.24,3.24,0,0,1,.83-2.36,3,3,0,0,1,2.23-.85,2.69,2.69,0,0,1,2.09.83,3.28,3.28,0,0,1,.75,2.29,3.22,3.22,0,0,1-.81,2.3A2.84,2.84,0,0,1,228.88,128.14Zm.07-5.47a1.83,1.83,0,0,0-1.46.63,2.59,2.59,0,0,0-.54,1.74,2.45,2.45,0,0,0,.54,1.68,1.85,1.85,0,0,0,1.46.62,1.76,1.76,0,0,0,1.43-.6,2.62,2.62,0,0,0,.5-1.72,2.66,2.66,0,0,0-.5-1.73A1.75,1.75,0,0,0,228.95,122.67Z" fill="#2b3033"/><path d="M238.25,128h-1v-.95h0a2,2,0,0,1-1.85,1.09q-2.14,0-2.14-2.55V122h1v3.43q0,1.9,1.45,1.9a1.47,1.47,0,0,0,1.16-.52,2,2,0,0,0,.45-1.36V122h1Z" fill="#2b3033"/><path d="M243.32,123a1.18,1.18,0,0,0-.73-.19,1.23,1.23,0,0,0-1,.58,2.68,2.68,0,0,0-.41,1.58V128h-1v-6h1v1.24h0a2.1,2.1,0,0,1,.63-1,1.43,1.43,0,0,1,.94-.35,1.57,1.57,0,0,1,.57.08Z" fill="#2b3033"/><path d="M248.29,127.72a3.12,3.12,0,0,1-1.64.42,2.72,2.72,0,0,1-2.07-.83,3,3,0,0,1-.79-2.17,3.33,3.33,0,0,1,.85-2.38,3,3,0,0,1,2.27-.9,3.16,3.16,0,0,1,1.39.29v1a2.44,2.44,0,0,0-1.43-.47,1.93,1.93,0,0,0-1.51.66,2.5,2.5,0,0,0-.59,1.73,2.38,2.38,0,0,0,.55,1.66,1.91,1.91,0,0,0,1.49.61,2.41,2.41,0,0,0,1.48-.52Z" fill="#2b3033"/><path d="M254.57,125.24h-4.24a2.24,2.24,0,0,0,.54,1.55,1.86,1.86,0,0,0,1.42.54,3,3,0,0,0,1.86-.67v.9a3.48,3.48,0,0,1-2.09.57,2.54,2.54,0,0,1-2-.82,3.35,3.35,0,0,1-.73-2.3,3.28,3.28,0,0,1,.79-2.28,2.55,2.55,0,0,1,2-.88,2.26,2.26,0,0,1,1.82.76,3.18,3.18,0,0,1,.64,2.12Zm-1-.81a2,2,0,0,0-.4-1.29,1.37,1.37,0,0,0-1.1-.46,1.55,1.55,0,0,0-1.15.49,2.21,2.21,0,0,0-.59,1.27Z" fill="#2b3033"/><path d="M255.66,127.78v-1a2.84,2.84,0,0,0,1.73.58q1.27,0,1.27-.84a.73.73,0,0,0-.11-.41,1.08,1.08,0,0,0-.29-.3,2.26,2.26,0,0,0-.43-.23l-.54-.21a6.9,6.9,0,0,1-.7-.32,2.12,2.12,0,0,1-.5-.36,1.35,1.35,0,0,1-.3-.46,1.63,1.63,0,0,1-.1-.6,1.43,1.43,0,0,1,.19-.75,1.71,1.71,0,0,1,.52-.54,2.4,2.4,0,0,1,.74-.33,3.26,3.26,0,0,1,.85-.11,3.44,3.44,0,0,1,1.39.27v1a2.72,2.72,0,0,0-1.52-.43,1.78,1.78,0,0,0-.49.06,1.19,1.19,0,0,0-.37.17.8.8,0,0,0-.24.27.7.7,0,0,0-.08.34.82.82,0,0,0,.08.39.86.86,0,0,0,.25.28,1.9,1.9,0,0,0,.4.22l.53.22a7.42,7.42,0,0,1,.71.31,2.45,2.45,0,0,1,.54.36,1.42,1.42,0,0,1,.34.47,1.5,1.5,0,0,1,.12.63,1.48,1.48,0,0,1-.2.77,1.68,1.68,0,0,1-.52.54,2.4,2.4,0,0,1-.76.32,3.73,3.73,0,0,1-.9.11A3.4,3.4,0,0,1,255.66,127.78Z" fill="#2b3033"/><path d="M261.45,128.13a.62.62,0,0,1-.46-.19.64.64,0,0,1-.19-.46A.65.65,0,0,1,261,127a.62.62,0,0,1,.46-.2.63.63,0,0,1,.47.2.64.64,0,0,1,.19.47.63.63,0,0,1-.19.46A.64.64,0,0,1,261.45,128.13Z" fill="#2b3033"/><rect x="67" y="143.06" width="248" height="29" fill="#ebebeb"/><path d="M79.09,158.89v3.18h-1v-8.4h2.31a3,3,0,0,1,2.09.66,2.34,2.34,0,0,1,.74,1.85,2.55,2.55,0,0,1-.82,2,3.15,3.15,0,0,1-2.22.76Zm0-4.34V158h1a2.31,2.31,0,0,0,1.56-.47,1.65,1.65,0,0,0,.54-1.32q0-1.66-2-1.66Z" fill="#2b3033"/><path d="M87.82,157a1.18,1.18,0,0,0-.73-.19,1.23,1.23,0,0,0-1,.58,2.68,2.68,0,0,0-.41,1.58v3.06h-1v-6h1v1.24h0a2.1,2.1,0,0,1,.63-1,1.43,1.43,0,0,1,.94-.35,1.57,1.57,0,0,1,.57.08Z" fill="#2b3033"/><path d="M93.53,159.3H89.29a2.24,2.24,0,0,0,.54,1.55,1.86,1.86,0,0,0,1.42.54,3,3,0,0,0,1.86-.67v.9a3.48,3.48,0,0,1-2.09.57,2.54,2.54,0,0,1-2-.82,3.35,3.35,0,0,1-.73-2.3,3.28,3.28,0,0,1,.79-2.28,2.55,2.55,0,0,1,2-.88,2.26,2.26,0,0,1,1.82.76,3.18,3.18,0,0,1,.64,2.12Zm-1-.81a2,2,0,0,0-.4-1.29,1.37,1.37,0,0,0-1.1-.46,1.55,1.55,0,0,0-1.15.49,2.21,2.21,0,0,0-.59,1.27Z" fill="#2b3033"/><path d="M94.62,161.85v-1a2.84,2.84,0,0,0,1.73.58q1.27,0,1.27-.84a.73.73,0,0,0-.11-.41,1.08,1.08,0,0,0-.29-.3,2.26,2.26,0,0,0-.43-.23l-.54-.21a6.9,6.9,0,0,1-.7-.32,2.12,2.12,0,0,1-.5-.36,1.35,1.35,0,0,1-.3-.46,1.63,1.63,0,0,1-.1-.6,1.43,1.43,0,0,1,.19-.75,1.71,1.71,0,0,1,.52-.54,2.4,2.4,0,0,1,.74-.33,3.26,3.26,0,0,1,.85-.11,3.44,3.44,0,0,1,1.39.27v1a2.72,2.72,0,0,0-1.52-.43,1.78,1.78,0,0,0-.49.06,1.19,1.19,0,0,0-.37.17.8.8,0,0,0-.24.27.7.7,0,0,0-.08.34.82.82,0,0,0,.08.39.86.86,0,0,0,.25.28,1.9,1.9,0,0,0,.4.22l.53.22a7.42,7.42,0,0,1,.71.31,2.45,2.45,0,0,1,.54.36,1.42,1.42,0,0,1,.34.47,1.5,1.5,0,0,1,.12.63,1.48,1.48,0,0,1-.2.77,1.68,1.68,0,0,1-.52.54,2.4,2.4,0,0,1-.76.32,3.73,3.73,0,0,1-.9.11A3.4,3.4,0,0,1,94.62,161.85Z" fill="#2b3033"/><path d="M99.71,161.85v-1a2.84,2.84,0,0,0,1.73.58q1.27,0,1.27-.84a.73.73,0,0,0-.11-.41,1.08,1.08,0,0,0-.29-.3,2.26,2.26,0,0,0-.43-.23l-.54-.21a6.9,6.9,0,0,1-.7-.32,2.12,2.12,0,0,1-.5-.36,1.35,1.35,0,0,1-.3-.46,1.63,1.63,0,0,1-.1-.6,1.43,1.43,0,0,1,.19-.75,1.71,1.71,0,0,1,.52-.54,2.4,2.4,0,0,1,.74-.33,3.26,3.26,0,0,1,.85-.11,3.44,3.44,0,0,1,1.39.27v1a2.72,2.72,0,0,0-1.52-.43,1.78,1.78,0,0,0-.49.06,1.19,1.19,0,0,0-.37.17.8.8,0,0,0-.24.27.7.7,0,0,0-.08.34.82.82,0,0,0,.08.39.86.86,0,0,0,.25.28,1.9,1.9,0,0,0,.4.22l.53.22a7.42,7.42,0,0,1,.71.31,2.45,2.45,0,0,1,.54.36,1.42,1.42,0,0,1,.34.47,1.5,1.5,0,0,1,.12.63,1.48,1.48,0,0,1-.2.77,1.68,1.68,0,0,1-.52.54,2.4,2.4,0,0,1-.76.32,3.73,3.73,0,0,1-.9.11A3.4,3.4,0,0,1,99.71,161.85Z" fill="#2b3033"/><path d="M112.85,154.55h-3.28v2.91h3v.88h-3v3.72h-1v-8.4h4.27Z" fill="#2b3033"/><path d="M117.58,162.06h-1V154.8a2.22,2.22,0,0,1-.33.25,5.3,5.3,0,0,1-.48.28q-.27.14-.56.26a4.09,4.09,0,0,1-.58.19v-1a5.59,5.59,0,0,0,.67-.24q.35-.15.7-.33t.65-.39a5.14,5.14,0,0,0,.53-.4h.36Z" fill="#2b3033"/><path d="M127,154a1.28,1.28,0,0,0-.64-.16q-1,0-1,1.27v.93h1.41v.82h-1.41v5.18h-1v-5.18h-1v-.82h1v-1a2,2,0,0,1,.54-1.49,1.84,1.84,0,0,1,1.36-.55,1.88,1.88,0,0,1,.7.11Z" fill="#2b3033"/><path d="M130.33,162.2a2.78,2.78,0,0,1-2.12-.84,3.11,3.11,0,0,1-.79-2.23,3.24,3.24,0,0,1,.83-2.36,3,3,0,0,1,2.23-.85,2.69,2.69,0,0,1,2.09.83,3.28,3.28,0,0,1,.75,2.29,3.22,3.22,0,0,1-.81,2.3A2.84,2.84,0,0,1,130.33,162.2Zm.07-5.47a1.83,1.83,0,0,0-1.46.63,2.59,2.59,0,0,0-.54,1.74,2.45,2.45,0,0,0,.54,1.68,1.85,1.85,0,0,0,1.46.62,1.76,1.76,0,0,0,1.43-.6,2.62,2.62,0,0,0,.5-1.72,2.66,2.66,0,0,0-.5-1.73A1.75,1.75,0,0,0,130.4,156.73Z" fill="#2b3033"/><path d="M138,157a1.18,1.18,0,0,0-.73-.19,1.23,1.23,0,0,0-1,.58,2.68,2.68,0,0,0-.41,1.58v3.06h-1v-6h1v1.24h0a2.1,2.1,0,0,1,.63-1,1.43,1.43,0,0,1,.94-.35,1.57,1.57,0,0,1,.57.08Z" fill="#2b3033"/><path d="M150.83,162.06h-1v-3.45a2.6,2.6,0,0,0-.31-1.44,1.17,1.17,0,0,0-1-.45,1.28,1.28,0,0,0-1,.56,2.15,2.15,0,0,0-.43,1.35v3.42h-1V158.5q0-1.77-1.37-1.77a1.26,1.26,0,0,0-1,.53,2.19,2.19,0,0,0-.41,1.38v3.42h-1v-6h1V157h0a2,2,0,0,1,1.86-1.09,1.73,1.73,0,0,1,1.7,1.24,2.14,2.14,0,0,1,2-1.24q2,0,2,2.44Z" fill="#2b3033"/><path d="M155.16,162.2a2.78,2.78,0,0,1-2.12-.84,3.11,3.11,0,0,1-.79-2.23,3.24,3.24,0,0,1,.83-2.36,3,3,0,0,1,2.23-.85,2.69,2.69,0,0,1,2.09.83,3.28,3.28,0,0,1,.75,2.29,3.22,3.22,0,0,1-.81,2.3A2.84,2.84,0,0,1,155.16,162.2Zm.07-5.47a1.83,1.83,0,0,0-1.46.63,2.59,2.59,0,0,0-.54,1.74,2.45,2.45,0,0,0,.54,1.68,1.85,1.85,0,0,0,1.46.62,1.76,1.76,0,0,0,1.43-.6,2.62,2.62,0,0,0,.5-1.72,2.66,2.66,0,0,0-.5-1.73A1.75,1.75,0,0,0,155.23,156.73Z" fill="#2b3033"/><path d="M162.81,157a1.18,1.18,0,0,0-.73-.19,1.23,1.23,0,0,0-1,.58,2.68,2.68,0,0,0-.41,1.58v3.06h-1v-6h1v1.24h0a2.1,2.1,0,0,1,.63-1,1.43,1.43,0,0,1,.94-.35,1.57,1.57,0,0,1,.57.08Z" fill="#2b3033"/><path d="M168.52,159.3h-4.24a2.24,2.24,0,0,0,.54,1.55,1.86,1.86,0,0,0,1.42.54,3,3,0,0,0,1.86-.67v.9a3.48,3.48,0,0,1-2.09.57,2.54,2.54,0,0,1-2-.82,3.35,3.35,0,0,1-.73-2.3,3.28,3.28,0,0,1,.79-2.28,2.55,2.55,0,0,1,2-.88,2.26,2.26,0,0,1,1.82.76,3.18,3.18,0,0,1,.64,2.12Zm-1-.81a2,2,0,0,0-.4-1.29,1.37,1.37,0,0,0-1.1-.46,1.55,1.55,0,0,0-1.15.49,2.21,2.21,0,0,0-.59,1.27Z" fill="#2b3033"/><path d="M178.24,162.06h-1v-3.46q0-1.87-1.39-1.87a1.52,1.52,0,0,0-1.18.54,2,2,0,0,0-.48,1.39v3.4h-1v-8.88h1v3.88h0a2.18,2.18,0,0,1,2-1.14q2,0,2,2.44Z" fill="#2b3033"/><path d="M184.87,159.3h-4.24a2.24,2.24,0,0,0,.54,1.55,1.86,1.86,0,0,0,1.42.54,3,3,0,0,0,1.86-.67v.9a3.48,3.48,0,0,1-2.09.57,2.54,2.54,0,0,1-2-.82,3.35,3.35,0,0,1-.73-2.3,3.28,3.28,0,0,1,.79-2.28,2.55,2.55,0,0,1,2-.88,2.26,2.26,0,0,1,1.82.76,3.18,3.18,0,0,1,.64,2.12Zm-1-.81a2,2,0,0,0-.4-1.29,1.37,1.37,0,0,0-1.1-.46,1.55,1.55,0,0,0-1.15.49,2.21,2.21,0,0,0-.59,1.27Z" fill="#2b3033"/><path d="M187.29,162.06h-1v-8.88h1Z" fill="#2b3033"/><path d="M190.21,161.2h0v3.63h-1v-8.76h1v1.05h0a2.27,2.27,0,0,1,2.07-1.2,2.2,2.2,0,0,1,1.81.81,3.34,3.34,0,0,1,.65,2.16,3.72,3.72,0,0,1-.73,2.41,2.44,2.44,0,0,1-2,.91A2,2,0,0,1,190.21,161.2Zm0-2.42v.84a1.78,1.78,0,0,0,.48,1.26,1.72,1.72,0,0,0,2.6-.15,3.06,3.06,0,0,0,.5-1.86,2.42,2.42,0,0,0-.46-1.57,1.53,1.53,0,0,0-1.25-.57,1.7,1.7,0,0,0-1.35.58A2.14,2.14,0,0,0,190.19,158.78Z" fill="#2b3033"/><use width="12" height="20.32" transform="translate(75.59 15.21)" xlink:href="#cursor"/></svg>