<svg id="Layer_1" data-name="Layer 1" xmlns="http://www.w3.org/2000/svg" xmlns:xlink="http://www.w3.org/1999/xlink" width="463" height="232" viewBox="0 0 463 232"><defs><clipPath id="clip-path"><path d="M-129,230.93a8.62,8.62,0,0,0,4.84-1.76,39.16,39.16,0,0,0,4.84-4.24,40.67,40.67,0,0,1,4.84-4.24,8.67,8.67,0,0,1,4.84-1.76,8.62,8.62,0,0,1,4.84,1.76,39.16,39.16,0,0,1,4.84,4.24,40.67,40.67,0,0,0,4.84,4.24,8.67,8.67,0,0,0,4.84,1.76,8.65,8.65,0,0,0,4.84-1.76,39.9,39.9,0,0,0,4.84-4.24,39.9,39.9,0,0,1,4.84-4.24,8.65,8.65,0,0,1,4.84-1.76,8.65,8.65,0,0,1,4.84,1.76,39.9,39.9,0,0,1,4.84,4.24,39.9,39.9,0,0,0,4.84,4.24,8.65,8.65,0,0,0,4.84,1.76,8.65,8.65,0,0,0,4.84-1.76,39.9,39.9,0,0,0,4.84-4.24A39.9,39.9,0,0,1-37,220.69a8.65,8.65,0,0,1,4.84-1.76,8.65,8.65,0,0,1,4.84,1.76,39.9,39.9,0,0,1,4.84,4.24,39.9,39.9,0,0,0,4.84,4.24,8.62,8.62,0,0,0,4.84,1.76A8.67,8.67,0,0,0-8,229.17a40.67,40.67,0,0,0,4.84-4.24,39.16,39.16,0,0,1,4.84-4.24,8.62,8.62,0,0,1,4.84-1.76,8.67,8.67,0,0,1,4.84,1.76,40.67,40.67,0,0,1,4.84,4.24A39.16,39.16,0,0,0,21,229.17a8.62,8.62,0,0,0,4.84,1.76,8.67,8.67,0,0,0,4.84-1.76,40.67,40.67,0,0,0,4.84-4.24,39.16,39.16,0,0,1,4.84-4.24,8.62,8.62,0,0,1,4.84-1.76,8.67,8.67,0,0,1,4.84,1.76,40.67,40.67,0,0,1,4.84,4.24,39.84,39.84,0,0,0,4.83,4.24,8.67,8.67,0,0,0,4.84,1.76,8.62,8.62,0,0,0,4.84-1.76,39.16,39.16,0,0,0,4.84-4.24,40.67,40.67,0,0,1,4.84-4.24,7.54,7.54,0,0,1,9.68,0,39.16,39.16,0,0,1,4.84,4.24,40.67,40.67,0,0,0,4.84,4.24,7.53,7.53,0,0,0,9.68,0,39.16,39.16,0,0,0,4.84-4.24,40.67,40.67,0,0,1,4.84-4.24,7.54,7.54,0,0,1,9.68,0,39.9,39.9,0,0,1,4.84,4.24,39.9,39.9,0,0,0,4.84,4.24,7.54,7.54,0,0,0,9.68,0,39.16,39.16,0,0,0,4.84-4.24,40.67,40.67,0,0,1,4.84-4.24,7.54,7.54,0,0,1,9.68,0,39.16,39.16,0,0,1,4.84,4.24,40.67,40.67,0,0,0,4.84,4.24,7.55,7.55,0,0,0,9.68,0,39.28,39.28,0,0,0,4.84-4.25,40.67,40.67,0,0,1,4.84-4.24,8.66,8.66,0,0,1,4.84-1.75A8.55,8.55,0,0,1,205,220.7a39.16,39.16,0,0,1,4.84,4.24,40.67,40.67,0,0,0,4.84,4.24,7.55,7.55,0,0,0,9.68,0,40.91,40.91,0,0,0,4.84-4.25A40.67,40.67,0,0,1,234,220.7a7.57,7.57,0,0,1,9.68,0,40.13,40.13,0,0,1,4.84,4.25,39.9,39.9,0,0,0,4.84,4.24,7.53,7.53,0,0,0,9.68,0,39.9,39.9,0,0,0,4.84-4.24,39.9,39.9,0,0,1,4.84-4.24,7.57,7.57,0,0,1,9.68,0,40.91,40.91,0,0,1,4.84,4.25,39.16,39.16,0,0,0,4.84,4.24,7.53,7.53,0,0,0,9.68,0,40.67,40.67,0,0,0,4.84-4.24,39.9,39.9,0,0,1,4.84-4.24,7.57,7.57,0,0,1,9.68,0A41.72,41.72,0,0,1,326,225a39.16,39.16,0,0,0,4.84,4.24,7.54,7.54,0,0,0,9.68,0,40.67,40.67,0,0,0,4.84-4.24,39.16,39.16,0,0,1,4.84-4.24,7.57,7.57,0,0,1,9.68,0,41.72,41.72,0,0,1,4.84,4.25,39.84,39.84,0,0,0,4.83,4.24,7.54,7.54,0,0,0,9.68,0A39.16,39.16,0,0,0,384,225a40,40,0,0,1,4.85-4.24,7.55,7.55,0,0,1,9.67,0,39.28,39.28,0,0,1,4.84,4.25,40.67,40.67,0,0,0,4.84,4.24,7.53,7.53,0,0,0,9.68,0,39.16,39.16,0,0,0,4.84-4.24,40.67,40.67,0,0,1,4.84-4.24,7.57,7.57,0,0,1,9.68,0A39.28,39.28,0,0,1,442.1,225a39.9,39.9,0,0,0,4.84,4.24,8.65,8.65,0,0,0,4.84,1.76L452-82.93a8.62,8.62,0,0,0-4.84,1.76,39.16,39.16,0,0,0-4.84,4.24,40.67,40.67,0,0,1-4.84,4.24,8.67,8.67,0,0,1-4.84,1.76,8.62,8.62,0,0,1-4.84-1.76A39.16,39.16,0,0,1,423-76.93a40.67,40.67,0,0,0-4.84-4.24,8.67,8.67,0,0,0-4.84-1.76,8.65,8.65,0,0,0-4.84,1.76,39.9,39.9,0,0,0-4.84,4.24,39.9,39.9,0,0,1-4.84,4.24,8.65,8.65,0,0,1-4.84,1.76,8.65,8.65,0,0,1-4.84-1.76,39.9,39.9,0,0,1-4.84-4.24,39.9,39.9,0,0,0-4.84-4.24,8.65,8.65,0,0,0-4.84-1.76,8.65,8.65,0,0,0-4.84,1.76,39.9,39.9,0,0,0-4.84,4.24A39.9,39.9,0,0,1,360-72.69a8.65,8.65,0,0,1-4.84,1.76,8.65,8.65,0,0,1-4.84-1.76,39.9,39.9,0,0,1-4.84-4.24,39.9,39.9,0,0,0-4.84-4.24,8.62,8.62,0,0,0-4.84-1.76A8.67,8.67,0,0,0,331-81.17a40.67,40.67,0,0,0-4.84,4.24,39.16,39.16,0,0,1-4.84,4.24,8.62,8.62,0,0,1-4.84,1.76,8.67,8.67,0,0,1-4.84-1.76,40.67,40.67,0,0,1-4.84-4.24A39.16,39.16,0,0,0,302-81.17a8.62,8.62,0,0,0-4.84-1.76,8.67,8.67,0,0,0-4.84,1.76,40.67,40.67,0,0,0-4.84,4.24,39.16,39.16,0,0,1-4.84,4.24,8.62,8.62,0,0,1-4.84,1.76,8.67,8.67,0,0,1-4.84-1.76,40.67,40.67,0,0,1-4.84-4.24,39.84,39.84,0,0,0-4.83-4.24,8.67,8.67,0,0,0-4.84-1.76,8.62,8.62,0,0,0-4.84,1.76,39.16,39.16,0,0,0-4.84,4.24,40.67,40.67,0,0,1-4.84,4.24A8.67,8.67,0,0,1,239-70.93a8.62,8.62,0,0,1-4.84-1.76,39.16,39.16,0,0,1-4.84-4.24,40.67,40.67,0,0,0-4.84-4.24,8.67,8.67,0,0,0-4.84-1.76,8.62,8.62,0,0,0-4.84,1.76A39.16,39.16,0,0,0,210-76.93a40.67,40.67,0,0,1-4.84,4.24,8.67,8.67,0,0,1-4.84,1.76,8.62,8.62,0,0,1-4.84-1.76,39.9,39.9,0,0,1-4.84-4.24,39.9,39.9,0,0,0-4.84-4.24A8.65,8.65,0,0,0,181-82.93a8.62,8.62,0,0,0-4.84,1.76,39.16,39.16,0,0,0-4.84,4.24,40.67,40.67,0,0,1-4.84,4.24,8.67,8.67,0,0,1-4.84,1.76,8.62,8.62,0,0,1-4.84-1.76,39.16,39.16,0,0,1-4.84-4.24,40.67,40.67,0,0,0-4.84-4.24,8.65,8.65,0,0,0-4.84-1.76,8.6,8.6,0,0,0-4.84,1.75,39.28,39.28,0,0,0-4.84,4.25,40.67,40.67,0,0,1-4.84,4.24,8.66,8.66,0,0,1-4.84,1.75A8.55,8.55,0,0,1,118-72.7a39.16,39.16,0,0,1-4.84-4.24,40.67,40.67,0,0,0-4.84-4.24,8.65,8.65,0,0,0-4.84-1.76,8.63,8.63,0,0,0-4.84,1.75,40.91,40.91,0,0,0-4.84,4.25A40.67,40.67,0,0,1,89-72.7a8.66,8.66,0,0,1-4.84,1.75,8.6,8.6,0,0,1-4.84-1.75,40.13,40.13,0,0,1-4.84-4.25,39.9,39.9,0,0,0-4.84-4.24,8.65,8.65,0,0,0-4.84-1.76A8.57,8.57,0,0,0,60-81.19a39.9,39.9,0,0,0-4.84,4.24,39.9,39.9,0,0,1-4.84,4.24A8.63,8.63,0,0,1,45.45-71a8.63,8.63,0,0,1-4.84-1.75A40.91,40.91,0,0,1,35.77-77a39.16,39.16,0,0,0-4.84-4.24A8.62,8.62,0,0,0,26.09-83a8.6,8.6,0,0,0-4.84,1.76A40.67,40.67,0,0,0,16.41-77a39.9,39.9,0,0,1-4.84,4.24A8.63,8.63,0,0,1,6.73-71a8.63,8.63,0,0,1-4.84-1.75A41.72,41.72,0,0,1-3-77a39.16,39.16,0,0,0-4.84-4.24A8.62,8.62,0,0,0-12.63-83a8.67,8.67,0,0,0-4.84,1.76A40.67,40.67,0,0,0-22.31-77a39.16,39.16,0,0,1-4.84,4.24A8.6,8.6,0,0,1-32-71a8.66,8.66,0,0,1-4.84-1.75A41.72,41.72,0,0,1-41.67-77a39.84,39.84,0,0,0-4.83-4.24A8.67,8.67,0,0,0-51.34-83a8.62,8.62,0,0,0-4.84,1.76A39.16,39.16,0,0,0-61-77a40,40,0,0,1-4.85,4.24A8.53,8.53,0,0,1-70.71-71a8.6,8.6,0,0,1-4.83-1.75A39.28,39.28,0,0,1-80.38-77a40.67,40.67,0,0,0-4.84-4.24A8.67,8.67,0,0,0-90.06-83a8.65,8.65,0,0,0-4.84,1.76A39.16,39.16,0,0,0-99.74-77a40.67,40.67,0,0,1-4.84,4.24A8.58,8.58,0,0,1-109.42-71a8.6,8.6,0,0,1-4.84-1.75A39.28,39.28,0,0,1-119.1-77a39.9,39.9,0,0,0-4.84-4.24A8.65,8.65,0,0,0-128.78-83Z" fill="none"/></clipPath><linearGradient id="linear-gradient" x1="150" y1="0.5" x2="150" y2="29.5" gradientUnits="userSpaceOnUse"><stop offset="0" stop-color="#e9ebec"/><stop offset="0.35" stop-color="#e2e5e7"/><stop offset="1" stop-color="#d9dee1"/></linearGradient><linearGradient id="linear-gradient-2" x1="150" y1="1.23" x2="150" y2="28.69" gradientUnits="userSpaceOnUse"><stop offset="0" stop-color="#ebe9ec"/><stop offset="0.29" stop-color="#e5e6e9"/><stop offset="1" stop-color="#dadfe2"/></linearGradient><clipPath id="clip-path-2"><rect width="300" height="240" fill="none"/></clipPath><symbol id="cursor" data-name="cursor" viewBox="0 0 12 20.32"><polygon points="12 11.66 12 10.65 10.88 10.65 10.88 9.83 9.89 9.83 9.88 9.82 9.88 8.84 8.9 8.84 8.89 8.83 8.89 7.85 7.91 7.85 7.91 7.84 7.91 6.86 6.93 6.86 6.92 6.86 6.92 5.88 5.94 5.88 5.93 5.87 5.93 4.88 4.95 4.88 4.94 4.88 4.94 3.9 3.96 3.9 3.95 3.89 3.95 2.9 2.97 2.9 2.96 2.9 2.96 1.92 1.98 1.92 1.97 1.91 1.97 0.93 1 0.93 1 0 0 0 0 17.31 1 17.31 1 16.51 1.98 16.51 1.98 15.53 1.98 15.52 2.96 15.52 2.96 14.54 2.97 14.53 3.95 14.53 3.95 13.59 4.93 13.59 4.93 15.5 5.93 15.5 5.93 17.41 6.93 17.41 6.93 17.39 6.93 17.39 6.93 19.32 7.92 19.32 7.92 20.32 9.85 20.32 9.85 19.32 10.85 19.32 10.85 17.39 9.87 17.39 9.87 15.47 8.89 15.47 8.89 13.54 7.94 13.54 7.94 11.66 12 11.66" fill="#fff"/><polygon points="12 10.65 12 11.66 7.94 11.66 7.94 13.54 7.89 13.56 6.94 13.56 6.94 10.65 6.95 10.65 7.94 10.65 9.89 10.65 9.89 9.83 10.88 9.83 10.88 10.65 12 10.65" fill="#221f1f"/><polygon points="10.85 17.39 10.85 19.32 9.85 19.32 9.85 19.32 9.85 17.39 9.87 17.39 10.85 17.39" fill="#221f1f"/><rect x="8.9" y="8.84" width="0.98" height="0.98" fill="#221f1f"/><polygon points="9.87 15.47 9.87 17.39 9.85 17.39 8.87 17.39 8.87 15.47 8.89 15.47 9.87 15.47" fill="#221f1f"/><polygon points="9.85 19.32 9.85 20.32 7.92 20.32 7.92 19.32 7.93 19.32 9.85 19.32 9.85 19.32" fill="#221f1f"/><rect x="7.91" y="7.85" width="0.98" height="0.98" fill="#221f1f"/><polygon points="8.89 13.54 8.89 15.47 8.87 15.47 7.89 15.47 7.89 13.56 7.94 13.54 8.89 13.54" fill="#221f1f"/><polygon points="7.93 17.39 7.93 19.32 7.92 19.32 6.93 19.32 6.93 17.39 7.93 17.39" fill="#221f1f"/><rect x="6.93" y="6.86" width="0.98" height="0.98" fill="#221f1f"/><polygon points="6.93 17.39 6.93 17.41 5.93 17.41 5.93 15.5 5.93 15.48 6.93 15.48 6.93 17.39" fill="#221f1f"/><rect x="5.94" y="5.88" width="0.98" height="0.98" fill="#221f1f"/><polygon points="5.93 13.57 5.93 15.48 5.93 15.5 4.93 15.5 4.93 13.59 4.93 13.57 5.93 13.57" fill="#221f1f"/><rect x="4.95" y="4.88" width="0.98" height="0.98" fill="#221f1f"/><rect x="3.96" y="3.89" width="0.98" height="0.98" fill="#221f1f"/><polygon points="4.93 13.57 4.93 13.59 3.95 13.59 3.94 13.55 3.94 11.66 4.93 11.66 4.93 13.57" fill="#221f1f"/><rect x="2.97" y="2.91" width="0.98" height="0.98" fill="#221f1f"/><polygon points="3.95 13.59 3.95 14.53 2.97 14.53 2.97 13.55 3.94 13.55 3.95 13.59" fill="#221f1f"/><rect x="1.98" y="14.54" width="0.98" height="0.98" fill="#221f1f"/><rect x="1.98" y="1.92" width="0.98" height="0.98" fill="#221f1f"/><polygon points="1.98 15.53 1.98 16.51 1 16.51 1 17.31 0 17.31 0 0 1 0 1 0.93 1.97 0.93 1.97 1.91 1 1.91 1 15.53 1.98 15.53" fill="#221f1f"/></symbol></defs><title>tips-tooltip-file-path-do</title><g clip-path="url(#clip-path)"><rect x="0.5" y="0.5" width="299" height="371.37" fill="#f7f7f7"/><path d="M299,1V371.37H1V1H299m1-1H0V372.37H300V0Z" fill="#82878c"/><rect x="0.5" y="0.5" width="299" height="29" fill="url(#linear-gradient)"/><path d="M299,1V29H1V1H299m1-1H0V30H300V0Z" fill="#82878c"/><rect x="149.5" y="-119.5" width="1" height="298" transform="translate(179.5 -120.5) rotate(90)" fill="#a9acaf"/><rect x="1" y="1" width="298" height="28" fill="url(#linear-gradient-2)"/><polygon points="11 15.5 14 13 14 14.67 13 15.5 14 16.33 14 18 11 15.5" fill="#696e73"/><polygon points="18 16.33 17 15.5 18 14.67 18 13 15 15.5 18 18 18 16.33" fill="#696e73"/><rect x="30" y="1" width="35" height="29" fill="#4386b9"/></g><rect x="1" y="30" width="298" height="25" fill="#f7f7f7"/><rect x="1" y="55" width="298" height="1" fill="#fff"/><rect x="1.5" y="56.5" width="297" height="1" fill="#d9dee1"/><polygon points="299 56 1 56 1 58 299 58 299 56 299 56" fill="#82878c"/><path d="M53,10H50V7Zm0,1V23H41V7h8v4Z" fill="#fdfeff"/><path d="M81,8.92c-4.12,0-7,1.07-7,2,0,.46.67,1,1.81,1.33l.41.13.47.12A18.75,18.75,0,0,0,81,13a18.77,18.77,0,0,0,4.31-.46l.47-.12.41-.13C87.33,11.91,88,11.42,88,11c0-1-2.88-2-7-2m7,10.75-.06,0a3.14,3.14,0,0,1-.42.3l0,0a5,5,0,0,1-.58.28h0l-.13.05-.2.07-.36.13-.13,0-.08,0-.74.18-.17,0-.85.15-.17,0-.83.1-.13,0-.94.07H82l-1,0-1,0h-.21l-.93-.07-.13,0-.82-.1-.17,0-.85-.15-.17,0c-.26-.06-.5-.12-.74-.19l-.07,0-.13,0-.36-.12-.21-.07-.13-.05h0a5,5,0,0,1-.59-.28l0,0a3,3,0,0,1-.42-.3l-.06,0V21c0,.46.66.95,1.81,1.33l.41.13.47.12a20.45,20.45,0,0,0,8.62,0l.47-.12.41-.13C87.33,21.91,88,21.42,88,21Zm0-3.34-.06,0a3.14,3.14,0,0,1-.42.3l0,0a5.19,5.19,0,0,1-.58.28h0l-.13.05-.2.07-.36.13-.13,0-.08,0-.74.18-.17,0-.85.15-.17,0-.83.1H83.1l-.94.07H82l-1,0-1,0h-.21l-.93-.07h-.13l-.82-.1-.17,0-.85-.15-.17,0L76,17.31l-.07,0-.13,0-.36-.12-.21-.07L75.12,17h0a5.16,5.16,0,0,1-.59-.28l0,0a3,3,0,0,1-.42-.3l-.06,0v1.28c0,.46.66.95,1.81,1.33l.41.13.47.12a18.74,18.74,0,0,0,4.31.46,18.77,18.77,0,0,0,4.31-.46l.47-.12.41-.13c1.14-.38,1.81-.87,1.81-1.33ZM88,13l-.06,0a3.14,3.14,0,0,1-.42.3l0,0a5.19,5.19,0,0,1-.58.28h0l-.13.05-.2.07-.36.13-.13,0L86,14l-.74.18-.17,0-.85.15-.17,0-.83.1-.13,0-.94.07H82l-1,0-1,0h-.21l-.93-.07-.13,0-.82-.1-.17,0-.85-.15-.17,0L76,14l-.07,0-.13,0-.36-.12-.21-.07-.13-.05h0a5.16,5.16,0,0,1-.59-.28l0,0a3,3,0,0,1-.42-.3L74,13v1.28c0,.46.66.95,1.81,1.33l.41.13.47.12a18.74,18.74,0,0,0,4.31.46,18.77,18.77,0,0,0,4.31-.46l.47-.12.41-.13c1.14-.38,1.81-.87,1.81-1.33Z" fill="#696e73"/><path d="M119.53,9h-9.07A8.82,8.82,0,0,0,107,16a9.1,9.1,0,0,0,3.77,7h8.77a8.8,8.8,0,0,0,0-14ZM115,20a4,4,0,1,1,4-4A4,4,0,0,1,115,20Zm3-4a3,3,0,1,1-3-3A3,3,0,0,1,118,16Z" fill="#696e73"/><rect x="40" y="37" width="2" height="2" fill="#696e73"/><rect x="40" y="42" width="2" height="2" fill="#696e73"/><rect x="40" y="47" width="2" height="2" fill="#696e73"/><rect x="43" y="37" width="11" height="2" fill="#696e73"/><rect x="43" y="42" width="11" height="2" fill="#696e73"/><rect x="43" y="47" width="11" height="2" fill="#696e73"/><rect x="14" y="35" width="11" height="2" fill="#696e73"/><rect x="11" y="35" width="2" height="2" fill="#696e73"/><rect x="14" y="48" width="11" height="2" fill="#696e73"/><rect x="11" y="48" width="2" height="2" fill="#696e73"/><rect x="15" y="39" width="10" height="1" fill="#696e73"/><rect x="15" y="42" width="10" height="1" fill="#696e73"/><rect x="15" y="45" width="10" height="1" fill="#696e73"/><polygon points="122 47.5 117.5 43 122 38.5 120.5 37 116 41.5 111.5 37 110 38.5 114.5 43 110 47.5 111.5 49 116 44.5 120.5 49 122 47.5" fill="#696e73"/><polygon points="81 41 77 41 77 37 75 37 75 41 71 41 71 43 75 43 75 47 77 47 77 43 81 43 81 41" fill="#696e73"/><polygon points="92.61 50 96 45 89.22 45 92.61 50" fill="#696e73"/><path d="M283,35H268v2h.43a2.69,2.69,0,1,0,3.78,3.77L274,43.6v6l3-2.4V43.6L281.2,37H283Zm-12.89,5.6a1.5,1.5,0,1,1,0-3h.09l1.3,2a1.5,1.5,0,0,1-1.39.94" fill="#696e73"/><polygon points="292.5 45 296 40 289 40 292.5 45" fill="#696e73"/><path d="M252.23,36.37v2a4,4,0,1,1-3.84,4.07h.11l2.63,1.05-3.56-7.12L244,43.5l2.46-.94a5.78,5.78,0,1,0,5.77-6.18Z" fill="#696e77"/><rect x="2.5" y="125.5" width="295" height="21" fill="#fff"/><path d="M297,126v20H3V126H297m1-1H2v22H298V125Z" fill="#2986bf"/><path d="M59.49,95.2h-1V91.76a2.6,2.6,0,0,0-.31-1.44,1.17,1.17,0,0,0-1-.45,1.28,1.28,0,0,0-1,.56,2.15,2.15,0,0,0-.43,1.35V95.2h-1V91.64q0-1.77-1.37-1.77a1.26,1.26,0,0,0-1,.53,2.19,2.19,0,0,0-.41,1.38V95.2H51v-6h1v.95h0a2,2,0,0,1,1.86-1.09,1.73,1.73,0,0,1,1.7,1.24,2.14,2.14,0,0,1,2-1.24q2,0,2,2.44Z" fill="#2b3033"/><path d="M66.08,89.2l-2.76,7Q62.59,98,61.25,98a2.2,2.2,0,0,1-.63-.08v-.86a1.78,1.78,0,0,0,.57.11,1.18,1.18,0,0,0,1.09-.87l.48-1.14-2.34-6h1.07l1.62,4.62q0,.09.12.46h0q0-.14.12-.45l1.71-4.63Z" fill="#2b3033"/><path d="M68.23,92V95.2h-1V86.8h2.31a3,3,0,0,1,2.09.66,2.34,2.34,0,0,1,.74,1.85,2.55,2.55,0,0,1-.82,2,3.15,3.15,0,0,1-2.22.76Zm0-4.34v3.45h1a2.31,2.31,0,0,0,1.56-.47,1.65,1.65,0,0,0,.54-1.32q0-1.66-2-1.66Z" fill="#2b3033"/><path d="M77,90.17a1.18,1.18,0,0,0-.73-.19,1.23,1.23,0,0,0-1,.58,2.68,2.68,0,0,0-.41,1.58V95.2h-1v-6h1v1.24h0a2.1,2.1,0,0,1,.63-1,1.43,1.43,0,0,1,.94-.35,1.57,1.57,0,0,1,.57.08Z" fill="#2b3033"/><path d="M80.36,95.34a2.78,2.78,0,0,1-2.12-.84,3.11,3.11,0,0,1-.79-2.23,3.24,3.24,0,0,1,.83-2.36,3,3,0,0,1,2.23-.85,2.69,2.69,0,0,1,2.09.83,3.28,3.28,0,0,1,.75,2.29,3.22,3.22,0,0,1-.81,2.3A2.84,2.84,0,0,1,80.36,95.34Zm.07-5.47A1.83,1.83,0,0,0,79,90.5a2.59,2.59,0,0,0-.54,1.74A2.45,2.45,0,0,0,79,93.92a1.85,1.85,0,0,0,1.46.62,1.76,1.76,0,0,0,1.43-.6,2.62,2.62,0,0,0,.5-1.72,2.66,2.66,0,0,0-.5-1.73A1.75,1.75,0,0,0,80.43,89.87Z" fill="#2b3033"/><path d="M85.84,94.95a3.76,3.76,0,0,1-.59,2.28,2,2,0,0,1-1.7.8,1.81,1.81,0,0,1-.8-.19v-.9a1.59,1.59,0,0,0,.82.26q1.31,0,1.31-2.1V89.2h1Zm-.47-7.27a.61.61,0,0,1-.44-.18.59.59,0,0,1-.18-.45.62.62,0,0,1,.62-.63.62.62,0,0,1,.45.18.63.63,0,0,1,0,.89A.62.62,0,0,1,85.37,87.68Z" fill="#2b3033"/><path d="M92.61,92.44H88.37A2.24,2.24,0,0,0,88.91,94a1.86,1.86,0,0,0,1.42.54,3,3,0,0,0,1.86-.67v.9a3.48,3.48,0,0,1-2.09.57,2.54,2.54,0,0,1-2-.82,3.35,3.35,0,0,1-.73-2.3,3.28,3.28,0,0,1,.79-2.28,2.55,2.55,0,0,1,2-.88,2.26,2.26,0,0,1,1.82.76,3.18,3.18,0,0,1,.64,2.12Zm-1-.81a2,2,0,0,0-.4-1.29,1.37,1.37,0,0,0-1.1-.46,1.55,1.55,0,0,0-1.15.49,2.21,2.21,0,0,0-.59,1.27Z" fill="#2b3033"/><path d="M98.15,94.93a3.12,3.12,0,0,1-1.64.42,2.72,2.72,0,0,1-2.07-.83,3,3,0,0,1-.79-2.17A3.33,3.33,0,0,1,94.5,90a3,3,0,0,1,2.27-.9,3.16,3.16,0,0,1,1.39.29v1a2.44,2.44,0,0,0-1.43-.47,1.93,1.93,0,0,0-1.51.66,2.5,2.5,0,0,0-.59,1.73,2.38,2.38,0,0,0,.55,1.66,1.91,1.91,0,0,0,1.49.61A2.41,2.41,0,0,0,98.15,94Z" fill="#2b3033"/><path d="M102.39,95.14a1.85,1.85,0,0,1-.9.19q-1.58,0-1.58-1.76V90h-1V89.2h1V87.74l1-.31V89.2h1.51V90h-1.51V93.4a1.4,1.4,0,0,0,.21.86.82.82,0,0,0,.68.26,1,1,0,0,0,.63-.2Z" fill="#2b3033"/><path d="M104,95.33a.62.62,0,0,1-.46-.19.64.64,0,0,1-.19-.46.65.65,0,0,1,.19-.47A.62.62,0,0,1,104,94a.63.63,0,0,1,.47.2.64.64,0,0,1,.19.47.63.63,0,0,1-.19.46A.64.64,0,0,1,104,95.33Z" fill="#2b3033"/><path d="M107.23,95.2h-1V86.32h1Z" fill="#2b3033"/><path d="M113.9,89.2l-2.39,6h-.94l-2.27-6h1.05l1.52,4.36a3.91,3.91,0,0,1,.21.84h0a4,4,0,0,1,.19-.81l1.59-4.38Z" fill="#2b3033"/><path d="M115.91,94.33h0V98h-1V89.2h1v1.05h0a2.27,2.27,0,0,1,2.07-1.2,2.2,2.2,0,0,1,1.81.81,3.34,3.34,0,0,1,.65,2.16,3.72,3.72,0,0,1-.73,2.41,2.44,2.44,0,0,1-2,.91A2,2,0,0,1,115.91,94.33Zm0-2.42v.84a1.78,1.78,0,0,0,.48,1.26,1.72,1.72,0,0,0,2.6-.15,3.06,3.06,0,0,0,.5-1.86,2.42,2.42,0,0,0-.46-1.57,1.53,1.53,0,0,0-1.25-.57,1.7,1.7,0,0,0-1.35.58A2.14,2.14,0,0,0,115.89,91.91Z" fill="#2b3033"/><path d="M125.11,90.17a1.18,1.18,0,0,0-.73-.19,1.23,1.23,0,0,0-1,.58,2.68,2.68,0,0,0-.41,1.58V95.2h-1v-6h1v1.24h0a2.1,2.1,0,0,1,.63-1,1.43,1.43,0,0,1,.94-.35,1.57,1.57,0,0,1,.57.08Z" fill="#2b3033"/><path d="M128.5,95.34a2.78,2.78,0,0,1-2.12-.84,3.11,3.11,0,0,1-.79-2.23,3.24,3.24,0,0,1,.83-2.36,3,3,0,0,1,2.23-.85,2.69,2.69,0,0,1,2.09.83,3.28,3.28,0,0,1,.75,2.29,3.22,3.22,0,0,1-.81,2.3A2.84,2.84,0,0,1,128.5,95.34Zm.07-5.47a1.83,1.83,0,0,0-1.46.63,2.59,2.59,0,0,0-.54,1.74,2.45,2.45,0,0,0,.54,1.68,1.85,1.85,0,0,0,1.46.62,1.76,1.76,0,0,0,1.43-.6,2.62,2.62,0,0,0,.5-1.72,2.66,2.66,0,0,0-.5-1.73A1.75,1.75,0,0,0,128.57,89.87Z" fill="#2b3033"/><path d="M134,94.95a3.76,3.76,0,0,1-.59,2.28,2,2,0,0,1-1.7.8,1.81,1.81,0,0,1-.8-.19v-.9a1.59,1.59,0,0,0,.82.26q1.31,0,1.31-2.1V89.2h1Zm-.47-7.27a.61.61,0,0,1-.44-.18.59.59,0,0,1-.18-.45.62.62,0,0,1,.62-.63.62.62,0,0,1,.45.18.63.63,0,0,1,0,.89A.62.62,0,0,1,133.52,87.68Z" fill="#2b3033"/><path d="M140.76,92.44h-4.24a2.24,2.24,0,0,0,.54,1.55,1.86,1.86,0,0,0,1.42.54,3,3,0,0,0,1.86-.67v.9a3.48,3.48,0,0,1-2.09.57,2.54,2.54,0,0,1-2-.82,3.35,3.35,0,0,1-.73-2.3,3.28,3.28,0,0,1,.79-2.28,2.55,2.55,0,0,1,2-.88,2.26,2.26,0,0,1,1.82.76,3.18,3.18,0,0,1,.64,2.12Zm-1-.81a2,2,0,0,0-.4-1.29,1.37,1.37,0,0,0-1.1-.46,1.55,1.55,0,0,0-1.15.49,2.21,2.21,0,0,0-.59,1.27Z" fill="#2b3033"/><path d="M146.3,94.93a3.12,3.12,0,0,1-1.64.42,2.72,2.72,0,0,1-2.07-.83,3,3,0,0,1-.79-2.17,3.33,3.33,0,0,1,.85-2.38,3,3,0,0,1,2.27-.9,3.16,3.16,0,0,1,1.39.29v1a2.44,2.44,0,0,0-1.43-.47,1.93,1.93,0,0,0-1.51.66,2.5,2.5,0,0,0-.59,1.73,2.38,2.38,0,0,0,.55,1.66,1.91,1.91,0,0,0,1.49.61A2.41,2.41,0,0,0,146.3,94Z" fill="#2b3033"/><path d="M150.54,95.14a1.85,1.85,0,0,1-.9.19q-1.58,0-1.58-1.76V90h-1V89.2h1V87.74l1-.31V89.2h1.51V90H149V93.4a1.4,1.4,0,0,0,.21.86.82.82,0,0,0,.68.26,1,1,0,0,0,.63-.2Z" fill="#2b3033"/><path d="M61.71,116.86V115.7a2.25,2.25,0,0,0,.48.32,3.87,3.87,0,0,0,.59.24,4.66,4.66,0,0,0,.62.15,3.45,3.45,0,0,0,.57.05,2.25,2.25,0,0,0,1.36-.34,1.26,1.26,0,0,0,.3-1.56,1.68,1.68,0,0,0-.41-.46,4.1,4.1,0,0,0-.62-.4l-.78-.4q-.44-.22-.82-.45a3.55,3.55,0,0,1-.66-.5,2.1,2.1,0,0,1-.44-.62A2.13,2.13,0,0,1,62,109.9a2.16,2.16,0,0,1,.66-.7,3,3,0,0,1,.93-.41,4.28,4.28,0,0,1,1.07-.13,4.1,4.1,0,0,1,1.81.3v1.11a3.28,3.28,0,0,0-1.91-.52,3.14,3.14,0,0,0-.64.07,1.82,1.82,0,0,0-.57.22,1.27,1.27,0,0,0-.41.39,1,1,0,0,0-.16.59,1.21,1.21,0,0,0,.12.56,1.36,1.36,0,0,0,.35.43,3.53,3.53,0,0,0,.57.38l.78.4q.45.22.86.47a3.91,3.91,0,0,1,.71.54,2.42,2.42,0,0,1,.48.66,1.86,1.86,0,0,1,.18.83,2.11,2.11,0,0,1-.24,1.05,2,2,0,0,1-.66.7,2.87,2.87,0,0,1-1,.39,5.21,5.21,0,0,1-1.14.12l-.49,0-.6-.09a4.88,4.88,0,0,1-.58-.15A1.8,1.8,0,0,1,61.71,116.86Z" fill="#2b3033"/><path d="M72.85,111.2l-2.76,7Q69.35,120,68,120a2.2,2.2,0,0,1-.63-.08v-.86a1.78,1.78,0,0,0,.57.11,1.18,1.18,0,0,0,1.09-.87l.48-1.14-2.34-6h1.07l1.62,4.62q0,.09.12.46h0q0-.14.12-.45l1.71-4.63Z" fill="#2b3033"/><path d="M73.52,117v-1a2.84,2.84,0,0,0,1.73.58q1.27,0,1.27-.84a.73.73,0,0,0-.11-.41,1.08,1.08,0,0,0-.29-.3,2.26,2.26,0,0,0-.43-.23l-.54-.21a6.9,6.9,0,0,1-.7-.32,2.12,2.12,0,0,1-.5-.36,1.35,1.35,0,0,1-.3-.46,1.63,1.63,0,0,1-.1-.6,1.43,1.43,0,0,1,.19-.75,1.71,1.71,0,0,1,.52-.54,2.4,2.4,0,0,1,.74-.33,3.26,3.26,0,0,1,.85-.11,3.44,3.44,0,0,1,1.39.27v1a2.72,2.72,0,0,0-1.52-.43,1.78,1.78,0,0,0-.49.06,1.19,1.19,0,0,0-.37.17.8.8,0,0,0-.24.27.7.7,0,0,0-.08.34.82.82,0,0,0,.08.39.86.86,0,0,0,.25.28,1.9,1.9,0,0,0,.4.22l.53.22a7.42,7.42,0,0,1,.71.31,2.45,2.45,0,0,1,.54.36,1.42,1.42,0,0,1,.34.47,1.5,1.5,0,0,1,.12.63,1.48,1.48,0,0,1-.2.77,1.68,1.68,0,0,1-.52.54,2.4,2.4,0,0,1-.76.32,3.73,3.73,0,0,1-.9.11A3.4,3.4,0,0,1,73.52,117Z" fill="#2b3033"/><path d="M81.75,117.14a1.85,1.85,0,0,1-.9.19q-1.58,0-1.58-1.76V112h-1v-.82h1v-1.46l1-.31v1.78h1.51V112H80.24v3.38a1.4,1.4,0,0,0,.21.86.82.82,0,0,0,.68.26,1,1,0,0,0,.63-.2Z" fill="#2b3033"/><path d="M87.77,114.44H83.53a2.24,2.24,0,0,0,.54,1.55,1.86,1.86,0,0,0,1.42.54,3,3,0,0,0,1.86-.67v.9a3.48,3.48,0,0,1-2.09.57,2.54,2.54,0,0,1-2-.82,3.35,3.35,0,0,1-.73-2.3,3.28,3.28,0,0,1,.79-2.28,2.55,2.55,0,0,1,2-.88,2.26,2.26,0,0,1,1.82.76,3.18,3.18,0,0,1,.64,2.12Zm-1-.81a2,2,0,0,0-.4-1.29,1.37,1.37,0,0,0-1.1-.46,1.55,1.55,0,0,0-1.15.49,2.21,2.21,0,0,0-.59,1.27Z" fill="#2b3033"/><path d="M97.74,117.2h-1v-3.45a2.6,2.6,0,0,0-.31-1.44,1.17,1.17,0,0,0-1-.45,1.28,1.28,0,0,0-1,.56,2.15,2.15,0,0,0-.43,1.35v3.42H93v-3.56q0-1.77-1.37-1.77a1.26,1.26,0,0,0-1,.53,2.19,2.19,0,0,0-.41,1.38v3.42h-1v-6h1v.95h0a2,2,0,0,1,1.86-1.09,1.73,1.73,0,0,1,1.7,1.24,2.14,2.14,0,0,1,2-1.24q2,0,2,2.44Z" fill="#2b3033"/><path d="M99.68,117.2v-8.4H102q4.44,0,4.44,4.1a4.13,4.13,0,0,1-1.23,3.13,4.58,4.58,0,0,1-3.3,1.18Zm1-7.51v6.62h1.25a3.56,3.56,0,0,0,2.57-.88,3.32,3.32,0,0,0,.92-2.51q0-3.23-3.43-3.23Z" fill="#2b3033"/><path d="M112.79,114.44h-4.24a2.24,2.24,0,0,0,.54,1.55,1.86,1.86,0,0,0,1.42.54,3,3,0,0,0,1.86-.67v.9a3.48,3.48,0,0,1-2.09.57,2.54,2.54,0,0,1-2-.82,3.35,3.35,0,0,1-.73-2.3,3.28,3.28,0,0,1,.79-2.28,2.55,2.55,0,0,1,2-.88,2.26,2.26,0,0,1,1.82.76,3.18,3.18,0,0,1,.64,2.12Zm-1-.81a2,2,0,0,0-.4-1.29,1.37,1.37,0,0,0-1.1-.46,1.55,1.55,0,0,0-1.15.49,2.21,2.21,0,0,0-.59,1.27Z" fill="#2b3033"/><path d="M113.88,117v-1a2.84,2.84,0,0,0,1.73.58q1.27,0,1.27-.84a.73.73,0,0,0-.11-.41,1.08,1.08,0,0,0-.29-.3,2.26,2.26,0,0,0-.43-.23l-.54-.21a6.9,6.9,0,0,1-.7-.32,2.12,2.12,0,0,1-.5-.36,1.35,1.35,0,0,1-.3-.46,1.63,1.63,0,0,1-.1-.6,1.43,1.43,0,0,1,.19-.75,1.71,1.71,0,0,1,.52-.54,2.4,2.4,0,0,1,.74-.33,3.26,3.26,0,0,1,.85-.11,3.44,3.44,0,0,1,1.39.27v1a2.72,2.72,0,0,0-1.52-.43,1.78,1.78,0,0,0-.49.06,1.19,1.19,0,0,0-.37.17.8.8,0,0,0-.24.27.7.7,0,0,0-.08.34.82.82,0,0,0,.08.39.86.86,0,0,0,.25.28,1.9,1.9,0,0,0,.4.22l.53.22a7.42,7.42,0,0,1,.71.31,2.45,2.45,0,0,1,.54.36,1.42,1.42,0,0,1,.34.47,1.5,1.5,0,0,1,.12.63,1.48,1.48,0,0,1-.2.77,1.68,1.68,0,0,1-.52.54,2.4,2.4,0,0,1-.76.32,3.73,3.73,0,0,1-.9.11A3.4,3.4,0,0,1,113.88,117Z" fill="#2b3033"/><path d="M119.83,109.68a.61.61,0,0,1-.44-.18.59.59,0,0,1-.18-.45.62.62,0,0,1,.62-.63.62.62,0,0,1,.45.18.63.63,0,0,1,0,.89A.62.62,0,0,1,119.83,109.68Zm.47,7.52h-1v-6h1Z" fill="#2b3033"/><path d="M127.36,116.72q0,3.3-3.16,3.3a4.25,4.25,0,0,1-1.95-.42v-1a4,4,0,0,0,1.93.56q2.21,0,2.21-2.36v-.66h0a2.43,2.43,0,0,1-3.86.35,3.2,3.2,0,0,1-.68-2.15,3.74,3.74,0,0,1,.74-2.43,2.46,2.46,0,0,1,2-.9,2,2,0,0,1,1.8,1h0v-.83h1Zm-1-2.23v-.88a1.72,1.72,0,0,0-.48-1.22,1.59,1.59,0,0,0-1.2-.51,1.67,1.67,0,0,0-1.39.65,2.89,2.89,0,0,0-.5,1.81,2.48,2.48,0,0,0,.48,1.6,1.56,1.56,0,0,0,1.28.6,1.67,1.67,0,0,0,1.32-.57A2.14,2.14,0,0,0,126.4,114.49Z" fill="#2b3033"/><path d="M134.29,117.2h-1v-3.42q0-1.91-1.39-1.91a1.51,1.51,0,0,0-1.19.54,2,2,0,0,0-.47,1.37v3.42h-1v-6h1v1h0a2.17,2.17,0,0,1,2-1.14,1.84,1.84,0,0,1,1.51.64,2.83,2.83,0,0,1,.52,1.84Z" fill="#2b3033"/><path d="M140.92,114.44h-4.24a2.24,2.24,0,0,0,.54,1.55,1.86,1.86,0,0,0,1.42.54,3,3,0,0,0,1.86-.67v.9a3.48,3.48,0,0,1-2.09.57,2.54,2.54,0,0,1-2-.82,3.35,3.35,0,0,1-.73-2.3,3.28,3.28,0,0,1,.79-2.28,2.55,2.55,0,0,1,2-.88,2.26,2.26,0,0,1,1.82.76,3.18,3.18,0,0,1,.64,2.12Zm-1-.81a2,2,0,0,0-.4-1.29,1.37,1.37,0,0,0-1.1-.46,1.55,1.55,0,0,0-1.15.49,2.21,2.21,0,0,0-.59,1.27Z" fill="#2b3033"/><path d="M145.5,112.17a1.18,1.18,0,0,0-.73-.19,1.23,1.23,0,0,0-1,.58,2.68,2.68,0,0,0-.41,1.58v3.06h-1v-6h1v1.24h0a2.1,2.1,0,0,1,.63-1,1.43,1.43,0,0,1,.94-.35,1.57,1.57,0,0,1,.57.08Z" fill="#2b3033"/><path d="M70.49,139.6h-1v-3.45a2.6,2.6,0,0,0-.31-1.44,1.17,1.17,0,0,0-1-.45,1.28,1.28,0,0,0-1,.56,2.15,2.15,0,0,0-.43,1.35v3.42h-1V136q0-1.77-1.37-1.77a1.26,1.26,0,0,0-1,.53,2.19,2.19,0,0,0-.41,1.38v3.42H62v-6h1v.95h0a2,2,0,0,1,1.86-1.09,1.73,1.73,0,0,1,1.7,1.24,2.14,2.14,0,0,1,2-1.24q2,0,2,2.44Z" fill="#2b3033"/><path d="M77.08,133.6l-2.76,7q-.74,1.86-2.07,1.86a2.2,2.2,0,0,1-.63-.08v-.86a1.78,1.78,0,0,0,.57.11,1.18,1.18,0,0,0,1.09-.87l.48-1.14-2.34-6h1.07l1.62,4.62q0,.09.12.46h0q0-.14.12-.45l1.71-4.63Z" fill="#2b3033"/><path d="M82.51,132.09H79.23V135h3v.88h-3v3.72h-1v-8.4h4.27Z" fill="#2b3033"/><path d="M88.83,139.6h-1v-.95h0A2,2,0,0,1,86,139.74q-2.14,0-2.14-2.55V133.6h1V137q0,1.9,1.45,1.9a1.47,1.47,0,0,0,1.16-.52,2,2,0,0,0,.45-1.36V133.6h1Z" fill="#2b3033"/><path d="M95.75,139.6h-1v-3.42q0-1.91-1.39-1.91a1.51,1.51,0,0,0-1.19.54,2,2,0,0,0-.47,1.37v3.42h-1v-6h1v1h0a2.17,2.17,0,0,1,2-1.14,1.84,1.84,0,0,1,1.51.64,2.83,2.83,0,0,1,.52,1.84Z" fill="#2b3033"/><path d="M101.65,139.33a3.12,3.12,0,0,1-1.64.42,2.72,2.72,0,0,1-2.07-.83,3,3,0,0,1-.79-2.17,3.33,3.33,0,0,1,.85-2.38,3,3,0,0,1,2.27-.9,3.16,3.16,0,0,1,1.39.29v1a2.44,2.44,0,0,0-1.43-.47,1.93,1.93,0,0,0-1.51.66,2.5,2.5,0,0,0-.59,1.73,2.38,2.38,0,0,0,.55,1.66,1.91,1.91,0,0,0,1.49.61,2.41,2.41,0,0,0,1.48-.52Z" fill="#2b3033"/><path d="M105.88,139.54a1.85,1.85,0,0,1-.9.19q-1.58,0-1.58-1.76v-3.55h-1v-.82h1v-1.46l1-.31v1.78h1.51v.82h-1.51v3.38a1.4,1.4,0,0,0,.21.86.82.82,0,0,0,.68.26,1,1,0,0,0,.63-.2Z" fill="#2b3033"/><path d="M107.66,132.08a.61.61,0,0,1-.44-.18.59.59,0,0,1-.18-.45.62.62,0,0,1,.62-.63.62.62,0,0,1,.45.18.63.63,0,0,1,0,.89A.62.62,0,0,1,107.66,132.08Zm.47,7.52h-1v-6h1Z" fill="#2b3033"/><path d="M112.58,139.74a2.78,2.78,0,0,1-2.12-.84,3.11,3.11,0,0,1-.79-2.23,3.24,3.24,0,0,1,.83-2.36,3,3,0,0,1,2.23-.85,2.69,2.69,0,0,1,2.09.83,3.28,3.28,0,0,1,.75,2.29,3.22,3.22,0,0,1-.81,2.3A2.84,2.84,0,0,1,112.58,139.74Zm.07-5.47a1.83,1.83,0,0,0-1.46.63,2.59,2.59,0,0,0-.54,1.74,2.45,2.45,0,0,0,.54,1.68,1.85,1.85,0,0,0,1.46.62,1.76,1.76,0,0,0,1.43-.6,2.62,2.62,0,0,0,.5-1.72,2.66,2.66,0,0,0-.5-1.73A1.75,1.75,0,0,0,112.65,134.27Z" fill="#2b3033"/><path d="M122.08,139.6h-1v-3.42q0-1.91-1.39-1.91a1.51,1.51,0,0,0-1.19.54,2,2,0,0,0-.47,1.37v3.42h-1v-6h1v1h0a2.17,2.17,0,0,1,2-1.14,1.84,1.84,0,0,1,1.51.64,2.83,2.83,0,0,1,.52,1.84Z" fill="#2b3033"/><path d="M124.23,139.73a.62.62,0,0,1-.46-.19.64.64,0,0,1-.19-.46.65.65,0,0,1,.19-.47.62.62,0,0,1,.46-.2.63.63,0,0,1,.47.2.64.64,0,0,1,.19.47.63.63,0,0,1-.19.46A.64.64,0,0,1,124.23,139.73Z" fill="#2b3033"/><path d="M131.62,139.12q0,3.3-3.16,3.3a4.25,4.25,0,0,1-1.95-.42v-1a4,4,0,0,0,1.93.56q2.21,0,2.21-2.36v-.66h0a2.43,2.43,0,0,1-3.86.35,3.2,3.2,0,0,1-.68-2.15,3.74,3.74,0,0,1,.74-2.43,2.46,2.46,0,0,1,2-.9,2,2,0,0,1,1.8,1h0v-.83h1Zm-1-2.23V136a1.72,1.72,0,0,0-.48-1.22,1.59,1.59,0,0,0-1.2-.51,1.67,1.67,0,0,0-1.39.65,2.89,2.89,0,0,0-.5,1.81,2.48,2.48,0,0,0,.48,1.6,1.56,1.56,0,0,0,1.28.6,1.67,1.67,0,0,0,1.32-.57A2.14,2.14,0,0,0,130.66,136.89Z" fill="#2b3033"/><path d="M138.28,133.6l-2.39,6h-.94l-2.27-6h1.05l1.52,4.36a3.91,3.91,0,0,1,.21.84h0a4,4,0,0,1,.19-.81l1.59-4.38Z" fill="#2b3033"/><path d="M139.8,132.08a.61.61,0,0,1-.44-.18.59.59,0,0,1-.18-.45.62.62,0,0,1,.62-.63.62.62,0,0,1,.45.18.63.63,0,0,1,0,.89A.62.62,0,0,1,139.8,132.08Zm.47,7.52h-1v-6h1Z" fill="#2b3033"/><path d="M43,130.38v10.24a1.37,1.37,0,0,0,2,1.23l10.22-5.13a1.35,1.35,0,0,0,0-2.45L45,129.15A1.37,1.37,0,0,0,43,130.38Z" fill="#696e77"/><polygon points="45 135 45 136 47 136 47 138 48 138 48 136 50 136 50 135 48 135 48 133 47 133 47 135 45 135" fill="#f7f7f7"/><rect x="36" y="88" width="5" height="1" fill="#696e77"/><rect x="44" y="88" width="1" height="4" fill="#696e77"/><rect x="44" y="83" width="1" height="4" fill="#696e77"/><rect x="44" y="93" width="1" height="4" fill="#696e77"/><path d="M34,83V97h9V83Zm8,8H35V86h7Z" fill="#696e77"/><polygon points="30 83 30 84 31 84 31 86 30 86 30 87 31 87 31 89 30 89 30 90 31 90 31 92 30 92 30 93 31 93 31 95 30 95 30 96 31 96 31 97 33 97 33 83 30 83" fill="#696e77"/><path d="M45,105h8v15H45Zm9,0h0v7h3v-4A3,3,0,0,0,54,105Zm0,15h0a3,3,0,0,0,3-3v-4H54Zm-13-3a3,3,0,0,0,3,3h0v-7H41ZM41,108v4h3v-7h0A3,3,0,0,0,41,108Z" fill="#696e73"/><polygon points="9.5 94 13 90 6 90 9.5 94" fill="#696e73"/><rect x="0.5" y="57.5" width="299" height="18" fill="#f7f7f7"/><path d="M299,58V75H1V58H299m1-1H0V76H300V57Z" fill="#7e8790"/><path d="M27.37,63.49H24.09v2.91h3v.88h-3V71h-1V62.6h4.27Z" fill="#d5d6d7"/><path d="M29.32,63.48a.61.61,0,0,1-.44-.18.59.59,0,0,1-.18-.45.62.62,0,0,1,.62-.63.62.62,0,0,1,.45.18.63.63,0,0,1,0,.89A.62.62,0,0,1,29.32,63.48ZM29.79,71h-1V65h1Z" fill="#d5d6d7"/><path d="M32.7,71h-1V62.12h1Z" fill="#d5d6d7"/><path d="M37.43,70.94a1.85,1.85,0,0,1-.9.19Q35,71.13,35,69.37V65.82h-1V65h1V63.54l1-.31V65h1.51v.82H35.92V69.2a1.4,1.4,0,0,0,.21.86.82.82,0,0,0,.68.26,1,1,0,0,0,.63-.2Z" fill="#d5d6d7"/><path d="M43.44,68.24H39.2a2.24,2.24,0,0,0,.54,1.55,1.86,1.86,0,0,0,1.42.54A3,3,0,0,0,43,69.66v.9a3.48,3.48,0,0,1-2.09.57,2.54,2.54,0,0,1-2-.82,3.35,3.35,0,0,1-.73-2.3A3.28,3.28,0,0,1,39,65.74a2.55,2.55,0,0,1,2-.88,2.26,2.26,0,0,1,1.82.76,3.18,3.18,0,0,1,.64,2.12Zm-1-.81a2,2,0,0,0-.4-1.29,1.37,1.37,0,0,0-1.1-.46,1.55,1.55,0,0,0-1.15.49,2.21,2.21,0,0,0-.59,1.27Z" fill="#d5d6d7"/><path d="M48,66a1.18,1.18,0,0,0-.73-.19,1.23,1.23,0,0,0-1,.58,2.68,2.68,0,0,0-.41,1.58V71h-1V65h1v1.24h0a2.1,2.1,0,0,1,.63-1,1.43,1.43,0,0,1,.94-.35A1.57,1.57,0,0,1,48,65Z" fill="#d5d6d7"/><g clip-path="url(#clip-path-2)"><path d="M427,221.24c-2,0-2.64,2.25-4.26,3.82a39.16,39.16,0,0,1-4.84,4.24,7.54,7.54,0,0,1-9.68,0,40.67,40.67,0,0,1-4.84-4.24,39.28,39.28,0,0,0-4.84-4.25,7.55,7.55,0,0,0-9.67,0,40,40,0,0,0-4.85,4.24,39.16,39.16,0,0,1-4.84,4.24,7.54,7.54,0,0,1-9.68,0,39.84,39.84,0,0,1-4.83-4.24,41.72,41.72,0,0,0-4.84-4.25,7.57,7.57,0,0,0-9.68,0,39.16,39.16,0,0,0-4.84,4.24,40.67,40.67,0,0,1-4.84,4.24,7.54,7.54,0,0,1-9.68,0A39.16,39.16,0,0,1,326,225a41.72,41.72,0,0,0-4.84-4.25,7.57,7.57,0,0,0-9.68,0,39.9,39.9,0,0,0-4.84,4.24,40.67,40.67,0,0,1-4.84,4.24,7.53,7.53,0,0,1-9.68,0,39.16,39.16,0,0,1-4.84-4.24,40.91,40.91,0,0,0-4.84-4.25,7.57,7.57,0,0,0-9.68,0,39.9,39.9,0,0,0-4.84,4.24,39.9,39.9,0,0,1-4.84,4.24,7.54,7.54,0,0,1-9.68,0,39.9,39.9,0,0,1-4.84-4.24,40.13,40.13,0,0,0-4.84-4.25,7.57,7.57,0,0,0-9.68,0,40.67,40.67,0,0,0-4.84,4.24,40.91,40.91,0,0,1-4.84,4.25,7.55,7.55,0,0,1-9.68,0,40.67,40.67,0,0,1-4.84-4.24,39.16,39.16,0,0,0-4.84-4.24,8.55,8.55,0,0,0-4.84-1.76,8.66,8.66,0,0,0-4.84,1.75,40.67,40.67,0,0,0-4.84,4.24,39.28,39.28,0,0,1-4.84,4.25,7.55,7.55,0,0,1-9.68,0,40.67,40.67,0,0,1-4.84-4.24,39.16,39.16,0,0,0-4.84-4.24,7.54,7.54,0,0,0-9.68,0,40.67,40.67,0,0,0-4.84,4.24,39.16,39.16,0,0,1-4.84,4.24,7.53,7.53,0,0,1-9.68,0,39.9,39.9,0,0,1-4.84-4.24,39.9,39.9,0,0,0-4.84-4.24,7.54,7.54,0,0,0-9.68,0A40.67,40.67,0,0,0,113,225a39.16,39.16,0,0,1-4.84,4.24,7.53,7.53,0,0,1-9.68,0A40.67,40.67,0,0,1,93.63,225a39.16,39.16,0,0,0-4.84-4.24,7.54,7.54,0,0,0-9.68,0A40.67,40.67,0,0,0,74.27,225a39.16,39.16,0,0,1-4.84,4.24A8.62,8.62,0,0,1,64.59,231a8.67,8.67,0,0,1-4.84-1.76A39.84,39.84,0,0,1,54.92,225a40.67,40.67,0,0,0-4.84-4.24A8.67,8.67,0,0,0,45.24,219a8.62,8.62,0,0,0-4.84,1.76A39.16,39.16,0,0,0,35.56,225a40.67,40.67,0,0,1-4.84,4.24A8.67,8.67,0,0,1,25.88,231,8.62,8.62,0,0,1,21,229.24,39.16,39.16,0,0,1,16.2,225a40.67,40.67,0,0,0-4.84-4.24A8.67,8.67,0,0,0,6.52,219a8.62,8.62,0,0,0-4.84,1.76A39.16,39.16,0,0,0-3.16,225,40.67,40.67,0,0,1-8,229.24,8.67,8.67,0,0,1-12.84,231a8.62,8.62,0,0,1-4.84-1.76A39.9,39.9,0,0,1-22.52,225a39.9,39.9,0,0,0-4.84-4.24A8.65,8.65,0,0,0-32.2,219,8.65,8.65,0,0,0-37,220.76,39.9,39.9,0,0,0-41.88,225a39.9,39.9,0,0,1-4.84,4.24A8.65,8.65,0,0,1-51.56,231a8.65,8.65,0,0,1-4.84-1.76A39.9,39.9,0,0,1-61.24,225a39.9,39.9,0,0,0-4.84-4.24A8.65,8.65,0,0,0-70.92,219a8.65,8.65,0,0,0-4.84,1.76A39.9,39.9,0,0,0-80.6,225a39.9,39.9,0,0,1-4.84,4.24A8.65,8.65,0,0,1-90.28,231a8.67,8.67,0,0,1-4.84-1.76A40.67,40.67,0,0,1-100,225a39.16,39.16,0,0,0-4.84-4.24,8.62,8.62,0,0,0-4.84-1.76,8.67,8.67,0,0,0-4.84,1.76,40.67,40.67,0,0,0-4.84,4.24c-1.61,1.57-2.88,4.24-4.84,4.24" fill="none" stroke="#adaead" stroke-miterlimit="10"/></g><use width="12" height="20.32" transform="translate(67 140)" xlink:href="#cursor"/><rect x="67.5" y="167.5" width="395" height="20" fill="#fff"/><path d="M462,168v19H68V168H462m1-1H67v21H463V167Z" fill="#4d5359"/><path d="M79.82,181.65a4.93,4.93,0,0,1-2.32.49A3.74,3.74,0,0,1,74.63,181a4.26,4.26,0,0,1-1.08-3,4.46,4.46,0,0,1,1.21-3.26,4.12,4.12,0,0,1,3.08-1.24,4.93,4.93,0,0,1,2,.35v1a4,4,0,0,0-2-.5,3.06,3.06,0,0,0-2.35,1,3.64,3.64,0,0,0-.9,2.58,3.47,3.47,0,0,0,.84,2.45,2.86,2.86,0,0,0,2.21.91,4.14,4.14,0,0,0,2.19-.56Z" fill="#2b3033"/><path d="M81.74,177.17a.62.62,0,0,1-.46-.19.64.64,0,0,1-.19-.46.62.62,0,0,1,.19-.46.63.63,0,0,1,.46-.19.65.65,0,0,1,.47.19.61.61,0,0,1,.19.46.63.63,0,0,1-.19.46A.64.64,0,0,1,81.74,177.17Zm0,5a.62.62,0,0,1-.46-.19.64.64,0,0,1-.19-.46.65.65,0,0,1,.19-.47.62.62,0,0,1,.46-.2.63.63,0,0,1,.47.2.64.64,0,0,1,.19.47.63.63,0,0,1-.19.46A.64.64,0,0,1,81.74,182.13Z" fill="#2b3033"/><path d="M87.71,183.41h-.88l-3.94-9.81h.91Z" fill="#2b3033"/><path d="M94.83,178.6q0,3.54-3.19,3.54t-3.06-3.4V173.6h1v5.07q0,2.58,2.18,2.58t2.1-2.5V173.6h1Z" fill="#2b3033"/><path d="M96.43,181.78v-1a2.84,2.84,0,0,0,1.73.58q1.27,0,1.27-.84a.73.73,0,0,0-.11-.41,1.08,1.08,0,0,0-.29-.3,2.26,2.26,0,0,0-.43-.23l-.54-.21a6.9,6.9,0,0,1-.7-.32,2.12,2.12,0,0,1-.5-.36,1.35,1.35,0,0,1-.3-.46,1.63,1.63,0,0,1-.1-.6,1.43,1.43,0,0,1,.19-.75,1.71,1.71,0,0,1,.52-.54,2.4,2.4,0,0,1,.74-.33,3.26,3.26,0,0,1,.85-.11,3.44,3.44,0,0,1,1.39.27v1a2.72,2.72,0,0,0-1.52-.43,1.78,1.78,0,0,0-.49.06,1.19,1.19,0,0,0-.37.17.8.8,0,0,0-.24.27.7.7,0,0,0-.08.34.82.82,0,0,0,.08.39.86.86,0,0,0,.25.28,1.9,1.9,0,0,0,.4.22l.53.22a7.42,7.42,0,0,1,.71.31,2.45,2.45,0,0,1,.54.36,1.42,1.42,0,0,1,.34.47,1.5,1.5,0,0,1,.12.63,1.48,1.48,0,0,1-.2.77,1.68,1.68,0,0,1-.52.54,2.4,2.4,0,0,1-.76.32,3.73,3.73,0,0,1-.9.11A3.4,3.4,0,0,1,96.43,181.78Z" fill="#2b3033"/><path d="M106.71,179.24h-4.24a2.24,2.24,0,0,0,.54,1.55,1.86,1.86,0,0,0,1.42.54,3,3,0,0,0,1.86-.67v.9a3.48,3.48,0,0,1-2.09.57,2.54,2.54,0,0,1-2-.82,3.35,3.35,0,0,1-.73-2.3,3.28,3.28,0,0,1,.79-2.28,2.55,2.55,0,0,1,2-.88,2.26,2.26,0,0,1,1.82.76,3.18,3.18,0,0,1,.64,2.12Zm-1-.81a2,2,0,0,0-.4-1.29,1.37,1.37,0,0,0-1.1-.46,1.55,1.55,0,0,0-1.15.49,2.21,2.21,0,0,0-.59,1.27Z" fill="#2b3033"/><path d="M111.29,177a1.18,1.18,0,0,0-.73-.19,1.23,1.23,0,0,0-1,.58,2.68,2.68,0,0,0-.41,1.58V182h-1v-6h1v1.24h0a2.1,2.1,0,0,1,.63-1,1.43,1.43,0,0,1,.94-.35,1.57,1.57,0,0,1,.57.08Z" fill="#2b3033"/><path d="M112.05,181.78v-1a2.84,2.84,0,0,0,1.73.58q1.27,0,1.27-.84a.73.73,0,0,0-.11-.41,1.08,1.08,0,0,0-.29-.3,2.26,2.26,0,0,0-.43-.23l-.54-.21a6.9,6.9,0,0,1-.7-.32,2.12,2.12,0,0,1-.5-.36,1.35,1.35,0,0,1-.3-.46,1.63,1.63,0,0,1-.1-.6,1.43,1.43,0,0,1,.19-.75,1.71,1.71,0,0,1,.52-.54,2.4,2.4,0,0,1,.74-.33,3.26,3.26,0,0,1,.85-.11,3.44,3.44,0,0,1,1.39.27v1a2.72,2.72,0,0,0-1.52-.43,1.78,1.78,0,0,0-.49.06,1.19,1.19,0,0,0-.37.17.8.8,0,0,0-.24.27.7.7,0,0,0-.08.34.82.82,0,0,0,.08.39.86.86,0,0,0,.25.28,1.9,1.9,0,0,0,.4.22l.53.22a7.42,7.42,0,0,1,.71.31,2.45,2.45,0,0,1,.54.36,1.42,1.42,0,0,1,.34.47,1.5,1.5,0,0,1,.12.63,1.48,1.48,0,0,1-.2.77,1.68,1.68,0,0,1-.52.54,2.4,2.4,0,0,1-.76.32,3.73,3.73,0,0,1-.9.11A3.4,3.4,0,0,1,112.05,181.78Z" fill="#2b3033"/><path d="M121.21,183.41h-.88l-3.94-9.81h.91Z" fill="#2b3033"/><path d="M126.35,182h-1v-.94h0a2,2,0,0,1-1.85,1.08,2,2,0,0,1-1.4-.47,1.64,1.64,0,0,1-.51-1.26q0-1.68,2-2l1.8-.25q0-1.53-1.24-1.53a3,3,0,0,0-2,.74v-1a3.72,3.72,0,0,1,2-.56q2.12,0,2.12,2.24Zm-1-3-1.45.2a2.35,2.35,0,0,0-1,.33,1,1,0,0,0-.34.84.92.92,0,0,0,.31.72,1.21,1.21,0,0,0,.83.28,1.54,1.54,0,0,0,1.18-.5,1.79,1.79,0,0,0,.47-1.27Z" fill="#2b3033"/><path d="M133.28,182h-1v-1h0a2.22,2.22,0,0,1-2.06,1.16,2.24,2.24,0,0,1-1.81-.81,3.31,3.31,0,0,1-.68-2.19,3.6,3.6,0,0,1,.75-2.38,2.47,2.47,0,0,1,2-.9,1.92,1.92,0,0,1,1.8,1h0v-3.71h1Zm-1-2.71v-.88a1.72,1.72,0,0,0-.48-1.23,1.61,1.61,0,0,0-1.22-.5,1.66,1.66,0,0,0-1.38.64,2.82,2.82,0,0,0-.5,1.78,2.54,2.54,0,0,0,.48,1.64,1.58,1.58,0,0,0,1.3.6,1.64,1.64,0,0,0,1.3-.58A2.16,2.16,0,0,0,132.32,179.29Z" fill="#2b3033"/><path d="M143.75,182h-1v-3.45a2.6,2.6,0,0,0-.31-1.44,1.17,1.17,0,0,0-1-.45,1.28,1.28,0,0,0-1,.56,2.15,2.15,0,0,0-.43,1.35V182h-1v-3.56q0-1.77-1.37-1.77a1.26,1.26,0,0,0-1,.53,2.19,2.19,0,0,0-.41,1.38V182h-1v-6h1v.95h0a2,2,0,0,1,1.86-1.09,1.73,1.73,0,0,1,1.7,1.24,2.14,2.14,0,0,1,2-1.24q2,0,2,2.44Z" fill="#2b3033"/><path d="M146.05,174.48a.61.61,0,0,1-.44-.18.59.59,0,0,1-.18-.45.62.62,0,0,1,.62-.63.62.62,0,0,1,.45.18.63.63,0,0,1,0,.89A.62.62,0,0,1,146.05,174.48Zm.47,7.52h-1v-6h1Z" fill="#2b3033"/><path d="M153.45,182h-1v-3.42q0-1.91-1.39-1.91a1.51,1.51,0,0,0-1.19.54,2,2,0,0,0-.47,1.37V182h-1v-6h1v1h0a2.17,2.17,0,0,1,2-1.14,1.84,1.84,0,0,1,1.51.64,2.83,2.83,0,0,1,.52,1.84Z" fill="#2b3033"/><path d="M159,183.41h-.88l-3.94-9.81H155Z" fill="#2b3033"/><path d="M159.94,182v-8.4h2.32q4.44,0,4.44,4.1a4.13,4.13,0,0,1-1.23,3.13,4.58,4.58,0,0,1-3.3,1.18Zm1-7.51v6.62h1.25a3.56,3.56,0,0,0,2.57-.88,3.32,3.32,0,0,0,.92-2.51q0-3.23-3.43-3.23Z" fill="#2b3033"/><path d="M170.73,182.14a2.78,2.78,0,0,1-2.12-.84,3.11,3.11,0,0,1-.79-2.23,3.24,3.24,0,0,1,.83-2.36,3,3,0,0,1,2.23-.85,2.69,2.69,0,0,1,2.09.83,3.28,3.28,0,0,1,.75,2.29,3.22,3.22,0,0,1-.81,2.3A2.84,2.84,0,0,1,170.73,182.14Zm.07-5.47a1.83,1.83,0,0,0-1.46.63,2.59,2.59,0,0,0-.54,1.74,2.45,2.45,0,0,0,.54,1.68,1.85,1.85,0,0,0,1.46.62,1.76,1.76,0,0,0,1.43-.6,2.62,2.62,0,0,0,.5-1.72,2.66,2.66,0,0,0-.5-1.73A1.75,1.75,0,0,0,170.8,176.67Z" fill="#2b3033"/><path d="M179.34,181.72a3.12,3.12,0,0,1-1.64.42,2.72,2.72,0,0,1-2.07-.83,3,3,0,0,1-.79-2.17,3.33,3.33,0,0,1,.85-2.38,3,3,0,0,1,2.27-.9,3.16,3.16,0,0,1,1.39.29v1a2.44,2.44,0,0,0-1.43-.47,1.93,1.93,0,0,0-1.51.66,2.5,2.5,0,0,0-.59,1.73,2.38,2.38,0,0,0,.55,1.66,1.91,1.91,0,0,0,1.49.61,2.41,2.41,0,0,0,1.48-.52Z" fill="#2b3033"/><path d="M185.65,182h-1v-.95h0a2,2,0,0,1-1.85,1.09q-2.14,0-2.14-2.55V176h1v3.43q0,1.9,1.45,1.9a1.47,1.47,0,0,0,1.16-.52,2,2,0,0,0,.45-1.36V176h1Z" fill="#2b3033"/><path d="M196.11,182h-1v-3.45a2.6,2.6,0,0,0-.31-1.44,1.17,1.17,0,0,0-1-.45,1.28,1.28,0,0,0-1,.56,2.15,2.15,0,0,0-.43,1.35V182h-1v-3.56q0-1.77-1.37-1.77a1.26,1.26,0,0,0-1,.53,2.19,2.19,0,0,0-.41,1.38V182h-1v-6h1v.95h0a2,2,0,0,1,1.86-1.09,1.73,1.73,0,0,1,1.7,1.24,2.14,2.14,0,0,1,2-1.24q2,0,2,2.44Z" fill="#2b3033"/><path d="M202.74,179.24h-4.24a2.24,2.24,0,0,0,.54,1.55,1.86,1.86,0,0,0,1.42.54,3,3,0,0,0,1.86-.67v.9a3.48,3.48,0,0,1-2.09.57,2.54,2.54,0,0,1-2-.82,3.35,3.35,0,0,1-.73-2.3,3.28,3.28,0,0,1,.79-2.28,2.55,2.55,0,0,1,2-.88,2.26,2.26,0,0,1,1.82.76,3.18,3.18,0,0,1,.64,2.12Zm-1-.81a2,2,0,0,0-.4-1.29,1.37,1.37,0,0,0-1.1-.46,1.55,1.55,0,0,0-1.15.49,2.21,2.21,0,0,0-.59,1.27Z" fill="#2b3033"/><path d="M209.18,182h-1v-3.42q0-1.91-1.39-1.91a1.51,1.51,0,0,0-1.19.54,2,2,0,0,0-.47,1.37V182h-1v-6h1v1h0a2.17,2.17,0,0,1,2-1.14,1.84,1.84,0,0,1,1.51.64,2.83,2.83,0,0,1,.52,1.84Z" fill="#2b3033"/><path d="M213.77,181.94a1.85,1.85,0,0,1-.9.19q-1.58,0-1.58-1.76v-3.55h-1V176h1v-1.46l1-.31V176h1.51v.82h-1.51v3.38a1.4,1.4,0,0,0,.21.86.82.82,0,0,0,.68.26,1,1,0,0,0,.63-.2Z" fill="#2b3033"/><path d="M214.69,181.78v-1a2.84,2.84,0,0,0,1.73.58q1.27,0,1.27-.84a.73.73,0,0,0-.11-.41,1.08,1.08,0,0,0-.29-.3,2.26,2.26,0,0,0-.43-.23l-.54-.21a6.9,6.9,0,0,1-.7-.32,2.12,2.12,0,0,1-.5-.36,1.35,1.35,0,0,1-.3-.46,1.63,1.63,0,0,1-.1-.6,1.43,1.43,0,0,1,.19-.75,1.71,1.71,0,0,1,.52-.54,2.4,2.4,0,0,1,.74-.33,3.26,3.26,0,0,1,.85-.11,3.44,3.44,0,0,1,1.39.27v1a2.72,2.72,0,0,0-1.52-.43,1.78,1.78,0,0,0-.49.06,1.19,1.19,0,0,0-.37.17.8.8,0,0,0-.24.27.7.7,0,0,0-.08.34.82.82,0,0,0,.08.39.86.86,0,0,0,.25.28,1.9,1.9,0,0,0,.4.22l.53.22a7.42,7.42,0,0,1,.71.31,2.45,2.45,0,0,1,.54.36,1.42,1.42,0,0,1,.34.47,1.5,1.5,0,0,1,.12.63,1.48,1.48,0,0,1-.2.77,1.68,1.68,0,0,1-.52.54,2.4,2.4,0,0,1-.76.32,3.73,3.73,0,0,1-.9.11A3.4,3.4,0,0,1,214.69,181.78Z" fill="#2b3033"/><path d="M223.85,183.41H223L219,173.6h.91Z" fill="#2b3033"/><path d="M229.18,182h-4.36v-8.4h1v7.51h3.38Z" fill="#2b3033"/><path d="M234.64,182h-1v-.94h0a2,2,0,0,1-1.85,1.08,2,2,0,0,1-1.4-.47,1.64,1.64,0,0,1-.51-1.26q0-1.68,2-2l1.8-.25q0-1.53-1.24-1.53a3,3,0,0,0-2,.74v-1a3.72,3.72,0,0,1,2-.56q2.12,0,2.12,2.24Zm-1-3-1.45.2a2.35,2.35,0,0,0-1,.33,1,1,0,0,0-.34.84.92.92,0,0,0,.31.72,1.21,1.21,0,0,0,.83.28,1.54,1.54,0,0,0,1.18-.5,1.79,1.79,0,0,0,.47-1.27Z" fill="#2b3033"/><path d="M237.43,181.13h0V182h-1v-8.88h1v3.94h0a2.27,2.27,0,0,1,2.07-1.2,2.2,2.2,0,0,1,1.81.81,3.33,3.33,0,0,1,.65,2.16,3.72,3.72,0,0,1-.73,2.41,2.44,2.44,0,0,1-2,.91A2,2,0,0,1,237.43,181.13Zm0-2.42v.84a1.78,1.78,0,0,0,.48,1.26,1.72,1.72,0,0,0,2.6-.15,3.06,3.06,0,0,0,.5-1.86,2.42,2.42,0,0,0-.46-1.57,1.53,1.53,0,0,0-1.25-.57,1.7,1.7,0,0,0-1.35.58A2.14,2.14,0,0,0,237.41,178.71Z" fill="#2b3033"/><path d="M249.88,173.6l-3.11,8.4h-1.08l-3-8.4h1.1l2.33,6.66a4,4,0,0,1,.17.74h0a3.65,3.65,0,0,1,.19-.76l2.37-6.65Z" fill="#2b3033"/><path d="M252.07,182h-1v-8.4h1Z" fill="#2b3033"/><path d="M258.73,182h-4.45v-8.4h4.27v.89h-3.28v2.79h3v.88h-3v2.94h3.47Z" fill="#2b3033"/><path d="M270.48,173.6l-2.37,8.4H267l-1.73-6.14a3.84,3.84,0,0,1-.13-.86h0a4.34,4.34,0,0,1-.15.84L263.17,182H262l-2.46-8.4h1.08l1.79,6.45a4.23,4.23,0,0,1,.14.84h0a5,5,0,0,1,.18-.84l1.86-6.45h.94l1.78,6.49a4.75,4.75,0,0,1,.14.79h0a4.71,4.71,0,0,1,.16-.81l1.72-6.47Z" fill="#2b3033"/><path d="M276,178.82V182h-1v-8.4h2.31a3,3,0,0,1,2.09.66,2.34,2.34,0,0,1,.74,1.85,2.55,2.55,0,0,1-.82,2,3.15,3.15,0,0,1-2.22.76Zm0-4.34v3.45h1a2.31,2.31,0,0,0,1.56-.47,1.65,1.65,0,0,0,.54-1.32q0-1.66-2-1.66Z" fill="#2b3033"/><path d="M284.73,177a1.18,1.18,0,0,0-.73-.19,1.23,1.23,0,0,0-1,.58,2.68,2.68,0,0,0-.41,1.58V182h-1v-6h1v1.24h0a2.1,2.1,0,0,1,.63-1,1.43,1.43,0,0,1,.94-.35,1.57,1.57,0,0,1,.57.08Z" fill="#2b3033"/><path d="M288.13,182.14a2.78,2.78,0,0,1-2.12-.84,3.11,3.11,0,0,1-.79-2.23,3.24,3.24,0,0,1,.83-2.36,3,3,0,0,1,2.23-.85,2.69,2.69,0,0,1,2.09.83,3.28,3.28,0,0,1,.75,2.29,3.22,3.22,0,0,1-.81,2.3A2.84,2.84,0,0,1,288.13,182.14Zm.07-5.47a1.83,1.83,0,0,0-1.46.63,2.59,2.59,0,0,0-.54,1.74,2.45,2.45,0,0,0,.54,1.68,1.85,1.85,0,0,0,1.46.62,1.76,1.76,0,0,0,1.43-.6,2.62,2.62,0,0,0,.5-1.72,2.66,2.66,0,0,0-.5-1.73A1.75,1.75,0,0,0,288.2,176.67Z" fill="#2b3033"/><path d="M293.61,181.75A3.76,3.76,0,0,1,293,184a2,2,0,0,1-1.7.8,1.81,1.81,0,0,1-.8-.19v-.9a1.59,1.59,0,0,0,.82.26q1.31,0,1.31-2.1V176h1Zm-.47-7.27a.61.61,0,0,1-.44-.18.59.59,0,0,1-.18-.45.62.62,0,0,1,.62-.63.62.62,0,0,1,.45.18.63.63,0,0,1,0,.89A.62.62,0,0,1,293.14,174.48Z" fill="#2b3033"/><path d="M300.38,179.24h-4.24a2.24,2.24,0,0,0,.54,1.55,1.86,1.86,0,0,0,1.42.54,3,3,0,0,0,1.86-.67v.9a3.48,3.48,0,0,1-2.09.57,2.54,2.54,0,0,1-2-.82,3.35,3.35,0,0,1-.73-2.3,3.28,3.28,0,0,1,.79-2.28,2.55,2.55,0,0,1,2-.88,2.26,2.26,0,0,1,1.82.76,3.18,3.18,0,0,1,.64,2.12Zm-1-.81a2,2,0,0,0-.4-1.29,1.37,1.37,0,0,0-1.1-.46,1.55,1.55,0,0,0-1.15.49,2.21,2.21,0,0,0-.59,1.27Z" fill="#2b3033"/><path d="M305.92,181.72a3.12,3.12,0,0,1-1.64.42,2.72,2.72,0,0,1-2.07-.83,3,3,0,0,1-.79-2.17,3.33,3.33,0,0,1,.85-2.38,3,3,0,0,1,2.27-.9,3.16,3.16,0,0,1,1.39.29v1a2.44,2.44,0,0,0-1.43-.47,1.93,1.93,0,0,0-1.51.66,2.5,2.5,0,0,0-.59,1.73,2.38,2.38,0,0,0,.55,1.66,1.91,1.91,0,0,0,1.49.61,2.41,2.41,0,0,0,1.48-.52Z" fill="#2b3033"/><path d="M310.16,181.94a1.85,1.85,0,0,1-.9.19q-1.58,0-1.58-1.76v-3.55h-1V176h1v-1.46l1-.31V176h1.51v.82h-1.51v3.38a1.4,1.4,0,0,0,.21.86.82.82,0,0,0,.68.26,1,1,0,0,0,.63-.2Z" fill="#2b3033"/><path d="M311.08,181.78v-1a2.84,2.84,0,0,0,1.73.58q1.27,0,1.27-.84a.73.73,0,0,0-.11-.41,1.08,1.08,0,0,0-.29-.3,2.26,2.26,0,0,0-.43-.23l-.54-.21a6.9,6.9,0,0,1-.7-.32,2.12,2.12,0,0,1-.5-.36,1.35,1.35,0,0,1-.3-.46,1.63,1.63,0,0,1-.1-.6,1.43,1.43,0,0,1,.19-.75,1.71,1.71,0,0,1,.52-.54,2.4,2.4,0,0,1,.74-.33,3.26,3.26,0,0,1,.85-.11,3.44,3.44,0,0,1,1.39.27v1a2.72,2.72,0,0,0-1.52-.43,1.78,1.78,0,0,0-.49.06,1.19,1.19,0,0,0-.37.17.8.8,0,0,0-.24.27.7.7,0,0,0-.08.34.82.82,0,0,0,.08.39.86.86,0,0,0,.25.28,1.9,1.9,0,0,0,.4.22l.53.22a7.42,7.42,0,0,1,.71.31,2.45,2.45,0,0,1,.54.36,1.42,1.42,0,0,1,.34.47,1.5,1.5,0,0,1,.12.63,1.48,1.48,0,0,1-.2.77,1.68,1.68,0,0,1-.52.54,2.4,2.4,0,0,1-.76.32,3.73,3.73,0,0,1-.9.11A3.4,3.4,0,0,1,311.08,181.78Z" fill="#2b3033"/><path d="M320.24,183.41h-.88l-3.94-9.81h.91Z" fill="#2b3033"/><path d="M329.6,182h-1v-3.45a2.6,2.6,0,0,0-.31-1.44,1.17,1.17,0,0,0-1-.45,1.28,1.28,0,0,0-1,.56,2.15,2.15,0,0,0-.43,1.35V182h-1v-3.56q0-1.77-1.37-1.77a1.26,1.26,0,0,0-1,.53,2.19,2.19,0,0,0-.41,1.38V182h-1v-6h1v.95h0a2,2,0,0,1,1.86-1.09,1.73,1.73,0,0,1,1.7,1.24,2.14,2.14,0,0,1,2-1.24q2,0,2,2.44Z" fill="#2b3033"/><path d="M336.19,176l-2.76,7q-.74,1.86-2.07,1.86a2.2,2.2,0,0,1-.63-.08v-.86a1.78,1.78,0,0,0,.57.11,1.18,1.18,0,0,0,1.09-.87l.48-1.14-2.34-6h1.07l1.62,4.62q0,.09.12.46h0q0-.14.12-.45L335.2,176Z" fill="#2b3033"/><path d="M338.34,178.82V182h-1v-8.4h2.31a3,3,0,0,1,2.09.66,2.34,2.34,0,0,1,.74,1.85,2.55,2.55,0,0,1-.82,2,3.15,3.15,0,0,1-2.22.76Zm0-4.34v3.45h1a2.31,2.31,0,0,0,1.56-.47,1.65,1.65,0,0,0,.54-1.32q0-1.66-2-1.66Z" fill="#2b3033"/><path d="M347.07,177a1.18,1.18,0,0,0-.73-.19,1.23,1.23,0,0,0-1,.58,2.68,2.68,0,0,0-.41,1.58V182h-1v-6h1v1.24h0a2.1,2.1,0,0,1,.63-1,1.43,1.43,0,0,1,.94-.35,1.57,1.57,0,0,1,.57.08Z" fill="#2b3033"/><path d="M350.46,182.14a2.78,2.78,0,0,1-2.12-.84,3.11,3.11,0,0,1-.79-2.23,3.24,3.24,0,0,1,.83-2.36,3,3,0,0,1,2.23-.85,2.69,2.69,0,0,1,2.09.83,3.28,3.28,0,0,1,.75,2.29,3.22,3.22,0,0,1-.81,2.3A2.84,2.84,0,0,1,350.46,182.14Zm.07-5.47a1.83,1.83,0,0,0-1.46.63,2.59,2.59,0,0,0-.54,1.74,2.45,2.45,0,0,0,.54,1.68,1.85,1.85,0,0,0,1.46.62,1.76,1.76,0,0,0,1.43-.6,2.62,2.62,0,0,0,.5-1.72,2.66,2.66,0,0,0-.5-1.73A1.75,1.75,0,0,0,350.54,176.67Z" fill="#2b3033"/><path d="M355.95,181.75a3.76,3.76,0,0,1-.59,2.28,2,2,0,0,1-1.7.8,1.81,1.81,0,0,1-.8-.19v-.9a1.59,1.59,0,0,0,.82.26q1.31,0,1.31-2.1V176h1Zm-.47-7.27a.61.61,0,0,1-.44-.18.59.59,0,0,1-.18-.45.62.62,0,0,1,.62-.63.62.62,0,0,1,.45.18.63.63,0,0,1,0,.89A.62.62,0,0,1,355.48,174.48Z" fill="#2b3033"/><path d="M362.72,179.24h-4.24a2.24,2.24,0,0,0,.54,1.55,1.86,1.86,0,0,0,1.42.54,3,3,0,0,0,1.86-.67v.9a3.48,3.48,0,0,1-2.09.57,2.54,2.54,0,0,1-2-.82,3.35,3.35,0,0,1-.73-2.3,3.28,3.28,0,0,1,.79-2.28,2.55,2.55,0,0,1,2-.88,2.26,2.26,0,0,1,1.82.76,3.18,3.18,0,0,1,.64,2.12Zm-1-.81a2,2,0,0,0-.4-1.29,1.37,1.37,0,0,0-1.1-.46,1.55,1.55,0,0,0-1.15.49,2.21,2.21,0,0,0-.59,1.27Z" fill="#2b3033"/><path d="M368.26,181.72a3.12,3.12,0,0,1-1.64.42,2.72,2.72,0,0,1-2.07-.83,3,3,0,0,1-.79-2.17,3.33,3.33,0,0,1,.85-2.38,3,3,0,0,1,2.27-.9,3.16,3.16,0,0,1,1.39.29v1a2.44,2.44,0,0,0-1.43-.47,1.93,1.93,0,0,0-1.51.66,2.5,2.5,0,0,0-.59,1.73,2.38,2.38,0,0,0,.55,1.66,1.91,1.91,0,0,0,1.49.61,2.41,2.41,0,0,0,1.48-.52Z" fill="#2b3033"/><path d="M372.5,181.94a1.85,1.85,0,0,1-.9.19q-1.58,0-1.58-1.76v-3.55h-1V176h1v-1.46l1-.31V176h1.51v.82H371v3.38a1.4,1.4,0,0,0,.21.86.82.82,0,0,0,.68.26,1,1,0,0,0,.63-.2Z" fill="#2b3033"/><path d="M377.48,183.41h-.88l-3.94-9.81h.91Z" fill="#2b3033"/><path d="M386.85,182h-1v-3.45a2.6,2.6,0,0,0-.31-1.44,1.17,1.17,0,0,0-1-.45,1.28,1.28,0,0,0-1,.56,2.15,2.15,0,0,0-.43,1.35V182h-1v-3.56q0-1.77-1.37-1.77a1.26,1.26,0,0,0-1,.53,2.19,2.19,0,0,0-.41,1.38V182h-1v-6h1v.95h0a2,2,0,0,1,1.86-1.09,1.73,1.73,0,0,1,1.7,1.24,2.14,2.14,0,0,1,2-1.24q2,0,2,2.44Z" fill="#2b3033"/><path d="M393.44,176l-2.76,7q-.74,1.86-2.07,1.86a2.2,2.2,0,0,1-.63-.08v-.86a1.78,1.78,0,0,0,.57.11,1.18,1.18,0,0,0,1.09-.87l.48-1.14-2.34-6h1.07l1.62,4.62q0,.09.12.46h0q0-.14.12-.45l1.71-4.63Z" fill="#2b3033"/><path d="M398.86,174.49h-3.28v2.91h3v.88h-3V182h-1v-8.4h4.27Z" fill="#2b3033"/><path d="M405.18,182h-1v-.95h0a2,2,0,0,1-1.85,1.09q-2.14,0-2.14-2.55V176h1v3.43q0,1.9,1.45,1.9a1.47,1.47,0,0,0,1.16-.52,2,2,0,0,0,.45-1.36V176h1Z" fill="#2b3033"/><path d="M412.1,182h-1v-3.42q0-1.91-1.39-1.91a1.51,1.51,0,0,0-1.19.54,2,2,0,0,0-.47,1.37V182h-1v-6h1v1h0a2.17,2.17,0,0,1,2-1.14,1.84,1.84,0,0,1,1.51.64,2.83,2.83,0,0,1,.52,1.84Z" fill="#2b3033"/><path d="M418,181.72a3.12,3.12,0,0,1-1.64.42,2.72,2.72,0,0,1-2.07-.83,3,3,0,0,1-.79-2.17,3.33,3.33,0,0,1,.85-2.38,3,3,0,0,1,2.27-.9,3.16,3.16,0,0,1,1.39.29v1a2.44,2.44,0,0,0-1.43-.47,1.93,1.93,0,0,0-1.51.66,2.5,2.5,0,0,0-.59,1.73,2.38,2.38,0,0,0,.55,1.66,1.91,1.91,0,0,0,1.49.61,2.41,2.41,0,0,0,1.48-.52Z" fill="#2b3033"/><path d="M422.24,181.94a1.85,1.85,0,0,1-.9.19q-1.58,0-1.58-1.76v-3.55h-1V176h1v-1.46l1-.31V176h1.51v.82h-1.51v3.38a1.4,1.4,0,0,0,.21.86.82.82,0,0,0,.68.26,1,1,0,0,0,.63-.2Z" fill="#2b3033"/><path d="M424,174.48a.61.61,0,0,1-.44-.18.59.59,0,0,1-.18-.45.62.62,0,0,1,.62-.63.62.62,0,0,1,.45.18.63.63,0,0,1,0,.89A.62.62,0,0,1,424,174.48Zm.47,7.52h-1v-6h1Z" fill="#2b3033"/><path d="M428.93,182.14a2.78,2.78,0,0,1-2.12-.84,3.11,3.11,0,0,1-.79-2.23,3.24,3.24,0,0,1,.83-2.36,3,3,0,0,1,2.23-.85,2.69,2.69,0,0,1,2.09.83,3.28,3.28,0,0,1,.75,2.29,3.22,3.22,0,0,1-.81,2.3A2.84,2.84,0,0,1,428.93,182.14Zm.07-5.47a1.83,1.83,0,0,0-1.46.63A2.59,2.59,0,0,0,427,179a2.45,2.45,0,0,0,.54,1.68,1.85,1.85,0,0,0,1.46.62,1.76,1.76,0,0,0,1.43-.6,2.62,2.62,0,0,0,.5-1.72,2.66,2.66,0,0,0-.5-1.73A1.75,1.75,0,0,0,429,176.67Z" fill="#2b3033"/><path d="M438.44,182h-1v-3.42q0-1.91-1.39-1.91a1.51,1.51,0,0,0-1.19.54,2,2,0,0,0-.47,1.37V182h-1v-6h1v1h0a2.17,2.17,0,0,1,2-1.14,1.84,1.84,0,0,1,1.51.64,2.83,2.83,0,0,1,.52,1.84Z" fill="#2b3033"/><path d="M440.58,182.13a.62.62,0,0,1-.46-.19.64.64,0,0,1-.19-.46.65.65,0,0,1,.19-.47.62.62,0,0,1,.46-.2.63.63,0,0,1,.47.2.64.64,0,0,1,.19.47.63.63,0,0,1-.19.46A.64.64,0,0,1,440.58,182.13Z" fill="#2b3033"/><path d="M448,181.52q0,3.3-3.16,3.3a4.25,4.25,0,0,1-1.95-.42v-1a4,4,0,0,0,1.93.56q2.21,0,2.21-2.36V181h0a2.43,2.43,0,0,1-3.86.35,3.2,3.2,0,0,1-.68-2.15,3.74,3.74,0,0,1,.74-2.43,2.46,2.46,0,0,1,2-.9,2,2,0,0,1,1.8,1h0V176h1Zm-1-2.23v-.88a1.72,1.72,0,0,0-.48-1.22,1.59,1.59,0,0,0-1.2-.51,1.67,1.67,0,0,0-1.39.65,2.89,2.89,0,0,0-.5,1.81,2.48,2.48,0,0,0,.48,1.6,1.56,1.56,0,0,0,1.28.6,1.67,1.67,0,0,0,1.32-.57A2.14,2.14,0,0,0,447,179.29Z" fill="#2b3033"/><path d="M454.63,176l-2.39,6h-.94L449,176h1.05l1.52,4.36a3.91,3.91,0,0,1,.21.84h0a4,4,0,0,1,.19-.81l1.59-4.38Z" fill="#2b3033"/><path d="M456.16,174.48a.61.61,0,0,1-.44-.18.59.59,0,0,1-.18-.45.62.62,0,0,1,.62-.63.62.62,0,0,1,.45.18.63.63,0,0,1,0,.89A.62.62,0,0,1,456.16,174.48Zm.47,7.52h-1v-6h1Z" fill="#2b3033"/></svg>