<svg id="Layer_1" data-name="Layer 1" xmlns="http://www.w3.org/2000/svg" xmlns:xlink="http://www.w3.org/1999/xlink" width="300" height="253" viewBox="0 0 300 253"><defs><clipPath id="clip-path"><path d="M-129-80.07a8.62,8.62,0,0,0,4.84-1.76,39.16,39.16,0,0,0,4.84-4.24,40.67,40.67,0,0,1,4.84-4.24,8.67,8.67,0,0,1,4.84-1.76,8.62,8.62,0,0,1,4.84,1.76A39.16,39.16,0,0,1-100-86.07a40.67,40.67,0,0,0,4.84,4.24,8.67,8.67,0,0,0,4.84,1.76,8.65,8.65,0,0,0,4.84-1.76,39.9,39.9,0,0,0,4.84-4.24,39.9,39.9,0,0,1,4.84-4.24,8.65,8.65,0,0,1,4.84-1.76,8.65,8.65,0,0,1,4.84,1.76,39.9,39.9,0,0,1,4.84,4.24,39.9,39.9,0,0,0,4.84,4.24,8.65,8.65,0,0,0,4.84,1.76,8.65,8.65,0,0,0,4.84-1.76,39.9,39.9,0,0,0,4.84-4.24A39.9,39.9,0,0,1-37-90.31a8.65,8.65,0,0,1,4.84-1.76,8.65,8.65,0,0,1,4.84,1.76,39.9,39.9,0,0,1,4.84,4.24,39.9,39.9,0,0,0,4.84,4.24,8.62,8.62,0,0,0,4.84,1.76A8.67,8.67,0,0,0-8-81.83a40.67,40.67,0,0,0,4.84-4.24,39.16,39.16,0,0,1,4.84-4.24,8.62,8.62,0,0,1,4.84-1.76,8.67,8.67,0,0,1,4.84,1.76,40.67,40.67,0,0,1,4.84,4.24A39.16,39.16,0,0,0,21-81.83a8.62,8.62,0,0,0,4.84,1.76,8.67,8.67,0,0,0,4.84-1.76,40.67,40.67,0,0,0,4.84-4.24,39.16,39.16,0,0,1,4.84-4.24,8.62,8.62,0,0,1,4.84-1.76,8.67,8.67,0,0,1,4.84,1.76,40.67,40.67,0,0,1,4.84,4.24,39.84,39.84,0,0,0,4.83,4.24,8.67,8.67,0,0,0,4.84,1.76,8.62,8.62,0,0,0,4.84-1.76,39.16,39.16,0,0,0,4.84-4.24,40.67,40.67,0,0,1,4.84-4.24A8.67,8.67,0,0,1,84-92.07a8.62,8.62,0,0,1,4.84,1.76,39.16,39.16,0,0,1,4.84,4.24,40.67,40.67,0,0,0,4.84,4.24,8.67,8.67,0,0,0,4.84,1.76,8.62,8.62,0,0,0,4.84-1.76A39.16,39.16,0,0,0,113-86.07a40.67,40.67,0,0,1,4.84-4.24,8.67,8.67,0,0,1,4.84-1.76,8.62,8.62,0,0,1,4.84,1.76,39.9,39.9,0,0,1,4.84,4.24,39.9,39.9,0,0,0,4.84,4.24A8.65,8.65,0,0,0,142-80.07a8.62,8.62,0,0,0,4.84-1.76,39.16,39.16,0,0,0,4.84-4.24,40.67,40.67,0,0,1,4.84-4.24,8.67,8.67,0,0,1,4.84-1.76,8.62,8.62,0,0,1,4.84,1.76,39.16,39.16,0,0,1,4.84,4.24,40.67,40.67,0,0,0,4.84,4.24,8.65,8.65,0,0,0,4.84,1.76,8.6,8.6,0,0,0,4.84-1.75,39.28,39.28,0,0,0,4.84-4.25,40.67,40.67,0,0,1,4.84-4.24,8.66,8.66,0,0,1,4.84-1.75A8.55,8.55,0,0,1,205-90.3a39.16,39.16,0,0,1,4.84,4.24,40.67,40.67,0,0,0,4.84,4.24,8.65,8.65,0,0,0,4.84,1.76,8.63,8.63,0,0,0,4.84-1.75,40.91,40.91,0,0,0,4.84-4.25A40.67,40.67,0,0,1,234-90.3,8.66,8.66,0,0,1,238.83-92a8.6,8.6,0,0,1,4.84,1.75A40.13,40.13,0,0,1,248.51-86a39.9,39.9,0,0,0,4.84,4.24A8.65,8.65,0,0,0,258.19-80,8.57,8.57,0,0,0,263-81.81,39.9,39.9,0,0,0,267.87-86a39.9,39.9,0,0,1,4.84-4.24A8.63,8.63,0,0,1,277.55-92a8.63,8.63,0,0,1,4.84,1.75A40.91,40.91,0,0,1,287.23-86a39.16,39.16,0,0,0,4.84,4.24A8.62,8.62,0,0,0,296.91-80a8.6,8.6,0,0,0,4.84-1.76A40.67,40.67,0,0,0,306.59-86a39.9,39.9,0,0,1,4.84-4.24A8.63,8.63,0,0,1,316.27-92a8.63,8.63,0,0,1,4.84,1.75A41.72,41.72,0,0,1,326-86a39.16,39.16,0,0,0,4.84,4.24A8.62,8.62,0,0,0,335.63-80a8.67,8.67,0,0,0,4.84-1.76A40.67,40.67,0,0,0,345.31-86a39.16,39.16,0,0,1,4.84-4.24A8.6,8.6,0,0,1,355-92a8.66,8.66,0,0,1,4.84,1.75A41.72,41.72,0,0,1,364.67-86a39.84,39.84,0,0,0,4.83,4.24A8.67,8.67,0,0,0,374.34-80a8.62,8.62,0,0,0,4.84-1.76A39.16,39.16,0,0,0,384-86a40,40,0,0,1,4.85-4.24A8.53,8.53,0,0,1,393.71-92a8.6,8.6,0,0,1,4.83,1.75A39.28,39.28,0,0,1,403.38-86a40.67,40.67,0,0,0,4.84,4.24A8.67,8.67,0,0,0,413.06-80a8.65,8.65,0,0,0,4.84-1.76A39.16,39.16,0,0,0,422.74-86a40.67,40.67,0,0,1,4.84-4.24A8.58,8.58,0,0,1,432.42-92a8.6,8.6,0,0,1,4.84,1.75A39.28,39.28,0,0,1,442.1-86a39.9,39.9,0,0,0,4.84,4.24A8.65,8.65,0,0,0,451.78-80L452-330.43a8.62,8.62,0,0,0-4.84,1.76,39.16,39.16,0,0,0-4.84,4.24,40.67,40.67,0,0,1-4.84,4.24,8.67,8.67,0,0,1-4.84,1.76,8.62,8.62,0,0,1-4.84-1.76,39.16,39.16,0,0,1-4.84-4.24,40.67,40.67,0,0,0-4.84-4.24,8.67,8.67,0,0,0-4.84-1.76,8.65,8.65,0,0,0-4.84,1.76,39.9,39.9,0,0,0-4.84,4.24,39.9,39.9,0,0,1-4.84,4.24,8.65,8.65,0,0,1-4.84,1.76,8.65,8.65,0,0,1-4.84-1.76,39.9,39.9,0,0,1-4.84-4.24,39.9,39.9,0,0,0-4.84-4.24,8.65,8.65,0,0,0-4.84-1.76,8.65,8.65,0,0,0-4.84,1.76,39.9,39.9,0,0,0-4.84,4.24,39.9,39.9,0,0,1-4.84,4.24,8.65,8.65,0,0,1-4.84,1.76,8.65,8.65,0,0,1-4.84-1.76,39.9,39.9,0,0,1-4.84-4.24,39.9,39.9,0,0,0-4.84-4.24,8.62,8.62,0,0,0-4.84-1.76,8.67,8.67,0,0,0-4.84,1.76,40.67,40.67,0,0,0-4.84,4.24,39.16,39.16,0,0,1-4.84,4.24,8.62,8.62,0,0,1-4.84,1.76,8.67,8.67,0,0,1-4.84-1.76,40.67,40.67,0,0,1-4.84-4.24,39.16,39.16,0,0,0-4.84-4.24,8.62,8.62,0,0,0-4.84-1.76,8.67,8.67,0,0,0-4.84,1.76,40.67,40.67,0,0,0-4.84,4.24,39.16,39.16,0,0,1-4.84,4.24,8.62,8.62,0,0,1-4.84,1.76,8.67,8.67,0,0,1-4.84-1.76,40.67,40.67,0,0,1-4.84-4.24,39.84,39.84,0,0,0-4.83-4.24,8.67,8.67,0,0,0-4.84-1.76,8.62,8.62,0,0,0-4.84,1.76,39.16,39.16,0,0,0-4.84,4.24,40.67,40.67,0,0,1-4.84,4.24,8.67,8.67,0,0,1-4.84,1.76,8.62,8.62,0,0,1-4.84-1.76,39.16,39.16,0,0,1-4.84-4.24,40.67,40.67,0,0,0-4.84-4.24,8.67,8.67,0,0,0-4.84-1.76,8.62,8.62,0,0,0-4.84,1.76,39.16,39.16,0,0,0-4.84,4.24,40.67,40.67,0,0,1-4.84,4.24,8.67,8.67,0,0,1-4.84,1.76,8.62,8.62,0,0,1-4.84-1.76,39.9,39.9,0,0,1-4.84-4.24,39.9,39.9,0,0,0-4.84-4.24,8.65,8.65,0,0,0-4.84-1.76,8.62,8.62,0,0,0-4.84,1.76,39.16,39.16,0,0,0-4.84,4.24,40.67,40.67,0,0,1-4.84,4.24,8.67,8.67,0,0,1-4.84,1.76,8.62,8.62,0,0,1-4.84-1.76,39.16,39.16,0,0,1-4.84-4.24,40.67,40.67,0,0,0-4.84-4.24,8.65,8.65,0,0,0-4.84-1.76,8.6,8.6,0,0,0-4.84,1.75,39.28,39.28,0,0,0-4.84,4.25,40.67,40.67,0,0,1-4.84,4.24,8.66,8.66,0,0,1-4.84,1.75A8.55,8.55,0,0,1,118-320.2a39.16,39.16,0,0,1-4.84-4.24,40.67,40.67,0,0,0-4.84-4.24,8.65,8.65,0,0,0-4.84-1.76,8.63,8.63,0,0,0-4.84,1.75,40.91,40.91,0,0,0-4.84,4.25A40.67,40.67,0,0,1,89-320.2a8.66,8.66,0,0,1-4.84,1.75,8.6,8.6,0,0,1-4.84-1.75,40.13,40.13,0,0,1-4.84-4.25,39.9,39.9,0,0,0-4.84-4.24,8.65,8.65,0,0,0-4.84-1.76A8.57,8.57,0,0,0,60-328.69a39.9,39.9,0,0,0-4.84,4.24,39.9,39.9,0,0,1-4.84,4.24,8.63,8.63,0,0,1-4.84,1.75,8.63,8.63,0,0,1-4.84-1.75,40.91,40.91,0,0,1-4.84-4.25,39.16,39.16,0,0,0-4.84-4.24,8.62,8.62,0,0,0-4.84-1.76,8.6,8.6,0,0,0-4.84,1.76,40.67,40.67,0,0,0-4.84,4.24,39.9,39.9,0,0,1-4.84,4.24,8.63,8.63,0,0,1-4.84,1.75,8.63,8.63,0,0,1-4.84-1.75A41.72,41.72,0,0,1-3-324.47a39.16,39.16,0,0,0-4.84-4.24,8.62,8.62,0,0,0-4.84-1.76,8.67,8.67,0,0,0-4.84,1.76,40.67,40.67,0,0,0-4.84,4.24,39.16,39.16,0,0,1-4.84,4.24A8.6,8.6,0,0,1-32-318.48a8.66,8.66,0,0,1-4.84-1.75,41.72,41.72,0,0,1-4.84-4.25,39.84,39.84,0,0,0-4.83-4.24,8.67,8.67,0,0,0-4.84-1.76,8.62,8.62,0,0,0-4.84,1.76A39.16,39.16,0,0,0-61-324.48a40,40,0,0,1-4.85,4.24,8.53,8.53,0,0,1-4.84,1.75,8.6,8.6,0,0,1-4.83-1.75,39.28,39.28,0,0,1-4.84-4.25,40.67,40.67,0,0,0-4.84-4.24,8.67,8.67,0,0,0-4.84-1.76,8.65,8.65,0,0,0-4.84,1.76,39.16,39.16,0,0,0-4.84,4.24,40.67,40.67,0,0,1-4.84,4.24,8.58,8.58,0,0,1-4.84,1.75,8.6,8.6,0,0,1-4.84-1.75,39.28,39.28,0,0,1-4.84-4.25,39.9,39.9,0,0,0-4.84-4.24,8.65,8.65,0,0,0-4.84-1.76Z" fill="none"/></clipPath><clipPath id="clip-path-2"><path d="M-129,250.93a8.62,8.62,0,0,0,4.84-1.76,39.16,39.16,0,0,0,4.84-4.24,40.67,40.67,0,0,1,4.84-4.24,8.67,8.67,0,0,1,4.84-1.76,8.62,8.62,0,0,1,4.84,1.76,39.16,39.16,0,0,1,4.84,4.24,40.67,40.67,0,0,0,4.84,4.24,8.67,8.67,0,0,0,4.84,1.76,8.65,8.65,0,0,0,4.84-1.76,39.9,39.9,0,0,0,4.84-4.24,39.9,39.9,0,0,1,4.84-4.24,8.65,8.65,0,0,1,4.84-1.76,8.65,8.65,0,0,1,4.84,1.76,39.9,39.9,0,0,1,4.84,4.24,39.9,39.9,0,0,0,4.84,4.24,8.65,8.65,0,0,0,4.84,1.76,8.65,8.65,0,0,0,4.84-1.76,39.9,39.9,0,0,0,4.84-4.24A39.9,39.9,0,0,1-37,240.69a8.65,8.65,0,0,1,4.84-1.76,8.65,8.65,0,0,1,4.84,1.76,39.9,39.9,0,0,1,4.84,4.24,39.9,39.9,0,0,0,4.84,4.24,8.62,8.62,0,0,0,4.84,1.76A8.67,8.67,0,0,0-8,249.17a40.67,40.67,0,0,0,4.84-4.24,39.16,39.16,0,0,1,4.84-4.24,8.62,8.62,0,0,1,4.84-1.76,8.67,8.67,0,0,1,4.84,1.76,40.67,40.67,0,0,1,4.84,4.24A39.16,39.16,0,0,0,21,249.17a8.62,8.62,0,0,0,4.84,1.76,8.67,8.67,0,0,0,4.84-1.76,40.67,40.67,0,0,0,4.84-4.24,39.16,39.16,0,0,1,4.84-4.24,8.62,8.62,0,0,1,4.84-1.76,8.67,8.67,0,0,1,4.84,1.76,40.67,40.67,0,0,1,4.84,4.24,39.84,39.84,0,0,0,4.83,4.24,8.67,8.67,0,0,0,4.84,1.76,8.62,8.62,0,0,0,4.84-1.76,39.16,39.16,0,0,0,4.84-4.24,40.67,40.67,0,0,1,4.84-4.24,7.54,7.54,0,0,1,9.68,0,39.16,39.16,0,0,1,4.84,4.24,40.67,40.67,0,0,0,4.84,4.24,7.54,7.54,0,0,0,9.68,0,39.16,39.16,0,0,0,4.84-4.24,40.67,40.67,0,0,1,4.84-4.24,7.54,7.54,0,0,1,9.68,0,39.9,39.9,0,0,1,4.84,4.24,39.9,39.9,0,0,0,4.84,4.24,7.54,7.54,0,0,0,9.68,0,39.16,39.16,0,0,0,4.84-4.24,40.67,40.67,0,0,1,4.84-4.24,7.54,7.54,0,0,1,9.68,0,39.16,39.16,0,0,1,4.84,4.24,40.67,40.67,0,0,0,4.84,4.24,7.55,7.55,0,0,0,9.68,0,39.28,39.28,0,0,0,4.84-4.25,40.67,40.67,0,0,1,4.84-4.24,8.66,8.66,0,0,1,4.84-1.75A8.55,8.55,0,0,1,205,240.7a39.16,39.16,0,0,1,4.84,4.24,40.67,40.67,0,0,0,4.84,4.24,7.55,7.55,0,0,0,9.68,0,40.91,40.91,0,0,0,4.84-4.25A40.67,40.67,0,0,1,234,240.7a7.57,7.57,0,0,1,9.68,0,40.13,40.13,0,0,1,4.84,4.25,39.9,39.9,0,0,0,4.84,4.24,7.53,7.53,0,0,0,9.68,0,39.9,39.9,0,0,0,4.84-4.24,39.9,39.9,0,0,1,4.84-4.24,7.57,7.57,0,0,1,9.68,0,40.91,40.91,0,0,1,4.84,4.25,39.16,39.16,0,0,0,4.84,4.24,7.53,7.53,0,0,0,9.68,0,40.67,40.67,0,0,0,4.84-4.24,39.9,39.9,0,0,1,4.84-4.24,7.57,7.57,0,0,1,9.68,0A41.72,41.72,0,0,1,326,245a39.16,39.16,0,0,0,4.84,4.24,7.54,7.54,0,0,0,9.68,0,40.67,40.67,0,0,0,4.84-4.24,39.16,39.16,0,0,1,4.84-4.24,7.57,7.57,0,0,1,9.68,0,41.72,41.72,0,0,1,4.84,4.25,39.84,39.84,0,0,0,4.83,4.24,7.54,7.54,0,0,0,9.68,0A39.16,39.16,0,0,0,384,245a40,40,0,0,1,4.85-4.24,7.55,7.55,0,0,1,9.67,0,39.28,39.28,0,0,1,4.84,4.25,40.67,40.67,0,0,0,4.84,4.24,7.53,7.53,0,0,0,9.68,0,39.16,39.16,0,0,0,4.84-4.24,40.67,40.67,0,0,1,4.84-4.24,7.57,7.57,0,0,1,9.68,0A39.28,39.28,0,0,1,442.1,245a39.9,39.9,0,0,0,4.84,4.24,8.65,8.65,0,0,0,4.84,1.76L452,.57a8.62,8.62,0,0,0-4.84,1.76,39.16,39.16,0,0,0-4.84,4.24,40.67,40.67,0,0,1-4.84,4.24,8.67,8.67,0,0,1-4.84,1.76,8.62,8.62,0,0,1-4.84-1.76A39.16,39.16,0,0,1,423,6.57a40.67,40.67,0,0,0-4.84-4.24,7.53,7.53,0,0,0-9.68,0,39.9,39.9,0,0,0-4.84,4.24,39.9,39.9,0,0,1-4.84,4.24,7.53,7.53,0,0,1-9.68,0,39.9,39.9,0,0,1-4.84-4.24,39.9,39.9,0,0,0-4.84-4.24,7.53,7.53,0,0,0-9.68,0,39.9,39.9,0,0,0-4.84,4.24A39.9,39.9,0,0,1,360,10.81a7.54,7.54,0,0,1-9.68,0,39.9,39.9,0,0,1-4.84-4.24,39.9,39.9,0,0,0-4.84-4.24,7.53,7.53,0,0,0-9.68,0,40.67,40.67,0,0,0-4.84,4.24,39.16,39.16,0,0,1-4.84,4.24,8.62,8.62,0,0,1-4.84,1.76,8.67,8.67,0,0,1-4.84-1.76,40.67,40.67,0,0,1-4.84-4.24A39.16,39.16,0,0,0,302,2.33a7.53,7.53,0,0,0-9.68,0,40.67,40.67,0,0,0-4.84,4.24,39.16,39.16,0,0,1-4.84,4.24,8.62,8.62,0,0,1-4.84,1.76,8.67,8.67,0,0,1-4.84-1.76,40.67,40.67,0,0,1-4.84-4.24,39.84,39.84,0,0,0-4.83-4.24,7.53,7.53,0,0,0-9.68,0,39.16,39.16,0,0,0-4.84,4.24,40.67,40.67,0,0,1-4.84,4.24A8.67,8.67,0,0,1,239,12.57a8.62,8.62,0,0,1-4.84-1.76,39.16,39.16,0,0,1-4.84-4.24,40.67,40.67,0,0,0-4.84-4.24,7.53,7.53,0,0,0-9.68,0A39.16,39.16,0,0,0,210,6.57a40.67,40.67,0,0,1-4.84,4.24,8.67,8.67,0,0,1-4.84,1.76,8.62,8.62,0,0,1-4.84-1.76,39.9,39.9,0,0,1-4.84-4.24,39.9,39.9,0,0,0-4.84-4.24,7.53,7.53,0,0,0-9.68,0,39.16,39.16,0,0,0-4.84,4.24,40.67,40.67,0,0,1-4.84,4.24,8.67,8.67,0,0,1-4.84,1.76,8.62,8.62,0,0,1-4.84-1.76,39.16,39.16,0,0,1-4.84-4.24,40.67,40.67,0,0,0-4.84-4.24,7.55,7.55,0,0,0-9.68,0,39.28,39.28,0,0,0-4.84,4.25,40.67,40.67,0,0,1-4.84,4.24,8.66,8.66,0,0,1-4.84,1.75A8.55,8.55,0,0,1,118,10.8a39.16,39.16,0,0,1-4.84-4.24,40.67,40.67,0,0,0-4.84-4.24,7.55,7.55,0,0,0-9.68,0,40.91,40.91,0,0,0-4.84,4.25A40.67,40.67,0,0,1,89,10.8a8.66,8.66,0,0,1-4.84,1.75,8.6,8.6,0,0,1-4.84-1.75,40.13,40.13,0,0,1-4.84-4.25,39.9,39.9,0,0,0-4.84-4.24A8.65,8.65,0,0,0,64.81.55,8.57,8.57,0,0,0,60,2.31a39.9,39.9,0,0,0-4.84,4.24,39.9,39.9,0,0,1-4.84,4.24,8.63,8.63,0,0,1-4.84,1.75,8.63,8.63,0,0,1-4.84-1.75,40.91,40.91,0,0,1-4.84-4.25A39.16,39.16,0,0,0,30.93,2.3,8.62,8.62,0,0,0,26.09.54,8.6,8.6,0,0,0,21.25,2.3a40.67,40.67,0,0,0-4.84,4.24,39.9,39.9,0,0,1-4.84,4.24,8.63,8.63,0,0,1-4.84,1.75,8.63,8.63,0,0,1-4.84-1.75A41.72,41.72,0,0,1-3,6.53,39.16,39.16,0,0,0-7.79,2.29,8.62,8.62,0,0,0-12.63.53a8.67,8.67,0,0,0-4.84,1.76,40.67,40.67,0,0,0-4.84,4.24,39.16,39.16,0,0,1-4.84,4.24A8.6,8.6,0,0,1-32,12.52a8.66,8.66,0,0,1-4.84-1.75,41.72,41.72,0,0,1-4.84-4.25A39.84,39.84,0,0,0-46.5,2.28,8.67,8.67,0,0,0-51.34.52a8.62,8.62,0,0,0-4.84,1.76A39.16,39.16,0,0,0-61,6.52a40,40,0,0,1-4.85,4.24,8.53,8.53,0,0,1-4.84,1.75,8.6,8.6,0,0,1-4.83-1.75,39.28,39.28,0,0,1-4.84-4.25,40.67,40.67,0,0,0-4.84-4.24A8.67,8.67,0,0,0-90.06.51,8.65,8.65,0,0,0-94.9,2.27a39.16,39.16,0,0,0-4.84,4.24,40.67,40.67,0,0,1-4.84,4.24,8.58,8.58,0,0,1-4.84,1.75,8.6,8.6,0,0,1-4.84-1.75A39.28,39.28,0,0,1-119.1,6.5a39.9,39.9,0,0,0-4.84-4.24A8.65,8.65,0,0,0-128.78.5Z" fill="none"/></clipPath><linearGradient id="linear-gradient" x1="198.2" y1="86.58" x2="198.2" y2="109.48" gradientUnits="userSpaceOnUse"><stop offset="0" stop-color="#ebe9ec"/><stop offset="0.28" stop-color="#e5e6e9"/><stop offset="1" stop-color="#dadfe2"/></linearGradient><symbol id="cursor" data-name="cursor" viewBox="0 0 12 20.32"><polygon points="12 11.66 12 10.65 10.88 10.65 10.88 9.83 9.89 9.83 9.88 9.82 9.88 8.84 8.9 8.84 8.89 8.83 8.89 7.85 7.91 7.85 7.91 7.84 7.91 6.86 6.93 6.86 6.92 6.86 6.92 5.88 5.94 5.88 5.93 5.87 5.93 4.88 4.95 4.88 4.94 4.88 4.94 3.9 3.96 3.9 3.95 3.89 3.95 2.9 2.97 2.9 2.96 2.9 2.96 1.92 1.98 1.92 1.97 1.91 1.97 0.93 1 0.93 1 0 0 0 0 17.31 1 17.31 1 16.51 1.98 16.51 1.98 15.53 1.98 15.52 2.96 15.52 2.96 14.54 2.97 14.53 3.95 14.53 3.95 13.59 4.93 13.59 4.93 15.5 5.93 15.5 5.93 17.41 6.93 17.41 6.93 17.39 6.93 17.39 6.93 19.32 7.92 19.32 7.92 20.32 9.85 20.32 9.85 19.32 10.85 19.32 10.85 17.39 9.87 17.39 9.87 15.47 8.89 15.47 8.89 13.54 7.94 13.54 7.94 11.66 12 11.66" fill="#fff"/><polygon points="12 10.65 12 11.66 7.94 11.66 7.94 13.54 7.89 13.56 6.94 13.56 6.94 10.65 6.95 10.65 7.94 10.65 9.89 10.65 9.89 9.83 10.88 9.83 10.88 10.65 12 10.65" fill="#221f1f"/><polygon points="10.85 17.39 10.85 19.32 9.85 19.32 9.85 19.32 9.85 17.39 9.87 17.39 10.85 17.39" fill="#221f1f"/><rect x="8.9" y="8.84" width="0.98" height="0.98" fill="#221f1f"/><polygon points="9.87 15.47 9.87 17.39 9.85 17.39 8.87 17.39 8.87 15.47 8.89 15.47 9.87 15.47" fill="#221f1f"/><polygon points="9.85 19.32 9.85 20.32 7.92 20.32 7.92 19.32 7.93 19.32 9.85 19.32 9.85 19.32" fill="#221f1f"/><rect x="7.91" y="7.85" width="0.98" height="0.98" fill="#221f1f"/><polygon points="8.89 13.54 8.89 15.47 8.87 15.47 7.89 15.47 7.89 13.56 7.94 13.54 8.89 13.54" fill="#221f1f"/><polygon points="7.93 17.39 7.93 19.32 7.92 19.32 6.93 19.32 6.93 17.39 7.93 17.39" fill="#221f1f"/><rect x="6.93" y="6.86" width="0.98" height="0.98" fill="#221f1f"/><polygon points="6.93 17.39 6.93 17.41 5.93 17.41 5.93 15.5 5.93 15.48 6.93 15.48 6.93 17.39" fill="#221f1f"/><rect x="5.94" y="5.88" width="0.98" height="0.98" fill="#221f1f"/><polygon points="5.93 13.57 5.93 15.48 5.93 15.5 4.93 15.5 4.93 13.59 4.93 13.57 5.93 13.57" fill="#221f1f"/><rect x="4.95" y="4.88" width="0.98" height="0.98" fill="#221f1f"/><rect x="3.96" y="3.89" width="0.98" height="0.98" fill="#221f1f"/><polygon points="4.93 13.57 4.93 13.59 3.95 13.59 3.94 13.55 3.94 11.66 4.93 11.66 4.93 13.57" fill="#221f1f"/><rect x="2.97" y="2.91" width="0.98" height="0.98" fill="#221f1f"/><polygon points="3.95 13.59 3.95 14.53 2.97 14.53 2.97 13.55 3.94 13.55 3.95 13.59" fill="#221f1f"/><rect x="1.98" y="14.54" width="0.98" height="0.98" fill="#221f1f"/><rect x="1.98" y="1.92" width="0.98" height="0.98" fill="#221f1f"/><polygon points="1.98 15.53 1.98 16.51 1 16.51 1 17.31 0 17.31 0 0 1 0 1 0.93 1.97 0.93 1.97 1.91 1 1.91 1 15.53 1.98 15.53" fill="#221f1f"/></symbol></defs><title>tips-infotip-header-do</title><g clip-path="url(#clip-path)"><rect x="0.5" y="-458.5" width="299" height="562" fill="#d9dee1"/><path d="M299-458V103H1V-458H299m1-1H0V104H300V-459Z" fill="#82878c"/><rect x="282" y="-378" width="17" height="481" fill="#fff"/></g><g clip-path="url(#clip-path-2)"><rect x="0.5" y="-127.5" width="299" height="562" fill="#d9dee1"/><path d="M299-127V434H1V-127H299m1-1H0V435H300V-128Z" fill="#82878c"/><path d="M29.46,34.2H25.1V25.8h1v7.51h3.38Z" fill="#2b3033"/><path d="M33.13,34.34A2.78,2.78,0,0,1,31,33.5a3.11,3.11,0,0,1-.79-2.23A3.24,3.24,0,0,1,31,28.91a3,3,0,0,1,2.23-.85,2.69,2.69,0,0,1,2.09.83,3.28,3.28,0,0,1,.75,2.29,3.22,3.22,0,0,1-.81,2.3A2.84,2.84,0,0,1,33.13,34.34Zm.07-5.47a1.83,1.83,0,0,0-1.46.63,2.59,2.59,0,0,0-.54,1.74,2.45,2.45,0,0,0,.54,1.68,1.85,1.85,0,0,0,1.46.62,1.76,1.76,0,0,0,1.43-.6,2.62,2.62,0,0,0,.5-1.72,2.66,2.66,0,0,0-.5-1.73A1.75,1.75,0,0,0,33.2,28.87Z" fill="#2b3033"/><path d="M41.74,33.93a3.12,3.12,0,0,1-1.64.42A2.72,2.72,0,0,1,38,33.51a3,3,0,0,1-.79-2.17A3.33,3.33,0,0,1,38.09,29a3,3,0,0,1,2.27-.9,3.16,3.16,0,0,1,1.39.29v1a2.44,2.44,0,0,0-1.43-.47,1.93,1.93,0,0,0-1.51.66,2.5,2.5,0,0,0-.59,1.73,2.38,2.38,0,0,0,.55,1.66,1.91,1.91,0,0,0,1.49.61A2.41,2.41,0,0,0,41.74,33Z" fill="#2b3033"/><path d="M47.49,34.2h-1v-.94h0a2,2,0,0,1-1.85,1.08,2,2,0,0,1-1.4-.47,1.64,1.64,0,0,1-.51-1.26q0-1.68,2-2l1.8-.25q0-1.53-1.24-1.53a3,3,0,0,0-2,.74v-1a3.72,3.72,0,0,1,2-.56q2.12,0,2.12,2.24Zm-1-3-1.45.2a2.35,2.35,0,0,0-1,.33,1,1,0,0,0-.34.84.92.92,0,0,0,.31.72,1.21,1.21,0,0,0,.83.28,1.54,1.54,0,0,0,1.18-.5,1.79,1.79,0,0,0,.47-1.27Z" fill="#2b3033"/><path d="M50.26,34.2h-1V25.32h1Z" fill="#2b3033"/><path d="M52.7,26.68a.61.61,0,0,1-.44-.18.59.59,0,0,1-.18-.45.62.62,0,0,1,.62-.63.62.62,0,0,1,.45.18.63.63,0,0,1,0,.89A.62.62,0,0,1,52.7,26.68Zm.47,7.52h-1v-6h1Z" fill="#2b3033"/><path d="M59.3,28.48l-3.55,4.9h3.52v.82H54.33v-.3L57.88,29H54.67V28.2H59.3Z" fill="#2b3033"/><path d="M64.83,34.2h-1v-.94h0A2,2,0,0,1,62,34.34a2,2,0,0,1-1.4-.47,1.64,1.64,0,0,1-.51-1.26q0-1.68,2-2l1.8-.25q0-1.53-1.24-1.53a3,3,0,0,0-2,.74v-1a3.72,3.72,0,0,1,2-.56q2.12,0,2.12,2.24Zm-1-3-1.45.2a2.35,2.35,0,0,0-1,.33,1,1,0,0,0-.34.84.92.92,0,0,0,.31.72,1.21,1.21,0,0,0,.83.28,1.54,1.54,0,0,0,1.18-.5,1.79,1.79,0,0,0,.47-1.27Z" fill="#2b3033"/><path d="M69.43,34.14a1.85,1.85,0,0,1-.9.19Q67,34.33,67,32.57V29h-1V28.2h1V26.74l1-.31V28.2h1.51V29H67.92V32.4a1.4,1.4,0,0,0,.21.86.82.82,0,0,0,.68.26,1,1,0,0,0,.63-.2Z" fill="#2b3033"/><path d="M71.2,26.68a.61.61,0,0,1-.44-.18.59.59,0,0,1-.18-.45.62.62,0,0,1,.62-.63.62.62,0,0,1,.45.18.63.63,0,0,1,0,.89A.62.62,0,0,1,71.2,26.68Zm.47,7.52h-1v-6h1Z" fill="#2b3033"/><path d="M76.13,34.34A2.78,2.78,0,0,1,74,33.5a3.11,3.11,0,0,1-.79-2.23A3.24,3.24,0,0,1,74,28.91a3,3,0,0,1,2.23-.85,2.69,2.69,0,0,1,2.09.83,3.28,3.28,0,0,1,.75,2.29,3.22,3.22,0,0,1-.81,2.3A2.84,2.84,0,0,1,76.13,34.34Zm.07-5.47a1.83,1.83,0,0,0-1.46.63,2.59,2.59,0,0,0-.54,1.74,2.45,2.45,0,0,0,.54,1.68,1.85,1.85,0,0,0,1.46.62,1.76,1.76,0,0,0,1.43-.6,2.62,2.62,0,0,0,.5-1.72,2.66,2.66,0,0,0-.5-1.73A1.75,1.75,0,0,0,76.2,28.87Z" fill="#2b3033"/><path d="M85.63,34.2h-1V30.78q0-1.91-1.39-1.91a1.51,1.51,0,0,0-1.19.54,2,2,0,0,0-.47,1.37V34.2h-1v-6h1v1h0a2.17,2.17,0,0,1,2-1.14,1.84,1.84,0,0,1,1.51.64,2.83,2.83,0,0,1,.52,1.84Z" fill="#2b3033"/><path d="M10,28h9l-4.5,6Z" fill="#2b3033"/><rect x="140.5" y="-127.5" width="1" height="280" transform="translate(153.5 -128.5) rotate(90)" fill="#a9acaf"/><rect x="140.5" y="-126.5" width="1" height="280" transform="translate(154.5 -127.5) rotate(90)" fill="#fff"/><rect x="140.5" y="-9.5" width="1" height="280" transform="translate(271.5 -10.5) rotate(90)" fill="#a9acaf"/><rect x="282" y="-47" width="17" height="481" fill="#fff"/><rect x="25.5" y="52.5" width="249" height="23" fill="#fff"/><path d="M274,53V75H26V53H274m1-1H25V76H275V52Z" fill="#4386b9"/><g opacity="0.5"><path d="M27.09,100v3.18h-1V94.8h2.31a3,3,0,0,1,2.09.66,2.34,2.34,0,0,1,.74,1.85,2.55,2.55,0,0,1-.82,2,3.15,3.15,0,0,1-2.22.76Zm0-4.34v3.45h1a2.31,2.31,0,0,0,1.56-.47,1.65,1.65,0,0,0,.54-1.32q0-1.66-2-1.66Z" fill="#2b3033"/><path d="M35.82,98.17A1.18,1.18,0,0,0,35.1,98a1.23,1.23,0,0,0-1,.58,2.68,2.68,0,0,0-.41,1.58v3.06h-1v-6h1v1.24h0a2.1,2.1,0,0,1,.63-1,1.43,1.43,0,0,1,.94-.35,1.57,1.57,0,0,1,.57.08Z" fill="#2b3033"/><path d="M41.53,100.44H37.29a2.24,2.24,0,0,0,.54,1.55,1.86,1.86,0,0,0,1.42.54,3,3,0,0,0,1.86-.67v.9a3.48,3.48,0,0,1-2.09.57,2.54,2.54,0,0,1-2-.82,3.35,3.35,0,0,1-.73-2.3,3.28,3.28,0,0,1,.79-2.28,2.55,2.55,0,0,1,2-.88,2.26,2.26,0,0,1,1.82.76,3.18,3.18,0,0,1,.64,2.12Zm-1-.81a2,2,0,0,0-.4-1.29,1.37,1.37,0,0,0-1.1-.46,1.55,1.55,0,0,0-1.15.49,2.21,2.21,0,0,0-.59,1.27Z" fill="#2b3033"/><path d="M47.7,97.2l-2.39,6h-.94l-2.27-6h1.05l1.52,4.36a3.91,3.91,0,0,1,.21.84h0a4,4,0,0,1,.19-.81l1.59-4.38Z" fill="#2b3033"/><path d="M49.22,95.68a.61.61,0,0,1-.44-.18.59.59,0,0,1-.18-.45.62.62,0,0,1,.62-.63.62.62,0,0,1,.45.18.63.63,0,0,1,0,.89A.62.62,0,0,1,49.22,95.68Zm.47,7.52h-1v-6h1Z" fill="#2b3033"/><path d="M56.46,100.44H52.22a2.24,2.24,0,0,0,.54,1.55,1.86,1.86,0,0,0,1.42.54,3,3,0,0,0,1.86-.67v.9a3.48,3.48,0,0,1-2.09.57,2.54,2.54,0,0,1-2-.82,3.35,3.35,0,0,1-.73-2.3A3.28,3.28,0,0,1,52,97.94a2.55,2.55,0,0,1,2-.88,2.26,2.26,0,0,1,1.82.76,3.18,3.18,0,0,1,.64,2.12Zm-1-.81a2,2,0,0,0-.4-1.29,1.37,1.37,0,0,0-1.1-.46,1.55,1.55,0,0,0-1.15.49,2.21,2.21,0,0,0-.59,1.27Z" fill="#2b3033"/><path d="M65.47,97.2l-1.8,6h-1l-1.24-4.29a2.8,2.8,0,0,1-.09-.56h0a2.63,2.63,0,0,1-.12.54l-1.34,4.31h-1l-1.82-6h1l1.24,4.51a2.72,2.72,0,0,1,.08.54h0a2.52,2.52,0,0,1,.11-.55l1.38-4.5h.88l1.24,4.52a3.23,3.23,0,0,1,.09.54h0a2.49,2.49,0,0,1,.1-.54l1.22-4.52Z" fill="#2b3033"/></g><g opacity="0.5"><rect x="121.9" y="86.51" width="152.6" height="23" fill="url(#linear-gradient)"/><path d="M274,87v22H122.4V87H274m1-1H121.4v24H275V86Z" fill="#a8abae"/><path d="M258,95h9l-4.5,6Z" fill="#2b3033"/><path d="M133.64,102.16l-5-2.53v-.35l5-2.82v.88l-3.76,2.09v0l3.76,1.84Z" fill="#2b3033"/><path d="M143.09,102.9h-1.21l-4.32-6.7a2.8,2.8,0,0,1-.27-.53h0a8.65,8.65,0,0,1,0,1.15v6.07h-1V94.5h1.28l4.21,6.59q.26.41.34.56h0a8.89,8.89,0,0,1-.06-1.24V94.5h1Z" fill="#2b3033"/><path d="M147.67,103a2.78,2.78,0,0,1-2.12-.84,3.11,3.11,0,0,1-.79-2.23,3.24,3.24,0,0,1,.83-2.36,3,3,0,0,1,2.23-.85,2.69,2.69,0,0,1,2.1.83,3.28,3.28,0,0,1,.75,2.29,3.22,3.22,0,0,1-.81,2.3A2.85,2.85,0,0,1,147.67,103Zm.07-5.47a1.83,1.83,0,0,0-1.46.63,2.59,2.59,0,0,0-.54,1.74,2.45,2.45,0,0,0,.54,1.68,1.85,1.85,0,0,0,1.46.62,1.76,1.76,0,0,0,1.43-.6,2.62,2.62,0,0,0,.5-1.72,2.66,2.66,0,0,0-.5-1.73A1.75,1.75,0,0,0,147.74,97.57Z" fill="#2b3033"/><path d="M155,102.84a1.85,1.85,0,0,1-.9.19q-1.58,0-1.58-1.76V97.72h-1V96.9h1V95.44l1-.31V96.9H155v.82h-1.51v3.38a1.4,1.4,0,0,0,.21.86.82.82,0,0,0,.68.26,1,1,0,0,0,.63-.2Z" fill="#2b3033"/><path d="M163.84,102.9h-1V102h0A2,2,0,0,1,161,103a2,2,0,0,1-1.4-.47,1.65,1.65,0,0,1-.51-1.26q0-1.68,2-2l1.8-.25q0-1.53-1.24-1.53a3,3,0,0,0-2,.74v-1a3.72,3.72,0,0,1,2-.56q2.12,0,2.12,2.24Zm-1-3-1.45.2a2.35,2.35,0,0,0-1,.33,1,1,0,0,0-.34.84.92.92,0,0,0,.31.72,1.21,1.21,0,0,0,.83.28,1.54,1.54,0,0,0,1.18-.5,1.79,1.79,0,0,0,.46-1.27Z" fill="#2b3033"/><path d="M170.37,96.9l-2.39,6H167l-2.27-6h1.05l1.52,4.36a3.91,3.91,0,0,1,.21.84h0a4,4,0,0,1,.19-.81l1.59-4.38Z" fill="#2b3033"/><path d="M175.48,102.9h-1V102h0a2,2,0,0,1-1.85,1.08,2,2,0,0,1-1.4-.47,1.65,1.65,0,0,1-.51-1.26q0-1.68,2-2l1.8-.25q0-1.53-1.24-1.53a3,3,0,0,0-2,.74v-1a3.72,3.72,0,0,1,2-.56q2.12,0,2.12,2.24Zm-1-3-1.45.2a2.35,2.35,0,0,0-1,.33,1,1,0,0,0-.34.84.92.92,0,0,0,.31.72,1.21,1.21,0,0,0,.83.28,1.54,1.54,0,0,0,1.18-.5,1.79,1.79,0,0,0,.46-1.27Z" fill="#2b3033"/><path d="M177.78,95.38a.61.61,0,0,1-.44-.18.59.59,0,0,1-.18-.45.62.62,0,0,1,.62-.63.62.62,0,0,1,.45.18.63.63,0,0,1,0,.89A.62.62,0,0,1,177.78,95.38Zm.47,7.52h-1v-6h1Z" fill="#2b3033"/><path d="M181.16,102.9h-1V94h1Z" fill="#2b3033"/><path d="M187.4,102.9h-1V102h0a2,2,0,0,1-1.85,1.08,2,2,0,0,1-1.4-.47,1.65,1.65,0,0,1-.51-1.26q0-1.68,2-2l1.8-.25q0-1.53-1.24-1.53a3,3,0,0,0-2,.74v-1a3.72,3.72,0,0,1,2-.56q2.12,0,2.12,2.24Zm-1-3-1.45.2a2.35,2.35,0,0,0-1,.33,1,1,0,0,0-.34.84.92.92,0,0,0,.31.72,1.21,1.21,0,0,0,.83.28,1.54,1.54,0,0,0,1.18-.5,1.79,1.79,0,0,0,.46-1.27Z" fill="#2b3033"/><path d="M190.19,102h0v.87h-1V94h1V98h0a2.27,2.27,0,0,1,2.07-1.2,2.2,2.2,0,0,1,1.81.81,3.33,3.33,0,0,1,.65,2.16,3.72,3.72,0,0,1-.73,2.41,2.44,2.44,0,0,1-2,.91A2,2,0,0,1,190.19,102Zm0-2.42v.84a1.78,1.78,0,0,0,.48,1.26,1.72,1.72,0,0,0,2.6-.15,3.06,3.06,0,0,0,.49-1.86,2.42,2.42,0,0,0-.46-1.57,1.53,1.53,0,0,0-1.25-.57,1.7,1.7,0,0,0-1.35.58A2.14,2.14,0,0,0,190.17,99.61Z" fill="#2b3033"/><path d="M197.22,102.9h-1V94h1Z" fill="#2b3033"/><path d="M204,100.14h-4.24a2.24,2.24,0,0,0,.54,1.55,1.86,1.86,0,0,0,1.42.54,3,3,0,0,0,1.86-.67v.9a3.48,3.48,0,0,1-2.09.57,2.54,2.54,0,0,1-2-.82,3.35,3.35,0,0,1-.73-2.3,3.28,3.28,0,0,1,.79-2.28,2.54,2.54,0,0,1,2-.88,2.26,2.26,0,0,1,1.82.76,3.18,3.18,0,0,1,.64,2.12Zm-1-.81a2,2,0,0,0-.4-1.29,1.37,1.37,0,0,0-1.1-.46,1.55,1.55,0,0,0-1.15.49,2.21,2.21,0,0,0-.59,1.27Z" fill="#2b3033"/><path d="M211.1,99.63l-5,2.53v-.87l3.77-1.83v0l-3.77-2.09v-.88l5,2.82Z" fill="#2b3033"/></g><path d="M119.2,68.38h-4.45V60H119v.89h-3.28v2.79h3v.88h-3v2.94h3.47Z" fill="#2b3033"/><path d="M125.07,62.38l-2,3,2,3h-1.12l-1.18-1.95-.26-.46h0l-.28.46L121,68.38h-1.11l2-2.94-2-3.06h1.12l1.16,2.05.25.47h0l1.5-2.52Z" fill="#2b3033"/><path d="M127.18,67.51h0v3.63h-1V62.38h1v1.05h0a2.27,2.27,0,0,1,2.07-1.2,2.2,2.2,0,0,1,1.81.81,3.34,3.34,0,0,1,.65,2.16,3.72,3.72,0,0,1-.73,2.41,2.44,2.44,0,0,1-2,.91A2,2,0,0,1,127.18,67.51Zm0-2.42v.84a1.78,1.78,0,0,0,.48,1.26,1.72,1.72,0,0,0,2.6-.15,3.06,3.06,0,0,0,.5-1.86,2.42,2.42,0,0,0-.46-1.57A1.53,1.53,0,0,0,129,63a1.7,1.7,0,0,0-1.35.58A2.14,2.14,0,0,0,127.16,65.09Z" fill="#2b3033"/><path d="M135.76,68.52a2.78,2.78,0,0,1-2.12-.84,3.11,3.11,0,0,1-.79-2.23,3.24,3.24,0,0,1,.83-2.36,3,3,0,0,1,2.23-.85,2.69,2.69,0,0,1,2.09.83,3.28,3.28,0,0,1,.75,2.29,3.22,3.22,0,0,1-.81,2.3A2.84,2.84,0,0,1,135.76,68.52Zm.07-5.47a1.83,1.83,0,0,0-1.46.63,2.59,2.59,0,0,0-.54,1.74,2.45,2.45,0,0,0,.54,1.68,1.85,1.85,0,0,0,1.46.62,1.76,1.76,0,0,0,1.43-.6,2.62,2.62,0,0,0,.5-1.72,2.66,2.66,0,0,0-.5-1.73A1.75,1.75,0,0,0,135.83,63Z" fill="#2b3033"/><path d="M143.41,63.35a1.18,1.18,0,0,0-.73-.19,1.23,1.23,0,0,0-1,.58,2.68,2.68,0,0,0-.41,1.58v3.06h-1v-6h1v1.24h0a2.1,2.1,0,0,1,.63-1,1.43,1.43,0,0,1,.94-.35,1.57,1.57,0,0,1,.57.08Z" fill="#2b3033"/><path d="M147.58,68.32a1.85,1.85,0,0,1-.9.19q-1.58,0-1.58-1.76V63.2h-1v-.82h1V60.91l1-.31v1.78h1.51v.82h-1.51v3.38a1.4,1.4,0,0,0,.21.86.82.82,0,0,0,.68.26,1,1,0,0,0,.63-.2Z" fill="#2b3033"/><path d="M151.79,68.16v-1a2.84,2.84,0,0,0,1.73.58q1.27,0,1.27-.84a.73.73,0,0,0-.11-.41,1.08,1.08,0,0,0-.29-.3,2.26,2.26,0,0,0-.43-.23l-.54-.21a6.9,6.9,0,0,1-.7-.32,2.12,2.12,0,0,1-.5-.36,1.35,1.35,0,0,1-.3-.46,1.63,1.63,0,0,1-.1-.6,1.43,1.43,0,0,1,.19-.75,1.71,1.71,0,0,1,.52-.54,2.4,2.4,0,0,1,.74-.33,3.26,3.26,0,0,1,.85-.11,3.44,3.44,0,0,1,1.39.27v1A2.72,2.72,0,0,0,154,63a1.78,1.78,0,0,0-.49.06,1.19,1.19,0,0,0-.37.17.8.8,0,0,0-.24.27.7.7,0,0,0-.08.34.82.82,0,0,0,.08.39.86.86,0,0,0,.25.28,1.9,1.9,0,0,0,.4.22L154,65a7.42,7.42,0,0,1,.71.31,2.45,2.45,0,0,1,.54.36,1.42,1.42,0,0,1,.34.47,1.5,1.5,0,0,1,.12.63,1.48,1.48,0,0,1-.2.77,1.68,1.68,0,0,1-.52.54,2.4,2.4,0,0,1-.76.32,3.73,3.73,0,0,1-.9.11A3.4,3.4,0,0,1,151.79,68.16Z" fill="#2b3033"/><path d="M160,68.32a1.85,1.85,0,0,1-.9.19q-1.58,0-1.58-1.76V63.2h-1v-.82h1V60.91l1-.31v1.78H160v.82h-1.51v3.38a1.4,1.4,0,0,0,.21.86.82.82,0,0,0,.68.26,1,1,0,0,0,.63-.2Z" fill="#2b3033"/><path d="M164.44,63.35a1.18,1.18,0,0,0-.73-.19,1.23,1.23,0,0,0-1,.58,2.68,2.68,0,0,0-.41,1.58v3.06h-1v-6h1v1.24h0a2.1,2.1,0,0,1,.63-1,1.43,1.43,0,0,1,.94-.35,1.57,1.57,0,0,1,.57.08Z" fill="#2b3033"/><path d="M166,60.85a.61.61,0,0,1-.44-.18.59.59,0,0,1-.18-.45.62.62,0,0,1,.62-.63.62.62,0,0,1,.45.18.63.63,0,0,1,0,.89A.62.62,0,0,1,166,60.85Zm.47,7.52h-1v-6h1Z" fill="#2b3033"/><path d="M173.37,68.38h-1V65Q172.41,63,171,63a1.51,1.51,0,0,0-1.19.54,2,2,0,0,0-.47,1.37v3.42h-1v-6h1v1h0a2.17,2.17,0,0,1,2-1.14,1.84,1.84,0,0,1,1.51.64,2.83,2.83,0,0,1,.52,1.84Z" fill="#2b3033"/><path d="M180.3,67.9q0,3.3-3.16,3.3a4.25,4.25,0,0,1-1.95-.42v-1a4,4,0,0,0,1.93.56q2.21,0,2.21-2.36v-.66h0a2.43,2.43,0,0,1-3.86.35,3.2,3.2,0,0,1-.68-2.15,3.74,3.74,0,0,1,.74-2.43,2.46,2.46,0,0,1,2-.9,2,2,0,0,1,1.8,1h0v-.83h1Zm-1-2.23v-.88a1.72,1.72,0,0,0-.48-1.22,1.59,1.59,0,0,0-1.2-.51,1.67,1.67,0,0,0-1.39.65,2.89,2.89,0,0,0-.5,1.81,2.48,2.48,0,0,0,.48,1.6,1.56,1.56,0,0,0,1.28.6,1.67,1.67,0,0,0,1.32-.57A2.14,2.14,0,0,0,179.34,65.66Z" fill="#2b3033"/><path d="M181.88,68.16v-1a2.84,2.84,0,0,0,1.73.58q1.27,0,1.27-.84a.73.73,0,0,0-.11-.41,1.08,1.08,0,0,0-.29-.3,2.26,2.26,0,0,0-.43-.23l-.54-.21a6.9,6.9,0,0,1-.7-.32,2.12,2.12,0,0,1-.5-.36,1.35,1.35,0,0,1-.3-.46,1.63,1.63,0,0,1-.1-.6,1.43,1.43,0,0,1,.19-.75,1.71,1.71,0,0,1,.52-.54,2.4,2.4,0,0,1,.74-.33,3.26,3.26,0,0,1,.85-.11,3.44,3.44,0,0,1,1.39.27v1a2.72,2.72,0,0,0-1.52-.43,1.78,1.78,0,0,0-.49.06,1.19,1.19,0,0,0-.37.17.8.8,0,0,0-.24.27.7.7,0,0,0-.08.34.82.82,0,0,0,.08.39.86.86,0,0,0,.25.28,1.9,1.9,0,0,0,.4.22l.53.22a7.42,7.42,0,0,1,.71.31,2.45,2.45,0,0,1,.54.36,1.42,1.42,0,0,1,.34.47,1.5,1.5,0,0,1,.12.63,1.48,1.48,0,0,1-.2.77,1.68,1.68,0,0,1-.52.54,2.4,2.4,0,0,1-.76.32,3.73,3.73,0,0,1-.9.11A3.4,3.4,0,0,1,181.88,68.16Z" fill="#2b3033"/></g><path d="M427,241.24c-2,0-2.64,2.25-4.26,3.82a39.16,39.16,0,0,1-4.84,4.24,7.54,7.54,0,0,1-9.68,0,40.67,40.67,0,0,1-4.84-4.24,39.28,39.28,0,0,0-4.84-4.25,7.55,7.55,0,0,0-9.67,0,40,40,0,0,0-4.85,4.24,39.16,39.16,0,0,1-4.84,4.24,7.54,7.54,0,0,1-9.68,0,39.84,39.84,0,0,1-4.83-4.24,41.72,41.72,0,0,0-4.84-4.25,7.57,7.57,0,0,0-9.68,0,39.16,39.16,0,0,0-4.84,4.24,40.67,40.67,0,0,1-4.84,4.24,7.54,7.54,0,0,1-9.68,0A39.16,39.16,0,0,1,326,245a41.72,41.72,0,0,0-4.84-4.25,7.57,7.57,0,0,0-9.68,0,39.9,39.9,0,0,0-4.84,4.24,40.67,40.67,0,0,1-4.84,4.24,7.53,7.53,0,0,1-9.68,0,39.16,39.16,0,0,1-4.84-4.24,40.91,40.91,0,0,0-4.84-4.25,7.57,7.57,0,0,0-9.68,0,39.9,39.9,0,0,0-4.84,4.24,39.9,39.9,0,0,1-4.84,4.24,7.54,7.54,0,0,1-9.68,0,39.9,39.9,0,0,1-4.84-4.24,40.13,40.13,0,0,0-4.84-4.25,7.57,7.57,0,0,0-9.68,0,40.67,40.67,0,0,0-4.84,4.24,40.91,40.91,0,0,1-4.84,4.25,7.55,7.55,0,0,1-9.68,0,40.67,40.67,0,0,1-4.84-4.24,39.16,39.16,0,0,0-4.84-4.24,8.55,8.55,0,0,0-4.84-1.76,8.66,8.66,0,0,0-4.84,1.75,40.67,40.67,0,0,0-4.84,4.24,39.28,39.28,0,0,1-4.84,4.25,7.55,7.55,0,0,1-9.68,0,40.67,40.67,0,0,1-4.84-4.24,39.16,39.16,0,0,0-4.84-4.24,7.54,7.54,0,0,0-9.68,0,40.67,40.67,0,0,0-4.84,4.24,39.16,39.16,0,0,1-4.84,4.24,7.53,7.53,0,0,1-9.68,0,39.9,39.9,0,0,1-4.84-4.24,39.9,39.9,0,0,0-4.84-4.24,7.54,7.54,0,0,0-9.68,0A40.67,40.67,0,0,0,113,245a39.16,39.16,0,0,1-4.84,4.24,7.53,7.53,0,0,1-9.68,0A40.67,40.67,0,0,1,93.63,245a39.16,39.16,0,0,0-4.84-4.24,7.54,7.54,0,0,0-9.68,0A40.67,40.67,0,0,0,74.27,245a39.16,39.16,0,0,1-4.84,4.24A8.62,8.62,0,0,1,64.59,251a8.67,8.67,0,0,1-4.84-1.76A39.84,39.84,0,0,1,54.92,245a40.67,40.67,0,0,0-4.84-4.24A8.67,8.67,0,0,0,45.24,239a8.62,8.62,0,0,0-4.84,1.76A39.16,39.16,0,0,0,35.56,245a40.67,40.67,0,0,1-4.84,4.24A8.67,8.67,0,0,1,25.88,251,8.62,8.62,0,0,1,21,249.24,39.16,39.16,0,0,1,16.2,245a40.67,40.67,0,0,0-4.84-4.24A8.67,8.67,0,0,0,6.52,239a8.62,8.62,0,0,0-4.84,1.76A39.16,39.16,0,0,0-3.16,245,40.67,40.67,0,0,1-8,249.24,8.67,8.67,0,0,1-12.84,251a8.62,8.62,0,0,1-4.84-1.76A39.9,39.9,0,0,1-22.52,245a39.9,39.9,0,0,0-4.84-4.24A8.65,8.65,0,0,0-32.2,239,8.65,8.65,0,0,0-37,240.76,39.9,39.9,0,0,0-41.88,245a39.9,39.9,0,0,1-4.84,4.24A8.65,8.65,0,0,1-51.56,251a8.65,8.65,0,0,1-4.84-1.76A39.9,39.9,0,0,1-61.24,245a39.9,39.9,0,0,0-4.84-4.24A8.65,8.65,0,0,0-70.92,239a8.65,8.65,0,0,0-4.84,1.76A39.9,39.9,0,0,0-80.6,245a39.9,39.9,0,0,1-4.84,4.24A8.65,8.65,0,0,1-90.28,251a8.67,8.67,0,0,1-4.84-1.76A40.67,40.67,0,0,1-100,245a39.16,39.16,0,0,0-4.84-4.24,8.62,8.62,0,0,0-4.84-1.76,8.67,8.67,0,0,0-4.84,1.76,40.67,40.67,0,0,0-4.84,4.24c-1.61,1.57-2.88,4.24-4.84,4.24" fill="none" stroke="#adaead" stroke-miterlimit="10"/><path d="M447,2.67c-2,0-2.64,2.25-4.26,3.82a39.16,39.16,0,0,1-4.84,4.24,7.54,7.54,0,0,1-9.68,0,40.67,40.67,0,0,1-4.84-4.24,39.28,39.28,0,0,0-4.84-4.25,7.55,7.55,0,0,0-9.67,0A40,40,0,0,0,404,6.48a39.16,39.16,0,0,1-4.84,4.24,8.62,8.62,0,0,1-4.84,1.76,8.67,8.67,0,0,1-4.84-1.76,39.84,39.84,0,0,1-4.83-4.24,41.72,41.72,0,0,0-4.84-4.25,7.57,7.57,0,0,0-9.68,0,39.16,39.16,0,0,0-4.84,4.24,40.67,40.67,0,0,1-4.84,4.24,8.67,8.67,0,0,1-4.84,1.76,8.62,8.62,0,0,1-4.84-1.76A39.16,39.16,0,0,1,346,6.47a41.72,41.72,0,0,0-4.84-4.25,7.57,7.57,0,0,0-9.68,0,39.9,39.9,0,0,0-4.84,4.24,40.67,40.67,0,0,1-4.84,4.24,7.53,7.53,0,0,1-9.68,0,39.16,39.16,0,0,1-4.84-4.24,40.91,40.91,0,0,0-4.84-4.25,7.57,7.57,0,0,0-9.68,0,39.9,39.9,0,0,0-4.84,4.24A39.9,39.9,0,0,1,283,10.69a8.57,8.57,0,0,1-4.84,1.76,8.65,8.65,0,0,1-4.84-1.76,39.9,39.9,0,0,1-4.84-4.24,40.13,40.13,0,0,0-4.84-4.25,7.57,7.57,0,0,0-9.68,0,40.67,40.67,0,0,0-4.84,4.24,40.91,40.91,0,0,1-4.84,4.25,7.55,7.55,0,0,1-9.68,0,40.67,40.67,0,0,1-4.84-4.24A39.16,39.16,0,0,0,225,2.2,8.55,8.55,0,0,0,220.11.44a8.66,8.66,0,0,0-4.84,1.75,40.67,40.67,0,0,0-4.84,4.24,39.28,39.28,0,0,1-4.84,4.25,8.6,8.6,0,0,1-4.84,1.75,8.65,8.65,0,0,1-4.84-1.76,40.67,40.67,0,0,1-4.84-4.24,39.16,39.16,0,0,0-4.84-4.24,7.54,7.54,0,0,0-9.68,0,40.67,40.67,0,0,0-4.84,4.24,39.16,39.16,0,0,1-4.84,4.24,7.53,7.53,0,0,1-9.68,0,39.9,39.9,0,0,1-4.84-4.24,39.9,39.9,0,0,0-4.84-4.24,7.54,7.54,0,0,0-9.68,0A40.67,40.67,0,0,0,133,6.43a39.16,39.16,0,0,1-4.84,4.24,8.62,8.62,0,0,1-4.84,1.76,8.67,8.67,0,0,1-4.84-1.76,40.67,40.67,0,0,1-4.84-4.24,39.16,39.16,0,0,0-4.84-4.24,7.53,7.53,0,0,0-9.68,0,40.67,40.67,0,0,0-4.84,4.24,39.16,39.16,0,0,1-4.84,4.24,8.62,8.62,0,0,1-4.84,1.76,8.67,8.67,0,0,1-4.84-1.76,39.84,39.84,0,0,1-4.83-4.24,40.67,40.67,0,0,0-4.84-4.24A8.67,8.67,0,0,0,65.24.43,8.62,8.62,0,0,0,60.4,2.19a39.16,39.16,0,0,0-4.84,4.24,40.67,40.67,0,0,1-4.84,4.24,8.67,8.67,0,0,1-4.84,1.76A8.62,8.62,0,0,1,41,10.67,39.16,39.16,0,0,1,36.2,6.43a40.67,40.67,0,0,0-4.84-4.24A8.67,8.67,0,0,0,26.52.43a8.62,8.62,0,0,0-4.84,1.76,39.16,39.16,0,0,0-4.84,4.24A40.67,40.67,0,0,1,12,10.67a8.67,8.67,0,0,1-4.84,1.76,8.62,8.62,0,0,1-4.84-1.76A39.9,39.9,0,0,1-2.52,6.43,39.9,39.9,0,0,0-7.36,2.19,8.65,8.65,0,0,0-12.2.43,8.65,8.65,0,0,0-17,2.19a39.9,39.9,0,0,0-4.84,4.24,39.9,39.9,0,0,1-4.84,4.24,8.65,8.65,0,0,1-4.84,1.76,8.65,8.65,0,0,1-4.84-1.76,39.9,39.9,0,0,1-4.84-4.24,39.9,39.9,0,0,0-4.84-4.24A8.65,8.65,0,0,0-50.92.43a8.65,8.65,0,0,0-4.84,1.76A39.9,39.9,0,0,0-60.6,6.43a39.9,39.9,0,0,1-4.84,4.24,8.65,8.65,0,0,1-4.84,1.76,8.67,8.67,0,0,1-4.84-1.76A40.67,40.67,0,0,1-80,6.43,39.16,39.16,0,0,0-84.8,2.19,8.62,8.62,0,0,0-89.64.43a8.67,8.67,0,0,0-4.84,1.76,40.67,40.67,0,0,0-4.84,4.24c-1.61,1.57-2.88,4.24-4.84,4.24" fill="none" stroke="#adaead" stroke-miterlimit="10"/><rect x="111.5" y="118.5" width="114" height="20" fill="#fff"/><path d="M225,119v19H112V119H225m1-1H111v21H226V118Z" fill="#4d5359"/><path d="M123.07,125.49h-2.43V133h-1v-7.51h-2.42v-.89h5.83Z" fill="#2b3033"/><path d="M127.28,133h-1v-.94h0a2,2,0,0,1-1.85,1.08,2,2,0,0,1-1.4-.47,1.64,1.64,0,0,1-.51-1.26q0-1.68,2-2l1.8-.25q0-1.53-1.24-1.53a3,3,0,0,0-2,.74v-1a3.72,3.72,0,0,1,2-.56q2.12,0,2.12,2.24Zm-1-3-1.45.2a2.35,2.35,0,0,0-1,.33,1,1,0,0,0-.34.84.92.92,0,0,0,.31.72,1.21,1.21,0,0,0,.83.28,1.54,1.54,0,0,0,1.18-.5,1.79,1.79,0,0,0,.47-1.27Z" fill="#2b3033"/><path d="M130.08,132.13h0V133h-1v-8.88h1v3.94h0a2.27,2.27,0,0,1,2.07-1.2,2.2,2.2,0,0,1,1.81.81,3.33,3.33,0,0,1,.65,2.16,3.72,3.72,0,0,1-.73,2.41,2.44,2.44,0,0,1-2,.91A2,2,0,0,1,130.08,132.13Zm0-2.42v.84a1.78,1.78,0,0,0,.48,1.26,1.72,1.72,0,0,0,2.6-.15,3.06,3.06,0,0,0,.5-1.86,2.42,2.42,0,0,0-.46-1.57,1.53,1.53,0,0,0-1.25-.57,1.7,1.7,0,0,0-1.35.58A2.14,2.14,0,0,0,130.05,129.71Z" fill="#2b3033"/><path d="M139.07,132.78v-1a2.84,2.84,0,0,0,1.73.58q1.27,0,1.27-.84a.73.73,0,0,0-.11-.41,1.08,1.08,0,0,0-.29-.3,2.26,2.26,0,0,0-.43-.23l-.54-.21a6.9,6.9,0,0,1-.7-.32,2.12,2.12,0,0,1-.5-.36,1.35,1.35,0,0,1-.3-.46,1.63,1.63,0,0,1-.1-.6,1.43,1.43,0,0,1,.19-.75,1.71,1.71,0,0,1,.52-.54,2.4,2.4,0,0,1,.74-.33,3.26,3.26,0,0,1,.85-.11,3.44,3.44,0,0,1,1.39.27v1a2.72,2.72,0,0,0-1.52-.43,1.78,1.78,0,0,0-.49.06,1.19,1.19,0,0,0-.37.17.8.8,0,0,0-.24.27.7.7,0,0,0-.08.34.82.82,0,0,0,.08.39.86.86,0,0,0,.25.28,1.9,1.9,0,0,0,.4.22l.53.22a7.42,7.42,0,0,1,.71.31,2.45,2.45,0,0,1,.54.36,1.42,1.42,0,0,1,.34.47,1.5,1.5,0,0,1,.12.63,1.48,1.48,0,0,1-.2.77,1.68,1.68,0,0,1-.52.54,2.4,2.4,0,0,1-.76.32,3.73,3.73,0,0,1-.9.11A3.4,3.4,0,0,1,139.07,132.78Z" fill="#2b3033"/><path d="M147.31,132.94a1.85,1.85,0,0,1-.9.19q-1.58,0-1.58-1.76v-3.55h-1V127h1v-1.46l1-.31V127h1.51v.82H145.8v3.38a1.4,1.4,0,0,0,.21.86.82.82,0,0,0,.68.26,1,1,0,0,0,.63-.2Z" fill="#2b3033"/><path d="M151.72,128a1.18,1.18,0,0,0-.73-.19,1.23,1.23,0,0,0-1,.58,2.68,2.68,0,0,0-.41,1.58V133h-1v-6h1v1.24h0a2.1,2.1,0,0,1,.63-1,1.43,1.43,0,0,1,.94-.35,1.57,1.57,0,0,1,.57.08Z" fill="#2b3033"/><path d="M153.26,125.48a.61.61,0,0,1-.44-.18.59.59,0,0,1-.18-.45.62.62,0,0,1,.62-.63.62.62,0,0,1,.45.18.63.63,0,0,1,0,.89A.62.62,0,0,1,153.26,125.48Zm.47,7.52h-1v-6h1Z" fill="#2b3033"/><path d="M156.66,132.13h0v3.63h-1V127h1v1.05h0a2.27,2.27,0,0,1,2.07-1.2,2.2,2.2,0,0,1,1.81.81,3.34,3.34,0,0,1,.65,2.16,3.72,3.72,0,0,1-.73,2.41,2.44,2.44,0,0,1-2,.91A2,2,0,0,1,156.66,132.13Zm0-2.42v.84a1.78,1.78,0,0,0,.48,1.26,1.72,1.72,0,0,0,2.6-.15,3.06,3.06,0,0,0,.5-1.86,2.42,2.42,0,0,0-.46-1.57,1.53,1.53,0,0,0-1.25-.57,1.7,1.7,0,0,0-1.35.58A2.14,2.14,0,0,0,156.63,129.71Z" fill="#2b3033"/><path d="M167,132.13h0v3.63h-1V127h1v1.05h0a2.27,2.27,0,0,1,2.07-1.2,2.2,2.2,0,0,1,1.81.81,3.34,3.34,0,0,1,.65,2.16,3.72,3.72,0,0,1-.73,2.41,2.44,2.44,0,0,1-2,.91A2,2,0,0,1,167,132.13Zm0-2.42v.84a1.78,1.78,0,0,0,.48,1.26,1.72,1.72,0,0,0,2.6-.15,3.06,3.06,0,0,0,.5-1.86,2.42,2.42,0,0,0-.46-1.57,1.53,1.53,0,0,0-1.25-.57,1.7,1.7,0,0,0-1.35.58A2.14,2.14,0,0,0,167,129.71Z" fill="#2b3033"/><path d="M174,133h-1v-8.88h1Z" fill="#2b3033"/><path d="M180.27,133h-1v-.94h0a2,2,0,0,1-1.85,1.08,2,2,0,0,1-1.4-.47,1.64,1.64,0,0,1-.51-1.26q0-1.68,2-2l1.8-.25q0-1.53-1.24-1.53a3,3,0,0,0-2,.74v-1a3.72,3.72,0,0,1,2-.56q2.12,0,2.12,2.24Zm-1-3-1.45.2a2.35,2.35,0,0,0-1,.33,1,1,0,0,0-.34.84.92.92,0,0,0,.31.72,1.21,1.21,0,0,0,.83.28,1.54,1.54,0,0,0,1.18-.5,1.79,1.79,0,0,0,.47-1.27Z" fill="#2b3033"/><path d="M186.17,132.72a3.12,3.12,0,0,1-1.64.42,2.72,2.72,0,0,1-2.07-.83,3,3,0,0,1-.79-2.17,3.33,3.33,0,0,1,.85-2.38,3,3,0,0,1,2.27-.9,3.16,3.16,0,0,1,1.39.29v1a2.44,2.44,0,0,0-1.43-.47,1.93,1.93,0,0,0-1.51.66,2.5,2.5,0,0,0-.59,1.73,2.38,2.38,0,0,0,.55,1.66,1.91,1.91,0,0,0,1.49.61,2.41,2.41,0,0,0,1.48-.52Z" fill="#2b3033"/><path d="M192.45,130.24h-4.24a2.24,2.24,0,0,0,.54,1.55,1.86,1.86,0,0,0,1.42.54,3,3,0,0,0,1.86-.67v.9a3.48,3.48,0,0,1-2.09.57,2.54,2.54,0,0,1-2-.82,3.35,3.35,0,0,1-.73-2.3,3.28,3.28,0,0,1,.79-2.28,2.55,2.55,0,0,1,2-.88,2.26,2.26,0,0,1,1.82.76,3.18,3.18,0,0,1,.64,2.12Zm-1-.81a2,2,0,0,0-.4-1.29,1.37,1.37,0,0,0-1.1-.46,1.55,1.55,0,0,0-1.15.49,2.21,2.21,0,0,0-.59,1.27Z" fill="#2b3033"/><path d="M202.42,133h-1v-3.45a2.6,2.6,0,0,0-.31-1.44,1.17,1.17,0,0,0-1-.45,1.28,1.28,0,0,0-1,.56,2.15,2.15,0,0,0-.43,1.35V133h-1v-3.56q0-1.77-1.37-1.77a1.26,1.26,0,0,0-1,.53,2.19,2.19,0,0,0-.41,1.38V133h-1v-6h1v.95h0a2,2,0,0,1,1.86-1.09,1.73,1.73,0,0,1,1.7,1.24,2.14,2.14,0,0,1,2-1.24q2,0,2,2.44Z" fill="#2b3033"/><path d="M209.06,130.24h-4.24a2.24,2.24,0,0,0,.54,1.55,1.86,1.86,0,0,0,1.42.54,3,3,0,0,0,1.86-.67v.9a3.48,3.48,0,0,1-2.09.57,2.54,2.54,0,0,1-2-.82,3.35,3.35,0,0,1-.73-2.3,3.28,3.28,0,0,1,.79-2.28,2.55,2.55,0,0,1,2-.88,2.26,2.26,0,0,1,1.82.76,3.18,3.18,0,0,1,.64,2.12Zm-1-.81a2,2,0,0,0-.4-1.29,1.37,1.37,0,0,0-1.1-.46,1.55,1.55,0,0,0-1.15.49,2.21,2.21,0,0,0-.59,1.27Z" fill="#2b3033"/><path d="M215.49,133h-1v-3.42q0-1.91-1.39-1.91a1.51,1.51,0,0,0-1.19.54,2,2,0,0,0-.47,1.37V133h-1v-6h1v1h0a2.17,2.17,0,0,1,2-1.14,1.84,1.84,0,0,1,1.51.64,2.83,2.83,0,0,1,.52,1.84Z" fill="#2b3033"/><path d="M220.08,132.94a1.85,1.85,0,0,1-.9.19q-1.58,0-1.58-1.76v-3.55h-1V127h1v-1.46l1-.31V127h1.51v.82h-1.51v3.38a1.4,1.4,0,0,0,.21.86.82.82,0,0,0,.68.26,1,1,0,0,0,.63-.2Z" fill="#2b3033"/><rect x="50.5" y="93.5" width="249" height="102" fill="#fff"/><path d="M299,94V195H51V94H299m1-1H50V196H300V93Z" fill="#4d5359"/><path d="M68.38,112.43a5.62,5.62,0,0,1-2.81.71A3.84,3.84,0,0,1,62.66,112a4.26,4.26,0,0,1-1.11-3.07,4.37,4.37,0,0,1,1.23-3.2,4.2,4.2,0,0,1,3.13-1.25,5.32,5.32,0,0,1,2.3.45V106a4.42,4.42,0,0,0-2.41-.64,3,3,0,0,0-2.31,1,4.06,4.06,0,0,0-.06,5,2.94,2.94,0,0,0,2.27.91,3.51,3.51,0,0,0,1.71-.39v-2.36H65.56v-.89h2.82Z" fill="#2b3033"/><path d="M75,110.24H70.79a2.24,2.24,0,0,0,.54,1.55,1.86,1.86,0,0,0,1.42.54,3,3,0,0,0,1.86-.67v.9a3.48,3.48,0,0,1-2.09.57,2.54,2.54,0,0,1-2-.82,3.35,3.35,0,0,1-.73-2.3,3.28,3.28,0,0,1,.79-2.28,2.55,2.55,0,0,1,2-.88,2.26,2.26,0,0,1,1.82.76,3.18,3.18,0,0,1,.64,2.12Zm-1-.81a2,2,0,0,0-.4-1.29,1.37,1.37,0,0,0-1.1-.46,1.55,1.55,0,0,0-1.15.49,2.21,2.21,0,0,0-.59,1.27Z" fill="#2b3033"/><path d="M81.46,113h-1v-3.42q0-1.91-1.39-1.91a1.51,1.51,0,0,0-1.19.54,2,2,0,0,0-.47,1.37V113h-1v-6h1v1h0a2.17,2.17,0,0,1,2-1.14,1.84,1.84,0,0,1,1.51.64,2.83,2.83,0,0,1,.52,1.84Z" fill="#2b3033"/><path d="M88.09,110.24H83.86a2.24,2.24,0,0,0,.54,1.55,1.86,1.86,0,0,0,1.42.54,3,3,0,0,0,1.86-.67v.9a3.48,3.48,0,0,1-2.09.57,2.54,2.54,0,0,1-2-.82,3.35,3.35,0,0,1-.73-2.3,3.28,3.28,0,0,1,.79-2.28,2.55,2.55,0,0,1,2-.88,2.26,2.26,0,0,1,1.82.76,3.18,3.18,0,0,1,.64,2.12Zm-1-.81a2,2,0,0,0-.4-1.29,1.37,1.37,0,0,0-1.1-.46,1.55,1.55,0,0,0-1.15.49,2.21,2.21,0,0,0-.59,1.27Z" fill="#2b3033"/><path d="M92.68,108a1.18,1.18,0,0,0-.73-.19,1.23,1.23,0,0,0-1,.58,2.68,2.68,0,0,0-.41,1.58V113h-1v-6h1v1.24h0a2.1,2.1,0,0,1,.63-1,1.43,1.43,0,0,1,.94-.35,1.57,1.57,0,0,1,.57.08Z" fill="#2b3033"/><path d="M98,113h-1v-.94h0a2,2,0,0,1-1.85,1.08,2,2,0,0,1-1.4-.47,1.64,1.64,0,0,1-.51-1.26q0-1.68,2-2l1.8-.25q0-1.53-1.24-1.53a3,3,0,0,0-2,.74v-1a3.72,3.72,0,0,1,2-.56q2.12,0,2.12,2.24Zm-1-3-1.45.2a2.35,2.35,0,0,0-1,.33,1,1,0,0,0-.34.84.92.92,0,0,0,.31.72,1.21,1.21,0,0,0,.83.28,1.54,1.54,0,0,0,1.18-.5,1.79,1.79,0,0,0,.47-1.27Z" fill="#2b3033"/><path d="M102.61,112.94a1.85,1.85,0,0,1-.9.19q-1.58,0-1.58-1.76v-3.55h-1V107h1v-1.46l1-.31V107h1.51v.82H101.1v3.38a1.4,1.4,0,0,0,.21.86.82.82,0,0,0,.68.26,1,1,0,0,0,.63-.2Z" fill="#2b3033"/><path d="M108.62,110.24h-4.24a2.24,2.24,0,0,0,.54,1.55,1.86,1.86,0,0,0,1.42.54,3,3,0,0,0,1.86-.67v.9a3.48,3.48,0,0,1-2.09.57,2.54,2.54,0,0,1-2-.82,3.35,3.35,0,0,1-.73-2.3,3.28,3.28,0,0,1,.79-2.28,2.55,2.55,0,0,1,2-.88,2.26,2.26,0,0,1,1.82.76,3.18,3.18,0,0,1,.64,2.12Zm-1-.81a2,2,0,0,0-.4-1.29,1.37,1.37,0,0,0-1.1-.46,1.55,1.55,0,0,0-1.15.49,2.21,2.21,0,0,0-.59,1.27Z" fill="#2b3033"/><path d="M117.65,113h-1v-.94h0a2,2,0,0,1-1.85,1.08,2,2,0,0,1-1.4-.47,1.64,1.64,0,0,1-.51-1.26q0-1.68,2-2l1.8-.25q0-1.53-1.24-1.53a3,3,0,0,0-2,.74v-1a3.72,3.72,0,0,1,2-.56q2.12,0,2.12,2.24Zm-1-3-1.45.2a2.35,2.35,0,0,0-1,.33,1,1,0,0,0-.34.84.92.92,0,0,0,.31.72,1.21,1.21,0,0,0,.83.28,1.54,1.54,0,0,0,1.18-.5,1.79,1.79,0,0,0,.47-1.27Z" fill="#2b3033"/><path d="M127.87,113h-1v-1h0a2.22,2.22,0,0,1-2.06,1.16,2.24,2.24,0,0,1-1.81-.81,3.31,3.31,0,0,1-.68-2.19,3.6,3.6,0,0,1,.75-2.38,2.47,2.47,0,0,1,2-.9,1.92,1.92,0,0,1,1.8,1h0v-3.71h1Zm-1-2.71v-.88a1.72,1.72,0,0,0-.48-1.23,1.61,1.61,0,0,0-1.22-.5,1.66,1.66,0,0,0-1.38.64,2.82,2.82,0,0,0-.5,1.78,2.54,2.54,0,0,0,.48,1.64,1.58,1.58,0,0,0,1.3.6,1.64,1.64,0,0,0,1.3-.58A2.16,2.16,0,0,0,126.91,110.29Z" fill="#2b3033"/><path d="M130.31,105.48a.61.61,0,0,1-.44-.18.59.59,0,0,1-.18-.45.62.62,0,0,1,.62-.63.62.62,0,0,1,.45.18.63.63,0,0,1,0,.89A.62.62,0,0,1,130.31,105.48Zm.47,7.52h-1v-6h1Z" fill="#2b3033"/><path d="M136.81,112.72a3.12,3.12,0,0,1-1.64.42,2.72,2.72,0,0,1-2.07-.83,3,3,0,0,1-.79-2.17,3.33,3.33,0,0,1,.85-2.38,3,3,0,0,1,2.27-.9,3.16,3.16,0,0,1,1.39.29v1a2.44,2.44,0,0,0-1.43-.47,1.93,1.93,0,0,0-1.51.66,2.5,2.5,0,0,0-.59,1.73,2.38,2.38,0,0,0,.55,1.66,1.91,1.91,0,0,0,1.49.61,2.41,2.41,0,0,0,1.48-.52Z" fill="#2b3033"/><path d="M141.05,112.94a1.85,1.85,0,0,1-.9.19q-1.58,0-1.58-1.76v-3.55h-1V107h1v-1.46l1-.31V107h1.51v.82h-1.51v3.38a1.4,1.4,0,0,0,.21.86.82.82,0,0,0,.68.26,1,1,0,0,0,.63-.2Z" fill="#2b3033"/><path d="M142.83,105.48a.61.61,0,0,1-.44-.18.59.59,0,0,1-.18-.45.62.62,0,0,1,.62-.63.62.62,0,0,1,.45.18.63.63,0,0,1,0,.89A.62.62,0,0,1,142.83,105.48Zm.47,7.52h-1v-6h1Z" fill="#2b3033"/><path d="M147.75,113.14a2.78,2.78,0,0,1-2.12-.84,3.11,3.11,0,0,1-.79-2.23,3.24,3.24,0,0,1,.83-2.36,3,3,0,0,1,2.23-.85,2.69,2.69,0,0,1,2.09.83,3.28,3.28,0,0,1,.75,2.29,3.22,3.22,0,0,1-.81,2.3A2.84,2.84,0,0,1,147.75,113.14Zm.07-5.47a1.83,1.83,0,0,0-1.46.63,2.59,2.59,0,0,0-.54,1.74,2.45,2.45,0,0,0,.54,1.68,1.85,1.85,0,0,0,1.46.62,1.76,1.76,0,0,0,1.43-.6,2.62,2.62,0,0,0,.5-1.72,2.66,2.66,0,0,0-.5-1.73A1.75,1.75,0,0,0,147.82,107.67Z" fill="#2b3033"/><path d="M157.25,113h-1v-3.42q0-1.91-1.39-1.91a1.51,1.51,0,0,0-1.19.54,2,2,0,0,0-.47,1.37V113h-1v-6h1v1h0a2.17,2.17,0,0,1,2-1.14,1.84,1.84,0,0,1,1.51.64,2.83,2.83,0,0,1,.52,1.84Z" fill="#2b3033"/><path d="M163.36,113h-1v-.94h0a2,2,0,0,1-1.85,1.08,2,2,0,0,1-1.4-.47,1.64,1.64,0,0,1-.51-1.26q0-1.68,2-2l1.8-.25q0-1.53-1.24-1.53a3,3,0,0,0-2,.74v-1a3.72,3.72,0,0,1,2-.56q2.12,0,2.12,2.24Zm-1-3-1.45.2a2.35,2.35,0,0,0-1,.33,1,1,0,0,0-.34.84.92.92,0,0,0,.31.72,1.21,1.21,0,0,0,.83.28,1.54,1.54,0,0,0,1.18-.5,1.79,1.79,0,0,0,.47-1.27Z" fill="#2b3033"/><path d="M168.3,108a1.18,1.18,0,0,0-.73-.19,1.23,1.23,0,0,0-1,.58,2.68,2.68,0,0,0-.41,1.58V113h-1v-6h1v1.24h0a2.1,2.1,0,0,1,.63-1,1.43,1.43,0,0,1,.94-.35,1.57,1.57,0,0,1,.57.08Z" fill="#2b3033"/><path d="M174.6,107l-2.76,7q-.74,1.86-2.07,1.86a2.2,2.2,0,0,1-.63-.08v-.86a1.78,1.78,0,0,0,.57.11,1.18,1.18,0,0,0,1.09-.87l.48-1.14-2.34-6H170l1.62,4.62q0,.09.12.46h0q0-.14.12-.45L173.6,107Z" fill="#2b3033"/><path d="M184.84,113h-1.2l-1.93-3.22a2.88,2.88,0,0,1-.19-.42h0l-.2.42-2,3.22h-1.21l2.81-4.22-2.59-4.18h1.21l1.72,3a5.92,5.92,0,0,1,.3.59h0a6.47,6.47,0,0,1,.33-.61l1.79-2.93h1.13l-2.64,4.17Z" fill="#2b3033"/><path d="M194.69,113h-1v-5.64q0-.67.08-1.63h0a5.23,5.23,0,0,1-.25.81L190.64,113h-.48l-2.87-6.41a5,5,0,0,1-.25-.86h0q0,.5,0,1.65V113h-.95v-8.4h1.3l2.58,5.86a7.5,7.5,0,0,1,.39,1h0q.25-.69.4-1l2.63-5.84h1.23Z" fill="#2b3033"/><path d="M201.26,113H196.9v-8.4h1v7.51h3.38Z" fill="#2b3033"/><path d="M208.67,105a1.28,1.28,0,0,0-.64-.16q-1,0-1,1.27V107h1.41v.82H207V113h-1v-5.18h-1V107h1v-1a2,2,0,0,1,.54-1.49A1.84,1.84,0,0,1,208,104a1.88,1.88,0,0,1,.7.11Z" fill="#2b3033"/><path d="M210,105.48a.61.61,0,0,1-.44-.18.59.59,0,0,1-.18-.45.62.62,0,0,1,.62-.63.62.62,0,0,1,.45.18.63.63,0,0,1,0,.89A.62.62,0,0,1,210,105.48Zm.47,7.52h-1v-6h1Z" fill="#2b3033"/><path d="M213.33,113h-1v-8.88h1Z" fill="#2b3033"/><path d="M220.09,110.24h-4.24a2.24,2.24,0,0,0,.54,1.55,1.86,1.86,0,0,0,1.42.54,3,3,0,0,0,1.86-.67v.9a3.48,3.48,0,0,1-2.09.57,2.54,2.54,0,0,1-2-.82,3.35,3.35,0,0,1-.73-2.3,3.28,3.28,0,0,1,.79-2.28,2.55,2.55,0,0,1,2-.88,2.26,2.26,0,0,1,1.82.76,3.18,3.18,0,0,1,.64,2.12Zm-1-.81a2,2,0,0,0-.4-1.29,1.37,1.37,0,0,0-1.1-.46,1.55,1.55,0,0,0-1.15.49,2.21,2.21,0,0,0-.59,1.27Z" fill="#2b3033"/><path d="M228.92,112.72a3.12,3.12,0,0,1-1.64.42,2.72,2.72,0,0,1-2.07-.83,3,3,0,0,1-.79-2.17,3.33,3.33,0,0,1,.85-2.38,3,3,0,0,1,2.27-.9,3.16,3.16,0,0,1,1.39.29v1a2.44,2.44,0,0,0-1.43-.47,1.93,1.93,0,0,0-1.51.66,2.5,2.5,0,0,0-.59,1.73,2.38,2.38,0,0,0,.55,1.66,1.91,1.91,0,0,0,1.49.61,2.41,2.41,0,0,0,1.48-.52Z" fill="#2b3033"/><path d="M232.88,113.14a2.78,2.78,0,0,1-2.12-.84,3.11,3.11,0,0,1-.79-2.23,3.24,3.24,0,0,1,.83-2.36,3,3,0,0,1,2.23-.85,2.69,2.69,0,0,1,2.09.83,3.28,3.28,0,0,1,.75,2.29,3.22,3.22,0,0,1-.81,2.3A2.84,2.84,0,0,1,232.88,113.14Zm.07-5.47a1.83,1.83,0,0,0-1.46.63A2.59,2.59,0,0,0,231,110a2.45,2.45,0,0,0,.54,1.68,1.85,1.85,0,0,0,1.46.62,1.76,1.76,0,0,0,1.43-.6,2.62,2.62,0,0,0,.5-1.72,2.66,2.66,0,0,0-.5-1.73A1.75,1.75,0,0,0,233,107.67Z" fill="#2b3033"/><path d="M242.39,113h-1v-3.42q0-1.91-1.39-1.91a1.51,1.51,0,0,0-1.19.54,2,2,0,0,0-.47,1.37V113h-1v-6h1v1h0a2.17,2.17,0,0,1,2-1.14,1.84,1.84,0,0,1,1.51.64,2.83,2.83,0,0,1,.52,1.84Z" fill="#2b3033"/><path d="M247,112.94a1.85,1.85,0,0,1-.9.19q-1.58,0-1.58-1.76v-3.55h-1V107h1v-1.46l1-.31V107H247v.82h-1.51v3.38a1.4,1.4,0,0,0,.21.86.82.82,0,0,0,.68.26,1,1,0,0,0,.63-.2Z" fill="#2b3033"/><path d="M252.56,113h-1v-.94h0a2,2,0,0,1-1.85,1.08,2,2,0,0,1-1.4-.47,1.64,1.64,0,0,1-.51-1.26q0-1.68,2-2l1.8-.25q0-1.53-1.24-1.53a3,3,0,0,0-2,.74v-1a3.72,3.72,0,0,1,2-.56q2.12,0,2.12,2.24Zm-1-3-1.45.2a2.35,2.35,0,0,0-1,.33,1,1,0,0,0-.34.84.92.92,0,0,0,.31.72,1.21,1.21,0,0,0,.83.28,1.54,1.54,0,0,0,1.18-.5,1.79,1.79,0,0,0,.47-1.27Z" fill="#2b3033"/><path d="M254.86,105.48a.61.61,0,0,1-.44-.18.59.59,0,0,1-.18-.45.62.62,0,0,1,.62-.63.62.62,0,0,1,.45.18.63.63,0,0,1,0,.89A.62.62,0,0,1,254.86,105.48Zm.47,7.52h-1v-6h1Z" fill="#2b3033"/><path d="M262.26,113h-1v-3.42q0-1.91-1.39-1.91a1.51,1.51,0,0,0-1.19.54,2,2,0,0,0-.47,1.37V113h-1v-6h1v1h0a2.17,2.17,0,0,1,2-1.14,1.84,1.84,0,0,1,1.51.64,2.83,2.83,0,0,1,.52,1.84Z" fill="#2b3033"/><path d="M264.56,105.48a.61.61,0,0,1-.44-.18.59.59,0,0,1-.18-.45.62.62,0,0,1,.62-.63.62.62,0,0,1,.45.18.63.63,0,0,1,0,.89A.62.62,0,0,1,264.56,105.48ZM265,113h-1v-6h1Z" fill="#2b3033"/><path d="M272,113h-1v-3.42q0-1.91-1.39-1.91a1.51,1.51,0,0,0-1.19.54,2,2,0,0,0-.47,1.37V113h-1v-6h1v1h0a2.17,2.17,0,0,1,2-1.14,1.84,1.84,0,0,1,1.51.64,2.83,2.83,0,0,1,.52,1.84Z" fill="#2b3033"/><path d="M278.89,112.52q0,3.3-3.16,3.3a4.25,4.25,0,0,1-1.95-.42v-1a4,4,0,0,0,1.93.56q2.21,0,2.21-2.36V112h0a2.43,2.43,0,0,1-3.86.35,3.2,3.2,0,0,1-.68-2.15,3.74,3.74,0,0,1,.74-2.43,2.46,2.46,0,0,1,2-.9,2,2,0,0,1,1.8,1h0V107h1Zm-1-2.23v-.88a1.72,1.72,0,0,0-.48-1.22,1.59,1.59,0,0,0-1.2-.51,1.67,1.67,0,0,0-1.39.65,2.89,2.89,0,0,0-.5,1.81,2.48,2.48,0,0,0,.48,1.6,1.56,1.56,0,0,0,1.28.6,1.67,1.67,0,0,0,1.32-.57A2.14,2.14,0,0,0,277.93,110.29Z" fill="#2b3033"/><path d="M66.79,128.24H62.56a2.24,2.24,0,0,0,.54,1.55,1.86,1.86,0,0,0,1.42.54,3,3,0,0,0,1.86-.67v.9a3.48,3.48,0,0,1-2.09.57,2.54,2.54,0,0,1-2-.82,3.35,3.35,0,0,1-.73-2.3,3.28,3.28,0,0,1,.79-2.28,2.55,2.55,0,0,1,2-.88,2.26,2.26,0,0,1,1.82.76,3.18,3.18,0,0,1,.64,2.12Zm-1-.81a2,2,0,0,0-.4-1.29,1.37,1.37,0,0,0-1.1-.46,1.55,1.55,0,0,0-1.15.49,2.21,2.21,0,0,0-.59,1.27Z" fill="#2b3033"/><path d="M73.23,131h-1v-3.42q0-1.91-1.39-1.91a1.51,1.51,0,0,0-1.19.54,2,2,0,0,0-.47,1.37V131h-1v-6h1v1h0a2.17,2.17,0,0,1,2-1.14,1.84,1.84,0,0,1,1.51.64,2.83,2.83,0,0,1,.52,1.84Z" fill="#2b3033"/><path d="M77.82,130.94a1.85,1.85,0,0,1-.9.19q-1.58,0-1.58-1.76v-3.55h-1V125h1v-1.46l1-.31V125h1.51v.82H76.31v3.38a1.4,1.4,0,0,0,.21.86.82.82,0,0,0,.68.26,1,1,0,0,0,.63-.2Z" fill="#2b3033"/><path d="M82.23,126a1.18,1.18,0,0,0-.73-.19,1.23,1.23,0,0,0-1,.58,2.68,2.68,0,0,0-.41,1.58V131h-1v-6h1v1.24h0a2.1,2.1,0,0,1,.63-1,1.43,1.43,0,0,1,.94-.35,1.57,1.57,0,0,1,.57.08Z" fill="#2b3033"/><path d="M83.77,123.48a.61.61,0,0,1-.44-.18.59.59,0,0,1-.18-.45.62.62,0,0,1,.62-.63.62.62,0,0,1,.45.18.63.63,0,0,1,0,.89A.62.62,0,0,1,83.77,123.48Zm.47,7.52h-1v-6h1Z" fill="#2b3033"/><path d="M91,128.24H86.77a2.24,2.24,0,0,0,.54,1.55,1.86,1.86,0,0,0,1.42.54,3,3,0,0,0,1.86-.67v.9a3.48,3.48,0,0,1-2.09.57,2.54,2.54,0,0,1-2-.82,3.35,3.35,0,0,1-.73-2.3,3.28,3.28,0,0,1,.79-2.28,2.55,2.55,0,0,1,2-.88,2.26,2.26,0,0,1,1.82.76,3.18,3.18,0,0,1,.64,2.12Zm-1-.81a2,2,0,0,0-.4-1.29,1.37,1.37,0,0,0-1.1-.46,1.55,1.55,0,0,0-1.15.49,2.21,2.21,0,0,0-.59,1.27Z" fill="#2b3033"/><path d="M92.1,130.78v-1a2.84,2.84,0,0,0,1.73.58q1.27,0,1.27-.84a.73.73,0,0,0-.11-.41,1.08,1.08,0,0,0-.29-.3,2.26,2.26,0,0,0-.43-.23l-.54-.21A6.9,6.9,0,0,1,93,128a2.12,2.12,0,0,1-.5-.36,1.35,1.35,0,0,1-.3-.46,1.63,1.63,0,0,1-.1-.6,1.43,1.43,0,0,1,.19-.75,1.71,1.71,0,0,1,.52-.54,2.4,2.4,0,0,1,.74-.33,3.26,3.26,0,0,1,.85-.11,3.44,3.44,0,0,1,1.39.27v1a2.72,2.72,0,0,0-1.52-.43,1.78,1.78,0,0,0-.49.06,1.19,1.19,0,0,0-.37.17.8.8,0,0,0-.24.27.7.7,0,0,0-.08.34.82.82,0,0,0,.08.39.86.86,0,0,0,.25.28,1.9,1.9,0,0,0,.4.22l.53.22a7.42,7.42,0,0,1,.71.31,2.45,2.45,0,0,1,.54.36,1.42,1.42,0,0,1,.34.47,1.5,1.5,0,0,1,.12.63,1.48,1.48,0,0,1-.2.77,1.68,1.68,0,0,1-.52.54,2.4,2.4,0,0,1-.76.32,3.73,3.73,0,0,1-.9.11A3.4,3.4,0,0,1,92.1,130.78Z" fill="#2b3033"/><path d="M103.8,123a1.28,1.28,0,0,0-.64-.16q-1,0-1,1.27V125h1.41v.82h-1.41V131h-1v-5.18h-1V125h1v-1a2,2,0,0,1,.54-1.49,1.84,1.84,0,0,1,1.36-.55,1.88,1.88,0,0,1,.7.11Z" fill="#2b3033"/><path d="M107.1,131.14a2.78,2.78,0,0,1-2.12-.84,3.11,3.11,0,0,1-.79-2.23,3.24,3.24,0,0,1,.83-2.36,3,3,0,0,1,2.23-.85,2.69,2.69,0,0,1,2.09.83,3.28,3.28,0,0,1,.75,2.29,3.22,3.22,0,0,1-.81,2.3A2.84,2.84,0,0,1,107.1,131.14Zm.07-5.47a1.83,1.83,0,0,0-1.46.63,2.59,2.59,0,0,0-.54,1.74,2.45,2.45,0,0,0,.54,1.68,1.85,1.85,0,0,0,1.46.62,1.76,1.76,0,0,0,1.43-.6,2.62,2.62,0,0,0,.5-1.72,2.66,2.66,0,0,0-.5-1.73A1.75,1.75,0,0,0,107.17,125.67Z" fill="#2b3033"/><path d="M114.75,126a1.18,1.18,0,0,0-.73-.19,1.23,1.23,0,0,0-1,.58,2.68,2.68,0,0,0-.41,1.58V131h-1v-6h1v1.24h0a2.1,2.1,0,0,1,.63-1,1.43,1.43,0,0,1,.94-.35,1.57,1.57,0,0,1,.57.08Z" fill="#2b3033"/><path d="M123.38,131h-1v-.94h0a2,2,0,0,1-1.85,1.08,2,2,0,0,1-1.4-.47,1.64,1.64,0,0,1-.51-1.26q0-1.68,2-2l1.8-.25q0-1.53-1.24-1.53a3,3,0,0,0-2,.74v-1a3.72,3.72,0,0,1,2-.56q2.12,0,2.12,2.24Zm-1-3-1.45.2a2.35,2.35,0,0,0-1,.33,1,1,0,0,0-.34.84.92.92,0,0,0,.31.72,1.21,1.21,0,0,0,.83.28,1.54,1.54,0,0,0,1.18-.5,1.79,1.79,0,0,0,.47-1.27Z" fill="#2b3033"/><path d="M126.15,131h-1v-8.88h1Z" fill="#2b3033"/><path d="M129.06,131h-1v-8.88h1Z" fill="#2b3033"/><path d="M135.27,130.13h0v3.63h-1V125h1v1.05h0a2.27,2.27,0,0,1,2.07-1.2,2.2,2.2,0,0,1,1.81.81,3.34,3.34,0,0,1,.65,2.16,3.72,3.72,0,0,1-.73,2.41,2.44,2.44,0,0,1-2,.91A2,2,0,0,1,135.27,130.13Zm0-2.42v.84a1.78,1.78,0,0,0,.48,1.26,1.72,1.72,0,0,0,2.6-.15,3.06,3.06,0,0,0,.5-1.86,2.42,2.42,0,0,0-.46-1.57,1.53,1.53,0,0,0-1.25-.57,1.7,1.7,0,0,0-1.35.58A2.14,2.14,0,0,0,135.25,127.71Z" fill="#2b3033"/><path d="M145.48,131h-1v-.94h0a2,2,0,0,1-1.85,1.08,2,2,0,0,1-1.4-.47,1.64,1.64,0,0,1-.51-1.26q0-1.68,2-2l1.8-.25q0-1.53-1.24-1.53a3,3,0,0,0-2,.74v-1a3.72,3.72,0,0,1,2-.56q2.12,0,2.12,2.24Zm-1-3-1.45.2a2.35,2.35,0,0,0-1,.33,1,1,0,0,0-.34.84.92.92,0,0,0,.31.72,1.21,1.21,0,0,0,.83.28,1.54,1.54,0,0,0,1.18-.5,1.79,1.79,0,0,0,.47-1.27Z" fill="#2b3033"/><path d="M152.27,131h-1v-3.42q0-1.91-1.39-1.91a1.51,1.51,0,0,0-1.19.54,2,2,0,0,0-.47,1.37V131h-1v-6h1v1h0a2.17,2.17,0,0,1,2-1.14,1.84,1.84,0,0,1,1.51.64,2.83,2.83,0,0,1,.52,1.84Z" fill="#2b3033"/><path d="M158.9,128.24h-4.24a2.24,2.24,0,0,0,.54,1.55,1.86,1.86,0,0,0,1.42.54,3,3,0,0,0,1.86-.67v.9a3.48,3.48,0,0,1-2.09.57,2.54,2.54,0,0,1-2-.82,3.35,3.35,0,0,1-.73-2.3,3.28,3.28,0,0,1,.79-2.28,2.55,2.55,0,0,1,2-.88,2.26,2.26,0,0,1,1.82.76,3.18,3.18,0,0,1,.64,2.12Zm-1-.81a2,2,0,0,0-.4-1.29,1.37,1.37,0,0,0-1.1-.46,1.55,1.55,0,0,0-1.15.49,2.21,2.21,0,0,0-.59,1.27Z" fill="#2b3033"/><path d="M161.32,131h-1v-8.88h1Z" fill="#2b3033"/><path d="M170.85,131h-1v-.94h0a2,2,0,0,1-1.85,1.08,2,2,0,0,1-1.4-.47,1.64,1.64,0,0,1-.51-1.26q0-1.68,2-2l1.8-.25q0-1.53-1.24-1.53a3,3,0,0,0-2,.74v-1a3.72,3.72,0,0,1,2-.56q2.12,0,2.12,2.24Zm-1-3-1.45.2a2.35,2.35,0,0,0-1,.33,1,1,0,0,0-.34.84.92.92,0,0,0,.31.72,1.21,1.21,0,0,0,.83.28,1.54,1.54,0,0,0,1.18-.5,1.79,1.79,0,0,0,.47-1.27Z" fill="#2b3033"/><path d="M177.64,131h-1v-3.42q0-1.91-1.39-1.91a1.51,1.51,0,0,0-1.19.54,2,2,0,0,0-.47,1.37V131h-1v-6h1v1h0a2.17,2.17,0,0,1,2-1.14,1.84,1.84,0,0,1,1.51.64,2.83,2.83,0,0,1,.52,1.84Z" fill="#2b3033"/><path d="M184.57,131h-1v-1h0a2.22,2.22,0,0,1-2.06,1.16,2.24,2.24,0,0,1-1.81-.81,3.31,3.31,0,0,1-.68-2.19,3.6,3.6,0,0,1,.75-2.38,2.47,2.47,0,0,1,2-.9,1.92,1.92,0,0,1,1.8,1h0v-3.71h1Zm-1-2.71v-.88a1.72,1.72,0,0,0-.48-1.23,1.61,1.61,0,0,0-1.22-.5,1.66,1.66,0,0,0-1.38.64,2.82,2.82,0,0,0-.5,1.78,2.54,2.54,0,0,0,.48,1.64,1.58,1.58,0,0,0,1.3.6,1.64,1.64,0,0,0,1.3-.58A2.16,2.16,0,0,0,183.61,128.29Z" fill="#2b3033"/><path d="M194.92,131h-1v-1h0a2.22,2.22,0,0,1-2.06,1.16,2.24,2.24,0,0,1-1.81-.81,3.31,3.31,0,0,1-.68-2.19,3.6,3.6,0,0,1,.75-2.38,2.47,2.47,0,0,1,2-.9,1.92,1.92,0,0,1,1.8,1h0v-3.71h1Zm-1-2.71v-.88a1.72,1.72,0,0,0-.48-1.23,1.61,1.61,0,0,0-1.22-.5,1.66,1.66,0,0,0-1.38.64,2.82,2.82,0,0,0-.5,1.78,2.54,2.54,0,0,0,.48,1.64,1.58,1.58,0,0,0,1.3.6,1.64,1.64,0,0,0,1.3-.58A2.16,2.16,0,0,0,194,128.29Z" fill="#2b3033"/><path d="M197.36,123.48a.61.61,0,0,1-.44-.18.59.59,0,0,1-.18-.45.62.62,0,0,1,.62-.63.62.62,0,0,1,.45.18.63.63,0,0,1,0,.89A.62.62,0,0,1,197.36,123.48Zm.47,7.52h-1v-6h1Z" fill="#2b3033"/><path d="M204.07,131h-1v-.94h0a2,2,0,0,1-1.85,1.08,2,2,0,0,1-1.4-.47,1.64,1.64,0,0,1-.51-1.26q0-1.68,2-2l1.8-.25q0-1.53-1.24-1.53a3,3,0,0,0-2,.74v-1a3.72,3.72,0,0,1,2-.56q2.12,0,2.12,2.24Zm-1-3-1.45.2a2.35,2.35,0,0,0-1,.33,1,1,0,0,0-.34.84.92.92,0,0,0,.31.72,1.21,1.21,0,0,0,.83.28,1.54,1.54,0,0,0,1.18-.5,1.79,1.79,0,0,0,.47-1.27Z" fill="#2b3033"/><path d="M211,130.52q0,3.3-3.16,3.3a4.25,4.25,0,0,1-1.95-.42v-1a4,4,0,0,0,1.93.56q2.21,0,2.21-2.36V130h0a2.43,2.43,0,0,1-3.86.35,3.2,3.2,0,0,1-.68-2.15,3.74,3.74,0,0,1,.74-2.43,2.46,2.46,0,0,1,2-.9,2,2,0,0,1,1.8,1h0V125h1Zm-1-2.23v-.88a1.72,1.72,0,0,0-.48-1.22,1.59,1.59,0,0,0-1.2-.51,1.67,1.67,0,0,0-1.39.65,2.89,2.89,0,0,0-.5,1.81,2.48,2.48,0,0,0,.48,1.6,1.56,1.56,0,0,0,1.28.6,1.67,1.67,0,0,0,1.32-.57A2.14,2.14,0,0,0,210,128.29Z" fill="#2b3033"/><path d="M216.07,126a1.18,1.18,0,0,0-.73-.19,1.23,1.23,0,0,0-1,.58,2.68,2.68,0,0,0-.41,1.58V131h-1v-6h1v1.24h0a2.1,2.1,0,0,1,.63-1,1.43,1.43,0,0,1,.94-.35,1.57,1.57,0,0,1,.57.08Z" fill="#2b3033"/><path d="M221.41,131h-1v-.94h0a2,2,0,0,1-1.85,1.08,2,2,0,0,1-1.4-.47,1.64,1.64,0,0,1-.51-1.26q0-1.68,2-2l1.8-.25q0-1.53-1.24-1.53a3,3,0,0,0-2,.74v-1a3.72,3.72,0,0,1,2-.56q2.12,0,2.12,2.24Zm-1-3-1.45.2a2.35,2.35,0,0,0-1,.33,1,1,0,0,0-.34.84.92.92,0,0,0,.31.72,1.21,1.21,0,0,0,.83.28,1.54,1.54,0,0,0,1.18-.5,1.79,1.79,0,0,0,.47-1.27Z" fill="#2b3033"/><path d="M231.74,131h-1v-3.45a2.6,2.6,0,0,0-.31-1.44,1.17,1.17,0,0,0-1-.45,1.28,1.28,0,0,0-1,.56,2.15,2.15,0,0,0-.43,1.35V131h-1v-3.56q0-1.77-1.37-1.77a1.26,1.26,0,0,0-1,.53,2.19,2.19,0,0,0-.41,1.38V131h-1v-6h1v.95h0a2,2,0,0,1,1.86-1.09,1.73,1.73,0,0,1,1.7,1.24,2.14,2.14,0,0,1,2-1.24q2,0,2,2.44Z" fill="#2b3033"/><path d="M239.35,131.14a2.78,2.78,0,0,1-2.12-.84,3.11,3.11,0,0,1-.79-2.23,3.24,3.24,0,0,1,.83-2.36,3,3,0,0,1,2.23-.85,2.69,2.69,0,0,1,2.09.83,3.28,3.28,0,0,1,.75,2.29,3.22,3.22,0,0,1-.81,2.3A2.84,2.84,0,0,1,239.35,131.14Zm.07-5.47a1.83,1.83,0,0,0-1.46.63,2.59,2.59,0,0,0-.54,1.74,2.45,2.45,0,0,0,.54,1.68,1.85,1.85,0,0,0,1.46.62,1.76,1.76,0,0,0,1.43-.6,2.62,2.62,0,0,0,.5-1.72,2.66,2.66,0,0,0-.5-1.73A1.75,1.75,0,0,0,239.42,125.67Z" fill="#2b3033"/><path d="M244.86,130.13h0V131h-1v-8.88h1v3.94h0a2.27,2.27,0,0,1,2.07-1.2,2.2,2.2,0,0,1,1.81.81,3.33,3.33,0,0,1,.65,2.16,3.72,3.72,0,0,1-.73,2.41,2.44,2.44,0,0,1-2,.91A2,2,0,0,1,244.86,130.13Zm0-2.42v.84a1.78,1.78,0,0,0,.48,1.26,1.72,1.72,0,0,0,2.6-.15,3.06,3.06,0,0,0,.5-1.86,2.42,2.42,0,0,0-.46-1.57,1.53,1.53,0,0,0-1.25-.57,1.7,1.7,0,0,0-1.35.58A2.14,2.14,0,0,0,244.84,127.71Z" fill="#2b3033"/><path d="M251.89,130.75a3.76,3.76,0,0,1-.59,2.28,2,2,0,0,1-1.7.8,1.81,1.81,0,0,1-.8-.19v-.9a1.59,1.59,0,0,0,.82.26q1.31,0,1.31-2.1V125h1Zm-.47-7.27a.61.61,0,0,1-.44-.18.59.59,0,0,1-.18-.45.62.62,0,0,1,.62-.63.62.62,0,0,1,.45.18.63.63,0,0,1,0,.89A.62.62,0,0,1,251.42,123.48Z" fill="#2b3033"/><path d="M258.66,128.24h-4.24a2.24,2.24,0,0,0,.54,1.55,1.86,1.86,0,0,0,1.42.54,3,3,0,0,0,1.86-.67v.9a3.48,3.48,0,0,1-2.09.57,2.54,2.54,0,0,1-2-.82,3.35,3.35,0,0,1-.73-2.3,3.28,3.28,0,0,1,.79-2.28,2.55,2.55,0,0,1,2-.88,2.26,2.26,0,0,1,1.82.76,3.18,3.18,0,0,1,.64,2.12Zm-1-.81a2,2,0,0,0-.4-1.29,1.37,1.37,0,0,0-1.1-.46,1.55,1.55,0,0,0-1.15.49,2.21,2.21,0,0,0-.59,1.27Z" fill="#2b3033"/><path d="M264.2,130.72a3.12,3.12,0,0,1-1.64.42,2.72,2.72,0,0,1-2.07-.83,3,3,0,0,1-.79-2.17,3.33,3.33,0,0,1,.85-2.38,3,3,0,0,1,2.27-.9,3.16,3.16,0,0,1,1.39.29v1a2.44,2.44,0,0,0-1.43-.47,1.93,1.93,0,0,0-1.51.66,2.5,2.5,0,0,0-.59,1.73,2.38,2.38,0,0,0,.55,1.66,1.91,1.91,0,0,0,1.49.61,2.41,2.41,0,0,0,1.48-.52Z" fill="#2b3033"/><path d="M268.44,130.94a1.85,1.85,0,0,1-.9.19q-1.58,0-1.58-1.76v-3.55h-1V125h1v-1.46l1-.31V125h1.51v.82h-1.51v3.38a1.4,1.4,0,0,0,.21.86.82.82,0,0,0,.68.26,1,1,0,0,0,.63-.2Z" fill="#2b3033"/><path d="M62.93,149H62v-8.88h1Z" fill="#2b3033"/><path d="M69.17,149h-1v-.94h0a2,2,0,0,1-1.85,1.08,2,2,0,0,1-1.4-.47,1.64,1.64,0,0,1-.51-1.26q0-1.68,2-2l1.8-.25q0-1.53-1.24-1.53a3,3,0,0,0-2,.74v-1a3.72,3.72,0,0,1,2-.56q2.12,0,2.12,2.24Zm-1-3-1.45.2a2.35,2.35,0,0,0-1,.33,1,1,0,0,0-.34.84.92.92,0,0,0,.31.72,1.21,1.21,0,0,0,.83.28,1.54,1.54,0,0,0,1.18-.5,1.79,1.79,0,0,0,.47-1.27Z" fill="#2b3033"/><path d="M72,148.13h0V149H71v-8.88h1v3.94h0a2.27,2.27,0,0,1,2.07-1.2,2.2,2.2,0,0,1,1.81.81,3.33,3.33,0,0,1,.65,2.16,3.72,3.72,0,0,1-.73,2.41,2.44,2.44,0,0,1-2,.91A2,2,0,0,1,72,148.13Zm0-2.42v.84a1.78,1.78,0,0,0,.48,1.26,1.72,1.72,0,0,0,2.6-.15,3.06,3.06,0,0,0,.5-1.86,2.42,2.42,0,0,0-.46-1.57,1.53,1.53,0,0,0-1.25-.57,1.7,1.7,0,0,0-1.35.58A2.14,2.14,0,0,0,71.95,145.71Z" fill="#2b3033"/><path d="M82.86,146.24H78.63a2.24,2.24,0,0,0,.54,1.55,1.86,1.86,0,0,0,1.42.54,3,3,0,0,0,1.86-.67v.9a3.48,3.48,0,0,1-2.09.57,2.54,2.54,0,0,1-2-.82,3.35,3.35,0,0,1-.73-2.3,3.28,3.28,0,0,1,.79-2.28,2.55,2.55,0,0,1,2-.88,2.26,2.26,0,0,1,1.82.76,3.18,3.18,0,0,1,.64,2.12Zm-1-.81a2,2,0,0,0-.4-1.29,1.37,1.37,0,0,0-1.1-.46,1.55,1.55,0,0,0-1.15.49,2.21,2.21,0,0,0-.59,1.27Z" fill="#2b3033"/><path d="M85.28,149h-1v-8.88h1Z" fill="#2b3033"/><path d="M86.86,148.78v-1a2.84,2.84,0,0,0,1.73.58q1.27,0,1.27-.84a.73.73,0,0,0-.11-.41,1.08,1.08,0,0,0-.29-.3,2.26,2.26,0,0,0-.43-.23l-.54-.21a6.9,6.9,0,0,1-.7-.32,2.12,2.12,0,0,1-.5-.36,1.35,1.35,0,0,1-.3-.46,1.63,1.63,0,0,1-.1-.6,1.43,1.43,0,0,1,.19-.75,1.71,1.71,0,0,1,.52-.54,2.4,2.4,0,0,1,.74-.33,3.26,3.26,0,0,1,.85-.11,3.44,3.44,0,0,1,1.39.27v1a2.72,2.72,0,0,0-1.52-.43,1.78,1.78,0,0,0-.49.06,1.19,1.19,0,0,0-.37.17.8.8,0,0,0-.24.27.7.7,0,0,0-.08.34.82.82,0,0,0,.08.39.86.86,0,0,0,.25.28,1.9,1.9,0,0,0,.4.22l.53.22a7.42,7.42,0,0,1,.71.31,2.45,2.45,0,0,1,.54.36,1.42,1.42,0,0,1,.34.47,1.5,1.5,0,0,1,.12.63,1.48,1.48,0,0,1-.2.77,1.68,1.68,0,0,1-.52.54,2.4,2.4,0,0,1-.76.32,3.73,3.73,0,0,1-.9.11A3.4,3.4,0,0,1,86.86,148.78Z" fill="#2b3033"/><path d="M96.09,141.48a.61.61,0,0,1-.44-.18.59.59,0,0,1-.18-.45.62.62,0,0,1,.62-.63.62.62,0,0,1,.45.18.63.63,0,0,1,0,.89A.62.62,0,0,1,96.09,141.48Zm.47,7.52h-1v-6h1Z" fill="#2b3033"/><path d="M103.49,149h-1v-3.42q0-1.91-1.39-1.91a1.51,1.51,0,0,0-1.19.54,2,2,0,0,0-.47,1.37V149h-1v-6h1v1h0a2.17,2.17,0,0,1,2-1.14,1.84,1.84,0,0,1,1.51.64,2.83,2.83,0,0,1,.52,1.84Z" fill="#2b3033"/><path d="M111.37,148.94a1.85,1.85,0,0,1-.9.19q-1.58,0-1.58-1.76v-3.55h-1V143h1v-1.46l1-.31V143h1.51v.82h-1.51v3.38a1.4,1.4,0,0,0,.21.86.82.82,0,0,0,.68.26,1,1,0,0,0,.63-.2Z" fill="#2b3033"/><path d="M117.63,149h-1v-3.46q0-1.87-1.39-1.87a1.52,1.52,0,0,0-1.18.54,2,2,0,0,0-.48,1.39V149h-1v-8.88h1V144h0a2.18,2.18,0,0,1,2-1.14q2,0,2,2.44Z" fill="#2b3033"/><path d="M124.26,146.24H120a2.24,2.24,0,0,0,.54,1.55,1.86,1.86,0,0,0,1.42.54,3,3,0,0,0,1.86-.67v.9a3.48,3.48,0,0,1-2.09.57,2.54,2.54,0,0,1-2-.82A3.35,3.35,0,0,1,119,146a3.28,3.28,0,0,1,.79-2.28,2.55,2.55,0,0,1,2-.88,2.26,2.26,0,0,1,1.82.76,3.18,3.18,0,0,1,.64,2.12Zm-1-.81a2,2,0,0,0-.4-1.29,1.37,1.37,0,0,0-1.1-.46,1.55,1.55,0,0,0-1.15.49,2.21,2.21,0,0,0-.59,1.27Z" fill="#2b3033"/><path d="M135.38,140.6l-3.11,8.4h-1.08l-3-8.4h1.1l2.33,6.66a4,4,0,0,1,.17.74h0a3.65,3.65,0,0,1,.19-.76l2.37-6.65Z" fill="#2b3033"/><path d="M137.57,149h-1v-8.4h1Z" fill="#2b3033"/><path d="M140,149.13a.62.62,0,0,1-.46-.19.64.64,0,0,1-.19-.46.65.65,0,0,1,.19-.47.62.62,0,0,1,.46-.2.63.63,0,0,1,.47.2.64.64,0,0,1,.19.47.63.63,0,0,1-.19.46A.64.64,0,0,1,140,149.13Z" fill="#2b3033"/><path d="M150.64,141.49h-2.43V149h-1v-7.51h-2.42v-.89h5.83Z" fill="#2b3033"/><path d="M156.81,149h-1v-3.46q0-1.87-1.39-1.87a1.52,1.52,0,0,0-1.18.54,2,2,0,0,0-.48,1.39V149h-1v-8.88h1V144h0a2.18,2.18,0,0,1,2-1.14q2,0,2,2.44Z" fill="#2b3033"/><path d="M163.44,146.24H159.2a2.24,2.24,0,0,0,.54,1.55,1.86,1.86,0,0,0,1.42.54,3,3,0,0,0,1.86-.67v.9a3.48,3.48,0,0,1-2.09.57,2.54,2.54,0,0,1-2-.82,3.35,3.35,0,0,1-.73-2.3,3.28,3.28,0,0,1,.79-2.28,2.55,2.55,0,0,1,2-.88,2.26,2.26,0,0,1,1.82.76,3.18,3.18,0,0,1,.64,2.12Zm-1-.81a2,2,0,0,0-.4-1.29,1.37,1.37,0,0,0-1.1-.46,1.55,1.55,0,0,0-1.15.49,2.21,2.21,0,0,0-.59,1.27Z" fill="#2b3033"/><path d="M169.14,149h-1v-8.88h1Z" fill="#2b3033"/><path d="M175.38,149h-1v-.94h0a2,2,0,0,1-1.85,1.08,2,2,0,0,1-1.4-.47,1.64,1.64,0,0,1-.51-1.26q0-1.68,2-2l1.8-.25q0-1.53-1.24-1.53a3,3,0,0,0-2,.74v-1a3.72,3.72,0,0,1,2-.56q2.12,0,2.12,2.24Zm-1-3-1.45.2a2.35,2.35,0,0,0-1,.33,1,1,0,0,0-.34.84.92.92,0,0,0,.31.72,1.21,1.21,0,0,0,.83.28,1.54,1.54,0,0,0,1.18-.5,1.79,1.79,0,0,0,.47-1.27Z" fill="#2b3033"/><path d="M182.17,149h-1v-3.42q0-1.91-1.39-1.91a1.51,1.51,0,0,0-1.19.54,2,2,0,0,0-.47,1.37V149h-1v-6h1v1h0a2.17,2.17,0,0,1,2-1.14,1.84,1.84,0,0,1,1.51.64,2.83,2.83,0,0,1,.52,1.84Z" fill="#2b3033"/><path d="M189.1,148.52q0,3.3-3.16,3.3a4.25,4.25,0,0,1-1.95-.42v-1a4,4,0,0,0,1.93.56q2.21,0,2.21-2.36V148h0a2.43,2.43,0,0,1-3.86.35,3.2,3.2,0,0,1-.68-2.15,3.74,3.74,0,0,1,.74-2.43,2.46,2.46,0,0,1,2-.9,2,2,0,0,1,1.8,1h0V143h1Zm-1-2.23v-.88a1.72,1.72,0,0,0-.48-1.22,1.59,1.59,0,0,0-1.2-.51,1.67,1.67,0,0,0-1.39.65,2.89,2.89,0,0,0-.5,1.81,2.48,2.48,0,0,0,.48,1.6,1.56,1.56,0,0,0,1.28.6,1.67,1.67,0,0,0,1.32-.57A2.14,2.14,0,0,0,188.14,146.29Z" fill="#2b3033"/><path d="M195.9,149h-1v-.95h0a2,2,0,0,1-1.85,1.09q-2.14,0-2.14-2.55V143h1v3.43q0,1.9,1.45,1.9a1.47,1.47,0,0,0,1.16-.52,2,2,0,0,0,.45-1.36V143h1Z" fill="#2b3033"/><path d="M202.13,149h-1v-.94h0a2,2,0,0,1-1.85,1.08,2,2,0,0,1-1.4-.47,1.64,1.64,0,0,1-.51-1.26q0-1.68,2-2l1.8-.25q0-1.53-1.24-1.53a3,3,0,0,0-2,.74v-1a3.72,3.72,0,0,1,2-.56q2.12,0,2.12,2.24Zm-1-3-1.45.2a2.35,2.35,0,0,0-1,.33,1,1,0,0,0-.34.84.92.92,0,0,0,.31.72,1.21,1.21,0,0,0,.83.28,1.54,1.54,0,0,0,1.18-.5,1.79,1.79,0,0,0,.47-1.27Z" fill="#2b3033"/><path d="M209.07,148.52q0,3.3-3.16,3.3a4.25,4.25,0,0,1-1.95-.42v-1a4,4,0,0,0,1.93.56q2.21,0,2.21-2.36V148h0a2.43,2.43,0,0,1-3.86.35,3.2,3.2,0,0,1-.68-2.15,3.74,3.74,0,0,1,.74-2.43,2.46,2.46,0,0,1,2-.9,2,2,0,0,1,1.8,1h0V143h1Zm-1-2.23v-.88a1.72,1.72,0,0,0-.48-1.22,1.59,1.59,0,0,0-1.2-.51,1.67,1.67,0,0,0-1.39.65,2.89,2.89,0,0,0-.5,1.81,2.48,2.48,0,0,0,.48,1.6,1.56,1.56,0,0,0,1.28.6,1.67,1.67,0,0,0,1.32-.57A2.14,2.14,0,0,0,208.11,146.29Z" fill="#2b3033"/><path d="M215.83,146.24H211.6a2.24,2.24,0,0,0,.54,1.55,1.86,1.86,0,0,0,1.42.54,3,3,0,0,0,1.86-.67v.9a3.48,3.48,0,0,1-2.09.57,2.54,2.54,0,0,1-2-.82,3.35,3.35,0,0,1-.73-2.3,3.28,3.28,0,0,1,.79-2.28,2.55,2.55,0,0,1,2-.88,2.26,2.26,0,0,1,1.82.76,3.18,3.18,0,0,1,.64,2.12Zm-1-.81a2,2,0,0,0-.4-1.29,1.37,1.37,0,0,0-1.1-.46,1.55,1.55,0,0,0-1.15.49,2.21,2.21,0,0,0-.59,1.27Z" fill="#2b3033"/><path d="M223.08,149.14a2.78,2.78,0,0,1-2.12-.84,3.11,3.11,0,0,1-.79-2.23,3.24,3.24,0,0,1,.83-2.36,3,3,0,0,1,2.23-.85,2.69,2.69,0,0,1,2.09.83,3.28,3.28,0,0,1,.75,2.29,3.22,3.22,0,0,1-.81,2.3A2.84,2.84,0,0,1,223.08,149.14Zm.07-5.47a1.83,1.83,0,0,0-1.46.63,2.59,2.59,0,0,0-.54,1.74,2.45,2.45,0,0,0,.54,1.68,1.85,1.85,0,0,0,1.46.62,1.76,1.76,0,0,0,1.43-.6,2.62,2.62,0,0,0,.5-1.72,2.66,2.66,0,0,0-.5-1.73A1.75,1.75,0,0,0,223.15,143.67Z" fill="#2b3033"/><path d="M230.35,141a1.28,1.28,0,0,0-.64-.16q-1,0-1,1.27V143h1.41v.82h-1.41V149h-1v-5.18h-1V143h1v-1a2,2,0,0,1,.54-1.49,1.84,1.84,0,0,1,1.36-.55,1.88,1.88,0,0,1,.7.11Z" fill="#2b3033"/><path d="M239.21,143l-2.76,7q-.74,1.86-2.07,1.86a2.2,2.2,0,0,1-.63-.08v-.86a1.78,1.78,0,0,0,.57.11,1.18,1.18,0,0,0,1.09-.87l.48-1.14-2.34-6h1.07l1.62,4.62q0,.09.12.46h0q0-.14.12-.45l1.71-4.63Z" fill="#2b3033"/><path d="M242.69,149.14a2.78,2.78,0,0,1-2.12-.84,3.11,3.11,0,0,1-.79-2.23,3.24,3.24,0,0,1,.83-2.36,3,3,0,0,1,2.23-.85,2.69,2.69,0,0,1,2.09.83,3.28,3.28,0,0,1,.75,2.29,3.22,3.22,0,0,1-.81,2.3A2.84,2.84,0,0,1,242.69,149.14Zm.07-5.47a1.83,1.83,0,0,0-1.46.63,2.59,2.59,0,0,0-.54,1.74,2.45,2.45,0,0,0,.54,1.68,1.85,1.85,0,0,0,1.46.62,1.76,1.76,0,0,0,1.43-.6,2.62,2.62,0,0,0,.5-1.72,2.66,2.66,0,0,0-.5-1.73A1.75,1.75,0,0,0,242.76,143.67Z" fill="#2b3033"/><path d="M252.06,149h-1v-.95h0a2,2,0,0,1-1.85,1.09q-2.14,0-2.14-2.55V143h1v3.43q0,1.9,1.45,1.9a1.47,1.47,0,0,0,1.16-.52,2,2,0,0,0,.45-1.36V143h1Z" fill="#2b3033"/><path d="M257.13,144a1.18,1.18,0,0,0-.73-.19,1.23,1.23,0,0,0-1,.58,2.68,2.68,0,0,0-.41,1.58V149h-1v-6h1v1.24h0a2.1,2.1,0,0,1,.63-1,1.43,1.43,0,0,1,.94-.35,1.57,1.57,0,0,1,.57.08Z" fill="#2b3033"/><path d="M66.27,167h-1v-.94h0a2,2,0,0,1-1.85,1.08,2,2,0,0,1-1.4-.47,1.64,1.64,0,0,1-.51-1.26q0-1.68,2-2l1.8-.25q0-1.53-1.24-1.53a3,3,0,0,0-2,.74v-1a3.72,3.72,0,0,1,2-.56q2.12,0,2.12,2.24Zm-1-3-1.45.2a2.35,2.35,0,0,0-1,.33,1,1,0,0,0-.34.84.92.92,0,0,0,.31.72,1.21,1.21,0,0,0,.83.28,1.54,1.54,0,0,0,1.18-.5,1.79,1.79,0,0,0,.47-1.27Z" fill="#2b3033"/><path d="M69.06,166.13h0v3.63h-1V161h1v1.05h0a2.27,2.27,0,0,1,2.07-1.2,2.2,2.2,0,0,1,1.81.81,3.34,3.34,0,0,1,.65,2.16,3.72,3.72,0,0,1-.73,2.41,2.44,2.44,0,0,1-2,.91A2,2,0,0,1,69.06,166.13Zm0-2.42v.84a1.78,1.78,0,0,0,.48,1.26,1.72,1.72,0,0,0,2.6-.15,3.06,3.06,0,0,0,.5-1.86,2.42,2.42,0,0,0-.46-1.57,1.53,1.53,0,0,0-1.25-.57,1.7,1.7,0,0,0-1.35.58A2.14,2.14,0,0,0,69,163.71Z" fill="#2b3033"/><path d="M76.12,166.13h0v3.63h-1V161h1v1.05h0a2.27,2.27,0,0,1,2.07-1.2,2.2,2.2,0,0,1,1.81.81,3.34,3.34,0,0,1,.65,2.16,3.72,3.72,0,0,1-.73,2.41,2.44,2.44,0,0,1-2,.91A2,2,0,0,1,76.12,166.13Zm0-2.42v.84a1.78,1.78,0,0,0,.48,1.26,1.72,1.72,0,0,0,2.6-.15,3.06,3.06,0,0,0,.5-1.86,2.42,2.42,0,0,0-.46-1.57,1.53,1.53,0,0,0-1.25-.57,1.7,1.7,0,0,0-1.35.58A2.14,2.14,0,0,0,76.09,163.71Z" fill="#2b3033"/><path d="M83.15,167h-1v-8.88h1Z" fill="#2b3033"/><path d="M85.59,159.48a.61.61,0,0,1-.44-.18.59.59,0,0,1-.18-.45.62.62,0,0,1,.62-.63.62.62,0,0,1,.45.18.63.63,0,0,1,0,.89A.62.62,0,0,1,85.59,159.48Zm.47,7.52h-1v-6h1Z" fill="#2b3033"/><path d="M92.09,166.72a3.12,3.12,0,0,1-1.64.42,2.72,2.72,0,0,1-2.07-.83,3,3,0,0,1-.79-2.17,3.33,3.33,0,0,1,.85-2.38,3,3,0,0,1,2.27-.9,3.16,3.16,0,0,1,1.39.29v1a2.44,2.44,0,0,0-1.43-.47,1.93,1.93,0,0,0-1.51.66,2.5,2.5,0,0,0-.59,1.73,2.38,2.38,0,0,0,.55,1.66,1.91,1.91,0,0,0,1.49.61,2.41,2.41,0,0,0,1.48-.52Z" fill="#2b3033"/><path d="M97.84,167h-1v-.94h0A2,2,0,0,1,95,167.14a2,2,0,0,1-1.4-.47,1.64,1.64,0,0,1-.51-1.26q0-1.68,2-2l1.8-.25q0-1.53-1.24-1.53a3,3,0,0,0-2,.74v-1a3.72,3.72,0,0,1,2-.56q2.12,0,2.12,2.24Zm-1-3-1.45.2a2.35,2.35,0,0,0-1,.33,1,1,0,0,0-.34.84.92.92,0,0,0,.31.72,1.21,1.21,0,0,0,.83.28,1.54,1.54,0,0,0,1.18-.5,1.79,1.79,0,0,0,.47-1.27Z" fill="#2b3033"/><path d="M102.43,166.94a1.85,1.85,0,0,1-.9.19q-1.58,0-1.58-1.76v-3.55h-1V161h1v-1.46l1-.31V161h1.51v.82h-1.51v3.38a1.4,1.4,0,0,0,.21.86.82.82,0,0,0,.68.26,1,1,0,0,0,.63-.2Z" fill="#2b3033"/><path d="M104.21,159.48a.61.61,0,0,1-.44-.18.59.59,0,0,1-.18-.45.62.62,0,0,1,.62-.63.62.62,0,0,1,.45.18.63.63,0,0,1,0,.89A.62.62,0,0,1,104.21,159.48Zm.47,7.52h-1v-6h1Z" fill="#2b3033"/><path d="M109.13,167.14a2.78,2.78,0,0,1-2.12-.84,3.11,3.11,0,0,1-.79-2.23,3.24,3.24,0,0,1,.83-2.36,3,3,0,0,1,2.23-.85,2.69,2.69,0,0,1,2.09.83,3.28,3.28,0,0,1,.75,2.29,3.22,3.22,0,0,1-.81,2.3A2.84,2.84,0,0,1,109.13,167.14Zm.07-5.47a1.83,1.83,0,0,0-1.46.63,2.59,2.59,0,0,0-.54,1.74,2.45,2.45,0,0,0,.54,1.68,1.85,1.85,0,0,0,1.46.62,1.76,1.76,0,0,0,1.43-.6,2.62,2.62,0,0,0,.5-1.72,2.66,2.66,0,0,0-.5-1.73A1.75,1.75,0,0,0,109.2,161.67Z" fill="#2b3033"/><path d="M118.63,167h-1v-3.42q0-1.91-1.39-1.91a1.51,1.51,0,0,0-1.19.54,2,2,0,0,0-.47,1.37V167h-1v-6h1v1h0a2.17,2.17,0,0,1,2-1.14,1.84,1.84,0,0,1,1.51.64,2.83,2.83,0,0,1,.52,1.84Z" fill="#2b3033"/><path d="M128.85,167h-1v-1h0a2.22,2.22,0,0,1-2.06,1.16,2.24,2.24,0,0,1-1.81-.81,3.31,3.31,0,0,1-.68-2.19,3.6,3.6,0,0,1,.75-2.38,2.47,2.47,0,0,1,2-.9,1.92,1.92,0,0,1,1.8,1h0v-3.71h1Zm-1-2.71v-.88a1.72,1.72,0,0,0-.48-1.23,1.61,1.61,0,0,0-1.22-.5,1.66,1.66,0,0,0-1.38.64,2.82,2.82,0,0,0-.5,1.78,2.54,2.54,0,0,0,.48,1.64,1.58,1.58,0,0,0,1.3.6,1.64,1.64,0,0,0,1.3-.58A2.16,2.16,0,0,0,127.89,164.29Z" fill="#2b3033"/><path d="M135.62,164.24h-4.24a2.24,2.24,0,0,0,.54,1.55,1.86,1.86,0,0,0,1.42.54,3,3,0,0,0,1.86-.67v.9a3.48,3.48,0,0,1-2.09.57,2.54,2.54,0,0,1-2-.82,3.35,3.35,0,0,1-.73-2.3,3.28,3.28,0,0,1,.79-2.28,2.55,2.55,0,0,1,2-.88,2.26,2.26,0,0,1,1.82.76,3.18,3.18,0,0,1,.64,2.12Zm-1-.81a2,2,0,0,0-.4-1.29,1.37,1.37,0,0,0-1.1-.46,1.55,1.55,0,0,0-1.15.49,2.21,2.21,0,0,0-.59,1.27Z" fill="#2b3033"/><path d="M139.86,166.94a1.85,1.85,0,0,1-.9.19q-1.58,0-1.58-1.76v-3.55h-1V161h1v-1.46l1-.31V161h1.51v.82h-1.51v3.38a1.4,1.4,0,0,0,.21.86.82.82,0,0,0,.68.26,1,1,0,0,0,.63-.2Z" fill="#2b3033"/><path d="M145.87,164.24h-4.24a2.24,2.24,0,0,0,.54,1.55,1.86,1.86,0,0,0,1.42.54,3,3,0,0,0,1.86-.67v.9a3.48,3.48,0,0,1-2.09.57,2.54,2.54,0,0,1-2-.82,3.35,3.35,0,0,1-.73-2.3,3.28,3.28,0,0,1,.79-2.28,2.55,2.55,0,0,1,2-.88,2.26,2.26,0,0,1,1.82.76,3.18,3.18,0,0,1,.64,2.12Zm-1-.81a2,2,0,0,0-.4-1.29,1.37,1.37,0,0,0-1.1-.46,1.55,1.55,0,0,0-1.15.49,2.21,2.21,0,0,0-.59,1.27Z" fill="#2b3033"/><path d="M150.45,162a1.18,1.18,0,0,0-.73-.19,1.23,1.23,0,0,0-1,.58,2.68,2.68,0,0,0-.41,1.58V167h-1v-6h1v1.24h0a2.1,2.1,0,0,1,.63-1,1.43,1.43,0,0,1,.94-.35,1.57,1.57,0,0,1,.57.08Z" fill="#2b3033"/><path d="M160,167h-1v-3.45a2.6,2.6,0,0,0-.31-1.44,1.17,1.17,0,0,0-1-.45,1.28,1.28,0,0,0-1,.56,2.15,2.15,0,0,0-.43,1.35V167h-1v-3.56q0-1.77-1.37-1.77a1.26,1.26,0,0,0-1,.53,2.19,2.19,0,0,0-.41,1.38V167h-1v-6h1v.95h0a2,2,0,0,1,1.86-1.09,1.73,1.73,0,0,1,1.7,1.24,2.14,2.14,0,0,1,2-1.24q2,0,2,2.44Z" fill="#2b3033"/><path d="M162.3,159.48a.61.61,0,0,1-.44-.18.59.59,0,0,1-.18-.45.62.62,0,0,1,.62-.63.62.62,0,0,1,.45.18.63.63,0,0,1,0,.89A.62.62,0,0,1,162.3,159.48Zm.47,7.52h-1v-6h1Z" fill="#2b3033"/><path d="M169.69,167h-1v-3.42q0-1.91-1.39-1.91a1.51,1.51,0,0,0-1.19.54,2,2,0,0,0-.47,1.37V167h-1v-6h1v1h0a2.17,2.17,0,0,1,2-1.14,1.84,1.84,0,0,1,1.51.64,2.83,2.83,0,0,1,.52,1.84Z" fill="#2b3033"/><path d="M176.32,164.24h-4.24a2.24,2.24,0,0,0,.54,1.55,1.86,1.86,0,0,0,1.42.54,3,3,0,0,0,1.86-.67v.9a3.48,3.48,0,0,1-2.09.57,2.54,2.54,0,0,1-2-.82,3.35,3.35,0,0,1-.73-2.3,3.28,3.28,0,0,1,.79-2.28,2.55,2.55,0,0,1,2-.88,2.26,2.26,0,0,1,1.82.76,3.18,3.18,0,0,1,.64,2.12Zm-1-.81a2,2,0,0,0-.4-1.29,1.37,1.37,0,0,0-1.1-.46,1.55,1.55,0,0,0-1.15.49,2.21,2.21,0,0,0-.59,1.27Z" fill="#2b3033"/><path d="M177.41,166.78v-1a2.84,2.84,0,0,0,1.73.58q1.27,0,1.27-.84a.73.73,0,0,0-.11-.41,1.08,1.08,0,0,0-.29-.3,2.26,2.26,0,0,0-.43-.23l-.54-.21a6.9,6.9,0,0,1-.7-.32,2.12,2.12,0,0,1-.5-.36,1.35,1.35,0,0,1-.3-.46,1.63,1.63,0,0,1-.1-.6,1.43,1.43,0,0,1,.19-.75,1.71,1.71,0,0,1,.52-.54,2.4,2.4,0,0,1,.74-.33,3.26,3.26,0,0,1,.85-.11,3.44,3.44,0,0,1,1.39.27v1a2.72,2.72,0,0,0-1.52-.43,1.78,1.78,0,0,0-.49.06,1.19,1.19,0,0,0-.37.17.8.8,0,0,0-.24.27.7.7,0,0,0-.08.34.82.82,0,0,0,.08.39.86.86,0,0,0,.25.28,1.9,1.9,0,0,0,.4.22l.53.22a7.42,7.42,0,0,1,.71.31,2.45,2.45,0,0,1,.54.36,1.42,1.42,0,0,1,.34.47,1.5,1.5,0,0,1,.12.63,1.48,1.48,0,0,1-.2.77,1.68,1.68,0,0,1-.52.54,2.4,2.4,0,0,1-.76.32,3.73,3.73,0,0,1-.9.11A3.4,3.4,0,0,1,177.41,166.78Z" fill="#2b3033"/><path d="M188.94,166.94a1.85,1.85,0,0,1-.9.19q-1.58,0-1.58-1.76v-3.55h-1V161h1v-1.46l1-.31V161h1.51v.82h-1.51v3.38a1.4,1.4,0,0,0,.21.86.82.82,0,0,0,.68.26,1,1,0,0,0,.63-.2Z" fill="#2b3033"/><path d="M195.2,167h-1v-3.46q0-1.87-1.39-1.87a1.52,1.52,0,0,0-1.18.54,2,2,0,0,0-.48,1.39V167h-1v-8.88h1V162h0a2.18,2.18,0,0,1,2-1.14q2,0,2,2.44Z" fill="#2b3033"/><path d="M201.84,164.24H197.6a2.24,2.24,0,0,0,.54,1.55,1.86,1.86,0,0,0,1.42.54,3,3,0,0,0,1.86-.67v.9a3.48,3.48,0,0,1-2.09.57,2.54,2.54,0,0,1-2-.82,3.35,3.35,0,0,1-.73-2.3,3.28,3.28,0,0,1,.79-2.28,2.55,2.55,0,0,1,2-.88,2.26,2.26,0,0,1,1.82.76,3.18,3.18,0,0,1,.64,2.12Zm-1-.81a2,2,0,0,0-.4-1.29,1.37,1.37,0,0,0-1.1-.46,1.55,1.55,0,0,0-1.15.49,2.21,2.21,0,0,0-.59,1.27Z" fill="#2b3033"/><path d="M207.54,167h-1v-8.88h1Z" fill="#2b3033"/><path d="M213.78,167h-1v-.94h0a2,2,0,0,1-1.85,1.08,2,2,0,0,1-1.4-.47,1.64,1.64,0,0,1-.51-1.26q0-1.68,2-2l1.8-.25q0-1.53-1.24-1.53a3,3,0,0,0-2,.74v-1a3.72,3.72,0,0,1,2-.56q2.12,0,2.12,2.24Zm-1-3-1.45.2a2.35,2.35,0,0,0-1,.33,1,1,0,0,0-.34.84.92.92,0,0,0,.31.72,1.21,1.21,0,0,0,.83.28,1.54,1.54,0,0,0,1.18-.5,1.79,1.79,0,0,0,.47-1.27Z" fill="#2b3033"/><path d="M220.57,167h-1v-3.42q0-1.91-1.39-1.91a1.51,1.51,0,0,0-1.19.54,2,2,0,0,0-.47,1.37V167h-1v-6h1v1h0a2.17,2.17,0,0,1,2-1.14,1.84,1.84,0,0,1,1.51.64,2.83,2.83,0,0,1,.52,1.84Z" fill="#2b3033"/><path d="M227.5,166.52q0,3.3-3.16,3.3a4.25,4.25,0,0,1-1.95-.42v-1a4,4,0,0,0,1.93.56q2.21,0,2.21-2.36V166h0a2.43,2.43,0,0,1-3.86.35,3.2,3.2,0,0,1-.68-2.15,3.74,3.74,0,0,1,.74-2.43,2.46,2.46,0,0,1,2-.9,2,2,0,0,1,1.8,1h0V161h1Zm-1-2.23v-.88a1.72,1.72,0,0,0-.48-1.22,1.59,1.59,0,0,0-1.2-.51,1.67,1.67,0,0,0-1.39.65,2.89,2.89,0,0,0-.5,1.81,2.48,2.48,0,0,0,.48,1.6,1.56,1.56,0,0,0,1.28.6,1.67,1.67,0,0,0,1.32-.57A2.14,2.14,0,0,0,226.54,164.29Z" fill="#2b3033"/><path d="M234.3,167h-1v-.95h0a2,2,0,0,1-1.85,1.09q-2.14,0-2.14-2.55V161h1v3.43q0,1.9,1.45,1.9a1.47,1.47,0,0,0,1.16-.52,2,2,0,0,0,.45-1.36V161h1Z" fill="#2b3033"/><path d="M240.53,167h-1v-.94h0a2,2,0,0,1-1.85,1.08,2,2,0,0,1-1.4-.47,1.64,1.64,0,0,1-.51-1.26q0-1.68,2-2l1.8-.25q0-1.53-1.24-1.53a3,3,0,0,0-2,.74v-1a3.72,3.72,0,0,1,2-.56q2.12,0,2.12,2.24Zm-1-3-1.45.2a2.35,2.35,0,0,0-1,.33,1,1,0,0,0-.34.84.92.92,0,0,0,.31.72,1.21,1.21,0,0,0,.83.28,1.54,1.54,0,0,0,1.18-.5,1.79,1.79,0,0,0,.47-1.27Z" fill="#2b3033"/><path d="M247.46,166.52q0,3.3-3.16,3.3a4.25,4.25,0,0,1-1.95-.42v-1a4,4,0,0,0,1.93.56q2.21,0,2.21-2.36V166h0a2.43,2.43,0,0,1-3.86.35,3.2,3.2,0,0,1-.68-2.15,3.74,3.74,0,0,1,.74-2.43,2.46,2.46,0,0,1,2-.9,2,2,0,0,1,1.8,1h0V161h1Zm-1-2.23v-.88a1.72,1.72,0,0,0-.48-1.22,1.59,1.59,0,0,0-1.2-.51,1.67,1.67,0,0,0-1.39.65,2.89,2.89,0,0,0-.5,1.81,2.48,2.48,0,0,0,.48,1.6,1.56,1.56,0,0,0,1.28.6,1.67,1.67,0,0,0,1.32-.57A2.14,2.14,0,0,0,246.5,164.29Z" fill="#2b3033"/><path d="M254.23,164.24H250a2.24,2.24,0,0,0,.54,1.55,1.86,1.86,0,0,0,1.42.54,3,3,0,0,0,1.86-.67v.9a3.48,3.48,0,0,1-2.09.57,2.54,2.54,0,0,1-2-.82A3.35,3.35,0,0,1,249,164a3.28,3.28,0,0,1,.79-2.28,2.55,2.55,0,0,1,2-.88,2.26,2.26,0,0,1,1.82.76,3.18,3.18,0,0,1,.64,2.12Zm-1-.81a2,2,0,0,0-.4-1.29,1.37,1.37,0,0,0-1.1-.46,1.55,1.55,0,0,0-1.15.49,2.21,2.21,0,0,0-.59,1.27Z" fill="#2b3033"/><path d="M261.48,167.14a2.78,2.78,0,0,1-2.12-.84,3.11,3.11,0,0,1-.79-2.23,3.24,3.24,0,0,1,.83-2.36,3,3,0,0,1,2.23-.85,2.69,2.69,0,0,1,2.09.83,3.28,3.28,0,0,1,.75,2.29,3.22,3.22,0,0,1-.81,2.3A2.84,2.84,0,0,1,261.48,167.14Zm.07-5.47a1.83,1.83,0,0,0-1.46.63,2.59,2.59,0,0,0-.54,1.74,2.45,2.45,0,0,0,.54,1.68,1.85,1.85,0,0,0,1.46.62,1.76,1.76,0,0,0,1.43-.6,2.62,2.62,0,0,0,.5-1.72,2.66,2.66,0,0,0-.5-1.73A1.75,1.75,0,0,0,261.55,161.67Z" fill="#2b3033"/><path d="M268.75,159a1.28,1.28,0,0,0-.64-.16q-1,0-1,1.27V161h1.41v.82H267.1V167h-1v-5.18h-1V161h1v-1a2,2,0,0,1,.54-1.49,1.84,1.84,0,0,1,1.36-.55,1.88,1.88,0,0,1,.7.11Z" fill="#2b3033"/><path d="M275.61,166.94a1.85,1.85,0,0,1-.9.19q-1.58,0-1.58-1.76v-3.55h-1V161h1v-1.46l1-.31V161h1.51v.82H274.1v3.38a1.4,1.4,0,0,0,.21.86.82.82,0,0,0,.68.26,1,1,0,0,0,.63-.2Z" fill="#2b3033"/><path d="M281.88,167h-1v-3.46q0-1.87-1.39-1.87a1.52,1.52,0,0,0-1.18.54,2,2,0,0,0-.48,1.39V167h-1v-8.88h1V162h0a2.18,2.18,0,0,1,2-1.14q2,0,2,2.44Z" fill="#2b3033"/><path d="M288.51,164.24h-4.24a2.24,2.24,0,0,0,.54,1.55,1.86,1.86,0,0,0,1.42.54,3,3,0,0,0,1.86-.67v.9a3.48,3.48,0,0,1-2.09.57,2.54,2.54,0,0,1-2-.82,3.35,3.35,0,0,1-.73-2.3,3.28,3.28,0,0,1,.79-2.28,2.55,2.55,0,0,1,2-.88,2.26,2.26,0,0,1,1.82.76,3.18,3.18,0,0,1,.64,2.12Zm-1-.81a2,2,0,0,0-.4-1.29,1.37,1.37,0,0,0-1.1-.46,1.55,1.55,0,0,0-1.15.49,2.21,2.21,0,0,0-.59,1.27Z" fill="#2b3033"/><path d="M67.09,185h-1v-1h0A2.22,2.22,0,0,1,64,185.14a2.24,2.24,0,0,1-1.81-.81,3.31,3.31,0,0,1-.68-2.19,3.6,3.6,0,0,1,.75-2.38,2.47,2.47,0,0,1,2-.9,1.92,1.92,0,0,1,1.8,1h0v-3.71h1Zm-1-2.71v-.88a1.72,1.72,0,0,0-.48-1.23,1.61,1.61,0,0,0-1.22-.5,1.66,1.66,0,0,0-1.38.64,2.82,2.82,0,0,0-.5,1.78,2.54,2.54,0,0,0,.48,1.64,1.58,1.58,0,0,0,1.3.6,1.64,1.64,0,0,0,1.3-.58A2.16,2.16,0,0,0,66.13,182.29Z" fill="#2b3033"/><path d="M69.53,177.48a.61.61,0,0,1-.44-.18.59.59,0,0,1-.18-.45.62.62,0,0,1,.62-.63.62.62,0,0,1,.45.18.63.63,0,0,1,0,.89A.62.62,0,0,1,69.53,177.48ZM70,185H69v-6h1Z" fill="#2b3033"/><path d="M76,184.72a3.12,3.12,0,0,1-1.64.42,2.72,2.72,0,0,1-2.07-.83,3,3,0,0,1-.79-2.17,3.33,3.33,0,0,1,.85-2.38,3,3,0,0,1,2.27-.9,3.16,3.16,0,0,1,1.39.29v1a2.44,2.44,0,0,0-1.43-.47,1.93,1.93,0,0,0-1.51.66,2.5,2.5,0,0,0-.59,1.73,2.38,2.38,0,0,0,.55,1.66,1.91,1.91,0,0,0,1.49.61,2.41,2.41,0,0,0,1.48-.52Z" fill="#2b3033"/><path d="M80.27,184.94a1.85,1.85,0,0,1-.9.19q-1.58,0-1.58-1.76v-3.55h-1V179h1v-1.46l1-.31V179h1.51v.82H78.76v3.38a1.4,1.4,0,0,0,.21.86.82.82,0,0,0,.68.26,1,1,0,0,0,.63-.2Z" fill="#2b3033"/><path d="M82,177.48a.61.61,0,0,1-.44-.18.59.59,0,0,1-.18-.45.62.62,0,0,1,.62-.63.62.62,0,0,1,.45.18.63.63,0,0,1,0,.89A.62.62,0,0,1,82,177.48Zm.47,7.52h-1v-6h1Z" fill="#2b3033"/><path d="M87,185.14a2.78,2.78,0,0,1-2.12-.84,3.11,3.11,0,0,1-.79-2.23,3.24,3.24,0,0,1,.83-2.36,3,3,0,0,1,2.23-.85,2.69,2.69,0,0,1,2.09.83A3.28,3.28,0,0,1,90,182a3.22,3.22,0,0,1-.81,2.3A2.84,2.84,0,0,1,87,185.14Zm.07-5.47a1.83,1.83,0,0,0-1.46.63A2.59,2.59,0,0,0,85,182a2.45,2.45,0,0,0,.54,1.68,1.85,1.85,0,0,0,1.46.62,1.76,1.76,0,0,0,1.43-.6A2.62,2.62,0,0,0,89,182a2.66,2.66,0,0,0-.5-1.73A1.75,1.75,0,0,0,87,179.67Z" fill="#2b3033"/><path d="M96.47,185h-1v-3.42q0-1.91-1.39-1.91a1.51,1.51,0,0,0-1.19.54,2,2,0,0,0-.47,1.37V185h-1v-6h1v1h0a2.17,2.17,0,0,1,2-1.14,1.84,1.84,0,0,1,1.51.64,2.83,2.83,0,0,1,.52,1.84Z" fill="#2b3033"/><path d="M102.58,185h-1v-.94h0a2,2,0,0,1-1.85,1.08,2,2,0,0,1-1.4-.47,1.64,1.64,0,0,1-.51-1.26q0-1.68,2-2l1.8-.25q0-1.53-1.24-1.53a3,3,0,0,0-2,.74v-1a3.72,3.72,0,0,1,2-.56q2.12,0,2.12,2.24Zm-1-3-1.45.2a2.35,2.35,0,0,0-1,.33,1,1,0,0,0-.34.84.92.92,0,0,0,.31.72,1.21,1.21,0,0,0,.83.28,1.54,1.54,0,0,0,1.18-.5,1.79,1.79,0,0,0,.47-1.27Z" fill="#2b3033"/><path d="M107.52,180a1.18,1.18,0,0,0-.73-.19,1.23,1.23,0,0,0-1,.58,2.68,2.68,0,0,0-.41,1.58V185h-1v-6h1v1.24h0a2.1,2.1,0,0,1,.63-1,1.43,1.43,0,0,1,.94-.35,1.57,1.57,0,0,1,.57.08Z" fill="#2b3033"/><path d="M113.82,179l-2.76,7q-.74,1.86-2.07,1.86a2.2,2.2,0,0,1-.63-.08v-.86a1.78,1.78,0,0,0,.57.11,1.18,1.18,0,0,0,1.09-.87l.48-1.14-2.34-6h1.07l1.62,4.62q0,.09.12.46h0q0-.14.12-.45l1.71-4.63Z" fill="#2b3033"/><path d="M114.44,185.13a.62.62,0,0,1-.46-.19.64.64,0,0,1-.19-.46A.65.65,0,0,1,114,184a.62.62,0,0,1,.46-.2.63.63,0,0,1,.47.2.64.64,0,0,1,.19.47.63.63,0,0,1-.19.46A.64.64,0,0,1,114.44,185.13Z" fill="#2b3033"/><use width="12" height="20.32" transform="translate(52 72)" xlink:href="#cursor"/></svg>