<svg id="Layer_1" data-name="Layer 1" xmlns="http://www.w3.org/2000/svg" xmlns:xlink="http://www.w3.org/1999/xlink" width="124" height="60" viewBox="0 0 124 60"><defs><clipPath id="clip-path"><rect x="682" width="283" height="30" fill="none"/></clipPath><clipPath id="clip-path-2"><path d="M712.75-248.54H990.51v581l-277.69-.22a8.65,8.65,0,0,0-1.76-4.84,39.9,39.9,0,0,0-4.24-4.84,39.28,39.28,0,0,1-4.25-4.84,7.57,7.57,0,0,1,0-9.68,40.67,40.67,0,0,1,4.24-4.84,39.16,39.16,0,0,0,4.24-4.84,7.54,7.54,0,0,0,0-9.68,40.67,40.67,0,0,0-4.24-4.84,39.28,39.28,0,0,1-4.25-4.84,7.55,7.55,0,0,1,0-9.67,40,40,0,0,1,4.24-4.85,39.16,39.16,0,0,0,4.24-4.84,7.53,7.53,0,0,0,0-9.68,39.84,39.84,0,0,0-4.24-4.83,41.72,41.72,0,0,1-4.25-4.84,7.57,7.57,0,0,1,0-9.68,39.16,39.16,0,0,1,4.24-4.84,40.67,40.67,0,0,0,4.24-4.84,7.54,7.54,0,0,0,0-9.68,39.16,39.16,0,0,0-4.24-4.84,41.72,41.72,0,0,1-4.25-4.84,7.57,7.57,0,0,1,0-9.68,39.9,39.9,0,0,1,4.24-4.84,40.67,40.67,0,0,0,4.24-4.84,7.54,7.54,0,0,0,0-9.68,39.16,39.16,0,0,0-4.24-4.84,40.91,40.91,0,0,1-4.25-4.84,7.57,7.57,0,0,1,0-9.68,39.9,39.9,0,0,1,4.24-4.84,39.9,39.9,0,0,0,4.24-4.84,7.54,7.54,0,0,0,0-9.68,39.9,39.9,0,0,0-4.24-4.84,40.13,40.13,0,0,1-4.25-4.84,7.57,7.57,0,0,1,0-9.68,40.67,40.67,0,0,1,4.24-4.84,40.91,40.91,0,0,0,4.25-4.84,7.55,7.55,0,0,0,0-9.68,40.67,40.67,0,0,0-4.24-4.84,39.16,39.16,0,0,1-4.24-4.84,8.55,8.55,0,0,1-1.76-4.84,8.66,8.66,0,0,1,1.75-4.84,40.67,40.67,0,0,1,4.24-4.84A39.28,39.28,0,0,0,711,66a8.6,8.6,0,0,0,1.75-4.84A8.65,8.65,0,0,0,711,56.37a40.67,40.67,0,0,0-4.24-4.84,39.16,39.16,0,0,1-4.24-4.84,8.62,8.62,0,0,1-1.76-4.84A8.67,8.67,0,0,1,702.51,37a40.67,40.67,0,0,1,4.24-4.84A39.16,39.16,0,0,0,711,27.33a8.62,8.62,0,0,0,1.76-4.84A8.65,8.65,0,0,0,711,17.65a39.9,39.9,0,0,0-4.24-4.84A39.9,39.9,0,0,1,702.51,8a8.62,8.62,0,0,1-1.76-4.84,8.67,8.67,0,0,1,1.76-4.84,40.67,40.67,0,0,1,4.24-4.84A39.16,39.16,0,0,0,711-11.39a8.62,8.62,0,0,0,1.76-4.84A8.67,8.67,0,0,0,711-21.07a40.67,40.67,0,0,0-4.24-4.84,39.16,39.16,0,0,1-4.24-4.84,8.62,8.62,0,0,1-1.76-4.84,8.67,8.67,0,0,1,1.76-4.84,40.67,40.67,0,0,1,4.24-4.84A39.16,39.16,0,0,0,711-50.11,8.62,8.62,0,0,0,712.75-55,8.67,8.67,0,0,0,711-59.79a39.84,39.84,0,0,0-4.24-4.83,40.67,40.67,0,0,1-4.24-4.84,8.67,8.67,0,0,1-1.76-4.84,8.62,8.62,0,0,1,1.76-4.84A39.16,39.16,0,0,1,706.75-84,40.67,40.67,0,0,0,711-88.82a8.67,8.67,0,0,0,1.76-4.84A8.62,8.62,0,0,0,711-98.5a39.16,39.16,0,0,0-4.24-4.84,40.67,40.67,0,0,1-4.24-4.84,8.67,8.67,0,0,1-1.76-4.84,8.62,8.62,0,0,1,1.76-4.84,39.16,39.16,0,0,1,4.24-4.84,40.67,40.67,0,0,0,4.24-4.84,8.67,8.67,0,0,0,1.76-4.84,8.62,8.62,0,0,0-1.76-4.84,39.9,39.9,0,0,0-4.24-4.84,39.9,39.9,0,0,1-4.24-4.84,8.65,8.65,0,0,1-1.76-4.84,8.65,8.65,0,0,1,1.76-4.84,39.9,39.9,0,0,1,4.24-4.84,39.9,39.9,0,0,0,4.24-4.84,8.65,8.65,0,0,0,1.76-4.84,8.65,8.65,0,0,0-1.76-4.84,39.9,39.9,0,0,0-4.24-4.84,39.9,39.9,0,0,1-4.24-4.84,8.65,8.65,0,0,1-1.76-4.84,8.65,8.65,0,0,1,1.76-4.84,39.9,39.9,0,0,1,4.24-4.84A39.9,39.9,0,0,0,711-205a8.65,8.65,0,0,0,1.76-4.84,8.67,8.67,0,0,0-1.76-4.84,40.67,40.67,0,0,0-4.24-4.84,39.16,39.16,0,0,1-4.24-4.84,8.62,8.62,0,0,1-1.76-4.84,8.67,8.67,0,0,1,1.76-4.84,40.67,40.67,0,0,1,4.24-4.84A39.16,39.16,0,0,0,711-243.7,8.62,8.62,0,0,0,712.75-248.54Z" fill="none"/></clipPath><symbol id="toolbar" data-name="toolbar" viewBox="0 0 858 30.05"><rect x="1" y="0.05" width="856" height="30" fill="#fff"/><rect x="2.32" width="854" height="28" fill="#f7f7f7"/><path d="M857,0H0V30H858V0Zm0,29H1V1H857Z" fill="#8e9295"/><path d="M277.71,17.73V16.57a2.25,2.25,0,0,0,.48.32,3.87,3.87,0,0,0,.59.24,4.66,4.66,0,0,0,.62.15,3.45,3.45,0,0,0,.57.05,2.25,2.25,0,0,0,1.36-.34,1.26,1.26,0,0,0,.3-1.56,1.68,1.68,0,0,0-.41-.46,4.1,4.1,0,0,0-.62-.4l-.78-.4q-.44-.22-.82-.45a3.55,3.55,0,0,1-.66-.5,2.1,2.1,0,0,1-.44-.62,2.13,2.13,0,0,1,.09-1.82,2.16,2.16,0,0,1,.66-.7,3,3,0,0,1,.93-.41,4.28,4.28,0,0,1,1.07-.13,4.1,4.1,0,0,1,1.81.3v1.11a3.28,3.28,0,0,0-1.91-.52,3.14,3.14,0,0,0-.64.07,1.82,1.82,0,0,0-.57.22,1.27,1.27,0,0,0-.41.39,1,1,0,0,0-.16.59,1.21,1.21,0,0,0,.12.56,1.36,1.36,0,0,0,.35.43,3.53,3.53,0,0,0,.57.38l.78.4q.45.22.86.47a3.91,3.91,0,0,1,.71.54,2.42,2.42,0,0,1,.48.66,1.86,1.86,0,0,1,.18.83,2.11,2.11,0,0,1-.24,1.05,2,2,0,0,1-.66.7,2.87,2.87,0,0,1-1,.39,5.21,5.21,0,0,1-1.14.12l-.49,0-.6-.09a4.88,4.88,0,0,1-.58-.15A1.8,1.8,0,0,1,277.71,17.73Z" fill="#2b3033"/><path d="M285.33,17.21h0v3.63h-1V12.07h1v1.05h0a2.27,2.27,0,0,1,2.07-1.2,2.2,2.2,0,0,1,1.81.81,3.34,3.34,0,0,1,.65,2.16,3.72,3.72,0,0,1-.73,2.41,2.44,2.44,0,0,1-2,.91A2,2,0,0,1,285.33,17.21Zm0-2.42v.84a1.78,1.78,0,0,0,.48,1.26,1.72,1.72,0,0,0,2.6-.15,3.06,3.06,0,0,0,.5-1.86,2.42,2.42,0,0,0-.46-1.57,1.53,1.53,0,0,0-1.25-.57,1.7,1.7,0,0,0-1.35.58A2.14,2.14,0,0,0,285.31,14.79Z" fill="#2b3033"/><path d="M292.36,18.07h-1V9.19h1Z" fill="#2b3033"/><path d="M294.8,10.55a.61.61,0,0,1-.44-.18.59.59,0,0,1-.18-.45.62.62,0,0,1,.62-.63.62.62,0,0,1,.45.18.63.63,0,0,1,0,.89A.62.62,0,0,1,294.8,10.55Zm.47,7.52h-1v-6h1Z" fill="#2b3033"/><path d="M300,18a1.85,1.85,0,0,1-.9.19q-1.58,0-1.58-1.76V12.89h-1v-.82h1V10.61l1-.31v1.78H300v.82h-1.51v3.38a1.4,1.4,0,0,0,.21.86.82.82,0,0,0,.68.26,1,1,0,0,0,.63-.2Z" fill="#2b3033"/><rect x="144" y="3.05" width="1" height="23" fill="#a6a6a6"/><rect x="317" y="3.05" width="1" height="23" fill="#a6a6a6"/><rect x="346" y="3.05" width="1" height="23" fill="#a6a6a6"/><rect x="201" y="2.05" width="59" height="26" fill="#4384b7"/><path d="M209,18.07V9.67h2.32q4.44,0,4.44,4.1a4.13,4.13,0,0,1-1.23,3.13,4.58,4.58,0,0,1-3.3,1.18Zm1-7.51v6.62h1.25a3.56,3.56,0,0,0,2.57-.88,3.32,3.32,0,0,0,.92-2.51q0-3.23-3.43-3.23Z" fill="#fff"/><path d="M217.79,10.55a.61.61,0,0,1-.44-.18.59.59,0,0,1-.18-.45.62.62,0,0,1,.62-.63.62.62,0,0,1,.45.18.63.63,0,0,1,0,.89A.62.62,0,0,1,217.79,10.55Zm.47,7.52h-1v-6h1Z" fill="#fff"/><path d="M224.5,18.07h-1v-.94h0a2,2,0,0,1-1.85,1.08,2,2,0,0,1-1.4-.47,1.64,1.64,0,0,1-.51-1.26q0-1.68,2-2l1.8-.25q0-1.53-1.24-1.53a3,3,0,0,0-2,.74v-1a3.72,3.72,0,0,1,2-.56q2.12,0,2.12,2.24Zm-1-3-1.45.2a2.35,2.35,0,0,0-1,.33,1,1,0,0,0-.34.84.92.92,0,0,0,.31.72,1.21,1.21,0,0,0,.83.28,1.54,1.54,0,0,0,1.18-.5,1.79,1.79,0,0,0,.47-1.27Z" fill="#fff"/><path d="M231.43,17.59q0,3.3-3.16,3.3a4.25,4.25,0,0,1-1.95-.42v-1a4,4,0,0,0,1.93.56q2.21,0,2.21-2.36v-.66h0a2.43,2.43,0,0,1-3.86.35,3.2,3.2,0,0,1-.68-2.15,3.74,3.74,0,0,1,.74-2.43,2.46,2.46,0,0,1,2-.9,2,2,0,0,1,1.8,1h0v-.83h1Zm-1-2.23v-.88a1.72,1.72,0,0,0-.48-1.22,1.59,1.59,0,0,0-1.2-.51,1.67,1.67,0,0,0-1.39.65,2.89,2.89,0,0,0-.5,1.81,2.48,2.48,0,0,0,.48,1.6,1.56,1.56,0,0,0,1.28.6,1.67,1.67,0,0,0,1.32-.57A2.14,2.14,0,0,0,230.47,15.36Z" fill="#fff"/><path d="M236.5,13a1.18,1.18,0,0,0-.73-.19,1.23,1.23,0,0,0-1,.58,2.68,2.68,0,0,0-.41,1.58v3.06h-1v-6h1v1.24h0a2.1,2.1,0,0,1,.63-1,1.43,1.43,0,0,1,.94-.35,1.57,1.57,0,0,1,.57.08Z" fill="#fff"/><path d="M241.84,18.07h-1v-.94h0A2,2,0,0,1,239,18.21a2,2,0,0,1-1.4-.47,1.64,1.64,0,0,1-.51-1.26q0-1.68,2-2l1.8-.25q0-1.53-1.24-1.53a3,3,0,0,0-2,.74v-1a3.72,3.72,0,0,1,2-.56q2.12,0,2.12,2.24Zm-1-3-1.45.2a2.35,2.35,0,0,0-1,.33,1,1,0,0,0-.34.84.92.92,0,0,0,.31.72,1.21,1.21,0,0,0,.83.28,1.54,1.54,0,0,0,1.18-.5,1.79,1.79,0,0,0,.47-1.27Z" fill="#fff"/><path d="M252.17,18.07h-1V14.63a2.6,2.6,0,0,0-.31-1.44,1.17,1.17,0,0,0-1-.45,1.28,1.28,0,0,0-1,.56,2.15,2.15,0,0,0-.43,1.35v3.42h-1V14.51q0-1.77-1.37-1.77a1.26,1.26,0,0,0-1,.53,2.19,2.19,0,0,0-.41,1.38v3.42h-1v-6h1V13h0a2,2,0,0,1,1.86-1.09,1.73,1.73,0,0,1,1.7,1.24,2.14,2.14,0,0,1,2-1.24q2,0,2,2.44Z" fill="#fff"/><path d="M161,14.9v3.18h-1V9.67h2.31a3,3,0,0,1,2.09.66,2.34,2.34,0,0,1,.74,1.85,2.55,2.55,0,0,1-.82,2,3.15,3.15,0,0,1-2.22.76Zm0-4.34V14h1a2.31,2.31,0,0,0,1.56-.47,1.65,1.65,0,0,0,.54-1.32q0-1.66-2-1.66Z" fill="#2b3033"/><path d="M170.55,18.07h-1v-.94h0a2,2,0,0,1-1.85,1.08,2,2,0,0,1-1.4-.47,1.64,1.64,0,0,1-.51-1.26q0-1.68,2-2l1.8-.25q0-1.53-1.24-1.53a3,3,0,0,0-2,.74v-1a3.72,3.72,0,0,1,2-.56q2.12,0,2.12,2.24Zm-1-3-1.45.2a2.35,2.35,0,0,0-1,.33,1,1,0,0,0-.34.84.92.92,0,0,0,.31.72,1.21,1.21,0,0,0,.83.28,1.54,1.54,0,0,0,1.18-.5,1.79,1.79,0,0,0,.47-1.27Z" fill="#2b3033"/><path d="M177.34,18.07h-1V14.65q0-1.91-1.39-1.91a1.51,1.51,0,0,0-1.19.54,2,2,0,0,0-.47,1.37v3.42h-1v-6h1v1h0a2.17,2.17,0,0,1,2-1.14,1.84,1.84,0,0,1,1.51.64,2.83,2.83,0,0,1,.52,1.84Z" fill="#2b3033"/><path d="M184,15.31h-4.24a2.24,2.24,0,0,0,.54,1.55,1.86,1.86,0,0,0,1.42.54,3,3,0,0,0,1.86-.67v.9a3.48,3.48,0,0,1-2.09.57,2.54,2.54,0,0,1-2-.82,3.35,3.35,0,0,1-.73-2.3,3.28,3.28,0,0,1,.79-2.28,2.55,2.55,0,0,1,2-.88,2.26,2.26,0,0,1,1.82.76,3.18,3.18,0,0,1,.64,2.12Zm-1-.81a2,2,0,0,0-.4-1.29,1.37,1.37,0,0,0-1.1-.46,1.55,1.55,0,0,0-1.15.49,2.21,2.21,0,0,0-.59,1.27Z" fill="#2b3033"/><path d="M186.39,18.07h-1V9.19h1Z" fill="#2b3033"/><polygon points="374 17.06 377.15 21.95 380 17.06 374 17.06" fill="#696e73" opacity="0.5"/><polygon points="410 17.06 413.15 21.95 416 17.06 410 17.06" fill="#696e73"/><polygon points="446 17.06 449.15 21.95 452 17.06 446 17.06" fill="#696e73"/><path d="M808.55,18.1H804.1V9.7h4.27v.89h-3.28v2.79h3v.88h-3v2.94h3.47Z" fill="#2b3033"/><path d="M815.16,18.1h-1v-1h0a2.22,2.22,0,0,1-2.06,1.16,2.24,2.24,0,0,1-1.81-.81,3.31,3.31,0,0,1-.68-2.19,3.6,3.6,0,0,1,.75-2.38,2.47,2.47,0,0,1,2-.9,1.92,1.92,0,0,1,1.8,1h0V9.22h1Zm-1-2.71V14.5a1.72,1.72,0,0,0-.48-1.23,1.61,1.61,0,0,0-1.22-.5,1.66,1.66,0,0,0-1.38.64,2.82,2.82,0,0,0-.5,1.78,2.54,2.54,0,0,0,.48,1.64,1.58,1.58,0,0,0,1.3.6,1.64,1.64,0,0,0,1.3-.58A2.16,2.16,0,0,0,814.2,15.39Z" fill="#2b3033"/><path d="M817.6,10.58a.61.61,0,0,1-.44-.18A.59.59,0,0,1,817,10a.62.62,0,0,1,.62-.63.62.62,0,0,1,.45.18.63.63,0,0,1,0,.89A.62.62,0,0,1,817.6,10.58Zm.47,7.52h-1v-6h1Z" fill="#2b3033"/><path d="M822.8,18a1.85,1.85,0,0,1-.9.19q-1.58,0-1.58-1.76V12.92h-1V12.1h1V10.63l1-.31V12.1h1.51v.82h-1.51V16.3a1.4,1.4,0,0,0,.21.86.82.82,0,0,0,.68.26,1,1,0,0,0,.63-.2Z" fill="#2b3033"/><path d="M827.86,10.58a.61.61,0,0,1-.44-.18.59.59,0,0,1-.18-.45.62.62,0,0,1,.62-.63.62.62,0,0,1,.45.18.63.63,0,0,1,0,.89A.62.62,0,0,1,827.86,10.58Zm.47,7.52h-1v-6h1Z" fill="#2b3033"/><path d="M834.37,17.82a3.12,3.12,0,0,1-1.64.42,2.72,2.72,0,0,1-2.07-.83,3,3,0,0,1-.79-2.17,3.33,3.33,0,0,1,.85-2.38A3,3,0,0,1,833,12a3.16,3.16,0,0,1,1.39.29v1a2.44,2.44,0,0,0-1.43-.47,1.93,1.93,0,0,0-1.51.66,2.5,2.5,0,0,0-.59,1.73,2.38,2.38,0,0,0,.55,1.66,1.91,1.91,0,0,0,1.49.61,2.41,2.41,0,0,0,1.48-.52Z" fill="#2b3033"/><path d="M838.33,18.24a2.78,2.78,0,0,1-2.12-.84,3.11,3.11,0,0,1-.79-2.23,3.24,3.24,0,0,1,.83-2.36,3,3,0,0,1,2.23-.85,2.69,2.69,0,0,1,2.09.83,3.28,3.28,0,0,1,.75,2.29,3.22,3.22,0,0,1-.81,2.3A2.84,2.84,0,0,1,838.33,18.24Zm.07-5.47a1.83,1.83,0,0,0-1.46.63,2.59,2.59,0,0,0-.54,1.74,2.45,2.45,0,0,0,.54,1.68,1.85,1.85,0,0,0,1.46.62,1.76,1.76,0,0,0,1.43-.6,2.62,2.62,0,0,0,.5-1.72,2.66,2.66,0,0,0-.5-1.73A1.75,1.75,0,0,0,838.4,12.77Z" fill="#2b3033"/><path d="M847.83,18.1h-1V14.68q0-1.91-1.39-1.91a1.51,1.51,0,0,0-1.19.54,2,2,0,0,0-.47,1.37V18.1h-1v-6h1v1h0a2.17,2.17,0,0,1,2-1.14,1.84,1.84,0,0,1,1.51.64,2.83,2.83,0,0,1,.52,1.84Z" fill="#2b3033"/><path d="M726.3,18.1h-1V10.84a2.22,2.22,0,0,1-.33.25,5.3,5.3,0,0,1-.48.28q-.27.14-.56.26a4.09,4.09,0,0,1-.58.19v-1a5.59,5.59,0,0,0,.67-.24q.35-.15.7-.33t.65-.39a5.14,5.14,0,0,0,.53-.4h.36Z" fill="#2b3033"/><path d="M734.51,13.86a8.25,8.25,0,0,1-.19,1.87,4.36,4.36,0,0,1-.55,1.37,2.48,2.48,0,0,1-.88.85,2.42,2.42,0,0,1-1.19.29,2.26,2.26,0,0,1-1.13-.28,2.36,2.36,0,0,1-.83-.81,4.11,4.11,0,0,1-.52-1.31,8.1,8.1,0,0,1-.18-1.78,9.17,9.17,0,0,1,.18-1.95,4.45,4.45,0,0,1,.54-1.42,2.41,2.41,0,0,1,.89-.86,2.49,2.49,0,0,1,1.22-.29Q734.51,9.56,734.51,13.86Zm-1,.09q0-3.59-1.71-3.59T730,14q0,3.4,1.76,3.4T733.52,14Z" fill="#2b3033"/><path d="M741,13.86a8.25,8.25,0,0,1-.19,1.87,4.36,4.36,0,0,1-.55,1.37,2.48,2.48,0,0,1-.88.85,2.42,2.42,0,0,1-1.19.29A2.26,2.26,0,0,1,737,18a2.36,2.36,0,0,1-.83-.81,4.11,4.11,0,0,1-.52-1.31,8.1,8.1,0,0,1-.18-1.78,9.17,9.17,0,0,1,.18-1.95,4.45,4.45,0,0,1,.54-1.42,2.41,2.41,0,0,1,.89-.86,2.49,2.49,0,0,1,1.22-.29Q741,9.56,741,13.86ZM740,14q0-3.59-1.71-3.59T736.49,14q0,3.4,1.76,3.4T740,14Z" fill="#2b3033"/><path d="M743.83,13.91a1.77,1.77,0,0,1-1.38-.57,2.19,2.19,0,0,1-.52-1.53,2.35,2.35,0,0,1,.54-1.64,1.89,1.89,0,0,1,1.47-.6,1.77,1.77,0,0,1,1.39.56,2.27,2.27,0,0,1,.5,1.56,2.3,2.3,0,0,1-.55,1.61A1.87,1.87,0,0,1,743.83,13.91Zm.08-3.7a1.05,1.05,0,0,0-.88.41,1.8,1.8,0,0,0-.32,1.13,1.73,1.73,0,0,0,.32,1.1,1,1,0,0,0,.86.4,1,1,0,0,0,.86-.41,1.85,1.85,0,0,0,.31-1.14,1.76,1.76,0,0,0-.31-1.1A1,1,0,0,0,743.92,10.21Zm5.54-.52-5.39,8.46h-.84l5.38-8.46Zm-.62,8.53a1.77,1.77,0,0,1-1.38-.57,2.19,2.19,0,0,1-.52-1.52,2.36,2.36,0,0,1,.55-1.65,1.88,1.88,0,0,1,1.46-.61,1.76,1.76,0,0,1,1.39.56,2.3,2.3,0,0,1,.5,1.58,2.29,2.29,0,0,1-.55,1.61A1.87,1.87,0,0,1,748.84,18.23Zm.08-3.69a1.06,1.06,0,0,0-.88.41,1.81,1.81,0,0,0-.32,1.14,1.7,1.7,0,0,0,.32,1.09,1,1,0,0,0,.86.4,1,1,0,0,0,.86-.41,1.85,1.85,0,0,0,.31-1.13,1.73,1.73,0,0,0-.31-1.1A1,1,0,0,0,748.92,14.54Z" fill="#2b3033"/><path d="M771,11.1h9l-4.5,6Z" fill="#2b3033" opacity="0.8"/><rect x="789" y="3.05" width="1" height="23" fill="#a6a6a6"/><rect x="714" y="3.05" width="1" height="23" fill="#a6a6a6"/><polygon points="702 17.08 705.15 21.97 708 17.08 702 17.08" fill="#4d5359" opacity="0.8"/><rect x="652.5" y="1.5" width="23" height="26" fill="#fff"/><path d="M675,2V27H653V2h22m1-1H652V28h24V1Z" fill="#4386b9"/><path d="M656,7V23h16V7Zm15,15H657V8h14Z" fill="#4d5359" opacity="0.8"/><rect x="658" y="9.06" width="3" height="12" fill="#4d5359" opacity="0.8"/><g opacity="0.8"><path d="M681,11h4V7h-4Zm1-3h2v2h-2Z" fill="#4d5359"/><rect x="686" y="8.05" width="11" height="2" fill="#4d5359"/><path d="M681,17h4V13h-4Zm1-3h2v2h-2Z" fill="#4d5359"/><rect x="686" y="14.05" width="11" height="2" fill="#4d5359"/><path d="M681,23h4V19h-4Zm1-3h2v2h-2Z" fill="#4d5359"/><rect x="686" y="20.05" width="11" height="2" fill="#4d5359"/></g><rect x="511" y="8.05" width="1" height="4" fill="#696e73"/><rect x="511" y="14.05" width="1" height="4" fill="#696e73"/><rect x="517" y="6.05" width="4" height="1" fill="#696e73"/><rect x="511" y="6.05" width="4" height="1" fill="#696e73"/><rect x="515" y="21.05" width="4" height="1" fill="#696e73"/><rect x="521" y="21.05" width="4" height="1" fill="#696e73"/><polygon points="512 20.05 511 20.05 511 22.05 513 22.05 513 21.05 512 21.05 512 20.05" fill="#696e73"/><rect x="526" y="18.05" width="1" height="4" fill="#696e73"/><rect x="526" y="12.05" width="1" height="4" fill="#696e73"/><polygon points="523 6.05 523 7.05 526 7.05 526 10.05 527 10.05 527 6.05 523 6.05" fill="#696e73"/><path d="M513,20.05h12v-12H513Zm1-11,9,5-9,5Z" fill="#696e73"/><rect x="461" y="21.03" width="16" height="1" fill="#696e73"/><rect x="476" y="18.03" width="1" height="2" fill="#696e73"/><rect x="467" y="9.03" width="2" height="1" fill="#696e73"/><rect x="470" y="9.03" width="2" height="1" fill="#696e73"/><rect x="473" y="9.03" width="2" height="1" fill="#696e73"/><polygon points="467.48 15.14 465 17.62 466.41 19.04 468.89 16.56 471.36 19.04 472.78 17.62 470.3 15.14 472.78 12.67 471.36 11.26 468.89 13.73 466.41 11.26 465 12.67 467.48 15.14" fill="#696e73"/><path d="M492.47,8c0,8-6.47,7-6.47,7h0s6.47-1,6.47,7c0-8,6.47-7,6.47-7h0S492.47,16,492.47,8Z" fill="#696e73"/><path d="M498.49,6c0,2.87-2.49,2.52-2.49,2.52h0s2.49-.34,2.49,2.52c0-2.87,2.49-2.52,2.49-2.52h0S498.49,8.91,498.49,6Z" fill="#696e73"/><path d="M440,14V9h-5V7h-7V9h-3v1h3v2h7V10h4v9h-4.05a3.48,3.48,0,0,0-6.9,0H425v1h3.05a3.48,3.48,0,0,0,6.9,0H440V15h1V14Z" fill="#696e73"/><rect x="389" y="8.05" width="2" height="14" fill="#696e73"/><rect x="393" y="14.05" width="5" height="2" fill="#696e73"/><rect x="393" y="9.05" width="10" height="2" fill="#696e73"/><rect x="393" y="19.05" width="8" height="2" fill="#696e73"/><path d="M369,7h-8v5h-4v4h-4v7h7V19h4V15h5ZM359,22h-5V17h3v2h2Zm4-4h-5V13h3v2h2Z" fill="#696e73" opacity="0.5"/><polygon points="97 8.05 97 14.05 99 14.05 99 10.05 103 10.05 103 8.05 97 8.05" fill="#696e73"/><polygon points="99 18.05 97 18.05 97 24.05 103 24.05 103 22.05 99 22.05 99 18.05" fill="#696e73"/><polygon points="111 22.05 107 22.05 107 24.05 113 24.05 113 18.05 111 18.05 111 22.05" fill="#696e73"/><polygon points="107 8.05 107 10.05 111 10.05 111 14.05 113 14.05 113 8.05 107 8.05" fill="#696e73"/><rect x="101" y="15.05" width="2" height="5" fill="#696e73"/><rect x="104" y="12.05" width="2" height="8" fill="#696e73"/><rect x="107" y="13.05" width="2" height="7" fill="#696e73"/><polygon points="12 24.05 12 8.05 28 16.05 12 24.05" fill="#696e73"/><polygon points="13.07 10.16 24.8 16.05 13.07 21.95 13.07 10.16" fill="#fff"/><polygon points="14.13 12.33 21.63 16.05 14.13 19.8 14.13 12.33" fill="#55a446"/><rect x="42" y="9.05" width="4" height="14" fill="#696e73" opacity="0.5"/><rect x="50" y="9.05" width="4" height="14" fill="#696e73" opacity="0.5"/><rect x="65.5" y="1.5" width="23" height="26" fill="#fff"/><path d="M88,2V27H66V2H88m1-1H65V28H89V1Z" fill="#4386b9"/><path d="M80.31,8H73.69L69,12.73v6.63L73.69,24h6.63L85,19.36V12.73ZM78.48,20.12l-1.64-2.65-1.67,2.65H73l2.7-4.07-2.64-4h2.27l1.58,2.51L78.54,12h2.18L78.06,16l2.7,4.15Z" fill="#c42126"/><rect x="473" y="14.03" width="2" height="1" fill="#696e73"/><polygon points="476 14.04 476 15.04 476 17.04 477 17.04 477 14.04 476 14.04" fill="#696e73"/><rect x="461" y="12.03" width="1" height="3" fill="#696e73"/><rect x="463" y="14.03" width="2" height="1" fill="#696e73"/><polygon points="461 9.04 461 11.04 462 11.04 462 10.04 463 10.04 463 9.05 464 9.05 464 10.04 466 10.04 466 9.04 461 9.04" fill="#696e73"/><rect x="320.5" y="1.5" width="23" height="26" fill="#fff"/><path d="M343,2V27H321V2h22m1-1H320V28h24V1Z" fill="#4386b9"/><path d="M337,11.55a5.5,5.5,0,0,0-11,0V14a7.75,7.75,0,0,1,2,4h3V15.19L329,12l1.2-1,1.3,3,1.37-3L334,12l-2,3.37V18h3a7.75,7.75,0,0,1,2-4Z" fill="#6a6f77"/><polygon points="330 21.05 330 21.05 330 22.05 333 22.05 333 21.05 333 21.05 330 21.05" fill="#6a6f77"/><polygon points="329 19.05 329 20.05 330 20.05 333 20.05 334 20.05 334 19.05 329 19.05" fill="#6a6f77"/><rect x="150" y="26.05" width="162" height="2" fill="#4384b7"/><rect x="855" y="0.05" width="3" height="1" fill="#8e9295"/><path d="M125,13h9l-4.5,6Z" fill="#4d5359" opacity="0.8"/><polygon points="518.53 13.75 516.94 13.75 516.94 12.15 516.14 12.15 516.14 13.75 514.55 13.75 514.55 14.55 516.14 14.55 516.14 16.14 516.94 16.14 516.94 14.55 518.53 14.55 518.53 13.75" fill="#696e73"/></symbol></defs><title>tips-infotip-minimum</title><rect x="0.5" y="0.5" width="123" height="59" fill="#fff"/><path d="M123,1V59H1V1H123m1-1H0V60H124V0Z" fill="#4d5359"/><path d="M13.85,20H12V11.6h1.89Z" fill="#2b3033"/><path d="M21.38,20H19.53V16.67q0-1.39-1-1.39a1,1,0,0,0-.79.37,1.41,1.41,0,0,0-.31.94V20H15.58V14h1.85v.95h0a2.12,2.12,0,0,1,1.93-1.1q2,0,2,2.47Z" fill="#2b3033"/><path d="M26.76,12.54a1.87,1.87,0,0,0-.69-.14q-.89,0-.89,1V14h1.37v1.37H25.18V20H23.33V15.37h-1V14h1v-.74A2.16,2.16,0,0,1,24,11.6,2.55,2.55,0,0,1,25.82,11a3.19,3.19,0,0,1,.94.12Z" fill="#2b3033"/><path d="M30.3,20.15a3.23,3.23,0,0,1-2.36-.84A3,3,0,0,1,27.08,17,3,3,0,0,1,28,14.69a3.37,3.37,0,0,1,2.41-.84,3.19,3.19,0,0,1,2.34.84,3,3,0,0,1,.85,2.22,3.17,3.17,0,0,1-.88,2.36A3.26,3.26,0,0,1,30.3,20.15Zm0-4.87a1.23,1.23,0,0,0-1,.45A2,2,0,0,0,29,17q0,1.73,1.39,1.73T31.69,17Q31.69,15.27,30.35,15.27Z" fill="#2b3033"/><path d="M44.17,13.14h-2.4V20h-1.9V13.14H37.49V11.6h6.68Z" fill="#2b3033"/><path d="M46.06,13.05a1.08,1.08,0,0,1-.77-.28.9.9,0,0,1-.3-.68.86.86,0,0,1,.3-.68,1.25,1.25,0,0,1,1.54,0,.87.87,0,0,1,.3.68.89.89,0,0,1-.3.69A1.1,1.1,0,0,1,46.06,13.05ZM47,20H45.12V14H47Z" fill="#2b3033"/><path d="M50.4,19.3h0v3.46H48.53V14h1.85v.9h0a2.36,2.36,0,0,1,3.73-.25,3.41,3.41,0,0,1,.64,2.18A3.69,3.69,0,0,1,54,19.24a2.42,2.42,0,0,1-2,.91A1.87,1.87,0,0,1,50.4,19.3Zm-.05-2.46v.48a1.53,1.53,0,0,0,.33,1,1.07,1.07,0,0,0,.86.39,1.14,1.14,0,0,0,1-.49,2.36,2.36,0,0,0,.35-1.39q0-1.58-1.23-1.58a1.16,1.16,0,0,0-.93.43A1.72,1.72,0,0,0,50.35,16.84Z" fill="#2b3033"/><path d="M16.46,44H12.1V35.6h1v7.51h3.38Z" fill="#2b3033"/><path d="M20.13,44.14A2.78,2.78,0,0,1,18,43.3a3.11,3.11,0,0,1-.79-2.23A3.24,3.24,0,0,1,18,38.71a3,3,0,0,1,2.23-.85,2.69,2.69,0,0,1,2.09.83A3.28,3.28,0,0,1,23.12,41a3.22,3.22,0,0,1-.81,2.3A2.84,2.84,0,0,1,20.13,44.14Zm.07-5.47a1.83,1.83,0,0,0-1.46.63A2.59,2.59,0,0,0,18.2,41a2.45,2.45,0,0,0,.54,1.68,1.85,1.85,0,0,0,1.46.62,1.76,1.76,0,0,0,1.43-.6,2.62,2.62,0,0,0,.5-1.72,2.66,2.66,0,0,0-.5-1.73A1.75,1.75,0,0,0,20.2,38.67Z" fill="#2b3033"/><path d="M27.78,39a1.18,1.18,0,0,0-.73-.19,1.23,1.23,0,0,0-1,.58,2.68,2.68,0,0,0-.41,1.58V44h-1V38h1v1.24h0a2.1,2.1,0,0,1,.63-1,1.43,1.43,0,0,1,.94-.35,1.57,1.57,0,0,1,.57.08Z" fill="#2b3033"/><path d="M33.49,41.24H29.25a2.24,2.24,0,0,0,.54,1.55,1.86,1.86,0,0,0,1.42.54,3,3,0,0,0,1.86-.67v.9a3.48,3.48,0,0,1-2.09.57,2.54,2.54,0,0,1-2-.82,3.35,3.35,0,0,1-.73-2.3A3.28,3.28,0,0,1,29,38.74a2.55,2.55,0,0,1,2-.88,2.26,2.26,0,0,1,1.82.76,3.18,3.18,0,0,1,.64,2.12Zm-1-.81a2,2,0,0,0-.4-1.29,1.37,1.37,0,0,0-1.1-.46,1.55,1.55,0,0,0-1.15.49,2.21,2.21,0,0,0-.59,1.27Z" fill="#2b3033"/><path d="M43.46,44h-1V40.55a2.6,2.6,0,0,0-.31-1.44,1.17,1.17,0,0,0-1-.45,1.28,1.28,0,0,0-1,.56,2.15,2.15,0,0,0-.43,1.35V44h-1V40.44q0-1.77-1.37-1.77a1.26,1.26,0,0,0-1,.53,2.19,2.19,0,0,0-.41,1.38V44h-1V38h1v.95h0a2,2,0,0,1,1.86-1.09,1.73,1.73,0,0,1,1.7,1.24,2.14,2.14,0,0,1,2-1.24q2,0,2,2.44Z" fill="#2b3033"/><path d="M49.06,36.48a.61.61,0,0,1-.44-.18.59.59,0,0,1-.18-.45.62.62,0,0,1,.62-.63.62.62,0,0,1,.45.18.63.63,0,0,1,0,.89A.62.62,0,0,1,49.06,36.48ZM49.53,44h-1V38h1Z" fill="#2b3033"/><path d="M52.46,43.13h0v3.63h-1V38h1v1.05h0a2.27,2.27,0,0,1,2.07-1.2,2.2,2.2,0,0,1,1.81.81A3.34,3.34,0,0,1,57,40.82a3.72,3.72,0,0,1-.73,2.41,2.44,2.44,0,0,1-2,.91A2,2,0,0,1,52.46,43.13Zm0-2.42v.84a1.78,1.78,0,0,0,.48,1.26,1.72,1.72,0,0,0,2.6-.15,3.06,3.06,0,0,0,.5-1.86,2.42,2.42,0,0,0-.46-1.57,1.53,1.53,0,0,0-1.25-.57,1.7,1.7,0,0,0-1.35.58A2.14,2.14,0,0,0,52.43,40.71Z" fill="#2b3033"/><path d="M58.16,43.78v-1a2.84,2.84,0,0,0,1.73.58q1.27,0,1.27-.84a.73.73,0,0,0-.11-.41,1.08,1.08,0,0,0-.29-.3,2.26,2.26,0,0,0-.43-.23l-.54-.21a6.9,6.9,0,0,1-.7-.32,2.12,2.12,0,0,1-.5-.36,1.35,1.35,0,0,1-.3-.46,1.63,1.63,0,0,1-.1-.6,1.43,1.43,0,0,1,.19-.75,1.71,1.71,0,0,1,.52-.54,2.4,2.4,0,0,1,.74-.33,3.26,3.26,0,0,1,.85-.11,3.44,3.44,0,0,1,1.39.27v1a2.72,2.72,0,0,0-1.52-.43,1.78,1.78,0,0,0-.49.06,1.19,1.19,0,0,0-.37.17.8.8,0,0,0-.24.27.7.7,0,0,0-.08.34.82.82,0,0,0,.08.39.86.86,0,0,0,.25.28,1.9,1.9,0,0,0,.4.22l.53.22a7.42,7.42,0,0,1,.71.31,2.45,2.45,0,0,1,.54.36,1.42,1.42,0,0,1,.34.47,1.5,1.5,0,0,1,.12.63,1.48,1.48,0,0,1-.2.77,1.68,1.68,0,0,1-.52.54,2.4,2.4,0,0,1-.76.32,3.73,3.73,0,0,1-.9.11A3.4,3.4,0,0,1,58.16,43.78Z" fill="#2b3033"/><path d="M68.47,44h-1v-.95h0a2,2,0,0,1-1.85,1.09q-2.14,0-2.14-2.55V38h1v3.43q0,1.9,1.45,1.9a1.47,1.47,0,0,0,1.16-.52,2,2,0,0,0,.45-1.36V38h1Z" fill="#2b3033"/><path d="M78.93,44H78V40.55a2.6,2.6,0,0,0-.31-1.44,1.17,1.17,0,0,0-1-.45,1.28,1.28,0,0,0-1,.56,2.15,2.15,0,0,0-.43,1.35V44h-1V40.44q0-1.77-1.37-1.77a1.26,1.26,0,0,0-1,.53,2.19,2.19,0,0,0-.41,1.38V44h-1V38h1v.95h0a2,2,0,0,1,1.86-1.09A1.73,1.73,0,0,1,75,39.1a2.14,2.14,0,0,1,2-1.24q2,0,2,2.44Z" fill="#2b3033"/><path d="M89.15,44h-1V43h0a2.22,2.22,0,0,1-2.06,1.16,2.24,2.24,0,0,1-1.81-.81,3.31,3.31,0,0,1-.68-2.19,3.6,3.6,0,0,1,.75-2.38,2.47,2.47,0,0,1,2-.9,1.92,1.92,0,0,1,1.8,1h0V35.12h1Zm-1-2.71V40.4a1.72,1.72,0,0,0-.48-1.23,1.61,1.61,0,0,0-1.22-.5,1.66,1.66,0,0,0-1.38.64,2.82,2.82,0,0,0-.5,1.78,2.54,2.54,0,0,0,.48,1.64,1.58,1.58,0,0,0,1.3.6,1.64,1.64,0,0,0,1.3-.58A2.16,2.16,0,0,0,88.19,41.29Z" fill="#2b3033"/><path d="M93.61,44.14a2.78,2.78,0,0,1-2.12-.84,3.11,3.11,0,0,1-.79-2.23,3.24,3.24,0,0,1,.83-2.36,3,3,0,0,1,2.23-.85,2.69,2.69,0,0,1,2.09.83A3.28,3.28,0,0,1,96.59,41a3.22,3.22,0,0,1-.81,2.3A2.84,2.84,0,0,1,93.61,44.14Zm.07-5.47a1.83,1.83,0,0,0-1.46.63A2.59,2.59,0,0,0,91.67,41a2.45,2.45,0,0,0,.54,1.68,1.85,1.85,0,0,0,1.46.62,1.76,1.76,0,0,0,1.43-.6,2.62,2.62,0,0,0,.5-1.72,2.66,2.66,0,0,0-.5-1.73A1.75,1.75,0,0,0,93.68,38.67Z" fill="#2b3033"/><path d="M99.09,44h-1V35.12h1Z" fill="#2b3033"/><path d="M103.54,44.14a2.78,2.78,0,0,1-2.12-.84,3.11,3.11,0,0,1-.79-2.23,3.24,3.24,0,0,1,.83-2.36,3,3,0,0,1,2.23-.85,2.69,2.69,0,0,1,2.09.83,3.28,3.28,0,0,1,.75,2.29,3.22,3.22,0,0,1-.81,2.3A2.84,2.84,0,0,1,103.54,44.14Zm.07-5.47a1.83,1.83,0,0,0-1.46.63,2.59,2.59,0,0,0-.54,1.74,2.45,2.45,0,0,0,.54,1.68,1.85,1.85,0,0,0,1.46.62,1.76,1.76,0,0,0,1.43-.6,2.62,2.62,0,0,0,.5-1.72,2.66,2.66,0,0,0-.5-1.73A1.75,1.75,0,0,0,103.61,38.67Z" fill="#2b3033"/><path d="M111.2,39a1.18,1.18,0,0,0-.73-.19,1.23,1.23,0,0,0-1,.58,2.68,2.68,0,0,0-.41,1.58V44h-1V38h1v1.24h0a2.1,2.1,0,0,1,.63-1,1.43,1.43,0,0,1,.94-.35,1.57,1.57,0,0,1,.57.08Z" fill="#2b3033"/><path d="M111.58,44.13a.62.62,0,0,1-.46-.19.64.64,0,0,1-.19-.46.65.65,0,0,1,.19-.47.62.62,0,0,1,.46-.2.63.63,0,0,1,.47.2.64.64,0,0,1,.19.47.63.63,0,0,1-.19.46A.64.64,0,0,1,111.58,44.13Z" fill="#2b3033"/><g clip-path="url(#clip-path)"><g clip-path="url(#clip-path-2)"><use id="toolbar-3" data-name="toolbar" width="858" height="30.05" transform="translate(88)" xlink:href="#toolbar"/></g></g></svg>