<svg id="Layer_1" data-name="Layer 1" xmlns="http://www.w3.org/2000/svg" xmlns:xlink="http://www.w3.org/1999/xlink" width="440" height="123" viewBox="0 0 440 123"><defs><clipPath id="clip-path"><rect x="67" y="-30.5" width="299" height="186" fill="none"/></clipPath><clipPath id="clip-path-2"><path d="M528,97.57V-20H-53l.22,117.5a8.65,8.65,0,0,1,4.84,1.76,39.9,39.9,0,0,1,4.84,4.24,39.28,39.28,0,0,0,4.84,4.25,8.6,8.6,0,0,0,4.84,1.75,8.58,8.58,0,0,0,4.84-1.75,40.67,40.67,0,0,0,4.84-4.24,39.16,39.16,0,0,1,4.84-4.24,8.65,8.65,0,0,1,4.84-1.76,8.67,8.67,0,0,1,4.84,1.76,40.67,40.67,0,0,1,4.84,4.24,39.28,39.28,0,0,0,4.84,4.25,8.6,8.6,0,0,0,4.83,1.75,8.53,8.53,0,0,0,4.84-1.75A40,40,0,0,0,15,103.52a39.16,39.16,0,0,1,4.84-4.24,8.62,8.62,0,0,1,4.84-1.76,8.67,8.67,0,0,1,4.84,1.76,39.84,39.84,0,0,1,4.83,4.24,41.72,41.72,0,0,0,4.84,4.25A8.66,8.66,0,0,0,44,109.52a8.6,8.6,0,0,0,4.84-1.75,39.16,39.16,0,0,0,4.84-4.24,40.67,40.67,0,0,1,4.84-4.24,8.67,8.67,0,0,1,4.84-1.76,8.62,8.62,0,0,1,4.84,1.76,39.16,39.16,0,0,1,4.84,4.24,41.72,41.72,0,0,0,4.84,4.25,7.57,7.57,0,0,0,9.68,0,39.9,39.9,0,0,0,4.84-4.24,40.67,40.67,0,0,1,4.84-4.24,7.54,7.54,0,0,1,9.68,0,39.16,39.16,0,0,1,4.84,4.24,40.91,40.91,0,0,0,4.84,4.25,7.57,7.57,0,0,0,9.68,0,39.9,39.9,0,0,0,4.84-4.24A39.9,39.9,0,0,1,136,99.31a7.53,7.53,0,0,1,9.68,0,39.9,39.9,0,0,1,4.84,4.24,40.13,40.13,0,0,0,4.84,4.25,7.57,7.57,0,0,0,9.68,0,40.67,40.67,0,0,0,4.84-4.24,40.91,40.91,0,0,1,4.84-4.25,7.55,7.55,0,0,1,9.68,0,40.67,40.67,0,0,1,4.84,4.24,39.16,39.16,0,0,0,4.84,4.24,8.55,8.55,0,0,0,4.84,1.76,8.66,8.66,0,0,0,4.84-1.75,40.67,40.67,0,0,0,4.84-4.24,39.28,39.28,0,0,1,4.84-4.25,7.55,7.55,0,0,1,9.68,0,40.67,40.67,0,0,1,4.84,4.24,39.16,39.16,0,0,0,4.84,4.24,7.53,7.53,0,0,0,9.68,0,40.67,40.67,0,0,0,4.84-4.24,39.16,39.16,0,0,1,4.84-4.24,7.53,7.53,0,0,1,9.68,0,39.9,39.9,0,0,1,4.84,4.24,39.9,39.9,0,0,0,4.84,4.24,7.54,7.54,0,0,0,9.68,0,40.67,40.67,0,0,0,4.84-4.24,39.16,39.16,0,0,1,4.84-4.24,7.53,7.53,0,0,1,9.68,0,40.67,40.67,0,0,1,4.84,4.24,39.16,39.16,0,0,0,4.84,4.24,7.53,7.53,0,0,0,9.68,0,40.67,40.67,0,0,0,4.84-4.24,39.16,39.16,0,0,1,4.84-4.24,7.53,7.53,0,0,1,9.68,0,39.84,39.84,0,0,1,4.83,4.24,40.67,40.67,0,0,0,4.84,4.24,7.54,7.54,0,0,0,9.68,0,39.16,39.16,0,0,0,4.84-4.24,40.67,40.67,0,0,1,4.84-4.24,7.53,7.53,0,0,1,9.68,0,39.16,39.16,0,0,1,4.84,4.24,40.67,40.67,0,0,0,4.84,4.24,7.53,7.53,0,0,0,9.68,0,39.16,39.16,0,0,0,4.84-4.24A40.67,40.67,0,0,1,407,99.33a7.54,7.54,0,0,1,9.68,0,39.9,39.9,0,0,1,4.84,4.24,39.9,39.9,0,0,0,4.84,4.24,7.54,7.54,0,0,0,9.68,0,39.9,39.9,0,0,0,4.84-4.24,39.9,39.9,0,0,1,4.84-4.24,7.53,7.53,0,0,1,9.68,0,39.9,39.9,0,0,1,4.84,4.24,39.9,39.9,0,0,0,4.84,4.24,7.53,7.53,0,0,0,9.68,0,39.9,39.9,0,0,0,4.84-4.24,39.9,39.9,0,0,1,4.84-4.24,7.54,7.54,0,0,1,9.68,0,40.67,40.67,0,0,1,4.84,4.24,39.16,39.16,0,0,0,4.84,4.24,7.54,7.54,0,0,0,9.68,0,40.67,40.67,0,0,0,4.84-4.24,39.16,39.16,0,0,1,4.84-4.24A8.62,8.62,0,0,1,528,97.57Z" fill="none"/></clipPath><symbol id="edit_menu" data-name="edit_menu" viewBox="0 0 256 395"><rect x="0.5" y="0.5" width="255" height="394" fill="#fff"/><path d="M255,1V394H1V1H255m1-1H0V395H256V0Z" fill="#4386b9"/><path d="M218.19,18.65a4.93,4.93,0,0,1-2.32.49A3.74,3.74,0,0,1,213,18a4.26,4.26,0,0,1-1.08-3,4.46,4.46,0,0,1,1.21-3.26,4.12,4.12,0,0,1,3.08-1.24,4.93,4.93,0,0,1,2,.35v1a4,4,0,0,0-2-.5,3.06,3.06,0,0,0-2.35,1,3.64,3.64,0,0,0-.9,2.58,3.47,3.47,0,0,0,.84,2.45,2.86,2.86,0,0,0,2.21.91,4.14,4.14,0,0,0,2.19-.56Z"/><path d="M222.56,18.94a1.85,1.85,0,0,1-.9.19q-1.58,0-1.58-1.76V13.82h-1V13h1V11.54l1-.31V13h1.51v.82H221V17.2a1.4,1.4,0,0,0,.21.86.82.82,0,0,0,.68.26,1,1,0,0,0,.63-.2Z"/><path d="M227,14a1.18,1.18,0,0,0-.73-.19,1.23,1.23,0,0,0-1,.58,2.68,2.68,0,0,0-.41,1.58V19h-1V13h1v1.24h0a2.1,2.1,0,0,1,.63-1,1.43,1.43,0,0,1,.94-.35A1.57,1.57,0,0,1,227,13Z"/><path d="M229,19h-1V10.12h1Z"/><path d="M236.81,15.89h-2.37v2.36h-.78V15.89h-2.36v-.79h2.36V12.75h.78v2.36h2.37Z"/><path d="M244.74,10.83l-4.92,7.28h4.8V19h-6.28v-.28l4.88-7.24h-4.49V10.6h6Z"/><path d="M218.4,44.65a4.93,4.93,0,0,1-2.32.49A3.74,3.74,0,0,1,213.21,44a4.26,4.26,0,0,1-1.08-3,4.46,4.46,0,0,1,1.21-3.26,4.12,4.12,0,0,1,3.08-1.24,4.93,4.93,0,0,1,2,.35v1a4,4,0,0,0-2-.5,3.06,3.06,0,0,0-2.35,1,3.64,3.64,0,0,0-.9,2.58,3.47,3.47,0,0,0,.84,2.45,2.86,2.86,0,0,0,2.21.91,4.14,4.14,0,0,0,2.19-.56Z"/><path d="M222.77,44.94a1.85,1.85,0,0,1-.9.19q-1.58,0-1.58-1.76V39.82h-1V39h1V37.54l1-.31V39h1.51v.82h-1.51V43.2a1.4,1.4,0,0,0,.21.86.82.82,0,0,0,.68.26,1,1,0,0,0,.63-.2Z"/><path d="M227.18,40a1.18,1.18,0,0,0-.73-.19,1.23,1.23,0,0,0-1,.58,2.68,2.68,0,0,0-.41,1.58V45h-1V39h1v1.24h0a2.1,2.1,0,0,1,.63-1,1.43,1.43,0,0,1,.94-.35,1.57,1.57,0,0,1,.57.08Z"/><path d="M229.19,45h-1V36.12h1Z"/><path d="M237,41.89h-2.37v2.36h-.78V41.89h-2.36v-.79h2.36V38.75h.78v2.36H237Z"/><path d="M244.93,36.6l-2.77,5.3V45h-1V41.92l-2.7-5.32h1.12l1.88,3.8s.09.22.21.52h0a3.08,3.08,0,0,1,.22-.52l2-3.8Z"/><path d="M218,81.65a4.93,4.93,0,0,1-2.32.49A3.74,3.74,0,0,1,212.77,81a4.26,4.26,0,0,1-1.08-3,4.46,4.46,0,0,1,1.21-3.26A4.12,4.12,0,0,1,216,73.46a4.93,4.93,0,0,1,2,.35v1a4,4,0,0,0-2-.5,3.06,3.06,0,0,0-2.35,1,3.64,3.64,0,0,0-.9,2.58,3.47,3.47,0,0,0,.84,2.45,2.86,2.86,0,0,0,2.21.91,4.14,4.14,0,0,0,2.19-.56Z"/><path d="M222.32,81.94a1.85,1.85,0,0,1-.9.19q-1.58,0-1.58-1.76V76.82h-1V76h1V74.54l1-.31V76h1.51v.82h-1.51V80.2a1.4,1.4,0,0,0,.21.86.82.82,0,0,0,.68.26,1,1,0,0,0,.63-.2Z"/><path d="M226.74,77a1.18,1.18,0,0,0-.73-.19,1.23,1.23,0,0,0-1,.58,2.68,2.68,0,0,0-.41,1.58V82h-1V76h1v1.24h0a2.1,2.1,0,0,1,.63-1,1.43,1.43,0,0,1,.94-.35,1.57,1.57,0,0,1,.57.08Z"/><path d="M228.74,82h-1V73.12h1Z"/><path d="M236.58,78.89h-2.37v2.36h-.78V78.89h-2.36v-.79h2.36V75.75h.78v2.36h2.37Z"/><path d="M244.82,82h-1.2l-1.93-3.22a2.88,2.88,0,0,1-.19-.42h0l-.2.42-2,3.22h-1.21l2.81-4.22L238.3,73.6h1.21l1.72,3a5.92,5.92,0,0,1,.3.59h0a6.47,6.47,0,0,1,.33-.61l1.79-2.93h1.13l-2.64,4.17Z"/><path d="M217.61,107.65a4.93,4.93,0,0,1-2.32.49,3.74,3.74,0,0,1-2.87-1.15,4.26,4.26,0,0,1-1.08-3,4.46,4.46,0,0,1,1.21-3.26,4.12,4.12,0,0,1,3.08-1.24,4.93,4.93,0,0,1,2,.35v1a4,4,0,0,0-2-.5,3.06,3.06,0,0,0-2.35,1,3.64,3.64,0,0,0-.9,2.58,3.47,3.47,0,0,0,.84,2.45,2.86,2.86,0,0,0,2.21.91,4.14,4.14,0,0,0,2.19-.56Z"/><path d="M222,107.94a1.85,1.85,0,0,1-.9.19q-1.58,0-1.58-1.76v-3.55h-1V102h1v-1.46l1-.31V102H222v.82h-1.51v3.38a1.4,1.4,0,0,0,.21.86.82.82,0,0,0,.68.26,1,1,0,0,0,.63-.2Z"/><path d="M226.38,103a1.18,1.18,0,0,0-.73-.19,1.23,1.23,0,0,0-1,.58,2.68,2.68,0,0,0-.41,1.58V108h-1v-6h1v1.24h0a2.1,2.1,0,0,1,.63-1,1.43,1.43,0,0,1,.94-.35,1.57,1.57,0,0,1,.57.08Z"/><path d="M228.39,108h-1V99.12h1Z"/><path d="M236.23,104.89h-2.37v2.36h-.78v-2.36h-2.36v-.79h2.36v-2.36h.78v2.36h2.37Z"/><path d="M244.39,107.65a4.93,4.93,0,0,1-2.32.49A3.74,3.74,0,0,1,239.2,107a4.26,4.26,0,0,1-1.08-3,4.46,4.46,0,0,1,1.21-3.26,4.12,4.12,0,0,1,3.08-1.24,4.93,4.93,0,0,1,2,.35v1a4,4,0,0,0-2-.5,3.06,3.06,0,0,0-2.35,1,3.64,3.64,0,0,0-.9,2.58,3.47,3.47,0,0,0,.84,2.45,2.86,2.86,0,0,0,2.21.91,4.14,4.14,0,0,0,2.19-.56Z"/><path d="M217.58,133.65a4.93,4.93,0,0,1-2.32.49,3.74,3.74,0,0,1-2.87-1.15,4.26,4.26,0,0,1-1.08-3,4.46,4.46,0,0,1,1.21-3.26,4.12,4.12,0,0,1,3.08-1.24,4.93,4.93,0,0,1,2,.35v1a4,4,0,0,0-2-.5,3.06,3.06,0,0,0-2.35,1,3.64,3.64,0,0,0-.9,2.58,3.47,3.47,0,0,0,.84,2.45,2.86,2.86,0,0,0,2.21.91,4.14,4.14,0,0,0,2.19-.56Z"/><path d="M221.95,133.94a1.85,1.85,0,0,1-.9.19q-1.58,0-1.58-1.76v-3.55h-1V128h1v-1.46l1-.31V128h1.51v.82h-1.51v3.38a1.4,1.4,0,0,0,.21.86.82.82,0,0,0,.68.26,1,1,0,0,0,.63-.2Z"/><path d="M226.36,129a1.18,1.18,0,0,0-.73-.19,1.23,1.23,0,0,0-1,.58,2.68,2.68,0,0,0-.41,1.58V134h-1v-6h1v1.24h0a2.1,2.1,0,0,1,.63-1,1.43,1.43,0,0,1,.94-.35,1.57,1.57,0,0,1,.57.08Z"/><path d="M228.37,134h-1v-8.88h1Z"/><path d="M236.21,130.89h-2.37v2.36h-.78v-2.36H230.7v-.79h2.36v-2.36h.78v2.36h2.37Z"/><path d="M244.89,125.6l-3.11,8.4H240.7l-3-8.4h1.1l2.33,6.66a4,4,0,0,1,.17.74h0a3.65,3.65,0,0,1,.19-.76l2.37-6.65Z"/><path d="M228.51,160v-8.4h2.32q4.44,0,4.44,4.1a4.13,4.13,0,0,1-1.23,3.13,4.58,4.58,0,0,1-3.3,1.18Zm1-7.51v6.62h1.25a3.56,3.56,0,0,0,2.57-.88,3.32,3.32,0,0,0,.92-2.51q0-3.23-3.43-3.23Z"/><path d="M241.61,157.24h-4.24a2.24,2.24,0,0,0,.54,1.55,1.86,1.86,0,0,0,1.42.54,3,3,0,0,0,1.86-.67v.9a3.48,3.48,0,0,1-2.09.57,2.54,2.54,0,0,1-2-.82,3.35,3.35,0,0,1-.73-2.3,3.28,3.28,0,0,1,.79-2.28,2.55,2.55,0,0,1,2-.88,2.26,2.26,0,0,1,1.82.76,3.18,3.18,0,0,1,.64,2.12Zm-1-.81a2,2,0,0,0-.4-1.29,1.37,1.37,0,0,0-1.1-.46,1.55,1.55,0,0,0-1.15.49,2.21,2.21,0,0,0-.59,1.27Z"/><path d="M244,160h-1v-8.88h1Z"/><path d="M217.3,196.65a4.93,4.93,0,0,1-2.32.49,3.74,3.74,0,0,1-2.87-1.15,4.26,4.26,0,0,1-1.08-3,4.46,4.46,0,0,1,1.21-3.26,4.12,4.12,0,0,1,3.08-1.24,4.93,4.93,0,0,1,2,.35v1a4,4,0,0,0-2-.5,3.06,3.06,0,0,0-2.35,1,3.64,3.64,0,0,0-.9,2.58,3.47,3.47,0,0,0,.84,2.45,2.86,2.86,0,0,0,2.21.91,4.14,4.14,0,0,0,2.19-.56Z"/><path d="M221.66,196.94a1.85,1.85,0,0,1-.9.19q-1.58,0-1.58-1.76v-3.55h-1V191h1v-1.46l1-.31V191h1.51v.82h-1.51v3.38a1.4,1.4,0,0,0,.21.86.82.82,0,0,0,.68.26,1,1,0,0,0,.63-.2Z"/><path d="M226.07,192a1.18,1.18,0,0,0-.73-.19,1.23,1.23,0,0,0-1,.58,2.68,2.68,0,0,0-.41,1.58V197h-1v-6h1v1.24h0a2.1,2.1,0,0,1,.63-1,1.43,1.43,0,0,1,.94-.35,1.57,1.57,0,0,1,.57.08Z"/><path d="M228.08,197h-1v-8.88h1Z"/><path d="M235.92,193.89h-2.37v2.36h-.78v-2.36h-2.36v-.79h2.36v-2.36h.78v2.36h2.37Z"/><path d="M244.87,197h-1.09l-.89-2.36h-3.56l-.84,2.36h-1.1l3.22-8.4h1Zm-2.3-3.24-1.32-3.58a3.43,3.43,0,0,1-.13-.56h0a3.14,3.14,0,0,1-.13.56l-1.31,3.58Z"/><path d="M198.92,233.65a4.93,4.93,0,0,1-2.32.49,3.74,3.74,0,0,1-2.87-1.15,4.26,4.26,0,0,1-1.08-3,4.46,4.46,0,0,1,1.21-3.26,4.12,4.12,0,0,1,3.08-1.24,4.93,4.93,0,0,1,2,.35v1a4,4,0,0,0-2-.5,3.06,3.06,0,0,0-2.35,1,3.64,3.64,0,0,0-.9,2.58,3.47,3.47,0,0,0,.84,2.45,2.86,2.86,0,0,0,2.21.91,4.14,4.14,0,0,0,2.19-.56Z"/><path d="M203.29,233.94a1.85,1.85,0,0,1-.9.19q-1.58,0-1.58-1.76v-3.55h-1V228h1v-1.46l1-.31V228h1.51v.82h-1.51v3.38a1.4,1.4,0,0,0,.21.86.82.82,0,0,0,.68.26,1,1,0,0,0,.63-.2Z"/><path d="M207.7,229a1.18,1.18,0,0,0-.73-.19,1.23,1.23,0,0,0-1,.58,2.68,2.68,0,0,0-.41,1.58V234h-1v-6h1v1.24h0a2.1,2.1,0,0,1,.63-1,1.43,1.43,0,0,1,.94-.35,1.57,1.57,0,0,1,.57.08Z"/><path d="M209.7,234h-1v-8.88h1Z"/><path d="M217.54,230.89h-2.37v2.36h-.78v-2.36H212v-.79h2.36v-2.36h.78v2.36h2.37Z"/><path d="M226.49,234H225.4l-.89-2.36h-3.56l-.84,2.36H219l3.22-8.4h1Zm-2.3-3.24-1.32-3.58a3.43,3.43,0,0,1-.13-.56h0a3.14,3.14,0,0,1-.13.56l-1.31,3.58Z"/><path d="M228.56,234h-1v-8.88h1Z"/><path d="M233.29,233.94a1.85,1.85,0,0,1-.9.19q-1.58,0-1.58-1.76v-3.55h-1V228h1v-1.46l1-.31V228h1.51v.82h-1.51v3.38a1.4,1.4,0,0,0,.21.86.82.82,0,0,0,.68.26,1,1,0,0,0,.63-.2Z"/><path d="M240.46,230.89H238.1v2.36h-.78v-2.36H235v-.79h2.36v-2.36h.78v2.36h2.37Z"/><path d="M243.89,234h-1v-8.4h1Z"/><path d="M219.18,359.65a4.93,4.93,0,0,1-2.32.49A3.74,3.74,0,0,1,214,359a4.26,4.26,0,0,1-1.08-3,4.46,4.46,0,0,1,1.21-3.26,4.12,4.12,0,0,1,3.08-1.24,4.93,4.93,0,0,1,2,.35v1a4,4,0,0,0-2-.5,3.06,3.06,0,0,0-2.35,1,3.64,3.64,0,0,0-.9,2.58,3.47,3.47,0,0,0,.84,2.45,2.86,2.86,0,0,0,2.21.91,4.14,4.14,0,0,0,2.19-.56Z"/><path d="M223.54,359.94a1.85,1.85,0,0,1-.9.19q-1.58,0-1.58-1.76v-3.55h-1V354h1v-1.46l1-.31V354h1.51v.82H222v3.38a1.4,1.4,0,0,0,.21.86.82.82,0,0,0,.68.26,1,1,0,0,0,.63-.2Z"/><path d="M228,355a1.18,1.18,0,0,0-.73-.19,1.23,1.23,0,0,0-1,.58,2.68,2.68,0,0,0-.41,1.58V360h-1v-6h1v1.24h0a2.1,2.1,0,0,1,.63-1,1.43,1.43,0,0,1,.94-.35,1.57,1.57,0,0,1,.57.08Z"/><path d="M230,360h-1v-8.88h1Z"/><path d="M237.8,356.89h-2.37v2.36h-.78v-2.36h-2.36v-.79h2.36v-2.36h.78v2.36h2.37Z"/><path d="M244.51,352.49h-3.28v2.91h3v.88h-3V360h-1v-8.4h4.27Z"/><path d="M186.86,385.65a4.93,4.93,0,0,1-2.32.49,3.74,3.74,0,0,1-2.87-1.15,4.26,4.26,0,0,1-1.08-3,4.46,4.46,0,0,1,1.21-3.26,4.12,4.12,0,0,1,3.08-1.24,4.93,4.93,0,0,1,2,.35v1a4,4,0,0,0-2-.5,3.06,3.06,0,0,0-2.35,1,3.64,3.64,0,0,0-.9,2.58,3.47,3.47,0,0,0,.84,2.45,2.86,2.86,0,0,0,2.21.91,4.14,4.14,0,0,0,2.19-.56Z"/><path d="M191.22,385.94a1.85,1.85,0,0,1-.9.19q-1.58,0-1.58-1.76v-3.55h-1V380h1v-1.46l1-.31V380h1.51v.82h-1.51v3.38a1.4,1.4,0,0,0,.21.86.82.82,0,0,0,.68.26,1,1,0,0,0,.63-.2Z"/><path d="M195.63,381a1.18,1.18,0,0,0-.73-.19,1.23,1.23,0,0,0-1,.58,2.68,2.68,0,0,0-.41,1.58V386h-1v-6h1v1.24h0a2.1,2.1,0,0,1,.63-1,1.43,1.43,0,0,1,.94-.35,1.57,1.57,0,0,1,.57.08Z"/><path d="M197.64,386h-1v-8.88h1Z"/><path d="M205.48,382.89h-2.37v2.36h-.78v-2.36H200v-.79h2.36v-2.36h.78v2.36h2.37Z"/><path d="M207.53,385.66V384.5a2.25,2.25,0,0,0,.48.32,3.87,3.87,0,0,0,.59.24,4.66,4.66,0,0,0,.62.15,3.45,3.45,0,0,0,.57.05,2.25,2.25,0,0,0,1.36-.34,1.26,1.26,0,0,0,.3-1.56,1.68,1.68,0,0,0-.41-.46,4.1,4.1,0,0,0-.62-.4l-.78-.4q-.44-.22-.82-.45a3.55,3.55,0,0,1-.66-.5,2.1,2.1,0,0,1-.44-.62,2.13,2.13,0,0,1,.09-1.82,2.16,2.16,0,0,1,.66-.7,3,3,0,0,1,.93-.41,4.28,4.28,0,0,1,1.07-.13,4.1,4.1,0,0,1,1.81.3v1.11a3.28,3.28,0,0,0-1.91-.52,3.14,3.14,0,0,0-.64.07,1.82,1.82,0,0,0-.57.22,1.27,1.27,0,0,0-.41.39,1,1,0,0,0-.16.59,1.21,1.21,0,0,0,.12.56,1.36,1.36,0,0,0,.35.43,3.53,3.53,0,0,0,.57.38l.78.4q.45.22.86.47a3.91,3.91,0,0,1,.71.54,2.42,2.42,0,0,1,.48.66,1.86,1.86,0,0,1,.18.83,2.11,2.11,0,0,1-.24,1.05,2,2,0,0,1-.66.7,2.87,2.87,0,0,1-1,.39,5.21,5.21,0,0,1-1.14.12l-.49,0-.6-.09a4.88,4.88,0,0,1-.58-.15A1.8,1.8,0,0,1,207.53,385.66Z"/><path d="M219.15,386h-1v-3.46q0-1.87-1.39-1.87a1.52,1.52,0,0,0-1.18.54,2,2,0,0,0-.48,1.39V386h-1v-8.88h1V381h0a2.18,2.18,0,0,1,2-1.14q2,0,2,2.44Z"/><path d="M221.45,378.48a.61.61,0,0,1-.44-.18.59.59,0,0,1-.18-.45.62.62,0,0,1,.62-.63.62.62,0,0,1,.45.18.63.63,0,0,1,0,.89A.62.62,0,0,1,221.45,378.48Zm.47,7.52h-1v-6h1Z"/><path d="M226.83,378a1.28,1.28,0,0,0-.64-.16q-1,0-1,1.27V380h1.41v.82h-1.41V386h-1v-5.18h-1V380h1v-1a2,2,0,0,1,.54-1.49,1.84,1.84,0,0,1,1.36-.55,1.88,1.88,0,0,1,.7.11Z"/><path d="M230.62,385.94a1.85,1.85,0,0,1-.9.19q-1.58,0-1.58-1.76v-3.55h-1V380h1v-1.46l1-.31V380h1.51v.82h-1.51v3.38a1.4,1.4,0,0,0,.21.86.82.82,0,0,0,.68.26,1,1,0,0,0,.63-.2Z"/><path d="M237.8,382.89h-2.37v2.36h-.78v-2.36h-2.36v-.79h2.36v-2.36h.78v2.36h2.37Z"/><path d="M244.51,378.49h-3.28v2.91h3v.88h-3V386h-1v-8.4h4.27Z"/><rect x="4" y="58" width="248" height="1" fill="#a9acaf"/><rect x="4" y="173" width="248" height="1" fill="#a9acaf"/><rect x="4" y="210" width="248" height="1" fill="#a9acaf"/><rect x="4" y="247" width="248" height="1" fill="#a9acaf"/><rect x="4" y="336" width="248" height="1" fill="#a9acaf"/><path d="M8,9V19l9-4-4-1s3.52-6.64,9-3c0,0-5.23-7.29-12,1Z" fill="#696e73"/><path d="M22,35V45l-9-4,4-1s-3.52-6.64-9-3c0,0,5.23-7.29,12,1Z" fill="#696e73"/><path d="M21.69,82.94s-2.31-2.92-5-6.08l.53-1.36a1.79,1.79,0,0,0,1.4-.15c.62-.4,1.55-3.19.49-5.07s-1.81-1.21-2.26-.9-1.18,2.74-1.86,5.5c-2.62-3-5.19-5.73-6-5.77s-2-.28-2,2.53,3.08,5.2,4.05,5.23a1.92,1.92,0,0,0,1.52-.68l1.77,1.6c-.67,3-1.19,5.66-1.19,5.66L13.58,85c0-.1,1.22-3.22,2.24-5.86,2.76,2.51,6.29,5.71,6.37,5.83ZM16.94,72.66c.21-.84.71-1.44,1.11-1.33s.57.87.36,1.71-.71,1.44-1.11,1.33S16.74,73.5,16.94,72.66Zm-5.22,2.27c-.51.38-1.55-.14-2.32-1.16s-1-2.17-.46-2.55,1.55.14,2.32,1.16S12.24,74.54,11.72,74.92Z" fill="#696e73"/><path d="M17,101V96H7v9h6v5H23v-9Zm-4,3H8V97h8v4H13Zm9,5H14v-7h8Z" fill="#696e73"/><rect x="15" y="104" width="6" height="1" fill="#696e73"/><rect x="15" y="106" width="6" height="1" fill="#696e73"/><rect x="9" y="101" width="3" height="1" fill="#696e73"/><rect x="9" y="99" width="6" height="1" fill="#696e73"/><polygon points="20 123 21 124 21 124 21 136 9 136 9 124 9 124 10 123 8 123 8 137 22 137 22 123 20 123" fill="#696e73"/><path d="M19,125l-1-2H16v-1.07a.93.93,0,0,0-.93-.93h-.13a.93.93,0,0,0-.93.93V123H12l-1,2Z" fill="#696e73"/><polygon points="20.66 150.76 19.24 149.34 15 153.59 10.76 149.34 9.34 150.76 13.59 155 9.34 159.24 10.76 160.66 15 156.41 19.24 160.66 20.66 159.24 16.41 155 20.66 150.76" fill="#696e73"/></symbol></defs><title>menus-access_shortcut</title><g clip-path="url(#clip-path)"><g clip-path="url(#clip-path-2)"><use width="256" height="395" transform="translate(89)" xlink:href="#edit_menu"/><path d="M127.25,15.6q0,3.54-3.19,3.54T121,15.74V10.6h1v5.07q0,2.58,2.18,2.58t2.1-2.5V10.6h1Z"/><path d="M134.2,19h-1V15.58q0-1.91-1.39-1.91a1.51,1.51,0,0,0-1.19.54,2,2,0,0,0-.47,1.37V19h-1V13h1v1h0a2.17,2.17,0,0,1,2-1.14,1.84,1.84,0,0,1,1.51.64,2.83,2.83,0,0,1,.52,1.84Z"/><path d="M141.13,19h-1V18h0a2.22,2.22,0,0,1-2.06,1.16,2.24,2.24,0,0,1-1.81-.81,3.31,3.31,0,0,1-.68-2.19,3.6,3.6,0,0,1,.75-2.38,2.47,2.47,0,0,1,2-.9,1.92,1.92,0,0,1,1.8,1h0V10.12h1Zm-1-2.71V15.4a1.72,1.72,0,0,0-.48-1.23,1.61,1.61,0,0,0-1.22-.5,1.66,1.66,0,0,0-1.38.64,2.82,2.82,0,0,0-.5,1.78,2.54,2.54,0,0,0,.48,1.64,1.58,1.58,0,0,0,1.3.6,1.64,1.64,0,0,0,1.3-.58A2.16,2.16,0,0,0,140.17,16.29Z"/><path d="M145.58,19.14a2.78,2.78,0,0,1-2.12-.84,3.11,3.11,0,0,1-.79-2.23,3.24,3.24,0,0,1,.83-2.36,3,3,0,0,1,2.23-.85,2.69,2.69,0,0,1,2.09.83,3.28,3.28,0,0,1,.75,2.29,3.22,3.22,0,0,1-.81,2.3A2.84,2.84,0,0,1,145.58,19.14Zm.07-5.47a1.83,1.83,0,0,0-1.46.63,2.59,2.59,0,0,0-.54,1.74,2.45,2.45,0,0,0,.54,1.68,1.85,1.85,0,0,0,1.46.62,1.76,1.76,0,0,0,1.43-.6,2.62,2.62,0,0,0,.5-1.72,2.66,2.66,0,0,0-.5-1.73A1.75,1.75,0,0,0,145.65,13.67Z"/><path d="M120,20.39v-.7h8.24v.7Z"/><path d="M127.13,45H126l-1.41-2.36a5.13,5.13,0,0,0-.37-.56,2.14,2.14,0,0,0-.37-.38,1.29,1.29,0,0,0-.41-.21,1.69,1.69,0,0,0-.5-.07h-.81V45h-1V36.6h2.51a3.57,3.57,0,0,1,1,.14,2.27,2.27,0,0,1,.81.42,2,2,0,0,1,.54.7,2.32,2.32,0,0,1,.19,1,2.36,2.36,0,0,1-.13.81,2.1,2.1,0,0,1-.37.65,2.27,2.27,0,0,1-.59.49,3,3,0,0,1-.77.31v0a1.77,1.77,0,0,1,.37.21,2,2,0,0,1,.3.28,3.76,3.76,0,0,1,.28.37l.31.48Zm-5-7.51v3h1.34a2,2,0,0,0,.68-.11,1.58,1.58,0,0,0,.54-.32,1.45,1.45,0,0,0,.36-.51,1.71,1.71,0,0,0,.13-.68,1.32,1.32,0,0,0-.44-1.05,1.88,1.88,0,0,0-1.26-.38Z"/><path d="M132.64,42.24H128.4a2.24,2.24,0,0,0,.54,1.55,1.86,1.86,0,0,0,1.42.54,3,3,0,0,0,1.86-.67v.9a3.48,3.48,0,0,1-2.09.57,2.54,2.54,0,0,1-2-.82,3.35,3.35,0,0,1-.73-2.3,3.28,3.28,0,0,1,.79-2.28,2.55,2.55,0,0,1,2-.88,2.26,2.26,0,0,1,1.82.76,3.18,3.18,0,0,1,.64,2.12Zm-1-.81a2,2,0,0,0-.4-1.29,1.37,1.37,0,0,0-1.1-.46,1.55,1.55,0,0,0-1.15.49,2.21,2.21,0,0,0-.59,1.27Z"/><path d="M139.21,45h-1V44h0a2.22,2.22,0,0,1-2.06,1.16,2.24,2.24,0,0,1-1.81-.81,3.31,3.31,0,0,1-.68-2.19,3.6,3.6,0,0,1,.75-2.38,2.47,2.47,0,0,1,2-.9,1.92,1.92,0,0,1,1.8,1h0V36.12h1Zm-1-2.71V41.4a1.72,1.72,0,0,0-.48-1.23,1.61,1.61,0,0,0-1.22-.5,1.66,1.66,0,0,0-1.38.64,2.82,2.82,0,0,0-.5,1.78,2.54,2.54,0,0,0,.48,1.64,1.58,1.58,0,0,0,1.3.6,1.64,1.64,0,0,0,1.3-.58A2.16,2.16,0,0,0,138.25,42.29Z"/><path d="M143.67,45.14a2.78,2.78,0,0,1-2.12-.84,3.11,3.11,0,0,1-.79-2.23,3.24,3.24,0,0,1,.83-2.36,3,3,0,0,1,2.23-.85,2.69,2.69,0,0,1,2.09.83,3.28,3.28,0,0,1,.75,2.29,3.22,3.22,0,0,1-.81,2.3A2.84,2.84,0,0,1,143.67,45.14Zm.07-5.47a1.83,1.83,0,0,0-1.46.63,2.59,2.59,0,0,0-.54,1.74,2.45,2.45,0,0,0,.54,1.68,1.85,1.85,0,0,0,1.46.62,1.76,1.76,0,0,0,1.43-.6,2.62,2.62,0,0,0,.5-1.72,2.66,2.66,0,0,0-.5-1.73A1.75,1.75,0,0,0,143.74,39.67Z"/><path d="M120,46.39v-.7h6.84v.7Z"/><path d="M126.82,81.65a4.93,4.93,0,0,1-2.32.49A3.74,3.74,0,0,1,121.63,81a4.26,4.26,0,0,1-1.08-3,4.46,4.46,0,0,1,1.21-3.26,4.12,4.12,0,0,1,3.08-1.24,4.93,4.93,0,0,1,2,.35v1a4,4,0,0,0-2-.5,3.06,3.06,0,0,0-2.35,1,3.64,3.64,0,0,0-.9,2.58,3.47,3.47,0,0,0,.84,2.45,2.86,2.86,0,0,0,2.21.91,4.14,4.14,0,0,0,2.19-.56Z"/><path d="M133.25,82h-1v-.95h0a2,2,0,0,1-1.85,1.09q-2.14,0-2.14-2.55V76h1v3.43q0,1.9,1.45,1.9a1.47,1.47,0,0,0,1.16-.52,2,2,0,0,0,.45-1.36V76h1Z"/><path d="M138,81.94a1.85,1.85,0,0,1-.9.19q-1.58,0-1.58-1.76V76.82h-1V76h1V74.54l1-.31V76H138v.82h-1.51V80.2a1.4,1.4,0,0,0,.21.86.82.82,0,0,0,.68.26,1,1,0,0,0,.63-.2Z"/><path d="M134.22,83.39v-.7h4.07v.7Z"/><path d="M126.82,107.65a4.93,4.93,0,0,1-2.32.49,3.74,3.74,0,0,1-2.87-1.15,4.26,4.26,0,0,1-1.08-3,4.46,4.46,0,0,1,1.21-3.26,4.12,4.12,0,0,1,3.08-1.24,4.93,4.93,0,0,1,2,.35v1a4,4,0,0,0-2-.5,3.06,3.06,0,0,0-2.35,1,3.64,3.64,0,0,0-.9,2.58,3.47,3.47,0,0,0,.84,2.45,2.86,2.86,0,0,0,2.21.91,4.14,4.14,0,0,0,2.19-.56Z"/><path d="M130.91,108.14a2.78,2.78,0,0,1-2.12-.84,3.11,3.11,0,0,1-.79-2.23,3.24,3.24,0,0,1,.83-2.36,3,3,0,0,1,2.23-.85,2.69,2.69,0,0,1,2.09.83,3.28,3.28,0,0,1,.75,2.29,3.22,3.22,0,0,1-.81,2.3A2.84,2.84,0,0,1,130.91,108.14Zm.07-5.47a1.83,1.83,0,0,0-1.46.63A2.59,2.59,0,0,0,129,105a2.45,2.45,0,0,0,.54,1.68,1.85,1.85,0,0,0,1.46.62,1.76,1.76,0,0,0,1.43-.6,2.62,2.62,0,0,0,.5-1.72,2.66,2.66,0,0,0-.5-1.73A1.75,1.75,0,0,0,131,102.67Z"/><path d="M136.42,107.13h0v3.63h-1V102h1v1.05h0a2.27,2.27,0,0,1,2.07-1.2,2.2,2.2,0,0,1,1.81.81,3.34,3.34,0,0,1,.65,2.16,3.72,3.72,0,0,1-.73,2.41,2.44,2.44,0,0,1-2,.91A2,2,0,0,1,136.42,107.13Zm0-2.42v.84a1.78,1.78,0,0,0,.48,1.26,1.72,1.72,0,0,0,2.6-.15,3.06,3.06,0,0,0,.5-1.86,2.42,2.42,0,0,0-.46-1.57,1.53,1.53,0,0,0-1.25-.57,1.7,1.7,0,0,0-1.35.58A2.14,2.14,0,0,0,136.39,104.71Z"/><path d="M147.26,102l-2.76,7q-.74,1.86-2.07,1.86a2.2,2.2,0,0,1-.63-.08v-.86a1.78,1.78,0,0,0,.57.11,1.18,1.18,0,0,0,1.09-.87l.48-1.14-2.34-6h1.07l1.62,4.62q0,.09.12.46h0q0-.14.12-.45l1.71-4.63Z"/><path d="M120,109.39v-.7h7.43v.7Z"/></g><path d="M-28,107.33c2,0,2.64-2.25,4.26-3.82a39.16,39.16,0,0,1,4.84-4.24,8.65,8.65,0,0,1,4.84-1.76,8.67,8.67,0,0,1,4.84,1.76,40.67,40.67,0,0,1,4.84,4.24,39.28,39.28,0,0,0,4.84,4.25,8.6,8.6,0,0,0,4.83,1.75,8.53,8.53,0,0,0,4.84-1.75A40,40,0,0,0,15,103.52a39.16,39.16,0,0,1,4.84-4.24,8.62,8.62,0,0,1,4.84-1.76,8.67,8.67,0,0,1,4.84,1.76,39.84,39.84,0,0,1,4.83,4.24,41.72,41.72,0,0,0,4.84,4.25A8.66,8.66,0,0,0,44,109.52a8.6,8.6,0,0,0,4.84-1.75,39.16,39.16,0,0,0,4.84-4.24,40.67,40.67,0,0,1,4.84-4.24,8.67,8.67,0,0,1,4.84-1.76,8.62,8.62,0,0,1,4.84,1.76,39.16,39.16,0,0,1,4.84,4.24,41.72,41.72,0,0,0,4.84,4.25,7.57,7.57,0,0,0,9.68,0,39.9,39.9,0,0,0,4.84-4.24,40.67,40.67,0,0,1,4.84-4.24,7.54,7.54,0,0,1,9.68,0,39.16,39.16,0,0,1,4.84,4.24,40.91,40.91,0,0,0,4.84,4.25,7.57,7.57,0,0,0,9.68,0,39.9,39.9,0,0,0,4.84-4.24A39.9,39.9,0,0,1,136,99.31a7.53,7.53,0,0,1,9.68,0,39.9,39.9,0,0,1,4.84,4.24,40.13,40.13,0,0,0,4.84,4.25,7.57,7.57,0,0,0,9.68,0,40.67,40.67,0,0,0,4.84-4.24,40.91,40.91,0,0,1,4.84-4.25,7.55,7.55,0,0,1,9.68,0,40.67,40.67,0,0,1,4.84,4.24,39.16,39.16,0,0,0,4.84,4.24,8.55,8.55,0,0,0,4.84,1.76,8.66,8.66,0,0,0,4.84-1.75,40.67,40.67,0,0,0,4.84-4.24,39.28,39.28,0,0,1,4.84-4.25,7.55,7.55,0,0,1,9.68,0,40.67,40.67,0,0,1,4.84,4.24,39.16,39.16,0,0,0,4.84,4.24,7.53,7.53,0,0,0,9.68,0,40.67,40.67,0,0,0,4.84-4.24,39.16,39.16,0,0,1,4.84-4.24,7.53,7.53,0,0,1,9.68,0,39.9,39.9,0,0,1,4.84,4.24,39.9,39.9,0,0,0,4.84,4.24,7.54,7.54,0,0,0,9.68,0,40.67,40.67,0,0,0,4.84-4.24,39.16,39.16,0,0,1,4.84-4.24,7.53,7.53,0,0,1,9.68,0,40.67,40.67,0,0,1,4.84,4.24,39.16,39.16,0,0,0,4.84,4.24,7.53,7.53,0,0,0,9.68,0,40.67,40.67,0,0,0,4.84-4.24,39.16,39.16,0,0,1,4.84-4.24,7.53,7.53,0,0,1,9.68,0,39.84,39.84,0,0,1,4.83,4.24,40.67,40.67,0,0,0,4.84,4.24,7.54,7.54,0,0,0,9.68,0,39.16,39.16,0,0,0,4.84-4.24,40.67,40.67,0,0,1,4.84-4.24,7.53,7.53,0,0,1,9.68,0,39.16,39.16,0,0,1,4.84,4.24,40.67,40.67,0,0,0,4.84,4.24,7.53,7.53,0,0,0,9.68,0,39.16,39.16,0,0,0,4.84-4.24A40.67,40.67,0,0,1,407,99.33a7.54,7.54,0,0,1,9.68,0,39.9,39.9,0,0,1,4.84,4.24,39.9,39.9,0,0,0,4.84,4.24,7.54,7.54,0,0,0,9.68,0,39.9,39.9,0,0,0,4.84-4.24,39.9,39.9,0,0,1,4.84-4.24,7.53,7.53,0,0,1,9.68,0,39.9,39.9,0,0,1,4.84,4.24,39.9,39.9,0,0,0,4.84,4.24,7.53,7.53,0,0,0,9.68,0,39.9,39.9,0,0,0,4.84-4.24,39.9,39.9,0,0,1,4.84-4.24,7.54,7.54,0,0,1,9.68,0,40.67,40.67,0,0,1,4.84,4.24,39.16,39.16,0,0,0,4.84,4.24,7.54,7.54,0,0,0,9.68,0,40.67,40.67,0,0,0,4.84-4.24c1.61-1.57,2.88-4.24,4.84-4.24" fill="none" stroke="#adaead" stroke-miterlimit="10"/></g><path d="M17,23.2H16L15.17,21H11.91l-.77,2.16h-1l3-7.7H14Zm-2.11-3-1.21-3.28a3,3,0,0,1-.12-.52h0a2.89,2.89,0,0,1-.12.52l-1.2,3.28Z" fill="#ec008c"/><path d="M21.75,22.94a2.86,2.86,0,0,1-1.5.38,2.49,2.49,0,0,1-1.9-.77,2.77,2.77,0,0,1-.72-2,3,3,0,0,1,.78-2.18,2.73,2.73,0,0,1,2.08-.82,2.89,2.89,0,0,1,1.28.27v.9a2.24,2.24,0,0,0-1.31-.43,1.77,1.77,0,0,0-1.38.6,2.29,2.29,0,0,0-.54,1.59A2.19,2.19,0,0,0,19,22a1.75,1.75,0,0,0,1.36.56,2.2,2.2,0,0,0,1.35-.48Z" fill="#ec008c"/><path d="M26.84,22.94a2.86,2.86,0,0,1-1.5.38,2.48,2.48,0,0,1-1.9-.77,2.77,2.77,0,0,1-.72-2,3.05,3.05,0,0,1,.78-2.18,2.72,2.72,0,0,1,2.08-.82,2.89,2.89,0,0,1,1.28.27v.9a2.24,2.24,0,0,0-1.31-.43,1.77,1.77,0,0,0-1.38.6,2.29,2.29,0,0,0-.54,1.59A2.18,2.18,0,0,0,24.12,22a1.75,1.75,0,0,0,1.36.56,2.21,2.21,0,0,0,1.35-.48Z" fill="#ec008c"/><path d="M32.59,20.67H28.71a2.05,2.05,0,0,0,.49,1.42,1.7,1.7,0,0,0,1.3.5A2.7,2.7,0,0,0,32.21,22v.83a3.19,3.19,0,0,1-1.92.53,2.33,2.33,0,0,1-1.83-.75,3.07,3.07,0,0,1-.67-2.11,3,3,0,0,1,.73-2.09,2.33,2.33,0,0,1,1.81-.81,2.07,2.07,0,0,1,1.67.7,2.91,2.91,0,0,1,.59,1.94Zm-.9-.75a1.8,1.8,0,0,0-.37-1.19,1.26,1.26,0,0,0-1-.42,1.42,1.42,0,0,0-1.06.45,2,2,0,0,0-.54,1.17Z" fill="#ec008c"/><path d="M33.59,23v-.95a2.61,2.61,0,0,0,1.58.53q1.16,0,1.16-.77a.67.67,0,0,0-.1-.37,1,1,0,0,0-.27-.27,2.08,2.08,0,0,0-.4-.21l-.49-.2a6.34,6.34,0,0,1-.64-.29,1.92,1.92,0,0,1-.46-.33,1.24,1.24,0,0,1-.28-.42,1.5,1.5,0,0,1-.09-.55,1.3,1.3,0,0,1,.18-.68,1.56,1.56,0,0,1,.47-.5,2.2,2.2,0,0,1,.67-.3,3,3,0,0,1,.78-.1,3.16,3.16,0,0,1,1.28.25v.89a2.49,2.49,0,0,0-1.4-.4,1.62,1.62,0,0,0-.45.06,1.09,1.09,0,0,0-.34.16.73.73,0,0,0-.22.24.64.64,0,0,0-.08.31.74.74,0,0,0,.08.36.79.79,0,0,0,.23.26,1.73,1.73,0,0,0,.37.2l.49.2a6.85,6.85,0,0,1,.66.29,2.26,2.26,0,0,1,.49.33,1.31,1.31,0,0,1,.31.43,1.38,1.38,0,0,1,.11.57,1.35,1.35,0,0,1-.18.71,1.54,1.54,0,0,1-.48.5,2.21,2.21,0,0,1-.69.3,3.42,3.42,0,0,1-.82.1A3.12,3.12,0,0,1,33.59,23Z" fill="#ec008c"/><path d="M38.25,23v-.95a2.61,2.61,0,0,0,1.58.53q1.16,0,1.16-.77a.68.68,0,0,0-.1-.37,1,1,0,0,0-.27-.27,2.1,2.1,0,0,0-.4-.21l-.49-.2a6.36,6.36,0,0,1-.64-.29,1.92,1.92,0,0,1-.46-.33,1.24,1.24,0,0,1-.28-.42,1.5,1.5,0,0,1-.09-.55,1.31,1.31,0,0,1,.18-.68,1.58,1.58,0,0,1,.47-.5,2.19,2.19,0,0,1,.67-.3,3,3,0,0,1,.78-.1,3.15,3.15,0,0,1,1.28.25v.89a2.49,2.49,0,0,0-1.4-.4,1.61,1.61,0,0,0-.45.06,1.09,1.09,0,0,0-.34.16.73.73,0,0,0-.22.24.64.64,0,0,0-.08.31.74.74,0,0,0,.08.36.77.77,0,0,0,.23.26,1.75,1.75,0,0,0,.37.2l.49.2a6.94,6.94,0,0,1,.65.29,2.26,2.26,0,0,1,.49.33,1.3,1.3,0,0,1,.31.43,1.36,1.36,0,0,1,.11.57,1.35,1.35,0,0,1-.18.71,1.52,1.52,0,0,1-.48.5,2.21,2.21,0,0,1-.69.3,3.42,3.42,0,0,1-.82.1A3.13,3.13,0,0,1,38.25,23Z" fill="#ec008c"/><path d="M50.83,23.2H49.6l-2.43-2.64h0V23.2h-.88V15.05h.88v5.16h0l2.31-2.52h1.15l-2.55,2.65Z" fill="#ec008c"/><path d="M55.94,20.67H52.05a2.06,2.06,0,0,0,.49,1.42,1.7,1.7,0,0,0,1.3.5A2.7,2.7,0,0,0,55.55,22v.83a3.19,3.19,0,0,1-1.92.53,2.33,2.33,0,0,1-1.83-.75,3.07,3.07,0,0,1-.67-2.11,3,3,0,0,1,.73-2.09,2.33,2.33,0,0,1,1.81-.81,2.07,2.07,0,0,1,1.67.7,2.91,2.91,0,0,1,.59,1.94Zm-.9-.75a1.79,1.79,0,0,0-.37-1.19,1.26,1.26,0,0,0-1-.42,1.42,1.42,0,0,0-1.06.45,2,2,0,0,0-.54,1.17Z" fill="#ec008c"/><path d="M61.65,17.7l-2.53,6.38q-.68,1.71-1.9,1.71a2,2,0,0,1-.58-.07v-.79a1.63,1.63,0,0,0,.52.1,1.08,1.08,0,0,0,1-.79l.44-1L56.45,17.7h1l1.49,4.23c0,.05.06.19.11.42h0c0-.09.05-.22.11-.41l1.56-4.24Z" fill="#ec008c"/><path d="M386.65,17.69V16.63a2.05,2.05,0,0,0,.44.29,3.61,3.61,0,0,0,.54.22,4.34,4.34,0,0,0,.57.14,3.17,3.17,0,0,0,.53,0A2.06,2.06,0,0,0,390,17a1,1,0,0,0,.41-.89,1.06,1.06,0,0,0-.14-.54,1.57,1.57,0,0,0-.38-.42,3.75,3.75,0,0,0-.57-.37l-.71-.37c-.27-.14-.52-.27-.75-.41a3.23,3.23,0,0,1-.61-.46,1.94,1.94,0,0,1-.41-.57,1.78,1.78,0,0,1-.15-.75,1.76,1.76,0,0,1,.23-.92,2,2,0,0,1,.61-.64,2.76,2.76,0,0,1,.86-.38,3.92,3.92,0,0,1,1-.12,3.76,3.76,0,0,1,1.66.27v1a3,3,0,0,0-1.75-.47,2.88,2.88,0,0,0-.59.06,1.68,1.68,0,0,0-.53.2,1.16,1.16,0,0,0-.37.36,1,1,0,0,0-.15.54,1.1,1.1,0,0,0,.11.51A1.26,1.26,0,0,0,388,13a3.27,3.27,0,0,0,.52.34l.71.37q.41.2.78.43a3.53,3.53,0,0,1,.65.5,2.24,2.24,0,0,1,.44.61,1.7,1.7,0,0,1,.16.76,1.93,1.93,0,0,1-.22,1,1.84,1.84,0,0,1-.6.64,2.64,2.64,0,0,1-.87.36,4.77,4.77,0,0,1-1,.11l-.45,0-.55-.09a4.59,4.59,0,0,1-.53-.14A1.66,1.66,0,0,1,386.65,17.69Z" fill="#ec008c"/><path d="M397.3,18h-.88V14.83q0-1.72-1.28-1.72a1.4,1.4,0,0,0-1.09.5,1.85,1.85,0,0,0-.44,1.28V18h-.88V9.86h.88v3.56h0a2,2,0,0,1,1.8-1q1.86,0,1.86,2.24Z" fill="#ec008c"/><path d="M401.26,18.13a2.55,2.55,0,0,1-1.95-.77,2.86,2.86,0,0,1-.73-2,3,3,0,0,1,.76-2.16,2.73,2.73,0,0,1,2-.78,2.47,2.47,0,0,1,1.92.76,3,3,0,0,1,.69,2.1,3,3,0,0,1-.74,2.11A2.61,2.61,0,0,1,401.26,18.13Zm.06-5a1.67,1.67,0,0,0-1.34.58,2.37,2.37,0,0,0-.49,1.59,2.25,2.25,0,0,0,.5,1.54,1.7,1.7,0,0,0,1.34.56,1.61,1.61,0,0,0,1.31-.55,2.4,2.4,0,0,0,.46-1.57,2.44,2.44,0,0,0-.46-1.59A1.6,1.6,0,0,0,401.32,13.11Z" fill="#ec008c"/><path d="M408.27,13.39a1.08,1.08,0,0,0-.67-.18,1.12,1.12,0,0,0-.94.53,2.45,2.45,0,0,0-.38,1.45V18h-.88V12.5h.88v1.13h0a1.91,1.91,0,0,1,.57-.9,1.31,1.31,0,0,1,.87-.33,1.44,1.44,0,0,1,.53.08Z" fill="#ec008c"/><path d="M412.1,17.95a1.7,1.7,0,0,1-.82.17q-1.45,0-1.45-1.61V13.25h-.95V12.5h.95V11.16l.88-.28V12.5h1.39v.75h-1.39v3.1a1.29,1.29,0,0,0,.19.79.75.75,0,0,0,.62.24.93.93,0,0,0,.58-.18Z" fill="#ec008c"/><path d="M416.88,17.75a2.86,2.86,0,0,1-1.5.38,2.49,2.49,0,0,1-1.9-.77,2.77,2.77,0,0,1-.72-2,3,3,0,0,1,.78-2.18,2.72,2.72,0,0,1,2.08-.82,2.89,2.89,0,0,1,1.28.27v.9a2.24,2.24,0,0,0-1.31-.43,1.77,1.77,0,0,0-1.38.6,2.29,2.29,0,0,0-.54,1.59,2.18,2.18,0,0,0,.51,1.53,1.75,1.75,0,0,0,1.36.56,2.2,2.2,0,0,0,1.35-.48Z" fill="#ec008c"/><path d="M422.66,18h-.88v-.87h0a1.81,1.81,0,0,1-1.7,1q-2,0-2-2.34V12.5H419v3.15q0,1.74,1.33,1.74a1.35,1.35,0,0,0,1.06-.48,1.82,1.82,0,0,0,.42-1.24V12.5h.88Z" fill="#ec008c"/><path d="M427,17.95a1.7,1.7,0,0,1-.82.17q-1.45,0-1.45-1.61V13.25h-.95V12.5h.95V11.16l.88-.28V12.5H427v.75H425.6v3.1a1.29,1.29,0,0,0,.19.79.75.75,0,0,0,.62.24.93.93,0,0,0,.58-.18Z" fill="#ec008c"/><rect x="336" y="14" width="48" height="1" fill="#ec008c"/><rect x="67" y="20" width="52" height="1" fill="#ec008c"/></svg>