<svg id="Layer_1" data-name="Layer 1" xmlns="http://www.w3.org/2000/svg" width="160" height="160" viewBox="0 0 160 160"><title>design-tenets-trustworthy</title><path d="M99.37,79.36l24.34,58.42-12.45-5.66-3.51-1.6L106,134l-5.55,11.1L83.79,95,80.31,84.56l.75-.2,18.32-5m-38.74,0,18.32,5,.75.2L76.21,95l-16.68,50L54,134l-1.72-3.45-3.51,1.6-12.45,5.66L60.63,79.36m41.08-4.78L80,80.5,58.29,74.58,28.68,145.63l21.71-9.87,9.87,19.74L80,96.29,99.74,155.5l9.87-19.74,21.71,9.87L101.71,74.58Z" fill="#565658"/><path d="M80,31.21A17.71,17.71,0,1,1,62.29,48.92,17.73,17.73,0,0,1,80,31.21m0-4a21.71,21.71,0,1,0,21.71,21.71A21.71,21.71,0,0,0,80,27.21Z" fill="#565658"/><path d="M108.62,48.92A28.62,28.62,0,1,1,80,20.3,28.62,28.62,0,0,1,108.62,48.92ZM75.2,14.11,68.37,7.52,66,16.7l-8.35-4.49.14,9.49L48.5,19.64l2.69,9.1-9.46.51,5,8-9,3,7,6.38L37,52.07l8.47,4.24-6.09,7.28,9.3,1.79L44.79,74l9.44-.79L52.8,82.63l8.88-3.31,1.15,9.42,7.66-5.59,3.65,8.76L80,84.47l5.87,7.45,3.65-8.76,7.66,5.59,1.15-9.42,8.88,3.31-1.43-9.39,9.44.79-3.9-8.65,9.3-1.79-6.09-7.28L123,52.07l-7.82-5.36,7-6.38-9-3,5-8-9.46-.51,2.69-9.1-9.24,2.07.14-9.49L94,16.7,91.63,7.52,84.8,14.11,80,5.92Z" fill="#0099e1"/></svg>