<svg id="Layer_1" data-name="Layer 1" xmlns="http://www.w3.org/2000/svg" width="160" height="160" viewBox="0 0 160 160"><title>design-tenets-learnable</title><polygon points="67.91 91.86 92.16 91.86 92.16 96.44 85.3 99.64 74.78 99.64 67.91 96.44 67.91 91.86" fill="#565658"/><rect x="67.91" y="83.63" width="24.24" height="5.03" fill="#565658"/><path d="M80,37a16.83,16.83,0,0,1,9,31l-2.83,1.76v5.57H73.91V69.77L71.08,68A16.8,16.8,0,0,1,80,37m0-6A22.8,22.8,0,0,0,67.91,73.11v8.23H92.16V73.11A22.82,22.82,0,0,0,80,31Z" fill="#0099e1"/><polygon points="81.81 18.34 78.19 18.34 78.19 27.11 81.81 27.11 81.81 18.34 81.81 18.34" fill="#0099e1"/><polygon points="103.77 27.43 97.56 33.64 100.12 36.2 106.32 29.99 103.77 27.43 103.77 27.43" fill="#0099e1"/><polygon points="115.42 51.95 106.64 51.95 106.64 55.56 115.42 55.56 115.42 51.95 115.42 51.95" fill="#0099e1"/><polygon points="100.12 71.31 97.56 73.87 103.77 80.08 106.32 77.52 100.12 71.31 100.12 71.31" fill="#0099e1"/><polygon points="59.88 71.31 53.68 77.52 56.23 80.08 62.44 73.87 59.88 71.31 59.88 71.31" fill="#0099e1"/><polygon points="53.36 51.95 44.58 51.95 44.58 55.56 53.36 55.56 53.36 51.95 53.36 51.95" fill="#0099e1"/><polygon points="56.23 27.43 53.68 29.99 59.88 36.2 62.44 33.64 56.23 27.43 56.23 27.43" fill="#0099e1"/><path d="M78.91,10.67a52,52,0,0,1,52,52q0,.54,0,1.08l0,1.77.93,1.5,9.7,15.74-2.37,2.37h-7.25v26.6L114,120.62H94.43v27.44l-46-4.45V104.86l-2.23-1.8A52,52,0,0,1,78.91,10.67m0-6a58,58,0,0,0-36.44,103v41.34l58,5.61v-28h15l22.44-11.22V91.1h3.74l7.48-7.48L136.87,63.84q0-.6,0-1.2a58,58,0,0,0-58-58Z" fill="#565658"/></svg>