<svg id="Layer_1" data-name="Layer 1" xmlns="http://www.w3.org/2000/svg" xmlns:xlink="http://www.w3.org/1999/xlink" width="160" height="160" viewBox="0 0 160 160"><defs><symbol id="arm" data-name="arm" viewBox="0 0 29.78 59.23"><path d="M6.44,4,9.89,6.6,11,10.5l.28,1,.75.75,11.8,11.8V43.23h-2l.13-11.46L22,30l-1.32-1.21L8.71,17.83,7.56,16.78H4V4H6.44M7.78,0H0V20.78H6L17.95,31.73l-.17,15.5h10l0-24.81-13-13L13.39,4.23,7.78,0Z" fill="#565658"/><polygon points="25.78 47.23 25.78 48.23 29.78 51.23 29.78 59.23 22.78 54.23 15.78 59.23 15.78 51.23 19.78 48.23 19.78 47.23 25.78 47.23" fill="#565658"/><polygon points="25.78 47.23 25.78 48.23 29.78 51.23 29.78 59.23 22.78 54.23 15.78 59.23 15.78 51.23 19.78 48.23 19.78 47.23 25.78 47.23" fill="#565658"/></symbol></defs><title>design-tenets-modern</title><use id="arm-3" data-name="arm" width="29.78" height="59.23" transform="translate(101.22 44)" xlink:href="#arm"/><use width="29.78" height="59.23" transform="matrix(-1, 0, 0, 1, 58.78, 44)" xlink:href="#arm"/><path d="M101.57,124.68v21.5H86.64v-21.5h14.92m1.85-1.85H84.79V148h18.62v-25.2Z" fill="#565658"/><path d="M94.76,103v13H93.45V103h1.31m4-4H89.45v21h9.31V99Z" fill="#565658"/><rect x="84.79" y="148.02" width="18.62" height="6.68" fill="#565658"/><circle cx="89.62" cy="71.14" r="3.73" fill="#0099e1"/><circle cx="79.95" cy="71.14" r="3.73" fill="#0099e1"/><circle cx="70.39" cy="71.14" r="3.73" fill="#0099e1"/><rect x="66.66" y="55.21" width="27.26" height="7.87" fill="#0099e1"/><path d="M96,7.94A1.06,1.06,0,0,1,97.06,9V34.06H62.94V9A1.06,1.06,0,0,1,64,7.94H96M96,4H64a5,5,0,0,0-5,5V38h42V9a5,5,0,0,0-5-5Z" fill="#565658"/><path d="M71.67,15.71a2.55,2.55,0,1,1-2.55,2.55,2.55,2.55,0,0,1,2.55-2.55m0-2a4.55,4.55,0,1,0,4.55,4.55,4.55,4.55,0,0,0-4.55-4.55Z" fill="#0099e1"/><path d="M88.23,15.71a2.55,2.55,0,1,1-2.55,2.55,2.55,2.55,0,0,1,2.55-2.55m0-2a4.55,4.55,0,1,0,4.55,4.55,4.55,4.55,0,0,0-4.55-4.55Z" fill="#0099e1"/><polygon points="86.9 27.26 73.85 27.26 75.5 30.61 84.34 30.61 86.9 27.26 86.9 27.26" fill="#565658"/><path d="M104.61,26.52h-2.95V19.33h2.95a1,1,0,0,1,1,1v5.19A1,1,0,0,1,104.61,26.52Z" fill="#565658"/><path d="M56.08,26.52H59V19.33H56.08a1,1,0,0,0-1,1v5.19A1,1,0,0,0,56.08,26.52Z" fill="#565658"/><rect x="71" y="38" width="18" height="6" fill="#565658"/><circle cx="94.1" cy="124.85" r="7.67" fill="#565658"/><path d="M73.15,124.68v21.5H58.23v-21.5H73.15M75,122.83H56.38V148H75v-25.2Z" fill="#565658"/><path d="M66.34,103v13H65V103h1.31m4-4H61v21h9.31V99Z" fill="#565658"/><rect x="56.38" y="148.02" width="18.62" height="6.68" fill="#565658"/><circle cx="65.69" cy="124.85" r="7.67" fill="#565658"/><path d="M101,49V99H59V49h42m5-5H54v60h52V44Z" fill="#0099e1"/></svg>