<svg id="Layer_1" data-name="Layer 1" xmlns="http://www.w3.org/2000/svg" width="160" height="160" viewBox="0 0 160 160"><title>design-tenets-trustworthy</title><polyline points="129.7 93.55 135.12 88.13 145.96 68.25 104.4 26.69 98.98 32.11 88.5 26.5 83.5 30.5" fill="none" stroke="#0099e1" stroke-miterlimit="10" stroke-width="4"/><rect x="126.92" y="13.25" width="12.78" height="48.56" transform="translate(12.51 105.26) rotate(-45)" fill="#0099e1"/><polygon points="136.93 98.98 126.95 108.95 112.07 93.93 122 84 136.93 98.98" fill="#565658"/><polygon points="124.96 110.94 114.95 120.95 100.07 105.93 110.04 95.96 124.96 110.94" fill="#565658"/><polygon points="113 122.98 103.53 132.45 83.1 111.9 92.54 102.46 113 122.98" fill="#565658"/><rect x="81.6" y="119.67" width="13.72" height="23" transform="translate(-66.84 100.97) rotate(-45)" fill="#565658"/><rect x="2.03" y="35.66" width="51.12" height="12.78" transform="translate(-21.65 31.82) rotate(-45)" fill="#565658"/><polygon points="15.04 72.81 58.41 29.44 65.64 34.86 83.71 27.63 107.5 51.5 107.5 59.5 101.5 65.5 92.5 65.5 74.67 47.51 27.69 94.5 15.04 72.81" fill="#565658"/><polyline points="75 47 20 102 32 114 58.05 87.86" fill="none" stroke="#0099e1" stroke-miterlimit="10" stroke-width="4"/><line x1="65" y1="105" x2="50" y2="119" fill="none" stroke="#0099e1" stroke-miterlimit="10" stroke-width="4"/><line x1="75" y1="115" x2="60" y2="130" fill="none" stroke="#0099e1" stroke-miterlimit="10" stroke-width="4"/><polyline points="80.9 133.31 71.87 142.35 36.63 107.11" fill="none" stroke="#0099e1" stroke-miterlimit="10" stroke-width="4"/></svg>