<svg id="Layer_1" data-name="Layer 1" xmlns="http://www.w3.org/2000/svg" width="160" height="160" viewBox="0 0 160 160"><title>design-tenets-modern</title><polygon points="53.58 138 106.58 138 106.58 148 91.58 155 68.58 155 53.58 148 53.58 138" fill="#565658"/><rect x="53.58" y="120" width="53" height="11" fill="#565658"/><path d="M80,11a43.9,43.9,0,0,1,23.41,80.9l-2.83,1.76V109h-41V93.67L56.75,91.9A43.83,43.83,0,0,1,80,11m0-6A49.83,49.83,0,0,0,53.58,97v18h53V97A49.9,49.9,0,0,0,80,5Z" fill="#0099e1"/></svg>