<svg id="Layer_1" data-name="Layer 1" xmlns="http://www.w3.org/2000/svg" width="160" height="160" viewBox="0 0 160 160"><title>home-elements</title><circle cx="80" cy="80" r="11.34" fill="#0099e1"/><circle cx="136.69" cy="61.69" r="7.85" fill="#0099e1"/><path d="M127.12,67.76c-9.58,9.53-22.87,19.38-38,28.1-23.08,13.32-46.31,21.6-60.64,21.6-4.66,0-8-1-8.94-2.58-1.42-2.47,1.11-9.54,10-19.25,9.69-10.55,24.34-21.74,41.24-31.5,23.08-13.32,46.31-21.6,60.64-21.6,4.66,0,8,1,8.94,2.58.62,1.07.49,3-.59,5.68a11.3,11.3,0,0,1,4.59,2.61c1.89-4.35,2.16-8.09.53-10.91-2-3.52-6.79-5.19-13.47-5.19-14.67,0-38.6,8.07-63.26,22.3C32.35,80.32,8.55,106.24,15,117.5c2,3.52,6.79,5.19,13.47,5.19,14.67,0,38.6-8.07,63.26-22.3,16-9.21,29.52-19.46,39.1-29A11.38,11.38,0,0,1,127.12,67.76Z" fill="#565658"/><circle cx="25.06" cy="63.43" r="7.85" fill="#0099e1"/><path d="M15,42.5c-1.91,3.31-1.18,7.9,1.69,13.25a11.33,11.33,0,0,1,4.38-2.94c-1.91-3.69-2.3-6.37-1.53-7.7.93-1.61,4.27-2.58,8.94-2.58V37.31h0C21.84,37.31,17.08,39,15,42.5Z" fill="#565658"/><path d="M91.77,59.61c-24.65-14.23-48.58-22.3-63.25-22.3v5.23c14.33,0,37.56,8.28,60.64,21.6,16.9,9.76,31.55,20.94,41.24,31.5,8.92,9.71,11.44,16.78,10,19.25-.93,1.61-4.27,2.58-8.94,2.58-14.33,0-37.56-8.28-60.64-21.6-14.2-8.2-26.79-17.4-36.2-26.39a11.38,11.38,0,0,1-3.74,3.66c9.45,9,22.32,18.6,37.33,27.26,24.65,14.23,48.59,22.3,63.26,22.3,6.68,0,11.44-1.67,13.47-5.19C151.45,106.24,127.65,80.32,91.77,59.61Z" fill="#565658"/><circle cx="65.17" cy="131.45" r="7.85" fill="#0099e1"/><path d="M80,5C67,5,56.45,38.58,56.45,80a207.14,207.14,0,0,0,3.88,41.21,11.27,11.27,0,0,1,4.84-1.1h.26A201.63,201.63,0,0,1,61.69,80c0-19.52,2.36-37.79,6.66-51.47C72.29,16,77.15,10.23,80,10.23S87.71,16,91.66,28.53C96,42.21,98.31,60.48,98.31,80S96,117.79,91.66,131.47C87.71,144,82.85,149.77,80,149.77c-2,0-5.09-2.94-8.12-9.19a11.26,11.26,0,0,1-4.84,2C70.76,150.44,75.21,155,80,155c13,0,23.55-33.58,23.55-75S93,5,80,5Z" fill="#565658"/></svg>