<svg id="Layer_1" data-name="Layer 1" xmlns="http://www.w3.org/2000/svg" width="160" height="160" viewBox="0 0 160 160"><title>design-tenets-efficient</title><path d="M59.24,95.41l5.24,1.88v22H59.24V95.41m-4-5.68v33.54H68.48V94.47L55.24,89.73Z" fill="#0099e1"/><path d="M92.93,107.89l5.24,1.91v9.47H92.93V107.89m-4-5.71v21.09h13.24V107l-13.24-4.82Z" fill="#0099e1"/><polygon points="52.25 137.68 106.25 137.68 106.25 147.87 90.96 155 67.53 155 52.25 147.87 52.25 137.68" fill="#565658"/><rect x="52.25" y="119.34" width="54" height="11.21" fill="#565658"/><path d="M50.35,74.78l62.94,22.91,1.63,3.52-2.68,7.43-2.22,1L46.12,86.41l-1-2.22,3-8.37,2.22-1m-.19-4.33-5.22,2.44L40.76,84.38l2.44,5.22,67,24.39,5.22-2.44L119.24,101l-3-6.52-66.06-24Z" fill="#0099e1"/><path d="M50.35,51l62.94,22.91,1.63,3.52-2.68,7.43-2.22,1L46.12,62.6l-1-2.22,3-8.37,2.22-1m-.19-4.33-5.22,2.44L40.76,60.56l2.44,5.22,67,24.39,5.22-2.44,3.81-10.54-3-6.52-66.06-24Z" fill="#0099e1"/><path d="M50.35,27.05,113.29,50l1.63,3.52-2.68,7.43-2.22,1L46.12,38.68l-1-2.22,3-8.37,2.22-1m-.19-4.33-5.22,2.44L40.76,36.65l2.44,5.22,67,24.39,5.22-2.44,3.81-10.54-3-6.52-66.06-24Z" fill="#0099e1"/><path d="M67.08,9.32l39,14.16L107.73,27,105,34.43l-2.22,1L62.84,21l-1-2.22,3-8.37,2.22-1M66.88,5,61.66,7.44,57.48,18.92l2.44,5.22L103,39.78l5.22-2.44,3.81-10.54-3-6.52L66.88,5Z" fill="#0099e1"/></svg>