<svg id="Layer_1" data-name="Layer 1" xmlns="http://www.w3.org/2000/svg" width="160" height="160" viewBox="0 0 160 160"><title>home-product</title><path d="M149,25v87.51l-.24.24-.24.24h-137l-.49-.49V25H149m6-6H5v96l4,4H151l4-4V19Z" fill="#565658"/><polygon points="98 118.96 62 118.96 62 121.97 98 128 98 118.96 98 118.96" fill="#565658"/><polygon points="62.97 118.96 61.03 118.96 61.03 134.54 62.97 134.54 62.97 118.96 62.97 118.96" fill="#565658"/><polygon points="98.97 118.96 97.03 118.96 97.03 134.54 98.97 134.54 98.97 118.96 98.97 118.96" fill="#565658"/><polygon points="115 133 45 133 41 139 41 141 119 141 119 139 115 133 115 133" fill="#565658"/><path d="M45,63V79H29V63H45m3-3H26V82H48V60Z" fill="#0099e1"/><path d="M88,63V79H72V63H88m3-3H69V82H91V60Z" fill="#0099e1"/><path d="M149,26v4H11V26H149m1-1H10v6H150V25Z" fill="#565658"/><path d="M149.13,30.87v4.27H10.87V30.87H149.13M150,30H10v6H150V30Z" fill="#565658"/><path d="M149.13,107.87v4.27H10.87v-4.27H149.13M150,107H10v6H150v-6Z" fill="#565658"/><path d="M26,31v4H11V31H26m1-1H10v6H27V30Z" fill="#565658"/><path d="M42,31v4H27V31H42m1-1H26v6H43V30Z" fill="#565658"/><path d="M58,31v4H43V31H58m1-1H42v6H59V30Z" fill="#565658"/><path d="M74,31v4H59V31H74m1-1H58v6H75V30Z" fill="#565658"/><polygon points="148 27 142 27 142 29 148 29 148 27 148 27" fill="#565658"/><polygon points="140 27 134 27 134 29 140 29 140 27 140 27" fill="#565658"/><polygon points="132 27 126 27 126 29 132 29 132 27 132 27" fill="#565658"/><path d="M131,63V79H115V63h16m3-3H112V82h22V60Z" fill="#0099e1"/><rect x="48" y="70" width="22" height="2" fill="#0099e1"/><rect x="90" y="70" width="22" height="2" fill="#0099e1"/></svg>