<svg id="Layer_1" data-name="Layer 1" xmlns="http://www.w3.org/2000/svg" xmlns:xlink="http://www.w3.org/1999/xlink" width="346" height="162" viewBox="0 0 346 162"><defs><linearGradient id="linear-gradient" x1="287" y1="125.05" x2="287" y2="146.97" gradientUnits="userSpaceOnUse"><stop offset="0" stop-color="#ebe9ec"/><stop offset="0.28" stop-color="#e5e6e9"/><stop offset="1" stop-color="#dadfe2"/></linearGradient></defs><title>progress-indicators-copying-files-1-percent</title><polygon points="4 23.92 4 114.96 343.99 114.96 343.99 24 4 23.92" fill="#eef0ef"/><rect x="4" y="114" width="338" height="44" fill="#e1e3e4"/><path d="M0,0V162H346V0ZM342,158H4V29H342Z" fill="#4d5359"/><rect x="4" y="113" width="338" height="1" fill="#a8abae"/><path d="M21.82,18.65a4.89,4.89,0,0,1-2.32.49A3.73,3.73,0,0,1,16.63,18a4.26,4.26,0,0,1-1.08-3,4.5,4.5,0,0,1,1.21-3.26,4.12,4.12,0,0,1,3.08-1.24,4.92,4.92,0,0,1,2,.34v1a4.08,4.08,0,0,0-2-.5,3.07,3.07,0,0,0-2.35,1,3.66,3.66,0,0,0-.9,2.59,3.44,3.44,0,0,0,.84,2.44,2.87,2.87,0,0,0,2.21.92,4.11,4.11,0,0,0,2.19-.57Z" fill="#fff"/><path d="M25.91,19.14a2.77,2.77,0,0,1-2.12-.84,3.11,3.11,0,0,1-.8-2.23,3.25,3.25,0,0,1,.83-2.36,3,3,0,0,1,2.23-.85,2.68,2.68,0,0,1,2.1.83A3.27,3.27,0,0,1,28.9,16a3.25,3.25,0,0,1-.81,2.3A2.87,2.87,0,0,1,25.91,19.14ZM26,13.67a1.81,1.81,0,0,0-1.46.63A2.59,2.59,0,0,0,24,16a2.46,2.46,0,0,0,.54,1.68,1.85,1.85,0,0,0,1.46.61,1.75,1.75,0,0,0,1.43-.6,2.59,2.59,0,0,0,.5-1.72,2.61,2.61,0,0,0-.5-1.73A1.73,1.73,0,0,0,26,13.67Z" fill="#fff"/><path d="M31.42,18.13h0v3.63h-1V13h1v1.05h0a2.27,2.27,0,0,1,2.07-1.19,2.18,2.18,0,0,1,1.81.81A3.27,3.27,0,0,1,36,15.82a3.73,3.73,0,0,1-.73,2.42,2.45,2.45,0,0,1-2,.9A2,2,0,0,1,31.42,18.13Zm0-2.42v.84a1.78,1.78,0,0,0,.49,1.26,1.72,1.72,0,0,0,2.59-.15,3,3,0,0,0,.5-1.85,2.47,2.47,0,0,0-.46-1.57,1.54,1.54,0,0,0-1.26-.57,1.7,1.7,0,0,0-1.35.58A2.15,2.15,0,0,0,31.39,15.71Z" fill="#fff"/><path d="M42.26,13,39.5,20q-.73,1.86-2.07,1.86a2.28,2.28,0,0,1-.63-.07v-.86a1.8,1.8,0,0,0,.57.1,1.17,1.17,0,0,0,1.09-.87L38.94,19,36.6,13h1.06l1.63,4.62q0,.09.12.45h0a3,3,0,0,1,.11-.44L41.27,13Z" fill="#fff"/><path d="M51,11.49H47.7v2.9h3v.89h-3V19h-1V10.6H51Z" fill="#fff"/><path d="M52.93,11.48a.62.62,0,0,1-.44-.18.59.59,0,0,1-.18-.44.61.61,0,0,1,.18-.45.62.62,0,0,1,.44-.18.61.61,0,0,1,.45.18.62.62,0,0,1,.19.45.59.59,0,0,1-.19.43A.58.58,0,0,1,52.93,11.48ZM53.4,19h-1V13h1Z" fill="#fff"/><path d="M56.31,19h-1V10.12h1Z" fill="#fff"/><path d="M63.08,16.24H58.84a2.3,2.3,0,0,0,.54,1.55,1.87,1.87,0,0,0,1.42.54,2.93,2.93,0,0,0,1.86-.67v.91a3.5,3.5,0,0,1-2.09.57,2.52,2.52,0,0,1-2-.82,3.36,3.36,0,0,1-.73-2.3,3.29,3.29,0,0,1,.8-2.28,2.53,2.53,0,0,1,2-.88,2.25,2.25,0,0,1,1.82.76,3.18,3.18,0,0,1,.65,2.12Zm-1-.81a2,2,0,0,0-.4-1.3,1.36,1.36,0,0,0-1.1-.46,1.55,1.55,0,0,0-1.15.48,2.25,2.25,0,0,0-.59,1.28Z" fill="#fff"/><path d="M64.17,18.78v-1a2.81,2.81,0,0,0,1.72.58c.85,0,1.27-.28,1.27-.84a.76.76,0,0,0-.11-.41,1,1,0,0,0-.29-.29,2.19,2.19,0,0,0-.43-.24l-.54-.21a6.76,6.76,0,0,1-.7-.32,2.55,2.55,0,0,1-.51-.36,1.52,1.52,0,0,1-.3-.46,1.63,1.63,0,0,1-.1-.61,1.38,1.38,0,0,1,.19-.74,1.7,1.7,0,0,1,.52-.55,2.43,2.43,0,0,1,.73-.33,3.59,3.59,0,0,1,2.25.16v1a2.7,2.7,0,0,0-1.52-.43,1.83,1.83,0,0,0-.49.06,1.15,1.15,0,0,0-.37.17.76.76,0,0,0-.24.27.67.67,0,0,0-.09.34.75.75,0,0,0,.09.39.84.84,0,0,0,.25.29,2.36,2.36,0,0,0,.39.22l.54.21c.26.11.5.21.71.32a2.82,2.82,0,0,1,.54.36,1.41,1.41,0,0,1,.34.47,1.46,1.46,0,0,1,.12.62,1.5,1.5,0,0,1-.19.78,1.61,1.61,0,0,1-.53.54,2.44,2.44,0,0,1-.75.33,3.82,3.82,0,0,1-.9.1A3.34,3.34,0,0,1,64.17,18.78Z" fill="#fff"/><polygon points="335.14 9.97 333.62 8.45 330.07 12 326.52 8.45 325 9.97 328.55 13.52 325 17.07 326.52 18.59 330.07 15.04 333.62 18.59 335.14 17.07 331.59 13.52 335.14 9.97" fill="#fff"/><rect x="253" y="124.99" width="68" height="22.01" fill="url(#linear-gradient)"/><path d="M252,124v24h70V124Zm69,23H253V125h68Z" fill="#a8abae"/><path d="M275.68,139.66V138.5a2.86,2.86,0,0,0,.48.32,3.8,3.8,0,0,0,.59.23,3.3,3.3,0,0,0,.62.15,2.91,2.91,0,0,0,.57.06,2.31,2.31,0,0,0,1.36-.34,1.17,1.17,0,0,0,.44-1,1.13,1.13,0,0,0-.15-.59,1.47,1.47,0,0,0-.41-.46,3.91,3.91,0,0,0-.62-.4l-.78-.4c-.29-.15-.57-.3-.82-.45a3.85,3.85,0,0,1-.66-.51,1.89,1.89,0,0,1-.6-1.44,1.93,1.93,0,0,1,.25-1,2.32,2.32,0,0,1,.66-.7,3,3,0,0,1,.93-.41,4.29,4.29,0,0,1,1.07-.13,4.08,4.08,0,0,1,1.81.3v1.1a3.29,3.29,0,0,0-1.91-.51,2.79,2.79,0,0,0-.64.07,1.74,1.74,0,0,0-.58.21,1.56,1.56,0,0,0-.41.4,1.06,1.06,0,0,0-.15.58,1.22,1.22,0,0,0,.12.56,1.28,1.28,0,0,0,.35.43,3.75,3.75,0,0,0,.57.37l.78.4c.3.15.58.31.85.47a4,4,0,0,1,.71.54,2.27,2.27,0,0,1,.49.67,1.84,1.84,0,0,1,.18.83,2.15,2.15,0,0,1-.25,1.05,2,2,0,0,1-.65.7,2.94,2.94,0,0,1-1,.39,5.15,5.15,0,0,1-1.13.12l-.5,0a4.28,4.28,0,0,1-.59-.1,4.45,4.45,0,0,1-.58-.15A2,2,0,0,1,275.68,139.66Z" fill="#4d5359"/><path d="M284.72,139.94a1.82,1.82,0,0,1-.9.19c-1.05,0-1.57-.59-1.57-1.76v-3.55h-1V134h1v-1.46l1-.32V134h1.51v.82h-1.51v3.38a1.45,1.45,0,0,0,.2.86.84.84,0,0,0,.68.26,1.05,1.05,0,0,0,.63-.2Z" fill="#4d5359"/><path d="M288.42,140.14a2.79,2.79,0,0,1-2.13-.84,3.1,3.1,0,0,1-.79-2.23,3.24,3.24,0,0,1,.82-2.36,3,3,0,0,1,2.24-.85,2.66,2.66,0,0,1,2.09.83,3.77,3.77,0,0,1-.06,4.59A2.85,2.85,0,0,1,288.42,140.14Zm.07-5.47a1.84,1.84,0,0,0-1.47.63,2.59,2.59,0,0,0-.54,1.74,2.41,2.41,0,0,0,.55,1.68,1.85,1.85,0,0,0,1.46.61,1.77,1.77,0,0,0,1.43-.6,3.23,3.23,0,0,0,0-3.45A1.74,1.74,0,0,0,288.49,134.67Z" fill="#4d5359"/><path d="M293.92,139.13h0v3.63h-1V134h1v1.05h0a2.3,2.3,0,0,1,2.08-1.19,2.19,2.19,0,0,1,1.81.81,3.32,3.32,0,0,1,.65,2.15,3.79,3.79,0,0,1-.73,2.42,2.46,2.46,0,0,1-2,.9A2,2,0,0,1,293.92,139.13Zm0-2.42v.84a1.77,1.77,0,0,0,.48,1.26,1.73,1.73,0,0,0,2.6-.15,3,3,0,0,0,.49-1.85,2.41,2.41,0,0,0-.46-1.57,1.52,1.52,0,0,0-1.25-.57,1.7,1.7,0,0,0-1.35.58A2.15,2.15,0,0,0,293.9,136.71Z" fill="#4d5359"/><path d="M30.82,58.65a4.89,4.89,0,0,1-2.32.49A3.73,3.73,0,0,1,25.63,58a4.26,4.26,0,0,1-1.08-3,4.5,4.5,0,0,1,1.21-3.26,4.12,4.12,0,0,1,3.08-1.24,4.92,4.92,0,0,1,2,.34v1.05a4.08,4.08,0,0,0-2-.5,3.07,3.07,0,0,0-2.35,1,3.66,3.66,0,0,0-.9,2.59,3.44,3.44,0,0,0,.84,2.44,2.87,2.87,0,0,0,2.21.92,4.11,4.11,0,0,0,2.19-.57Z" fill="#4d5359"/><path d="M34.91,59.14a2.77,2.77,0,0,1-2.12-.84,3.11,3.11,0,0,1-.8-2.23,3.25,3.25,0,0,1,.83-2.36,3,3,0,0,1,2.23-.85,2.68,2.68,0,0,1,2.1.83,3.77,3.77,0,0,1-.06,4.59A2.87,2.87,0,0,1,34.91,59.14ZM35,53.67a1.81,1.81,0,0,0-1.46.63A2.59,2.59,0,0,0,33,56a2.46,2.46,0,0,0,.54,1.68,1.85,1.85,0,0,0,1.46.61,1.75,1.75,0,0,0,1.43-.6,3.23,3.23,0,0,0,0-3.45A1.73,1.73,0,0,0,35,53.67Z" fill="#4d5359"/><path d="M40.42,58.13h0v3.63h-1V53h1v1h0a2.27,2.27,0,0,1,2.07-1.19,2.2,2.2,0,0,1,1.81.8A3.31,3.31,0,0,1,45,55.82a3.69,3.69,0,0,1-.73,2.41,2.43,2.43,0,0,1-2,.91A2,2,0,0,1,40.42,58.13Zm0-2.42v.84a1.78,1.78,0,0,0,.49,1.26,1.72,1.72,0,0,0,2.59-.15,3,3,0,0,0,.5-1.85,2.47,2.47,0,0,0-.46-1.57,1.54,1.54,0,0,0-1.26-.57,1.7,1.7,0,0,0-1.35.58A2.15,2.15,0,0,0,40.39,55.71Z" fill="#4d5359"/><path d="M51.26,53,48.5,60q-.73,1.86-2.07,1.86a2.28,2.28,0,0,1-.63-.07v-.86a1.8,1.8,0,0,0,.57.1,1.17,1.17,0,0,0,1.09-.87L47.94,59,45.6,53h1.06l1.63,4.62q0,.09.12.45h0a3,3,0,0,1,.11-.44L50.27,53Z" fill="#4d5359"/><path d="M52.79,51.48a.6.6,0,0,1-.44-.18.59.59,0,0,1-.18-.44.61.61,0,0,1,.18-.45.6.6,0,0,1,.44-.18.64.64,0,0,1,.45.18.61.61,0,0,1,.18.45.58.58,0,0,1-.18.43A.61.61,0,0,1,52.79,51.48ZM53.26,59h-1V53h1Z" fill="#4d5359"/><path d="M60.18,59h-1V55.58c0-1.28-.46-1.91-1.39-1.91a1.54,1.54,0,0,0-1.2.54,2,2,0,0,0-.47,1.37V59h-1V53h1v1h0a2.15,2.15,0,0,1,2-1.14,1.85,1.85,0,0,1,1.51.63,2.84,2.84,0,0,1,.52,1.84Z" fill="#4d5359"/><path d="M67.11,58.52q0,3.3-3.16,3.3a4.31,4.31,0,0,1-2-.42v-1a4,4,0,0,0,1.94.56c1.47,0,2.21-.78,2.21-2.35V58h0a2.25,2.25,0,0,1-2.06,1.15,2.28,2.28,0,0,1-1.81-.8,3.22,3.22,0,0,1-.68-2.15,3.73,3.73,0,0,1,.74-2.43,2.46,2.46,0,0,1,2-.9,2,2,0,0,1,1.8,1h0V53h1Zm-1-2.23V55.4a1.72,1.72,0,0,0-.48-1.22,1.59,1.59,0,0,0-1.21-.51,1.67,1.67,0,0,0-1.39.64,2.9,2.9,0,0,0-.5,1.82,2.48,2.48,0,0,0,.48,1.6,1.56,1.56,0,0,0,1.28.6,1.69,1.69,0,0,0,1.32-.57A2.18,2.18,0,0,0,66.15,56.29Z" fill="#4d5359"/><path d="M75.31,51a1.35,1.35,0,0,0-.64-.16c-.67,0-1,.43-1,1.27V53h1.41v.82H73.66V59h-1V53.82h-1V53h1V52a2,2,0,0,1,.54-1.49A1.84,1.84,0,0,1,74.61,50a1.89,1.89,0,0,1,.7.1Z" fill="#4d5359"/><path d="M76.59,51.48a.62.62,0,0,1-.44-.18.59.59,0,0,1-.18-.44.61.61,0,0,1,.18-.45.62.62,0,0,1,.44-.18.61.61,0,0,1,.45.18.58.58,0,0,1,.19.45.56.56,0,0,1-.19.43A.58.58,0,0,1,76.59,51.48ZM77.06,59h-1V53h1Z" fill="#4d5359"/><path d="M80,59H79V50.12h1Z" fill="#4d5359"/><path d="M86.74,56.24H82.5A2.3,2.3,0,0,0,83,57.79a1.87,1.87,0,0,0,1.42.54,2.93,2.93,0,0,0,1.86-.67v.91a3.5,3.5,0,0,1-2.09.57,2.52,2.52,0,0,1-2-.82A3.36,3.36,0,0,1,81.5,56a3.29,3.29,0,0,1,.8-2.28,2.53,2.53,0,0,1,2-.88,2.25,2.25,0,0,1,1.82.76,3.18,3.18,0,0,1,.65,2.12Zm-1-.81a2,2,0,0,0-.4-1.3,1.36,1.36,0,0,0-1.1-.46,1.55,1.55,0,0,0-1.15.48,2.25,2.25,0,0,0-.59,1.28Z" fill="#4d5359"/><path d="M87.83,58.78v-1a2.81,2.81,0,0,0,1.72.58c.85,0,1.27-.28,1.27-.84a.76.76,0,0,0-.11-.41,1,1,0,0,0-.29-.29,2.19,2.19,0,0,0-.43-.24l-.54-.21a6.76,6.76,0,0,1-.7-.32,2.22,2.22,0,0,1-.5-.36,1.38,1.38,0,0,1-.31-.46,1.63,1.63,0,0,1-.1-.61,1.38,1.38,0,0,1,.19-.74,1.7,1.7,0,0,1,.52-.55,2.21,2.21,0,0,1,.73-.33,3.59,3.59,0,0,1,2.25.16v1A2.7,2.7,0,0,0,90,53.67a1.83,1.83,0,0,0-.49.06,1.26,1.26,0,0,0-.37.17.68.68,0,0,0-.24.27.67.67,0,0,0-.09.34.75.75,0,0,0,.09.39.84.84,0,0,0,.25.29,2.36,2.36,0,0,0,.39.22l.54.21c.26.11.5.21.71.32a2.42,2.42,0,0,1,.54.36,1.41,1.41,0,0,1,.34.47,1.46,1.46,0,0,1,.12.62,1.5,1.5,0,0,1-.19.78,1.61,1.61,0,0,1-.53.54,2.44,2.44,0,0,1-.75.33,3.82,3.82,0,0,1-.9.1A3.34,3.34,0,0,1,87.83,58.78Z" fill="#4d5359"/><path d="M99.09,60.91h-.86a7.49,7.49,0,0,1-1.81-5.12,7.76,7.76,0,0,1,1.81-5.19h.87a7.86,7.86,0,0,0-1.84,5.18A7.75,7.75,0,0,0,99.09,60.91Z" fill="#4d5359"/><path d="M105.19,54.76a8,8,0,0,1-.19,1.87,4.24,4.24,0,0,1-.55,1.38,2.55,2.55,0,0,1-.88.85,2.47,2.47,0,0,1-1.19.29,2.31,2.31,0,0,1-1.13-.28,2.49,2.49,0,0,1-.84-.81,4.22,4.22,0,0,1-.51-1.31A7.93,7.93,0,0,1,99.72,55,8.77,8.77,0,0,1,99.91,53a4.32,4.32,0,0,1,.54-1.41,2.41,2.41,0,0,1,.88-.86,2.45,2.45,0,0,1,1.22-.29Q105.19,50.46,105.19,54.76Zm-1,.1c0-2.39-.57-3.59-1.71-3.59s-1.79,1.22-1.79,3.65c0,2.27.58,3.41,1.76,3.41S104.21,57.17,104.21,54.86Z" fill="#4d5359"/><path d="M112.45,59.14a2.79,2.79,0,0,1-2.12-.84,3.1,3.1,0,0,1-.79-2.23,3.24,3.24,0,0,1,.82-2.36,3,3,0,0,1,2.23-.85,2.66,2.66,0,0,1,2.1.83,3.77,3.77,0,0,1-.06,4.59A2.87,2.87,0,0,1,112.45,59.14Zm.07-5.47a1.83,1.83,0,0,0-1.46.63,2.59,2.59,0,0,0-.54,1.74,2.46,2.46,0,0,0,.54,1.68,1.86,1.86,0,0,0,1.46.61,1.79,1.79,0,0,0,1.44-.6,3.23,3.23,0,0,0,0-3.45A1.76,1.76,0,0,0,112.52,53.67Z" fill="#4d5359"/><path d="M119.72,51a1.31,1.31,0,0,0-.63-.16c-.68,0-1,.43-1,1.27V53h1.4v.82h-1.4V59h-1V53.82h-1V53h1V52a2,2,0,0,1,.55-1.49A1.81,1.81,0,0,1,119,50a1.86,1.86,0,0,1,.69.1Z" fill="#4d5359"/><path d="M128.41,56.62a2.46,2.46,0,0,1-.21,1,2.25,2.25,0,0,1-.6.8,2.74,2.74,0,0,1-.94.51,4.07,4.07,0,0,1-3.11-.27v-1a3.12,3.12,0,0,0,2,.67,2.47,2.47,0,0,0,.79-.12,1.69,1.69,0,0,0,.61-.32,1.39,1.39,0,0,0,.39-.51,1.6,1.6,0,0,0,.14-.67q0-1.65-2.34-1.65h-.7v-.81h.66c1.38,0,2.07-.52,2.07-1.55s-.52-1.43-1.58-1.43a2.7,2.7,0,0,0-1.67.6v-.93a3.66,3.66,0,0,1,1.91-.48,3.22,3.22,0,0,1,1,.14,2.35,2.35,0,0,1,.73.41,1.87,1.87,0,0,1,.47.64,1.92,1.92,0,0,1,.17.81,2,2,0,0,1-1.68,2.13v0a2.78,2.78,0,0,1,.79.2,2,2,0,0,1,.63.42,1.77,1.77,0,0,1,.41.61A1.92,1.92,0,0,1,128.41,56.62Z" fill="#4d5359"/><path d="M135.29,56.33a3.15,3.15,0,0,1-.2,1.13,2.72,2.72,0,0,1-.55.9,2.58,2.58,0,0,1-.84.58,2.64,2.64,0,0,1-1.06.21,2.33,2.33,0,0,1-1.13-.27,2.36,2.36,0,0,1-.85-.76,3.63,3.63,0,0,1-.53-1.21A6.55,6.55,0,0,1,130,55.3a7.7,7.7,0,0,1,.24-2,4.88,4.88,0,0,1,.69-1.53,3.24,3.24,0,0,1,1.08-1,3,3,0,0,1,1.42-.34,3.37,3.37,0,0,1,1.39.24v.91a2.87,2.87,0,0,0-1.37-.34,2.13,2.13,0,0,0-1,.25,2.5,2.5,0,0,0-.78.71,3.49,3.49,0,0,0-.49,1.12,5.37,5.37,0,0,0-.17,1.44h0a2,2,0,0,1,1.91-1,2.66,2.66,0,0,1,1,.19,2.22,2.22,0,0,1,.75.53,2.49,2.49,0,0,1,.49.82A3.21,3.21,0,0,1,135.29,56.33Zm-1,.13a2.4,2.4,0,0,0-.11-.79,1.57,1.57,0,0,0-.32-.6,1.37,1.37,0,0,0-.51-.38,1.67,1.67,0,0,0-.69-.13,1.59,1.59,0,0,0-.66.13,1.68,1.68,0,0,0-.88.91,1.75,1.75,0,0,0-.13.65,2.37,2.37,0,0,0,.13.81,2,2,0,0,0,.34.66,1.58,1.58,0,0,0,.53.44,1.47,1.47,0,0,0,.69.17,1.59,1.59,0,0,0,.66-.14,1.39,1.39,0,0,0,.51-.39,1.77,1.77,0,0,0,.33-.59A2.51,2.51,0,0,0,134.3,56.46Z" fill="#4d5359"/><path d="M136.76,60.91h-.85a7.75,7.75,0,0,0,1.83-5.13,7.91,7.91,0,0,0-1.84-5.18h.86a7.73,7.73,0,0,1,1.83,5.19A7.46,7.46,0,0,1,136.76,60.91Z" fill="#4d5359"/><rect x="24.5" y="69.5" width="299" height="23" fill="#e6eaec"/><path d="M323,70V92H25V70H323m1-1H24V93H324V69Z" fill="#a8abae"/><rect x="25.94" y="71" width="3" height="20" fill="#4384b7"/></svg>