<svg id="Layer_1" data-name="Layer 1" xmlns="http://www.w3.org/2000/svg" xmlns:xlink="http://www.w3.org/1999/xlink" width="346" height="162" viewBox="0 0 346 162"><defs><linearGradient id="linear-gradient" x1="287" y1="125.05" x2="287" y2="146.97" gradientUnits="userSpaceOnUse"><stop offset="0" stop-color="#ebe9ec"/><stop offset="0.28" stop-color="#e5e6e9"/><stop offset="1" stop-color="#dadfe2"/></linearGradient><linearGradient id="linear-gradient-2" x1="150" y1="81" x2="218.06" y2="81" gradientUnits="userSpaceOnUse"><stop offset="0.01" stop-color="#fff" stop-opacity="0"/><stop offset="0.08" stop-color="#fff" stop-opacity="0.01"/><stop offset="0.14" stop-color="#fff" stop-opacity="0.06"/><stop offset="0.19" stop-color="#fff" stop-opacity="0.13"/><stop offset="0.25" stop-color="#fff" stop-opacity="0.22"/><stop offset="0.3" stop-color="#fff" stop-opacity="0.35"/><stop offset="0.36" stop-color="#fff" stop-opacity="0.51"/><stop offset="0.41" stop-color="#fff" stop-opacity="0.69"/><stop offset="0.46" stop-color="#fff" stop-opacity="0.9"/><stop offset="0.48" stop-color="#fff"/><stop offset="0.51" stop-color="#fff" stop-opacity="0.87"/><stop offset="0.56" stop-color="#fff" stop-opacity="0.67"/><stop offset="0.61" stop-color="#fff" stop-opacity="0.49"/><stop offset="0.66" stop-color="#fff" stop-opacity="0.34"/><stop offset="0.72" stop-color="#fff" stop-opacity="0.21"/><stop offset="0.78" stop-color="#fff" stop-opacity="0.12"/><stop offset="0.84" stop-color="#fff" stop-opacity="0.05"/><stop offset="0.9" stop-color="#fff" stop-opacity="0.01"/><stop offset="0.98" stop-color="#fff" stop-opacity="0"/></linearGradient></defs><title>progress-indicators-update-hardware</title><polygon points="4 23.92 4 114.96 343.99 114.96 343.99 24 4 23.92" fill="#eef0ef"/><rect x="4" y="114" width="338" height="44" fill="#e1e3e4"/><path d="M0,0V162H346V0ZM342,158H4V29H342Z" fill="#4d5359"/><rect x="4" y="113" width="338" height="1" fill="#a8abae"/><path d="M22.25,15.6q0,3.54-3.2,3.54-3,0-3.05-3.4V10.6h1v5.07c0,1.72.73,2.59,2.18,2.59s2.1-.84,2.1-2.5V10.6h1Z" fill="#fff"/><path d="M25.2,18.13h0v3.63h-1V13h1v1.05h0a2.29,2.29,0,0,1,2.08-1.19,2.2,2.2,0,0,1,1.81.81,3.32,3.32,0,0,1,.65,2.15A3.74,3.74,0,0,1,29,18.24a2.42,2.42,0,0,1-2,.9A2,2,0,0,1,25.2,18.13Zm0-2.42v.84a1.77,1.77,0,0,0,.48,1.26,1.59,1.59,0,0,0,1.23.52,1.6,1.6,0,0,0,1.37-.67,3,3,0,0,0,.49-1.85,2.41,2.41,0,0,0-.46-1.57A1.53,1.53,0,0,0,27,13.67a1.7,1.7,0,0,0-1.35.58A2.15,2.15,0,0,0,25.18,15.71Z" fill="#fff"/><path d="M36.39,19h-1V18h0a2.42,2.42,0,0,1-3.87.35,3.28,3.28,0,0,1-.68-2.19,3.57,3.57,0,0,1,.75-2.38,2.48,2.48,0,0,1,2-.9,1.93,1.93,0,0,1,1.8,1h0V10.12h1Zm-1-2.71V15.4A1.73,1.73,0,0,0,35,14.17a1.64,1.64,0,0,0-1.22-.5,1.66,1.66,0,0,0-1.38.64,2.81,2.81,0,0,0-.5,1.78,2.54,2.54,0,0,0,.48,1.64,1.57,1.57,0,0,0,1.3.6,1.63,1.63,0,0,0,1.3-.58A2.16,2.16,0,0,0,35.43,16.29Z" fill="#fff"/><path d="M42.63,19h-1v-.94h0a2.2,2.2,0,0,1-3.25.61,1.65,1.65,0,0,1-.51-1.26c0-1.12.66-1.78,2-2l1.8-.25q0-1.53-1.23-1.53a2.91,2.91,0,0,0-2,.74v-1a3.76,3.76,0,0,1,2-.56c1.41,0,2.11.75,2.11,2.24Zm-1-3-1.45.2a2.37,2.37,0,0,0-1,.34.93.93,0,0,0-.34.84.89.89,0,0,0,.31.71,1.2,1.2,0,0,0,.84.28,1.53,1.53,0,0,0,1.18-.5,1.79,1.79,0,0,0,.46-1.27Z" fill="#fff"/><path d="M47.23,18.94a1.82,1.82,0,0,1-.9.19c-1,0-1.58-.59-1.58-1.76V13.82h-1V13h1V11.54l1-.32V13h1.52v.82H45.71V17.2a1.37,1.37,0,0,0,.21.86.83.83,0,0,0,.68.26,1.05,1.05,0,0,0,.63-.2Z" fill="#fff"/><path d="M53.24,16.24H49a2.3,2.3,0,0,0,.54,1.55,1.87,1.87,0,0,0,1.42.54,2.91,2.91,0,0,0,1.86-.67v.91a3.5,3.5,0,0,1-2.09.57,2.53,2.53,0,0,1-2-.82A3.35,3.35,0,0,1,48,16a3.28,3.28,0,0,1,.79-2.28,2.54,2.54,0,0,1,2-.88,2.24,2.24,0,0,1,1.82.76,3.18,3.18,0,0,1,.65,2.12Zm-1-.81a1.91,1.91,0,0,0-.4-1.3,1.36,1.36,0,0,0-1.1-.46,1.56,1.56,0,0,0-1.15.48A2.25,2.25,0,0,0,49,15.43Z" fill="#fff"/><path d="M64.42,19h-1V15.17H59.09V19h-1V10.6h1v3.68h4.35V10.6h1Z" fill="#fff"/><path d="M70.79,19h-1v-.94h0a2.2,2.2,0,0,1-3.25.61,1.65,1.65,0,0,1-.51-1.26c0-1.12.66-1.78,2-2l1.8-.25q0-1.53-1.23-1.53a2.91,2.91,0,0,0-2,.74v-1a3.76,3.76,0,0,1,2-.56c1.41,0,2.11.75,2.11,2.24Zm-1-3-1.45.2a2.37,2.37,0,0,0-1,.34.93.93,0,0,0-.34.84.89.89,0,0,0,.31.71,1.2,1.2,0,0,0,.84.28,1.53,1.53,0,0,0,1.18-.5,1.79,1.79,0,0,0,.46-1.27Z" fill="#fff"/><path d="M75.73,14a1.16,1.16,0,0,0-.72-.19,1.21,1.21,0,0,0-1,.58,2.64,2.64,0,0,0-.42,1.58V19h-1V13h1v1.24h0a2,2,0,0,1,.62-1,1.45,1.45,0,0,1,1-.36,1.41,1.41,0,0,1,.57.09Z" fill="#fff"/><path d="M81.74,19h-1V18h0a2.21,2.21,0,0,1-2.06,1.16,2.24,2.24,0,0,1-1.81-.81,3.28,3.28,0,0,1-.67-2.19A3.57,3.57,0,0,1,77,13.76a2.46,2.46,0,0,1,2-.9,1.9,1.9,0,0,1,1.79,1h0V10.12h1Zm-1-2.71V15.4a1.73,1.73,0,0,0-.48-1.23,1.78,1.78,0,0,0-2.6.14,2.81,2.81,0,0,0-.51,1.78,2.54,2.54,0,0,0,.48,1.64,1.6,1.6,0,0,0,1.3.6,1.65,1.65,0,0,0,1.31-.58A2.16,2.16,0,0,0,80.78,16.29Z" fill="#fff"/><path d="M91.24,13l-1.8,6h-1l-1.24-4.29a2.34,2.34,0,0,1-.09-.56h0a2.44,2.44,0,0,1-.12.54L85.63,19h-1l-1.82-6h1l1.24,4.51a2.38,2.38,0,0,1,.08.54h0a2.43,2.43,0,0,1,.11-.55L86.72,13h.88l1.24,4.52a3.36,3.36,0,0,1,.09.54h0a3.52,3.52,0,0,1,.1-.54L90.29,13Z" fill="#fff"/><path d="M96.65,19h-1v-.94h0a2,2,0,0,1-1.85,1.08,2,2,0,0,1-1.4-.47,1.65,1.65,0,0,1-.51-1.26c0-1.12.66-1.78,2-2l1.8-.25c0-1-.41-1.53-1.24-1.53a2.9,2.9,0,0,0-2,.74v-1a3.76,3.76,0,0,1,2-.56c1.41,0,2.11.75,2.11,2.24Zm-1-3-1.45.2a2.48,2.48,0,0,0-1,.34,1,1,0,0,0-.34.84.9.9,0,0,0,.32.71,1.19,1.19,0,0,0,.83.28,1.51,1.51,0,0,0,1.18-.5,1.8,1.8,0,0,0,.47-1.27Z" fill="#fff"/><path d="M101.59,14a1.18,1.18,0,0,0-.73-.19,1.23,1.23,0,0,0-1,.58,2.72,2.72,0,0,0-.41,1.58V19h-1V13h1v1.24h0a2,2,0,0,1,.62-1,1.43,1.43,0,0,1,1-.36,1.41,1.41,0,0,1,.57.09Z" fill="#fff"/><path d="M107.3,16.24h-4.24a2.3,2.3,0,0,0,.54,1.55,1.87,1.87,0,0,0,1.42.54,2.93,2.93,0,0,0,1.86-.67v.91a3.5,3.5,0,0,1-2.09.57,2.53,2.53,0,0,1-2-.82,3.36,3.36,0,0,1-.73-2.3,3.29,3.29,0,0,1,.8-2.28,2.53,2.53,0,0,1,2-.88,2.24,2.24,0,0,1,1.82.76,3.18,3.18,0,0,1,.65,2.12Zm-1-.81a2,2,0,0,0-.4-1.3,1.36,1.36,0,0,0-1.1-.46,1.55,1.55,0,0,0-1.15.48,2.25,2.25,0,0,0-.59,1.28Z" fill="#fff"/><polygon points="335.14 9.97 333.62 8.45 330.07 12 326.52 8.45 325 9.97 328.55 13.52 325 17.07 326.52 18.59 330.07 15.04 333.62 18.59 335.14 17.07 331.59 13.52 335.14 9.97" fill="#fff"/><rect x="253" y="124.99" width="68" height="22.01" fill="url(#linear-gradient)"/><path d="M252,124v24h70V124Zm69,23H253V125h68Z" fill="#a8abae"/><path d="M276.29,139.65a4.89,4.89,0,0,1-2.32.49A3.74,3.74,0,0,1,271.1,139a4.26,4.26,0,0,1-1.08-3,4.46,4.46,0,0,1,1.22-3.26,4.08,4.08,0,0,1,3.07-1.24,4.92,4.92,0,0,1,2,.34v1a4.05,4.05,0,0,0-2-.5,3.08,3.08,0,0,0-2.35,1,3.66,3.66,0,0,0-.9,2.59,3.41,3.41,0,0,0,.85,2.44,2.85,2.85,0,0,0,2.2.92,4.06,4.06,0,0,0,2.19-.57Z" fill="#4d5359"/><path d="M282.17,140h-1v-.94h0a2,2,0,0,1-1.85,1.08,2,2,0,0,1-1.4-.47,1.65,1.65,0,0,1-.51-1.26c0-1.12.66-1.78,2-2l1.8-.25c0-1-.41-1.53-1.24-1.53a2.9,2.9,0,0,0-2,.74v-1a3.75,3.75,0,0,1,2-.56c1.41,0,2.12.75,2.12,2.24Zm-1-3-1.45.2a2.48,2.48,0,0,0-1,.34,1,1,0,0,0-.34.84.9.9,0,0,0,.32.71,1.18,1.18,0,0,0,.83.28,1.51,1.51,0,0,0,1.18-.5,1.8,1.8,0,0,0,.47-1.27Z" fill="#4d5359"/><path d="M289,140h-1v-3.42c0-1.28-.46-1.91-1.39-1.91a1.52,1.52,0,0,0-1.2.54,2,2,0,0,0-.47,1.37V140h-1v-6h1v1h0a2.17,2.17,0,0,1,2-1.14,1.83,1.83,0,0,1,1.51.64,2.79,2.79,0,0,1,.52,1.83Z" fill="#4d5359"/><path d="M294.86,139.72a3.1,3.1,0,0,1-1.64.42,2.73,2.73,0,0,1-2.07-.83,3,3,0,0,1-.79-2.17,3.3,3.3,0,0,1,.85-2.38,3,3,0,0,1,2.27-.9,3.2,3.2,0,0,1,1.39.29v1a2.38,2.38,0,0,0-1.43-.47,2,2,0,0,0-1.51.66,2.5,2.5,0,0,0-.58,1.73,2.36,2.36,0,0,0,.55,1.66,1.89,1.89,0,0,0,1.48.61,2.39,2.39,0,0,0,1.48-.52Z" fill="#4d5359"/><path d="M301.14,137.24H296.9a2.3,2.3,0,0,0,.54,1.55,1.87,1.87,0,0,0,1.42.54,2.93,2.93,0,0,0,1.86-.67v.91a3.5,3.5,0,0,1-2.09.57,2.53,2.53,0,0,1-2-.82,3.36,3.36,0,0,1-.73-2.3,3.29,3.29,0,0,1,.8-2.28,2.53,2.53,0,0,1,2-.88,2.24,2.24,0,0,1,1.82.76,3.18,3.18,0,0,1,.65,2.12Zm-1-.81a2,2,0,0,0-.4-1.3,1.36,1.36,0,0,0-1.1-.46,1.55,1.55,0,0,0-1.15.48,2.25,2.25,0,0,0-.59,1.28Z" fill="#4d5359"/><path d="M303.55,140h-1v-8.88h1Z" fill="#4d5359"/><path d="M30.82,58.65a4.89,4.89,0,0,1-2.32.49A3.73,3.73,0,0,1,25.63,58a4.26,4.26,0,0,1-1.08-3,4.5,4.5,0,0,1,1.21-3.26,4.12,4.12,0,0,1,3.08-1.24,4.92,4.92,0,0,1,2,.34v1.05a4.08,4.08,0,0,0-2-.5,3.07,3.07,0,0,0-2.35,1,3.66,3.66,0,0,0-.9,2.59,3.44,3.44,0,0,0,.84,2.44,2.87,2.87,0,0,0,2.21.92,4.11,4.11,0,0,0,2.19-.57Z" fill="#4d5359"/><path d="M34.91,59.14a2.77,2.77,0,0,1-2.12-.84,3.11,3.11,0,0,1-.8-2.23,3.25,3.25,0,0,1,.83-2.36,3,3,0,0,1,2.23-.85,2.68,2.68,0,0,1,2.1.83,3.77,3.77,0,0,1-.06,4.59A2.87,2.87,0,0,1,34.91,59.14ZM35,53.67a1.81,1.81,0,0,0-1.46.63A2.59,2.59,0,0,0,33,56a2.46,2.46,0,0,0,.54,1.68,1.85,1.85,0,0,0,1.46.61,1.75,1.75,0,0,0,1.43-.6,3.23,3.23,0,0,0,0-3.45A1.73,1.73,0,0,0,35,53.67Z" fill="#4d5359"/><path d="M44.41,59h-1V55.58c0-1.28-.46-1.91-1.39-1.91a1.5,1.5,0,0,0-1.19.54,2,2,0,0,0-.48,1.37V59h-1V53h1v1h0a2.16,2.16,0,0,1,2-1.14,1.84,1.84,0,0,1,1.5.63,2.84,2.84,0,0,1,.52,1.84Z" fill="#4d5359"/><path d="M51.21,59h-1V55.58c0-1.28-.46-1.91-1.39-1.91a1.5,1.5,0,0,0-1.19.54,2,2,0,0,0-.47,1.37V59h-1V53h1v1h0a2.16,2.16,0,0,1,2-1.14,1.83,1.83,0,0,1,1.5.63,2.84,2.84,0,0,1,.53,1.84Z" fill="#4d5359"/><path d="M57.84,56.24H53.6a2.3,2.3,0,0,0,.54,1.55,1.87,1.87,0,0,0,1.42.54,2.91,2.91,0,0,0,1.86-.67v.91a3.5,3.5,0,0,1-2.09.57,2.53,2.53,0,0,1-2-.82,3.35,3.35,0,0,1-.72-2.3,3.28,3.28,0,0,1,.79-2.28,2.54,2.54,0,0,1,2-.88,2.24,2.24,0,0,1,1.82.76,3.18,3.18,0,0,1,.65,2.12Zm-1-.81a1.91,1.91,0,0,0-.4-1.3,1.36,1.36,0,0,0-1.1-.46,1.56,1.56,0,0,0-1.15.48,2.25,2.25,0,0,0-.59,1.28Z" fill="#4d5359"/><path d="M63.38,58.72a3.1,3.1,0,0,1-1.64.42,2.69,2.69,0,0,1-2.07-.84,3,3,0,0,1-.79-2.16,3.3,3.3,0,0,1,.85-2.38,3,3,0,0,1,2.27-.9,3.2,3.2,0,0,1,1.39.29v1A2.38,2.38,0,0,0,62,53.67a2,2,0,0,0-1.51.66,2.5,2.5,0,0,0-.58,1.73,2.36,2.36,0,0,0,.55,1.66,1.89,1.89,0,0,0,1.48.61,2.39,2.39,0,0,0,1.48-.52Z" fill="#4d5359"/><path d="M67.62,58.94a1.82,1.82,0,0,1-.9.19c-1,0-1.58-.59-1.58-1.76V53.82h-1V53h1V51.54l1-.32V53h1.51v.82H66.11V57.2a1.38,1.38,0,0,0,.2.86.83.83,0,0,0,.68.26,1.05,1.05,0,0,0,.63-.2Z" fill="#4d5359"/><path d="M69.39,51.48A.6.6,0,0,1,69,51.3a.59.59,0,0,1-.18-.44.61.61,0,0,1,.18-.45.6.6,0,0,1,.44-.18.61.61,0,0,1,.45.18.62.62,0,0,1,.19.45.59.59,0,0,1-.19.43A.58.58,0,0,1,69.39,51.48ZM69.86,59h-1V53h1Z" fill="#4d5359"/><path d="M76.79,59h-1V55.58c0-1.28-.47-1.91-1.4-1.91a1.5,1.5,0,0,0-1.19.54,2,2,0,0,0-.47,1.37V59h-1V53h1v1h0a2.16,2.16,0,0,1,2-1.14,1.85,1.85,0,0,1,1.51.63,2.9,2.9,0,0,1,.52,1.84Z" fill="#4d5359"/><path d="M83.72,58.52q0,3.3-3.17,3.3a4.23,4.23,0,0,1-1.94-.42v-1a4,4,0,0,0,1.93.56c1.48,0,2.22-.78,2.22-2.35V58h0a2.23,2.23,0,0,1-2.06,1.15,2.27,2.27,0,0,1-1.8-.8,3.22,3.22,0,0,1-.68-2.15,3.73,3.73,0,0,1,.73-2.43,2.46,2.46,0,0,1,2-.9,2,2,0,0,1,1.79,1h0V53h1Zm-1-2.23V55.4a1.69,1.69,0,0,0-.49-1.22,1.58,1.58,0,0,0-1.2-.51,1.66,1.66,0,0,0-1.39.64,2.9,2.9,0,0,0-.51,1.82,2.43,2.43,0,0,0,.49,1.6,1.55,1.55,0,0,0,1.28.6,1.68,1.68,0,0,0,1.31-.57A2.14,2.14,0,0,0,82.76,56.29Z" fill="#4d5359"/><path d="M91.73,58.94a1.76,1.76,0,0,1-.89.19c-1,0-1.58-.59-1.58-1.76V53.82h-1V53h1V51.54l1-.32V53h1.51v.82H90.22V57.2a1.37,1.37,0,0,0,.21.86.81.81,0,0,0,.68.26,1,1,0,0,0,.62-.2Z" fill="#4d5359"/><path d="M95.43,59.14a2.77,2.77,0,0,1-2.12-.84,3.11,3.11,0,0,1-.8-2.23,3.25,3.25,0,0,1,.83-2.36,3,3,0,0,1,2.23-.85,2.66,2.66,0,0,1,2.1.83,3.77,3.77,0,0,1-.06,4.59A2.87,2.87,0,0,1,95.43,59.14Zm.07-5.47A1.81,1.81,0,0,0,94,54.3,2.59,2.59,0,0,0,93.5,56,2.46,2.46,0,0,0,94,57.72a1.86,1.86,0,0,0,1.46.61,1.75,1.75,0,0,0,1.43-.6,3.17,3.17,0,0,0,0-3.45A1.73,1.73,0,0,0,95.5,53.67Z" fill="#4d5359"/><path d="M108.36,59h-1V58h0a2.42,2.42,0,0,1-3.87.35,3.28,3.28,0,0,1-.68-2.19,3.57,3.57,0,0,1,.75-2.38,2.48,2.48,0,0,1,2-.9,1.93,1.93,0,0,1,1.8,1h0V50.12h1Zm-1-2.71V55.4a1.73,1.73,0,0,0-.48-1.23,1.62,1.62,0,0,0-1.22-.5,1.66,1.66,0,0,0-1.38.64,2.81,2.81,0,0,0-.5,1.78,2.54,2.54,0,0,0,.48,1.64,1.57,1.57,0,0,0,1.3.6,1.63,1.63,0,0,0,1.3-.58A2.11,2.11,0,0,0,107.4,56.29Z" fill="#4d5359"/><path d="M115.13,56.24h-4.24a2.3,2.3,0,0,0,.54,1.55,1.88,1.88,0,0,0,1.42.54,2.89,2.89,0,0,0,1.86-.67v.91a3.47,3.47,0,0,1-2.09.57,2.54,2.54,0,0,1-2-.82,3.35,3.35,0,0,1-.72-2.3,3.28,3.28,0,0,1,.79-2.28,2.54,2.54,0,0,1,2-.88,2.26,2.26,0,0,1,1.83.76,3.18,3.18,0,0,1,.64,2.12Zm-1-.81a2,2,0,0,0-.4-1.3,1.37,1.37,0,0,0-1.1-.46,1.57,1.57,0,0,0-1.16.48,2.24,2.24,0,0,0-.58,1.28Z" fill="#4d5359"/><path d="M121.3,53l-2.39,6H118l-2.28-6h1.06l1.52,4.36a3.67,3.67,0,0,1,.21.84h0a3.81,3.81,0,0,1,.18-.82l1.6-4.38Z" fill="#4d5359"/><path d="M122.82,51.48a.62.62,0,0,1-.44-.18.59.59,0,0,1-.18-.44.61.61,0,0,1,.18-.45.62.62,0,0,1,.44-.18.61.61,0,0,1,.45.18.58.58,0,0,1,.19.45.56.56,0,0,1-.19.43A.58.58,0,0,1,122.82,51.48Zm.47,7.52h-1V53h1Z" fill="#4d5359"/><path d="M129.33,58.72a3.1,3.1,0,0,1-1.64.42,2.69,2.69,0,0,1-2.07-.84,3,3,0,0,1-.79-2.16,3.3,3.3,0,0,1,.85-2.38,3,3,0,0,1,2.27-.9,3.23,3.23,0,0,1,1.39.29v1a2.4,2.4,0,0,0-1.43-.47,1.93,1.93,0,0,0-1.51.66,2.5,2.5,0,0,0-.59,1.73,2.36,2.36,0,0,0,.56,1.66,1.89,1.89,0,0,0,1.48.61,2.39,2.39,0,0,0,1.48-.52Z" fill="#4d5359"/><path d="M135.6,56.24h-4.23a2.21,2.21,0,0,0,.54,1.55,1.85,1.85,0,0,0,1.41.54,2.94,2.94,0,0,0,1.87-.67v.91a3.52,3.52,0,0,1-2.09.57,2.52,2.52,0,0,1-2-.82,3.81,3.81,0,0,1,.07-4.58,2.51,2.51,0,0,1,2-.88,2.25,2.25,0,0,1,1.82.76,3.18,3.18,0,0,1,.64,2.12Zm-1-.81a2,2,0,0,0-.4-1.3,1.37,1.37,0,0,0-1.1-.46,1.59,1.59,0,0,0-1.16.48,2.24,2.24,0,0,0-.58,1.28Z" fill="#4d5359"/><path d="M137.39,59.13a.66.66,0,0,1-.46-.19.64.64,0,0,1-.19-.47.62.62,0,0,1,.19-.46.63.63,0,0,1,.46-.2.65.65,0,0,1,.47.2.62.62,0,0,1,.19.46.64.64,0,0,1-.19.47A.68.68,0,0,1,137.39,59.13Z" fill="#4d5359"/><path d="M140,59.13a.66.66,0,0,1-.46-.19.68.68,0,0,1-.19-.47.66.66,0,0,1,.19-.46.64.64,0,0,1,.93,0,.62.62,0,0,1,.19.46.64.64,0,0,1-.19.47A.67.67,0,0,1,140,59.13Z" fill="#4d5359"/><path d="M142.59,59.13a.66.66,0,0,1-.46-.19.68.68,0,0,1-.19-.47.66.66,0,0,1,.19-.46.67.67,0,0,1,1.13.46.65.65,0,0,1-.2.47A.67.67,0,0,1,142.59,59.13Z" fill="#4d5359"/><rect x="24.5" y="69.5" width="299" height="23" fill="#e6eaec"/><path d="M323,70V92H25V70H323m1-1H24V93H324V69Z" fill="#a8abae"/><rect x="25.94" y="71" width="296.06" height="20" fill="#4384b7"/><rect x="150" y="71" width="68.06" height="20" fill="url(#linear-gradient-2)"/></svg>