<svg xmlns="http://www.w3.org/2000/svg" xmlns:xlink="http://www.w3.org/1999/xlink" width="436" height="187.01" viewBox="0 0 436 187.01"><defs><linearGradient id="linear-gradient" x1="377" y1="152.11" x2="377" y2="173.69" gradientUnits="userSpaceOnUse"><stop offset="0" stop-color="#ebe9ec"/><stop offset="0.28" stop-color="#e5e6e9"/><stop offset="1" stop-color="#dadfe2"/></linearGradient></defs><title>confirmations-build-bitfile</title><g id="SPEC_text"><polygon points="4 23.92 4 140.01 433.99 140.01 433.99 24 4 23.92" fill="#eef0ef"/><rect x="4" y="141.05" width="428" height="44" fill="#e1e3e4"/><path d="M0,0V187.05H436V0ZM432,183.05H4V29H432Z" fill="#4d5359"/><rect x="4" y="140.05" width="428" height="1" fill="#a8abae"/><path d="M17.1,20V11.6h2.39a2.65,2.65,0,0,1,1.73.53,1.72,1.72,0,0,1,.64,1.39,2,2,0,0,1-.39,1.24,2.11,2.11,0,0,1-1.06.75v0a2.13,2.13,0,0,1,1.36.64,2,2,0,0,1,.5,1.41,2.17,2.17,0,0,1-.77,1.74,2.84,2.84,0,0,1-1.95.67Zm1-7.51V15.2h1a1.89,1.89,0,0,0,1.27-.39,1.35,1.35,0,0,0,.47-1.1c0-.81-.54-1.22-1.61-1.22Zm0,3.6v3h1.33a2,2,0,0,0,1.35-.41,1.43,1.43,0,0,0,.47-1.13c0-1-.67-1.48-2-1.48Z" fill="#fff"/><path d="M28.7,20h-1v-.95h0a2,2,0,0,1-1.85,1.09c-1.43,0-2.15-.85-2.15-2.55V14h1v3.43c0,1.27.48,1.9,1.45,1.9a1.47,1.47,0,0,0,1.16-.52,2,2,0,0,0,.45-1.35V14h1Z" fill="#fff"/><path d="M31.13,12.48a.62.62,0,0,1-.44-.18.59.59,0,0,1-.18-.44.61.61,0,0,1,.18-.45.62.62,0,0,1,.44-.18.61.61,0,0,1,.45.18.58.58,0,0,1,.19.45.56.56,0,0,1-.19.43A.58.58,0,0,1,31.13,12.48ZM31.6,20h-1V14h1Z" fill="#fff"/><path d="M34.51,20h-1V11.12h1Z" fill="#fff"/><path d="M41.58,20h-1V19h0a2.21,2.21,0,0,1-2.06,1.16,2.25,2.25,0,0,1-1.81-.8,3.33,3.33,0,0,1-.68-2.2,3.57,3.57,0,0,1,.75-2.38,2.48,2.48,0,0,1,2-.9,1.91,1.91,0,0,1,1.8,1h0V11.12h1Zm-1-2.71V16.4a1.73,1.73,0,0,0-.48-1.23,1.61,1.61,0,0,0-1.21-.5,1.67,1.67,0,0,0-1.39.64,2.87,2.87,0,0,0-.5,1.78,2.54,2.54,0,0,0,.48,1.64,1.59,1.59,0,0,0,1.3.6,1.61,1.61,0,0,0,1.3-.58A2.11,2.11,0,0,0,40.61,17.29Z" fill="#fff"/><path d="M46.94,20V11.6h2.39a2.67,2.67,0,0,1,1.73.53,1.74,1.74,0,0,1,.63,1.39,2,2,0,0,1-.38,1.24,2.14,2.14,0,0,1-1.07.75v0a2.1,2.1,0,0,1,1.36.64,2,2,0,0,1,.51,1.41,2.2,2.2,0,0,1-.77,1.74,2.87,2.87,0,0,1-2,.67Zm1-7.51V15.2h1a1.91,1.91,0,0,0,1.27-.39,1.34,1.34,0,0,0,.46-1.1c0-.81-.53-1.22-1.61-1.22Zm0,3.6v3h1.34a2,2,0,0,0,1.34-.41,1.4,1.4,0,0,0,.48-1.13c0-1-.68-1.48-2-1.48Z" fill="#fff"/><path d="M54.18,12.48a.6.6,0,0,1-.44-.18.59.59,0,0,1-.18-.44.61.61,0,0,1,.18-.45.6.6,0,0,1,.44-.18.64.64,0,0,1,.45.18.61.61,0,0,1,.18.45.58.58,0,0,1-.18.43A.61.61,0,0,1,54.18,12.48ZM54.65,20h-1V14h1Z" fill="#fff"/><path d="M59.38,19.94a1.82,1.82,0,0,1-.9.19c-1,0-1.58-.59-1.58-1.76V14.82h-1V14h1V12.54l1-.32V14h1.52v.82H57.86V18.2a1.37,1.37,0,0,0,.21.86.83.83,0,0,0,.68.26,1.05,1.05,0,0,0,.63-.2Z" fill="#fff"/><path d="M63.62,12A1.31,1.31,0,0,0,63,11.8c-.68,0-1,.43-1,1.27V14h1.4v.82H62V20H61V14.82H60V14h1V13a2,2,0,0,1,.55-1.49A1.81,1.81,0,0,1,62.93,11a1.86,1.86,0,0,1,.69.1Z" fill="#fff"/><path d="M64.91,12.48a.6.6,0,0,1-.44-.18.59.59,0,0,1-.18-.44.61.61,0,0,1,.18-.45.6.6,0,0,1,.44-.18.64.64,0,0,1,.45.18.61.61,0,0,1,.18.45.58.58,0,0,1-.18.43A.61.61,0,0,1,64.91,12.48ZM65.38,20h-1V14h1Z" fill="#fff"/><path d="M68.28,20h-1V11.12h1Z" fill="#fff"/><path d="M75.05,17.24H70.81a2.3,2.3,0,0,0,.54,1.55,1.88,1.88,0,0,0,1.42.54,2.89,2.89,0,0,0,1.86-.67v.91a3.47,3.47,0,0,1-2.09.57,2.53,2.53,0,0,1-2-.82,3.35,3.35,0,0,1-.72-2.3,3.28,3.28,0,0,1,.79-2.28,2.54,2.54,0,0,1,2-.88,2.26,2.26,0,0,1,1.83.76,3.18,3.18,0,0,1,.64,2.12Zm-1-.81a2,2,0,0,0-.41-1.3,1.35,1.35,0,0,0-1.09-.46,1.57,1.57,0,0,0-1.16.48,2.24,2.24,0,0,0-.58,1.28Z" fill="#fff"/><polygon points="425.14 10.97 423.62 9.45 420.07 13 416.52 9.45 415 10.97 418.55 14.52 415 18.07 416.52 19.59 420.07 16.04 423.62 19.59 425.14 18.07 421.59 14.52 425.14 10.97" fill="#fff"/><path d="M31.61,57.9H30.52l-.9-2.36H26.06l-.84,2.36H24.13l3.22-8.41h1ZM29.3,54.66,28,51.08a3.81,3.81,0,0,1-.12-.57h0a3.51,3.51,0,0,1-.13.57l-1.31,3.58Z" fill="#4d5359"/><path d="M37.69,57.9h-1V54.47c0-1.27-.46-1.91-1.39-1.91a1.48,1.48,0,0,0-1.19.55,2,2,0,0,0-.48,1.36V57.9h-1v-6h1v1h0a2.15,2.15,0,0,1,2-1.13,1.84,1.84,0,0,1,1.5.63,2.82,2.82,0,0,1,.52,1.84Z" fill="#4d5359"/><path d="M44.28,51.9l-2.76,7q-.74,1.86-2.07,1.86a2.25,2.25,0,0,1-.63-.08v-.86a1.79,1.79,0,0,0,.57.11A1.19,1.19,0,0,0,40.48,59L41,57.88l-2.35-6h1.07l1.62,4.61c0,.06.06.21.13.46h0q0-.13.12-.45l1.7-4.62Z" fill="#4d5359"/><path d="M52.69,57.62a3.1,3.1,0,0,1-1.64.42A2.69,2.69,0,0,1,49,57.2,3,3,0,0,1,48.19,55,3.33,3.33,0,0,1,49,52.65a3,3,0,0,1,2.26-.89,3.1,3.1,0,0,1,1.4.29v1a2.47,2.47,0,0,0-1.43-.47,1.93,1.93,0,0,0-1.51.66A2.52,2.52,0,0,0,49.17,55a2.39,2.39,0,0,0,.56,1.67,1.91,1.91,0,0,0,1.48.61,2.47,2.47,0,0,0,1.48-.52Z" fill="#4d5359"/><path d="M59.12,57.9h-1V54.44c0-1.25-.46-1.88-1.39-1.88a1.51,1.51,0,0,0-1.19.55,2,2,0,0,0-.48,1.39v3.4h-1V49h1v3.88h0a2.19,2.19,0,0,1,2-1.13c1.36,0,2,.81,2,2.44Z" fill="#4d5359"/><path d="M65.23,57.9h-1V57h0A2,2,0,0,1,62.4,58,2,2,0,0,1,61,57.56a1.65,1.65,0,0,1-.5-1.26q0-1.68,2-1.95l1.8-.26c0-1-.42-1.53-1.24-1.53a3,3,0,0,0-2,.74v-1a3.68,3.68,0,0,1,2-.56c1.41,0,2.12.74,2.12,2.23Zm-1-3-1.45.2a2.3,2.3,0,0,0-1,.33,1,1,0,0,0-.34.84,1,1,0,0,0,.31.72,1.2,1.2,0,0,0,.84.28,1.55,1.55,0,0,0,1.18-.5,1.81,1.81,0,0,0,.47-1.27Z" fill="#4d5359"/><path d="M72,57.9h-1V54.47c0-1.27-.47-1.91-1.4-1.91a1.48,1.48,0,0,0-1.19.55A2,2,0,0,0,68,54.47V57.9H67v-6h1v1h0a2.15,2.15,0,0,1,2-1.13,1.85,1.85,0,0,1,1.51.63A2.88,2.88,0,0,1,72,54.23Z" fill="#4d5359"/><path d="M79,57.42c0,2.2-1.06,3.3-3.16,3.3a4.25,4.25,0,0,1-2-.42v-1a4.06,4.06,0,0,0,1.93.56c1.48,0,2.22-.79,2.22-2.36v-.65h0A2.25,2.25,0,0,1,75.9,58a2.27,2.27,0,0,1-1.8-.8,3.24,3.24,0,0,1-.68-2.15,3.73,3.73,0,0,1,.73-2.43,2.46,2.46,0,0,1,2-.9,2,2,0,0,1,1.79,1h0V51.9h1Zm-1-2.24V54.3a1.7,1.7,0,0,0-.49-1.23,1.58,1.58,0,0,0-1.2-.51,1.66,1.66,0,0,0-1.39.65A2.87,2.87,0,0,0,74.4,55a2.46,2.46,0,0,0,.49,1.61,1.55,1.55,0,0,0,1.28.6,1.65,1.65,0,0,0,1.31-.58A2.12,2.12,0,0,0,78,55.18Z" fill="#4d5359"/><path d="M85.72,55.14H81.48A2.27,2.27,0,0,0,82,56.68a1.84,1.84,0,0,0,1.42.55,2.93,2.93,0,0,0,1.86-.67v.9a3.43,3.43,0,0,1-2.09.58,2.56,2.56,0,0,1-2-.82,3.37,3.37,0,0,1-.73-2.3,3.29,3.29,0,0,1,.8-2.28,2.53,2.53,0,0,1,2-.88,2.24,2.24,0,0,1,1.82.76,3.15,3.15,0,0,1,.65,2.11Zm-1-.82a2,2,0,0,0-.4-1.29,1.36,1.36,0,0,0-1.1-.47,1.56,1.56,0,0,0-1.15.49,2.22,2.22,0,0,0-.59,1.27Z" fill="#4d5359"/><path d="M86.81,57.68v-1a2.88,2.88,0,0,0,1.73.58c.84,0,1.26-.28,1.26-.85a.72.72,0,0,0-.11-.4,1.17,1.17,0,0,0-.29-.3,2.86,2.86,0,0,0-.43-.23l-.54-.21c-.27-.11-.5-.22-.7-.32a2,2,0,0,1-.5-.37,1.21,1.21,0,0,1-.31-.46,1.57,1.57,0,0,1-.1-.6,1.44,1.44,0,0,1,.19-.75,1.67,1.67,0,0,1,.52-.54,2.21,2.21,0,0,1,.73-.33,3.07,3.07,0,0,1,.86-.11,3.62,3.62,0,0,1,1.39.26v1A2.71,2.71,0,0,0,89,52.56a1.49,1.49,0,0,0-.49.07,1.05,1.05,0,0,0-.37.17.66.66,0,0,0-.24.26.7.7,0,0,0-.09.35.8.8,0,0,0,.09.39.74.74,0,0,0,.25.28,1.67,1.67,0,0,0,.4.22l.53.22c.26.1.5.21.71.31a2.44,2.44,0,0,1,.54.37,1.56,1.56,0,0,1,.35.46,1.54,1.54,0,0,1,.12.63,1.45,1.45,0,0,1-.2.77,1.74,1.74,0,0,1-.53.55,2.43,2.43,0,0,1-.75.32,3.82,3.82,0,0,1-.9.11A3.34,3.34,0,0,1,86.81,57.68Z" fill="#4d5359"/><path d="M100.32,51.9l-2.76,7q-.74,1.86-2.07,1.86a2.25,2.25,0,0,1-.63-.08v-.86a1.84,1.84,0,0,0,.57.11A1.17,1.17,0,0,0,96.52,59L97,57.88l-2.34-6h1.06l1.63,4.61c0,.06.06.21.12.46h0c0-.09,0-.24.11-.45l1.71-4.62Z" fill="#4d5359"/><path d="M103.8,58a2.79,2.79,0,0,1-2.12-.84,3.12,3.12,0,0,1-.79-2.23,3.23,3.23,0,0,1,.82-2.36,3,3,0,0,1,2.24-.85,2.68,2.68,0,0,1,2.09.82,3.29,3.29,0,0,1,.75,2.29,3.21,3.21,0,0,1-.81,2.3A2.84,2.84,0,0,1,103.8,58Zm.08-5.48a1.84,1.84,0,0,0-1.47.63,2.59,2.59,0,0,0-.54,1.74,2.41,2.41,0,0,0,.55,1.68,1.85,1.85,0,0,0,1.46.62,1.74,1.74,0,0,0,1.43-.61,2.62,2.62,0,0,0,.5-1.71,2.71,2.71,0,0,0-.5-1.74A1.77,1.77,0,0,0,103.88,52.56Z" fill="#4d5359"/><path d="M113.18,57.9h-1V57h0A2,2,0,0,1,110.34,58c-1.43,0-2.14-.85-2.14-2.56V51.9h1v3.43c0,1.27.49,1.9,1.46,1.9a1.44,1.44,0,0,0,1.15-.52,2,2,0,0,0,.46-1.36V51.9h1Z" fill="#4d5359"/><path d="M126.93,57.9h-1V54.45a2.66,2.66,0,0,0-.3-1.44,1.17,1.17,0,0,0-1-.45,1.26,1.26,0,0,0-1,.57,2.11,2.11,0,0,0-.43,1.34V57.9h-1V54.33c0-1.18-.46-1.77-1.37-1.77a1.27,1.27,0,0,0-1,.53,2.18,2.18,0,0,0-.41,1.38V57.9h-1v-6h1v1h0a2,2,0,0,1,1.86-1.09,1.76,1.76,0,0,1,1.08.34,1.73,1.73,0,0,1,.62.9,2.14,2.14,0,0,1,2-1.24c1.32,0,2,.81,2,2.44Z" fill="#4d5359"/><path d="M133,57.9h-1V57h0A2,2,0,0,1,130.21,58a2,2,0,0,1-1.41-.48,1.65,1.65,0,0,1-.5-1.26q0-1.68,2-1.95l1.8-.26c0-1-.42-1.53-1.24-1.53a3,3,0,0,0-2,.74v-1a3.68,3.68,0,0,1,2-.56c1.41,0,2.12.74,2.12,2.23Zm-1-3-1.45.2a2.3,2.3,0,0,0-1,.33,1,1,0,0,0-.34.84,1,1,0,0,0,.31.72,1.2,1.2,0,0,0,.84.28,1.55,1.55,0,0,0,1.18-.5,1.81,1.81,0,0,0,.47-1.27Z" fill="#4d5359"/><path d="M139.83,57.9h-1.35L135.83,55h0V57.9h-1V49h1v5.63h0l2.52-2.74h1.26l-2.78,2.89Z" fill="#4d5359"/><path d="M145.39,55.14h-4.23a2.18,2.18,0,0,0,.54,1.54,1.82,1.82,0,0,0,1.42.55,2.93,2.93,0,0,0,1.86-.67v.9a3.45,3.45,0,0,1-2.09.58,2.55,2.55,0,0,1-2-.82,3.33,3.33,0,0,1-.73-2.3,3.29,3.29,0,0,1,.8-2.28,2.53,2.53,0,0,1,2-.88,2.25,2.25,0,0,1,1.82.76,3.15,3.15,0,0,1,.64,2.11Zm-1-.82A2,2,0,0,0,144,53a1.36,1.36,0,0,0-1.1-.47,1.56,1.56,0,0,0-1.15.49,2.16,2.16,0,0,0-.59,1.27Z" fill="#4d5359"/><path d="M152.92,57.84a2,2,0,0,1-.9.18c-1.05,0-1.57-.58-1.57-1.75V52.72h-1V51.9h1V50.43l1-.31V51.9h1.51v.82h-1.51V56.1a1.38,1.38,0,0,0,.2.86.83.83,0,0,0,.68.26,1.05,1.05,0,0,0,.63-.2Z" fill="#4d5359"/><path d="M156.62,58a2.79,2.79,0,0,1-2.13-.84A3.12,3.12,0,0,1,153.7,55a3.23,3.23,0,0,1,.82-2.36,3,3,0,0,1,2.24-.85,2.68,2.68,0,0,1,2.09.82,3.29,3.29,0,0,1,.75,2.29,3.21,3.21,0,0,1-.81,2.3A2.82,2.82,0,0,1,156.62,58Zm.07-5.48a1.84,1.84,0,0,0-1.47.63,2.59,2.59,0,0,0-.54,1.74,2.41,2.41,0,0,0,.55,1.68,1.85,1.85,0,0,0,1.46.62,1.74,1.74,0,0,0,1.43-.61,2.62,2.62,0,0,0,.5-1.71,2.71,2.71,0,0,0-.5-1.74A1.77,1.77,0,0,0,156.69,52.56Z" fill="#4d5359"/><path d="M168.52,57.62a3.13,3.13,0,0,1-1.64.42,2.73,2.73,0,0,1-2.08-.84A3,3,0,0,1,164,55a3.33,3.33,0,0,1,.85-2.39,3,3,0,0,1,2.26-.89,3.13,3.13,0,0,1,1.4.29v1a2.47,2.47,0,0,0-1.43-.47,1.92,1.92,0,0,0-1.51.66A2.52,2.52,0,0,0,165,55a2.39,2.39,0,0,0,.55,1.67,1.94,1.94,0,0,0,1.49.61,2.49,2.49,0,0,0,1.48-.52Z" fill="#4d5359"/><path d="M172.48,58a2.79,2.79,0,0,1-2.13-.84,3.12,3.12,0,0,1-.79-2.23,3.23,3.23,0,0,1,.82-2.36,3,3,0,0,1,2.24-.85,2.68,2.68,0,0,1,2.09.82,3.29,3.29,0,0,1,.75,2.29,3.21,3.21,0,0,1-.81,2.3A2.82,2.82,0,0,1,172.48,58Zm.07-5.48a1.84,1.84,0,0,0-1.47.63,2.59,2.59,0,0,0-.54,1.74,2.41,2.41,0,0,0,.55,1.68,1.85,1.85,0,0,0,1.46.62,1.73,1.73,0,0,0,1.43-.61,2.62,2.62,0,0,0,.5-1.71,2.71,2.71,0,0,0-.5-1.74A1.76,1.76,0,0,0,172.55,52.56Z" fill="#4d5359"/><path d="M182.12,57.9h-1v-1h0a2.42,2.42,0,0,1-3.87.35,3.32,3.32,0,0,1-.68-2.19,3.6,3.6,0,0,1,.75-2.39,2.47,2.47,0,0,1,2-.89,1.93,1.93,0,0,1,1.8,1h0V49h1Zm-1-2.72V54.3a1.7,1.7,0,0,0-.48-1.23,1.61,1.61,0,0,0-1.22-.51,1.66,1.66,0,0,0-1.38.65,2.79,2.79,0,0,0-.51,1.78,2.56,2.56,0,0,0,.49,1.64,1.57,1.57,0,0,0,1.3.6,1.66,1.66,0,0,0,1.3-.58A2.2,2.2,0,0,0,181.16,55.18Z" fill="#4d5359"/><path d="M188.89,55.14h-4.24a2.27,2.27,0,0,0,.54,1.54,1.85,1.85,0,0,0,1.42.55,2.89,2.89,0,0,0,1.86-.67v.9a3.41,3.41,0,0,1-2.09.58,2.56,2.56,0,0,1-2-.82,3.37,3.37,0,0,1-.72-2.3,3.28,3.28,0,0,1,.79-2.28,2.54,2.54,0,0,1,2-.88,2.24,2.24,0,0,1,1.82.76,3.15,3.15,0,0,1,.65,2.11Zm-1-.82a1.9,1.9,0,0,0-.4-1.29,1.36,1.36,0,0,0-1.1-.47,1.57,1.57,0,0,0-1.15.49,2.22,2.22,0,0,0-.59,1.27Z" fill="#4d5359"/><path d="M198.75,57.9h-1v-1h0a2.42,2.42,0,0,1-3.87.35,3.26,3.26,0,0,1-.68-2.19,3.6,3.6,0,0,1,.75-2.39,2.45,2.45,0,0,1,2-.89,1.93,1.93,0,0,1,1.8,1h0V49h1Zm-1-2.72V54.3a1.7,1.7,0,0,0-.48-1.23,1.61,1.61,0,0,0-1.22-.51,1.64,1.64,0,0,0-1.38.65A2.79,2.79,0,0,0,194.2,55a2.51,2.51,0,0,0,.49,1.64,1.57,1.57,0,0,0,1.29.6,1.68,1.68,0,0,0,1.31-.58A2.2,2.2,0,0,0,197.79,55.18Z" fill="#4d5359"/><path d="M205.55,57.9h-1V57h0A2,2,0,0,1,202.71,58c-1.43,0-2.14-.85-2.14-2.56V51.9h1v3.43c0,1.27.49,1.9,1.45,1.9a1.46,1.46,0,0,0,1.16-.52,2,2,0,0,0,.46-1.36V51.9h1Z" fill="#4d5359"/><path d="M210.62,52.87a1.18,1.18,0,0,0-.73-.19,1.23,1.23,0,0,0-1,.58,2.62,2.62,0,0,0-.41,1.58V57.9h-1v-6h1v1.23h0a2.09,2.09,0,0,1,.63-1,1.4,1.4,0,0,1,.94-.36,1.75,1.75,0,0,1,.58.08Z" fill="#4d5359"/><path d="M212.15,50.37a.64.64,0,0,1-.44-.17.65.65,0,0,1,0-.9.6.6,0,0,1,.44-.18.62.62,0,0,1,.63.63.6.6,0,0,1-.18.44A.61.61,0,0,1,212.15,50.37Zm.47,7.53h-1v-6h1Z" fill="#4d5359"/><path d="M219.54,57.9h-1V54.47c0-1.27-.46-1.91-1.39-1.91a1.48,1.48,0,0,0-1.19.55,2,2,0,0,0-.47,1.36V57.9h-1v-6h1v1h0a2.15,2.15,0,0,1,2-1.13,1.83,1.83,0,0,1,1.5.63,2.82,2.82,0,0,1,.52,1.84Z" fill="#4d5359"/><path d="M226.48,57.42q0,3.3-3.17,3.3a4.23,4.23,0,0,1-1.94-.42v-1a4,4,0,0,0,1.93.56c1.48,0,2.22-.79,2.22-2.36v-.65h0a2.42,2.42,0,0,1-3.86.35,3.19,3.19,0,0,1-.68-2.15,3.73,3.73,0,0,1,.73-2.43,2.46,2.46,0,0,1,2-.9,2,2,0,0,1,1.8,1h0V51.9h1Zm-1-2.24V54.3a1.74,1.74,0,0,0-.49-1.23,1.58,1.58,0,0,0-1.2-.51,1.68,1.68,0,0,0-1.4.65,2.93,2.93,0,0,0-.5,1.81,2.51,2.51,0,0,0,.48,1.61,1.57,1.57,0,0,0,1.28.6,1.67,1.67,0,0,0,1.32-.58A2.12,2.12,0,0,0,225.52,55.18Z" fill="#4d5359"/><path d="M234.49,57.84a1.87,1.87,0,0,1-.89.18c-1.06,0-1.58-.58-1.58-1.75V52.72h-1V51.9h1V50.43l1-.31V51.9h1.51v.82H233V56.1a1.37,1.37,0,0,0,.21.86.81.81,0,0,0,.68.26,1,1,0,0,0,.62-.2Z" fill="#4d5359"/><path d="M240.76,57.9h-1V54.44c0-1.25-.46-1.88-1.39-1.88a1.49,1.49,0,0,0-1.18.55,2,2,0,0,0-.48,1.39v3.4h-1V49h1v3.88h0a2.17,2.17,0,0,1,2-1.13c1.35,0,2,.81,2,2.44Z" fill="#4d5359"/><path d="M247.39,55.14h-4.24a2.27,2.27,0,0,0,.54,1.54,1.85,1.85,0,0,0,1.42.55,2.89,2.89,0,0,0,1.86-.67v.9a3.41,3.41,0,0,1-2.09.58,2.56,2.56,0,0,1-2-.82,3.37,3.37,0,0,1-.72-2.3,3.28,3.28,0,0,1,.79-2.28,2.54,2.54,0,0,1,2-.88,2.24,2.24,0,0,1,1.82.76,3.15,3.15,0,0,1,.65,2.11Zm-1-.82A1.9,1.9,0,0,0,246,53a1.36,1.36,0,0,0-1.1-.47,1.57,1.57,0,0,0-1.15.49,2.22,2.22,0,0,0-.59,1.27Z" fill="#4d5359"/><path d="M257.25,57.9h-1v-1h0a2.42,2.42,0,0,1-3.87.35,3.26,3.26,0,0,1-.68-2.19,3.6,3.6,0,0,1,.75-2.39,2.45,2.45,0,0,1,2-.89,1.93,1.93,0,0,1,1.8,1h0V49h1Zm-1-2.72V54.3a1.7,1.7,0,0,0-.48-1.23,1.61,1.61,0,0,0-1.22-.51,1.64,1.64,0,0,0-1.38.65A2.79,2.79,0,0,0,252.7,55a2.51,2.51,0,0,0,.49,1.64,1.57,1.57,0,0,0,1.29.6,1.68,1.68,0,0,0,1.31-.58A2.2,2.2,0,0,0,256.29,55.18Z" fill="#4d5359"/><path d="M259.69,50.37a.64.64,0,0,1-.44-.17.65.65,0,0,1,0-.9.6.6,0,0,1,.44-.18.64.64,0,0,1,.45.18.61.61,0,0,1,.18.45.6.6,0,0,1-.18.44A.64.64,0,0,1,259.69,50.37Zm.47,7.53h-1v-6h1Z" fill="#4d5359"/><path d="M266.4,57.9h-1V57h0A2,2,0,0,1,263.57,58a2,2,0,0,1-1.41-.48,1.65,1.65,0,0,1-.5-1.26q0-1.68,2-1.95l1.8-.26c0-1-.42-1.53-1.24-1.53a3,3,0,0,0-2,.74v-1a3.68,3.68,0,0,1,2-.56c1.41,0,2.12.74,2.12,2.23Zm-1-3-1.45.2a2.3,2.3,0,0,0-1,.33,1,1,0,0,0-.34.84A1,1,0,0,0,263,57a1.2,1.2,0,0,0,.84.28,1.55,1.55,0,0,0,1.18-.5,1.81,1.81,0,0,0,.47-1.27Z" fill="#4d5359"/><path d="M273.33,57.42q0,3.3-3.17,3.3a4.23,4.23,0,0,1-1.94-.42v-1a4,4,0,0,0,1.93.56c1.48,0,2.22-.79,2.22-2.36v-.65h0a2.42,2.42,0,0,1-3.86.35,3.19,3.19,0,0,1-.68-2.15,3.73,3.73,0,0,1,.73-2.43,2.46,2.46,0,0,1,2-.9,2,2,0,0,1,1.8,1h0V51.9h1Zm-1-2.24V54.3a1.7,1.7,0,0,0-.49-1.23,1.58,1.58,0,0,0-1.2-.51,1.66,1.66,0,0,0-1.39.65,2.87,2.87,0,0,0-.51,1.81,2.51,2.51,0,0,0,.48,1.61,1.57,1.57,0,0,0,1.28.6,1.67,1.67,0,0,0,1.32-.58A2.12,2.12,0,0,0,272.37,55.18Z" fill="#4d5359"/><path d="M278.4,52.87a1.16,1.16,0,0,0-.72-.19,1.21,1.21,0,0,0-1,.58,2.62,2.62,0,0,0-.42,1.58V57.9h-1v-6h1v1.23h0a2,2,0,0,1,.62-1,1.45,1.45,0,0,1,.95-.36,1.65,1.65,0,0,1,.57.08Z" fill="#4d5359"/><path d="M283.74,57.9h-1V57h0A2,2,0,0,1,280.91,58a1.93,1.93,0,0,1-1.4-.48A1.62,1.62,0,0,1,279,56.3q0-1.68,2-1.95l1.8-.26c0-1-.41-1.53-1.24-1.53a3,3,0,0,0-2,.74v-1a3.67,3.67,0,0,1,2-.56c1.42,0,2.12.74,2.12,2.23Zm-1-3-1.45.2a2.35,2.35,0,0,0-1,.33,1,1,0,0,0-.34.84.93.93,0,0,0,.32.72,1.19,1.19,0,0,0,.83.28,1.55,1.55,0,0,0,1.18-.5,1.81,1.81,0,0,0,.47-1.27Z" fill="#4d5359"/><path d="M294.07,57.9h-1V54.45A2.57,2.57,0,0,0,292.8,53a1.15,1.15,0,0,0-1-.45,1.29,1.29,0,0,0-1,.57,2.11,2.11,0,0,0-.43,1.34V57.9h-1V54.33c0-1.18-.45-1.77-1.37-1.77a1.28,1.28,0,0,0-1,.53,2.24,2.24,0,0,0-.41,1.38V57.9h-1v-6h1v1h0a2,2,0,0,1,1.86-1.09,1.71,1.71,0,0,1,1.07.34,1.75,1.75,0,0,1,.63.9,2.13,2.13,0,0,1,2-1.24c1.32,0,2,.81,2,2.44Z" fill="#4d5359"/><path d="M303.47,57.9h-1V57h0A2,2,0,0,1,300.64,58a1.93,1.93,0,0,1-1.4-.48,1.62,1.62,0,0,1-.51-1.26q0-1.68,2-1.95l1.8-.26c0-1-.41-1.53-1.24-1.53a3,3,0,0,0-2,.74v-1a3.68,3.68,0,0,1,2-.56c1.41,0,2.12.74,2.12,2.23Zm-1-3-1.45.2a2.35,2.35,0,0,0-1,.33,1,1,0,0,0-.34.84A.93.93,0,0,0,300,57a1.18,1.18,0,0,0,.83.28,1.55,1.55,0,0,0,1.18-.5,1.81,1.81,0,0,0,.47-1.27Z" fill="#4d5359"/><path d="M310.26,57.9h-1V54.47c0-1.27-.47-1.91-1.4-1.91a1.5,1.5,0,0,0-1.19.55,2,2,0,0,0-.47,1.36V57.9h-1v-6h1v1h0a2.16,2.16,0,0,1,2-1.13,1.85,1.85,0,0,1,1.51.63,2.82,2.82,0,0,1,.52,1.84Z" fill="#4d5359"/><path d="M316.37,57.9h-1V57h0A2,2,0,0,1,313.54,58a2,2,0,0,1-1.41-.48,1.62,1.62,0,0,1-.51-1.26c0-1.12.67-1.77,2-1.95l1.79-.26q0-1.53-1.23-1.53a3,3,0,0,0-2,.74v-1a3.68,3.68,0,0,1,2-.56c1.41,0,2.12.74,2.12,2.23Zm-1-3-1.44.2a2.3,2.3,0,0,0-1,.33,1,1,0,0,0-.34.84.92.92,0,0,0,.31.72,1.2,1.2,0,0,0,.84.28,1.56,1.56,0,0,0,1.18-.5,1.8,1.8,0,0,0,.46-1.27Z" fill="#4d5359"/><path d="M319.14,57.9h-1V49h1Z" fill="#4d5359"/><path d="M325.86,51.9l-2.76,7c-.49,1.24-1.19,1.86-2.08,1.86a2.12,2.12,0,0,1-.62-.08v-.86a1.73,1.73,0,0,0,.56.11,1.17,1.17,0,0,0,1.09-.87l.49-1.14-2.35-6h1.07l1.62,4.61c0,.06.06.21.12.46h0q0-.13.12-.45l1.7-4.62Z" fill="#4d5359"/><path d="M326.53,57.68v-1a2.85,2.85,0,0,0,1.72.58c.85,0,1.27-.28,1.27-.85a.72.72,0,0,0-.11-.4,1.17,1.17,0,0,0-.29-.3,2.56,2.56,0,0,0-.44-.23l-.53-.21c-.27-.11-.5-.22-.7-.32a2.23,2.23,0,0,1-.51-.37,1.31,1.31,0,0,1-.3-.46,1.57,1.57,0,0,1-.1-.6,1.44,1.44,0,0,1,.19-.75,1.67,1.67,0,0,1,.52-.54,2.21,2.21,0,0,1,.73-.33,3.05,3.05,0,0,1,.85-.11,3.64,3.64,0,0,1,1.4.26v1a2.71,2.71,0,0,0-1.52-.44,1.49,1.49,0,0,0-.49.07,1,1,0,0,0-.37.17.66.66,0,0,0-.24.26.7.7,0,0,0-.09.35.8.8,0,0,0,.09.39.74.74,0,0,0,.25.28,1.59,1.59,0,0,0,.39.22l.54.22c.26.1.5.21.71.31a2.44,2.44,0,0,1,.54.37,1.38,1.38,0,0,1,.34.46,1.54,1.54,0,0,1,.12.63,1.44,1.44,0,0,1-.19.77,1.74,1.74,0,0,1-.53.55,2.54,2.54,0,0,1-.75.32,3.82,3.82,0,0,1-.9.11A3.34,3.34,0,0,1,326.53,57.68Z" fill="#4d5359"/><path d="M332.47,50.37a.64.64,0,0,1-.44-.17.65.65,0,0,1,0-.9.6.6,0,0,1,.44-.18.61.61,0,0,1,.45.18.62.62,0,0,1,0,.89A.61.61,0,0,1,332.47,50.37Zm.47,7.53h-1v-6h1Z" fill="#4d5359"/><path d="M334.52,57.68v-1a2.9,2.9,0,0,0,1.73.58c.85,0,1.27-.28,1.27-.85a.72.72,0,0,0-.11-.4,1.17,1.17,0,0,0-.29-.3,3,3,0,0,0-.44-.23l-.53-.21c-.27-.11-.5-.22-.7-.32a2.23,2.23,0,0,1-.51-.37,1.31,1.31,0,0,1-.3-.46,1.57,1.57,0,0,1-.1-.6,1.44,1.44,0,0,1,.19-.75,1.75,1.75,0,0,1,.51-.54,2.26,2.26,0,0,1,.74-.33,3,3,0,0,1,.85-.11,3.64,3.64,0,0,1,1.4.26v1a2.72,2.72,0,0,0-1.53-.44,1.43,1.43,0,0,0-.48.07,1.1,1.1,0,0,0-.38.17.85.85,0,0,0-.24.26.82.82,0,0,0-.08.35.93.93,0,0,0,.08.39.83.83,0,0,0,.25.28,1.89,1.89,0,0,0,.4.22l.54.22c.26.1.5.21.71.31a2.44,2.44,0,0,1,.54.37,1.38,1.38,0,0,1,.34.46,1.54,1.54,0,0,1,.12.63,1.44,1.44,0,0,1-.19.77,1.85,1.85,0,0,1-.53.55,2.54,2.54,0,0,1-.75.32,3.82,3.82,0,0,1-.9.11A3.41,3.41,0,0,1,334.52,57.68Z" fill="#4d5359"/><path d="M342.9,57.68v-1a2.9,2.9,0,0,0,1.73.58c.84,0,1.27-.28,1.27-.85a.72.72,0,0,0-.11-.4,1.17,1.17,0,0,0-.29-.3,3,3,0,0,0-.44-.23l-.53-.21c-.27-.11-.5-.22-.7-.32a2,2,0,0,1-.51-.37,1.19,1.19,0,0,1-.3-.46,1.57,1.57,0,0,1-.11-.6,1.45,1.45,0,0,1,.2-.75,1.75,1.75,0,0,1,.51-.54,2.26,2.26,0,0,1,.74-.33,3,3,0,0,1,.85-.11,3.64,3.64,0,0,1,1.4.26v1a2.74,2.74,0,0,0-1.53-.44,1.43,1.43,0,0,0-.48.07,1.1,1.1,0,0,0-.38.17.85.85,0,0,0-.24.26.82.82,0,0,0-.08.35.93.93,0,0,0,.08.39.83.83,0,0,0,.25.28,1.67,1.67,0,0,0,.4.22l.53.22c.27.1.51.21.72.31a2.44,2.44,0,0,1,.54.37,1.38,1.38,0,0,1,.34.46,1.54,1.54,0,0,1,.12.63,1.36,1.36,0,0,1-.2.77,1.7,1.7,0,0,1-.52.55,2.49,2.49,0,0,1-.76.32,3.68,3.68,0,0,1-.89.11A3.41,3.41,0,0,1,342.9,57.68Z" fill="#4d5359"/><path d="M351.14,57.84a1.92,1.92,0,0,1-.9.18c-1.05,0-1.57-.58-1.57-1.75V52.72h-1V51.9h1V50.43l1-.31V51.9h1.51v.82h-1.51V56.1a1.45,1.45,0,0,0,.2.86.84.84,0,0,0,.68.26,1,1,0,0,0,.63-.2Z" fill="#4d5359"/><path d="M356.72,57.9h-1V57h0A2,2,0,0,1,353.89,58a1.93,1.93,0,0,1-1.4-.48A1.62,1.62,0,0,1,352,56.3q0-1.68,2-1.95l1.8-.26c0-1-.41-1.53-1.24-1.53a3,3,0,0,0-2,.74v-1a3.68,3.68,0,0,1,2-.56c1.41,0,2.12.74,2.12,2.23Zm-1-3-1.45.2a2.35,2.35,0,0,0-1,.33,1,1,0,0,0-.34.84.93.93,0,0,0,.32.72,1.18,1.18,0,0,0,.83.28,1.55,1.55,0,0,0,1.18-.5,1.81,1.81,0,0,0,.47-1.27Z" fill="#4d5359"/><path d="M363.65,57.42q0,3.3-3.16,3.3a4.28,4.28,0,0,1-1.95-.42v-1a4.06,4.06,0,0,0,1.93.56c1.48,0,2.22-.79,2.22-2.36v-.65h0a2.43,2.43,0,0,1-3.87.35,3.24,3.24,0,0,1-.68-2.15,3.73,3.73,0,0,1,.73-2.43,2.48,2.48,0,0,1,2-.9,2,2,0,0,1,1.8,1h0V51.9h1Zm-1-2.24V54.3a1.73,1.73,0,0,0-.48-1.23,1.62,1.62,0,0,0-1.21-.51,1.66,1.66,0,0,0-1.39.65A2.87,2.87,0,0,0,359.1,55a2.46,2.46,0,0,0,.49,1.61,1.56,1.56,0,0,0,1.28.6,1.65,1.65,0,0,0,1.31-.58A2.12,2.12,0,0,0,362.69,55.18Z" fill="#4d5359"/><path d="M370.42,55.14h-4.24a2.27,2.27,0,0,0,.54,1.54,1.84,1.84,0,0,0,1.42.55,2.91,2.91,0,0,0,1.86-.67v.9a3.43,3.43,0,0,1-2.09.58,2.56,2.56,0,0,1-2-.82,3.37,3.37,0,0,1-.72-2.3,3.28,3.28,0,0,1,.79-2.28,2.54,2.54,0,0,1,2-.88,2.24,2.24,0,0,1,1.82.76,3.15,3.15,0,0,1,.65,2.11Zm-1-.82A1.9,1.9,0,0,0,369,53a1.36,1.36,0,0,0-1.1-.47,1.57,1.57,0,0,0-1.15.49,2.22,2.22,0,0,0-.59,1.27Z" fill="#4d5359"/><path d="M383.68,57.9h-1V54.45a2.65,2.65,0,0,0-.31-1.44,1.16,1.16,0,0,0-1-.45,1.27,1.27,0,0,0-1.05.57,2.11,2.11,0,0,0-.43,1.34V57.9h-1V54.33c0-1.18-.46-1.77-1.37-1.77a1.27,1.27,0,0,0-1,.53,2.24,2.24,0,0,0-.41,1.38V57.9h-1v-6h1v1h0A2,2,0,0,1,378,51.76a1.73,1.73,0,0,1,1.07.34,1.81,1.81,0,0,1,.63.9,2.12,2.12,0,0,1,2-1.24c1.32,0,2,.81,2,2.44Z" fill="#4d5359"/><path d="M389.79,57.9h-1V57h0A2,2,0,0,1,387,58a1.93,1.93,0,0,1-1.4-.48,1.62,1.62,0,0,1-.51-1.26q0-1.68,2-1.95l1.8-.26c0-1-.41-1.53-1.24-1.53a3,3,0,0,0-2,.74v-1a3.68,3.68,0,0,1,2-.56c1.41,0,2.12.74,2.12,2.23Zm-1-3-1.45.2a2.35,2.35,0,0,0-1,.33,1,1,0,0,0-.34.84.93.93,0,0,0,.32.72,1.18,1.18,0,0,0,.83.28,1.55,1.55,0,0,0,1.18-.5,1.81,1.81,0,0,0,.47-1.27Z" fill="#4d5359"/><path d="M396.38,51.9l-2.76,7c-.5,1.24-1.19,1.86-2.08,1.86a2.25,2.25,0,0,1-.63-.08v-.86a1.84,1.84,0,0,0,.57.11,1.17,1.17,0,0,0,1.09-.87l.48-1.14-2.34-6h1.07l1.62,4.61c0,.06.06.21.12.46h0l.11-.45,1.71-4.62Z" fill="#4d5359"/><path d="M401.68,57h0v.87h-1V49h1V53h0a2.25,2.25,0,0,1,2.07-1.19,2.2,2.2,0,0,1,1.81.8,3.31,3.31,0,0,1,.65,2.16,3.71,3.71,0,0,1-.73,2.41,2.46,2.46,0,0,1-2,.91A2,2,0,0,1,401.68,57Zm0-2.42v.84a1.81,1.81,0,0,0,.49,1.26,1.72,1.72,0,0,0,2.59-.15,3.07,3.07,0,0,0,.5-1.86,2.47,2.47,0,0,0-.46-1.57,1.54,1.54,0,0,0-1.26-.57,1.71,1.71,0,0,0-1.35.59A2.13,2.13,0,0,0,401.65,54.61Z" fill="#4d5359"/><path d="M412.57,55.14h-4.24a2.27,2.27,0,0,0,.54,1.54,1.85,1.85,0,0,0,1.42.55,2.89,2.89,0,0,0,1.86-.67v.9a3.41,3.41,0,0,1-2.09.58,2.56,2.56,0,0,1-2-.82,3.37,3.37,0,0,1-.72-2.3,3.28,3.28,0,0,1,.79-2.28,2.54,2.54,0,0,1,2-.88,2.26,2.26,0,0,1,1.83.76,3.15,3.15,0,0,1,.64,2.11Zm-1-.82a2,2,0,0,0-.41-1.29,1.36,1.36,0,0,0-1.09-.47,1.58,1.58,0,0,0-1.16.49,2.21,2.21,0,0,0-.58,1.27Z" fill="#4d5359"/><path d="M28.1,67.27a1.16,1.16,0,0,0-.72-.19,1.2,1.2,0,0,0-1,.58,2.62,2.62,0,0,0-.42,1.58V72.3H25v-6h1v1.23h0a2.08,2.08,0,0,1,.62-1,1.49,1.49,0,0,1,1-.35,1.65,1.65,0,0,1,.57.08Z" fill="#4d5359"/><path d="M33.81,69.54H29.57a2.27,2.27,0,0,0,.54,1.54,1.85,1.85,0,0,0,1.42.55A2.89,2.89,0,0,0,33.39,71v.9a3.41,3.41,0,0,1-2.09.58,2.56,2.56,0,0,1-2-.82,3.37,3.37,0,0,1-.72-2.3A3.28,3.28,0,0,1,29.37,67a2.54,2.54,0,0,1,2-.88,2.24,2.24,0,0,1,1.82.76A3.15,3.15,0,0,1,33.81,69Zm-1-.82a1.9,1.9,0,0,0-.4-1.29,1.36,1.36,0,0,0-1.1-.47,1.57,1.57,0,0,0-1.15.49,2.22,2.22,0,0,0-.59,1.27Z" fill="#4d5359"/><path d="M38.23,64.26a1.24,1.24,0,0,0-.64-.16c-.67,0-1,.42-1,1.27v.93H38v.82H36.58V72.3h-1V67.12h-1V66.3h1v-1a2,2,0,0,1,.55-1.49,1.86,1.86,0,0,1,1.36-.55,1.94,1.94,0,0,1,.7.11Z" fill="#4d5359"/><path d="M40,72.3H39V63.41h1Z" fill="#4d5359"/><path d="M46.75,69.54H42.51a2.27,2.27,0,0,0,.54,1.54,1.84,1.84,0,0,0,1.42.55A2.93,2.93,0,0,0,46.33,71v.9a3.43,3.43,0,0,1-2.09.58,2.55,2.55,0,0,1-2-.82,3.37,3.37,0,0,1-.73-2.3,3.29,3.29,0,0,1,.8-2.28,2.53,2.53,0,0,1,2-.88,2.25,2.25,0,0,1,1.82.76A3.15,3.15,0,0,1,46.75,69Zm-1-.82a2,2,0,0,0-.4-1.29,1.36,1.36,0,0,0-1.1-.47,1.56,1.56,0,0,0-1.15.49,2.22,2.22,0,0,0-.59,1.27Z" fill="#4d5359"/><path d="M52.29,72a3.1,3.1,0,0,1-1.64.42,2.69,2.69,0,0,1-2.07-.84,3,3,0,0,1-.79-2.16,3.33,3.33,0,0,1,.85-2.39,3,3,0,0,1,2.27-.89,3.09,3.09,0,0,1,1.39.29v1A2.45,2.45,0,0,0,50.87,67a1.93,1.93,0,0,0-1.51.66,2.52,2.52,0,0,0-.59,1.73A2.39,2.39,0,0,0,49.33,71a1.92,1.92,0,0,0,1.48.61,2.45,2.45,0,0,0,1.48-.52Z" fill="#4d5359"/><path d="M56.53,72.24a2,2,0,0,1-.9.18c-1.05,0-1.58-.58-1.58-1.75V67.12H53V66.3h1V64.83l1-.31V66.3h1.52v.82H55V70.5a1.37,1.37,0,0,0,.21.86.83.83,0,0,0,.68.26,1.05,1.05,0,0,0,.63-.2Z" fill="#4d5359"/><path d="M62.54,69.54H58.3a2.27,2.27,0,0,0,.54,1.54,1.84,1.84,0,0,0,1.42.55A2.93,2.93,0,0,0,62.12,71v.9a3.43,3.43,0,0,1-2.09.58,2.56,2.56,0,0,1-2-.82,3.37,3.37,0,0,1-.73-2.3A3.29,3.29,0,0,1,58.1,67a2.54,2.54,0,0,1,2-.88,2.24,2.24,0,0,1,1.82.76A3.15,3.15,0,0,1,62.54,69Zm-1-.82a1.9,1.9,0,0,0-.4-1.29,1.36,1.36,0,0,0-1.1-.47,1.56,1.56,0,0,0-1.15.49,2.22,2.22,0,0,0-.59,1.27Z" fill="#4d5359"/><path d="M69.11,72.3h-1v-1h0a2.42,2.42,0,0,1-3.87.35,3.32,3.32,0,0,1-.68-2.19,3.6,3.6,0,0,1,.75-2.39,2.47,2.47,0,0,1,2-.89,1.93,1.93,0,0,1,1.8,1h0V63.41h1Zm-1-2.72V68.7a1.7,1.7,0,0,0-.48-1.23A1.61,1.61,0,0,0,66.45,67a1.66,1.66,0,0,0-1.38.65,2.79,2.79,0,0,0-.51,1.78A2.56,2.56,0,0,0,65.05,71a1.57,1.57,0,0,0,1.3.6,1.66,1.66,0,0,0,1.3-.58A2.2,2.2,0,0,0,68.15,69.58Z" fill="#4d5359"/><path d="M74.84,64.77a.62.62,0,0,1-.44-1.07.59.59,0,0,1,.44-.18.6.6,0,0,1,.44.18.58.58,0,0,1,.19.45.58.58,0,0,1-.19.44A.6.6,0,0,1,74.84,64.77Zm.46,7.53h-1v-6h1Z" fill="#4d5359"/><path d="M82.23,72.3h-1V68.87c0-1.27-.47-1.91-1.39-1.91a1.5,1.5,0,0,0-1.2.55,2,2,0,0,0-.47,1.36V72.3h-1v-6h1v1h0a2.16,2.16,0,0,1,2-1.13,1.85,1.85,0,0,1,1.51.63,2.82,2.82,0,0,1,.52,1.84Z" fill="#4d5359"/><path d="M90.11,72.24a1.92,1.92,0,0,1-.9.18c-1,0-1.57-.58-1.57-1.75V67.12h-1V66.3h1V64.83l1-.31V66.3h1.51v.82H88.6V70.5a1.45,1.45,0,0,0,.2.86.84.84,0,0,0,.68.26,1,1,0,0,0,.63-.2Z" fill="#4d5359"/><path d="M96.38,72.3h-1V68.84C95.41,67.59,95,67,94,67a1.49,1.49,0,0,0-1.18.55,2,2,0,0,0-.48,1.39v3.4h-1V63.41h1v3.88h0a2.17,2.17,0,0,1,2-1.13c1.35,0,2,.81,2,2.44Z" fill="#4d5359"/><path d="M103,69.54H98.77a2.27,2.27,0,0,0,.54,1.54,1.84,1.84,0,0,0,1.42.55,2.91,2.91,0,0,0,1.86-.67v.9a3.43,3.43,0,0,1-2.09.58,2.56,2.56,0,0,1-2-.82,3.37,3.37,0,0,1-.72-2.3A3.28,3.28,0,0,1,98.57,67a2.54,2.54,0,0,1,2-.88,2.24,2.24,0,0,1,1.82.76A3.15,3.15,0,0,1,103,69Zm-1-.82a1.9,1.9,0,0,0-.4-1.29,1.36,1.36,0,0,0-1.1-.47,1.57,1.57,0,0,0-1.15.49,2.22,2.22,0,0,0-.59,1.27Z" fill="#4d5359"/><path d="M108.73,71.43h0v.87h-1V63.41h1v3.94h0a2.28,2.28,0,0,1,2.08-1.19,2.16,2.16,0,0,1,1.8.8,3.32,3.32,0,0,1,.66,2.16,3.76,3.76,0,0,1-.73,2.41,2.46,2.46,0,0,1-2,.91A2,2,0,0,1,108.73,71.43Zm0-2.42v.84a1.8,1.8,0,0,0,.48,1.26,1.59,1.59,0,0,0,1.23.52,1.6,1.6,0,0,0,1.37-.67,3.07,3.07,0,0,0,.49-1.86,2.41,2.41,0,0,0-.46-1.57,1.53,1.53,0,0,0-1.25-.57,1.71,1.71,0,0,0-1.35.59A2.13,2.13,0,0,0,108.71,69Z" fill="#4d5359"/><path d="M115.29,64.77a.61.61,0,0,1-.43-.17.63.63,0,0,1,.43-1.08.61.61,0,0,1,.45.18.58.58,0,0,1,.19.45.58.58,0,0,1-.19.44A.61.61,0,0,1,115.29,64.77Zm.47,7.53h-1v-6h1Z" fill="#4d5359"/><path d="M120.49,72.24a1.87,1.87,0,0,1-.89.18c-1.06,0-1.58-.58-1.58-1.75V67.12h-1V66.3h1V64.83l1-.31V66.3h1.51v.82H119V70.5a1.37,1.37,0,0,0,.21.86.81.81,0,0,0,.68.26,1,1,0,0,0,.62-.2Z" fill="#4d5359"/><path d="M124.74,64.26a1.24,1.24,0,0,0-.64-.16c-.67,0-1,.42-1,1.27v.93h1.41v.82h-1.41V72.3h-1V67.12h-1V66.3h1v-1a2,2,0,0,1,.54-1.49,2,2,0,0,1,2.06-.44Z" fill="#4d5359"/><path d="M126,64.77a.66.66,0,0,1-.44-.17.65.65,0,0,1,0-.9.62.62,0,0,1,.44-.18.61.61,0,0,1,.45.18.62.62,0,0,1,0,.89A.61.61,0,0,1,126,64.77Zm.47,7.53h-1v-6h1Z" fill="#4d5359"/><path d="M129.4,72.3h-1V63.41h1Z" fill="#4d5359"/><path d="M136.17,69.54h-4.24a2.23,2.23,0,0,0,.54,1.54,1.84,1.84,0,0,0,1.42.55,2.93,2.93,0,0,0,1.86-.67v.9a3.43,3.43,0,0,1-2.09.58,2.55,2.55,0,0,1-2-.82,3.37,3.37,0,0,1-.73-2.3,3.29,3.29,0,0,1,.8-2.28,2.53,2.53,0,0,1,2-.88,2.25,2.25,0,0,1,1.82.76,3.15,3.15,0,0,1,.65,2.11Zm-1-.82a2,2,0,0,0-.4-1.29,1.36,1.36,0,0,0-1.1-.47,1.56,1.56,0,0,0-1.15.49,2.22,2.22,0,0,0-.59,1.27Z" fill="#4d5359"/><path d="M138,72.42a.62.62,0,0,1-.46-.19.66.66,0,0,1-.19-.46.68.68,0,0,1,.19-.47.62.62,0,0,1,.46-.19.63.63,0,0,1,.47.19.65.65,0,0,1,.2.47.67.67,0,0,1-.67.65Z" fill="#4d5359"/><path d="M144.62,72.3h-1V63.89h1Z" fill="#4d5359"/><path d="M149.67,64.26a1.24,1.24,0,0,0-.64-.16c-.67,0-1,.42-1,1.27v.93h1.41v.82H148V72.3h-1V67.12h-1V66.3h1v-1a2,2,0,0,1,.55-1.49,1.86,1.86,0,0,1,1.36-.55,1.94,1.94,0,0,1,.7.11Z" fill="#4d5359"/><path d="M158.52,66.3l-2.76,7q-.73,1.86-2.07,1.86a2.25,2.25,0,0,1-.63-.08v-.86a1.84,1.84,0,0,0,.57.11,1.19,1.19,0,0,0,1.09-.87l.48-1.14-2.35-6h1.07l1.62,4.61c0,.06.06.21.13.46h0q0-.14.12-.45l1.7-4.62Z" fill="#4d5359"/><path d="M162,72.44a2.77,2.77,0,0,1-2.12-.84,3.12,3.12,0,0,1-.8-2.23,3.27,3.27,0,0,1,.83-2.37,3,3,0,0,1,2.23-.84,2.71,2.71,0,0,1,2.1.82,3.29,3.29,0,0,1,.75,2.29,3.21,3.21,0,0,1-.81,2.3A2.84,2.84,0,0,1,162,72.44Zm.07-5.48a1.8,1.8,0,0,0-1.46.63,2.59,2.59,0,0,0-.54,1.74,2.46,2.46,0,0,0,.54,1.68,1.85,1.85,0,0,0,1.46.62A1.73,1.73,0,0,0,163.5,71a2.57,2.57,0,0,0,.5-1.71,2.65,2.65,0,0,0-.5-1.74A1.76,1.76,0,0,0,162.07,67Z" fill="#4d5359"/><path d="M171.38,72.3h-1v-1h0a2,2,0,0,1-1.85,1.09c-1.43,0-2.15-.85-2.15-2.56V66.3h1v3.43c0,1.27.48,1.9,1.45,1.9a1.46,1.46,0,0,0,1.16-.52,2,2,0,0,0,.45-1.36V66.3h1Z" fill="#4d5359"/><path d="M184.16,66.3l-1.8,6h-1L180.13,68a2.26,2.26,0,0,1-.09-.56h0a2.4,2.4,0,0,1-.12.55l-1.34,4.31h-1l-1.82-6h1L178,70.81a2.21,2.21,0,0,1,.08.54h.05a2.78,2.78,0,0,1,.1-.55l1.39-4.5h.88l1.24,4.52a3,3,0,0,1,.09.54h0a2.61,2.61,0,0,1,.1-.54l1.22-4.52Z" fill="#4d5359"/><path d="M189.57,72.3h-1v-.94h0a2,2,0,0,1-1.84,1.08,2,2,0,0,1-1.41-.48,1.65,1.65,0,0,1-.5-1.26q0-1.68,2-2l1.8-.26c0-1-.41-1.53-1.24-1.53a3,3,0,0,0-2,.74v-1a3.68,3.68,0,0,1,2-.56c1.41,0,2.12.74,2.12,2.23Zm-1-3-1.45.2a2.3,2.3,0,0,0-1,.33,1,1,0,0,0-.34.84.93.93,0,0,0,.32.72,1.16,1.16,0,0,0,.83.28,1.55,1.55,0,0,0,1.18-.5,1.81,1.81,0,0,0,.47-1.27Z" fill="#4d5359"/><path d="M196.36,72.3h-1V68.87c0-1.27-.47-1.91-1.4-1.91a1.5,1.5,0,0,0-1.19.55,2,2,0,0,0-.47,1.36V72.3h-1v-6h1v1h0a2.16,2.16,0,0,1,2-1.13,1.85,1.85,0,0,1,1.51.63,2.82,2.82,0,0,1,.52,1.84Z" fill="#4d5359"/><path d="M201,72.24a1.87,1.87,0,0,1-.89.18c-1.05,0-1.58-.58-1.58-1.75V67.12h-1V66.3h1V64.83l1-.31V66.3H201v.82h-1.51V70.5a1.37,1.37,0,0,0,.21.86.81.81,0,0,0,.68.26,1,1,0,0,0,.62-.2Z" fill="#4d5359"/><path d="M208.31,72.24a2,2,0,0,1-.9.18c-1,0-1.58-.58-1.58-1.75V67.12h-1V66.3h1V64.83l1-.31V66.3h1.52v.82h-1.52V70.5a1.37,1.37,0,0,0,.21.86.83.83,0,0,0,.68.26,1.05,1.05,0,0,0,.63-.2Z" fill="#4d5359"/><path d="M212,72.44a2.79,2.79,0,0,1-2.12-.84,3.12,3.12,0,0,1-.79-2.23,3.27,3.27,0,0,1,.82-2.37,3,3,0,0,1,2.23-.84,2.69,2.69,0,0,1,2.1.82,3.29,3.29,0,0,1,.75,2.29,3.21,3.21,0,0,1-.81,2.3A2.84,2.84,0,0,1,212,72.44Zm.07-5.48a1.83,1.83,0,0,0-1.46.63,2.59,2.59,0,0,0-.54,1.74,2.41,2.41,0,0,0,.55,1.68,1.83,1.83,0,0,0,1.45.62,1.75,1.75,0,0,0,1.44-.61,2.62,2.62,0,0,0,.5-1.71,2.71,2.71,0,0,0-.5-1.74A1.78,1.78,0,0,0,212.07,67Z" fill="#4d5359"/><path d="M223.9,72a3.08,3.08,0,0,1-1.64.42,2.72,2.72,0,0,1-2.07-.84,3.06,3.06,0,0,1-.79-2.16,3.37,3.37,0,0,1,.85-2.39,3,3,0,0,1,2.27-.89,3.13,3.13,0,0,1,1.4.29v1a2.49,2.49,0,0,0-1.43-.47,1.92,1.92,0,0,0-1.51.66,2.47,2.47,0,0,0-.59,1.73,2.39,2.39,0,0,0,.55,1.67,1.94,1.94,0,0,0,1.49.61,2.44,2.44,0,0,0,1.47-.52Z" fill="#4d5359"/><path d="M227.87,72.44a2.79,2.79,0,0,1-2.13-.84,3.12,3.12,0,0,1-.79-2.23,3.27,3.27,0,0,1,.82-2.37,3,3,0,0,1,2.24-.84,2.68,2.68,0,0,1,2.09.82,3.29,3.29,0,0,1,.75,2.29,3.21,3.21,0,0,1-.81,2.3A2.82,2.82,0,0,1,227.87,72.44Zm.07-5.48a1.84,1.84,0,0,0-1.47.63,2.59,2.59,0,0,0-.54,1.74,2.41,2.41,0,0,0,.55,1.68,1.85,1.85,0,0,0,1.46.62,1.74,1.74,0,0,0,1.43-.61,2.62,2.62,0,0,0,.5-1.71,2.71,2.71,0,0,0-.5-1.74A1.77,1.77,0,0,0,227.94,67Z" fill="#4d5359"/><path d="M237.37,72.3h-1V68.87c0-1.27-.47-1.91-1.4-1.91a1.5,1.5,0,0,0-1.19.55,2,2,0,0,0-.47,1.36V72.3h-1v-6h1v1h0a2.16,2.16,0,0,1,2-1.13,1.85,1.85,0,0,1,1.51.63,2.82,2.82,0,0,1,.52,1.84Z" fill="#4d5359"/><path d="M242,72.24a1.87,1.87,0,0,1-.89.18c-1,0-1.58-.58-1.58-1.75V67.12h-1V66.3h1V64.83l1-.31V66.3H242v.82h-1.51V70.5a1.37,1.37,0,0,0,.21.86.81.81,0,0,0,.68.26,1,1,0,0,0,.62-.2Z" fill="#4d5359"/><path d="M243.74,64.77a.64.64,0,0,1-.44-.17.65.65,0,0,1,0-.9.6.6,0,0,1,.44-.18.64.64,0,0,1,.45.18.61.61,0,0,1,.18.45.6.6,0,0,1-.18.44A.64.64,0,0,1,243.74,64.77Zm.47,7.53h-1v-6h1Z" fill="#4d5359"/><path d="M251.13,72.3h-1V68.87c0-1.27-.46-1.91-1.39-1.91a1.52,1.52,0,0,0-1.2.55,2,2,0,0,0-.47,1.36V72.3h-1v-6h1v1h0a2.15,2.15,0,0,1,2-1.13,1.84,1.84,0,0,1,1.5.63,2.82,2.82,0,0,1,.52,1.84Z" fill="#4d5359"/><path d="M257.79,72.3h-1v-1h0A2,2,0,0,1,255,72.44c-1.43,0-2.15-.85-2.15-2.56V66.3h1v3.43c0,1.27.48,1.9,1.45,1.9a1.46,1.46,0,0,0,1.16-.52,2,2,0,0,0,.45-1.36V66.3h1Z" fill="#4d5359"/><path d="M264.56,69.54h-4.24a2.27,2.27,0,0,0,.54,1.54,1.84,1.84,0,0,0,1.42.55,2.93,2.93,0,0,0,1.86-.67v.9a3.43,3.43,0,0,1-2.09.58,2.56,2.56,0,0,1-2-.82,3.37,3.37,0,0,1-.73-2.3,3.29,3.29,0,0,1,.8-2.28,2.53,2.53,0,0,1,2-.88,2.24,2.24,0,0,1,1.82.76,3.15,3.15,0,0,1,.65,2.11Zm-1-.82a2,2,0,0,0-.4-1.29,1.36,1.36,0,0,0-1.1-.47,1.56,1.56,0,0,0-1.15.49,2.22,2.22,0,0,0-.59,1.27Z" fill="#4d5359"/><path d="M276.86,66.3l-1.8,6h-1L272.82,68a3.86,3.86,0,0,1-.09-.56h0a2.5,2.5,0,0,1-.13.55l-1.34,4.31h-1l-1.82-6h1l1.24,4.51a2.72,2.72,0,0,1,.09.54h0a2.82,2.82,0,0,1,.11-.55l1.38-4.5h.88l1.24,4.52a3,3,0,0,1,.09.54h0a2.61,2.61,0,0,1,.1-.54l1.22-4.52Z" fill="#4d5359"/><path d="M280.44,72.44a2.77,2.77,0,0,1-2.12-.84,3.12,3.12,0,0,1-.8-2.23,3.27,3.27,0,0,1,.83-2.37,3,3,0,0,1,2.23-.84,2.71,2.71,0,0,1,2.1.82,3.29,3.29,0,0,1,.75,2.29,3.21,3.21,0,0,1-.81,2.3A2.84,2.84,0,0,1,280.44,72.44Zm.07-5.48a1.81,1.81,0,0,0-1.46.63,2.59,2.59,0,0,0-.54,1.74,2.46,2.46,0,0,0,.54,1.68,1.87,1.87,0,0,0,1.46.62,1.73,1.73,0,0,0,1.43-.61,2.57,2.57,0,0,0,.51-1.71,2.65,2.65,0,0,0-.51-1.74A1.76,1.76,0,0,0,280.51,67Z" fill="#4d5359"/><path d="M288.09,67.27a1.14,1.14,0,0,0-.72-.19,1.21,1.21,0,0,0-1,.58,2.62,2.62,0,0,0-.41,1.58V72.3h-1v-6h1v1.23h0a2.09,2.09,0,0,1,.63-1,1.44,1.44,0,0,1,.94-.35,1.65,1.65,0,0,1,.57.08Z" fill="#4d5359"/><path d="M294.12,72.3h-1.35l-2.65-2.89h0V72.3h-1V63.41h1V69h0l2.52-2.74h1.26l-2.78,2.89Z" fill="#4d5359"/><path d="M295.59,64.77a.66.66,0,0,1-.44-.17.65.65,0,0,1,0-.9.62.62,0,0,1,.44-.18.61.61,0,0,1,.45.18.58.58,0,0,1,.19.45.58.58,0,0,1-.19.44A.61.61,0,0,1,295.59,64.77Zm.47,7.53h-1v-6h1Z" fill="#4d5359"/><path d="M303,72.3h-1V68.87c0-1.27-.47-1.91-1.4-1.91a1.48,1.48,0,0,0-1.19.55,2,2,0,0,0-.47,1.36V72.3h-1v-6h1v1h0a2.16,2.16,0,0,1,2-1.13,1.85,1.85,0,0,1,1.51.63,2.88,2.88,0,0,1,.52,1.84Z" fill="#4d5359"/><path d="M309.92,71.82q0,3.3-3.16,3.3a4.28,4.28,0,0,1-1.95-.42v-1a4.06,4.06,0,0,0,1.93.56c1.48,0,2.22-.79,2.22-2.36v-.65h0a2.43,2.43,0,0,1-3.87.35,3.24,3.24,0,0,1-.68-2.15,3.73,3.73,0,0,1,.73-2.43,2.48,2.48,0,0,1,2-.9,2,2,0,0,1,1.8,1h0V66.3h1Zm-1-2.24V68.7a1.73,1.73,0,0,0-.48-1.23,1.62,1.62,0,0,0-1.21-.51,1.66,1.66,0,0,0-1.39.65,2.87,2.87,0,0,0-.51,1.81,2.46,2.46,0,0,0,.49,1.61,1.56,1.56,0,0,0,1.28.6,1.65,1.65,0,0,0,1.31-.58A2.12,2.12,0,0,0,309,69.58Z" fill="#4d5359"/><path d="M317.66,72.44a2.77,2.77,0,0,1-2.12-.84,3.12,3.12,0,0,1-.8-2.23,3.27,3.27,0,0,1,.83-2.37,3,3,0,0,1,2.23-.84,2.71,2.71,0,0,1,2.1.82,3.29,3.29,0,0,1,.75,2.29,3.21,3.21,0,0,1-.81,2.3A2.84,2.84,0,0,1,317.66,72.44Zm.07-5.48a1.8,1.8,0,0,0-1.46.63,2.59,2.59,0,0,0-.54,1.74,2.46,2.46,0,0,0,.54,1.68,1.85,1.85,0,0,0,1.46.62,1.73,1.73,0,0,0,1.43-.61,2.57,2.57,0,0,0,.5-1.71,2.65,2.65,0,0,0-.5-1.74A1.76,1.76,0,0,0,317.73,67Z" fill="#4d5359"/><path d="M327.16,72.3h-1V68.87c0-1.27-.46-1.91-1.39-1.91a1.48,1.48,0,0,0-1.19.55,2,2,0,0,0-.48,1.36V72.3h-1v-6h1v1h0a2.15,2.15,0,0,1,2-1.13,1.84,1.84,0,0,1,1.5.63,2.82,2.82,0,0,1,.52,1.84Z" fill="#4d5359"/><path d="M336.35,72a3.1,3.1,0,0,1-1.64.42,2.72,2.72,0,0,1-2.07-.84,3,3,0,0,1-.79-2.16,3.33,3.33,0,0,1,.85-2.39,3,3,0,0,1,2.27-.89,3.06,3.06,0,0,1,1.39.29v1a2.45,2.45,0,0,0-1.43-.47,2,2,0,0,0-1.51.66,2.51,2.51,0,0,0-.58,1.73,2.39,2.39,0,0,0,.55,1.67,1.93,1.93,0,0,0,1.49.61,2.44,2.44,0,0,0,1.47-.52Z" fill="#4d5359"/><path d="M340.31,72.44a2.79,2.79,0,0,1-2.12-.84,3.12,3.12,0,0,1-.8-2.23,3.27,3.27,0,0,1,.83-2.37,3,3,0,0,1,2.23-.84,2.69,2.69,0,0,1,2.1.82,3.29,3.29,0,0,1,.75,2.29,3.21,3.21,0,0,1-.81,2.3A2.84,2.84,0,0,1,340.31,72.44Zm.07-5.48a1.83,1.83,0,0,0-1.46.63,2.59,2.59,0,0,0-.54,1.74,2.46,2.46,0,0,0,.54,1.68,1.87,1.87,0,0,0,1.46.62,1.76,1.76,0,0,0,1.44-.61,2.62,2.62,0,0,0,.5-1.71,2.71,2.71,0,0,0-.5-1.74A1.79,1.79,0,0,0,340.38,67Z" fill="#4d5359"/><path d="M350,72.3h-1v-1h0a2.21,2.21,0,0,1-2.06,1.16,2.24,2.24,0,0,1-1.81-.81,3.31,3.31,0,0,1-.67-2.19,3.6,3.6,0,0,1,.75-2.39,2.45,2.45,0,0,1,2-.89,1.91,1.91,0,0,1,1.8,1h0V63.41h1Zm-1-2.72V68.7a1.7,1.7,0,0,0-.48-1.23A1.61,1.61,0,0,0,347.3,67a1.68,1.68,0,0,0-1.39.65,2.85,2.85,0,0,0-.5,1.78,2.56,2.56,0,0,0,.48,1.64,1.6,1.6,0,0,0,1.3.6,1.68,1.68,0,0,0,1.31-.58A2.2,2.2,0,0,0,349,69.58Z" fill="#4d5359"/><path d="M356.72,69.54h-4.23a2.18,2.18,0,0,0,.54,1.54,1.82,1.82,0,0,0,1.42.55,2.93,2.93,0,0,0,1.86-.67v.9a3.45,3.45,0,0,1-2.09.58,2.55,2.55,0,0,1-2-.82,3.33,3.33,0,0,1-.73-2.3,3.29,3.29,0,0,1,.8-2.28,2.53,2.53,0,0,1,2-.88,2.25,2.25,0,0,1,1.82.76,3.15,3.15,0,0,1,.64,2.11Zm-1-.82a2,2,0,0,0-.4-1.29,1.36,1.36,0,0,0-1.1-.47,1.56,1.56,0,0,0-1.15.49,2.16,2.16,0,0,0-.59,1.27Z" fill="#4d5359"/><path d="M369,66.3l-1.8,6h-1L365,68a2.85,2.85,0,0,1-.09-.56h0a3.24,3.24,0,0,1-.13.55l-1.34,4.31h-1l-1.82-6h1l1.24,4.51a2.21,2.21,0,0,1,.08.54H363a2.24,2.24,0,0,1,.11-.55l1.38-4.5h.88l1.24,4.52a3,3,0,0,1,.09.54h.05a2.08,2.08,0,0,1,.1-.54l1.21-4.52Z" fill="#4d5359"/><path d="M375.12,72.3h-1V68.84c0-1.25-.47-1.88-1.4-1.88a1.49,1.49,0,0,0-1.18.55,2,2,0,0,0-.48,1.39v3.4h-1V63.41h1v3.88h0a2.17,2.17,0,0,1,2-1.13c1.35,0,2,.81,2,2.44Z" fill="#4d5359"/><path d="M377.42,64.77a.64.64,0,0,1-.44-.17.65.65,0,0,1,0-.9.6.6,0,0,1,.44-.18.62.62,0,0,1,.63.63.6.6,0,0,1-.18.44A.61.61,0,0,1,377.42,64.77Zm.47,7.53h-1v-6h1Z" fill="#4d5359"/><path d="M380.79,72.3h-1V63.41h1Z" fill="#4d5359"/><path d="M387.56,69.54h-4.23a2.18,2.18,0,0,0,.54,1.54,1.82,1.82,0,0,0,1.41.55,2.94,2.94,0,0,0,1.87-.67v.9a3.46,3.46,0,0,1-2.1.58,2.54,2.54,0,0,1-2-.82,3.33,3.33,0,0,1-.73-2.3,3.28,3.28,0,0,1,.79-2.28,2.55,2.55,0,0,1,2-.88,2.25,2.25,0,0,1,1.82.76,3.15,3.15,0,0,1,.64,2.11Zm-1-.82a2,2,0,0,0-.4-1.29,1.38,1.38,0,0,0-1.1-.47,1.58,1.58,0,0,0-1.16.49,2.21,2.21,0,0,0-.58,1.27Z" fill="#4d5359"/><path d="M397.08,66.3l-2.76,7c-.49,1.24-1.19,1.86-2.08,1.86a2.17,2.17,0,0,1-.62-.08v-.86a1.74,1.74,0,0,0,.57.11,1.19,1.19,0,0,0,1.09-.87l.48-1.14-2.35-6h1.07l1.62,4.61c0,.06.06.21.12.46h0q0-.14.12-.45l1.7-4.62Z" fill="#4d5359"/><path d="M400.56,72.44a2.79,2.79,0,0,1-2.13-.84,3.16,3.16,0,0,1-.79-2.23,3.27,3.27,0,0,1,.83-2.37,3,3,0,0,1,2.23-.84,2.68,2.68,0,0,1,2.09.82,3.25,3.25,0,0,1,.76,2.29,3.21,3.21,0,0,1-.81,2.3A2.85,2.85,0,0,1,400.56,72.44Zm.07-5.48a1.84,1.84,0,0,0-1.47.63,2.59,2.59,0,0,0-.54,1.74,2.46,2.46,0,0,0,.55,1.68,1.85,1.85,0,0,0,1.46.62,1.73,1.73,0,0,0,1.43-.61,2.57,2.57,0,0,0,.5-1.71,2.65,2.65,0,0,0-.5-1.74A1.76,1.76,0,0,0,400.63,67Z" fill="#4d5359"/><path d="M409.93,72.3h-1v-1h0a2,2,0,0,1-1.85,1.09c-1.43,0-2.15-.85-2.15-2.56V66.3h1v3.43c0,1.27.48,1.9,1.45,1.9a1.46,1.46,0,0,0,1.16-.52,2,2,0,0,0,.45-1.36V66.3h1Z" fill="#4d5359"/><path d="M32.53,80.7l-1.8,6h-1L28.5,82.4a2.26,2.26,0,0,1-.09-.56h0a2.51,2.51,0,0,1-.12.55L26.92,86.7H26l-1.82-6h1l1.24,4.51a2.21,2.21,0,0,1,.08.54h.05a2.78,2.78,0,0,1,.1-.55L28,80.7h.88l1.24,4.52a3,3,0,0,1,.09.54h0a2.61,2.61,0,0,1,.1-.54l1.22-4.52Z" fill="#4d5359"/><path d="M37.94,86.7H37v-.94h0a2,2,0,0,1-1.85,1.08,1.93,1.93,0,0,1-1.4-.48,1.62,1.62,0,0,1-.51-1.26q0-1.68,2-1.95l1.8-.26c0-1-.41-1.53-1.24-1.53a3,3,0,0,0-2,.74v-1a3.64,3.64,0,0,1,2-.56c1.41,0,2.12.74,2.12,2.23Zm-1-3-1.45.2a2.35,2.35,0,0,0-1,.33,1,1,0,0,0-.34.84.93.93,0,0,0,.32.72,1.18,1.18,0,0,0,.83.28,1.55,1.55,0,0,0,1.18-.5A1.81,1.81,0,0,0,37,84.26Z" fill="#4d5359"/><path d="M40.24,79.17A.64.64,0,0,1,39.8,79a.65.65,0,0,1,0-.9.6.6,0,0,1,.44-.18.61.61,0,0,1,.45.18.62.62,0,0,1,0,.89A.61.61,0,0,1,40.24,79.17Zm.47,7.53h-1v-6h1Z" fill="#4d5359"/><path d="M45.44,86.64a2,2,0,0,1-.9.18c-1,0-1.57-.58-1.57-1.75V81.52h-1V80.7h1V79.23l1-.31V80.7h1.51v.82H43.93V84.9a1.45,1.45,0,0,0,.2.86.84.84,0,0,0,.68.26,1.05,1.05,0,0,0,.63-.2Z" fill="#4d5359"/><path d="M53,78.66a1.21,1.21,0,0,0-.63-.16c-.68,0-1,.42-1,1.27v.93h1.4v.82h-1.4V86.7h-1V81.52h-1V80.7h1v-1a2,2,0,0,1,.55-1.49,2,2,0,0,1,2-.44Z" fill="#4d5359"/><path d="M56.27,86.84A2.79,2.79,0,0,1,54.15,86a3.12,3.12,0,0,1-.79-2.23,3.27,3.27,0,0,1,.82-2.37,3,3,0,0,1,2.23-.84,2.69,2.69,0,0,1,2.1.82,3.29,3.29,0,0,1,.75,2.29,3.21,3.21,0,0,1-.81,2.3A2.84,2.84,0,0,1,56.27,86.84Zm.07-5.48a1.83,1.83,0,0,0-1.46.63,2.59,2.59,0,0,0-.54,1.74,2.46,2.46,0,0,0,.54,1.68,1.87,1.87,0,0,0,1.46.62,1.76,1.76,0,0,0,1.44-.61,2.62,2.62,0,0,0,.5-1.71,2.71,2.71,0,0,0-.5-1.74A1.79,1.79,0,0,0,56.34,81.36Z" fill="#4d5359"/><path d="M63.93,81.67a1.18,1.18,0,0,0-.73-.19,1.23,1.23,0,0,0-1,.58,2.7,2.7,0,0,0-.41,1.58V86.7h-1v-6h1v1.23h0a2.17,2.17,0,0,1,.63-1,1.44,1.44,0,0,1,.94-.35,1.75,1.75,0,0,1,.58.08Z" fill="#4d5359"/><path d="M71,86.64a2,2,0,0,1-.9.18c-1,0-1.57-.58-1.57-1.75V81.52h-1V80.7h1V79.23l1-.31V80.7H71v.82H69.53V84.9a1.45,1.45,0,0,0,.2.86.84.84,0,0,0,.68.26,1.05,1.05,0,0,0,.63-.2Z" fill="#4d5359"/><path d="M77.3,86.7h-1V83.24c0-1.25-.46-1.88-1.39-1.88a1.51,1.51,0,0,0-1.19.55,2,2,0,0,0-.48,1.39v3.4h-1V77.81h1v3.88h0a2.16,2.16,0,0,1,2-1.13c1.35,0,2,.81,2,2.44Z" fill="#4d5359"/><path d="M83.94,83.94H79.7a2.18,2.18,0,0,0,.54,1.54,1.82,1.82,0,0,0,1.42.55,2.93,2.93,0,0,0,1.86-.67v.9a3.45,3.45,0,0,1-2.09.58,2.55,2.55,0,0,1-2-.82,3.37,3.37,0,0,1-.73-2.3,3.27,3.27,0,0,1,.8-2.28,2.53,2.53,0,0,1,2-.88,2.25,2.25,0,0,1,1.82.76,3.15,3.15,0,0,1,.65,2.11Zm-1-.82a2,2,0,0,0-.4-1.29,1.36,1.36,0,0,0-1.1-.47,1.56,1.56,0,0,0-1.15.49,2.22,2.22,0,0,0-.59,1.27Z" fill="#4d5359"/><path d="M92.77,86.42a3.14,3.14,0,0,1-1.65.42A2.72,2.72,0,0,1,89.05,86a3,3,0,0,1-.78-2.16,3.33,3.33,0,0,1,.85-2.39,3,3,0,0,1,2.26-.89,3.1,3.1,0,0,1,1.4.29v1a2.47,2.47,0,0,0-1.43-.47,1.92,1.92,0,0,0-1.51.66,2.52,2.52,0,0,0-.59,1.73,2.39,2.39,0,0,0,.55,1.67,1.94,1.94,0,0,0,1.49.61,2.49,2.49,0,0,0,1.48-.52Z" fill="#4d5359"/><path d="M96.73,86.84A2.79,2.79,0,0,1,94.6,86a3.12,3.12,0,0,1-.79-2.23,3.27,3.27,0,0,1,.82-2.37,3,3,0,0,1,2.24-.84,2.68,2.68,0,0,1,2.09.82,3.29,3.29,0,0,1,.75,2.29A3.21,3.21,0,0,1,98.9,86,2.82,2.82,0,0,1,96.73,86.84Zm.07-5.48a1.84,1.84,0,0,0-1.47.63,2.59,2.59,0,0,0-.54,1.74,2.41,2.41,0,0,0,.55,1.68A1.85,1.85,0,0,0,96.8,86a1.73,1.73,0,0,0,1.43-.61,2.62,2.62,0,0,0,.5-1.71,2.71,2.71,0,0,0-.5-1.74A1.76,1.76,0,0,0,96.8,81.36Z" fill="#4d5359"/><path d="M109.77,86.7h-1V83.25a2.57,2.57,0,0,0-.31-1.44,1.15,1.15,0,0,0-1-.45,1.29,1.29,0,0,0-1,.57,2.11,2.11,0,0,0-.43,1.34V86.7h-1V83.13c0-1.18-.46-1.77-1.37-1.77a1.27,1.27,0,0,0-1,.53,2.24,2.24,0,0,0-.41,1.38V86.7h-1v-6h1v1h0a2,2,0,0,1,1.87-1.09,1.71,1.71,0,0,1,1.07.34,1.81,1.81,0,0,1,.63.9,2.13,2.13,0,0,1,2-1.24c1.32,0,2,.81,2,2.44Z" fill="#4d5359"/><path d="M112.57,85.83h0v3.63h-1V80.7h1v1h0a2.25,2.25,0,0,1,2.07-1.19,2.2,2.2,0,0,1,1.82.8,3.37,3.37,0,0,1,.65,2.16,3.71,3.71,0,0,1-.74,2.41,2.44,2.44,0,0,1-2,.91A2,2,0,0,1,112.57,85.83Zm0-2.42v.84a1.8,1.8,0,0,0,.48,1.26,1.59,1.59,0,0,0,1.23.52,1.6,1.6,0,0,0,1.37-.67,3.07,3.07,0,0,0,.49-1.86,2.41,2.41,0,0,0-.46-1.57,1.54,1.54,0,0,0-1.26-.57,1.7,1.7,0,0,0-1.34.59A2.13,2.13,0,0,0,112.55,83.41Z" fill="#4d5359"/><path d="M119.13,79.17a.64.64,0,0,1-.44-.17.65.65,0,0,1,0-.9.6.6,0,0,1,.44-.18.61.61,0,0,1,.45.18.62.62,0,0,1,0,.89A.61.61,0,0,1,119.13,79.17Zm.47,7.53h-1v-6h1Z" fill="#4d5359"/><path d="M122.51,86.7h-1V77.81h1Z" fill="#4d5359"/><path d="M128.75,86.7h-1v-.94h0a2,2,0,0,1-1.84,1.08,2,2,0,0,1-1.41-.48,1.65,1.65,0,0,1-.5-1.26q0-1.68,2-1.95l1.8-.26c0-1-.41-1.53-1.24-1.53a3,3,0,0,0-2,.74v-1a3.68,3.68,0,0,1,2-.56c1.41,0,2.12.74,2.12,2.23Zm-1-3-1.45.2a2.3,2.3,0,0,0-1,.33A1,1,0,0,0,125,85a.93.93,0,0,0,.32.72,1.16,1.16,0,0,0,.83.28,1.55,1.55,0,0,0,1.18-.5,1.81,1.81,0,0,0,.47-1.27Z" fill="#4d5359"/><path d="M133.34,86.64a1.87,1.87,0,0,1-.89.18c-1.06,0-1.58-.58-1.58-1.75V81.52h-1V80.7h1V79.23l1-.31V80.7h1.51v.82h-1.51V84.9a1.37,1.37,0,0,0,.21.86.8.8,0,0,0,.67.26,1,1,0,0,0,.63-.2Z" fill="#4d5359"/><path d="M135.12,79.17a.64.64,0,0,1-.44-.17.65.65,0,0,1,0-.9.6.6,0,0,1,.44-.18.64.64,0,0,1,.45.18.61.61,0,0,1,.18.45.6.6,0,0,1-.18.44A.64.64,0,0,1,135.12,79.17Zm.47,7.53h-1v-6h1Z" fill="#4d5359"/><path d="M140,86.84a2.76,2.76,0,0,1-2.12-.84,3.12,3.12,0,0,1-.8-2.23A3.27,3.27,0,0,1,138,81.4a3,3,0,0,1,2.23-.84,2.68,2.68,0,0,1,2.09.82,3.25,3.25,0,0,1,.76,2.29,3.21,3.21,0,0,1-.81,2.3A2.85,2.85,0,0,1,140,86.84Zm.07-5.48a1.84,1.84,0,0,0-1.47.63,2.64,2.64,0,0,0-.53,1.74,2.46,2.46,0,0,0,.54,1.68,1.85,1.85,0,0,0,1.46.62,1.73,1.73,0,0,0,1.43-.61,2.57,2.57,0,0,0,.5-1.71,2.65,2.65,0,0,0-.5-1.74A1.76,1.76,0,0,0,140.11,81.36Z" fill="#4d5359"/><path d="M149.54,86.7h-1V83.27c0-1.27-.46-1.91-1.39-1.91a1.48,1.48,0,0,0-1.19.55,2,2,0,0,0-.48,1.36V86.7h-1v-6h1v1h0a2.15,2.15,0,0,1,2-1.13,1.84,1.84,0,0,1,1.5.63,2.82,2.82,0,0,1,.52,1.84Z" fill="#4d5359"/><path d="M157.42,86.64a1.87,1.87,0,0,1-.89.18c-1.05,0-1.58-.58-1.58-1.75V81.52h-1V80.7h1V79.23l1-.31V80.7h1.51v.82h-1.51V84.9a1.37,1.37,0,0,0,.21.86.81.81,0,0,0,.68.26,1,1,0,0,0,.62-.2Z" fill="#4d5359"/><path d="M161.12,86.84A2.77,2.77,0,0,1,159,86a3.12,3.12,0,0,1-.8-2.23A3.27,3.27,0,0,1,159,81.4a3,3,0,0,1,2.23-.84,2.71,2.71,0,0,1,2.1.82,3.29,3.29,0,0,1,.75,2.29,3.21,3.21,0,0,1-.81,2.3A2.84,2.84,0,0,1,161.12,86.84Zm.07-5.48a1.81,1.81,0,0,0-1.46.63,2.59,2.59,0,0,0-.54,1.74,2.46,2.46,0,0,0,.54,1.68,1.87,1.87,0,0,0,1.46.62,1.73,1.73,0,0,0,1.43-.61,2.57,2.57,0,0,0,.5-1.71,2.65,2.65,0,0,0-.5-1.74A1.76,1.76,0,0,0,161.19,81.36Z" fill="#4d5359"/><path d="M171.9,78.66a1.24,1.24,0,0,0-.64-.16c-.67,0-1,.42-1,1.27v.93h1.41v.82h-1.41V86.7h-1V81.52h-1V80.7h1v-1a2,2,0,0,1,.55-1.49,1.86,1.86,0,0,1,1.36-.55,1.94,1.94,0,0,1,.7.11Z" fill="#4d5359"/><path d="M173.18,79.17a.64.64,0,0,1-.44-.17.65.65,0,0,1,0-.9.6.6,0,0,1,.44-.18.63.63,0,0,1,.45.18.61.61,0,0,1,.18.45.6.6,0,0,1-.18.44A.63.63,0,0,1,173.18,79.17Zm.47,7.53h-1v-6h1Z" fill="#4d5359"/><path d="M180.57,86.7h-1V83.27c0-1.27-.46-1.91-1.39-1.91a1.48,1.48,0,0,0-1.19.55,2,2,0,0,0-.48,1.36V86.7h-1v-6h1v1h0a2.15,2.15,0,0,1,2-1.13,1.83,1.83,0,0,1,1.5.63,2.82,2.82,0,0,1,.52,1.84Z" fill="#4d5359"/><path d="M182.88,79.17a.64.64,0,0,1-.44-.17.65.65,0,0,1,0-.9.6.6,0,0,1,.44-.18.64.64,0,0,1,.45.18.61.61,0,0,1,.18.45.6.6,0,0,1-.18.44A.64.64,0,0,1,182.88,79.17Zm.47,7.53h-1v-6h1Z" fill="#4d5359"/><path d="M184.93,86.48v-1a2.88,2.88,0,0,0,1.73.58c.84,0,1.26-.28,1.26-.85a.65.65,0,0,0-.11-.4,1.17,1.17,0,0,0-.29-.3,2.86,2.86,0,0,0-.43-.23l-.54-.21-.7-.32a2,2,0,0,1-.5-.37,1.29,1.29,0,0,1-.31-.46,1.57,1.57,0,0,1-.1-.6,1.44,1.44,0,0,1,.19-.75,1.67,1.67,0,0,1,.52-.54,2.21,2.21,0,0,1,.73-.33,3.07,3.07,0,0,1,.86-.11,3.59,3.59,0,0,1,1.39.26v1a2.71,2.71,0,0,0-1.52-.44,1.53,1.53,0,0,0-.49.07,1.05,1.05,0,0,0-.37.17.85.85,0,0,0-.24.26.7.7,0,0,0-.09.35.8.8,0,0,0,.09.39.83.83,0,0,0,.25.28,1.67,1.67,0,0,0,.4.22l.53.22c.27.1.5.21.71.31a2.23,2.23,0,0,1,.54.37,1.41,1.41,0,0,1,.35.46,1.54,1.54,0,0,1,.12.63,1.45,1.45,0,0,1-.2.77,1.82,1.82,0,0,1-.52.55,2.6,2.6,0,0,1-.76.32,3.76,3.76,0,0,1-.9.11A3.37,3.37,0,0,1,184.93,86.48Z" fill="#4d5359"/><path d="M195.36,86.7h-1V83.24c0-1.25-.46-1.88-1.39-1.88a1.51,1.51,0,0,0-1.19.55,2,2,0,0,0-.48,1.39v3.4h-1V77.81h1v3.88h0a2.16,2.16,0,0,1,2-1.13c1.35,0,2,.81,2,2.44Z" fill="#4d5359"/><path d="M198.05,85.36l-.93,2.88h-.69l.69-2.88Z" fill="#4d5359"/><path d="M208.18,86.7h-1v-1h0a2.42,2.42,0,0,1-3.87.35,3.32,3.32,0,0,1-.68-2.19,3.6,3.6,0,0,1,.75-2.39,2.47,2.47,0,0,1,2-.89,1.93,1.93,0,0,1,1.8,1h0V77.81h1Zm-1-2.72V83.1a1.7,1.7,0,0,0-.48-1.23,1.59,1.59,0,0,0-1.22-.51,1.67,1.67,0,0,0-1.38.65,2.79,2.79,0,0,0-.5,1.78,2.56,2.56,0,0,0,.48,1.64,1.59,1.59,0,0,0,1.3.6,1.66,1.66,0,0,0,1.3-.58A2.15,2.15,0,0,0,207.22,84Z" fill="#4d5359"/><path d="M212.64,86.84a2.79,2.79,0,0,1-2.13-.84,3.12,3.12,0,0,1-.79-2.23,3.27,3.27,0,0,1,.82-2.37,3,3,0,0,1,2.24-.84,2.68,2.68,0,0,1,2.09.82,3.29,3.29,0,0,1,.75,2.29,3.21,3.21,0,0,1-.81,2.3A2.82,2.82,0,0,1,212.64,86.84Zm.07-5.48a1.84,1.84,0,0,0-1.47.63,2.59,2.59,0,0,0-.54,1.74,2.41,2.41,0,0,0,.55,1.68,1.85,1.85,0,0,0,1.46.62,1.73,1.73,0,0,0,1.43-.61,2.62,2.62,0,0,0,.5-1.71,2.71,2.71,0,0,0-.5-1.74A1.76,1.76,0,0,0,212.71,81.36Z" fill="#4d5359"/><path d="M220.08,86.48v-1a2.9,2.9,0,0,0,1.73.58c.85,0,1.27-.28,1.27-.85a.72.72,0,0,0-.11-.4,1.17,1.17,0,0,0-.29-.3,3,3,0,0,0-.44-.23l-.53-.21c-.27-.11-.5-.22-.7-.32a2.23,2.23,0,0,1-.51-.37,1.41,1.41,0,0,1-.3-.46,1.57,1.57,0,0,1-.1-.6,1.44,1.44,0,0,1,.19-.75,1.75,1.75,0,0,1,.51-.54,2.26,2.26,0,0,1,.74-.33,3.05,3.05,0,0,1,.85-.11,3.64,3.64,0,0,1,1.4.26v1a2.72,2.72,0,0,0-1.53-.44,1.43,1.43,0,0,0-.48.07,1,1,0,0,0-.37.17.66.66,0,0,0-.24.26.7.7,0,0,0-.09.35.8.8,0,0,0,.09.39.71.71,0,0,0,.24.28,1.89,1.89,0,0,0,.4.22l.54.22c.26.1.5.21.71.31a2.44,2.44,0,0,1,.54.37,1.38,1.38,0,0,1,.34.46,1.54,1.54,0,0,1,.12.63,1.44,1.44,0,0,1-.19.77,1.74,1.74,0,0,1-.53.55,2.54,2.54,0,0,1-.75.32,3.82,3.82,0,0,1-.9.11A3.41,3.41,0,0,1,220.08,86.48Z" fill="#4d5359"/><path d="M228.05,86.84a2.79,2.79,0,0,1-2.13-.84,3.12,3.12,0,0,1-.79-2.23A3.23,3.23,0,0,1,226,81.4a3,3,0,0,1,2.23-.84,2.68,2.68,0,0,1,2.09.82,3.29,3.29,0,0,1,.76,2.29,3.22,3.22,0,0,1-.82,2.3A2.82,2.82,0,0,1,228.05,86.84Zm.07-5.48a1.84,1.84,0,0,0-1.47.63,2.59,2.59,0,0,0-.54,1.74,2.41,2.41,0,0,0,.55,1.68,1.85,1.85,0,0,0,1.46.62,1.73,1.73,0,0,0,1.43-.61,2.62,2.62,0,0,0,.5-1.71,2.71,2.71,0,0,0-.5-1.74A1.76,1.76,0,0,0,228.12,81.36Z" fill="#4d5359"/><path d="M240.15,86.7h-1v-.94h0a2,2,0,0,1-1.85,1.08,2,2,0,0,1-1.4-.48,1.62,1.62,0,0,1-.51-1.26q0-1.68,2-1.95l1.8-.26q0-1.53-1.23-1.53a3,3,0,0,0-2,.74v-1a3.68,3.68,0,0,1,2-.56c1.41,0,2.11.74,2.11,2.23Zm-1-3-1.45.2a2.25,2.25,0,0,0-1,.33,1,1,0,0,0-.34.84.92.92,0,0,0,.31.72,1.19,1.19,0,0,0,.83.28,1.57,1.57,0,0,0,1.19-.5,1.8,1.8,0,0,0,.46-1.27Z" fill="#4d5359"/><path d="M244.93,78.66a1.24,1.24,0,0,0-.64-.16c-.67,0-1,.42-1,1.27v.93h1.41v.82h-1.41V86.7h-.95V81.52h-1V80.7h1v-1a2,2,0,0,1,.54-1.49,1.86,1.86,0,0,1,1.36-.55,1.9,1.9,0,0,1,.7.11Z" fill="#4d5359"/><path d="M248.72,86.64a2,2,0,0,1-.9.18c-1,0-1.57-.58-1.57-1.75V81.52h-1V80.7h1V79.23l1-.31V80.7h1.51v.82h-1.51V84.9a1.45,1.45,0,0,0,.2.86.84.84,0,0,0,.68.26,1.05,1.05,0,0,0,.63-.2Z" fill="#4d5359"/><path d="M254.73,83.94h-4.24a2.27,2.27,0,0,0,.54,1.54,1.85,1.85,0,0,0,1.42.55,2.89,2.89,0,0,0,1.86-.67v.9a3.41,3.41,0,0,1-2.09.58,2.58,2.58,0,0,1-2-.82,3.37,3.37,0,0,1-.72-2.3,3.26,3.26,0,0,1,.79-2.28,2.54,2.54,0,0,1,2-.88,2.26,2.26,0,0,1,1.83.76,3.15,3.15,0,0,1,.64,2.11Zm-1-.82a2,2,0,0,0-.41-1.29,1.36,1.36,0,0,0-1.09-.47,1.58,1.58,0,0,0-1.16.49,2.21,2.21,0,0,0-.58,1.27Z" fill="#4d5359"/><path d="M259.31,81.67a1.16,1.16,0,0,0-.72-.19,1.21,1.21,0,0,0-1,.58,2.62,2.62,0,0,0-.42,1.58V86.7h-1v-6h1v1.23h0a2.08,2.08,0,0,1,.62-1,1.49,1.49,0,0,1,.95-.35,1.65,1.65,0,0,1,.57.08Z" fill="#4d5359"/><path d="M266.43,86.64a2,2,0,0,1-.9.18c-1,0-1.58-.58-1.58-1.75V81.52h-1V80.7h1V79.23l1-.31V80.7h1.52v.82h-1.52V84.9a1.37,1.37,0,0,0,.21.86.83.83,0,0,0,.68.26,1.05,1.05,0,0,0,.63-.2Z" fill="#4d5359"/><path d="M272.69,86.7h-1V83.24c0-1.25-.47-1.88-1.4-1.88a1.51,1.51,0,0,0-1.18.55,2,2,0,0,0-.48,1.39v3.4h-1V77.81h1v3.88h0a2.17,2.17,0,0,1,2-1.13c1.35,0,2,.81,2,2.44Z" fill="#4d5359"/><path d="M279.32,83.94h-4.23a2.22,2.22,0,0,0,.53,1.54A1.85,1.85,0,0,0,277,86a2.94,2.94,0,0,0,1.87-.67v.9a3.46,3.46,0,0,1-2.1.58,2.54,2.54,0,0,1-2-.82,3.33,3.33,0,0,1-.73-2.3,3.26,3.26,0,0,1,.79-2.28,2.55,2.55,0,0,1,2-.88,2.25,2.25,0,0,1,1.82.76,3.15,3.15,0,0,1,.64,2.11Zm-1-.82a2,2,0,0,0-.4-1.29,1.38,1.38,0,0,0-1.1-.47,1.58,1.58,0,0,0-1.16.49,2.21,2.21,0,0,0-.58,1.27Z" fill="#4d5359"/><path d="M289.18,86.7h-1v-1h0a2.42,2.42,0,0,1-3.87.35,3.32,3.32,0,0,1-.68-2.19,3.6,3.6,0,0,1,.75-2.39,2.47,2.47,0,0,1,2-.89,1.93,1.93,0,0,1,1.8,1h0V77.81h1Zm-1-2.72V83.1a1.7,1.7,0,0,0-.48-1.23,1.59,1.59,0,0,0-1.22-.51,1.67,1.67,0,0,0-1.38.65,2.79,2.79,0,0,0-.5,1.78,2.56,2.56,0,0,0,.48,1.64,1.59,1.59,0,0,0,1.3.6,1.66,1.66,0,0,0,1.3-.58A2.15,2.15,0,0,0,288.22,84Z" fill="#4d5359"/><path d="M291.62,79.17a.64.64,0,0,1-.44-.17.65.65,0,0,1,0-.9.6.6,0,0,1,.44-.18.62.62,0,0,1,.63.63.6.6,0,0,1-.18.44A.61.61,0,0,1,291.62,79.17Zm.47,7.53h-1v-6h1Z" fill="#4d5359"/><path d="M298.33,86.7h-1v-.94h0a2,2,0,0,1-1.85,1.08,1.93,1.93,0,0,1-1.4-.48,1.62,1.62,0,0,1-.51-1.26q0-1.68,2-1.95l1.8-.26c0-1-.41-1.53-1.24-1.53a3,3,0,0,0-1.95.74v-1a3.67,3.67,0,0,1,2-.56c1.41,0,2.12.74,2.12,2.23Zm-1-3-1.45.2a2.35,2.35,0,0,0-1,.33,1,1,0,0,0-.34.84.93.93,0,0,0,.32.72,1.19,1.19,0,0,0,.83.28,1.55,1.55,0,0,0,1.18-.5,1.81,1.81,0,0,0,.47-1.27Z" fill="#4d5359"/><path d="M305.26,86.22q0,3.3-3.16,3.3a4.31,4.31,0,0,1-2-.42v-1a4.06,4.06,0,0,0,1.94.56c1.47,0,2.21-.79,2.21-2.36v-.65h0a2.43,2.43,0,0,1-3.87.35,3.24,3.24,0,0,1-.68-2.15,3.73,3.73,0,0,1,.74-2.43,2.46,2.46,0,0,1,2-.9,2,2,0,0,1,1.8,1h0V80.7h1Zm-1-2.24V83.1a1.73,1.73,0,0,0-.48-1.23,1.6,1.6,0,0,0-1.21-.51,1.66,1.66,0,0,0-1.39.65,2.87,2.87,0,0,0-.51,1.81,2.51,2.51,0,0,0,.49,1.61,1.56,1.56,0,0,0,1.28.6,1.63,1.63,0,0,0,1.31-.58A2.12,2.12,0,0,0,304.3,84Z" fill="#4d5359"/><path d="M310.34,81.67a1.18,1.18,0,0,0-.73-.19,1.23,1.23,0,0,0-1,.58,2.7,2.7,0,0,0-.41,1.58V86.7h-1v-6h1v1.23h0a2.17,2.17,0,0,1,.63-1,1.44,1.44,0,0,1,.94-.35,1.75,1.75,0,0,1,.58.08Z" fill="#4d5359"/><path d="M315.67,86.7h-1v-.94h0a2,2,0,0,1-1.85,1.08,2,2,0,0,1-1.4-.48,1.62,1.62,0,0,1-.51-1.26q0-1.68,2-1.95l1.8-.26q0-1.53-1.23-1.53a3,3,0,0,0-2,.74v-1a3.68,3.68,0,0,1,2-.56c1.41,0,2.11.74,2.11,2.23Zm-1-3-1.44.2a2.25,2.25,0,0,0-1,.33,1,1,0,0,0-.34.84.92.92,0,0,0,.31.72,1.2,1.2,0,0,0,.84.28,1.56,1.56,0,0,0,1.18-.5,1.8,1.8,0,0,0,.46-1.27Z" fill="#4d5359"/><path d="M326,86.7h-1V83.25a2.66,2.66,0,0,0-.3-1.44,1.17,1.17,0,0,0-1-.45,1.26,1.26,0,0,0-1,.57,2.12,2.12,0,0,0-.44,1.34V86.7h-1V83.13c0-1.18-.45-1.77-1.36-1.77a1.27,1.27,0,0,0-1,.53,2.18,2.18,0,0,0-.41,1.38V86.7h-1v-6h1v1h0a2,2,0,0,1,1.86-1.09A1.73,1.73,0,0,1,322,81.8a2.14,2.14,0,0,1,2-1.24c1.32,0,2,.81,2,2.44Z" fill="#4d5359"/><path d="M335.4,86.7h-1v-.94h0a2,2,0,0,1-1.85,1.08,2,2,0,0,1-1.4-.48,1.62,1.62,0,0,1-.51-1.26q0-1.68,2-1.95l1.8-.26q0-1.53-1.23-1.53a3,3,0,0,0-2,.74v-1a3.68,3.68,0,0,1,2-.56c1.41,0,2.11.74,2.11,2.23Zm-1-3-1.45.2a2.25,2.25,0,0,0-1,.33,1,1,0,0,0-.34.84.92.92,0,0,0,.31.72,1.19,1.19,0,0,0,.83.28,1.57,1.57,0,0,0,1.19-.5,1.8,1.8,0,0,0,.46-1.27Z" fill="#4d5359"/><path d="M342.19,86.7h-1V83.27c0-1.27-.46-1.91-1.39-1.91a1.48,1.48,0,0,0-1.19.55,2,2,0,0,0-.48,1.36V86.7h-1v-6h1v1h0a2.15,2.15,0,0,1,2-1.13,1.84,1.84,0,0,1,1.5.63,2.82,2.82,0,0,1,.52,1.84Z" fill="#4d5359"/><path d="M348.3,86.7h-1v-.94h0a2,2,0,0,1-1.84,1.08,1.93,1.93,0,0,1-1.4-.48,1.62,1.62,0,0,1-.51-1.26q0-1.68,2-1.95l1.8-.26c0-1-.41-1.53-1.24-1.53a3,3,0,0,0-2,.74v-1a3.68,3.68,0,0,1,2-.56c1.41,0,2.12.74,2.12,2.23Zm-1-3-1.45.2a2.35,2.35,0,0,0-1,.33,1,1,0,0,0-.34.84.93.93,0,0,0,.32.72,1.18,1.18,0,0,0,.83.28,1.55,1.55,0,0,0,1.18-.5,1.81,1.81,0,0,0,.47-1.27Z" fill="#4d5359"/><path d="M351.07,86.7h-1V77.81h1Z" fill="#4d5359"/><path d="M357.79,80.7l-2.76,7q-.73,1.86-2.07,1.86a2.25,2.25,0,0,1-.63-.08v-.86a1.84,1.84,0,0,0,.57.11,1.18,1.18,0,0,0,1.09-.87l.48-1.14-2.35-6h1.07l1.62,4.61c0,.06.07.21.13.46h0q0-.13.12-.45l1.7-4.62Z" fill="#4d5359"/><path d="M358.46,86.48v-1a2.88,2.88,0,0,0,1.73.58c.84,0,1.26-.28,1.26-.85a.65.65,0,0,0-.11-.4,1.17,1.17,0,0,0-.29-.3,2.86,2.86,0,0,0-.43-.23l-.54-.21-.7-.32a2,2,0,0,1-.5-.37,1.29,1.29,0,0,1-.31-.46,1.57,1.57,0,0,1-.1-.6,1.55,1.55,0,0,1,.19-.75,1.67,1.67,0,0,1,.52-.54,2.17,2.17,0,0,1,.74-.33,3,3,0,0,1,.85-.11,3.59,3.59,0,0,1,1.39.26v1a2.71,2.71,0,0,0-1.52-.44,1.53,1.53,0,0,0-.49.07,1.05,1.05,0,0,0-.37.17.85.85,0,0,0-.24.26.69.69,0,0,0-.08.35.8.8,0,0,0,.08.39.83.83,0,0,0,.25.28,1.67,1.67,0,0,0,.4.22l.53.22c.27.1.5.21.72.31A2.16,2.16,0,0,1,362,84a1.41,1.41,0,0,1,.35.46,1.54,1.54,0,0,1,.12.63,1.45,1.45,0,0,1-.2.77,1.7,1.7,0,0,1-.52.55,2.49,2.49,0,0,1-.76.32,3.7,3.7,0,0,1-.9.11A3.37,3.37,0,0,1,358.46,86.48Z" fill="#4d5359"/><path d="M364.41,79.17A.62.62,0,0,1,364,79a.65.65,0,0,1,0-.9.59.59,0,0,1,.44-.18.6.6,0,0,1,.44.18.58.58,0,0,1,.19.45.58.58,0,0,1-.19.44A.6.6,0,0,1,364.41,79.17Zm.47,7.53h-1v-6h1Z" fill="#4d5359"/><path d="M366.46,86.48v-1a2.88,2.88,0,0,0,1.73.58c.84,0,1.26-.28,1.26-.85a.65.65,0,0,0-.11-.4,1.17,1.17,0,0,0-.29-.3,2.86,2.86,0,0,0-.43-.23l-.54-.21c-.27-.11-.5-.22-.7-.32a2,2,0,0,1-.5-.37,1.29,1.29,0,0,1-.31-.46,1.57,1.57,0,0,1-.1-.6,1.44,1.44,0,0,1,.19-.75,1.67,1.67,0,0,1,.52-.54,2.21,2.21,0,0,1,.73-.33,3.07,3.07,0,0,1,.86-.11,3.59,3.59,0,0,1,1.39.26v1a2.71,2.71,0,0,0-1.52-.44,1.49,1.49,0,0,0-.49.07,1.05,1.05,0,0,0-.37.17.66.66,0,0,0-.24.26.7.7,0,0,0-.09.35.8.8,0,0,0,.09.39.74.74,0,0,0,.25.28,1.67,1.67,0,0,0,.4.22l.53.22c.26.1.5.21.71.31A2.44,2.44,0,0,1,370,84a1.41,1.41,0,0,1,.35.46,1.54,1.54,0,0,1,.12.63,1.45,1.45,0,0,1-.2.77,1.74,1.74,0,0,1-.53.55,2.43,2.43,0,0,1-.75.32,3.76,3.76,0,0,1-.9.11A3.37,3.37,0,0,1,366.46,86.48Z" fill="#4d5359"/><path d="M374.84,86.48v-1a2.87,2.87,0,0,0,1.72.58c.85,0,1.27-.28,1.27-.85a.72.72,0,0,0-.11-.4,1.17,1.17,0,0,0-.29-.3,2.86,2.86,0,0,0-.43-.23l-.54-.21c-.27-.11-.5-.22-.7-.32a2.23,2.23,0,0,1-.51-.37,1.41,1.41,0,0,1-.3-.46,1.57,1.57,0,0,1-.1-.6,1.44,1.44,0,0,1,.19-.75,1.67,1.67,0,0,1,.52-.54,2.21,2.21,0,0,1,.73-.33,3.05,3.05,0,0,1,.85-.11,3.64,3.64,0,0,1,1.4.26v1a2.71,2.71,0,0,0-1.52-.44,1.49,1.49,0,0,0-.49.07,1,1,0,0,0-.37.17.66.66,0,0,0-.24.26.7.7,0,0,0-.09.35.8.8,0,0,0,.09.39.74.74,0,0,0,.25.28,1.81,1.81,0,0,0,.39.22l.54.22c.26.1.5.21.71.31a2.44,2.44,0,0,1,.54.37,1.38,1.38,0,0,1,.34.46,1.54,1.54,0,0,1,.12.63,1.44,1.44,0,0,1-.19.77,1.74,1.74,0,0,1-.53.55,2.43,2.43,0,0,1-.75.32,3.82,3.82,0,0,1-.9.11A3.34,3.34,0,0,1,374.84,86.48Z" fill="#4d5359"/><path d="M383.07,86.64a1.87,1.87,0,0,1-.89.18c-1.05,0-1.58-.58-1.58-1.75V81.52h-1V80.7h1V79.23l1-.31V80.7h1.51v.82h-1.51V84.9a1.37,1.37,0,0,0,.21.86.81.81,0,0,0,.68.26,1,1,0,0,0,.62-.2Z" fill="#4d5359"/><path d="M388.65,86.7h-1v-.94h0a2,2,0,0,1-1.85,1.08,2,2,0,0,1-1.4-.48,1.62,1.62,0,0,1-.51-1.26q0-1.68,2-1.95l1.8-.26q0-1.53-1.23-1.53a3,3,0,0,0-2,.74v-1a3.68,3.68,0,0,1,2-.56c1.41,0,2.11.74,2.11,2.23Zm-1-3-1.45.2a2.25,2.25,0,0,0-1,.33,1,1,0,0,0-.34.84.92.92,0,0,0,.31.72A1.19,1.19,0,0,0,386,86a1.57,1.57,0,0,0,1.19-.5,1.8,1.8,0,0,0,.46-1.27Z" fill="#4d5359"/><path d="M395.58,86.22q0,3.3-3.16,3.3a4.31,4.31,0,0,1-1.95-.42v-1a4.06,4.06,0,0,0,1.94.56c1.47,0,2.21-.79,2.21-2.36v-.65h0a2.42,2.42,0,0,1-3.86.35,3.19,3.19,0,0,1-.69-2.15,3.73,3.73,0,0,1,.74-2.43,2.46,2.46,0,0,1,2-.9,2,2,0,0,1,1.8,1h0V80.7h1Zm-1-2.24V83.1a1.73,1.73,0,0,0-.48-1.23,1.58,1.58,0,0,0-1.2-.51,1.68,1.68,0,0,0-1.4.65,2.93,2.93,0,0,0-.5,1.81,2.51,2.51,0,0,0,.48,1.61,1.56,1.56,0,0,0,1.28.6,1.67,1.67,0,0,0,1.32-.58A2.16,2.16,0,0,0,394.62,84Z" fill="#4d5359"/><path d="M402.35,83.94h-4.23a2.22,2.22,0,0,0,.53,1.54,1.85,1.85,0,0,0,1.42.55,2.94,2.94,0,0,0,1.87-.67v.9a3.46,3.46,0,0,1-2.1.58,2.54,2.54,0,0,1-2-.82,3.33,3.33,0,0,1-.73-2.3,3.26,3.26,0,0,1,.79-2.28,2.54,2.54,0,0,1,2-.88,2.26,2.26,0,0,1,1.83.76,3.15,3.15,0,0,1,.64,2.11Zm-1-.82a2,2,0,0,0-.4-1.29,1.38,1.38,0,0,0-1.1-.47,1.58,1.58,0,0,0-1.16.49,2.21,2.21,0,0,0-.58,1.27Z" fill="#4d5359"/><path d="M404.14,86.82a.65.65,0,0,1-.65-.65.64.64,0,0,1,.19-.47.62.62,0,0,1,.46-.19.65.65,0,0,1,.66.66.62.62,0,0,1-.19.46A.64.64,0,0,1,404.14,86.82Z" fill="#4d5359"/><rect x="343" y="151.93" width="68" height="22" fill="url(#linear-gradient)"/><path d="M410,152.93v20H344v-20h66m2-2H342v24h70v-24Z" fill="#a8abae"/><path d="M359.78,166.58a4.92,4.92,0,0,1-2.32.49,3.73,3.73,0,0,1-2.87-1.15,4.26,4.26,0,0,1-1.08-3,4.45,4.45,0,0,1,1.21-3.26,4.12,4.12,0,0,1,3.08-1.24,4.92,4.92,0,0,1,2,.34v1.05a4.08,4.08,0,0,0-2-.5,3.07,3.07,0,0,0-2.35,1,3.66,3.66,0,0,0-.9,2.59,3.44,3.44,0,0,0,.84,2.44,2.87,2.87,0,0,0,2.21.92,4.11,4.11,0,0,0,2.19-.57Z" fill="#4d5359"/><path d="M363.87,167.07a2.76,2.76,0,0,1-2.12-.84A3.11,3.11,0,0,1,361,164a3.25,3.25,0,0,1,.83-2.36,3,3,0,0,1,2.23-.85,2.66,2.66,0,0,1,2.09.83,3.75,3.75,0,0,1-.05,4.59A2.88,2.88,0,0,1,363.87,167.07Zm.07-5.47a1.84,1.84,0,0,0-1.47.63,2.63,2.63,0,0,0-.53,1.73,2.47,2.47,0,0,0,.54,1.69,1.85,1.85,0,0,0,1.46.61,1.75,1.75,0,0,0,1.43-.6,3.23,3.23,0,0,0,0-3.45A1.73,1.73,0,0,0,363.94,161.6Z" fill="#4d5359"/><path d="M373.37,166.93h-1v-3.42c0-1.28-.46-1.91-1.39-1.91a1.5,1.5,0,0,0-1.19.54,2,2,0,0,0-.48,1.37v3.42h-1v-6h1v1h0a2.16,2.16,0,0,1,2-1.14,1.84,1.84,0,0,1,1.5.63,2.84,2.84,0,0,1,.52,1.84Z" fill="#4d5359"/><path d="M378,166.87a1.82,1.82,0,0,1-.9.19c-1.05,0-1.58-.59-1.58-1.76v-3.55h-1v-.82h1v-1.47l1-.31v1.78H378v.82h-1.51v3.38a1.38,1.38,0,0,0,.2.86.83.83,0,0,0,.68.26,1.05,1.05,0,0,0,.63-.2Z" fill="#4d5359"/><path d="M379.74,159.41a.61.61,0,0,1-.62-.62.61.61,0,0,1,.18-.45.6.6,0,0,1,.44-.18.61.61,0,0,1,.45.18.62.62,0,0,1,.19.45.59.59,0,0,1-.19.43A.58.58,0,0,1,379.74,159.41Zm.47,7.52h-1v-6h1Z" fill="#4d5359"/><path d="M387.14,166.93h-1v-3.42c0-1.28-.47-1.91-1.4-1.91a1.5,1.5,0,0,0-1.19.54,2,2,0,0,0-.47,1.37v3.42h-1v-6h1v1h0a2.16,2.16,0,0,1,2-1.14,1.85,1.85,0,0,1,1.51.63,2.9,2.9,0,0,1,.52,1.84Z" fill="#4d5359"/><path d="M393.8,166.93h-1v-1h0a2,2,0,0,1-1.85,1.09c-1.43,0-2.14-.85-2.14-2.55v-3.59h.95v3.43c0,1.27.49,1.9,1.46,1.9a1.44,1.44,0,0,0,1.15-.52,1.92,1.92,0,0,0,.46-1.35v-3.46h1Z" fill="#4d5359"/><path d="M400.56,164.17h-4.24a2.3,2.3,0,0,0,.54,1.55,1.88,1.88,0,0,0,1.42.54,2.89,2.89,0,0,0,1.86-.67v.91a3.47,3.47,0,0,1-2.09.57,2.54,2.54,0,0,1-2-.82,3.35,3.35,0,0,1-.72-2.3,3.28,3.28,0,0,1,.79-2.28,2.54,2.54,0,0,1,2-.88,2.26,2.26,0,0,1,1.83.76,3.18,3.18,0,0,1,.64,2.12Zm-1-.81a2,2,0,0,0-.41-1.3,1.35,1.35,0,0,0-1.09-.46,1.57,1.57,0,0,0-1.16.48,2.24,2.24,0,0,0-.58,1.28Z" fill="#4d5359"/><path d="M43.1,117.15v-8.4h2.32c3,0,4.44,1.36,4.44,4.1A4.13,4.13,0,0,1,48.63,116a4.55,4.55,0,0,1-3.3,1.18Zm1-7.51v6.62h1.25a3.55,3.55,0,0,0,2.57-.88,3.3,3.3,0,0,0,.92-2.51q0-3.23-3.43-3.23Z" fill="#575757"/><path d="M53.89,117.29a2.79,2.79,0,0,1-2.12-.84,3.1,3.1,0,0,1-.79-2.23,3.24,3.24,0,0,1,.82-2.36A3,3,0,0,1,54,111a2.69,2.69,0,0,1,2.09.83,3.27,3.27,0,0,1,.75,2.29,3.23,3.23,0,0,1-.81,2.3A2.87,2.87,0,0,1,53.89,117.29Zm.07-5.47a1.83,1.83,0,0,0-1.46.63,2.59,2.59,0,0,0-.54,1.74,2.41,2.41,0,0,0,.55,1.68,1.84,1.84,0,0,0,1.45.61,1.77,1.77,0,0,0,1.44-.6,2.63,2.63,0,0,0,.5-1.72,2.68,2.68,0,0,0-.5-1.73A1.75,1.75,0,0,0,54,111.82Z" fill="#575757"/><path d="M63.4,117.15h-1v-3.42c0-1.27-.47-1.91-1.4-1.91a1.52,1.52,0,0,0-1.19.54,2,2,0,0,0-.47,1.37v3.42h-1v-6h1v1h0a2.17,2.17,0,0,1,2-1.14,1.83,1.83,0,0,1,1.51.64,2.85,2.85,0,0,1,.52,1.83Z" fill="#575757"/><path d="M66.39,108.61l-.82,2.61h-.69l.65-2.61Z" fill="#575757"/><path d="M70.74,117.09a1.82,1.82,0,0,1-.9.19c-1,0-1.57-.59-1.57-1.76V112h-1v-.82h1v-1.46l1-.31v1.77h1.51V112H69.23v3.38a1.43,1.43,0,0,0,.2.86.81.81,0,0,0,.68.26,1,1,0,0,0,.63-.2Z" fill="#575757"/><path d="M75,116.94v-1a2.82,2.82,0,0,0,1.73.58q1.26,0,1.26-.84a.68.68,0,0,0-.11-.41,1,1,0,0,0-.29-.29,1.76,1.76,0,0,0-.43-.23l-.54-.22a5.16,5.16,0,0,1-.7-.32,2.22,2.22,0,0,1-.5-.36,1.38,1.38,0,0,1-.31-.46,1.57,1.57,0,0,1-.1-.6,1.42,1.42,0,0,1,.19-.75,1.7,1.7,0,0,1,.52-.55,2.71,2.71,0,0,1,.73-.33,3.49,3.49,0,0,1,.86-.11,3.41,3.41,0,0,1,1.39.27v1a2.7,2.7,0,0,0-1.52-.43,1.88,1.88,0,0,0-.49.06,1.26,1.26,0,0,0-.37.17.87.87,0,0,0-.24.27.67.67,0,0,0-.09.34.78.78,0,0,0,.34.68,2.11,2.11,0,0,0,.4.22l.53.22a6.85,6.85,0,0,1,.71.31,2.82,2.82,0,0,1,.54.36,1.45,1.45,0,0,1,.35.47,1.64,1.64,0,0,1-.08,1.4,1.68,1.68,0,0,1-.52.54,2.37,2.37,0,0,1-.76.33,3.76,3.76,0,0,1-.9.1A3.49,3.49,0,0,1,75,116.94Z" fill="#575757"/><path d="M85.38,117.15h-1v-3.46c0-1.25-.46-1.87-1.39-1.87a1.53,1.53,0,0,0-1.19.54,2,2,0,0,0-.48,1.39v3.4h-1v-8.88h1v3.88h0a2.17,2.17,0,0,1,2-1.14c1.35,0,2,.82,2,2.44Z" fill="#575757"/><path d="M89.7,117.29a2.77,2.77,0,0,1-2.12-.84,3.11,3.11,0,0,1-.8-2.23,3.25,3.25,0,0,1,.83-2.36,3,3,0,0,1,2.23-.85,2.71,2.71,0,0,1,2.1.83,3.27,3.27,0,0,1,.75,2.29,3.23,3.23,0,0,1-.81,2.3A2.87,2.87,0,0,1,89.7,117.29Zm.07-5.47a1.81,1.81,0,0,0-1.46.63,2.59,2.59,0,0,0-.54,1.74,2.46,2.46,0,0,0,.54,1.68,1.86,1.86,0,0,0,1.46.61,1.75,1.75,0,0,0,1.43-.6,2.58,2.58,0,0,0,.51-1.72,2.63,2.63,0,0,0-.51-1.73A1.73,1.73,0,0,0,89.77,111.82Z" fill="#575757"/><path d="M101.78,111.15l-1.8,6H99l-1.24-4.29a3,3,0,0,1-.09-.56h0a2.64,2.64,0,0,1-.12.55l-1.34,4.3h-1l-1.82-6h1l1.24,4.51a2.38,2.38,0,0,1,.08.54h0a2.43,2.43,0,0,1,.11-.55l1.38-4.5h.88l1.24,4.53a3,3,0,0,1,.09.53h0a2,2,0,0,1,.1-.53l1.21-4.53Z" fill="#575757"/><path d="M109,117.09a1.82,1.82,0,0,1-.9.19c-1,0-1.58-.59-1.58-1.76V112h-1v-.82h1v-1.46l1-.31v1.77H109V112h-1.51v3.38a1.36,1.36,0,0,0,.2.86.8.8,0,0,0,.68.26,1,1,0,0,0,.63-.2Z" fill="#575757"/><path d="M115.23,117.15h-1v-3.46c0-1.25-.47-1.87-1.39-1.87a1.53,1.53,0,0,0-1.19.54,2,2,0,0,0-.48,1.39v3.4h-1v-8.88h1v3.88h0a2.19,2.19,0,0,1,2-1.14c1.35,0,2,.82,2,2.44Z" fill="#575757"/><path d="M117.53,109.63a.6.6,0,0,1-.44-.18.57.57,0,0,1-.18-.44.61.61,0,0,1,.18-.45.6.6,0,0,1,.44-.18.61.61,0,0,1,.45.18.62.62,0,0,1,0,.89A.61.61,0,0,1,117.53,109.63Zm.47,7.52h-1v-6h1Z" fill="#575757"/><path d="M119.58,116.94v-1a2.84,2.84,0,0,0,1.73.58c.85,0,1.27-.28,1.27-.84a.76.76,0,0,0-.11-.41,1,1,0,0,0-.29-.29,1.83,1.83,0,0,0-.44-.23l-.53-.22a5.16,5.16,0,0,1-.7-.32,2.55,2.55,0,0,1-.51-.36,1.52,1.52,0,0,1-.3-.46,1.57,1.57,0,0,1-.1-.6,1.42,1.42,0,0,1,.19-.75,1.78,1.78,0,0,1,.51-.55,2.77,2.77,0,0,1,.74-.33,3.59,3.59,0,0,1,2.25.16v1a2.71,2.71,0,0,0-1.53-.43,1.75,1.75,0,0,0-.48.06,1.15,1.15,0,0,0-.37.17.76.76,0,0,0-.24.27.67.67,0,0,0-.09.34.82.82,0,0,0,.09.4.78.78,0,0,0,.24.28,2.48,2.48,0,0,0,.4.22l.54.22a6.85,6.85,0,0,1,.71.31,2.82,2.82,0,0,1,.54.36,1.41,1.41,0,0,1,.34.47,1.51,1.51,0,0,1,.12.63,1.49,1.49,0,0,1-.19.77,1.61,1.61,0,0,1-.53.54,2.32,2.32,0,0,1-.75.33,3.82,3.82,0,0,1-.9.1A3.54,3.54,0,0,1,119.58,116.94Z" fill="#575757"/><path d="M136.85,117.15h-1v-3.44a2.62,2.62,0,0,0-.3-1.44,1.17,1.17,0,0,0-1-.45,1.27,1.27,0,0,0-1,.56,2.16,2.16,0,0,0-.43,1.35v3.42h-1v-3.56c0-1.18-.46-1.77-1.37-1.77a1.27,1.27,0,0,0-1,.53,2.14,2.14,0,0,0-.41,1.38v3.42h-1v-6h1v.95h0a2,2,0,0,1,1.86-1.09,1.83,1.83,0,0,1,1.08.34,1.73,1.73,0,0,1,.62.9,2.16,2.16,0,0,1,2-1.24c1.32,0,2,.82,2,2.44Z" fill="#575757"/><path d="M143.48,114.39h-4.23a2.19,2.19,0,0,0,.54,1.55,1.85,1.85,0,0,0,1.42.54,3,3,0,0,0,1.86-.66v.9a3.52,3.52,0,0,1-2.09.57,2.54,2.54,0,0,1-2-.81,3.34,3.34,0,0,1-.73-2.3,3.29,3.29,0,0,1,.8-2.29,2.56,2.56,0,0,1,2-.88,2.28,2.28,0,0,1,1.82.76,3.19,3.19,0,0,1,.64,2.12Zm-1-.81a2,2,0,0,0-.4-1.3,1.37,1.37,0,0,0-1.1-.46,1.52,1.52,0,0,0-1.15.49,2.13,2.13,0,0,0-.59,1.27Z" fill="#575757"/><path d="M144.57,116.94v-1a2.84,2.84,0,0,0,1.73.58c.85,0,1.27-.28,1.27-.84a.76.76,0,0,0-.11-.41,1,1,0,0,0-.29-.29,1.83,1.83,0,0,0-.44-.23l-.53-.22a5.16,5.16,0,0,1-.7-.32,2.55,2.55,0,0,1-.51-.36,1.52,1.52,0,0,1-.3-.46,1.57,1.57,0,0,1-.1-.6,1.42,1.42,0,0,1,.19-.75,1.78,1.78,0,0,1,.51-.55,2.77,2.77,0,0,1,.74-.33,3.59,3.59,0,0,1,2.25.16v1a2.71,2.71,0,0,0-1.53-.43,1.75,1.75,0,0,0-.48.06,1.15,1.15,0,0,0-.37.17.76.76,0,0,0-.24.27.67.67,0,0,0-.09.34.82.82,0,0,0,.09.4.78.78,0,0,0,.24.28,2.48,2.48,0,0,0,.4.22l.54.22a6.85,6.85,0,0,1,.71.31,2.82,2.82,0,0,1,.54.36,1.41,1.41,0,0,1,.34.47,1.51,1.51,0,0,1,.12.63,1.49,1.49,0,0,1-.19.77,1.61,1.61,0,0,1-.53.54,2.32,2.32,0,0,1-.75.33,3.82,3.82,0,0,1-.9.1A3.54,3.54,0,0,1,144.57,116.94Z" fill="#575757"/><path d="M149.67,116.94v-1a2.81,2.81,0,0,0,1.72.58c.85,0,1.27-.28,1.27-.84a.76.76,0,0,0-.11-.41,1,1,0,0,0-.29-.29,1.76,1.76,0,0,0-.43-.23l-.54-.22a5.16,5.16,0,0,1-.7-.32,2.55,2.55,0,0,1-.51-.36,1.52,1.52,0,0,1-.3-.46,1.57,1.57,0,0,1-.1-.6,1.42,1.42,0,0,1,.19-.75,1.7,1.7,0,0,1,.52-.55,2.71,2.71,0,0,1,.73-.33,3.59,3.59,0,0,1,2.25.16v1a2.7,2.7,0,0,0-1.52-.43,1.83,1.83,0,0,0-.49.06,1.15,1.15,0,0,0-.37.17.76.76,0,0,0-.24.27.67.67,0,0,0-.09.34.78.78,0,0,0,.34.68,2.36,2.36,0,0,0,.39.22l.54.22a6.85,6.85,0,0,1,.71.31,2.82,2.82,0,0,1,.54.36,1.41,1.41,0,0,1,.34.47,1.51,1.51,0,0,1,.12.63,1.49,1.49,0,0,1-.19.77,1.61,1.61,0,0,1-.53.54,2.22,2.22,0,0,1-.75.33,3.82,3.82,0,0,1-.9.1A3.47,3.47,0,0,1,149.67,116.94Z" fill="#575757"/><path d="M159.42,117.15h-1v-.94h0a2.2,2.2,0,0,1-3.25.61,1.64,1.64,0,0,1-.5-1.26c0-1.12.66-1.78,2-2l1.8-.25c0-1-.42-1.53-1.24-1.53a3,3,0,0,0-2,.74v-1a3.76,3.76,0,0,1,2-.56c1.41,0,2.12.75,2.12,2.24Zm-1-3-1.45.2a2.3,2.3,0,0,0-1,.33,1,1,0,0,0-.34.84.92.92,0,0,0,.31.72,1.25,1.25,0,0,0,.84.27A1.51,1.51,0,0,0,158,116a1.78,1.78,0,0,0,.47-1.27Z" fill="#575757"/><path d="M166.35,116.67c0,2.2-1.06,3.31-3.17,3.31a4.11,4.11,0,0,1-1.94-.43v-1a3.94,3.94,0,0,0,1.93.57c1.48,0,2.22-.79,2.22-2.36v-.66h0a2.42,2.42,0,0,1-3.86.35,3.16,3.16,0,0,1-.68-2.14,3.77,3.77,0,0,1,.73-2.44,2.46,2.46,0,0,1,2-.9,2,2,0,0,1,1.8,1h0v-.83h1Zm-1-2.23v-.89a1.69,1.69,0,0,0-.49-1.22,1.58,1.58,0,0,0-1.2-.51,1.7,1.7,0,0,0-1.4.65,2.91,2.91,0,0,0-.5,1.81,2.48,2.48,0,0,0,.48,1.6,1.57,1.57,0,0,0,1.28.6,1.69,1.69,0,0,0,1.32-.57A2.12,2.12,0,0,0,165.39,114.44Z" fill="#575757"/><path d="M173.12,114.39h-4.24a2.19,2.19,0,0,0,.54,1.55,1.85,1.85,0,0,0,1.42.54,3,3,0,0,0,1.86-.66v.9a3.52,3.52,0,0,1-2.09.57,2.54,2.54,0,0,1-2-.81,3.34,3.34,0,0,1-.73-2.3,3.29,3.29,0,0,1,.8-2.29,2.56,2.56,0,0,1,2-.88,2.28,2.28,0,0,1,1.82.76,3.2,3.2,0,0,1,.65,2.12Zm-1-.81a2,2,0,0,0-.4-1.3,1.36,1.36,0,0,0-1.1-.46,1.52,1.52,0,0,0-1.15.49,2.13,2.13,0,0,0-.59,1.27Z" fill="#575757"/><path d="M182.15,117.15h-1v-.94h0a2,2,0,0,1-1.85,1.08,2,2,0,0,1-1.4-.47,1.65,1.65,0,0,1-.51-1.26c0-1.12.66-1.78,2-2l1.8-.25c0-1-.41-1.53-1.24-1.53a3,3,0,0,0-1.95.74v-1a3.76,3.76,0,0,1,2-.56c1.41,0,2.11.75,2.11,2.24Zm-1-3-1.45.2a2.35,2.35,0,0,0-1,.33,1,1,0,0,0-.34.84.93.93,0,0,0,.32.72,1.24,1.24,0,0,0,.83.27,1.51,1.51,0,0,0,1.18-.5,1.78,1.78,0,0,0,.47-1.27Z" fill="#575757"/><path d="M189.08,116.67c0,2.2-1.05,3.31-3.16,3.31a4.18,4.18,0,0,1-1.95-.43v-1a4,4,0,0,0,1.94.57c1.47,0,2.21-.79,2.21-2.36v-.66h0a2.43,2.43,0,0,1-3.87.35,3.21,3.21,0,0,1-.68-2.14,3.78,3.78,0,0,1,.74-2.44,2.46,2.46,0,0,1,2-.9,2,2,0,0,1,1.8,1h0v-.83h1Zm-1-2.23v-.89a1.72,1.72,0,0,0-.48-1.22,1.6,1.6,0,0,0-1.21-.51,1.68,1.68,0,0,0-1.39.65,2.85,2.85,0,0,0-.5,1.81,2.48,2.48,0,0,0,.48,1.6,1.56,1.56,0,0,0,1.28.6,1.65,1.65,0,0,0,1.31-.57A2.12,2.12,0,0,0,188.12,114.44Z" fill="#575757"/><path d="M195.32,117.15h-1v-.94h0a2,2,0,0,1-1.85,1.08,2,2,0,0,1-1.4-.47,1.65,1.65,0,0,1-.51-1.26c0-1.12.66-1.78,2-2l1.8-.25c0-1-.41-1.53-1.24-1.53a3,3,0,0,0-2,.74v-1a3.76,3.76,0,0,1,2-.56c1.41,0,2.11.75,2.11,2.24Zm-1-3-1.45.2a2.25,2.25,0,0,0-1,.33,1,1,0,0,0-.34.84.92.92,0,0,0,.31.72,1.24,1.24,0,0,0,.83.27,1.55,1.55,0,0,0,1.19-.5,1.77,1.77,0,0,0,.46-1.27Z" fill="#575757"/><path d="M197.62,109.63a.58.58,0,0,1-.43-.18A.55.55,0,0,1,197,109a.63.63,0,0,1,.62-.63.61.61,0,0,1,.45.18.58.58,0,0,1,.19.45.58.58,0,0,1-.19.44A.61.61,0,0,1,197.62,109.63Zm.47,7.52h-1v-6h1Z" fill="#575757"/><path d="M205,117.15h-1v-3.42c0-1.27-.47-1.91-1.4-1.91a1.52,1.52,0,0,0-1.19.54,2,2,0,0,0-.47,1.37v3.42h-1v-6h1v1h0a2.17,2.17,0,0,1,2-1.14,1.83,1.83,0,0,1,1.51.64,2.79,2.79,0,0,1,.52,1.83Z" fill="#575757"/><rect x="25.5" y="108.01" width="10" height="10" fill="#fff"/><path d="M24.5,107v12h12V107Zm11,11h-10V108h10Z" fill="#575757"/></g></svg>