<svg xmlns="http://www.w3.org/2000/svg" xmlns:xlink="http://www.w3.org/1999/xlink" width="362" height="128" viewBox="0 0 362 128"><defs><linearGradient id="linear-gradient" x1="223" y1="93.05" x2="223" y2="114.97" gradientUnits="userSpaceOnUse"><stop offset="0" stop-color="#ebe9ec"/><stop offset="0.28" stop-color="#e5e6e9"/><stop offset="1" stop-color="#dadfe2"/></linearGradient><linearGradient id="linear-gradient-2" x1="303" y1="93.18" x2="303" y2="114.76" xlink:href="#linear-gradient"/><linearGradient id="linear-gradient-3" x1="123.5" y1="93.05" x2="123.5" y2="114.97" xlink:href="#linear-gradient"/></defs><title>confirmations-delete-file</title><g id="SPEC_text"><polygon points="4 23.92 4 80.96 359.99 80.96 359.99 24 4 23.92" fill="#eef0ef"/><rect x="4" y="82" width="354" height="44" fill="#e1e3e4"/><path d="M0,0V128H362V0ZM358,124H4V29H358Z" fill="#4d5359"/><rect x="4" y="81" width="354" height="1" fill="#a8abae"/><path d="M17.1,20V11.6h2.32q4.44,0,4.44,4.09a4.14,4.14,0,0,1-1.23,3.13A4.55,4.55,0,0,1,19.33,20Zm1-7.51v6.62h1.25a3.55,3.55,0,0,0,2.57-.89,3.31,3.31,0,0,0,.92-2.5c0-2.16-1.14-3.23-3.43-3.23Z" fill="#fff"/><path d="M30.21,17.24H26a2.3,2.3,0,0,0,.54,1.55,1.87,1.87,0,0,0,1.42.54,2.91,2.91,0,0,0,1.86-.67v.91a3.47,3.47,0,0,1-2.09.57,2.53,2.53,0,0,1-2-.82A3.35,3.35,0,0,1,25,17a3.28,3.28,0,0,1,.79-2.28,2.54,2.54,0,0,1,2-.88,2.24,2.24,0,0,1,1.82.76,3.18,3.18,0,0,1,.65,2.12Zm-1-.81a1.91,1.91,0,0,0-.4-1.3,1.36,1.36,0,0,0-1.1-.46,1.56,1.56,0,0,0-1.15.48A2.25,2.25,0,0,0,26,16.43Z" fill="#fff"/><path d="M32.62,20h-1V11.12h1Z" fill="#fff"/><path d="M39.39,17.24H35.15a2.3,2.3,0,0,0,.54,1.55,1.88,1.88,0,0,0,1.42.54A2.89,2.89,0,0,0,39,18.66v.91a3.47,3.47,0,0,1-2.09.57,2.53,2.53,0,0,1-2-.82,3.35,3.35,0,0,1-.72-2.3A3.28,3.28,0,0,1,35,14.74a2.54,2.54,0,0,1,2-.88,2.26,2.26,0,0,1,1.83.76,3.18,3.18,0,0,1,.64,2.12Zm-1-.81a2,2,0,0,0-.41-1.3,1.35,1.35,0,0,0-1.09-.46,1.57,1.57,0,0,0-1.16.48,2.24,2.24,0,0,0-.58,1.28Z" fill="#fff"/><path d="M43.63,19.94a1.82,1.82,0,0,1-.9.19c-1,0-1.58-.59-1.58-1.76V14.82h-1V14h1V12.54l1-.32V14h1.52v.82H42.11V18.2a1.37,1.37,0,0,0,.21.86.83.83,0,0,0,.68.26,1.05,1.05,0,0,0,.63-.2Z" fill="#fff"/><path d="M49.64,17.24H45.4a2.3,2.3,0,0,0,.54,1.55,1.87,1.87,0,0,0,1.42.54,2.91,2.91,0,0,0,1.86-.67v.91a3.5,3.5,0,0,1-2.09.57,2.53,2.53,0,0,1-2-.82,3.35,3.35,0,0,1-.72-2.3,3.28,3.28,0,0,1,.79-2.28,2.54,2.54,0,0,1,2-.88,2.24,2.24,0,0,1,1.82.76,3.18,3.18,0,0,1,.65,2.12Zm-1-.81a1.91,1.91,0,0,0-.4-1.3,1.36,1.36,0,0,0-1.1-.46,1.56,1.56,0,0,0-1.15.48,2.25,2.25,0,0,0-.59,1.28Z" fill="#fff"/><path d="M58.77,12.49H55.49v2.9h3v.89h-3V20h-1V11.6h4.26Z" fill="#fff"/><path d="M60.73,12.48a.6.6,0,0,1-.44-.18.59.59,0,0,1-.18-.44.61.61,0,0,1,.18-.45.6.6,0,0,1,.44-.18.62.62,0,0,1,.63.63.63.63,0,0,1-.63.62ZM61.2,20h-1V14h1Z" fill="#fff"/><path d="M64.1,20h-1V11.12h1Z" fill="#fff"/><path d="M70.87,17.24H66.64a2.21,2.21,0,0,0,.54,1.55,1.85,1.85,0,0,0,1.41.54,2.94,2.94,0,0,0,1.87-.67v.91a3.53,3.53,0,0,1-2.1.57,2.51,2.51,0,0,1-2-.82,3.31,3.31,0,0,1-.73-2.3,3.28,3.28,0,0,1,.79-2.28,2.55,2.55,0,0,1,2-.88,2.25,2.25,0,0,1,1.82.76,3.18,3.18,0,0,1,.64,2.12Zm-1-.81a2,2,0,0,0-.4-1.3,1.37,1.37,0,0,0-1.1-.46,1.59,1.59,0,0,0-1.16.48,2.24,2.24,0,0,0-.58,1.28Z" fill="#fff"/><polygon points="351.14 10.97 349.62 9.45 346.07 13 342.52 9.45 341 10.97 344.55 14.52 341 18.07 342.52 19.59 346.07 16.04 349.62 19.59 351.14 18.07 347.59 14.52 351.14 10.97" fill="#fff"/><path d="M26.1,60.14v-8.4h2.32q4.44,0,4.44,4.09A4.14,4.14,0,0,1,31.63,59a4.6,4.6,0,0,1-3.3,1.18Zm1-7.51v6.62h1.25a3.55,3.55,0,0,0,2.57-.89,3.29,3.29,0,0,0,.92-2.51q0-3.23-3.43-3.22Z" fill="#4d5359"/><path d="M39.21,57.38H35a2.3,2.3,0,0,0,.54,1.55,1.88,1.88,0,0,0,1.42.54,2.89,2.89,0,0,0,1.86-.67v.9a3.41,3.41,0,0,1-2.09.58,2.53,2.53,0,0,1-2-.82,3.35,3.35,0,0,1-.72-2.3,3.28,3.28,0,0,1,.79-2.28,2.54,2.54,0,0,1,2-.88,2.22,2.22,0,0,1,1.82.76,3.17,3.17,0,0,1,.65,2.11Zm-1-.82a2,2,0,0,0-.41-1.29,1.35,1.35,0,0,0-1.09-.46,1.57,1.57,0,0,0-1.16.48A2.25,2.25,0,0,0,35,56.56Z" fill="#4d5359"/><path d="M41.62,60.14h-1V51.26h1Z" fill="#4d5359"/><path d="M48.39,57.38H44.15a2.3,2.3,0,0,0,.54,1.55,1.88,1.88,0,0,0,1.42.54A2.94,2.94,0,0,0,48,58.8v.9a3.46,3.46,0,0,1-2.1.58,2.51,2.51,0,0,1-2-.82A3.83,3.83,0,0,1,44,54.88a2.54,2.54,0,0,1,2-.88,2.26,2.26,0,0,1,1.83.76,3.17,3.17,0,0,1,.64,2.11Zm-1-.82a2,2,0,0,0-.4-1.29,1.37,1.37,0,0,0-1.1-.46,1.57,1.57,0,0,0-1.16.48,2.24,2.24,0,0,0-.58,1.27Z" fill="#4d5359"/><path d="M52.63,60.08a1.94,1.94,0,0,1-.9.19c-1,0-1.58-.59-1.58-1.76V55h-1v-.82h1V52.67l1-.31v1.78h1.51V55H51.12v3.38a1.38,1.38,0,0,0,.2.86.83.83,0,0,0,.68.26,1.05,1.05,0,0,0,.63-.2Z" fill="#4d5359"/><path d="M58.64,57.38H54.4a2.3,2.3,0,0,0,.54,1.55,1.88,1.88,0,0,0,1.42.54,2.89,2.89,0,0,0,1.86-.67v.9a3.41,3.41,0,0,1-2.09.58,2.53,2.53,0,0,1-2-.82,3.35,3.35,0,0,1-.72-2.3,3.28,3.28,0,0,1,.79-2.28,2.54,2.54,0,0,1,2-.88,2.24,2.24,0,0,1,1.82.76,3.17,3.17,0,0,1,.65,2.11Zm-1-.82a1.9,1.9,0,0,0-.4-1.29,1.36,1.36,0,0,0-1.1-.46,1.56,1.56,0,0,0-1.15.48,2.25,2.25,0,0,0-.59,1.27Z" fill="#4d5359"/><path d="M66.16,60.08a1.87,1.87,0,0,1-.89.19c-1,0-1.58-.59-1.58-1.76V55h-1v-.82h1V52.67l1-.31v1.78h1.51V55H64.65v3.38a1.37,1.37,0,0,0,.21.86.81.81,0,0,0,.68.26,1,1,0,0,0,.62-.2Z" fill="#4d5359"/><path d="M72.43,60.14h-1V56.68c0-1.25-.47-1.87-1.4-1.87a1.51,1.51,0,0,0-1.18.54,2,2,0,0,0-.48,1.39v3.4h-1V51.26h1v3.87h0a2.19,2.19,0,0,1,2-1.13c1.35,0,2,.81,2,2.44Z" fill="#4d5359"/><path d="M79.06,57.38H74.82a2.3,2.3,0,0,0,.54,1.55,1.88,1.88,0,0,0,1.42.54,2.89,2.89,0,0,0,1.86-.67v.9a3.41,3.41,0,0,1-2.09.58,2.53,2.53,0,0,1-2-.82,3.35,3.35,0,0,1-.72-2.3,3.28,3.28,0,0,1,.79-2.28,2.54,2.54,0,0,1,2-.88,2.24,2.24,0,0,1,1.82.76,3.17,3.17,0,0,1,.65,2.11Zm-1-.82a1.9,1.9,0,0,0-.4-1.29,1.36,1.36,0,0,0-1.1-.46,1.56,1.56,0,0,0-1.15.48,2.25,2.25,0,0,0-.59,1.27Z" fill="#4d5359"/><path d="M86.76,52.1a1.21,1.21,0,0,0-.63-.16c-.68,0-1,.42-1,1.27v.93h1.4V55h-1.4v5.18h-1V55h-1v-.82h1v-1a2,2,0,0,1,.55-1.5,1.84,1.84,0,0,1,1.36-.54,1.86,1.86,0,0,1,.69.1Z" fill="#4d5359"/><path d="M88.05,52.61a.6.6,0,0,1-.44-.17.61.61,0,0,1-.18-.45.57.57,0,0,1,.18-.44.6.6,0,0,1,.44-.18.64.64,0,0,1,.45.18.57.57,0,0,1,.18.44.59.59,0,0,1-.18.44A.64.64,0,0,1,88.05,52.61Zm.47,7.53h-1v-6h1Z" fill="#4d5359"/><path d="M91.42,60.14h-1V51.26h1Z" fill="#4d5359"/><path d="M98.19,57.38H94a2.3,2.3,0,0,0,.54,1.55,1.88,1.88,0,0,0,1.42.54,2.89,2.89,0,0,0,1.86-.67v.9a3.41,3.41,0,0,1-2.09.58,2.53,2.53,0,0,1-2-.82,3.35,3.35,0,0,1-.72-2.3,3.28,3.28,0,0,1,.79-2.28,2.54,2.54,0,0,1,2-.88,2.26,2.26,0,0,1,1.83.76,3.17,3.17,0,0,1,.64,2.11Zm-1-.82a2,2,0,0,0-.41-1.29,1.35,1.35,0,0,0-1.09-.46,1.57,1.57,0,0,0-1.16.48A2.18,2.18,0,0,0,94,56.56Z" fill="#4d5359"/><path d="M105.9,52.1a1.27,1.27,0,0,0-.64-.16c-.68,0-1,.42-1,1.27v.93h1.4V55h-1.4v5.18h-1V55h-1v-.82h1v-1a2.06,2.06,0,0,1,.55-1.5,1.84,1.84,0,0,1,1.36-.54,2,2,0,0,1,.7.1Z" fill="#4d5359"/><path d="M109.81,55.11a1.14,1.14,0,0,0-.72-.19,1.23,1.23,0,0,0-1,.58,2.62,2.62,0,0,0-.41,1.58v3.06h-1v-6h1v1.23h0a2.09,2.09,0,0,1,.63-1,1.4,1.4,0,0,1,.94-.36,1.65,1.65,0,0,1,.57.08Z" fill="#4d5359"/><path d="M113.21,60.28a2.79,2.79,0,0,1-2.13-.84,3.12,3.12,0,0,1-.79-2.23,3.19,3.19,0,0,1,.83-2.36,3,3,0,0,1,2.23-.85,2.68,2.68,0,0,1,2.09.82,3.29,3.29,0,0,1,.76,2.29,3.18,3.18,0,0,1-.82,2.3A2.82,2.82,0,0,1,113.21,60.28Zm.07-5.47a1.84,1.84,0,0,0-1.47.63,2.58,2.58,0,0,0-.54,1.73,2.46,2.46,0,0,0,.55,1.68,1.82,1.82,0,0,0,1.46.62,1.75,1.75,0,0,0,1.43-.6,3.23,3.23,0,0,0,0-3.45A1.73,1.73,0,0,0,113.28,54.81Z" fill="#4d5359"/><path d="M126.25,60.14h-1V56.69a2.57,2.57,0,0,0-.31-1.44,1.15,1.15,0,0,0-1-.44,1.28,1.28,0,0,0-1,.56,2.12,2.12,0,0,0-.43,1.35v3.42h-1V56.58c0-1.18-.45-1.77-1.36-1.77a1.26,1.26,0,0,0-1.05.53,2.2,2.2,0,0,0-.41,1.38v3.42h-1v-6h1v1h0A2,2,0,0,1,120.58,54a1.71,1.71,0,0,1,1.07.34,1.75,1.75,0,0,1,.63.9,2.13,2.13,0,0,1,2-1.24c1.32,0,2,.81,2,2.44Z" fill="#4d5359"/><path d="M136.48,60.14h-1v-1h0a2.42,2.42,0,0,1-3.87.35,3.3,3.3,0,0,1-.68-2.19,3.62,3.62,0,0,1,.75-2.39,2.5,2.5,0,0,1,2-.89,1.91,1.91,0,0,1,1.8,1h0V51.26h1Zm-1-2.71v-.89a1.73,1.73,0,0,0-.48-1.23,1.58,1.58,0,0,0-1.22-.5,1.66,1.66,0,0,0-1.38.64,2.85,2.85,0,0,0-.5,1.78,2.56,2.56,0,0,0,.48,1.64,1.59,1.59,0,0,0,1.3.6,1.63,1.63,0,0,0,1.3-.58A2.12,2.12,0,0,0,135.51,57.43Z" fill="#4d5359"/><path d="M138.91,52.61a.6.6,0,0,1-.44-.17.61.61,0,0,1-.18-.45.57.57,0,0,1,.18-.44.6.6,0,0,1,.44-.18.61.61,0,0,1,.45.18.58.58,0,0,1,.19.44.6.6,0,0,1-.19.44A.61.61,0,0,1,138.91,52.61Zm.47,7.53h-1v-6h1Z" fill="#4d5359"/><path d="M141,59.92v-1a2.84,2.84,0,0,0,1.73.58c.85,0,1.27-.28,1.27-.84a.76.76,0,0,0-.11-.41,1.17,1.17,0,0,0-.29-.3,3,3,0,0,0-.44-.23l-.53-.21a6.76,6.76,0,0,1-.7-.32,2.55,2.55,0,0,1-.51-.36,1.52,1.52,0,0,1-.3-.46,1.66,1.66,0,0,1-.1-.61,1.44,1.44,0,0,1,.19-.75,1.87,1.87,0,0,1,.51-.54,2.26,2.26,0,0,1,.74-.33,3,3,0,0,1,.85-.11,3.46,3.46,0,0,1,1.4.27v1a2.71,2.71,0,0,0-1.53-.43,1.75,1.75,0,0,0-.48.06,1.33,1.33,0,0,0-.38.17.78.78,0,0,0-.24.27.74.74,0,0,0-.08.34A.87.87,0,0,0,142,56a.83.83,0,0,0,.25.28,1.91,1.91,0,0,0,.4.23l.54.21a6.81,6.81,0,0,1,.71.32,2.42,2.42,0,0,1,.54.36,1.32,1.32,0,0,1,.34.47,1.46,1.46,0,0,1,.12.62,1.5,1.5,0,0,1-.19.78,1.82,1.82,0,0,1-.53.54,2.3,2.3,0,0,1-.75.32,3.82,3.82,0,0,1-.9.11A3.41,3.41,0,0,1,141,59.92Z" fill="#4d5359"/><path d="M151.4,60.14h-1.35l-2.65-2.88h0v2.88h-1V51.26h1v5.63h0l2.52-2.75h1.26L148.4,57Z" fill="#4d5359"/><path d="M153.74,58.8l-.93,2.89h-.69l.69-2.89Z" fill="#4d5359"/><path d="M161.26,60.28a2.77,2.77,0,0,1-2.12-.84,3.12,3.12,0,0,1-.8-2.23,3.23,3.23,0,0,1,.83-2.36A3,3,0,0,1,161.4,54a2.71,2.71,0,0,1,2.1.82,3.29,3.29,0,0,1,.75,2.29,3.21,3.21,0,0,1-.81,2.3A2.84,2.84,0,0,1,161.26,60.28Zm.07-5.47a1.81,1.81,0,0,0-1.46.63,2.58,2.58,0,0,0-.54,1.73,2.46,2.46,0,0,0,.54,1.68,1.82,1.82,0,0,0,1.46.62,1.75,1.75,0,0,0,1.43-.6,3.23,3.23,0,0,0,0-3.45A1.73,1.73,0,0,0,161.33,54.81Z" fill="#4d5359"/><path d="M168.91,55.11a1.16,1.16,0,0,0-.72-.19,1.21,1.21,0,0,0-1,.58,2.62,2.62,0,0,0-.42,1.58v3.06h-1v-6h1v1.23h0a2,2,0,0,1,.63-1,1.4,1.4,0,0,1,.94-.36,1.65,1.65,0,0,1,.57.08Z" fill="#4d5359"/><path d="M174.2,59.89a3.72,3.72,0,0,1-.59,2.27,2,2,0,0,1-1.7.8,1.74,1.74,0,0,1-.8-.19v-.89a1.63,1.63,0,0,0,.82.26c.88,0,1.31-.7,1.31-2.1v-5.9h1Zm-.47-7.28a.57.57,0,0,1-.43-.17.58.58,0,0,1-.19-.45.55.55,0,0,1,.19-.44.58.58,0,0,1,.43-.18.61.61,0,0,1,.45.18.55.55,0,0,1,.19.44.56.56,0,0,1-.19.44A.61.61,0,0,1,173.73,52.61Z" fill="#4d5359"/><path d="M181,60.14h-1v-1h0a2,2,0,0,1-1.86,1.09c-1.43,0-2.14-.85-2.14-2.56V54.14h1v3.43c0,1.27.48,1.9,1.45,1.9a1.47,1.47,0,0,0,1.16-.52A2,2,0,0,0,180,57.6V54.14h1Z" fill="#4d5359"/><path d="M182.58,59.92v-1a2.82,2.82,0,0,0,1.73.58q1.26,0,1.26-.84a.76.76,0,0,0-.11-.41,1.17,1.17,0,0,0-.29-.3,2.86,2.86,0,0,0-.43-.23l-.54-.21a6.76,6.76,0,0,1-.7-.32,2.22,2.22,0,0,1-.5-.36,1.38,1.38,0,0,1-.31-.46,1.66,1.66,0,0,1-.1-.61,1.44,1.44,0,0,1,.19-.75,1.78,1.78,0,0,1,.52-.54,2.21,2.21,0,0,1,.73-.33,3.07,3.07,0,0,1,.86-.11,3.45,3.45,0,0,1,1.39.27v1a2.7,2.7,0,0,0-1.52-.43,1.83,1.83,0,0,0-.49.06,1.26,1.26,0,0,0-.37.17.62.62,0,0,0-.24.27.64.64,0,0,0-.09.34.75.75,0,0,0,.09.39.74.74,0,0,0,.25.28,1.68,1.68,0,0,0,.4.23l.53.21a6.81,6.81,0,0,1,.71.32,2.42,2.42,0,0,1,.54.36,1.48,1.48,0,0,1,.35.47,1.46,1.46,0,0,1,.12.62,1.51,1.51,0,0,1-.2.78,1.71,1.71,0,0,1-.53.54,2.21,2.21,0,0,1-.75.32,3.82,3.82,0,0,1-.9.11A3.34,3.34,0,0,1,182.58,59.92Z" fill="#4d5359"/><path d="M190.81,60.08a1.87,1.87,0,0,1-.89.19c-1,0-1.58-.59-1.58-1.76V55h-1v-.82h1V52.67l1-.31v1.78h1.51V55H189.3v3.38a1.37,1.37,0,0,0,.21.86.83.83,0,0,0,.68.26,1,1,0,0,0,.62-.2Z" fill="#4d5359"/><path d="M200.21,57.38H196a2.3,2.3,0,0,0,.54,1.55,1.87,1.87,0,0,0,1.42.54,2.91,2.91,0,0,0,1.86-.67v.9a3.43,3.43,0,0,1-2.09.58,2.53,2.53,0,0,1-2-.82,3.35,3.35,0,0,1-.72-2.3,3.28,3.28,0,0,1,.79-2.28,2.54,2.54,0,0,1,2-.88,2.24,2.24,0,0,1,1.82.76,3.17,3.17,0,0,1,.65,2.11Zm-1-.82a1.9,1.9,0,0,0-.4-1.29,1.36,1.36,0,0,0-1.1-.46,1.56,1.56,0,0,0-1.15.48,2.25,2.25,0,0,0-.59,1.27Z" fill="#4d5359"/><path d="M206,54.14l-2,3,2,3h-1.12l-1.18-2-.26-.45h0l-.27.45-1.2,2h-1.11l2-2.94-2-3.06h1.12l1.16,2,.25.47h0l1.5-2.52Z" fill="#4d5359"/><path d="M211.16,59.86a3.08,3.08,0,0,1-1.64.42,2.72,2.72,0,0,1-2.07-.84,3,3,0,0,1-.79-2.16,3.35,3.35,0,0,1,.85-2.38,3,3,0,0,1,2.27-.9,3.27,3.27,0,0,1,1.4.29v1a2.48,2.48,0,0,0-1.43-.46,1.92,1.92,0,0,0-1.51.66,2.49,2.49,0,0,0-.59,1.73,2.38,2.38,0,0,0,.55,1.66,1.91,1.91,0,0,0,1.49.61,2.38,2.38,0,0,0,1.47-.52Z" fill="#4d5359"/><path d="M213.58,60.14h-1V51.26h1Z" fill="#4d5359"/><path d="M220.38,60.14h-1v-1h0a2,2,0,0,1-1.85,1.09c-1.43,0-2.14-.85-2.14-2.56V54.14h.95v3.43c0,1.27.48,1.9,1.45,1.9A1.46,1.46,0,0,0,219,59a2,2,0,0,0,.45-1.35V54.14h1Z" fill="#4d5359"/><path d="M227.44,60.14h-1v-1h0a2.21,2.21,0,0,1-2.06,1.16,2.24,2.24,0,0,1-1.81-.81,3.3,3.3,0,0,1-.68-2.19,3.62,3.62,0,0,1,.75-2.39,2.5,2.5,0,0,1,2-.89,1.91,1.91,0,0,1,1.8,1h0V51.26h1Zm-1-2.71v-.89a1.74,1.74,0,0,0-.49-1.23,1.58,1.58,0,0,0-1.21-.5,1.67,1.67,0,0,0-1.39.64,2.85,2.85,0,0,0-.5,1.78,2.56,2.56,0,0,0,.48,1.64,1.59,1.59,0,0,0,1.3.6,1.61,1.61,0,0,0,1.3-.58A2.13,2.13,0,0,0,226.48,57.43Z" fill="#4d5359"/><path d="M234.2,57.38H230a2.21,2.21,0,0,0,.54,1.55,1.85,1.85,0,0,0,1.41.54,2.94,2.94,0,0,0,1.87-.67v.9a3.45,3.45,0,0,1-2.09.58,2.52,2.52,0,0,1-2-.82,3.81,3.81,0,0,1,.07-4.58,2.51,2.51,0,0,1,2-.88,2.25,2.25,0,0,1,1.82.76,3.17,3.17,0,0,1,.64,2.11Zm-1-.82a2,2,0,0,0-.4-1.29,1.37,1.37,0,0,0-1.1-.46,1.59,1.59,0,0,0-1.16.48,2.24,2.24,0,0,0-.58,1.27Z" fill="#4d5359"/><path d="M239.44,52.61a.58.58,0,0,1-.44-.17.62.62,0,0,1-.19-.45.58.58,0,0,1,.19-.44.59.59,0,0,1,.44-.18.6.6,0,0,1,.44.18.55.55,0,0,1,.19.44.56.56,0,0,1-.19.44A.6.6,0,0,1,239.44,52.61Zm.46,7.53h-1v-6h1Z" fill="#4d5359"/><path d="M244.63,60.08a1.87,1.87,0,0,1-.89.19c-1.05,0-1.58-.59-1.58-1.76V55h-1v-.82h1V52.67l1-.31v1.78h1.51V55h-1.51v3.38a1.37,1.37,0,0,0,.21.86.81.81,0,0,0,.68.26,1,1,0,0,0,.62-.2Z" fill="#4d5359"/><path d="M252.17,52.1a1.24,1.24,0,0,0-.64-.16c-.67,0-1,.42-1,1.27v.93h1.41V55h-1.41v5.18h-1V55h-1v-.82h1v-1a2.06,2.06,0,0,1,.54-1.5,1.87,1.87,0,0,1,1.36-.54,1.92,1.92,0,0,1,.7.1Z" fill="#4d5359"/><path d="M256.09,55.11a1.18,1.18,0,0,0-.73-.19,1.23,1.23,0,0,0-1,.58,2.7,2.7,0,0,0-.41,1.58v3.06h-1v-6h1v1.23h0a2.09,2.09,0,0,1,.63-1,1.42,1.42,0,0,1,.94-.36,1.71,1.71,0,0,1,.58.08Z" fill="#4d5359"/><path d="M259.48,60.28a2.77,2.77,0,0,1-2.12-.84,3.12,3.12,0,0,1-.8-2.23,3.23,3.23,0,0,1,.83-2.36,3,3,0,0,1,2.23-.85,2.71,2.71,0,0,1,2.1.82,3.29,3.29,0,0,1,.75,2.29,3.21,3.21,0,0,1-.81,2.3A2.84,2.84,0,0,1,259.48,60.28Zm.07-5.47a1.81,1.81,0,0,0-1.46.63,2.58,2.58,0,0,0-.54,1.73,2.46,2.46,0,0,0,.54,1.68,1.83,1.83,0,0,0,1.46.62,1.75,1.75,0,0,0,1.43-.6,3.23,3.23,0,0,0,0-3.45A1.73,1.73,0,0,0,259.55,54.81Z" fill="#4d5359"/><path d="M272.52,60.14h-1V56.69a2.66,2.66,0,0,0-.3-1.44,1.17,1.17,0,0,0-1-.44,1.25,1.25,0,0,0-1,.56,2.12,2.12,0,0,0-.44,1.35v3.42h-1V56.58c0-1.18-.45-1.77-1.36-1.77a1.24,1.24,0,0,0-1,.53,2.14,2.14,0,0,0-.41,1.38v3.42h-1v-6h1v1h0A2,2,0,0,1,266.85,54a1.73,1.73,0,0,1,1.7,1.24,2.14,2.14,0,0,1,2-1.24c1.32,0,2,.81,2,2.44Z" fill="#4d5359"/><path d="M280.41,60.08a1.91,1.91,0,0,1-.9.19c-1.05,0-1.57-.59-1.57-1.76V55h-1v-.82h1V52.67l1-.31v1.78h1.51V55H278.9v3.38a1.45,1.45,0,0,0,.2.86.84.84,0,0,0,.68.26,1,1,0,0,0,.63-.2Z" fill="#4d5359"/><path d="M286.67,60.14h-1V56.68c0-1.25-.46-1.87-1.39-1.87a1.51,1.51,0,0,0-1.18.54,2,2,0,0,0-.49,1.39v3.4h-1V51.26h1v3.87h0a2.19,2.19,0,0,1,2-1.13c1.35,0,2,.81,2,2.44Z" fill="#4d5359"/><path d="M293.31,57.38h-4.24a2.3,2.3,0,0,0,.54,1.55,1.87,1.87,0,0,0,1.42.54,2.93,2.93,0,0,0,1.86-.67v.9a3.43,3.43,0,0,1-2.09.58,2.53,2.53,0,0,1-2-.82,3.36,3.36,0,0,1-.73-2.3,3.29,3.29,0,0,1,.8-2.28,2.54,2.54,0,0,1,2-.88,2.24,2.24,0,0,1,1.82.76,3.17,3.17,0,0,1,.65,2.11Zm-1-.82a1.9,1.9,0,0,0-.4-1.29,1.36,1.36,0,0,0-1.1-.46,1.55,1.55,0,0,0-1.15.48,2.25,2.25,0,0,0-.59,1.27Z" fill="#4d5359"/><path d="M299,59.27h0V62.9h-1V54.14h1v1h0A2.29,2.29,0,0,1,301.11,54a2.23,2.23,0,0,1,1.81.8,3.37,3.37,0,0,1,.65,2.16,3.69,3.69,0,0,1-.74,2.41,2.4,2.4,0,0,1-2,.91A2,2,0,0,1,299,59.27Zm0-2.42v.84a1.77,1.77,0,0,0,.48,1.26,1.59,1.59,0,0,0,1.23.52,1.6,1.6,0,0,0,1.37-.67,3,3,0,0,0,.49-1.86,2.43,2.43,0,0,0-.46-1.57,1.56,1.56,0,0,0-1.25-.56,1.7,1.7,0,0,0-1.35.58A2.15,2.15,0,0,0,299,56.85Z" fill="#4d5359"/><path d="M308.23,55.11a1.18,1.18,0,0,0-.73-.19,1.2,1.2,0,0,0-1,.58,2.62,2.62,0,0,0-.42,1.58v3.06h-1v-6h1v1.23h0a2,2,0,0,1,.62-1,1.43,1.43,0,0,1,1-.36,1.65,1.65,0,0,1,.57.08Z" fill="#4d5359"/><path d="M311.62,60.28a2.79,2.79,0,0,1-2.12-.84,3.12,3.12,0,0,1-.79-2.23,3.23,3.23,0,0,1,.82-2.36,3,3,0,0,1,2.23-.85,2.69,2.69,0,0,1,2.1.82,3.29,3.29,0,0,1,.75,2.29,3.21,3.21,0,0,1-.81,2.3A2.84,2.84,0,0,1,311.62,60.28Zm.07-5.47a1.83,1.83,0,0,0-1.46.63,2.58,2.58,0,0,0-.54,1.73,2.46,2.46,0,0,0,.54,1.68,1.83,1.83,0,0,0,1.46.62,1.79,1.79,0,0,0,1.44-.6,3.23,3.23,0,0,0,0-3.45A1.76,1.76,0,0,0,311.69,54.81Z" fill="#4d5359"/><path d="M317.11,59.89a3.72,3.72,0,0,1-.6,2.27,2,2,0,0,1-1.7.8,1.77,1.77,0,0,1-.8-.19v-.89a1.66,1.66,0,0,0,.82.26q1.32,0,1.32-2.1v-5.9h1Zm-.47-7.28a.6.6,0,0,1-.44-.17A.61.61,0,0,1,316,52a.57.57,0,0,1,.18-.44.6.6,0,0,1,.44-.18.64.64,0,0,1,.45.18.57.57,0,0,1,.18.44.59.59,0,0,1-.18.44A.64.64,0,0,1,316.64,52.61Z" fill="#4d5359"/><path d="M323.88,57.38h-4.24a2.21,2.21,0,0,0,.54,1.55,1.85,1.85,0,0,0,1.42.54,2.93,2.93,0,0,0,1.86-.67v.9a3.45,3.45,0,0,1-2.09.58,2.52,2.52,0,0,1-2-.82,3.36,3.36,0,0,1-.73-2.3,3.29,3.29,0,0,1,.8-2.28,2.53,2.53,0,0,1,2-.88,2.25,2.25,0,0,1,1.82.76,3.17,3.17,0,0,1,.65,2.11Zm-1-.82a2,2,0,0,0-.4-1.29,1.36,1.36,0,0,0-1.1-.46,1.55,1.55,0,0,0-1.15.48,2.25,2.25,0,0,0-.59,1.27Z" fill="#4d5359"/><path d="M329.42,59.86a3.1,3.1,0,0,1-1.64.42,2.69,2.69,0,0,1-2.07-.84,3,3,0,0,1-.79-2.16,3.3,3.3,0,0,1,.85-2.38A3,3,0,0,1,328,54a3.23,3.23,0,0,1,1.39.29v1a2.46,2.46,0,0,0-1.43-.46,1.93,1.93,0,0,0-1.51.66,2.49,2.49,0,0,0-.59,1.73,2.38,2.38,0,0,0,.56,1.66,1.89,1.89,0,0,0,1.48.61,2.39,2.39,0,0,0,1.48-.52Z" fill="#4d5359"/><path d="M333.65,60.08a1.87,1.87,0,0,1-.89.19c-1.05,0-1.58-.59-1.58-1.76V55h-1v-.82h1V52.67l1-.31v1.78h1.51V55h-1.51v3.38a1.37,1.37,0,0,0,.21.86.81.81,0,0,0,.68.26,1,1,0,0,0,.62-.2Z" fill="#4d5359"/><path d="M335.62,57.81a2.58,2.58,0,0,1-.1-.4,3.88,3.88,0,0,1,0-.48,1.51,1.51,0,0,1,.15-.68,3,3,0,0,1,.37-.56,4.7,4.7,0,0,1,.49-.51c.18-.16.34-.33.49-.49a2.66,2.66,0,0,0,.37-.53,1.21,1.21,0,0,0,.15-.6,1.1,1.1,0,0,0-.11-.49,1,1,0,0,0-.3-.37,1.25,1.25,0,0,0-.43-.22,1.77,1.77,0,0,0-.52-.07,2.29,2.29,0,0,0-1.72.78v-1a3.42,3.42,0,0,1,1.86-.56,2.84,2.84,0,0,1,.84.11,2.24,2.24,0,0,1,.69.35,1.74,1.74,0,0,1,.46.58,1.71,1.71,0,0,1,.17.8,1.86,1.86,0,0,1-.15.77,2.85,2.85,0,0,1-.38.63,6.38,6.38,0,0,1-.51.53l-.5.49a2.87,2.87,0,0,0-.38.5,1.17,1.17,0,0,0-.15.58,1.83,1.83,0,0,0,.06.49l.13.38Zm.53,2.43a.65.65,0,0,1-.46-.18.63.63,0,0,1-.2-.46.61.61,0,0,1,.2-.46.62.62,0,0,1,.46-.19.67.67,0,0,1,.65.65.63.63,0,0,1-.2.46A.64.64,0,0,1,336.15,60.24Z" fill="#4d5359"/><rect x="189" y="92.99" width="68" height="22.01" fill="url(#linear-gradient)"/><path d="M188,92v24h70V92Zm69,23H189V93h68Z" fill="#a8abae"/><path d="M208.52,108h-4.45V99.6h4.26v.89h-3.28v2.79h3v.89h-3v2.94h3.47Z" fill="#4d5359"/><path d="M214.39,102l-2,3,2,3h-1.12l-1.18-1.94-.26-.46h0l-.27.46L210.3,108h-1.11l2-2.94L209.28,102h1.12l1.16,2,.25.47h0l1.5-2.52Z" fill="#4d5359"/><path d="M219.51,107.73a3.17,3.17,0,0,1-1.64.41,2.75,2.75,0,0,1-2.07-.83,3.06,3.06,0,0,1-.79-2.17,3.35,3.35,0,0,1,.85-2.38,3,3,0,0,1,2.27-.9,3.27,3.27,0,0,1,1.4.29v1a2.49,2.49,0,0,0-1.43-.47,1.92,1.92,0,0,0-1.51.66,2.46,2.46,0,0,0-.59,1.73,2.36,2.36,0,0,0,.55,1.66,1.91,1.91,0,0,0,1.49.61,2.38,2.38,0,0,0,1.47-.52Z" fill="#4d5359"/><path d="M221.93,108h-1V99.12h1Z" fill="#4d5359"/><path d="M228.72,108h-1v-1h0a2,2,0,0,1-1.85,1.09c-1.43,0-2.15-.85-2.15-2.55V102h1v3.43c0,1.27.48,1.9,1.45,1.9a1.46,1.46,0,0,0,1.16-.52,2,2,0,0,0,.45-1.35V102h1Z" fill="#4d5359"/><path d="M235.79,108h-1v-1h0a2.21,2.21,0,0,1-2.06,1.16,2.25,2.25,0,0,1-1.81-.8,3.33,3.33,0,0,1-.68-2.2,3.57,3.57,0,0,1,.75-2.38,2.48,2.48,0,0,1,2-.9,1.91,1.91,0,0,1,1.8,1h0V99.12h1Zm-1-2.71v-.89a1.73,1.73,0,0,0-.48-1.23,1.62,1.62,0,0,0-1.22-.5,1.66,1.66,0,0,0-1.38.64,2.87,2.87,0,0,0-.5,1.78,2.54,2.54,0,0,0,.48,1.64,1.59,1.59,0,0,0,1.3.6,1.63,1.63,0,0,0,1.3-.58A2.11,2.11,0,0,0,234.82,105.29Z" fill="#4d5359"/><path d="M242.55,105.24h-4.23a2.21,2.21,0,0,0,.54,1.55,1.85,1.85,0,0,0,1.41.54,3,3,0,0,0,1.87-.66v.9a3.53,3.53,0,0,1-2.1.57,2.51,2.51,0,0,1-2-.82,3.83,3.83,0,0,1,.06-4.58,2.55,2.55,0,0,1,2-.88,2.25,2.25,0,0,1,1.82.76,3.18,3.18,0,0,1,.64,2.12Zm-1-.81a2,2,0,0,0-.4-1.3,1.37,1.37,0,0,0-1.1-.46,1.56,1.56,0,0,0-1.16.49,2.18,2.18,0,0,0-.58,1.27Z" fill="#4d5359"/><path d="M268,92v24h70V92Zm69,23H269V93h68Z" fill="#a8abae"/><rect x="269" y="93" width="68" height="22" fill="url(#linear-gradient-2)"/><path d="M336,94v20H270V94h66m2-2H268v24h70V92Z" fill="#a8abae"/><path d="M292.3,107.65a4.92,4.92,0,0,1-2.32.49,3.72,3.72,0,0,1-2.87-1.15,4.26,4.26,0,0,1-1.08-3,4.45,4.45,0,0,1,1.21-3.26,4.11,4.11,0,0,1,3.08-1.24,5,5,0,0,1,2,.34v1a4.09,4.09,0,0,0-2-.5,3,3,0,0,0-2.34,1,3.62,3.62,0,0,0-.9,2.58,3.49,3.49,0,0,0,.84,2.45,2.89,2.89,0,0,0,2.21.91,4.11,4.11,0,0,0,2.19-.57Z" fill="#4d5359"/><path d="M298.17,108h-1v-.94h0a2.2,2.2,0,0,1-3.25.61,1.65,1.65,0,0,1-.51-1.26c0-1.12.66-1.78,2-2l1.8-.25q0-1.53-1.23-1.53a3,3,0,0,0-2,.74v-1a3.76,3.76,0,0,1,2-.56c1.41,0,2.11.75,2.11,2.24Zm-1-3-1.44.2a2.25,2.25,0,0,0-1,.33.93.93,0,0,0-.34.84.89.89,0,0,0,.31.71,1.2,1.2,0,0,0,.84.28,1.53,1.53,0,0,0,1.18-.5,1.77,1.77,0,0,0,.46-1.27Z" fill="#4d5359"/><path d="M305,108h-1v-3.42c0-1.27-.46-1.91-1.39-1.91a1.5,1.5,0,0,0-1.19.54,2,2,0,0,0-.47,1.37V108h-1v-6h1v1h0a2.16,2.16,0,0,1,2-1.14,1.81,1.81,0,0,1,1.5.64,2.79,2.79,0,0,1,.52,1.83Z" fill="#4d5359"/><path d="M310.87,107.73a3.23,3.23,0,0,1-1.65.41,2.75,2.75,0,0,1-2.07-.83,3.06,3.06,0,0,1-.78-2.17,3.34,3.34,0,0,1,.84-2.38,3,3,0,0,1,2.27-.9,3.27,3.27,0,0,1,1.4.29v1a2.47,2.47,0,0,0-1.43-.47,1.92,1.92,0,0,0-1.51.66,2.5,2.5,0,0,0-.59,1.73,2.36,2.36,0,0,0,.55,1.66,1.91,1.91,0,0,0,1.49.61,2.43,2.43,0,0,0,1.48-.52Z" fill="#4d5359"/><path d="M317.14,105.24H312.9a2.3,2.3,0,0,0,.54,1.55,1.88,1.88,0,0,0,1.42.54,2.94,2.94,0,0,0,1.86-.66v.9a3.47,3.47,0,0,1-2.09.57,2.54,2.54,0,0,1-2-.82,3.35,3.35,0,0,1-.72-2.3,3.28,3.28,0,0,1,.79-2.28,2.54,2.54,0,0,1,2-.88,2.26,2.26,0,0,1,1.83.76,3.18,3.18,0,0,1,.64,2.12Zm-1-.81a2,2,0,0,0-.41-1.3,1.35,1.35,0,0,0-1.09-.46,1.54,1.54,0,0,0-1.16.49,2.18,2.18,0,0,0-.58,1.27Z" fill="#4d5359"/><path d="M319.55,108h-1V99.12h1Z" fill="#4d5359"/><rect x="70" y="92.99" width="107" height="22.01" fill="url(#linear-gradient-3)"/><path d="M69,92v24H178V92Zm108,23H70V93H177Z" fill="#a8abae"/><path d="M81.67,108V99.6H84q4.44,0,4.44,4.09a4.14,4.14,0,0,1-1.23,3.13A4.55,4.55,0,0,1,83.9,108Zm1-7.51v6.62h1.25a3.55,3.55,0,0,0,2.57-.89,3.28,3.28,0,0,0,.92-2.5c0-2.16-1.14-3.23-3.43-3.23Z" fill="#4d5359"/><path d="M94.78,105.24H90.54a2.3,2.3,0,0,0,.54,1.55,1.88,1.88,0,0,0,1.42.54,2.89,2.89,0,0,0,1.86-.67v.91a3.47,3.47,0,0,1-2.09.57,2.53,2.53,0,0,1-2-.82,3.35,3.35,0,0,1-.72-2.3,3.28,3.28,0,0,1,.79-2.28,2.54,2.54,0,0,1,2-.88,2.22,2.22,0,0,1,1.82.76,3.18,3.18,0,0,1,.65,2.12Zm-1-.81a1.91,1.91,0,0,0-.4-1.3,1.36,1.36,0,0,0-1.1-.46,1.56,1.56,0,0,0-1.15.48,2.25,2.25,0,0,0-.59,1.28Z" fill="#4d5359"/><path d="M97.19,108h-1V99.12h1Z" fill="#4d5359"/><path d="M104,105.24H99.72a2.3,2.3,0,0,0,.54,1.55,1.88,1.88,0,0,0,1.42.54,2.89,2.89,0,0,0,1.86-.67v.91a3.47,3.47,0,0,1-2.09.57,2.51,2.51,0,0,1-2-.82,3.83,3.83,0,0,1,.06-4.58,2.54,2.54,0,0,1,2-.88,2.26,2.26,0,0,1,1.83.76,3.18,3.18,0,0,1,.64,2.12Zm-1-.81a2,2,0,0,0-.4-1.3,1.37,1.37,0,0,0-1.1-.46,1.57,1.57,0,0,0-1.16.48,2.24,2.24,0,0,0-.58,1.28Z" fill="#4d5359"/><path d="M108.2,107.94a1.82,1.82,0,0,1-.9.19c-1,0-1.58-.59-1.58-1.76v-3.55h-1V102h1v-1.46l1-.32V102h1.51v.82h-1.51v3.38a1.38,1.38,0,0,0,.2.86.83.83,0,0,0,.68.26,1.05,1.05,0,0,0,.63-.2Z" fill="#4d5359"/><path d="M114.21,105.24H110a2.3,2.3,0,0,0,.54,1.55,1.88,1.88,0,0,0,1.42.54,2.89,2.89,0,0,0,1.86-.67v.91a3.47,3.47,0,0,1-2.09.57,2.53,2.53,0,0,1-2-.82A3.35,3.35,0,0,1,109,105a3.28,3.28,0,0,1,.79-2.28,2.54,2.54,0,0,1,2-.88,2.24,2.24,0,0,1,1.82.76,3.18,3.18,0,0,1,.65,2.12Zm-1-.81a1.91,1.91,0,0,0-.4-1.3,1.36,1.36,0,0,0-1.1-.46,1.56,1.56,0,0,0-1.15.48,2.25,2.25,0,0,0-.59,1.28Z" fill="#4d5359"/><path d="M121.91,100a1.31,1.31,0,0,0-.63-.16c-.68,0-1,.43-1,1.27V102h1.4v.82h-1.4V108h-1v-5.18h-1V102h1v-1a2,2,0,0,1,.55-1.49,1.81,1.81,0,0,1,1.36-.55,1.86,1.86,0,0,1,.69.1Z" fill="#4d5359"/><path d="M125.83,103a1.14,1.14,0,0,0-.72-.19,1.21,1.21,0,0,0-1,.58,2.64,2.64,0,0,0-.41,1.58V108h-1v-6h1v1.24h0a2.12,2.12,0,0,1,.63-1,1.54,1.54,0,0,1,1.51-.27Z" fill="#4d5359"/><path d="M129.23,108.14a2.79,2.79,0,0,1-2.13-.84,3.1,3.1,0,0,1-.79-2.23,3.24,3.24,0,0,1,.82-2.36,3,3,0,0,1,2.24-.85,2.66,2.66,0,0,1,2.09.83,3.77,3.77,0,0,1-.06,4.59A2.85,2.85,0,0,1,129.23,108.14Zm.07-5.47a1.84,1.84,0,0,0-1.47.63,2.59,2.59,0,0,0-.54,1.74,2.41,2.41,0,0,0,.55,1.68,1.85,1.85,0,0,0,1.46.61,1.75,1.75,0,0,0,1.43-.6,3.23,3.23,0,0,0,0-3.45A1.73,1.73,0,0,0,129.3,102.67Z" fill="#4d5359"/><path d="M142.27,108h-1v-3.45a2.57,2.57,0,0,0-.31-1.44,1.17,1.17,0,0,0-1-.44,1.3,1.3,0,0,0-1.05.56,2.14,2.14,0,0,0-.43,1.35V108h-1v-3.56c0-1.18-.46-1.77-1.37-1.77a1.24,1.24,0,0,0-1,.53,2.2,2.2,0,0,0-.41,1.38V108h-1v-6h1v1h0a2,2,0,0,1,1.87-1.09,1.71,1.71,0,0,1,1.07.34,1.81,1.81,0,0,1,.63.9,2.13,2.13,0,0,1,2-1.24c1.32,0,2,.81,2,2.44Z" fill="#4d5359"/><path d="M152.49,108h-1v-1h0a2.42,2.42,0,0,1-3.87.35,3.28,3.28,0,0,1-.68-2.19,3.57,3.57,0,0,1,.75-2.38,2.48,2.48,0,0,1,2-.9,1.92,1.92,0,0,1,1.8,1h0V99.12h1Zm-1-2.71v-.89a1.73,1.73,0,0,0-.48-1.23,1.62,1.62,0,0,0-1.22-.5,1.66,1.66,0,0,0-1.38.64,2.87,2.87,0,0,0-.5,1.78,2.54,2.54,0,0,0,.48,1.64,1.59,1.59,0,0,0,1.3.6,1.63,1.63,0,0,0,1.3-.58A2.11,2.11,0,0,0,151.53,105.29Z" fill="#4d5359"/><path d="M154.93,100.48a.6.6,0,0,1-.44-.18.59.59,0,0,1-.18-.44.61.61,0,0,1,.18-.45.6.6,0,0,1,.44-.18.62.62,0,0,1,.63.63.63.63,0,0,1-.63.62Zm.47,7.52h-1v-6h1Z" fill="#4d5359"/><path d="M157,107.78v-1a2.84,2.84,0,0,0,1.73.58c.84,0,1.27-.28,1.27-.84a.76.76,0,0,0-.11-.41,1,1,0,0,0-.29-.29,2.28,2.28,0,0,0-.44-.24l-.53-.21a6.76,6.76,0,0,1-.7-.32,2.29,2.29,0,0,1-.51-.36,1.52,1.52,0,0,1-.3-.46,1.62,1.62,0,0,1-.11-.61,1.39,1.39,0,0,1,.2-.74,1.78,1.78,0,0,1,.51-.55,2.49,2.49,0,0,1,.74-.33,3.41,3.41,0,0,1,.85-.11,3.46,3.46,0,0,1,1.4.27v1a2.74,2.74,0,0,0-1.53-.43,1.75,1.75,0,0,0-.48.06,1.33,1.33,0,0,0-.38.17,1,1,0,0,0-.24.27.77.77,0,0,0-.08.34.87.87,0,0,0,.08.39,1,1,0,0,0,.25.29,2.11,2.11,0,0,0,.4.22l.53.21c.27.11.51.21.72.32a2.82,2.82,0,0,1,.54.36,1.41,1.41,0,0,1,.34.47,1.46,1.46,0,0,1,.12.62,1.42,1.42,0,0,1-.2.78,1.58,1.58,0,0,1-.52.54,2.5,2.5,0,0,1-.76.33,3.68,3.68,0,0,1-.89.1A3.41,3.41,0,0,1,157,107.78Z" fill="#4d5359"/><path d="M167.42,108h-1.35l-2.65-2.88h0V108h-1V99.12h1v5.63h0l2.52-2.75h1.26l-2.78,2.89Z" fill="#4d5359"/></g></svg>