<svg xmlns="http://www.w3.org/2000/svg" xmlns:xlink="http://www.w3.org/1999/xlink" width="537" height="128" viewBox="0 0 537 128"><defs><linearGradient id="linear-gradient" x1="283.67" y1="93.05" x2="283.67" y2="114.97" gradientUnits="userSpaceOnUse"><stop offset="0" stop-color="#ebe9ec"/><stop offset="0.28" stop-color="#e5e6e9"/><stop offset="1" stop-color="#dadfe2"/></linearGradient><linearGradient id="linear-gradient-2" x1="363.67" y1="93.18" x2="363.67" y2="114.76" xlink:href="#linear-gradient"/><linearGradient id="linear-gradient-3" x1="184.17" y1="93.05" x2="184.17" y2="114.97" xlink:href="#linear-gradient"/></defs><title>confirmations-layout</title><g id="SPEC_text"><polygon points="64.67 23.92 64.67 80.96 420.66 80.96 420.66 24 64.67 23.92" fill="#eef0ef"/><rect x="64.67" y="82" width="354" height="44" fill="#e1e3e4"/><path d="M60.67,0V128h362V0Zm358,124h-354V29h354Z" fill="#4d5359"/><rect x="64.67" y="81" width="354" height="1" fill="#a8abae"/><path d="M77.77,20V11.6h2.32q4.44,0,4.44,4.09a4.14,4.14,0,0,1-1.23,3.13A4.55,4.55,0,0,1,80,20Zm1-7.51v6.62H80a3.55,3.55,0,0,0,2.57-.89,3.31,3.31,0,0,0,.92-2.5c0-2.16-1.14-3.23-3.43-3.23Z" fill="#fff"/><path d="M90.88,17.24H86.64a2.3,2.3,0,0,0,.54,1.55,1.87,1.87,0,0,0,1.42.54,2.91,2.91,0,0,0,1.86-.67v.91a3.5,3.5,0,0,1-2.09.57,2.53,2.53,0,0,1-2-.82,3.35,3.35,0,0,1-.72-2.3,3.28,3.28,0,0,1,.79-2.28,2.54,2.54,0,0,1,2-.88,2.24,2.24,0,0,1,1.82.76,3.18,3.18,0,0,1,.65,2.12Zm-1-.81a1.91,1.91,0,0,0-.4-1.3,1.36,1.36,0,0,0-1.1-.46,1.56,1.56,0,0,0-1.15.48,2.25,2.25,0,0,0-.59,1.28Z" fill="#fff"/><path d="M93.29,20h-1V11.12h1Z" fill="#fff"/><path d="M100.06,17.24H95.82a2.3,2.3,0,0,0,.54,1.55,1.88,1.88,0,0,0,1.42.54,2.89,2.89,0,0,0,1.86-.67v.91a3.47,3.47,0,0,1-2.09.57,2.53,2.53,0,0,1-2-.82,3.35,3.35,0,0,1-.72-2.3,3.28,3.28,0,0,1,.79-2.28,2.54,2.54,0,0,1,2-.88,2.26,2.26,0,0,1,1.83.76,3.23,3.23,0,0,1,.64,2.12Zm-1-.81a2,2,0,0,0-.41-1.3,1.35,1.35,0,0,0-1.09-.46,1.57,1.57,0,0,0-1.16.48,2.25,2.25,0,0,0-.59,1.28Z" fill="#fff"/><path d="M104.3,19.94a1.82,1.82,0,0,1-.9.19c-1.05,0-1.58-.59-1.58-1.76V14.82h-1V14h1V12.54l1-.32V14h1.52v.82h-1.52V18.2a1.37,1.37,0,0,0,.21.86.83.83,0,0,0,.68.26,1.05,1.05,0,0,0,.63-.2Z" fill="#fff"/><path d="M110.31,17.24h-4.24a2.3,2.3,0,0,0,.54,1.55,1.87,1.87,0,0,0,1.42.54,2.91,2.91,0,0,0,1.86-.67v.91a3.5,3.5,0,0,1-2.09.57,2.53,2.53,0,0,1-2-.82,3.35,3.35,0,0,1-.72-2.3,3.28,3.28,0,0,1,.79-2.28,2.54,2.54,0,0,1,2-.88,2.24,2.24,0,0,1,1.82.76,3.18,3.18,0,0,1,.65,2.12Zm-1-.81a1.91,1.91,0,0,0-.4-1.3,1.36,1.36,0,0,0-1.1-.46,1.56,1.56,0,0,0-1.15.48,2.25,2.25,0,0,0-.59,1.28Z" fill="#fff"/><path d="M119.44,12.49h-3.28v2.9h3v.89h-3V20h-1V11.6h4.26Z" fill="#fff"/><path d="M121.4,12.48a.6.6,0,0,1-.44-.18.59.59,0,0,1-.18-.44.61.61,0,0,1,.18-.45.6.6,0,0,1,.44-.18.63.63,0,0,1,.45.18.61.61,0,0,1,.18.45.58.58,0,0,1-.18.43A.6.6,0,0,1,121.4,12.48Zm.47,7.52h-1V14h1Z" fill="#fff"/><path d="M124.77,20h-1V11.12h1Z" fill="#fff"/><path d="M131.54,17.24h-4.23a2.25,2.25,0,0,0,.53,1.55,1.88,1.88,0,0,0,1.42.54,2.94,2.94,0,0,0,1.87-.67v.91a3.53,3.53,0,0,1-2.1.57,2.51,2.51,0,0,1-2-.82,3.31,3.31,0,0,1-.73-2.3,3.28,3.28,0,0,1,.79-2.28,2.55,2.55,0,0,1,2-.88,2.25,2.25,0,0,1,1.82.76,3.18,3.18,0,0,1,.64,2.12Zm-1-.81a2,2,0,0,0-.4-1.3,1.37,1.37,0,0,0-1.1-.46,1.57,1.57,0,0,0-1.16.48,2.24,2.24,0,0,0-.58,1.28Z" fill="#fff"/><polygon points="411.81 10.97 410.29 9.45 406.74 13 403.19 9.45 401.67 10.97 405.22 14.52 401.67 18.07 403.19 19.59 406.74 16.04 410.29 19.59 411.81 18.07 408.26 14.52 411.81 10.97" fill="#fff"/><path d="M86.77,60.14v-8.4h2.32q4.44,0,4.44,4.09A4.14,4.14,0,0,1,92.3,59,4.6,4.6,0,0,1,89,60.14Zm1-7.51v6.62H89a3.55,3.55,0,0,0,2.57-.89,3.29,3.29,0,0,0,.92-2.51q0-3.23-3.43-3.22Z" fill="#4d5359"/><path d="M99.88,57.38H95.64a2.3,2.3,0,0,0,.54,1.55,1.88,1.88,0,0,0,1.42.54,2.89,2.89,0,0,0,1.86-.67v.9a3.41,3.41,0,0,1-2.09.58,2.53,2.53,0,0,1-2-.82,3.35,3.35,0,0,1-.72-2.3,3.28,3.28,0,0,1,.79-2.28,2.54,2.54,0,0,1,2-.88,2.24,2.24,0,0,1,1.82.76,3.17,3.17,0,0,1,.65,2.11Zm-1-.82a1.9,1.9,0,0,0-.4-1.29,1.36,1.36,0,0,0-1.1-.46,1.56,1.56,0,0,0-1.15.48,2.25,2.25,0,0,0-.59,1.27Z" fill="#4d5359"/><path d="M102.29,60.14h-1V51.26h1Z" fill="#4d5359"/><path d="M109.06,57.38h-4.24a2.3,2.3,0,0,0,.54,1.55,1.88,1.88,0,0,0,1.42.54,2.89,2.89,0,0,0,1.86-.67v.9a3.41,3.41,0,0,1-2.09.58,2.54,2.54,0,0,1-2-.82,3.35,3.35,0,0,1-.72-2.3,3.28,3.28,0,0,1,.79-2.28,2.54,2.54,0,0,1,2-.88,2.26,2.26,0,0,1,1.83.76,3.17,3.17,0,0,1,.64,2.11Zm-1-.82a2,2,0,0,0-.41-1.29,1.35,1.35,0,0,0-1.09-.46,1.57,1.57,0,0,0-1.16.48,2.24,2.24,0,0,0-.58,1.27Z" fill="#4d5359"/><path d="M113.3,60.08a1.94,1.94,0,0,1-.9.19c-1.05,0-1.58-.59-1.58-1.76V55h-1v-.82h1V52.67l1-.31v1.78h1.51V55h-1.51v3.38a1.38,1.38,0,0,0,.2.86.83.83,0,0,0,.68.26,1.05,1.05,0,0,0,.63-.2Z" fill="#4d5359"/><path d="M119.31,57.38h-4.24a2.3,2.3,0,0,0,.54,1.55,1.88,1.88,0,0,0,1.42.54,2.89,2.89,0,0,0,1.86-.67v.9a3.41,3.41,0,0,1-2.09.58,2.53,2.53,0,0,1-2-.82,3.35,3.35,0,0,1-.72-2.3,3.28,3.28,0,0,1,.79-2.28,2.54,2.54,0,0,1,2-.88,2.24,2.24,0,0,1,1.82.76,3.17,3.17,0,0,1,.65,2.11Zm-1-.82a1.9,1.9,0,0,0-.4-1.29,1.36,1.36,0,0,0-1.1-.46,1.56,1.56,0,0,0-1.15.48,2.25,2.25,0,0,0-.59,1.27Z" fill="#4d5359"/><path d="M126.83,60.08a1.87,1.87,0,0,1-.89.19c-1.06,0-1.58-.59-1.58-1.76V55h-1v-.82h1V52.67l1-.31v1.78h1.51V55h-1.51v3.38a1.37,1.37,0,0,0,.21.86.81.81,0,0,0,.68.26,1,1,0,0,0,.62-.2Z" fill="#4d5359"/><path d="M133.1,60.14h-1V56.68c0-1.25-.46-1.87-1.39-1.87a1.51,1.51,0,0,0-1.18.54,2,2,0,0,0-.48,1.39v3.4h-1V51.26h1v3.87h0a2.19,2.19,0,0,1,2-1.13c1.35,0,2,.81,2,2.44Z" fill="#4d5359"/><path d="M139.73,57.38h-4.24a2.3,2.3,0,0,0,.54,1.55,1.87,1.87,0,0,0,1.42.54,2.91,2.91,0,0,0,1.86-.67v.9a3.41,3.41,0,0,1-2.09.58,2.53,2.53,0,0,1-2-.82,3.35,3.35,0,0,1-.72-2.3,3.28,3.28,0,0,1,.79-2.28,2.54,2.54,0,0,1,2-.88,2.24,2.24,0,0,1,1.82.76,3.17,3.17,0,0,1,.65,2.11Zm-1-.82a1.9,1.9,0,0,0-.4-1.29,1.36,1.36,0,0,0-1.1-.46,1.56,1.56,0,0,0-1.15.48,2.25,2.25,0,0,0-.59,1.27Z" fill="#4d5359"/><path d="M147.43,52.1a1.22,1.22,0,0,0-.64-.16c-.67,0-1,.42-1,1.27v.93h1.4V55h-1.4v5.18h-1V55h-1v-.82h1v-1a2,2,0,0,1,.55-1.5,1.84,1.84,0,0,1,1.36-.54,1.86,1.86,0,0,1,.69.1Z" fill="#4d5359"/><path d="M148.72,52.61a.58.58,0,0,1-.44-.17.61.61,0,0,1-.18-.45.57.57,0,0,1,.18-.44.59.59,0,0,1,.44-.18.64.64,0,0,1,.45.18.57.57,0,0,1,.18.44.59.59,0,0,1-.18.44A.64.64,0,0,1,148.72,52.61Zm.47,7.53h-1v-6h1Z" fill="#4d5359"/><path d="M152.09,60.14h-1V51.26h1Z" fill="#4d5359"/><path d="M158.86,57.38h-4.24a2.3,2.3,0,0,0,.54,1.55,1.88,1.88,0,0,0,1.42.54,2.89,2.89,0,0,0,1.86-.67v.9a3.41,3.41,0,0,1-2.09.58,2.53,2.53,0,0,1-2-.82,3.35,3.35,0,0,1-.72-2.3,3.28,3.28,0,0,1,.79-2.28,2.54,2.54,0,0,1,2-.88,2.22,2.22,0,0,1,1.82.76,3.17,3.17,0,0,1,.65,2.11Zm-1-.82a1.9,1.9,0,0,0-.4-1.29,1.36,1.36,0,0,0-1.1-.46,1.56,1.56,0,0,0-1.15.48,2.25,2.25,0,0,0-.59,1.27Z" fill="#4d5359"/><path d="M166.56,52.1a1.21,1.21,0,0,0-.63-.16c-.68,0-1,.42-1,1.27v.93h1.4V55h-1.4v5.18h-1V55h-1v-.82h1v-1a2,2,0,0,1,.55-1.5,1.84,1.84,0,0,1,1.36-.54,1.86,1.86,0,0,1,.69.1Z" fill="#4d5359"/><path d="M170.48,55.11a1.14,1.14,0,0,0-.72-.19,1.21,1.21,0,0,0-1,.58,2.62,2.62,0,0,0-.41,1.58v3.06h-1v-6h1v1.23h0a2.09,2.09,0,0,1,.63-1,1.4,1.4,0,0,1,.94-.36,1.65,1.65,0,0,1,.57.08Z" fill="#4d5359"/><path d="M173.88,60.28a2.79,2.79,0,0,1-2.13-.84,3.12,3.12,0,0,1-.79-2.23,3.19,3.19,0,0,1,.83-2.36A3,3,0,0,1,174,54a2.68,2.68,0,0,1,2.09.82,3.29,3.29,0,0,1,.76,2.29,3.22,3.22,0,0,1-.82,2.3A2.82,2.82,0,0,1,173.88,60.28Zm.07-5.47a1.84,1.84,0,0,0-1.47.63,2.58,2.58,0,0,0-.54,1.73,2.41,2.41,0,0,0,.55,1.68,1.82,1.82,0,0,0,1.46.62,1.75,1.75,0,0,0,1.43-.6,3.23,3.23,0,0,0,0-3.45A1.73,1.73,0,0,0,174,54.81Z" fill="#4d5359"/><path d="M186.92,60.14h-1V56.69a2.57,2.57,0,0,0-.31-1.44,1.15,1.15,0,0,0-1-.44,1.28,1.28,0,0,0-1.05.56,2.12,2.12,0,0,0-.43,1.35v3.42h-1V56.58c0-1.18-.46-1.77-1.37-1.77a1.24,1.24,0,0,0-1,.53,2.2,2.2,0,0,0-.41,1.38v3.42h-1v-6h1v1h0A2,2,0,0,1,181.25,54a1.71,1.71,0,0,1,1.07.34,1.81,1.81,0,0,1,.63.9,2.13,2.13,0,0,1,2-1.24c1.32,0,2,.81,2,2.44Z" fill="#4d5359"/><path d="M197.14,60.14h-1v-1h0a2.42,2.42,0,0,1-3.87.35,3.3,3.3,0,0,1-.68-2.19,3.62,3.62,0,0,1,.75-2.39,2.5,2.5,0,0,1,2-.89,1.91,1.91,0,0,1,1.8,1h0V51.26h1Zm-1-2.71v-.89a1.73,1.73,0,0,0-.48-1.23,1.58,1.58,0,0,0-1.22-.5,1.66,1.66,0,0,0-1.38.64,2.85,2.85,0,0,0-.5,1.78,2.56,2.56,0,0,0,.48,1.64,1.59,1.59,0,0,0,1.3.6,1.63,1.63,0,0,0,1.3-.58A2.12,2.12,0,0,0,196.18,57.43Z" fill="#4d5359"/><path d="M199.58,52.61a.6.6,0,0,1-.44-.17A.61.61,0,0,1,199,52a.57.57,0,0,1,.18-.44.6.6,0,0,1,.44-.18.61.61,0,0,1,.45.18.57.57,0,0,1,.18.44.59.59,0,0,1-.18.44A.61.61,0,0,1,199.58,52.61Zm.47,7.53h-1v-6h1Z" fill="#4d5359"/><path d="M201.63,59.92v-1a2.84,2.84,0,0,0,1.73.58c.85,0,1.27-.28,1.27-.84a.76.76,0,0,0-.11-.41,1.17,1.17,0,0,0-.29-.3,3,3,0,0,0-.44-.23l-.53-.21a6.76,6.76,0,0,1-.7-.32,2.29,2.29,0,0,1-.51-.36,1.52,1.52,0,0,1-.3-.46,1.66,1.66,0,0,1-.11-.61,1.45,1.45,0,0,1,.2-.75,1.87,1.87,0,0,1,.51-.54,2.26,2.26,0,0,1,.74-.33,3,3,0,0,1,.85-.11,3.46,3.46,0,0,1,1.4.27v1a2.74,2.74,0,0,0-1.53-.43,1.75,1.75,0,0,0-.48.06A1.33,1.33,0,0,0,203,55a.78.78,0,0,0-.24.27.74.74,0,0,0-.08.34.87.87,0,0,0,.08.39.83.83,0,0,0,.25.28,1.91,1.91,0,0,0,.4.23l.53.21a6.17,6.17,0,0,1,.72.32,2.42,2.42,0,0,1,.54.36,1.32,1.32,0,0,1,.34.47,1.46,1.46,0,0,1,.12.62,1.5,1.5,0,0,1-.19.78,1.82,1.82,0,0,1-.53.54,2.26,2.26,0,0,1-.76.32,3.68,3.68,0,0,1-.89.11A3.41,3.41,0,0,1,201.63,59.92Z" fill="#4d5359"/><path d="M212.07,60.14h-1.35l-2.65-2.88h0v2.88h-1V51.26h1v5.63h0l2.52-2.75h1.26L209.07,57Z" fill="#4d5359"/><path d="M214.41,58.8l-.94,2.89h-.68l.68-2.89Z" fill="#4d5359"/><path d="M221.93,60.28a2.76,2.76,0,0,1-2.12-.84,3.12,3.12,0,0,1-.8-2.23,3.23,3.23,0,0,1,.83-2.36,3,3,0,0,1,2.23-.85,2.72,2.72,0,0,1,2.1.82,3.29,3.29,0,0,1,.75,2.29,3.21,3.21,0,0,1-.81,2.3A2.84,2.84,0,0,1,221.93,60.28Zm.07-5.47a1.8,1.8,0,0,0-1.46.63,2.58,2.58,0,0,0-.54,1.73,2.46,2.46,0,0,0,.54,1.68,1.82,1.82,0,0,0,1.46.62,1.75,1.75,0,0,0,1.43-.6,3.23,3.23,0,0,0,0-3.45A1.73,1.73,0,0,0,222,54.81Z" fill="#4d5359"/><path d="M229.58,55.11a1.16,1.16,0,0,0-.72-.19,1.21,1.21,0,0,0-1,.58,2.62,2.62,0,0,0-.42,1.58v3.06h-1v-6h1v1.23h0a2,2,0,0,1,.62-1A1.45,1.45,0,0,1,229,54a1.65,1.65,0,0,1,.57.08Z" fill="#4d5359"/><path d="M234.87,59.89a3.79,3.79,0,0,1-.59,2.27,2,2,0,0,1-1.7.8,1.74,1.74,0,0,1-.8-.19v-.89a1.63,1.63,0,0,0,.82.26c.87,0,1.31-.7,1.31-2.1v-5.9h1Zm-.47-7.28a.6.6,0,0,1-.62-.62.57.57,0,0,1,.18-.44.62.62,0,0,1,.44-.18.61.61,0,0,1,.45.18A.55.55,0,0,1,235,52a.56.56,0,0,1-.19.44A.61.61,0,0,1,234.4,52.61Z" fill="#4d5359"/><path d="M241.67,60.14h-1v-1h0a2,2,0,0,1-1.86,1.09c-1.43,0-2.14-.85-2.14-2.56V54.14h.95v3.43c0,1.27.49,1.9,1.46,1.9a1.44,1.44,0,0,0,1.15-.52,1.94,1.94,0,0,0,.46-1.35V54.14h1Z" fill="#4d5359"/><path d="M243.25,59.92v-1a2.81,2.81,0,0,0,1.72.58c.85,0,1.27-.28,1.27-.84a.76.76,0,0,0-.11-.41,1.17,1.17,0,0,0-.29-.3,2.86,2.86,0,0,0-.43-.23l-.54-.21a6.76,6.76,0,0,1-.7-.32,2.22,2.22,0,0,1-.5-.36,1.38,1.38,0,0,1-.31-.46,1.66,1.66,0,0,1-.1-.61,1.44,1.44,0,0,1,.19-.75,1.78,1.78,0,0,1,.52-.54,2.21,2.21,0,0,1,.73-.33,3.05,3.05,0,0,1,.85-.11,3.46,3.46,0,0,1,1.4.27v1a2.7,2.7,0,0,0-1.52-.43,1.83,1.83,0,0,0-.49.06,1.15,1.15,0,0,0-.37.17.62.62,0,0,0-.24.27.64.64,0,0,0-.09.34.75.75,0,0,0,.09.39.74.74,0,0,0,.25.28,1.82,1.82,0,0,0,.39.23l.54.21a6.81,6.81,0,0,1,.71.32,2.42,2.42,0,0,1,.54.36,1.32,1.32,0,0,1,.34.47,1.46,1.46,0,0,1,.12.62,1.5,1.5,0,0,1-.19.78,1.71,1.71,0,0,1-.53.54,2.21,2.21,0,0,1-.75.32,3.82,3.82,0,0,1-.9.11A3.34,3.34,0,0,1,243.25,59.92Z" fill="#4d5359"/><path d="M251.48,60.08a1.87,1.87,0,0,1-.89.19c-1.05,0-1.58-.59-1.58-1.76V55h-1v-.82h1V52.67l1-.31v1.78h1.51V55H250v3.38a1.37,1.37,0,0,0,.21.86.81.81,0,0,0,.68.26,1,1,0,0,0,.62-.2Z" fill="#4d5359"/><path d="M260.88,57.38h-4.24a2.3,2.3,0,0,0,.54,1.55,1.87,1.87,0,0,0,1.42.54,2.93,2.93,0,0,0,1.86-.67v.9a3.43,3.43,0,0,1-2.09.58,2.53,2.53,0,0,1-2-.82,3.36,3.36,0,0,1-.73-2.3,3.29,3.29,0,0,1,.8-2.28,2.53,2.53,0,0,1,2-.88,2.24,2.24,0,0,1,1.82.76,3.17,3.17,0,0,1,.65,2.11Zm-1-.82a2,2,0,0,0-.4-1.29,1.36,1.36,0,0,0-1.1-.46,1.55,1.55,0,0,0-1.15.48,2.25,2.25,0,0,0-.59,1.27Z" fill="#4d5359"/><path d="M266.71,54.14l-2,3,2,3h-1.12l-1.18-2-.26-.45h0l-.27.45-1.2,2h-1.11l2-2.94-1.95-3.06h1.12l1.16,2,.25.47h0l1.5-2.52Z" fill="#4d5359"/><path d="M271.83,59.86a3.08,3.08,0,0,1-1.64.42,2.72,2.72,0,0,1-2.07-.84,3,3,0,0,1-.79-2.16,3.35,3.35,0,0,1,.85-2.38,3,3,0,0,1,2.27-.9,3.27,3.27,0,0,1,1.4.29v1a2.48,2.48,0,0,0-1.43-.46,1.92,1.92,0,0,0-1.51.66,2.44,2.44,0,0,0-.59,1.73,2.38,2.38,0,0,0,.55,1.66,1.91,1.91,0,0,0,1.49.61,2.38,2.38,0,0,0,1.47-.52Z" fill="#4d5359"/><path d="M274.25,60.14h-1V51.26h1Z" fill="#4d5359"/><path d="M281,60.14h-1v-1h0a2,2,0,0,1-1.85,1.09c-1.43,0-2.15-.85-2.15-2.56V54.14h1v3.43c0,1.27.48,1.9,1.45,1.9a1.46,1.46,0,0,0,1.16-.52,2,2,0,0,0,.45-1.35V54.14h1Z" fill="#4d5359"/><path d="M288.11,60.14h-1v-1h0a2.42,2.42,0,0,1-3.87.35,3.3,3.3,0,0,1-.68-2.19,3.62,3.62,0,0,1,.75-2.39,2.5,2.5,0,0,1,2-.89,1.91,1.91,0,0,1,1.8,1h0V51.26h1Zm-1-2.71v-.89a1.73,1.73,0,0,0-.48-1.23,1.58,1.58,0,0,0-1.21-.5,1.67,1.67,0,0,0-1.39.64,2.85,2.85,0,0,0-.5,1.78,2.56,2.56,0,0,0,.48,1.64,1.59,1.59,0,0,0,1.3.6,1.63,1.63,0,0,0,1.3-.58A2.12,2.12,0,0,0,287.14,57.43Z" fill="#4d5359"/><path d="M294.87,57.38h-4.23a2.21,2.21,0,0,0,.54,1.55,1.85,1.85,0,0,0,1.41.54,2.94,2.94,0,0,0,1.87-.67v.9a3.45,3.45,0,0,1-2.09.58,2.52,2.52,0,0,1-2-.82,3.83,3.83,0,0,1,.06-4.58,2.55,2.55,0,0,1,2-.88,2.25,2.25,0,0,1,1.82.76,3.17,3.17,0,0,1,.64,2.11Zm-1-.82a2,2,0,0,0-.4-1.29,1.37,1.37,0,0,0-1.1-.46,1.59,1.59,0,0,0-1.16.48,2.24,2.24,0,0,0-.58,1.27Z" fill="#4d5359"/><path d="M300.11,52.61a.61.61,0,0,1-.63-.62.55.55,0,0,1,.19-.44.59.59,0,0,1,.44-.18.6.6,0,0,1,.44.18.55.55,0,0,1,.19.44.56.56,0,0,1-.19.44A.6.6,0,0,1,300.11,52.61Zm.46,7.53h-1v-6h1Z" fill="#4d5359"/><path d="M305.3,60.08a1.87,1.87,0,0,1-.89.19c-1.05,0-1.58-.59-1.58-1.76V55h-1v-.82h1V52.67l1-.31v1.78h1.51V55h-1.51v3.38a1.37,1.37,0,0,0,.21.86.81.81,0,0,0,.68.26,1,1,0,0,0,.62-.2Z" fill="#4d5359"/><path d="M312.84,52.1a1.24,1.24,0,0,0-.64-.16c-.67,0-1,.42-1,1.27v.93h1.41V55h-1.41v5.18h-.95V55h-1v-.82h1v-1a2.06,2.06,0,0,1,.54-1.5,1.85,1.85,0,0,1,1.36-.54,1.92,1.92,0,0,1,.7.1Z" fill="#4d5359"/><path d="M316.76,55.11a1.18,1.18,0,0,0-.73-.19,1.23,1.23,0,0,0-1,.58,2.7,2.7,0,0,0-.41,1.58v3.06h-1v-6h1v1.23h0a2.09,2.09,0,0,1,.63-1,1.42,1.42,0,0,1,.94-.36,1.75,1.75,0,0,1,.58.08Z" fill="#4d5359"/><path d="M320.15,60.28a2.77,2.77,0,0,1-2.12-.84,3.12,3.12,0,0,1-.8-2.23,3.23,3.23,0,0,1,.83-2.36,3,3,0,0,1,2.23-.85,2.71,2.71,0,0,1,2.1.82,3.29,3.29,0,0,1,.75,2.29,3.21,3.21,0,0,1-.81,2.3A2.84,2.84,0,0,1,320.15,60.28Zm.07-5.47a1.81,1.81,0,0,0-1.46.63,2.58,2.58,0,0,0-.54,1.73,2.46,2.46,0,0,0,.54,1.68,1.82,1.82,0,0,0,1.46.62,1.75,1.75,0,0,0,1.43-.6,3.23,3.23,0,0,0,0-3.45A1.73,1.73,0,0,0,320.22,54.81Z" fill="#4d5359"/><path d="M333.19,60.14h-1V56.69a2.57,2.57,0,0,0-.31-1.44,1.15,1.15,0,0,0-1-.44,1.28,1.28,0,0,0-1.05.56,2.18,2.18,0,0,0-.43,1.35v3.42h-1V56.58c0-1.18-.45-1.77-1.36-1.77a1.27,1.27,0,0,0-1,.53,2.2,2.2,0,0,0-.41,1.38v3.42h-1v-6h1v1h0A2,2,0,0,1,327.52,54a1.73,1.73,0,0,1,1.7,1.24,2.14,2.14,0,0,1,2-1.24c1.32,0,2,.81,2,2.44Z" fill="#4d5359"/><path d="M341.08,60.08a1.94,1.94,0,0,1-.9.19c-1.05,0-1.57-.59-1.57-1.76V55h-1v-.82h1V52.67l1-.31v1.78h1.51V55h-1.51v3.38a1.45,1.45,0,0,0,.2.86.84.84,0,0,0,.68.26,1,1,0,0,0,.63-.2Z" fill="#4d5359"/><path d="M347.34,60.14h-1V56.68c0-1.25-.46-1.87-1.39-1.87a1.53,1.53,0,0,0-1.19.54,2,2,0,0,0-.48,1.39v3.4h-1V51.26h1v3.87h0a2.18,2.18,0,0,1,2-1.13c1.35,0,2,.81,2,2.44Z" fill="#4d5359"/><path d="M354,57.38h-4.24a2.3,2.3,0,0,0,.54,1.55,1.87,1.87,0,0,0,1.42.54,2.93,2.93,0,0,0,1.86-.67v.9a3.43,3.43,0,0,1-2.09.58,2.53,2.53,0,0,1-2-.82,3.36,3.36,0,0,1-.73-2.3,3.29,3.29,0,0,1,.8-2.28,2.53,2.53,0,0,1,2-.88,2.25,2.25,0,0,1,1.82.76,3.17,3.17,0,0,1,.65,2.11Zm-1-.82a2,2,0,0,0-.4-1.29,1.36,1.36,0,0,0-1.1-.46,1.55,1.55,0,0,0-1.15.48,2.25,2.25,0,0,0-.59,1.27Z" fill="#4d5359"/><path d="M359.7,59.27h0V62.9h-1V54.14h1v1h0A2.29,2.29,0,0,1,361.78,54a2.23,2.23,0,0,1,1.81.8,3.37,3.37,0,0,1,.65,2.16,3.69,3.69,0,0,1-.74,2.41,2.4,2.4,0,0,1-2,.91A2,2,0,0,1,359.7,59.27Zm0-2.42v.84a1.77,1.77,0,0,0,.48,1.26,1.59,1.59,0,0,0,1.23.52,1.6,1.6,0,0,0,1.37-.67,3,3,0,0,0,.49-1.86,2.43,2.43,0,0,0-.46-1.57,1.56,1.56,0,0,0-1.25-.56,1.7,1.7,0,0,0-1.35.58A2.15,2.15,0,0,0,359.68,56.85Z" fill="#4d5359"/><path d="M368.9,55.11a1.18,1.18,0,0,0-.73-.19,1.2,1.2,0,0,0-1,.58,2.62,2.62,0,0,0-.42,1.58v3.06h-1v-6h1v1.23h0a2,2,0,0,1,.62-1,1.43,1.43,0,0,1,.95-.36,1.65,1.65,0,0,1,.57.08Z" fill="#4d5359"/><path d="M372.29,60.28a2.79,2.79,0,0,1-2.12-.84,3.12,3.12,0,0,1-.8-2.23,3.23,3.23,0,0,1,.83-2.36,3,3,0,0,1,2.23-.85,2.69,2.69,0,0,1,2.1.82,3.29,3.29,0,0,1,.75,2.29,3.21,3.21,0,0,1-.81,2.3A2.84,2.84,0,0,1,372.29,60.28Zm.07-5.47a1.83,1.83,0,0,0-1.46.63,2.58,2.58,0,0,0-.54,1.73,2.46,2.46,0,0,0,.54,1.68,1.83,1.83,0,0,0,1.46.62,1.79,1.79,0,0,0,1.44-.6,3.23,3.23,0,0,0,0-3.45A1.76,1.76,0,0,0,372.36,54.81Z" fill="#4d5359"/><path d="M377.78,59.89a3.72,3.72,0,0,1-.6,2.27,2,2,0,0,1-1.7.8,1.77,1.77,0,0,1-.8-.19v-.89a1.66,1.66,0,0,0,.82.26q1.32,0,1.32-2.1v-5.9h1Zm-.47-7.28a.6.6,0,0,1-.44-.17.61.61,0,0,1-.18-.45.57.57,0,0,1,.18-.44.6.6,0,0,1,.44-.18.64.64,0,0,1,.45.18.57.57,0,0,1,.18.44.59.59,0,0,1-.18.44A.64.64,0,0,1,377.31,52.61Z" fill="#4d5359"/><path d="M384.54,57.38h-4.23a2.21,2.21,0,0,0,.54,1.55,1.85,1.85,0,0,0,1.42.54,2.93,2.93,0,0,0,1.86-.67v.9a3.45,3.45,0,0,1-2.09.58,2.52,2.52,0,0,1-2-.82,3.81,3.81,0,0,1,.07-4.58,2.53,2.53,0,0,1,2-.88,2.25,2.25,0,0,1,1.82.76,3.17,3.17,0,0,1,.64,2.11Zm-1-.82a2,2,0,0,0-.4-1.29,1.36,1.36,0,0,0-1.1-.46,1.55,1.55,0,0,0-1.15.48,2.19,2.19,0,0,0-.59,1.27Z" fill="#4d5359"/><path d="M390.09,59.86a3.1,3.1,0,0,1-1.64.42,2.69,2.69,0,0,1-2.07-.84,3,3,0,0,1-.79-2.16,3.3,3.3,0,0,1,.85-2.38,3,3,0,0,1,2.27-.9,3.23,3.23,0,0,1,1.39.29v1a2.46,2.46,0,0,0-1.43-.46,1.93,1.93,0,0,0-1.51.66,2.49,2.49,0,0,0-.59,1.73,2.38,2.38,0,0,0,.56,1.66,1.89,1.89,0,0,0,1.48.61,2.41,2.41,0,0,0,1.48-.52Z" fill="#4d5359"/><path d="M394.32,60.08a1.87,1.87,0,0,1-.89.19c-1.05,0-1.58-.59-1.58-1.76V55h-1v-.82h1V52.67l1-.31v1.78h1.51V55h-1.51v3.38a1.37,1.37,0,0,0,.21.86.81.81,0,0,0,.68.26,1,1,0,0,0,.62-.2Z" fill="#4d5359"/><path d="M396.29,57.81a2.58,2.58,0,0,1-.1-.4,3.88,3.88,0,0,1,0-.48,1.51,1.51,0,0,1,.15-.68,3,3,0,0,1,.37-.56,4.7,4.7,0,0,1,.49-.51c.18-.16.34-.33.49-.49a3.16,3.16,0,0,0,.37-.53,1.21,1.21,0,0,0,.15-.6,1.1,1.1,0,0,0-.11-.49,1,1,0,0,0-.3-.37,1.25,1.25,0,0,0-.43-.22,1.77,1.77,0,0,0-.52-.07,2.29,2.29,0,0,0-1.72.78v-1A3.42,3.42,0,0,1,397,51.6a2.84,2.84,0,0,1,.84.11,2.24,2.24,0,0,1,.69.35,1.74,1.74,0,0,1,.46.58,2,2,0,0,1,0,1.57,2.85,2.85,0,0,1-.38.63,6.38,6.38,0,0,1-.51.53c-.18.16-.34.33-.5.49a2.87,2.87,0,0,0-.38.5,1.17,1.17,0,0,0-.15.58,1.83,1.83,0,0,0,.06.49c0,.15.09.27.13.38Zm.52,2.43a.64.64,0,0,1-.45-.18.63.63,0,0,1-.2-.46.67.67,0,0,1,.65-.65.62.62,0,0,1,.46.19.6.6,0,0,1,.19.46.62.62,0,0,1-.19.46A.65.65,0,0,1,396.81,60.24Z" fill="#4d5359"/><rect x="249.67" y="92.99" width="68" height="22.01" fill="url(#linear-gradient)"/><path d="M248.67,92v24h70V92Zm69,23h-68V93h68Z" fill="#a8abae"/><path d="M269.19,108h-4.45V99.6H269v.89h-3.28v2.79h3v.89h-3v2.94h3.47Z" fill="#4d5359"/><path d="M275.06,102l-2,3,2,3h-1.12l-1.18-1.94-.26-.46h0l-.27.46L271,108h-1.11l2-2.94L270,102h1.12l1.16,2,.25.47h0L274,102Z" fill="#4d5359"/><path d="M280.18,107.73a3.17,3.17,0,0,1-1.64.41,2.75,2.75,0,0,1-2.07-.83,3.06,3.06,0,0,1-.79-2.17,3.35,3.35,0,0,1,.85-2.38,3,3,0,0,1,2.27-.9,3.2,3.2,0,0,1,1.39.29v1a2.44,2.44,0,0,0-1.42-.47,1.92,1.92,0,0,0-1.51.66,2.46,2.46,0,0,0-.59,1.73,2.36,2.36,0,0,0,.55,1.66,1.91,1.91,0,0,0,1.49.61,2.38,2.38,0,0,0,1.47-.52Z" fill="#4d5359"/><path d="M282.6,108h-1V99.12h1Z" fill="#4d5359"/><path d="M289.39,108h-1v-1h0a2,2,0,0,1-1.85,1.09c-1.43,0-2.15-.85-2.15-2.55V102h1v3.43c0,1.27.48,1.9,1.45,1.9a1.46,1.46,0,0,0,1.16-.52,2,2,0,0,0,.45-1.35V102h1Z" fill="#4d5359"/><path d="M296.45,108h-1v-1h0a2.23,2.23,0,0,1-2.06,1.16,2.25,2.25,0,0,1-1.81-.8,3.33,3.33,0,0,1-.68-2.2,3.57,3.57,0,0,1,.75-2.38,2.48,2.48,0,0,1,2-.9,1.91,1.91,0,0,1,1.8,1h0V99.12h1Zm-1-2.71v-.89a1.73,1.73,0,0,0-.48-1.23,1.62,1.62,0,0,0-1.22-.5,1.66,1.66,0,0,0-1.38.64,2.87,2.87,0,0,0-.5,1.78,2.54,2.54,0,0,0,.48,1.64,1.59,1.59,0,0,0,1.3.6,1.63,1.63,0,0,0,1.3-.58A2.11,2.11,0,0,0,295.49,105.29Z" fill="#4d5359"/><path d="M303.22,105.24H299a2.25,2.25,0,0,0,.53,1.55,1.88,1.88,0,0,0,1.42.54,3,3,0,0,0,1.87-.66v.9a3.53,3.53,0,0,1-2.1.57,2.51,2.51,0,0,1-2-.82,3.83,3.83,0,0,1,.06-4.58,2.55,2.55,0,0,1,2-.88,2.25,2.25,0,0,1,1.82.76,3.18,3.18,0,0,1,.64,2.12Zm-1-.81a2,2,0,0,0-.4-1.3,1.37,1.37,0,0,0-1.1-.46,1.54,1.54,0,0,0-1.16.49,2.18,2.18,0,0,0-.58,1.27Z" fill="#4d5359"/><path d="M328.67,92v24h70V92Zm69,23h-68V93h68Z" fill="#a8abae"/><rect x="329.67" y="93" width="68" height="22" fill="url(#linear-gradient-2)"/><path d="M396.67,94v20h-66V94h66m2-2h-70v24h70V92Z" fill="#a8abae"/><path d="M353,107.65a4.92,4.92,0,0,1-2.32.49,3.72,3.72,0,0,1-2.87-1.15,4.26,4.26,0,0,1-1.08-3,4.45,4.45,0,0,1,1.21-3.26A4.11,4.11,0,0,1,351,99.46a5,5,0,0,1,2,.34v1a4.09,4.09,0,0,0-2-.5,3,3,0,0,0-2.34,1,3.62,3.62,0,0,0-.9,2.58,3.49,3.49,0,0,0,.84,2.45,2.89,2.89,0,0,0,2.21.91,4.11,4.11,0,0,0,2.19-.57Z" fill="#4d5359"/><path d="M358.84,108h-1v-.94h0a2.2,2.2,0,0,1-3.25.61,1.65,1.65,0,0,1-.51-1.26c0-1.12.66-1.78,2-2l1.8-.25q0-1.53-1.23-1.53a3,3,0,0,0-2,.74v-1a3.76,3.76,0,0,1,2-.56c1.41,0,2.11.75,2.11,2.24Zm-1-3-1.44.2a2.25,2.25,0,0,0-1,.33.93.93,0,0,0-.34.84.89.89,0,0,0,.31.71,1.2,1.2,0,0,0,.84.28,1.53,1.53,0,0,0,1.18-.5,1.77,1.77,0,0,0,.46-1.27Z" fill="#4d5359"/><path d="M365.63,108h-1v-3.42c0-1.27-.46-1.91-1.39-1.91a1.5,1.5,0,0,0-1.19.54,2,2,0,0,0-.47,1.37V108h-1v-6h1v1h0a2.16,2.16,0,0,1,2-1.14,1.81,1.81,0,0,1,1.5.64,2.79,2.79,0,0,1,.52,1.83Z" fill="#4d5359"/><path d="M371.54,107.73a3.23,3.23,0,0,1-1.65.41,2.75,2.75,0,0,1-2.07-.83,3.06,3.06,0,0,1-.78-2.17,3.34,3.34,0,0,1,.84-2.38,3,3,0,0,1,2.27-.9,3.27,3.27,0,0,1,1.4.29v1a2.49,2.49,0,0,0-1.43-.47,1.92,1.92,0,0,0-1.51.66,2.5,2.5,0,0,0-.59,1.73,2.36,2.36,0,0,0,.55,1.66,1.91,1.91,0,0,0,1.49.61,2.43,2.43,0,0,0,1.48-.52Z" fill="#4d5359"/><path d="M377.81,105.24h-4.24a2.3,2.3,0,0,0,.54,1.55,1.88,1.88,0,0,0,1.42.54,2.94,2.94,0,0,0,1.86-.66v.9a3.47,3.47,0,0,1-2.09.57,2.54,2.54,0,0,1-2-.82,3.35,3.35,0,0,1-.72-2.3,3.28,3.28,0,0,1,.79-2.28,2.54,2.54,0,0,1,2-.88,2.26,2.26,0,0,1,1.83.76,3.18,3.18,0,0,1,.64,2.12Zm-1-.81a2,2,0,0,0-.41-1.3,1.35,1.35,0,0,0-1.09-.46,1.54,1.54,0,0,0-1.16.49,2.18,2.18,0,0,0-.58,1.27Z" fill="#4d5359"/><path d="M380.22,108h-1V99.12h1Z" fill="#4d5359"/><rect x="130.67" y="92.99" width="107" height="22.01" fill="url(#linear-gradient-3)"/><path d="M129.67,92v24h109V92Zm108,23h-107V93h107Z" fill="#a8abae"/><path d="M142.34,108V99.6h2.32q4.44,0,4.44,4.09a4.14,4.14,0,0,1-1.23,3.13,4.55,4.55,0,0,1-3.3,1.18Zm1-7.51v6.62h1.25a3.55,3.55,0,0,0,2.57-.89,3.28,3.28,0,0,0,.92-2.5c0-2.16-1.14-3.23-3.43-3.23Z" fill="#4d5359"/><path d="M155.45,105.24h-4.24a2.3,2.3,0,0,0,.54,1.55,1.88,1.88,0,0,0,1.42.54,2.89,2.89,0,0,0,1.86-.67v.91a3.47,3.47,0,0,1-2.09.57,2.53,2.53,0,0,1-2-.82,3.35,3.35,0,0,1-.72-2.3,3.28,3.28,0,0,1,.79-2.28,2.54,2.54,0,0,1,2-.88,2.24,2.24,0,0,1,1.82.76,3.18,3.18,0,0,1,.65,2.12Zm-1-.81a1.91,1.91,0,0,0-.4-1.3,1.36,1.36,0,0,0-1.1-.46,1.56,1.56,0,0,0-1.15.48,2.25,2.25,0,0,0-.59,1.28Z" fill="#4d5359"/><path d="M157.86,108h-1V99.12h1Z" fill="#4d5359"/><path d="M164.63,105.24h-4.24a2.3,2.3,0,0,0,.54,1.55,1.88,1.88,0,0,0,1.42.54,2.89,2.89,0,0,0,1.86-.67v.91a3.47,3.47,0,0,1-2.09.57,2.53,2.53,0,0,1-2-.82,3.35,3.35,0,0,1-.72-2.3,3.28,3.28,0,0,1,.79-2.28,2.54,2.54,0,0,1,2-.88,2.26,2.26,0,0,1,1.83.76,3.18,3.18,0,0,1,.64,2.12Zm-1-.81a2,2,0,0,0-.41-1.3,1.35,1.35,0,0,0-1.09-.46,1.57,1.57,0,0,0-1.16.48,2.24,2.24,0,0,0-.58,1.28Z" fill="#4d5359"/><path d="M168.87,107.94a1.82,1.82,0,0,1-.9.19c-1.05,0-1.58-.59-1.58-1.76v-3.55h-1V102h1v-1.46l1-.32V102h1.52v.82h-1.52v3.38a1.37,1.37,0,0,0,.21.86.83.83,0,0,0,.68.26,1.05,1.05,0,0,0,.63-.2Z" fill="#4d5359"/><path d="M174.88,105.24h-4.24a2.3,2.3,0,0,0,.54,1.55,1.87,1.87,0,0,0,1.42.54,2.91,2.91,0,0,0,1.86-.67v.91a3.47,3.47,0,0,1-2.09.57,2.53,2.53,0,0,1-2-.82,3.35,3.35,0,0,1-.72-2.3,3.28,3.28,0,0,1,.79-2.28,2.54,2.54,0,0,1,2-.88,2.24,2.24,0,0,1,1.82.76,3.18,3.18,0,0,1,.65,2.12Zm-1-.81a1.91,1.91,0,0,0-.4-1.3,1.36,1.36,0,0,0-1.1-.46,1.56,1.56,0,0,0-1.15.48,2.25,2.25,0,0,0-.59,1.28Z" fill="#4d5359"/><path d="M182.58,100a1.32,1.32,0,0,0-.64-.16c-.67,0-1,.43-1,1.27V102h1.4v.82h-1.4V108h-1v-5.18h-1V102h1v-1a2,2,0,0,1,.55-1.49,1.81,1.81,0,0,1,1.36-.55,1.86,1.86,0,0,1,.69.1Z" fill="#4d5359"/><path d="M186.5,103a1.14,1.14,0,0,0-.72-.19,1.21,1.21,0,0,0-1,.58,2.64,2.64,0,0,0-.41,1.58V108h-1v-6h1v1.24h0a2,2,0,0,1,.63-1,1.54,1.54,0,0,1,1.51-.27Z" fill="#4d5359"/><path d="M189.9,108.14a2.79,2.79,0,0,1-2.13-.84,3.1,3.1,0,0,1-.79-2.23,3.24,3.24,0,0,1,.82-2.36,3,3,0,0,1,2.24-.85,2.66,2.66,0,0,1,2.09.83,3.77,3.77,0,0,1-.06,4.59A2.85,2.85,0,0,1,189.9,108.14Zm.07-5.47a1.84,1.84,0,0,0-1.47.63A2.59,2.59,0,0,0,188,105a2.41,2.41,0,0,0,.55,1.68,1.85,1.85,0,0,0,1.46.61,1.77,1.77,0,0,0,1.43-.6,3.23,3.23,0,0,0,0-3.45A1.74,1.74,0,0,0,190,102.67Z" fill="#4d5359"/><path d="M202.94,108h-1v-3.45a2.57,2.57,0,0,0-.31-1.44,1.17,1.17,0,0,0-1-.44,1.3,1.3,0,0,0-1,.56,2.14,2.14,0,0,0-.43,1.35V108h-1v-3.56c0-1.18-.46-1.77-1.37-1.77a1.24,1.24,0,0,0-1,.53,2.2,2.2,0,0,0-.41,1.38V108h-1v-6h1v1h0a2,2,0,0,1,1.87-1.09,1.73,1.73,0,0,1,1.07.34,1.81,1.81,0,0,1,.63.9,2.13,2.13,0,0,1,2-1.24c1.32,0,2,.81,2,2.44Z" fill="#4d5359"/><path d="M213.16,108h-1v-1h0a2.42,2.42,0,0,1-3.87.35,3.28,3.28,0,0,1-.68-2.19,3.57,3.57,0,0,1,.75-2.38,2.48,2.48,0,0,1,2-.9,1.93,1.93,0,0,1,1.8,1h0V99.12h1Zm-1-2.71v-.89a1.73,1.73,0,0,0-.48-1.23,1.62,1.62,0,0,0-1.22-.5,1.66,1.66,0,0,0-1.38.64,2.81,2.81,0,0,0-.5,1.78,2.54,2.54,0,0,0,.48,1.64,1.57,1.57,0,0,0,1.3.6,1.63,1.63,0,0,0,1.3-.58A2.11,2.11,0,0,0,212.2,105.29Z" fill="#4d5359"/><path d="M215.6,100.48a.6.6,0,0,1-.44-.18.59.59,0,0,1-.18-.44.61.61,0,0,1,.18-.45.6.6,0,0,1,.44-.18.62.62,0,0,1,.63.63.63.63,0,0,1-.63.62Zm.47,7.52h-1v-6h1Z" fill="#4d5359"/><path d="M217.65,107.78v-1a2.84,2.84,0,0,0,1.73.58c.84,0,1.27-.28,1.27-.84a.76.76,0,0,0-.11-.41.93.93,0,0,0-.3-.29,1.94,1.94,0,0,0-.43-.24l-.54-.21c-.26-.11-.49-.21-.7-.32a2.47,2.47,0,0,1-.5-.36,1.35,1.35,0,0,1-.3-.46,1.62,1.62,0,0,1-.11-.61,1.39,1.39,0,0,1,.2-.74,1.78,1.78,0,0,1,.51-.55,2.49,2.49,0,0,1,.74-.33,3.56,3.56,0,0,1,2.24.16v1a2.68,2.68,0,0,0-1.52-.43,1.75,1.75,0,0,0-.48.06,1.33,1.33,0,0,0-.38.17,1,1,0,0,0-.24.27.77.77,0,0,0-.08.34.87.87,0,0,0,.08.39,1,1,0,0,0,.25.29,2.11,2.11,0,0,0,.4.22l.53.21c.27.11.51.21.72.32a2.82,2.82,0,0,1,.54.36,1.41,1.41,0,0,1,.34.47,1.46,1.46,0,0,1,.12.62,1.51,1.51,0,0,1-.2.78,1.58,1.58,0,0,1-.52.54,2.5,2.5,0,0,1-.76.33,3.68,3.68,0,0,1-.89.1A3.39,3.39,0,0,1,217.65,107.78Z" fill="#4d5359"/><path d="M228.09,108h-1.35l-2.65-2.88h0V108h-1V99.12h1v5.63h0l2.52-2.75h1.26l-2.78,2.89Z" fill="#4d5359"/><rect x="186" y="-13" width="503" height="217" fill="none"/><line x1="474" y1="105" x2="407" y2="105" fill="none" stroke="#ec008c" stroke-miterlimit="10"/><line x1="69" y1="16" x2="38" y2="16" fill="none" stroke="#ec008c" stroke-miterlimit="10"/><path d="M18,11.11H15.77V18h-.9V11.11H12.65V10.3H18Z" fill="#ec008c"/><path d="M19.53,11.1a.55.55,0,0,1-.4-.16.54.54,0,0,1-.16-.41.56.56,0,0,1,.16-.41.55.55,0,0,1,.4-.16.58.58,0,0,1,.42.16.61.61,0,0,1,0,.82A.58.58,0,0,1,19.53,11.1ZM20,18h-.88V12.5H20Z" fill="#ec008c"/><path d="M24.3,18a1.75,1.75,0,0,1-.82.17c-1,0-1.45-.54-1.45-1.61V13.25h-.94V12.5H22V11.16l.88-.29V12.5H24.3v.75H22.91v3.1a1.33,1.33,0,0,0,.19.79.74.74,0,0,0,.62.24.88.88,0,0,0,.58-.19Z" fill="#ec008c"/><path d="M26.36,18h-.88V9.86h.88Z" fill="#ec008c"/><path d="M32.56,15.47H28.68a2.06,2.06,0,0,0,.49,1.42,1.72,1.72,0,0,0,1.3.5,2.75,2.75,0,0,0,1.71-.61v.82a3.21,3.21,0,0,1-1.92.53,2.31,2.31,0,0,1-1.83-.75,3.09,3.09,0,0,1-.67-2.11,3,3,0,0,1,.73-2.09,2.34,2.34,0,0,1,1.81-.81,2.06,2.06,0,0,1,1.67.7A2.92,2.92,0,0,1,32.56,15Zm-.9-.75a1.83,1.83,0,0,0-.37-1.18,1.24,1.24,0,0,0-1-.43,1.43,1.43,0,0,0-1.06.45,2,2,0,0,0-.53,1.16Z" fill="#ec008c"/><path d="M482,108h-.9v-7.7h.9Z" fill="#ec008c"/><path d="M488.5,108h-.88v-3.14c0-1.16-.43-1.75-1.28-1.75a1.39,1.39,0,0,0-1.09.5,1.83,1.83,0,0,0-.43,1.25V108h-.88v-5.5h.88v.91h0a2,2,0,0,1,1.8-1A1.71,1.71,0,0,1,488,103a2.6,2.6,0,0,1,.48,1.69Z" fill="#ec008c"/><path d="M494.86,108H494v-.93h0a2.21,2.21,0,0,1-3.54.32,3,3,0,0,1-.62-2,3.3,3.3,0,0,1,.68-2.19,2.26,2.26,0,0,1,1.83-.82,1.76,1.76,0,0,1,1.65.89h0v-3.4h.89Zm-.89-2.49v-.81a1.56,1.56,0,0,0-.44-1.13,1.48,1.48,0,0,0-1.11-.46,1.53,1.53,0,0,0-1.27.59,2.6,2.6,0,0,0-.46,1.64,2.31,2.31,0,0,0,.44,1.5,1.47,1.47,0,0,0,1.19.55,1.53,1.53,0,0,0,1.2-.53A2,2,0,0,0,494,105.51Z" fill="#ec008c"/><path d="M497.09,101.1a.54.54,0,0,1-.4-.16.55.55,0,0,1-.17-.41.57.57,0,0,1,.17-.41.54.54,0,0,1,.4-.16.56.56,0,0,1,.41.16.58.58,0,0,1,0,.82A.56.56,0,0,1,497.09,101.1Zm.43,6.9h-.88v-5.5h.88Z" fill="#ec008c"/><path d="M503.05,107.75a2.88,2.88,0,0,1-1.5.38,2.49,2.49,0,0,1-1.9-.77,2.77,2.77,0,0,1-.72-2,3,3,0,0,1,.78-2.18,2.7,2.7,0,0,1,2.07-.83,2.87,2.87,0,0,1,1.28.27v.9a2.21,2.21,0,0,0-1.31-.43,1.75,1.75,0,0,0-1.38.61,2.28,2.28,0,0,0-.54,1.58,2.18,2.18,0,0,0,.51,1.53,1.74,1.74,0,0,0,1.36.56,2.19,2.19,0,0,0,1.35-.48Z" fill="#ec008c"/><path d="M508.32,108h-.88v-.86h0a1.84,1.84,0,0,1-1.69,1,1.82,1.82,0,0,1-1.29-.44,1.49,1.49,0,0,1-.46-1.15c0-1,.6-1.63,1.81-1.79l1.65-.24c0-.93-.38-1.4-1.13-1.4a2.73,2.73,0,0,0-1.8.68v-.9a3.37,3.37,0,0,1,1.87-.52c1.29,0,1.94.68,1.94,2Zm-.88-2.78-1.33.18a2.31,2.31,0,0,0-.92.3.88.88,0,0,0-.31.77.82.82,0,0,0,.29.66,1.09,1.09,0,0,0,.76.26,1.42,1.42,0,0,0,1.08-.46,1.63,1.63,0,0,0,.43-1.16Z" fill="#ec008c"/><path d="M512.53,108a1.75,1.75,0,0,1-.82.17c-1,0-1.44-.54-1.44-1.61v-3.26h-.95v-.75h.95v-1.34l.88-.29v1.63h1.38v.75h-1.38v3.1a1.33,1.33,0,0,0,.18.79.77.77,0,0,0,.63.24.87.87,0,0,0,.57-.19Z" fill="#ec008c"/><path d="M515.92,108.13a2.58,2.58,0,0,1-1.95-.77,2.9,2.9,0,0,1-.72-2,3,3,0,0,1,.75-2.16,2.74,2.74,0,0,1,2-.78,2.45,2.45,0,0,1,1.92.76,3.46,3.46,0,0,1-.05,4.21A2.64,2.64,0,0,1,515.92,108.13Zm.07-5a1.67,1.67,0,0,0-1.35.58,2.36,2.36,0,0,0-.49,1.59,2.2,2.2,0,0,0,.5,1.54,1.69,1.69,0,0,0,1.34.57,1.62,1.62,0,0,0,1.31-.56,2.41,2.41,0,0,0,.46-1.57,2.47,2.47,0,0,0-.46-1.59A1.62,1.62,0,0,0,516,103.11Z" fill="#ec008c"/><path d="M522.94,103.39a1.09,1.09,0,0,0-.67-.18,1.11,1.11,0,0,0-.94.54,2.38,2.38,0,0,0-.38,1.45V108h-.88v-5.5H521v1.13h0a2,2,0,0,1,.57-.9,1.31,1.31,0,0,1,.87-.33,1.48,1.48,0,0,1,.53.08Z" fill="#ec008c"/><line x1="461" y1="55" x2="407" y2="55" fill="none" stroke="#ec008c" stroke-miterlimit="10"/><path d="M468.78,60V52.3h2.13q4.06,0,4.07,3.75a3.8,3.8,0,0,1-1.13,2.87,4.22,4.22,0,0,1-3,1.08Zm.9-6.89v6.07h1.15a3.27,3.27,0,0,0,2.36-.81,3,3,0,0,0,.84-2.3q0-3-3.15-3Z" fill="#ec008c"/><path d="M480.79,57.47h-3.88a2.08,2.08,0,0,0,.49,1.42,1.72,1.72,0,0,0,1.3.5,2.75,2.75,0,0,0,1.71-.61v.82a3.18,3.18,0,0,1-1.91.53,2.35,2.35,0,0,1-1.84-.75,3.08,3.08,0,0,1-.66-2.11,3,3,0,0,1,.73-2.09,2.31,2.31,0,0,1,1.8-.81,2,2,0,0,1,1.67.7,2.87,2.87,0,0,1,.59,1.94Zm-.9-.75a1.7,1.7,0,0,0-.37-1.18,1.22,1.22,0,0,0-1-.43,1.41,1.41,0,0,0-1.06.45,2,2,0,0,0-.54,1.16Z" fill="#ec008c"/><path d="M481.79,59.8v-.94a2.64,2.64,0,0,0,1.59.53c.77,0,1.16-.26,1.16-.78a.73.73,0,0,0-.1-.37,1.15,1.15,0,0,0-.27-.27,1.88,1.88,0,0,0-.4-.21l-.49-.2a6.63,6.63,0,0,1-.64-.29,1.88,1.88,0,0,1-.46-.33,1.18,1.18,0,0,1-.28-.43,1.32,1.32,0,0,1-.1-.55,1.25,1.25,0,0,1,.18-.68,1.6,1.6,0,0,1,.47-.5,2.12,2.12,0,0,1,.68-.31,3.33,3.33,0,0,1,.78-.1,3.08,3.08,0,0,1,1.28.25v.89a2.47,2.47,0,0,0-1.4-.4,1.51,1.51,0,0,0-.44.06,1.13,1.13,0,0,0-.35.16.84.84,0,0,0-.22.24.68.68,0,0,0-.07.32.8.8,0,0,0,.07.36.9.9,0,0,0,.23.25,1.44,1.44,0,0,0,.37.21l.49.2a5.76,5.76,0,0,1,.65.28,2.31,2.31,0,0,1,.5.34,1.27,1.27,0,0,1,.31.42,1.46,1.46,0,0,1,.11.58,1.36,1.36,0,0,1-.18.71,1.63,1.63,0,0,1-.48.5,2.14,2.14,0,0,1-.69.29,3.2,3.2,0,0,1-.83.1A3.12,3.12,0,0,1,481.79,59.8Z" fill="#ec008c"/><path d="M490.54,59.75a2.88,2.88,0,0,1-1.5.38,2.49,2.49,0,0,1-1.9-.77,2.77,2.77,0,0,1-.72-2,3,3,0,0,1,.78-2.18,2.72,2.72,0,0,1,2.07-.83,2.87,2.87,0,0,1,1.28.27v.9a2.19,2.19,0,0,0-1.31-.43,1.75,1.75,0,0,0-1.38.61,2.28,2.28,0,0,0-.54,1.58,2.18,2.18,0,0,0,.51,1.53,1.76,1.76,0,0,0,1.36.56,2.19,2.19,0,0,0,1.35-.48Z" fill="#ec008c"/><path d="M494.74,55.39a1,1,0,0,0-.66-.18,1.14,1.14,0,0,0-.95.54,2.45,2.45,0,0,0-.37,1.45V60h-.89V54.5h.89v1.13h0a1.84,1.84,0,0,1,.57-.9,1.31,1.31,0,0,1,.87-.33,1.38,1.38,0,0,1,.52.08Z" fill="#ec008c"/><path d="M496.15,53.1a.54.54,0,0,1-.4-.16.55.55,0,0,1-.17-.41.57.57,0,0,1,.17-.41.54.54,0,0,1,.4-.16.56.56,0,0,1,.41.16.58.58,0,0,1,0,.82A.56.56,0,0,1,496.15,53.1Zm.43,6.9h-.88V54.5h.88Z" fill="#ec008c"/><path d="M499.27,59.21h0v3.32h-.88v-8h.88v1h0a2.08,2.08,0,0,1,1.9-1.1,2,2,0,0,1,1.66.74,3.09,3.09,0,0,1,.59,2,3.39,3.39,0,0,1-.67,2.21,2.25,2.25,0,0,1-1.84.83A1.83,1.83,0,0,1,499.27,59.21Zm0-2.22v.76a1.61,1.61,0,0,0,.45,1.16,1.45,1.45,0,0,0,1.12.48,1.51,1.51,0,0,0,1.26-.61,2.85,2.85,0,0,0,.45-1.71,2.24,2.24,0,0,0-.42-1.44,1.44,1.44,0,0,0-1.15-.52,1.55,1.55,0,0,0-1.24.54A2,2,0,0,0,499.24,57Z" fill="#ec008c"/><path d="M507.38,60a1.75,1.75,0,0,1-.82.17c-1,0-1.45-.54-1.45-1.61V55.25h-.94V54.5h.94V53.16l.89-.29V54.5h1.38v.75H506v3.1a1.33,1.33,0,0,0,.18.79.77.77,0,0,0,.63.24.87.87,0,0,0,.57-.19Z" fill="#ec008c"/><path d="M509,53.1a.54.54,0,0,1-.4-.16.52.52,0,0,1-.17-.41.53.53,0,0,1,.17-.41A.54.54,0,0,1,509,52a.56.56,0,0,1,.41.16.58.58,0,0,1,0,.82A.56.56,0,0,1,509,53.1Zm.43,6.9h-.88V54.5h.88Z" fill="#ec008c"/><path d="M513.52,60.13a2.58,2.58,0,0,1-1.95-.77,2.9,2.9,0,0,1-.72-2,3,3,0,0,1,.75-2.16,2.74,2.74,0,0,1,2-.78,2.45,2.45,0,0,1,1.92.76,3.46,3.46,0,0,1-.05,4.21A2.66,2.66,0,0,1,513.52,60.13Zm.06-5a1.66,1.66,0,0,0-1.34.58,2.36,2.36,0,0,0-.49,1.59,2.2,2.2,0,0,0,.5,1.54,1.68,1.68,0,0,0,1.33.57,1.63,1.63,0,0,0,1.32-.56,2.41,2.41,0,0,0,.46-1.57,2.47,2.47,0,0,0-.46-1.59A1.63,1.63,0,0,0,513.58,55.11Z" fill="#ec008c"/><path d="M522.23,60h-.88V56.86c0-1.16-.43-1.75-1.28-1.75a1.39,1.39,0,0,0-1.09.5,1.83,1.83,0,0,0-.43,1.25V60h-.88V54.5h.88v.91h0a2,2,0,0,1,1.8-1,1.7,1.7,0,0,1,1.38.58,2.6,2.6,0,0,1,.48,1.69Z" fill="#ec008c"/></g></svg>