<svg id="Layer_1" data-name="Layer 1" xmlns="http://www.w3.org/2000/svg" width="303" height="65" viewBox="0 0 303 65"><title>hyperlink-tootlip</title><rect width="301" height="64" fill="#eef0ef"/><path d="M9.34,15.39A4.39,4.39,0,0,1,4.95,11,4.39,4.39,0,0,1,9.34,6.61,4.39,4.39,0,0,1,13.73,11a4.39,4.39,0,0,1-4.39,4.39Zm0-8.27A3.88,3.88,0,0,0,5.46,11,3.73,3.73,0,0,0,6.6,13.74a3.74,3.74,0,0,0,2.74,1.13A3.87,3.87,0,0,0,13.22,11,3.88,3.88,0,0,0,9.34,7.12Zm1.59,6.15a2.59,2.59,0,0,1-1.45.4,2.62,2.62,0,0,1-1.89-.73,2.44,2.44,0,0,1-.76-1.83,2.72,2.72,0,0,1,.78-2,2.78,2.78,0,0,1,2-.76,2.59,2.59,0,0,1,1.27.31V9.5a2,2,0,0,0-1.34-.42,1.86,1.86,0,0,0-1.36.53A1.9,1.9,0,0,0,7.67,11a1.83,1.83,0,0,0,.55,1.39,1.94,1.94,0,0,0,1.39.52,2,2,0,0,0,1.32-.46Z" fill="#2b3033"/><path d="M18.92,15.2H18V7.94a2.22,2.22,0,0,1-.33.25,5.3,5.3,0,0,1-.48.28q-.27.14-.56.26a4.09,4.09,0,0,1-.58.19V8a5.59,5.59,0,0,0,.67-.24q.35-.15.7-.33T18,7a5.14,5.14,0,0,0,.53-.4h.36Z" fill="#2b3033"/><path d="M27,10.5a8.37,8.37,0,0,1-.23,2.05,4.58,4.58,0,0,1-.67,1.52,3,3,0,0,1-1.07.95,3.11,3.11,0,0,1-1.44.33,3.45,3.45,0,0,1-1.46-.29v-.92a3,3,0,0,0,1.49.39,2.16,2.16,0,0,0,1-.23,2.11,2.11,0,0,0,.76-.68,3.35,3.35,0,0,0,.47-1.1A6.24,6.24,0,0,0,26.06,11h0a1.92,1.92,0,0,1-1.87,1.08,2.52,2.52,0,0,1-1-.19,2.27,2.27,0,0,1-.78-.54,2.47,2.47,0,0,1-.51-.83,3,3,0,0,1-.18-1.06,3.09,3.09,0,0,1,.2-1.14,2.65,2.65,0,0,1,.56-.89,2.52,2.52,0,0,1,.86-.58,2.8,2.8,0,0,1,1.08-.21,2.39,2.39,0,0,1,1.12.25,2.25,2.25,0,0,1,.82.74,3.68,3.68,0,0,1,.51,1.2A6.87,6.87,0,0,1,27,10.5Zm-1-.86a2.93,2.93,0,0,0-.13-.88,2.14,2.14,0,0,0-.35-.68A1.56,1.56,0,0,0,25,7.63a1.47,1.47,0,0,0-.67-.16,1.52,1.52,0,0,0-.64.14,1.55,1.55,0,0,0-.52.39,1.85,1.85,0,0,0-.35.59,2.15,2.15,0,0,0-.13.75,2.46,2.46,0,0,0,.12.8,1.66,1.66,0,0,0,.34.59,1.48,1.48,0,0,0,.54.37,1.81,1.81,0,0,0,.69.13A1.59,1.59,0,0,0,25,11.1a1.67,1.67,0,0,0,.52-.34,1.57,1.57,0,0,0,.35-.5A1.55,1.55,0,0,0,26,9.63Z" fill="#2b3033"/><path d="M28.15,12.86a2.24,2.24,0,0,1,.11-.67,2.43,2.43,0,0,1,.3-.63A2.5,2.5,0,0,1,29,11a2.32,2.32,0,0,1,.66-.38,2.49,2.49,0,0,1-.87-.78,1.85,1.85,0,0,1-.32-1.06,2,2,0,0,1,.67-1.54,2.29,2.29,0,0,1,.75-.45,2.8,2.8,0,0,1,1.88,0,2.33,2.33,0,0,1,.75.45,2,2,0,0,1,.49.68,2.05,2.05,0,0,1,.18.85,1.85,1.85,0,0,1-.32,1.06,2.52,2.52,0,0,1-.86.78,2.3,2.3,0,0,1,.65.38,2.53,2.53,0,0,1,.48.53,2.43,2.43,0,0,1,.3.63,2.24,2.24,0,0,1,.11.67,2.5,2.5,0,0,1-.2,1,2.25,2.25,0,0,1-.56.78,2.58,2.58,0,0,1-.86.51,3.22,3.22,0,0,1-1.1.18,3.18,3.18,0,0,1-1.1-.18,2.62,2.62,0,0,1-.86-.51,2.27,2.27,0,0,1-.57-.78A2.46,2.46,0,0,1,28.15,12.86Zm1-.08a2,2,0,0,0,.12.71,1.53,1.53,0,0,0,.34.54,1.48,1.48,0,0,0,.53.34,1.93,1.93,0,0,0,.69.12,1.83,1.83,0,0,0,.68-.12,1.58,1.58,0,0,0,.54-.35,1.55,1.55,0,0,0,.35-.54,1.89,1.89,0,0,0,.13-.7,1.8,1.8,0,0,0-.12-.66,1.65,1.65,0,0,0-.34-.54,1.61,1.61,0,0,0-.53-.37,1.73,1.73,0,0,0-.7-.13,1.75,1.75,0,0,0-.67.13,1.61,1.61,0,0,0-.53.35,1.63,1.63,0,0,0-.35.54A1.79,1.79,0,0,0,29.19,12.78Zm.3-3.9a1.39,1.39,0,0,0,.85,1.3,1.38,1.38,0,0,0,1.08,0,1.4,1.4,0,0,0,.44-.3,1.46,1.46,0,0,0,.3-.45,1.35,1.35,0,0,0,.11-.55,1.44,1.44,0,0,0-.11-.56,1.38,1.38,0,0,0-1.29-.85,1.4,1.4,0,0,0-.57.11,1.37,1.37,0,0,0-.44.3,1.32,1.32,0,0,0-.28.45A1.51,1.51,0,0,0,29.49,8.88Z" fill="#2b3033"/><path d="M40.08,12.54a3.11,3.11,0,0,1-.2,1.13,2.72,2.72,0,0,1-.55.89,2.46,2.46,0,0,1-.84.58,2.65,2.65,0,0,1-1.05.21,2.33,2.33,0,0,1-2-1,3.64,3.64,0,0,1-.53-1.21,6.56,6.56,0,0,1-.18-1.61,7.57,7.57,0,0,1,.24-2A4.83,4.83,0,0,1,35.67,8a3.19,3.19,0,0,1,1.08-1,2.9,2.9,0,0,1,1.41-.35,3.4,3.4,0,0,1,1.39.24v.91a3,3,0,0,0-1.37-.33,2,2,0,0,0-1,.25,2.33,2.33,0,0,0-.77.71,3.47,3.47,0,0,0-.5,1.11A5.63,5.63,0,0,0,35.73,11h0a2,2,0,0,1,1.92-1,2.52,2.52,0,0,1,1,.19,2.14,2.14,0,0,1,.76.53,2.39,2.39,0,0,1,.48.82A3.11,3.11,0,0,1,40.08,12.54Zm-1,.12a2.61,2.61,0,0,0-.11-.79,1.72,1.72,0,0,0-.32-.6,1.38,1.38,0,0,0-.51-.38,1.73,1.73,0,0,0-.69-.13,1.62,1.62,0,0,0-.66.13,1.65,1.65,0,0,0-.53.37,1.71,1.71,0,0,0-.47,1.19,2.61,2.61,0,0,0,.12.81,2.1,2.1,0,0,0,.35.66,1.64,1.64,0,0,0,.53.44,1.45,1.45,0,0,0,.68.16,1.56,1.56,0,0,0,.66-.14,1.48,1.48,0,0,0,.51-.38,1.78,1.78,0,0,0,.33-.59A2.33,2.33,0,0,0,39.09,12.66Z" fill="#2b3033"/><path d="M44.6,12.24H41.4v-.76h3.2Z" fill="#2b3033"/><path d="M49.88,9a1.74,1.74,0,0,0-.12-.67,1.3,1.3,0,0,0-.82-.76,1.92,1.92,0,0,0-.61-.09,2,2,0,0,0-.55.08,2.68,2.68,0,0,0-.52.21,3.23,3.23,0,0,0-.49.32,3.56,3.56,0,0,0-.44.42v-1a2.87,2.87,0,0,1,.91-.6,3.19,3.19,0,0,1,1.22-.21,3,3,0,0,1,1,.15,2.19,2.19,0,0,1,.76.44,2,2,0,0,1,.51.71,2.39,2.39,0,0,1,.18,1,3.32,3.32,0,0,1-.11.9,2.79,2.79,0,0,1-.35.76,3.68,3.68,0,0,1-.58.69,8.26,8.26,0,0,1-.83.67q-.59.42-1,.72a4.31,4.31,0,0,0-.61.56,1.62,1.62,0,0,0-.32.52,1.82,1.82,0,0,0-.09.6h4.18v.86H46v-.42a3.47,3.47,0,0,1,.12-.95,2.46,2.46,0,0,1,.39-.78,4.32,4.32,0,0,1,.71-.74q.44-.37,1.07-.83a6.76,6.76,0,0,0,.76-.63,3.26,3.26,0,0,0,.5-.6,2.15,2.15,0,0,0,.27-.61A2.61,2.61,0,0,0,49.88,9Z" fill="#2b3033"/><path d="M57.8,11a8.25,8.25,0,0,1-.19,1.87,4.36,4.36,0,0,1-.55,1.37,2.48,2.48,0,0,1-.88.85,2.42,2.42,0,0,1-1.19.29,2.26,2.26,0,0,1-1.13-.28,2.36,2.36,0,0,1-.83-.81,4.11,4.11,0,0,1-.52-1.31,8.1,8.1,0,0,1-.18-1.78,9.17,9.17,0,0,1,.18-1.95,4.45,4.45,0,0,1,.54-1.42,2.41,2.41,0,0,1,.89-.86,2.49,2.49,0,0,1,1.22-.29Q57.8,6.66,57.8,11Zm-1,.09q0-3.59-1.71-3.59t-1.8,3.65q0,3.4,1.76,3.4T56.82,11.06Z" fill="#2b3033"/><path d="M62.54,15.2h-1V7.94a2.22,2.22,0,0,1-.33.25,5.3,5.3,0,0,1-.48.28q-.27.14-.56.26a4.09,4.09,0,0,1-.58.19V8a5.59,5.59,0,0,0,.67-.24q.35-.15.7-.33T61.64,7a5.14,5.14,0,0,0,.53-.4h.36Z" fill="#2b3033"/><path d="M70.68,7.36l-.47.83q-.27.5-.58,1.12T69,10.64q-.32.71-.59,1.48t-.48,1.54a11.49,11.49,0,0,0-.3,1.54h-1a11.68,11.68,0,0,1,.33-1.53q.22-.78.5-1.54T68,10.68q.31-.7.6-1.28t.54-1l.39-.7H65.34V6.8h5.34Z" fill="#2b3033"/><path d="M72.54,15.33a.62.62,0,0,1-.46-.19.64.64,0,0,1-.19-.46.65.65,0,0,1,.19-.47.62.62,0,0,1,.46-.2.63.63,0,0,1,.47.2.64.64,0,0,1,.19.47.63.63,0,0,1-.19.46A.64.64,0,0,1,72.54,15.33Z" fill="#2b3033"/><path d="M85,15.2H83.79L79.46,8.5A2.8,2.8,0,0,1,79.19,8h0a8.65,8.65,0,0,1,0,1.15V15.2h-1V6.8H79.5l4.21,6.59q.26.41.34.56h0A8.89,8.89,0,0,1,84,12.72V6.8h1Z" fill="#2b3033"/><path d="M91.36,15.2h-1v-.94h0a2,2,0,0,1-1.85,1.08,2,2,0,0,1-1.4-.47,1.64,1.64,0,0,1-.51-1.26q0-1.68,2-2l1.8-.25q0-1.53-1.24-1.53a3,3,0,0,0-2,.74v-1a3.72,3.72,0,0,1,2-.56q2.12,0,2.12,2.24Zm-1-3-1.45.2a2.35,2.35,0,0,0-1,.33,1,1,0,0,0-.34.84.92.92,0,0,0,.31.72,1.21,1.21,0,0,0,.83.28,1.54,1.54,0,0,0,1.18-.5,1.79,1.79,0,0,0,.47-1.27Z" fill="#2b3033"/><path d="M96,15.14a1.85,1.85,0,0,1-.9.19q-1.58,0-1.58-1.76V10h-1V9.2h1V7.74l1-.31V9.2H96V10H94.45V13.4a1.4,1.4,0,0,0,.21.86.82.82,0,0,0,.68.26,1,1,0,0,0,.63-.2Z" fill="#2b3033"/><path d="M97.73,7.68a.61.61,0,0,1-.44-.18.59.59,0,0,1-.18-.45.62.62,0,0,1,.62-.63.62.62,0,0,1,.45.18.63.63,0,0,1,0,.89A.62.62,0,0,1,97.73,7.68Zm.47,7.52h-1v-6h1Z" fill="#2b3033"/><path d="M102.65,15.34a2.78,2.78,0,0,1-2.12-.84,3.11,3.11,0,0,1-.79-2.23,3.24,3.24,0,0,1,.83-2.36,3,3,0,0,1,2.23-.85,2.69,2.69,0,0,1,2.09.83,3.28,3.28,0,0,1,.75,2.29,3.22,3.22,0,0,1-.81,2.3A2.84,2.84,0,0,1,102.65,15.34Zm.07-5.47a1.83,1.83,0,0,0-1.46.63,2.59,2.59,0,0,0-.54,1.74,2.45,2.45,0,0,0,.54,1.68,1.85,1.85,0,0,0,1.46.62,1.76,1.76,0,0,0,1.43-.6,2.62,2.62,0,0,0,.5-1.72,2.66,2.66,0,0,0-.5-1.73A1.75,1.75,0,0,0,102.72,9.87Z" fill="#2b3033"/><path d="M112.16,15.2h-1V11.78q0-1.91-1.39-1.91a1.51,1.51,0,0,0-1.19.54,2,2,0,0,0-.47,1.37V15.2h-1v-6h1v1h0a2.17,2.17,0,0,1,2-1.14,1.84,1.84,0,0,1,1.51.64,2.83,2.83,0,0,1,.52,1.84Z" fill="#2b3033"/><path d="M118.26,15.2h-1v-.94h0a2,2,0,0,1-1.85,1.08,2,2,0,0,1-1.4-.47,1.64,1.64,0,0,1-.51-1.26q0-1.68,2-2l1.8-.25q0-1.53-1.24-1.53a3,3,0,0,0-2,.74v-1a3.72,3.72,0,0,1,2-.56q2.12,0,2.12,2.24Zm-1-3-1.45.2a2.35,2.35,0,0,0-1,.33,1,1,0,0,0-.34.84.92.92,0,0,0,.31.72,1.21,1.21,0,0,0,.83.28,1.54,1.54,0,0,0,1.18-.5,1.79,1.79,0,0,0,.47-1.27Z" fill="#2b3033"/><path d="M121,15.2h-1V6.32h1Z" fill="#2b3033"/><path d="M127.38,15.2h-1V6.8h1Z" fill="#2b3033"/><path d="M134.44,15.2h-1V11.78q0-1.91-1.39-1.91a1.51,1.51,0,0,0-1.19.54,2,2,0,0,0-.47,1.37V15.2h-1v-6h1v1h0a2.17,2.17,0,0,1,2-1.14,1.84,1.84,0,0,1,1.51.64,2.83,2.83,0,0,1,.52,1.84Z" fill="#2b3033"/><path d="M135.89,15V14a2.84,2.84,0,0,0,1.73.58q1.27,0,1.27-.84a.73.73,0,0,0-.11-.41,1.08,1.08,0,0,0-.29-.3,2.26,2.26,0,0,0-.43-.23l-.54-.21a6.9,6.9,0,0,1-.7-.32,2.12,2.12,0,0,1-.5-.36,1.35,1.35,0,0,1-.3-.46,1.63,1.63,0,0,1-.1-.6,1.43,1.43,0,0,1,.19-.75,1.71,1.71,0,0,1,.52-.54,2.4,2.4,0,0,1,.74-.33,3.26,3.26,0,0,1,.85-.11,3.44,3.44,0,0,1,1.39.27v1a2.72,2.72,0,0,0-1.52-.43,1.78,1.78,0,0,0-.49.06,1.19,1.19,0,0,0-.37.17.8.8,0,0,0-.24.27.7.7,0,0,0-.08.34.82.82,0,0,0,.08.39.86.86,0,0,0,.25.28,1.9,1.9,0,0,0,.4.22l.53.22a7.42,7.42,0,0,1,.71.31,2.45,2.45,0,0,1,.54.36,1.42,1.42,0,0,1,.34.47,1.5,1.5,0,0,1,.12.63,1.48,1.48,0,0,1-.2.77,1.68,1.68,0,0,1-.52.54,2.4,2.4,0,0,1-.76.32,3.73,3.73,0,0,1-.9.11A3.4,3.4,0,0,1,135.89,15Z" fill="#2b3033"/><path d="M144.13,15.14a1.85,1.85,0,0,1-.9.19q-1.58,0-1.58-1.76V10h-1V9.2h1V7.74l1-.31V9.2h1.51V10h-1.51V13.4a1.4,1.4,0,0,0,.21.86.82.82,0,0,0,.68.26,1,1,0,0,0,.63-.2Z" fill="#2b3033"/><path d="M148.54,10.17a1.18,1.18,0,0,0-.73-.19,1.23,1.23,0,0,0-1,.58,2.68,2.68,0,0,0-.41,1.58V15.2h-1v-6h1v1.24h0a2.1,2.1,0,0,1,.63-1A1.43,1.43,0,0,1,148,9.1a1.57,1.57,0,0,1,.57.08Z" fill="#2b3033"/><path d="M154.43,15.2h-1v-.95h0a2,2,0,0,1-1.85,1.09q-2.14,0-2.14-2.55V9.2h1v3.43q0,1.9,1.45,1.9A1.47,1.47,0,0,0,153,14a2,2,0,0,0,.45-1.36V9.2h1Z" fill="#2b3033"/><path d="M164.89,15.2h-1V11.76a2.6,2.6,0,0,0-.31-1.44,1.17,1.17,0,0,0-1-.45,1.28,1.28,0,0,0-1,.56,2.15,2.15,0,0,0-.43,1.35V15.2h-1V11.64q0-1.77-1.37-1.77a1.26,1.26,0,0,0-1,.53,2.19,2.19,0,0,0-.41,1.38V15.2h-1v-6h1v.95h0a2,2,0,0,1,1.86-1.09,1.73,1.73,0,0,1,1.7,1.24,2.14,2.14,0,0,1,2-1.24q2,0,2,2.44Z" fill="#2b3033"/><path d="M171.53,12.44h-4.24a2.24,2.24,0,0,0,.54,1.55,1.86,1.86,0,0,0,1.42.54,3,3,0,0,0,1.86-.67v.9a3.48,3.48,0,0,1-2.09.57,2.54,2.54,0,0,1-2-.82,3.35,3.35,0,0,1-.73-2.3,3.28,3.28,0,0,1,.79-2.28,2.55,2.55,0,0,1,2-.88,2.26,2.26,0,0,1,1.82.76,3.18,3.18,0,0,1,.64,2.12Zm-1-.81a2,2,0,0,0-.4-1.29,1.37,1.37,0,0,0-1.1-.46,1.55,1.55,0,0,0-1.15.49,2.21,2.21,0,0,0-.59,1.27Z" fill="#2b3033"/><path d="M178,15.2h-1V11.78q0-1.91-1.39-1.91a1.51,1.51,0,0,0-1.19.54,2,2,0,0,0-.47,1.37V15.2h-1v-6h1v1h0a2.17,2.17,0,0,1,2-1.14,1.84,1.84,0,0,1,1.51.64,2.83,2.83,0,0,1,.52,1.84Z" fill="#2b3033"/><path d="M182.56,15.14a1.85,1.85,0,0,1-.9.19q-1.58,0-1.58-1.76V10h-1V9.2h1V7.74l1-.31V9.2h1.51V10H181V13.4a1.4,1.4,0,0,0,.21.86.82.82,0,0,0,.68.26,1,1,0,0,0,.63-.2Z" fill="#2b3033"/><path d="M183.48,15V14a2.84,2.84,0,0,0,1.73.58q1.27,0,1.27-.84a.73.73,0,0,0-.11-.41,1.08,1.08,0,0,0-.29-.3,2.26,2.26,0,0,0-.43-.23l-.54-.21a6.9,6.9,0,0,1-.7-.32,2.12,2.12,0,0,1-.5-.36,1.35,1.35,0,0,1-.3-.46,1.63,1.63,0,0,1-.1-.6,1.43,1.43,0,0,1,.19-.75,1.71,1.71,0,0,1,.52-.54,2.4,2.4,0,0,1,.74-.33,3.26,3.26,0,0,1,.85-.11,3.44,3.44,0,0,1,1.39.27v1a2.72,2.72,0,0,0-1.52-.43,1.78,1.78,0,0,0-.49.06,1.19,1.19,0,0,0-.37.17.8.8,0,0,0-.24.27.7.7,0,0,0-.08.34.82.82,0,0,0,.08.39.86.86,0,0,0,.25.28,1.9,1.9,0,0,0,.4.22l.53.22a7.42,7.42,0,0,1,.71.31,2.45,2.45,0,0,1,.54.36,1.42,1.42,0,0,1,.34.47,1.5,1.5,0,0,1,.12.63,1.48,1.48,0,0,1-.2.77,1.68,1.68,0,0,1-.52.54,2.4,2.4,0,0,1-.76.32,3.73,3.73,0,0,1-.9.11A3.4,3.4,0,0,1,183.48,15Z" fill="#2b3033"/><path d="M189.27,15.33a.62.62,0,0,1-.46-.19.64.64,0,0,1-.19-.46.65.65,0,0,1,.19-.47.62.62,0,0,1,.46-.2.63.63,0,0,1,.47.2.64.64,0,0,1,.19.47.63.63,0,0,1-.19.46A.64.64,0,0,1,189.27,15.33Z" fill="#2b3033"/><path d="M201.46,15.2h-1.09l-.89-2.36h-3.56l-.84,2.36H194l3.22-8.4h1ZM199.15,12l-1.32-3.58a3.43,3.43,0,0,1-.13-.56h0a3.14,3.14,0,0,1-.13.56L196.24,12Z" fill="#2b3033"/><path d="M203.52,15.2h-1V6.32h1Z" fill="#2b3033"/><path d="M206.43,15.2h-1V6.32h1Z" fill="#2b3033"/><path d="M214.79,10.17a1.18,1.18,0,0,0-.73-.19,1.23,1.23,0,0,0-1,.58,2.68,2.68,0,0,0-.41,1.58V15.2h-1v-6h1v1.24h0a2.1,2.1,0,0,1,.63-1,1.43,1.43,0,0,1,.94-.35,1.57,1.57,0,0,1,.57.08Z" fill="#2b3033"/><path d="M216.33,7.68a.61.61,0,0,1-.44-.18.59.59,0,0,1-.18-.45.62.62,0,0,1,.62-.63.62.62,0,0,1,.45.18.63.63,0,0,1,0,.89A.62.62,0,0,1,216.33,7.68Zm.47,7.52h-1v-6h1Z" fill="#2b3033"/><path d="M223.86,14.72q0,3.3-3.16,3.3a4.25,4.25,0,0,1-1.95-.42v-1a4,4,0,0,0,1.93.56q2.21,0,2.21-2.36v-.66h0a2.43,2.43,0,0,1-3.86.35,3.2,3.2,0,0,1-.68-2.15,3.74,3.74,0,0,1,.74-2.43,2.46,2.46,0,0,1,2-.9,2,2,0,0,1,1.8,1h0V9.2h1Zm-1-2.23V11.6a1.72,1.72,0,0,0-.48-1.22,1.59,1.59,0,0,0-1.2-.51,1.67,1.67,0,0,0-1.39.65,2.89,2.89,0,0,0-.5,1.81,2.48,2.48,0,0,0,.48,1.6,1.56,1.56,0,0,0,1.28.6,1.67,1.67,0,0,0,1.32-.57A2.14,2.14,0,0,0,222.9,12.49Z" fill="#2b3033"/><path d="M230.79,15.2h-1V11.74q0-1.87-1.39-1.87a1.52,1.52,0,0,0-1.18.54,2,2,0,0,0-.48,1.39v3.4h-1V6.32h1V10.2h0a2.18,2.18,0,0,1,2-1.14q2,0,2,2.44Z" fill="#2b3033"/><path d="M235.38,15.14a1.85,1.85,0,0,1-.9.19q-1.58,0-1.58-1.76V10h-1V9.2h1V7.74l1-.31V9.2h1.51V10h-1.51V13.4a1.4,1.4,0,0,0,.21.86.82.82,0,0,0,.68.26,1,1,0,0,0,.63-.2Z" fill="#2b3033"/><path d="M236.3,15V14a2.84,2.84,0,0,0,1.73.58q1.27,0,1.27-.84a.73.73,0,0,0-.11-.41,1.08,1.08,0,0,0-.29-.3,2.26,2.26,0,0,0-.43-.23l-.54-.21a6.9,6.9,0,0,1-.7-.32,2.12,2.12,0,0,1-.5-.36,1.35,1.35,0,0,1-.3-.46,1.63,1.63,0,0,1-.1-.6,1.43,1.43,0,0,1,.19-.75A1.71,1.71,0,0,1,237,9.5a2.4,2.4,0,0,1,.74-.33,3.26,3.26,0,0,1,.85-.11,3.44,3.44,0,0,1,1.39.27v1a2.72,2.72,0,0,0-1.52-.43,1.78,1.78,0,0,0-.49.06,1.19,1.19,0,0,0-.37.17.8.8,0,0,0-.24.27.7.7,0,0,0-.08.34.82.82,0,0,0,.08.39.86.86,0,0,0,.25.28,1.9,1.9,0,0,0,.4.22l.53.22a7.42,7.42,0,0,1,.71.31,2.45,2.45,0,0,1,.54.36,1.42,1.42,0,0,1,.34.47,1.5,1.5,0,0,1,.12.63,1.48,1.48,0,0,1-.2.77,1.68,1.68,0,0,1-.52.54,2.4,2.4,0,0,1-.76.32,3.73,3.73,0,0,1-.9.11A3.4,3.4,0,0,1,236.3,15Z" fill="#2b3033"/><path d="M248.17,10.17a1.18,1.18,0,0,0-.73-.19,1.23,1.23,0,0,0-1,.58,2.68,2.68,0,0,0-.41,1.58V15.2h-1v-6h1v1.24h0a2.1,2.1,0,0,1,.63-1,1.43,1.43,0,0,1,.94-.35,1.57,1.57,0,0,1,.57.08Z" fill="#2b3033"/><path d="M253.88,12.44h-4.24a2.24,2.24,0,0,0,.54,1.55,1.86,1.86,0,0,0,1.42.54,3,3,0,0,0,1.86-.67v.9a3.48,3.48,0,0,1-2.09.57,2.54,2.54,0,0,1-2-.82,3.35,3.35,0,0,1-.73-2.3,3.28,3.28,0,0,1,.79-2.28,2.55,2.55,0,0,1,2-.88,2.26,2.26,0,0,1,1.82.76,3.18,3.18,0,0,1,.64,2.12Zm-1-.81a2,2,0,0,0-.4-1.29,1.37,1.37,0,0,0-1.1-.46,1.55,1.55,0,0,0-1.15.49,2.21,2.21,0,0,0-.59,1.27Z" fill="#2b3033"/><path d="M255,15V14a2.84,2.84,0,0,0,1.73.58q1.27,0,1.27-.84a.73.73,0,0,0-.11-.41,1.08,1.08,0,0,0-.29-.3,2.26,2.26,0,0,0-.43-.23l-.54-.21a6.9,6.9,0,0,1-.7-.32,2.12,2.12,0,0,1-.5-.36,1.35,1.35,0,0,1-.3-.46,1.63,1.63,0,0,1-.1-.6,1.43,1.43,0,0,1,.19-.75,1.71,1.71,0,0,1,.52-.54,2.4,2.4,0,0,1,.74-.33,3.26,3.26,0,0,1,.85-.11,3.44,3.44,0,0,1,1.39.27v1a2.72,2.72,0,0,0-1.52-.43,1.78,1.78,0,0,0-.49.06,1.19,1.19,0,0,0-.37.17.8.8,0,0,0-.24.27.7.7,0,0,0-.08.34.82.82,0,0,0,.08.39.86.86,0,0,0,.25.28,1.9,1.9,0,0,0,.4.22l.53.22a7.42,7.42,0,0,1,.71.31,2.45,2.45,0,0,1,.54.36,1.42,1.42,0,0,1,.34.47,1.5,1.5,0,0,1,.12.63,1.48,1.48,0,0,1-.2.77,1.68,1.68,0,0,1-.52.54,2.4,2.4,0,0,1-.76.32,3.73,3.73,0,0,1-.9.11A3.4,3.4,0,0,1,255,15Z" fill="#2b3033"/><path d="M265.25,12.44H261a2.24,2.24,0,0,0,.54,1.55,1.86,1.86,0,0,0,1.42.54,3,3,0,0,0,1.86-.67v.9a3.48,3.48,0,0,1-2.09.57,2.54,2.54,0,0,1-2-.82,3.35,3.35,0,0,1-.73-2.3,3.28,3.28,0,0,1,.79-2.28,2.55,2.55,0,0,1,2-.88,2.26,2.26,0,0,1,1.82.76,3.18,3.18,0,0,1,.64,2.12Zm-1-.81a2,2,0,0,0-.4-1.29,1.37,1.37,0,0,0-1.1-.46,1.55,1.55,0,0,0-1.15.49,2.21,2.21,0,0,0-.59,1.27Z" fill="#2b3033"/><path d="M269.83,10.17a1.18,1.18,0,0,0-.73-.19,1.23,1.23,0,0,0-1,.58,2.68,2.68,0,0,0-.41,1.58V15.2h-1v-6h1v1.24h0a2.1,2.1,0,0,1,.63-1,1.43,1.43,0,0,1,.94-.35,1.57,1.57,0,0,1,.57.08Z" fill="#2b3033"/><path d="M276.07,9.2l-2.39,6h-.94l-2.27-6h1.05L273,13.56a3.91,3.91,0,0,1,.21.84h0a4,4,0,0,1,.19-.81l1.59-4.38Z" fill="#2b3033"/><path d="M281.85,12.44h-4.24a2.24,2.24,0,0,0,.54,1.55,1.86,1.86,0,0,0,1.42.54,3,3,0,0,0,1.86-.67v.9a3.48,3.48,0,0,1-2.09.57,2.54,2.54,0,0,1-2-.82,3.35,3.35,0,0,1-.73-2.3,3.28,3.28,0,0,1,.79-2.28,2.55,2.55,0,0,1,2-.88,2.26,2.26,0,0,1,1.82.76,3.18,3.18,0,0,1,.64,2.12Zm-1-.81a2,2,0,0,0-.4-1.29,1.37,1.37,0,0,0-1.1-.46,1.55,1.55,0,0,0-1.15.49,2.21,2.21,0,0,0-.59,1.27Z" fill="#2b3033"/><path d="M288.43,15.2h-1v-1h0a2.22,2.22,0,0,1-2.06,1.16,2.24,2.24,0,0,1-1.81-.81,3.31,3.31,0,0,1-.68-2.19,3.6,3.6,0,0,1,.75-2.38,2.47,2.47,0,0,1,2-.9,1.92,1.92,0,0,1,1.8,1h0V6.32h1Zm-1-2.71V11.6a1.72,1.72,0,0,0-.48-1.23,1.61,1.61,0,0,0-1.22-.5,1.66,1.66,0,0,0-1.38.64,2.82,2.82,0,0,0-.5,1.78,2.54,2.54,0,0,0,.48,1.64,1.58,1.58,0,0,0,1.3.6A1.64,1.64,0,0,0,287,14,2.16,2.16,0,0,0,287.46,12.49Z" fill="#2b3033"/><path d="M290.71,15.33a.62.62,0,0,1-.46-.19.64.64,0,0,1-.19-.46.65.65,0,0,1,.19-.47.62.62,0,0,1,.46-.2.63.63,0,0,1,.47.2.64.64,0,0,1,.19.47.63.63,0,0,1-.19.46A.64.64,0,0,1,290.71,15.33Z" fill="#2b3033"/><path d="M6.09,26.43V29.6h-1V21.2H7.41a3,3,0,0,1,2.09.66,2.34,2.34,0,0,1,.74,1.85,2.55,2.55,0,0,1-.82,2,3.15,3.15,0,0,1-2.22.76Zm0-4.34v3.45h1a2.31,2.31,0,0,0,1.56-.47,1.65,1.65,0,0,0,.54-1.31q0-1.66-2-1.66Z" fill="#065fa3"/><path d="M15.6,29.6h-1v-.94h0a2,2,0,0,1-1.85,1.08,2,2,0,0,1-1.4-.47A1.64,1.64,0,0,1,10.86,28q0-1.68,2-2l1.8-.25q0-1.53-1.24-1.53a3,3,0,0,0-2,.74V24a3.72,3.72,0,0,1,2-.56q2.12,0,2.12,2.24Zm-1-3-1.45.2a2.35,2.35,0,0,0-1,.33,1,1,0,0,0-.34.84.91.91,0,0,0,.31.72,1.21,1.21,0,0,0,.83.28,1.54,1.54,0,0,0,1.18-.5,1.79,1.79,0,0,0,.47-1.27Z" fill="#065fa3"/><path d="M20.2,29.54a1.85,1.85,0,0,1-.9.19q-1.58,0-1.58-1.76V24.42h-1V23.6h1V22.14l1-.31V23.6H20.2v.82H18.68V27.8a1.4,1.4,0,0,0,.21.86.82.82,0,0,0,.68.26,1,1,0,0,0,.63-.2Z" fill="#065fa3"/><path d="M26.21,26.84H22a2.24,2.24,0,0,0,.54,1.55,1.86,1.86,0,0,0,1.42.54,3,3,0,0,0,1.86-.67v.9a3.48,3.48,0,0,1-2.09.57,2.54,2.54,0,0,1-2-.82,3.34,3.34,0,0,1-.73-2.3,3.28,3.28,0,0,1,.79-2.28,2.54,2.54,0,0,1,2-.88,2.26,2.26,0,0,1,1.82.76,3.18,3.18,0,0,1,.64,2.12Zm-1-.81a2,2,0,0,0-.4-1.29,1.37,1.37,0,0,0-1.1-.46,1.55,1.55,0,0,0-1.15.49A2.21,2.21,0,0,0,22,26Z" fill="#065fa3"/><path d="M32.64,29.6h-1V26.18q0-1.91-1.39-1.91a1.51,1.51,0,0,0-1.19.54,2,2,0,0,0-.47,1.37V29.6h-1v-6h1v1h0a2.17,2.17,0,0,1,2-1.14,1.84,1.84,0,0,1,1.51.63,2.83,2.83,0,0,1,.52,1.84Z" fill="#065fa3"/><path d="M37.23,29.54a1.85,1.85,0,0,1-.9.19q-1.58,0-1.58-1.76V24.42h-1V23.6h1V22.14l1-.31V23.6h1.51v.82H35.72V27.8a1.4,1.4,0,0,0,.21.86.82.82,0,0,0,.68.26,1,1,0,0,0,.63-.2Z" fill="#065fa3"/><path d="M42.3,22.08a.61.61,0,0,1-.44-.18.59.59,0,0,1-.18-.45.61.61,0,0,1,.62-.63.62.62,0,0,1,.45.18.6.6,0,0,1,.18.45.59.59,0,0,1-.18.44A.62.62,0,0,1,42.3,22.08Zm.47,7.52h-1v-6h1Z" fill="#065fa3"/><path d="M49.69,29.6h-1V26.18q0-1.91-1.39-1.91a1.51,1.51,0,0,0-1.19.54,2,2,0,0,0-.47,1.37V29.6h-1v-6h1v1h0a2.17,2.17,0,0,1,2-1.14,1.84,1.84,0,0,1,1.51.63,2.83,2.83,0,0,1,.52,1.84Z" fill="#065fa3"/><path d="M54.47,21.56a1.28,1.28,0,0,0-.64-.16q-1,0-1,1.27v.93h1.41v.82H52.82V29.6h-1V24.42h-1V23.6h1v-1a2,2,0,0,1,.54-1.49,1.84,1.84,0,0,1,1.36-.55,1.88,1.88,0,0,1,.7.11Z" fill="#065fa3"/><path d="M57.77,29.74a2.78,2.78,0,0,1-2.12-.84,3.11,3.11,0,0,1-.79-2.23,3.24,3.24,0,0,1,.83-2.36,3,3,0,0,1,2.23-.85,2.69,2.69,0,0,1,2.09.83,3.28,3.28,0,0,1,.75,2.29,3.22,3.22,0,0,1-.81,2.3A2.84,2.84,0,0,1,57.77,29.74Zm.07-5.47a1.83,1.83,0,0,0-1.46.63,2.59,2.59,0,0,0-.54,1.74,2.45,2.45,0,0,0,.54,1.68,1.85,1.85,0,0,0,1.46.62,1.76,1.76,0,0,0,1.43-.6,2.62,2.62,0,0,0,.5-1.72,2.66,2.66,0,0,0-.5-1.73A1.75,1.75,0,0,0,57.84,24.27Z" fill="#065fa3"/><path d="M65.42,24.57a1.18,1.18,0,0,0-.73-.19,1.23,1.23,0,0,0-1,.58,2.68,2.68,0,0,0-.41,1.58V29.6h-1v-6h1v1.24h0a2.1,2.1,0,0,1,.63-1,1.43,1.43,0,0,1,.94-.35,1.57,1.57,0,0,1,.57.08Z" fill="#065fa3"/><path d="M75,29.6H74V26.16a2.6,2.6,0,0,0-.31-1.44,1.17,1.17,0,0,0-1-.45,1.28,1.28,0,0,0-1,.56,2.15,2.15,0,0,0-.43,1.35V29.6h-1V26q0-1.77-1.37-1.77a1.26,1.26,0,0,0-1,.53,2.19,2.19,0,0,0-.41,1.38V29.6h-1v-6h1v.95h0a2,2,0,0,1,1.86-1.09A1.73,1.73,0,0,1,71,24.7a2.14,2.14,0,0,1,2-1.24q2,0,2,2.44Z" fill="#065fa3"/><path d="M81.07,29.6h-1v-.94h0a2,2,0,0,1-1.85,1.08,2,2,0,0,1-1.4-.47A1.64,1.64,0,0,1,76.33,28q0-1.68,2-2l1.8-.25q0-1.53-1.24-1.53a3,3,0,0,0-2,.74V24a3.72,3.72,0,0,1,2-.56q2.12,0,2.12,2.24Zm-1-3-1.45.2a2.35,2.35,0,0,0-1,.33,1,1,0,0,0-.34.84.91.91,0,0,0,.31.72,1.21,1.21,0,0,0,.83.28,1.54,1.54,0,0,0,1.18-.5,1.79,1.79,0,0,0,.47-1.27Z" fill="#065fa3"/><path d="M85.66,29.54a1.85,1.85,0,0,1-.9.19q-1.58,0-1.58-1.76V24.42h-1V23.6h1V22.14l1-.31V23.6h1.51v.82H84.15V27.8a1.4,1.4,0,0,0,.21.86.82.82,0,0,0,.68.26,1,1,0,0,0,.63-.2Z" fill="#065fa3"/><path d="M87.44,22.08A.61.61,0,0,1,87,21.9a.59.59,0,0,1-.18-.45.61.61,0,0,1,.62-.63.62.62,0,0,1,.45.18.6.6,0,0,1,.18.45.59.59,0,0,1-.18.44A.62.62,0,0,1,87.44,22.08Zm.47,7.52h-1v-6h1Z" fill="#065fa3"/><path d="M92.36,29.74a2.78,2.78,0,0,1-2.12-.84,3.11,3.11,0,0,1-.79-2.23,3.24,3.24,0,0,1,.83-2.36,3,3,0,0,1,2.23-.85,2.69,2.69,0,0,1,2.09.83,3.28,3.28,0,0,1,.75,2.29,3.22,3.22,0,0,1-.81,2.3A2.84,2.84,0,0,1,92.36,29.74Zm.07-5.47A1.83,1.83,0,0,0,91,24.9a2.59,2.59,0,0,0-.54,1.74A2.45,2.45,0,0,0,91,28.32a1.85,1.85,0,0,0,1.46.62,1.76,1.76,0,0,0,1.43-.6,2.62,2.62,0,0,0,.5-1.72,2.66,2.66,0,0,0-.5-1.73A1.75,1.75,0,0,0,92.43,24.27Z" fill="#065fa3"/><path d="M101.86,29.6h-1V26.18q0-1.91-1.39-1.91a1.51,1.51,0,0,0-1.19.54,2,2,0,0,0-.47,1.37V29.6h-1v-6h1v1h0a2.17,2.17,0,0,1,2-1.14,1.84,1.84,0,0,1,1.51.63,2.83,2.83,0,0,1,.52,1.84Z" fill="#065fa3"/><path d="M4,31v-.7h98.7V31Z" fill="#065fa3"/><rect x="76.5" y="40.5" width="186" height="20" fill="#fff"/><path d="M262,41V60H77V41H262m1-1H76V61H263V40Z" fill="#4d5359"/><path d="M88,55H87V51.54q0-1.87-1.39-1.87a1.52,1.52,0,0,0-1.18.54,2,2,0,0,0-.48,1.39V55H83V46.12h1V50h0a2.18,2.18,0,0,1,2-1.14q2,0,2,2.44Z" fill="#2b3033"/><path d="M92.55,54.94a1.85,1.85,0,0,1-.9.19q-1.58,0-1.58-1.76V49.82H89V49h1V47.54l1-.31V49h1.51v.82H91V53.2a1.4,1.4,0,0,0,.21.86.82.82,0,0,0,.68.26,1,1,0,0,0,.63-.2Z" fill="#2b3033"/><path d="M96.61,54.94a1.85,1.85,0,0,1-.9.19q-1.58,0-1.58-1.76V49.82h-1V49h1V47.54l1-.31V49h1.51v.82H95.1V53.2a1.4,1.4,0,0,0,.21.86.82.82,0,0,0,.68.26,1,1,0,0,0,.63-.2Z" fill="#2b3033"/><path d="M98.88,54.13h0v3.63h-1V49h1v1.05h0a2.27,2.27,0,0,1,2.07-1.2,2.2,2.2,0,0,1,1.81.81,3.34,3.34,0,0,1,.65,2.16,3.72,3.72,0,0,1-.73,2.41,2.44,2.44,0,0,1-2,.91A2,2,0,0,1,98.88,54.13Zm0-2.42v.84a1.78,1.78,0,0,0,.48,1.26,1.72,1.72,0,0,0,2.6-.15,3.06,3.06,0,0,0,.5-1.86,2.42,2.42,0,0,0-.46-1.57,1.53,1.53,0,0,0-1.25-.57,1.7,1.7,0,0,0-1.35.58A2.14,2.14,0,0,0,98.86,51.71Z" fill="#2b3033"/><path d="M105.29,50.17a.62.62,0,0,1-.46-.19.64.64,0,0,1-.19-.46.62.62,0,0,1,.19-.46.63.63,0,0,1,.46-.19.65.65,0,0,1,.47.19.61.61,0,0,1,.19.46.63.63,0,0,1-.19.46A.64.64,0,0,1,105.29,50.17Zm0,5a.62.62,0,0,1-.46-.19.64.64,0,0,1-.19-.46.65.65,0,0,1,.19-.47.62.62,0,0,1,.46-.2.63.63,0,0,1,.47.2.64.64,0,0,1,.19.47.63.63,0,0,1-.19.46A.64.64,0,0,1,105.29,55.13Z" fill="#2b3033"/><path d="M111.34,46.6l-4,9.8h-.9l4-9.8Z" fill="#2b3033"/><path d="M116,46.6l-4,9.8h-.9l4-9.8Z" fill="#2b3033"/><path d="M124.46,49l-1.8,6h-1l-1.24-4.29a2.8,2.8,0,0,1-.09-.56h0a2.63,2.63,0,0,1-.12.54L118.85,55h-1l-1.82-6h1l1.24,4.51a2.72,2.72,0,0,1,.08.54h0a2.52,2.52,0,0,1,.11-.55l1.38-4.5h.88l1.24,4.52a3.23,3.23,0,0,1,.09.54h0a2.49,2.49,0,0,1,.1-.54L123.51,49Z" fill="#2b3033"/><path d="M133.13,49l-1.8,6h-1l-1.24-4.29a2.8,2.8,0,0,1-.09-.56h0a2.63,2.63,0,0,1-.12.54L127.52,55h-1l-1.82-6h1L127,53.51a2.72,2.72,0,0,1,.08.54h0a2.52,2.52,0,0,1,.11-.55l1.38-4.5h.88l1.24,4.52a3.23,3.23,0,0,1,.09.54h0a2.49,2.49,0,0,1,.1-.54L132.19,49Z" fill="#2b3033"/><path d="M141.81,49,140,55h-1l-1.24-4.29a2.8,2.8,0,0,1-.09-.56h0a2.63,2.63,0,0,1-.12.54L136.19,55h-1l-1.82-6h1l1.24,4.51a2.72,2.72,0,0,1,.08.54h0a2.52,2.52,0,0,1,.11-.55l1.38-4.5h.88l1.24,4.52a3.23,3.23,0,0,1,.09.54h0a2.49,2.49,0,0,1,.1-.54L140.86,49Z" fill="#2b3033"/><path d="M142.66,55.13a.62.62,0,0,1-.46-.19.64.64,0,0,1-.19-.46.65.65,0,0,1,.19-.47.62.62,0,0,1,.46-.2.63.63,0,0,1,.47.2.64.64,0,0,1,.19.47.63.63,0,0,1-.19.46A.64.64,0,0,1,142.66,55.13Z" fill="#2b3033"/><path d="M149.9,55h-1V51.58q0-1.91-1.39-1.91a1.51,1.51,0,0,0-1.19.54,2,2,0,0,0-.47,1.37V55h-1V49h1v1h0a2.17,2.17,0,0,1,2-1.14,1.84,1.84,0,0,1,1.51.64,2.83,2.83,0,0,1,.52,1.84Z" fill="#2b3033"/><path d="M152.21,47.48a.61.61,0,0,1-.44-.18.59.59,0,0,1-.18-.45.62.62,0,0,1,.62-.63.62.62,0,0,1,.45.18.63.63,0,0,1,0,.89A.62.62,0,0,1,152.21,47.48Zm.47,7.52h-1V49h1Z" fill="#2b3033"/><path d="M155,55.13a.62.62,0,0,1-.46-.19.64.64,0,0,1-.19-.46.65.65,0,0,1,.19-.47.62.62,0,0,1,.46-.2.63.63,0,0,1,.47.2.64.64,0,0,1,.19.47.63.63,0,0,1-.19.46A.64.64,0,0,1,155,55.13Z" fill="#2b3033"/><path d="M161.31,54.72a3.12,3.12,0,0,1-1.64.42,2.72,2.72,0,0,1-2.07-.83,3,3,0,0,1-.79-2.17,3.33,3.33,0,0,1,.85-2.38,3,3,0,0,1,2.27-.9,3.16,3.16,0,0,1,1.39.29v1a2.44,2.44,0,0,0-1.43-.47,1.93,1.93,0,0,0-1.51.66,2.5,2.5,0,0,0-.59,1.73,2.38,2.38,0,0,0,.55,1.66,1.91,1.91,0,0,0,1.49.61,2.41,2.41,0,0,0,1.48-.52Z" fill="#2b3033"/><path d="M165.27,55.14a2.78,2.78,0,0,1-2.12-.84,3.11,3.11,0,0,1-.79-2.23,3.24,3.24,0,0,1,.83-2.36,3,3,0,0,1,2.23-.85,2.69,2.69,0,0,1,2.09.83,3.28,3.28,0,0,1,.75,2.29,3.22,3.22,0,0,1-.81,2.3A2.84,2.84,0,0,1,165.27,55.14Zm.07-5.47a1.83,1.83,0,0,0-1.46.63,2.59,2.59,0,0,0-.54,1.74,2.45,2.45,0,0,0,.54,1.68,1.85,1.85,0,0,0,1.46.62,1.76,1.76,0,0,0,1.43-.6,2.62,2.62,0,0,0,.5-1.72,2.66,2.66,0,0,0-.5-1.73A1.75,1.75,0,0,0,165.34,49.67Z" fill="#2b3033"/><path d="M178.32,55h-1V51.55a2.6,2.6,0,0,0-.31-1.44,1.17,1.17,0,0,0-1-.45,1.28,1.28,0,0,0-1,.56,2.15,2.15,0,0,0-.43,1.35V55h-1V51.44q0-1.77-1.37-1.77a1.26,1.26,0,0,0-1,.53,2.19,2.19,0,0,0-.41,1.38V55h-1V49h1v.95h0a2,2,0,0,1,1.86-1.09,1.73,1.73,0,0,1,1.7,1.24,2.14,2.14,0,0,1,2-1.24q2,0,2,2.44Z" fill="#2b3033"/><path d="M183.92,46.6l-4,9.8H179l4-9.8Z" fill="#2b3033"/><path d="M185.77,55h-1V46.12h1Z" fill="#2b3033"/><path d="M192.54,52.24H188.3a2.24,2.24,0,0,0,.54,1.55,1.86,1.86,0,0,0,1.42.54,3,3,0,0,0,1.86-.67v.9a3.48,3.48,0,0,1-2.09.57,2.54,2.54,0,0,1-2-.82,3.35,3.35,0,0,1-.73-2.3,3.28,3.28,0,0,1,.79-2.28,2.55,2.55,0,0,1,2-.88,2.26,2.26,0,0,1,1.82.76,3.18,3.18,0,0,1,.64,2.12Zm-1-.81a2,2,0,0,0-.4-1.29,1.37,1.37,0,0,0-1.1-.46,1.55,1.55,0,0,0-1.15.49,2.21,2.21,0,0,0-.59,1.27Z" fill="#2b3033"/><path d="M199.11,54.52q0,3.3-3.16,3.3A4.25,4.25,0,0,1,194,57.4v-1a4,4,0,0,0,1.93.56q2.21,0,2.21-2.36V54h0a2.43,2.43,0,0,1-3.86.35,3.2,3.2,0,0,1-.68-2.15,3.74,3.74,0,0,1,.74-2.43,2.46,2.46,0,0,1,2-.9,2,2,0,0,1,1.8,1h0V49h1Zm-1-2.23V51.4a1.72,1.72,0,0,0-.48-1.22,1.59,1.59,0,0,0-1.2-.51,1.67,1.67,0,0,0-1.39.65,2.89,2.89,0,0,0-.5,1.81,2.48,2.48,0,0,0,.48,1.6,1.56,1.56,0,0,0,1.28.6,1.67,1.67,0,0,0,1.32-.57A2.14,2.14,0,0,0,198.15,52.29Z" fill="#2b3033"/><path d="M205.35,55h-1v-.94h0a2,2,0,0,1-1.85,1.08,2,2,0,0,1-1.4-.47,1.64,1.64,0,0,1-.51-1.26q0-1.68,2-2l1.8-.25q0-1.53-1.24-1.53a3,3,0,0,0-2,.74v-1a3.72,3.72,0,0,1,2-.56q2.12,0,2.12,2.24Zm-1-3-1.45.2a2.35,2.35,0,0,0-1,.33,1,1,0,0,0-.34.84.92.92,0,0,0,.31.72,1.21,1.21,0,0,0,.83.28,1.54,1.54,0,0,0,1.18-.5,1.79,1.79,0,0,0,.47-1.27Z" fill="#2b3033"/><path d="M208.12,55h-1V46.12h1Z" fill="#2b3033"/><path d="M213.86,46.6l-4,9.8h-.9l4-9.8Z" fill="#2b3033"/><path d="M215.73,54.13h0v3.63h-1V49h1v1.05h0a2.27,2.27,0,0,1,2.07-1.2,2.2,2.2,0,0,1,1.81.81,3.34,3.34,0,0,1,.65,2.16,3.72,3.72,0,0,1-.73,2.41,2.44,2.44,0,0,1-2,.91A2,2,0,0,1,215.73,54.13Zm0-2.42v.84a1.78,1.78,0,0,0,.48,1.26,1.72,1.72,0,0,0,2.6-.15,3.06,3.06,0,0,0,.5-1.86,2.42,2.42,0,0,0-.46-1.57,1.53,1.53,0,0,0-1.25-.57,1.7,1.7,0,0,0-1.35.58A2.14,2.14,0,0,0,215.71,51.71Z" fill="#2b3033"/><path d="M225.94,55h-1v-.94h0a2,2,0,0,1-1.85,1.08,2,2,0,0,1-1.4-.47,1.64,1.64,0,0,1-.51-1.26q0-1.68,2-2l1.8-.25q0-1.53-1.24-1.53a3,3,0,0,0-2,.74v-1a3.72,3.72,0,0,1,2-.56q2.12,0,2.12,2.24Zm-1-3-1.45.2a2.35,2.35,0,0,0-1,.33,1,1,0,0,0-.34.84.92.92,0,0,0,.31.72,1.21,1.21,0,0,0,.83.28,1.54,1.54,0,0,0,1.18-.5,1.79,1.79,0,0,0,.47-1.27Z" fill="#2b3033"/><path d="M230.53,54.94a1.85,1.85,0,0,1-.9.19q-1.58,0-1.58-1.76V49.82h-1V49h1V47.54l1-.31V49h1.51v.82H229V53.2a1.4,1.4,0,0,0,.21.86.82.82,0,0,0,.68.26,1,1,0,0,0,.63-.2Z" fill="#2b3033"/><path d="M236.54,52.24H232.3a2.24,2.24,0,0,0,.54,1.55,1.86,1.86,0,0,0,1.42.54,3,3,0,0,0,1.86-.67v.9a3.48,3.48,0,0,1-2.09.57,2.54,2.54,0,0,1-2-.82,3.35,3.35,0,0,1-.73-2.3,3.28,3.28,0,0,1,.79-2.28,2.55,2.55,0,0,1,2-.88,2.26,2.26,0,0,1,1.82.76,3.18,3.18,0,0,1,.64,2.12Zm-1-.81a2,2,0,0,0-.4-1.29,1.37,1.37,0,0,0-1.1-.46,1.55,1.55,0,0,0-1.15.49,2.21,2.21,0,0,0-.59,1.27Z" fill="#2b3033"/><path d="M243,55h-1V51.58q0-1.91-1.39-1.91a1.51,1.51,0,0,0-1.19.54,2,2,0,0,0-.47,1.37V55h-1V49h1v1h0a2.17,2.17,0,0,1,2-1.14,1.84,1.84,0,0,1,1.51.64,2.83,2.83,0,0,1,.52,1.84Z" fill="#2b3033"/><path d="M247.57,54.94a1.85,1.85,0,0,1-.9.19q-1.58,0-1.58-1.76V49.82h-1V49h1V47.54l1-.31V49h1.51v.82h-1.51V53.2a1.4,1.4,0,0,0,.21.86.82.82,0,0,0,.68.26,1,1,0,0,0,.63-.2Z" fill="#2b3033"/><path d="M248.49,54.78v-1a2.84,2.84,0,0,0,1.73.58q1.27,0,1.27-.84a.73.73,0,0,0-.11-.41,1.08,1.08,0,0,0-.29-.3,2.26,2.26,0,0,0-.43-.23l-.54-.21a6.9,6.9,0,0,1-.7-.32,2.12,2.12,0,0,1-.5-.36,1.35,1.35,0,0,1-.3-.46,1.63,1.63,0,0,1-.1-.6,1.43,1.43,0,0,1,.19-.75,1.71,1.71,0,0,1,.52-.54,2.4,2.4,0,0,1,.74-.33,3.26,3.26,0,0,1,.85-.11,3.44,3.44,0,0,1,1.39.27v1a2.72,2.72,0,0,0-1.52-.43,1.78,1.78,0,0,0-.49.06,1.19,1.19,0,0,0-.37.17.8.8,0,0,0-.24.27.7.7,0,0,0-.08.34.82.82,0,0,0,.08.39.86.86,0,0,0,.25.28,1.9,1.9,0,0,0,.4.22l.53.22a7.42,7.42,0,0,1,.71.31,2.45,2.45,0,0,1,.54.36,1.42,1.42,0,0,1,.34.47,1.5,1.5,0,0,1,.12.63,1.48,1.48,0,0,1-.2.77,1.68,1.68,0,0,1-.52.54A2.4,2.4,0,0,1,251,55a3.73,3.73,0,0,1-.9.11A3.4,3.4,0,0,1,248.49,54.78Z" fill="#2b3033"/><path d="M257.73,46.6l-4,9.8h-.9l4-9.8Z" fill="#2b3033"/><g id="link_select"><path d="M65.34,43.83c-1.59,0-4.19-2.19-4.79-3.46a9.19,9.19,0,0,0-1.33-1.76,5.75,5.75,0,0,1-1-1.33,1,1,0,0,1,.41-1.19A.64.64,0,0,1,59,36a2.53,2.53,0,0,1,.84.19,22.14,22.14,0,0,1,2.49,1.72V29.22a1,1,0,1,1,1.91,0v6.43h.17V33.1a1,1,0,1,1,1.91,0v2.55h.17v-2a1,1,0,1,1,1.91,0v2h.17V34.14a1,1,0,1,1,1.91,0v6.49c0,1.9-2.7,3.19-3.59,3.19Z" fill="#fff"/><path d="M63.28,28.35a.83.83,0,0,1,.78.87v6.61h.52V33.1a.79.79,0,1,1,1.57,0v2.72h.52V33.68a.79.79,0,1,1,1.57,0v2.14h.52V34.14a.79.79,0,1,1,1.57,0v6.49c0,1.8-2.61,3-3.42,3H65.34c-1.51,0-4.06-2.14-4.64-3.36-.5-1.05-2.09-2.43-2.32-3.07a.78.78,0,0,1,.35-1,.48.48,0,0,1,.26-.06,2.39,2.39,0,0,1,.78.18,29.43,29.43,0,0,1,2.72,1.91v-9a.83.83,0,0,1,.78-.87m0-.35a1.18,1.18,0,0,0-1.13,1.22v8.34A18.09,18.09,0,0,0,59.89,36a2.78,2.78,0,0,0-.9-.2.81.81,0,0,0-.46.12,1.12,1.12,0,0,0-.48,1.39,5.67,5.67,0,0,0,1,1.39,9.1,9.1,0,0,1,1.3,1.72,7.36,7.36,0,0,0,2.07,2.26A5,5,0,0,0,65.34,44H66.9a4.62,4.62,0,0,0,2.21-.9,3.15,3.15,0,0,0,1.55-2.47V34.14a1.18,1.18,0,0,0-1.13-1.22,1.12,1.12,0,0,0-1,.59,1.16,1.16,0,0,0-1.12-1.05,1.12,1.12,0,0,0-1,.57,1.17,1.17,0,0,0-1.13-1.15,1.11,1.11,0,0,0-1,.57V29.22A1.18,1.18,0,0,0,63.28,28Z"/></g></svg>