<svg id="Layer_1" data-name="Layer 1" xmlns="http://www.w3.org/2000/svg" xmlns:xlink="http://www.w3.org/1999/xlink" width="346" height="162" viewBox="0 0 346 162"><defs><linearGradient id="linear-gradient" x1="287" y1="125.05" x2="287" y2="146.97" gradientUnits="userSpaceOnUse"><stop offset="0" stop-color="#ebe9ec"/><stop offset="0.28" stop-color="#e5e6e9"/><stop offset="1" stop-color="#dadfe2"/></linearGradient><linearGradient id="linear-gradient-2" x1="50" y1="81" x2="118.06" y2="81" gradientUnits="userSpaceOnUse"><stop offset="0.01" stop-color="#fff" stop-opacity="0"/><stop offset="0.08" stop-color="#fff" stop-opacity="0.01"/><stop offset="0.14" stop-color="#fff" stop-opacity="0.06"/><stop offset="0.19" stop-color="#fff" stop-opacity="0.13"/><stop offset="0.25" stop-color="#fff" stop-opacity="0.22"/><stop offset="0.3" stop-color="#fff" stop-opacity="0.35"/><stop offset="0.36" stop-color="#fff" stop-opacity="0.51"/><stop offset="0.41" stop-color="#fff" stop-opacity="0.69"/><stop offset="0.46" stop-color="#fff" stop-opacity="0.9"/><stop offset="0.48" stop-color="#fff"/><stop offset="0.51" stop-color="#fff" stop-opacity="0.87"/><stop offset="0.56" stop-color="#fff" stop-opacity="0.67"/><stop offset="0.61" stop-color="#fff" stop-opacity="0.49"/><stop offset="0.66" stop-color="#fff" stop-opacity="0.34"/><stop offset="0.72" stop-color="#fff" stop-opacity="0.21"/><stop offset="0.78" stop-color="#fff" stop-opacity="0.12"/><stop offset="0.84" stop-color="#fff" stop-opacity="0.05"/><stop offset="0.9" stop-color="#fff" stop-opacity="0.01"/><stop offset="0.98" stop-color="#fff" stop-opacity="0"/></linearGradient></defs><title>progress-indicators-update-references</title><polygon points="4 23.92 4 114.96 343.99 114.96 343.99 24 4 23.92" fill="#eef0ef"/><rect x="4" y="114" width="338" height="44" fill="#e1e3e4"/><path d="M0,0V162H346V0ZM342,158H4V29H342Z" fill="#4d5359"/><rect x="4" y="113" width="338" height="1" fill="#a8abae"/><path d="M22.25,15.6q0,3.54-3.2,3.54-3,0-3.05-3.4V10.6h1v5.07c0,1.72.73,2.59,2.18,2.59s2.1-.84,2.1-2.5V10.6h1Z" fill="#fff"/><path d="M25.2,18.13h0v3.63h-1V13h1v1.05h0a2.29,2.29,0,0,1,2.08-1.19,2.2,2.2,0,0,1,1.81.81,3.32,3.32,0,0,1,.65,2.15A3.74,3.74,0,0,1,29,18.24a2.42,2.42,0,0,1-2,.9A2,2,0,0,1,25.2,18.13Zm0-2.42v.84a1.77,1.77,0,0,0,.48,1.26,1.59,1.59,0,0,0,1.23.52,1.6,1.6,0,0,0,1.37-.67,3,3,0,0,0,.49-1.85,2.41,2.41,0,0,0-.46-1.57A1.53,1.53,0,0,0,27,13.67a1.7,1.7,0,0,0-1.35.58A2.15,2.15,0,0,0,25.18,15.71Z" fill="#fff"/><path d="M36.39,19h-1V18h0a2.42,2.42,0,0,1-3.87.35,3.28,3.28,0,0,1-.68-2.19,3.57,3.57,0,0,1,.75-2.38,2.48,2.48,0,0,1,2-.9,1.93,1.93,0,0,1,1.8,1h0V10.12h1Zm-1-2.71V15.4A1.73,1.73,0,0,0,35,14.17a1.64,1.64,0,0,0-1.22-.5,1.66,1.66,0,0,0-1.38.64,2.81,2.81,0,0,0-.5,1.78,2.54,2.54,0,0,0,.48,1.64,1.57,1.57,0,0,0,1.3.6,1.63,1.63,0,0,0,1.3-.58A2.16,2.16,0,0,0,35.43,16.29Z" fill="#fff"/><path d="M42.63,19h-1v-.94h0a2.2,2.2,0,0,1-3.25.61,1.65,1.65,0,0,1-.51-1.26c0-1.12.66-1.78,2-2l1.8-.25q0-1.53-1.23-1.53a2.91,2.91,0,0,0-2,.74v-1a3.76,3.76,0,0,1,2-.56c1.41,0,2.11.75,2.11,2.24Zm-1-3-1.45.2a2.37,2.37,0,0,0-1,.34.93.93,0,0,0-.34.84.89.89,0,0,0,.31.71,1.2,1.2,0,0,0,.84.28,1.53,1.53,0,0,0,1.18-.5,1.79,1.79,0,0,0,.46-1.27Z" fill="#fff"/><path d="M47.23,18.94a1.82,1.82,0,0,1-.9.19c-1,0-1.58-.59-1.58-1.76V13.82h-1V13h1V11.54l1-.32V13h1.52v.82H45.71V17.2a1.37,1.37,0,0,0,.21.86.83.83,0,0,0,.68.26,1.05,1.05,0,0,0,.63-.2Z" fill="#fff"/><path d="M53.24,16.24H49a2.3,2.3,0,0,0,.54,1.55,1.87,1.87,0,0,0,1.42.54,2.91,2.91,0,0,0,1.86-.67v.91a3.5,3.5,0,0,1-2.09.57,2.53,2.53,0,0,1-2-.82A3.35,3.35,0,0,1,48,16a3.28,3.28,0,0,1,.79-2.28,2.54,2.54,0,0,1,2-.88,2.24,2.24,0,0,1,1.82.76,3.18,3.18,0,0,1,.65,2.12Zm-1-.81a1.91,1.91,0,0,0-.4-1.3,1.36,1.36,0,0,0-1.1-.46,1.56,1.56,0,0,0-1.15.48A2.25,2.25,0,0,0,49,15.43Z" fill="#fff"/><path d="M64.13,19H63l-1.41-2.36c-.13-.21-.25-.4-.37-.56a2.15,2.15,0,0,0-.37-.37,1.49,1.49,0,0,0-.41-.22,2,2,0,0,0-.5-.06h-.81V19h-1V10.6h2.51a3.29,3.29,0,0,1,1,.14,2.38,2.38,0,0,1,.81.41,2.06,2.06,0,0,1,.54.7,2.33,2.33,0,0,1,.19,1,2.28,2.28,0,0,1-.13.8,1.92,1.92,0,0,1-.38.65,2,2,0,0,1-.58.49,3.12,3.12,0,0,1-.77.32v0a1.55,1.55,0,0,1,.36.21,2.06,2.06,0,0,1,.3.29,4,4,0,0,1,.28.37l.3.48Zm-5-7.51v3h1.34a1.91,1.91,0,0,0,.68-.12,1.46,1.46,0,0,0,.54-.32,1.38,1.38,0,0,0,.36-.51,1.6,1.6,0,0,0,.13-.67,1.32,1.32,0,0,0-.44-1.05,1.83,1.83,0,0,0-1.26-.38Z" fill="#fff"/><path d="M69.64,16.24H65.41A2.21,2.21,0,0,0,66,17.79a1.85,1.85,0,0,0,1.42.54,2.93,2.93,0,0,0,1.86-.67v.91a3.52,3.52,0,0,1-2.09.57,2.52,2.52,0,0,1-2-.82,3.31,3.31,0,0,1-.73-2.3,3.29,3.29,0,0,1,.8-2.28,2.53,2.53,0,0,1,2-.88,2.25,2.25,0,0,1,1.82.76,3.18,3.18,0,0,1,.64,2.12Zm-1-.81a2,2,0,0,0-.4-1.3,1.36,1.36,0,0,0-1.1-.46,1.55,1.55,0,0,0-1.15.48,2.19,2.19,0,0,0-.59,1.28Z" fill="#fff"/><path d="M74.06,11a1.32,1.32,0,0,0-.64-.16c-.67,0-1,.43-1,1.27V13h1.4v.82h-1.4V19h-1V13.82h-1V13h1V12A2,2,0,0,1,72,10.54,1.81,1.81,0,0,1,73.37,10a1.86,1.86,0,0,1,.69.1Z" fill="#fff"/><path d="M79.68,16.24H75.44A2.25,2.25,0,0,0,76,17.79a1.85,1.85,0,0,0,1.42.54,2.93,2.93,0,0,0,1.86-.67v.91a3.5,3.5,0,0,1-2.09.57,2.52,2.52,0,0,1-2-.82,3.36,3.36,0,0,1-.73-2.3,3.29,3.29,0,0,1,.8-2.28,2.53,2.53,0,0,1,2-.88,2.25,2.25,0,0,1,1.82.76,3.18,3.18,0,0,1,.65,2.12Zm-1-.81a2,2,0,0,0-.4-1.3,1.36,1.36,0,0,0-1.1-.46,1.55,1.55,0,0,0-1.15.48,2.25,2.25,0,0,0-.59,1.28Z" fill="#fff"/><path d="M84.26,14a1.18,1.18,0,0,0-.73-.19,1.23,1.23,0,0,0-1,.58,2.72,2.72,0,0,0-.41,1.58V19h-1V13h1v1.24h0a2.12,2.12,0,0,1,.63-1,1.42,1.42,0,0,1,.94-.36,1.5,1.5,0,0,1,.58.09Z" fill="#fff"/><path d="M90,16.24H85.73a2.21,2.21,0,0,0,.54,1.55,1.85,1.85,0,0,0,1.42.54,2.93,2.93,0,0,0,1.86-.67v.91a3.52,3.52,0,0,1-2.09.57,2.52,2.52,0,0,1-2-.82,3.31,3.31,0,0,1-.73-2.3,3.29,3.29,0,0,1,.8-2.28,2.53,2.53,0,0,1,2-.88,2.25,2.25,0,0,1,1.82.76A3.18,3.18,0,0,1,90,15.74Zm-1-.81a2,2,0,0,0-.4-1.3,1.36,1.36,0,0,0-1.1-.46,1.55,1.55,0,0,0-1.15.48,2.19,2.19,0,0,0-.59,1.28Z" fill="#fff"/><path d="M96.4,19h-1V15.58c0-1.28-.47-1.91-1.4-1.91a1.52,1.52,0,0,0-1.19.54,2,2,0,0,0-.47,1.37V19h-1V13h1v1h0a2.17,2.17,0,0,1,2-1.14,1.83,1.83,0,0,1,1.51.64,2.85,2.85,0,0,1,.52,1.83Z" fill="#fff"/><path d="M102.3,18.72a3.1,3.1,0,0,1-1.64.42,2.72,2.72,0,0,1-2.07-.83,3,3,0,0,1-.79-2.17,3.3,3.3,0,0,1,.85-2.38,3,3,0,0,1,2.27-.9,3.23,3.23,0,0,1,1.39.29v1a2.38,2.38,0,0,0-1.43-.47,1.93,1.93,0,0,0-1.51.66,2.5,2.5,0,0,0-.59,1.73,2.36,2.36,0,0,0,.56,1.66,1.89,1.89,0,0,0,1.48.61,2.39,2.39,0,0,0,1.48-.52Z" fill="#fff"/><path d="M108.57,16.24h-4.23a2.21,2.21,0,0,0,.54,1.55,1.85,1.85,0,0,0,1.41.54,2.94,2.94,0,0,0,1.87-.67v.91a3.52,3.52,0,0,1-2.09.57,2.52,2.52,0,0,1-2-.82,3.31,3.31,0,0,1-.73-2.3,3.29,3.29,0,0,1,.8-2.28,2.53,2.53,0,0,1,2-.88,2.25,2.25,0,0,1,1.82.76,3.18,3.18,0,0,1,.64,2.12Zm-1-.81a2,2,0,0,0-.4-1.3,1.37,1.37,0,0,0-1.1-.46,1.55,1.55,0,0,0-1.15.48,2.19,2.19,0,0,0-.59,1.28Z" fill="#fff"/><path d="M109.66,18.78v-1a2.84,2.84,0,0,0,1.73.58c.85,0,1.27-.28,1.27-.84a.76.76,0,0,0-.11-.41,1,1,0,0,0-.29-.29,2.28,2.28,0,0,0-.44-.24l-.53-.21a6.76,6.76,0,0,1-.7-.32,2.55,2.55,0,0,1-.51-.36,1.52,1.52,0,0,1-.3-.46,1.63,1.63,0,0,1-.1-.61,1.38,1.38,0,0,1,.19-.74,1.78,1.78,0,0,1,.51-.55,2.49,2.49,0,0,1,.74-.33,3.59,3.59,0,0,1,2.25.16v1a2.71,2.71,0,0,0-1.53-.43,1.75,1.75,0,0,0-.48.06,1.15,1.15,0,0,0-.37.17.76.76,0,0,0-.24.27.67.67,0,0,0-.09.34.75.75,0,0,0,.09.39.81.81,0,0,0,.24.29,2.48,2.48,0,0,0,.4.22l.54.21c.26.11.5.21.71.32a2.82,2.82,0,0,1,.54.36,1.41,1.41,0,0,1,.34.47,1.46,1.46,0,0,1,.12.62,1.5,1.5,0,0,1-.19.78,1.61,1.61,0,0,1-.53.54,2.55,2.55,0,0,1-.75.33,3.82,3.82,0,0,1-.9.1A3.41,3.41,0,0,1,109.66,18.78Z" fill="#fff"/><polygon points="335.14 9.97 333.62 8.45 330.07 12 326.52 8.45 325 9.97 328.55 13.52 325 17.07 326.52 18.59 330.07 15.04 333.62 18.59 335.14 17.07 331.59 13.52 335.14 9.97" fill="#fff"/><rect x="253" y="124.99" width="68" height="22.01" fill="url(#linear-gradient)"/><path d="M252,124v24h70V124Zm69,23H253V125h68Z" fill="#a8abae"/><path d="M276.29,139.65a4.89,4.89,0,0,1-2.32.49A3.74,3.74,0,0,1,271.1,139a4.26,4.26,0,0,1-1.08-3,4.46,4.46,0,0,1,1.22-3.26,4.08,4.08,0,0,1,3.07-1.24,4.92,4.92,0,0,1,2,.34v1a4.05,4.05,0,0,0-2-.5,3.08,3.08,0,0,0-2.35,1,3.66,3.66,0,0,0-.9,2.59,3.41,3.41,0,0,0,.85,2.44,2.85,2.85,0,0,0,2.2.92,4.06,4.06,0,0,0,2.19-.57Z" fill="#4d5359"/><path d="M282.17,140h-1v-.94h0a2,2,0,0,1-1.85,1.08,2,2,0,0,1-1.4-.47,1.65,1.65,0,0,1-.51-1.26c0-1.12.66-1.78,2-2l1.8-.25c0-1-.41-1.53-1.24-1.53a2.9,2.9,0,0,0-2,.74v-1a3.75,3.75,0,0,1,2-.56c1.41,0,2.12.75,2.12,2.24Zm-1-3-1.45.2a2.48,2.48,0,0,0-1,.34,1,1,0,0,0-.34.84.9.9,0,0,0,.32.71,1.18,1.18,0,0,0,.83.28,1.51,1.51,0,0,0,1.18-.5,1.8,1.8,0,0,0,.47-1.27Z" fill="#4d5359"/><path d="M289,140h-1v-3.42c0-1.28-.46-1.91-1.39-1.91a1.52,1.52,0,0,0-1.2.54,2,2,0,0,0-.47,1.37V140h-1v-6h1v1h0a2.17,2.17,0,0,1,2-1.14,1.83,1.83,0,0,1,1.51.64,2.79,2.79,0,0,1,.52,1.83Z" fill="#4d5359"/><path d="M294.86,139.72a3.1,3.1,0,0,1-1.64.42,2.73,2.73,0,0,1-2.07-.83,3,3,0,0,1-.79-2.17,3.3,3.3,0,0,1,.85-2.38,3,3,0,0,1,2.27-.9,3.2,3.2,0,0,1,1.39.29v1a2.38,2.38,0,0,0-1.43-.47,2,2,0,0,0-1.51.66,2.5,2.5,0,0,0-.58,1.73,2.36,2.36,0,0,0,.55,1.66,1.89,1.89,0,0,0,1.48.61,2.39,2.39,0,0,0,1.48-.52Z" fill="#4d5359"/><path d="M301.14,137.24H296.9a2.3,2.3,0,0,0,.54,1.55,1.87,1.87,0,0,0,1.42.54,2.93,2.93,0,0,0,1.86-.67v.91a3.5,3.5,0,0,1-2.09.57,2.53,2.53,0,0,1-2-.82,3.36,3.36,0,0,1-.73-2.3,3.29,3.29,0,0,1,.8-2.28,2.53,2.53,0,0,1,2-.88,2.24,2.24,0,0,1,1.82.76,3.18,3.18,0,0,1,.65,2.12Zm-1-.81a2,2,0,0,0-.4-1.3,1.36,1.36,0,0,0-1.1-.46,1.55,1.55,0,0,0-1.15.48,2.25,2.25,0,0,0-.59,1.28Z" fill="#4d5359"/><path d="M303.55,140h-1v-8.88h1Z" fill="#4d5359"/><path d="M31.61,59H30.52l-.9-2.36H26.06L25.22,59H24.13l3.22-8.4h1ZM29.3,55.76,28,52.18a3.91,3.91,0,0,1-.12-.56h0a3.62,3.62,0,0,1-.13.56l-1.31,3.58Z" fill="#4d5359"/><path d="M37.69,59h-1V55.58c0-1.28-.46-1.91-1.39-1.91a1.5,1.5,0,0,0-1.19.54,2,2,0,0,0-.48,1.37V59h-1V53h1v1h0a2.16,2.16,0,0,1,2-1.14,1.84,1.84,0,0,1,1.5.63,2.84,2.84,0,0,1,.52,1.84Z" fill="#4d5359"/><path d="M43.8,59h-1v-.94h0A2,2,0,0,1,41,59.14a2,2,0,0,1-1.4-.47,1.65,1.65,0,0,1-.51-1.26c0-1.13.66-1.78,2-2l1.8-.25c0-1-.41-1.53-1.24-1.53a2.94,2.94,0,0,0-2,.74v-1a3.76,3.76,0,0,1,2-.56c1.41,0,2.12.74,2.12,2.24Zm-1-3-1.45.2a2.65,2.65,0,0,0-1,.33,1,1,0,0,0-.34.85.9.9,0,0,0,.32.71,1.18,1.18,0,0,0,.83.28,1.55,1.55,0,0,0,1.18-.5,1.8,1.8,0,0,0,.47-1.27Z" fill="#4d5359"/><path d="M46.57,59h-1V50.12h1Z" fill="#4d5359"/><path d="M53.29,53l-2.76,7q-.73,1.86-2.07,1.86a2.28,2.28,0,0,1-.63-.07v-.86a1.8,1.8,0,0,0,.57.1,1.18,1.18,0,0,0,1.09-.87L50,59l-2.35-6h1.07l1.62,4.62c0,.06.07.21.13.45h0c0-.09.06-.24.12-.44L52.29,53Z" fill="#4d5359"/><path d="M58.51,53.27,55,58.18h3.51V59H53.54v-.3l3.55-4.88H53.88V53h4.63Z" fill="#4d5359"/><path d="M60.24,51.48a.6.6,0,0,1-.44-.18.61.61,0,0,1-.18-.45.61.61,0,0,1,.62-.62.61.61,0,0,1,.45.18.6.6,0,0,1,.18.44.63.63,0,0,1-.63.63ZM60.71,59h-1V53h1Z" fill="#4d5359"/><path d="M67.63,59h-1V55.58c0-1.28-.46-1.91-1.39-1.91a1.5,1.5,0,0,0-1.19.54,2,2,0,0,0-.47,1.37V59h-1V53h1v1h0a2.16,2.16,0,0,1,2-1.14,1.83,1.83,0,0,1,1.5.63,2.84,2.84,0,0,1,.52,1.84Z" fill="#4d5359"/><path d="M74.57,58.52q0,3.3-3.17,3.3a4.23,4.23,0,0,1-1.94-.42v-1a3.92,3.92,0,0,0,1.93.56c1.48,0,2.22-.78,2.22-2.35V58h0a2.42,2.42,0,0,1-3.86.35A3.17,3.17,0,0,1,69,56.19a3.73,3.73,0,0,1,.73-2.43,2.46,2.46,0,0,1,2-.9,2,2,0,0,1,1.8,1h0V53h1Zm-1-2.23V55.4a1.73,1.73,0,0,0-.49-1.22,1.58,1.58,0,0,0-1.2-.51,1.67,1.67,0,0,0-1.4.64,3,3,0,0,0-.5,1.82,2.48,2.48,0,0,0,.48,1.6,1.57,1.57,0,0,0,1.28.6,1.69,1.69,0,0,0,1.32-.57A2.16,2.16,0,0,0,73.61,56.29Z" fill="#4d5359"/><path d="M83.89,58.72a3.1,3.1,0,0,1-1.64.42,2.72,2.72,0,0,1-2.07-.83,3,3,0,0,1-.79-2.17,3.3,3.3,0,0,1,.85-2.38,3,3,0,0,1,2.27-.9,3.23,3.23,0,0,1,1.39.29v1a2.38,2.38,0,0,0-1.43-.47,1.93,1.93,0,0,0-1.51.66,2.5,2.5,0,0,0-.59,1.73,2.36,2.36,0,0,0,.56,1.66,1.89,1.89,0,0,0,1.48.61,2.39,2.39,0,0,0,1.48-.52Z" fill="#4d5359"/><path d="M89.64,59h-1v-.94h0a2.2,2.2,0,0,1-3.25.61,1.68,1.68,0,0,1-.5-1.26c0-1.13.66-1.78,2-2l1.8-.25c0-1-.42-1.53-1.24-1.53a2.92,2.92,0,0,0-2,.74v-1a3.76,3.76,0,0,1,2-.56c1.41,0,2.12.74,2.12,2.24Zm-1-3-1.45.2a2.59,2.59,0,0,0-1,.33,1,1,0,0,0-.34.85.92.92,0,0,0,.31.71,1.2,1.2,0,0,0,.84.28,1.55,1.55,0,0,0,1.18-.5,1.8,1.8,0,0,0,.47-1.27Z" fill="#4d5359"/><path d="M92.41,59h-1V50.12h1Z" fill="#4d5359"/><path d="M95.31,59h-1V50.12h1Z" fill="#4d5359"/><path d="M102.08,56.24H97.85a2.25,2.25,0,0,0,.53,1.55,1.88,1.88,0,0,0,1.42.54,2.94,2.94,0,0,0,1.87-.67v.91a3.53,3.53,0,0,1-2.1.57,2.51,2.51,0,0,1-2-.82,3.83,3.83,0,0,1,.06-4.58,2.55,2.55,0,0,1,2-.88,2.25,2.25,0,0,1,1.82.76,3.18,3.18,0,0,1,.64,2.12Zm-1-.81a2,2,0,0,0-.4-1.3,1.37,1.37,0,0,0-1.1-.46,1.57,1.57,0,0,0-1.16.48,2.24,2.24,0,0,0-.58,1.28Z" fill="#4d5359"/><path d="M106.66,54a1.14,1.14,0,0,0-.72-.19,1.21,1.21,0,0,0-1,.58,2.64,2.64,0,0,0-.41,1.58V59h-1V53h1v1.24h0a2.07,2.07,0,0,1,.63-1,1.54,1.54,0,0,1,1.51-.27Z" fill="#4d5359"/><path d="M107.43,58.78v-1a2.81,2.81,0,0,0,1.72.58c.85,0,1.27-.28,1.27-.84a.76.76,0,0,0-.11-.41,1.17,1.17,0,0,0-.29-.3,2.56,2.56,0,0,0-.44-.23l-.53-.21a6.76,6.76,0,0,1-.7-.32,2.55,2.55,0,0,1-.51-.36,1.52,1.52,0,0,1-.3-.46,1.66,1.66,0,0,1-.1-.61,1.38,1.38,0,0,1,.19-.74,1.7,1.7,0,0,1,.52-.55,2.21,2.21,0,0,1,.73-.33,3.59,3.59,0,0,1,2.25.16v1a2.7,2.7,0,0,0-1.52-.43,1.83,1.83,0,0,0-.49.06,1.15,1.15,0,0,0-.37.17.68.68,0,0,0-.24.27.67.67,0,0,0-.09.34.75.75,0,0,0,.09.39.84.84,0,0,0,.25.29,2.36,2.36,0,0,0,.39.22l.54.21c.26.11.5.21.71.32a2.82,2.82,0,0,1,.54.36,1.41,1.41,0,0,1,.34.47,1.46,1.46,0,0,1,.12.62,1.5,1.5,0,0,1-.19.78,1.61,1.61,0,0,1-.53.54,2.3,2.3,0,0,1-.75.32,3.82,3.82,0,0,1-.9.11A3.34,3.34,0,0,1,107.43,58.78Z" fill="#4d5359"/><path d="M113.21,54.17a.63.63,0,0,1-.46-.19.68.68,0,0,1-.19-.46.64.64,0,0,1,.19-.46.63.63,0,0,1,.46-.19.63.63,0,0,1,.47.19.61.61,0,0,1,.2.46.65.65,0,0,1-.2.46A.63.63,0,0,1,113.21,54.17Zm0,5a.65.65,0,0,1-.65-.66.66.66,0,0,1,.19-.46.65.65,0,0,1,.46-.2.68.68,0,0,1,.67.66.65.65,0,0,1-.2.47A.67.67,0,0,1,113.21,59.13Z" fill="#4d5359"/><path d="M122,59h-1V51.74a2.14,2.14,0,0,1-.33.25,3.58,3.58,0,0,1-.48.29c-.18.09-.36.18-.56.26a5,5,0,0,1-.58.2v-1a5.34,5.34,0,0,0,.67-.23c.24-.1.47-.22.7-.34s.45-.25.65-.38a6.62,6.62,0,0,0,.53-.4H122Z" fill="#4d5359"/><path d="M129,50.6l-4,9.79h-.9l4-9.79Z" fill="#4d5359"/><path d="M133.46,52.8a1.71,1.71,0,0,0-.12-.67,1.35,1.35,0,0,0-.32-.48,1.51,1.51,0,0,0-.49-.29,2,2,0,0,0-.61-.09,2,2,0,0,0-.55.08,2.66,2.66,0,0,0-.53.21,3.74,3.74,0,0,0-.49.32,2.92,2.92,0,0,0-.44.42v-1a2.81,2.81,0,0,1,.9-.61,3.41,3.41,0,0,1,1.23-.2,2.91,2.91,0,0,1,1,.15,2.18,2.18,0,0,1,.76.43,1.93,1.93,0,0,1,.51.71,2.43,2.43,0,0,1,.18,1,3.17,3.17,0,0,1-.11.9,2.75,2.75,0,0,1-.35.76,3.67,3.67,0,0,1-.58.69,7.77,7.77,0,0,1-.83.67c-.39.28-.72.52-1,.72A3.81,3.81,0,0,0,131,57a1.53,1.53,0,0,0-.32.52,1.8,1.8,0,0,0-.09.6h4.19V59h-5.19v-.42a3.43,3.43,0,0,1,.12-.95,2.56,2.56,0,0,1,.38-.78,4.38,4.38,0,0,1,.71-.73c.29-.25.65-.53,1.07-.84a5.77,5.77,0,0,0,.76-.62,3.31,3.31,0,0,0,.5-.6,2.53,2.53,0,0,0,.27-.61A2.7,2.7,0,0,0,133.46,52.8Z" fill="#4d5359"/><path d="M143.76,58.72a3.1,3.1,0,0,1-1.64.42,2.72,2.72,0,0,1-2.07-.83,3,3,0,0,1-.79-2.17,3.3,3.3,0,0,1,.85-2.38,3,3,0,0,1,2.27-.9,3.23,3.23,0,0,1,1.39.29v1a2.38,2.38,0,0,0-1.43-.47,2,2,0,0,0-1.51.66,2.5,2.5,0,0,0-.59,1.73,2.36,2.36,0,0,0,.56,1.66,1.89,1.89,0,0,0,1.48.61,2.39,2.39,0,0,0,1.48-.52Z" fill="#4d5359"/><path d="M149.51,59h-1v-.94h0a2.2,2.2,0,0,1-3.25.61,1.68,1.68,0,0,1-.5-1.26c0-1.13.66-1.78,2-2l1.8-.25c0-1-.42-1.53-1.24-1.53a2.94,2.94,0,0,0-2,.74v-1a3.76,3.76,0,0,1,2-.56c1.41,0,2.12.74,2.12,2.24Zm-1-3-1.45.2a2.59,2.59,0,0,0-1,.33,1,1,0,0,0-.34.85.9.9,0,0,0,.32.71,1.16,1.16,0,0,0,.83.28,1.55,1.55,0,0,0,1.18-.5,1.8,1.8,0,0,0,.47-1.27Z" fill="#4d5359"/><path d="M152.28,59h-1V50.12h1Z" fill="#4d5359"/><path d="M155.19,59h-1V50.12h1Z" fill="#4d5359"/><path d="M162,56.24h-4.23a2.21,2.21,0,0,0,.54,1.55,1.85,1.85,0,0,0,1.41.54,2.94,2.94,0,0,0,1.87-.67v.91a3.52,3.52,0,0,1-2.09.57,2.52,2.52,0,0,1-2-.82,3.83,3.83,0,0,1,.06-4.58,2.55,2.55,0,0,1,2-.88,2.25,2.25,0,0,1,1.82.76,3.18,3.18,0,0,1,.64,2.12Zm-1-.81a2,2,0,0,0-.4-1.3,1.37,1.37,0,0,0-1.1-.46,1.59,1.59,0,0,0-1.16.48,2.24,2.24,0,0,0-.58,1.28Z" fill="#4d5359"/><path d="M166.54,54a1.2,1.2,0,0,0-.73-.19,1.23,1.23,0,0,0-1,.58,2.64,2.64,0,0,0-.41,1.58V59h-1V53h1v1.24h0a2.07,2.07,0,0,1,.63-1,1.4,1.4,0,0,1,.94-.36,1.5,1.5,0,0,1,.58.09Z" fill="#4d5359"/><path d="M167.3,58.78v-1a2.82,2.82,0,0,0,1.73.58q1.26,0,1.26-.84a.76.76,0,0,0-.11-.41,1.17,1.17,0,0,0-.29-.3,2.86,2.86,0,0,0-.43-.23l-.54-.21a6.76,6.76,0,0,1-.7-.32,2.22,2.22,0,0,1-.5-.36,1.38,1.38,0,0,1-.31-.46,1.66,1.66,0,0,1-.1-.61,1.38,1.38,0,0,1,.19-.74,1.7,1.7,0,0,1,.52-.55,2.21,2.21,0,0,1,.73-.33,3.49,3.49,0,0,1,.86-.11,3.45,3.45,0,0,1,1.39.27v1a2.7,2.7,0,0,0-1.52-.43,1.83,1.83,0,0,0-.49.06,1.26,1.26,0,0,0-.37.17.68.68,0,0,0-.24.27.67.67,0,0,0-.09.34.75.75,0,0,0,.09.39.84.84,0,0,0,.25.29,2.11,2.11,0,0,0,.4.22l.53.21c.26.11.5.21.71.32a2.82,2.82,0,0,1,.54.36,1.37,1.37,0,0,1,.47,1.09,1.51,1.51,0,0,1-.2.78,1.61,1.61,0,0,1-.53.54,2.21,2.21,0,0,1-.75.32,3.82,3.82,0,0,1-.9.11A3.37,3.37,0,0,1,167.3,58.78Z" fill="#4d5359"/><path d="M180.33,59h-1v-.94h0a2.2,2.2,0,0,1-3.25.61,1.65,1.65,0,0,1-.51-1.26c0-1.13.66-1.78,2-2l1.8-.25q0-1.53-1.23-1.53a2.91,2.91,0,0,0-2,.74v-1a3.76,3.76,0,0,1,2-.56c1.41,0,2.11.74,2.11,2.24Zm-1-3-1.44.2a2.53,2.53,0,0,0-1,.33,1,1,0,0,0-.34.85.89.89,0,0,0,.31.71,1.2,1.2,0,0,0,.84.28,1.56,1.56,0,0,0,1.18-.5,1.79,1.79,0,0,0,.46-1.27Z" fill="#4d5359"/><path d="M187.12,59h-1V55.58c0-1.28-.46-1.91-1.39-1.91a1.5,1.5,0,0,0-1.19.54,2,2,0,0,0-.47,1.37V59h-1V53h1v1h0a2.16,2.16,0,0,1,2-1.14,1.83,1.83,0,0,1,1.5.63,2.84,2.84,0,0,1,.52,1.84Z" fill="#4d5359"/><path d="M193.23,59h-1v-.94h0a2,2,0,0,1-1.85,1.08,2,2,0,0,1-1.4-.47,1.65,1.65,0,0,1-.51-1.26c0-1.13.66-1.78,2-2l1.8-.25c0-1-.41-1.53-1.24-1.53a2.9,2.9,0,0,0-1.95.74v-1a3.76,3.76,0,0,1,2-.56c1.41,0,2.11.74,2.11,2.24Zm-1-3-1.45.2a2.65,2.65,0,0,0-1,.33,1,1,0,0,0-.34.85.9.9,0,0,0,.32.71,1.19,1.19,0,0,0,.83.28,1.55,1.55,0,0,0,1.18-.5,1.8,1.8,0,0,0,.47-1.27Z" fill="#4d5359"/><path d="M196,59h-1V50.12h1Z" fill="#4d5359"/><path d="M202.72,53,200,60q-.74,1.86-2.07,1.86a2.28,2.28,0,0,1-.63-.07v-.86a1.8,1.8,0,0,0,.57.1,1.18,1.18,0,0,0,1.09-.87L199.4,59l-2.34-6h1.06l1.63,4.62q0,.09.12.45h0c0-.09.06-.24.12-.44L201.73,53Z" fill="#4d5359"/><path d="M207.94,53.27l-3.55,4.91h3.51V59H203v-.3l3.56-4.88h-3.22V53h4.63Z" fill="#4d5359"/><path d="M214,56.24h-4.23a2.25,2.25,0,0,0,.53,1.55,1.88,1.88,0,0,0,1.42.54,2.94,2.94,0,0,0,1.87-.67v.91a3.53,3.53,0,0,1-2.1.57,2.51,2.51,0,0,1-2-.82,3.83,3.83,0,0,1,.06-4.58,2.55,2.55,0,0,1,2-.88,2.25,2.25,0,0,1,1.82.76,3.18,3.18,0,0,1,.64,2.12Zm-1-.81a2,2,0,0,0-.4-1.3,1.37,1.37,0,0,0-1.1-.46,1.57,1.57,0,0,0-1.16.48,2.24,2.24,0,0,0-.58,1.28Z" fill="#4d5359"/><path d="M220.58,59h-1V58h0a2.21,2.21,0,0,1-2.06,1.16,2.24,2.24,0,0,1-1.81-.81,3.28,3.28,0,0,1-.68-2.19,3.57,3.57,0,0,1,.75-2.38,2.48,2.48,0,0,1,2-.9,1.91,1.91,0,0,1,1.8,1h0V50.12h1Zm-1-2.71V55.4a1.7,1.7,0,0,0-.49-1.23,1.61,1.61,0,0,0-1.21-.5,1.67,1.67,0,0,0-1.39.64,2.87,2.87,0,0,0-.5,1.78,2.56,2.56,0,0,0,.48,1.64,1.59,1.59,0,0,0,1.3.6,1.61,1.61,0,0,0,1.3-.58A2.13,2.13,0,0,0,219.62,56.29Z" fill="#4d5359"/><rect x="24.5" y="69.5" width="299" height="23" fill="#e6eaec"/><path d="M323,70V92H25V70H323m1-1H24V93H324V69Z" fill="#a8abae"/><rect x="25.94" y="71" width="154.06" height="20" fill="#4384b7"/><rect x="50" y="71" width="68.06" height="20" fill="url(#linear-gradient-2)"/></svg>