<?xml version="1.0" encoding="iso-8859-1"?>
<!-- Generator: Adobe Illustrator 22.0.1, SVG Export Plug-In . SVG Version: 6.00 Build 0)  -->
<svg version="1.1" id="Layer_1" xmlns="http://www.w3.org/2000/svg" xmlns:xlink="http://www.w3.org/1999/xlink" x="0px" y="0px"
	 viewBox="0 0 128 128" style="enable-background:new 0 0 128 128;" xml:space="preserve">
<g>
	<g>
		<path style="fill:#FFFFFF;" d="M18,16v96h5h18h46h18h5V16H18z M107,109h-2H87H41H23h-2V19h86V109z M51.935,83
			c0,3.278-2.657,5.935-5.935,5.935S40.065,86.278,40.065,83c0-3.278,2.657-5.935,5.935-5.935S51.935,79.722,51.935,83z M98,28H30
			v72h68V28z M46,93.5c-5.799,0-10.5-4.701-10.5-10.5c0-5.799,4.701-10.5,10.5-10.5S56.5,77.201,56.5,83
			C56.5,88.799,51.799,93.5,46,93.5z M92,92H68v-6h24V92z M92,80H68v-6h24V80z M92,68H36v-6.558c3.793-1.81,6.127-5.704,8.24-9.263
			c2.971-4.995,5.049-8.03,8.878-8.03s5.906,3.035,8.878,8.03c2.867,4.83,6.12,10.304,12.906,10.304
			c6.781,0,10.031-5.474,12.897-10.304c1.515-2.552,2.8-4.581,4.202-5.966V68z M92,40.608c-3.787,1.811-6.118,5.703-8.23,9.261
			c-2.967,4.997-5.045,8.03-8.868,8.03c-3.828,0-5.906-3.035-8.878-8.03c-2.867-4.83-6.12-10.304-12.906-10.304
			s-10.04,5.474-12.906,10.304c-1.519,2.553-2.806,4.584-4.211,5.969V34h56V40.608z"/>
	</g>
</g>
</svg>
