<svg id="Layer_1" data-name="Layer 1" xmlns="http://www.w3.org/2000/svg" width="128" height="128" viewBox="0 0 128 128"><title>security-icon_white</title><path d="M69,63.5A5.5,5.5,0,1,1,63.5,58,5.5,5.5,0,0,1,69,63.5ZM113,19H15v89h98V19m3-3v95H12V16ZM97,53V74H93V92H31V35H93V53ZM37,87.5A1.5,1.5,0,1,0,35.5,89,1.5,1.5,0,0,0,37,87.5ZM37,53H34V74h3Zm0-13.5A1.5,1.5,0,1,0,35.5,41,1.5,1.5,0,0,0,37,39.5ZM72.15,57.24,81,48.39,78.61,46l-8.85,8.85a10.62,10.62,0,0,0-12.52,0L48.39,46,46,48.39l8.85,8.85a10.62,10.62,0,0,0,0,12.52L46,78.61,48.39,81l8.85-8.85a10.62,10.62,0,0,0,12.52,0L78.61,81,81,78.61l-8.85-8.85a10.62,10.62,0,0,0,0-12.52ZM90,87.5A1.5,1.5,0,1,0,88.5,89,1.5,1.5,0,0,0,90,87.5Zm0-48A1.5,1.5,0,1,0,88.5,41,1.5,1.5,0,0,0,90,39.5ZM103,50V77h3V92h-3v6H25V29h78v6h3V50Zm-3,42H96V77h4V50H96V35h4V32H28V95h72Z" fill="#fff"/></svg>