<svg id="Layer_1" data-name="Layer 1" xmlns="http://www.w3.org/2000/svg" width="128" height="128" viewBox="0 0 128 128"><title>web-app-hosting_white</title><path d="M110.42,69A18.54,18.54,0,0,0,104,70.17a40.85,40.85,0,0,0,.47-6.17,40,40,0,0,0-79-9h0c-13.78,0-25,11-25,24.5,0,12.77,10,23.36,23,24.5h87a17.51,17.51,0,1,0,0-35Zm0,32h-87a21.53,21.53,0,0,1,2-43,22.3,22.3,0,0,1,2.47.14A37,37,0,1,1,99,77.07,15.18,15.18,0,0,1,110.42,72a14.51,14.51,0,1,1,0,29Zm-36-52.73a26.13,26.13,0,0,0-4-8,25,25,0,0,1,12.71,8Zm0,32.45H83.1a25,25,0,0,1-12.71,8A26.08,26.08,0,0,0,74.37,80.72Zm1.82-23.95L73,55.16c-.23-1.37-.49-2.7-.82-3.94h-7l-5.89-2.95h12c-1.92-5.48-4.68-8.85-7.27-8.85-2.41,0-5,3-6.87,7.8l-2.61-1.3a23.15,23.15,0,0,1,3.09-5.64,25,25,0,0,0-12.71,8h1.48a4,4,0,0,0-.08.77v2.18H42.76A24.84,24.84,0,0,0,39,63h7.3V66H39a24.77,24.77,0,0,0,3.76,11.8H46.3v2.16a4.07,4.07,0,0,0,.08.79H44.9a25,25,0,0,0,12.71,8,23.77,23.77,0,0,1-3.1-5.65l2.62-1.3c1.9,4.84,4.45,7.81,6.87,7.81,2.59,0,5.35-3.37,7.27-8.86H59.21l5.9-3h7c.33-1.23.59-2.56.82-3.93l3.21-1.61a49.8,49.8,0,0,1-1,5.54h10A24.87,24.87,0,0,0,89,66H85.86a4.26,4.26,0,0,0,.27-1.47A4.61,4.61,0,0,0,85.87,63H89a24.94,24.94,0,0,0-3.75-11.8h-10A50,50,0,0,1,76.19,56.77Zm7,7.73a1.53,1.53,0,0,1-.89,1.38L51.47,81.3l-.69.16a1.52,1.52,0,0,1-1.53-1.53V49a1.52,1.52,0,0,1,1.53-1.52,1.46,1.46,0,0,1,.77.21l30.8,15.42A1.52,1.52,0,0,1,83.18,64.5ZM58.42,66h-6V63h6V57h3v6h6v3l-6,0v6h-3Zm5.5-32a30.5,30.5,0,1,0,30.5,30.5A30.51,30.51,0,0,0,63.92,34ZM92,64.5a28,28,0,1,1-28-28A28,28,0,0,1,92,64.5Z" fill="#fff"/></svg>