<svg xmlns="http://www.w3.org/2000/svg" xmlns:xlink="http://www.w3.org/1999/xlink" width="760" height="225" viewBox="0 0 760 225"><defs><linearGradient id="linear-gradient" x1="541" y1="188.07" x2="541" y2="209.97" gradientUnits="userSpaceOnUse"><stop offset="0" stop-color="#ebe9ec"/><stop offset="0.28" stop-color="#e5e6e9"/><stop offset="1" stop-color="#dadfe2"/></linearGradient><linearGradient id="linear-gradient-2" x1="196.5" y1="30" x2="196.5" y2="54.04" gradientUnits="userSpaceOnUse"><stop offset="0" stop-color="#e8eaeb"/><stop offset="0.12" stop-color="#e6e9ea"/><stop offset="1" stop-color="#dbe0e3"/></linearGradient></defs><title>dialogs-tabbed-dialog-implemented</title><g id="SPEC_text"><rect x="108" y="177" width="583" height="44" fill="#e1e3e4"/><path d="M105,0V225H695V0ZM691,221H109V29H691Z" fill="#4d5359"/><rect x="109" y="176" width="582" height="1" fill="#a8abae"/><path d="M120.1,19.46v-8.4h2.32q4.44,0,4.44,4.1a4.13,4.13,0,0,1-1.23,3.13,4.58,4.58,0,0,1-3.3,1.18Zm1-7.51v6.62h1.25a3.56,3.56,0,0,0,2.57-.88,3.32,3.32,0,0,0,.92-2.51q0-3.23-3.43-3.23Z" fill="#fff"/><path d="M128.88,11.93a.61.61,0,0,1-.44-.18.59.59,0,0,1-.18-.45.62.62,0,0,1,.62-.63.62.62,0,0,1,.45.18.63.63,0,0,1,0,.89A.62.62,0,0,1,128.88,11.93Zm.47,7.52h-1v-6h1Z" fill="#fff"/><path d="M135.59,19.46h-1v-.94h0a2,2,0,0,1-1.85,1.08,2,2,0,0,1-1.4-.47,1.64,1.64,0,0,1-.51-1.26q0-1.68,2-2l1.8-.25q0-1.53-1.24-1.53a3,3,0,0,0-2,.74v-1a3.72,3.72,0,0,1,2-.56q2.12,0,2.12,2.24Zm-1-3-1.45.2a2.35,2.35,0,0,0-1,.33,1,1,0,0,0-.34.84.92.92,0,0,0,.31.72,1.21,1.21,0,0,0,.83.28,1.54,1.54,0,0,0,1.18-.5,1.79,1.79,0,0,0,.47-1.27Z" fill="#fff"/><path d="M138.36,19.46h-1V10.58h1Z" fill="#fff"/><path d="M142.81,19.6a2.78,2.78,0,0,1-2.12-.84,3.11,3.11,0,0,1-.79-2.23,3.24,3.24,0,0,1,.83-2.36,3,3,0,0,1,2.23-.85,2.69,2.69,0,0,1,2.09.83,3.28,3.28,0,0,1,.75,2.29,3.22,3.22,0,0,1-.81,2.3A2.84,2.84,0,0,1,142.81,19.6Zm.07-5.47a1.83,1.83,0,0,0-1.46.63,2.59,2.59,0,0,0-.54,1.74,2.45,2.45,0,0,0,.54,1.68,1.85,1.85,0,0,0,1.46.62,1.76,1.76,0,0,0,1.43-.6,2.62,2.62,0,0,0,.5-1.72,2.66,2.66,0,0,0-.5-1.73A1.75,1.75,0,0,0,142.88,14.13Z" fill="#fff"/><path d="M152.46,19q0,3.3-3.16,3.3a4.25,4.25,0,0,1-1.95-.42v-1a4,4,0,0,0,1.93.56q2.21,0,2.21-2.36v-.66h0a2.43,2.43,0,0,1-3.86.35,3.2,3.2,0,0,1-.68-2.15,3.74,3.74,0,0,1,.74-2.43,2.46,2.46,0,0,1,2-.9,2,2,0,0,1,1.8,1h0v-.83h1Zm-1-2.23v-.88a1.72,1.72,0,0,0-.48-1.22,1.59,1.59,0,0,0-1.2-.51,1.67,1.67,0,0,0-1.39.65,2.89,2.89,0,0,0-.5,1.81,2.48,2.48,0,0,0,.48,1.6,1.56,1.56,0,0,0,1.28.6,1.67,1.67,0,0,0,1.32-.57A2.14,2.14,0,0,0,151.5,16.75Z" fill="#fff"/><path d="M162.79,11.95h-2.43v7.51h-1V11.95H157v-.89h5.83Z" fill="#fff"/><path d="M164.47,11.93a.61.61,0,0,1-.44-.18.59.59,0,0,1-.18-.45.62.62,0,0,1,.62-.63.62.62,0,0,1,.45.18.63.63,0,0,1,0,.89A.62.62,0,0,1,164.47,11.93Zm.47,7.52h-1v-6h1Z" fill="#fff"/><path d="M169.67,19.4a1.85,1.85,0,0,1-.9.19q-1.58,0-1.58-1.76V14.28h-1v-.82h1V12l1-.31v1.78h1.51v.82h-1.51v3.38a1.4,1.4,0,0,0,.21.86.82.82,0,0,0,.68.26,1,1,0,0,0,.63-.2Z" fill="#fff"/><path d="M171.91,19.46h-1V10.58h1Z" fill="#fff"/><path d="M178.68,16.7h-4.24a2.24,2.24,0,0,0,.54,1.55,1.86,1.86,0,0,0,1.42.54,3,3,0,0,0,1.86-.67V19a3.48,3.48,0,0,1-2.09.57,2.54,2.54,0,0,1-2-.82,3.35,3.35,0,0,1-.73-2.3,3.28,3.28,0,0,1,.79-2.28,2.55,2.55,0,0,1,2-.88,2.26,2.26,0,0,1,1.82.76,3.18,3.18,0,0,1,.64,2.12Zm-1-.81a2,2,0,0,0-.4-1.29,1.37,1.37,0,0,0-1.1-.46,1.55,1.55,0,0,0-1.15.49,2.21,2.21,0,0,0-.59,1.27Z" fill="#fff"/><polygon points="683.14 11.43 681.62 9.91 678.07 13.46 674.52 9.91 673 11.43 676.55 14.98 673 18.53 674.52 20.05 678.07 16.5 681.62 20.05 683.14 18.53 679.59 14.98 683.14 11.43" fill="#fff"/><rect x="502" y="188" width="78" height="22" fill="url(#linear-gradient)"/><path d="M501,187v24h80V187Zm79,23H502V188h78Z" fill="#a8abae"/><path d="M524.34,203.46v-8.4h2.39a2.61,2.61,0,0,1,1.73.53,1.72,1.72,0,0,1,.64,1.39,2,2,0,0,1-.39,1.24,2.09,2.09,0,0,1-1.07.75v0a2.14,2.14,0,0,1,1.36.64,2,2,0,0,1,.51,1.41,2.2,2.2,0,0,1-.77,1.75,2.88,2.88,0,0,1-2,.67Zm1-7.51v2.71h1a1.91,1.91,0,0,0,1.27-.39,1.36,1.36,0,0,0,.46-1.1q0-1.22-1.61-1.22Zm0,3.6v3h1.34a2,2,0,0,0,1.34-.41,1.4,1.4,0,0,0,.48-1.12q0-1.49-2-1.49Z" fill="#4d5359"/><path d="M535.94,203.46h-1v-.95h0a2,2,0,0,1-1.85,1.09Q531,203.6,531,201v-3.59h1v3.43q0,1.9,1.45,1.9a1.47,1.47,0,0,0,1.16-.52,2,2,0,0,0,.45-1.36v-3.46h1Z" fill="#4d5359"/><path d="M540.66,203.4a1.85,1.85,0,0,1-.9.19q-1.58,0-1.58-1.76v-3.55h-1v-.82h1V196l1-.31v1.78h1.51v.82h-1.51v3.38a1.4,1.4,0,0,0,.21.86.82.82,0,0,0,.68.26,1,1,0,0,0,.63-.2Z" fill="#4d5359"/><path d="M544.73,203.4a1.85,1.85,0,0,1-.9.19q-1.58,0-1.58-1.76v-3.55h-1v-.82h1V196l1-.31v1.78h1.51v.82h-1.51v3.38a1.4,1.4,0,0,0,.21.86.82.82,0,0,0,.68.26,1,1,0,0,0,.63-.2Z" fill="#4d5359"/><path d="M548.42,203.6a2.78,2.78,0,0,1-2.12-.84,3.11,3.11,0,0,1-.79-2.23,3.24,3.24,0,0,1,.83-2.36,3,3,0,0,1,2.23-.85,2.69,2.69,0,0,1,2.09.83,3.28,3.28,0,0,1,.75,2.29,3.22,3.22,0,0,1-.81,2.3A2.84,2.84,0,0,1,548.42,203.6Zm.07-5.47a1.83,1.83,0,0,0-1.46.63,2.59,2.59,0,0,0-.54,1.74,2.45,2.45,0,0,0,.54,1.68,1.85,1.85,0,0,0,1.46.62,1.76,1.76,0,0,0,1.43-.6,2.62,2.62,0,0,0,.5-1.72,2.66,2.66,0,0,0-.5-1.73A1.75,1.75,0,0,0,548.5,198.13Z" fill="#4d5359"/><path d="M557.93,203.46h-1V200q0-1.91-1.39-1.91a1.51,1.51,0,0,0-1.19.54,2,2,0,0,0-.47,1.37v3.42h-1v-6h1v1h0a2.17,2.17,0,0,1,2-1.14,1.84,1.84,0,0,1,1.51.64,2.83,2.83,0,0,1,.52,1.84Z" fill="#4d5359"/><path d="M591,187v24h80V187Zm79,23H592V188h78Z" fill="#a8abae"/><path d="M614.34,203.46v-8.4h2.39a2.61,2.61,0,0,1,1.73.53,1.72,1.72,0,0,1,.64,1.39,2,2,0,0,1-.39,1.24,2.09,2.09,0,0,1-1.07.75v0a2.14,2.14,0,0,1,1.36.64,2,2,0,0,1,.51,1.41,2.2,2.2,0,0,1-.77,1.75,2.88,2.88,0,0,1-2,.67Zm1-7.51v2.71h1a1.91,1.91,0,0,0,1.27-.39,1.36,1.36,0,0,0,.46-1.1q0-1.22-1.61-1.22Zm0,3.6v3h1.34a2,2,0,0,0,1.34-.41,1.4,1.4,0,0,0,.48-1.12q0-1.49-2-1.49Z" fill="#4d5359"/><path d="M625.94,203.46h-1v-.95h0a2,2,0,0,1-1.85,1.09Q621,203.6,621,201v-3.59h1v3.43q0,1.9,1.45,1.9a1.47,1.47,0,0,0,1.16-.52,2,2,0,0,0,.45-1.36v-3.46h1Z" fill="#4d5359"/><path d="M630.66,203.4a1.85,1.85,0,0,1-.9.19q-1.58,0-1.58-1.76v-3.55h-1v-.82h1V196l1-.31v1.78h1.51v.82h-1.51v3.38a1.4,1.4,0,0,0,.21.86.82.82,0,0,0,.68.26,1,1,0,0,0,.63-.2Z" fill="#4d5359"/><path d="M634.73,203.4a1.85,1.85,0,0,1-.9.19q-1.58,0-1.58-1.76v-3.55h-1v-.82h1V196l1-.31v1.78h1.51v.82h-1.51v3.38a1.4,1.4,0,0,0,.21.86.82.82,0,0,0,.68.26,1,1,0,0,0,.63-.2Z" fill="#4d5359"/><path d="M638.42,203.6a2.78,2.78,0,0,1-2.12-.84,3.11,3.11,0,0,1-.79-2.23,3.24,3.24,0,0,1,.83-2.36,3,3,0,0,1,2.23-.85,2.69,2.69,0,0,1,2.09.83,3.28,3.28,0,0,1,.75,2.29,3.22,3.22,0,0,1-.81,2.3A2.84,2.84,0,0,1,638.42,203.6Zm.07-5.47a1.83,1.83,0,0,0-1.46.63,2.59,2.59,0,0,0-.54,1.74,2.45,2.45,0,0,0,.54,1.68,1.85,1.85,0,0,0,1.46.62,1.76,1.76,0,0,0,1.43-.6,2.62,2.62,0,0,0,.5-1.72,2.66,2.66,0,0,0-.5-1.73A1.75,1.75,0,0,0,638.5,198.13Z" fill="#4d5359"/><path d="M647.93,203.46h-1V200q0-1.91-1.39-1.91a1.51,1.51,0,0,0-1.19.54,2,2,0,0,0-.47,1.37v3.42h-1v-6h1v1h0a2.17,2.17,0,0,1,2-1.14,1.84,1.84,0,0,1,1.51.64,2.83,2.83,0,0,1,.52,1.84Z" fill="#4d5359"/><polygon points="303 55 303 55 109 55 109 176 691 176 691 55 303 55" fill="#eef0ef"/><rect x="151" y="30" width="91" height="24" fill="url(#linear-gradient-2)"/><rect x="242" y="29" width="449" height="25" fill="#ebf0f5"/><rect x="191" y="32" width="1" height="20" fill="#b0b3b6"/><rect x="241" y="32" width="1" height="20" fill="#b0b3b6"/><path d="M208.25,38.49h-2.43V46h-1V38.49h-2.42V37.6h5.83Z" fill="#4d5359"/><path d="M214.42,46h-1V42.54q0-1.87-1.39-1.87a1.52,1.52,0,0,0-1.18.54,2,2,0,0,0-.48,1.39V46h-1V37.12h1V41h0a2.18,2.18,0,0,1,2-1.14q2,0,2,2.44Z" fill="#4d5359"/><path d="M219.36,41a1.18,1.18,0,0,0-.73-.19,1.23,1.23,0,0,0-1,.58,2.68,2.68,0,0,0-.41,1.58V46h-1V40h1v1.24h0a2.1,2.1,0,0,1,.63-1,1.43,1.43,0,0,1,.94-.35,1.57,1.57,0,0,1,.57.08Z" fill="#4d5359"/><path d="M225.07,43.24h-4.24a2.24,2.24,0,0,0,.54,1.55,1.86,1.86,0,0,0,1.42.54,3,3,0,0,0,1.86-.67v.9a3.48,3.48,0,0,1-2.09.57,2.54,2.54,0,0,1-2-.82,3.35,3.35,0,0,1-.73-2.3,3.28,3.28,0,0,1,.79-2.28,2.55,2.55,0,0,1,2-.88,2.26,2.26,0,0,1,1.82.76,3.18,3.18,0,0,1,.64,2.12Zm-1-.81a2,2,0,0,0-.4-1.29,1.37,1.37,0,0,0-1.1-.46,1.55,1.55,0,0,0-1.15.49,2.21,2.21,0,0,0-.59,1.27Z" fill="#4d5359"/><path d="M231.34,43.24H227.1a2.24,2.24,0,0,0,.54,1.55,1.86,1.86,0,0,0,1.42.54,3,3,0,0,0,1.86-.67v.9a3.48,3.48,0,0,1-2.09.57,2.54,2.54,0,0,1-2-.82,3.35,3.35,0,0,1-.73-2.3,3.28,3.28,0,0,1,.79-2.28,2.55,2.55,0,0,1,2-.88,2.26,2.26,0,0,1,1.82.76,3.18,3.18,0,0,1,.64,2.12Zm-1-.81a2,2,0,0,0-.4-1.29,1.37,1.37,0,0,0-1.1-.46,1.55,1.55,0,0,0-1.15.49,2.21,2.21,0,0,0-.59,1.27Z" fill="#4d5359"/><path d="M167.42,38.49H165V46h-1V38.49h-2.42V37.6h5.83Z" fill="#4d5359"/><path d="M175.51,40l-1.8,6h-1l-1.24-4.29a2.8,2.8,0,0,1-.09-.56h0a2.63,2.63,0,0,1-.12.54L169.9,46h-1l-1.82-6h1l1.24,4.51a2.72,2.72,0,0,1,.08.54h0a2.52,2.52,0,0,1,.11-.55L171,40h.88l1.24,4.52a3.23,3.23,0,0,1,.09.54h0a2.49,2.49,0,0,1,.1-.54L174.56,40Z" fill="#4d5359"/><path d="M179.1,46.14A2.78,2.78,0,0,1,177,45.3a3.11,3.11,0,0,1-.79-2.23,3.24,3.24,0,0,1,.83-2.36,3,3,0,0,1,2.23-.85,2.69,2.69,0,0,1,2.09.83,3.28,3.28,0,0,1,.75,2.29,3.22,3.22,0,0,1-.81,2.3A2.84,2.84,0,0,1,179.1,46.14Zm.07-5.47a1.83,1.83,0,0,0-1.46.63,2.59,2.59,0,0,0-.54,1.74,2.45,2.45,0,0,0,.54,1.68,1.85,1.85,0,0,0,1.46.62,1.76,1.76,0,0,0,1.43-.6,2.62,2.62,0,0,0,.5-1.72,2.66,2.66,0,0,0-.5-1.73A1.75,1.75,0,0,0,179.17,40.67Z" fill="#4d5359"/><rect x="109" y="29" width="41" height="26" fill="#fff"/><path d="M123.43,46.14A3.69,3.69,0,0,1,120.57,45a4.37,4.37,0,0,1-1.08-3.06,4.63,4.63,0,0,1,1.1-3.23,3.83,3.83,0,0,1,3-1.21,3.61,3.61,0,0,1,2.8,1.17,4.38,4.38,0,0,1,1.06,3.06,4.64,4.64,0,0,1-1.09,3.25A3.76,3.76,0,0,1,123.43,46.14Zm.07-7.79a2.71,2.71,0,0,0-2.15,1,4.25,4.25,0,0,0,0,5,2.63,2.63,0,0,0,2.1.95,2.76,2.76,0,0,0,2.18-.9,3.69,3.69,0,0,0,.8-2.53,3.85,3.85,0,0,0-.77-2.57A2.65,2.65,0,0,0,123.5,38.35Z" fill="#4d5359"/><path d="M133.94,46h-1V42.58q0-1.91-1.39-1.91a1.51,1.51,0,0,0-1.19.54,2,2,0,0,0-.47,1.37V46h-1V40h1v1h0a2.17,2.17,0,0,1,2-1.14,1.84,1.84,0,0,1,1.51.64,2.83,2.83,0,0,1,.52,1.84Z" fill="#4d5359"/><path d="M140.58,43.24h-4.24a2.24,2.24,0,0,0,.54,1.55,1.86,1.86,0,0,0,1.42.54,3,3,0,0,0,1.86-.67v.9a3.48,3.48,0,0,1-2.09.57,2.54,2.54,0,0,1-2-.82,3.35,3.35,0,0,1-.73-2.3,3.28,3.28,0,0,1,.79-2.28,2.55,2.55,0,0,1,2-.88,2.26,2.26,0,0,1,1.82.76,3.18,3.18,0,0,1,.64,2.12Zm-1-.81a2,2,0,0,0-.4-1.29,1.37,1.37,0,0,0-1.1-.46,1.55,1.55,0,0,0-1.15.49,2.21,2.21,0,0,0-.59,1.27Z" fill="#4d5359"/><polygon points="151 54 151 29 150 29 150 55 691 55 691 54 151 54" fill="#a8abae"/><rect x="129" y="77" width="542" height="79" fill="#ec008c" opacity="0.25"/><rect x="401" y="57" width="1" height="20" fill="#ec008c"/><rect x="398" y="57" width="7" height="1" fill="#ec008c"/><rect x="398" y="76" width="7" height="1" fill="#ec008c"/><path d="M389.29,65.32a1.59,1.59,0,0,0-.11-.62,1.19,1.19,0,0,0-.75-.7,1.76,1.76,0,0,0-.56-.09,1.86,1.86,0,0,0-.5.07,2.41,2.41,0,0,0-.48.19,2.91,2.91,0,0,0-.45.3,3.21,3.21,0,0,0-.41.38v-.95a2.63,2.63,0,0,1,.83-.55,2.93,2.93,0,0,1,1.12-.19,2.71,2.71,0,0,1,.88.14,2,2,0,0,1,.7.4,1.85,1.85,0,0,1,.46.65,2.18,2.18,0,0,1,.17.89,3,3,0,0,1-.1.83,2.54,2.54,0,0,1-.32.7,3.38,3.38,0,0,1-.53.63,7.53,7.53,0,0,1-.76.61l-.89.66a4,4,0,0,0-.56.51,1.5,1.5,0,0,0-.29.48,1.67,1.67,0,0,0-.08.55h3.83V71h-4.75v-.38a3.15,3.15,0,0,1,.11-.87,2.27,2.27,0,0,1,.35-.71,4,4,0,0,1,.65-.68q.4-.34,1-.76a6.26,6.26,0,0,0,.7-.57,3,3,0,0,0,.45-.55,2,2,0,0,0,.24-.56A2.41,2.41,0,0,0,389.29,65.32Z" fill="#ec008c"/><path d="M396.55,67.12a7.57,7.57,0,0,1-.17,1.71,4,4,0,0,1-.5,1.26,2.26,2.26,0,0,1-.81.78,2.22,2.22,0,0,1-1.09.27,2.07,2.07,0,0,1-1-.26,2.17,2.17,0,0,1-.77-.74,3.76,3.76,0,0,1-.47-1.2,7.42,7.42,0,0,1-.16-1.63,8.43,8.43,0,0,1,.17-1.78,4.08,4.08,0,0,1,.5-1.3,2.21,2.21,0,0,1,.81-.79,2.29,2.29,0,0,1,1.12-.27Q396.55,63.17,396.55,67.12Zm-.9.09q0-3.29-1.56-3.29t-1.65,3.35q0,3.12,1.62,3.12T395.65,67.2Z" fill="#ec008c"/><rect x="401" y="156" width="1" height="20" fill="#ec008c"/><rect x="398" y="156" width="7" height="1" fill="#ec008c"/><rect x="398" y="175" width="7" height="1" fill="#ec008c"/><path d="M389.29,164.32a1.59,1.59,0,0,0-.11-.62,1.19,1.19,0,0,0-.75-.7,1.76,1.76,0,0,0-.56-.09,1.86,1.86,0,0,0-.5.07,2.41,2.41,0,0,0-.48.19,2.91,2.91,0,0,0-.45.3,3.21,3.21,0,0,0-.41.38v-.95a2.63,2.63,0,0,1,.83-.55,2.93,2.93,0,0,1,1.12-.19,2.71,2.71,0,0,1,.88.14,2,2,0,0,1,.7.4,1.85,1.85,0,0,1,.46.65,2.18,2.18,0,0,1,.17.89,3,3,0,0,1-.1.83,2.54,2.54,0,0,1-.32.7,3.38,3.38,0,0,1-.53.63,7.53,7.53,0,0,1-.76.61l-.89.66a4,4,0,0,0-.56.51,1.5,1.5,0,0,0-.29.48,1.67,1.67,0,0,0-.08.55h3.83V170h-4.75v-.38a3.15,3.15,0,0,1,.11-.87,2.27,2.27,0,0,1,.35-.71,4,4,0,0,1,.65-.68q.4-.34,1-.76a6.26,6.26,0,0,0,.7-.57,3,3,0,0,0,.45-.55,2,2,0,0,0,.24-.56A2.41,2.41,0,0,0,389.29,164.32Z" fill="#ec008c"/><path d="M396.55,166.12a7.57,7.57,0,0,1-.17,1.71,4,4,0,0,1-.5,1.26,2.26,2.26,0,0,1-.81.78,2.22,2.22,0,0,1-1.09.27,2.07,2.07,0,0,1-1-.26,2.17,2.17,0,0,1-.77-.74,3.76,3.76,0,0,1-.47-1.2,7.42,7.42,0,0,1-.16-1.63,8.43,8.43,0,0,1,.17-1.78,4.08,4.08,0,0,1,.5-1.3,2.21,2.21,0,0,1,.81-.79,2.29,2.29,0,0,1,1.12-.27Q396.55,162.17,396.55,166.12Zm-.9.09q0-3.29-1.56-3.29t-1.65,3.35q0,3.12,1.62,3.12T395.65,166.2Z" fill="#ec008c"/><rect x="109" y="115" width="20" height="1" fill="#ec008c"/><rect x="128" y="112" width="1" height="7" fill="#ec008c"/><rect x="109" y="112" width="1" height="7" fill="#ec008c"/><path d="M117.15,106.67a1.59,1.59,0,0,0-.11-.62,1.19,1.19,0,0,0-.75-.7,1.76,1.76,0,0,0-.56-.09,1.86,1.86,0,0,0-.5.07,2.41,2.41,0,0,0-.48.19,2.91,2.91,0,0,0-.45.3,3.21,3.21,0,0,0-.41.38v-.95a2.63,2.63,0,0,1,.83-.55,2.93,2.93,0,0,1,1.12-.19,2.71,2.71,0,0,1,.88.14,2,2,0,0,1,.7.4,1.85,1.85,0,0,1,.46.65,2.18,2.18,0,0,1,.17.89,3,3,0,0,1-.1.83,2.54,2.54,0,0,1-.32.7,3.38,3.38,0,0,1-.53.63,7.53,7.53,0,0,1-.76.61l-.89.66a4,4,0,0,0-.56.51,1.5,1.5,0,0,0-.29.48,1.67,1.67,0,0,0-.08.55h3.83v.79h-4.75V112a3.15,3.15,0,0,1,.11-.87,2.27,2.27,0,0,1,.35-.71,4,4,0,0,1,.65-.68q.4-.34,1-.76a6.26,6.26,0,0,0,.7-.57,3,3,0,0,0,.45-.55,2,2,0,0,0,.24-.56A2.41,2.41,0,0,0,117.15,106.67Z" fill="#ec008c"/><path d="M124.41,108.47a7.57,7.57,0,0,1-.17,1.71,4,4,0,0,1-.5,1.26,2.26,2.26,0,0,1-.81.78,2.22,2.22,0,0,1-1.09.27,2.07,2.07,0,0,1-1-.26,2.17,2.17,0,0,1-.77-.74,3.76,3.76,0,0,1-.47-1.2,7.42,7.42,0,0,1-.16-1.63,8.43,8.43,0,0,1,.17-1.78,4.08,4.08,0,0,1,.5-1.3,2.21,2.21,0,0,1,.81-.79,2.29,2.29,0,0,1,1.12-.27Q124.41,104.52,124.41,108.47Zm-.9.09q0-3.29-1.56-3.29t-1.65,3.35q0,3.12,1.62,3.12T123.51,108.55Z" fill="#ec008c"/><rect x="671" y="115" width="20" height="1" fill="#ec008c"/><rect x="690" y="112" width="1" height="7" fill="#ec008c"/><rect x="671" y="112" width="1" height="7" fill="#ec008c"/><path d="M679.15,106.67a1.58,1.58,0,0,0-.11-.62,1.2,1.2,0,0,0-.75-.7,1.77,1.77,0,0,0-.56-.09,1.87,1.87,0,0,0-.51.07,2.46,2.46,0,0,0-.48.19,2.91,2.91,0,0,0-.45.3,3.27,3.27,0,0,0-.4.38v-.95a2.64,2.64,0,0,1,.83-.55,2.93,2.93,0,0,1,1.12-.19,2.71,2.71,0,0,1,.88.14,2,2,0,0,1,.7.4,1.85,1.85,0,0,1,.46.65,2.18,2.18,0,0,1,.17.89,3,3,0,0,1-.11.83,2.48,2.48,0,0,1-.32.7,3.34,3.34,0,0,1-.53.63,7.65,7.65,0,0,1-.76.61l-.89.66a3.91,3.91,0,0,0-.56.51,1.5,1.5,0,0,0-.29.48,1.69,1.69,0,0,0-.08.55h3.83v.79h-4.75V112a3.15,3.15,0,0,1,.11-.87,2.24,2.24,0,0,1,.35-.71,4,4,0,0,1,.65-.68q.4-.34,1-.76a6.18,6.18,0,0,0,.7-.57,3,3,0,0,0,.46-.55,2,2,0,0,0,.24-.56A2.46,2.46,0,0,0,679.15,106.67Z" fill="#ec008c"/><path d="M686.41,108.47a7.51,7.51,0,0,1-.18,1.71,4,4,0,0,1-.5,1.26,2.27,2.27,0,0,1-.81.78,2.22,2.22,0,0,1-1.09.27,2.07,2.07,0,0,1-1-.26,2.16,2.16,0,0,1-.77-.74,3.74,3.74,0,0,1-.47-1.2,7.41,7.41,0,0,1-.16-1.63,8.37,8.37,0,0,1,.17-1.78,4.08,4.08,0,0,1,.5-1.3,2.22,2.22,0,0,1,.81-.79,2.29,2.29,0,0,1,1.12-.27Q686.41,104.52,686.41,108.47Zm-.9.09q0-3.29-1.56-3.29t-1.65,3.35q0,3.12,1.62,3.12T685.51,108.55Z" fill="#ec008c"/></g></svg>