<svg xmlns="http://www.w3.org/2000/svg" width="1342" height="340.5" viewBox="0 0 1342 340.5"><title>color</title><g id="Layer_2" data-name="Layer 2"><rect x="338.7" y="11" width="671" height="317" style="fill:#a9acaf"/><rect x="339.7" y="12" width="669" height="1" style="fill:#fff"/><rect x="339.7" y="38" width="669" height="246" style="fill:#c6cacc"/><rect x="339.7" y="13" width="669" height="24" style="fill:#f7f7f7"/><text transform="translate(349.71 29)" style="font-size:10px;fill:#4d5359;font-family:SegoeUI-Bold, Segoe UI;font-weight:700">[<tspan x="3.69" y="0" style="letter-spacing:-0.01220703125em">C</tspan><tspan x="9.81" y="0">O</tspan><tspan x="17.39" y="0" style="letter-spacing:-0.02001953125em">L</tspan><tspan x="22.3" y="0">UMN1]</tspan></text><text transform="translate(463.7 29)" style="font-size:10px;fill:#4d5359;font-family:SegoeUI-Bold, Segoe UI;font-weight:700">[<tspan x="3.69" y="0" style="letter-spacing:-0.01220703125em">C</tspan><tspan x="9.81" y="0">O</tspan><tspan x="17.39" y="0" style="letter-spacing:-0.02001953125em">L</tspan><tspan x="22.3" y="0">UMN…</tspan></text><text transform="translate(532.7 29)" style="font-size:10px;fill:#4d5359;font-family:SegoeUI-Bold, Segoe UI;font-weight:700">[<tspan x="3.69" y="0" style="letter-spacing:-0.01220703125em">C</tspan><tspan x="9.81" y="0">O</tspan><tspan x="17.39" y="0" style="letter-spacing:-0.02001953125em">L</tspan><tspan x="22.3" y="0">UMN3]</tspan></text><polyline points="452.7 16 453.7 16 453.7 34 452.7 34 452.7 16" style="fill:#82878c"/><polyline points="521.7 16 522.7 16 522.7 34 521.7 34 521.7 16" style="fill:#82878c"/><rect x="339.7" y="57" width="669" height="18" style="fill:#e0e0e0"/><rect x="339.7" y="76" width="669" height="18" style="fill:#f7f7f7"/><rect x="339.7" y="38" width="669" height="18" style="fill:#637a8d"/><text transform="translate(532.7 70)" style="font-size:12px;fill:#4d5359;font-family:SegoeUI, Segoe UI">[I<tspan x="6.81" y="0" style="letter-spacing:-0.0078125em">t</tspan><tspan x="10.79" y="0">em]</tspan></text><text transform="translate(463.7 70)" style="font-size:12px;fill:#4d5359;font-family:SegoeUI, Segoe UI">[I<tspan x="6.81" y="0" style="letter-spacing:-0.0078125em">t</tspan><tspan x="10.79" y="0">em]</tspan></text><text transform="translate(381.71 70)" style="font-size:12px;fill:#4d5359;font-family:SegoeUI, Segoe UI">[I<tspan x="6.81" y="0" style="letter-spacing:-0.0078125em">t</tspan><tspan x="10.79" y="0">em]</tspan></text><polyline points="521.7 59 522.7 59 522.7 73 521.7 73 521.7 59" style="fill:#c6cacc"/><polyline points="452.7 59 453.7 59 453.7 73 452.7 73 452.7 59" style="fill:#c6cacc"/><text transform="translate(532.7 89)" style="font-size:12px;fill:#4d5359;font-family:SegoeUI, Segoe UI">[I<tspan x="6.81" y="0" style="letter-spacing:-0.0078125em">t</tspan><tspan x="10.79" y="0">em]</tspan></text><text transform="translate(463.7 89)" style="font-size:12px;fill:#4d5359;font-family:SegoeUI, Segoe UI">[I<tspan x="6.81" y="0" style="letter-spacing:-0.0078125em">t</tspan><tspan x="10.79" y="0">em]</tspan></text><polyline points="521.7 78 522.7 78 522.7 92 521.7 92 521.7 78" style="fill:#c6cacc"/><polyline points="452.7 78 453.7 78 453.7 92 452.7 92 452.7 78" style="fill:#c6cacc"/><rect x="339.7" y="95" width="669" height="18" style="fill:#e0e0e0"/><text transform="translate(463.7 108)" style="font-size:12px;fill:#4d5359;font-family:SegoeUI, Segoe UI">[I<tspan x="6.81" y="0" style="letter-spacing:-0.0078125em">t</tspan><tspan x="10.79" y="0">em]</tspan></text><polyline points="521.7 97 522.7 97 522.7 111 521.7 111 521.7 97" style="fill:#c6cacc"/><polyline points="452.7 97 453.7 97 453.7 111 452.7 111 452.7 97" style="fill:#c6cacc"/><text transform="translate(532.71 108)" style="font-size:12px;fill:#4d5359;font-family:SegoeUI, Segoe UI">[I<tspan x="6.81" y="0" style="letter-spacing:-0.0078125em">t</tspan><tspan x="10.79" y="0">em]</tspan></text><text transform="translate(381.71 89)" style="font-size:12px;fill:#4d5359;font-family:SegoeUI, Segoe UI">[I<tspan x="6.81" y="0" style="letter-spacing:-0.0078125em">t</tspan><tspan x="10.79" y="0">em]</tspan></text><text transform="translate(381.71 108)" style="font-size:12px;fill:#4d5359;font-family:SegoeUI, Segoe UI">[I<tspan x="6.81" y="0" style="letter-spacing:-0.0078125em">t</tspan><tspan x="10.79" y="0">em]</tspan></text><rect x="338.7" y="37" width="671" height="1" style="fill:#a9acaf"/><text transform="translate(365.7 51)" style="font-size:12px;fill:#fff;font-family:SegoeUI, Segoe UI">[G<tspan x="11.85" y="0" style="letter-spacing:-0.01318359375em">r</tspan><tspan x="15.87" y="0">oupLabel1]</tspan></text><path d="M353.2,44h9l-4.5,6Z" style="fill:#fff"/><rect x="339.7" y="284" width="669" height="1" style="fill:#a9acaf"/><rect x="339.7" y="114" width="669" height="18" style="fill:#637a8d"/><text transform="translate(365.7 127)" style="font-size:12px;fill:#fff;font-family:SegoeUI, Segoe UI">[G<tspan x="11.85" y="0" style="letter-spacing:-0.01318359375em">r</tspan><tspan x="15.87" y="0">oupLabel2]</tspan></text><path d="M354.7,127.5v-9l6,4.5Z" style="fill:#fff"/><path d="M370.7,90V81l6,4.5Z" style="fill:#777b80"/><rect x="339.7" y="133" width="669" height="18" style="fill:#637a8d"/><text transform="translate(365.7 146)" style="font-size:12px;fill:#fff;font-family:SegoeUI, Segoe UI">[G<tspan x="11.85" y="0" style="letter-spacing:-0.01318359375em">r</tspan><tspan x="15.87" y="0">oupLabel3]</tspan></text><path d="M353.2,139h9l-4.5,6Z" style="fill:#fff"/><rect x="339.7" y="152" width="669" height="19" style="fill:#e0e0e0"/><rect x="339.7" y="247" width="669" height="18" style="fill:#f7f7f7"/><polyline points="521.7 249 522.7 249 522.7 263 521.7 263 521.7 249" style="fill:#c6cacc"/><rect x="339.7" y="266" width="669" height="18" style="fill:#e0e0e0"/><polyline points="521.7 268 522.7 268 522.7 282 521.7 282 521.7 268" style="fill:#c6cacc"/><polyline points="452.7 249 453.7 249 453.7 263 452.7 263 452.7 249" style="fill:#c6cacc"/><text transform="translate(532.7 165)" style="font-size:12px;fill:#4d5359;font-family:SegoeUI, Segoe UI">[I<tspan x="6.81" y="0" style="letter-spacing:-0.0078125em">t</tspan><tspan x="10.79" y="0">em]</tspan></text><text transform="translate(463.7 165)" style="font-size:12px;fill:#4d5359;font-family:SegoeUI, Segoe UI">[I<tspan x="6.81" y="0" style="letter-spacing:-0.0078125em">t</tspan><tspan x="10.79" y="0">em]</tspan></text><text transform="translate(381.71 165)" style="font-size:12px;fill:#4d5359;font-family:SegoeUI, Segoe UI">[I<tspan x="6.81" y="0" style="letter-spacing:-0.0078125em">t</tspan><tspan x="10.79" y="0">em]</tspan></text><text transform="translate(532.7 260)" style="font-size:12px;fill:#4d5359;font-family:SegoeUI, Segoe UI">[I<tspan x="6.81" y="0" style="letter-spacing:-0.0078125em">t</tspan><tspan x="10.79" y="0">em]</tspan></text><text transform="translate(463.7 260)" style="font-size:12px;fill:#4d5359;font-family:SegoeUI, Segoe UI">[I<tspan x="6.81" y="0" style="letter-spacing:-0.0078125em">t</tspan><tspan x="10.79" y="0">em]</tspan></text><text transform="translate(463.7 279)" style="font-size:12px;fill:#4d5359;font-family:SegoeUI, Segoe UI">[I<tspan x="6.81" y="0" style="letter-spacing:-0.0078125em">t</tspan><tspan x="10.79" y="0">em]</tspan></text><text transform="translate(532.71 279)" style="font-size:12px;fill:#4d5359;font-family:SegoeUI, Segoe UI">[I<tspan x="6.81" y="0" style="letter-spacing:-0.0078125em">t</tspan><tspan x="10.79" y="0">em]</tspan></text><text transform="translate(677.7 29)" style="font-size:10px;fill:#4d5359;font-family:SegoeUI-Bold, Segoe UI;font-weight:700">[<tspan x="3.69" y="0" style="letter-spacing:-0.01220703125em">C</tspan><tspan x="9.81" y="0">O</tspan><tspan x="17.39" y="0" style="letter-spacing:-0.02001953125em">L</tspan><tspan x="22.3" y="0">UMN4]</tspan></text><polyline points="666.7 16 667.7 16 667.7 34 666.7 34 666.7 16" style="fill:#82878c"/><text transform="translate(677.7 70)" style="font-size:12px;fill:#4d5359;font-family:SegoeUI, Segoe UI">[I<tspan x="6.81" y="0" style="letter-spacing:-0.0078125em">t</tspan><tspan x="10.79" y="0">em]</tspan></text><polyline points="666.7 59 667.7 59 667.7 73 666.7 73 666.7 59" style="fill:#c6cacc"/><text transform="translate(677.7 89)" style="font-size:12px;fill:#4d5359;font-family:SegoeUI, Segoe UI">[I<tspan x="6.81" y="0" style="letter-spacing:-0.0078125em">t</tspan><tspan x="10.79" y="0">em]</tspan></text><polyline points="666.7 78 667.7 78 667.7 92 666.7 92 666.7 78" style="fill:#c6cacc"/><polyline points="666.7 97 667.7 97 667.7 111 666.7 111 666.7 97" style="fill:#c6cacc"/><text transform="translate(677.7 108)" style="font-size:12px;fill:#4d5359;font-family:SegoeUI, Segoe UI">[I<tspan x="6.81" y="0" style="letter-spacing:-0.0078125em">t</tspan><tspan x="10.79" y="0">em]</tspan></text><polyline points="666.7 249 667.7 249 667.7 263 666.7 263 666.7 249" style="fill:#c6cacc"/><polyline points="666.7 268 667.7 268 667.7 282 666.7 282 666.7 268" style="fill:#c6cacc"/><text transform="translate(677.7 165)" style="font-size:12px;fill:#4d5359;font-family:SegoeUI, Segoe UI">[I<tspan x="6.81" y="0" style="letter-spacing:-0.0078125em">t</tspan><tspan x="10.79" y="0">em]</tspan></text><text transform="translate(677.7 260)" style="font-size:12px;fill:#4d5359;font-family:SegoeUI, Segoe UI">[I<tspan x="6.81" y="0" style="letter-spacing:-0.0078125em">t</tspan><tspan x="10.79" y="0">em]</tspan></text><text transform="translate(677.7 279)" style="font-size:12px;fill:#4d5359;font-family:SegoeUI, Segoe UI">[I<tspan x="6.81" y="0" style="letter-spacing:-0.0078125em">t</tspan><tspan x="10.79" y="0">em]</tspan></text><text transform="translate(770.7 29)" style="font-size:10px;fill:#4d5359;font-family:SegoeUI-Bold, Segoe UI;font-weight:700">[<tspan x="3.69" y="0" style="letter-spacing:-0.01220703125em">C</tspan><tspan x="9.81" y="0">O</tspan><tspan x="17.39" y="0" style="letter-spacing:-0.02001953125em">L</tspan><tspan x="22.3" y="0">UMN5]</tspan></text><polyline points="759.7 16 760.7 16 760.7 34 759.7 34 759.7 16" style="fill:#82878c"/><text transform="translate(770.7 70)" style="font-size:12px;fill:#4d5359;font-family:SegoeUI, Segoe UI">[I<tspan x="6.81" y="0" style="letter-spacing:-0.0078125em">t</tspan><tspan x="10.79" y="0">em]</tspan></text><polyline points="759.7 59 760.7 59 760.7 73 759.7 73 759.7 59" style="fill:#c6cacc"/><text transform="translate(770.7 89)" style="font-size:12px;fill:#4d5359;font-family:SegoeUI, Segoe UI">[I<tspan x="6.81" y="0" style="letter-spacing:-0.0078125em">t</tspan><tspan x="10.79" y="0">em]</tspan></text><polyline points="759.7 78 760.7 78 760.7 92 759.7 92 759.7 78" style="fill:#c6cacc"/><polyline points="759.7 97 760.7 97 760.7 111 759.7 111 759.7 97" style="fill:#c6cacc"/><text transform="translate(770.7 108)" style="font-size:12px;fill:#4d5359;font-family:SegoeUI, Segoe UI">[I<tspan x="6.81" y="0" style="letter-spacing:-0.0078125em">t</tspan><tspan x="10.79" y="0">em]</tspan></text><polyline points="759.7 249 760.7 249 760.7 263 759.7 263 759.7 249" style="fill:#c6cacc"/><polyline points="759.7 268 760.7 268 760.7 282 759.7 282 759.7 268" style="fill:#c6cacc"/><text transform="translate(770.7 165)" style="font-size:12px;fill:#4d5359;font-family:SegoeUI, Segoe UI">[I<tspan x="6.81" y="0" style="letter-spacing:-0.0078125em">t</tspan><tspan x="10.79" y="0">em]</tspan></text><text transform="translate(770.7 260)" style="font-size:12px;fill:#4d5359;font-family:SegoeUI, Segoe UI">[I<tspan x="6.81" y="0" style="letter-spacing:-0.0078125em">t</tspan><tspan x="10.79" y="0">em]</tspan></text><text transform="translate(770.7 279)" style="font-size:12px;fill:#4d5359;font-family:SegoeUI, Segoe UI">[I<tspan x="6.81" y="0" style="letter-spacing:-0.0078125em">t</tspan><tspan x="10.79" y="0">em]</tspan></text><text transform="translate(381.71 260)" style="font-size:12px;fill:#4d5359;font-family:SegoeUI, Segoe UI">[I<tspan x="6.81" y="0" style="letter-spacing:-0.0078125em">t</tspan><tspan x="10.79" y="0">em]</tspan></text><text transform="translate(381.71 279)" style="font-size:12px;fill:#4d5359;font-family:SegoeUI, Segoe UI">[I<tspan x="6.81" y="0" style="letter-spacing:-0.0078125em">t</tspan><tspan x="10.79" y="0">em]</tspan></text><rect x="339.7" y="285" width="669" height="42" style="fill:#f7f7f7"/><path d="M369.2,159h9l-4.5,6Z" style="fill:#777b80"/><rect x="339.7" y="171" width="669" height="19" style="fill:#e0e0e0"/><rect x="339.7" y="190" width="669" height="19" style="fill:#e0e0e0"/><rect x="339.7" y="209" width="669" height="19" style="fill:#e0e0e0"/><rect x="339.7" y="228" width="669" height="19" style="fill:#e0e0e0"/><rect x="339.7" y="246" width="669" height="1" style="fill:#c5c9cb"/><rect x="339.7" y="227" width="669" height="1" style="fill:#c5c9cb;opacity:0.25"/><rect x="339.7" y="208" width="669" height="1" style="fill:#c5c9cb;opacity:0.25"/><rect x="339.7" y="189" width="669" height="1" style="fill:#c5c9cb;opacity:0.25"/><rect x="339.7" y="170" width="669" height="1" style="fill:#c5c9cb;opacity:0.25"/><text transform="translate(548.71 184)" style="font-size:12px;fill:#4d5359;font-family:SegoeUI, Segoe UI">[subI<tspan x="25.75" y="0" style="letter-spacing:-0.0078125em">t</tspan><tspan x="29.72" y="0">em]</tspan></text><text transform="translate(479.71 184)" style="font-size:12px;fill:#4d5359;font-family:SegoeUI, Segoe UI">[subI…</text><text transform="translate(397.71 184)" style="font-size:12px;fill:#4d5359;font-family:SegoeUI, Segoe UI">[subI<tspan x="25.75" y="0" style="letter-spacing:-0.0078125em">t</tspan><tspan x="29.72" y="0">em]</tspan></text><text transform="translate(693.7 184)" style="font-size:12px;fill:#4d5359;font-family:SegoeUI, Segoe UI">[subI<tspan x="25.75" y="0" style="letter-spacing:-0.0078125em">t</tspan><tspan x="29.72" y="0">em]</tspan></text><text transform="translate(786.7 184)" style="font-size:12px;fill:#4d5359;font-family:SegoeUI, Segoe UI">[subI<tspan x="25.75" y="0" style="letter-spacing:-0.0078125em">t</tspan><tspan x="29.72" y="0">em]</tspan></text><text transform="translate(548.71 203)" style="font-size:12px;fill:#4d5359;font-family:SegoeUI, Segoe UI">[subI<tspan x="25.75" y="0" style="letter-spacing:-0.0078125em">t</tspan><tspan x="29.72" y="0">em]</tspan></text><text transform="translate(479.71 203)" style="font-size:12px;fill:#4d5359;font-family:SegoeUI, Segoe UI">[subI…</text><text transform="translate(397.71 203)" style="font-size:12px;fill:#4d5359;font-family:SegoeUI, Segoe UI">[subI<tspan x="25.75" y="0" style="letter-spacing:-0.0078125em">t</tspan><tspan x="29.72" y="0">em]</tspan></text><path d="M386.7,204v-9l6,4.5Z" style="fill:#777b80"/><text transform="translate(693.7 203)" style="font-size:12px;fill:#4d5359;font-family:SegoeUI, Segoe UI">[subI<tspan x="25.75" y="0" style="letter-spacing:-0.0078125em">t</tspan><tspan x="29.72" y="0">em]</tspan></text><text transform="translate(786.7 203)" style="font-size:12px;fill:#4d5359;font-family:SegoeUI, Segoe UI">[subI<tspan x="25.75" y="0" style="letter-spacing:-0.0078125em">t</tspan><tspan x="29.72" y="0">em]</tspan></text><text transform="translate(548.71 222)" style="font-size:12px;fill:#4d5359;font-family:SegoeUI, Segoe UI">[subI<tspan x="25.75" y="0" style="letter-spacing:-0.0078125em">t</tspan><tspan x="29.72" y="0">em]</tspan></text><text transform="translate(479.71 222)" style="font-size:12px;fill:#4d5359;font-family:SegoeUI, Segoe UI">[subI…</text><text transform="translate(397.71 222)" style="font-size:12px;fill:#4d5359;font-family:SegoeUI, Segoe UI">[subI<tspan x="25.75" y="0" style="letter-spacing:-0.0078125em">t</tspan><tspan x="29.72" y="0">em]</tspan></text><text transform="translate(693.7 222)" style="font-size:12px;fill:#4d5359;font-family:SegoeUI, Segoe UI">[subI<tspan x="25.75" y="0" style="letter-spacing:-0.0078125em">t</tspan><tspan x="29.72" y="0">em]</tspan></text><text transform="translate(786.7 222)" style="font-size:12px;fill:#4d5359;font-family:SegoeUI, Segoe UI">[subI<tspan x="25.75" y="0" style="letter-spacing:-0.0078125em">t</tspan><tspan x="29.72" y="0">em]</tspan></text><text transform="translate(548.71 241)" style="font-size:12px;fill:#4d5359;font-family:SegoeUI, Segoe UI">[subI<tspan x="25.75" y="0" style="letter-spacing:-0.0078125em">t</tspan><tspan x="29.72" y="0">em]</tspan></text><text transform="translate(479.71 241)" style="font-size:12px;fill:#4d5359;font-family:SegoeUI, Segoe UI">[subI…</text><text transform="translate(397.71 241)" style="font-size:12px;fill:#4d5359;font-family:SegoeUI, Segoe UI">[subI<tspan x="25.75" y="0" style="letter-spacing:-0.0078125em">t</tspan><tspan x="29.72" y="0">em]</tspan></text><text transform="translate(693.7 241)" style="font-size:12px;fill:#4d5359;font-family:SegoeUI, Segoe UI">[subI<tspan x="25.75" y="0" style="letter-spacing:-0.0078125em">t</tspan><tspan x="29.72" y="0">em]</tspan></text><text transform="translate(786.7 241)" style="font-size:12px;fill:#4d5359;font-family:SegoeUI, Segoe UI">[subI<tspan x="25.75" y="0" style="letter-spacing:-0.0078125em">t</tspan><tspan x="29.72" y="0">em]</tspan></text><polyline points="759.7 154 760.7 154 760.7 168 759.7 168 759.7 154" style="fill:#c6cacc"/><polyline points="759.7 173 760.7 173 760.7 187 759.7 187 759.7 173" style="fill:#c6cacc;opacity:0.4"/><polyline points="759.7 192 760.7 192 760.7 206 759.7 206 759.7 192" style="fill:#c6cacc;opacity:0.4"/><polyline points="759.7 211 760.7 211 760.7 225 759.7 225 759.7 211" style="fill:#c6cacc;opacity:0.4"/><polyline points="759.7 230 760.7 230 760.7 244 759.7 244 759.7 230" style="fill:#c6cacc;opacity:0.4"/><polyline points="666.7 154 667.7 154 667.7 168 666.7 168 666.7 154" style="fill:#c6cacc"/><polyline points="666.7 173 667.7 173 667.7 187 666.7 187 666.7 173" style="fill:#c6cacc;opacity:0.4"/><polyline points="666.7 192 667.7 192 667.7 206 666.7 206 666.7 192" style="fill:#c6cacc;opacity:0.4"/><polyline points="666.7 211 667.7 211 667.7 225 666.7 225 666.7 211" style="fill:#c6cacc;opacity:0.4"/><polyline points="666.7 230 667.7 230 667.7 244 666.7 244 666.7 230" style="fill:#c6cacc;opacity:0.4"/><polyline points="521.7 154 522.7 154 522.7 168 521.7 168 521.7 154" style="fill:#c6cacc"/><polyline points="521.7 173 522.7 173 522.7 187 521.7 187 521.7 173" style="fill:#c6cacc;opacity:0.4"/><polyline points="521.7 192 522.7 192 522.7 206 521.7 206 521.7 192" style="fill:#c6cacc;opacity:0.4"/><polyline points="521.7 211 522.7 211 522.7 225 521.7 225 521.7 211" style="fill:#c6cacc;opacity:0.4"/><polyline points="521.7 230 522.7 230 522.7 244 521.7 244 521.7 230" style="fill:#c6cacc;opacity:0.4"/><polyline points="452.7 154 453.7 154 453.7 168 452.7 168 452.7 154" style="fill:#c6cacc"/><polyline points="452.7 173 453.7 173 453.7 187 452.7 187 452.7 173" style="fill:#c6cacc;opacity:0.4"/><polyline points="452.7 192 453.7 192 453.7 206 452.7 206 452.7 192" style="fill:#c6cacc;opacity:0.4"/><polyline points="452.7 211 453.7 211 453.7 225 452.7 225 452.7 211" style="fill:#c6cacc;opacity:0.4"/><polyline points="452.7 230 453.7 230 453.7 244 452.7 244 452.7 230" style="fill:#c6cacc;opacity:0.4"/><polyline points="452.7 268 453.7 268 453.7 282 452.7 282 452.7 268" style="fill:#c6cacc"/><polyline points="1210.7 85 1153.7 85 1153.7 86 1210.7 86 1210.7 85" style="fill:#ec008c"/><polyline points="970.7 48 1038.7 48 1038.7 47 970.7 47 970.7 48" style="fill:#ec008c"/><polyline points="760.7 86 1038.7 86 1038.7 85 760.7 85 760.7 86" style="fill:#ec008c"/><text transform="translate(1064.7 91)" style="font-size:14px;fill:#ec008c;font-family:SegoeUI, Segoe UI">NIGrayCool81</text><polyline points="964.7 307 1038.7 307 1038.7 306 964.7 306 964.7 307" style="fill:#ec008c"/><text transform="translate(1043.7 312)" style="font-size:14px;fill:#ec008c;font-family:SegoeUI, Segoe UI">Fill unused a<tspan x="77.08" y="0" style="letter-spacing:-0.01318359375em">r</tspan><tspan x="81.76" y="0" xml:space="preserve">ea with       NICoolWhi</tspan><tspan x="220.11" y="0" style="letter-spacing:-0.0078125em">t</tspan><tspan x="224.75" y="0">e</tspan></text><text transform="translate(1211.7 91)" style="font-size:14px;fill:#ec008c;font-family:SegoeUI, Segoe UI">1<tspan x="7.55" y="0" style="letter-spacing:-0.01220703125em">p</tspan><tspan x="15.61" y="0">x Divides Elements</tspan><tspan x="0" y="16.8">Within G</tspan><tspan x="53.89" y="16.8" style="letter-spacing:-0.01318359375em">r</tspan><tspan x="58.57" y="16.8">oups</tspan></text><polyline points="1210.7 47 1171.7 47 1171.7 48 1210.7 48 1210.7 47" style="fill:#ec008c"/><text transform="translate(1211.7 53)" style="font-size:14px;fill:#ec008c;font-family:SegoeUI, Segoe UI">1<tspan x="7.55" y="0" style="letter-spacing:-0.01220703125em">p</tspan><tspan x="15.61" y="0">x Divides G</tspan><tspan x="84.12" y="0" style="letter-spacing:-0.01318359375em">r</tspan><tspan x="88.8" y="0">oups</tspan></text><polyline points="760.7 25 1038.7 25 1038.7 24 760.7 24 760.7 25" style="fill:#ec008c"/><polyline points="1210.7 24 1177.7 24 1177.7 25 1210.7 25 1210.7 24" style="fill:#ec008c"/><text transform="translate(1064.7 30)" style="font-size:14px;fill:#ec008c;font-family:SegoeUI, Segoe UI">NID<tspan x="24.01" y="0" style="letter-spacing:-0.01318359375em">r</tspan><tspan x="28.7" y="0">opDownGray</tspan></text><text transform="translate(1064.7 52)" style="font-size:14px;fill:#ec008c;font-family:SegoeUI, Segoe UI">NIGrayNeutral68</text><text transform="translate(1211.7 30)" style="font-size:14px;fill:#ec008c;font-family:SegoeUI, Segoe UI">1<tspan x="7.55" y="0" style="letter-spacing:-0.01220703125em">p</tspan><tspan x="15.61" y="0">x Divides Columns</tspan></text><polyline points="344.7 26 296.7 26 296.7 27 344.7 27 344.7 26" style="fill:#ec008c"/><polyline points="344.7 47 296.7 47 296.7 48 344.7 48 344.7 47" style="fill:#ec008c"/><polyline points="344.7 66 296.7 66 296.7 67 344.7 67 344.7 66" style="fill:#ec008c"/><polyline points="344.7 86 296.7 86 296.7 87 344.7 87 344.7 86" style="fill:#ec008c"/><polyline points="180.7 67 162.7 67 162.7 68 180.7 68 180.7 67" style="fill:#ec008c"/><polyline points="198.7 48 162.7 48 162.7 49 198.7 49 198.7 48" style="fill:#ec008c"/><polyline points="138.7 133 112.7 133 112.7 134 138.7 134 138.7 133" style="fill:#ec008c"/><polyline points="189.7 87 162.7 87 162.7 88 189.7 88 189.7 87" style="fill:#ec008c"/><polyline points="162.7 67 163.7 67 163.7 88 162.7 88 162.7 67" style="fill:#3fa9f5"/><text transform="translate(224.46 54)" style="font-size:14px;fill:#ec008c;font-family:SegoeUI, Segoe UI">NIBlueG<tspan x="50.46" y="0" style="letter-spacing:-0.01318359375em">r</tspan><tspan x="55.15" y="0">ey</tspan></text><text transform="translate(205.99 72)" style="font-size:14px;fill:#ec008c;font-family:SegoeUI, Segoe UI">NIBac<tspan x="35.81" y="0" style="letter-spacing:-0.02001953125em">k</tspan><tspan x="42.49" y="0">g</tspan><tspan x="50.74" y="0" style="letter-spacing:-0.01318359375em">r</tspan><tspan x="55.42" y="0">ound</tspan></text><text transform="translate(214.69 92)" style="font-size:14px;fill:#ec008c;font-family:SegoeUI, Segoe UI">NICoolWhi<tspan x="67.05" y="0" style="letter-spacing:-0.0078125em">t</tspan><tspan x="71.69" y="0">e</tspan></text><text transform="translate(253.94 129)" style="font-size:14px;fill:#ec008c;font-family:SegoeUI, Segoe UI">Closed</text><text transform="translate(261.67 148)" style="font-size:14px;fill:#ec008c;font-family:SegoeUI, Segoe UI">Open</text><text transform="translate(214.69 32)" style="font-size:14px;fill:#ec008c;font-family:SegoeUI, Segoe UI">NICoolWhi<tspan x="67.05" y="0" style="letter-spacing:-0.0078125em">t</tspan><tspan x="71.69" y="0">e</tspan></text><polyline points="191.7 7 165.7 7 165.7 8 191.7 8 191.7 7" style="fill:#ec008c"/><polyline points="348.7 7 347.7 7 347.7 13 348.7 13 348.7 7" style="fill:#ec008c"/><polyline points="296.7 8 348.7 8 348.7 7 296.7 7 296.7 8" style="fill:#ec008c"/><text transform="translate(21.13 13)" style="font-size:14px;fill:#ec008c;font-family:SegoeUI, Segoe UI">1<tspan x="7.55" y="0" style="letter-spacing:-0.01220703125em">p</tspan><tspan x="15.61" y="0">x </tspan><tspan x="25.87" y="0" style="letter-spacing:-0.0322265625em">S</tspan><tspan x="32.85" y="0">t</tspan><tspan x="37.6" y="0" style="letter-spacing:-0.01318359375em">r</tspan><tspan x="42.28" y="0">o</tspan><tspan x="50.48" y="0" style="letter-spacing:-0.02001953125em">k</tspan><tspan x="57.16" y="0">e @ </tspan><tspan x="85.52" y="0" style="letter-spacing:-0.10302734375em">T</tspan><tspan x="91.42" y="0">op Edge</tspan></text><text transform="translate(216.93 13)" style="font-size:14px;fill:#ec008c;font-family:SegoeUI, Segoe UI">NI<tspan x="14.2" y="0" style="letter-spacing:-0.0869140625em">T</tspan><tspan x="20.32" y="0">rueWhi</tspan><tspan x="64.82" y="0" style="letter-spacing:-0.0078125em">t</tspan><tspan x="69.45" y="0">e</tspan></text><text transform="translate(0 138)" style="font-size:14px;fill:#ec008c;font-family:SegoeUI, Segoe UI">Ar<tspan x="13.9" y="0" style="letter-spacing:-0.01318359375em">r</tspan><tspan x="18.58" y="0">ows: 9</tspan><tspan x="57.26" y="0" style="letter-spacing:-0.01220703125em">p</tspan><tspan x="65.32" y="0">x X 6</tspan><tspan x="95.22" y="0" style="letter-spacing:-0.01220703125em">p</tspan><tspan x="103.28" y="0">x</tspan></text><text transform="translate(60.48 82)" style="font-size:14px;fill:#ec008c;font-family:SegoeUI, Segoe UI">Al<tspan x="12.42" y="0" style="letter-spacing:-0.0078125em">t</tspan><tspan x="17.06" y="0">e</tspan><tspan x="24.38" y="0" style="letter-spacing:-0.001953125em">r</tspan><tspan x="29.22" y="0">na</tspan><tspan x="44.26" y="0" style="letter-spacing:-0.0078125em">t</tspan><tspan x="48.9" y="0">e colo</tspan><tspan x="86.32" y="0" style="letter-spacing:0.0068359375em">r</tspan><tspan x="91.28" y="0">s</tspan></text><text transform="translate(73.41 54)" style="font-size:14px;fill:#ec008c;font-family:SegoeUI, Segoe UI">G<tspan x="9.6" y="0" style="letter-spacing:-0.01318359375em">r</tspan><tspan x="14.29" y="0">oup Header</tspan></text><text transform="translate(163.93 137)" style="font-size:14px;fill:#ec008c;font-family:SegoeUI, Segoe UI">NI<tspan x="14.2" y="0" style="letter-spacing:-0.0869140625em">T</tspan><tspan x="20.32" y="0">rueWhi</tspan><tspan x="64.82" y="0" style="letter-spacing:-0.0078125em">t</tspan><tspan x="69.45" y="0">e</tspan></text><polyline points="347.7 142 296.7 142 296.7 143 347.7 143 347.7 142" style="fill:#ec008c"/><polyline points="347.7 123 296.7 123 296.7 124 347.7 124 347.7 123" style="fill:#ec008c"/><polyline points="970.7 48 969.7 48 969.7 38 970.7 38 970.7 48" style="fill:#ec008c"/><polyline points="977.7 86 976.7 86 976.7 76 977.7 76 977.7 86" style="fill:#ec008c"/><polyline points="962.7 86 963.7 86 963.7 94 962.7 94 962.7 86" style="fill:#ec008c"/><rect x="1043.7" y="17" width="16" height="16" style="fill:#82878c"/><rect x="1043.7" y="40" width="16" height="16" style="fill:#a9acaf"/><rect x="1043.7" y="78" width="16" height="16" style="fill:#c6cacc"/><rect x="1177.2" y="299.5" width="15" height="15" style="fill:#f7f7f7"/><path d="M1191.7,300v14h-14V300h14m1-1h-16v16h16V299Z" style="fill:#b3b3b3"/><text transform="translate(4.7 310)" style="font-size:14px;fill:#ec008c;font-family:SegoeUI, Segoe UI"><tspan style="letter-spacing:-0.10302734375em">T</tspan><tspan x="5.89" y="0">ext in G</tspan><tspan x="52.97" y="0" style="letter-spacing:-0.01318359375em">r</tspan><tspan x="57.65" y="0">oup Heade</tspan><tspan x="125.79" y="0" style="letter-spacing:0.0068359375em">r</tspan><tspan x="130.76" y="0" xml:space="preserve">s is       NI</tspan><tspan x="190.91" y="0" style="letter-spacing:-0.0869140625em">T</tspan><tspan x="197.03" y="0">rueWhi</tspan><tspan x="241.53" y="0" style="letter-spacing:-0.0078125em">t</tspan><tspan x="246.16" y="0">e</tspan></text><rect x="162.2" y="297.5" width="15" height="15" style="fill:#fff"/><path d="M176.7,298v14h-14V298h14m1-1h-16v16h16V297Z" style="fill:#b3b3b3"/><text transform="translate(93.7 336)" style="font-size:14px;fill:#ec008c;font-family:SegoeUI, Segoe UI">All other <tspan x="56.54" y="0" style="letter-spacing:-0.0078125em">t</tspan><tspan x="61.17" y="0" xml:space="preserve">ext is       NIBlack</tspan></text><rect x="193.7" y="323" width="16" height="16" style="fill:#2b3033"/><rect x="197.2" y="0.5" width="15" height="15" style="fill:#fff"/><path d="M211.7,1V15h-14V1h14m1-1h-16V16h16V0Z" style="fill:#b3b3b3"/><rect x="203.7" y="41" width="16" height="16" style="fill:#637a8d"/><rect x="185.7" y="59" width="16" height="16" style="fill:#e0e0e0"/><rect x="195.2" y="79.5" width="15" height="15" style="fill:#f7f7f7"/><path d="M209.7,80V94h-14V80h14m1-1h-16V95h16V79Z" style="fill:#b3b3b3"/><rect x="144.2" y="124.5" width="15" height="15" style="fill:#fff"/><path d="M158.7,125v14h-14V125h14m1-1h-16v16h16V124Z" style="fill:#b3b3b3"/><rect x="195.2" y="19.5" width="15" height="15" style="fill:#f7f7f7"/><path d="M209.7,20V34h-14V20h14m1-1h-16V35h16V19Z" style="fill:#b3b3b3"/></g></svg>