<svg id="Layer_1" data-name="Layer 1" xmlns="http://www.w3.org/2000/svg" xmlns:xlink="http://www.w3.org/1999/xlink" width="982.29" height="593.28" viewBox="0 0 982.29 593.28"><defs><linearGradient id="linear-gradient" x1="917.55" y1="556.34" x2="917.55" y2="578.25" gradientUnits="userSpaceOnUse"><stop offset="0" stop-color="#ebe9ec"/><stop offset="0.28" stop-color="#e5e6e9"/><stop offset="1" stop-color="#dadfe2"/></linearGradient><linearGradient id="linear-gradient-2" x1="826.55" y1="556.34" x2="826.55" y2="578.25" xlink:href="#linear-gradient"/></defs><title>no</title><g id="dialog_2-2" data-name="dialog 2"><path d="M4,24.07V546.24H980.29V24.15H953L7.26,24.07Z" style="fill:#ebebeb"/><path d="M5,11.15V516H981.29V11.15H5Z" style="fill:#ebebeb"/><path d="M4,589.28H978.29v-44H4Z" style="fill:#e0e0e0"/><path d="M0,.15V593.28H982.29V.15H0ZM978.29,589.28H4V29.11H978.29V589.28Z" style="fill:#4c5358"/><path d="M4,545.28H978.29v-1H4Z" style="fill:#a8abae"/><polygon points="970.67 11.67 969.15 10.15 965.6 13.7 962.05 10.15 960.53 11.67 964.08 15.22 960.53 18.77 962.05 20.29 965.6 16.74 969.15 20.29 970.67 18.77 967.12 15.22 970.67 11.67" style="fill:#fff"/></g><rect x="878.55" y="556.28" width="78" height="22" style="fill:url(#linear-gradient)"/><path d="M877.55,555.28v24h80v-24Zm79,23h-78v-22h78Z" style="fill:#a8abae"/><text transform="translate(900.03 571.93)" style="font-size:12px;fill:#4d5359;font-family:SegoeUI, Segoe UI">Cancel</text><rect x="787.55" y="556.28" width="78" height="22" style="fill:url(#linear-gradient-2)"/><path d="M786.55,555.28v24h80v-24Zm79,23h-78v-22h78Z" style="fill:#a8abae"/><text transform="translate(811.27 571.93)" style="font-size:12px;fill:#4d5359;font-family:SegoeUI, Segoe UI">Apply</text><rect x="24.5" y="49.33" width="933.26" height="475.1" style="fill:#f7f7f7"/><path d="M957.26,49.83V523.94H25V49.83H957.26m1-1H24V524.94H958.26V48.83Z" style="fill:#a9acaf"/><rect x="25.01" y="69.93" width="919.2" height="26" style="fill:#647a8c"/><rect x="25.01" y="199.22" width="919.2" height="26" style="fill:#647a8c"/><rect x="25" y="121.93" width="919.21" height="26" style="fill:#e0e0e0"/><rect x="25" y="173.93" width="919.22" height="26" style="fill:#e0e0e0"/><rect x="24.97" y="251.93" width="919.24" height="26" style="fill:#e0e0e0"/><rect x="25" y="303.93" width="919.21" height="26" style="fill:#e0e0e0"/><rect x="24.97" y="382.95" width="919.24" height="26" style="fill:#e0e0e0"/><rect x="25" y="437.02" width="919.21" height="26" style="fill:#e0e0e0"/><rect x="25" y="491.18" width="919.21" height="26" style="fill:#e0e0e0"/><rect x="944.24" y="69.92" width="13" height="453.96" style="fill:#fff"/><rect x="947.21" y="88.05" width="7" height="162.75" style="fill:#777b80"/><polygon points="945.21 523.88 945.21 71.17 956.22 71.17 956.22 523.88 957.22 523.88 957.22 69.92 944.22 69.92 944.22 523.88 945.21 523.88" style="fill:#e1e4e6"/><polygon points="954.53 512.65 947.53 512.65 951.03 518.88 954.53 512.65" style="fill:#777b80"/><polygon points="954.53 82.41 947.53 82.41 951.03 76.17 954.53 82.41" style="fill:#777b80"/><rect x="24.5" y="49.33" width="933.26" height="20.09" style="fill:#e0e0e0"/><path d="M957.26,49.83V68.92H25V49.83H957.26m1-1H24V69.92H958.26V48.83Z" style="fill:#a9acaf"/><text transform="translate(13.17 17.33)" style="font-size:12px;fill:#fff;font-family:SegoeUI, Segoe UI">Ha<tspan x="14.63" y="0" style="letter-spacing:-0.01318359375em">r</tspan><tspan x="18.64" y="0">dwa</tspan><tspan x="40.48" y="0" style="letter-spacing:-0.01318359375em">r</tspan><tspan x="44.5" y="0">e Configuration - myAppInstaller</tspan></text><text transform="translate(13.17 17.33)" style="font-size:12px;fill:#fff;font-family:SegoeUI, Segoe UI">Ha<tspan x="14.63" y="0" style="letter-spacing:-0.01318359375em">r</tspan><tspan x="18.64" y="0">dwa</tspan><tspan x="40.48" y="0" style="letter-spacing:-0.01318359375em">r</tspan><tspan x="44.5" y="0">e Configuration - myAppInstaller</tspan></text><text transform="translate(13.17 17.33)" style="font-size:12px;fill:#fff;font-family:SegoeUI, Segoe UI">Ha<tspan x="14.63" y="0" style="letter-spacing:-0.01318359375em">r</tspan><tspan x="18.64" y="0">dwa</tspan><tspan x="40.48" y="0" style="letter-spacing:-0.01318359375em">r</tspan><tspan x="44.5" y="0">e Configuration - myAppInstaller</tspan></text><text transform="translate(62.22 88.17)" style="font-size:12px;fill:#fff;font-family:SegoeUI, Segoe UI">c<tspan x="5.54" y="0" style="letter-spacing:-0.01611328125em">D</tspan><tspan x="13.76" y="0">AQ-9174</tspan></text><text transform="translate(62.22 139.37)" style="font-size:12px;fill:#4d5359;font-family:SegoeUI, Segoe UI">Slot 2 : <tspan x="39.31" y="0" style="fill:#424242">NI-9219</tspan></text><text transform="translate(62.22 113.07)" style="font-size:12px;fill:#4d5359;font-family:SegoeUI, Segoe UI">Slot 1 : <tspan x="39.31" y="0" style="fill:#424242">NI-9260</tspan></text><text transform="translate(62.22 165.68)" style="font-size:12px;fill:#4d5359;font-family:SegoeUI, Segoe UI">Slot 3 : <tspan x="39.31" y="0" style="fill:#424242">NI-9219</tspan></text><text transform="translate(62.22 191.98)" style="font-size:12px;fill:#424242;font-family:SegoeUI, Segoe UI">Slot 4 : NI-9236</text><text transform="translate(62.22 268.99)" style="font-size:12px;fill:#4d5359;font-family:SegoeUI, Segoe UI">Slot 2 : <tspan x="39.31" y="0" style="fill:#424242">NI-9219</tspan></text><text transform="translate(62.22 242.75)" style="font-size:12px;fill:#4d5359;font-family:SegoeUI, Segoe UI">Slot 1 : <tspan x="39.31" y="0" style="fill:#424242">NI-9260</tspan></text><text transform="translate(62.22 295.23)" style="font-size:12px;fill:#4d5359;font-family:SegoeUI, Segoe UI">Slot 3 : <tspan x="39.31" y="0" style="fill:#424242">NI-9219</tspan></text><text transform="translate(62.22 321.46)" style="font-size:12px;fill:#424242;font-family:SegoeUI, Segoe UI">Slot 4 : NI-9236</text><text transform="translate(62.22 400.61)" style="font-size:12px;fill:#424242;font-family:SegoeUI, Segoe UI">Slot 2 : NI <tspan x="54.77" y="0" style="letter-spacing:-0.02978515625em">P</tspan><tspan x="61.13" y="0">XIe-2515</tspan></text><text transform="translate(62.22 374.37)" style="font-size:12px;fill:#424242;font-family:SegoeUI, Segoe UI">Slot 1 : NI <tspan x="54.77" y="0" style="letter-spacing:-0.02978515625em">P</tspan><tspan x="61.13" y="0">XIe-8880</tspan></text><text transform="translate(62.22 427.85)" style="font-size:12px;fill:#424242;font-family:SegoeUI, Segoe UI">Slot 3 : NI <tspan x="54.77" y="0" style="letter-spacing:-0.02978515625em">P</tspan><tspan x="61.13" y="0">XIe-4112</tspan></text><text transform="translate(62.22 454.08)" style="font-size:12px;fill:#424242;font-family:SegoeUI, Segoe UI">Slot 4 : NI <tspan x="54.77" y="0" style="letter-spacing:-0.02978515625em">P</tspan><tspan x="61.13" y="0">XIe-4113</tspan></text><text transform="translate(62.22 482.06)" style="font-size:12px;fill:#424242;font-family:SegoeUI, Segoe UI">Slot 5 : NI <tspan x="54.77" y="0" style="letter-spacing:-0.02978515625em">P</tspan><tspan x="61.13" y="0">XIe-4113</tspan></text><text transform="translate(62.22 509.3)" style="font-size:12px;fill:#424242;font-family:SegoeUI, Segoe UI">Slot 6 : NI <tspan x="54.77" y="0" style="letter-spacing:-0.02978515625em">P</tspan><tspan x="61.13" y="0">XIe-2515</tspan></text><text transform="translate(62.22 217.34)" style="font-size:12px;fill:#fff;font-family:SegoeUI, Segoe UI">c<tspan x="5.54" y="0" style="letter-spacing:-0.01611328125em">D</tspan><tspan x="13.76" y="0">AQ-9174</tspan></text><rect x="24.97" y="329.93" width="919.24" height="26" style="fill:#647a8c"/><text transform="translate(62.22 348.09)" style="font-size:12px;fill:#fff;font-family:SegoeUI, Segoe UI">NI <tspan x="15.46" y="0" style="letter-spacing:-0.02978515625em">P</tspan><tspan x="21.82" y="0">XIe-1062Q</tspan></text><rect x="25" y="381.93" width="919.23" height="1" style="fill:#c7ccd0"/><rect x="25" y="355.43" width="919.23" height="1" style="fill:#c7ccd0"/><rect x="25" y="329.43" width="919.23" height="1" style="fill:#c7ccd0"/><rect x="25" y="303.43" width="919.23" height="1" style="fill:#c7ccd0"/><rect x="25" y="277.43" width="919.23" height="1" style="fill:#c7ccd0"/><rect x="25" y="251.43" width="919.23" height="1" style="fill:#c7ccd0"/><rect x="25" y="224.72" width="919.23" height="1" style="fill:#c7ccd0"/><rect x="25" y="199.43" width="919.23" height="1" style="fill:#c7ccd0"/><rect x="25" y="173.43" width="919.23" height="1" style="fill:#c7ccd0"/><rect x="25" y="147.43" width="919.23" height="1" style="fill:#c7ccd0"/><rect x="25" y="121.43" width="919.23" height="1" style="fill:#c7ccd0"/><rect x="25" y="95.43" width="919.23" height="1" style="fill:#a9acaf"/><rect x="25" y="408.93" width="919.23" height="1" style="fill:#c7ccd0"/><rect x="25" y="436.02" width="919.23" height="1" style="fill:#c7ccd0"/><rect x="25" y="463.02" width="919.23" height="1" style="fill:#c7ccd0"/><rect x="25" y="490.18" width="919.23" height="1" style="fill:#c7ccd0"/><rect x="25" y="517.18" width="919.23" height="1" style="fill:#c7ccd0"/><text transform="translate(30.04 64.46)" style="font-size:10px;fill:#4d5359;font-family:SegoeUI-Bold, Segoe UI;font-weight:700">ITEM</text><path d="M34.2,77.93v10h16v-10Zm3,9h-1v-1h1Zm0-2h-1v-1h1Zm12,2h-1v-7h-1v7h-1v-7h-1v7h-1v-7h-1v7h-1v-7h-1v7h-1v-4h-5v-4h14Zm-9-5h-4v-2h4Z" style="fill:#fff"/><path d="M34.2,208.12v10h16v-10Zm3,9h-1v-1h1Zm0-2h-1v-1h1Zm12,2h-1v-7h-1v7h-1v-7h-1v7h-1v-7h-1v7h-1v-7h-1v7h-1v-4h-5v-4h14Zm-9-5h-4v-2h4Z" style="fill:#fff"/><path d="M47.88,337h-15v12h1v1h2v-1h10v1h2v-1h1V337Zm0,10h-10v-1h-3v1h-1v-9h14Zm-9-2h-4v-6h4Zm2,0h-1v-6h1Zm2,0h-1v-6h1Zm2,0h-1v-6h1Zm2,0h-1v-6h1Z" style="fill:#fff"/></svg>