<svg xmlns="http://www.w3.org/2000/svg" width="969.83" height="394.9" viewBox="0 0 969.83 394.9"><title>spacing</title><g id="Layer_2" data-name="Layer 2"><rect x="52.09" y="77.9" width="671" height="317" style="fill:#a9acaf"/><rect x="53.09" y="78.9" width="669" height="1" style="fill:#fff"/><rect x="53.09" y="104.9" width="669" height="246" style="fill:#c6cacc"/><rect x="53.09" y="79.9" width="669" height="24" style="fill:#f7f7f7"/><text transform="translate(63.1 95.9)" style="font-size:10px;fill:#4d5359;font-family:SegoeUI-Bold, Segoe UI;font-weight:700">[<tspan x="3.69" y="0" style="letter-spacing:-0.01220703125em">C</tspan><tspan x="9.81" y="0">O</tspan><tspan x="17.39" y="0" style="letter-spacing:-0.02001953125em">L</tspan><tspan x="22.3" y="0">UMN1]</tspan></text><text transform="translate(177.09 95.9)" style="font-size:10px;fill:#4d5359;font-family:SegoeUI-Bold, Segoe UI;font-weight:700">[<tspan x="3.69" y="0" style="letter-spacing:-0.01220703125em">C</tspan><tspan x="9.81" y="0">O</tspan><tspan x="17.39" y="0" style="letter-spacing:-0.02001953125em">L</tspan><tspan x="22.3" y="0">UMN…</tspan></text><text transform="translate(246.09 95.9)" style="font-size:10px;fill:#4d5359;font-family:SegoeUI-Bold, Segoe UI;font-weight:700">[<tspan x="3.69" y="0" style="letter-spacing:-0.01220703125em">C</tspan><tspan x="9.81" y="0">O</tspan><tspan x="17.39" y="0" style="letter-spacing:-0.02001953125em">L</tspan><tspan x="22.3" y="0">UMN3]</tspan></text><polyline points="166.09 82.9 167.09 82.9 167.09 100.9 166.09 100.9 166.09 82.9" style="fill:#82878c"/><polyline points="235.09 82.9 236.09 82.9 236.09 100.9 235.09 100.9 235.09 82.9" style="fill:#82878c"/><rect x="53.09" y="123.9" width="669" height="18" style="fill:#e0e0e0"/><rect x="53.09" y="142.9" width="669" height="18" style="fill:#f7f7f7"/><rect x="53.09" y="104.9" width="669" height="18" style="fill:#637a8d"/><text transform="translate(246.09 136.9)" style="font-size:12px;fill:#4d5359;font-family:SegoeUI, Segoe UI">[I<tspan x="6.81" y="0" style="letter-spacing:-0.0078125em">t</tspan><tspan x="10.79" y="0">em]</tspan></text><text transform="translate(177.09 136.9)" style="font-size:12px;fill:#4d5359;font-family:SegoeUI, Segoe UI">[I<tspan x="6.81" y="0" style="letter-spacing:-0.0078125em">t</tspan><tspan x="10.79" y="0">em]</tspan></text><text transform="translate(95.1 136.9)" style="font-size:12px;fill:#4d5359;font-family:SegoeUI, Segoe UI">[I<tspan x="6.81" y="0" style="letter-spacing:-0.0078125em">t</tspan><tspan x="10.79" y="0">em]</tspan></text><polyline points="235.09 125.9 236.09 125.9 236.09 139.9 235.09 139.9 235.09 125.9" style="fill:#c6cacc"/><polyline points="166.09 125.9 167.09 125.9 167.09 139.9 166.09 139.9 166.09 125.9" style="fill:#c6cacc"/><text transform="translate(246.09 155.9)" style="font-size:12px;fill:#4d5359;font-family:SegoeUI, Segoe UI">[I<tspan x="6.81" y="0" style="letter-spacing:-0.0078125em">t</tspan><tspan x="10.79" y="0">em]</tspan></text><text transform="translate(177.09 155.9)" style="font-size:12px;fill:#4d5359;font-family:SegoeUI, Segoe UI">[I<tspan x="6.81" y="0" style="letter-spacing:-0.0078125em">t</tspan><tspan x="10.79" y="0">em]</tspan></text><polyline points="235.09 144.9 236.09 144.9 236.09 158.9 235.09 158.9 235.09 144.9" style="fill:#c6cacc"/><polyline points="166.09 144.9 167.09 144.9 167.09 158.9 166.09 158.9 166.09 144.9" style="fill:#c6cacc"/><rect x="53.09" y="161.9" width="669" height="18" style="fill:#e0e0e0"/><text transform="translate(177.09 174.9)" style="font-size:12px;fill:#4d5359;font-family:SegoeUI, Segoe UI">[I<tspan x="6.81" y="0" style="letter-spacing:-0.0078125em">t</tspan><tspan x="10.79" y="0">em]</tspan></text><polyline points="235.09 163.9 236.09 163.9 236.09 177.9 235.09 177.9 235.09 163.9" style="fill:#c6cacc"/><polyline points="166.09 163.9 167.09 163.9 167.09 177.9 166.09 177.9 166.09 163.9" style="fill:#c6cacc"/><text transform="translate(246.1 174.9)" style="font-size:12px;fill:#4d5359;font-family:SegoeUI, Segoe UI">[I<tspan x="6.81" y="0" style="letter-spacing:-0.0078125em">t</tspan><tspan x="10.79" y="0">em]</tspan></text><text transform="translate(95.1 155.9)" style="font-size:12px;fill:#4d5359;font-family:SegoeUI, Segoe UI">[I<tspan x="6.81" y="0" style="letter-spacing:-0.0078125em">t</tspan><tspan x="10.79" y="0">em]</tspan></text><text transform="translate(95.1 174.9)" style="font-size:12px;fill:#4d5359;font-family:SegoeUI, Segoe UI">[I<tspan x="6.81" y="0" style="letter-spacing:-0.0078125em">t</tspan><tspan x="10.79" y="0">em]</tspan></text><rect x="52.09" y="103.9" width="671" height="1" style="fill:#a9acaf"/><text transform="translate(79.09 117.9)" style="font-size:12px;fill:#fff;font-family:SegoeUI, Segoe UI">[G<tspan x="11.85" y="0" style="letter-spacing:-0.01318359375em">r</tspan><tspan x="15.87" y="0">oupLabel1]</tspan></text><path d="M66.59,110.9h9l-4.5,6Z" style="fill:#fff"/><rect x="53.09" y="350.9" width="669" height="1" style="fill:#a9acaf"/><rect x="53.09" y="180.9" width="669" height="18" style="fill:#637a8d"/><text transform="translate(79.09 193.9)" style="font-size:12px;fill:#fff;font-family:SegoeUI, Segoe UI">[G<tspan x="11.85" y="0" style="letter-spacing:-0.01318359375em">r</tspan><tspan x="15.87" y="0">oupLabel2]</tspan></text><path d="M68.09,194.4v-9l6,4.5Z" style="fill:#fff"/><path d="M84.09,156.9v-9l6,4.5Z" style="fill:#777b80"/><rect x="53.09" y="199.9" width="669" height="18" style="fill:#637a8d"/><text transform="translate(79.09 212.9)" style="font-size:12px;fill:#fff;font-family:SegoeUI, Segoe UI">[G<tspan x="11.85" y="0" style="letter-spacing:-0.01318359375em">r</tspan><tspan x="15.87" y="0">oupLabel3]</tspan></text><path d="M66.59,205.9h9l-4.5,6Z" style="fill:#fff"/><rect x="53.09" y="218.9" width="669" height="19" style="fill:#e0e0e0"/><rect x="53.09" y="313.9" width="669" height="18" style="fill:#f7f7f7"/><polyline points="235.09 315.9 236.09 315.9 236.09 329.9 235.09 329.9 235.09 315.9" style="fill:#c6cacc"/><rect x="53.09" y="332.9" width="669" height="18" style="fill:#e0e0e0"/><polyline points="235.09 334.9 236.09 334.9 236.09 348.9 235.09 348.9 235.09 334.9" style="fill:#c6cacc"/><polyline points="166.09 315.9 167.09 315.9 167.09 329.9 166.09 329.9 166.09 315.9" style="fill:#c6cacc"/><text transform="translate(246.09 231.9)" style="font-size:12px;fill:#4d5359;font-family:SegoeUI, Segoe UI">[I<tspan x="6.81" y="0" style="letter-spacing:-0.0078125em">t</tspan><tspan x="10.79" y="0">em]</tspan></text><text transform="translate(177.09 231.9)" style="font-size:12px;fill:#4d5359;font-family:SegoeUI, Segoe UI">[I<tspan x="6.81" y="0" style="letter-spacing:-0.0078125em">t</tspan><tspan x="10.79" y="0">em]</tspan></text><text transform="translate(95.1 231.9)" style="font-size:12px;fill:#4d5359;font-family:SegoeUI, Segoe UI">[I<tspan x="6.81" y="0" style="letter-spacing:-0.0078125em">t</tspan><tspan x="10.79" y="0">em]</tspan></text><text transform="translate(246.09 326.9)" style="font-size:12px;fill:#4d5359;font-family:SegoeUI, Segoe UI">[I<tspan x="6.81" y="0" style="letter-spacing:-0.0078125em">t</tspan><tspan x="10.79" y="0">em]</tspan></text><text transform="translate(177.09 326.9)" style="font-size:12px;fill:#4d5359;font-family:SegoeUI, Segoe UI">[I<tspan x="6.81" y="0" style="letter-spacing:-0.0078125em">t</tspan><tspan x="10.79" y="0">em]</tspan></text><text transform="translate(177.09 345.9)" style="font-size:12px;fill:#4d5359;font-family:SegoeUI, Segoe UI">[I<tspan x="6.81" y="0" style="letter-spacing:-0.0078125em">t</tspan><tspan x="10.79" y="0">em]</tspan></text><text transform="translate(246.1 345.9)" style="font-size:12px;fill:#4d5359;font-family:SegoeUI, Segoe UI">[I<tspan x="6.81" y="0" style="letter-spacing:-0.0078125em">t</tspan><tspan x="10.79" y="0">em]</tspan></text><text transform="translate(391.09 95.9)" style="font-size:10px;fill:#4d5359;font-family:SegoeUI-Bold, Segoe UI;font-weight:700">[<tspan x="3.69" y="0" style="letter-spacing:-0.01220703125em">C</tspan><tspan x="9.81" y="0">O</tspan><tspan x="17.39" y="0" style="letter-spacing:-0.02001953125em">L</tspan><tspan x="22.3" y="0">UMN4]</tspan></text><polyline points="380.09 82.9 381.09 82.9 381.09 100.9 380.09 100.9 380.09 82.9" style="fill:#82878c"/><text transform="translate(391.09 136.9)" style="font-size:12px;fill:#4d5359;font-family:SegoeUI, Segoe UI">[I<tspan x="6.81" y="0" style="letter-spacing:-0.0078125em">t</tspan><tspan x="10.79" y="0">em]</tspan></text><polyline points="380.09 125.9 381.09 125.9 381.09 139.9 380.09 139.9 380.09 125.9" style="fill:#c6cacc"/><text transform="translate(391.09 155.9)" style="font-size:12px;fill:#4d5359;font-family:SegoeUI, Segoe UI">[I<tspan x="6.81" y="0" style="letter-spacing:-0.0078125em">t</tspan><tspan x="10.79" y="0">em]</tspan></text><polyline points="380.09 144.9 381.09 144.9 381.09 158.9 380.09 158.9 380.09 144.9" style="fill:#c6cacc"/><polyline points="380.09 163.9 381.09 163.9 381.09 177.9 380.09 177.9 380.09 163.9" style="fill:#c6cacc"/><text transform="translate(391.09 174.9)" style="font-size:12px;fill:#4d5359;font-family:SegoeUI, Segoe UI">[I<tspan x="6.81" y="0" style="letter-spacing:-0.0078125em">t</tspan><tspan x="10.79" y="0">em]</tspan></text><polyline points="380.09 315.9 381.09 315.9 381.09 329.9 380.09 329.9 380.09 315.9" style="fill:#c6cacc"/><polyline points="380.09 334.9 381.09 334.9 381.09 348.9 380.09 348.9 380.09 334.9" style="fill:#c6cacc"/><text transform="translate(391.09 231.9)" style="font-size:12px;fill:#4d5359;font-family:SegoeUI, Segoe UI">[I<tspan x="6.81" y="0" style="letter-spacing:-0.0078125em">t</tspan><tspan x="10.79" y="0">em]</tspan></text><text transform="translate(391.09 326.9)" style="font-size:12px;fill:#4d5359;font-family:SegoeUI, Segoe UI">[I<tspan x="6.81" y="0" style="letter-spacing:-0.0078125em">t</tspan><tspan x="10.79" y="0">em]</tspan></text><text transform="translate(391.09 345.9)" style="font-size:12px;fill:#4d5359;font-family:SegoeUI, Segoe UI">[I<tspan x="6.81" y="0" style="letter-spacing:-0.0078125em">t</tspan><tspan x="10.79" y="0">em]</tspan></text><text transform="translate(484.09 95.9)" style="font-size:10px;fill:#4d5359;font-family:SegoeUI-Bold, Segoe UI;font-weight:700">[<tspan x="3.69" y="0" style="letter-spacing:-0.01220703125em">C</tspan><tspan x="9.81" y="0">O</tspan><tspan x="17.39" y="0" style="letter-spacing:-0.02001953125em">L</tspan><tspan x="22.3" y="0">UMN5]</tspan></text><polyline points="473.09 82.9 474.09 82.9 474.09 100.9 473.09 100.9 473.09 82.9" style="fill:#82878c"/><text transform="translate(484.09 136.9)" style="font-size:12px;fill:#4d5359;font-family:SegoeUI, Segoe UI">[I<tspan x="6.81" y="0" style="letter-spacing:-0.0078125em">t</tspan><tspan x="10.79" y="0">em]</tspan></text><polyline points="473.09 125.9 474.09 125.9 474.09 139.9 473.09 139.9 473.09 125.9" style="fill:#c6cacc"/><text transform="translate(484.09 155.9)" style="font-size:12px;fill:#4d5359;font-family:SegoeUI, Segoe UI">[I<tspan x="6.81" y="0" style="letter-spacing:-0.0078125em">t</tspan><tspan x="10.79" y="0">em]</tspan></text><polyline points="473.09 144.9 474.09 144.9 474.09 158.9 473.09 158.9 473.09 144.9" style="fill:#c6cacc"/><polyline points="473.09 163.9 474.09 163.9 474.09 177.9 473.09 177.9 473.09 163.9" style="fill:#c6cacc"/><text transform="translate(484.09 174.9)" style="font-size:12px;fill:#4d5359;font-family:SegoeUI, Segoe UI">[I<tspan x="6.81" y="0" style="letter-spacing:-0.0078125em">t</tspan><tspan x="10.79" y="0">em]</tspan></text><polyline points="473.09 315.9 474.09 315.9 474.09 329.9 473.09 329.9 473.09 315.9" style="fill:#c6cacc"/><polyline points="473.09 334.9 474.09 334.9 474.09 348.9 473.09 348.9 473.09 334.9" style="fill:#c6cacc"/><text transform="translate(484.09 231.9)" style="font-size:12px;fill:#4d5359;font-family:SegoeUI, Segoe UI">[I<tspan x="6.81" y="0" style="letter-spacing:-0.0078125em">t</tspan><tspan x="10.79" y="0">em]</tspan></text><text transform="translate(484.09 326.9)" style="font-size:12px;fill:#4d5359;font-family:SegoeUI, Segoe UI">[I<tspan x="6.81" y="0" style="letter-spacing:-0.0078125em">t</tspan><tspan x="10.79" y="0">em]</tspan></text><text transform="translate(484.09 345.9)" style="font-size:12px;fill:#4d5359;font-family:SegoeUI, Segoe UI">[I<tspan x="6.81" y="0" style="letter-spacing:-0.0078125em">t</tspan><tspan x="10.79" y="0">em]</tspan></text><text transform="translate(95.1 326.9)" style="font-size:12px;fill:#4d5359;font-family:SegoeUI, Segoe UI">[I<tspan x="6.81" y="0" style="letter-spacing:-0.0078125em">t</tspan><tspan x="10.79" y="0">em]</tspan></text><text transform="translate(95.1 345.9)" style="font-size:12px;fill:#4d5359;font-family:SegoeUI, Segoe UI">[I<tspan x="6.81" y="0" style="letter-spacing:-0.0078125em">t</tspan><tspan x="10.79" y="0">em]</tspan></text><rect x="53.09" y="351.9" width="669" height="42" style="fill:#f7f7f7"/><path d="M82.59,225.9h9l-4.5,6Z" style="fill:#777b80"/><rect x="53.09" y="237.9" width="669" height="19" style="fill:#e0e0e0"/><rect x="53.09" y="256.9" width="669" height="19" style="fill:#e0e0e0"/><rect x="53.09" y="275.9" width="669" height="19" style="fill:#e0e0e0"/><rect x="53.09" y="294.9" width="669" height="19" style="fill:#e0e0e0"/><rect x="53.09" y="312.9" width="669" height="1" style="fill:#c5c9cb"/><rect x="53.09" y="293.9" width="669" height="1" style="fill:#c5c9cb;opacity:0.25"/><rect x="53.09" y="274.9" width="669" height="1" style="fill:#c5c9cb;opacity:0.25"/><rect x="53.09" y="255.9" width="669" height="1" style="fill:#c5c9cb;opacity:0.25"/><rect x="53.09" y="236.9" width="669" height="1" style="fill:#c5c9cb;opacity:0.25"/><text transform="translate(262.1 250.9)" style="font-size:12px;fill:#4d5359;font-family:SegoeUI, Segoe UI">[subI<tspan x="25.75" y="0" style="letter-spacing:-0.0078125em">t</tspan><tspan x="29.72" y="0">em]</tspan></text><text transform="translate(193.1 250.9)" style="font-size:12px;fill:#4d5359;font-family:SegoeUI, Segoe UI">[subI…</text><text transform="translate(111.1 250.9)" style="font-size:12px;fill:#4d5359;font-family:SegoeUI, Segoe UI">[subI<tspan x="25.75" y="0" style="letter-spacing:-0.0078125em">t</tspan><tspan x="29.72" y="0">em]</tspan></text><text transform="translate(407.09 250.9)" style="font-size:12px;fill:#4d5359;font-family:SegoeUI, Segoe UI">[subI<tspan x="25.75" y="0" style="letter-spacing:-0.0078125em">t</tspan><tspan x="29.72" y="0">em]</tspan></text><text transform="translate(500.09 250.9)" style="font-size:12px;fill:#4d5359;font-family:SegoeUI, Segoe UI">[subI<tspan x="25.75" y="0" style="letter-spacing:-0.0078125em">t</tspan><tspan x="29.72" y="0">em]</tspan></text><text transform="translate(262.1 269.9)" style="font-size:12px;fill:#4d5359;font-family:SegoeUI, Segoe UI">[subI<tspan x="25.75" y="0" style="letter-spacing:-0.0078125em">t</tspan><tspan x="29.72" y="0">em]</tspan></text><text transform="translate(193.1 269.9)" style="font-size:12px;fill:#4d5359;font-family:SegoeUI, Segoe UI">[subI…</text><text transform="translate(111.1 269.9)" style="font-size:12px;fill:#4d5359;font-family:SegoeUI, Segoe UI">[subI<tspan x="25.75" y="0" style="letter-spacing:-0.0078125em">t</tspan><tspan x="29.72" y="0">em]</tspan></text><path d="M100.09,270.9v-9l6,4.5Z" style="fill:#777b80"/><text transform="translate(407.09 269.9)" style="font-size:12px;fill:#4d5359;font-family:SegoeUI, Segoe UI">[subI<tspan x="25.75" y="0" style="letter-spacing:-0.0078125em">t</tspan><tspan x="29.72" y="0">em]</tspan></text><text transform="translate(500.09 269.9)" style="font-size:12px;fill:#4d5359;font-family:SegoeUI, Segoe UI">[subI<tspan x="25.75" y="0" style="letter-spacing:-0.0078125em">t</tspan><tspan x="29.72" y="0">em]</tspan></text><text transform="translate(262.1 288.9)" style="font-size:12px;fill:#4d5359;font-family:SegoeUI, Segoe UI">[subI<tspan x="25.75" y="0" style="letter-spacing:-0.0078125em">t</tspan><tspan x="29.72" y="0">em]</tspan></text><text transform="translate(193.1 288.9)" style="font-size:12px;fill:#4d5359;font-family:SegoeUI, Segoe UI">[subI…</text><text transform="translate(111.1 288.9)" style="font-size:12px;fill:#4d5359;font-family:SegoeUI, Segoe UI">[subI<tspan x="25.75" y="0" style="letter-spacing:-0.0078125em">t</tspan><tspan x="29.72" y="0">em]</tspan></text><text transform="translate(407.09 288.9)" style="font-size:12px;fill:#4d5359;font-family:SegoeUI, Segoe UI">[subI<tspan x="25.75" y="0" style="letter-spacing:-0.0078125em">t</tspan><tspan x="29.72" y="0">em]</tspan></text><text transform="translate(500.09 288.9)" style="font-size:12px;fill:#4d5359;font-family:SegoeUI, Segoe UI">[subI<tspan x="25.75" y="0" style="letter-spacing:-0.0078125em">t</tspan><tspan x="29.72" y="0">em]</tspan></text><text transform="translate(262.1 307.9)" style="font-size:12px;fill:#4d5359;font-family:SegoeUI, Segoe UI">[subI<tspan x="25.75" y="0" style="letter-spacing:-0.0078125em">t</tspan><tspan x="29.72" y="0">em]</tspan></text><text transform="translate(193.1 307.9)" style="font-size:12px;fill:#4d5359;font-family:SegoeUI, Segoe UI">[subI…</text><text transform="translate(111.1 307.9)" style="font-size:12px;fill:#4d5359;font-family:SegoeUI, Segoe UI">[subI<tspan x="25.75" y="0" style="letter-spacing:-0.0078125em">t</tspan><tspan x="29.72" y="0">em]</tspan></text><text transform="translate(407.09 307.9)" style="font-size:12px;fill:#4d5359;font-family:SegoeUI, Segoe UI">[subI<tspan x="25.75" y="0" style="letter-spacing:-0.0078125em">t</tspan><tspan x="29.72" y="0">em]</tspan></text><text transform="translate(500.09 307.9)" style="font-size:12px;fill:#4d5359;font-family:SegoeUI, Segoe UI">[subI<tspan x="25.75" y="0" style="letter-spacing:-0.0078125em">t</tspan><tspan x="29.72" y="0">em]</tspan></text><polyline points="166.09 334.9 167.09 334.9 167.09 348.9 166.09 348.9 166.09 334.9" style="fill:#c6cacc"/><polyline points="166.09 220.9 167.09 220.9 167.09 234.9 166.09 234.9 166.09 220.9" style="fill:#c6cacc"/><polyline points="166.09 239.9 167.09 239.9 167.09 253.9 166.09 253.9 166.09 239.9" style="fill:#c6cacc;opacity:0.4"/><polyline points="166.09 258.9 167.09 258.9 167.09 272.9 166.09 272.9 166.09 258.9" style="fill:#c6cacc;opacity:0.4"/><polyline points="166.09 277.9 167.09 277.9 167.09 291.9 166.09 291.9 166.09 277.9" style="fill:#c6cacc;opacity:0.4"/><polyline points="166.09 296.9 167.09 296.9 167.09 310.9 166.09 310.9 166.09 296.9" style="fill:#c6cacc;opacity:0.4"/><polyline points="235.09 220.9 236.09 220.9 236.09 234.9 235.09 234.9 235.09 220.9" style="fill:#c6cacc"/><polyline points="235.09 239.9 236.09 239.9 236.09 253.9 235.09 253.9 235.09 239.9" style="fill:#c6cacc;opacity:0.4"/><polyline points="235.09 258.9 236.09 258.9 236.09 272.9 235.09 272.9 235.09 258.9" style="fill:#c6cacc;opacity:0.4"/><polyline points="235.09 277.9 236.09 277.9 236.09 291.9 235.09 291.9 235.09 277.9" style="fill:#c6cacc;opacity:0.4"/><polyline points="235.09 296.9 236.09 296.9 236.09 310.9 235.09 310.9 235.09 296.9" style="fill:#c6cacc;opacity:0.4"/><polyline points="380.09 220.9 381.09 220.9 381.09 234.9 380.09 234.9 380.09 220.9" style="fill:#c6cacc"/><polyline points="380.09 239.9 381.09 239.9 381.09 253.9 380.09 253.9 380.09 239.9" style="fill:#c6cacc;opacity:0.4"/><polyline points="380.09 258.9 381.09 258.9 381.09 272.9 380.09 272.9 380.09 258.9" style="fill:#c6cacc;opacity:0.4"/><polyline points="380.09 277.9 381.09 277.9 381.09 291.9 380.09 291.9 380.09 277.9" style="fill:#c6cacc;opacity:0.4"/><polyline points="380.09 296.9 381.09 296.9 381.09 310.9 380.09 310.9 380.09 296.9" style="fill:#c6cacc;opacity:0.4"/><polyline points="473.09 220.9 474.09 220.9 474.09 234.9 473.09 234.9 473.09 220.9" style="fill:#c6cacc"/><polyline points="473.09 239.9 474.09 239.9 474.09 253.9 473.09 253.9 473.09 239.9" style="fill:#c6cacc;opacity:0.4"/><polyline points="473.09 258.9 474.09 258.9 474.09 272.9 473.09 272.9 473.09 258.9" style="fill:#c6cacc;opacity:0.4"/><polyline points="473.09 277.9 474.09 277.9 474.09 291.9 473.09 291.9 473.09 277.9" style="fill:#c6cacc;opacity:0.4"/><polyline points="473.09 296.9 474.09 296.9 474.09 310.9 473.09 310.9 473.09 296.9" style="fill:#c6cacc;opacity:0.4"/><rect x="708.09" y="104.9" width="15" height="290" style="fill:#fff"/><path d="M720.09,112.9h-9l4.5-6Z" style="fill:#2d333a"/><path d="M711.09,385.9h9l-4.5,6Z" style="fill:#2d333a"/><rect x="712.09" y="159.9" width="7" height="47" style="fill:#2d333a"/><path d="M723.09,103.9h-15v9h0v282h15v-291Zm-1,290h-13v-289h13Z" style="fill:#a9acaf"/><polyline points="381.09 46.9 392.09 46.9 392.09 47.9 381.09 47.9 381.09 46.9" style="fill:#ec008c"/><polyline points="225.09 16.9 235.09 16.9 235.09 17.9 225.09 17.9 225.09 16.9" style="fill:#ec008c"/><rect x="229.09" y="12.9" width="1" height="4" transform="translate(459.19 29.8) rotate(180)" style="fill:#ec008c"/><rect x="386.09" y="42.9" width="1" height="5" style="fill:#ec008c"/><polyline points="391.09 356.9 392.09 356.9 392.09 46.9 391.09 46.9 391.09 356.9" style="fill:#ec008c"/><polyline points="382.09 356.9 381.09 356.9 381.09 46.9 382.09 46.9 382.09 356.9" style="fill:#ec008c"/><text transform="translate(760.09 41.9)" style="font-size:14px;fill:#ec008c;font-family:SegoeUI, Segoe UI">Column names begin 10<tspan x="150.24" y="0" style="letter-spacing:-0.01220703125em">p</tspan><tspan x="158.3" y="0">x</tspan><tspan x="0" y="16.8">f</tspan><tspan x="4.38" y="16.8" style="letter-spacing:-0.01318359375em">r</tspan><tspan x="9.06" y="16.8">om le</tspan><tspan x="43.87" y="16.8" style="letter-spacing:0.01806640625em">f</tspan><tspan x="48.51" y="16.8">t edge.</tspan></text><polyline points="234.09 356.9 235.09 356.9 235.09 16.9 234.09 16.9 234.09 356.9" style="fill:#ec008c"/><polyline points="226.09 356.9 225.09 356.9 225.09 16.9 226.09 16.9 226.09 356.9" style="fill:#ec008c"/><text transform="translate(422.09 11.9)" style="font-size:14px;fill:#ec008c;font-family:SegoeUI, Segoe UI">Column names clip 10<tspan x="136.61" y="0" style="letter-spacing:-0.01220703125em">p</tspan><tspan x="144.67" y="0">x</tspan><tspan x="0" y="16.8">f</tspan><tspan x="4.38" y="16.8" style="letter-spacing:-0.01318359375em">r</tspan><tspan x="9.06" y="16.8">om right edge</tspan></text><text transform="translate(0 269.9)" style="font-size:14px;fill:#ec008c;font-family:SegoeUI, Segoe UI">24</text><rect x="20.09" y="256.9" width="38" height="1" style="fill:#ec008c"/><rect x="20.09" y="273.9" width="38" height="1" style="fill:#ec008c"/><rect x="20.09" y="256.9" width="1" height="18" style="fill:#ec008c"/><text transform="translate(0 212.9)" style="font-size:14px;fill:#ec008c;font-family:SegoeUI, Segoe UI">24</text><rect x="20.09" y="199.9" width="38" height="1" style="fill:#ec008c"/><rect x="20.09" y="216.9" width="38" height="1" style="fill:#ec008c"/><rect x="20.09" y="199.9" width="1" height="18" style="fill:#ec008c"/><text transform="translate(760.09 96.9)" style="font-size:14px;fill:#ec008c;font-family:SegoeUI, Segoe UI">24 (22<tspan x="38.25" y="0" style="letter-spacing:-0.01220703125em">p</tspan><tspan x="46.31" y="0">x w/ 1</tspan><tspan x="83.52" y="0" style="letter-spacing:-0.01220703125em">p</tspan><tspan x="91.58" y="0">x whi</tspan><tspan x="123.27" y="0" style="letter-spacing:-0.0078125em">t</tspan><tspan x="127.91" y="0">e </tspan><tspan x="139.06" y="0" style="letter-spacing:-0.0078125em">t</tspan><tspan x="143.7" y="0">op bo</tspan><tspan x="180.4" y="0" style="letter-spacing:-0.01318359375em">r</tspan><tspan x="185.08" y="0">der)</tspan></text><rect x="717.09" y="79.9" width="38" height="1" style="fill:#ec008c"/><rect x="717.09" y="102.9" width="38" height="1" style="fill:#ec008c"/><rect x="754.09" y="79.9" width="1" height="24" style="fill:#ec008c"/><rect x="386.09" y="42.9" width="369" height="1" style="fill:#ec008c"/><rect x="230.09" y="12.9" width="185" height="1" style="fill:#ec008c"/></g></svg>