<svg xmlns="http://www.w3.org/2000/svg" width="929.67" height="317" viewBox="0 0 929.67 317"><title>typography</title><g id="Layer_2" data-name="Layer 2"><rect width="671" height="317" style="fill:#a9acaf"/><rect x="1" y="1" width="669" height="1" style="fill:#fff"/><rect x="1" y="27" width="669" height="246" style="fill:#c6cacc"/><rect x="1" y="2" width="669" height="24" style="fill:#f7f7f7"/><text transform="translate(11 18)" style="font-size:10px;fill:#4d5359;font-family:SegoeUI-Bold, Segoe UI;font-weight:700">[<tspan x="3.69" y="0" style="letter-spacing:-0.01220703125em">C</tspan><tspan x="9.81" y="0">O</tspan><tspan x="17.39" y="0" style="letter-spacing:-0.02001953125em">L</tspan><tspan x="22.3" y="0">UMN1]</tspan></text><text transform="translate(125 18)" style="font-size:10px;fill:#4d5359;font-family:SegoeUI-Bold, Segoe UI;font-weight:700">[<tspan x="3.69" y="0" style="letter-spacing:-0.01220703125em">C</tspan><tspan x="9.81" y="0">O</tspan><tspan x="17.39" y="0" style="letter-spacing:-0.02001953125em">L</tspan><tspan x="22.3" y="0">UMN…</tspan></text><text transform="translate(194 18)" style="font-size:10px;fill:#4d5359;font-family:SegoeUI-Bold, Segoe UI;font-weight:700">[<tspan x="3.69" y="0" style="letter-spacing:-0.01220703125em">C</tspan><tspan x="9.81" y="0">O</tspan><tspan x="17.39" y="0" style="letter-spacing:-0.02001953125em">L</tspan><tspan x="22.3" y="0">UMN3]</tspan></text><polyline points="114 5 115 5 115 23 114 23 114 5" style="fill:#82878c"/><polyline points="183 5 184 5 184 23 183 23 183 5" style="fill:#82878c"/><rect x="1" y="46" width="669" height="18" style="fill:#e0e0e0"/><rect x="1" y="65" width="669" height="18" style="fill:#f7f7f7"/><rect x="1" y="27" width="669" height="18" style="fill:#637a8d"/><text transform="translate(194 59)" style="font-size:12px;fill:#4d5359;font-family:SegoeUI, Segoe UI">[I<tspan x="6.81" y="0" style="letter-spacing:-0.0078125em">t</tspan><tspan x="10.79" y="0">em]</tspan></text><text transform="translate(125 59)" style="font-size:12px;fill:#4d5359;font-family:SegoeUI, Segoe UI">[I<tspan x="6.81" y="0" style="letter-spacing:-0.0078125em">t</tspan><tspan x="10.79" y="0">em]</tspan></text><text transform="translate(43 59)" style="font-size:12px;fill:#4d5359;font-family:SegoeUI, Segoe UI">[I<tspan x="6.81" y="0" style="letter-spacing:-0.0078125em">t</tspan><tspan x="10.79" y="0">em]</tspan></text><polyline points="183 48 184 48 184 62 183 62 183 48" style="fill:#c6cacc"/><polyline points="114 48 115 48 115 62 114 62 114 48" style="fill:#c6cacc"/><text transform="translate(194 78)" style="font-size:12px;fill:#4d5359;font-family:SegoeUI, Segoe UI">[I<tspan x="6.81" y="0" style="letter-spacing:-0.0078125em">t</tspan><tspan x="10.79" y="0">em]</tspan></text><text transform="translate(125 78)" style="font-size:12px;fill:#4d5359;font-family:SegoeUI, Segoe UI">[I<tspan x="6.81" y="0" style="letter-spacing:-0.0078125em">t</tspan><tspan x="10.79" y="0">em]</tspan></text><polyline points="183 67 184 67 184 81 183 81 183 67" style="fill:#c6cacc"/><polyline points="114 67 115 67 115 81 114 81 114 67" style="fill:#c6cacc"/><rect x="1" y="84" width="669" height="18" style="fill:#e0e0e0"/><text transform="translate(125 97)" style="font-size:12px;fill:#4d5359;font-family:SegoeUI, Segoe UI">[I<tspan x="6.81" y="0" style="letter-spacing:-0.0078125em">t</tspan><tspan x="10.79" y="0">em]</tspan></text><polyline points="183 86 184 86 184 100 183 100 183 86" style="fill:#c6cacc"/><polyline points="114 86 115 86 115 100 114 100 114 86" style="fill:#c6cacc"/><text transform="translate(194 97)" style="font-size:12px;fill:#4d5359;font-family:SegoeUI, Segoe UI">[I<tspan x="6.81" y="0" style="letter-spacing:-0.0078125em">t</tspan><tspan x="10.79" y="0">em]</tspan></text><text transform="translate(43 78)" style="font-size:12px;fill:#4d5359;font-family:SegoeUI, Segoe UI">[I<tspan x="6.81" y="0" style="letter-spacing:-0.0078125em">t</tspan><tspan x="10.79" y="0">em]</tspan></text><text transform="translate(43 97)" style="font-size:12px;fill:#4d5359;font-family:SegoeUI, Segoe UI">[I<tspan x="6.81" y="0" style="letter-spacing:-0.0078125em">t</tspan><tspan x="10.79" y="0">em]</tspan></text><rect y="26" width="671" height="1" style="fill:#a9acaf"/><text transform="translate(27 40)" style="font-size:12px;fill:#fff;font-family:SegoeUI, Segoe UI">[G<tspan x="11.85" y="0" style="letter-spacing:-0.01318359375em">r</tspan><tspan x="15.87" y="0">oupLabel1]</tspan></text><path d="M14.5,33h9L19,39Z" style="fill:#fff"/><rect x="1" y="273" width="669" height="1" style="fill:#a9acaf"/><rect x="1" y="103" width="669" height="18" style="fill:#637a8d"/><text transform="translate(27 116)" style="font-size:12px;fill:#fff;font-family:SegoeUI, Segoe UI">[G<tspan x="11.85" y="0" style="letter-spacing:-0.01318359375em">r</tspan><tspan x="15.87" y="0">oupLabel2]</tspan></text><path d="M16,116.5v-9l6,4.5Z" style="fill:#fff"/><path d="M32,79V70l6,4.5Z" style="fill:#777b80"/><rect x="1" y="122" width="669" height="18" style="fill:#637a8d"/><text transform="translate(27 135)" style="font-size:12px;fill:#fff;font-family:SegoeUI, Segoe UI">[G<tspan x="11.85" y="0" style="letter-spacing:-0.01318359375em">r</tspan><tspan x="15.87" y="0">oupLabel3]</tspan></text><path d="M14.5,128h9L19,134Z" style="fill:#fff"/><rect x="1" y="141" width="669" height="19" style="fill:#e0e0e0"/><rect x="1" y="236" width="669" height="18" style="fill:#f7f7f7"/><polyline points="183 238 184 238 184 252 183 252 183 238" style="fill:#c6cacc"/><rect x="1" y="255" width="669" height="18" style="fill:#e0e0e0"/><polyline points="183 257 184 257 184 271 183 271 183 257" style="fill:#c6cacc"/><polyline points="114 238 115 238 115 252 114 252 114 238" style="fill:#c6cacc"/><text transform="translate(194 154)" style="font-size:12px;fill:#4d5359;font-family:SegoeUI, Segoe UI">[I<tspan x="6.81" y="0" style="letter-spacing:-0.0078125em">t</tspan><tspan x="10.79" y="0">em]</tspan></text><text transform="translate(125 154)" style="font-size:12px;fill:#4d5359;font-family:SegoeUI, Segoe UI">[I<tspan x="6.81" y="0" style="letter-spacing:-0.0078125em">t</tspan><tspan x="10.79" y="0">em]</tspan></text><text transform="translate(43 154)" style="font-size:12px;fill:#4d5359;font-family:SegoeUI, Segoe UI">[I<tspan x="6.81" y="0" style="letter-spacing:-0.0078125em">t</tspan><tspan x="10.79" y="0">em]</tspan></text><text transform="translate(194 249)" style="font-size:12px;fill:#4d5359;font-family:SegoeUI, Segoe UI">[I<tspan x="6.81" y="0" style="letter-spacing:-0.0078125em">t</tspan><tspan x="10.79" y="0">em]</tspan></text><text transform="translate(125 249)" style="font-size:12px;fill:#4d5359;font-family:SegoeUI, Segoe UI">[I<tspan x="6.81" y="0" style="letter-spacing:-0.0078125em">t</tspan><tspan x="10.79" y="0">em]</tspan></text><text transform="translate(125 268)" style="font-size:12px;fill:#4d5359;font-family:SegoeUI, Segoe UI">[I<tspan x="6.81" y="0" style="letter-spacing:-0.0078125em">t</tspan><tspan x="10.79" y="0">em]</tspan></text><text transform="translate(194 268)" style="font-size:12px;fill:#4d5359;font-family:SegoeUI, Segoe UI">[I<tspan x="6.81" y="0" style="letter-spacing:-0.0078125em">t</tspan><tspan x="10.79" y="0">em]</tspan></text><text transform="translate(339 18)" style="font-size:10px;fill:#4d5359;font-family:SegoeUI-Bold, Segoe UI;font-weight:700">[<tspan x="3.69" y="0" style="letter-spacing:-0.01220703125em">C</tspan><tspan x="9.81" y="0">O</tspan><tspan x="17.39" y="0" style="letter-spacing:-0.02001953125em">L</tspan><tspan x="22.3" y="0">UMN4]</tspan></text><polyline points="328 5 329 5 329 23 328 23 328 5" style="fill:#82878c"/><text transform="translate(339 59)" style="font-size:12px;fill:#4d5359;font-family:SegoeUI, Segoe UI">[I<tspan x="6.81" y="0" style="letter-spacing:-0.0078125em">t</tspan><tspan x="10.79" y="0">em]</tspan></text><polyline points="328 48 329 48 329 62 328 62 328 48" style="fill:#c6cacc"/><text transform="translate(339 78)" style="font-size:12px;fill:#4d5359;font-family:SegoeUI, Segoe UI">[I<tspan x="6.81" y="0" style="letter-spacing:-0.0078125em">t</tspan><tspan x="10.79" y="0">em]</tspan></text><polyline points="328 67 329 67 329 81 328 81 328 67" style="fill:#c6cacc"/><polyline points="328 86 329 86 329 100 328 100 328 86" style="fill:#c6cacc"/><text transform="translate(339 97)" style="font-size:12px;fill:#4d5359;font-family:SegoeUI, Segoe UI">[I<tspan x="6.81" y="0" style="letter-spacing:-0.0078125em">t</tspan><tspan x="10.79" y="0">em]</tspan></text><polyline points="328 238 329 238 329 252 328 252 328 238" style="fill:#c6cacc"/><polyline points="328 257 329 257 329 271 328 271 328 257" style="fill:#c6cacc"/><text transform="translate(339 154)" style="font-size:12px;fill:#4d5359;font-family:SegoeUI, Segoe UI">[I<tspan x="6.81" y="0" style="letter-spacing:-0.0078125em">t</tspan><tspan x="10.79" y="0">em]</tspan></text><text transform="translate(339 249)" style="font-size:12px;fill:#4d5359;font-family:SegoeUI, Segoe UI">[I<tspan x="6.81" y="0" style="letter-spacing:-0.0078125em">t</tspan><tspan x="10.79" y="0">em]</tspan></text><text transform="translate(339 268)" style="font-size:12px;fill:#4d5359;font-family:SegoeUI, Segoe UI">[I<tspan x="6.81" y="0" style="letter-spacing:-0.0078125em">t</tspan><tspan x="10.79" y="0">em]</tspan></text><text transform="translate(432 18)" style="font-size:10px;fill:#4d5359;font-family:SegoeUI-Bold, Segoe UI;font-weight:700">[<tspan x="3.69" y="0" style="letter-spacing:-0.01220703125em">C</tspan><tspan x="9.81" y="0">O</tspan><tspan x="17.39" y="0" style="letter-spacing:-0.02001953125em">L</tspan><tspan x="22.3" y="0">UMN5]</tspan></text><polyline points="421 5 422 5 422 23 421 23 421 5" style="fill:#82878c"/><text transform="translate(432 59)" style="font-size:12px;fill:#4d5359;font-family:SegoeUI, Segoe UI">[I<tspan x="6.81" y="0" style="letter-spacing:-0.0078125em">t</tspan><tspan x="10.79" y="0">em]</tspan></text><polyline points="421 48 422 48 422 62 421 62 421 48" style="fill:#c6cacc"/><text transform="translate(432 78)" style="font-size:12px;fill:#4d5359;font-family:SegoeUI, Segoe UI">[I<tspan x="6.81" y="0" style="letter-spacing:-0.0078125em">t</tspan><tspan x="10.79" y="0">em]</tspan></text><polyline points="421 67 422 67 422 81 421 81 421 67" style="fill:#c6cacc"/><polyline points="421 86 422 86 422 100 421 100 421 86" style="fill:#c6cacc"/><text transform="translate(432 97)" style="font-size:12px;fill:#4d5359;font-family:SegoeUI, Segoe UI">[I<tspan x="6.81" y="0" style="letter-spacing:-0.0078125em">t</tspan><tspan x="10.79" y="0">em]</tspan></text><polyline points="421 238 422 238 422 252 421 252 421 238" style="fill:#c6cacc"/><polyline points="421 257 422 257 422 271 421 271 421 257" style="fill:#c6cacc"/><text transform="translate(432 154)" style="font-size:12px;fill:#4d5359;font-family:SegoeUI, Segoe UI">[I<tspan x="6.81" y="0" style="letter-spacing:-0.0078125em">t</tspan><tspan x="10.79" y="0">em]</tspan></text><text transform="translate(432 249)" style="font-size:12px;fill:#4d5359;font-family:SegoeUI, Segoe UI">[I<tspan x="6.81" y="0" style="letter-spacing:-0.0078125em">t</tspan><tspan x="10.79" y="0">em]</tspan></text><text transform="translate(432 268)" style="font-size:12px;fill:#4d5359;font-family:SegoeUI, Segoe UI">[I<tspan x="6.81" y="0" style="letter-spacing:-0.0078125em">t</tspan><tspan x="10.79" y="0">em]</tspan></text><text transform="translate(43 249)" style="font-size:12px;fill:#4d5359;font-family:SegoeUI, Segoe UI">[I<tspan x="6.81" y="0" style="letter-spacing:-0.0078125em">t</tspan><tspan x="10.79" y="0">em]</tspan></text><text transform="translate(43 268)" style="font-size:12px;fill:#4d5359;font-family:SegoeUI, Segoe UI">[I<tspan x="6.81" y="0" style="letter-spacing:-0.0078125em">t</tspan><tspan x="10.79" y="0">em]</tspan></text><rect x="1" y="274" width="669" height="42" style="fill:#f7f7f7"/><path d="M30.5,148h9L35,154Z" style="fill:#777b80"/><rect x="1" y="160" width="669" height="19" style="fill:#e0e0e0"/><rect x="1" y="179" width="669" height="19" style="fill:#e0e0e0"/><rect x="1" y="198" width="669" height="19" style="fill:#e0e0e0"/><rect x="1" y="217" width="669" height="19" style="fill:#e0e0e0"/><rect x="1" y="235" width="669" height="1" style="fill:#c5c9cb"/><rect x="1" y="216" width="669" height="1" style="fill:#c5c9cb;opacity:0.25"/><rect x="1" y="197" width="669" height="1" style="fill:#c5c9cb;opacity:0.25"/><rect x="1" y="178" width="669" height="1" style="fill:#c5c9cb;opacity:0.25"/><rect x="1" y="159" width="669" height="1" style="fill:#c5c9cb;opacity:0.25"/><text transform="translate(210 173)" style="font-size:12px;fill:#4d5359;font-family:SegoeUI, Segoe UI">[subI<tspan x="25.75" y="0" style="letter-spacing:-0.0078125em">t</tspan><tspan x="29.72" y="0">em]</tspan></text><text transform="translate(141 173)" style="font-size:12px;fill:#4d5359;font-family:SegoeUI, Segoe UI">[subI…</text><text transform="translate(59 173)" style="font-size:12px;fill:#4d5359;font-family:SegoeUI, Segoe UI">[subI<tspan x="25.75" y="0" style="letter-spacing:-0.0078125em">t</tspan><tspan x="29.72" y="0">em]</tspan></text><text transform="translate(355 173)" style="font-size:12px;fill:#4d5359;font-family:SegoeUI, Segoe UI">[subI<tspan x="25.75" y="0" style="letter-spacing:-0.0078125em">t</tspan><tspan x="29.72" y="0">em]</tspan></text><text transform="translate(448 173)" style="font-size:12px;fill:#4d5359;font-family:SegoeUI, Segoe UI">[subI<tspan x="25.75" y="0" style="letter-spacing:-0.0078125em">t</tspan><tspan x="29.72" y="0">em]</tspan></text><text transform="translate(210 192)" style="font-size:12px;fill:#4d5359;font-family:SegoeUI, Segoe UI">[subI<tspan x="25.75" y="0" style="letter-spacing:-0.0078125em">t</tspan><tspan x="29.72" y="0">em]</tspan></text><text transform="translate(141 192)" style="font-size:12px;fill:#4d5359;font-family:SegoeUI, Segoe UI">[subI…</text><text transform="translate(59 192)" style="font-size:12px;fill:#4d5359;font-family:SegoeUI, Segoe UI">[subI<tspan x="25.75" y="0" style="letter-spacing:-0.0078125em">t</tspan><tspan x="29.72" y="0">em]</tspan></text><path d="M48,193v-9l6,4.5Z" style="fill:#777b80"/><text transform="translate(355 192)" style="font-size:12px;fill:#4d5359;font-family:SegoeUI, Segoe UI">[subI<tspan x="25.75" y="0" style="letter-spacing:-0.0078125em">t</tspan><tspan x="29.72" y="0">em]</tspan></text><text transform="translate(448 192)" style="font-size:12px;fill:#4d5359;font-family:SegoeUI, Segoe UI">[subI<tspan x="25.75" y="0" style="letter-spacing:-0.0078125em">t</tspan><tspan x="29.72" y="0">em]</tspan></text><text transform="translate(210 211)" style="font-size:12px;fill:#4d5359;font-family:SegoeUI, Segoe UI">[subI<tspan x="25.75" y="0" style="letter-spacing:-0.0078125em">t</tspan><tspan x="29.72" y="0">em]</tspan></text><text transform="translate(141 211)" style="font-size:12px;fill:#4d5359;font-family:SegoeUI, Segoe UI">[subI…</text><text transform="translate(59 211)" style="font-size:12px;fill:#4d5359;font-family:SegoeUI, Segoe UI">[subI<tspan x="25.75" y="0" style="letter-spacing:-0.0078125em">t</tspan><tspan x="29.72" y="0">em]</tspan></text><text transform="translate(355 211)" style="font-size:12px;fill:#4d5359;font-family:SegoeUI, Segoe UI">[subI<tspan x="25.75" y="0" style="letter-spacing:-0.0078125em">t</tspan><tspan x="29.72" y="0">em]</tspan></text><text transform="translate(448 211)" style="font-size:12px;fill:#4d5359;font-family:SegoeUI, Segoe UI">[subI<tspan x="25.75" y="0" style="letter-spacing:-0.0078125em">t</tspan><tspan x="29.72" y="0">em]</tspan></text><text transform="translate(210 230)" style="font-size:12px;fill:#4d5359;font-family:SegoeUI, Segoe UI">[subI<tspan x="25.75" y="0" style="letter-spacing:-0.0078125em">t</tspan><tspan x="29.72" y="0">em]</tspan></text><text transform="translate(141 230)" style="font-size:12px;fill:#4d5359;font-family:SegoeUI, Segoe UI">[subI…</text><text transform="translate(59 230)" style="font-size:12px;fill:#4d5359;font-family:SegoeUI, Segoe UI">[subI<tspan x="25.75" y="0" style="letter-spacing:-0.0078125em">t</tspan><tspan x="29.72" y="0">em]</tspan></text><text transform="translate(355 230)" style="font-size:12px;fill:#4d5359;font-family:SegoeUI, Segoe UI">[subI<tspan x="25.75" y="0" style="letter-spacing:-0.0078125em">t</tspan><tspan x="29.72" y="0">em]</tspan></text><text transform="translate(448 230)" style="font-size:12px;fill:#4d5359;font-family:SegoeUI, Segoe UI">[subI<tspan x="25.75" y="0" style="letter-spacing:-0.0078125em">t</tspan><tspan x="29.72" y="0">em]</tspan></text><polyline points="421 143 422 143 422 157 421 157 421 143" style="fill:#c6cacc"/><polyline points="421 162 422 162 422 176 421 176 421 162" style="fill:#c6cacc;opacity:0.4"/><polyline points="421 181 422 181 422 195 421 195 421 181" style="fill:#c6cacc;opacity:0.4"/><polyline points="421 200 422 200 422 214 421 214 421 200" style="fill:#c6cacc;opacity:0.4"/><polyline points="421 219 422 219 422 233 421 233 421 219" style="fill:#c6cacc;opacity:0.4"/><polyline points="328 143 329 143 329 157 328 157 328 143" style="fill:#c6cacc"/><polyline points="328 162 329 162 329 176 328 176 328 162" style="fill:#c6cacc;opacity:0.4"/><polyline points="328 181 329 181 329 195 328 195 328 181" style="fill:#c6cacc;opacity:0.4"/><polyline points="328 200 329 200 329 214 328 214 328 200" style="fill:#c6cacc;opacity:0.4"/><polyline points="328 219 329 219 329 233 328 233 328 219" style="fill:#c6cacc;opacity:0.4"/><polyline points="183 143 184 143 184 157 183 157 183 143" style="fill:#c6cacc"/><polyline points="183 162 184 162 184 176 183 176 183 162" style="fill:#c6cacc;opacity:0.4"/><polyline points="183 181 184 181 184 195 183 195 183 181" style="fill:#c6cacc;opacity:0.4"/><polyline points="183 200 184 200 184 214 183 214 183 200" style="fill:#c6cacc;opacity:0.4"/><polyline points="183 219 184 219 184 233 183 233 183 219" style="fill:#c6cacc;opacity:0.4"/><polyline points="114 143 115 143 115 157 114 157 114 143" style="fill:#c6cacc"/><polyline points="114 162 115 162 115 176 114 176 114 162" style="fill:#c6cacc;opacity:0.4"/><polyline points="114 181 115 181 115 195 114 195 114 181" style="fill:#c6cacc;opacity:0.4"/><polyline points="114 200 115 200 115 214 114 214 114 200" style="fill:#c6cacc;opacity:0.4"/><polyline points="114 219 115 219 115 233 114 233 114 219" style="fill:#c6cacc;opacity:0.4"/><polyline points="114 257 115 257 115 271 114 271 114 257" style="fill:#c6cacc"/><text transform="translate(716 21)" style="font-size:14px;fill:#ec008c;font-family:SegoeUI-Bold, Segoe UI;font-weight:700">Column Header</text><text transform="translate(716 68)" style="font-size:14px;fill:#ec008c;font-family:SegoeUI-Bold, Segoe UI;font-weight:700">G<tspan x="9.95" y="0" style="letter-spacing:-0.00390625em">r</tspan><tspan x="15.47" y="0">oup Label</tspan></text><text transform="translate(716 38)" style="font-size:10px;fill:#ec008c;font-family:SegoeUI-Bold, Segoe UI;font-weight:700">10<tspan x="11.5" y="0" style="letter-spacing:-0.02197265625em">P</tspan><tspan x="17.43" y="0">X SEGOE UI BOLD - ALL CAPS</tspan></text><text transform="translate(716 85)" style="font-size:12px;fill:#ec008c;font-family:SegoeUI, Segoe UI">12<tspan x="12.94" y="0" style="letter-spacing:-0.01220703125em">p</tspan><tspan x="19.85" y="0">x Segoe UI </tspan><tspan x="79.68" y="0" style="letter-spacing:-0.02783203125em">R</tspan><tspan x="86.52" y="0">egular</tspan></text><text transform="translate(716 174)" style="font-size:12px;fill:#ec008c;font-family:SegoeUI, Segoe UI">12<tspan x="12.94" y="0" style="letter-spacing:-0.01220703125em">p</tspan><tspan x="19.85" y="0">x Segoe UI </tspan><tspan x="79.68" y="0" style="letter-spacing:-0.02783203125em">R</tspan><tspan x="86.52" y="0">egular</tspan></text><text transform="translate(716 223)" style="font-size:12px;fill:#ec008c;font-family:SegoeUI, Segoe UI">12<tspan x="12.94" y="0" style="letter-spacing:-0.01220703125em">p</tspan><tspan x="19.85" y="0">x Segoe UI </tspan><tspan x="79.68" y="0" style="letter-spacing:-0.02783203125em">R</tspan><tspan x="86.52" y="0">egular</tspan></text><text transform="translate(716 155)" style="font-size:14px;fill:#ec008c;font-family:SegoeUI-Bold, Segoe UI;font-weight:700">I<tspan x="4.44" y="0" style="letter-spacing:-0.00390625em">t</tspan><tspan x="9.83" y="0">em</tspan></text><text transform="translate(716 204)" style="font-size:14px;fill:#ec008c;font-family:SegoeUI-Bold, Segoe UI;font-weight:700">Sub-I<tspan x="35.1" y="0" style="letter-spacing:-0.00390625em">t</tspan><tspan x="40.49" y="0">em</tspan></text></g></svg>