<svg id="Layer_1" data-name="Layer 1" xmlns="http://www.w3.org/2000/svg" xmlns:xlink="http://www.w3.org/1999/xlink" width="222" height="133" viewBox="0 0 222 133">
  <defs>
    <clipPath id="clip-path">
      <rect x="4" y="5" width="15.98" height="16.01" fill="none"/>
    </clipPath>
  </defs>
  <g id="Group_8098" data-name="Group 8098">
    <g id="Infotip_with_footer" data-name="Infotip with footer">
      <g id="Rectangle_565" data-name="Rectangle 565">
        <rect y="26" width="222" height="107" fill="#fff"/>
        <rect x="0.5" y="26.5" width="221" height="106" fill="none" stroke="#4d5359" stroke-miterlimit="10"/>
      </g>
      <g id="Import_" data-name="Import " style="isolation: isolate">
        <g style="isolation: isolate">
          <path d="M13.85,46H12V37.6h1.89Z" fill="#2b3033"/>
          <path d="M25.11,46H23.26V42.58c0-.87-.32-1.31-1-1.31a.88.88,0,0,0-.74.39,1.65,1.65,0,0,0-.29,1V46H19.42V42.54c0-.84-.31-1.27-.94-1.27a.91.91,0,0,0-.76.38,1.65,1.65,0,0,0-.29,1V46H15.58V40h1.85v.94h0a2.22,2.22,0,0,1,.8-.78,2.17,2.17,0,0,1,1.14-.31A1.75,1.75,0,0,1,21.14,41a2.22,2.22,0,0,1,2-1.12c1.31,0,2,.81,2,2.42Z" fill="#2b3033"/>
          <path d="M28.45,45.3h0v3.46H26.57V40h1.86v.9h0a2.36,2.36,0,0,1,3.73-.25,3.45,3.45,0,0,1,.63,2.18,3.67,3.67,0,0,1-.74,2.41,2.43,2.43,0,0,1-2,.91A1.86,1.86,0,0,1,28.45,45.3Zm-.05-2.46v.48a1.59,1.59,0,0,0,.32,1,1.08,1.08,0,0,0,.87.39,1.14,1.14,0,0,0,1-.49,2.4,2.4,0,0,0,.35-1.39c0-1.05-.41-1.58-1.23-1.58a1.18,1.18,0,0,0-.93.43A1.73,1.73,0,0,0,28.4,42.84Z" fill="#2b3033"/>
          <path d="M36.88,46.15a3.23,3.23,0,0,1-2.36-.84,3.49,3.49,0,0,1,0-4.62A3.37,3.37,0,0,1,37,39.85a3.19,3.19,0,0,1,2.34.84,3,3,0,0,1,.85,2.23,3.16,3.16,0,0,1-.88,2.36A3.23,3.23,0,0,1,36.88,46.15Zm0-4.88a1.23,1.23,0,0,0-1,.45A2,2,0,0,0,35.54,43c0,1.15.46,1.73,1.39,1.73s1.33-.59,1.33-1.78S37.82,41.27,36.92,41.27Z" fill="#2b3033"/>
          <path d="M45.27,41.67a1.66,1.66,0,0,0-.78-.18,1.14,1.14,0,0,0-1,.44,2,2,0,0,0-.34,1.2V46H41.35V40H43.2v1.11h0a1.6,1.6,0,0,1,1.58-1.22,1.39,1.39,0,0,1,.46.07Z" fill="#2b3033"/>
          <path d="M50.1,45.93a2.8,2.8,0,0,1-1.24.22q-1.95,0-2-2V41.37h-1V40h1V38.71l1.84-.53V40H50.1v1.37H48.75v2.42c0,.63.25.94.75.94a1.31,1.31,0,0,0,.6-.17Z" fill="#2b3033"/>
          <path d="M52.17,46.13a1,1,0,0,1-.75-.28.94.94,0,0,1,0-1.38,1.23,1.23,0,0,1,1.54,0,.88.88,0,0,1,.31.69.89.89,0,0,1-.3.7A1.16,1.16,0,0,1,52.17,46.13Zm3.65,0a1,1,0,0,1-.75-.28.94.94,0,0,1,0-1.38,1.23,1.23,0,0,1,1.54,0,1,1,0,0,1,0,1.39A1.13,1.13,0,0,1,55.82,46.13Zm3.65,0a1.05,1.05,0,0,1-.76-.28.92.92,0,0,1,0-1.38,1.25,1.25,0,0,1,1.55,0,1,1,0,0,1,0,1.39A1.13,1.13,0,0,1,59.47,46.13Z" fill="#2b3033"/>
        </g>
      </g>
      <g id="Import_data_you_collect_from_another_application_like_Excel_or_MATLAB." data-name="Import data you collect from another application like Excel or MATLAB." style="isolation: isolate">
        <g style="isolation: isolate">
          <path d="M13.09,70h-1V61.6h1Z" fill="#2b3033"/>
          <path d="M23.69,70h-1V66.55a2.66,2.66,0,0,0-.3-1.44,1.19,1.19,0,0,0-1-.44,1.27,1.27,0,0,0-1,.56,2.14,2.14,0,0,0-.43,1.35V70H19V66.44c0-1.18-.46-1.77-1.37-1.77a1.24,1.24,0,0,0-1,.53,2.14,2.14,0,0,0-.41,1.38V70h-1V64h1v1h0A2,2,0,0,1,18,63.86a1.76,1.76,0,0,1,1.08.34,1.73,1.73,0,0,1,.62.9,2.14,2.14,0,0,1,2-1.24c1.32,0,2,.81,2,2.44Z" fill="#2b3033"/>
          <path d="M26.49,69.13h0v3.63h-1V64h1v1h0a2.27,2.27,0,0,1,2.07-1.19,2.19,2.19,0,0,1,1.81.81A3.32,3.32,0,0,1,31,66.82a3.73,3.73,0,0,1-.73,2.42,2.45,2.45,0,0,1-2,.9A2,2,0,0,1,26.49,69.13Zm0-2.42v.84A1.73,1.73,0,0,0,27,68.81a1.71,1.71,0,0,0,2.59-.15,3,3,0,0,0,.5-1.85,2.41,2.41,0,0,0-.47-1.57,1.51,1.51,0,0,0-1.25-.57,1.7,1.7,0,0,0-1.35.58A2.15,2.15,0,0,0,26.46,66.71Z" fill="#2b3033"/>
          <path d="M35.06,70.14a2.79,2.79,0,0,1-2.12-.84,3.1,3.1,0,0,1-.79-2.23A3.24,3.24,0,0,1,33,64.71a3,3,0,0,1,2.24-.85,2.66,2.66,0,0,1,2.09.83,3.77,3.77,0,0,1-.06,4.59A2.87,2.87,0,0,1,35.06,70.14Zm.07-5.47a1.83,1.83,0,0,0-1.46.63A2.59,2.59,0,0,0,33.13,67a2.41,2.41,0,0,0,.55,1.68,1.84,1.84,0,0,0,1.45.61,1.77,1.77,0,0,0,1.44-.6,3.23,3.23,0,0,0,0-3.45A1.75,1.75,0,0,0,35.13,64.67Z" fill="#2b3033"/>
          <path d="M42.72,65a1.18,1.18,0,0,0-.73-.19,1.23,1.23,0,0,0-1,.58,2.72,2.72,0,0,0-.41,1.58V70h-1V64h1v1.24h0a2.12,2.12,0,0,1,.63-1,1.4,1.4,0,0,1,.94-.36,1.5,1.5,0,0,1,.58.09Z" fill="#2b3033"/>
          <path d="M46.89,69.94a1.82,1.82,0,0,1-.9.19c-1.05,0-1.57-.59-1.57-1.76V64.82h-1V64h1V62.54l1-.32V64h1.51v.82H45.38V68.2a1.45,1.45,0,0,0,.2.86.84.84,0,0,0,.68.26,1.05,1.05,0,0,0,.63-.2Z" fill="#2b3033"/>
          <path d="M56.58,70h-1V69h0a2.42,2.42,0,0,1-3.87.35,3.23,3.23,0,0,1-.68-2.19,3.57,3.57,0,0,1,.75-2.38,2.46,2.46,0,0,1,2-.9,1.93,1.93,0,0,1,1.8,1h0V61.12h1Zm-1-2.71V66.4a1.73,1.73,0,0,0-.48-1.23,1.78,1.78,0,0,0-2.6.14A2.81,2.81,0,0,0,52,67.09a2.49,2.49,0,0,0,.49,1.64,1.57,1.57,0,0,0,1.29.6,1.65,1.65,0,0,0,1.31-.58A2.16,2.16,0,0,0,55.62,67.29Z" fill="#2b3033"/>
          <path d="M62.82,70h-1v-.94h0A2,2,0,0,1,60,70.14a2,2,0,0,1-1.4-.47,1.65,1.65,0,0,1-.51-1.26c0-1.12.66-1.78,2-2l1.8-.25c0-1-.41-1.53-1.24-1.53a2.9,2.9,0,0,0-1.95.74v-1a3.76,3.76,0,0,1,2-.56c1.41,0,2.11.75,2.11,2.24Zm-1-3-1.45.2a2.48,2.48,0,0,0-1,.34,1,1,0,0,0-.34.84.9.9,0,0,0,.32.71,1.19,1.19,0,0,0,.83.28,1.51,1.51,0,0,0,1.18-.5,1.8,1.8,0,0,0,.47-1.27Z" fill="#2b3033"/>
          <path d="M67.41,69.94a1.76,1.76,0,0,1-.89.19c-1,0-1.58-.59-1.58-1.76V64.82h-1V64h1V62.54l1-.32V64h1.51v.82H65.9V68.2a1.37,1.37,0,0,0,.21.86.81.81,0,0,0,.68.26,1,1,0,0,0,.62-.2Z" fill="#2b3033"/>
          <path d="M73,70H72v-.94h0a2,2,0,0,1-1.85,1.08,2,2,0,0,1-1.4-.47,1.65,1.65,0,0,1-.51-1.26c0-1.12.66-1.78,2-2L72,66.2c0-1-.41-1.53-1.24-1.53a2.9,2.9,0,0,0-2,.74v-1a3.76,3.76,0,0,1,2-.56c1.41,0,2.11.75,2.11,2.24Zm-1-3-1.45.2a2.37,2.37,0,0,0-1,.34.93.93,0,0,0-.34.84.89.89,0,0,0,.31.71,1.19,1.19,0,0,0,.83.28,1.55,1.55,0,0,0,1.19-.5A1.79,1.79,0,0,0,72,67.56Z" fill="#2b3033"/>
          <path d="M82.87,64l-2.76,7c-.5,1.24-1.19,1.86-2.08,1.86a2.28,2.28,0,0,1-.63-.07v-.86A1.8,1.8,0,0,0,78,72a1.17,1.17,0,0,0,1.09-.87L79.54,70,77.2,64h1.07l1.62,4.62q0,.09.12.45h0c0-.09.06-.24.11-.44L81.87,64Z" fill="#2b3033"/>
          <path d="M86.35,70.14a2.79,2.79,0,0,1-2.13-.84,3.1,3.1,0,0,1-.79-2.23,3.24,3.24,0,0,1,.82-2.36,3,3,0,0,1,2.24-.85,2.66,2.66,0,0,1,2.09.83,3.77,3.77,0,0,1-.06,4.59A2.85,2.85,0,0,1,86.35,70.14Zm.07-5.47A1.84,1.84,0,0,0,85,65.3,2.59,2.59,0,0,0,84.41,67,2.41,2.41,0,0,0,85,68.72a1.85,1.85,0,0,0,1.46.61,1.77,1.77,0,0,0,1.43-.6,3.23,3.23,0,0,0,0-3.45A1.74,1.74,0,0,0,86.42,64.67Z" fill="#2b3033"/>
          <path d="M95.72,70h-1v-1h0a2,2,0,0,1-1.86,1.09c-1.42,0-2.14-.85-2.14-2.55V64h1v3.43c0,1.27.48,1.9,1.45,1.9a1.47,1.47,0,0,0,1.16-.52,2,2,0,0,0,.45-1.35V64h1Z" fill="#2b3033"/>
          <path d="M105,69.72a3.1,3.1,0,0,1-1.64.42,2.72,2.72,0,0,1-2.07-.83,3,3,0,0,1-.79-2.17,3.3,3.3,0,0,1,.85-2.38,3,3,0,0,1,2.26-.9,3.24,3.24,0,0,1,1.4.29v1a2.4,2.4,0,0,0-1.43-.47,1.93,1.93,0,0,0-1.51.66,2.5,2.5,0,0,0-.59,1.73,2.36,2.36,0,0,0,.56,1.66,1.87,1.87,0,0,0,1.48.61,2.41,2.41,0,0,0,1.48-.52Z" fill="#2b3033"/>
          <path d="M109,70.14a2.79,2.79,0,0,1-2.13-.84,3.1,3.1,0,0,1-.79-2.23,3.25,3.25,0,0,1,.83-2.36,3,3,0,0,1,2.23-.85,2.66,2.66,0,0,1,2.09.83,3.73,3.73,0,0,1-.06,4.59A2.85,2.85,0,0,1,109,70.14Zm.07-5.47a1.84,1.84,0,0,0-1.47.63,2.59,2.59,0,0,0-.54,1.74,2.46,2.46,0,0,0,.55,1.68,1.85,1.85,0,0,0,1.46.61,1.75,1.75,0,0,0,1.43-.6,3.23,3.23,0,0,0,0-3.45A1.73,1.73,0,0,0,109.07,64.67Z" fill="#2b3033"/>
          <path d="M114.48,70h-1V61.12h1Z" fill="#2b3033"/>
          <path d="M117.39,70h-1V61.12h1Z" fill="#2b3033"/>
          <path d="M124.16,67.24h-4.24a2.3,2.3,0,0,0,.54,1.55,1.87,1.87,0,0,0,1.42.54,2.93,2.93,0,0,0,1.86-.67v.91a3.5,3.5,0,0,1-2.09.57,2.52,2.52,0,0,1-2-.82,3.36,3.36,0,0,1-.73-2.3,3.29,3.29,0,0,1,.8-2.28,2.53,2.53,0,0,1,2-.88,2.25,2.25,0,0,1,1.82.76,3.18,3.18,0,0,1,.65,2.12Zm-1-.81a2,2,0,0,0-.4-1.3,1.36,1.36,0,0,0-1.1-.46,1.55,1.55,0,0,0-1.15.48,2.25,2.25,0,0,0-.59,1.28Z" fill="#2b3033"/>
          <path d="M129.7,69.72a3.1,3.1,0,0,1-1.64.42,2.72,2.72,0,0,1-2.07-.83,3,3,0,0,1-.79-2.17,3.3,3.3,0,0,1,.85-2.38,3,3,0,0,1,2.27-.9,3.23,3.23,0,0,1,1.39.29v1a2.38,2.38,0,0,0-1.43-.47,2,2,0,0,0-1.51.66,2.5,2.5,0,0,0-.59,1.73,2.36,2.36,0,0,0,.56,1.66,1.89,1.89,0,0,0,1.48.61,2.39,2.39,0,0,0,1.48-.52Z" fill="#2b3033"/>
          <path d="M133.94,69.94a1.82,1.82,0,0,1-.9.19c-1,0-1.58-.59-1.58-1.76V64.82h-1V64h1V62.54l1-.32V64h1.52v.82h-1.52V68.2a1.37,1.37,0,0,0,.21.86.83.83,0,0,0,.68.26,1.05,1.05,0,0,0,.63-.2Z" fill="#2b3033"/>
          <path d="M141.47,62a1.35,1.35,0,0,0-.64-.16c-.67,0-1,.43-1,1.27V64h1.41v.82h-1.41V70h-.95V64.82h-1V64h1V63a2,2,0,0,1,.54-1.49,1.84,1.84,0,0,1,1.36-.55,1.89,1.89,0,0,1,.7.1Z" fill="#2b3033"/>
          <path d="M145.39,65a1.18,1.18,0,0,0-.73-.19,1.2,1.2,0,0,0-1,.58,2.64,2.64,0,0,0-.42,1.58V70h-1V64h1v1.24h0a2,2,0,0,1,.62-1,1.43,1.43,0,0,1,.95-.36,1.41,1.41,0,0,1,.57.09Z" fill="#2b3033"/>
          <path d="M148.78,70.14a2.79,2.79,0,0,1-2.12-.84,3.1,3.1,0,0,1-.79-2.23,3.24,3.24,0,0,1,.82-2.36,3,3,0,0,1,2.23-.85,2.66,2.66,0,0,1,2.1.83,3.77,3.77,0,0,1-.06,4.59A2.87,2.87,0,0,1,148.78,70.14Zm.07-5.47a1.83,1.83,0,0,0-1.46.63,2.59,2.59,0,0,0-.54,1.74,2.46,2.46,0,0,0,.54,1.68,1.86,1.86,0,0,0,1.46.61,1.79,1.79,0,0,0,1.44-.6,3.23,3.23,0,0,0,0-3.45A1.76,1.76,0,0,0,148.85,64.67Z" fill="#2b3033"/>
          <path d="M161.83,70h-1V66.55a2.65,2.65,0,0,0-.31-1.44,1.19,1.19,0,0,0-1-.44,1.27,1.27,0,0,0-1,.56,2.14,2.14,0,0,0-.43,1.35V70h-1V66.44c0-1.18-.46-1.77-1.37-1.77a1.24,1.24,0,0,0-1,.53,2.14,2.14,0,0,0-.41,1.38V70h-1V64h1v1h0a2,2,0,0,1,1.86-1.09,1.76,1.76,0,0,1,1.08.34,1.73,1.73,0,0,1,.62.9,2.14,2.14,0,0,1,2-1.24c1.32,0,2,.81,2,2.44Z" fill="#2b3033"/>
          <path d="M171.22,70h-1v-.94h0a2.2,2.2,0,0,1-3.25.61,1.65,1.65,0,0,1-.51-1.26c0-1.12.66-1.78,2-2l1.8-.25q0-1.53-1.23-1.53a2.91,2.91,0,0,0-2,.74v-1a3.76,3.76,0,0,1,2-.56c1.41,0,2.11.75,2.11,2.24Zm-1-3-1.44.2a2.43,2.43,0,0,0-1,.34.93.93,0,0,0-.34.84.89.89,0,0,0,.31.71,1.2,1.2,0,0,0,.84.28,1.53,1.53,0,0,0,1.18-.5,1.79,1.79,0,0,0,.46-1.27Z" fill="#2b3033"/>
          <path d="M178,70h-1V66.58c0-1.28-.46-1.91-1.39-1.91a1.5,1.5,0,0,0-1.19.54,2,2,0,0,0-.47,1.37V70h-1V64h1v1h0a2.16,2.16,0,0,1,2-1.14,1.81,1.81,0,0,1,1.5.64,2.79,2.79,0,0,1,.53,1.83Z" fill="#2b3033"/>
          <path d="M182.33,70.14a2.79,2.79,0,0,1-2.12-.84,3.1,3.1,0,0,1-.79-2.23,3.24,3.24,0,0,1,.82-2.36,3,3,0,0,1,2.23-.85,2.66,2.66,0,0,1,2.1.83,3.77,3.77,0,0,1-.06,4.59A2.87,2.87,0,0,1,182.33,70.14Zm.07-5.47a1.83,1.83,0,0,0-1.46.63A2.59,2.59,0,0,0,180.4,67a2.41,2.41,0,0,0,.55,1.68,1.82,1.82,0,0,0,1.45.61,1.77,1.77,0,0,0,1.44-.6,3.23,3.23,0,0,0,0-3.45A1.75,1.75,0,0,0,182.4,64.67Z" fill="#2b3033"/>
          <path d="M189.64,69.94a1.8,1.8,0,0,1-.9.19c-1.05,0-1.57-.59-1.57-1.76V64.82h-1V64h1V62.54l1-.32V64h1.51v.82h-1.51V68.2a1.45,1.45,0,0,0,.2.86.84.84,0,0,0,.68.26,1,1,0,0,0,.63-.2Z" fill="#2b3033"/>
          <path d="M195.9,70h-1V66.54c0-1.25-.46-1.87-1.39-1.87a1.51,1.51,0,0,0-1.18.54,2,2,0,0,0-.49,1.39V70h-1V61.12h1V65h0a2.18,2.18,0,0,1,2-1.14c1.35,0,2,.81,2,2.44Z" fill="#2b3033"/>
          <path d="M202.54,67.24H198.3a2.3,2.3,0,0,0,.54,1.55,1.87,1.87,0,0,0,1.42.54,2.93,2.93,0,0,0,1.86-.67v.91a3.5,3.5,0,0,1-2.09.57,2.53,2.53,0,0,1-2-.82,3.36,3.36,0,0,1-.73-2.3,3.29,3.29,0,0,1,.8-2.28,2.54,2.54,0,0,1,2-.88,2.24,2.24,0,0,1,1.82.76,3.18,3.18,0,0,1,.65,2.12Zm-1-.81a1.91,1.91,0,0,0-.4-1.3,1.36,1.36,0,0,0-1.1-.46,1.55,1.55,0,0,0-1.15.48,2.25,2.25,0,0,0-.59,1.28Z" fill="#2b3033"/>
          <path d="M207.12,65a1.18,1.18,0,0,0-.73-.19,1.23,1.23,0,0,0-1,.58,2.72,2.72,0,0,0-.41,1.58V70h-1V64h1v1.24h0a2.12,2.12,0,0,1,.63-1,1.42,1.42,0,0,1,.94-.36,1.46,1.46,0,0,1,.58.09Z" fill="#2b3033"/>
        </g>
        <g style="isolation: isolate">
          <path d="M16.27,88h-1v-.94h0a2,2,0,0,1-1.84,1.08A2,2,0,0,1,12,87.67a1.68,1.68,0,0,1-.5-1.26c0-1.12.66-1.78,2-2l1.8-.25c0-1-.42-1.53-1.24-1.53a2.94,2.94,0,0,0-2,.74v-1a3.76,3.76,0,0,1,2-.56c1.41,0,2.12.75,2.12,2.24Zm-1-3-1.45.2a2.43,2.43,0,0,0-1,.34.93.93,0,0,0-.34.84.9.9,0,0,0,.32.71,1.16,1.16,0,0,0,.83.28,1.51,1.51,0,0,0,1.18-.5,1.8,1.8,0,0,0,.47-1.27Z" fill="#2b3033"/>
          <path d="M19.06,87.13h0v3.63h-1V82h1v1h0a2.3,2.3,0,0,1,2.08-1.19,2.2,2.2,0,0,1,1.81.81,3.32,3.32,0,0,1,.65,2.15,3.79,3.79,0,0,1-.73,2.42,2.46,2.46,0,0,1-2,.9A2,2,0,0,1,19.06,87.13Zm0-2.42v.84a1.77,1.77,0,0,0,.48,1.26,1.59,1.59,0,0,0,1.23.52,1.6,1.6,0,0,0,1.37-.67,3,3,0,0,0,.49-1.85,2.41,2.41,0,0,0-.46-1.57,1.53,1.53,0,0,0-1.25-.57,1.7,1.7,0,0,0-1.35.58A2.15,2.15,0,0,0,19,84.71Z" fill="#2b3033"/>
          <path d="M26.12,87.13h0v3.63h-1V82h1v1h0a2.27,2.27,0,0,1,2.07-1.19,2.19,2.19,0,0,1,1.81.81,3.27,3.27,0,0,1,.65,2.15,3.73,3.73,0,0,1-.73,2.42,2.45,2.45,0,0,1-2,.9A2,2,0,0,1,26.12,87.13Zm0-2.42v.84a1.73,1.73,0,0,0,.49,1.26,1.71,1.71,0,0,0,2.59-.15,3,3,0,0,0,.5-1.85,2.47,2.47,0,0,0-.46-1.57A1.54,1.54,0,0,0,28,82.67a1.7,1.7,0,0,0-1.35.58A2.15,2.15,0,0,0,26.09,84.71Z" fill="#2b3033"/>
          <path d="M33.15,88h-1V79.12h1Z" fill="#2b3033"/>
          <path d="M35.59,80.48a.59.59,0,0,1-.44-.18.6.6,0,0,1-.19-.44.62.62,0,0,1,.19-.45.59.59,0,0,1,.44-.18.6.6,0,0,1,.44.18.58.58,0,0,1,.19.45.56.56,0,0,1-.19.43A.58.58,0,0,1,35.59,80.48ZM36.05,88h-1V82h1Z" fill="#2b3033"/>
          <path d="M42.09,87.72a3.1,3.1,0,0,1-1.64.42,2.72,2.72,0,0,1-2.07-.83,3,3,0,0,1-.79-2.17,3.3,3.3,0,0,1,.85-2.38,3,3,0,0,1,2.27-.9,3.23,3.23,0,0,1,1.39.29v1a2.38,2.38,0,0,0-1.43-.47,2,2,0,0,0-1.51.66,2.5,2.5,0,0,0-.59,1.73,2.36,2.36,0,0,0,.56,1.66,1.89,1.89,0,0,0,1.48.61,2.39,2.39,0,0,0,1.48-.52Z" fill="#2b3033"/>
          <path d="M47.84,88h-1v-.94h0a2.2,2.2,0,0,1-3.25.61,1.68,1.68,0,0,1-.5-1.26c0-1.12.66-1.78,2-2l1.8-.25c0-1-.42-1.53-1.24-1.53a2.94,2.94,0,0,0-2,.74v-1a3.76,3.76,0,0,1,2-.56c1.41,0,2.12.75,2.12,2.24Zm-1-3-1.45.2a2.43,2.43,0,0,0-1,.34,1,1,0,0,0-.34.84.9.9,0,0,0,.32.71,1.16,1.16,0,0,0,.83.28,1.51,1.51,0,0,0,1.18-.5,1.8,1.8,0,0,0,.47-1.27Z" fill="#2b3033"/>
          <path d="M52.43,87.94a1.76,1.76,0,0,1-.89.19c-1.06,0-1.58-.59-1.58-1.76V82.82h-1V82h1V80.54l1-.32V82h1.51v.82H50.92V86.2a1.45,1.45,0,0,0,.2.86.84.84,0,0,0,.68.26,1,1,0,0,0,.63-.2Z" fill="#2b3033"/>
          <path d="M54.21,80.48a.6.6,0,0,1-.44-.18.59.59,0,0,1-.18-.44.61.61,0,0,1,.18-.45.6.6,0,0,1,.44-.18.64.64,0,0,1,.45.18.61.61,0,0,1,.18.45.58.58,0,0,1-.18.43A.61.61,0,0,1,54.21,80.48ZM54.68,88h-1V82h1Z" fill="#2b3033"/>
          <path d="M59.13,88.14A2.79,2.79,0,0,1,57,87.3a3.15,3.15,0,0,1-.79-2.23A3.25,3.25,0,0,1,57,82.71a3,3,0,0,1,2.23-.85,2.66,2.66,0,0,1,2.09.83,3.75,3.75,0,0,1,0,4.59A2.88,2.88,0,0,1,59.13,88.14Zm.07-5.47a1.84,1.84,0,0,0-1.47.63A2.64,2.64,0,0,0,57.2,85a2.46,2.46,0,0,0,.54,1.68,1.85,1.85,0,0,0,1.46.61,1.75,1.75,0,0,0,1.43-.6,3.23,3.23,0,0,0,0-3.45A1.73,1.73,0,0,0,59.2,82.67Z" fill="#2b3033"/>
          <path d="M68.63,88h-1V84.58c0-1.28-.46-1.91-1.39-1.91a1.54,1.54,0,0,0-1.2.54,2,2,0,0,0-.47,1.37V88h-1V82h1v1h0a2.16,2.16,0,0,1,2-1.14,1.82,1.82,0,0,1,1.5.64,2.79,2.79,0,0,1,.52,1.83Z" fill="#2b3033"/>
          <path d="M74.69,88h-1V79.12h1Z" fill="#2b3033"/>
          <path d="M77.13,80.48a.6.6,0,0,1-.44-.18.59.59,0,0,1-.18-.44.61.61,0,0,1,.18-.45.6.6,0,0,1,.44-.18.64.64,0,0,1,.45.18.61.61,0,0,1,.18.45.58.58,0,0,1-.18.43A.61.61,0,0,1,77.13,80.48ZM77.6,88h-1V82h1Z" fill="#2b3033"/>
          <path d="M84.52,88H83.18l-2.65-2.88h0V88h-1V79.12h1v5.63h0L83.05,82h1.26l-2.79,2.89Z" fill="#2b3033"/>
          <path d="M90.09,85.24H85.85a2.3,2.3,0,0,0,.54,1.55,1.88,1.88,0,0,0,1.42.54,2.89,2.89,0,0,0,1.86-.67v.91a3.47,3.47,0,0,1-2.09.57,2.53,2.53,0,0,1-2-.82,3.35,3.35,0,0,1-.72-2.3,3.28,3.28,0,0,1,.79-2.28,2.54,2.54,0,0,1,2-.88,2.26,2.26,0,0,1,1.83.76,3.18,3.18,0,0,1,.64,2.12Zm-1-.81a2,2,0,0,0-.41-1.3,1.35,1.35,0,0,0-1.09-.46,1.57,1.57,0,0,0-1.16.48,2.18,2.18,0,0,0-.58,1.28Z" fill="#2b3033"/>
          <path d="M99.41,88H95V79.6h4.26v.89H95.94v2.79h3v.89h-3v2.94h3.47Z" fill="#2b3033"/>
          <path d="M105.28,82l-2,3,2,3h-1.12l-1.18-2-.26-.45h0l-.27.45-1.2,2h-1.11l2-2.94-2-3.06h1.12l1.16,2,.25.47h0l1.5-2.52Z" fill="#2b3033"/>
          <path d="M110.4,87.72a3.08,3.08,0,0,1-1.64.42,2.75,2.75,0,0,1-2.07-.83,3.06,3.06,0,0,1-.79-2.17,3.35,3.35,0,0,1,.85-2.38,3,3,0,0,1,2.27-.9,3.27,3.27,0,0,1,1.4.29v1a2.42,2.42,0,0,0-1.43-.47,1.92,1.92,0,0,0-1.51.66,2.46,2.46,0,0,0-.59,1.73,2.36,2.36,0,0,0,.55,1.66,1.91,1.91,0,0,0,1.49.61,2.38,2.38,0,0,0,1.47-.52Z" fill="#2b3033"/>
          <path d="M116.68,85.24h-4.24a2.3,2.3,0,0,0,.54,1.55,1.88,1.88,0,0,0,1.42.54,2.89,2.89,0,0,0,1.86-.67v.91a3.47,3.47,0,0,1-2.09.57,2.53,2.53,0,0,1-2-.82,3.35,3.35,0,0,1-.72-2.3,3.28,3.28,0,0,1,.79-2.28,2.54,2.54,0,0,1,2-.88,2.26,2.26,0,0,1,1.83.76,3.23,3.23,0,0,1,.64,2.12Zm-1-.81a2,2,0,0,0-.41-1.3,1.35,1.35,0,0,0-1.09-.46,1.57,1.57,0,0,0-1.16.48,2.18,2.18,0,0,0-.58,1.28Z" fill="#2b3033"/>
          <path d="M119.09,88h-1V79.12h1Z" fill="#2b3033"/>
          <path d="M126.83,88.14a2.79,2.79,0,0,1-2.12-.84,3.1,3.1,0,0,1-.79-2.23,3.24,3.24,0,0,1,.82-2.36,3,3,0,0,1,2.23-.85,2.66,2.66,0,0,1,2.1.83,3.77,3.77,0,0,1-.06,4.59A2.87,2.87,0,0,1,126.83,88.14Zm.07-5.47a1.83,1.83,0,0,0-1.46.63A2.59,2.59,0,0,0,124.9,85a2.41,2.41,0,0,0,.55,1.68,1.82,1.82,0,0,0,1.45.61,1.77,1.77,0,0,0,1.44-.6,3.23,3.23,0,0,0,0-3.45A1.75,1.75,0,0,0,126.9,82.67Z" fill="#2b3033"/>
          <path d="M134.49,83a1.18,1.18,0,0,0-.73-.19,1.23,1.23,0,0,0-1,.58,2.72,2.72,0,0,0-.41,1.58V88h-1V82h1v1.24h0a2.12,2.12,0,0,1,.63-1,1.4,1.4,0,0,1,.94-.36,1.5,1.5,0,0,1,.58.09Z" fill="#2b3033"/>
          <path d="M147.51,88h-1V82.36c0-.44,0-1,.09-1.63h0a5.05,5.05,0,0,1-.25.81L143.47,88H143l-2.87-6.41a5.64,5.64,0,0,1-.25-.86h0c0,.33,0,.88,0,1.65V88H139V79.6h1.3l2.57,5.86a7.92,7.92,0,0,1,.39,1h0c.16-.46.3-.8.4-1l2.63-5.83h1.23Z" fill="#2b3033"/>
          <path d="M156.22,88h-1.09l-.89-2.36h-3.56L149.84,88h-1.09L152,79.6h1Zm-2.3-3.24-1.32-3.58a4.87,4.87,0,0,1-.13-.56h0a3.36,3.36,0,0,1-.13.56L151,84.76Z" fill="#2b3033"/>
          <path d="M161.57,80.49h-2.43V88h-1V80.49h-2.42V79.6h5.83Z" fill="#2b3033"/>
          <path d="M167.25,88h-4.36V79.6h1v7.51h3.38Z" fill="#2b3033"/>
          <path d="M175.38,88h-1.09l-.89-2.36h-3.56L169,88h-1.09l3.22-8.4h1Zm-2.3-3.24-1.32-3.58a4.87,4.87,0,0,1-.13-.56h0a3.36,3.36,0,0,1-.13.56l-1.31,3.58Z" fill="#2b3033"/>
          <path d="M176.62,88V79.6H179a2.65,2.65,0,0,1,1.73.53,1.72,1.72,0,0,1,.64,1.39,2,2,0,0,1-.39,1.24,2.11,2.11,0,0,1-1.06.75v0a2.13,2.13,0,0,1,1.36.64,2,2,0,0,1,.5,1.41,2.17,2.17,0,0,1-.77,1.74,2.84,2.84,0,0,1-2,.67Zm1-7.51V83.2h1a1.89,1.89,0,0,0,1.27-.39,1.35,1.35,0,0,0,.47-1.1c0-.81-.54-1.22-1.61-1.22Zm0,3.6v3h1.33a2,2,0,0,0,1.35-.41,1.43,1.43,0,0,0,.47-1.13c0-1-.67-1.48-2-1.48Z" fill="#2b3033"/>
          <path d="M183.71,88.13a.64.64,0,0,1-.46-.19.65.65,0,0,1-.2-.47.63.63,0,0,1,.2-.46.61.61,0,0,1,.46-.2.68.68,0,0,1,.66.66.65.65,0,0,1-.2.47A.66.66,0,0,1,183.71,88.13Z" fill="#2b3033"/>
        </g>
      </g>
      <rect id="Rectangle_566" data-name="Rectangle 566" x="1" y="103" width="220" height="29" fill="#ebebeb"/>
      <g id="Press_F1_for_more_help" data-name="Press F1 for more help" style="isolation: isolate">
        <g style="isolation: isolate">
          <path d="M13.09,118.82V122h-1v-8.4h2.31a3.09,3.09,0,0,1,2.09.65,2.37,2.37,0,0,1,.74,1.86,2.54,2.54,0,0,1-.82,2,3.14,3.14,0,0,1-2.23.76Zm0-4.33v3.44h1a2.28,2.28,0,0,0,1.55-.46,1.65,1.65,0,0,0,.54-1.32c0-1.11-.66-1.66-2-1.66Z" fill="#2b3033"/>
          <path d="M21.82,117a1.16,1.16,0,0,0-.72-.19,1.21,1.21,0,0,0-1,.58,2.64,2.64,0,0,0-.42,1.58V122h-1v-6h1v1.24h0a2,2,0,0,1,.62-1,1.45,1.45,0,0,1,.95-.36,1.41,1.41,0,0,1,.57.09Z" fill="#2b3033"/>
          <path d="M27.53,119.24H23.29a2.3,2.3,0,0,0,.54,1.55,1.88,1.88,0,0,0,1.42.54,2.89,2.89,0,0,0,1.86-.67v.91a3.47,3.47,0,0,1-2.09.57,2.53,2.53,0,0,1-2-.82,3.35,3.35,0,0,1-.72-2.3,3.28,3.28,0,0,1,.79-2.28,2.54,2.54,0,0,1,2-.88,2.22,2.22,0,0,1,1.82.76,3.18,3.18,0,0,1,.65,2.12Zm-1-.81a1.91,1.91,0,0,0-.4-1.3,1.36,1.36,0,0,0-1.1-.46,1.56,1.56,0,0,0-1.15.48,2.25,2.25,0,0,0-.59,1.28Z" fill="#2b3033"/>
          <path d="M28.62,121.78v-1a2.82,2.82,0,0,0,1.73.58q1.26,0,1.26-.84a.68.68,0,0,0-.11-.41,1,1,0,0,0-.29-.29,2.19,2.19,0,0,0-.43-.24l-.54-.21c-.26-.11-.5-.21-.7-.32a2.22,2.22,0,0,1-.5-.36,1.38,1.38,0,0,1-.31-.46,1.85,1.85,0,0,1-.1-.61,1.48,1.48,0,0,1,.19-.74,1.7,1.7,0,0,1,.52-.55,2.38,2.38,0,0,1,.74-.33,3.35,3.35,0,0,1,.85-.11,3.41,3.41,0,0,1,1.39.27v1a2.7,2.7,0,0,0-1.52-.43,1.88,1.88,0,0,0-.49.06,1.26,1.26,0,0,0-.37.17,1,1,0,0,0-.24.27.66.66,0,0,0-.08.34.75.75,0,0,0,.08.39,1,1,0,0,0,.25.29,2.11,2.11,0,0,0,.4.22l.53.21c.27.11.5.21.72.32a2.45,2.45,0,0,1,.53.36,1.37,1.37,0,0,1,.47,1.09,1.51,1.51,0,0,1-.2.78,1.58,1.58,0,0,1-.52.54,2.5,2.5,0,0,1-.76.33,3.71,3.71,0,0,1-.9.1A3.37,3.37,0,0,1,28.62,121.78Z" fill="#2b3033"/>
          <path d="M33.71,121.78v-1a2.82,2.82,0,0,0,1.73.58c.84,0,1.27-.28,1.27-.84a.76.76,0,0,0-.11-.41,1,1,0,0,0-.3-.29,1.94,1.94,0,0,0-.43-.24l-.54-.21c-.26-.11-.5-.21-.7-.32a2.22,2.22,0,0,1-.5-.36,1.35,1.35,0,0,1-.3-.46,1.62,1.62,0,0,1-.11-.61,1.39,1.39,0,0,1,.2-.74,1.67,1.67,0,0,1,.51-.55,2.49,2.49,0,0,1,.74-.33,3.56,3.56,0,0,1,2.24.16v1a2.7,2.7,0,0,0-1.52-.43,1.88,1.88,0,0,0-.49.06,1.4,1.4,0,0,0-.37.17,1,1,0,0,0-.24.27.77.77,0,0,0-.08.34.87.87,0,0,0,.08.39,1,1,0,0,0,.25.29,2.11,2.11,0,0,0,.4.22l.53.21c.27.11.51.21.72.32a2.82,2.82,0,0,1,.54.36,1.41,1.41,0,0,1,.34.47,1.46,1.46,0,0,1,.12.62,1.51,1.51,0,0,1-.2.78,1.58,1.58,0,0,1-.52.54,2.5,2.5,0,0,1-.76.33,3.68,3.68,0,0,1-.89.1A3.39,3.39,0,0,1,33.71,121.78Z" fill="#2b3033"/>
          <path d="M46.85,114.49H43.57v2.9h3v.89h-3V122h-1v-8.4h4.27Z" fill="#2b3033"/>
          <path d="M51.58,122h-1v-7.26a2.67,2.67,0,0,1-.32.26l-.48.28c-.18.09-.37.18-.57.26a4.87,4.87,0,0,1-.57.2v-1a4.45,4.45,0,0,0,.67-.23,6.3,6.3,0,0,0,.69-.34c.23-.12.45-.25.65-.38a6.62,6.62,0,0,0,.53-.4h.36Z" fill="#2b3033"/>
          <path d="M61,114a1.32,1.32,0,0,0-.64-.16c-.67,0-1,.43-1,1.27V116h1.4v.82h-1.4V122h-1v-5.18h-1V116h1v-1a2,2,0,0,1,.55-1.49,1.81,1.81,0,0,1,1.36-.55,1.86,1.86,0,0,1,.69.1Z" fill="#2b3033"/>
          <path d="M64.33,122.14a2.79,2.79,0,0,1-2.12-.84,3.11,3.11,0,0,1-.8-2.23,3.25,3.25,0,0,1,.83-2.36,3,3,0,0,1,2.23-.85,2.66,2.66,0,0,1,2.1.83,3.77,3.77,0,0,1-.06,4.59A2.87,2.87,0,0,1,64.33,122.14Zm.07-5.47a1.83,1.83,0,0,0-1.46.63A2.59,2.59,0,0,0,62.4,119a2.46,2.46,0,0,0,.54,1.68,1.86,1.86,0,0,0,1.46.61,1.75,1.75,0,0,0,1.43-.6,3.17,3.17,0,0,0,0-3.45A1.73,1.73,0,0,0,64.4,116.67Z" fill="#2b3033"/>
          <path d="M72,117a1.14,1.14,0,0,0-.72-.19,1.21,1.21,0,0,0-1,.58,2.64,2.64,0,0,0-.41,1.58V122h-1v-6h1v1.24h0a2.12,2.12,0,0,1,.63-1A1.54,1.54,0,0,1,72,116Z" fill="#2b3033"/>
          <path d="M84.83,122h-1v-3.45a2.66,2.66,0,0,0-.3-1.44,1.19,1.19,0,0,0-1-.44,1.27,1.27,0,0,0-1,.56,2.14,2.14,0,0,0-.44,1.35V122h-1v-3.56c0-1.18-.45-1.77-1.36-1.77a1.24,1.24,0,0,0-1,.53,2.14,2.14,0,0,0-.41,1.38V122h-1v-6h1v1h0a2,2,0,0,1,1.86-1.09,1.73,1.73,0,0,1,1.7,1.24,2.14,2.14,0,0,1,2-1.24c1.32,0,2,.81,2,2.44Z" fill="#2b3033"/>
          <path d="M89.16,122.14A2.79,2.79,0,0,1,87,121.3a3.1,3.1,0,0,1-.79-2.23,3.25,3.25,0,0,1,.83-2.36,3,3,0,0,1,2.23-.85,2.66,2.66,0,0,1,2.09.83,3.73,3.73,0,0,1-.06,4.59A2.85,2.85,0,0,1,89.16,122.14Zm.07-5.47a1.84,1.84,0,0,0-1.47.63,2.59,2.59,0,0,0-.54,1.74,2.46,2.46,0,0,0,.55,1.68,1.85,1.85,0,0,0,1.46.61,1.75,1.75,0,0,0,1.43-.6,3.23,3.23,0,0,0,0-3.45A1.73,1.73,0,0,0,89.23,116.67Z" fill="#2b3033"/>
          <path d="M96.81,117a1.18,1.18,0,0,0-.73-.19,1.2,1.2,0,0,0-1,.58,2.64,2.64,0,0,0-.42,1.58V122h-1v-6h1v1.24h0a2,2,0,0,1,.62-1,1.43,1.43,0,0,1,.95-.36,1.41,1.41,0,0,1,.57.09Z" fill="#2b3033"/>
          <path d="M102.52,119.24H98.28a2.3,2.3,0,0,0,.54,1.55,1.87,1.87,0,0,0,1.42.54,2.91,2.91,0,0,0,1.86-.67v.91a3.5,3.5,0,0,1-2.09.57,2.53,2.53,0,0,1-2-.82,3.35,3.35,0,0,1-.72-2.3,3.28,3.28,0,0,1,.79-2.28,2.54,2.54,0,0,1,2-.88,2.24,2.24,0,0,1,1.82.76,3.18,3.18,0,0,1,.65,2.12Zm-1-.81a1.91,1.91,0,0,0-.4-1.3,1.36,1.36,0,0,0-1.1-.46,1.56,1.56,0,0,0-1.15.48,2.25,2.25,0,0,0-.59,1.28Z" fill="#2b3033"/>
          <path d="M112.24,122h-1v-3.46c0-1.25-.47-1.87-1.4-1.87a1.51,1.51,0,0,0-1.18.54,2,2,0,0,0-.48,1.39V122h-1v-8.88h1V117h0a2.18,2.18,0,0,1,2-1.14c1.35,0,2,.81,2,2.44Z" fill="#2b3033"/>
          <path d="M118.87,119.24h-4.24a2.3,2.3,0,0,0,.54,1.55,1.88,1.88,0,0,0,1.42.54,2.94,2.94,0,0,0,1.87-.67v.91a3.53,3.53,0,0,1-2.1.57,2.51,2.51,0,0,1-2-.82,3.83,3.83,0,0,1,.06-4.58,2.54,2.54,0,0,1,2-.88,2.26,2.26,0,0,1,1.83.76,3.18,3.18,0,0,1,.64,2.12Zm-1-.81a2,2,0,0,0-.4-1.3,1.37,1.37,0,0,0-1.1-.46,1.57,1.57,0,0,0-1.16.48,2.24,2.24,0,0,0-.58,1.28Z" fill="#2b3033"/>
          <path d="M121.29,122h-1v-8.88h1Z" fill="#2b3033"/>
          <path d="M124.21,121.13h0v3.63h-1V116h1v1h0a2.3,2.3,0,0,1,2.08-1.19,2.19,2.19,0,0,1,1.81.81,3.32,3.32,0,0,1,.65,2.15,3.73,3.73,0,0,1-.73,2.42,2.46,2.46,0,0,1-2,.9A2,2,0,0,1,124.21,121.13Zm0-2.42v.84a1.77,1.77,0,0,0,.48,1.26,1.73,1.73,0,0,0,2.6-.15,3,3,0,0,0,.5-1.85,2.41,2.41,0,0,0-.47-1.57,1.52,1.52,0,0,0-1.25-.57,1.7,1.7,0,0,0-1.35.58A2.15,2.15,0,0,0,124.19,118.71Z" fill="#2b3033"/>
        </g>
      </g>
    </g>
    <g id="Rectangle_1101" data-name="Rectangle 1101">
      <rect width="24" height="26" fill="#fff"/>
      <rect x="0.5" y="0.5" width="23" height="25" fill="none" stroke="#4386b9"/>
    </g>
    <g clip-path="url(#clip-path)">
      <g id="Icon_Import" data-name="Icon Import">
        <path id="Path_250" data-name="Path 250" d="M7.94,17,11.5,6.42l1,4.68L18.57,5,20,6.41l-6.1,6.1,4.68,1ZM13,16.91V19H6V12H8l.67-2H4V21H15V16.25Z" fill="#4386b9"/>
      </g>
    </g>
  </g>
</svg>
