<svg id="Layer_1" data-name="Layer 1" xmlns="http://www.w3.org/2000/svg" xmlns:xlink="http://www.w3.org/1999/xlink" width="176" height="105" viewBox="0 0 176 105"><defs><clipPath id="clip-path"><circle cx="40" cy="52" r="3" fill="none"/></clipPath><clipPath id="clip-path-2"><circle cx="40" cy="78" r="3" fill="none"/></clipPath><clipPath id="clip-path-3"><circle cx="27" cy="65" r="3" fill="none"/></clipPath><clipPath id="clip-path-4"><circle cx="53" cy="65" r="3" fill="none"/></clipPath><clipPath id="clip-path-5"><circle cx="30.81" cy="74.19" r="3" fill="none"/></clipPath><clipPath id="clip-path-6"><path d="M51.31,76.31a3,3,0,1,1,0-4.24A3,3,0,0,1,51.31,76.31Z" fill="none"/></clipPath><clipPath id="clip-path-7"><circle cx="30.81" cy="55.81" r="3" fill="none"/></clipPath></defs><title>progress-indicators-capture-data</title><polygon points="4 23.92 4 102.96 173.99 102.96 173.99 24 4 23.92" fill="#eef0ef"/><path d="M0,0V105H176V0ZM172,101H4V29H172Z" fill="#4d5359"/><path d="M21.82,18.65a4.89,4.89,0,0,1-2.32.49A3.73,3.73,0,0,1,16.63,18a4.26,4.26,0,0,1-1.08-3,4.5,4.5,0,0,1,1.21-3.26,4.12,4.12,0,0,1,3.08-1.24,4.92,4.92,0,0,1,2,.34v1a4.08,4.08,0,0,0-2-.5,3.07,3.07,0,0,0-2.35,1,3.66,3.66,0,0,0-.9,2.59,3.44,3.44,0,0,0,.84,2.44,2.87,2.87,0,0,0,2.21.92,4.11,4.11,0,0,0,2.19-.57Z" fill="#fff"/><path d="M27.7,19h-1v-.94h0a2.2,2.2,0,0,1-3.25.61,1.68,1.68,0,0,1-.5-1.26c0-1.12.66-1.78,2-2l1.8-.25c0-1-.42-1.53-1.24-1.53a2.92,2.92,0,0,0-2,.74v-1a3.76,3.76,0,0,1,2-.56c1.41,0,2.12.75,2.12,2.24Zm-1-3-1.45.2a2.43,2.43,0,0,0-1,.34,1.08,1.08,0,0,0,0,1.55,1.2,1.2,0,0,0,.84.28,1.51,1.51,0,0,0,1.18-.5,1.8,1.8,0,0,0,.47-1.27Z" fill="#fff"/><path d="M30.49,18.13h0v3.63h-1V13h1v1.05h0a2.29,2.29,0,0,1,2.08-1.19,2.2,2.2,0,0,1,1.81.81A3.32,3.32,0,0,1,35,15.82a3.74,3.74,0,0,1-.74,2.42,2.42,2.42,0,0,1-2,.9A2,2,0,0,1,30.49,18.13Zm0-2.42v.84A1.77,1.77,0,0,0,31,17.81a1.59,1.59,0,0,0,1.23.52,1.6,1.6,0,0,0,1.37-.67A3,3,0,0,0,34,15.81a2.41,2.41,0,0,0-.46-1.57,1.53,1.53,0,0,0-1.25-.57,1.7,1.7,0,0,0-1.35.58A2.15,2.15,0,0,0,30.47,15.71Z" fill="#fff"/><path d="M39.35,18.94a1.82,1.82,0,0,1-.9.19c-1.05,0-1.58-.59-1.58-1.76V13.82h-1V13h1V11.54l1-.32V13h1.52v.82H37.83V17.2a1.37,1.37,0,0,0,.21.86.83.83,0,0,0,.68.26,1.05,1.05,0,0,0,.63-.2Z" fill="#fff"/><path d="M45.48,19h-1v-.95h0a2,2,0,0,1-1.86,1.09c-1.43,0-2.14-.85-2.14-2.55V13h1v3.43c0,1.27.48,1.9,1.45,1.9a1.47,1.47,0,0,0,1.16-.52,2,2,0,0,0,.45-1.35V13h1Z" fill="#fff"/><path d="M50.55,14a1.18,1.18,0,0,0-.73-.19,1.23,1.23,0,0,0-1,.58,2.72,2.72,0,0,0-.41,1.58V19h-1V13h1v1.24h0a2.12,2.12,0,0,1,.63-1,1.42,1.42,0,0,1,.94-.36,1.46,1.46,0,0,1,.58.09Z" fill="#fff"/><path d="M56.26,16.24H52a2.25,2.25,0,0,0,.54,1.55,1.87,1.87,0,0,0,1.42.54,2.93,2.93,0,0,0,1.86-.67v.91a3.5,3.5,0,0,1-2.09.57,2.52,2.52,0,0,1-2-.82A3.36,3.36,0,0,1,51,16a3.29,3.29,0,0,1,.8-2.28,2.53,2.53,0,0,1,2-.88,2.25,2.25,0,0,1,1.82.76,3.18,3.18,0,0,1,.65,2.12Zm-1-.81a2,2,0,0,0-.4-1.3,1.36,1.36,0,0,0-1.1-.46,1.55,1.55,0,0,0-1.15.48A2.25,2.25,0,0,0,52,15.43Z" fill="#fff"/><path d="M61.12,19V10.6h2.33q4.44,0,4.44,4.09a4.11,4.11,0,0,1-1.24,3.13A4.55,4.55,0,0,1,63.35,19Zm1-7.51v6.62h1.25a3.59,3.59,0,0,0,2.58-.89,3.31,3.31,0,0,0,.92-2.5c0-2.16-1.15-3.23-3.44-3.23Z" fill="#fff"/><path d="M73.71,19h-1v-.94h0a2.2,2.2,0,0,1-3.25.61A1.65,1.65,0,0,1,69,17.41c0-1.12.66-1.78,2-2l1.79-.25q0-1.53-1.23-1.53a2.92,2.92,0,0,0-2,.74v-1a3.76,3.76,0,0,1,2-.56c1.41,0,2.12.75,2.12,2.24Zm-1-3-1.44.2a2.43,2.43,0,0,0-1,.34.93.93,0,0,0-.34.84.89.89,0,0,0,.31.71,1.2,1.2,0,0,0,.84.28,1.53,1.53,0,0,0,1.18-.5,1.79,1.79,0,0,0,.46-1.27Z" fill="#fff"/><path d="M78.3,18.94a1.82,1.82,0,0,1-.9.19c-1.05,0-1.57-.59-1.57-1.76V13.82h-1V13h1V11.54l1-.32V13H78.3v.82H76.79V17.2a1.45,1.45,0,0,0,.2.86.84.84,0,0,0,.68.26,1.05,1.05,0,0,0,.63-.2Z" fill="#fff"/><path d="M83.88,19h-1v-.94h0a2.2,2.2,0,0,1-3.25.61,1.68,1.68,0,0,1-.5-1.26c0-1.12.66-1.78,2-2l1.8-.25c0-1-.42-1.53-1.24-1.53a2.92,2.92,0,0,0-2,.74v-1a3.76,3.76,0,0,1,2-.56c1.41,0,2.12.75,2.12,2.24Zm-1-3-1.45.2a2.43,2.43,0,0,0-1,.34,1.08,1.08,0,0,0,0,1.55,1.2,1.2,0,0,0,.84.28,1.51,1.51,0,0,0,1.18-.5,1.8,1.8,0,0,0,.47-1.27Z" fill="#fff"/><g clip-path="url(#clip-path)"><rect x="32" y="44" width="16" height="16" fill="#696e74"/></g><g clip-path="url(#clip-path-2)"><rect x="32" y="70" width="16" height="16" fill="#696e74" opacity="0.4"/></g><g clip-path="url(#clip-path-3)"><rect x="19" y="57" width="16" height="16" fill="#696e74" opacity="0.7"/></g><g clip-path="url(#clip-path-4)"><rect x="45" y="57" width="16" height="16" fill="#696e74" opacity="0.1"/></g><g clip-path="url(#clip-path-5)"><rect x="22.81" y="66.19" width="16" height="16" fill="#696e74" opacity="0.55"/></g><g clip-path="url(#clip-path-6)"><rect x="41.19" y="66.19" width="16" height="16" fill="#696e74" opacity="0.25"/></g><g clip-path="url(#clip-path-7)"><rect x="22.81" y="47.81" width="16" height="16" fill="#696e74" opacity="0.85"/></g><path d="M71.82,68.65a4.89,4.89,0,0,1-2.32.49A3.73,3.73,0,0,1,66.63,68a4.26,4.26,0,0,1-1.08-3,4.5,4.5,0,0,1,1.21-3.26,4.12,4.12,0,0,1,3.08-1.24,4.92,4.92,0,0,1,2,.34v1.05a4.08,4.08,0,0,0-2-.5,3.07,3.07,0,0,0-2.35,1,3.66,3.66,0,0,0-.9,2.59,3.44,3.44,0,0,0,.84,2.44,2.87,2.87,0,0,0,2.21.92,4.11,4.11,0,0,0,2.19-.57Z" fill="#4d5359"/><path d="M77.7,69h-1v-.94h0a2.2,2.2,0,0,1-3.25.61,1.68,1.68,0,0,1-.5-1.26c0-1.13.66-1.78,2-2l1.8-.25c0-1-.42-1.53-1.24-1.53a2.92,2.92,0,0,0-2,.74v-1a3.76,3.76,0,0,1,2-.56c1.41,0,2.12.74,2.12,2.24Zm-1-3-1.45.2a2.59,2.59,0,0,0-1,.33,1,1,0,0,0-.34.85.92.92,0,0,0,.31.71,1.2,1.2,0,0,0,.84.28,1.55,1.55,0,0,0,1.18-.5,1.8,1.8,0,0,0,.47-1.27Z" fill="#4d5359"/><path d="M80.49,68.13h0v3.63h-1V63h1v1h0a2.29,2.29,0,0,1,2.08-1.19,2.23,2.23,0,0,1,1.81.8A3.37,3.37,0,0,1,85,65.82a3.69,3.69,0,0,1-.74,2.41,2.4,2.4,0,0,1-2,.91A2,2,0,0,1,80.49,68.13Zm0-2.42v.84A1.77,1.77,0,0,0,81,67.81a1.59,1.59,0,0,0,1.23.52,1.6,1.6,0,0,0,1.37-.67A3,3,0,0,0,84,65.81a2.39,2.39,0,0,0-.46-1.57,1.53,1.53,0,0,0-1.25-.57,1.7,1.7,0,0,0-1.35.58A2.15,2.15,0,0,0,80.47,65.71Z" fill="#4d5359"/><path d="M89.35,68.94a1.82,1.82,0,0,1-.9.19c-1,0-1.58-.59-1.58-1.76V63.82h-1V63h1V61.53l1-.31V63h1.52v.82H87.83V67.2a1.37,1.37,0,0,0,.21.86.83.83,0,0,0,.68.26,1.05,1.05,0,0,0,.63-.2Z" fill="#4d5359"/><path d="M95.48,69h-1v-1h0a2,2,0,0,1-1.86,1.09c-1.43,0-2.14-.85-2.14-2.55V63h1v3.43c0,1.27.48,1.9,1.45,1.9a1.47,1.47,0,0,0,1.16-.52,2,2,0,0,0,.45-1.35V63h1Z" fill="#4d5359"/><path d="M100.55,64a1.18,1.18,0,0,0-.73-.19,1.23,1.23,0,0,0-1,.58,2.72,2.72,0,0,0-.41,1.58V69h-1V63h1v1.24h0a2.07,2.07,0,0,1,.63-1,1.42,1.42,0,0,1,.94-.36,1.46,1.46,0,0,1,.58.09Z" fill="#4d5359"/><path d="M102.08,61.48a.62.62,0,0,1-.44-.18.61.61,0,0,1-.18-.45.6.6,0,0,1,.18-.44.62.62,0,0,1,.44-.18.61.61,0,0,1,.45.18.58.58,0,0,1,.19.44.56.56,0,0,1-.19.44A.58.58,0,0,1,102.08,61.48Zm.47,7.52h-1V63h1Z" fill="#4d5359"/><path d="M109.48,69h-1V65.58c0-1.28-.47-1.91-1.4-1.91a1.52,1.52,0,0,0-1.19.54,2,2,0,0,0-.47,1.37V69h-1V63h1v1h0a2.17,2.17,0,0,1,2-1.14,1.85,1.85,0,0,1,1.51.63,2.9,2.9,0,0,1,.52,1.84Z" fill="#4d5359"/><path d="M116.41,68.52q0,3.3-3.16,3.3a4.28,4.28,0,0,1-2-.42v-1a4,4,0,0,0,1.93.56c1.48,0,2.22-.78,2.22-2.35V68h0a2.43,2.43,0,0,1-3.87.35,3.22,3.22,0,0,1-.68-2.15,3.73,3.73,0,0,1,.73-2.43,2.48,2.48,0,0,1,2-.9,2,2,0,0,1,1.8,1h0V63h1Zm-1-2.23V65.4a1.72,1.72,0,0,0-.48-1.22,1.62,1.62,0,0,0-1.21-.51,1.66,1.66,0,0,0-1.39.64,2.9,2.9,0,0,0-.51,1.82,2.43,2.43,0,0,0,.49,1.6,1.56,1.56,0,0,0,1.28.6,1.67,1.67,0,0,0,1.31-.57A2.16,2.16,0,0,0,115.45,66.29Z" fill="#4d5359"/><path d="M126.76,69h-1V68h0a2.42,2.42,0,0,1-3.87.35,3.28,3.28,0,0,1-.68-2.19,3.57,3.57,0,0,1,.75-2.38,2.48,2.48,0,0,1,2-.9,1.93,1.93,0,0,1,1.8,1h0V60.12h1Zm-1-2.71V65.4a1.73,1.73,0,0,0-.48-1.23,1.62,1.62,0,0,0-1.22-.5,1.66,1.66,0,0,0-1.38.64,2.81,2.81,0,0,0-.5,1.78,2.56,2.56,0,0,0,.48,1.64,1.59,1.59,0,0,0,1.3.6,1.63,1.63,0,0,0,1.3-.58A2.12,2.12,0,0,0,125.8,66.29Z" fill="#4d5359"/><path d="M133,69h-1v-.94h0a2.2,2.2,0,0,1-3.25.61,1.65,1.65,0,0,1-.51-1.26c0-1.13.66-1.78,2-2l1.8-.25q0-1.53-1.23-1.53a2.91,2.91,0,0,0-2,.74v-1a3.76,3.76,0,0,1,2-.56c1.41,0,2.11.74,2.11,2.24Zm-1-3-1.44.2a2.53,2.53,0,0,0-1,.33,1,1,0,0,0-.34.85.89.89,0,0,0,.31.71,1.2,1.2,0,0,0,.84.28,1.56,1.56,0,0,0,1.18-.5,1.79,1.79,0,0,0,.46-1.27Z" fill="#4d5359"/><path d="M137.6,68.94a1.82,1.82,0,0,1-.9.19c-1,0-1.58-.59-1.58-1.76V63.82h-1V63h1V61.53l1-.31V63h1.51v.82h-1.51V67.2a1.38,1.38,0,0,0,.2.86.83.83,0,0,0,.68.26,1.05,1.05,0,0,0,.63-.2Z" fill="#4d5359"/><path d="M143.18,69h-1v-.94h0a2.2,2.2,0,0,1-3.25.61,1.64,1.64,0,0,1-.5-1.26c0-1.13.66-1.78,2-2l1.79-.25q0-1.53-1.23-1.53a2.92,2.92,0,0,0-2,.74v-1a3.76,3.76,0,0,1,2-.56c1.41,0,2.12.74,2.12,2.24Zm-1-3-1.44.2a2.59,2.59,0,0,0-1,.33,1,1,0,0,0-.34.85.89.89,0,0,0,.31.71,1.2,1.2,0,0,0,.84.28,1.56,1.56,0,0,0,1.18-.5,1.79,1.79,0,0,0,.46-1.27Z" fill="#4d5359"/><path d="M145.32,69.13a.66.66,0,0,1-.46-.19.64.64,0,0,1-.19-.47.62.62,0,0,1,.19-.46.63.63,0,0,1,.46-.2.65.65,0,0,1,.47.2.62.62,0,0,1,.19.46.64.64,0,0,1-.19.47A.68.68,0,0,1,145.32,69.13Z" fill="#4d5359"/><path d="M147.92,69.13a.66.66,0,0,1-.46-.19.64.64,0,0,1-.19-.47.62.62,0,0,1,.19-.46.64.64,0,0,1,.93,0,.62.62,0,0,1,.19.46.64.64,0,0,1-.19.47A.67.67,0,0,1,147.92,69.13Z" fill="#4d5359"/><path d="M150.52,69.13a.66.66,0,0,1-.46-.19.68.68,0,0,1-.19-.47.66.66,0,0,1,.19-.46.67.67,0,0,1,1.13.46.65.65,0,0,1-.2.47A.67.67,0,0,1,150.52,69.13Z" fill="#4d5359"/></svg>