<svg id="Layer_1" data-name="Layer 1" xmlns="http://www.w3.org/2000/svg" xmlns:xlink="http://www.w3.org/1999/xlink" width="317" height="147" viewBox="0 0 317 147"><defs><clipPath id="clip-path"><circle cx="60" cy="60" r="60" fill="none"/></clipPath><symbol id="Groupbox" data-name="Groupbox" viewBox="0 0 258 87.2"><polygon points="32 6.2 32 7.2 257 7.2 257 86.2 1 86.2 1 13.2 0 13.2 0 87.2 258 87.2 258 6.2 32 6.2" fill="#a9acaf"/><path d="M6,10.2H1V1.8H2.85V8.67H6Z" fill="#2b3033"/><path d="M11.91,10.2H10.15V9.34h0a2,2,0,0,1-1.79,1A1.87,1.87,0,0,1,7,9.85a1.77,1.77,0,0,1-.5-1.32q0-1.75,2.07-2l1.63-.22q0-1-1.07-1a3.64,3.64,0,0,0-2,.64V4.56a4.59,4.59,0,0,1,1.06-.35,5.56,5.56,0,0,1,1.22-.15,2.27,2.27,0,0,1,2.57,2.56ZM10.17,7.76v-.4L9.08,7.5q-.9.12-.9.81a.67.67,0,0,0,.22.52A.84.84,0,0,0,9,9a1.1,1.1,0,0,0,.85-.36A1.3,1.3,0,0,0,10.17,7.76Z" fill="#2b3033"/><path d="M15.25,9.5h0v.7H13.37V1.32h1.85V5.1h0a2.2,2.2,0,0,1,2-1,2.14,2.14,0,0,1,1.79.8A3.44,3.44,0,0,1,19.61,7a3.72,3.72,0,0,1-.73,2.41,2.39,2.39,0,0,1-2,.91A1.89,1.89,0,0,1,15.25,9.5ZM15.19,7v.62a1.4,1.4,0,0,0,.33,1,1.09,1.09,0,0,0,.86.38,1.14,1.14,0,0,0,1-.49,2.36,2.36,0,0,0,.35-1.39,1.88,1.88,0,0,0-.32-1.16,1.08,1.08,0,0,0-.91-.42,1.18,1.18,0,0,0-.92.42A1.58,1.58,0,0,0,15.19,7Z" fill="#2b3033"/><path d="M26.2,7.73H22.29Q22.38,9,23.94,9a3.21,3.21,0,0,0,1.74-.47V9.9a4.57,4.57,0,0,1-2.16.45,3,3,0,0,1-2.26-.81,3,3,0,0,1-.8-2.25,3.21,3.21,0,0,1,.87-2.37,2.89,2.89,0,0,1,2.13-.87,2.62,2.62,0,0,1,2,.78,3,3,0,0,1,.72,2.12ZM24.49,6.59q0-1.29-1-1.29a1,1,0,0,0-.77.37,1.68,1.68,0,0,0-.4.92Z" fill="#2b3033"/><path d="M29.16,10.2H27.3V1.32h1.85Z" fill="#2b3033"/><path d="M35.32,30a4.93,4.93,0,0,1-2.32.49,3.74,3.74,0,0,1-2.87-1.15,4.26,4.26,0,0,1-1.08-3A4.46,4.46,0,0,1,30.26,23a4.12,4.12,0,0,1,3.08-1.24,4.93,4.93,0,0,1,2,.35v1a4,4,0,0,0-2-.5,3.06,3.06,0,0,0-2.35,1,3.64,3.64,0,0,0-.9,2.58,3.47,3.47,0,0,0,.84,2.45,2.86,2.86,0,0,0,2.21.91A4.14,4.14,0,0,0,35.32,29Z" fill="#2b3033"/><path d="M41.88,30.34h-1V26.88q0-1.87-1.39-1.87a1.52,1.52,0,0,0-1.18.54,2,2,0,0,0-.48,1.39v3.4h-1V21.46h1v3.88h0a2.18,2.18,0,0,1,2-1.14q2,0,2,2.44Z" fill="#2b3033"/><path d="M48.52,27.58H44.28a2.24,2.24,0,0,0,.54,1.55,1.86,1.86,0,0,0,1.42.54A3,3,0,0,0,48.1,29v.9a3.48,3.48,0,0,1-2.09.57,2.54,2.54,0,0,1-2-.82,3.35,3.35,0,0,1-.73-2.3,3.28,3.28,0,0,1,.79-2.28,2.55,2.55,0,0,1,2-.88,2.26,2.26,0,0,1,1.82.76,3.18,3.18,0,0,1,.64,2.12Zm-1-.81a2,2,0,0,0-.4-1.29A1.37,1.37,0,0,0,46,25a1.55,1.55,0,0,0-1.15.49,2.21,2.21,0,0,0-.59,1.27Z" fill="#2b3033"/><path d="M54.06,30.06a3.12,3.12,0,0,1-1.64.42,2.72,2.72,0,0,1-2.07-.83,3,3,0,0,1-.79-2.17,3.33,3.33,0,0,1,.85-2.38,3,3,0,0,1,2.27-.9,3.16,3.16,0,0,1,1.39.29v1A2.44,2.44,0,0,0,52.64,25a1.93,1.93,0,0,0-1.51.66,2.5,2.5,0,0,0-.59,1.73,2.38,2.38,0,0,0,.55,1.66,1.91,1.91,0,0,0,1.49.61,2.41,2.41,0,0,0,1.48-.52Z" fill="#2b3033"/><path d="M60.49,30.34H59.15L56.5,27.46h0v2.88h-1V21.46h1v5.63h0L59,24.34h1.26l-2.78,2.89Z" fill="#2b3033"/><path d="M62.46,29.47h0v.87h-1V21.46h1v3.94h0a2.27,2.27,0,0,1,2.07-1.2,2.2,2.2,0,0,1,1.81.81A3.33,3.33,0,0,1,67,27.16a3.72,3.72,0,0,1-.73,2.41,2.44,2.44,0,0,1-2,.91A2,2,0,0,1,62.46,29.47Zm0-2.42v.84a1.78,1.78,0,0,0,.48,1.26,1.72,1.72,0,0,0,2.6-.15,3.06,3.06,0,0,0,.5-1.86,2.42,2.42,0,0,0-.46-1.57A1.53,1.53,0,0,0,64.3,25a1.7,1.7,0,0,0-1.35.58A2.14,2.14,0,0,0,62.44,27.05Z" fill="#2b3033"/><path d="M71,30.48a2.78,2.78,0,0,1-2.12-.84,3.11,3.11,0,0,1-.79-2.23A3.24,3.24,0,0,1,68.95,25a3,3,0,0,1,2.23-.85,2.69,2.69,0,0,1,2.09.83A3.28,3.28,0,0,1,74,27.32a3.22,3.22,0,0,1-.81,2.3A2.84,2.84,0,0,1,71,30.48ZM71.11,25a1.83,1.83,0,0,0-1.46.63,2.59,2.59,0,0,0-.54,1.74,2.45,2.45,0,0,0,.54,1.68,1.85,1.85,0,0,0,1.46.62,1.76,1.76,0,0,0,1.43-.6,2.62,2.62,0,0,0,.5-1.72,2.66,2.66,0,0,0-.5-1.73A1.75,1.75,0,0,0,71.11,25Z" fill="#2b3033"/><path d="M79.8,24.34l-2,3,2,3H78.65l-1.18-1.95-.26-.46h0l-.28.46-1.2,1.95H74.6l2-2.94-2-3.06H75.8L77,26.39l.25.47h0l1.5-2.52Z" fill="#2b3033"/><path d="M84.19,30.34h-1V23.08a2.22,2.22,0,0,1-.33.25,5.3,5.3,0,0,1-.48.28q-.27.14-.56.26a4.09,4.09,0,0,1-.58.19v-1a5.59,5.59,0,0,0,.67-.24q.35-.15.7-.33t.65-.39a5.14,5.14,0,0,0,.53-.4h.36Z" fill="#2b3033"/><path d="M35.32,74a4.93,4.93,0,0,1-2.32.49,3.74,3.74,0,0,1-2.87-1.15,4.26,4.26,0,0,1-1.08-3A4.46,4.46,0,0,1,30.26,67a4.12,4.12,0,0,1,3.08-1.24,4.93,4.93,0,0,1,2,.35v1a4,4,0,0,0-2-.5,3.06,3.06,0,0,0-2.35,1,3.64,3.64,0,0,0-.9,2.58,3.47,3.47,0,0,0,.84,2.45,2.86,2.86,0,0,0,2.21.91A4.14,4.14,0,0,0,35.32,73Z" fill="#2b3033"/><path d="M41.88,74.34h-1V70.88q0-1.87-1.39-1.87a1.52,1.52,0,0,0-1.18.54,2,2,0,0,0-.48,1.39v3.4h-1V65.46h1v3.88h0a2.18,2.18,0,0,1,2-1.14q2,0,2,2.44Z" fill="#2b3033"/><path d="M48.52,71.58H44.28a2.24,2.24,0,0,0,.54,1.55,1.86,1.86,0,0,0,1.42.54A3,3,0,0,0,48.1,73v.9a3.48,3.48,0,0,1-2.09.57,2.54,2.54,0,0,1-2-.82,3.35,3.35,0,0,1-.73-2.3,3.28,3.28,0,0,1,.79-2.28,2.55,2.55,0,0,1,2-.88,2.26,2.26,0,0,1,1.82.76,3.18,3.18,0,0,1,.64,2.12Zm-1-.81a2,2,0,0,0-.4-1.29A1.37,1.37,0,0,0,46,69a1.55,1.55,0,0,0-1.15.49,2.21,2.21,0,0,0-.59,1.27Z" fill="#2b3033"/><path d="M54.06,74.06a3.12,3.12,0,0,1-1.64.42,2.72,2.72,0,0,1-2.07-.83,3,3,0,0,1-.79-2.17,3.33,3.33,0,0,1,.85-2.38,3,3,0,0,1,2.27-.9,3.16,3.16,0,0,1,1.39.29v1A2.44,2.44,0,0,0,52.64,69a1.93,1.93,0,0,0-1.51.66,2.5,2.5,0,0,0-.59,1.73,2.38,2.38,0,0,0,.55,1.66,1.91,1.91,0,0,0,1.49.61,2.41,2.41,0,0,0,1.48-.52Z" fill="#2b3033"/><path d="M60.49,74.34H59.15L56.5,71.46h0v2.88h-1V65.46h1v5.63h0L59,68.34h1.26l-2.78,2.89Z" fill="#2b3033"/><path d="M62.46,73.47h0v.87h-1V65.46h1v3.94h0a2.27,2.27,0,0,1,2.07-1.2,2.2,2.2,0,0,1,1.81.81A3.33,3.33,0,0,1,67,71.16a3.72,3.72,0,0,1-.73,2.41,2.44,2.44,0,0,1-2,.91A2,2,0,0,1,62.46,73.47Zm0-2.42v.84a1.78,1.78,0,0,0,.48,1.26,1.72,1.72,0,0,0,2.6-.15,3.06,3.06,0,0,0,.5-1.86,2.42,2.42,0,0,0-.46-1.57A1.53,1.53,0,0,0,64.3,69a1.7,1.7,0,0,0-1.35.58A2.14,2.14,0,0,0,62.44,71.05Z" fill="#2b3033"/><path d="M71,74.48a2.78,2.78,0,0,1-2.12-.84,3.11,3.11,0,0,1-.79-2.23A3.24,3.24,0,0,1,68.95,69a3,3,0,0,1,2.23-.85,2.69,2.69,0,0,1,2.09.83A3.28,3.28,0,0,1,74,71.32a3.22,3.22,0,0,1-.81,2.3A2.84,2.84,0,0,1,71,74.48ZM71.11,69a1.83,1.83,0,0,0-1.46.63,2.59,2.59,0,0,0-.54,1.74,2.45,2.45,0,0,0,.54,1.68,1.85,1.85,0,0,0,1.46.62,1.76,1.76,0,0,0,1.43-.6,2.62,2.62,0,0,0,.5-1.72,2.66,2.66,0,0,0-.5-1.73A1.75,1.75,0,0,0,71.11,69Z" fill="#2b3033"/><path d="M79.8,68.34l-2,3,2,3H78.65l-1.18-1.95-.26-.46h0l-.28.46-1.2,1.95H74.6l2-2.94-2-3.06H75.8L77,70.39l.25.47h0l1.5-2.52Z" fill="#2b3033"/><path d="M85.54,72a2.45,2.45,0,0,1-.21,1,2.28,2.28,0,0,1-.6.8,2.79,2.79,0,0,1-.93.51,3.78,3.78,0,0,1-1.2.18A3.49,3.49,0,0,1,80.67,74V73a3.06,3.06,0,0,0,1.95.67,2.64,2.64,0,0,0,.79-.11,1.78,1.78,0,0,0,.61-.32,1.43,1.43,0,0,0,.39-.51,1.59,1.59,0,0,0,.14-.67q0-1.65-2.34-1.65h-.7v-.81h.66q2.07,0,2.07-1.55t-1.58-1.43a2.69,2.69,0,0,0-1.67.6v-.93a3.65,3.65,0,0,1,1.91-.48,2.94,2.94,0,0,1,1,.15,2.19,2.19,0,0,1,.73.41,1.82,1.82,0,0,1,.47.63,2,2,0,0,1,.17.81,2.05,2.05,0,0,1-1.68,2.13v0a2.65,2.65,0,0,1,.79.21,2.11,2.11,0,0,1,.63.42,1.87,1.87,0,0,1,.41.61A1.94,1.94,0,0,1,85.54,72Z" fill="#2b3033"/><rect x="12" y="65.2" width="10" height="10" fill="#fff"/><path d="M11,64.2v12H23v-12Zm11,11H12v-10H22Z" fill="#575757"/><path d="M35.32,52a4.93,4.93,0,0,1-2.32.49,3.74,3.74,0,0,1-2.87-1.15,4.26,4.26,0,0,1-1.08-3A4.46,4.46,0,0,1,30.26,45a4.12,4.12,0,0,1,3.08-1.24,4.93,4.93,0,0,1,2,.35v1a4,4,0,0,0-2-.5,3.06,3.06,0,0,0-2.35,1,3.64,3.64,0,0,0-.9,2.58,3.47,3.47,0,0,0,.84,2.45,2.86,2.86,0,0,0,2.21.91A4.14,4.14,0,0,0,35.32,51Z" fill="#2b3033"/><path d="M41.88,52.34h-1V48.88q0-1.87-1.39-1.87a1.52,1.52,0,0,0-1.18.54,2,2,0,0,0-.48,1.39v3.4h-1V43.46h1v3.88h0a2.18,2.18,0,0,1,2-1.14q2,0,2,2.44Z" fill="#2b3033"/><path d="M48.52,49.58H44.28a2.24,2.24,0,0,0,.54,1.55,1.86,1.86,0,0,0,1.42.54A3,3,0,0,0,48.1,51v.9a3.48,3.48,0,0,1-2.09.57,2.54,2.54,0,0,1-2-.82,3.35,3.35,0,0,1-.73-2.3,3.28,3.28,0,0,1,.79-2.28,2.55,2.55,0,0,1,2-.88,2.26,2.26,0,0,1,1.82.76,3.18,3.18,0,0,1,.64,2.12Zm-1-.81a2,2,0,0,0-.4-1.29A1.37,1.37,0,0,0,46,47a1.55,1.55,0,0,0-1.15.49,2.21,2.21,0,0,0-.59,1.27Z" fill="#2b3033"/><path d="M54.06,52.06a3.12,3.12,0,0,1-1.64.42,2.72,2.72,0,0,1-2.07-.83,3,3,0,0,1-.79-2.17,3.33,3.33,0,0,1,.85-2.38,3,3,0,0,1,2.27-.9,3.16,3.16,0,0,1,1.39.29v1A2.44,2.44,0,0,0,52.64,47a1.93,1.93,0,0,0-1.51.66,2.5,2.5,0,0,0-.59,1.73,2.38,2.38,0,0,0,.55,1.66,1.91,1.91,0,0,0,1.49.61,2.41,2.41,0,0,0,1.48-.52Z" fill="#2b3033"/><path d="M60.49,52.34H59.15L56.5,49.46h0v2.88h-1V43.46h1v5.63h0L59,46.34h1.26l-2.78,2.89Z" fill="#2b3033"/><path d="M62.46,51.47h0v.87h-1V43.46h1v3.94h0a2.27,2.27,0,0,1,2.07-1.2,2.2,2.2,0,0,1,1.81.81A3.33,3.33,0,0,1,67,49.16a3.72,3.72,0,0,1-.73,2.41,2.44,2.44,0,0,1-2,.91A2,2,0,0,1,62.46,51.47Zm0-2.42v.84a1.78,1.78,0,0,0,.48,1.26,1.72,1.72,0,0,0,2.6-.15,3.06,3.06,0,0,0,.5-1.86,2.42,2.42,0,0,0-.46-1.57A1.53,1.53,0,0,0,64.3,47a1.7,1.7,0,0,0-1.35.58A2.14,2.14,0,0,0,62.44,49.05Z" fill="#2b3033"/><path d="M71,52.48a2.78,2.78,0,0,1-2.12-.84,3.11,3.11,0,0,1-.79-2.23A3.24,3.24,0,0,1,68.95,47a3,3,0,0,1,2.23-.85,2.69,2.69,0,0,1,2.09.83A3.28,3.28,0,0,1,74,49.32a3.22,3.22,0,0,1-.81,2.3A2.84,2.84,0,0,1,71,52.48ZM71.11,47a1.83,1.83,0,0,0-1.46.63,2.59,2.59,0,0,0-.54,1.74,2.45,2.45,0,0,0,.54,1.68,1.85,1.85,0,0,0,1.46.62,1.76,1.76,0,0,0,1.43-.6,2.62,2.62,0,0,0,.5-1.72,2.66,2.66,0,0,0-.5-1.73A1.75,1.75,0,0,0,71.11,47Z" fill="#2b3033"/><path d="M79.8,46.34l-2,3,2,3H78.65l-1.18-1.95-.26-.46h0l-.28.46-1.2,1.95H74.6l2-2.94-2-3.06H75.8L77,48.39l.25.47h0l1.5-2.52Z" fill="#2b3033"/><path d="M84.48,46.14a1.74,1.74,0,0,0-.12-.67,1.3,1.3,0,0,0-.82-.76,1.92,1.92,0,0,0-.61-.09,2,2,0,0,0-.55.08,2.68,2.68,0,0,0-.52.21,3.23,3.23,0,0,0-.49.32,3.56,3.56,0,0,0-.44.42v-1a2.87,2.87,0,0,1,.91-.6A3.19,3.19,0,0,1,83,43.8a3,3,0,0,1,1,.15,2.19,2.19,0,0,1,.76.44,2,2,0,0,1,.51.71,2.39,2.39,0,0,1,.18,1,3.32,3.32,0,0,1-.11.9,2.79,2.79,0,0,1-.35.76,3.68,3.68,0,0,1-.58.69,8.26,8.26,0,0,1-.83.67q-.59.42-1,.72a4.31,4.31,0,0,0-.61.56,1.62,1.62,0,0,0-.32.52,1.82,1.82,0,0,0-.09.6h4.18v.86H80.59v-.42a3.47,3.47,0,0,1,.12-.95,2.46,2.46,0,0,1,.39-.78,4.32,4.32,0,0,1,.71-.74q.44-.37,1.07-.83a6.76,6.76,0,0,0,.76-.63,3.26,3.26,0,0,0,.5-.6,2.15,2.15,0,0,0,.27-.61A2.61,2.61,0,0,0,84.48,46.14Z" fill="#2b3033"/><rect x="12" y="43.2" width="10" height="10" fill="#fff"/><path d="M11,42.2v12H23v-12Zm11,11H12v-10H22Z" fill="#575757"/><path d="M11,20.2v12H23v-12Z" fill="#4384b7"/><polygon points="19.83 22.01 16.18 27.84 14.01 26.23 13.17 27.58 16.53 30.24 21.17 22.85 19.83 22.01" fill="#fff"/><path d="M11,20.2v12H23v-12Zm11,11H12v-10H22Z" fill="#575757"/></symbol><symbol id="_300_Grid" data-name="300%Grid" viewBox="0 0 201.63 201.25"><rect y="0.62" width="201" height="200" fill="#fff"/><g opacity="0.5"><line x1="0.5" y1="0.13" x2="200.5" y2="0.13" fill="none" stroke="#e0e0e0" stroke-miterlimit="10" stroke-width="0.25"/><line x1="0.5" y1="3.13" x2="200.5" y2="3.13" fill="none" stroke="#e0e0e0" stroke-miterlimit="10" stroke-width="0.25"/><line x1="0.5" y1="6.13" x2="200.5" y2="6.13" fill="none" stroke="#e0e0e0" stroke-miterlimit="10" stroke-width="0.25"/><line x1="0.5" y1="9.13" x2="200.5" y2="9.13" fill="none" stroke="#e0e0e0" stroke-miterlimit="10" stroke-width="0.25"/><line x1="0.5" y1="12.13" x2="200.5" y2="12.13" fill="none" stroke="#e0e0e0" stroke-miterlimit="10" stroke-width="0.25"/><line x1="0.5" y1="15.13" x2="200.5" y2="15.13" fill="none" stroke="#e0e0e0" stroke-miterlimit="10" stroke-width="0.25"/><line x1="0.5" y1="18.13" x2="200.5" y2="18.13" fill="none" stroke="#e0e0e0" stroke-miterlimit="10" stroke-width="0.25"/><line x1="0.5" y1="21.13" x2="200.5" y2="21.13" fill="none" stroke="#e0e0e0" stroke-miterlimit="10" stroke-width="0.25"/><line x1="0.5" y1="24.13" x2="200.5" y2="24.13" fill="none" stroke="#e0e0e0" stroke-miterlimit="10" stroke-width="0.25"/><line x1="0.5" y1="27.13" x2="200.5" y2="27.13" fill="none" stroke="#e0e0e0" stroke-miterlimit="10" stroke-width="0.25"/><line x1="0.5" y1="30.13" x2="200.5" y2="30.13" fill="none" stroke="#e0e0e0" stroke-miterlimit="10" stroke-width="0.25"/><line x1="0.5" y1="33.13" x2="200.5" y2="33.13" fill="none" stroke="#e0e0e0" stroke-miterlimit="10" stroke-width="0.25"/><line x1="0.5" y1="36.13" x2="200.5" y2="36.13" fill="none" stroke="#e0e0e0" stroke-miterlimit="10" stroke-width="0.25"/><line x1="0.5" y1="39.13" x2="200.5" y2="39.13" fill="none" stroke="#e0e0e0" stroke-miterlimit="10" stroke-width="0.25"/><line x1="0.5" y1="42.13" x2="200.5" y2="42.13" fill="none" stroke="#e0e0e0" stroke-miterlimit="10" stroke-width="0.25"/><line x1="0.5" y1="45.13" x2="200.5" y2="45.13" fill="none" stroke="#e0e0e0" stroke-miterlimit="10" stroke-width="0.25"/><line x1="0.5" y1="48.13" x2="200.5" y2="48.13" fill="none" stroke="#e0e0e0" stroke-miterlimit="10" stroke-width="0.25"/><line x1="0.5" y1="51.13" x2="200.5" y2="51.13" fill="none" stroke="#e0e0e0" stroke-miterlimit="10" stroke-width="0.25"/><line x1="0.5" y1="54.13" x2="200.5" y2="54.13" fill="none" stroke="#e0e0e0" stroke-miterlimit="10" stroke-width="0.25"/><line x1="0.5" y1="57.13" x2="200.5" y2="57.13" fill="none" stroke="#e0e0e0" stroke-miterlimit="10" stroke-width="0.25"/><line x1="0.5" y1="60.13" x2="200.5" y2="60.13" fill="none" stroke="#e0e0e0" stroke-miterlimit="10" stroke-width="0.25"/><line x1="0.5" y1="63.13" x2="200.5" y2="63.13" fill="none" stroke="#e0e0e0" stroke-miterlimit="10" stroke-width="0.25"/><line x1="0.5" y1="66.13" x2="200.5" y2="66.13" fill="none" stroke="#e0e0e0" stroke-miterlimit="10" stroke-width="0.25"/><line x1="0.5" y1="69.13" x2="200.5" y2="69.13" fill="none" stroke="#e0e0e0" stroke-miterlimit="10" stroke-width="0.25"/><line x1="0.5" y1="72.13" x2="200.5" y2="72.13" fill="none" stroke="#e0e0e0" stroke-miterlimit="10" stroke-width="0.25"/><line x1="0.5" y1="75.13" x2="200.5" y2="75.13" fill="none" stroke="#e0e0e0" stroke-miterlimit="10" stroke-width="0.25"/><line x1="0.5" y1="78.13" x2="200.5" y2="78.13" fill="none" stroke="#e0e0e0" stroke-miterlimit="10" stroke-width="0.25"/><line x1="0.5" y1="81.13" x2="200.5" y2="81.13" fill="none" stroke="#e0e0e0" stroke-miterlimit="10" stroke-width="0.25"/><line x1="0.5" y1="84.13" x2="200.5" y2="84.13" fill="none" stroke="#e0e0e0" stroke-miterlimit="10" stroke-width="0.25"/><line x1="0.5" y1="87.13" x2="200.5" y2="87.13" fill="none" stroke="#e0e0e0" stroke-miterlimit="10" stroke-width="0.25"/><line x1="0.5" y1="90.13" x2="200.5" y2="90.13" fill="none" stroke="#e0e0e0" stroke-miterlimit="10" stroke-width="0.25"/><line x1="0.5" y1="93.13" x2="200.5" y2="93.13" fill="none" stroke="#e0e0e0" stroke-miterlimit="10" stroke-width="0.25"/><line x1="0.5" y1="96.13" x2="200.5" y2="96.13" fill="none" stroke="#e0e0e0" stroke-miterlimit="10" stroke-width="0.25"/><line x1="0.5" y1="99.13" x2="200.5" y2="99.13" fill="none" stroke="#e0e0e0" stroke-miterlimit="10" stroke-width="0.25"/><line x1="0.5" y1="102.13" x2="200.5" y2="102.13" fill="none" stroke="#e0e0e0" stroke-miterlimit="10" stroke-width="0.25"/><line x1="0.5" y1="105.13" x2="200.5" y2="105.13" fill="none" stroke="#e0e0e0" stroke-miterlimit="10" stroke-width="0.25"/><line x1="0.5" y1="108.13" x2="200.5" y2="108.13" fill="none" stroke="#e0e0e0" stroke-miterlimit="10" stroke-width="0.25"/><line x1="0.5" y1="111.13" x2="200.5" y2="111.13" fill="none" stroke="#e0e0e0" stroke-miterlimit="10" stroke-width="0.25"/><line x1="0.5" y1="114.13" x2="200.5" y2="114.13" fill="none" stroke="#e0e0e0" stroke-miterlimit="10" stroke-width="0.25"/><line x1="0.5" y1="117.13" x2="200.5" y2="117.13" fill="none" stroke="#e0e0e0" stroke-miterlimit="10" stroke-width="0.25"/><line x1="0.5" y1="120.13" x2="200.5" y2="120.13" fill="none" stroke="#e0e0e0" stroke-miterlimit="10" stroke-width="0.25"/><line x1="0.5" y1="123.13" x2="200.5" y2="123.13" fill="none" stroke="#e0e0e0" stroke-miterlimit="10" stroke-width="0.25"/><line x1="0.5" y1="126.13" x2="200.5" y2="126.13" fill="none" stroke="#e0e0e0" stroke-miterlimit="10" stroke-width="0.25"/><line x1="0.5" y1="129.13" x2="200.5" y2="129.13" fill="none" stroke="#e0e0e0" stroke-miterlimit="10" stroke-width="0.25"/><line x1="0.5" y1="132.13" x2="200.5" y2="132.13" fill="none" stroke="#e0e0e0" stroke-miterlimit="10" stroke-width="0.25"/><line x1="0.5" y1="135.13" x2="200.5" y2="135.13" fill="none" stroke="#e0e0e0" stroke-miterlimit="10" stroke-width="0.25"/><line x1="0.5" y1="138.13" x2="200.5" y2="138.13" fill="none" stroke="#e0e0e0" stroke-miterlimit="10" stroke-width="0.25"/><line x1="0.5" y1="141.13" x2="200.5" y2="141.13" fill="none" stroke="#e0e0e0" stroke-miterlimit="10" stroke-width="0.25"/><line x1="0.5" y1="144.13" x2="200.5" y2="144.13" fill="none" stroke="#e0e0e0" stroke-miterlimit="10" stroke-width="0.25"/><line x1="0.5" y1="147.13" x2="200.5" y2="147.13" fill="none" stroke="#e0e0e0" stroke-miterlimit="10" stroke-width="0.25"/><line x1="0.5" y1="150.13" x2="200.5" y2="150.13" fill="none" stroke="#e0e0e0" stroke-miterlimit="10" stroke-width="0.25"/><line x1="0.5" y1="153.13" x2="200.5" y2="153.13" fill="none" stroke="#e0e0e0" stroke-miterlimit="10" stroke-width="0.25"/><line x1="0.5" y1="156.13" x2="200.5" y2="156.13" fill="none" stroke="#e0e0e0" stroke-miterlimit="10" stroke-width="0.25"/><line x1="0.5" y1="159.13" x2="200.5" y2="159.13" fill="none" stroke="#e0e0e0" stroke-miterlimit="10" stroke-width="0.25"/><line x1="0.5" y1="162.13" x2="200.5" y2="162.13" fill="none" stroke="#e0e0e0" stroke-miterlimit="10" stroke-width="0.25"/><line x1="0.5" y1="165.13" x2="200.5" y2="165.13" fill="none" stroke="#e0e0e0" stroke-miterlimit="10" stroke-width="0.25"/><line x1="0.5" y1="168.13" x2="200.5" y2="168.13" fill="none" stroke="#e0e0e0" stroke-miterlimit="10" stroke-width="0.25"/><line x1="0.5" y1="171.13" x2="200.5" y2="171.13" fill="none" stroke="#e0e0e0" stroke-miterlimit="10" stroke-width="0.25"/><line x1="0.5" y1="174.13" x2="200.5" y2="174.13" fill="none" stroke="#e0e0e0" stroke-miterlimit="10" stroke-width="0.25"/><line x1="0.5" y1="177.13" x2="200.5" y2="177.13" fill="none" stroke="#e0e0e0" stroke-miterlimit="10" stroke-width="0.25"/><line x1="0.5" y1="180.13" x2="200.5" y2="180.13" fill="none" stroke="#e0e0e0" stroke-miterlimit="10" stroke-width="0.25"/><line x1="0.5" y1="183.13" x2="200.5" y2="183.13" fill="none" stroke="#e0e0e0" stroke-miterlimit="10" stroke-width="0.25"/><line x1="0.5" y1="186.13" x2="200.5" y2="186.13" fill="none" stroke="#e0e0e0" stroke-miterlimit="10" stroke-width="0.25"/><line x1="0.5" y1="189.13" x2="200.5" y2="189.13" fill="none" stroke="#e0e0e0" stroke-miterlimit="10" stroke-width="0.25"/><line x1="0.5" y1="192.13" x2="200.5" y2="192.13" fill="none" stroke="#e0e0e0" stroke-miterlimit="10" stroke-width="0.25"/><line x1="0.5" y1="195.13" x2="200.5" y2="195.13" fill="none" stroke="#e0e0e0" stroke-miterlimit="10" stroke-width="0.25"/><line x1="0.5" y1="198.13" x2="200.5" y2="198.13" fill="none" stroke="#e0e0e0" stroke-miterlimit="10" stroke-width="0.25"/><line x1="0.5" y1="201.13" x2="200.5" y2="201.13" fill="none" stroke="#e0e0e0" stroke-miterlimit="10" stroke-width="0.25"/></g><g opacity="0.5"><line x1="0.5" y1="200.13" x2="0.5" y2="0.13" fill="none" stroke="#e0e0e0" stroke-miterlimit="10" stroke-width="0.25"/><line x1="3.5" y1="200.13" x2="3.5" y2="0.13" fill="none" stroke="#e0e0e0" stroke-miterlimit="10" stroke-width="0.25"/><line x1="6.5" y1="200.13" x2="6.5" y2="0.13" fill="none" stroke="#e0e0e0" stroke-miterlimit="10" stroke-width="0.25"/><line x1="9.5" y1="200.13" x2="9.5" y2="0.13" fill="none" stroke="#e0e0e0" stroke-miterlimit="10" stroke-width="0.25"/><line x1="12.5" y1="200.13" x2="12.5" y2="0.13" fill="none" stroke="#e0e0e0" stroke-miterlimit="10" stroke-width="0.25"/><line x1="15.5" y1="200.13" x2="15.5" y2="0.13" fill="none" stroke="#e0e0e0" stroke-miterlimit="10" stroke-width="0.25"/><line x1="18.5" y1="200.13" x2="18.5" y2="0.13" fill="none" stroke="#e0e0e0" stroke-miterlimit="10" stroke-width="0.25"/><line x1="21.5" y1="200.13" x2="21.5" y2="0.13" fill="none" stroke="#e0e0e0" stroke-miterlimit="10" stroke-width="0.25"/><line x1="24.5" y1="200.13" x2="24.5" y2="0.13" fill="none" stroke="#e0e0e0" stroke-miterlimit="10" stroke-width="0.25"/><line x1="27.5" y1="200.13" x2="27.5" y2="0.13" fill="none" stroke="#e0e0e0" stroke-miterlimit="10" stroke-width="0.25"/><line x1="30.5" y1="200.13" x2="30.5" y2="0.13" fill="none" stroke="#e0e0e0" stroke-miterlimit="10" stroke-width="0.25"/><line x1="33.5" y1="200.13" x2="33.5" y2="0.13" fill="none" stroke="#e0e0e0" stroke-miterlimit="10" stroke-width="0.25"/><line x1="36.5" y1="200.13" x2="36.5" y2="0.13" fill="none" stroke="#e0e0e0" stroke-miterlimit="10" stroke-width="0.25"/><line x1="39.5" y1="200.13" x2="39.5" y2="0.13" fill="none" stroke="#e0e0e0" stroke-miterlimit="10" stroke-width="0.25"/><line x1="42.5" y1="200.13" x2="42.5" y2="0.13" fill="none" stroke="#e0e0e0" stroke-miterlimit="10" stroke-width="0.25"/><line x1="45.5" y1="200.13" x2="45.5" y2="0.13" fill="none" stroke="#e0e0e0" stroke-miterlimit="10" stroke-width="0.25"/><line x1="48.5" y1="200.13" x2="48.5" y2="0.13" fill="none" stroke="#e0e0e0" stroke-miterlimit="10" stroke-width="0.25"/><line x1="51.5" y1="200.13" x2="51.5" y2="0.13" fill="none" stroke="#e0e0e0" stroke-miterlimit="10" stroke-width="0.25"/><line x1="54.5" y1="200.13" x2="54.5" y2="0.13" fill="none" stroke="#e0e0e0" stroke-miterlimit="10" stroke-width="0.25"/><line x1="57.5" y1="200.13" x2="57.5" y2="0.13" fill="none" stroke="#e0e0e0" stroke-miterlimit="10" stroke-width="0.25"/><line x1="60.5" y1="200.13" x2="60.5" y2="0.13" fill="none" stroke="#e0e0e0" stroke-miterlimit="10" stroke-width="0.25"/><line x1="63.5" y1="200.13" x2="63.5" y2="0.13" fill="none" stroke="#e0e0e0" stroke-miterlimit="10" stroke-width="0.25"/><line x1="66.5" y1="200.13" x2="66.5" y2="0.13" fill="none" stroke="#e0e0e0" stroke-miterlimit="10" stroke-width="0.25"/><line x1="69.5" y1="200.13" x2="69.5" y2="0.13" fill="none" stroke="#e0e0e0" stroke-miterlimit="10" stroke-width="0.25"/><line x1="72.5" y1="200.13" x2="72.5" y2="0.13" fill="none" stroke="#e0e0e0" stroke-miterlimit="10" stroke-width="0.25"/><line x1="75.5" y1="200.13" x2="75.5" y2="0.13" fill="none" stroke="#e0e0e0" stroke-miterlimit="10" stroke-width="0.25"/><line x1="78.5" y1="200.13" x2="78.5" y2="0.13" fill="none" stroke="#e0e0e0" stroke-miterlimit="10" stroke-width="0.25"/><line x1="81.5" y1="200.13" x2="81.5" y2="0.13" fill="none" stroke="#e0e0e0" stroke-miterlimit="10" stroke-width="0.25"/><line x1="84.5" y1="200.13" x2="84.5" y2="0.13" fill="none" stroke="#e0e0e0" stroke-miterlimit="10" stroke-width="0.25"/><line x1="87.5" y1="200.13" x2="87.5" y2="0.13" fill="none" stroke="#e0e0e0" stroke-miterlimit="10" stroke-width="0.25"/><line x1="90.5" y1="200.13" x2="90.5" y2="0.13" fill="none" stroke="#e0e0e0" stroke-miterlimit="10" stroke-width="0.25"/><line x1="93.5" y1="200.13" x2="93.5" y2="0.13" fill="none" stroke="#e0e0e0" stroke-miterlimit="10" stroke-width="0.25"/><line x1="96.5" y1="200.13" x2="96.5" y2="0.13" fill="none" stroke="#e0e0e0" stroke-miterlimit="10" stroke-width="0.25"/><line x1="99.5" y1="200.13" x2="99.5" y2="0.13" fill="none" stroke="#e0e0e0" stroke-miterlimit="10" stroke-width="0.25"/><line x1="102.5" y1="200.13" x2="102.5" y2="0.13" fill="none" stroke="#e0e0e0" stroke-miterlimit="10" stroke-width="0.25"/><line x1="105.5" y1="200.13" x2="105.5" y2="0.13" fill="none" stroke="#e0e0e0" stroke-miterlimit="10" stroke-width="0.25"/><line x1="108.5" y1="200.13" x2="108.5" y2="0.13" fill="none" stroke="#e0e0e0" stroke-miterlimit="10" stroke-width="0.25"/><line x1="111.5" y1="200.13" x2="111.5" y2="0.13" fill="none" stroke="#e0e0e0" stroke-miterlimit="10" stroke-width="0.25"/><line x1="114.5" y1="200.13" x2="114.5" y2="0.13" fill="none" stroke="#e0e0e0" stroke-miterlimit="10" stroke-width="0.25"/><line x1="117.5" y1="200.13" x2="117.5" y2="0.13" fill="none" stroke="#e0e0e0" stroke-miterlimit="10" stroke-width="0.25"/><line x1="120.5" y1="200.13" x2="120.5" y2="0.13" fill="none" stroke="#e0e0e0" stroke-miterlimit="10" stroke-width="0.25"/><line x1="123.5" y1="200.13" x2="123.5" y2="0.13" fill="none" stroke="#e0e0e0" stroke-miterlimit="10" stroke-width="0.25"/><line x1="126.5" y1="200.13" x2="126.5" y2="0.13" fill="none" stroke="#e0e0e0" stroke-miterlimit="10" stroke-width="0.25"/><line x1="129.5" y1="200.13" x2="129.5" y2="0.13" fill="none" stroke="#e0e0e0" stroke-miterlimit="10" stroke-width="0.25"/><line x1="132.5" y1="200.13" x2="132.5" y2="0.13" fill="none" stroke="#e0e0e0" stroke-miterlimit="10" stroke-width="0.25"/><line x1="135.5" y1="200.13" x2="135.5" y2="0.13" fill="none" stroke="#e0e0e0" stroke-miterlimit="10" stroke-width="0.25"/><line x1="138.5" y1="200.13" x2="138.5" y2="0.13" fill="none" stroke="#e0e0e0" stroke-miterlimit="10" stroke-width="0.25"/><line x1="141.5" y1="200.13" x2="141.5" y2="0.13" fill="none" stroke="#e0e0e0" stroke-miterlimit="10" stroke-width="0.25"/><line x1="144.5" y1="200.13" x2="144.5" y2="0.13" fill="none" stroke="#e0e0e0" stroke-miterlimit="10" stroke-width="0.25"/><line x1="147.5" y1="200.13" x2="147.5" y2="0.13" fill="none" stroke="#e0e0e0" stroke-miterlimit="10" stroke-width="0.25"/><line x1="150.5" y1="200.13" x2="150.5" y2="0.13" fill="none" stroke="#e0e0e0" stroke-miterlimit="10" stroke-width="0.25"/><line x1="153.5" y1="200.13" x2="153.5" y2="0.13" fill="none" stroke="#e0e0e0" stroke-miterlimit="10" stroke-width="0.25"/><line x1="156.5" y1="200.13" x2="156.5" y2="0.13" fill="none" stroke="#e0e0e0" stroke-miterlimit="10" stroke-width="0.25"/><line x1="159.5" y1="200.13" x2="159.5" y2="0.13" fill="none" stroke="#e0e0e0" stroke-miterlimit="10" stroke-width="0.25"/><line x1="162.5" y1="200.13" x2="162.5" y2="0.13" fill="none" stroke="#e0e0e0" stroke-miterlimit="10" stroke-width="0.25"/><line x1="165.5" y1="200.13" x2="165.5" y2="0.13" fill="none" stroke="#e0e0e0" stroke-miterlimit="10" stroke-width="0.25"/><line x1="168.5" y1="200.13" x2="168.5" y2="0.13" fill="none" stroke="#e0e0e0" stroke-miterlimit="10" stroke-width="0.25"/><line x1="171.5" y1="200.13" x2="171.5" y2="0.13" fill="none" stroke="#e0e0e0" stroke-miterlimit="10" stroke-width="0.25"/><line x1="174.5" y1="200.13" x2="174.5" y2="0.13" fill="none" stroke="#e0e0e0" stroke-miterlimit="10" stroke-width="0.25"/><line x1="177.5" y1="200.13" x2="177.5" y2="0.13" fill="none" stroke="#e0e0e0" stroke-miterlimit="10" stroke-width="0.25"/><line x1="180.5" y1="200.13" x2="180.5" y2="0.13" fill="none" stroke="#e0e0e0" stroke-miterlimit="10" stroke-width="0.25"/><line x1="183.5" y1="200.13" x2="183.5" y2="0.13" fill="none" stroke="#e0e0e0" stroke-miterlimit="10" stroke-width="0.25"/><line x1="186.5" y1="200.13" x2="186.5" y2="0.13" fill="none" stroke="#e0e0e0" stroke-miterlimit="10" stroke-width="0.25"/><line x1="189.5" y1="200.13" x2="189.5" y2="0.13" fill="none" stroke="#e0e0e0" stroke-miterlimit="10" stroke-width="0.25"/><line x1="192.5" y1="200.13" x2="192.5" y2="0.13" fill="none" stroke="#e0e0e0" stroke-miterlimit="10" stroke-width="0.25"/><line x1="195.5" y1="200.13" x2="195.5" y2="0.13" fill="none" stroke="#e0e0e0" stroke-miterlimit="10" stroke-width="0.25"/><line x1="198.5" y1="200.13" x2="198.5" y2="0.13" fill="none" stroke="#e0e0e0" stroke-miterlimit="10" stroke-width="0.25"/><line x1="201.5" y1="200.13" x2="201.5" y2="0.13" fill="none" stroke="#e0e0e0" stroke-miterlimit="10" stroke-width="0.25"/></g></symbol></defs><title>group-boxes-layout-spacing-zoom</title><use id="Groupbox-3" data-name="Groupbox" width="258" height="87.2" transform="translate(50 50)" xlink:href="#Groupbox"/><g clip-path="url(#clip-path)"><use id="_300_Grid-3" data-name="300%Grid" width="201.63" height="201.25" transform="translate(-0.5 -0.13)" xlink:href="#_300_Grid"/><use id="Groupbox-6" data-name="Groupbox" width="258" height="87.2" transform="translate(9 30.4) scale(3 3)" xlink:href="#Groupbox"/></g><path d="M38.15,67.82a2.25,2.25,0,0,1-.2.95,2.1,2.1,0,0,1-.55.73,2.56,2.56,0,0,1-.86.47,3.48,3.48,0,0,1-1.1.17,3.2,3.2,0,0,1-1.75-.42v-.95a2.81,2.81,0,0,0,1.78.61,2.43,2.43,0,0,0,.73-.1,1.63,1.63,0,0,0,.56-.3,1.3,1.3,0,0,0,.36-.47,1.46,1.46,0,0,0,.13-.62q0-1.51-2.15-1.51h-.64v-.75h.61q1.9,0,1.9-1.42t-1.45-1.31a2.47,2.47,0,0,0-1.53.55v-.85a3.35,3.35,0,0,1,1.75-.44,2.68,2.68,0,0,1,.88.13,2,2,0,0,1,.67.38,1.67,1.67,0,0,1,.43.58,1.8,1.8,0,0,1,.15.75,1.88,1.88,0,0,1-1.54,2v0a2.46,2.46,0,0,1,.73.19,2,2,0,0,1,.57.38,1.74,1.74,0,0,1,.38.56A1.76,1.76,0,0,1,38.15,67.82Z" fill="#ec008c"/><rect x="28" y="61" width="1" height="9" fill="#ec008c"/><rect x="6" y="61" width="26" height="1" fill="#ec008c"/><rect x="6" y="69" width="26" height="1" fill="#ec008c"/><path d="M60,1A59,59,0,1,1,1,60,59.07,59.07,0,0,1,60,1m0-1a60,60,0,1,0,60,60A60,60,0,0,0,60,0Z" fill="#e0e0e0"/><path d="M103.15,81.82a2.25,2.25,0,0,1-.2.95,2.1,2.1,0,0,1-.55.73,2.56,2.56,0,0,1-.86.47,3.48,3.48,0,0,1-1.1.17,3.2,3.2,0,0,1-1.75-.42v-.95a2.81,2.81,0,0,0,1.78.61,2.43,2.43,0,0,0,.73-.1,1.63,1.63,0,0,0,.56-.3,1.3,1.3,0,0,0,.36-.47,1.46,1.46,0,0,0,.13-.62q0-1.51-2.15-1.51h-.64v-.75h.61q1.9,0,1.9-1.42t-1.45-1.31a2.47,2.47,0,0,0-1.53.55v-.85a3.35,3.35,0,0,1,1.75-.44,2.68,2.68,0,0,1,.88.13,2,2,0,0,1,.67.38,1.67,1.67,0,0,1,.43.58,1.8,1.8,0,0,1,.15.75,1.88,1.88,0,0,1-1.54,2v0a2.46,2.46,0,0,1,.73.19,2,2,0,0,1,.57.38,1.74,1.74,0,0,1,.38.56A1.76,1.76,0,0,1,103.15,81.82Z" fill="#ec008c"/><rect x="96" y="65" width="9" height="1" fill="#ec008c"/><rect x="96" y="34" width="1" height="39" fill="#ec008c"/><rect x="104" y="34" width="1" height="39" fill="#ec008c"/></svg>