<svg id="Layer_1" data-name="Layer 1" xmlns="http://www.w3.org/2000/svg" width="300" height="127" viewBox="0 0 300 127"><title>group-boxes-layout-spacing</title><path d="M279,27v79H23V27H279m1-1H22v81H280V26Z" fill="#a9acaf"/><rect x="20" y="25" width="30" height="8" fill="#fff"/><path d="M28.86,23.14h-2.4V30h-1.9V23.14H22.18V21.6h6.68Z" fill="#2b3033"/><path d="M30.75,23.05a1.08,1.08,0,0,1-.77-.28.9.9,0,0,1-.3-.68.86.86,0,0,1,.3-.68,1.25,1.25,0,0,1,1.54,0,.87.87,0,0,1,.3.68.89.89,0,0,1-.3.69A1.1,1.1,0,0,1,30.75,23.05ZM31.66,30H29.81V24h1.85Z" fill="#2b3033"/><path d="M36.85,29.93a2.74,2.74,0,0,1-1.24.22q-2,0-2-2V25.37h-1V24h1V22.71l1.85-.53V24h1.35v1.37H35.5v2.43q0,.94.74.94a1.25,1.25,0,0,0,.6-.17Z" fill="#2b3033"/><path d="M39.74,30H37.89V21.12h1.85Z" fill="#2b3033"/><path d="M46.69,27.53H42.78q.09,1.31,1.65,1.31a3.21,3.21,0,0,0,1.74-.47V29.7a4.57,4.57,0,0,1-2.16.45,2.79,2.79,0,0,1-3.06-3.05,3.21,3.21,0,0,1,.87-2.37,2.89,2.89,0,0,1,2.13-.87,2.62,2.62,0,0,1,2,.78,3,3,0,0,1,.72,2.12ZM45,26.39q0-1.29-1-1.29a1,1,0,0,0-.77.37,1.68,1.68,0,0,0-.4.92Z" fill="#2b3033"/><path d="M8.12,32.49a2.25,2.25,0,0,1-.2.95,2.1,2.1,0,0,1-.55.73,2.55,2.55,0,0,1-.86.47,3.47,3.47,0,0,1-1.1.17,3.2,3.2,0,0,1-1.75-.42v-.95a2.81,2.81,0,0,0,1.78.61,2.43,2.43,0,0,0,.73-.1,1.64,1.64,0,0,0,.56-.3,1.31,1.31,0,0,0,.36-.47,1.45,1.45,0,0,0,.13-.62q0-1.51-2.15-1.51H4.43v-.75H5q1.9,0,1.9-1.42T5.49,27.59A2.47,2.47,0,0,0,4,28.13v-.85a3.35,3.35,0,0,1,1.75-.44,2.69,2.69,0,0,1,.88.13,2,2,0,0,1,.67.38,1.67,1.67,0,0,1,.43.58,1.8,1.8,0,0,1,.15.75,1.88,1.88,0,0,1-1.54,2v0a2.45,2.45,0,0,1,.73.19,1.93,1.93,0,0,1,.57.38,1.7,1.7,0,0,1,.38.56A1.76,1.76,0,0,1,8.12,32.49Z" fill="#ec008c"/><rect x="23.5" y="111" width="9" height="1" fill="#ec008c"/><rect x="32" y="71" width="1" height="44" fill="#ec008c"/><rect x="23" y="81" width="1" height="34" fill="#ec008c"/><rect x="62" y="96.5" width="1" height="9" fill="#ec008c"/><rect x="40" y="96" width="26" height="1" fill="#ec008c"/><rect x="40" y="105" width="26" height="1" fill="#ec008c"/><path d="M26,125h-.88v-6.65a2.07,2.07,0,0,1-.3.23,4.94,4.94,0,0,1-.44.26l-.52.24a3.74,3.74,0,0,1-.53.18v-.89a5.22,5.22,0,0,0,.62-.22c.22-.09.43-.19.64-.31s.41-.23.59-.35a4.57,4.57,0,0,0,.48-.36H26Z" fill="#ec008c"/><path d="M33.48,121.12a7.57,7.57,0,0,1-.17,1.71,4,4,0,0,1-.5,1.26,2.26,2.26,0,0,1-.81.78,2.22,2.22,0,0,1-1.09.27,2.07,2.07,0,0,1-1-.26,2.17,2.17,0,0,1-.77-.74,3.76,3.76,0,0,1-.47-1.2,7.42,7.42,0,0,1-.16-1.63,8.43,8.43,0,0,1,.17-1.78,4.08,4.08,0,0,1,.5-1.3,2.21,2.21,0,0,1,.81-.79,2.29,2.29,0,0,1,1.12-.27Q33.48,117.17,33.48,121.12Zm-.9.09q0-3.29-1.56-3.29t-1.65,3.35q0,3.12,1.62,3.12T32.58,121.2Z" fill="#ec008c"/><path d="M71,105h-.88V98.35a2.07,2.07,0,0,1-.3.23,4.94,4.94,0,0,1-.44.26l-.52.24a3.74,3.74,0,0,1-.53.18v-.89a5.22,5.22,0,0,0,.62-.22c.22-.09.43-.19.64-.31s.41-.23.59-.35a4.57,4.57,0,0,0,.48-.36H71Z" fill="#ec008c"/><path d="M78.48,101.12a7.57,7.57,0,0,1-.17,1.71,4,4,0,0,1-.5,1.26,2.26,2.26,0,0,1-.81.78,2.22,2.22,0,0,1-1.09.27,2.07,2.07,0,0,1-1-.26,2.17,2.17,0,0,1-.77-.74,3.76,3.76,0,0,1-.47-1.2,7.42,7.42,0,0,1-.16-1.63,8.43,8.43,0,0,1,.17-1.78,4.08,4.08,0,0,1,.5-1.3,2.21,2.21,0,0,1,.81-.79,2.29,2.29,0,0,1,1.12-.27Q78.48,97.17,78.48,101.12Zm-.9.09q0-3.29-1.56-3.29t-1.65,3.35q0,3.12,1.62,3.12T77.58,101.2Z" fill="#ec008c"/><rect x="47" y="23" width="2.5" height="1" fill="#ec008c"/><rect x="49" y="14" width="1" height="13" fill="#ec008c"/><rect x="47" y="14" width="1" height="13" fill="#ec008c"/><path d="M51.08,9.82a2.25,2.25,0,0,1-.2.95,2.1,2.1,0,0,1-.55.73,2.55,2.55,0,0,1-.86.47,3.47,3.47,0,0,1-1.1.17,3.2,3.2,0,0,1-1.75-.42v-.95a2.81,2.81,0,0,0,1.78.61,2.43,2.43,0,0,0,.73-.1,1.63,1.63,0,0,0,.56-.3,1.31,1.31,0,0,0,.36-.47,1.46,1.46,0,0,0,.13-.62q0-1.51-2.15-1.51h-.64V7.64H48q1.9,0,1.9-1.42T48.45,4.92a2.47,2.47,0,0,0-1.53.55V4.61a3.35,3.35,0,0,1,1.75-.44,2.69,2.69,0,0,1,.88.13,2,2,0,0,1,.67.38,1.67,1.67,0,0,1,.43.58A1.8,1.8,0,0,1,50.8,6a1.88,1.88,0,0,1-1.54,2V8a2.44,2.44,0,0,1,.73.19,2,2,0,0,1,.58.38,1.72,1.72,0,0,1,.38.56A1.76,1.76,0,0,1,51.08,9.82Z" fill="#ec008c"/><rect x="19" y="30.5" width="1" height="2.5" fill="#ec008c"/><rect x="10" y="30" width="16" height="1" fill="#ec008c"/><rect x="10" y="32" width="13" height="1" fill="#ec008c"/><path d="M51.21,49.8V48.64a2.25,2.25,0,0,0,.48.32,3.87,3.87,0,0,0,.59.24,4.66,4.66,0,0,0,.62.15,3.45,3.45,0,0,0,.57.05,2.25,2.25,0,0,0,1.36-.34,1.26,1.26,0,0,0,.3-1.56,1.68,1.68,0,0,0-.41-.46,4.1,4.1,0,0,0-.62-.4l-.78-.4q-.44-.22-.82-.45a3.55,3.55,0,0,1-.66-.5,2.1,2.1,0,0,1-.44-.62,2.13,2.13,0,0,1,.09-1.82,2.16,2.16,0,0,1,.66-.7,3,3,0,0,1,.93-.41,4.28,4.28,0,0,1,1.07-.13,4.1,4.1,0,0,1,1.81.3V43A3.28,3.28,0,0,0,54,42.49a3.14,3.14,0,0,0-.64.07,1.82,1.82,0,0,0-.57.22,1.27,1.27,0,0,0-.41.39,1,1,0,0,0-.16.59,1.21,1.21,0,0,0,.12.56,1.36,1.36,0,0,0,.35.43,3.53,3.53,0,0,0,.57.38l.78.4q.45.22.86.47a3.91,3.91,0,0,1,.71.54,2.42,2.42,0,0,1,.48.66,1.86,1.86,0,0,1,.18.83,2.11,2.11,0,0,1-.24,1.05,2,2,0,0,1-.66.7,2.87,2.87,0,0,1-1,.39,5.21,5.21,0,0,1-1.14.12l-.49,0-.6-.09a4.88,4.88,0,0,1-.58-.15A1.8,1.8,0,0,1,51.21,49.8Z" fill="#2b3033"/><path d="M62.83,50.14h-1V46.68q0-1.87-1.39-1.87a1.52,1.52,0,0,0-1.18.54,2,2,0,0,0-.48,1.39v3.4h-1V41.26h1v3.88h0a2.18,2.18,0,0,1,2-1.14q2,0,2,2.44Z" fill="#2b3033"/><path d="M67.15,50.28A2.78,2.78,0,0,1,65,49.44a3.11,3.11,0,0,1-.79-2.23,3.24,3.24,0,0,1,.83-2.36A3,3,0,0,1,67.29,44a2.69,2.69,0,0,1,2.09.83,3.28,3.28,0,0,1,.75,2.29,3.22,3.22,0,0,1-.81,2.3A2.84,2.84,0,0,1,67.15,50.28Zm.07-5.47a1.83,1.83,0,0,0-1.46.63,2.59,2.59,0,0,0-.54,1.74,2.45,2.45,0,0,0,.54,1.68,1.85,1.85,0,0,0,1.46.62,1.76,1.76,0,0,0,1.43-.6,2.62,2.62,0,0,0,.5-1.72,2.66,2.66,0,0,0-.5-1.73A1.75,1.75,0,0,0,67.22,44.81Z" fill="#2b3033"/><path d="M79.23,44.14l-1.8,6h-1L75.2,45.84a2.8,2.8,0,0,1-.09-.56h0a2.63,2.63,0,0,1-.12.54l-1.34,4.31h-1l-1.82-6h1l1.24,4.51a2.72,2.72,0,0,1,.08.54h0a2.52,2.52,0,0,1,.11-.55l1.38-4.5h.88l1.24,4.52a3.23,3.23,0,0,1,.09.54h0a2.49,2.49,0,0,1,.1-.54l1.22-4.52Z" fill="#2b3033"/><path d="M84.59,50.14h-1V41.26h1Z" fill="#2b3033"/><path d="M90.83,50.14h-1V49.2h0A2,2,0,0,1,88,50.28a2,2,0,0,1-1.4-.47,1.64,1.64,0,0,1-.51-1.26q0-1.68,2-2l1.8-.25q0-1.53-1.24-1.53a3,3,0,0,0-2,.74v-1a3.72,3.72,0,0,1,2-.56q2.12,0,2.12,2.24Zm-1-3-1.45.2a2.35,2.35,0,0,0-1,.33,1,1,0,0,0-.34.84.92.92,0,0,0,.31.72,1.21,1.21,0,0,0,.83.28A1.54,1.54,0,0,0,89.4,49a1.79,1.79,0,0,0,.47-1.27Z" fill="#2b3033"/><path d="M93.63,49.27h0v.87h-1V41.26h1v3.94h0A2.27,2.27,0,0,1,95.7,44a2.2,2.2,0,0,1,1.81.81A3.33,3.33,0,0,1,98.16,47a3.72,3.72,0,0,1-.73,2.41,2.44,2.44,0,0,1-2,.91A2,2,0,0,1,93.63,49.27Zm0-2.42v.84A1.78,1.78,0,0,0,94.09,49a1.72,1.72,0,0,0,2.6-.15,3.06,3.06,0,0,0,.5-1.86,2.42,2.42,0,0,0-.46-1.57,1.53,1.53,0,0,0-1.25-.57,1.7,1.7,0,0,0-1.35.58A2.14,2.14,0,0,0,93.6,46.85Z" fill="#2b3033"/><path d="M104.52,47.38h-4.24a2.24,2.24,0,0,0,.54,1.55,1.86,1.86,0,0,0,1.42.54,3,3,0,0,0,1.86-.67v.9a3.48,3.48,0,0,1-2.09.57,2.54,2.54,0,0,1-2-.82,3.35,3.35,0,0,1-.73-2.3,3.28,3.28,0,0,1,.79-2.28,2.55,2.55,0,0,1,2-.88,2.26,2.26,0,0,1,1.82.76,3.18,3.18,0,0,1,.64,2.12Zm-1-.81a2,2,0,0,0-.4-1.29,1.37,1.37,0,0,0-1.1-.46,1.55,1.55,0,0,0-1.15.49,2.21,2.21,0,0,0-.59,1.27Z" fill="#2b3033"/><path d="M106.93,50.14h-1V41.26h1Z" fill="#2b3033"/><path d="M51.21,93.8V92.64a2.25,2.25,0,0,0,.48.32,3.87,3.87,0,0,0,.59.24,4.66,4.66,0,0,0,.62.15,3.45,3.45,0,0,0,.57.05,2.25,2.25,0,0,0,1.36-.34,1.26,1.26,0,0,0,.3-1.56,1.68,1.68,0,0,0-.41-.46,4.1,4.1,0,0,0-.62-.4l-.78-.4q-.44-.22-.82-.45a3.55,3.55,0,0,1-.66-.5,2.1,2.1,0,0,1-.44-.62,2.13,2.13,0,0,1,.09-1.82,2.16,2.16,0,0,1,.66-.7,3,3,0,0,1,.93-.41,4.28,4.28,0,0,1,1.07-.13,4.1,4.1,0,0,1,1.81.3V87A3.28,3.28,0,0,0,54,86.49a3.14,3.14,0,0,0-.64.07,1.82,1.82,0,0,0-.57.22,1.27,1.27,0,0,0-.41.39,1,1,0,0,0-.16.59,1.21,1.21,0,0,0,.12.56,1.36,1.36,0,0,0,.35.43,3.53,3.53,0,0,0,.57.38l.78.4q.45.22.86.47a3.91,3.91,0,0,1,.71.54,2.42,2.42,0,0,1,.48.66,1.86,1.86,0,0,1,.18.83,2.11,2.11,0,0,1-.24,1.05,2,2,0,0,1-.66.7,2.87,2.87,0,0,1-1,.39,5.21,5.21,0,0,1-1.14.12l-.49,0-.6-.09a4.88,4.88,0,0,1-.58-.15A1.8,1.8,0,0,1,51.21,93.8Z" fill="#2b3033"/><path d="M62.83,94.14h-1V90.68q0-1.87-1.39-1.87a1.52,1.52,0,0,0-1.18.54,2,2,0,0,0-.48,1.39v3.4h-1V85.26h1v3.88h0a2.18,2.18,0,0,1,2-1.14q2,0,2,2.44Z" fill="#2b3033"/><path d="M67.15,94.28A2.78,2.78,0,0,1,65,93.44a3.11,3.11,0,0,1-.79-2.23,3.24,3.24,0,0,1,.83-2.36A3,3,0,0,1,67.29,88a2.69,2.69,0,0,1,2.09.83,3.28,3.28,0,0,1,.75,2.29,3.22,3.22,0,0,1-.81,2.3A2.84,2.84,0,0,1,67.15,94.28Zm.07-5.47a1.83,1.83,0,0,0-1.46.63,2.59,2.59,0,0,0-.54,1.74,2.45,2.45,0,0,0,.54,1.68,1.85,1.85,0,0,0,1.46.62,1.76,1.76,0,0,0,1.43-.6,2.62,2.62,0,0,0,.5-1.72,2.66,2.66,0,0,0-.5-1.73A1.75,1.75,0,0,0,67.22,88.81Z" fill="#2b3033"/><path d="M79.23,88.14l-1.8,6h-1L75.2,89.84a2.8,2.8,0,0,1-.09-.56h0a2.63,2.63,0,0,1-.12.54l-1.34,4.31h-1l-1.82-6h1l1.24,4.51a2.72,2.72,0,0,1,.08.54h0a2.52,2.52,0,0,1,.11-.55l1.38-4.5h.88l1.24,4.52a3.23,3.23,0,0,1,.09.54h0a2.49,2.49,0,0,1,.1-.54l1.22-4.52Z" fill="#2b3033"/><path d="M84.59,94.14h-1V85.26h1Z" fill="#2b3033"/><path d="M90.83,94.14h-1V93.2h0A2,2,0,0,1,88,94.28a2,2,0,0,1-1.4-.47,1.64,1.64,0,0,1-.51-1.26q0-1.68,2-2l1.8-.25q0-1.53-1.24-1.53a3,3,0,0,0-2,.74v-1a3.72,3.72,0,0,1,2-.56q2.12,0,2.12,2.24Zm-1-3-1.45.2a2.35,2.35,0,0,0-1,.33,1,1,0,0,0-.34.84.92.92,0,0,0,.31.72,1.21,1.21,0,0,0,.83.28A1.54,1.54,0,0,0,89.4,93a1.79,1.79,0,0,0,.47-1.27Z" fill="#2b3033"/><path d="M93.63,93.27h0v.87h-1V85.26h1v3.94h0A2.27,2.27,0,0,1,95.7,88a2.2,2.2,0,0,1,1.81.81A3.33,3.33,0,0,1,98.16,91a3.72,3.72,0,0,1-.73,2.41,2.44,2.44,0,0,1-2,.91A2,2,0,0,1,93.63,93.27Zm0-2.42v.84A1.78,1.78,0,0,0,94.09,93a1.72,1.72,0,0,0,2.6-.15,3.06,3.06,0,0,0,.5-1.86,2.42,2.42,0,0,0-.46-1.57,1.53,1.53,0,0,0-1.25-.57,1.7,1.7,0,0,0-1.35.58A2.14,2.14,0,0,0,93.6,90.85Z" fill="#2b3033"/><path d="M104.52,91.38h-4.24a2.24,2.24,0,0,0,.54,1.55,1.86,1.86,0,0,0,1.42.54,3,3,0,0,0,1.86-.67v.9a3.48,3.48,0,0,1-2.09.57,2.54,2.54,0,0,1-2-.82,3.35,3.35,0,0,1-.73-2.3,3.28,3.28,0,0,1,.79-2.28,2.55,2.55,0,0,1,2-.88,2.26,2.26,0,0,1,1.82.76,3.18,3.18,0,0,1,.64,2.12Zm-1-.81a2,2,0,0,0-.4-1.29,1.37,1.37,0,0,0-1.1-.46,1.55,1.55,0,0,0-1.15.49,2.21,2.21,0,0,0-.59,1.27Z" fill="#2b3033"/><path d="M106.93,94.14h-1V85.26h1Z" fill="#2b3033"/><rect x="34" y="85" width="10" height="10" fill="#fff"/><path d="M33,84V96H45V84ZM44,95H34V85H44Z" fill="#575757"/><path d="M51.21,71.8V70.64a2.25,2.25,0,0,0,.48.32,3.87,3.87,0,0,0,.59.24,4.66,4.66,0,0,0,.62.15,3.45,3.45,0,0,0,.57.05,2.25,2.25,0,0,0,1.36-.34,1.26,1.26,0,0,0,.3-1.56,1.68,1.68,0,0,0-.41-.46,4.1,4.1,0,0,0-.62-.4l-.78-.4q-.44-.22-.82-.45a3.55,3.55,0,0,1-.66-.5,2.1,2.1,0,0,1-.44-.62,2.13,2.13,0,0,1,.09-1.82,2.16,2.16,0,0,1,.66-.7,3,3,0,0,1,.93-.41,4.28,4.28,0,0,1,1.07-.13,4.1,4.1,0,0,1,1.81.3V65A3.28,3.28,0,0,0,54,64.49a3.14,3.14,0,0,0-.64.07,1.82,1.82,0,0,0-.57.22,1.27,1.27,0,0,0-.41.39,1,1,0,0,0-.16.59,1.21,1.21,0,0,0,.12.56,1.36,1.36,0,0,0,.35.43,3.53,3.53,0,0,0,.57.38l.78.4q.45.22.86.47a3.91,3.91,0,0,1,.71.54,2.42,2.42,0,0,1,.48.66,1.86,1.86,0,0,1,.18.83,2.11,2.11,0,0,1-.24,1.05,2,2,0,0,1-.66.7,2.87,2.87,0,0,1-1,.39,5.21,5.21,0,0,1-1.14.12l-.49,0-.6-.09a4.88,4.88,0,0,1-.58-.15A1.8,1.8,0,0,1,51.21,71.8Z" fill="#2b3033"/><path d="M62.83,72.14h-1V68.68q0-1.87-1.39-1.87a1.52,1.52,0,0,0-1.18.54,2,2,0,0,0-.48,1.39v3.4h-1V63.26h1v3.88h0a2.18,2.18,0,0,1,2-1.14q2,0,2,2.44Z" fill="#2b3033"/><path d="M67.15,72.28A2.78,2.78,0,0,1,65,71.44a3.11,3.11,0,0,1-.79-2.23,3.24,3.24,0,0,1,.83-2.36A3,3,0,0,1,67.29,66a2.69,2.69,0,0,1,2.09.83,3.28,3.28,0,0,1,.75,2.29,3.22,3.22,0,0,1-.81,2.3A2.84,2.84,0,0,1,67.15,72.28Zm.07-5.47a1.83,1.83,0,0,0-1.46.63,2.59,2.59,0,0,0-.54,1.74,2.45,2.45,0,0,0,.54,1.68,1.85,1.85,0,0,0,1.46.62,1.76,1.76,0,0,0,1.43-.6,2.62,2.62,0,0,0,.5-1.72,2.66,2.66,0,0,0-.5-1.73A1.75,1.75,0,0,0,67.22,66.81Z" fill="#2b3033"/><path d="M79.23,66.14l-1.8,6h-1L75.2,67.84a2.8,2.8,0,0,1-.09-.56h0a2.63,2.63,0,0,1-.12.54l-1.34,4.31h-1l-1.82-6h1l1.24,4.51a2.72,2.72,0,0,1,.08.54h0a2.52,2.52,0,0,1,.11-.55l1.38-4.5h.88l1.24,4.52a3.23,3.23,0,0,1,.09.54h0a2.49,2.49,0,0,1,.1-.54l1.22-4.52Z" fill="#2b3033"/><path d="M84.59,72.14h-1V63.26h1Z" fill="#2b3033"/><path d="M90.83,72.14h-1V71.2h0A2,2,0,0,1,88,72.28a2,2,0,0,1-1.4-.47,1.64,1.64,0,0,1-.51-1.26q0-1.68,2-2l1.8-.25q0-1.53-1.24-1.53a3,3,0,0,0-2,.74v-1a3.72,3.72,0,0,1,2-.56q2.12,0,2.12,2.24Zm-1-3-1.45.2a2.35,2.35,0,0,0-1,.33,1,1,0,0,0-.34.84.92.92,0,0,0,.31.72,1.21,1.21,0,0,0,.83.28A1.54,1.54,0,0,0,89.4,71a1.79,1.79,0,0,0,.47-1.27Z" fill="#2b3033"/><path d="M93.63,71.27h0v.87h-1V63.26h1v3.94h0A2.27,2.27,0,0,1,95.7,66a2.2,2.2,0,0,1,1.81.81A3.33,3.33,0,0,1,98.16,69a3.72,3.72,0,0,1-.73,2.41,2.44,2.44,0,0,1-2,.91A2,2,0,0,1,93.63,71.27Zm0-2.42v.84A1.78,1.78,0,0,0,94.09,71a1.72,1.72,0,0,0,2.6-.15,3.06,3.06,0,0,0,.5-1.86,2.42,2.42,0,0,0-.46-1.57,1.53,1.53,0,0,0-1.25-.57,1.7,1.7,0,0,0-1.35.58A2.14,2.14,0,0,0,93.6,68.85Z" fill="#2b3033"/><path d="M104.52,69.38h-4.24a2.24,2.24,0,0,0,.54,1.55,1.86,1.86,0,0,0,1.42.54,3,3,0,0,0,1.86-.67v.9a3.48,3.48,0,0,1-2.09.57,2.54,2.54,0,0,1-2-.82,3.35,3.35,0,0,1-.73-2.3,3.28,3.28,0,0,1,.79-2.28,2.55,2.55,0,0,1,2-.88,2.26,2.26,0,0,1,1.82.76,3.18,3.18,0,0,1,.64,2.12Zm-1-.81a2,2,0,0,0-.4-1.29,1.37,1.37,0,0,0-1.1-.46,1.55,1.55,0,0,0-1.15.49,2.21,2.21,0,0,0-.59,1.27Z" fill="#2b3033"/><path d="M106.93,72.14h-1V63.26h1Z" fill="#2b3033"/><rect x="34" y="63" width="10" height="10" fill="#fff"/><path d="M33,62V74H45V62ZM44,73H34V63H44Z" fill="#575757"/><path d="M33,40V52H45V40Z" fill="#4384b7"/><polygon points="41.83 41.81 38.17 47.63 36.01 46.03 35.17 47.38 38.53 50.04 43.17 42.65 41.83 41.81" fill="#fff"/><path d="M33,40V52H45V40ZM44,51H34V41H44Z" fill="#575757"/></svg>