<svg id="Layer_1" data-name="Layer 1" xmlns="http://www.w3.org/2000/svg" width="158" height="24" viewBox="0 0 158 24"><title>text-boxes-read-only-normal</title><rect x="0.5" y="0.5" width="157" height="23" fill="#e8ebed"/><path d="M157,1V23H1V1H157m1-1H0V24H158V0Z" fill="#a8abae"/><path d="M15.67,16.14h-1V10.5q0-.67.08-1.63h0a5.23,5.23,0,0,1-.25.81l-2.87,6.46h-.48L8.28,9.73A5,5,0,0,1,8,8.87H8q0,.5,0,1.65v5.63H7.1V7.74H8.4L11,13.6a7.5,7.5,0,0,1,.39,1h0q.25-.69.4-1l2.63-5.84h1.23Z" fill="#2b3033"/><path d="M22.52,10.14l-2.76,7Q19,19,17.69,19a2.2,2.2,0,0,1-.63-.08V18a1.78,1.78,0,0,0,.57.11,1.18,1.18,0,0,0,1.09-.87l.48-1.14-2.34-6h1.07l1.62,4.62q0,.09.12.46h0q0-.14.12-.45l1.71-4.63Z" fill="#2b3033"/><path d="M30.19,16.14H29.1l-.89-2.36H24.64l-.84,2.36h-1.1l3.22-8.4h1Zm-2.3-3.24L26.57,9.32a3.43,3.43,0,0,1-.13-.56h0a3.14,3.14,0,0,1-.13.56L25,12.9Z" fill="#2b3033"/><path d="M32.28,15.27h0V18.9h-1V10.14h1v1.05h0A2.27,2.27,0,0,1,34.35,10a2.2,2.2,0,0,1,1.81.81A3.34,3.34,0,0,1,36.81,13a3.72,3.72,0,0,1-.73,2.41,2.44,2.44,0,0,1-2,.91A2,2,0,0,1,32.28,15.27Zm0-2.42v.84A1.78,1.78,0,0,0,32.74,15a1.72,1.72,0,0,0,2.6-.15,3.06,3.06,0,0,0,.5-1.86,2.42,2.42,0,0,0-.46-1.57,1.53,1.53,0,0,0-1.25-.57,1.7,1.7,0,0,0-1.35.58A2.14,2.14,0,0,0,32.26,12.85Z" fill="#2b3033"/><path d="M39.33,15.27h0V18.9h-1V10.14h1v1.05h0A2.27,2.27,0,0,1,41.41,10a2.2,2.2,0,0,1,1.81.81A3.34,3.34,0,0,1,43.87,13a3.72,3.72,0,0,1-.73,2.41,2.44,2.44,0,0,1-2,.91A2,2,0,0,1,39.33,15.27Zm0-2.42v.84A1.78,1.78,0,0,0,39.79,15a1.72,1.72,0,0,0,2.6-.15,3.06,3.06,0,0,0,.5-1.86,2.42,2.42,0,0,0-.46-1.57,1.53,1.53,0,0,0-1.25-.57,1.7,1.7,0,0,0-1.35.58A2.14,2.14,0,0,0,39.31,12.85Z" fill="#2b3033"/><path d="M46.37,16.14h-1V7.26h1Z" fill="#2b3033"/><path d="M48.8,8.62a.61.61,0,0,1-.44-.18A.59.59,0,0,1,48.18,8a.62.62,0,0,1,.62-.63.62.62,0,0,1,.45.18.63.63,0,0,1,0,.89A.62.62,0,0,1,48.8,8.62Zm.47,7.52h-1v-6h1Z" fill="#2b3033"/><path d="M55.31,15.86a3.12,3.12,0,0,1-1.64.42,2.72,2.72,0,0,1-2.07-.83,3,3,0,0,1-.79-2.17,3.33,3.33,0,0,1,.85-2.38,3,3,0,0,1,2.27-.9,3.16,3.16,0,0,1,1.39.29v1a2.44,2.44,0,0,0-1.43-.47,1.93,1.93,0,0,0-1.51.66,2.5,2.5,0,0,0-.59,1.73,2.38,2.38,0,0,0,.55,1.66,1.91,1.91,0,0,0,1.49.61,2.41,2.41,0,0,0,1.48-.52Z" fill="#2b3033"/><path d="M61.05,16.14h-1V15.2h0a2,2,0,0,1-1.85,1.08,2,2,0,0,1-1.4-.47,1.64,1.64,0,0,1-.51-1.26q0-1.68,2-2l1.8-.25q0-1.53-1.24-1.53a3,3,0,0,0-2,.74v-1a3.72,3.72,0,0,1,2-.56q2.12,0,2.12,2.24Zm-1-3-1.45.2a2.35,2.35,0,0,0-1,.33,1,1,0,0,0-.34.84.92.92,0,0,0,.31.72,1.21,1.21,0,0,0,.83.28,1.54,1.54,0,0,0,1.18-.5,1.79,1.79,0,0,0,.47-1.27Z" fill="#2b3033"/><path d="M65.65,16.08a1.85,1.85,0,0,1-.9.19q-1.58,0-1.58-1.76V11h-1v-.82h1V8.67l1-.31v1.78h1.51V11H64.14v3.38a1.4,1.4,0,0,0,.21.86.82.82,0,0,0,.68.26,1,1,0,0,0,.63-.2Z" fill="#2b3033"/><path d="M67.42,8.62A.61.61,0,0,1,67,8.44.59.59,0,0,1,66.8,8a.62.62,0,0,1,.62-.63.62.62,0,0,1,.45.18.63.63,0,0,1,0,.89A.62.62,0,0,1,67.42,8.62Zm.47,7.52h-1v-6h1Z" fill="#2b3033"/><path d="M72.35,16.28a2.78,2.78,0,0,1-2.12-.84,3.11,3.11,0,0,1-.79-2.23,3.24,3.24,0,0,1,.83-2.36A3,3,0,0,1,72.49,10a2.69,2.69,0,0,1,2.09.83,3.28,3.28,0,0,1,.75,2.29,3.22,3.22,0,0,1-.81,2.3A2.84,2.84,0,0,1,72.35,16.28Zm.07-5.47a1.83,1.83,0,0,0-1.46.63,2.59,2.59,0,0,0-.54,1.74A2.45,2.45,0,0,0,71,14.86a1.85,1.85,0,0,0,1.46.62,1.76,1.76,0,0,0,1.43-.6,2.62,2.62,0,0,0,.5-1.72,2.66,2.66,0,0,0-.5-1.73A1.75,1.75,0,0,0,72.42,10.81Z" fill="#2b3033"/><path d="M81.85,16.14h-1V12.72q0-1.91-1.39-1.91a1.51,1.51,0,0,0-1.19.54,2,2,0,0,0-.47,1.37v3.42h-1v-6h1v1h0a2.17,2.17,0,0,1,2-1.14,1.84,1.84,0,0,1,1.51.64,2.83,2.83,0,0,1,.52,1.84Z" fill="#2b3033"/><path d="M92.36,16.14h-1V10.5q0-.67.08-1.63h0a5.23,5.23,0,0,1-.25.81l-2.87,6.46h-.48L85,9.73a5,5,0,0,1-.25-.86h0q0,.5,0,1.65v5.63h-.95V7.74h1.3l2.58,5.86a7.5,7.5,0,0,1,.39,1h0q.25-.69.4-1l2.63-5.84h1.23Z" fill="#2b3033"/><path d="M99.26,13.38H95a2.24,2.24,0,0,0,.54,1.55,1.86,1.86,0,0,0,1.42.54,3,3,0,0,0,1.86-.67v.9a3.48,3.48,0,0,1-2.09.57,2.54,2.54,0,0,1-2-.82,3.35,3.35,0,0,1-.73-2.3,3.28,3.28,0,0,1,.79-2.28,2.55,2.55,0,0,1,2-.88,2.26,2.26,0,0,1,1.82.76,3.18,3.18,0,0,1,.64,2.12Zm-1-.81a2,2,0,0,0-.4-1.29,1.37,1.37,0,0,0-1.1-.46,1.55,1.55,0,0,0-1.15.49A2.21,2.21,0,0,0,95,12.56Z" fill="#2b3033"/><path d="M105.69,16.14h-1V12.72q0-1.91-1.39-1.91a1.51,1.51,0,0,0-1.19.54,2,2,0,0,0-.47,1.37v3.42h-1v-6h1v1h0a2.17,2.17,0,0,1,2-1.14,1.84,1.84,0,0,1,1.51.64,2.83,2.83,0,0,1,.52,1.84Z" fill="#2b3033"/><path d="M112.35,16.14h-1v-.95h0a2,2,0,0,1-1.85,1.09q-2.14,0-2.14-2.55V10.14h1v3.43q0,1.9,1.45,1.9a1.47,1.47,0,0,0,1.16-.52,2,2,0,0,0,.45-1.36V10.14h1Z" fill="#2b3033"/><path d="M114.63,16.27a.62.62,0,0,1-.46-.19.64.64,0,0,1-.19-.46.65.65,0,0,1,.19-.47.62.62,0,0,1,.46-.2.63.63,0,0,1,.47.2.64.64,0,0,1,.19.47.63.63,0,0,1-.19.46A.64.64,0,0,1,114.63,16.27Z" fill="#2b3033"/><path d="M122,15.66q0,3.3-3.16,3.3a4.25,4.25,0,0,1-1.95-.42v-1a4,4,0,0,0,1.93.56q2.21,0,2.21-2.36v-.66h0a2.43,2.43,0,0,1-3.86.35,3.2,3.2,0,0,1-.68-2.15,3.74,3.74,0,0,1,.74-2.43,2.46,2.46,0,0,1,2-.9,2,2,0,0,1,1.8,1h0v-.83h1Zm-1-2.23v-.88a1.72,1.72,0,0,0-.48-1.22,1.59,1.59,0,0,0-1.2-.51,1.67,1.67,0,0,0-1.39.65,2.89,2.89,0,0,0-.5,1.81,2.48,2.48,0,0,0,.48,1.6,1.56,1.56,0,0,0,1.28.6,1.67,1.67,0,0,0,1.32-.57A2.14,2.14,0,0,0,121.05,13.43Z" fill="#2b3033"/><path d="M126.74,16.08a1.85,1.85,0,0,1-.9.19q-1.58,0-1.58-1.76V11h-1v-.82h1V8.67l1-.31v1.78h1.51V11h-1.51v3.38a1.4,1.4,0,0,0,.21.86.82.82,0,0,0,.68.26,1,1,0,0,0,.63-.2Z" fill="#2b3033"/><path d="M131.16,11.11a1.18,1.18,0,0,0-.73-.19,1.23,1.23,0,0,0-1,.58,2.68,2.68,0,0,0-.41,1.58v3.06h-1v-6h1v1.24h0a2.1,2.1,0,0,1,.63-1,1.43,1.43,0,0,1,.94-.35,1.57,1.57,0,0,1,.57.08Z" fill="#2b3033"/><path d="M140.7,16.14h-1V12.69a2.6,2.6,0,0,0-.31-1.44,1.17,1.17,0,0,0-1-.45,1.28,1.28,0,0,0-1,.56,2.15,2.15,0,0,0-.43,1.35v3.42h-1V12.58q0-1.77-1.37-1.77a1.26,1.26,0,0,0-1,.53,2.19,2.19,0,0,0-.41,1.38v3.42h-1v-6h1v.95h0A2,2,0,0,1,135,10a1.73,1.73,0,0,1,1.7,1.24,2.14,2.14,0,0,1,2-1.24q2,0,2,2.44Z" fill="#2b3033"/></svg>