<svg xmlns="http://www.w3.org/2000/svg" xmlns:xlink="http://www.w3.org/1999/xlink" width="760" height="124" viewBox="0 0 760 124"><defs><clipPath id="clip-path"><path d="M661,11.57V132H80l.22-120.5a8.65,8.65,0,0,1,4.84,1.76A39.9,39.9,0,0,1,89.9,17.5a39.28,39.28,0,0,0,4.84,4.25,7.57,7.57,0,0,0,9.68,0,40.67,40.67,0,0,0,4.84-4.24,39.16,39.16,0,0,1,4.84-4.24,7.54,7.54,0,0,1,9.68,0,40.67,40.67,0,0,1,4.84,4.24,39.28,39.28,0,0,0,4.84,4.25,7.55,7.55,0,0,0,9.67,0A40,40,0,0,0,148,17.52a39.16,39.16,0,0,1,4.84-4.24,7.54,7.54,0,0,1,9.68,0,39.84,39.84,0,0,1,4.83,4.24,41.72,41.72,0,0,0,4.84,4.25,7.57,7.57,0,0,0,9.68,0,39.16,39.16,0,0,0,4.84-4.24,40.67,40.67,0,0,1,4.84-4.24,7.54,7.54,0,0,1,9.68,0,39.16,39.16,0,0,1,4.84,4.24,41.72,41.72,0,0,0,4.84,4.25,7.57,7.57,0,0,0,9.68,0,39.9,39.9,0,0,0,4.84-4.24,40.67,40.67,0,0,1,4.84-4.24,7.53,7.53,0,0,1,9.68,0,39.16,39.16,0,0,1,4.84,4.24,40.91,40.91,0,0,0,4.84,4.25,7.57,7.57,0,0,0,9.68,0,39.9,39.9,0,0,0,4.84-4.24A39.9,39.9,0,0,1,269,13.31a7.53,7.53,0,0,1,9.68,0,39.9,39.9,0,0,1,4.84,4.24,40.13,40.13,0,0,0,4.84,4.25,7.57,7.57,0,0,0,9.68,0,40.67,40.67,0,0,0,4.84-4.24,40.91,40.91,0,0,1,4.84-4.25,7.55,7.55,0,0,1,9.68,0,40.67,40.67,0,0,1,4.84,4.24,39.16,39.16,0,0,0,4.84,4.24,8.55,8.55,0,0,0,4.84,1.76,8.66,8.66,0,0,0,4.84-1.75,40.67,40.67,0,0,0,4.84-4.24,39.28,39.28,0,0,1,4.84-4.25,7.55,7.55,0,0,1,9.68,0,40.67,40.67,0,0,1,4.84,4.24,39.16,39.16,0,0,0,4.84,4.24,7.53,7.53,0,0,0,9.68,0,40.67,40.67,0,0,0,4.84-4.24,39.16,39.16,0,0,1,4.84-4.24,7.53,7.53,0,0,1,9.68,0,39.9,39.9,0,0,1,4.84,4.24,39.9,39.9,0,0,0,4.84,4.24,7.54,7.54,0,0,0,9.68,0A40.67,40.67,0,0,0,419,17.57a39.16,39.16,0,0,1,4.84-4.24,7.53,7.53,0,0,1,9.68,0,40.67,40.67,0,0,1,4.84,4.24,39.16,39.16,0,0,0,4.84,4.24,7.53,7.53,0,0,0,9.68,0,40.67,40.67,0,0,0,4.84-4.24,39.16,39.16,0,0,1,4.84-4.24,7.53,7.53,0,0,1,9.68,0,39.84,39.84,0,0,1,4.83,4.24,40.67,40.67,0,0,0,4.84,4.24,7.54,7.54,0,0,0,9.68,0,39.16,39.16,0,0,0,4.84-4.24,40.67,40.67,0,0,1,4.84-4.24,7.53,7.53,0,0,1,9.68,0,39.16,39.16,0,0,1,4.84,4.24,40.67,40.67,0,0,0,4.84,4.24,7.54,7.54,0,0,0,9.68,0,39.16,39.16,0,0,0,4.84-4.24A40.67,40.67,0,0,1,540,13.33a7.53,7.53,0,0,1,9.68,0,39.9,39.9,0,0,1,4.84,4.24,39.9,39.9,0,0,0,4.84,4.24,7.53,7.53,0,0,0,9.68,0,39.9,39.9,0,0,0,4.84-4.24,39.9,39.9,0,0,1,4.84-4.24,7.54,7.54,0,0,1,9.68,0,39.9,39.9,0,0,1,4.84,4.24,39.9,39.9,0,0,0,4.84,4.24,7.54,7.54,0,0,0,9.68,0,39.9,39.9,0,0,0,4.84-4.24,39.9,39.9,0,0,1,4.84-4.24,7.54,7.54,0,0,1,9.68,0A40.67,40.67,0,0,1,632,17.57a39.16,39.16,0,0,0,4.84,4.24,7.54,7.54,0,0,0,9.68,0,40.67,40.67,0,0,0,4.84-4.24,39.16,39.16,0,0,1,4.84-4.24A8.62,8.62,0,0,1,661,11.57Z" fill="none"/></clipPath><linearGradient id="linear-gradient" x1="502" y1="61.05" x2="502" y2="82.97" gradientUnits="userSpaceOnUse"><stop offset="0" stop-color="#ebe9ec"/><stop offset="0.28" stop-color="#e5e6e9"/><stop offset="1" stop-color="#dadfe2"/></linearGradient><linearGradient id="linear-gradient-2" x1="412" y1="61.05" x2="412" y2="82.97" xlink:href="#linear-gradient"/></defs><title>dialogs-footer-control-spacing</title><g id="SPEC_text"><rect x="377" y="50" width="1" height="10" fill="#3fa9f5"/><rect x="374" y="59" width="7" height="1" fill="#3fa9f5"/><rect x="374" y="50" width="7" height="1" fill="#3fa9f5"/><path d="M365.89,59H365V52.35a2.07,2.07,0,0,1-.3.23,4.94,4.94,0,0,1-.44.26l-.52.24a3.74,3.74,0,0,1-.53.18v-.89a5.22,5.22,0,0,0,.62-.22c.22-.09.43-.19.64-.31s.41-.23.59-.35a4.57,4.57,0,0,0,.48-.36h.33Z" fill="#3fa9f5"/><path d="M373.41,55.12a7.57,7.57,0,0,1-.17,1.71,4,4,0,0,1-.5,1.26,2.26,2.26,0,0,1-.81.78,2.22,2.22,0,0,1-1.09.27,2.07,2.07,0,0,1-1-.26,2.17,2.17,0,0,1-.77-.74,3.76,3.76,0,0,1-.47-1.2,7.42,7.42,0,0,1-.16-1.63,8.43,8.43,0,0,1,.17-1.78,4.08,4.08,0,0,1,.5-1.3,2.21,2.21,0,0,1,.81-.79,2.29,2.29,0,0,1,1.12-.27Q373.41,51.17,373.41,55.12Zm-.9.09q0-3.29-1.56-3.29t-1.65,3.35q0,3.12,1.62,3.12T372.51,55.2Z" fill="#3fa9f5"/><rect x="377" y="84" width="1" height="10" fill="#3fa9f5"/><rect x="374" y="93" width="7" height="1" fill="#3fa9f5"/><rect x="374" y="84" width="7" height="1" fill="#3fa9f5"/><path d="M365.89,93H365V86.35a2.07,2.07,0,0,1-.3.23,4.94,4.94,0,0,1-.44.26l-.52.24a3.74,3.74,0,0,1-.53.18v-.89a5.22,5.22,0,0,0,.62-.22c.22-.09.43-.19.64-.31s.41-.23.59-.35a4.57,4.57,0,0,0,.48-.36h.33Z" fill="#3fa9f5"/><path d="M373.41,89.12a7.57,7.57,0,0,1-.17,1.71,4,4,0,0,1-.5,1.26,2.26,2.26,0,0,1-.81.78,2.22,2.22,0,0,1-1.09.27,2.07,2.07,0,0,1-1-.26,2.17,2.17,0,0,1-.77-.74,3.76,3.76,0,0,1-.47-1.2,7.42,7.42,0,0,1-.16-1.63,8.43,8.43,0,0,1,.17-1.78,4.08,4.08,0,0,1,.5-1.3,2.21,2.21,0,0,1,.81-.79,2.29,2.29,0,0,1,1.12-.27Q373.41,85.17,373.41,89.12Zm-.9.09q0-3.29-1.56-3.29t-1.65,3.35q0,3.12,1.62,3.12T372.51,89.2Z" fill="#3fa9f5"/><g clip-path="url(#clip-path)"><polygon points="109 -173.08 109 50.96 653.99 50.96 653.99 -173 109 -173.08" fill="#eef0ef"/><rect x="110" y="-186" width="545" height="222" fill="#eef0ef"/><rect x="109" y="50" width="543" height="44" fill="#e1e3e4"/><path d="M105-197V98H656V-197ZM652,94H109V-168H652Z" fill="#4c5358"/><rect x="109" y="49" width="543" height="1" fill="#a8abae"/><rect x="463" y="60.99" width="78" height="22.01" fill="url(#linear-gradient)"/><path d="M462,60V84h80V60Zm79,23H463V61h78Z" fill="#a8abae"/><path d="M485.34,76V67.6h2.39a2.61,2.61,0,0,1,1.73.53,1.72,1.72,0,0,1,.64,1.39,2,2,0,0,1-.39,1.24,2.09,2.09,0,0,1-1.07.75v0a2.14,2.14,0,0,1,1.36.64,2,2,0,0,1,.51,1.41,2.2,2.2,0,0,1-.77,1.75,2.88,2.88,0,0,1-2,.67Zm1-7.51V71.2h1a1.91,1.91,0,0,0,1.27-.39,1.36,1.36,0,0,0,.46-1.1q0-1.22-1.61-1.22Zm0,3.6v3h1.34A2,2,0,0,0,489,74.7a1.4,1.4,0,0,0,.48-1.12q0-1.49-2-1.49Z" fill="#4d5359"/><path d="M496.94,76h-1v-.95h0a2,2,0,0,1-1.85,1.09q-2.14,0-2.14-2.55V70h1v3.43q0,1.9,1.45,1.9a1.47,1.47,0,0,0,1.16-.52,2,2,0,0,0,.45-1.36V70h1Z" fill="#4d5359"/><path d="M501.66,75.94a1.85,1.85,0,0,1-.9.19q-1.58,0-1.58-1.76V70.82h-1V70h1V68.53l1-.31V70h1.51v.82h-1.51V74.2a1.4,1.4,0,0,0,.21.86.82.82,0,0,0,.68.26,1,1,0,0,0,.63-.2Z" fill="#4d5359"/><path d="M505.73,75.94a1.85,1.85,0,0,1-.9.19q-1.58,0-1.58-1.76V70.82h-1V70h1V68.53l1-.31V70h1.51v.82h-1.51V74.2a1.4,1.4,0,0,0,.21.86.82.82,0,0,0,.68.26,1,1,0,0,0,.63-.2Z" fill="#4d5359"/><path d="M509.43,76.14a2.78,2.78,0,0,1-2.12-.84,3.11,3.11,0,0,1-.79-2.23,3.24,3.24,0,0,1,.83-2.36,3,3,0,0,1,2.23-.85,2.69,2.69,0,0,1,2.09.83,3.28,3.28,0,0,1,.75,2.29,3.22,3.22,0,0,1-.81,2.3A2.84,2.84,0,0,1,509.43,76.14Zm.07-5.47a1.83,1.83,0,0,0-1.46.63,2.59,2.59,0,0,0-.54,1.74,2.45,2.45,0,0,0,.54,1.68,1.85,1.85,0,0,0,1.46.62,1.76,1.76,0,0,0,1.43-.6,2.62,2.62,0,0,0,.5-1.72,2.66,2.66,0,0,0-.5-1.73A1.75,1.75,0,0,0,509.5,70.67Z" fill="#4d5359"/><path d="M518.93,76h-1V72.58q0-1.91-1.39-1.91a1.51,1.51,0,0,0-1.19.54,2,2,0,0,0-.47,1.37V76h-1V70h1v1h0a2.17,2.17,0,0,1,2-1.14,1.84,1.84,0,0,1,1.51.64,2.83,2.83,0,0,1,.52,1.84Z" fill="#4d5359"/><rect x="373" y="60.99" width="78" height="22.01" fill="url(#linear-gradient-2)"/><path d="M372,60V84h80V60Zm79,23H373V61h78Z" fill="#a8abae"/><path d="M395.34,76V67.6h2.39a2.61,2.61,0,0,1,1.73.53,1.72,1.72,0,0,1,.64,1.39,2,2,0,0,1-.39,1.24,2.09,2.09,0,0,1-1.07.75v0a2.14,2.14,0,0,1,1.36.64,2,2,0,0,1,.51,1.41,2.2,2.2,0,0,1-.77,1.75,2.88,2.88,0,0,1-2,.67Zm1-7.51V71.2h1a1.91,1.91,0,0,0,1.27-.39,1.36,1.36,0,0,0,.46-1.1q0-1.22-1.61-1.22Zm0,3.6v3h1.34A2,2,0,0,0,399,74.7a1.4,1.4,0,0,0,.48-1.12q0-1.49-2-1.49Z" fill="#4d5359"/><path d="M406.94,76h-1v-.95h0a2,2,0,0,1-1.85,1.09q-2.14,0-2.14-2.55V70h1v3.43q0,1.9,1.45,1.9a1.47,1.47,0,0,0,1.16-.52,2,2,0,0,0,.45-1.36V70h1Z" fill="#4d5359"/><path d="M411.66,75.94a1.85,1.85,0,0,1-.9.19q-1.58,0-1.58-1.76V70.82h-1V70h1V68.53l1-.31V70h1.51v.82h-1.51V74.2a1.4,1.4,0,0,0,.21.86.82.82,0,0,0,.68.26,1,1,0,0,0,.63-.2Z" fill="#4d5359"/><path d="M415.73,75.94a1.85,1.85,0,0,1-.9.19q-1.58,0-1.58-1.76V70.82h-1V70h1V68.53l1-.31V70h1.51v.82h-1.51V74.2a1.4,1.4,0,0,0,.21.86.82.82,0,0,0,.68.26,1,1,0,0,0,.63-.2Z" fill="#4d5359"/><path d="M419.43,76.14a2.78,2.78,0,0,1-2.12-.84,3.11,3.11,0,0,1-.79-2.23,3.24,3.24,0,0,1,.83-2.36,3,3,0,0,1,2.23-.85,2.69,2.69,0,0,1,2.09.83,3.28,3.28,0,0,1,.75,2.29,3.22,3.22,0,0,1-.81,2.3A2.84,2.84,0,0,1,419.43,76.14Zm.07-5.47a1.83,1.83,0,0,0-1.46.63,2.59,2.59,0,0,0-.54,1.74,2.45,2.45,0,0,0,.54,1.68,1.85,1.85,0,0,0,1.46.62,1.76,1.76,0,0,0,1.43-.6,2.62,2.62,0,0,0,.5-1.72,2.66,2.66,0,0,0-.5-1.73A1.75,1.75,0,0,0,419.5,70.67Z" fill="#4d5359"/><path d="M428.93,76h-1V72.58q0-1.91-1.39-1.91a1.51,1.51,0,0,0-1.19.54,2,2,0,0,0-.47,1.37V76h-1V70h1v1h0a2.17,2.17,0,0,1,2-1.14,1.84,1.84,0,0,1,1.51.64,2.83,2.83,0,0,1,.52,1.84Z" fill="#4d5359"/><path d="M552,60V84h80V60Zm79,23H553V61h78Z" fill="#a8abae"/><path d="M575.34,76V67.6h2.39a2.61,2.61,0,0,1,1.73.53,1.72,1.72,0,0,1,.64,1.39,2,2,0,0,1-.39,1.24,2.09,2.09,0,0,1-1.07.75v0a2.14,2.14,0,0,1,1.36.64,2,2,0,0,1,.51,1.41,2.2,2.2,0,0,1-.77,1.75,2.88,2.88,0,0,1-2,.67Zm1-7.51V71.2h1a1.91,1.91,0,0,0,1.27-.39,1.36,1.36,0,0,0,.46-1.1q0-1.22-1.61-1.22Zm0,3.6v3h1.34A2,2,0,0,0,579,74.7a1.4,1.4,0,0,0,.48-1.12q0-1.49-2-1.49Z" fill="#4d5359"/><path d="M586.94,76h-1v-.95h0a2,2,0,0,1-1.85,1.09q-2.14,0-2.14-2.55V70h1v3.43q0,1.9,1.45,1.9a1.47,1.47,0,0,0,1.16-.52,2,2,0,0,0,.45-1.36V70h1Z" fill="#4d5359"/><path d="M591.66,75.94a1.85,1.85,0,0,1-.9.19q-1.58,0-1.58-1.76V70.82h-1V70h1V68.53l1-.31V70h1.51v.82h-1.51V74.2a1.4,1.4,0,0,0,.21.86.82.82,0,0,0,.68.26,1,1,0,0,0,.63-.2Z" fill="#4d5359"/><path d="M595.73,75.94a1.85,1.85,0,0,1-.9.19q-1.58,0-1.58-1.76V70.82h-1V70h1V68.53l1-.31V70h1.51v.82h-1.51V74.2a1.4,1.4,0,0,0,.21.86.82.82,0,0,0,.68.26,1,1,0,0,0,.63-.2Z" fill="#4d5359"/><path d="M599.43,76.14a2.78,2.78,0,0,1-2.12-.84,3.11,3.11,0,0,1-.79-2.23,3.24,3.24,0,0,1,.83-2.36,3,3,0,0,1,2.23-.85,2.69,2.69,0,0,1,2.09.83,3.28,3.28,0,0,1,.75,2.29,3.22,3.22,0,0,1-.81,2.3A2.84,2.84,0,0,1,599.43,76.14Zm.07-5.47a1.83,1.83,0,0,0-1.46.63,2.59,2.59,0,0,0-.54,1.74,2.45,2.45,0,0,0,.54,1.68,1.85,1.85,0,0,0,1.46.62,1.76,1.76,0,0,0,1.43-.6,2.62,2.62,0,0,0,.5-1.72,2.66,2.66,0,0,0-.5-1.73A1.75,1.75,0,0,0,599.5,70.67Z" fill="#4d5359"/><path d="M608.93,76h-1V72.58q0-1.91-1.39-1.91a1.51,1.51,0,0,0-1.19.54,2,2,0,0,0-.47,1.37V76h-1V70h1v1h0a2.17,2.17,0,0,1,2-1.14,1.84,1.84,0,0,1,1.51.64,2.83,2.83,0,0,1,.52,1.84Z" fill="#4d5359"/></g><path d="M105,21.33c2,0,2.64-2.25,4.26-3.82a39.16,39.16,0,0,1,4.84-4.24,7.54,7.54,0,0,1,9.68,0,40.67,40.67,0,0,1,4.84,4.24,39.28,39.28,0,0,0,4.84,4.25,7.55,7.55,0,0,0,9.67,0A40,40,0,0,0,148,17.52a39.16,39.16,0,0,1,4.84-4.24,7.54,7.54,0,0,1,9.68,0,39.84,39.84,0,0,1,4.83,4.24,41.72,41.72,0,0,0,4.84,4.25,7.57,7.57,0,0,0,9.68,0,39.16,39.16,0,0,0,4.84-4.24,40.67,40.67,0,0,1,4.84-4.24,7.54,7.54,0,0,1,9.68,0,39.16,39.16,0,0,1,4.84,4.24,41.72,41.72,0,0,0,4.84,4.25,7.57,7.57,0,0,0,9.68,0,39.9,39.9,0,0,0,4.84-4.24,40.67,40.67,0,0,1,4.84-4.24,7.53,7.53,0,0,1,9.68,0,39.16,39.16,0,0,1,4.84,4.24,40.91,40.91,0,0,0,4.84,4.25,7.57,7.57,0,0,0,9.68,0,39.9,39.9,0,0,0,4.84-4.24A39.9,39.9,0,0,1,269,13.31a7.53,7.53,0,0,1,9.68,0,39.9,39.9,0,0,1,4.84,4.24,40.13,40.13,0,0,0,4.84,4.25,7.57,7.57,0,0,0,9.68,0,40.67,40.67,0,0,0,4.84-4.24,40.91,40.91,0,0,1,4.84-4.25,7.55,7.55,0,0,1,9.68,0,40.67,40.67,0,0,1,4.84,4.24,39.16,39.16,0,0,0,4.84,4.24,8.55,8.55,0,0,0,4.84,1.76,8.66,8.66,0,0,0,4.84-1.75,40.67,40.67,0,0,0,4.84-4.24,39.28,39.28,0,0,1,4.84-4.25,7.55,7.55,0,0,1,9.68,0,40.67,40.67,0,0,1,4.84,4.24,39.16,39.16,0,0,0,4.84,4.24,7.53,7.53,0,0,0,9.68,0,40.67,40.67,0,0,0,4.84-4.24,39.16,39.16,0,0,1,4.84-4.24,7.53,7.53,0,0,1,9.68,0,39.9,39.9,0,0,1,4.84,4.24,39.9,39.9,0,0,0,4.84,4.24,7.54,7.54,0,0,0,9.68,0A40.67,40.67,0,0,0,419,17.57a39.16,39.16,0,0,1,4.84-4.24,7.53,7.53,0,0,1,9.68,0,40.67,40.67,0,0,1,4.84,4.24,39.16,39.16,0,0,0,4.84,4.24,7.53,7.53,0,0,0,9.68,0,40.67,40.67,0,0,0,4.84-4.24,39.16,39.16,0,0,1,4.84-4.24,7.53,7.53,0,0,1,9.68,0,39.84,39.84,0,0,1,4.83,4.24,40.67,40.67,0,0,0,4.84,4.24,7.54,7.54,0,0,0,9.68,0,39.16,39.16,0,0,0,4.84-4.24,40.67,40.67,0,0,1,4.84-4.24,7.53,7.53,0,0,1,9.68,0,39.16,39.16,0,0,1,4.84,4.24,40.67,40.67,0,0,0,4.84,4.24,7.54,7.54,0,0,0,9.68,0,39.16,39.16,0,0,0,4.84-4.24A40.67,40.67,0,0,1,540,13.33a7.53,7.53,0,0,1,9.68,0,39.9,39.9,0,0,1,4.84,4.24,39.9,39.9,0,0,0,4.84,4.24,7.53,7.53,0,0,0,9.68,0,39.9,39.9,0,0,0,4.84-4.24,39.9,39.9,0,0,1,4.84-4.24,7.54,7.54,0,0,1,9.68,0,39.9,39.9,0,0,1,4.84,4.24,39.9,39.9,0,0,0,4.84,4.24,7.54,7.54,0,0,0,9.68,0,39.9,39.9,0,0,0,4.84-4.24,39.9,39.9,0,0,1,4.84-4.24,7.54,7.54,0,0,1,9.68,0A40.67,40.67,0,0,1,632,17.57a39.16,39.16,0,0,0,4.84,4.24,7.54,7.54,0,0,0,9.68,0,40.67,40.67,0,0,0,4.84-4.24c1.61-1.57,2.88-4.24,4.84-4.24" fill="none" stroke="#adaead" stroke-miterlimit="10"/><rect x="102" y="50" width="1" height="44" fill="#ec008c"/><rect x="99" y="50" width="13" height="1" fill="#ec008c"/><path d="M90.57,66.3v5.09h1v.81h-1V74H89.7V72.19H86.08v-.76q.51-.57,1-1.22t1-1.31q.47-.67.87-1.33a12,12,0,0,0,.67-1.27Zm-3.5,5.09H89.7V67.61q-.4.7-.76,1.26t-.68,1q-.33.45-.62.82Z" fill="#ec008c"/><path d="M96.5,66.3v5.09h1v.81h-1V74h-.87V72.19H92v-.76q.51-.57,1-1.22t1-1.31q.47-.67.87-1.33a12,12,0,0,0,.67-1.27ZM93,71.38h2.63V67.61q-.4.7-.76,1.26t-.68,1q-.33.45-.62.82Z" fill="#ec008c"/><rect x="98" y="93" width="13" height="1" fill="#ec008c"/><rect x="632.5" y="103" width="19" height="1" fill="#ec008c"/><rect x="651" y="80" width="1" height="27" fill="#ec008c"/><rect x="632" y="80" width="1" height="27" fill="#ec008c"/><path d="M640.29,110.32a1.59,1.59,0,0,0-.11-.62,1.19,1.19,0,0,0-.75-.7,1.76,1.76,0,0,0-.56-.09,1.86,1.86,0,0,0-.5.07,2.41,2.41,0,0,0-.48.19,2.91,2.91,0,0,0-.45.3,3.21,3.21,0,0,0-.41.38v-.95a2.63,2.63,0,0,1,.83-.55,2.93,2.93,0,0,1,1.12-.19,2.71,2.71,0,0,1,.88.14,2,2,0,0,1,.7.4,1.85,1.85,0,0,1,.46.65,2.18,2.18,0,0,1,.17.89,3,3,0,0,1-.1.83,2.54,2.54,0,0,1-.32.7,3.38,3.38,0,0,1-.53.63,7.53,7.53,0,0,1-.76.61l-.89.66a4,4,0,0,0-.56.51,1.5,1.5,0,0,0-.29.48,1.67,1.67,0,0,0-.08.55h3.83V116h-4.75v-.38a3.15,3.15,0,0,1,.11-.87,2.27,2.27,0,0,1,.35-.71,4,4,0,0,1,.65-.68q.4-.34,1-.76a6.26,6.26,0,0,0,.7-.57,3,3,0,0,0,.45-.55,2,2,0,0,0,.24-.56A2.41,2.41,0,0,0,640.29,110.32Z" fill="#ec008c"/><path d="M647.55,112.12a7.57,7.57,0,0,1-.17,1.71,4,4,0,0,1-.5,1.26,2.26,2.26,0,0,1-.81.78,2.22,2.22,0,0,1-1.09.27,2.07,2.07,0,0,1-1-.26,2.17,2.17,0,0,1-.77-.74,3.76,3.76,0,0,1-.47-1.2,7.42,7.42,0,0,1-.16-1.63,8.43,8.43,0,0,1,.17-1.78,4.08,4.08,0,0,1,.5-1.3,2.21,2.21,0,0,1,.81-.79,2.29,2.29,0,0,1,1.12-.27Q647.55,108.17,647.55,112.12Zm-.9.09q0-3.29-1.56-3.29t-1.65,3.35q0,3.12,1.62,3.12T646.65,112.2Z" fill="#ec008c"/><rect x="542" y="103" width="10" height="1" fill="#ec008c"/><rect x="551" y="80" width="1" height="27" fill="#ec008c"/><rect x="542" y="80" width="1" height="27" fill="#ec008c"/><path d="M544.89,116H544v-6.65a2.07,2.07,0,0,1-.3.23,4.94,4.94,0,0,1-.44.26l-.52.24a3.74,3.74,0,0,1-.53.18v-.89a5.22,5.22,0,0,0,.62-.22c.22-.09.43-.19.64-.31s.41-.23.59-.35a4.57,4.57,0,0,0,.48-.36h.33Z" fill="#ec008c"/><path d="M552.41,112.12a7.57,7.57,0,0,1-.17,1.71,4,4,0,0,1-.5,1.26,2.26,2.26,0,0,1-.81.78,2.22,2.22,0,0,1-1.09.27,2.07,2.07,0,0,1-1-.26,2.17,2.17,0,0,1-.77-.74,3.76,3.76,0,0,1-.47-1.2,7.42,7.42,0,0,1-.16-1.63,8.43,8.43,0,0,1,.17-1.78,4.08,4.08,0,0,1,.5-1.3,2.21,2.21,0,0,1,.81-.79,2.29,2.29,0,0,1,1.12-.27Q552.41,108.17,552.41,112.12Zm-.9.09q0-3.29-1.56-3.29t-1.65,3.35q0,3.12,1.62,3.12T551.51,112.2Z" fill="#ec008c"/><rect x="452" y="103" width="10" height="1" fill="#ec008c"/><rect x="461" y="80" width="1" height="27" fill="#ec008c"/><rect x="452" y="80" width="1" height="27" fill="#ec008c"/><path d="M454.89,116H454v-6.65a2.07,2.07,0,0,1-.3.23,4.94,4.94,0,0,1-.44.26l-.52.24a3.74,3.74,0,0,1-.53.18v-.89a5.22,5.22,0,0,0,.62-.22c.22-.09.43-.19.64-.31s.41-.23.59-.35a4.57,4.57,0,0,0,.48-.36h.33Z" fill="#ec008c"/><path d="M462.41,112.12a7.57,7.57,0,0,1-.17,1.71,4,4,0,0,1-.5,1.26,2.26,2.26,0,0,1-.81.78,2.22,2.22,0,0,1-1.09.27,2.07,2.07,0,0,1-1-.26,2.17,2.17,0,0,1-.77-.74,3.76,3.76,0,0,1-.47-1.2,7.42,7.42,0,0,1-.16-1.63,8.43,8.43,0,0,1,.17-1.78,4.08,4.08,0,0,1,.5-1.3,2.21,2.21,0,0,1,.81-.79,2.29,2.29,0,0,1,1.12-.27Q462.41,108.17,462.41,112.12Zm-.9.09q0-3.29-1.56-3.29t-1.65,3.35q0,3.12,1.62,3.12T461.51,112.2Z" fill="#ec008c"/></g></svg>