<svg xmlns="http://www.w3.org/2000/svg" xmlns:xlink="http://www.w3.org/1999/xlink" width="760" height="295" viewBox="0 0 760 295"><defs><linearGradient id="linear-gradient" x1="502" y1="258.05" x2="502" y2="279.97" gradientUnits="userSpaceOnUse"><stop offset="0" stop-color="#ebe9ec"/><stop offset="0.28" stop-color="#e5e6e9"/><stop offset="1" stop-color="#dadfe2"/></linearGradient></defs><title>dialogs-single-page</title><g id="SPEC_text"><polygon points="109 23.92 109 247.96 653.99 247.96 653.99 24 109 23.92" fill="#eef0ef"/><rect x="110" y="11" width="545" height="222" fill="#eef0ef"/><rect x="109" y="247" width="543" height="44" fill="#e1e3e4"/><path d="M105,0V295H656V0ZM652,291H109V29H652Z" fill="#4d5359"/><rect x="109" y="246" width="543" height="1" fill="#a8abae"/><path d="M121.1,19V10.6h2.32q4.44,0,4.44,4.1a4.13,4.13,0,0,1-1.23,3.13,4.58,4.58,0,0,1-3.3,1.18Zm1-7.51v6.62h1.25a3.56,3.56,0,0,0,2.57-.88,3.32,3.32,0,0,0,.92-2.51q0-3.23-3.43-3.23Z" fill="#fff"/><path d="M129.88,11.48a.61.61,0,0,1-.44-.18.59.59,0,0,1-.18-.45.62.62,0,0,1,.62-.63.62.62,0,0,1,.45.18.63.63,0,0,1,0,.89A.62.62,0,0,1,129.88,11.48Zm.47,7.52h-1V13h1Z" fill="#fff"/><path d="M136.59,19h-1v-.94h0a2,2,0,0,1-1.85,1.08,2,2,0,0,1-1.4-.47,1.64,1.64,0,0,1-.51-1.26q0-1.68,2-2l1.8-.25q0-1.53-1.24-1.53a3,3,0,0,0-2,.74v-1a3.72,3.72,0,0,1,2-.56q2.12,0,2.12,2.24Zm-1-3-1.45.2a2.35,2.35,0,0,0-1,.33,1,1,0,0,0-.34.84.92.92,0,0,0,.31.72,1.21,1.21,0,0,0,.83.28,1.54,1.54,0,0,0,1.18-.5,1.79,1.79,0,0,0,.47-1.27Z" fill="#fff"/><path d="M139.36,19h-1V10.12h1Z" fill="#fff"/><path d="M143.81,19.14a2.78,2.78,0,0,1-2.12-.84,3.11,3.11,0,0,1-.79-2.23,3.24,3.24,0,0,1,.83-2.36,3,3,0,0,1,2.23-.85,2.69,2.69,0,0,1,2.09.83A3.28,3.28,0,0,1,146.8,16a3.22,3.22,0,0,1-.81,2.3A2.84,2.84,0,0,1,143.81,19.14Zm.07-5.47a1.83,1.83,0,0,0-1.46.63,2.59,2.59,0,0,0-.54,1.74,2.45,2.45,0,0,0,.54,1.68,1.85,1.85,0,0,0,1.46.62,1.76,1.76,0,0,0,1.43-.6,2.62,2.62,0,0,0,.5-1.72,2.66,2.66,0,0,0-.5-1.73A1.75,1.75,0,0,0,143.88,13.67Z" fill="#fff"/><path d="M153.46,18.52q0,3.3-3.16,3.3a4.25,4.25,0,0,1-1.95-.42v-1a4,4,0,0,0,1.93.56q2.21,0,2.21-2.36V18h0a2.43,2.43,0,0,1-3.86.35,3.2,3.2,0,0,1-.68-2.15,3.74,3.74,0,0,1,.74-2.43,2.46,2.46,0,0,1,2-.9,2,2,0,0,1,1.8,1h0V13h1Zm-1-2.23V15.4a1.72,1.72,0,0,0-.48-1.22,1.59,1.59,0,0,0-1.2-.51,1.67,1.67,0,0,0-1.39.65,2.89,2.89,0,0,0-.5,1.81,2.48,2.48,0,0,0,.48,1.6,1.56,1.56,0,0,0,1.28.6,1.67,1.67,0,0,0,1.32-.57A2.14,2.14,0,0,0,152.5,16.29Z" fill="#fff"/><path d="M163.79,11.49h-2.43V19h-1V11.49H158V10.6h5.83Z" fill="#fff"/><path d="M165.47,11.48a.61.61,0,0,1-.44-.18.59.59,0,0,1-.18-.45.62.62,0,0,1,.62-.63.62.62,0,0,1,.45.18.63.63,0,0,1,0,.89A.62.62,0,0,1,165.47,11.48Zm.47,7.52h-1V13h1Z" fill="#fff"/><path d="M170.67,18.94a1.85,1.85,0,0,1-.9.19q-1.58,0-1.58-1.76V13.82h-1V13h1V11.54l1-.31V13h1.51v.82h-1.51V17.2a1.4,1.4,0,0,0,.21.86.82.82,0,0,0,.68.26,1,1,0,0,0,.63-.2Z" fill="#fff"/><path d="M172.91,19h-1V10.12h1Z" fill="#fff"/><path d="M179.68,16.24h-4.24a2.24,2.24,0,0,0,.54,1.55,1.86,1.86,0,0,0,1.42.54,3,3,0,0,0,1.86-.67v.9a3.48,3.48,0,0,1-2.09.57,2.54,2.54,0,0,1-2-.82,3.35,3.35,0,0,1-.73-2.3,3.28,3.28,0,0,1,.79-2.28,2.55,2.55,0,0,1,2-.88,2.26,2.26,0,0,1,1.82.76,3.18,3.18,0,0,1,.64,2.12Zm-1-.81a2,2,0,0,0-.4-1.29,1.37,1.37,0,0,0-1.1-.46,1.55,1.55,0,0,0-1.15.49,2.21,2.21,0,0,0-.59,1.27Z" fill="#fff"/><polygon points="645.14 9.97 643.62 8.45 640.07 12 636.52 8.45 635 9.97 638.55 13.52 635 17.07 636.52 18.59 640.07 15.04 643.62 18.59 645.14 17.07 641.59 13.52 645.14 9.97" fill="#fff"/><rect x="463" y="257.99" width="78" height="22.01" fill="url(#linear-gradient)"/><path d="M462,257v24h80V257Zm79,23H463V258h78Z" fill="#a8abae"/><path d="M485.34,273v-8.4h2.39a2.61,2.61,0,0,1,1.73.53,1.72,1.72,0,0,1,.64,1.39,2,2,0,0,1-.39,1.24,2.09,2.09,0,0,1-1.07.75v0a2.14,2.14,0,0,1,1.36.64,2,2,0,0,1,.51,1.41,2.2,2.2,0,0,1-.77,1.75,2.88,2.88,0,0,1-2,.67Zm1-7.51v2.71h1a1.91,1.91,0,0,0,1.27-.39,1.36,1.36,0,0,0,.46-1.1q0-1.22-1.61-1.22Zm0,3.6v3h1.34a2,2,0,0,0,1.34-.41,1.4,1.4,0,0,0,.48-1.12q0-1.49-2-1.49Z" fill="#4d5359"/><path d="M496.94,273h-1v-.95h0a2,2,0,0,1-1.85,1.09q-2.14,0-2.14-2.55V267h1v3.43q0,1.9,1.45,1.9a1.47,1.47,0,0,0,1.16-.52,2,2,0,0,0,.45-1.36V267h1Z" fill="#4d5359"/><path d="M501.66,272.94a1.85,1.85,0,0,1-.9.19q-1.58,0-1.58-1.76v-3.55h-1V267h1v-1.46l1-.31V267h1.51v.82h-1.51v3.38a1.4,1.4,0,0,0,.21.86.82.82,0,0,0,.68.26,1,1,0,0,0,.63-.2Z" fill="#4d5359"/><path d="M505.73,272.94a1.85,1.85,0,0,1-.9.19q-1.58,0-1.58-1.76v-3.55h-1V267h1v-1.46l1-.31V267h1.51v.82h-1.51v3.38a1.4,1.4,0,0,0,.21.86.82.82,0,0,0,.68.26,1,1,0,0,0,.63-.2Z" fill="#4d5359"/><path d="M509.43,273.14a2.78,2.78,0,0,1-2.12-.84,3.11,3.11,0,0,1-.79-2.23,3.24,3.24,0,0,1,.83-2.36,3,3,0,0,1,2.23-.85,2.69,2.69,0,0,1,2.09.83,3.28,3.28,0,0,1,.75,2.29,3.22,3.22,0,0,1-.81,2.3A2.84,2.84,0,0,1,509.43,273.14Zm.07-5.47a1.83,1.83,0,0,0-1.46.63,2.59,2.59,0,0,0-.54,1.74,2.45,2.45,0,0,0,.54,1.68,1.85,1.85,0,0,0,1.46.62,1.76,1.76,0,0,0,1.43-.6,2.62,2.62,0,0,0,.5-1.72,2.66,2.66,0,0,0-.5-1.73A1.75,1.75,0,0,0,509.5,267.67Z" fill="#4d5359"/><path d="M518.93,273h-1v-3.42q0-1.91-1.39-1.91a1.51,1.51,0,0,0-1.19.54,2,2,0,0,0-.47,1.37V273h-1v-6h1v1h0a2.17,2.17,0,0,1,2-1.14,1.84,1.84,0,0,1,1.51.64,2.83,2.83,0,0,1,.52,1.84Z" fill="#4d5359"/><path d="M552,257v24h80V257Zm79,23H553V258h78Z" fill="#a8abae"/><path d="M575.34,273v-8.4h2.39a2.61,2.61,0,0,1,1.73.53,1.72,1.72,0,0,1,.64,1.39,2,2,0,0,1-.39,1.24,2.09,2.09,0,0,1-1.07.75v0a2.14,2.14,0,0,1,1.36.64,2,2,0,0,1,.51,1.41,2.2,2.2,0,0,1-.77,1.75,2.88,2.88,0,0,1-2,.67Zm1-7.51v2.71h1a1.91,1.91,0,0,0,1.27-.39,1.36,1.36,0,0,0,.46-1.1q0-1.22-1.61-1.22Zm0,3.6v3h1.34a2,2,0,0,0,1.34-.41,1.4,1.4,0,0,0,.48-1.12q0-1.49-2-1.49Z" fill="#4d5359"/><path d="M586.94,273h-1v-.95h0a2,2,0,0,1-1.85,1.09q-2.14,0-2.14-2.55V267h1v3.43q0,1.9,1.45,1.9a1.47,1.47,0,0,0,1.16-.52,2,2,0,0,0,.45-1.36V267h1Z" fill="#4d5359"/><path d="M591.66,272.94a1.85,1.85,0,0,1-.9.19q-1.58,0-1.58-1.76v-3.55h-1V267h1v-1.46l1-.31V267h1.51v.82h-1.51v3.38a1.4,1.4,0,0,0,.21.86.82.82,0,0,0,.68.26,1,1,0,0,0,.63-.2Z" fill="#4d5359"/><path d="M595.73,272.94a1.85,1.85,0,0,1-.9.19q-1.58,0-1.58-1.76v-3.55h-1V267h1v-1.46l1-.31V267h1.51v.82h-1.51v3.38a1.4,1.4,0,0,0,.21.86.82.82,0,0,0,.68.26,1,1,0,0,0,.63-.2Z" fill="#4d5359"/><path d="M599.43,273.14a2.78,2.78,0,0,1-2.12-.84,3.11,3.11,0,0,1-.79-2.23,3.24,3.24,0,0,1,.83-2.36,3,3,0,0,1,2.23-.85,2.69,2.69,0,0,1,2.09.83,3.28,3.28,0,0,1,.75,2.29,3.22,3.22,0,0,1-.81,2.3A2.84,2.84,0,0,1,599.43,273.14Zm.07-5.47a1.83,1.83,0,0,0-1.46.63,2.59,2.59,0,0,0-.54,1.74,2.45,2.45,0,0,0,.54,1.68,1.85,1.85,0,0,0,1.46.62,1.76,1.76,0,0,0,1.43-.6,2.62,2.62,0,0,0,.5-1.72,2.66,2.66,0,0,0-.5-1.73A1.75,1.75,0,0,0,599.5,267.67Z" fill="#4d5359"/><path d="M608.93,273h-1v-3.42q0-1.91-1.39-1.91a1.51,1.51,0,0,0-1.19.54,2,2,0,0,0-.47,1.37V273h-1v-6h1v1h0a2.17,2.17,0,0,1,2-1.14,1.84,1.84,0,0,1,1.51.64,2.83,2.83,0,0,1,.52,1.84Z" fill="#4d5359"/><rect x="129" y="49" width="503" height="177" fill="#ec008c" opacity="0.25"/><rect x="369" y="29" width="1" height="20" fill="#ec008c"/><rect x="366" y="29" width="7" height="1" fill="#ec008c"/><rect x="366" y="48" width="7" height="1" fill="#ec008c"/><path d="M357.29,37.32a1.59,1.59,0,0,0-.11-.62,1.19,1.19,0,0,0-.75-.7,1.76,1.76,0,0,0-.56-.09,1.86,1.86,0,0,0-.5.07,2.41,2.41,0,0,0-.48.19,2.91,2.91,0,0,0-.45.3,3.21,3.21,0,0,0-.41.38v-.95a2.63,2.63,0,0,1,.83-.55,2.93,2.93,0,0,1,1.12-.19,2.71,2.71,0,0,1,.88.14,2,2,0,0,1,.7.4,1.85,1.85,0,0,1,.46.65,2.18,2.18,0,0,1,.17.89,3,3,0,0,1-.1.83,2.54,2.54,0,0,1-.32.7,3.38,3.38,0,0,1-.53.63,7.53,7.53,0,0,1-.76.61l-.89.66a4,4,0,0,0-.56.51,1.5,1.5,0,0,0-.29.48,1.67,1.67,0,0,0-.08.55h3.83V43h-4.75v-.38a3.15,3.15,0,0,1,.11-.87,2.27,2.27,0,0,1,.35-.71,4,4,0,0,1,.65-.68q.4-.34,1-.76a6.26,6.26,0,0,0,.7-.57,3,3,0,0,0,.45-.55,2,2,0,0,0,.24-.56A2.41,2.41,0,0,0,357.29,37.32Z" fill="#ec008c"/><path d="M364.55,39.12a7.57,7.57,0,0,1-.17,1.71,4,4,0,0,1-.5,1.26,2.26,2.26,0,0,1-.81.78,2.22,2.22,0,0,1-1.09.27,2.07,2.07,0,0,1-1-.26,2.17,2.17,0,0,1-.77-.74,3.76,3.76,0,0,1-.47-1.2,7.42,7.42,0,0,1-.16-1.63,8.43,8.43,0,0,1,.17-1.78,4.08,4.08,0,0,1,.5-1.3,2.21,2.21,0,0,1,.81-.79,2.29,2.29,0,0,1,1.12-.27Q364.55,35.17,364.55,39.12Zm-.9.09q0-3.29-1.56-3.29t-1.65,3.35q0,3.12,1.62,3.12T363.65,39.2Z" fill="#ec008c"/><rect x="369" y="226" width="1" height="20" fill="#ec008c"/><rect x="365" y="226" width="9" height="1" fill="#ec008c"/><rect x="365" y="245" width="9" height="1" fill="#ec008c"/><path d="M356.29,234.32a1.59,1.59,0,0,0-.11-.62,1.19,1.19,0,0,0-.75-.7,1.76,1.76,0,0,0-.56-.09,1.86,1.86,0,0,0-.5.07,2.41,2.41,0,0,0-.48.19,2.91,2.91,0,0,0-.45.3,3.21,3.21,0,0,0-.41.38v-.95a2.63,2.63,0,0,1,.83-.55,2.93,2.93,0,0,1,1.12-.19,2.71,2.71,0,0,1,.88.14,2,2,0,0,1,.7.4,1.85,1.85,0,0,1,.46.65,2.18,2.18,0,0,1,.17.89,3,3,0,0,1-.1.83,2.54,2.54,0,0,1-.32.7,3.38,3.38,0,0,1-.53.63,7.53,7.53,0,0,1-.76.61l-.89.66a4,4,0,0,0-.56.51,1.5,1.5,0,0,0-.29.48,1.67,1.67,0,0,0-.08.55h3.83V240h-4.75v-.38a3.15,3.15,0,0,1,.11-.87,2.27,2.27,0,0,1,.35-.71,4,4,0,0,1,.65-.68q.4-.34,1-.76a6.26,6.26,0,0,0,.7-.57,3,3,0,0,0,.45-.55,2,2,0,0,0,.24-.56A2.41,2.41,0,0,0,356.29,234.32Z" fill="#ec008c"/><path d="M363.55,236.12a7.57,7.57,0,0,1-.17,1.71,4,4,0,0,1-.5,1.26,2.26,2.26,0,0,1-.81.78,2.22,2.22,0,0,1-1.09.27,2.07,2.07,0,0,1-1-.26,2.17,2.17,0,0,1-.77-.74,3.76,3.76,0,0,1-.47-1.2,7.42,7.42,0,0,1-.16-1.63,8.43,8.43,0,0,1,.17-1.78,4.08,4.08,0,0,1,.5-1.3,2.21,2.21,0,0,1,.81-.79,2.29,2.29,0,0,1,1.12-.27Q363.55,232.17,363.55,236.12Zm-.9.09q0-3.29-1.56-3.29t-1.65,3.35q0,3.12,1.62,3.12T362.65,236.2Z" fill="#ec008c"/><rect x="632.5" y="136" width="19" height="1" fill="#ec008c"/><rect x="651" y="133" width="1" height="7" fill="#ec008c"/><rect x="632" y="133" width="1" height="7" fill="#ec008c"/><path d="M640.15,127.67a1.59,1.59,0,0,0-.11-.62,1.19,1.19,0,0,0-.75-.7,1.76,1.76,0,0,0-.56-.09,1.86,1.86,0,0,0-.5.07,2.41,2.41,0,0,0-.48.19,2.91,2.91,0,0,0-.45.3,3.21,3.21,0,0,0-.41.38v-.95a2.63,2.63,0,0,1,.83-.55,2.93,2.93,0,0,1,1.12-.19,2.71,2.71,0,0,1,.88.14,2,2,0,0,1,.7.4,1.85,1.85,0,0,1,.46.65,2.18,2.18,0,0,1,.17.89,3,3,0,0,1-.1.83,2.54,2.54,0,0,1-.32.7,3.38,3.38,0,0,1-.53.63,7.53,7.53,0,0,1-.76.61l-.89.66a4,4,0,0,0-.56.51,1.5,1.5,0,0,0-.29.48,1.67,1.67,0,0,0-.08.55h3.83v.79h-4.75V133a3.15,3.15,0,0,1,.11-.87,2.27,2.27,0,0,1,.35-.71,4,4,0,0,1,.65-.68q.4-.34,1-.76a6.26,6.26,0,0,0,.7-.57,3,3,0,0,0,.45-.55,2,2,0,0,0,.24-.56A2.41,2.41,0,0,0,640.15,127.67Z" fill="#ec008c"/><path d="M647.41,129.47a7.57,7.57,0,0,1-.17,1.71,4,4,0,0,1-.5,1.26,2.26,2.26,0,0,1-.81.78,2.22,2.22,0,0,1-1.09.27,2.07,2.07,0,0,1-1-.26,2.17,2.17,0,0,1-.77-.74,3.76,3.76,0,0,1-.47-1.2,7.42,7.42,0,0,1-.16-1.63,8.43,8.43,0,0,1,.17-1.78,4.08,4.08,0,0,1,.5-1.3,2.21,2.21,0,0,1,.81-.79,2.29,2.29,0,0,1,1.12-.27Q647.41,125.52,647.41,129.47Zm-.9.09q0-3.29-1.56-3.29t-1.65,3.35q0,3.12,1.62,3.12T646.51,129.55Z" fill="#ec008c"/><rect x="109" y="136" width="20" height="1" fill="#ec008c"/><rect x="128" y="133" width="1" height="7" fill="#ec008c"/><rect x="109" y="133" width="1" height="7" fill="#ec008c"/><path d="M117.15,127.67a1.59,1.59,0,0,0-.11-.62,1.19,1.19,0,0,0-.75-.7,1.76,1.76,0,0,0-.56-.09,1.86,1.86,0,0,0-.5.07,2.41,2.41,0,0,0-.48.19,2.91,2.91,0,0,0-.45.3,3.21,3.21,0,0,0-.41.38v-.95a2.63,2.63,0,0,1,.83-.55,2.93,2.93,0,0,1,1.12-.19,2.71,2.71,0,0,1,.88.14,2,2,0,0,1,.7.4,1.85,1.85,0,0,1,.46.65,2.18,2.18,0,0,1,.17.89,3,3,0,0,1-.1.83,2.54,2.54,0,0,1-.32.7,3.38,3.38,0,0,1-.53.63,7.53,7.53,0,0,1-.76.61l-.89.66a4,4,0,0,0-.56.51,1.5,1.5,0,0,0-.29.48,1.67,1.67,0,0,0-.08.55h3.83v.79h-4.75V133a3.15,3.15,0,0,1,.11-.87,2.27,2.27,0,0,1,.35-.71,4,4,0,0,1,.65-.68q.4-.34,1-.76a6.26,6.26,0,0,0,.7-.57,3,3,0,0,0,.45-.55,2,2,0,0,0,.24-.56A2.41,2.41,0,0,0,117.15,127.67Z" fill="#ec008c"/><path d="M124.41,129.47a7.57,7.57,0,0,1-.17,1.71,4,4,0,0,1-.5,1.26,2.26,2.26,0,0,1-.81.78,2.22,2.22,0,0,1-1.09.27,2.07,2.07,0,0,1-1-.26,2.17,2.17,0,0,1-.77-.74,3.76,3.76,0,0,1-.47-1.2,7.42,7.42,0,0,1-.16-1.63,8.43,8.43,0,0,1,.17-1.78,4.08,4.08,0,0,1,.5-1.3,2.21,2.21,0,0,1,.81-.79,2.29,2.29,0,0,1,1.12-.27Q124.41,125.52,124.41,129.47Zm-.9.09q0-3.29-1.56-3.29t-1.65,3.35q0,3.12,1.62,3.12T123.51,129.55Z" fill="#ec008c"/></g></svg>