<svg xmlns="http://www.w3.org/2000/svg" xmlns:xlink="http://www.w3.org/1999/xlink" width="760" height="124" viewBox="0 0 760 124"><defs><clipPath id="clip-path"><path d="M661,11.57V132H80L80.2,11.5A8.65,8.65,0,0,1,85,13.26a39.9,39.9,0,0,1,4.84,4.24,39.28,39.28,0,0,0,4.84,4.25,7.57,7.57,0,0,0,9.68,0,40.67,40.67,0,0,0,4.84-4.24,39.16,39.16,0,0,1,4.84-4.24,7.54,7.54,0,0,1,9.68,0,40.67,40.67,0,0,1,4.84,4.24,39.28,39.28,0,0,0,4.84,4.25,7.55,7.55,0,0,0,9.67,0A40,40,0,0,0,148,17.52a39.16,39.16,0,0,1,4.84-4.24,7.53,7.53,0,0,1,9.68,0,39.84,39.84,0,0,1,4.83,4.24,41.72,41.72,0,0,0,4.84,4.25,7.57,7.57,0,0,0,9.68,0,39.16,39.16,0,0,0,4.84-4.24,40.67,40.67,0,0,1,4.84-4.24,7.54,7.54,0,0,1,9.68,0A39.16,39.16,0,0,1,206,17.53a41.72,41.72,0,0,0,4.84,4.25,7.57,7.57,0,0,0,9.68,0,39.9,39.9,0,0,0,4.84-4.24,40.67,40.67,0,0,1,4.84-4.24,7.53,7.53,0,0,1,9.68,0,39.16,39.16,0,0,1,4.84,4.24,40.91,40.91,0,0,0,4.84,4.25,7.57,7.57,0,0,0,9.68,0,39.9,39.9,0,0,0,4.84-4.24A39.9,39.9,0,0,1,269,13.31a7.54,7.54,0,0,1,9.68,0,39.9,39.9,0,0,1,4.84,4.24,40.13,40.13,0,0,0,4.84,4.25,7.57,7.57,0,0,0,9.68,0,40.67,40.67,0,0,0,4.84-4.24,40.91,40.91,0,0,1,4.84-4.25,7.55,7.55,0,0,1,9.68,0,40.67,40.67,0,0,1,4.84,4.24A39.16,39.16,0,0,0,327,21.8a8.55,8.55,0,0,0,4.84,1.76,8.66,8.66,0,0,0,4.84-1.75,40.67,40.67,0,0,0,4.84-4.24,39.28,39.28,0,0,1,4.84-4.25,7.55,7.55,0,0,1,9.68,0,40.67,40.67,0,0,1,4.84,4.24,39.16,39.16,0,0,0,4.84,4.24,7.53,7.53,0,0,0,9.68,0,40.67,40.67,0,0,0,4.84-4.24,39.16,39.16,0,0,1,4.84-4.24,7.53,7.53,0,0,1,9.68,0,39.9,39.9,0,0,1,4.84,4.24,39.9,39.9,0,0,0,4.84,4.24,7.53,7.53,0,0,0,9.68,0A40.67,40.67,0,0,0,419,17.57a39.16,39.16,0,0,1,4.84-4.24,7.54,7.54,0,0,1,9.68,0,40.67,40.67,0,0,1,4.84,4.24,39.16,39.16,0,0,0,4.84,4.24,7.53,7.53,0,0,0,9.68,0,40.67,40.67,0,0,0,4.84-4.24,39.16,39.16,0,0,1,4.84-4.24,7.53,7.53,0,0,1,9.68,0,39.84,39.84,0,0,1,4.83,4.24,40.67,40.67,0,0,0,4.84,4.24,7.54,7.54,0,0,0,9.68,0,39.16,39.16,0,0,0,4.84-4.24,40.67,40.67,0,0,1,4.84-4.24,7.54,7.54,0,0,1,9.68,0,39.16,39.16,0,0,1,4.84,4.24,40.67,40.67,0,0,0,4.84,4.24,7.54,7.54,0,0,0,9.68,0,39.16,39.16,0,0,0,4.84-4.24A40.67,40.67,0,0,1,540,13.33a7.54,7.54,0,0,1,9.68,0,39.9,39.9,0,0,1,4.84,4.24,39.9,39.9,0,0,0,4.84,4.24,7.53,7.53,0,0,0,9.68,0,39.9,39.9,0,0,0,4.84-4.24,39.9,39.9,0,0,1,4.84-4.24,7.53,7.53,0,0,1,9.68,0,39.9,39.9,0,0,1,4.84,4.24,39.9,39.9,0,0,0,4.84,4.24,7.54,7.54,0,0,0,9.68,0,39.9,39.9,0,0,0,4.84-4.24,39.9,39.9,0,0,1,4.84-4.24,7.54,7.54,0,0,1,9.68,0,40.67,40.67,0,0,1,4.84,4.24,39.16,39.16,0,0,0,4.84,4.24,7.54,7.54,0,0,0,9.68,0,40.67,40.67,0,0,0,4.84-4.24,39.16,39.16,0,0,1,4.84-4.24A8.62,8.62,0,0,1,661,11.57Z" fill="none"/></clipPath><linearGradient id="linear-gradient" x1="597" y1="61.05" x2="597" y2="82.97" gradientUnits="userSpaceOnUse"><stop offset="0" stop-color="#ebe9ec"/><stop offset="0.28" stop-color="#e5e6e9"/><stop offset="1" stop-color="#dadfe2"/></linearGradient></defs><title>dialogs-dont-show-this-again</title><g id="SPEC_text"><g clip-path="url(#clip-path)"><polygon points="109 -173.08 109 50.96 653.99 50.96 653.99 -173 109 -173.08" fill="#eef0ef"/><rect x="110" y="-186" width="545" height="222" fill="#eef0ef"/><rect x="109" y="50" width="543" height="44" fill="#e1e3e4"/><path d="M105-197V98H656V-197ZM652,94H109V-168H652Z" fill="#4d5359"/><rect x="109" y="49" width="543" height="1" fill="#a8abae"/><rect x="563" y="60.99" width="68" height="22.01" fill="url(#linear-gradient)"/><path d="M562,60V84h70V60Zm69,23H563V61h68Z" fill="#a8abae"/><path d="M589.45,75.65a4.93,4.93,0,0,1-2.32.49A3.74,3.74,0,0,1,584.26,75a4.26,4.26,0,0,1-1.08-3,4.46,4.46,0,0,1,1.21-3.26,4.12,4.12,0,0,1,3.08-1.24,4.93,4.93,0,0,1,2,.35v1a4,4,0,0,0-2-.5,3.06,3.06,0,0,0-2.35,1,3.64,3.64,0,0,0-.9,2.58,3.47,3.47,0,0,0,.84,2.45,2.86,2.86,0,0,0,2.21.91,4.14,4.14,0,0,0,2.19-.56Z" fill="#4d5359"/><path d="M592,76h-1V67.12h1Z" fill="#4d5359"/><path d="M596.45,76.14a2.78,2.78,0,0,1-2.12-.84,3.11,3.11,0,0,1-.79-2.23,3.24,3.24,0,0,1,.83-2.36,3,3,0,0,1,2.23-.85,2.69,2.69,0,0,1,2.09.83,3.28,3.28,0,0,1,.75,2.29,3.22,3.22,0,0,1-.81,2.3A2.84,2.84,0,0,1,596.45,76.14Zm.07-5.47a1.83,1.83,0,0,0-1.46.63,2.59,2.59,0,0,0-.54,1.74,2.45,2.45,0,0,0,.54,1.68,1.85,1.85,0,0,0,1.46.62,1.76,1.76,0,0,0,1.43-.6,2.62,2.62,0,0,0,.5-1.72,2.66,2.66,0,0,0-.5-1.73A1.75,1.75,0,0,0,596.52,70.67Z" fill="#4d5359"/><path d="M600.61,75.78v-1a2.84,2.84,0,0,0,1.73.58q1.27,0,1.27-.84a.73.73,0,0,0-.11-.41,1.08,1.08,0,0,0-.29-.3,2.26,2.26,0,0,0-.43-.23l-.54-.21a6.9,6.9,0,0,1-.7-.32,2.12,2.12,0,0,1-.5-.36,1.35,1.35,0,0,1-.3-.46,1.63,1.63,0,0,1-.1-.6,1.43,1.43,0,0,1,.19-.75,1.71,1.71,0,0,1,.52-.54,2.4,2.4,0,0,1,.74-.33,3.26,3.26,0,0,1,.85-.11,3.44,3.44,0,0,1,1.39.27v1a2.72,2.72,0,0,0-1.52-.43,1.78,1.78,0,0,0-.49.06,1.19,1.19,0,0,0-.37.17.8.8,0,0,0-.24.27.7.7,0,0,0-.08.34.82.82,0,0,0,.08.39.86.86,0,0,0,.25.28,1.9,1.9,0,0,0,.4.22l.53.22a7.42,7.42,0,0,1,.71.31,2.45,2.45,0,0,1,.54.36,1.42,1.42,0,0,1,.34.47,1.5,1.5,0,0,1,.12.63,1.48,1.48,0,0,1-.2.77,1.68,1.68,0,0,1-.52.54,2.4,2.4,0,0,1-.76.32,3.73,3.73,0,0,1-.9.11A3.4,3.4,0,0,1,600.61,75.78Z" fill="#4d5359"/><path d="M610.89,73.24h-4.24a2.24,2.24,0,0,0,.54,1.55,1.86,1.86,0,0,0,1.42.54,3,3,0,0,0,1.86-.67v.9a3.48,3.48,0,0,1-2.09.57,2.54,2.54,0,0,1-2-.82,3.35,3.35,0,0,1-.73-2.3,3.28,3.28,0,0,1,.79-2.28,2.55,2.55,0,0,1,2-.88,2.26,2.26,0,0,1,1.82.76,3.18,3.18,0,0,1,.64,2.12Zm-1-.81a2,2,0,0,0-.4-1.29,1.37,1.37,0,0,0-1.1-.46,1.55,1.55,0,0,0-1.15.49,2.21,2.21,0,0,0-.59,1.27Z" fill="#4d5359"/></g><rect x="109.5" y="103" width="19" height="1" fill="#ec008c"/><rect x="128" y="73" width="1" height="34" fill="#ec008c"/><rect x="109" y="73" width="1" height="34" fill="#ec008c"/><rect x="135" y="50" width="1" height="15" fill="#ec008c"/><rect x="132" y="65" width="7" height="1" fill="#ec008c"/><rect x="132" y="50" width="7" height="1" fill="#ec008c"/><path d="M143.89,61H143V54.35a2.07,2.07,0,0,1-.3.23,4.94,4.94,0,0,1-.44.26l-.52.24a3.74,3.74,0,0,1-.53.18v-.89a5.22,5.22,0,0,0,.62-.22c.22-.09.43-.19.64-.31s.41-.23.59-.35a4.57,4.57,0,0,0,.48-.36h.33Z" fill="#ec008c"/><path d="M151.42,58.56a2.85,2.85,0,0,1-.18,1,2.5,2.5,0,0,1-.5.82,2.25,2.25,0,0,1-.77.53,2.42,2.42,0,0,1-1,.19,2.13,2.13,0,0,1-1.82-.94,3.35,3.35,0,0,1-.49-1.11,6,6,0,0,1-.17-1.48,7,7,0,0,1,.22-1.82,4.41,4.41,0,0,1,.63-1.4,2.92,2.92,0,0,1,1-.9,2.65,2.65,0,0,1,1.29-.32,3.11,3.11,0,0,1,1.28.22v.83a2.71,2.71,0,0,0-1.26-.31,1.88,1.88,0,0,0-.93.23,2.14,2.14,0,0,0-.71.65,3.2,3.2,0,0,0-.45,1,5.17,5.17,0,0,0-.16,1.33h0a1.85,1.85,0,0,1,1.76-1,2.31,2.31,0,0,1,.91.17,2,2,0,0,1,.69.49,2.21,2.21,0,0,1,.44.75A2.86,2.86,0,0,1,151.42,58.56Zm-.9.11a2.39,2.39,0,0,0-.1-.73,1.56,1.56,0,0,0-.29-.55,1.26,1.26,0,0,0-.47-.35,1.58,1.58,0,0,0-.63-.12,1.48,1.48,0,0,0-.61.12,1.51,1.51,0,0,0-.48.34,1.58,1.58,0,0,0-.44,1.09,2.38,2.38,0,0,0,.11.74,1.92,1.92,0,0,0,.32.6,1.52,1.52,0,0,0,.49.41,1.33,1.33,0,0,0,.63.15,1.42,1.42,0,0,0,.61-.13,1.34,1.34,0,0,0,.47-.35,1.62,1.62,0,0,0,.3-.54A2.14,2.14,0,0,0,150.52,58.67Z" fill="#ec008c"/><rect x="135" y="78" width="1" height="16" fill="#ec008c"/><rect x="132" y="93" width="7" height="1" fill="#ec008c"/><rect x="132" y="78" width="7" height="1" fill="#ec008c"/><path d="M143.89,91H143V84.35a2.07,2.07,0,0,1-.3.23,4.94,4.94,0,0,1-.44.26l-.52.24a3.74,3.74,0,0,1-.53.18v-.89a5.22,5.22,0,0,0,.62-.22c.22-.09.43-.19.64-.31s.41-.23.59-.35a4.57,4.57,0,0,0,.48-.36h.33Z" fill="#ec008c"/><path d="M151.42,88.56a2.85,2.85,0,0,1-.18,1,2.5,2.5,0,0,1-.5.82,2.25,2.25,0,0,1-.77.53,2.42,2.42,0,0,1-1,.19,2.13,2.13,0,0,1-1.82-.94,3.35,3.35,0,0,1-.49-1.11,6,6,0,0,1-.17-1.48,7,7,0,0,1,.22-1.82,4.41,4.41,0,0,1,.63-1.4,2.92,2.92,0,0,1,1-.9,2.65,2.65,0,0,1,1.29-.32,3.11,3.11,0,0,1,1.28.22v.83a2.71,2.71,0,0,0-1.26-.31,1.88,1.88,0,0,0-.93.23,2.14,2.14,0,0,0-.71.65,3.2,3.2,0,0,0-.45,1,5.17,5.17,0,0,0-.16,1.33h0a1.85,1.85,0,0,1,1.76-1,2.31,2.31,0,0,1,.91.17,2,2,0,0,1,.69.49,2.21,2.21,0,0,1,.44.75A2.86,2.86,0,0,1,151.42,88.56Zm-.9.11a2.39,2.39,0,0,0-.1-.73,1.56,1.56,0,0,0-.29-.55,1.26,1.26,0,0,0-.47-.35,1.58,1.58,0,0,0-.63-.12,1.48,1.48,0,0,0-.61.12,1.51,1.51,0,0,0-.48.34,1.58,1.58,0,0,0-.44,1.09,2.38,2.38,0,0,0,.11.74,1.92,1.92,0,0,0,.32.6,1.52,1.52,0,0,0,.49.41,1.33,1.33,0,0,0,.63.15,1.42,1.42,0,0,0,.61-.13,1.34,1.34,0,0,0,.47-.35,1.62,1.62,0,0,0,.3-.54A2.14,2.14,0,0,0,150.52,88.67Z" fill="#ec008c"/><path d="M147.1,76V67.6h2.32q4.44,0,4.44,4.1a4.13,4.13,0,0,1-1.23,3.13,4.58,4.58,0,0,1-3.3,1.18Zm1-7.51v6.62h1.25a3.56,3.56,0,0,0,2.57-.88,3.32,3.32,0,0,0,.92-2.51q0-3.23-3.43-3.23Z" fill="#4d5359"/><path d="M157.89,76.14a2.78,2.78,0,0,1-2.12-.84,3.11,3.11,0,0,1-.79-2.23,3.24,3.24,0,0,1,.83-2.36,3,3,0,0,1,2.23-.85,2.69,2.69,0,0,1,2.09.83,3.28,3.28,0,0,1,.75,2.29,3.22,3.22,0,0,1-.81,2.3A2.84,2.84,0,0,1,157.89,76.14Zm.07-5.47a1.83,1.83,0,0,0-1.46.63A2.59,2.59,0,0,0,156,73a2.45,2.45,0,0,0,.54,1.68,1.85,1.85,0,0,0,1.46.62,1.76,1.76,0,0,0,1.43-.6,2.62,2.62,0,0,0,.5-1.72,2.66,2.66,0,0,0-.5-1.73A1.75,1.75,0,0,0,158,70.67Z" fill="#4d5359"/><path d="M167.4,76h-1V72.58q0-1.91-1.39-1.91a1.51,1.51,0,0,0-1.19.54,2,2,0,0,0-.47,1.37V76h-1V70h1v1h0a2.17,2.17,0,0,1,2-1.14,1.84,1.84,0,0,1,1.51.64,2.83,2.83,0,0,1,.52,1.84Z" fill="#4d5359"/><path d="M170.39,67.46l-.82,2.61h-.69l.65-2.61Z" fill="#4d5359"/><path d="M174.74,75.94a1.85,1.85,0,0,1-.9.19q-1.58,0-1.58-1.76V70.82h-1V70h1V68.54l1-.31V70h1.51v.82h-1.51V74.2a1.4,1.4,0,0,0,.21.86.82.82,0,0,0,.68.26,1,1,0,0,0,.63-.2Z" fill="#4d5359"/><path d="M178.95,75.78v-1a2.84,2.84,0,0,0,1.73.58q1.27,0,1.27-.84a.73.73,0,0,0-.11-.41,1.08,1.08,0,0,0-.29-.3,2.26,2.26,0,0,0-.43-.23l-.54-.21a6.9,6.9,0,0,1-.7-.32,2.12,2.12,0,0,1-.5-.36,1.35,1.35,0,0,1-.3-.46,1.63,1.63,0,0,1-.1-.6,1.43,1.43,0,0,1,.19-.75,1.71,1.71,0,0,1,.52-.54,2.4,2.4,0,0,1,.74-.33,3.26,3.26,0,0,1,.85-.11,3.44,3.44,0,0,1,1.39.27v1a2.72,2.72,0,0,0-1.52-.43,1.78,1.78,0,0,0-.49.06,1.19,1.19,0,0,0-.37.17.8.8,0,0,0-.24.27.7.7,0,0,0-.08.34.82.82,0,0,0,.08.39.86.86,0,0,0,.25.28,1.9,1.9,0,0,0,.4.22l.53.22a7.42,7.42,0,0,1,.71.31,2.45,2.45,0,0,1,.54.36,1.42,1.42,0,0,1,.34.47,1.5,1.5,0,0,1,.12.63,1.48,1.48,0,0,1-.2.77,1.68,1.68,0,0,1-.52.54,2.4,2.4,0,0,1-.76.32,3.73,3.73,0,0,1-.9.11A3.4,3.4,0,0,1,178.95,75.78Z" fill="#4d5359"/><path d="M189.38,76h-1V72.54q0-1.87-1.39-1.87a1.52,1.52,0,0,0-1.18.54,2,2,0,0,0-.48,1.39V76h-1V67.12h1V71h0a2.18,2.18,0,0,1,2-1.14q2,0,2,2.44Z" fill="#4d5359"/><path d="M193.7,76.14a2.78,2.78,0,0,1-2.12-.84,3.11,3.11,0,0,1-.79-2.23,3.24,3.24,0,0,1,.83-2.36,3,3,0,0,1,2.23-.85,2.69,2.69,0,0,1,2.09.83,3.28,3.28,0,0,1,.75,2.29,3.22,3.22,0,0,1-.81,2.3A2.84,2.84,0,0,1,193.7,76.14Zm.07-5.47a1.83,1.83,0,0,0-1.46.63,2.59,2.59,0,0,0-.54,1.74,2.45,2.45,0,0,0,.54,1.68,1.85,1.85,0,0,0,1.46.62,1.76,1.76,0,0,0,1.43-.6,2.62,2.62,0,0,0,.5-1.72,2.66,2.66,0,0,0-.5-1.73A1.75,1.75,0,0,0,193.77,70.67Z" fill="#4d5359"/><path d="M205.78,70,204,76h-1l-1.24-4.29a2.8,2.8,0,0,1-.09-.56h0a2.63,2.63,0,0,1-.12.54L200.17,76h-1l-1.82-6h1l1.24,4.51a2.72,2.72,0,0,1,.08.54h0a2.52,2.52,0,0,1,.11-.55l1.38-4.5h.88l1.24,4.52a3.23,3.23,0,0,1,.09.54h0a2.49,2.49,0,0,1,.1-.54L204.83,70Z" fill="#4d5359"/><path d="M213,75.94a1.85,1.85,0,0,1-.9.19q-1.58,0-1.58-1.76V70.82h-1V70h1V68.54l1-.31V70H213v.82h-1.51V74.2a1.4,1.4,0,0,0,.21.86.82.82,0,0,0,.68.26,1,1,0,0,0,.63-.2Z" fill="#4d5359"/><path d="M219.23,76h-1V72.54q0-1.87-1.39-1.87a1.52,1.52,0,0,0-1.18.54,2,2,0,0,0-.48,1.39V76h-1V67.12h1V71h0a2.18,2.18,0,0,1,2-1.14q2,0,2,2.44Z" fill="#4d5359"/><path d="M221.53,68.48a.61.61,0,0,1-.44-.18.59.59,0,0,1-.18-.45.62.62,0,0,1,.62-.63.62.62,0,0,1,.45.18.63.63,0,0,1,0,.89A.62.62,0,0,1,221.53,68.48ZM222,76h-1V70h1Z" fill="#4d5359"/><path d="M223.58,75.78v-1a2.84,2.84,0,0,0,1.73.58q1.27,0,1.27-.84a.73.73,0,0,0-.11-.41,1.08,1.08,0,0,0-.29-.3,2.26,2.26,0,0,0-.43-.23l-.54-.21a6.9,6.9,0,0,1-.7-.32,2.12,2.12,0,0,1-.5-.36,1.35,1.35,0,0,1-.3-.46,1.63,1.63,0,0,1-.1-.6,1.43,1.43,0,0,1,.19-.75,1.71,1.71,0,0,1,.52-.54A2.4,2.4,0,0,1,225,70a3.26,3.26,0,0,1,.85-.11,3.44,3.44,0,0,1,1.39.27v1a2.72,2.72,0,0,0-1.52-.43,1.78,1.78,0,0,0-.49.06,1.19,1.19,0,0,0-.37.17.8.8,0,0,0-.24.27.7.7,0,0,0-.08.34.82.82,0,0,0,.08.39.86.86,0,0,0,.25.28,1.9,1.9,0,0,0,.4.22l.53.22a7.42,7.42,0,0,1,.71.31,2.45,2.45,0,0,1,.54.36,1.42,1.42,0,0,1,.34.47,1.5,1.5,0,0,1,.12.63,1.48,1.48,0,0,1-.2.77,1.68,1.68,0,0,1-.52.54,2.4,2.4,0,0,1-.76.32,3.73,3.73,0,0,1-.9.11A3.4,3.4,0,0,1,223.58,75.78Z" fill="#4d5359"/><path d="M240.85,76h-1V72.55a2.6,2.6,0,0,0-.31-1.44,1.17,1.17,0,0,0-1-.45,1.28,1.28,0,0,0-1,.56,2.15,2.15,0,0,0-.43,1.35V76h-1V72.44q0-1.77-1.37-1.77a1.26,1.26,0,0,0-1,.53,2.19,2.19,0,0,0-.41,1.38V76h-1V70h1v.95h0a2,2,0,0,1,1.86-1.09,1.73,1.73,0,0,1,1.7,1.24,2.14,2.14,0,0,1,2-1.24q2,0,2,2.44Z" fill="#4d5359"/><path d="M247.48,73.24h-4.24a2.24,2.24,0,0,0,.54,1.55,1.86,1.86,0,0,0,1.42.54,3,3,0,0,0,1.86-.67v.9a3.48,3.48,0,0,1-2.09.57,2.54,2.54,0,0,1-2-.82,3.35,3.35,0,0,1-.73-2.3,3.28,3.28,0,0,1,.79-2.28,2.55,2.55,0,0,1,2-.88,2.26,2.26,0,0,1,1.82.76,3.18,3.18,0,0,1,.64,2.12Zm-1-.81a2,2,0,0,0-.4-1.29,1.37,1.37,0,0,0-1.1-.46,1.55,1.55,0,0,0-1.15.49,2.21,2.21,0,0,0-.59,1.27Z" fill="#4d5359"/><path d="M248.57,75.78v-1a2.84,2.84,0,0,0,1.73.58q1.27,0,1.27-.84a.73.73,0,0,0-.11-.41,1.08,1.08,0,0,0-.29-.3,2.26,2.26,0,0,0-.43-.23l-.54-.21a6.9,6.9,0,0,1-.7-.32,2.12,2.12,0,0,1-.5-.36,1.35,1.35,0,0,1-.3-.46,1.63,1.63,0,0,1-.1-.6,1.43,1.43,0,0,1,.19-.75,1.71,1.71,0,0,1,.52-.54A2.4,2.4,0,0,1,250,70a3.26,3.26,0,0,1,.85-.11,3.44,3.44,0,0,1,1.39.27v1a2.72,2.72,0,0,0-1.52-.43,1.78,1.78,0,0,0-.49.06,1.19,1.19,0,0,0-.37.17.8.8,0,0,0-.24.27.7.7,0,0,0-.08.34.82.82,0,0,0,.08.39.86.86,0,0,0,.25.28,1.9,1.9,0,0,0,.4.22l.53.22a7.42,7.42,0,0,1,.71.31,2.45,2.45,0,0,1,.54.36,1.42,1.42,0,0,1,.34.47,1.5,1.5,0,0,1,.12.63,1.48,1.48,0,0,1-.2.77,1.68,1.68,0,0,1-.52.54,2.4,2.4,0,0,1-.76.32,3.73,3.73,0,0,1-.9.11A3.4,3.4,0,0,1,248.57,75.78Z" fill="#4d5359"/><path d="M253.67,75.78v-1a2.84,2.84,0,0,0,1.73.58q1.27,0,1.27-.84a.73.73,0,0,0-.11-.41,1.08,1.08,0,0,0-.29-.3,2.26,2.26,0,0,0-.43-.23l-.54-.21a6.9,6.9,0,0,1-.7-.32,2.12,2.12,0,0,1-.5-.36,1.35,1.35,0,0,1-.3-.46,1.63,1.63,0,0,1-.1-.6,1.43,1.43,0,0,1,.19-.75,1.71,1.71,0,0,1,.52-.54,2.4,2.4,0,0,1,.74-.33,3.26,3.26,0,0,1,.85-.11,3.44,3.44,0,0,1,1.39.27v1a2.72,2.72,0,0,0-1.52-.43,1.78,1.78,0,0,0-.49.06,1.19,1.19,0,0,0-.37.17.8.8,0,0,0-.24.27.7.7,0,0,0-.08.34.82.82,0,0,0,.08.39.86.86,0,0,0,.25.28,1.9,1.9,0,0,0,.4.22l.53.22a7.42,7.42,0,0,1,.71.31,2.45,2.45,0,0,1,.54.36,1.42,1.42,0,0,1,.34.47,1.5,1.5,0,0,1,.12.63,1.48,1.48,0,0,1-.2.77,1.68,1.68,0,0,1-.52.54,2.4,2.4,0,0,1-.76.32,3.73,3.73,0,0,1-.9.11A3.4,3.4,0,0,1,253.67,75.78Z" fill="#4d5359"/><path d="M263.42,76h-1v-.94h0a2,2,0,0,1-1.85,1.08,2,2,0,0,1-1.4-.47,1.64,1.64,0,0,1-.51-1.26q0-1.68,2-2l1.8-.25q0-1.53-1.24-1.53a3,3,0,0,0-2,.74v-1a3.72,3.72,0,0,1,2-.56q2.12,0,2.12,2.24Zm-1-3-1.45.2a2.35,2.35,0,0,0-1,.33,1,1,0,0,0-.34.84.92.92,0,0,0,.31.72,1.21,1.21,0,0,0,.83.28,1.54,1.54,0,0,0,1.18-.5,1.79,1.79,0,0,0,.47-1.27Z" fill="#4d5359"/><path d="M270.35,75.52q0,3.3-3.16,3.3a4.25,4.25,0,0,1-1.95-.42v-1a4,4,0,0,0,1.93.56q2.21,0,2.21-2.36V75h0a2.43,2.43,0,0,1-3.86.35,3.2,3.2,0,0,1-.68-2.15,3.74,3.74,0,0,1,.74-2.43,2.46,2.46,0,0,1,2-.9,2,2,0,0,1,1.8,1h0V70h1Zm-1-2.23V72.4a1.72,1.72,0,0,0-.48-1.22,1.59,1.59,0,0,0-1.2-.51,1.67,1.67,0,0,0-1.39.65,2.89,2.89,0,0,0-.5,1.81,2.48,2.48,0,0,0,.48,1.6,1.56,1.56,0,0,0,1.28.6,1.67,1.67,0,0,0,1.32-.57A2.14,2.14,0,0,0,269.39,73.29Z" fill="#4d5359"/><path d="M277.12,73.24h-4.24a2.24,2.24,0,0,0,.54,1.55,1.86,1.86,0,0,0,1.42.54,3,3,0,0,0,1.86-.67v.9a3.48,3.48,0,0,1-2.09.57,2.54,2.54,0,0,1-2-.82,3.35,3.35,0,0,1-.73-2.3,3.28,3.28,0,0,1,.79-2.28,2.55,2.55,0,0,1,2-.88,2.26,2.26,0,0,1,1.82.76,3.18,3.18,0,0,1,.64,2.12Zm-1-.81a2,2,0,0,0-.4-1.29,1.37,1.37,0,0,0-1.1-.46,1.55,1.55,0,0,0-1.15.49,2.21,2.21,0,0,0-.59,1.27Z" fill="#4d5359"/><path d="M286.15,76h-1v-.94h0a2,2,0,0,1-1.85,1.08,2,2,0,0,1-1.4-.47,1.64,1.64,0,0,1-.51-1.26q0-1.68,2-2l1.8-.25q0-1.53-1.24-1.53a3,3,0,0,0-2,.74v-1a3.72,3.72,0,0,1,2-.56q2.12,0,2.12,2.24Zm-1-3-1.45.2a2.35,2.35,0,0,0-1,.33,1,1,0,0,0-.34.84.92.92,0,0,0,.31.72,1.21,1.21,0,0,0,.83.28,1.54,1.54,0,0,0,1.18-.5,1.79,1.79,0,0,0,.47-1.27Z" fill="#4d5359"/><path d="M293.08,75.52q0,3.3-3.16,3.3A4.25,4.25,0,0,1,288,78.4v-1a4,4,0,0,0,1.93.56q2.21,0,2.21-2.36V75h0a2.43,2.43,0,0,1-3.86.35,3.2,3.2,0,0,1-.68-2.15,3.74,3.74,0,0,1,.74-2.43,2.46,2.46,0,0,1,2-.9,2,2,0,0,1,1.8,1h0V70h1Zm-1-2.23V72.4a1.72,1.72,0,0,0-.48-1.22,1.59,1.59,0,0,0-1.2-.51,1.67,1.67,0,0,0-1.39.65,2.89,2.89,0,0,0-.5,1.81,2.48,2.48,0,0,0,.48,1.6,1.56,1.56,0,0,0,1.28.6,1.67,1.67,0,0,0,1.32-.57A2.14,2.14,0,0,0,292.12,73.29Z" fill="#4d5359"/><path d="M299.32,76h-1v-.94h0a2,2,0,0,1-1.85,1.08,2,2,0,0,1-1.4-.47,1.64,1.64,0,0,1-.51-1.26q0-1.68,2-2l1.8-.25q0-1.53-1.24-1.53a3,3,0,0,0-2,.74v-1a3.72,3.72,0,0,1,2-.56q2.12,0,2.12,2.24Zm-1-3-1.45.2a2.35,2.35,0,0,0-1,.33,1,1,0,0,0-.34.84.92.92,0,0,0,.31.72,1.21,1.21,0,0,0,.83.28,1.54,1.54,0,0,0,1.18-.5,1.79,1.79,0,0,0,.47-1.27Z" fill="#4d5359"/><path d="M301.63,68.48a.61.61,0,0,1-.44-.18.59.59,0,0,1-.18-.45.62.62,0,0,1,.62-.63.62.62,0,0,1,.45.18.63.63,0,0,1,0,.89A.62.62,0,0,1,301.63,68.48Zm.47,7.52h-1V70h1Z" fill="#4d5359"/><path d="M309,76h-1V72.58q0-1.91-1.39-1.91a1.51,1.51,0,0,0-1.19.54,2,2,0,0,0-.47,1.37V76h-1V70h1v1h0a2.17,2.17,0,0,1,2-1.14,1.84,1.84,0,0,1,1.51.64,2.83,2.83,0,0,1,.52,1.84Z" fill="#4d5359"/><rect x="130" y="67" width="10" height="10" fill="#fff"/><path d="M129,78h12V66H129Zm11-1H130V67h10Z" fill="#575757"/><path d="M105,21.33c2,0,2.64-2.25,4.26-3.82a39.16,39.16,0,0,1,4.84-4.24,7.54,7.54,0,0,1,9.68,0,40.67,40.67,0,0,1,4.84,4.24,39.28,39.28,0,0,0,4.84,4.25,7.55,7.55,0,0,0,9.67,0A40,40,0,0,0,148,17.52a39.16,39.16,0,0,1,4.84-4.24,7.53,7.53,0,0,1,9.68,0,39.84,39.84,0,0,1,4.83,4.24,41.72,41.72,0,0,0,4.84,4.25,7.57,7.57,0,0,0,9.68,0,39.16,39.16,0,0,0,4.84-4.24,40.67,40.67,0,0,1,4.84-4.24,7.54,7.54,0,0,1,9.68,0A39.16,39.16,0,0,1,206,17.53a41.72,41.72,0,0,0,4.84,4.25,7.57,7.57,0,0,0,9.68,0,39.9,39.9,0,0,0,4.84-4.24,40.67,40.67,0,0,1,4.84-4.24,7.53,7.53,0,0,1,9.68,0,39.16,39.16,0,0,1,4.84,4.24,40.91,40.91,0,0,0,4.84,4.25,7.57,7.57,0,0,0,9.68,0,39.9,39.9,0,0,0,4.84-4.24A39.9,39.9,0,0,1,269,13.31a7.54,7.54,0,0,1,9.68,0,39.9,39.9,0,0,1,4.84,4.24,40.13,40.13,0,0,0,4.84,4.25,7.57,7.57,0,0,0,9.68,0,40.67,40.67,0,0,0,4.84-4.24,40.91,40.91,0,0,1,4.84-4.25,7.55,7.55,0,0,1,9.68,0,40.67,40.67,0,0,1,4.84,4.24A39.16,39.16,0,0,0,327,21.8a8.55,8.55,0,0,0,4.84,1.76,8.66,8.66,0,0,0,4.84-1.75,40.67,40.67,0,0,0,4.84-4.24,39.28,39.28,0,0,1,4.84-4.25,7.55,7.55,0,0,1,9.68,0,40.67,40.67,0,0,1,4.84,4.24,39.16,39.16,0,0,0,4.84,4.24,7.53,7.53,0,0,0,9.68,0,40.67,40.67,0,0,0,4.84-4.24,39.16,39.16,0,0,1,4.84-4.24,7.53,7.53,0,0,1,9.68,0,39.9,39.9,0,0,1,4.84,4.24,39.9,39.9,0,0,0,4.84,4.24,7.53,7.53,0,0,0,9.68,0A40.67,40.67,0,0,0,419,17.57a39.16,39.16,0,0,1,4.84-4.24,7.54,7.54,0,0,1,9.68,0,40.67,40.67,0,0,1,4.84,4.24,39.16,39.16,0,0,0,4.84,4.24,7.53,7.53,0,0,0,9.68,0,40.67,40.67,0,0,0,4.84-4.24,39.16,39.16,0,0,1,4.84-4.24,7.53,7.53,0,0,1,9.68,0,39.84,39.84,0,0,1,4.83,4.24,40.67,40.67,0,0,0,4.84,4.24,7.54,7.54,0,0,0,9.68,0,39.16,39.16,0,0,0,4.84-4.24,40.67,40.67,0,0,1,4.84-4.24,7.54,7.54,0,0,1,9.68,0,39.16,39.16,0,0,1,4.84,4.24,40.67,40.67,0,0,0,4.84,4.24,7.54,7.54,0,0,0,9.68,0,39.16,39.16,0,0,0,4.84-4.24A40.67,40.67,0,0,1,540,13.33a7.54,7.54,0,0,1,9.68,0,39.9,39.9,0,0,1,4.84,4.24,39.9,39.9,0,0,0,4.84,4.24,7.53,7.53,0,0,0,9.68,0,39.9,39.9,0,0,0,4.84-4.24,39.9,39.9,0,0,1,4.84-4.24,7.53,7.53,0,0,1,9.68,0,39.9,39.9,0,0,1,4.84,4.24,39.9,39.9,0,0,0,4.84,4.24,7.54,7.54,0,0,0,9.68,0,39.9,39.9,0,0,0,4.84-4.24,39.9,39.9,0,0,1,4.84-4.24,7.54,7.54,0,0,1,9.68,0,40.67,40.67,0,0,1,4.84,4.24,39.16,39.16,0,0,0,4.84,4.24,7.54,7.54,0,0,0,9.68,0,40.67,40.67,0,0,0,4.84-4.24c1.61-1.57,2.88-4.24,4.84-4.24" fill="none" stroke="#adaead" stroke-miterlimit="10"/><path d="M117.29,110.32a1.59,1.59,0,0,0-.11-.62,1.19,1.19,0,0,0-.75-.7,1.76,1.76,0,0,0-.56-.09,1.86,1.86,0,0,0-.5.07,2.41,2.41,0,0,0-.48.19,2.91,2.91,0,0,0-.45.3,3.21,3.21,0,0,0-.41.38v-.95a2.63,2.63,0,0,1,.83-.55,2.93,2.93,0,0,1,1.12-.19,2.71,2.71,0,0,1,.88.14,2,2,0,0,1,.7.4,1.85,1.85,0,0,1,.46.65,2.18,2.18,0,0,1,.17.89,3,3,0,0,1-.1.83,2.54,2.54,0,0,1-.32.7,3.38,3.38,0,0,1-.53.63,7.53,7.53,0,0,1-.76.61l-.89.66a4,4,0,0,0-.56.51,1.5,1.5,0,0,0-.29.48,1.67,1.67,0,0,0-.08.55h3.83V116h-4.75v-.38a3.15,3.15,0,0,1,.11-.87,2.27,2.27,0,0,1,.35-.71,4,4,0,0,1,.65-.68q.4-.34,1-.76a6.26,6.26,0,0,0,.7-.57,3,3,0,0,0,.45-.55,2,2,0,0,0,.24-.56A2.41,2.41,0,0,0,117.29,110.32Z" fill="#ec008c"/><path d="M124.55,112.12a7.57,7.57,0,0,1-.17,1.71,4,4,0,0,1-.5,1.26,2.26,2.26,0,0,1-.81.78,2.22,2.22,0,0,1-1.09.27,2.07,2.07,0,0,1-1-.26,2.17,2.17,0,0,1-.77-.74,3.76,3.76,0,0,1-.47-1.2,7.42,7.42,0,0,1-.16-1.63,8.43,8.43,0,0,1,.17-1.78,4.08,4.08,0,0,1,.5-1.3,2.21,2.21,0,0,1,.81-.79,2.29,2.29,0,0,1,1.12-.27Q124.55,108.17,124.55,112.12Zm-.9.09q0-3.29-1.56-3.29t-1.65,3.35q0,3.12,1.62,3.12T123.65,112.2Z" fill="#ec008c"/></g></svg>