<svg xmlns="http://www.w3.org/2000/svg" xmlns:xlink="http://www.w3.org/1999/xlink" width="760" height="295" viewBox="0 0 760 295"><defs><linearGradient id="linear-gradient" x1="502" y1="258.05" x2="502" y2="279.97" gradientUnits="userSpaceOnUse"><stop offset="0" stop-color="#ebe9ec"/><stop offset="0.28" stop-color="#e5e6e9"/><stop offset="1" stop-color="#dadfe2"/></linearGradient></defs><title>dialogs-layout-overview</title><g id="SPEC_text"><polygon points="109 23.92 109 247.96 653.99 247.96 653.99 24 109 23.92" fill="#eef0ef"/><rect x="110" y="11" width="545" height="222" fill="#eef0ef"/><rect x="109" y="247" width="543" height="44" fill="#e1e3e4"/><path d="M105,0V295H656V0ZM652,291H109V29H652Z" fill="#4c5358"/><rect x="109" y="246" width="543" height="1" fill="#a8abae"/><path d="M121.1,19V10.6h2.32q4.44,0,4.44,4.1a4.13,4.13,0,0,1-1.23,3.13,4.58,4.58,0,0,1-3.3,1.18Zm1-7.51v6.62h1.25a3.56,3.56,0,0,0,2.57-.88,3.32,3.32,0,0,0,.92-2.51q0-3.23-3.43-3.23Z" fill="#fff"/><path d="M129.88,11.48a.61.61,0,0,1-.44-.18.59.59,0,0,1-.18-.45.62.62,0,0,1,.62-.63.62.62,0,0,1,.45.18.63.63,0,0,1,0,.89A.62.62,0,0,1,129.88,11.48Zm.47,7.52h-1V13h1Z" fill="#fff"/><path d="M136.59,19h-1v-.94h0a2,2,0,0,1-1.85,1.08,2,2,0,0,1-1.4-.47,1.64,1.64,0,0,1-.51-1.26q0-1.68,2-2l1.8-.25q0-1.53-1.24-1.53a3,3,0,0,0-2,.74v-1a3.72,3.72,0,0,1,2-.56q2.12,0,2.12,2.24Zm-1-3-1.45.2a2.35,2.35,0,0,0-1,.33,1,1,0,0,0-.34.84.92.92,0,0,0,.31.72,1.21,1.21,0,0,0,.83.28,1.54,1.54,0,0,0,1.18-.5,1.79,1.79,0,0,0,.47-1.27Z" fill="#fff"/><path d="M139.36,19h-1V10.12h1Z" fill="#fff"/><path d="M143.81,19.14a2.78,2.78,0,0,1-2.12-.84,3.11,3.11,0,0,1-.79-2.23,3.24,3.24,0,0,1,.83-2.36,3,3,0,0,1,2.23-.85,2.69,2.69,0,0,1,2.09.83A3.28,3.28,0,0,1,146.8,16a3.22,3.22,0,0,1-.81,2.3A2.84,2.84,0,0,1,143.81,19.14Zm.07-5.47a1.83,1.83,0,0,0-1.46.63,2.59,2.59,0,0,0-.54,1.74,2.45,2.45,0,0,0,.54,1.68,1.85,1.85,0,0,0,1.46.62,1.76,1.76,0,0,0,1.43-.6,2.62,2.62,0,0,0,.5-1.72,2.66,2.66,0,0,0-.5-1.73A1.75,1.75,0,0,0,143.88,13.67Z" fill="#fff"/><path d="M153.46,18.52q0,3.3-3.16,3.3a4.25,4.25,0,0,1-1.95-.42v-1a4,4,0,0,0,1.93.56q2.21,0,2.21-2.36V18h0a2.43,2.43,0,0,1-3.86.35,3.2,3.2,0,0,1-.68-2.15,3.74,3.74,0,0,1,.74-2.43,2.46,2.46,0,0,1,2-.9,2,2,0,0,1,1.8,1h0V13h1Zm-1-2.23V15.4a1.72,1.72,0,0,0-.48-1.22,1.59,1.59,0,0,0-1.2-.51,1.67,1.67,0,0,0-1.39.65,2.89,2.89,0,0,0-.5,1.81,2.48,2.48,0,0,0,.48,1.6,1.56,1.56,0,0,0,1.28.6,1.67,1.67,0,0,0,1.32-.57A2.14,2.14,0,0,0,152.5,16.29Z" fill="#fff"/><path d="M163.79,11.49h-2.43V19h-1V11.49H158V10.6h5.83Z" fill="#fff"/><path d="M165.47,11.48a.61.61,0,0,1-.44-.18.59.59,0,0,1-.18-.45.62.62,0,0,1,.62-.63.62.62,0,0,1,.45.18.63.63,0,0,1,0,.89A.62.62,0,0,1,165.47,11.48Zm.47,7.52h-1V13h1Z" fill="#fff"/><path d="M170.67,18.94a1.85,1.85,0,0,1-.9.19q-1.58,0-1.58-1.76V13.82h-1V13h1V11.54l1-.31V13h1.51v.82h-1.51V17.2a1.4,1.4,0,0,0,.21.86.82.82,0,0,0,.68.26,1,1,0,0,0,.63-.2Z" fill="#fff"/><path d="M172.91,19h-1V10.12h1Z" fill="#fff"/><path d="M179.68,16.24h-4.24a2.24,2.24,0,0,0,.54,1.55,1.86,1.86,0,0,0,1.42.54,3,3,0,0,0,1.86-.67v.9a3.48,3.48,0,0,1-2.09.57,2.54,2.54,0,0,1-2-.82,3.35,3.35,0,0,1-.73-2.3,3.28,3.28,0,0,1,.79-2.28,2.55,2.55,0,0,1,2-.88,2.26,2.26,0,0,1,1.82.76,3.18,3.18,0,0,1,.64,2.12Zm-1-.81a2,2,0,0,0-.4-1.29,1.37,1.37,0,0,0-1.1-.46,1.55,1.55,0,0,0-1.15.49,2.21,2.21,0,0,0-.59,1.27Z" fill="#fff"/><polygon points="645.14 9.97 643.62 8.45 640.07 12 636.52 8.45 635 9.97 638.55 13.52 635 17.07 636.52 18.59 640.07 15.04 643.62 18.59 645.14 17.07 641.59 13.52 645.14 9.97" fill="#fff"/><rect x="463" y="257.99" width="78" height="22.01" fill="url(#linear-gradient)"/><path d="M462,257v24h80V257Zm79,23H463V258h78Z" fill="#a8abae"/><path d="M485.34,273v-8.4h2.39a2.61,2.61,0,0,1,1.73.53,1.72,1.72,0,0,1,.64,1.39,2,2,0,0,1-.39,1.24,2.09,2.09,0,0,1-1.07.75v0a2.14,2.14,0,0,1,1.36.64,2,2,0,0,1,.51,1.41,2.2,2.2,0,0,1-.77,1.75,2.88,2.88,0,0,1-2,.67Zm1-7.51v2.71h1a1.91,1.91,0,0,0,1.27-.39,1.36,1.36,0,0,0,.46-1.1q0-1.22-1.61-1.22Zm0,3.6v3h1.34a2,2,0,0,0,1.34-.41,1.4,1.4,0,0,0,.48-1.12q0-1.49-2-1.49Z" fill="#4d5359"/><path d="M496.94,273h-1v-.95h0a2,2,0,0,1-1.85,1.09q-2.14,0-2.14-2.55V267h1v3.43q0,1.9,1.45,1.9a1.47,1.47,0,0,0,1.16-.52,2,2,0,0,0,.45-1.36V267h1Z" fill="#4d5359"/><path d="M501.66,272.94a1.85,1.85,0,0,1-.9.19q-1.58,0-1.58-1.76v-3.55h-1V267h1v-1.46l1-.31V267h1.51v.82h-1.51v3.38a1.4,1.4,0,0,0,.21.86.82.82,0,0,0,.68.26,1,1,0,0,0,.63-.2Z" fill="#4d5359"/><path d="M505.73,272.94a1.85,1.85,0,0,1-.9.19q-1.58,0-1.58-1.76v-3.55h-1V267h1v-1.46l1-.31V267h1.51v.82h-1.51v3.38a1.4,1.4,0,0,0,.21.86.82.82,0,0,0,.68.26,1,1,0,0,0,.63-.2Z" fill="#4d5359"/><path d="M509.43,273.14a2.78,2.78,0,0,1-2.12-.84,3.11,3.11,0,0,1-.79-2.23,3.24,3.24,0,0,1,.83-2.36,3,3,0,0,1,2.23-.85,2.69,2.69,0,0,1,2.09.83,3.28,3.28,0,0,1,.75,2.29,3.22,3.22,0,0,1-.81,2.3A2.84,2.84,0,0,1,509.43,273.14Zm.07-5.47a1.83,1.83,0,0,0-1.46.63,2.59,2.59,0,0,0-.54,1.74,2.45,2.45,0,0,0,.54,1.68,1.85,1.85,0,0,0,1.46.62,1.76,1.76,0,0,0,1.43-.6,2.62,2.62,0,0,0,.5-1.72,2.66,2.66,0,0,0-.5-1.73A1.75,1.75,0,0,0,509.5,267.67Z" fill="#4d5359"/><path d="M518.93,273h-1v-3.42q0-1.91-1.39-1.91a1.51,1.51,0,0,0-1.19.54,2,2,0,0,0-.47,1.37V273h-1v-6h1v1h0a2.17,2.17,0,0,1,2-1.14,1.84,1.84,0,0,1,1.51.64,2.83,2.83,0,0,1,.52,1.84Z" fill="#4d5359"/><path d="M552,257v24h80V257Zm79,23H553V258h78Z" fill="#a8abae"/><path d="M575.34,273v-8.4h2.39a2.61,2.61,0,0,1,1.73.53,1.72,1.72,0,0,1,.64,1.39,2,2,0,0,1-.39,1.24,2.09,2.09,0,0,1-1.07.75v0a2.14,2.14,0,0,1,1.36.64,2,2,0,0,1,.51,1.41,2.2,2.2,0,0,1-.77,1.75,2.88,2.88,0,0,1-2,.67Zm1-7.51v2.71h1a1.91,1.91,0,0,0,1.27-.39,1.36,1.36,0,0,0,.46-1.1q0-1.22-1.61-1.22Zm0,3.6v3h1.34a2,2,0,0,0,1.34-.41,1.4,1.4,0,0,0,.48-1.12q0-1.49-2-1.49Z" fill="#4d5359"/><path d="M586.94,273h-1v-.95h0a2,2,0,0,1-1.85,1.09q-2.14,0-2.14-2.55V267h1v3.43q0,1.9,1.45,1.9a1.47,1.47,0,0,0,1.16-.52,2,2,0,0,0,.45-1.36V267h1Z" fill="#4d5359"/><path d="M591.66,272.94a1.85,1.85,0,0,1-.9.19q-1.58,0-1.58-1.76v-3.55h-1V267h1v-1.46l1-.31V267h1.51v.82h-1.51v3.38a1.4,1.4,0,0,0,.21.86.82.82,0,0,0,.68.26,1,1,0,0,0,.63-.2Z" fill="#4d5359"/><path d="M595.73,272.94a1.85,1.85,0,0,1-.9.19q-1.58,0-1.58-1.76v-3.55h-1V267h1v-1.46l1-.31V267h1.51v.82h-1.51v3.38a1.4,1.4,0,0,0,.21.86.82.82,0,0,0,.68.26,1,1,0,0,0,.63-.2Z" fill="#4d5359"/><path d="M599.43,273.14a2.78,2.78,0,0,1-2.12-.84,3.11,3.11,0,0,1-.79-2.23,3.24,3.24,0,0,1,.83-2.36,3,3,0,0,1,2.23-.85,2.69,2.69,0,0,1,2.09.83,3.28,3.28,0,0,1,.75,2.29,3.22,3.22,0,0,1-.81,2.3A2.84,2.84,0,0,1,599.43,273.14Zm.07-5.47a1.83,1.83,0,0,0-1.46.63,2.59,2.59,0,0,0-.54,1.74,2.45,2.45,0,0,0,.54,1.68,1.85,1.85,0,0,0,1.46.62,1.76,1.76,0,0,0,1.43-.6,2.62,2.62,0,0,0,.5-1.72,2.66,2.66,0,0,0-.5-1.73A1.75,1.75,0,0,0,599.5,267.67Z" fill="#4d5359"/><path d="M608.93,273h-1v-3.42q0-1.91-1.39-1.91a1.51,1.51,0,0,0-1.19.54,2,2,0,0,0-.47,1.37V273h-1v-6h1v1h0a2.17,2.17,0,0,1,2-1.14,1.84,1.84,0,0,1,1.51.64,2.83,2.83,0,0,1,.52,1.84Z" fill="#4d5359"/><rect x="129" y="49" width="503" height="177" fill="#ec008c" opacity="0.25"/><line x1="92.15" y1="14.5" x2="111.57" y2="14.5" fill="none" stroke="#ec008c" stroke-miterlimit="10"/><line x1="92.17" y1="145.5" x2="243" y2="145.5" fill="none" stroke="#ec008c" stroke-miterlimit="10"/><line x1="92.17" y1="269.5" x2="134.57" y2="269.5" fill="none" stroke="#ec008c" stroke-miterlimit="10"/><path d="M65.69,10.31H63.47V17.2h-.9V10.31H60.35V9.49h5.34Z" fill="#ec008c"/><path d="M67.23,10.3a.56.56,0,0,1-.4-.16.54.54,0,0,1-.17-.41.56.56,0,0,1,.57-.57.57.57,0,0,1,.41.16.57.57,0,0,1,0,.81A.57.57,0,0,1,67.23,10.3Zm.43,6.9h-.88V11.7h.88Z" fill="#ec008c"/><path d="M72,17.14a1.7,1.7,0,0,1-.82.17q-1.45,0-1.44-1.61V12.45h-.95V11.7h.95V10.35l.88-.28V11.7H72v.75H70.61v3.1a1.28,1.28,0,0,0,.19.79.75.75,0,0,0,.62.24.93.93,0,0,0,.57-.18Z" fill="#ec008c"/><path d="M74.06,17.2h-.88V9.05h.88Z" fill="#ec008c"/><path d="M80.26,14.67H76.38a2.06,2.06,0,0,0,.49,1.42,1.7,1.7,0,0,0,1.3.5A2.7,2.7,0,0,0,79.88,16v.83a3.19,3.19,0,0,1-1.92.53,2.33,2.33,0,0,1-1.83-.75,3.07,3.07,0,0,1-.67-2.11,3,3,0,0,1,.73-2.09A2.33,2.33,0,0,1,78,11.57a2.07,2.07,0,0,1,1.67.7,2.91,2.91,0,0,1,.59,1.94Zm-.9-.75A1.79,1.79,0,0,0,79,12.73a1.26,1.26,0,0,0-1-.42,1.42,1.42,0,0,0-1.06.45,2,2,0,0,0-.54,1.17Z" fill="#ec008c"/><path d="M23,148.91a4.52,4.52,0,0,1-2.13.45,3.43,3.43,0,0,1-2.63-1.06,3.9,3.9,0,0,1-1-2.78,4.09,4.09,0,0,1,1.11-3,3.77,3.77,0,0,1,2.82-1.14,4.53,4.53,0,0,1,1.82.32v1a3.67,3.67,0,0,0-1.83-.46,2.8,2.8,0,0,0-2.15.89,3.34,3.34,0,0,0-.82,2.37,3.18,3.18,0,0,0,.77,2.24,2.62,2.62,0,0,0,2,.83,3.79,3.79,0,0,0,2-.52Z" fill="#ec008c"/><path d="M26.75,149.36a2.55,2.55,0,0,1-1.95-.77,2.86,2.86,0,0,1-.73-2,3,3,0,0,1,.76-2.17,2.72,2.72,0,0,1,2-.78,2.47,2.47,0,0,1,1.92.76,3,3,0,0,1,.69,2.1,3,3,0,0,1-.74,2.11A2.61,2.61,0,0,1,26.75,149.36Zm.06-5a1.68,1.68,0,0,0-1.34.58,2.37,2.37,0,0,0-.49,1.59,2.24,2.24,0,0,0,.5,1.54,1.7,1.7,0,0,0,1.34.56,1.61,1.61,0,0,0,1.31-.55,2.4,2.4,0,0,0,.46-1.57,2.44,2.44,0,0,0-.46-1.59A1.6,1.6,0,0,0,26.81,144.35Z" fill="#ec008c"/><path d="M35.46,149.23h-.88V146.1q0-1.75-1.28-1.75a1.38,1.38,0,0,0-1.09.5,1.84,1.84,0,0,0-.43,1.25v3.14H30.9v-5.5h.88v.91h0a2,2,0,0,1,1.8-1,1.68,1.68,0,0,1,1.38.58,2.59,2.59,0,0,1,.48,1.68Z" fill="#ec008c"/><path d="M39.67,149.18a1.7,1.7,0,0,1-.82.17q-1.45,0-1.44-1.61v-3.25h-.95v-.75h.95v-1.34l.88-.29v1.63h1.39v.75H38.29v3.1a1.29,1.29,0,0,0,.19.79.75.75,0,0,0,.62.24.93.93,0,0,0,.57-.18Z" fill="#ec008c"/><path d="M45.18,146.7H41.3a2.06,2.06,0,0,0,.49,1.42,1.7,1.7,0,0,0,1.3.5A2.7,2.7,0,0,0,44.8,148v.83a3.19,3.19,0,0,1-1.92.53,2.33,2.33,0,0,1-1.83-.75,3.07,3.07,0,0,1-.67-2.11,3,3,0,0,1,.73-2.09,2.33,2.33,0,0,1,1.81-.81,2.07,2.07,0,0,1,1.67.7,2.91,2.91,0,0,1,.59,1.94Zm-.9-.75a1.8,1.8,0,0,0-.37-1.19,1.26,1.26,0,0,0-1-.42,1.42,1.42,0,0,0-1.06.45,2,2,0,0,0-.54,1.17Z" fill="#ec008c"/><path d="M51.08,149.23H50.2V146.1q0-1.75-1.28-1.75a1.38,1.38,0,0,0-1.09.5,1.84,1.84,0,0,0-.43,1.25v3.14h-.88v-5.5h.88v.91h0a2,2,0,0,1,1.8-1,1.68,1.68,0,0,1,1.38.58,2.59,2.59,0,0,1,.48,1.68Z" fill="#ec008c"/><path d="M55.29,149.18a1.7,1.7,0,0,1-.82.17q-1.45,0-1.44-1.61v-3.25h-.95v-.75H53v-1.34l.88-.29v1.63h1.39v.75H53.9v3.1a1.29,1.29,0,0,0,.19.79.75.75,0,0,0,.62.24.93.93,0,0,0,.57-.18Z" fill="#ec008c"/><path d="M65.56,149.23h-1l-.82-2.16H60.48l-.77,2.16h-1l3-7.7h.93Zm-2.11-3L62.24,143a3.14,3.14,0,0,1-.12-.52h0A2.91,2.91,0,0,1,62,143l-1.2,3.28Z" fill="#ec008c"/><path d="M69.44,144.63a1.08,1.08,0,0,0-.67-.18,1.12,1.12,0,0,0-.94.53,2.45,2.45,0,0,0-.38,1.45v2.8h-.88v-5.5h.88v1.13h0a1.92,1.92,0,0,1,.57-.9,1.31,1.31,0,0,1,.86-.33,1.42,1.42,0,0,1,.53.08Z" fill="#ec008c"/><path d="M74.67,146.7H70.79a2.06,2.06,0,0,0,.49,1.42,1.7,1.7,0,0,0,1.3.5,2.7,2.7,0,0,0,1.71-.61v.83a3.19,3.19,0,0,1-1.92.53,2.33,2.33,0,0,1-1.83-.75,3.07,3.07,0,0,1-.67-2.11,3,3,0,0,1,.73-2.09,2.33,2.33,0,0,1,1.81-.81,2.07,2.07,0,0,1,1.67.7,2.91,2.91,0,0,1,.59,1.94Zm-.9-.75a1.8,1.8,0,0,0-.37-1.19,1.26,1.26,0,0,0-1-.42,1.42,1.42,0,0,0-1.06.45A2,2,0,0,0,70.8,146Z" fill="#ec008c"/><path d="M79.94,149.23h-.88v-.86h0a1.85,1.85,0,0,1-1.69,1,1.81,1.81,0,0,1-1.29-.44,1.51,1.51,0,0,1-.46-1.15q0-1.54,1.82-1.79l1.65-.23q0-1.4-1.13-1.4a2.71,2.71,0,0,0-1.79.68v-.9a3.41,3.41,0,0,1,1.87-.52q1.94,0,1.94,2.05Zm-.88-2.78-1.33.18a2.14,2.14,0,0,0-.92.3.87.87,0,0,0-.31.77.84.84,0,0,0,.29.66,1.11,1.11,0,0,0,.77.25,1.41,1.41,0,0,0,1.08-.46,1.64,1.64,0,0,0,.43-1.16Z" fill="#ec008c"/><path d="M54.15,266.11h-3v2.66h2.78v.81H51.14V273h-.9v-7.7h3.91Z" fill="#ec008c"/><path d="M57.79,273.13a2.55,2.55,0,0,1-1.95-.77,2.86,2.86,0,0,1-.73-2,3,3,0,0,1,.76-2.16,2.72,2.72,0,0,1,2-.78,2.47,2.47,0,0,1,1.92.76,3,3,0,0,1,.69,2.1,3,3,0,0,1-.74,2.11A2.61,2.61,0,0,1,57.79,273.13Zm.06-5a1.68,1.68,0,0,0-1.34.58,2.37,2.37,0,0,0-.49,1.59,2.24,2.24,0,0,0,.5,1.54,1.7,1.7,0,0,0,1.34.56,1.61,1.61,0,0,0,1.31-.55,2.4,2.4,0,0,0,.46-1.57,2.44,2.44,0,0,0-.46-1.59A1.6,1.6,0,0,0,57.86,268.11Z" fill="#ec008c"/><path d="M64.24,273.13a2.55,2.55,0,0,1-1.95-.77,2.86,2.86,0,0,1-.73-2,3,3,0,0,1,.76-2.16,2.72,2.72,0,0,1,2-.78,2.47,2.47,0,0,1,1.92.76,3,3,0,0,1,.69,2.1,3,3,0,0,1-.74,2.11A2.61,2.61,0,0,1,64.24,273.13Zm.06-5a1.68,1.68,0,0,0-1.34.58,2.37,2.37,0,0,0-.49,1.59,2.24,2.24,0,0,0,.5,1.54,1.7,1.7,0,0,0,1.34.56,1.61,1.61,0,0,0,1.31-.55,2.4,2.4,0,0,0,.46-1.57,2.44,2.44,0,0,0-.46-1.59A1.6,1.6,0,0,0,64.3,268.11Z" fill="#ec008c"/><path d="M70.94,272.95a1.7,1.7,0,0,1-.82.17q-1.45,0-1.44-1.61v-3.25h-.95v-.75h.95v-1.34l.88-.28v1.63h1.39v.75H69.55v3.1a1.28,1.28,0,0,0,.19.79.75.75,0,0,0,.62.24.93.93,0,0,0,.57-.18Z" fill="#ec008c"/><path d="M76.45,270.47H72.56a2.06,2.06,0,0,0,.49,1.42,1.7,1.7,0,0,0,1.3.5,2.7,2.7,0,0,0,1.71-.61v.83a3.19,3.19,0,0,1-1.92.53,2.33,2.33,0,0,1-1.83-.75,3.07,3.07,0,0,1-.67-2.11,3,3,0,0,1,.73-2.09,2.33,2.33,0,0,1,1.81-.81,2.07,2.07,0,0,1,1.67.7,2.91,2.91,0,0,1,.59,1.94Zm-.9-.75a1.79,1.79,0,0,0-.37-1.19,1.26,1.26,0,0,0-1-.42,1.42,1.42,0,0,0-1.06.45,2,2,0,0,0-.54,1.17Z" fill="#ec008c"/><path d="M80.65,268.39a1.08,1.08,0,0,0-.67-.18,1.12,1.12,0,0,0-.94.53,2.45,2.45,0,0,0-.38,1.45V273h-.88v-5.5h.88v1.13h0a1.92,1.92,0,0,1,.57-.9,1.31,1.31,0,0,1,.86-.33,1.43,1.43,0,0,1,.53.08Z" fill="#ec008c"/><path d="M680.07,272.68a4.52,4.52,0,0,1-2.13.45,3.43,3.43,0,0,1-2.63-1.06,3.91,3.91,0,0,1-1-2.78,4.09,4.09,0,0,1,1.11-3,3.77,3.77,0,0,1,2.82-1.14,4.52,4.52,0,0,1,1.82.32v1a3.68,3.68,0,0,0-1.83-.46,2.8,2.8,0,0,0-2.15.89,3.34,3.34,0,0,0-.82,2.37,3.18,3.18,0,0,0,.77,2.24,2.62,2.62,0,0,0,2,.84,3.79,3.79,0,0,0,2-.52Z" fill="#ec008c"/><path d="M683.82,273.13a2.55,2.55,0,0,1-1.95-.77,2.86,2.86,0,0,1-.73-2,3,3,0,0,1,.76-2.16,2.72,2.72,0,0,1,2-.78,2.47,2.47,0,0,1,1.92.76,3,3,0,0,1,.69,2.1,3,3,0,0,1-.74,2.11A2.61,2.61,0,0,1,683.82,273.13Zm.06-5a1.68,1.68,0,0,0-1.34.58,2.37,2.37,0,0,0-.49,1.59,2.24,2.24,0,0,0,.5,1.54,1.7,1.7,0,0,0,1.34.56,1.61,1.61,0,0,0,1.31-.55,2.4,2.4,0,0,0,.46-1.57,2.44,2.44,0,0,0-.46-1.59A1.6,1.6,0,0,0,683.89,268.11Z" fill="#ec008c"/><path d="M695.78,273h-.88v-3.16a2.38,2.38,0,0,0-.28-1.32,1.07,1.07,0,0,0-.95-.41,1.17,1.17,0,0,0-1,.52,2,2,0,0,0-.4,1.24V273h-.88v-3.27q0-1.62-1.25-1.62a1.16,1.16,0,0,0-1,.49,2,2,0,0,0-.38,1.26V273H688v-5.5h.88v.87h0a1.87,1.87,0,0,1,1.71-1,1.59,1.59,0,0,1,1.56,1.14,2,2,0,0,1,1.83-1.14q1.82,0,1.82,2.24Z" fill="#ec008c"/><path d="M705.25,273h-.88v-3.16a2.38,2.38,0,0,0-.28-1.32,1.07,1.07,0,0,0-.95-.41,1.17,1.17,0,0,0-1,.52,2,2,0,0,0-.4,1.24V273h-.88v-3.27q0-1.62-1.25-1.62a1.16,1.16,0,0,0-1,.49,2,2,0,0,0-.38,1.26V273h-.88v-5.5h.88v.87h0a1.87,1.87,0,0,1,1.71-1,1.59,1.59,0,0,1,1.56,1.14,2,2,0,0,1,1.83-1.14q1.82,0,1.82,2.24Z" fill="#ec008c"/><path d="M707.37,266.1a.56.56,0,0,1-.4-.16.54.54,0,0,1-.17-.41.56.56,0,0,1,.57-.57.57.57,0,0,1,.41.16.57.57,0,0,1,0,.81A.57.57,0,0,1,707.37,266.1Zm.43,6.9h-.88v-5.5h.88Z" fill="#ec008c"/><path d="M712.13,272.95a1.7,1.7,0,0,1-.82.17q-1.45,0-1.44-1.61v-3.25h-.95v-.75h.95v-1.34l.88-.28v1.63h1.39v.75h-1.39v3.1a1.28,1.28,0,0,0,.19.79.75.75,0,0,0,.62.24.93.93,0,0,0,.57-.18Z" fill="#ec008c"/><path d="M716.44,273v-7.7h2.19a2.4,2.4,0,0,1,1.58.49,1.58,1.58,0,0,1,.59,1.27,1.87,1.87,0,0,1-.35,1.14,1.91,1.91,0,0,1-1,.69v0a2,2,0,0,1,1.25.59,1.81,1.81,0,0,1,.47,1.29,2,2,0,0,1-.71,1.6,2.64,2.64,0,0,1-1.79.61Zm.9-6.89v2.49h.92a1.76,1.76,0,0,0,1.17-.36,1.25,1.25,0,0,0,.42-1q0-1.12-1.48-1.12Zm0,3.3v2.77h1.22a1.83,1.83,0,0,0,1.23-.38,1.29,1.29,0,0,0,.44-1q0-1.36-1.86-1.36Z" fill="#ec008c"/><path d="M727.07,273h-.88v-.87h0a1.81,1.81,0,0,1-1.7,1q-2,0-2-2.34V267.5h.88v3.15q0,1.74,1.33,1.74a1.35,1.35,0,0,0,1.06-.48,1.82,1.82,0,0,0,.42-1.24V267.5h.88Z" fill="#ec008c"/><path d="M731.4,272.95a1.7,1.7,0,0,1-.82.17q-1.45,0-1.44-1.61v-3.25h-.95v-.75h.95v-1.34l.88-.28v1.63h1.39v.75H730v3.1a1.28,1.28,0,0,0,.19.79.75.75,0,0,0,.62.24.93.93,0,0,0,.57-.18Z" fill="#ec008c"/><path d="M735.13,272.95a1.7,1.7,0,0,1-.82.17q-1.45,0-1.44-1.61v-3.25h-.95v-.75h.95v-1.34l.88-.28v1.63h1.39v.75h-1.39v3.1a1.28,1.28,0,0,0,.19.79.75.75,0,0,0,.62.24.93.93,0,0,0,.57-.18Z" fill="#ec008c"/><path d="M738.52,273.13a2.55,2.55,0,0,1-1.95-.77,2.86,2.86,0,0,1-.73-2,3,3,0,0,1,.76-2.16,2.72,2.72,0,0,1,2-.78,2.47,2.47,0,0,1,1.92.76,3,3,0,0,1,.69,2.1,3,3,0,0,1-.74,2.11A2.61,2.61,0,0,1,738.52,273.13Zm.06-5a1.68,1.68,0,0,0-1.34.58,2.37,2.37,0,0,0-.49,1.59,2.24,2.24,0,0,0,.5,1.54,1.7,1.7,0,0,0,1.34.56,1.61,1.61,0,0,0,1.31-.55,2.4,2.4,0,0,0,.46-1.57,2.44,2.44,0,0,0-.46-1.59A1.6,1.6,0,0,0,738.58,268.11Z" fill="#ec008c"/><path d="M747.23,273h-.88v-3.14q0-1.75-1.28-1.75a1.39,1.39,0,0,0-1.09.5,1.84,1.84,0,0,0-.43,1.25V273h-.88v-5.5h.88v.91h0a2,2,0,0,1,1.8-1,1.68,1.68,0,0,1,1.38.58,2.59,2.59,0,0,1,.48,1.68Z" fill="#ec008c"/><rect x="624" y="268" width="43" height="1" fill="#ec008c"/></g></svg>