<svg xmlns="http://www.w3.org/2000/svg" xmlns:xlink="http://www.w3.org/1999/xlink" width="760" height="337" viewBox="0 0 760 337"><defs><linearGradient id="linear-gradient" x1="451" y1="300.05" x2="451" y2="321.97" gradientUnits="userSpaceOnUse"><stop offset="0" stop-color="#ebe9ec"/><stop offset="0.28" stop-color="#e5e6e9"/><stop offset="1" stop-color="#dadfe2"/></linearGradient><linearGradient id="linear-gradient-2" x1="541" y1="300.05" x2="541" y2="321.97" xlink:href="#linear-gradient"/><clipPath id="clip-path"><path d="M661,368.57V489H80l.22-120.5a8.65,8.65,0,0,1,4.84,1.76,39.9,39.9,0,0,1,4.84,4.24,39.28,39.28,0,0,0,4.84,4.25,7.57,7.57,0,0,0,9.68,0,40.67,40.67,0,0,0,4.84-4.24,39.16,39.16,0,0,1,4.84-4.24,7.54,7.54,0,0,1,9.68,0,40.67,40.67,0,0,1,4.84,4.24,39.28,39.28,0,0,0,4.84,4.25,7.55,7.55,0,0,0,9.67,0,40,40,0,0,0,4.85-4.24,39.16,39.16,0,0,1,4.84-4.24,7.54,7.54,0,0,1,9.68,0,39.84,39.84,0,0,1,4.83,4.24,41.72,41.72,0,0,0,4.84,4.25,7.57,7.57,0,0,0,9.68,0,39.16,39.16,0,0,0,4.84-4.24,40.67,40.67,0,0,1,4.84-4.24,7.54,7.54,0,0,1,9.68,0,39.16,39.16,0,0,1,4.84,4.24,41.72,41.72,0,0,0,4.84,4.25,7.57,7.57,0,0,0,9.68,0,39.9,39.9,0,0,0,4.84-4.24,40.67,40.67,0,0,1,4.84-4.24,7.54,7.54,0,0,1,9.68,0,39.16,39.16,0,0,1,4.84,4.24,40.91,40.91,0,0,0,4.84,4.25,7.57,7.57,0,0,0,9.68,0,39.9,39.9,0,0,0,4.84-4.24,39.9,39.9,0,0,1,4.84-4.24,7.53,7.53,0,0,1,9.68,0,39.9,39.9,0,0,1,4.84,4.24,40.13,40.13,0,0,0,4.84,4.25,7.57,7.57,0,0,0,9.68,0,40.67,40.67,0,0,0,4.84-4.24,40.91,40.91,0,0,1,4.84-4.25,7.55,7.55,0,0,1,9.68,0,40.67,40.67,0,0,1,4.84,4.24,39.16,39.16,0,0,0,4.84,4.24,8.55,8.55,0,0,0,4.84,1.76,8.66,8.66,0,0,0,4.84-1.75,40.67,40.67,0,0,0,4.84-4.24,39.28,39.28,0,0,1,4.84-4.25,7.55,7.55,0,0,1,9.68,0,40.67,40.67,0,0,1,4.84,4.24,39.16,39.16,0,0,0,4.84,4.24,7.53,7.53,0,0,0,9.68,0,40.67,40.67,0,0,0,4.84-4.24,39.16,39.16,0,0,1,4.84-4.24,7.53,7.53,0,0,1,9.68,0,39.9,39.9,0,0,1,4.84,4.24,39.9,39.9,0,0,0,4.84,4.24,7.54,7.54,0,0,0,9.68,0,40.67,40.67,0,0,0,4.84-4.24,39.16,39.16,0,0,1,4.84-4.24,7.54,7.54,0,0,1,9.68,0,40.67,40.67,0,0,1,4.84,4.24,39.16,39.16,0,0,0,4.84,4.24,7.53,7.53,0,0,0,9.68,0,40.67,40.67,0,0,0,4.84-4.24,39.16,39.16,0,0,1,4.84-4.24,7.53,7.53,0,0,1,9.68,0,39.84,39.84,0,0,1,4.83,4.24,40.67,40.67,0,0,0,4.84,4.24,7.54,7.54,0,0,0,9.68,0,39.16,39.16,0,0,0,4.84-4.24,40.67,40.67,0,0,1,4.84-4.24,7.53,7.53,0,0,1,9.68,0,39.16,39.16,0,0,1,4.84,4.24,40.67,40.67,0,0,0,4.84,4.24,7.54,7.54,0,0,0,9.68,0,39.16,39.16,0,0,0,4.84-4.24,40.67,40.67,0,0,1,4.84-4.24,7.53,7.53,0,0,1,9.68,0,39.9,39.9,0,0,1,4.84,4.24,39.9,39.9,0,0,0,4.84,4.24,7.53,7.53,0,0,0,9.68,0,39.9,39.9,0,0,0,4.84-4.24,39.9,39.9,0,0,1,4.84-4.24,7.54,7.54,0,0,1,9.68,0,39.9,39.9,0,0,1,4.84,4.24,39.9,39.9,0,0,0,4.84,4.24,7.54,7.54,0,0,0,9.68,0,39.9,39.9,0,0,0,4.84-4.24,39.9,39.9,0,0,1,4.84-4.24,7.54,7.54,0,0,1,9.68,0,40.67,40.67,0,0,1,4.84,4.24,39.16,39.16,0,0,0,4.84,4.24,7.54,7.54,0,0,0,9.68,0,40.67,40.67,0,0,0,4.84-4.24,39.16,39.16,0,0,1,4.84-4.24A8.62,8.62,0,0,1,661,368.57Z" fill="none"/></clipPath></defs><title>dialogs-multi-page</title><g id="SPEC_text"><polygon points="109 23.92 109 289.96 692.99 289.96 692.99 22 109 23.92" fill="#eef0ef"/><rect x="110" y="10" width="584" height="223" fill="#eef0ef"/><rect x="109" y="289" width="582" height="44" fill="#e1e3e4"/><path d="M105,0V337H695V0ZM691,333H109V29H691Z" fill="#4d5359"/><rect x="412" y="299.99" width="78" height="22.01" fill="url(#linear-gradient)"/><path d="M411,299v24h80V299Zm79,23H412V300h78Z" fill="#a8abae"/><path d="M434.34,315v-8.4h2.39a2.61,2.61,0,0,1,1.73.53,1.72,1.72,0,0,1,.64,1.39,2,2,0,0,1-.39,1.24,2.09,2.09,0,0,1-1.07.75v0a2.14,2.14,0,0,1,1.36.64,2,2,0,0,1,.51,1.41,2.2,2.2,0,0,1-.77,1.75,2.88,2.88,0,0,1-2,.67Zm1-7.51v2.71h1a1.91,1.91,0,0,0,1.27-.39,1.36,1.36,0,0,0,.46-1.1q0-1.22-1.61-1.22Zm0,3.6v3h1.34a2,2,0,0,0,1.34-.41,1.4,1.4,0,0,0,.48-1.12q0-1.49-2-1.49Z" fill="#4d5359"/><path d="M445.94,315h-1v-.95h0a2,2,0,0,1-1.85,1.09q-2.14,0-2.14-2.55V309h1v3.43q0,1.9,1.45,1.9a1.47,1.47,0,0,0,1.16-.52,2,2,0,0,0,.45-1.36V309h1Z" fill="#4d5359"/><path d="M450.66,314.94a1.85,1.85,0,0,1-.9.19q-1.58,0-1.58-1.76v-3.55h-1V309h1v-1.46l1-.31V309h1.51v.82h-1.51v3.38a1.4,1.4,0,0,0,.21.86.82.82,0,0,0,.68.26,1,1,0,0,0,.63-.2Z" fill="#4d5359"/><path d="M454.73,314.94a1.85,1.85,0,0,1-.9.19q-1.58,0-1.58-1.76v-3.55h-1V309h1v-1.46l1-.31V309h1.51v.82h-1.51v3.38a1.4,1.4,0,0,0,.21.86.82.82,0,0,0,.68.26,1,1,0,0,0,.63-.2Z" fill="#4d5359"/><path d="M458.43,315.14a2.78,2.78,0,0,1-2.12-.84,3.11,3.11,0,0,1-.79-2.23,3.24,3.24,0,0,1,.83-2.36,3,3,0,0,1,2.23-.85,2.69,2.69,0,0,1,2.09.83,3.28,3.28,0,0,1,.75,2.29,3.22,3.22,0,0,1-.81,2.3A2.84,2.84,0,0,1,458.43,315.14Zm.07-5.47a1.83,1.83,0,0,0-1.46.63,2.59,2.59,0,0,0-.54,1.74,2.45,2.45,0,0,0,.54,1.68,1.85,1.85,0,0,0,1.46.62,1.76,1.76,0,0,0,1.43-.6,2.62,2.62,0,0,0,.5-1.72,2.66,2.66,0,0,0-.5-1.73A1.75,1.75,0,0,0,458.5,309.67Z" fill="#4d5359"/><path d="M467.93,315h-1v-3.42q0-1.91-1.39-1.91a1.51,1.51,0,0,0-1.19.54,2,2,0,0,0-.47,1.37V315h-1v-6h1v1h0a2.17,2.17,0,0,1,2-1.14,1.84,1.84,0,0,1,1.51.64,2.83,2.83,0,0,1,.52,1.84Z" fill="#4d5359"/><rect x="109" y="288" width="582" height="1" fill="#a8abae"/><path d="M121.1,19V10.6h2.32q4.44,0,4.44,4.1a4.13,4.13,0,0,1-1.23,3.13,4.58,4.58,0,0,1-3.3,1.18Zm1-7.51v6.62h1.25a3.56,3.56,0,0,0,2.57-.88,3.32,3.32,0,0,0,.92-2.51q0-3.23-3.43-3.23Z" fill="#fff"/><path d="M129.88,11.48a.61.61,0,0,1-.44-.18.59.59,0,0,1-.18-.45.62.62,0,0,1,.62-.63.62.62,0,0,1,.45.18.63.63,0,0,1,0,.89A.62.62,0,0,1,129.88,11.48Zm.47,7.52h-1V13h1Z" fill="#fff"/><path d="M136.59,19h-1v-.94h0a2,2,0,0,1-1.85,1.08,2,2,0,0,1-1.4-.47,1.64,1.64,0,0,1-.51-1.26q0-1.68,2-2l1.8-.25q0-1.53-1.24-1.53a3,3,0,0,0-2,.74v-1a3.72,3.72,0,0,1,2-.56q2.12,0,2.12,2.24Zm-1-3-1.45.2a2.35,2.35,0,0,0-1,.33,1,1,0,0,0-.34.84.92.92,0,0,0,.31.72,1.21,1.21,0,0,0,.83.28,1.54,1.54,0,0,0,1.18-.5,1.79,1.79,0,0,0,.47-1.27Z" fill="#fff"/><path d="M139.36,19h-1V10.12h1Z" fill="#fff"/><path d="M143.81,19.14a2.78,2.78,0,0,1-2.12-.84,3.11,3.11,0,0,1-.79-2.23,3.24,3.24,0,0,1,.83-2.36,3,3,0,0,1,2.23-.85,2.69,2.69,0,0,1,2.09.83A3.28,3.28,0,0,1,146.8,16a3.22,3.22,0,0,1-.81,2.3A2.84,2.84,0,0,1,143.81,19.14Zm.07-5.47a1.83,1.83,0,0,0-1.46.63,2.59,2.59,0,0,0-.54,1.74,2.45,2.45,0,0,0,.54,1.68,1.85,1.85,0,0,0,1.46.62,1.76,1.76,0,0,0,1.43-.6,2.62,2.62,0,0,0,.5-1.72,2.66,2.66,0,0,0-.5-1.73A1.75,1.75,0,0,0,143.88,13.67Z" fill="#fff"/><path d="M153.46,18.52q0,3.3-3.16,3.3a4.25,4.25,0,0,1-1.95-.42v-1a4,4,0,0,0,1.93.56q2.21,0,2.21-2.36V18h0a2.43,2.43,0,0,1-3.86.35,3.2,3.2,0,0,1-.68-2.15,3.74,3.74,0,0,1,.74-2.43,2.46,2.46,0,0,1,2-.9,2,2,0,0,1,1.8,1h0V13h1Zm-1-2.23V15.4a1.72,1.72,0,0,0-.48-1.22,1.59,1.59,0,0,0-1.2-.51,1.67,1.67,0,0,0-1.39.65,2.89,2.89,0,0,0-.5,1.81,2.48,2.48,0,0,0,.48,1.6,1.56,1.56,0,0,0,1.28.6,1.67,1.67,0,0,0,1.32-.57A2.14,2.14,0,0,0,152.5,16.29Z" fill="#fff"/><path d="M163.79,11.49h-2.43V19h-1V11.49H158V10.6h5.83Z" fill="#fff"/><path d="M165.47,11.48a.61.61,0,0,1-.44-.18.59.59,0,0,1-.18-.45.62.62,0,0,1,.62-.63.62.62,0,0,1,.45.18.63.63,0,0,1,0,.89A.62.62,0,0,1,165.47,11.48Zm.47,7.52h-1V13h1Z" fill="#fff"/><path d="M170.67,18.94a1.85,1.85,0,0,1-.9.19q-1.58,0-1.58-1.76V13.82h-1V13h1V11.54l1-.31V13h1.51v.82h-1.51V17.2a1.4,1.4,0,0,0,.21.86.82.82,0,0,0,.68.26,1,1,0,0,0,.63-.2Z" fill="#fff"/><path d="M172.91,19h-1V10.12h1Z" fill="#fff"/><path d="M179.68,16.24h-4.24a2.24,2.24,0,0,0,.54,1.55,1.86,1.86,0,0,0,1.42.54,3,3,0,0,0,1.86-.67v.9a3.48,3.48,0,0,1-2.09.57,2.54,2.54,0,0,1-2-.82,3.35,3.35,0,0,1-.73-2.3,3.28,3.28,0,0,1,.79-2.28,2.55,2.55,0,0,1,2-.88,2.26,2.26,0,0,1,1.82.76,3.18,3.18,0,0,1,.64,2.12Zm-1-.81a2,2,0,0,0-.4-1.29,1.37,1.37,0,0,0-1.1-.46,1.55,1.55,0,0,0-1.15.49,2.21,2.21,0,0,0-.59,1.27Z" fill="#fff"/><polygon points="684.14 9.97 682.62 8.45 679.07 12 675.52 8.45 674 9.97 677.55 13.52 674 17.07 675.52 18.59 679.07 15.04 682.62 18.59 684.14 17.07 680.59 13.52 684.14 9.97" fill="#fff"/><rect x="502" y="299.99" width="78" height="22.01" fill="url(#linear-gradient-2)"/><path d="M501,299v24h80V299Zm79,23H502V300h78Z" fill="#a8abae"/><path d="M524.34,315v-8.4h2.39a2.61,2.61,0,0,1,1.73.53,1.72,1.72,0,0,1,.64,1.39,2,2,0,0,1-.39,1.24,2.09,2.09,0,0,1-1.07.75v0a2.14,2.14,0,0,1,1.36.64,2,2,0,0,1,.51,1.41,2.2,2.2,0,0,1-.77,1.75,2.88,2.88,0,0,1-2,.67Zm1-7.51v2.71h1a1.91,1.91,0,0,0,1.27-.39,1.36,1.36,0,0,0,.46-1.1q0-1.22-1.61-1.22Zm0,3.6v3h1.34a2,2,0,0,0,1.34-.41,1.4,1.4,0,0,0,.48-1.12q0-1.49-2-1.49Z" fill="#4d5359"/><path d="M535.94,315h-1v-.95h0a2,2,0,0,1-1.85,1.09q-2.14,0-2.14-2.55V309h1v3.43q0,1.9,1.45,1.9a1.47,1.47,0,0,0,1.16-.52,2,2,0,0,0,.45-1.36V309h1Z" fill="#4d5359"/><path d="M540.66,314.94a1.85,1.85,0,0,1-.9.19q-1.58,0-1.58-1.76v-3.55h-1V309h1v-1.46l1-.31V309h1.51v.82h-1.51v3.38a1.4,1.4,0,0,0,.21.86.82.82,0,0,0,.68.26,1,1,0,0,0,.63-.2Z" fill="#4d5359"/><path d="M544.73,314.94a1.85,1.85,0,0,1-.9.19q-1.58,0-1.58-1.76v-3.55h-1V309h1v-1.46l1-.31V309h1.51v.82h-1.51v3.38a1.4,1.4,0,0,0,.21.86.82.82,0,0,0,.68.26,1,1,0,0,0,.63-.2Z" fill="#4d5359"/><path d="M548.43,315.14a2.78,2.78,0,0,1-2.12-.84,3.11,3.11,0,0,1-.79-2.23,3.24,3.24,0,0,1,.83-2.36,3,3,0,0,1,2.23-.85,2.69,2.69,0,0,1,2.09.83,3.28,3.28,0,0,1,.75,2.29,3.22,3.22,0,0,1-.81,2.3A2.84,2.84,0,0,1,548.43,315.14Zm.07-5.47a1.83,1.83,0,0,0-1.46.63,2.59,2.59,0,0,0-.54,1.74,2.45,2.45,0,0,0,.54,1.68,1.85,1.85,0,0,0,1.46.62,1.76,1.76,0,0,0,1.43-.6,2.62,2.62,0,0,0,.5-1.72,2.66,2.66,0,0,0-.5-1.73A1.75,1.75,0,0,0,548.5,309.67Z" fill="#4d5359"/><path d="M557.93,315h-1v-3.42q0-1.91-1.39-1.91a1.51,1.51,0,0,0-1.19.54,2,2,0,0,0-.47,1.37V315h-1v-6h1v1h0a2.17,2.17,0,0,1,2-1.14,1.84,1.84,0,0,1,1.51.64,2.83,2.83,0,0,1,.52,1.84Z" fill="#4d5359"/><path d="M591,299v24h80V299Zm79,23H592V300h78Z" fill="#a8abae"/><path d="M614.34,315v-8.4h2.39a2.61,2.61,0,0,1,1.73.53,1.72,1.72,0,0,1,.64,1.39,2,2,0,0,1-.39,1.24,2.09,2.09,0,0,1-1.07.75v0a2.14,2.14,0,0,1,1.36.64,2,2,0,0,1,.51,1.41,2.2,2.2,0,0,1-.77,1.75,2.88,2.88,0,0,1-2,.67Zm1-7.51v2.71h1a1.91,1.91,0,0,0,1.27-.39,1.36,1.36,0,0,0,.46-1.1q0-1.22-1.61-1.22Zm0,3.6v3h1.34a2,2,0,0,0,1.34-.41,1.4,1.4,0,0,0,.48-1.12q0-1.49-2-1.49Z" fill="#4d5359"/><path d="M625.94,315h-1v-.95h0a2,2,0,0,1-1.85,1.09q-2.14,0-2.14-2.55V309h1v3.43q0,1.9,1.45,1.9a1.47,1.47,0,0,0,1.16-.52,2,2,0,0,0,.45-1.36V309h1Z" fill="#4d5359"/><path d="M630.66,314.94a1.85,1.85,0,0,1-.9.19q-1.58,0-1.58-1.76v-3.55h-1V309h1v-1.46l1-.31V309h1.51v.82h-1.51v3.38a1.4,1.4,0,0,0,.21.86.82.82,0,0,0,.68.26,1,1,0,0,0,.63-.2Z" fill="#4d5359"/><path d="M634.73,314.94a1.85,1.85,0,0,1-.9.19q-1.58,0-1.58-1.76v-3.55h-1V309h1v-1.46l1-.31V309h1.51v.82h-1.51v3.38a1.4,1.4,0,0,0,.21.86.82.82,0,0,0,.68.26,1,1,0,0,0,.63-.2Z" fill="#4d5359"/><path d="M638.43,315.14a2.78,2.78,0,0,1-2.12-.84,3.11,3.11,0,0,1-.79-2.23,3.24,3.24,0,0,1,.83-2.36,3,3,0,0,1,2.23-.85,2.69,2.69,0,0,1,2.09.83,3.28,3.28,0,0,1,.75,2.29,3.22,3.22,0,0,1-.81,2.3A2.84,2.84,0,0,1,638.43,315.14Zm.07-5.47a1.83,1.83,0,0,0-1.46.63,2.59,2.59,0,0,0-.54,1.74,2.45,2.45,0,0,0,.54,1.68,1.85,1.85,0,0,0,1.46.62,1.76,1.76,0,0,0,1.43-.6,2.62,2.62,0,0,0,.5-1.72,2.66,2.66,0,0,0-.5-1.73A1.75,1.75,0,0,0,638.5,309.67Z" fill="#4d5359"/><path d="M647.93,315h-1v-3.42q0-1.91-1.39-1.91a1.51,1.51,0,0,0-1.19.54,2,2,0,0,0-.47,1.37V315h-1v-6h1v1h0a2.17,2.17,0,0,1,2-1.14,1.84,1.84,0,0,1,1.51.64,2.83,2.83,0,0,1,.52,1.84Z" fill="#4d5359"/><rect x="129" y="49" width="503" height="177" fill="#ec008c" opacity="0.25"/><rect x="370" y="226" width="1" height="61" fill="#ec008c"/><rect x="367" y="226" width="7" height="1" fill="#ec008c"/><rect x="367" y="287" width="7" height="1" fill="#ec008c"/><path d="M337.13,251.3l-2.85,7.7h-1l-2.79-7.7h1l2.13,6.11a3.55,3.55,0,0,1,.16.68h0a3.37,3.37,0,0,1,.18-.69l2.18-6.1Z" fill="#ec008c"/><path d="M341.26,259h-.88v-.86h0a1.84,1.84,0,0,1-1.69,1,1.81,1.81,0,0,1-1.29-.44,1.51,1.51,0,0,1-.46-1.15q0-1.54,1.82-1.79l1.65-.23q0-1.4-1.13-1.4a2.71,2.71,0,0,0-1.79.68v-.9a3.41,3.41,0,0,1,1.87-.52q1.94,0,1.94,2.05Zm-.88-2.78-1.33.18a2.15,2.15,0,0,0-.92.3.87.87,0,0,0-.31.77.84.84,0,0,0,.29.66,1.11,1.11,0,0,0,.77.25,1.41,1.41,0,0,0,1.08-.46,1.64,1.64,0,0,0,.43-1.16Z" fill="#ec008c"/><path d="M345.79,254.39a1.08,1.08,0,0,0-.67-.18,1.12,1.12,0,0,0-.94.53,2.45,2.45,0,0,0-.38,1.45V259h-.88v-5.5h.88v1.13h0a1.92,1.92,0,0,1,.58-.9,1.31,1.31,0,0,1,.86-.33,1.43,1.43,0,0,1,.53.08Z" fill="#ec008c"/><path d="M347.2,252.1a.56.56,0,0,1-.4-.16.55.55,0,0,1-.17-.41.56.56,0,0,1,.57-.57.57.57,0,0,1,.41.16.57.57,0,0,1,0,.81A.57.57,0,0,1,347.2,252.1Zm.43,6.9h-.88v-5.5h.88Z" fill="#ec008c"/><path d="M353.35,259h-.88v-.86h0a1.84,1.84,0,0,1-1.69,1,1.81,1.81,0,0,1-1.29-.44,1.51,1.51,0,0,1-.46-1.15q0-1.54,1.82-1.79l1.65-.23q0-1.4-1.13-1.4a2.71,2.71,0,0,0-1.79.68v-.9a3.41,3.41,0,0,1,1.87-.52q1.94,0,1.94,2.05Zm-.88-2.78-1.33.18a2.15,2.15,0,0,0-.92.3.87.87,0,0,0-.31.77.84.84,0,0,0,.29.66,1.11,1.11,0,0,0,.77.25,1.41,1.41,0,0,0,1.08-.46,1.64,1.64,0,0,0,.43-1.16Z" fill="#ec008c"/><path d="M355.91,258.21h0V259H355v-8.14h.88v3.61h0a2.08,2.08,0,0,1,1.9-1.1,2,2,0,0,1,1.66.74,3,3,0,0,1,.6,2,3.4,3.4,0,0,1-.67,2.21,2.23,2.23,0,0,1-1.84.83A1.81,1.81,0,0,1,355.91,258.21Zm0-2.22v.77a1.63,1.63,0,0,0,.44,1.16,1.58,1.58,0,0,0,2.38-.14,2.81,2.81,0,0,0,.45-1.7,2.22,2.22,0,0,0-.42-1.44,1.41,1.41,0,0,0-1.15-.52,1.56,1.56,0,0,0-1.23.53A2,2,0,0,0,355.89,256Z" fill="#ec008c"/><path d="M362.36,259h-.88v-8.14h.88Z" fill="#ec008c"/><path d="M368.56,256.47h-3.88a2.06,2.06,0,0,0,.49,1.42,1.7,1.7,0,0,0,1.3.5,2.7,2.7,0,0,0,1.71-.61v.83a3.19,3.19,0,0,1-1.92.53,2.33,2.33,0,0,1-1.83-.75,3.07,3.07,0,0,1-.67-2.11,3,3,0,0,1,.73-2.09,2.33,2.33,0,0,1,1.81-.81,2.07,2.07,0,0,1,1.67.7,2.91,2.91,0,0,1,.59,1.94Zm-.9-.75a1.8,1.8,0,0,0-.37-1.19,1.25,1.25,0,0,0-1-.42,1.42,1.42,0,0,0-1.06.45,2,2,0,0,0-.54,1.17Z" fill="#ec008c"/><rect x="632" y="136" width="59" height="1" fill="#ec008c"/><rect x="690" y="133" width="1" height="7" fill="#ec008c"/><rect x="632" y="133" width="1" height="7" fill="#ec008c"/><path d="M648.43,125.3l-2.85,7.7h-1l-2.79-7.7h1l2.13,6.11a3.55,3.55,0,0,1,.16.68h0a3.37,3.37,0,0,1,.18-.69l2.18-6.1Z" fill="#ec008c"/><path d="M652.57,133h-.88v-.86h0a1.84,1.84,0,0,1-1.69,1,1.81,1.81,0,0,1-1.29-.44,1.51,1.51,0,0,1-.46-1.15q0-1.54,1.82-1.79l1.65-.23q0-1.4-1.13-1.4a2.71,2.71,0,0,0-1.79.68v-.9a3.41,3.41,0,0,1,1.87-.52q1.94,0,1.94,2.05Zm-.88-2.78-1.33.18a2.15,2.15,0,0,0-.92.3.87.87,0,0,0-.31.77.84.84,0,0,0,.29.66,1.11,1.11,0,0,0,.77.25,1.41,1.41,0,0,0,1.08-.46,1.64,1.64,0,0,0,.43-1.16Z" fill="#ec008c"/><path d="M657.1,128.39a1.08,1.08,0,0,0-.67-.18,1.12,1.12,0,0,0-.94.53,2.45,2.45,0,0,0-.38,1.45V133h-.88v-5.5h.88v1.13h0a1.92,1.92,0,0,1,.58-.9,1.31,1.31,0,0,1,.86-.33,1.43,1.43,0,0,1,.53.08Z" fill="#ec008c"/><path d="M658.5,126.1a.56.56,0,0,1-.4-.16.55.55,0,0,1-.17-.41.56.56,0,0,1,.57-.57.57.57,0,0,1,.41.16.57.57,0,0,1,0,.81A.57.57,0,0,1,658.5,126.1Zm.43,6.9h-.88v-5.5h.88Z" fill="#ec008c"/><path d="M664.65,133h-.88v-.86h0a1.84,1.84,0,0,1-1.69,1,1.81,1.81,0,0,1-1.29-.44,1.51,1.51,0,0,1-.46-1.15q0-1.54,1.82-1.79l1.65-.23q0-1.4-1.13-1.4a2.71,2.71,0,0,0-1.79.68v-.9a3.41,3.41,0,0,1,1.87-.52q1.94,0,1.94,2.05Zm-.88-2.78-1.33.18a2.15,2.15,0,0,0-.92.3.87.87,0,0,0-.31.77.84.84,0,0,0,.29.66,1.11,1.11,0,0,0,.77.25,1.41,1.41,0,0,0,1.08-.46,1.64,1.64,0,0,0,.43-1.16Z" fill="#ec008c"/><path d="M667.21,132.21h0V133h-.88v-8.14h.88v3.61h0a2.08,2.08,0,0,1,1.9-1.1,2,2,0,0,1,1.66.74,3,3,0,0,1,.6,2,3.4,3.4,0,0,1-.67,2.21,2.23,2.23,0,0,1-1.84.83A1.81,1.81,0,0,1,667.21,132.21Zm0-2.22v.77a1.63,1.63,0,0,0,.44,1.16,1.58,1.58,0,0,0,2.38-.14,2.81,2.81,0,0,0,.45-1.7,2.22,2.22,0,0,0-.42-1.44,1.41,1.41,0,0,0-1.15-.52,1.56,1.56,0,0,0-1.23.53A2,2,0,0,0,667.19,130Z" fill="#ec008c"/><path d="M673.66,133h-.88v-8.14h.88Z" fill="#ec008c"/><path d="M679.86,130.47H676a2.06,2.06,0,0,0,.49,1.42,1.7,1.7,0,0,0,1.3.5,2.7,2.7,0,0,0,1.71-.61v.83a3.19,3.19,0,0,1-1.92.53,2.33,2.33,0,0,1-1.83-.75,3.07,3.07,0,0,1-.67-2.11,3,3,0,0,1,.73-2.09,2.33,2.33,0,0,1,1.81-.81,2.07,2.07,0,0,1,1.67.7,2.91,2.91,0,0,1,.59,1.94Zm-.9-.75a1.8,1.8,0,0,0-.37-1.19,1.25,1.25,0,0,0-1-.42,1.42,1.42,0,0,0-1.06.45,2,2,0,0,0-.54,1.17Z" fill="#ec008c"/><rect x="369" y="29" width="1" height="20" fill="#ec008c"/><rect x="366" y="29" width="7" height="1" fill="#ec008c"/><rect x="366" y="48" width="7" height="1" fill="#ec008c"/><path d="M357.29,37.32a1.59,1.59,0,0,0-.11-.62,1.19,1.19,0,0,0-.75-.7,1.76,1.76,0,0,0-.56-.09,1.86,1.86,0,0,0-.5.07,2.41,2.41,0,0,0-.48.19,2.91,2.91,0,0,0-.45.3,3.21,3.21,0,0,0-.41.38v-.95a2.63,2.63,0,0,1,.83-.55,2.93,2.93,0,0,1,1.12-.19,2.71,2.71,0,0,1,.88.14,2,2,0,0,1,.7.4,1.85,1.85,0,0,1,.46.65,2.18,2.18,0,0,1,.17.89,3,3,0,0,1-.1.83,2.54,2.54,0,0,1-.32.7,3.38,3.38,0,0,1-.53.63,7.53,7.53,0,0,1-.76.61l-.89.66a4,4,0,0,0-.56.51,1.5,1.5,0,0,0-.29.48,1.67,1.67,0,0,0-.08.55h3.83V43h-4.75v-.38a3.15,3.15,0,0,1,.11-.87,2.27,2.27,0,0,1,.35-.71,4,4,0,0,1,.65-.68q.4-.34,1-.76a6.26,6.26,0,0,0,.7-.57,3,3,0,0,0,.45-.55,2,2,0,0,0,.24-.56A2.41,2.41,0,0,0,357.29,37.32Z" fill="#ec008c"/><path d="M364.55,39.12a7.57,7.57,0,0,1-.17,1.71,4,4,0,0,1-.5,1.26,2.26,2.26,0,0,1-.81.78,2.22,2.22,0,0,1-1.09.27,2.07,2.07,0,0,1-1-.26,2.17,2.17,0,0,1-.77-.74,3.76,3.76,0,0,1-.47-1.2,7.42,7.42,0,0,1-.16-1.63,8.43,8.43,0,0,1,.17-1.78,4.08,4.08,0,0,1,.5-1.3,2.21,2.21,0,0,1,.81-.79,2.29,2.29,0,0,1,1.12-.27Q364.55,35.17,364.55,39.12Zm-.9.09q0-3.29-1.56-3.29t-1.65,3.35q0,3.12,1.62,3.12T363.65,39.2Z" fill="#ec008c"/><rect x="109" y="136" width="20" height="1" fill="#ec008c"/><rect x="128" y="133" width="1" height="7" fill="#ec008c"/><rect x="109" y="133" width="1" height="7" fill="#ec008c"/><path d="M117.15,127.67a1.59,1.59,0,0,0-.11-.62,1.19,1.19,0,0,0-.75-.7,1.76,1.76,0,0,0-.56-.09,1.86,1.86,0,0,0-.5.07,2.41,2.41,0,0,0-.48.19,2.91,2.91,0,0,0-.45.3,3.21,3.21,0,0,0-.41.38v-.95a2.63,2.63,0,0,1,.83-.55,2.93,2.93,0,0,1,1.12-.19,2.71,2.71,0,0,1,.88.14,2,2,0,0,1,.7.4,1.85,1.85,0,0,1,.46.65,2.18,2.18,0,0,1,.17.89,3,3,0,0,1-.1.83,2.54,2.54,0,0,1-.32.7,3.38,3.38,0,0,1-.53.63,7.53,7.53,0,0,1-.76.61l-.89.66a4,4,0,0,0-.56.51,1.5,1.5,0,0,0-.29.48,1.67,1.67,0,0,0-.08.55h3.83v.79h-4.75V133a3.15,3.15,0,0,1,.11-.87,2.27,2.27,0,0,1,.35-.71,4,4,0,0,1,.65-.68q.4-.34,1-.76a6.26,6.26,0,0,0,.7-.57,3,3,0,0,0,.45-.55,2,2,0,0,0,.24-.56A2.41,2.41,0,0,0,117.15,127.67Z" fill="#ec008c"/><path d="M124.41,129.47a7.57,7.57,0,0,1-.17,1.71,4,4,0,0,1-.5,1.26,2.26,2.26,0,0,1-.81.78,2.22,2.22,0,0,1-1.09.27,2.07,2.07,0,0,1-1-.26,2.17,2.17,0,0,1-.77-.74,3.76,3.76,0,0,1-.47-1.2,7.42,7.42,0,0,1-.16-1.63,8.43,8.43,0,0,1,.17-1.78,4.08,4.08,0,0,1,.5-1.3,2.21,2.21,0,0,1,.81-.79,2.29,2.29,0,0,1,1.12-.27Q124.41,125.52,124.41,129.47Zm-.9.09q0-3.29-1.56-3.29t-1.65,3.35q0,3.12,1.62,3.12T123.51,129.55Z" fill="#ec008c"/><g clip-path="url(#clip-path)"><polygon points="109 183.92 109 407.96 653.99 407.96 653.99 184 109 183.92" fill="#eef0ef"/><rect x="110" y="171" width="545" height="222" fill="#eef0ef"/><path d="M105,160V455H656V160ZM652,451H109V189H652Z" fill="#4d5359"/><path d="M121.1,179v-8.4h2.32q4.44,0,4.44,4.1a4.13,4.13,0,0,1-1.23,3.13,4.58,4.58,0,0,1-3.3,1.18Zm1-7.51v6.62h1.25a3.56,3.56,0,0,0,2.57-.88,3.32,3.32,0,0,0,.92-2.51q0-3.23-3.43-3.23Z" fill="#fff"/><path d="M129.88,171.48a.61.61,0,0,1-.44-.18.59.59,0,0,1-.18-.45.62.62,0,0,1,.62-.63.62.62,0,0,1,.45.18.63.63,0,0,1,0,.89A.62.62,0,0,1,129.88,171.48Zm.47,7.52h-1v-6h1Z" fill="#fff"/><path d="M136.59,179h-1v-.94h0a2,2,0,0,1-1.85,1.08,2,2,0,0,1-1.4-.47,1.64,1.64,0,0,1-.51-1.26q0-1.68,2-2l1.8-.25q0-1.53-1.24-1.53a3,3,0,0,0-2,.74v-1a3.72,3.72,0,0,1,2-.56q2.12,0,2.12,2.24Zm-1-3-1.45.2a2.35,2.35,0,0,0-1,.33,1,1,0,0,0-.34.84.92.92,0,0,0,.31.72,1.21,1.21,0,0,0,.83.28,1.54,1.54,0,0,0,1.18-.5,1.79,1.79,0,0,0,.47-1.27Z" fill="#fff"/><path d="M139.36,179h-1v-8.88h1Z" fill="#fff"/><path d="M143.81,179.14a2.78,2.78,0,0,1-2.12-.84,3.11,3.11,0,0,1-.79-2.23,3.24,3.24,0,0,1,.83-2.36,3,3,0,0,1,2.23-.85,2.69,2.69,0,0,1,2.09.83,3.28,3.28,0,0,1,.75,2.29,3.22,3.22,0,0,1-.81,2.3A2.84,2.84,0,0,1,143.81,179.14Zm.07-5.47a1.83,1.83,0,0,0-1.46.63,2.59,2.59,0,0,0-.54,1.74,2.45,2.45,0,0,0,.54,1.68,1.85,1.85,0,0,0,1.46.62,1.76,1.76,0,0,0,1.43-.6,2.62,2.62,0,0,0,.5-1.72,2.66,2.66,0,0,0-.5-1.73A1.75,1.75,0,0,0,143.88,173.67Z" fill="#fff"/><path d="M153.46,178.52q0,3.3-3.16,3.3a4.25,4.25,0,0,1-1.95-.42v-1a4,4,0,0,0,1.93.56q2.21,0,2.21-2.36V178h0a2.43,2.43,0,0,1-3.86.35,3.2,3.2,0,0,1-.68-2.15,3.74,3.74,0,0,1,.74-2.43,2.46,2.46,0,0,1,2-.9,2,2,0,0,1,1.8,1h0V173h1Zm-1-2.23v-.88a1.72,1.72,0,0,0-.48-1.22,1.59,1.59,0,0,0-1.2-.51,1.67,1.67,0,0,0-1.39.65,2.89,2.89,0,0,0-.5,1.81,2.48,2.48,0,0,0,.48,1.6,1.56,1.56,0,0,0,1.28.6,1.67,1.67,0,0,0,1.32-.57A2.14,2.14,0,0,0,152.5,176.29Z" fill="#fff"/><path d="M165.59,179h-1.21l-4.32-6.7a2.8,2.8,0,0,1-.27-.53h0a8.65,8.65,0,0,1,0,1.15V179h-1v-8.4h1.28l4.21,6.59q.26.41.34.56h0a8.89,8.89,0,0,1-.06-1.24V170.6h1Z" fill="#fff"/><path d="M172,179h-1v-.94h0a2,2,0,0,1-1.85,1.08,2,2,0,0,1-1.4-.47,1.64,1.64,0,0,1-.51-1.26q0-1.68,2-2l1.8-.25q0-1.53-1.24-1.53a3,3,0,0,0-2,.74v-1a3.72,3.72,0,0,1,2-.56q2.12,0,2.12,2.24Zm-1-3-1.45.2a2.35,2.35,0,0,0-1,.33,1,1,0,0,0-.34.84.92.92,0,0,0,.31.72,1.21,1.21,0,0,0,.83.28,1.54,1.54,0,0,0,1.18-.5,1.79,1.79,0,0,0,.47-1.27Z" fill="#fff"/><path d="M182.29,179h-1v-3.45a2.6,2.6,0,0,0-.31-1.44,1.17,1.17,0,0,0-1-.45,1.28,1.28,0,0,0-1,.56,2.15,2.15,0,0,0-.43,1.35V179h-1v-3.56q0-1.77-1.37-1.77a1.26,1.26,0,0,0-1,.53,2.19,2.19,0,0,0-.41,1.38V179h-1v-6h1v.95h0a2,2,0,0,1,1.86-1.09,1.73,1.73,0,0,1,1.7,1.24,2.14,2.14,0,0,1,2-1.24q2,0,2,2.44Z" fill="#fff"/><path d="M188.93,176.24h-4.24a2.24,2.24,0,0,0,.54,1.55,1.86,1.86,0,0,0,1.42.54,3,3,0,0,0,1.86-.67v.9a3.48,3.48,0,0,1-2.09.57,2.54,2.54,0,0,1-2-.82,3.35,3.35,0,0,1-.73-2.3,3.28,3.28,0,0,1,.79-2.28,2.55,2.55,0,0,1,2-.88,2.26,2.26,0,0,1,1.82.76,3.18,3.18,0,0,1,.64,2.12Zm-1-.81a2,2,0,0,0-.4-1.29,1.37,1.37,0,0,0-1.1-.46,1.55,1.55,0,0,0-1.15.49,2.21,2.21,0,0,0-.59,1.27Z" fill="#fff"/><polygon points="645.14 169.97 643.62 168.45 640.07 172 636.52 168.45 635 169.97 638.55 173.52 635 177.07 636.52 178.59 640.07 175.04 643.62 178.59 645.14 177.07 641.59 173.52 645.14 169.97" fill="#fff"/></g></g></svg>