<svg xmlns="http://www.w3.org/2000/svg" xmlns:xlink="http://www.w3.org/1999/xlink" width="760" height="59" viewBox="0 0 760 59"><defs><linearGradient id="linear-gradient" x1="303.5" y1="46.79" x2="303.5" y2="55.74" gradientUnits="userSpaceOnUse"><stop offset="0" stop-color="#ebe9ec"/><stop offset="0.28" stop-color="#e5e6e9"/><stop offset="1" stop-color="#dadfe2"/></linearGradient><linearGradient id="linear-gradient-2" y1="33.9" x2="303.5" y2="42.83" xlink:href="#linear-gradient"/></defs><title>dialogs-content-text-control-spacing</title><g id="SPEC_text"><path d="M112,18h-.88V11.35a2.1,2.1,0,0,1-.3.23,4.82,4.82,0,0,1-.44.26l-.52.24a3.74,3.74,0,0,1-.53.18v-.89a5.41,5.41,0,0,0,.62-.22c.22-.09.43-.19.64-.31s.41-.23.59-.35a4.57,4.57,0,0,0,.48-.36H112Z" fill="#ec008c"/><path d="M119.55,14.12a7.57,7.57,0,0,1-.17,1.71,4,4,0,0,1-.5,1.26,2.26,2.26,0,0,1-.81.78,2.22,2.22,0,0,1-1.09.27,2.07,2.07,0,0,1-1-.26,2.17,2.17,0,0,1-.77-.74,3.75,3.75,0,0,1-.47-1.2,7.42,7.42,0,0,1-.16-1.63,8.44,8.44,0,0,1,.17-1.78,4.08,4.08,0,0,1,.5-1.3,2.21,2.21,0,0,1,.81-.79,2.29,2.29,0,0,1,1.12-.27Q119.55,10.17,119.55,14.12Zm-.9.09q0-3.29-1.56-3.29t-1.65,3.35q0,3.12,1.62,3.12T118.65,14.2Z" fill="#ec008c"/><path d="M119.28,31.65a2.59,2.59,0,0,1-.19,1,2.23,2.23,0,0,1-.55.78,2.46,2.46,0,0,1-.86.5,3.37,3.37,0,0,1-1.12.18,3.1,3.1,0,0,1-1.6-.32v-.94a2.93,2.93,0,0,0,1.61.51,2.18,2.18,0,0,0,.75-.12,1.68,1.68,0,0,0,.57-.34,1.47,1.47,0,0,0,.36-.53,1.8,1.8,0,0,0,.13-.68,1.46,1.46,0,0,0-.51-1.18,2.21,2.21,0,0,0-1.47-.43h-.67l-.34,0-.3,0,.26-3.86h3.56v.79h-2.8L116,29.35l.37,0h.34a3.46,3.46,0,0,1,1.1.16,2.32,2.32,0,0,1,.82.46,1.93,1.93,0,0,1,.51.73A2.57,2.57,0,0,1,119.28,31.65Z" fill="#ec008c"/><rect x="129" y="28" width="1" height="5" fill="#ec008c"/><rect x="126" y="28" width="7" height="1" fill="#ec008c"/><rect x="126" y="32" width="7" height="1" fill="#ec008c"/><rect x="129" y="9" width="1" height="10" fill="#ec008c"/><rect x="126" y="9" width="7" height="1" fill="#ec008c"/><rect x="126" y="18" width="7" height="1" fill="#ec008c"/><path d="M136.07,1.48h-2.43V9h-1V1.48h-2.42V.59h5.83Z" fill="#4d5359"/><path d="M140.85,6.23h-4.24a2.24,2.24,0,0,0,.54,1.55,1.86,1.86,0,0,0,1.42.54,3,3,0,0,0,1.86-.67v.9a3.48,3.48,0,0,1-2.09.57,2.54,2.54,0,0,1-2-.82,3.35,3.35,0,0,1-.73-2.3,3.28,3.28,0,0,1,.79-2.28,2.55,2.55,0,0,1,2-.88,2.26,2.26,0,0,1,1.82.76,3.18,3.18,0,0,1,.64,2.12Zm-1-.81a2,2,0,0,0-.4-1.29,1.37,1.37,0,0,0-1.1-.46,1.55,1.55,0,0,0-1.15.49,2.21,2.21,0,0,0-.59,1.27Z" fill="#4d5359"/><path d="M146.68,3l-2,3,2,3h-1.12L144.35,7l-.26-.46h0l-.28.46L142.59,9h-1.11l2-2.94-2-3.06h1.12L143.85,5l.25.47h0L145.62,3Z" fill="#4d5359"/><path d="M150.59,8.93a1.85,1.85,0,0,1-.9.19q-1.58,0-1.58-1.76V3.81h-1V3h1V1.53l1-.31V3h1.51v.82h-1.51V7.19a1.4,1.4,0,0,0,.21.86.82.82,0,0,0,.68.26,1,1,0,0,0,.63-.2Z" fill="#4d5359"/><path d="M160.14,9h-1V5.57q0-1.91-1.39-1.91a1.51,1.51,0,0,0-1.19.54,2,2,0,0,0-.47,1.37V9h-1V3h1V4h0a2.17,2.17,0,0,1,2-1.14,1.84,1.84,0,0,1,1.51.64,2.83,2.83,0,0,1,.52,1.84Z" fill="#4d5359"/><path d="M164.46,9.13a2.78,2.78,0,0,1-2.12-.84,3.11,3.11,0,0,1-.79-2.23,3.24,3.24,0,0,1,.83-2.36,3,3,0,0,1,2.23-.85,2.69,2.69,0,0,1,2.09.83A3.28,3.28,0,0,1,167.45,6a3.22,3.22,0,0,1-.81,2.3A2.84,2.84,0,0,1,164.46,9.13Zm.07-5.47a1.83,1.83,0,0,0-1.46.63A2.59,2.59,0,0,0,162.53,6a2.45,2.45,0,0,0,.54,1.68,1.85,1.85,0,0,0,1.46.62,1.76,1.76,0,0,0,1.43-.6,2.62,2.62,0,0,0,.5-1.72,2.66,2.66,0,0,0-.5-1.73A1.75,1.75,0,0,0,164.53,3.66Z" fill="#4d5359"/><path d="M171.77,8.93a1.85,1.85,0,0,1-.9.19q-1.58,0-1.58-1.76V3.81h-1V3h1V1.53l1-.31V3h1.51v.82h-1.51V7.19a1.4,1.4,0,0,0,.21.86.82.82,0,0,0,.68.26,1,1,0,0,0,.63-.2Z" fill="#4d5359"/><path d="M179.46,4a1.18,1.18,0,0,0-.73-.19,1.23,1.23,0,0,0-1,.58,2.68,2.68,0,0,0-.41,1.58V9h-1V3h1V4.23h0a2.1,2.1,0,0,1,.63-1,1.43,1.43,0,0,1,.94-.35,1.57,1.57,0,0,1,.57.08Z" fill="#4d5359"/><path d="M185.17,6.23h-4.24a2.24,2.24,0,0,0,.54,1.55,1.86,1.86,0,0,0,1.42.54,3,3,0,0,0,1.86-.67v.9a3.48,3.48,0,0,1-2.09.57,2.54,2.54,0,0,1-2-.82,3.35,3.35,0,0,1-.73-2.3,3.28,3.28,0,0,1,.79-2.28,2.55,2.55,0,0,1,2-.88,2.26,2.26,0,0,1,1.82.76,3.18,3.18,0,0,1,.64,2.12Zm-1-.81a2,2,0,0,0-.4-1.29,1.37,1.37,0,0,0-1.1-.46,1.55,1.55,0,0,0-1.15.49,2.21,2.21,0,0,0-.59,1.27Z" fill="#4d5359"/><path d="M187.59,9h-1V.11h1Z" fill="#4d5359"/><path d="M193.83,9h-1V8.05h0A2,2,0,0,1,191,9.13a2,2,0,0,1-1.4-.47,1.64,1.64,0,0,1-.51-1.26q0-1.68,2-2l1.8-.25q0-1.53-1.24-1.53a3,3,0,0,0-2,.74v-1a3.72,3.72,0,0,1,2-.56q2.12,0,2.12,2.24Zm-1-3-1.45.2a2.35,2.35,0,0,0-1,.33,1,1,0,0,0-.34.84.92.92,0,0,0,.31.72,1.21,1.21,0,0,0,.83.28,1.54,1.54,0,0,0,1.18-.5,1.79,1.79,0,0,0,.47-1.27Z" fill="#4d5359"/><path d="M198.42,8.93a1.85,1.85,0,0,1-.9.19q-1.58,0-1.58-1.76V3.81h-1V3h1V1.53l1-.31V3h1.51v.82h-1.51V7.19a1.4,1.4,0,0,0,.21.86.82.82,0,0,0,.68.26,1,1,0,0,0,.63-.2Z" fill="#4d5359"/><path d="M204.43,6.23H200.2a2.24,2.24,0,0,0,.54,1.55,1.86,1.86,0,0,0,1.42.54A3,3,0,0,0,204,7.66v.9a3.48,3.48,0,0,1-2.09.57,2.54,2.54,0,0,1-2-.82A3.35,3.35,0,0,1,199.2,6,3.28,3.28,0,0,1,200,3.73a2.55,2.55,0,0,1,2-.88,2.26,2.26,0,0,1,1.82.76,3.18,3.18,0,0,1,.64,2.12Zm-1-.81a2,2,0,0,0-.4-1.29,1.37,1.37,0,0,0-1.1-.46,1.55,1.55,0,0,0-1.15.49,2.21,2.21,0,0,0-.59,1.27Z" fill="#4d5359"/><path d="M211,9h-1V8h0A2.22,2.22,0,0,1,208,9.13a2.24,2.24,0,0,1-1.81-.81,3.31,3.31,0,0,1-.68-2.19,3.6,3.6,0,0,1,.75-2.38,2.47,2.47,0,0,1,2-.9,1.92,1.92,0,0,1,1.8,1h0V.11h1Zm-1-2.71V5.39a1.72,1.72,0,0,0-.48-1.23,1.61,1.61,0,0,0-1.22-.5A1.66,1.66,0,0,0,207,4.3a2.82,2.82,0,0,0-.5,1.78,2.54,2.54,0,0,0,.48,1.64,1.58,1.58,0,0,0,1.3.6,1.64,1.64,0,0,0,1.3-.58A2.16,2.16,0,0,0,210,6.28Z" fill="#4d5359"/><path d="M219,8.93a1.85,1.85,0,0,1-.9.19q-1.58,0-1.58-1.76V3.81h-1V3h1V1.53l1-.31V3H219v.82h-1.51V7.19a1.4,1.4,0,0,0,.21.86.82.82,0,0,0,.68.26,1,1,0,0,0,.63-.2Z" fill="#4d5359"/><path d="M222.72,9.13a2.78,2.78,0,0,1-2.12-.84,3.11,3.11,0,0,1-.79-2.23,3.24,3.24,0,0,1,.83-2.36,3,3,0,0,1,2.23-.85,2.69,2.69,0,0,1,2.09.83A3.28,3.28,0,0,1,225.71,6a3.22,3.22,0,0,1-.81,2.3A2.84,2.84,0,0,1,222.72,9.13Zm.07-5.47a1.83,1.83,0,0,0-1.46.63A2.59,2.59,0,0,0,220.79,6a2.45,2.45,0,0,0,.54,1.68,1.85,1.85,0,0,0,1.46.62,1.76,1.76,0,0,0,1.43-.6,2.62,2.62,0,0,0,.5-1.72,2.66,2.66,0,0,0-.5-1.73A1.75,1.75,0,0,0,222.79,3.66Z" fill="#4d5359"/><path d="M234.62,8.72a3.12,3.12,0,0,1-1.64.42,2.72,2.72,0,0,1-2.07-.83,3,3,0,0,1-.79-2.17A3.33,3.33,0,0,1,231,3.75a3,3,0,0,1,2.27-.9,3.16,3.16,0,0,1,1.39.29v1a2.44,2.44,0,0,0-1.43-.47,1.93,1.93,0,0,0-1.51.66,2.5,2.5,0,0,0-.59,1.73,2.38,2.38,0,0,0,.55,1.66,1.91,1.91,0,0,0,1.49.61,2.41,2.41,0,0,0,1.48-.52Z" fill="#4d5359"/><path d="M238.58,9.13a2.78,2.78,0,0,1-2.12-.84,3.11,3.11,0,0,1-.79-2.23,3.24,3.24,0,0,1,.83-2.36,3,3,0,0,1,2.23-.85,2.69,2.69,0,0,1,2.09.83A3.28,3.28,0,0,1,241.57,6a3.22,3.22,0,0,1-.81,2.3A2.84,2.84,0,0,1,238.58,9.13Zm.07-5.47a1.83,1.83,0,0,0-1.46.63A2.59,2.59,0,0,0,236.65,6a2.45,2.45,0,0,0,.54,1.68,1.85,1.85,0,0,0,1.46.62,1.76,1.76,0,0,0,1.43-.6,2.62,2.62,0,0,0,.5-1.72,2.66,2.66,0,0,0-.5-1.73A1.75,1.75,0,0,0,238.65,3.66Z" fill="#4d5359"/><path d="M248.08,9h-1V5.57q0-1.91-1.39-1.91a1.51,1.51,0,0,0-1.19.54,2,2,0,0,0-.47,1.37V9h-1V3h1V4h0a2.17,2.17,0,0,1,2-1.14,1.84,1.84,0,0,1,1.51.64,2.83,2.83,0,0,1,.52,1.84Z" fill="#4d5359"/><path d="M252.68,8.93a1.85,1.85,0,0,1-.9.19q-1.58,0-1.58-1.76V3.81h-1V3h1V1.53l1-.31V3h1.51v.82h-1.51V7.19a1.4,1.4,0,0,0,.21.86.82.82,0,0,0,.68.26,1,1,0,0,0,.63-.2Z" fill="#4d5359"/><path d="M257.09,4a1.18,1.18,0,0,0-.73-.19,1.23,1.23,0,0,0-1,.58,2.68,2.68,0,0,0-.41,1.58V9h-1V3h1V4.23h0a2.1,2.1,0,0,1,.63-1,1.43,1.43,0,0,1,.94-.35,1.57,1.57,0,0,1,.57.08Z" fill="#4d5359"/><path d="M260.48,9.13a2.78,2.78,0,0,1-2.12-.84,3.11,3.11,0,0,1-.79-2.23,3.24,3.24,0,0,1,.83-2.36,3,3,0,0,1,2.23-.85,2.69,2.69,0,0,1,2.09.83A3.28,3.28,0,0,1,263.47,6a3.22,3.22,0,0,1-.81,2.3A2.84,2.84,0,0,1,260.48,9.13Zm.07-5.47a1.83,1.83,0,0,0-1.46.63A2.59,2.59,0,0,0,258.55,6a2.45,2.45,0,0,0,.54,1.68,1.85,1.85,0,0,0,1.46.62,1.76,1.76,0,0,0,1.43-.6,2.62,2.62,0,0,0,.5-1.72,2.66,2.66,0,0,0-.5-1.73A1.75,1.75,0,0,0,260.55,3.66Z" fill="#4d5359"/><path d="M266,9h-1V.11h1Z" fill="#4d5359"/><rect x="131" y="34.21" width="163" height="22" fill="#fff"/><path d="M140.24,50.21h-1V43a2.22,2.22,0,0,1-.33.25,5.3,5.3,0,0,1-.48.28q-.27.14-.56.26a4.09,4.09,0,0,1-.58.19V43a5.59,5.59,0,0,0,.67-.24q.35-.15.7-.33t.65-.39a5.14,5.14,0,0,0,.53-.4h.36Z" fill="#575757"/><path d="M130,33V57H295V33ZM294,56H131V34H294Z" fill="#9ba0a4"/><rect x="298" y="46.79" width="11" height="9" fill="url(#linear-gradient)"/><polygon points="300.32 48.79 307.39 48.79 303.86 53.53 300.32 48.79" fill="#575757"/><rect x="298" y="33.79" width="11" height="9" fill="url(#linear-gradient-2)"/><polygon points="307.39 40.79 300.32 40.79 303.86 36.05 307.39 40.79" fill="#575757"/><path d="M297,45.79v11h13v-11Zm12,10H298v-9h11Z" fill="#9ba0a4"/><path d="M310,43.79v-11H297v11Zm-12-10h11v9H298Z" fill="#9ba0a4"/><path d="M136.82,27.64a4.93,4.93,0,0,1-2.32.49A3.74,3.74,0,0,1,131.63,27a4.26,4.26,0,0,1-1.08-3,4.46,4.46,0,0,1,1.21-3.26,4.12,4.12,0,0,1,3.08-1.24,4.93,4.93,0,0,1,2,.35v1a4,4,0,0,0-2-.5,3.06,3.06,0,0,0-2.35,1,3.64,3.64,0,0,0-.9,2.58,3.47,3.47,0,0,0,.84,2.45,2.86,2.86,0,0,0,2.21.91,4.14,4.14,0,0,0,2.19-.56Z" fill="#4d5359"/><path d="M140.91,28.13a2.78,2.78,0,0,1-2.12-.84,3.11,3.11,0,0,1-.79-2.23,3.24,3.24,0,0,1,.83-2.36,3,3,0,0,1,2.23-.85,2.69,2.69,0,0,1,2.09.83A3.28,3.28,0,0,1,143.9,25a3.22,3.22,0,0,1-.81,2.3A2.84,2.84,0,0,1,140.91,28.13Zm.07-5.47a1.83,1.83,0,0,0-1.46.63A2.59,2.59,0,0,0,139,25a2.45,2.45,0,0,0,.54,1.68,1.85,1.85,0,0,0,1.46.62,1.76,1.76,0,0,0,1.43-.6,2.62,2.62,0,0,0,.5-1.72,2.66,2.66,0,0,0-.5-1.73A1.75,1.75,0,0,0,141,22.66Z" fill="#4d5359"/><path d="M150.41,28h-1V24.57q0-1.91-1.39-1.91a1.51,1.51,0,0,0-1.19.54,2,2,0,0,0-.47,1.37V28h-1V22h1v1h0a2.17,2.17,0,0,1,2-1.14,1.84,1.84,0,0,1,1.51.64,2.83,2.83,0,0,1,.52,1.84Z" fill="#4d5359"/><path d="M155,27.93a1.85,1.85,0,0,1-.9.19q-1.58,0-1.58-1.76V22.81h-1V22h1V20.53l1-.31V22H155v.82H153.5v3.38a1.4,1.4,0,0,0,.21.86.82.82,0,0,0,.68.26,1,1,0,0,0,.63-.2Z" fill="#4d5359"/><path d="M159.42,23a1.18,1.18,0,0,0-.73-.19,1.23,1.23,0,0,0-1,.58,2.68,2.68,0,0,0-.41,1.58V28h-1V22h1v1.24h0a2.1,2.1,0,0,1,.63-1,1.43,1.43,0,0,1,.94-.35,1.57,1.57,0,0,1,.57.08Z" fill="#4d5359"/><path d="M162.81,28.13a2.78,2.78,0,0,1-2.12-.84,3.11,3.11,0,0,1-.79-2.23,3.24,3.24,0,0,1,.83-2.36,3,3,0,0,1,2.23-.85,2.69,2.69,0,0,1,2.09.83A3.28,3.28,0,0,1,165.8,25a3.22,3.22,0,0,1-.81,2.3A2.84,2.84,0,0,1,162.81,28.13Zm.07-5.47a1.83,1.83,0,0,0-1.46.63,2.59,2.59,0,0,0-.54,1.74,2.45,2.45,0,0,0,.54,1.68,1.85,1.85,0,0,0,1.46.62,1.76,1.76,0,0,0,1.43-.6,2.62,2.62,0,0,0,.5-1.72,2.66,2.66,0,0,0-.5-1.73A1.75,1.75,0,0,0,162.88,22.66Z" fill="#4d5359"/><path d="M168.3,28h-1V19.11h1Z" fill="#4d5359"/><path d="M174.49,28h-1V19.11h1Z" fill="#4d5359"/><path d="M180.73,28h-1v-.94h0a2,2,0,0,1-1.85,1.08,2,2,0,0,1-1.4-.47A1.64,1.64,0,0,1,176,26.4q0-1.68,2-2l1.8-.25q0-1.53-1.24-1.53a3,3,0,0,0-2,.74v-1a3.72,3.72,0,0,1,2-.56q2.12,0,2.12,2.24Zm-1-3-1.45.2a2.35,2.35,0,0,0-1,.33,1,1,0,0,0-.34.84.92.92,0,0,0,.31.72,1.21,1.21,0,0,0,.83.28,1.54,1.54,0,0,0,1.18-.5,1.79,1.79,0,0,0,.47-1.27Z" fill="#4d5359"/><path d="M183.53,27.13h0V28h-1V19.11h1V23h0a2.27,2.27,0,0,1,2.07-1.2,2.2,2.2,0,0,1,1.81.81,3.33,3.33,0,0,1,.65,2.16,3.72,3.72,0,0,1-.73,2.41,2.44,2.44,0,0,1-2,.91A2,2,0,0,1,183.53,27.13Zm0-2.42v.84a1.78,1.78,0,0,0,.48,1.26,1.72,1.72,0,0,0,2.6-.15,3.06,3.06,0,0,0,.5-1.86,2.42,2.42,0,0,0-.46-1.57,1.53,1.53,0,0,0-1.25-.57,1.7,1.7,0,0,0-1.35.58A2.14,2.14,0,0,0,183.5,24.71Z" fill="#4d5359"/><path d="M194.42,25.23h-4.24a2.24,2.24,0,0,0,.54,1.55,1.86,1.86,0,0,0,1.42.54,3,3,0,0,0,1.86-.67v.9a3.48,3.48,0,0,1-2.09.57,2.54,2.54,0,0,1-2-.82,3.35,3.35,0,0,1-.73-2.3,3.28,3.28,0,0,1,.79-2.28,2.55,2.55,0,0,1,2-.88,2.26,2.26,0,0,1,1.82.76,3.18,3.18,0,0,1,.64,2.12Zm-1-.81a2,2,0,0,0-.4-1.29,1.37,1.37,0,0,0-1.1-.46,1.55,1.55,0,0,0-1.15.49,2.21,2.21,0,0,0-.59,1.27Z" fill="#4d5359"/><path d="M196.83,28h-1V19.11h1Z" fill="#4d5359"/></g></svg>